<svg xmlns="http://www.w3.org/2000/svg" version="1.1">
<defs>
    <marker id="arrow"
      viewBox="0 0 10 10" refX="0" refY="5"
      markerUnits="strokeWidth"
      markerWidth="4" markerHeight="3"
      orient="auto">
      <path d="M 0 0 L 10 5 L 0 10 z" />
    </marker>
  </defs>
<g stroke="#000000" fill="none" stroke-opacity="1.0" fill-opacity="1.0" transform="scale(0.5)">
<rect x="0" y="0" width="1100" height="630" stroke-width="0" fill="none" />
<g stroke="#000000" fill="none" stroke-opacity="1.0" fill-opacity="1.0" transform="scale(0.5)">
</g>
<g transform="rotate(-10.0 550 315)" >
<g stroke="#000000" fill="none" stroke-opacity="1.0" fill-opacity="1.0" transform="scale(0.5)">
</g>
<g stroke="#000000" fill="#5D87C3" stroke-opacity="1.0" fill-opacity="1.0" transform="scale(0.5)">
<polygon points="316,398  766,398  766,428  316,428" stroke-width="1" />
<polygon points="316,318  766,318  766,288  316,288" stroke-width="1" />
</g>
<g stroke="#5D87C3" fill="none" stroke-opacity="1.0" fill-opacity="1.0" transform="scale(0.5)">
<text x=" 317" y="284.0" font-family="Arial" font-size=" 20" fill="#5D87C3" stroke-width="0">&lt;&lt; тупик</text>
<text x=" 583" y="448.0" font-family="Arial" font-size=" 20" fill="#5D87C3" stroke-width="0">Проспект Свободы &gt;&gt;</text>
<text x=" 446" y="365.0" font-family="Arial" font-size=" 25" fill="#5D87C3" stroke-width="0">Коммунаровская</text>
</g>
<g stroke="#000000" fill="none" stroke-opacity="1.0" fill-opacity="1.0" transform="scale(0.5)">
<polyline points="846,240  926,254  913,330  899,328  900,320  844,310  818,328  766,328  766,318" stroke-width="1" fill="none"  />
<polyline points="1029,272  949,258  907,496  990,511" stroke-width="1" fill="none"  />
<polyline points="801,477  884,492  898,415  884,413  883,421  837,413  818,387  766,387  766,398" stroke-width="1" fill="none"  />
<polyline points="798,494  987,528" stroke-width="1" fill="none"  />
<polyline points="849,223  1032,255" stroke-width="1" fill="none"  />
<line x1="770" y1="387" x2="770" y2="328" stroke-width="1" />
<line x1="774" y1="387" x2="774" y2="328" stroke-width="1" />
<line x1="778" y1="387" x2="778" y2="328" stroke-width="1" />
<line x1="782" y1="387" x2="782" y2="328" stroke-width="1" />
<line x1="786" y1="387" x2="786" y2="328" stroke-width="1" />
<line x1="790" y1="387" x2="790" y2="328" stroke-width="1" />
<line x1="794" y1="387" x2="794" y2="328" stroke-width="1" />
<line x1="798" y1="387" x2="798" y2="328" stroke-width="1" />
<line x1="802" y1="387" x2="802" y2="328" stroke-width="1" />
<line x1="806" y1="387" x2="806" y2="328" stroke-width="1" />
<line x1="810" y1="387" x2="810" y2="328" stroke-width="1" />
<line x1="814" y1="387" x2="814" y2="328" stroke-width="1" />
<line x1="1029" y1="272" x2="1032" y2="255" stroke-width="1" />
<line x1="1025.05915298" y1="271.314635301" x2="1028.05915298" y2="254.314635301" stroke-width="1" />
<line x1="1021.11830596" y1="270.629270602" x2="1024.11830596" y2="253.629270602" stroke-width="1" />
<line x1="1017.17745894" y1="269.943905903" x2="1020.17745894" y2="252.943905903" stroke-width="1" />
<line x1="1013.23661192" y1="269.258541204" x2="1016.23661192" y2="252.258541204" stroke-width="1" />
<line x1="1009.2957649" y1="268.573176505" x2="1012.2957649" y2="251.573176505" stroke-width="1" />
<line x1="1005.35491788" y1="267.887811806" x2="1008.35491788" y2="250.887811806" stroke-width="1" />
<line x1="1001.41407087" y1="267.202447107" x2="1004.41407087" y2="250.202447107" stroke-width="1" />
<line x1="997.473223846" y1="266.517082408" x2="1000.47322385" y2="249.517082408" stroke-width="1" />
<line x1="993.532376826" y1="265.831717709" x2="996.532376826" y2="248.831717709" stroke-width="1" />
<line x1="989.591529807" y1="265.14635301" x2="992.591529807" y2="248.14635301" stroke-width="1" />
<line x1="985.650682788" y1="264.460988311" x2="988.650682788" y2="247.460988311" stroke-width="1" />
<line x1="990" y1="511" x2="987" y2="528" stroke-width="1" />
<line x1="986.065811335" y1="510.277393919" x2="983.065811335" y2="527.277393919" stroke-width="1" />
<line x1="982.13162267" y1="509.554787837" x2="979.13162267" y2="526.554787837" stroke-width="1" />
<line x1="978.197434005" y1="508.832181756" x2="975.197434005" y2="525.832181756" stroke-width="1" />
<line x1="974.26324534" y1="508.109575675" x2="971.26324534" y2="525.109575675" stroke-width="1" />
<line x1="970.329056675" y1="507.386969593" x2="967.329056675" y2="524.386969593" stroke-width="1" />
<line x1="966.39486801" y1="506.664363512" x2="963.39486801" y2="523.664363512" stroke-width="1" />
<line x1="962.460679346" y1="505.941757431" x2="959.460679346" y2="522.941757431" stroke-width="1" />
<line x1="958.526490681" y1="505.219151349" x2="955.526490681" y2="522.219151349" stroke-width="1" />
<line x1="954.592302016" y1="504.496545268" x2="951.592302016" y2="521.496545268" stroke-width="1" />
<line x1="950.658113351" y1="503.773939187" x2="947.658113351" y2="520.773939187" stroke-width="1" />
<line x1="946.723924686" y1="503.051333106" x2="943.723924686" y2="520.051333106" stroke-width="1" />
<line x1="942.789736021" y1="502.328727024" x2="939.789736021" y2="519.328727024" stroke-width="1" />
<line x1="846" y1="240" x2="849" y2="223" stroke-width="1" />
<line x1="849.940847019" y1="240.685364699" x2="852.940847019" y2="223.685364699" stroke-width="1" />
<line x1="853.881694039" y1="241.370729398" x2="856.881694039" y2="224.370729398" stroke-width="1" />
<line x1="857.822541058" y1="242.056094097" x2="860.822541058" y2="225.056094097" stroke-width="1" />
<line x1="861.763388077" y1="242.741458796" x2="864.763388077" y2="225.741458796" stroke-width="1" />
<line x1="865.704235096" y1="243.426823495" x2="868.704235096" y2="226.426823495" stroke-width="1" />
<line x1="869.645082116" y1="244.112188194" x2="872.645082116" y2="227.112188194" stroke-width="1" />
<line x1="873.585929135" y1="244.797552893" x2="876.585929135" y2="227.797552893" stroke-width="1" />
<line x1="877.526776154" y1="245.482917592" x2="880.526776154" y2="228.482917592" stroke-width="1" />
<line x1="881.467623174" y1="246.168282291" x2="884.467623174" y2="229.168282291" stroke-width="1" />
<line x1="885.408470193" y1="246.85364699" x2="888.408470193" y2="229.85364699" stroke-width="1" />
<line x1="889.349317212" y1="247.539011689" x2="892.349317212" y2="230.539011689" stroke-width="1" />
<line x1="801" y1="477" x2="798" y2="494" stroke-width="1" />
<line x1="804.934188665" y1="477.722606081" x2="801.934188665" y2="494.722606081" stroke-width="1" />
<line x1="808.86837733" y1="478.445212163" x2="805.86837733" y2="495.445212163" stroke-width="1" />
<line x1="812.802565995" y1="479.167818244" x2="809.802565995" y2="496.167818244" stroke-width="1" />
<line x1="816.73675466" y1="479.890424325" x2="813.73675466" y2="496.890424325" stroke-width="1" />
<line x1="820.670943325" y1="480.613030407" x2="817.670943325" y2="497.613030407" stroke-width="1" />
<line x1="824.60513199" y1="481.335636488" x2="821.60513199" y2="498.335636488" stroke-width="1" />
<line x1="828.539320654" y1="482.058242569" x2="825.539320654" y2="499.058242569" stroke-width="1" />
<line x1="832.473509319" y1="482.780848651" x2="829.473509319" y2="499.780848651" stroke-width="1" />
<line x1="836.407697984" y1="483.503454732" x2="833.407697984" y2="500.503454732" stroke-width="1" />
<line x1="840.341886649" y1="484.226060813" x2="837.341886649" y2="501.226060813" stroke-width="1" />
<line x1="844.276075314" y1="484.948666894" x2="841.276075314" y2="501.948666894" stroke-width="1" />
<line x1="848.210263979" y1="485.671272976" x2="845.210263979" y2="502.671272976" stroke-width="1" />
</g>
<g stroke="#000000" fill="#D0D0D0" stroke-opacity="1.0" fill-opacity="1.0" transform="scale(0.5)">
<polygon points="909,351  895,349  888,391  902,393" stroke-width="1" />
</g>
<g stroke="#000000" fill="#D0D0D0" stroke-opacity="1.0" fill-opacity="1.0" transform="scale(0.5)">
<polyline points="234,237  184,237  184,314  198,314  198,307  243,307  264,328  316,328  316,318" stroke-width="1" fill="none"  />
<polyline points="234,220  111,220" stroke-width="1" fill="none"  />
<polyline points="111,237  161,237  161,479  111,479" stroke-width="1" fill="none"  />
<polyline points="111,499  234,499" stroke-width="1" fill="none"  />
<polyline points="234,479  184,479  184,402  198,402  198,409  242,409  264,387  316,387  316,398" stroke-width="1" fill="none"  />
<line x1="312" y1="387" x2="312" y2="328" stroke-width="1" />
<line x1="308" y1="387" x2="308" y2="328" stroke-width="1" />
<line x1="304" y1="387" x2="304" y2="328" stroke-width="1" />
<line x1="300" y1="387" x2="300" y2="328" stroke-width="1" />
<line x1="296" y1="387" x2="296" y2="328" stroke-width="1" />
<line x1="292" y1="387" x2="292" y2="328" stroke-width="1" />
<line x1="288" y1="387" x2="288" y2="328" stroke-width="1" />
<line x1="284" y1="387" x2="284" y2="328" stroke-width="1" />
<line x1="280" y1="387" x2="280" y2="328" stroke-width="1" />
<line x1="276" y1="387" x2="276" y2="328" stroke-width="1" />
<line x1="272" y1="387" x2="272" y2="328" stroke-width="1" />
<line x1="268" y1="387" x2="268" y2="328" stroke-width="1" />
<line x1="113" y1="237" x2="113" y2="220" stroke-width="1" />
<line x1="117" y1="237" x2="117" y2="220" stroke-width="1" />
<line x1="121" y1="237" x2="121" y2="220" stroke-width="1" />
<line x1="125" y1="237" x2="125" y2="220" stroke-width="1" />
<line x1="129" y1="237" x2="129" y2="220" stroke-width="1" />
<line x1="133" y1="237" x2="133" y2="220" stroke-width="1" />
<line x1="137" y1="237" x2="137" y2="220" stroke-width="1" />
<line x1="141" y1="237" x2="141" y2="220" stroke-width="1" />
<line x1="145" y1="237" x2="145" y2="220" stroke-width="1" />
<line x1="149" y1="237" x2="149" y2="220" stroke-width="1" />
<line x1="153" y1="237" x2="153" y2="220" stroke-width="1" />
<line x1="157" y1="237" x2="157" y2="220" stroke-width="1" />
<line x1="232" y1="237" x2="232" y2="220" stroke-width="1" />
<line x1="228" y1="237" x2="228" y2="220" stroke-width="1" />
<line x1="224" y1="237" x2="224" y2="220" stroke-width="1" />
<line x1="220" y1="237" x2="220" y2="220" stroke-width="1" />
<line x1="216" y1="237" x2="216" y2="220" stroke-width="1" />
<line x1="212" y1="237" x2="212" y2="220" stroke-width="1" />
<line x1="208" y1="237" x2="208" y2="220" stroke-width="1" />
<line x1="204" y1="237" x2="204" y2="220" stroke-width="1" />
<line x1="200" y1="237" x2="200" y2="220" stroke-width="1" />
<line x1="196" y1="237" x2="196" y2="220" stroke-width="1" />
<line x1="192" y1="237" x2="192" y2="220" stroke-width="1" />
<line x1="188" y1="237" x2="188" y2="220" stroke-width="1" />
<line x1="232" y1="479" x2="232" y2="499" stroke-width="1" />
<line x1="228" y1="479" x2="228" y2="499" stroke-width="1" />
<line x1="224" y1="479" x2="224" y2="499" stroke-width="1" />
<line x1="220" y1="479" x2="220" y2="499" stroke-width="1" />
<line x1="216" y1="479" x2="216" y2="499" stroke-width="1" />
<line x1="212" y1="479" x2="212" y2="499" stroke-width="1" />
<line x1="208" y1="479" x2="208" y2="499" stroke-width="1" />
<line x1="204" y1="479" x2="204" y2="499" stroke-width="1" />
<line x1="200" y1="479" x2="200" y2="499" stroke-width="1" />
<line x1="196" y1="479" x2="196" y2="499" stroke-width="1" />
<line x1="192" y1="479" x2="192" y2="499" stroke-width="1" />
<line x1="188" y1="479" x2="188" y2="499" stroke-width="1" />
<line x1="113" y1="479" x2="113" y2="499" stroke-width="1" />
<line x1="117" y1="479" x2="117" y2="499" stroke-width="1" />
<line x1="121" y1="479" x2="121" y2="499" stroke-width="1" />
<line x1="125" y1="479" x2="125" y2="499" stroke-width="1" />
<line x1="129" y1="479" x2="129" y2="499" stroke-width="1" />
<line x1="133" y1="479" x2="133" y2="499" stroke-width="1" />
<line x1="137" y1="479" x2="137" y2="499" stroke-width="1" />
<line x1="141" y1="479" x2="141" y2="499" stroke-width="1" />
<line x1="145" y1="479" x2="145" y2="499" stroke-width="1" />
<line x1="149" y1="479" x2="149" y2="499" stroke-width="1" />
<line x1="153" y1="479" x2="153" y2="499" stroke-width="1" />
<line x1="157" y1="479" x2="157" y2="499" stroke-width="1" />
</g>
<g stroke="#000000" fill="#D0D0D0" stroke-opacity="1.0" fill-opacity="1.0" transform="scale(0.5)">
<polygon points="184,379  198,379  198,336  184,336" stroke-width="1" />
</g>
<g stroke="#00AFAF" fill="none" stroke-opacity="1.0" fill-opacity="1.0" transform="scale(0.5)">
<text x=" 510" y="259.0" font-family="Arial" font-size=" 15" fill="#00AFAF" stroke-width="0">площадь Единения</text>
<text x=" -6" y="366.0" font-family="Arial" font-size=" 15" fill="#00AFAF" stroke-width="0">улица Братьев Трофимовых</text>
<text x=" 944" y="388.0" font-family="Arial" font-size=" 15" fill="#00AFAF" transform="rotate(10.0  944  373)" stroke-width="0">улица  Братьев Трофимовых</text>
<text x=" 892" y="77.0" font-family="Arial" font-size=" 15" fill="#00AFAF" transform="rotate(70.0  892  62)" stroke-width="0">Коммунаровская улица</text>
<text x=" 899" y="551.0" font-family="Arial" font-size=" 15" fill="#00AFAF" transform="rotate(100.0  899  536)" stroke-width="0">Коммунаровская улица</text>
</g>
</g>
</g>
</svg>
