<svg xmlns="http://www.w3.org/2000/svg" version="1.1">
<defs>
    <marker id="arrow"
      viewBox="0 0 10 10" refX="0" refY="5"
      markerUnits="strokeWidth"
      markerWidth="4" markerHeight="3"
      orient="auto">
      <path d="M 0 0 L 10 5 L 0 10 z" />
    </marker>
  </defs>
<g stroke="#000000" fill="none" stroke-opacity="1.0" fill-opacity="1.0" transform="scale(0.5)">
<rect x="0" y="0" width="1030" height="530" stroke-width="0" fill="none" />
<g stroke="#000000" fill="none" stroke-opacity="1.0" fill-opacity="1.0" transform="scale(0.5)">
</g>
<g stroke="#000000" fill="#5D87C3" stroke-opacity="1.0" fill-opacity="1.0" transform="scale(0.5)">
<polygon points="505,463  955,463  955,493  505,493" stroke-width="1" />
<polygon points="505,383  955,383  955,353  505,353" stroke-width="1" />
</g>
<g stroke="#5D87C3" fill="none" stroke-opacity="1.0" fill-opacity="1.0" transform="scale(0.5)">
<text x=" 506" y="349.0" font-family="Arial" font-size=" 20" fill="#5D87C3" stroke-width="0">&lt;&lt; Заводская</text>
<text x=" 777" y="513.0" font-family="Arial" font-size=" 20" fill="#5D87C3" stroke-width="0">Метростроителей &gt;&gt;</text>
<text x=" 659" y="434.0" font-family="Arial" font-size=" 25" fill="#5D87C3" stroke-width="0">Металлургов</text>
</g>
<g stroke="#000000" fill="none" stroke-opacity="1.0" fill-opacity="1.0" transform="scale(0.5)">
<polyline points="955,383  955,393  960,393  960,383  973,383  973,353  995,353  995,366  999,366  999,353  1021,353  1021,463  960,463  960,453  955,453  955,463" stroke-width="1" fill="none"  />
<polyline points="955,393  907,393" stroke-width="1" fill="none"  />
<polyline points="955,453  907,453" stroke-width="1" fill="none"  />
<line x1="909" y1="393" x2="909" y2="453" stroke-width="1" />
<line x1="913" y1="393" x2="913" y2="453" stroke-width="1" />
<line x1="917" y1="393" x2="917" y2="453" stroke-width="1" />
<line x1="921" y1="393" x2="921" y2="453" stroke-width="1" />
<line x1="925" y1="393" x2="925" y2="453" stroke-width="1" />
<line x1="929" y1="393" x2="929" y2="453" stroke-width="1" />
<line x1="933" y1="393" x2="933" y2="453" stroke-width="1" />
<line x1="937" y1="393" x2="937" y2="453" stroke-width="1" />
<line x1="941" y1="393" x2="941" y2="453" stroke-width="1" />
<line x1="945" y1="393" x2="945" y2="453" stroke-width="1" />
<line x1="949" y1="393" x2="949" y2="453" stroke-width="1" />
<line x1="953" y1="393" x2="953" y2="453" stroke-width="1" />
<polyline points="505,383  505,400  476,400  476,404" stroke-width="1" fill="none"  />
<polyline points="505,463  505,446  476,446  476,442" stroke-width="1" fill="none"  />
<polyline points="272,404  272,397  255,380  183,380  183,398  169,398  169,359  219,359" stroke-width="1" fill="none"  />
<polyline points="219,341  169,341  169,85" stroke-width="1" fill="none"  />
<polyline points="145,85  145,181  121,181  121,155" stroke-width="1" fill="none"  />
<polyline points="102,155  102,199  145,199  145,341  95,341" stroke-width="1" fill="none"  />
<polyline points="95,359  145,359  145,487  95,487" stroke-width="1" fill="none"  />
<polyline points="95,505  220,505" stroke-width="1" fill="none"  />
<polyline points="220,487  169,487  169,448  183,448  183,466  255,466  272,449  272,442" stroke-width="1" fill="none"  />
<line x1="97" y1="359" x2="97" y2="341" stroke-width="1" />
<line x1="101" y1="359" x2="101" y2="341" stroke-width="1" />
<line x1="105" y1="359" x2="105" y2="341" stroke-width="1" />
<line x1="109" y1="359" x2="109" y2="341" stroke-width="1" />
<line x1="113" y1="359" x2="113" y2="341" stroke-width="1" />
<line x1="117" y1="359" x2="117" y2="341" stroke-width="1" />
<line x1="121" y1="359" x2="121" y2="341" stroke-width="1" />
<line x1="125" y1="359" x2="125" y2="341" stroke-width="1" />
<line x1="129" y1="359" x2="129" y2="341" stroke-width="1" />
<line x1="133" y1="359" x2="133" y2="341" stroke-width="1" />
<line x1="137" y1="359" x2="137" y2="341" stroke-width="1" />
<line x1="141" y1="359" x2="141" y2="341" stroke-width="1" />
<line x1="217" y1="359" x2="217" y2="341" stroke-width="1" />
<line x1="213" y1="359" x2="213" y2="341" stroke-width="1" />
<line x1="209" y1="359" x2="209" y2="341" stroke-width="1" />
<line x1="205" y1="359" x2="205" y2="341" stroke-width="1" />
<line x1="201" y1="359" x2="201" y2="341" stroke-width="1" />
<line x1="197" y1="359" x2="197" y2="341" stroke-width="1" />
<line x1="193" y1="359" x2="193" y2="341" stroke-width="1" />
<line x1="189" y1="359" x2="189" y2="341" stroke-width="1" />
<line x1="185" y1="359" x2="185" y2="341" stroke-width="1" />
<line x1="181" y1="359" x2="181" y2="341" stroke-width="1" />
<line x1="177" y1="359" x2="177" y2="341" stroke-width="1" />
<line x1="173" y1="359" x2="173" y2="341" stroke-width="1" />
<line x1="143" y1="181" x2="143" y2="199" stroke-width="1" />
<line x1="139" y1="181" x2="139" y2="199" stroke-width="1" />
<line x1="135" y1="181" x2="135" y2="199" stroke-width="1" />
<line x1="131" y1="181" x2="131" y2="199" stroke-width="1" />
<line x1="127" y1="181" x2="127" y2="199" stroke-width="1" />
<line x1="123" y1="181" x2="123" y2="199" stroke-width="1" />
<line x1="145" y1="87" x2="169" y2="87" stroke-width="1" />
<line x1="145" y1="91" x2="169" y2="91" stroke-width="1" />
<line x1="145" y1="95" x2="169" y2="95" stroke-width="1" />
<line x1="145" y1="99" x2="169" y2="99" stroke-width="1" />
<line x1="145" y1="103" x2="169" y2="103" stroke-width="1" />
<line x1="145" y1="107" x2="169" y2="107" stroke-width="1" />
<line x1="145" y1="111" x2="169" y2="111" stroke-width="1" />
<line x1="145" y1="115" x2="169" y2="115" stroke-width="1" />
<line x1="145" y1="119" x2="169" y2="119" stroke-width="1" />
<line x1="145" y1="123" x2="169" y2="123" stroke-width="1" />
<line x1="145" y1="127" x2="169" y2="127" stroke-width="1" />
<line x1="145" y1="131" x2="169" y2="131" stroke-width="1" />
<line x1="121" y1="157" x2="102" y2="157" stroke-width="1" />
<line x1="121" y1="161" x2="102" y2="161" stroke-width="1" />
<line x1="121" y1="165" x2="102" y2="165" stroke-width="1" />
<line x1="121" y1="169" x2="102" y2="169" stroke-width="1" />
<line x1="121" y1="173" x2="102" y2="173" stroke-width="1" />
<line x1="121" y1="177" x2="102" y2="177" stroke-width="1" />
<line x1="97" y1="487" x2="97" y2="505" stroke-width="1" />
<line x1="101" y1="487" x2="101" y2="505" stroke-width="1" />
<line x1="105" y1="487" x2="105" y2="505" stroke-width="1" />
<line x1="109" y1="487" x2="109" y2="505" stroke-width="1" />
<line x1="113" y1="487" x2="113" y2="505" stroke-width="1" />
<line x1="117" y1="487" x2="117" y2="505" stroke-width="1" />
<line x1="121" y1="487" x2="121" y2="505" stroke-width="1" />
<line x1="125" y1="487" x2="125" y2="505" stroke-width="1" />
<line x1="129" y1="487" x2="129" y2="505" stroke-width="1" />
<line x1="133" y1="487" x2="133" y2="505" stroke-width="1" />
<line x1="137" y1="487" x2="137" y2="505" stroke-width="1" />
<line x1="141" y1="487" x2="141" y2="505" stroke-width="1" />
<line x1="218" y1="487" x2="218" y2="505" stroke-width="1" />
<line x1="214" y1="487" x2="214" y2="505" stroke-width="1" />
<line x1="210" y1="487" x2="210" y2="505" stroke-width="1" />
<line x1="206" y1="487" x2="206" y2="505" stroke-width="1" />
<line x1="202" y1="487" x2="202" y2="505" stroke-width="1" />
<line x1="198" y1="487" x2="198" y2="505" stroke-width="1" />
<line x1="194" y1="487" x2="194" y2="505" stroke-width="1" />
<line x1="190" y1="487" x2="190" y2="505" stroke-width="1" />
<line x1="186" y1="487" x2="186" y2="505" stroke-width="1" />
<line x1="182" y1="487" x2="182" y2="505" stroke-width="1" />
<line x1="178" y1="487" x2="178" y2="505" stroke-width="1" />
<line x1="174" y1="487" x2="174" y2="505" stroke-width="1" />
</g>
<g stroke="#000000" fill="#D0D0D0" stroke-opacity="1.0" fill-opacity="1.0" transform="scale(0.5)">
<polygon points="169,419  183,419  183,427  169,427" stroke-width="1" />
</g>
<g stroke="#7F7F7F" fill="#D0D0D0" stroke-opacity="1.0" fill-opacity="1.0" transform="scale(0.5)">
<line x1="270" y1="407" x2="270" y2="439" stroke-width="1" />
<line x1="274" y1="407" x2="274" y2="439" stroke-width="1" />
<line x1="278" y1="407" x2="278" y2="439" stroke-width="1" />
<line x1="282" y1="407" x2="282" y2="439" stroke-width="1" />
<line x1="286" y1="407" x2="286" y2="439" stroke-width="1" />
<line x1="290" y1="407" x2="290" y2="439" stroke-width="1" />
<line x1="294" y1="407" x2="294" y2="439" stroke-width="1" />
<line x1="298" y1="407" x2="298" y2="439" stroke-width="1" />
<line x1="302" y1="407" x2="302" y2="439" stroke-width="1" />
<line x1="306" y1="407" x2="306" y2="439" stroke-width="1" />
<line x1="310" y1="407" x2="310" y2="439" stroke-width="1" />
<line x1="314" y1="407" x2="314" y2="439" stroke-width="1" />
<line x1="318" y1="407" x2="318" y2="439" stroke-width="1" />
<line x1="322" y1="407" x2="322" y2="439" stroke-width="1" />
<line x1="326" y1="407" x2="326" y2="439" stroke-width="1" />
<line x1="330" y1="407" x2="330" y2="439" stroke-width="1" />
<line x1="334" y1="407" x2="334" y2="439" stroke-width="1" />
<line x1="338" y1="407" x2="338" y2="439" stroke-width="1" />
<line x1="342" y1="407" x2="342" y2="439" stroke-width="1" />
<line x1="346" y1="407" x2="346" y2="439" stroke-width="1" />
<line x1="350" y1="407" x2="350" y2="439" stroke-width="1" />
<line x1="354" y1="407" x2="354" y2="439" stroke-width="1" />
<line x1="358" y1="407" x2="358" y2="439" stroke-width="1" />
<line x1="362" y1="407" x2="362" y2="439" stroke-width="1" />
<line x1="366" y1="407" x2="366" y2="439" stroke-width="1" />
<line x1="370" y1="407" x2="370" y2="439" stroke-width="1" />
<line x1="374" y1="407" x2="374" y2="439" stroke-width="1" />
<line x1="378" y1="407" x2="378" y2="439" stroke-width="1" />
<line x1="382" y1="407" x2="382" y2="439" stroke-width="1" />
<line x1="386" y1="407" x2="386" y2="439" stroke-width="1" />
<line x1="390" y1="407" x2="390" y2="439" stroke-width="1" />
<line x1="394" y1="407" x2="394" y2="439" stroke-width="1" />
<line x1="398" y1="407" x2="398" y2="439" stroke-width="1" />
<line x1="402" y1="407" x2="402" y2="439" stroke-width="1" />
<line x1="406" y1="407" x2="406" y2="439" stroke-width="1" />
<line x1="410" y1="407" x2="410" y2="439" stroke-width="1" />
<line x1="414" y1="407" x2="414" y2="439" stroke-width="1" />
<line x1="418" y1="407" x2="418" y2="439" stroke-width="1" />
<line x1="422" y1="407" x2="422" y2="439" stroke-width="1" />
<line x1="426" y1="407" x2="426" y2="439" stroke-width="1" />
<line x1="430" y1="407" x2="430" y2="439" stroke-width="1" />
<line x1="434" y1="407" x2="434" y2="439" stroke-width="1" />
<line x1="438" y1="407" x2="438" y2="439" stroke-width="1" />
<line x1="442" y1="407" x2="442" y2="439" stroke-width="1" />
<line x1="446" y1="407" x2="446" y2="439" stroke-width="1" />
<line x1="450" y1="407" x2="450" y2="439" stroke-width="1" />
<line x1="454" y1="407" x2="454" y2="439" stroke-width="1" />
<line x1="458" y1="407" x2="458" y2="439" stroke-width="1" />
<line x1="462" y1="407" x2="462" y2="439" stroke-width="1" />
<line x1="466" y1="407" x2="466" y2="439" stroke-width="1" />
<line x1="470" y1="407" x2="470" y2="439" stroke-width="1" />
<line x1="474" y1="407" x2="474" y2="439" stroke-width="1" />
<line x1="478" y1="407" x2="478" y2="439" stroke-width="1" />
<line x1="482" y1="407" x2="482" y2="439" stroke-width="1" />
</g>
<g stroke="#000000" fill="#9B5509" stroke-opacity="1.0" fill-opacity="1.0" transform="scale(0.5)">
<polygon points="264,404  488,404  488,407  264,407" stroke-width="1" />
<polygon points="264,415  488,415  488,419  264,419" stroke-width="1" />
<polygon points="264,427  488,427  488,431  264,431" stroke-width="1" />
<polygon points="264,439  488,439  488,442  264,442" stroke-width="1" />
</g>
<g stroke="#FF0000" fill="#9B5509" stroke-opacity="1.0" fill-opacity="1.0" transform="scale(0.5)">
<polyline points="899,393  904,453" stroke-width="1" fill="none"  />
<polyline points="904,393  899,453" stroke-width="1" fill="none"  />
</g>
<g stroke="#00AFAF" fill="none" stroke-opacity="1.0" fill-opacity="1.0" transform="scale(0.5)">
<text x=" 6" y="431.0" font-family="Arial" font-size=" 15" fill="#00AFAF" stroke-width="0">проспект Калинина</text>
<text x=" 150" y="46.0" font-family="Arial" font-size=" 15" fill="#00AFAF" stroke-width="0">улица Маяковского</text>
<text x=" 213" y="280.0" font-family="Arial" font-size=" 15" fill="#00AFAF" transform="rotate(-90.0  213  265)" stroke-width="0">площадь Понимания</text>
<text x=" 282" y="262.0" font-family="Arial" font-size=" 15" fill="#00AFAF" transform="rotate(-90.0  282  247)" stroke-width="0">улица Квиринга</text>
</g>
<g stroke="#000000" fill="none" stroke-opacity="1.0" fill-opacity="1.0" transform="scale(0.5)">
<text x=" 321" y="27.0" font-family="Arial" font-size=" 15" fill="#000000" stroke-width="0">'ж/д станция "Горяиново" &gt;&gt;'</text>
<text x=" 770" y="318.0" font-family="Arial" font-size=" 15" fill="#000000" stroke-width="0">Дом органной музыки &gt;&gt;</text>
</g>
</g>
</svg>
