<svg xmlns="http://www.w3.org/2000/svg" version="1.1">
<defs>
    <marker id="arrow"
      viewBox="0 0 10 10" refX="0" refY="5"
      markerUnits="strokeWidth"
      markerWidth="4" markerHeight="3"
      orient="auto">
      <path d="M 0 0 L 10 5 L 0 10 z" />
    </marker>
  </defs>
<g stroke="#000000" fill="none" stroke-opacity="1.0" fill-opacity="1.0" transform="scale(0.5)">
<rect x="0" y="0" width="970" height="400" stroke-width="0" fill="none" />
<g stroke="#000000" fill="none" stroke-opacity="1.0" fill-opacity="1.0" transform="scale(0.5)">
</g>
<g transform="rotate(-5.0 485 200)" >
<g stroke="#000000" fill="none" stroke-opacity="1.0" fill-opacity="1.0" transform="scale(0.5)">
</g>
<g stroke="#000000" fill="#5D87C3" stroke-opacity="1.0" fill-opacity="1.0" transform="scale(0.5)">
<polygon points="498,274  948,274  948,304  498,304" stroke-width="1" />
<polygon points="498,194  948,194  948,164  498,164" stroke-width="1" />
</g>
<g stroke="#5D87C3" fill="none" stroke-opacity="1.0" fill-opacity="1.0" transform="scale(0.5)">
<text x=" 499" y="160.0" font-family="Arial" font-size=" 20" fill="#5D87C3" stroke-width="0">&lt;&lt; Коммунаровская</text>
<text x=" 832" y="324.0" font-family="Arial" font-size=" 20" fill="#5D87C3" stroke-width="0">Заводская &gt;&gt;</text>
<text x=" 628" y="241.0" font-family="Arial" font-size=" 25" fill="#5D87C3" stroke-width="0">Проспект Свободы</text>
</g>
<g stroke="#000000" fill="none" stroke-opacity="1.0" fill-opacity="1.0" transform="scale(0.5)">
<polyline points="948,274  948,194" stroke-width="1" fill="none"  />
<polyline points="498,194  498,211  469,211  469,215" stroke-width="1" fill="none"  />
<polyline points="498,274  498,257  469,257  469,253" stroke-width="1" fill="none"  />
<polyline points="265,215  265,208  248,191  176,191  176,209  162,209  162,1  212,1" stroke-width="1" fill="none"  />
<polyline points="212,-17  88,-17" stroke-width="1" fill="none"  />
<polyline points="88,1  138,1  138,336  82,336" stroke-width="1" fill="none"  />
<polyline points="82,354  219,354" stroke-width="1" fill="none"  />
<polyline points="219,336  162,336  162,259  176,259  176,277  248,277  265,260  265,253" stroke-width="1" fill="none"  />
<line x1="90" y1="1" x2="90" y2="-17" stroke-width="1" />
<line x1="94" y1="1" x2="94" y2="-17" stroke-width="1" />
<line x1="98" y1="1" x2="98" y2="-17" stroke-width="1" />
<line x1="102" y1="1" x2="102" y2="-17" stroke-width="1" />
<line x1="106" y1="1" x2="106" y2="-17" stroke-width="1" />
<line x1="110" y1="1" x2="110" y2="-17" stroke-width="1" />
<line x1="114" y1="1" x2="114" y2="-17" stroke-width="1" />
<line x1="118" y1="1" x2="118" y2="-17" stroke-width="1" />
<line x1="122" y1="1" x2="122" y2="-17" stroke-width="1" />
<line x1="126" y1="1" x2="126" y2="-17" stroke-width="1" />
<line x1="130" y1="1" x2="130" y2="-17" stroke-width="1" />
<line x1="134" y1="1" x2="134" y2="-17" stroke-width="1" />
<line x1="84" y1="336" x2="84" y2="354" stroke-width="1" />
<line x1="88" y1="336" x2="88" y2="354" stroke-width="1" />
<line x1="92" y1="336" x2="92" y2="354" stroke-width="1" />
<line x1="96" y1="336" x2="96" y2="354" stroke-width="1" />
<line x1="100" y1="336" x2="100" y2="354" stroke-width="1" />
<line x1="104" y1="336" x2="104" y2="354" stroke-width="1" />
<line x1="108" y1="336" x2="108" y2="354" stroke-width="1" />
<line x1="112" y1="336" x2="112" y2="354" stroke-width="1" />
<line x1="116" y1="336" x2="116" y2="354" stroke-width="1" />
<line x1="120" y1="336" x2="120" y2="354" stroke-width="1" />
<line x1="124" y1="336" x2="124" y2="354" stroke-width="1" />
<line x1="128" y1="336" x2="128" y2="354" stroke-width="1" />
<line x1="217" y1="336" x2="217" y2="354" stroke-width="1" />
<line x1="213" y1="336" x2="213" y2="354" stroke-width="1" />
<line x1="209" y1="336" x2="209" y2="354" stroke-width="1" />
<line x1="205" y1="336" x2="205" y2="354" stroke-width="1" />
<line x1="201" y1="336" x2="201" y2="354" stroke-width="1" />
<line x1="197" y1="336" x2="197" y2="354" stroke-width="1" />
<line x1="193" y1="336" x2="193" y2="354" stroke-width="1" />
<line x1="189" y1="336" x2="189" y2="354" stroke-width="1" />
<line x1="185" y1="336" x2="185" y2="354" stroke-width="1" />
<line x1="181" y1="336" x2="181" y2="354" stroke-width="1" />
<line x1="177" y1="336" x2="177" y2="354" stroke-width="1" />
<line x1="173" y1="336" x2="173" y2="354" stroke-width="1" />
<line x1="210" y1="1" x2="210" y2="-17" stroke-width="1" />
<line x1="206" y1="1" x2="206" y2="-17" stroke-width="1" />
<line x1="202" y1="1" x2="202" y2="-17" stroke-width="1" />
<line x1="198" y1="1" x2="198" y2="-17" stroke-width="1" />
<line x1="194" y1="1" x2="194" y2="-17" stroke-width="1" />
<line x1="190" y1="1" x2="190" y2="-17" stroke-width="1" />
<line x1="186" y1="1" x2="186" y2="-17" stroke-width="1" />
<line x1="182" y1="1" x2="182" y2="-17" stroke-width="1" />
<line x1="178" y1="1" x2="178" y2="-17" stroke-width="1" />
<line x1="174" y1="1" x2="174" y2="-17" stroke-width="1" />
<line x1="170" y1="1" x2="170" y2="-17" stroke-width="1" />
<line x1="166" y1="1" x2="166" y2="-17" stroke-width="1" />
</g>
<g stroke="#7F7F7F" fill="none" stroke-opacity="1.0" fill-opacity="1.0" transform="scale(0.5)">
<line x1="263" y1="218" x2="263" y2="250" stroke-width="1" />
<line x1="267" y1="218" x2="267" y2="250" stroke-width="1" />
<line x1="271" y1="218" x2="271" y2="250" stroke-width="1" />
<line x1="275" y1="218" x2="275" y2="250" stroke-width="1" />
<line x1="279" y1="218" x2="279" y2="250" stroke-width="1" />
<line x1="283" y1="218" x2="283" y2="250" stroke-width="1" />
<line x1="287" y1="218" x2="287" y2="250" stroke-width="1" />
<line x1="291" y1="218" x2="291" y2="250" stroke-width="1" />
<line x1="295" y1="218" x2="295" y2="250" stroke-width="1" />
<line x1="299" y1="218" x2="299" y2="250" stroke-width="1" />
<line x1="303" y1="218" x2="303" y2="250" stroke-width="1" />
<line x1="307" y1="218" x2="307" y2="250" stroke-width="1" />
<line x1="311" y1="218" x2="311" y2="250" stroke-width="1" />
<line x1="315" y1="218" x2="315" y2="250" stroke-width="1" />
<line x1="319" y1="218" x2="319" y2="250" stroke-width="1" />
<line x1="323" y1="218" x2="323" y2="250" stroke-width="1" />
<line x1="327" y1="218" x2="327" y2="250" stroke-width="1" />
<line x1="331" y1="218" x2="331" y2="250" stroke-width="1" />
<line x1="335" y1="218" x2="335" y2="250" stroke-width="1" />
<line x1="339" y1="218" x2="339" y2="250" stroke-width="1" />
<line x1="343" y1="218" x2="343" y2="250" stroke-width="1" />
<line x1="347" y1="218" x2="347" y2="250" stroke-width="1" />
<line x1="351" y1="218" x2="351" y2="250" stroke-width="1" />
<line x1="355" y1="218" x2="355" y2="250" stroke-width="1" />
<line x1="359" y1="218" x2="359" y2="250" stroke-width="1" />
<line x1="363" y1="218" x2="363" y2="250" stroke-width="1" />
<line x1="367" y1="218" x2="367" y2="250" stroke-width="1" />
<line x1="371" y1="218" x2="371" y2="250" stroke-width="1" />
<line x1="375" y1="218" x2="375" y2="250" stroke-width="1" />
<line x1="379" y1="218" x2="379" y2="250" stroke-width="1" />
<line x1="383" y1="218" x2="383" y2="250" stroke-width="1" />
<line x1="387" y1="218" x2="387" y2="250" stroke-width="1" />
<line x1="391" y1="218" x2="391" y2="250" stroke-width="1" />
<line x1="395" y1="218" x2="395" y2="250" stroke-width="1" />
<line x1="399" y1="218" x2="399" y2="250" stroke-width="1" />
<line x1="403" y1="218" x2="403" y2="250" stroke-width="1" />
<line x1="407" y1="218" x2="407" y2="250" stroke-width="1" />
<line x1="411" y1="218" x2="411" y2="250" stroke-width="1" />
<line x1="415" y1="218" x2="415" y2="250" stroke-width="1" />
<line x1="419" y1="218" x2="419" y2="250" stroke-width="1" />
<line x1="423" y1="218" x2="423" y2="250" stroke-width="1" />
<line x1="427" y1="218" x2="427" y2="250" stroke-width="1" />
<line x1="431" y1="218" x2="431" y2="250" stroke-width="1" />
<line x1="435" y1="218" x2="435" y2="250" stroke-width="1" />
<line x1="439" y1="218" x2="439" y2="250" stroke-width="1" />
<line x1="443" y1="218" x2="443" y2="250" stroke-width="1" />
<line x1="447" y1="218" x2="447" y2="250" stroke-width="1" />
<line x1="451" y1="218" x2="451" y2="250" stroke-width="1" />
<line x1="455" y1="218" x2="455" y2="250" stroke-width="1" />
<line x1="459" y1="218" x2="459" y2="250" stroke-width="1" />
<line x1="463" y1="218" x2="463" y2="250" stroke-width="1" />
<line x1="467" y1="218" x2="467" y2="250" stroke-width="1" />
<line x1="471" y1="218" x2="471" y2="250" stroke-width="1" />
<line x1="475" y1="218" x2="475" y2="250" stroke-width="1" />
</g>
<g stroke="#000000" fill="#9B5509" stroke-opacity="1.0" fill-opacity="1.0" transform="scale(0.5)">
<polygon points="257,215  481,215  481,218  257,218" stroke-width="1" />
<polygon points="257,226  481,226  481,230  257,230" stroke-width="1" />
<polygon points="257,238  481,238  481,242  257,242" stroke-width="1" />
<polygon points="257,250  481,250  481,253  257,253" stroke-width="1" />
</g>
<g stroke="#00AFAF" fill="none" stroke-opacity="1.0" fill-opacity="1.0" transform="scale(0.5)">
<text x=" 4" y="246.0" font-family="Arial" font-size=" 15" fill="#00AFAF" stroke-width="0">проспект Свободы</text>
<text x=" 94" y="106.0" font-family="Arial" font-size=" 15" fill="#00AFAF" stroke-width="0">площадь Дзержинского</text>
</g>
</g>
</g>
</svg>
