<svg xmlns="http://www.w3.org/2000/svg" version="1.1">
<defs>
    <marker id="arrow"
      viewBox="0 0 10 10" refX="0" refY="5"
      markerUnits="strokeWidth"
      markerWidth="4" markerHeight="3"
      orient="auto">
      <path d="M 0 0 L 10 5 L 0 10 z" />
    </marker>
  </defs>
<g stroke="#000000" fill="none" stroke-opacity="1.0" fill-opacity="1.0" transform="scale(0.5)">
<rect x="0" y="0" width="1200" height="750" stroke-width="0" fill="none" />
<g stroke="#000000" fill="none" stroke-opacity="1.0" fill-opacity="1.0" transform="scale(0.5)">
</g>
<g transform="rotate(20.0 600 375)" >
<g stroke="#000000" fill="none" stroke-opacity="1.0" fill-opacity="1.0" transform="scale(0.5)">
</g>
<g stroke="#000000" fill="#BF0050" stroke-opacity="1.0" fill-opacity="1.0" transform="scale(0.5)">
<polygon points="412,248  412,216  862,216  862,248" stroke-width="1" />
<polygon points="412,359  412,327  862,327  862,359" stroke-width="1" />
</g>
<g stroke="#BF0050" fill="none" stroke-opacity="1.0" fill-opacity="1.0" transform="scale(0.5)">
<text x=" 412" y="211.0" font-family="Arial" font-size=" 20" fill="#BF0050" stroke-width="0">&lt;&lt; Партизанская</text>
<text x=" 724" y="379.0" font-family="Arial" font-size=" 20" fill="#BF0050" stroke-width="0">Могилевская &gt;&gt;</text>
<text x=" 546" y="295.0" font-family="Arial" font-size=" 25" fill="#BF0050" stroke-width="0">Автозаводская</text>
</g>
<g stroke="#000000" fill="none" stroke-opacity="1.0" fill-opacity="1.0" transform="scale(0.5)">
<polyline points="862,262  862,248" stroke-width="1" fill="none"  />
<polyline points="862,312  862,327" stroke-width="1" fill="none"  />
<polyline points="412,248  412,262" stroke-width="1" fill="none"  />
<polyline points="412,312  412,327" stroke-width="1" fill="none"  />
<polyline points="830,262  866,262  866,212  934,212  934,237  961,237  961,139  921,139" stroke-width="1" fill="none"  />
<polyline points="1100,139  1020,139  1020,447  1082,509" stroke-width="1" fill="none"  />
<polyline points="1100,118  921,118" stroke-width="1" fill="none"  />
<polyline points="1064,527  1010,473  921,473" stroke-width="1" fill="none"  />
<polyline points="921,452  961,452  961,337  934,337  934,363  866,363  866,312  830,312" stroke-width="1" fill="none"  />
<polyline points="456,312  408,312  408,363  340,363  340,337  313,337  313,363  298,363  298,475" stroke-width="1" fill="none"  />
<polyline points="277,475  277,435  169,435  136,468" stroke-width="1" fill="none"  />
<polyline points="120,452  149,423  149,297  107,297" stroke-width="1" fill="none"  />
<polyline points="107,276  263,276  263,212  277,212  277,161" stroke-width="1" fill="none"  />
<polyline points="298,161  298,212  313,212  313,237  340,237  340,212  408,212  408,262  456,262" stroke-width="1" fill="none"  />
<line x1="832" y1="312" x2="832" y2="262" stroke-width="1" />
<line x1="836" y1="312" x2="836" y2="262" stroke-width="1" />
<line x1="840" y1="312" x2="840" y2="262" stroke-width="1" />
<line x1="844" y1="312" x2="844" y2="262" stroke-width="1" />
<line x1="848" y1="312" x2="848" y2="262" stroke-width="1" />
<line x1="852" y1="312" x2="852" y2="262" stroke-width="1" />
<line x1="856" y1="312" x2="856" y2="262" stroke-width="1" />
<line x1="860" y1="312" x2="860" y2="262" stroke-width="1" />
<line x1="864" y1="312" x2="864" y2="262" stroke-width="1" />
<line x1="454" y1="262" x2="454" y2="312" stroke-width="1" />
<line x1="450" y1="262" x2="450" y2="312" stroke-width="1" />
<line x1="446" y1="262" x2="446" y2="312" stroke-width="1" />
<line x1="442" y1="262" x2="442" y2="312" stroke-width="1" />
<line x1="438" y1="262" x2="438" y2="312" stroke-width="1" />
<line x1="434" y1="262" x2="434" y2="312" stroke-width="1" />
<line x1="430" y1="262" x2="430" y2="312" stroke-width="1" />
<line x1="426" y1="262" x2="426" y2="312" stroke-width="1" />
<line x1="422" y1="262" x2="422" y2="312" stroke-width="1" />
<line x1="418" y1="262" x2="418" y2="312" stroke-width="1" />
<line x1="414" y1="262" x2="414" y2="312" stroke-width="1" />
<line x1="410" y1="262" x2="410" y2="312" stroke-width="1" />
<line x1="277" y1="163" x2="298" y2="163" stroke-width="1" />
<line x1="277" y1="167" x2="298" y2="167" stroke-width="1" />
<line x1="277" y1="171" x2="298" y2="171" stroke-width="1" />
<line x1="277" y1="175" x2="298" y2="175" stroke-width="1" />
<line x1="277" y1="179" x2="298" y2="179" stroke-width="1" />
<line x1="277" y1="183" x2="298" y2="183" stroke-width="1" />
<line x1="277" y1="187" x2="298" y2="187" stroke-width="1" />
<line x1="277" y1="191" x2="298" y2="191" stroke-width="1" />
<line x1="277" y1="195" x2="298" y2="195" stroke-width="1" />
<line x1="277" y1="199" x2="298" y2="199" stroke-width="1" />
<line x1="109" y1="297" x2="109" y2="276" stroke-width="1" />
<line x1="113" y1="297" x2="113" y2="276" stroke-width="1" />
<line x1="117" y1="297" x2="117" y2="276" stroke-width="1" />
<line x1="121" y1="297" x2="121" y2="276" stroke-width="1" />
<line x1="125" y1="297" x2="125" y2="276" stroke-width="1" />
<line x1="129" y1="297" x2="129" y2="276" stroke-width="1" />
<line x1="133" y1="297" x2="133" y2="276" stroke-width="1" />
<line x1="137" y1="297" x2="137" y2="276" stroke-width="1" />
<line x1="141" y1="297" x2="141" y2="276" stroke-width="1" />
<line x1="145" y1="297" x2="145" y2="276" stroke-width="1" />
<line x1="138" y1="466" x2="122" y2="450" stroke-width="1" />
<line x1="140.828427125" y1="463.171572875" x2="124.828427125" y2="447.171572875" stroke-width="1" />
<line x1="143.656854249" y1="460.343145751" x2="127.656854249" y2="444.343145751" stroke-width="1" />
<line x1="146.485281374" y1="457.514718626" x2="130.485281374" y2="441.514718626" stroke-width="1" />
<line x1="149.313708499" y1="454.686291501" x2="133.313708499" y2="438.686291501" stroke-width="1" />
<line x1="152.142135624" y1="451.857864376" x2="136.142135624" y2="435.857864376" stroke-width="1" />
<line x1="154.970562748" y1="449.029437252" x2="138.970562748" y2="433.029437252" stroke-width="1" />
<line x1="157.798989873" y1="446.201010127" x2="141.798989873" y2="430.201010127" stroke-width="1" />
<line x1="160.627416998" y1="443.372583002" x2="144.627416998" y2="427.372583002" stroke-width="1" />
<line x1="163.455844123" y1="440.544155877" x2="147.455844123" y2="424.544155877" stroke-width="1" />
<line x1="277" y1="473" x2="298" y2="473" stroke-width="1" />
<line x1="277" y1="469" x2="298" y2="469" stroke-width="1" />
<line x1="277" y1="465" x2="298" y2="465" stroke-width="1" />
<line x1="277" y1="461" x2="298" y2="461" stroke-width="1" />
<line x1="277" y1="457" x2="298" y2="457" stroke-width="1" />
<line x1="277" y1="453" x2="298" y2="453" stroke-width="1" />
<line x1="277" y1="449" x2="298" y2="449" stroke-width="1" />
<line x1="277" y1="445" x2="298" y2="445" stroke-width="1" />
<line x1="277" y1="441" x2="298" y2="441" stroke-width="1" />
<line x1="277" y1="437" x2="298" y2="437" stroke-width="1" />
<line x1="923" y1="452" x2="923" y2="473" stroke-width="1" />
<line x1="927" y1="452" x2="927" y2="473" stroke-width="1" />
<line x1="931" y1="452" x2="931" y2="473" stroke-width="1" />
<line x1="935" y1="452" x2="935" y2="473" stroke-width="1" />
<line x1="939" y1="452" x2="939" y2="473" stroke-width="1" />
<line x1="943" y1="452" x2="943" y2="473" stroke-width="1" />
<line x1="947" y1="452" x2="947" y2="473" stroke-width="1" />
<line x1="951" y1="452" x2="951" y2="473" stroke-width="1" />
<line x1="955" y1="452" x2="955" y2="473" stroke-width="1" />
<line x1="959" y1="452" x2="959" y2="473" stroke-width="1" />
<line x1="923" y1="139" x2="923" y2="118" stroke-width="1" />
<line x1="927" y1="139" x2="927" y2="118" stroke-width="1" />
<line x1="931" y1="139" x2="931" y2="118" stroke-width="1" />
<line x1="935" y1="139" x2="935" y2="118" stroke-width="1" />
<line x1="939" y1="139" x2="939" y2="118" stroke-width="1" />
<line x1="943" y1="139" x2="943" y2="118" stroke-width="1" />
<line x1="947" y1="139" x2="947" y2="118" stroke-width="1" />
<line x1="951" y1="139" x2="951" y2="118" stroke-width="1" />
<line x1="955" y1="139" x2="955" y2="118" stroke-width="1" />
<line x1="959" y1="139" x2="959" y2="118" stroke-width="1" />
<line x1="1081" y1="508" x2="1063" y2="526" stroke-width="1" />
<line x1="1078.17157288" y1="505.171572875" x2="1060.17157288" y2="523.171572875" stroke-width="1" />
<line x1="1075.34314575" y1="502.343145751" x2="1057.34314575" y2="520.343145751" stroke-width="1" />
<line x1="1072.51471863" y1="499.514718626" x2="1054.51471863" y2="517.514718626" stroke-width="1" />
<line x1="1069.6862915" y1="496.686291501" x2="1051.6862915" y2="514.686291501" stroke-width="1" />
<line x1="1066.85786438" y1="493.857864376" x2="1048.85786438" y2="511.857864376" stroke-width="1" />
<line x1="1064.02943725" y1="491.029437252" x2="1046.02943725" y2="509.029437252" stroke-width="1" />
<line x1="1061.20101013" y1="488.201010127" x2="1043.20101013" y2="506.201010127" stroke-width="1" />
<line x1="1058.372583" y1="485.372583002" x2="1040.372583" y2="503.372583002" stroke-width="1" />
<line x1="1055.54415588" y1="482.544155877" x2="1037.54415588" y2="500.544155877" stroke-width="1" />
<line x1="1098" y1="118" x2="1098" y2="139" stroke-width="1" />
<line x1="1094" y1="118" x2="1094" y2="139" stroke-width="1" />
<line x1="1090" y1="118" x2="1090" y2="139" stroke-width="1" />
<line x1="1086" y1="118" x2="1086" y2="139" stroke-width="1" />
<line x1="1082" y1="118" x2="1082" y2="139" stroke-width="1" />
<line x1="1078" y1="118" x2="1078" y2="139" stroke-width="1" />
<line x1="1074" y1="118" x2="1074" y2="139" stroke-width="1" />
<line x1="1070" y1="118" x2="1070" y2="139" stroke-width="1" />
<line x1="1066" y1="118" x2="1066" y2="139" stroke-width="1" />
<line x1="1062" y1="118" x2="1062" y2="139" stroke-width="1" />
</g>
<g stroke="#000000" fill="#D0D0D0" stroke-opacity="1.0" fill-opacity="1.0" transform="scale(0.5)">
<polygon points="933,312  933,262  961,262  961,312" stroke-width="1" />
<polygon points="313,312  313,262  340,262  340,312" stroke-width="1" />
<polygon points="171,416  171,297  263,297  263,363  277,363  277,416" stroke-width="1" />
</g>
<g stroke="#00AFAF" fill="none" stroke-opacity="1.0" fill-opacity="1.0" transform="scale(0.5)">
<text x=" 440" y="395.0" font-family="Arial" font-size=" 15" fill="#00AFAF" stroke-width="0">Партизанский проспект</text>
<text x=" 1091" y="434.0" font-family="Arial" font-size=" 15" fill="#00AFAF" stroke-width="0">Партизанский проспект</text>
<text x=" -19" y="400.0" font-family="Arial" font-size=" 15" fill="#00AFAF" stroke-width="0">Партизанский проспект</text>
<text x=" 213" y="559.0" font-family="Arial" font-size=" 15" fill="#00AFAF" transform="rotate(-90.0  213  544)" stroke-width="0">ул. Кабушкина</text>
<text x=" 216" y="242.0" font-family="Arial" font-size=" 15" fill="#00AFAF" transform="rotate(-90.0  216  227)" stroke-width="0">ул. Радиальная</text>
<text x=" 1110" y="231.0" font-family="Arial" font-size=" 15" fill="#00AFAF" transform="rotate(-90.0  1110  216)" stroke-width="0">ул. Центральная</text>
<text x=" 1096" y="484.0" font-family="Arial" font-size=" 15" fill="#00AFAF" transform="rotate(-315.0  1096  469)" stroke-width="0">ул. Центральная</text>
</g>
</g>
</g>
</svg>
