<?xml version="1.0" encoding="utf-8" ?>
<svg baseProfile="full" height="100%" version="1.1" width="100%" xmlns="http://www.w3.org/2000/svg" xmlns:ev="http://www.w3.org/2001/xml-events" xmlns:xlink="http://www.w3.org/1999/xlink"><defs><marker id="id394" markerHeight="3" markerUnits="strokeWidth" markerWidth="4" orient="auto" refX="0" refY="5" viewBox="0,0,10,10"><path d="M 0 0 L 10 5 L 0 10 z" /></marker></defs><g transform="scale(0.5) rotate(5.0,625,315)"><rect fill="none" height="630" stroke="none" width="1250" x="0" y="0" /><polygon fill="#BF0050" points="514,315 514,285 964,285 964,315" stroke="#000000" stroke-width="1" /><polygon fill="#BF0050" points="514,395 514,425 964,425 964,395" stroke="#000000" stroke-width="1" /><text fill="#BF0050" font-family="Arial" font-size="25" stroke="none" x="644" y="361.0">Каменная Горка</text><text fill="#BF0050" font-family="Arial" font-size="20" stroke="none" x="833" y="445.0">Кунцевщина &gt;&gt;</text><text fill="#BF0050" font-family="Arial" font-size="20" stroke="none" x="514" y="280.0">&lt;&lt; тупик</text><polygon fill="#D0EFFF" points="493,340 493,322 511,322 511,340" stroke="#000000" stroke-width="1" /><text fill="#000000" font-family="Arial" font-size="7" stroke="none" x="494" y="333.0">лифт</text><text fill="#000000" font-family="Arial" font-size="15" stroke="none" x="178" y="456.0">'ТЦ "Каменная Горка"'</text><polygon fill="#D0D0D0" points="1065,321 1078,321 1078,389 1065,389" stroke="#000000" stroke-width="1" /><polygon fill="#D0D0D0" points="367,303 384,303 384,409 367,409" stroke="#000000" stroke-width="1" /><polygon fill="#D0D0D0" points="167,219 320,219 320,405 167,405" stroke="#000000" stroke-width="1" /><polygon fill="#D0D0D0" points="320,405 320,432 167,432 167,405" stroke="#000000" stroke-width="1" /><polygon fill="#D0D0D0" points="167,493 167,461 320,461 320,493" stroke="#000000" stroke-width="1" /><polygon fill="#D0D0D0" points="439,309 494,309 494,322 439,322" stroke="#000000" stroke-width="1" /><polyline fill="none" points="185,405 185,432" stroke="#000000" stroke-width="1" /><polyline fill="none" points="207,405 207,432" stroke="#000000" stroke-width="1" /><polyline fill="none" points="229,405 229,432" stroke="#000000" stroke-width="1" /><polyline fill="none" points="251,405 251,432" stroke="#000000" stroke-width="1" /><polyline fill="none" points="274,405 274,432" stroke="#000000" stroke-width="1" /><polyline fill="none" points="297,405 297,432" stroke="#000000" stroke-width="1" /><polyline fill="none" points="198,461 198,493" stroke="#000000" stroke-width="1" /><polyline fill="none" points="228,461 228,493" stroke="#000000" stroke-width="1" /><polyline fill="none" points="257,461 257,493" stroke="#000000" stroke-width="1" /><polyline fill="none" points="288,461 288,493" stroke="#000000" stroke-width="1" /><polyline fill="none" points="964,315 964,321 1020,321 1020,283 1065,283 1065,296 1078,296 1078,239 1009,239" stroke="#000000" stroke-width="1" /><polyline fill="none" points="1009,220 1192,220" stroke="#000000" stroke-width="1" /><polyline fill="none" points="1192,239 1119,239 1119,473 1191,473" stroke="#000000" stroke-width="1" /><polyline fill="none" points="1191,492 1004,492" stroke="#000000" stroke-width="1" /><polyline fill="none" points="1004,473 1078,473 1078,414 1065,414 1065,430 1020,430 1020,389 964,389 964,395" stroke="#000000" stroke-width="1" /><polyline fill="none" points="514,315 514,322 439,322" stroke="#000000" stroke-width="1" /><polyline fill="none" points="510,322 510,309 511,309 511,288 439,288 439,262 384,262 384,278 367,278 367,275 352,275 352,213 395,213" stroke="#000000" stroke-width="1" /><polyline fill="none" points="395,194 339,194 339,145" stroke="#000000" stroke-width="1" /><polyline fill="none" points="320,145 320,194 150,194 111,155" stroke="#000000" stroke-width="1" /><polyline fill="none" points="96,170 135,209 135,502 92,502" stroke="#000000" stroke-width="1" /><polyline fill="none" points="92,521 148,521 148,569" stroke="#000000" stroke-width="1" /><polyline fill="none" points="167,569 167,520 320,520 320,568" stroke="#000000" stroke-width="1" /><polyline fill="none" points="339,568 339,521 394,521" stroke="#000000" stroke-width="1" /><polyline fill="none" points="394,502 352,502 352,437 367,437 367,434 384,434 384,450 439,450 439,388 514,388 514,395" stroke="#000000" stroke-width="1" /><line stroke="#000000" stroke-width="1" x1="1190" x2="1190" y1="239" y2="220" /><line stroke="#000000" stroke-width="1" x1="1186" x2="1186" y1="239" y2="220" /><line stroke="#000000" stroke-width="1" x1="1182" x2="1182" y1="239" y2="220" /><line stroke="#000000" stroke-width="1" x1="1178" x2="1178" y1="239" y2="220" /><line stroke="#000000" stroke-width="1" x1="1174" x2="1174" y1="239" y2="220" /><line stroke="#000000" stroke-width="1" x1="1170" x2="1170" y1="239" y2="220" /><line stroke="#000000" stroke-width="1" x1="1166" x2="1166" y1="239" y2="220" /><line stroke="#000000" stroke-width="1" x1="1162" x2="1162" y1="239" y2="220" /><line stroke="#000000" stroke-width="1" x1="1158" x2="1158" y1="239" y2="220" /><line stroke="#000000" stroke-width="1" x1="1154" x2="1154" y1="239" y2="220" /><line stroke="#000000" stroke-width="1" x1="1011" x2="1011" y1="239" y2="220" /><line stroke="#000000" stroke-width="1" x1="1015" x2="1015" y1="239" y2="220" /><line stroke="#000000" stroke-width="1" x1="1019" x2="1019" y1="239" y2="220" /><line stroke="#000000" stroke-width="1" x1="1023" x2="1023" y1="239" y2="220" /><line stroke="#000000" stroke-width="1" x1="1027" x2="1027" y1="239" y2="220" /><line stroke="#000000" stroke-width="1" x1="1031" x2="1031" y1="239" y2="220" /><line stroke="#000000" stroke-width="1" x1="1035" x2="1035" y1="239" y2="220" /><line stroke="#000000" stroke-width="1" x1="1039" x2="1039" y1="239" y2="220" /><line stroke="#000000" stroke-width="1" x1="1043" x2="1043" y1="239" y2="220" /><line stroke="#000000" stroke-width="1" x1="1047" x2="1047" y1="239" y2="220" /><line stroke="#000000" stroke-width="1" x1="1189" x2="1189" y1="473" y2="492" /><line stroke="#000000" stroke-width="1" x1="1185" x2="1185" y1="473" y2="492" /><line stroke="#000000" stroke-width="1" x1="1181" x2="1181" y1="473" y2="492" /><line stroke="#000000" stroke-width="1" x1="1177" x2="1177" y1="473" y2="492" /><line stroke="#000000" stroke-width="1" x1="1173" x2="1173" y1="473" y2="492" /><line stroke="#000000" stroke-width="1" x1="1169" x2="1169" y1="473" y2="492" /><line stroke="#000000" stroke-width="1" x1="1165" x2="1165" y1="473" y2="492" /><line stroke="#000000" stroke-width="1" x1="1161" x2="1161" y1="473" y2="492" /><line stroke="#000000" stroke-width="1" x1="1157" x2="1157" y1="473" y2="492" /><line stroke="#000000" stroke-width="1" x1="1153" x2="1153" y1="473" y2="492" /><line stroke="#000000" stroke-width="1" x1="1006" x2="1006" y1="492" y2="473" /><line stroke="#000000" stroke-width="1" x1="1010" x2="1010" y1="492" y2="473" /><line stroke="#000000" stroke-width="1" x1="1014" x2="1014" y1="492" y2="473" /><line stroke="#000000" stroke-width="1" x1="1018" x2="1018" y1="492" y2="473" /><line stroke="#000000" stroke-width="1" x1="1022" x2="1022" y1="492" y2="473" /><line stroke="#000000" stroke-width="1" x1="1026" x2="1026" y1="492" y2="473" /><line stroke="#000000" stroke-width="1" x1="1030" x2="1030" y1="492" y2="473" /><line stroke="#000000" stroke-width="1" x1="1034" x2="1034" y1="492" y2="473" /><line stroke="#000000" stroke-width="1" x1="1038" x2="1038" y1="492" y2="473" /><line stroke="#000000" stroke-width="1" x1="1042" x2="1042" y1="492" y2="473" /><line stroke="#000000" stroke-width="1" x1="1078" x2="1119" y1="431" y2="431" /><line stroke="#000000" stroke-width="1" x1="1078" x2="1119" y1="427" y2="427" /><line stroke="#000000" stroke-width="1" x1="1018" x2="1018" y1="321" y2="389" /><line stroke="#000000" stroke-width="1" x1="1014" x2="1014" y1="321" y2="389" /><line stroke="#000000" stroke-width="1" x1="1010" x2="1010" y1="321" y2="389" /><line stroke="#000000" stroke-width="1" x1="1006" x2="1006" y1="321" y2="389" /><line stroke="#000000" stroke-width="1" x1="1002" x2="1002" y1="321" y2="389" /><line stroke="#000000" stroke-width="1" x1="998" x2="998" y1="321" y2="389" /><line stroke="#000000" stroke-width="1" x1="994" x2="994" y1="321" y2="389" /><line stroke="#000000" stroke-width="1" x1="990" x2="990" y1="321" y2="389" /><line stroke="#000000" stroke-width="1" x1="986" x2="986" y1="321" y2="389" /><line stroke="#000000" stroke-width="1" x1="982" x2="982" y1="321" y2="389" /><line stroke="#000000" stroke-width="1" x1="978" x2="978" y1="321" y2="389" /><line stroke="#000000" stroke-width="1" x1="974" x2="974" y1="321" y2="389" /><line stroke="#000000" stroke-width="1" x1="441" x2="441" y1="388" y2="322" /><line stroke="#000000" stroke-width="1" x1="445" x2="445" y1="388" y2="322" /><line stroke="#000000" stroke-width="1" x1="449" x2="449" y1="388" y2="322" /><line stroke="#000000" stroke-width="1" x1="453" x2="453" y1="388" y2="322" /><line stroke="#000000" stroke-width="1" x1="457" x2="457" y1="388" y2="322" /><line stroke="#000000" stroke-width="1" x1="461" x2="461" y1="388" y2="322" /><line stroke="#000000" stroke-width="1" x1="465" x2="465" y1="388" y2="322" /><line stroke="#000000" stroke-width="1" x1="469" x2="469" y1="388" y2="322" /><line stroke="#000000" stroke-width="1" x1="473" x2="473" y1="388" y2="322" /><line stroke="#000000" stroke-width="1" x1="477" x2="477" y1="388" y2="322" /><line stroke="#000000" stroke-width="1" x1="481" x2="481" y1="388" y2="322" /><line stroke="#000000" stroke-width="1" x1="485" x2="485" y1="388" y2="322" /><line stroke="#000000" stroke-width="1" x1="392" x2="392" y1="502" y2="521" /><line stroke="#000000" stroke-width="1" x1="388" x2="388" y1="502" y2="521" /><line stroke="#000000" stroke-width="1" x1="384" x2="384" y1="502" y2="521" /><line stroke="#000000" stroke-width="1" x1="380" x2="380" y1="502" y2="521" /><line stroke="#000000" stroke-width="1" x1="376" x2="376" y1="502" y2="521" /><line stroke="#000000" stroke-width="1" x1="372" x2="372" y1="502" y2="521" /><line stroke="#000000" stroke-width="1" x1="368" x2="368" y1="502" y2="521" /><line stroke="#000000" stroke-width="1" x1="364" x2="364" y1="502" y2="521" /><line stroke="#000000" stroke-width="1" x1="360" x2="360" y1="502" y2="521" /><line stroke="#000000" stroke-width="1" x1="356" x2="356" y1="502" y2="521" /><line stroke="#000000" stroke-width="1" x1="339" x2="320" y1="566" y2="566" /><line stroke="#000000" stroke-width="1" x1="339" x2="320" y1="562" y2="562" /><line stroke="#000000" stroke-width="1" x1="339" x2="320" y1="558" y2="558" /><line stroke="#000000" stroke-width="1" x1="339" x2="320" y1="554" y2="554" /><line stroke="#000000" stroke-width="1" x1="339" x2="320" y1="550" y2="550" /><line stroke="#000000" stroke-width="1" x1="339" x2="320" y1="546" y2="546" /><line stroke="#000000" stroke-width="1" x1="339" x2="320" y1="542" y2="542" /><line stroke="#000000" stroke-width="1" x1="339" x2="320" y1="538" y2="538" /><line stroke="#000000" stroke-width="1" x1="339" x2="320" y1="534" y2="534" /><line stroke="#000000" stroke-width="1" x1="339" x2="320" y1="530" y2="530" /><line stroke="#000000" stroke-width="1" x1="167" x2="148" y1="567" y2="567" /><line stroke="#000000" stroke-width="1" x1="167" x2="148" y1="563" y2="563" /><line stroke="#000000" stroke-width="1" x1="167" x2="148" y1="559" y2="559" /><line stroke="#000000" stroke-width="1" x1="167" x2="148" y1="555" y2="555" /><line stroke="#000000" stroke-width="1" x1="167" x2="148" y1="551" y2="551" /><line stroke="#000000" stroke-width="1" x1="167" x2="148" y1="547" y2="547" /><line stroke="#000000" stroke-width="1" x1="167" x2="148" y1="543" y2="543" /><line stroke="#000000" stroke-width="1" x1="167" x2="148" y1="539" y2="539" /><line stroke="#000000" stroke-width="1" x1="167" x2="148" y1="535" y2="535" /><line stroke="#000000" stroke-width="1" x1="167" x2="148" y1="531" y2="531" /><line stroke="#000000" stroke-width="1" x1="94" x2="94" y1="521" y2="502" /><line stroke="#000000" stroke-width="1" x1="98" x2="98" y1="521" y2="502" /><line stroke="#000000" stroke-width="1" x1="102" x2="102" y1="521" y2="502" /><line stroke="#000000" stroke-width="1" x1="106" x2="106" y1="521" y2="502" /><line stroke="#000000" stroke-width="1" x1="110" x2="110" y1="521" y2="502" /><line stroke="#000000" stroke-width="1" x1="114" x2="114" y1="521" y2="502" /><line stroke="#000000" stroke-width="1" x1="118" x2="118" y1="521" y2="502" /><line stroke="#000000" stroke-width="1" x1="122" x2="122" y1="521" y2="502" /><line stroke="#000000" stroke-width="1" x1="126" x2="126" y1="521" y2="502" /><line stroke="#000000" stroke-width="1" x1="130" x2="130" y1="521" y2="502" /><line stroke="#000000" stroke-width="1" x1="97" x2="112" y1="171" y2="156" /><line stroke="#000000" stroke-width="1" x1="99.8284271247" x2="114.828427125" y1="173.828427125" y2="158.828427125" /><line stroke="#000000" stroke-width="1" x1="102.656854249" x2="117.656854249" y1="176.656854249" y2="161.656854249" /><line stroke="#000000" stroke-width="1" x1="105.485281374" x2="120.485281374" y1="179.485281374" y2="164.485281374" /><line stroke="#000000" stroke-width="1" x1="108.313708499" x2="123.313708499" y1="182.313708499" y2="167.313708499" /><line stroke="#000000" stroke-width="1" x1="111.142135624" x2="126.142135624" y1="185.142135624" y2="170.142135624" /><line stroke="#000000" stroke-width="1" x1="113.970562748" x2="128.970562748" y1="187.970562748" y2="172.970562748" /><line stroke="#000000" stroke-width="1" x1="116.798989873" x2="131.798989873" y1="190.798989873" y2="175.798989873" /><line stroke="#000000" stroke-width="1" x1="119.627416998" x2="134.627416998" y1="193.627416998" y2="178.627416998" /><line stroke="#000000" stroke-width="1" x1="122.455844123" x2="137.455844123" y1="196.455844123" y2="181.455844123" /><line stroke="#000000" stroke-width="1" x1="320" x2="339" y1="147" y2="147" /><line stroke="#000000" stroke-width="1" x1="320" x2="339" y1="151" y2="151" /><line stroke="#000000" stroke-width="1" x1="320" x2="339" y1="155" y2="155" /><line stroke="#000000" stroke-width="1" x1="320" x2="339" y1="159" y2="159" /><line stroke="#000000" stroke-width="1" x1="320" x2="339" y1="163" y2="163" /><line stroke="#000000" stroke-width="1" x1="320" x2="339" y1="167" y2="167" /><line stroke="#000000" stroke-width="1" x1="320" x2="339" y1="171" y2="171" /><line stroke="#000000" stroke-width="1" x1="320" x2="339" y1="175" y2="175" /><line stroke="#000000" stroke-width="1" x1="320" x2="339" y1="179" y2="179" /><line stroke="#000000" stroke-width="1" x1="320" x2="339" y1="183" y2="183" /><line stroke="#000000" stroke-width="1" x1="393" x2="393" y1="213" y2="194" /><line stroke="#000000" stroke-width="1" x1="389" x2="389" y1="213" y2="194" /><line stroke="#000000" stroke-width="1" x1="385" x2="385" y1="213" y2="194" /><line stroke="#000000" stroke-width="1" x1="381" x2="381" y1="213" y2="194" /><line stroke="#000000" stroke-width="1" x1="377" x2="377" y1="213" y2="194" /><line stroke="#000000" stroke-width="1" x1="373" x2="373" y1="213" y2="194" /><line stroke="#000000" stroke-width="1" x1="369" x2="369" y1="213" y2="194" /><line stroke="#000000" stroke-width="1" x1="365" x2="365" y1="213" y2="194" /><line stroke="#000000" stroke-width="1" x1="361" x2="361" y1="213" y2="194" /><line stroke="#000000" stroke-width="1" x1="357" x2="357" y1="213" y2="194" /><polyline fill="none" marker-end="url(#id394)" points="1053,401 1090,401" stroke="#FF0000" stroke-width="1" /><polyline fill="none" marker-end="url(#id394)" points="379,290 355,290" stroke="#FF0000" stroke-width="1" /><polyline fill="none" marker-end="url(#id394)" points="372,421 395,421" stroke="#009900" stroke-width="1" /><polyline fill="none" marker-end="url(#id394)" points="1088,309 1051,309" stroke="#009900" stroke-width="1" /><text fill="#00AFAF" font-family="Arial" font-size="15" stroke="none" x="1132" y="364.0">улица Притыцкого</text><text fill="#00AFAF" font-family="Arial" font-size="15" stroke="none" x="297" y="125.0">Посадка на автобусы</text><text fill="#00AFAF" font-family="Arial" font-size="15" stroke="none" x="297" y="140.0">'к ТД "Ждановичи"'</text><text fill="#00AFAF" font-family="Arial" font-size="15" stroke="none" x="13" y="359.0">Раковское шоссе</text><text fill="#00AFAF" font-family="Arial" font-size="15" stroke="none" x="42" y="585.0">Посадка на транспорт</text><text fill="#00AFAF" font-family="Arial" font-size="15" stroke="none" x="42" y="599.0">'в "Сухарево"'</text><text fill="#00AFAF" font-family="Arial" font-size="15" stroke="none" transform="rotate(-90.0,237,167)" x="237" y="182.0">улица Кунцевщина</text><text fill="#00AFAF" font-family="Arial" font-size="15" stroke="none" transform="rotate(-90.0,244,640)" x="244" y="655.0">улица Лобанка</text></g></svg>