<?xml version="1.0" encoding="utf-8" ?>
<svg baseProfile="full" height="650.0" version="1.1" width="1010.0" xmlns="http://www.w3.org/2000/svg" xmlns:ev="http://www.w3.org/2001/xml-events" xmlns:xlink="http://www.w3.org/1999/xlink">
  <defs>
    <marker id="id59" markerHeight="3" markerUnits="strokeWidth" markerWidth="4" orient="auto" refX="0" refY="5" viewBox="0,0,10,10">
      <path d="M 0 0 L 10 5 L 0 10 z"/>
    </marker>
  </defs>
  <g>
    <rect fill="none" height="650.0" stroke="none" stroke-width="0" width="1010.0" x="0.0" y="0.0"/>
    <g transform="rotate(-25.0,505.0,325.0)">
      <polygon fill="#00009f" points="284.0,203.0 284.0,173.0 734.0,173.0 734.0,203.0" stroke="#000000" stroke-width="1"/>
      <polygon fill="#00009f" points="284.0,313.0 284.0,283.0 734.0,283.0 734.0,313.0" stroke="#000000" stroke-width="1"/>
      <text fill="#00009f" font-family="Arial" font-size="20.0" stroke="none" stroke-width="0" x="284.0" y="168.0">&lt;&lt; Парк Челюскинцев</text>
      <text fill="#00009f" font-family="Arial" font-size="20.0" stroke="none" stroke-width="0" x="644.0" y="333.0">Восток &gt;&gt;</text>
      <text fill="#00009f" font-family="Arial" font-size="25.0" stroke="none" stroke-width="0" x="437.0" y="249.0">Московская</text>
      <polygon fill="#d0d0d0" points="202.0,232.0 213.0,232.0 213.0,254.0 202.0,254.0" stroke="#000000" stroke-width="1"/>
      <polygon fill="#d0d0d0" points="798.0,232.0 809.0,232.0 809.0,254.0 798.0,254.0" stroke="#000000" stroke-width="1"/>
      <polyline fill="none" points="284.0,203.0 284.0,210.0" stroke="#000000" stroke-width="1"/>
      <polyline fill="none" points="293.0,210.0 212.0,210.0 212.0,217.0 202.0,217.0 202.0,133.0 260.0,133.0" stroke="#000000" stroke-width="1"/>
      <polyline fill="none" points="260.0,113.0 59.0,113.0" stroke="#000000" stroke-width="1"/>
      <polyline fill="none" points="59.0,133.0 166.0,133.0 166.0,367.0 59.0,367.0" stroke="#000000" stroke-width="1"/>
      <polyline fill="none" points="59.0,387.0 260.0,387.0" stroke="#000000" stroke-width="1"/>
      <polyline fill="none" points="260.0,367.0 202.0,367.0 202.0,269.0 212.0,269.0 212.0,276.0 293.0,276.0" stroke="#000000" stroke-width="1"/>
      <polyline fill="none" points="284.0,276.0 284.0,283.0" stroke="#000000" stroke-width="1"/>
      <polyline fill="none" points="734.0,203.0 734.0,210.0" stroke="#000000" stroke-width="1"/>
      <polyline fill="none" points="726.0,210.0 798.0,210.0 798.0,217.0 809.0,217.0 809.0,158.0 884.0,158.0" stroke="#000000" stroke-width="1"/>
      <polyline fill="none" points="884.0,178.0 844.0,178.0 844.0,406.0 884.0,406.0" stroke="#000000" stroke-width="1"/>
      <polyline fill="none" points="884.0,426.0 809.0,426.0 809.0,269.0 798.0,269.0 798.0,276.0 726.0,276.0" stroke="#000000" stroke-width="1"/>
      <polyline fill="none" points="734.0,276.0 734.0,283.0" stroke="#000000" stroke-width="1"/>
      <line stroke="#000000" stroke-width="1" x1="61.0" x2="61.0" y1="133.0" y2="113.0"/>
      <line stroke="#000000" stroke-width="1" x1="65.0" x2="65.0" y1="133.0" y2="113.0"/>
      <line stroke="#000000" stroke-width="1" x1="69.0" x2="69.0" y1="133.0" y2="113.0"/>
      <line stroke="#000000" stroke-width="1" x1="73.0" x2="73.0" y1="133.0" y2="113.0"/>
      <line stroke="#000000" stroke-width="1" x1="77.0" x2="77.0" y1="133.0" y2="113.0"/>
      <line stroke="#000000" stroke-width="1" x1="81.0" x2="81.0" y1="133.0" y2="113.0"/>
      <line stroke="#000000" stroke-width="1" x1="85.0" x2="85.0" y1="133.0" y2="113.0"/>
      <line stroke="#000000" stroke-width="1" x1="89.0" x2="89.0" y1="133.0" y2="113.0"/>
      <line stroke="#000000" stroke-width="1" x1="93.0" x2="93.0" y1="133.0" y2="113.0"/>
      <line stroke="#000000" stroke-width="1" x1="97.0" x2="97.0" y1="133.0" y2="113.0"/>
      <line stroke="#000000" stroke-width="1" x1="258.0" x2="258.0" y1="133.0" y2="113.0"/>
      <line stroke="#000000" stroke-width="1" x1="254.0" x2="254.0" y1="133.0" y2="113.0"/>
      <line stroke="#000000" stroke-width="1" x1="250.0" x2="250.0" y1="133.0" y2="113.0"/>
      <line stroke="#000000" stroke-width="1" x1="246.0" x2="246.0" y1="133.0" y2="113.0"/>
      <line stroke="#000000" stroke-width="1" x1="242.0" x2="242.0" y1="133.0" y2="113.0"/>
      <line stroke="#000000" stroke-width="1" x1="238.0" x2="238.0" y1="133.0" y2="113.0"/>
      <line stroke="#000000" stroke-width="1" x1="234.0" x2="234.0" y1="133.0" y2="113.0"/>
      <line stroke="#000000" stroke-width="1" x1="230.0" x2="230.0" y1="133.0" y2="113.0"/>
      <line stroke="#000000" stroke-width="1" x1="226.0" x2="226.0" y1="133.0" y2="113.0"/>
      <line stroke="#000000" stroke-width="1" x1="222.0" x2="222.0" y1="133.0" y2="113.0"/>
      <line stroke="#000000" stroke-width="1" x1="258.0" x2="258.0" y1="367.0" y2="387.0"/>
      <line stroke="#000000" stroke-width="1" x1="254.0" x2="254.0" y1="367.0" y2="387.0"/>
      <line stroke="#000000" stroke-width="1" x1="250.0" x2="250.0" y1="367.0" y2="387.0"/>
      <line stroke="#000000" stroke-width="1" x1="246.0" x2="246.0" y1="367.0" y2="387.0"/>
      <line stroke="#000000" stroke-width="1" x1="242.0" x2="242.0" y1="367.0" y2="387.0"/>
      <line stroke="#000000" stroke-width="1" x1="238.0" x2="238.0" y1="367.0" y2="387.0"/>
      <line stroke="#000000" stroke-width="1" x1="234.0" x2="234.0" y1="367.0" y2="387.0"/>
      <line stroke="#000000" stroke-width="1" x1="230.0" x2="230.0" y1="367.0" y2="387.0"/>
      <line stroke="#000000" stroke-width="1" x1="226.0" x2="226.0" y1="367.0" y2="387.0"/>
      <line stroke="#000000" stroke-width="1" x1="222.0" x2="222.0" y1="367.0" y2="387.0"/>
      <line stroke="#000000" stroke-width="1" x1="61.0" x2="61.0" y1="367.0" y2="387.0"/>
      <line stroke="#000000" stroke-width="1" x1="65.0" x2="65.0" y1="367.0" y2="387.0"/>
      <line stroke="#000000" stroke-width="1" x1="69.0" x2="69.0" y1="367.0" y2="387.0"/>
      <line stroke="#000000" stroke-width="1" x1="73.0" x2="73.0" y1="367.0" y2="387.0"/>
      <line stroke="#000000" stroke-width="1" x1="77.0" x2="77.0" y1="367.0" y2="387.0"/>
      <line stroke="#000000" stroke-width="1" x1="81.0" x2="81.0" y1="367.0" y2="387.0"/>
      <line stroke="#000000" stroke-width="1" x1="85.0" x2="85.0" y1="367.0" y2="387.0"/>
      <line stroke="#000000" stroke-width="1" x1="89.0" x2="89.0" y1="367.0" y2="387.0"/>
      <line stroke="#000000" stroke-width="1" x1="93.0" x2="93.0" y1="367.0" y2="387.0"/>
      <line stroke="#000000" stroke-width="1" x1="97.0" x2="97.0" y1="367.0" y2="387.0"/>
      <line stroke="#000000" stroke-width="1" x1="291.0" x2="291.0" y1="276.0" y2="210.0"/>
      <line stroke="#000000" stroke-width="1" x1="287.0" x2="287.0" y1="276.0" y2="210.0"/>
      <line stroke="#000000" stroke-width="1" x1="283.0" x2="283.0" y1="276.0" y2="210.0"/>
      <line stroke="#000000" stroke-width="1" x1="279.0" x2="279.0" y1="276.0" y2="210.0"/>
      <line stroke="#000000" stroke-width="1" x1="275.0" x2="275.0" y1="276.0" y2="210.0"/>
      <line stroke="#000000" stroke-width="1" x1="271.0" x2="271.0" y1="276.0" y2="210.0"/>
      <line stroke="#000000" stroke-width="1" x1="267.0" x2="267.0" y1="276.0" y2="210.0"/>
      <line stroke="#000000" stroke-width="1" x1="263.0" x2="263.0" y1="276.0" y2="210.0"/>
      <line stroke="#000000" stroke-width="1" x1="259.0" x2="259.0" y1="276.0" y2="210.0"/>
      <line stroke="#000000" stroke-width="1" x1="255.0" x2="255.0" y1="276.0" y2="210.0"/>
      <line stroke="#000000" stroke-width="1" x1="251.0" x2="251.0" y1="276.0" y2="210.0"/>
      <line stroke="#000000" stroke-width="1" x1="247.0" x2="247.0" y1="276.0" y2="210.0"/>
      <line stroke="#000000" stroke-width="1" x1="882.0" x2="882.0" y1="406.0" y2="426.0"/>
      <line stroke="#000000" stroke-width="1" x1="878.0" x2="878.0" y1="406.0" y2="426.0"/>
      <line stroke="#000000" stroke-width="1" x1="874.0" x2="874.0" y1="406.0" y2="426.0"/>
      <line stroke="#000000" stroke-width="1" x1="870.0" x2="870.0" y1="406.0" y2="426.0"/>
      <line stroke="#000000" stroke-width="1" x1="866.0" x2="866.0" y1="406.0" y2="426.0"/>
      <line stroke="#000000" stroke-width="1" x1="862.0" x2="862.0" y1="406.0" y2="426.0"/>
      <line stroke="#000000" stroke-width="1" x1="858.0" x2="858.0" y1="406.0" y2="426.0"/>
      <line stroke="#000000" stroke-width="1" x1="854.0" x2="854.0" y1="406.0" y2="426.0"/>
      <line stroke="#000000" stroke-width="1" x1="850.0" x2="850.0" y1="406.0" y2="426.0"/>
      <line stroke="#000000" stroke-width="1" x1="846.0" x2="846.0" y1="406.0" y2="426.0"/>
      <line stroke="#000000" stroke-width="1" x1="882.0" x2="882.0" y1="178.0" y2="158.0"/>
      <line stroke="#000000" stroke-width="1" x1="878.0" x2="878.0" y1="178.0" y2="158.0"/>
      <line stroke="#000000" stroke-width="1" x1="874.0" x2="874.0" y1="178.0" y2="158.0"/>
      <line stroke="#000000" stroke-width="1" x1="870.0" x2="870.0" y1="178.0" y2="158.0"/>
      <line stroke="#000000" stroke-width="1" x1="866.0" x2="866.0" y1="178.0" y2="158.0"/>
      <line stroke="#000000" stroke-width="1" x1="862.0" x2="862.0" y1="178.0" y2="158.0"/>
      <line stroke="#000000" stroke-width="1" x1="858.0" x2="858.0" y1="178.0" y2="158.0"/>
      <line stroke="#000000" stroke-width="1" x1="854.0" x2="854.0" y1="178.0" y2="158.0"/>
      <line stroke="#000000" stroke-width="1" x1="850.0" x2="850.0" y1="178.0" y2="158.0"/>
      <line stroke="#000000" stroke-width="1" x1="846.0" x2="846.0" y1="178.0" y2="158.0"/>
      <line stroke="#000000" stroke-width="1" x1="728.0" x2="728.0" y1="210.0" y2="276.0"/>
      <line stroke="#000000" stroke-width="1" x1="732.0" x2="732.0" y1="210.0" y2="276.0"/>
      <line stroke="#000000" stroke-width="1" x1="736.0" x2="736.0" y1="210.0" y2="276.0"/>
      <line stroke="#000000" stroke-width="1" x1="740.0" x2="740.0" y1="210.0" y2="276.0"/>
      <line stroke="#000000" stroke-width="1" x1="744.0" x2="744.0" y1="210.0" y2="276.0"/>
      <line stroke="#000000" stroke-width="1" x1="748.0" x2="748.0" y1="210.0" y2="276.0"/>
      <line stroke="#000000" stroke-width="1" x1="752.0" x2="752.0" y1="210.0" y2="276.0"/>
      <line stroke="#000000" stroke-width="1" x1="756.0" x2="756.0" y1="210.0" y2="276.0"/>
      <line stroke="#000000" stroke-width="1" x1="760.0" x2="760.0" y1="210.0" y2="276.0"/>
      <line stroke="#000000" stroke-width="1" x1="764.0" x2="764.0" y1="210.0" y2="276.0"/>
      <line stroke="#000000" stroke-width="1" x1="768.0" x2="768.0" y1="210.0" y2="276.0"/>
      <line stroke="#000000" stroke-width="1" x1="772.0" x2="772.0" y1="210.0" y2="276.0"/>
      <polyline fill="none" marker-end="url(#id59)" points="210.0,261.0 197.0,261.0" stroke="#ff0000" stroke-width="1"/>
      <polyline fill="none" marker-end="url(#id59)" points="802.0,261.0 818.0,261.0" stroke="#ff0000" stroke-width="1"/>
      <polyline fill="none" marker-end="url(#id59)" points="804.0,225.0 789.0,225.0" stroke="#009900" stroke-width="1"/>
      <polyline fill="none" marker-end="url(#id59)" points="208.0,224.0 221.0,224.0" stroke="#009900" stroke-width="1"/>
      <text fill="#00afaf" font-family="Arial" font-size="15.0" stroke="none" stroke-width="0" x="874.0" y="271.0">пр.Независимости</text>
      <text fill="#00afaf" font-family="Arial" font-size="15.0" stroke="none" stroke-width="0" x="37.0" y="249.0">пр.Независимости</text>
      <text fill="#00afaf" font-family="Arial" font-size="15.0" stroke="none" stroke-width="0" transform="rotate(90.0,181.0,-41.0)" x="181.0" y="-26.0">ул.Волгоградская</text>
      <text fill="#00afaf" font-family="Arial" font-size="15.0" stroke="none" stroke-width="0" transform="rotate(90.0,183.0,436.0)" x="183.0" y="451.0">ул.Макаёнка</text>
      <text fill="#00afaf" font-family="Arial" font-size="15.0" stroke="none" stroke-width="0" x="818.0" y="451.0">'Автовокзал &quot;Московский&quot;'</text>
      <polyline fill="none" marker-end="url(#id59)" points="886.0,461.0 987.0,461.0" stroke="#00afaf" stroke-width="1"/>
    </g>
  </g>
</svg>
