<?xml version="1.0" encoding="utf-8" ?>
<svg baseProfile="full" height="1250.0" version="1.1" width="1160.0" xmlns="http://www.w3.org/2000/svg" xmlns:ev="http://www.w3.org/2001/xml-events" xmlns:xlink="http://www.w3.org/1999/xlink">
  <defs>
    <marker id="id62" markerHeight="3" markerUnits="strokeWidth" markerWidth="4" orient="auto" refX="0" refY="5" viewBox="0,0,10,10">
      <path d="M 0 0 L 10 5 L 0 10 z"/>
    </marker>
  </defs>
  <g>
    <rect fill="none" height="1250.0" stroke="none" stroke-width="0" width="1160.0" x="0.0" y="0.0"/>
    <text fill="#040464" font-family="Arial" font-size="36.0" stroke="none" stroke-width="0" x="18.0" y="37.0">Внимание! Схема неточная.</text>
    <text fill="#040464" font-family="Arial" font-size="36.0" stroke="none" stroke-width="0" x="18.0" y="78.0">Ждём Ваших уточнений.</text>
    <g transform="rotate(-40.0,580.0,625.0)">
      <polygon fill="#00009f" points="417.0,475.0 417.0,445.0 867.0,445.0 867.0,475.0" stroke="#040464" stroke-width="1"/>
      <polygon fill="#00009f" points="417.0,585.0 417.0,555.0 867.0,555.0 867.0,585.0" stroke="#040464" stroke-width="1"/>
      <text fill="#00009f" font-family="Arial" font-size="20.0" stroke="none" stroke-width="0" x="487.0" y="441.0">&lt;&lt; Площадь Ленина</text>
      <text fill="#00009f" font-family="Arial" font-size="20.0" stroke="none" stroke-width="0" x="691.0" y="605.0">Площадь Победы &gt;&gt;</text>
      <text fill="#00009f" font-family="Arial" font-size="25.0" stroke="none" stroke-width="0" x="596.0" y="508.0">Октябрьская</text>
      <polyline fill="none" points="417.0,475.0 417.0,483.0 386.0,483.0 386.0,488.0" stroke="#000000" stroke-width="1"/>
      <polyline fill="none" points="417.0,555.0 417.0,546.0 386.0,546.0 386.0,541.0" stroke="#000000" stroke-width="1"/>
      <polyline fill="none" points="239.0,431.0 239.0,483.0 267.0,483.0 267.0,488.0" stroke="#000000" stroke-width="1"/>
      <polyline fill="none" points="239.0,398.0 239.0,369.0 546.0,369.0 546.0,297.0" stroke="#000000" stroke-width="1"/>
      <polyline fill="none" points="523.0,297.0 523.0,347.0 239.0,347.0 239.0,297.0 246.0,297.0 246.0,323.0" stroke="#000000" stroke-width="1"/>
      <polyline fill="none" points="268.0,323.0 268.0,274.0 216.0,274.0 216.0,347.0 209.0,347.0 209.0,274.0 156.0,274.0 156.0,323.0" stroke="#000000" stroke-width="1"/>
      <polyline fill="none" points="179.0,323.0 179.0,297.0 186.0,297.0 186.0,696.0 179.0,696.0 179.0,670.0" stroke="#000000" stroke-width="1"/>
      <polyline fill="none" points="156.0,670.0 156.0,710.0 209.0,710.0 209.0,645.0 216.0,645.0 216.0,710.0 269.0,710.0 269.0,670.0" stroke="#000000" stroke-width="1"/>
      <polyline fill="none" points="246.0,670.0 246.0,696.0 239.0,696.0 239.0,608.0 216.0,608.0 216.0,546.0 267.0,546.0 267.0,541.0" stroke="#000000" stroke-width="1"/>
      <line stroke="#000000" stroke-width="1" x1="523.0" x2="546.0" y1="299.0" y2="299.0"/>
      <line stroke="#000000" stroke-width="1" x1="523.0" x2="546.0" y1="303.0" y2="303.0"/>
      <line stroke="#000000" stroke-width="1" x1="523.0" x2="546.0" y1="307.0" y2="307.0"/>
      <line stroke="#000000" stroke-width="1" x1="523.0" x2="546.0" y1="311.0" y2="311.0"/>
      <line stroke="#000000" stroke-width="1" x1="523.0" x2="546.0" y1="315.0" y2="315.0"/>
      <line stroke="#000000" stroke-width="1" x1="523.0" x2="546.0" y1="319.0" y2="319.0"/>
      <line stroke="#000000" stroke-width="1" x1="523.0" x2="546.0" y1="323.0" y2="323.0"/>
      <line stroke="#000000" stroke-width="1" x1="523.0" x2="546.0" y1="327.0" y2="327.0"/>
      <line stroke="#000000" stroke-width="1" x1="523.0" x2="546.0" y1="331.0" y2="331.0"/>
      <line stroke="#000000" stroke-width="1" x1="523.0" x2="546.0" y1="335.0" y2="335.0"/>
      <line stroke="#000000" stroke-width="1" x1="523.0" x2="546.0" y1="339.0" y2="339.0"/>
      <line stroke="#000000" stroke-width="1" x1="523.0" x2="546.0" y1="343.0" y2="343.0"/>
      <line stroke="#000000" stroke-width="1" x1="179.0" x2="156.0" y1="321.0" y2="321.0"/>
      <line stroke="#000000" stroke-width="1" x1="179.0" x2="156.0" y1="317.0" y2="317.0"/>
      <line stroke="#000000" stroke-width="1" x1="179.0" x2="156.0" y1="313.0" y2="313.0"/>
      <line stroke="#000000" stroke-width="1" x1="179.0" x2="156.0" y1="309.0" y2="309.0"/>
      <line stroke="#000000" stroke-width="1" x1="179.0" x2="156.0" y1="305.0" y2="305.0"/>
      <line stroke="#000000" stroke-width="1" x1="179.0" x2="156.0" y1="301.0" y2="301.0"/>
      <line stroke="#000000" stroke-width="1" x1="186.0" x2="209.0" y1="299.0" y2="299.0"/>
      <line stroke="#000000" stroke-width="1" x1="186.0" x2="209.0" y1="303.0" y2="303.0"/>
      <line stroke="#000000" stroke-width="1" x1="186.0" x2="209.0" y1="307.0" y2="307.0"/>
      <line stroke="#000000" stroke-width="1" x1="186.0" x2="209.0" y1="311.0" y2="311.0"/>
      <line stroke="#000000" stroke-width="1" x1="186.0" x2="209.0" y1="315.0" y2="315.0"/>
      <line stroke="#000000" stroke-width="1" x1="186.0" x2="209.0" y1="319.0" y2="319.0"/>
      <line stroke="#000000" stroke-width="1" x1="246.0" x2="268.0" y1="321.0" y2="321.0"/>
      <line stroke="#000000" stroke-width="1" x1="246.0" x2="268.0" y1="317.0" y2="317.0"/>
      <line stroke="#000000" stroke-width="1" x1="246.0" x2="268.0" y1="313.0" y2="313.0"/>
      <line stroke="#000000" stroke-width="1" x1="246.0" x2="268.0" y1="309.0" y2="309.0"/>
      <line stroke="#000000" stroke-width="1" x1="246.0" x2="268.0" y1="305.0" y2="305.0"/>
      <line stroke="#000000" stroke-width="1" x1="246.0" x2="268.0" y1="301.0" y2="301.0"/>
      <line stroke="#000000" stroke-width="1" x1="239.0" x2="216.0" y1="299.0" y2="299.0"/>
      <line stroke="#000000" stroke-width="1" x1="239.0" x2="216.0" y1="303.0" y2="303.0"/>
      <line stroke="#000000" stroke-width="1" x1="239.0" x2="216.0" y1="307.0" y2="307.0"/>
      <line stroke="#000000" stroke-width="1" x1="239.0" x2="216.0" y1="311.0" y2="311.0"/>
      <line stroke="#000000" stroke-width="1" x1="239.0" x2="216.0" y1="315.0" y2="315.0"/>
      <line stroke="#000000" stroke-width="1" x1="239.0" x2="216.0" y1="319.0" y2="319.0"/>
      <line stroke="#000000" stroke-width="1" x1="179.0" x2="156.0" y1="672.0" y2="672.0"/>
      <line stroke="#000000" stroke-width="1" x1="179.0" x2="156.0" y1="676.0" y2="676.0"/>
      <line stroke="#000000" stroke-width="1" x1="179.0" x2="156.0" y1="680.0" y2="680.0"/>
      <line stroke="#000000" stroke-width="1" x1="179.0" x2="156.0" y1="684.0" y2="684.0"/>
      <line stroke="#000000" stroke-width="1" x1="179.0" x2="156.0" y1="688.0" y2="688.0"/>
      <line stroke="#000000" stroke-width="1" x1="179.0" x2="156.0" y1="692.0" y2="692.0"/>
      <line stroke="#000000" stroke-width="1" x1="186.0" x2="209.0" y1="694.0" y2="694.0"/>
      <line stroke="#000000" stroke-width="1" x1="186.0" x2="209.0" y1="690.0" y2="690.0"/>
      <line stroke="#000000" stroke-width="1" x1="186.0" x2="209.0" y1="686.0" y2="686.0"/>
      <line stroke="#000000" stroke-width="1" x1="186.0" x2="209.0" y1="682.0" y2="682.0"/>
      <line stroke="#000000" stroke-width="1" x1="186.0" x2="209.0" y1="678.0" y2="678.0"/>
      <line stroke="#000000" stroke-width="1" x1="186.0" x2="209.0" y1="674.0" y2="674.0"/>
      <line stroke="#000000" stroke-width="1" x1="246.0" x2="269.0" y1="672.0" y2="672.0"/>
      <line stroke="#000000" stroke-width="1" x1="246.0" x2="269.0" y1="676.0" y2="676.0"/>
      <line stroke="#000000" stroke-width="1" x1="246.0" x2="269.0" y1="680.0" y2="680.0"/>
      <line stroke="#000000" stroke-width="1" x1="246.0" x2="269.0" y1="684.0" y2="684.0"/>
      <line stroke="#000000" stroke-width="1" x1="246.0" x2="269.0" y1="688.0" y2="688.0"/>
      <line stroke="#000000" stroke-width="1" x1="246.0" x2="269.0" y1="692.0" y2="692.0"/>
      <line stroke="#000000" stroke-width="1" x1="239.0" x2="216.0" y1="694.0" y2="694.0"/>
      <line stroke="#000000" stroke-width="1" x1="239.0" x2="216.0" y1="690.0" y2="690.0"/>
      <line stroke="#000000" stroke-width="1" x1="239.0" x2="216.0" y1="686.0" y2="686.0"/>
      <line stroke="#000000" stroke-width="1" x1="239.0" x2="216.0" y1="682.0" y2="682.0"/>
      <line stroke="#000000" stroke-width="1" x1="239.0" x2="216.0" y1="678.0" y2="678.0"/>
      <line stroke="#000000" stroke-width="1" x1="239.0" x2="216.0" y1="674.0" y2="674.0"/>
      <line stroke="#7f7f7f" stroke-width="1" x1="388.0" x2="388.0" y1="538.0" y2="491.0"/>
      <line stroke="#7f7f7f" stroke-width="1" x1="384.0" x2="384.0" y1="538.0" y2="491.0"/>
      <line stroke="#7f7f7f" stroke-width="1" x1="380.0" x2="380.0" y1="538.0" y2="491.0"/>
      <line stroke="#7f7f7f" stroke-width="1" x1="376.0" x2="376.0" y1="538.0" y2="491.0"/>
      <line stroke="#7f7f7f" stroke-width="1" x1="372.0" x2="372.0" y1="538.0" y2="491.0"/>
      <line stroke="#7f7f7f" stroke-width="1" x1="368.0" x2="368.0" y1="538.0" y2="491.0"/>
      <line stroke="#7f7f7f" stroke-width="1" x1="364.0" x2="364.0" y1="538.0" y2="491.0"/>
      <line stroke="#7f7f7f" stroke-width="1" x1="360.0" x2="360.0" y1="538.0" y2="491.0"/>
      <line stroke="#7f7f7f" stroke-width="1" x1="356.0" x2="356.0" y1="538.0" y2="491.0"/>
      <line stroke="#7f7f7f" stroke-width="1" x1="352.0" x2="352.0" y1="538.0" y2="491.0"/>
      <line stroke="#7f7f7f" stroke-width="1" x1="348.0" x2="348.0" y1="538.0" y2="491.0"/>
      <line stroke="#7f7f7f" stroke-width="1" x1="344.0" x2="344.0" y1="538.0" y2="491.0"/>
      <line stroke="#7f7f7f" stroke-width="1" x1="340.0" x2="340.0" y1="538.0" y2="491.0"/>
      <line stroke="#7f7f7f" stroke-width="1" x1="336.0" x2="336.0" y1="538.0" y2="491.0"/>
      <line stroke="#7f7f7f" stroke-width="1" x1="332.0" x2="332.0" y1="538.0" y2="491.0"/>
      <line stroke="#7f7f7f" stroke-width="1" x1="328.0" x2="328.0" y1="538.0" y2="491.0"/>
      <line stroke="#7f7f7f" stroke-width="1" x1="324.0" x2="324.0" y1="538.0" y2="491.0"/>
      <line stroke="#7f7f7f" stroke-width="1" x1="320.0" x2="320.0" y1="538.0" y2="491.0"/>
      <line stroke="#7f7f7f" stroke-width="1" x1="316.0" x2="316.0" y1="538.0" y2="491.0"/>
      <line stroke="#7f7f7f" stroke-width="1" x1="312.0" x2="312.0" y1="538.0" y2="491.0"/>
      <line stroke="#7f7f7f" stroke-width="1" x1="308.0" x2="308.0" y1="538.0" y2="491.0"/>
      <line stroke="#7f7f7f" stroke-width="1" x1="304.0" x2="304.0" y1="538.0" y2="491.0"/>
      <line stroke="#7f7f7f" stroke-width="1" x1="300.0" x2="300.0" y1="538.0" y2="491.0"/>
      <line stroke="#7f7f7f" stroke-width="1" x1="296.0" x2="296.0" y1="538.0" y2="491.0"/>
      <line stroke="#7f7f7f" stroke-width="1" x1="292.0" x2="292.0" y1="538.0" y2="491.0"/>
      <line stroke="#7f7f7f" stroke-width="1" x1="288.0" x2="288.0" y1="538.0" y2="491.0"/>
      <line stroke="#7f7f7f" stroke-width="1" x1="284.0" x2="284.0" y1="538.0" y2="491.0"/>
      <line stroke="#7f7f7f" stroke-width="1" x1="280.0" x2="280.0" y1="538.0" y2="491.0"/>
      <line stroke="#7f7f7f" stroke-width="1" x1="276.0" x2="276.0" y1="538.0" y2="491.0"/>
      <line stroke="#7f7f7f" stroke-width="1" x1="272.0" x2="272.0" y1="538.0" y2="491.0"/>
      <line stroke="#7f7f7f" stroke-width="1" x1="268.0" x2="268.0" y1="538.0" y2="491.0"/>
      <line stroke="#7f7f7f" stroke-width="1" x1="264.0" x2="264.0" y1="538.0" y2="491.0"/>
      <polygon fill="#9b5509" points="395.0,491.0 259.0,491.0 259.0,488.0 395.0,488.0" stroke="#000000" stroke-width="1"/>
      <polygon fill="#9b5509" points="395.0,499.0 395.0,504.0 259.0,504.0 259.0,499.0" stroke="#000000" stroke-width="1"/>
      <polygon fill="#9b5509" points="395.0,512.0 395.0,517.0 259.0,517.0 259.0,512.0" stroke="#000000" stroke-width="1"/>
      <polygon fill="#9b5509" points="395.0,525.0 395.0,530.0 259.0,530.0 259.0,525.0" stroke="#000000" stroke-width="1"/>
      <polygon fill="#9b5509" points="395.0,538.0 259.0,538.0 259.0,541.0 395.0,541.0" stroke="#000000" stroke-width="1"/>
      <polyline fill="none" points="867.0,475.0 867.0,489.0 899.0,489.0 899.0,493.0" stroke="#000000" stroke-width="1"/>
      <polyline fill="none" points="867.0,555.0 867.0,537.0 899.0,537.0 899.0,533.0" stroke="#000000" stroke-width="1"/>
      <polyline fill="none" points="995.0,533.0 995.0,537.0 1045.0,537.0 1045.0,677.0 1098.0,677.0 1098.0,630.0" stroke="#000000" stroke-width="1"/>
      <polyline fill="none" points="1075.0,630.0 1075.0,654.0 1068.0,654.0 1068.0,378.0 1195.0,378.0" stroke="#000000" stroke-width="1"/>
      <polyline fill="none" points="1195.0,341.0 1081.0,341.0 1081.0,291.0" stroke="#000000" stroke-width="1"/>
      <polyline fill="none" points="1059.0,291.0 1059.0,341.0 1030.0,341.0 1030.0,489.0 995.0,489.0 995.0,493.0" stroke="#000000" stroke-width="1"/>
      <line stroke="#000000" stroke-width="1" x1="1059.0" x2="1081.0" y1="293.0" y2="293.0"/>
      <line stroke="#000000" stroke-width="1" x1="1059.0" x2="1081.0" y1="297.0" y2="297.0"/>
      <line stroke="#000000" stroke-width="1" x1="1059.0" x2="1081.0" y1="301.0" y2="301.0"/>
      <line stroke="#000000" stroke-width="1" x1="1059.0" x2="1081.0" y1="305.0" y2="305.0"/>
      <line stroke="#000000" stroke-width="1" x1="1059.0" x2="1081.0" y1="309.0" y2="309.0"/>
      <line stroke="#000000" stroke-width="1" x1="1059.0" x2="1081.0" y1="313.0" y2="313.0"/>
      <line stroke="#000000" stroke-width="1" x1="1059.0" x2="1081.0" y1="317.0" y2="317.0"/>
      <line stroke="#000000" stroke-width="1" x1="1059.0" x2="1081.0" y1="321.0" y2="321.0"/>
      <line stroke="#000000" stroke-width="1" x1="1059.0" x2="1081.0" y1="325.0" y2="325.0"/>
      <line stroke="#000000" stroke-width="1" x1="1059.0" x2="1081.0" y1="329.0" y2="329.0"/>
      <line stroke="#000000" stroke-width="1" x1="1059.0" x2="1081.0" y1="333.0" y2="333.0"/>
      <line stroke="#000000" stroke-width="1" x1="1059.0" x2="1081.0" y1="337.0" y2="337.0"/>
      <line stroke="#000000" stroke-width="1" x1="1193.0" x2="1193.0" y1="341.0" y2="378.0"/>
      <line stroke="#000000" stroke-width="1" x1="1189.0" x2="1189.0" y1="341.0" y2="378.0"/>
      <line stroke="#000000" stroke-width="1" x1="1185.0" x2="1185.0" y1="341.0" y2="378.0"/>
      <line stroke="#000000" stroke-width="1" x1="1181.0" x2="1181.0" y1="341.0" y2="378.0"/>
      <line stroke="#000000" stroke-width="1" x1="1177.0" x2="1177.0" y1="341.0" y2="378.0"/>
      <line stroke="#000000" stroke-width="1" x1="1173.0" x2="1173.0" y1="341.0" y2="378.0"/>
      <line stroke="#000000" stroke-width="1" x1="1169.0" x2="1169.0" y1="341.0" y2="378.0"/>
      <line stroke="#000000" stroke-width="1" x1="1165.0" x2="1165.0" y1="341.0" y2="378.0"/>
      <line stroke="#000000" stroke-width="1" x1="1161.0" x2="1161.0" y1="341.0" y2="378.0"/>
      <line stroke="#000000" stroke-width="1" x1="1157.0" x2="1157.0" y1="341.0" y2="378.0"/>
      <line stroke="#000000" stroke-width="1" x1="1153.0" x2="1153.0" y1="341.0" y2="378.0"/>
      <line stroke="#000000" stroke-width="1" x1="1149.0" x2="1149.0" y1="341.0" y2="378.0"/>
      <line stroke="#000000" stroke-width="1" x1="1075.0" x2="1098.0" y1="632.0" y2="632.0"/>
      <line stroke="#000000" stroke-width="1" x1="1075.0" x2="1098.0" y1="636.0" y2="636.0"/>
      <line stroke="#000000" stroke-width="1" x1="1075.0" x2="1098.0" y1="640.0" y2="640.0"/>
      <line stroke="#000000" stroke-width="1" x1="1075.0" x2="1098.0" y1="644.0" y2="644.0"/>
      <line stroke="#000000" stroke-width="1" x1="1075.0" x2="1098.0" y1="648.0" y2="648.0"/>
      <line stroke="#000000" stroke-width="1" x1="1075.0" x2="1098.0" y1="652.0" y2="652.0"/>
      <line stroke="#000000" stroke-width="1" x1="1068.0" x2="1045.0" y1="632.0" y2="632.0"/>
      <line stroke="#000000" stroke-width="1" x1="1068.0" x2="1045.0" y1="636.0" y2="636.0"/>
      <line stroke="#000000" stroke-width="1" x1="1068.0" x2="1045.0" y1="640.0" y2="640.0"/>
      <line stroke="#000000" stroke-width="1" x1="1068.0" x2="1045.0" y1="644.0" y2="644.0"/>
      <line stroke="#000000" stroke-width="1" x1="1068.0" x2="1045.0" y1="648.0" y2="648.0"/>
      <line stroke="#000000" stroke-width="1" x1="1068.0" x2="1045.0" y1="652.0" y2="652.0"/>
      <line stroke="#7f7f7f" stroke-width="1" x1="997.0" x2="997.0" y1="530.0" y2="496.0"/>
      <line stroke="#7f7f7f" stroke-width="1" x1="993.0" x2="993.0" y1="530.0" y2="496.0"/>
      <line stroke="#7f7f7f" stroke-width="1" x1="989.0" x2="989.0" y1="530.0" y2="496.0"/>
      <line stroke="#7f7f7f" stroke-width="1" x1="985.0" x2="985.0" y1="530.0" y2="496.0"/>
      <line stroke="#7f7f7f" stroke-width="1" x1="981.0" x2="981.0" y1="530.0" y2="496.0"/>
      <line stroke="#7f7f7f" stroke-width="1" x1="977.0" x2="977.0" y1="530.0" y2="496.0"/>
      <line stroke="#7f7f7f" stroke-width="1" x1="973.0" x2="973.0" y1="530.0" y2="496.0"/>
      <line stroke="#7f7f7f" stroke-width="1" x1="969.0" x2="969.0" y1="530.0" y2="496.0"/>
      <line stroke="#7f7f7f" stroke-width="1" x1="965.0" x2="965.0" y1="530.0" y2="496.0"/>
      <line stroke="#7f7f7f" stroke-width="1" x1="961.0" x2="961.0" y1="530.0" y2="496.0"/>
      <line stroke="#7f7f7f" stroke-width="1" x1="957.0" x2="957.0" y1="530.0" y2="496.0"/>
      <line stroke="#7f7f7f" stroke-width="1" x1="953.0" x2="953.0" y1="530.0" y2="496.0"/>
      <line stroke="#7f7f7f" stroke-width="1" x1="949.0" x2="949.0" y1="530.0" y2="496.0"/>
      <line stroke="#7f7f7f" stroke-width="1" x1="945.0" x2="945.0" y1="530.0" y2="496.0"/>
      <line stroke="#7f7f7f" stroke-width="1" x1="941.0" x2="941.0" y1="530.0" y2="496.0"/>
      <line stroke="#7f7f7f" stroke-width="1" x1="937.0" x2="937.0" y1="530.0" y2="496.0"/>
      <line stroke="#7f7f7f" stroke-width="1" x1="933.0" x2="933.0" y1="530.0" y2="496.0"/>
      <line stroke="#7f7f7f" stroke-width="1" x1="929.0" x2="929.0" y1="530.0" y2="496.0"/>
      <line stroke="#7f7f7f" stroke-width="1" x1="925.0" x2="925.0" y1="530.0" y2="496.0"/>
      <line stroke="#7f7f7f" stroke-width="1" x1="921.0" x2="921.0" y1="530.0" y2="496.0"/>
      <line stroke="#7f7f7f" stroke-width="1" x1="917.0" x2="917.0" y1="530.0" y2="496.0"/>
      <line stroke="#7f7f7f" stroke-width="1" x1="913.0" x2="913.0" y1="530.0" y2="496.0"/>
      <line stroke="#7f7f7f" stroke-width="1" x1="909.0" x2="909.0" y1="530.0" y2="496.0"/>
      <line stroke="#7f7f7f" stroke-width="1" x1="905.0" x2="905.0" y1="530.0" y2="496.0"/>
      <line stroke="#7f7f7f" stroke-width="1" x1="901.0" x2="901.0" y1="530.0" y2="496.0"/>
      <line stroke="#7f7f7f" stroke-width="1" x1="897.0" x2="897.0" y1="530.0" y2="496.0"/>
      <polygon fill="#9b5509" points="1004.0,496.0 890.0,496.0 890.0,493.0 1004.0,493.0" stroke="#000000" stroke-width="1"/>
      <polygon fill="#9b5509" points="1004.0,504.0 1004.0,509.0 890.0,509.0 890.0,504.0" stroke="#000000" stroke-width="1"/>
      <polygon fill="#9b5509" points="1004.0,517.0 1004.0,522.0 890.0,522.0 890.0,517.0" stroke="#000000" stroke-width="1"/>
      <polygon fill="#9b5509" points="1004.0,530.0 890.0,530.0 890.0,533.0 1004.0,533.0" stroke="#000000" stroke-width="1"/>
    </g>
    <g fill="#9b5509" fill-opacity="0.85" stroke="#000000" stroke-opacity="0.85" transform="rotate(-40.0,580.0,625.0)">
      <polygon fill="#ffffff" points="614.0,553.0 656.0,553.0 656.0,587.0 614.0,587.0" stroke="#ffffff" stroke-width="1"/>
      <polygon fill="#ffffff" points="444.0,442.0 483.0,442.0 483.0,587.0 444.0,587.0" stroke="#ffffff" stroke-width="1"/>
    </g>
    <g fill="#ffffff" fill-opacity="1.0" stroke="#ffffff" stroke-opacity="1.0" transform="rotate(-40.0,580.0,625.0)">
      <polygon fill="#bf0050" points="417.0,612.0 417.0,1062.0 387.0,1062.0 387.0,612.0" stroke="#000000" stroke-width="1"/>
      <polygon fill="#bf0050" points="537.0,1062.0 507.0,1062.0 507.0,612.0 537.0,612.0" stroke="#000000" stroke-width="1"/>
      <text fill="#bf0050" font-family="Arial" font-size="20.0" stroke="none" stroke-width="0" transform="rotate(90.0,561.0,613.0)" x="561.0" y="633.0">&lt;&lt; Немига</text>
      <text fill="#bf0050" font-family="Arial" font-size="20.0" stroke="none" stroke-width="0" transform="rotate(90.0,387.0,907.0)" x="387.0" y="927.0">Первомайская &gt;&gt;</text>
      <text fill="#bf0050" font-family="Arial" font-size="25.0" stroke="none" stroke-width="0" transform="rotate(90.0,479.0,899.0)" x="479.0" y="924.0">Купаловская</text>
      <polyline fill="none" points="417.0,612.0 444.0,612.0 444.0,431.0 239.0,431.0" stroke="#000000" stroke-width="1"/>
      <polyline fill="none" points="507.0,612.0 483.0,612.0 483.0,398.0 239.0,398.0" stroke="#000000" stroke-width="1"/>
      <line stroke="#000000" stroke-width="1" x1="483.0" x2="444.0" y1="609.0" y2="609.0"/>
      <line stroke="#000000" stroke-width="1" x1="483.0" x2="444.0" y1="605.0" y2="605.0"/>
      <line stroke="#000000" stroke-width="1" x1="483.0" x2="444.0" y1="601.0" y2="601.0"/>
      <line stroke="#000000" stroke-width="1" x1="483.0" x2="444.0" y1="597.0" y2="597.0"/>
      <line stroke="#000000" stroke-width="1" x1="483.0" x2="444.0" y1="593.0" y2="593.0"/>
      <line stroke="#000000" stroke-width="1" x1="483.0" x2="444.0" y1="589.0" y2="589.0"/>
      <line stroke="#000000" stroke-width="1" x1="483.0" x2="444.0" y1="585.0" y2="585.0"/>
      <line stroke="#000000" stroke-width="1" x1="483.0" x2="444.0" y1="581.0" y2="581.0"/>
      <line stroke="#000000" stroke-width="1" x1="483.0" x2="444.0" y1="577.0" y2="577.0"/>
      <line stroke="#000000" stroke-width="1" x1="483.0" x2="444.0" y1="573.0" y2="573.0"/>
      <line stroke="#000000" stroke-width="1" x1="483.0" x2="444.0" y1="569.0" y2="569.0"/>
      <line stroke="#000000" stroke-width="1" x1="483.0" x2="444.0" y1="565.0" y2="565.0"/>
      <polyline fill="none" points="507.0,1062.0 485.0,1062.0 485.0,1086.0 480.0,1086.0" stroke="#000000" stroke-width="1"/>
      <polyline fill="none" points="417.0,1062.0 438.0,1062.0 438.0,1086.0 443.0,1086.0" stroke="#000000" stroke-width="1"/>
      <polyline fill="none" points="400.0,1128.0 366.0,1162.0 366.0,1182.0 438.0,1182.0 438.0,1166.0 443.0,1166.0" stroke="#000000" stroke-width="1"/>
      <polyline fill="none" points="480.0,1166.0 485.0,1166.0 485.0,1221.0 327.0,1221.0 327.0,1151.0 375.0,1103.0" stroke="#000000" stroke-width="1"/>
      <line stroke="#000000" stroke-width="1" x1="399.0" x2="374.0" y1="1129.0" y2="1104.0"/>
      <line stroke="#000000" stroke-width="1" x1="396.1715728752538" x2="371.1715728752538" y1="1131.8284271247462" y2="1106.8284271247462"/>
      <line stroke="#000000" stroke-width="1" x1="393.3431457505076" x2="368.3431457505076" y1="1134.6568542494924" y2="1109.6568542494924"/>
      <line stroke="#000000" stroke-width="1" x1="390.51471862576136" x2="365.51471862576136" y1="1137.4852813742386" y2="1112.4852813742386"/>
      <line stroke="#000000" stroke-width="1" x1="387.68629150101515" x2="362.68629150101515" y1="1140.3137084989849" y2="1115.3137084989849"/>
      <line stroke="#000000" stroke-width="1" x1="384.85786437626894" x2="359.85786437626894" y1="1143.142135623731" y2="1118.142135623731"/>
      <line stroke="#000000" stroke-width="1" x1="382.0294372515227" x2="357.0294372515227" y1="1145.9705627484773" y2="1120.9705627484773"/>
      <line stroke="#000000" stroke-width="1" x1="379.2010101267765" x2="354.2010101267765" y1="1148.7989898732235" y2="1123.7989898732235"/>
      <line stroke="#000000" stroke-width="1" x1="376.3725830020303" x2="351.3725830020303" y1="1151.6274169979697" y2="1126.6274169979697"/>
      <line stroke="#000000" stroke-width="1" x1="373.5441558772841" x2="348.5441558772841" y1="1154.455844122716" y2="1129.455844122716"/>
      <line stroke="#000000" stroke-width="1" x1="370.71572875253787" x2="345.71572875253787" y1="1157.2842712474621" y2="1132.2842712474621"/>
      <line stroke="#000000" stroke-width="1" x1="367.88730162779166" x2="342.88730162779166" y1="1160.1126983722083" y2="1135.1126983722083"/>
      <line stroke="#7f7f7f" stroke-width="1" x1="446.0" x2="477.0" y1="1168.0" y2="1168.0"/>
      <line stroke="#7f7f7f" stroke-width="1" x1="446.0" x2="477.0" y1="1164.0" y2="1164.0"/>
      <line stroke="#7f7f7f" stroke-width="1" x1="446.0" x2="477.0" y1="1160.0" y2="1160.0"/>
      <line stroke="#7f7f7f" stroke-width="1" x1="446.0" x2="477.0" y1="1156.0" y2="1156.0"/>
      <line stroke="#7f7f7f" stroke-width="1" x1="446.0" x2="477.0" y1="1152.0" y2="1152.0"/>
      <line stroke="#7f7f7f" stroke-width="1" x1="446.0" x2="477.0" y1="1148.0" y2="1148.0"/>
      <line stroke="#7f7f7f" stroke-width="1" x1="446.0" x2="477.0" y1="1144.0" y2="1144.0"/>
      <line stroke="#7f7f7f" stroke-width="1" x1="446.0" x2="477.0" y1="1140.0" y2="1140.0"/>
      <line stroke="#7f7f7f" stroke-width="1" x1="446.0" x2="477.0" y1="1136.0" y2="1136.0"/>
      <line stroke="#7f7f7f" stroke-width="1" x1="446.0" x2="477.0" y1="1132.0" y2="1132.0"/>
      <line stroke="#7f7f7f" stroke-width="1" x1="446.0" x2="477.0" y1="1128.0" y2="1128.0"/>
      <line stroke="#7f7f7f" stroke-width="1" x1="446.0" x2="477.0" y1="1124.0" y2="1124.0"/>
      <line stroke="#7f7f7f" stroke-width="1" x1="446.0" x2="477.0" y1="1120.0" y2="1120.0"/>
      <line stroke="#7f7f7f" stroke-width="1" x1="446.0" x2="477.0" y1="1116.0" y2="1116.0"/>
      <line stroke="#7f7f7f" stroke-width="1" x1="446.0" x2="477.0" y1="1112.0" y2="1112.0"/>
      <line stroke="#7f7f7f" stroke-width="1" x1="446.0" x2="477.0" y1="1108.0" y2="1108.0"/>
      <line stroke="#7f7f7f" stroke-width="1" x1="446.0" x2="477.0" y1="1104.0" y2="1104.0"/>
      <line stroke="#7f7f7f" stroke-width="1" x1="446.0" x2="477.0" y1="1100.0" y2="1100.0"/>
      <line stroke="#7f7f7f" stroke-width="1" x1="446.0" x2="477.0" y1="1096.0" y2="1096.0"/>
      <line stroke="#7f7f7f" stroke-width="1" x1="446.0" x2="477.0" y1="1092.0" y2="1092.0"/>
      <line stroke="#7f7f7f" stroke-width="1" x1="446.0" x2="477.0" y1="1088.0" y2="1088.0"/>
      <line stroke="#7f7f7f" stroke-width="1" x1="446.0" x2="477.0" y1="1084.0" y2="1084.0"/>
      <polygon fill="#9b5509" points="443.0,1174.0 443.0,1078.0 446.0,1078.0 446.0,1174.0" stroke="#000000" stroke-width="1"/>
      <polygon fill="#9b5509" points="453.0,1174.0 453.0,1078.0 458.0,1078.0 458.0,1174.0" stroke="#000000" stroke-width="1"/>
      <polygon fill="#9b5509" points="465.0,1174.0 465.0,1078.0 470.0,1078.0 470.0,1174.0" stroke="#000000" stroke-width="1"/>
      <polygon fill="#9b5509" points="477.0,1174.0 477.0,1078.0 480.0,1078.0 480.0,1174.0" stroke="#000000" stroke-width="1"/>
      <polyline fill="none" points="590.0,515.0 680.0,515.0" stroke="#000000" stroke-width="1"/>
      <polyline fill="none" points="590.0,530.0 614.0,530.0 614.0,798.0 537.0,798.0" stroke="#000000" stroke-width="1"/>
      <polyline fill="none" points="680.0,530.0 656.0,530.0 656.0,840.0 537.0,840.0" stroke="#000000" stroke-width="1"/>
      <polyline fill="none" points="451.0,750.0 451.0,798.0 474.0,798.0 474.0,750.0" stroke="#000000" stroke-width="1"/>
      <polyline fill="none" points="474.0,888.0 474.0,840.0 451.0,840.0 451.0,888.0" stroke="#000000" stroke-width="1"/>
      <line stroke="#000000" stroke-width="1" x1="678.0" x2="678.0" y1="530.0" y2="515.0"/>
      <line stroke="#000000" stroke-width="1" x1="674.0" x2="674.0" y1="530.0" y2="515.0"/>
      <line stroke="#000000" stroke-width="1" x1="670.0" x2="670.0" y1="530.0" y2="515.0"/>
      <line stroke="#000000" stroke-width="1" x1="666.0" x2="666.0" y1="530.0" y2="515.0"/>
      <line stroke="#000000" stroke-width="1" x1="662.0" x2="662.0" y1="530.0" y2="515.0"/>
      <line stroke="#000000" stroke-width="1" x1="658.0" x2="658.0" y1="530.0" y2="515.0"/>
      <line stroke="#000000" stroke-width="1" x1="592.0" x2="592.0" y1="530.0" y2="515.0"/>
      <line stroke="#000000" stroke-width="1" x1="596.0" x2="596.0" y1="530.0" y2="515.0"/>
      <line stroke="#000000" stroke-width="1" x1="600.0" x2="600.0" y1="530.0" y2="515.0"/>
      <line stroke="#000000" stroke-width="1" x1="604.0" x2="604.0" y1="530.0" y2="515.0"/>
      <line stroke="#000000" stroke-width="1" x1="608.0" x2="608.0" y1="530.0" y2="515.0"/>
      <line stroke="#000000" stroke-width="1" x1="612.0" x2="612.0" y1="530.0" y2="515.0"/>
      <line stroke="#000000" stroke-width="1" x1="640.0" x2="656.0" y1="532.0" y2="532.0"/>
      <line stroke="#000000" stroke-width="1" x1="640.0" x2="656.0" y1="536.0" y2="536.0"/>
      <line stroke="#000000" stroke-width="1" x1="640.0" x2="656.0" y1="540.0" y2="540.0"/>
      <line stroke="#000000" stroke-width="1" x1="640.0" x2="656.0" y1="544.0" y2="544.0"/>
      <line stroke="#000000" stroke-width="1" x1="640.0" x2="656.0" y1="548.0" y2="548.0"/>
      <line stroke="#000000" stroke-width="1" x1="640.0" x2="656.0" y1="552.0" y2="552.0"/>
      <line stroke="#000000" stroke-width="1" x1="629.0" x2="614.0" y1="532.0" y2="532.0"/>
      <line stroke="#000000" stroke-width="1" x1="629.0" x2="614.0" y1="536.0" y2="536.0"/>
      <line stroke="#000000" stroke-width="1" x1="629.0" x2="614.0" y1="540.0" y2="540.0"/>
      <line stroke="#000000" stroke-width="1" x1="629.0" x2="614.0" y1="544.0" y2="544.0"/>
      <line stroke="#000000" stroke-width="1" x1="629.0" x2="614.0" y1="548.0" y2="548.0"/>
      <line stroke="#000000" stroke-width="1" x1="629.0" x2="614.0" y1="552.0" y2="552.0"/>
      <line stroke="#000000" stroke-width="1" x1="451.0" x2="474.0" y1="752.0" y2="752.0"/>
      <line stroke="#000000" stroke-width="1" x1="451.0" x2="474.0" y1="756.0" y2="756.0"/>
      <line stroke="#000000" stroke-width="1" x1="451.0" x2="474.0" y1="760.0" y2="760.0"/>
      <line stroke="#000000" stroke-width="1" x1="451.0" x2="474.0" y1="764.0" y2="764.0"/>
      <line stroke="#000000" stroke-width="1" x1="451.0" x2="474.0" y1="768.0" y2="768.0"/>
      <line stroke="#000000" stroke-width="1" x1="451.0" x2="474.0" y1="772.0" y2="772.0"/>
      <line stroke="#000000" stroke-width="1" x1="451.0" x2="474.0" y1="776.0" y2="776.0"/>
      <line stroke="#000000" stroke-width="1" x1="451.0" x2="474.0" y1="780.0" y2="780.0"/>
      <line stroke="#000000" stroke-width="1" x1="451.0" x2="474.0" y1="784.0" y2="784.0"/>
      <line stroke="#000000" stroke-width="1" x1="451.0" x2="474.0" y1="788.0" y2="788.0"/>
      <line stroke="#000000" stroke-width="1" x1="451.0" x2="474.0" y1="792.0" y2="792.0"/>
      <line stroke="#000000" stroke-width="1" x1="451.0" x2="474.0" y1="796.0" y2="796.0"/>
      <line stroke="#000000" stroke-width="1" x1="451.0" x2="474.0" y1="886.0" y2="886.0"/>
      <line stroke="#000000" stroke-width="1" x1="451.0" x2="474.0" y1="882.0" y2="882.0"/>
      <line stroke="#000000" stroke-width="1" x1="451.0" x2="474.0" y1="878.0" y2="878.0"/>
      <line stroke="#000000" stroke-width="1" x1="451.0" x2="474.0" y1="874.0" y2="874.0"/>
      <line stroke="#000000" stroke-width="1" x1="451.0" x2="474.0" y1="870.0" y2="870.0"/>
      <line stroke="#000000" stroke-width="1" x1="451.0" x2="474.0" y1="866.0" y2="866.0"/>
      <line stroke="#000000" stroke-width="1" x1="451.0" x2="474.0" y1="862.0" y2="862.0"/>
      <line stroke="#000000" stroke-width="1" x1="451.0" x2="474.0" y1="858.0" y2="858.0"/>
      <line stroke="#000000" stroke-width="1" x1="451.0" x2="474.0" y1="854.0" y2="854.0"/>
      <line stroke="#000000" stroke-width="1" x1="451.0" x2="474.0" y1="850.0" y2="850.0"/>
      <line stroke="#000000" stroke-width="1" x1="451.0" x2="474.0" y1="846.0" y2="846.0"/>
      <line stroke="#000000" stroke-width="1" x1="451.0" x2="474.0" y1="842.0" y2="842.0"/>
      <polygon fill="#d0d0d0" points="629.0,530.0 629.0,555.0 640.0,555.0 640.0,530.0" stroke="#000000" stroke-width="1"/>
      <polyline fill="none" points="506.0,798.0 475.0,798.0" stroke="#d0d0d0" stroke-width="1"/>
      <polyline fill="none" points="506.0,840.0 475.0,840.0" stroke="#d0d0d0" stroke-width="1"/>
      <polyline fill="none" points="451.0,799.0 451.0,839.0" stroke="#d0d0d0" stroke-width="1"/>
      <polyline fill="none" marker-end="url(#id62)" points="257.0,324.0 257.0,343.0" stroke="#ff0000" stroke-width="1"/>
      <polyline fill="none" marker-end="url(#id62)" points="258.0,666.0 258.0,647.0" stroke="#ff0000" stroke-width="1"/>
      <polyline fill="none" marker-end="url(#id62)" points="168.0,343.0 168.0,324.0" stroke="#009900" stroke-width="1"/>
      <polyline fill="none" marker-end="url(#id62)" points="168.0,647.0 168.0,666.0" stroke="#009900" stroke-width="1"/>
      <text fill="#00afaf" font-family="Arial" font-size="15.0" stroke="none" stroke-width="0" x="1109.0" y="500.0">проспект Независимости</text>
      <text fill="#00afaf" font-family="Arial" font-size="15.0" stroke="none" stroke-width="0" x="1.0" y="515.0">проспект Независимости</text>
      <text fill="#00afaf" font-family="Arial" font-size="15.0" stroke="none" stroke-width="0" x="594.0" y="1085.0">улица Карла Маркса</text>
      <text fill="#00afaf" font-family="Arial" font-size="15.0" stroke="none" stroke-width="0" transform="rotate(40.0,637.0,72.0)" x="637.0" y="87.0">Октябрьская площадь</text>
      <text fill="#00afaf" font-family="Arial" font-size="15.0" stroke="none" stroke-width="0" transform="rotate(90.0,1134.0,698.0)" x="1134.0" y="713.0">Красноармейская улица</text>
      <text fill="#00afaf" font-family="Arial" font-size="15.0" stroke="none" stroke-width="0" transform="rotate(90.0,473.0,202.0)" x="473.0" y="217.0">улица Энгельса</text>
      <text fill="#00afaf" font-family="Arial" font-size="15.0" stroke="none" stroke-width="0" transform="rotate(90.0,480.0,1234.0)" x="480.0" y="1249.0">улица Энгельса</text>
    </g>
  </g>
</svg>
