<?xml version="1.0" encoding="utf-8" ?>
<svg baseProfile="full" height="100%" version="1.1" width="100%" xmlns="http://www.w3.org/2000/svg" xmlns:ev="http://www.w3.org/2001/xml-events" xmlns:xlink="http://www.w3.org/1999/xlink">
  <defs>
    <marker id="id65" markerHeight="3" markerUnits="strokeWidth" markerWidth="4" orient="auto" refX="0" refY="5" viewBox="0,0,10,10">
      <path d="M 0 0 L 10 5 L 0 10 z"/>
    </marker>
  </defs>
  <g>
    <rect fill="none" height="810" stroke="none" stroke-width="0" width="950" x="0" y="0"/>
    <g transform="rotate(-25.0,475,405)">
      <polygon fill="#00009f" points="239,376 239,346 689,346 689,376" stroke="#000000" stroke-width="1"/>
      <polygon fill="#00009f" points="239,486 239,456 689,456 689,486" stroke="#000000" stroke-width="1"/>
      <text fill="#00009f" font-family="Arial" font-size="20" stroke="none" stroke-width="0" x="239" y="342.0">&lt;&lt; Академия Наук</text>
      <text fill="#00009f" font-family="Arial" font-size="20" stroke="none" stroke-width="0" x="561" y="506.0">Московская &gt;&gt;</text>
      <text fill="#00009f" font-family="Arial" font-size="25" stroke="none" stroke-width="0" x="362" y="423.0">Парк Челюскинцев</text>
      <polygon fill="#d0d0d0" points="152,427 162,427 162,404 152,404" stroke="#000000" stroke-width="1"/>
      <polygon fill="#d0d0d0" points="761,427 772,427 772,404 761,404" stroke="#000000" stroke-width="1"/>
      <polyline fill="none" points="689,376 689,383 761,383 761,391 772,391 772,291 732,291" stroke="#000000" stroke-width="1"/>
      <polyline fill="none" points="732,271 850,271" stroke="#000000" stroke-width="1"/>
      <polyline fill="none" points="850,291 810,291 810,536 850,536" stroke="#000000" stroke-width="1"/>
      <polyline fill="none" points="850,556 732,556" stroke="#000000" stroke-width="1"/>
      <polyline fill="none" points="732,536 772,536 772,441 761,441 761,449 689,449 689,456" stroke="#000000" stroke-width="1"/>
      <polyline fill="none" points="239,376 239,383 162,383 162,391 152,391 152,271 73,271" stroke="#000000" stroke-width="1"/>
      <polyline fill="none" points="73,291 113,291 113,537 73,537" stroke="#000000" stroke-width="1"/>
      <polyline fill="none" points="73,557 152,557 152,441 162,441 162,449 239,449 239,456" stroke="#000000" stroke-width="1"/>
      <line stroke="#000000" stroke-width="1" x1="848" x2="848" y1="291" y2="271"/>
      <line stroke="#000000" stroke-width="1" x1="844" x2="844" y1="291" y2="271"/>
      <line stroke="#000000" stroke-width="1" x1="840" x2="840" y1="291" y2="271"/>
      <line stroke="#000000" stroke-width="1" x1="836" x2="836" y1="291" y2="271"/>
      <line stroke="#000000" stroke-width="1" x1="832" x2="832" y1="291" y2="271"/>
      <line stroke="#000000" stroke-width="1" x1="828" x2="828" y1="291" y2="271"/>
      <line stroke="#000000" stroke-width="1" x1="824" x2="824" y1="291" y2="271"/>
      <line stroke="#000000" stroke-width="1" x1="820" x2="820" y1="291" y2="271"/>
      <line stroke="#000000" stroke-width="1" x1="816" x2="816" y1="291" y2="271"/>
      <line stroke="#000000" stroke-width="1" x1="812" x2="812" y1="291" y2="271"/>
      <line stroke="#000000" stroke-width="1" x1="734" x2="734" y1="291" y2="271"/>
      <line stroke="#000000" stroke-width="1" x1="738" x2="738" y1="291" y2="271"/>
      <line stroke="#000000" stroke-width="1" x1="742" x2="742" y1="291" y2="271"/>
      <line stroke="#000000" stroke-width="1" x1="746" x2="746" y1="291" y2="271"/>
      <line stroke="#000000" stroke-width="1" x1="750" x2="750" y1="291" y2="271"/>
      <line stroke="#000000" stroke-width="1" x1="754" x2="754" y1="291" y2="271"/>
      <line stroke="#000000" stroke-width="1" x1="758" x2="758" y1="291" y2="271"/>
      <line stroke="#000000" stroke-width="1" x1="762" x2="762" y1="291" y2="271"/>
      <line stroke="#000000" stroke-width="1" x1="766" x2="766" y1="291" y2="271"/>
      <line stroke="#000000" stroke-width="1" x1="770" x2="770" y1="291" y2="271"/>
      <line stroke="#000000" stroke-width="1" x1="848" x2="848" y1="536" y2="556"/>
      <line stroke="#000000" stroke-width="1" x1="844" x2="844" y1="536" y2="556"/>
      <line stroke="#000000" stroke-width="1" x1="840" x2="840" y1="536" y2="556"/>
      <line stroke="#000000" stroke-width="1" x1="836" x2="836" y1="536" y2="556"/>
      <line stroke="#000000" stroke-width="1" x1="832" x2="832" y1="536" y2="556"/>
      <line stroke="#000000" stroke-width="1" x1="828" x2="828" y1="536" y2="556"/>
      <line stroke="#000000" stroke-width="1" x1="824" x2="824" y1="536" y2="556"/>
      <line stroke="#000000" stroke-width="1" x1="820" x2="820" y1="536" y2="556"/>
      <line stroke="#000000" stroke-width="1" x1="816" x2="816" y1="536" y2="556"/>
      <line stroke="#000000" stroke-width="1" x1="812" x2="812" y1="536" y2="556"/>
      <line stroke="#000000" stroke-width="1" x1="734" x2="734" y1="536" y2="556"/>
      <line stroke="#000000" stroke-width="1" x1="738" x2="738" y1="536" y2="556"/>
      <line stroke="#000000" stroke-width="1" x1="742" x2="742" y1="536" y2="556"/>
      <line stroke="#000000" stroke-width="1" x1="746" x2="746" y1="536" y2="556"/>
      <line stroke="#000000" stroke-width="1" x1="750" x2="750" y1="536" y2="556"/>
      <line stroke="#000000" stroke-width="1" x1="754" x2="754" y1="536" y2="556"/>
      <line stroke="#000000" stroke-width="1" x1="758" x2="758" y1="536" y2="556"/>
      <line stroke="#000000" stroke-width="1" x1="762" x2="762" y1="536" y2="556"/>
      <line stroke="#000000" stroke-width="1" x1="766" x2="766" y1="536" y2="556"/>
      <line stroke="#000000" stroke-width="1" x1="770" x2="770" y1="536" y2="556"/>
      <line stroke="#000000" stroke-width="1" x1="691" x2="691" y1="383" y2="449"/>
      <line stroke="#000000" stroke-width="1" x1="695" x2="695" y1="383" y2="449"/>
      <line stroke="#000000" stroke-width="1" x1="699" x2="699" y1="383" y2="449"/>
      <line stroke="#000000" stroke-width="1" x1="703" x2="703" y1="383" y2="449"/>
      <line stroke="#000000" stroke-width="1" x1="707" x2="707" y1="383" y2="449"/>
      <line stroke="#000000" stroke-width="1" x1="711" x2="711" y1="383" y2="449"/>
      <line stroke="#000000" stroke-width="1" x1="715" x2="715" y1="383" y2="449"/>
      <line stroke="#000000" stroke-width="1" x1="719" x2="719" y1="383" y2="449"/>
      <line stroke="#000000" stroke-width="1" x1="723" x2="723" y1="383" y2="449"/>
      <line stroke="#000000" stroke-width="1" x1="727" x2="727" y1="383" y2="449"/>
      <line stroke="#000000" stroke-width="1" x1="731" x2="731" y1="383" y2="449"/>
      <line stroke="#000000" stroke-width="1" x1="735" x2="735" y1="383" y2="449"/>
      <line stroke="#000000" stroke-width="1" x1="237" x2="237" y1="383" y2="449"/>
      <line stroke="#000000" stroke-width="1" x1="233" x2="233" y1="383" y2="449"/>
      <line stroke="#000000" stroke-width="1" x1="229" x2="229" y1="383" y2="449"/>
      <line stroke="#000000" stroke-width="1" x1="225" x2="225" y1="383" y2="449"/>
      <line stroke="#000000" stroke-width="1" x1="221" x2="221" y1="383" y2="449"/>
      <line stroke="#000000" stroke-width="1" x1="217" x2="217" y1="383" y2="449"/>
      <line stroke="#000000" stroke-width="1" x1="213" x2="213" y1="383" y2="449"/>
      <line stroke="#000000" stroke-width="1" x1="209" x2="209" y1="383" y2="449"/>
      <line stroke="#000000" stroke-width="1" x1="205" x2="205" y1="383" y2="449"/>
      <line stroke="#000000" stroke-width="1" x1="201" x2="201" y1="383" y2="449"/>
      <line stroke="#000000" stroke-width="1" x1="197" x2="197" y1="383" y2="449"/>
      <line stroke="#000000" stroke-width="1" x1="193" x2="193" y1="383" y2="449"/>
      <line stroke="#000000" stroke-width="1" x1="75" x2="75" y1="291" y2="271"/>
      <line stroke="#000000" stroke-width="1" x1="79" x2="79" y1="291" y2="271"/>
      <line stroke="#000000" stroke-width="1" x1="83" x2="83" y1="291" y2="271"/>
      <line stroke="#000000" stroke-width="1" x1="87" x2="87" y1="291" y2="271"/>
      <line stroke="#000000" stroke-width="1" x1="91" x2="91" y1="291" y2="271"/>
      <line stroke="#000000" stroke-width="1" x1="95" x2="95" y1="291" y2="271"/>
      <line stroke="#000000" stroke-width="1" x1="99" x2="99" y1="291" y2="271"/>
      <line stroke="#000000" stroke-width="1" x1="103" x2="103" y1="291" y2="271"/>
      <line stroke="#000000" stroke-width="1" x1="107" x2="107" y1="291" y2="271"/>
      <line stroke="#000000" stroke-width="1" x1="111" x2="111" y1="291" y2="271"/>
      <line stroke="#000000" stroke-width="1" x1="75" x2="75" y1="537" y2="557"/>
      <line stroke="#000000" stroke-width="1" x1="79" x2="79" y1="537" y2="557"/>
      <line stroke="#000000" stroke-width="1" x1="83" x2="83" y1="537" y2="557"/>
      <line stroke="#000000" stroke-width="1" x1="87" x2="87" y1="537" y2="557"/>
      <line stroke="#000000" stroke-width="1" x1="91" x2="91" y1="537" y2="557"/>
      <line stroke="#000000" stroke-width="1" x1="95" x2="95" y1="537" y2="557"/>
      <line stroke="#000000" stroke-width="1" x1="99" x2="99" y1="537" y2="557"/>
      <line stroke="#000000" stroke-width="1" x1="103" x2="103" y1="537" y2="557"/>
      <line stroke="#000000" stroke-width="1" x1="107" x2="107" y1="537" y2="557"/>
      <line stroke="#000000" stroke-width="1" x1="111" x2="111" y1="537" y2="557"/>
      <polyline fill="none" marker-end="url(#id65)" points="164,397 148,397" stroke="#ff0000" stroke-width="1"/>
      <polyline fill="none" marker-end="url(#id65)" points="759,434 777,434" stroke="#ff0000" stroke-width="1"/>
      <polyline fill="none" marker-end="url(#id65)" points="775,398 756,398" stroke="#009900" stroke-width="1"/>
      <polyline fill="none" marker-end="url(#id65)" points="150,434 166,434" stroke="#009900" stroke-width="1"/>
      <text fill="#00afaf" font-family="Arial" font-size="15" stroke="none" stroke-width="0" x="851" y="414.0">пр.Независимости</text>
      <text fill="#00afaf" font-family="Arial" font-size="15" stroke="none" stroke-width="0" x="-26" y="414.0">пр.Независимости</text>
      <text fill="#00afaf" font-family="Arial" font-size="15" stroke="none" stroke-width="0" transform="rotate(90.0,719,155)" x="719" y="170.0">ул.Толбухина</text>
      <text fill="#00afaf" font-family="Arial" font-size="15" stroke="none" stroke-width="0" transform="rotate(90.0,880,157)" x="880" y="172.0">ул.Толбухина</text>
      <text fill="#00afaf" font-family="Arial" font-size="15" stroke="none" stroke-width="0" x="727" y="596.0">парк имени Челюскинцев</text>
      <polyline fill="none" marker-end="url(#id65)" points="805,602 805,630" stroke="#00afaf" stroke-width="1"/>
      <text fill="#00afaf" font-family="Arial" font-size="15" stroke="none" stroke-width="0" x="3" y="594.0">ботанический сад</text>
      <polyline fill="none" marker-end="url(#id65)" points="76,599 -23,599" stroke="#00afaf" stroke-width="1"/>
    </g>
  </g>
</svg>
