<svg xmlns="http://www.w3.org/2000/svg" version="1.1">
<defs>
    <marker id="arrow"
      viewBox="0 0 10 10" refX="0" refY="5"
      markerUnits="strokeWidth"
      markerWidth="4" markerHeight="3"
      orient="auto">
      <path d="M 0 0 L 10 5 L 0 10 z" />
    </marker>
  </defs>
<g stroke="#000000" fill="none" stroke-opacity="1.0" fill-opacity="1.0" transform="scale(0.5)">
<rect x="0" y="0" width="950" height="810" stroke-width="0" fill="none" />
<g stroke="#000000" fill="none" stroke-opacity="1.0" fill-opacity="1.0" transform="scale(0.5)">
</g>
<g transform="rotate(-25.0 475 405)" >
<g stroke="#000000" fill="none" stroke-opacity="1.0" fill-opacity="1.0" transform="scale(0.5)">
</g>
<g stroke="#000000" fill="#00009F" stroke-opacity="1.0" fill-opacity="1.0" transform="scale(0.5)">
<polygon points="239,376  239,346  689,346  689,376" stroke-width="1" />
<polygon points="239,486  239,456  689,456  689,486" stroke-width="1" />
</g>
<g stroke="#00009F" fill="none" stroke-opacity="1.0" fill-opacity="1.0" transform="scale(0.5)">
<text x=" 239" y="342.0" font-family="Arial" font-size=" 20" fill="#00009F" stroke-width="0">&lt;&lt; Академия Наук</text>
<text x=" 561" y="506.0" font-family="Arial" font-size=" 20" fill="#00009F" stroke-width="0">Московская &gt;&gt;</text>
<text x=" 362" y="423.0" font-family="Arial" font-size=" 25" fill="#00009F" stroke-width="0">Парк Челюскинцев</text>
</g>
<g stroke="#000000" fill="#D0D0D0" stroke-opacity="1.0" fill-opacity="1.0" transform="scale(0.5)">
<polygon points="152,427  162,427  162,404  152,404" stroke-width="1" />
<polygon points="761,427  772,427  772,404  761,404" stroke-width="1" />
<polyline points="689,376  689,383  761,383  761,391  772,391  772,291  732,291" stroke-width="1" fill="none"  />
<polyline points="732,271  850,271" stroke-width="1" fill="none"  />
<polyline points="850,291  810,291  810,536  850,536" stroke-width="1" fill="none"  />
<polyline points="850,556  732,556" stroke-width="1" fill="none"  />
<polyline points="732,536  772,536  772,441  761,441  761,449  689,449  689,456" stroke-width="1" fill="none"  />
<polyline points="239,376  239,383  162,383  162,391  152,391  152,271  73,271" stroke-width="1" fill="none"  />
<polyline points="73,291  113,291  113,537  73,537" stroke-width="1" fill="none"  />
<polyline points="73,557  152,557  152,441  162,441  162,449  239,449  239,456" stroke-width="1" fill="none"  />
<line x1="848" y1="291" x2="848" y2="271" stroke-width="1" />
<line x1="844" y1="291" x2="844" y2="271" stroke-width="1" />
<line x1="840" y1="291" x2="840" y2="271" stroke-width="1" />
<line x1="836" y1="291" x2="836" y2="271" stroke-width="1" />
<line x1="832" y1="291" x2="832" y2="271" stroke-width="1" />
<line x1="828" y1="291" x2="828" y2="271" stroke-width="1" />
<line x1="824" y1="291" x2="824" y2="271" stroke-width="1" />
<line x1="820" y1="291" x2="820" y2="271" stroke-width="1" />
<line x1="816" y1="291" x2="816" y2="271" stroke-width="1" />
<line x1="812" y1="291" x2="812" y2="271" stroke-width="1" />
<line x1="734" y1="291" x2="734" y2="271" stroke-width="1" />
<line x1="738" y1="291" x2="738" y2="271" stroke-width="1" />
<line x1="742" y1="291" x2="742" y2="271" stroke-width="1" />
<line x1="746" y1="291" x2="746" y2="271" stroke-width="1" />
<line x1="750" y1="291" x2="750" y2="271" stroke-width="1" />
<line x1="754" y1="291" x2="754" y2="271" stroke-width="1" />
<line x1="758" y1="291" x2="758" y2="271" stroke-width="1" />
<line x1="762" y1="291" x2="762" y2="271" stroke-width="1" />
<line x1="766" y1="291" x2="766" y2="271" stroke-width="1" />
<line x1="770" y1="291" x2="770" y2="271" stroke-width="1" />
<line x1="848" y1="536" x2="848" y2="556" stroke-width="1" />
<line x1="844" y1="536" x2="844" y2="556" stroke-width="1" />
<line x1="840" y1="536" x2="840" y2="556" stroke-width="1" />
<line x1="836" y1="536" x2="836" y2="556" stroke-width="1" />
<line x1="832" y1="536" x2="832" y2="556" stroke-width="1" />
<line x1="828" y1="536" x2="828" y2="556" stroke-width="1" />
<line x1="824" y1="536" x2="824" y2="556" stroke-width="1" />
<line x1="820" y1="536" x2="820" y2="556" stroke-width="1" />
<line x1="816" y1="536" x2="816" y2="556" stroke-width="1" />
<line x1="812" y1="536" x2="812" y2="556" stroke-width="1" />
<line x1="734" y1="536" x2="734" y2="556" stroke-width="1" />
<line x1="738" y1="536" x2="738" y2="556" stroke-width="1" />
<line x1="742" y1="536" x2="742" y2="556" stroke-width="1" />
<line x1="746" y1="536" x2="746" y2="556" stroke-width="1" />
<line x1="750" y1="536" x2="750" y2="556" stroke-width="1" />
<line x1="754" y1="536" x2="754" y2="556" stroke-width="1" />
<line x1="758" y1="536" x2="758" y2="556" stroke-width="1" />
<line x1="762" y1="536" x2="762" y2="556" stroke-width="1" />
<line x1="766" y1="536" x2="766" y2="556" stroke-width="1" />
<line x1="770" y1="536" x2="770" y2="556" stroke-width="1" />
<line x1="691" y1="383" x2="691" y2="449" stroke-width="1" />
<line x1="695" y1="383" x2="695" y2="449" stroke-width="1" />
<line x1="699" y1="383" x2="699" y2="449" stroke-width="1" />
<line x1="703" y1="383" x2="703" y2="449" stroke-width="1" />
<line x1="707" y1="383" x2="707" y2="449" stroke-width="1" />
<line x1="711" y1="383" x2="711" y2="449" stroke-width="1" />
<line x1="715" y1="383" x2="715" y2="449" stroke-width="1" />
<line x1="719" y1="383" x2="719" y2="449" stroke-width="1" />
<line x1="723" y1="383" x2="723" y2="449" stroke-width="1" />
<line x1="727" y1="383" x2="727" y2="449" stroke-width="1" />
<line x1="731" y1="383" x2="731" y2="449" stroke-width="1" />
<line x1="735" y1="383" x2="735" y2="449" stroke-width="1" />
<line x1="237" y1="383" x2="237" y2="449" stroke-width="1" />
<line x1="233" y1="383" x2="233" y2="449" stroke-width="1" />
<line x1="229" y1="383" x2="229" y2="449" stroke-width="1" />
<line x1="225" y1="383" x2="225" y2="449" stroke-width="1" />
<line x1="221" y1="383" x2="221" y2="449" stroke-width="1" />
<line x1="217" y1="383" x2="217" y2="449" stroke-width="1" />
<line x1="213" y1="383" x2="213" y2="449" stroke-width="1" />
<line x1="209" y1="383" x2="209" y2="449" stroke-width="1" />
<line x1="205" y1="383" x2="205" y2="449" stroke-width="1" />
<line x1="201" y1="383" x2="201" y2="449" stroke-width="1" />
<line x1="197" y1="383" x2="197" y2="449" stroke-width="1" />
<line x1="193" y1="383" x2="193" y2="449" stroke-width="1" />
<line x1="75" y1="291" x2="75" y2="271" stroke-width="1" />
<line x1="79" y1="291" x2="79" y2="271" stroke-width="1" />
<line x1="83" y1="291" x2="83" y2="271" stroke-width="1" />
<line x1="87" y1="291" x2="87" y2="271" stroke-width="1" />
<line x1="91" y1="291" x2="91" y2="271" stroke-width="1" />
<line x1="95" y1="291" x2="95" y2="271" stroke-width="1" />
<line x1="99" y1="291" x2="99" y2="271" stroke-width="1" />
<line x1="103" y1="291" x2="103" y2="271" stroke-width="1" />
<line x1="107" y1="291" x2="107" y2="271" stroke-width="1" />
<line x1="111" y1="291" x2="111" y2="271" stroke-width="1" />
<line x1="75" y1="537" x2="75" y2="557" stroke-width="1" />
<line x1="79" y1="537" x2="79" y2="557" stroke-width="1" />
<line x1="83" y1="537" x2="83" y2="557" stroke-width="1" />
<line x1="87" y1="537" x2="87" y2="557" stroke-width="1" />
<line x1="91" y1="537" x2="91" y2="557" stroke-width="1" />
<line x1="95" y1="537" x2="95" y2="557" stroke-width="1" />
<line x1="99" y1="537" x2="99" y2="557" stroke-width="1" />
<line x1="103" y1="537" x2="103" y2="557" stroke-width="1" />
<line x1="107" y1="537" x2="107" y2="557" stroke-width="1" />
<line x1="111" y1="537" x2="111" y2="557" stroke-width="1" />
</g>
<g stroke="#FF0000" fill="#D0D0D0" stroke-opacity="1.0" fill-opacity="1.0" transform="scale(0.5)">
<polyline points="164,397  148,397" marker-end="url(#arrow)" stroke-width="1" fill="none" />
<polyline points="759,434  777,434" marker-end="url(#arrow)" stroke-width="1" fill="none" />
</g>
<g stroke="#009900" fill="#D0D0D0" stroke-opacity="1.0" fill-opacity="1.0" transform="scale(0.5)">
<polyline points="775,398  756,398" marker-end="url(#arrow)" stroke-width="1" fill="none" />
<polyline points="150,434  166,434" marker-end="url(#arrow)" stroke-width="1" fill="none" />
</g>
<g stroke="#00AFAF" fill="none" stroke-opacity="1.0" fill-opacity="1.0" transform="scale(0.5)">
<text x=" 851" y="414.0" font-family="Arial" font-size=" 15" fill="#00AFAF" stroke-width="0">пр.Независимости</text>
<text x=" -26" y="414.0" font-family="Arial" font-size=" 15" fill="#00AFAF" stroke-width="0">пр.Независимости</text>
<text x=" 719" y="170.0" font-family="Arial" font-size=" 15" fill="#00AFAF" transform="rotate(90.0  719  155)" stroke-width="0">ул.Толбухина</text>
<text x=" 880" y="172.0" font-family="Arial" font-size=" 15" fill="#00AFAF" transform="rotate(90.0  880  157)" stroke-width="0">ул.Толбухина</text>
<text x=" 727" y="596.0" font-family="Arial" font-size=" 15" fill="#00AFAF" stroke-width="0">парк имени Челюскинцев</text>
<polyline points="805,602  805,630" marker-end="url(#arrow)" stroke-width="1" fill="none" />
<text x=" 3" y="594.0" font-family="Arial" font-size=" 15" fill="#00AFAF" stroke-width="0">ботанический сад</text>
<polyline points="76,599  -23,599" marker-end="url(#arrow)" stroke-width="1" fill="none" />
</g>
</g>
</g>
</svg>
