<?xml version="1.0" encoding="utf-8" ?>
<svg baseProfile="full" height="100%" version="1.1" width="100%" xmlns="http://www.w3.org/2000/svg" xmlns:ev="http://www.w3.org/2001/xml-events" xmlns:xlink="http://www.w3.org/1999/xlink">
  <defs>
    <marker id="id66" markerHeight="3" markerUnits="strokeWidth" markerWidth="4" orient="auto" refX="0" refY="5" viewBox="0,0,10,10">
      <path d="M 0 0 L 10 5 L 0 10 z"/>
    </marker>
  </defs>
  <g>
    <rect fill="none" height="1400" stroke="none" stroke-width="0" width="1060" x="0" y="0"/>
    <g transform="rotate(70.0,530,700)">
      <polygon fill="#bf0050" points="439,569 439,537 889,537 889,569" stroke="#000000" stroke-width="1"/>
      <polygon fill="#bf0050" points="439,680 439,648 889,648 889,680" stroke="#000000" stroke-width="1"/>
      <text fill="#bf0050" font-family="Arial" font-size="20" stroke="none" stroke-width="0" x="439" y="532.0">&lt;&lt; Тракторный завод</text>
      <text fill="#bf0050" font-family="Arial" font-size="20" stroke="none" stroke-width="0" x="737" y="700.0">Автозаводская &gt;&gt;</text>
      <text fill="#bf0050" font-family="Arial" font-size="25" stroke="none" stroke-width="0" x="573" y="616.0">Партизанская</text>
      <polyline fill="none" points="889,569 889,583 937,583 937,537 1005,537 1005,558 1032,558 950,476" stroke="#000000" stroke-width="1"/>
      <polyline fill="none" points="971,455 1051,535" stroke="#000000" stroke-width="1"/>
      <path d="M1051,535 C1051,535 1049.16666667,536.5 1051,535 C1052.83333333,533.5 1058.16666667,528.666666667 1062,526 C1065.83333333,523.333333333 1074,519 1074,519 " fill="none" stroke="#000000" stroke-width="1"/>
      <polyline fill="none" points="1074,519 1063,508 1140,431" stroke="#000000" stroke-width="1"/>
      <polyline fill="none" points="1161,452 1103,510" stroke="#000000" stroke-width="1"/>
      <path d="M1103,510 C1103,510 1095.0,509.333333333 1103,510 C1111.0,510.666666667 1136.16666667,508.833333333 1151,514 C1165.83333333,519.166666667 1181.16666667,528.5 1192,541 C1202.83333333,553.5 1212.66666667,572.5 1216,589 C1219.33333333,605.5 1212,640 1212,640 " fill="none" stroke="#000000" stroke-width="1"/>
      <polyline fill="none" points="1212,641 1297,556" stroke="#000000" stroke-width="1"/>
      <polyline fill="none" points="1318,577 1094,801" stroke="#000000" stroke-width="1"/>
      <polyline fill="none" points="1073,780 1151,702" stroke="#000000" stroke-width="1"/>
      <path d="M1151,702 C1151,702 1159.66666667,701.333333333 1151,702 C1142.33333333,702.666666667 1115.66666667,709.333333333 1099,706 C1082.33333333,702.666666667 1051,682 1051,682 " fill="none" stroke="#000000" stroke-width="1"/>
      <polyline fill="none" points="1051,682 968,765" stroke="#000000" stroke-width="1"/>
      <polyline fill="none" points="947,744 1033,658 1005,658 1005,680 937,680 937,633 889,633 889,648" stroke="#000000" stroke-width="1"/>
      <line stroke="#000000" stroke-width="1" x1="891" x2="891" y1="633" y2="583"/>
      <line stroke="#000000" stroke-width="1" x1="895" x2="895" y1="633" y2="583"/>
      <line stroke="#000000" stroke-width="1" x1="899" x2="899" y1="633" y2="583"/>
      <line stroke="#000000" stroke-width="1" x1="903" x2="903" y1="633" y2="583"/>
      <line stroke="#000000" stroke-width="1" x1="907" x2="907" y1="633" y2="583"/>
      <line stroke="#000000" stroke-width="1" x1="911" x2="911" y1="633" y2="583"/>
      <line stroke="#000000" stroke-width="1" x1="915" x2="915" y1="633" y2="583"/>
      <line stroke="#000000" stroke-width="1" x1="919" x2="919" y1="633" y2="583"/>
      <line stroke="#000000" stroke-width="1" x1="923" x2="923" y1="633" y2="583"/>
      <line stroke="#000000" stroke-width="1" x1="927" x2="927" y1="633" y2="583"/>
      <line stroke="#000000" stroke-width="1" x1="931" x2="931" y1="633" y2="583"/>
      <line stroke="#000000" stroke-width="1" x1="935" x2="935" y1="633" y2="583"/>
      <line stroke="#000000" stroke-width="1" x1="952" x2="973" y1="478" y2="457"/>
      <line stroke="#000000" stroke-width="1" x1="954.828427125" x2="975.828427125" y1="480.828427125" y2="459.828427125"/>
      <line stroke="#000000" stroke-width="1" x1="957.656854249" x2="978.656854249" y1="483.656854249" y2="462.656854249"/>
      <line stroke="#000000" stroke-width="1" x1="960.485281374" x2="981.485281374" y1="486.485281374" y2="465.485281374"/>
      <line stroke="#000000" stroke-width="1" x1="963.313708499" x2="984.313708499" y1="489.313708499" y2="468.313708499"/>
      <line stroke="#000000" stroke-width="1" x1="966.142135624" x2="987.142135624" y1="492.142135624" y2="471.142135624"/>
      <line stroke="#000000" stroke-width="1" x1="968.970562748" x2="989.970562748" y1="494.970562748" y2="473.970562748"/>
      <line stroke="#000000" stroke-width="1" x1="971.798989873" x2="992.798989873" y1="497.798989873" y2="476.798989873"/>
      <line stroke="#000000" stroke-width="1" x1="974.627416998" x2="995.627416998" y1="500.627416998" y2="479.627416998"/>
      <line stroke="#000000" stroke-width="1" x1="977.455844123" x2="998.455844123" y1="503.455844123" y2="482.455844123"/>
      <line stroke="#000000" stroke-width="1" x1="980.284271247" x2="1001.28427125" y1="506.284271247" y2="485.284271247"/>
      <line stroke="#000000" stroke-width="1" x1="983.112698372" x2="1004.11269837" y1="509.112698372" y2="488.112698372"/>
      <line stroke="#000000" stroke-width="1" x1="1159" x2="1138" y1="454" y2="433"/>
      <line stroke="#000000" stroke-width="1" x1="1156.17157288" x2="1135.17157288" y1="456.828427125" y2="435.828427125"/>
      <line stroke="#000000" stroke-width="1" x1="1153.34314575" x2="1132.34314575" y1="459.656854249" y2="438.656854249"/>
      <line stroke="#000000" stroke-width="1" x1="1150.51471863" x2="1129.51471863" y1="462.485281374" y2="441.485281374"/>
      <line stroke="#000000" stroke-width="1" x1="1147.6862915" x2="1126.6862915" y1="465.313708499" y2="444.313708499"/>
      <line stroke="#000000" stroke-width="1" x1="1144.85786438" x2="1123.85786438" y1="468.142135624" y2="447.142135624"/>
      <line stroke="#000000" stroke-width="1" x1="1142.02943725" x2="1121.02943725" y1="470.970562748" y2="449.970562748"/>
      <line stroke="#000000" stroke-width="1" x1="1139.20101013" x2="1118.20101013" y1="473.798989873" y2="452.798989873"/>
      <line stroke="#000000" stroke-width="1" x1="1136.372583" x2="1115.372583" y1="476.627416998" y2="455.627416998"/>
      <line stroke="#000000" stroke-width="1" x1="1133.54415588" x2="1112.54415588" y1="479.455844123" y2="458.455844123"/>
      <line stroke="#000000" stroke-width="1" x1="1130.71572875" x2="1109.71572875" y1="482.284271247" y2="461.284271247"/>
      <line stroke="#000000" stroke-width="1" x1="1127.88730163" x2="1106.88730163" y1="485.112698372" y2="464.112698372"/>
      <line stroke="#000000" stroke-width="1" x1="1295" x2="1316" y1="558" y2="579"/>
      <line stroke="#000000" stroke-width="1" x1="1292.17157288" x2="1313.17157288" y1="560.828427125" y2="581.828427125"/>
      <line stroke="#000000" stroke-width="1" x1="1289.34314575" x2="1310.34314575" y1="563.656854249" y2="584.656854249"/>
      <line stroke="#000000" stroke-width="1" x1="1286.51471863" x2="1307.51471863" y1="566.485281374" y2="587.485281374"/>
      <line stroke="#000000" stroke-width="1" x1="1283.6862915" x2="1304.6862915" y1="569.313708499" y2="590.313708499"/>
      <line stroke="#000000" stroke-width="1" x1="1280.85786438" x2="1301.85786438" y1="572.142135624" y2="593.142135624"/>
      <line stroke="#000000" stroke-width="1" x1="1278.02943725" x2="1299.02943725" y1="574.970562748" y2="595.970562748"/>
      <line stroke="#000000" stroke-width="1" x1="1275.20101013" x2="1296.20101013" y1="577.798989873" y2="598.798989873"/>
      <line stroke="#000000" stroke-width="1" x1="1272.372583" x2="1293.372583" y1="580.627416998" y2="601.627416998"/>
      <line stroke="#000000" stroke-width="1" x1="1269.54415588" x2="1290.54415588" y1="583.455844123" y2="604.455844123"/>
      <line stroke="#000000" stroke-width="1" x1="1266.71572875" x2="1287.71572875" y1="586.284271247" y2="607.284271247"/>
      <line stroke="#000000" stroke-width="1" x1="1263.88730163" x2="1284.88730163" y1="589.112698372" y2="610.112698372"/>
      <line stroke="#000000" stroke-width="1" x1="1075" x2="1096" y1="778" y2="799"/>
      <line stroke="#000000" stroke-width="1" x1="1077.82842712" x2="1098.82842712" y1="775.171572875" y2="796.171572875"/>
      <line stroke="#000000" stroke-width="1" x1="1080.65685425" x2="1101.65685425" y1="772.343145751" y2="793.343145751"/>
      <line stroke="#000000" stroke-width="1" x1="1083.48528137" x2="1104.48528137" y1="769.514718626" y2="790.514718626"/>
      <line stroke="#000000" stroke-width="1" x1="1086.3137085" x2="1107.3137085" y1="766.686291501" y2="787.686291501"/>
      <line stroke="#000000" stroke-width="1" x1="1089.14213562" x2="1110.14213562" y1="763.857864376" y2="784.857864376"/>
      <line stroke="#000000" stroke-width="1" x1="1091.97056275" x2="1112.97056275" y1="761.029437252" y2="782.029437252"/>
      <line stroke="#000000" stroke-width="1" x1="1094.79898987" x2="1115.79898987" y1="758.201010127" y2="779.201010127"/>
      <line stroke="#000000" stroke-width="1" x1="1097.627417" x2="1118.627417" y1="755.372583002" y2="776.372583002"/>
      <line stroke="#000000" stroke-width="1" x1="1100.45584412" x2="1121.45584412" y1="752.544155877" y2="773.544155877"/>
      <line stroke="#000000" stroke-width="1" x1="1103.28427125" x2="1124.28427125" y1="749.715728753" y2="770.715728753"/>
      <line stroke="#000000" stroke-width="1" x1="1106.11269837" x2="1127.11269837" y1="746.887301628" y2="767.887301628"/>
      <line stroke="#000000" stroke-width="1" x1="970" x2="949" y1="763" y2="742"/>
      <line stroke="#000000" stroke-width="1" x1="972.828427125" x2="951.828427125" y1="760.171572875" y2="739.171572875"/>
      <line stroke="#000000" stroke-width="1" x1="975.656854249" x2="954.656854249" y1="757.343145751" y2="736.343145751"/>
      <line stroke="#000000" stroke-width="1" x1="978.485281374" x2="957.485281374" y1="754.514718626" y2="733.514718626"/>
      <line stroke="#000000" stroke-width="1" x1="981.313708499" x2="960.313708499" y1="751.686291501" y2="730.686291501"/>
      <line stroke="#000000" stroke-width="1" x1="984.142135624" x2="963.142135624" y1="748.857864376" y2="727.857864376"/>
      <line stroke="#000000" stroke-width="1" x1="986.970562748" x2="965.970562748" y1="746.029437252" y2="725.029437252"/>
      <line stroke="#000000" stroke-width="1" x1="989.798989873" x2="968.798989873" y1="743.201010127" y2="722.201010127"/>
      <line stroke="#000000" stroke-width="1" x1="992.627416998" x2="971.627416998" y1="740.372583002" y2="719.372583002"/>
      <line stroke="#000000" stroke-width="1" x1="995.455844123" x2="974.455844123" y1="737.544155877" y2="716.544155877"/>
      <line stroke="#000000" stroke-width="1" x1="998.284271247" x2="977.284271247" y1="734.715728753" y2="713.715728753"/>
      <line stroke="#000000" stroke-width="1" x1="1001.11269837" x2="980.112698372" y1="731.887301628" y2="710.887301628"/>
      <polygon fill="#d0d0d0" points="1004,633 1004,583 1021,583 1021,633" stroke="#000000" stroke-width="1"/>
      <polyline fill="none" points="439,648 439,634 391,634 391,680 323,680 323,659 271,659 271,625 127,625 92,720 97,748 137,788" stroke="#000000" stroke-width="1"/>
      <polyline fill="none" points="119,806 72,759 64,716 98,623 -157,623 -178,681 -144,715 -98,669" stroke="#000000" stroke-width="1"/>
      <polyline fill="none" points="-82,685 -128,731 -101,758 -138,795 -102,831" stroke="#000000" stroke-width="1"/>
      <polyline fill="none" points="-118,847 -154,811 -182,839 -146,875" stroke="#000000" stroke-width="1"/>
      <polyline fill="none" points="-161,890 -197,854 -219,876 -183,912" stroke="#000000" stroke-width="1"/>
      <polyline fill="none" points="-198,927 -250,875 -133,758 -207,684 -156,544 -159,543" stroke="#000000" stroke-width="1"/>
      <polyline fill="none" points="-128,554 -131,553 -147,597 108,597 152,477 192,437 251,496" stroke="#000000" stroke-width="1"/>
      <polyline fill="none" points="235,512 196,473 175,494 137,597 271,597 271,559 323,559 323,537 391,537 391,584 439,584 439,569" stroke="#000000" stroke-width="1"/>
      <line stroke="#000000" stroke-width="1" x1="437" x2="437" y1="584" y2="634"/>
      <line stroke="#000000" stroke-width="1" x1="433" x2="433" y1="584" y2="634"/>
      <line stroke="#000000" stroke-width="1" x1="429" x2="429" y1="584" y2="634"/>
      <line stroke="#000000" stroke-width="1" x1="425" x2="425" y1="584" y2="634"/>
      <line stroke="#000000" stroke-width="1" x1="421" x2="421" y1="584" y2="634"/>
      <line stroke="#000000" stroke-width="1" x1="417" x2="417" y1="584" y2="634"/>
      <line stroke="#000000" stroke-width="1" x1="413" x2="413" y1="584" y2="634"/>
      <line stroke="#000000" stroke-width="1" x1="409" x2="409" y1="584" y2="634"/>
      <line stroke="#000000" stroke-width="1" x1="405" x2="405" y1="584" y2="634"/>
      <line stroke="#000000" stroke-width="1" x1="401" x2="401" y1="584" y2="634"/>
      <line stroke="#000000" stroke-width="1" x1="397" x2="397" y1="584" y2="634"/>
      <line stroke="#000000" stroke-width="1" x1="393" x2="393" y1="584" y2="634"/>
      <line stroke="#000000" stroke-width="1" x1="233" x2="249" y1="510" y2="494"/>
      <line stroke="#000000" stroke-width="1" x1="230.171572875" x2="246.171572875" y1="507.171572875" y2="491.171572875"/>
      <line stroke="#000000" stroke-width="1" x1="227.343145751" x2="243.343145751" y1="504.343145751" y2="488.343145751"/>
      <line stroke="#000000" stroke-width="1" x1="224.514718626" x2="240.514718626" y1="501.514718626" y2="485.514718626"/>
      <line stroke="#000000" stroke-width="1" x1="221.686291501" x2="237.686291501" y1="498.686291501" y2="482.686291501"/>
      <line stroke="#000000" stroke-width="1" x1="218.857864376" x2="234.857864376" y1="495.857864376" y2="479.857864376"/>
      <line stroke="#000000" stroke-width="1" x1="216.029437252" x2="232.029437252" y1="493.029437252" y2="477.029437252"/>
      <line stroke="#000000" stroke-width="1" x1="213.201010127" x2="229.201010127" y1="490.201010127" y2="474.201010127"/>
      <line stroke="#000000" stroke-width="1" x1="210.372583002" x2="226.372583002" y1="487.372583002" y2="471.372583002"/>
      <line stroke="#000000" stroke-width="1" x1="207.544155877" x2="223.544155877" y1="484.544155877" y2="468.544155877"/>
      <line stroke="#000000" stroke-width="1" x1="204.715728753" x2="220.715728753" y1="481.715728753" y2="465.715728753"/>
      <line stroke="#000000" stroke-width="1" x1="201.887301628" x2="217.887301628" y1="478.887301628" y2="462.887301628"/>
      <line stroke="#000000" stroke-width="1" x1="135" x2="117" y1="786" y2="804"/>
      <line stroke="#000000" stroke-width="1" x1="132.171572875" x2="114.171572875" y1="783.171572875" y2="801.171572875"/>
      <line stroke="#000000" stroke-width="1" x1="129.343145751" x2="111.343145751" y1="780.343145751" y2="798.343145751"/>
      <line stroke="#000000" stroke-width="1" x1="126.514718626" x2="108.514718626" y1="777.514718626" y2="795.514718626"/>
      <line stroke="#000000" stroke-width="1" x1="123.686291501" x2="105.686291501" y1="774.686291501" y2="792.686291501"/>
      <line stroke="#000000" stroke-width="1" x1="120.857864376" x2="102.857864376" y1="771.857864376" y2="789.857864376"/>
      <line stroke="#000000" stroke-width="1" x1="118.029437252" x2="100.029437252" y1="769.029437252" y2="787.029437252"/>
      <line stroke="#000000" stroke-width="1" x1="115.201010127" x2="97.2010101268" y1="766.201010127" y2="784.201010127"/>
      <line stroke="#000000" stroke-width="1" x1="112.372583002" x2="94.372583002" y1="763.372583002" y2="781.372583002"/>
      <line stroke="#000000" stroke-width="1" x1="109.544155877" x2="91.5441558773" y1="760.544155877" y2="778.544155877"/>
      <line stroke="#000000" stroke-width="1" x1="106.715728753" x2="88.7157287525" y1="757.715728753" y2="775.715728753"/>
      <line stroke="#000000" stroke-width="1" x1="103.887301628" x2="85.8873016278" y1="754.887301628" y2="772.887301628"/>
      <line stroke="#000000" stroke-width="1" x1="-185" x2="-200" y1="910" y2="925"/>
      <line stroke="#000000" stroke-width="1" x1="-187.828427125" x2="-202.828427125" y1="907.171572875" y2="922.171572875"/>
      <line stroke="#000000" stroke-width="1" x1="-190.656854249" x2="-205.656854249" y1="904.343145751" y2="919.343145751"/>
      <line stroke="#000000" stroke-width="1" x1="-193.485281374" x2="-208.485281374" y1="901.514718626" y2="916.514718626"/>
      <line stroke="#000000" stroke-width="1" x1="-196.313708499" x2="-211.313708499" y1="898.686291501" y2="913.686291501"/>
      <line stroke="#000000" stroke-width="1" x1="-199.142135624" x2="-214.142135624" y1="895.857864376" y2="910.857864376"/>
      <line stroke="#000000" stroke-width="1" x1="-201.970562748" x2="-216.970562748" y1="893.029437252" y2="908.029437252"/>
      <line stroke="#000000" stroke-width="1" x1="-204.798989873" x2="-219.798989873" y1="890.201010127" y2="905.201010127"/>
      <line stroke="#000000" stroke-width="1" x1="-207.627416998" x2="-222.627416998" y1="887.372583002" y2="902.372583002"/>
      <line stroke="#000000" stroke-width="1" x1="-210.455844123" x2="-225.455844123" y1="884.544155877" y2="899.544155877"/>
      <line stroke="#000000" stroke-width="1" x1="-213.284271247" x2="-228.284271247" y1="881.715728753" y2="896.715728753"/>
      <line stroke="#000000" stroke-width="1" x1="-216.112698372" x2="-231.112698372" y1="878.887301628" y2="893.887301628"/>
      <line stroke="#000000" stroke-width="1" x1="-148" x2="-163" y1="873" y2="888"/>
      <line stroke="#000000" stroke-width="1" x1="-150.828427125" x2="-165.828427125" y1="870.171572875" y2="885.171572875"/>
      <line stroke="#000000" stroke-width="1" x1="-153.656854249" x2="-168.656854249" y1="867.343145751" y2="882.343145751"/>
      <line stroke="#000000" stroke-width="1" x1="-156.485281374" x2="-171.485281374" y1="864.514718626" y2="879.514718626"/>
      <line stroke="#000000" stroke-width="1" x1="-159.313708499" x2="-174.313708499" y1="861.686291501" y2="876.686291501"/>
      <line stroke="#000000" stroke-width="1" x1="-162.142135624" x2="-177.142135624" y1="858.857864376" y2="873.857864376"/>
      <line stroke="#000000" stroke-width="1" x1="-164.970562748" x2="-179.970562748" y1="856.029437252" y2="871.029437252"/>
      <line stroke="#000000" stroke-width="1" x1="-167.798989873" x2="-182.798989873" y1="853.201010127" y2="868.201010127"/>
      <line stroke="#000000" stroke-width="1" x1="-170.627416998" x2="-185.627416998" y1="850.372583002" y2="865.372583002"/>
      <line stroke="#000000" stroke-width="1" x1="-173.455844123" x2="-188.455844123" y1="847.544155877" y2="862.544155877"/>
      <line stroke="#000000" stroke-width="1" x1="-176.284271247" x2="-191.284271247" y1="844.715728753" y2="859.715728753"/>
      <line stroke="#000000" stroke-width="1" x1="-179.112698372" x2="-194.112698372" y1="841.887301628" y2="856.887301628"/>
      <line stroke="#000000" stroke-width="1" x1="-104" x2="-120" y1="829" y2="845"/>
      <line stroke="#000000" stroke-width="1" x1="-106.828427125" x2="-122.828427125" y1="826.171572875" y2="842.171572875"/>
      <line stroke="#000000" stroke-width="1" x1="-109.656854249" x2="-125.656854249" y1="823.343145751" y2="839.343145751"/>
      <line stroke="#000000" stroke-width="1" x1="-112.485281374" x2="-128.485281374" y1="820.514718626" y2="836.514718626"/>
      <line stroke="#000000" stroke-width="1" x1="-115.313708499" x2="-131.313708499" y1="817.686291501" y2="833.686291501"/>
      <line stroke="#000000" stroke-width="1" x1="-118.142135624" x2="-134.142135624" y1="814.857864376" y2="830.857864376"/>
      <line stroke="#000000" stroke-width="1" x1="-120.970562748" x2="-136.970562748" y1="812.029437252" y2="828.029437252"/>
      <line stroke="#000000" stroke-width="1" x1="-123.798989873" x2="-139.798989873" y1="809.201010127" y2="825.201010127"/>
      <line stroke="#000000" stroke-width="1" x1="-126.627416998" x2="-142.627416998" y1="806.372583002" y2="822.372583002"/>
      <line stroke="#000000" stroke-width="1" x1="-129.455844123" x2="-145.455844123" y1="803.544155877" y2="819.544155877"/>
      <line stroke="#000000" stroke-width="1" x1="-132.284271247" x2="-148.284271247" y1="800.715728753" y2="816.715728753"/>
      <line stroke="#000000" stroke-width="1" x1="-135.112698372" x2="-151.112698372" y1="797.887301628" y2="813.887301628"/>
      <line stroke="#000000" stroke-width="1" x1="-100" x2="-84" y1="671" y2="687"/>
      <line stroke="#000000" stroke-width="1" x1="-102.828427125" x2="-86.8284271247" y1="673.828427125" y2="689.828427125"/>
      <line stroke="#000000" stroke-width="1" x1="-105.656854249" x2="-89.6568542495" y1="676.656854249" y2="692.656854249"/>
      <line stroke="#000000" stroke-width="1" x1="-108.485281374" x2="-92.4852813742" y1="679.485281374" y2="695.485281374"/>
      <line stroke="#000000" stroke-width="1" x1="-111.313708499" x2="-95.313708499" y1="682.313708499" y2="698.313708499"/>
      <line stroke="#000000" stroke-width="1" x1="-114.142135624" x2="-98.1421356237" y1="685.142135624" y2="701.142135624"/>
      <line stroke="#000000" stroke-width="1" x1="-116.970562748" x2="-100.970562748" y1="687.970562748" y2="703.970562748"/>
      <line stroke="#000000" stroke-width="1" x1="-119.798989873" x2="-103.798989873" y1="690.798989873" y2="706.798989873"/>
      <line stroke="#000000" stroke-width="1" x1="-122.627416998" x2="-106.627416998" y1="693.627416998" y2="709.627416998"/>
      <line stroke="#000000" stroke-width="1" x1="-125.455844123" x2="-109.455844123" y1="696.455844123" y2="712.455844123"/>
      <line stroke="#000000" stroke-width="1" x1="-128.284271247" x2="-112.284271247" y1="699.284271247" y2="715.284271247"/>
      <line stroke="#000000" stroke-width="1" x1="-131.112698372" x2="-115.112698372" y1="702.112698372" y2="718.112698372"/>
      <polygon fill="#d0d0d0" points="296,634 296,584 323,584 323,634" stroke="#000000" stroke-width="1"/>
      <text fill="#00afaf" font-family="Arial" font-size="15" stroke="none" stroke-width="0" transform="rotate(-45.0,785,1002)" x="785" y="1017.0">Партизанский проспект</text>
      <text fill="#00afaf" font-family="Arial" font-size="15" stroke="none" stroke-width="0" transform="rotate(-135.0,996,433)" x="996" y="448.0">улица Жилуновича</text>
      <text fill="#00afaf" font-family="Arial" font-size="15" stroke="none" stroke-width="0" transform="rotate(-135.0,4,872)" x="4" y="887.0">улица Плеханова</text>
      <text fill="#00afaf" font-family="Arial" font-size="15" stroke="none" stroke-width="0" transform="rotate(-135.0,-44,956)" x="-44" y="971.0">трамвайные пути</text>
      <text fill="#00afaf" font-family="Arial" font-size="15" stroke="none" stroke-width="0" transform="rotate(-135.0,-77,1014)" x="-77" y="1029.0">Долгобродская улица</text>
    </g>
  </g>
</svg>
