<?xml version="1.0" encoding="utf-8" ?>
<svg baseProfile="full" height="100%" version="1.1" width="100%" xmlns="http://www.w3.org/2000/svg" xmlns:ev="http://www.w3.org/2001/xml-events" xmlns:xlink="http://www.w3.org/1999/xlink">
  <defs>
    <marker id="id67" markerHeight="3" markerUnits="strokeWidth" markerWidth="4" orient="auto" refX="0" refY="5" viewBox="0,0,10,10">
      <path d="M 0 0 L 10 5 L 0 10 z"/>
    </marker>
  </defs>
  <g>
    <rect fill="none" height="440" stroke="none" stroke-width="0" width="590" x="0" y="0"/>
    <g transform="rotate(30.0,295,220)">
      <polygon fill="#bf0050" points="133,200 133,170 583,170 583,200" stroke="#000000" stroke-width="1"/>
      <polygon fill="#bf0050" points="133,233 133,203 583,203 583,233" stroke="#000000" stroke-width="1"/>
      <text fill="#bf0050" font-family="Arial" font-size="20" stroke="none" stroke-width="0" x="49" y="138.0">&lt;&lt; Купаловская</text>
      <text fill="#bf0050" font-family="Arial" font-size="20" stroke="none" stroke-width="0" x="462" y="280.0">Пролетарская &gt;&gt;</text>
      <text fill="#bf0050" font-family="Arial" font-size="25" stroke="none" stroke-width="0" x="297" y="27.0">Первомайская</text>
      <polyline fill="none" points="583,170 583,145 412,145 412,131" stroke="#000000" stroke-width="1"/>
      <polyline fill="none" points="306,131 306,145 133,145 133,170" stroke="#000000" stroke-width="1"/>
      <polyline fill="none" points="133,233 133,258 306,258 306,274" stroke="#000000" stroke-width="1"/>
      <polyline fill="none" points="412,274 412,258 583,258 583,233" stroke="#000000" stroke-width="1"/>
      <polyline fill="none" points="379,127 379,131" stroke="#000000" stroke-width="1"/>
      <polyline fill="none" points="339,127 339,131" stroke="#000000" stroke-width="1"/>
      <polyline fill="none" points="379,274 379,278" stroke="#000000" stroke-width="1"/>
      <polyline fill="none" points="339,274 339,278" stroke="#000000" stroke-width="1"/>
      <polygon fill="#d0d0d0" points="342,145 342,142 376,142 376,145" stroke="#000000" stroke-width="1"/>
      <polygon fill="#d0d0d0" points="342,258 342,261 376,261 376,258" stroke="#000000" stroke-width="1"/>
      <polyline fill="none" points="394,153 394,137 366,137 366,124" stroke="#ff0000" stroke-width="1"/>
      <polyline fill="none" points="324,250 324,267 352,267 352,285" stroke="#ff0000" stroke-width="1"/>
      <polyline fill="none" marker-end="url(#id67)" points="350,124 350,137 325,137 325,153" stroke="#009900" stroke-width="1"/>
      <polyline fill="none" marker-end="url(#id67)" points="365,285 365,267 394,267 394,250" stroke="#009900" stroke-width="1"/>
    </g>
    <g fill="#d0d0d0" fill-opacity="0.85" stroke="#009900" stroke-opacity="0.85" transform="rotate(30.0,295,220)">
      <polygon fill="#ffffff" points="191,143 229,143 229,151 285,151 285,131 432,131 432,274 285,274 285,252 230,252 230,260 191,260" stroke="#ffffff" stroke-width="1"/>
      <polygon fill="#d0d0d0" points="306,79 339,79 339,127 379,127 379,79 412,79 412,131 306,131" stroke="#000000" stroke-width="1"/>
      <polygon fill="#d0d0d0" points="306,274 412,274 412,327 379,327 379,278 339,278 339,327 306,327" stroke="#000000" stroke-width="1"/>
    </g>
    <g fill="#d0d0d0" fill-opacity="1.0" stroke="#000000" stroke-opacity="1.0" transform="rotate(30.0,295,220)">
      <polyline fill="none" points="277,87 143,87" stroke="#000000" stroke-width="1"/>
      <polyline fill="none" points="143,108 191,108 191,277 143,277" stroke="#000000" stroke-width="1"/>
      <polyline fill="none" points="143,298 191,298 191,425 143,425" stroke="#000000" stroke-width="1"/>
      <polyline fill="none" points="143,446 278,446" stroke="#000000" stroke-width="1"/>
      <polyline fill="none" points="278,425 230,425 230,252 285,252 285,351 432,351 432,57 285,57 285,151 229,151 229,108 277,108" stroke="#000000" stroke-width="1"/>
      <polyline fill="none" points="289,232 248,232" stroke="#000000" stroke-width="1"/>
      <polyline fill="none" points="288,171 248,171" stroke="#000000" stroke-width="1"/>
      <polyline fill="none" points="230,210 230,229" stroke="#000000" stroke-width="1"/>
      <line stroke="#000000" stroke-width="1" x1="145" x2="145" y1="108" y2="87"/>
      <line stroke="#000000" stroke-width="1" x1="149" x2="149" y1="108" y2="87"/>
      <line stroke="#000000" stroke-width="1" x1="153" x2="153" y1="108" y2="87"/>
      <line stroke="#000000" stroke-width="1" x1="157" x2="157" y1="108" y2="87"/>
      <line stroke="#000000" stroke-width="1" x1="161" x2="161" y1="108" y2="87"/>
      <line stroke="#000000" stroke-width="1" x1="165" x2="165" y1="108" y2="87"/>
      <line stroke="#000000" stroke-width="1" x1="169" x2="169" y1="108" y2="87"/>
      <line stroke="#000000" stroke-width="1" x1="173" x2="173" y1="108" y2="87"/>
      <line stroke="#000000" stroke-width="1" x1="177" x2="177" y1="108" y2="87"/>
      <line stroke="#000000" stroke-width="1" x1="181" x2="181" y1="108" y2="87"/>
      <line stroke="#000000" stroke-width="1" x1="185" x2="185" y1="108" y2="87"/>
      <line stroke="#000000" stroke-width="1" x1="189" x2="189" y1="108" y2="87"/>
      <line stroke="#000000" stroke-width="1" x1="275" x2="275" y1="108" y2="87"/>
      <line stroke="#000000" stroke-width="1" x1="271" x2="271" y1="108" y2="87"/>
      <line stroke="#000000" stroke-width="1" x1="267" x2="267" y1="108" y2="87"/>
      <line stroke="#000000" stroke-width="1" x1="263" x2="263" y1="108" y2="87"/>
      <line stroke="#000000" stroke-width="1" x1="259" x2="259" y1="108" y2="87"/>
      <line stroke="#000000" stroke-width="1" x1="255" x2="255" y1="108" y2="87"/>
      <line stroke="#000000" stroke-width="1" x1="251" x2="251" y1="108" y2="87"/>
      <line stroke="#000000" stroke-width="1" x1="247" x2="247" y1="108" y2="87"/>
      <line stroke="#000000" stroke-width="1" x1="243" x2="243" y1="108" y2="87"/>
      <line stroke="#000000" stroke-width="1" x1="239" x2="239" y1="108" y2="87"/>
      <line stroke="#000000" stroke-width="1" x1="235" x2="235" y1="108" y2="87"/>
      <line stroke="#000000" stroke-width="1" x1="231" x2="231" y1="108" y2="87"/>
      <line stroke="#000000" stroke-width="1" x1="191" x2="230" y1="264" y2="264"/>
      <line stroke="#000000" stroke-width="1" x1="191" x2="230" y1="268" y2="268"/>
      <line stroke="#000000" stroke-width="1" x1="191" x2="230" y1="272" y2="272"/>
      <line stroke="#000000" stroke-width="1" x1="145" x2="145" y1="298" y2="277"/>
      <line stroke="#000000" stroke-width="1" x1="149" x2="149" y1="298" y2="277"/>
      <line stroke="#000000" stroke-width="1" x1="153" x2="153" y1="298" y2="277"/>
      <line stroke="#000000" stroke-width="1" x1="157" x2="157" y1="298" y2="277"/>
      <line stroke="#000000" stroke-width="1" x1="161" x2="161" y1="298" y2="277"/>
      <line stroke="#000000" stroke-width="1" x1="165" x2="165" y1="298" y2="277"/>
      <line stroke="#000000" stroke-width="1" x1="169" x2="169" y1="298" y2="277"/>
      <line stroke="#000000" stroke-width="1" x1="173" x2="173" y1="298" y2="277"/>
      <line stroke="#000000" stroke-width="1" x1="177" x2="177" y1="298" y2="277"/>
      <line stroke="#000000" stroke-width="1" x1="181" x2="181" y1="298" y2="277"/>
      <line stroke="#000000" stroke-width="1" x1="185" x2="185" y1="298" y2="277"/>
      <line stroke="#000000" stroke-width="1" x1="189" x2="189" y1="298" y2="277"/>
      <line stroke="#000000" stroke-width="1" x1="145" x2="145" y1="425" y2="446"/>
      <line stroke="#000000" stroke-width="1" x1="149" x2="149" y1="425" y2="446"/>
      <line stroke="#000000" stroke-width="1" x1="153" x2="153" y1="425" y2="446"/>
      <line stroke="#000000" stroke-width="1" x1="157" x2="157" y1="425" y2="446"/>
      <line stroke="#000000" stroke-width="1" x1="161" x2="161" y1="425" y2="446"/>
      <line stroke="#000000" stroke-width="1" x1="165" x2="165" y1="425" y2="446"/>
      <line stroke="#000000" stroke-width="1" x1="169" x2="169" y1="425" y2="446"/>
      <line stroke="#000000" stroke-width="1" x1="173" x2="173" y1="425" y2="446"/>
      <line stroke="#000000" stroke-width="1" x1="177" x2="177" y1="425" y2="446"/>
      <line stroke="#000000" stroke-width="1" x1="181" x2="181" y1="425" y2="446"/>
      <line stroke="#000000" stroke-width="1" x1="185" x2="185" y1="425" y2="446"/>
      <line stroke="#000000" stroke-width="1" x1="189" x2="189" y1="425" y2="446"/>
      <line stroke="#000000" stroke-width="1" x1="276" x2="276" y1="425" y2="446"/>
      <line stroke="#000000" stroke-width="1" x1="272" x2="272" y1="425" y2="446"/>
      <line stroke="#000000" stroke-width="1" x1="268" x2="268" y1="425" y2="446"/>
      <line stroke="#000000" stroke-width="1" x1="264" x2="264" y1="425" y2="446"/>
      <line stroke="#000000" stroke-width="1" x1="260" x2="260" y1="425" y2="446"/>
      <line stroke="#000000" stroke-width="1" x1="256" x2="256" y1="425" y2="446"/>
      <line stroke="#000000" stroke-width="1" x1="252" x2="252" y1="425" y2="446"/>
      <line stroke="#000000" stroke-width="1" x1="248" x2="248" y1="425" y2="446"/>
      <line stroke="#000000" stroke-width="1" x1="244" x2="244" y1="425" y2="446"/>
      <line stroke="#000000" stroke-width="1" x1="240" x2="240" y1="425" y2="446"/>
      <line stroke="#000000" stroke-width="1" x1="236" x2="236" y1="425" y2="446"/>
      <line stroke="#000000" stroke-width="1" x1="232" x2="232" y1="425" y2="446"/>
      <line stroke="#000000" stroke-width="1" x1="306" x2="285" y1="120" y2="120"/>
      <line stroke="#000000" stroke-width="1" x1="306" x2="285" y1="116" y2="116"/>
      <line stroke="#000000" stroke-width="1" x1="306" x2="285" y1="112" y2="112"/>
      <line stroke="#000000" stroke-width="1" x1="306" x2="285" y1="108" y2="108"/>
      <line stroke="#000000" stroke-width="1" x1="306" x2="285" y1="104" y2="104"/>
      <line stroke="#000000" stroke-width="1" x1="306" x2="285" y1="100" y2="100"/>
      <line stroke="#000000" stroke-width="1" x1="339" x2="379" y1="110" y2="110"/>
      <line stroke="#000000" stroke-width="1" x1="339" x2="379" y1="114" y2="114"/>
      <line stroke="#000000" stroke-width="1" x1="339" x2="379" y1="118" y2="118"/>
      <line stroke="#000000" stroke-width="1" x1="412" x2="432" y1="120" y2="120"/>
      <line stroke="#000000" stroke-width="1" x1="412" x2="432" y1="116" y2="116"/>
      <line stroke="#000000" stroke-width="1" x1="412" x2="432" y1="112" y2="112"/>
      <line stroke="#000000" stroke-width="1" x1="412" x2="432" y1="108" y2="108"/>
      <line stroke="#000000" stroke-width="1" x1="412" x2="432" y1="104" y2="104"/>
      <line stroke="#000000" stroke-width="1" x1="412" x2="432" y1="100" y2="100"/>
      <line stroke="#000000" stroke-width="1" x1="412" x2="432" y1="283" y2="283"/>
      <line stroke="#000000" stroke-width="1" x1="412" x2="432" y1="287" y2="287"/>
      <line stroke="#000000" stroke-width="1" x1="412" x2="432" y1="291" y2="291"/>
      <line stroke="#000000" stroke-width="1" x1="412" x2="432" y1="295" y2="295"/>
      <line stroke="#000000" stroke-width="1" x1="412" x2="432" y1="299" y2="299"/>
      <line stroke="#000000" stroke-width="1" x1="412" x2="432" y1="303" y2="303"/>
      <line stroke="#000000" stroke-width="1" x1="306" x2="285" y1="283" y2="283"/>
      <line stroke="#000000" stroke-width="1" x1="306" x2="285" y1="287" y2="287"/>
      <line stroke="#000000" stroke-width="1" x1="306" x2="285" y1="291" y2="291"/>
      <line stroke="#000000" stroke-width="1" x1="306" x2="285" y1="295" y2="295"/>
      <line stroke="#000000" stroke-width="1" x1="306" x2="285" y1="299" y2="299"/>
      <line stroke="#000000" stroke-width="1" x1="306" x2="285" y1="303" y2="303"/>
      <line stroke="#000000" stroke-width="1" x1="379" x2="339" y1="301" y2="301"/>
      <line stroke="#000000" stroke-width="1" x1="379" x2="339" y1="297" y2="297"/>
      <line stroke="#000000" stroke-width="1" x1="379" x2="339" y1="293" y2="293"/>
      <polygon fill="#d0d0d0" points="230,175 230,167 248,167 248,175" stroke="#000000" stroke-width="1"/>
      <polygon fill="#d0d0d0" points="230,210 230,194 248,194 248,210" stroke="#000000" stroke-width="1"/>
      <polygon fill="#d0d0d0" points="264,206 264,199 289,199 289,206" stroke="#000000" stroke-width="1"/>
      <polygon fill="#d0d0d0" points="230,235 230,229 248,229 248,235" stroke="#000000" stroke-width="1"/>
      <polyline fill="none" points="277,109 230,109 230,150 284,150 284,56 433,56 433,352 284,352 284,253 231,253 231,424 278,424" stroke="#cccccc" stroke-width="1"/>
      <polyline fill="none" points="278,447 143,447" stroke="#cccccc" stroke-width="1"/>
      <polyline fill="none" points="143,424 190,424 190,299 143,299" stroke="#cccccc" stroke-width="1"/>
      <polyline fill="none" points="143,276 190,276 190,109 143,109" stroke="#cccccc" stroke-width="1"/>
      <polyline fill="none" points="143,86 277,86" stroke="#cccccc" stroke-width="1"/>
      <polyline fill="none" marker-end="url(#id67)" points="366,124 366,68 421,68 421,159 396,159" stroke="#ff0000" stroke-width="1"/>
      <polyline fill="none" marker-end="url(#id67)" points="249,159 222,159" stroke="#ff0000" stroke-width="1"/>
      <polyline fill="none" marker-end="url(#id67)" points="352,285 352,339 295,339 295,267" stroke="#ff0000" stroke-width="1"/>
      <polyline fill="none" marker-end="url(#id67)" points="249,244 222,244" stroke="#ff0000" stroke-width="1"/>
      <polyline fill="none" marker-end="url(#id67)" points="222,184 250,184" stroke="#009900" stroke-width="1"/>
      <polyline fill="none" points="294,148 294,68 350,68 350,124" stroke="#009900" stroke-width="1"/>
      <polyline fill="none" points="421,249 421,339 365,339 365,285" stroke="#009900" stroke-width="1"/>
      <text fill="#00afaf" font-family="Arial" font-size="15" stroke="none" stroke-width="0" x="108" y="372.0">ул. Ленина</text>
      <text fill="#00afaf" font-family="Arial" font-size="15" stroke="none" stroke-width="0" x="155" y="467.0">'Стадион &quot;Динамо&quot;'</text>
      <text fill="#00afaf" font-family="Arial" font-size="15" stroke="none" stroke-width="0" x="111" y="485.0">'Концертный зал &quot;Минск&quot;'</text>
      <polyline fill="none" marker-end="url(#id67)" points="225,490 122,490" stroke="#00afaf" stroke-width="1"/>
    </g>
  </g>
</svg>
