<?xml version="1.0" encoding="utf-8" ?>
<svg baseProfile="full" height="100%" version="1.1" width="100%" xmlns="http://www.w3.org/2000/svg" xmlns:ev="http://www.w3.org/2001/xml-events" xmlns:xlink="http://www.w3.org/1999/xlink"><defs><marker id="id414" markerHeight="3" markerUnits="strokeWidth" markerWidth="4" orient="auto" refX="0" refY="5" viewBox="0,0,10,10"><path d="M 0 0 L 10 5 L 0 10 z" /></marker></defs><g transform="scale(0.5) rotate(20.0,482,300)"><rect fill="none" height="600" stroke="none" width="965" x="0" y="0" /><polygon fill="#BF0050" points="363,105 363,75 813,75 813,105" stroke="#000000" stroke-width="1" /><polygon fill="#BF0050" points="363,185 363,215 813,215 813,185" stroke="#000000" stroke-width="1" /><text fill="#BF0050" font-family="Arial" font-size="25" stroke="none" x="501" y="153.0">Пролетарская</text><text fill="#BF0050" font-family="Arial" font-size="20" stroke="none" x="641" y="234.0">Тракторный завод &gt;&gt;</text><text fill="#BF0050" font-family="Arial" font-size="20" stroke="none" x="364" y="72.0">&lt;&lt; Первомайская</text><polyline fill="none" points="813,105 823,105 823,119 813,119 813,169 823,169 823,185 813,185" stroke="#000000" stroke-width="1" /><polyline fill="none" points="363,105 329,105 329,112" stroke="#000000" stroke-width="1" /><polyline fill="none" points="363,185 329,185 329,179" stroke="#000000" stroke-width="1" /><polyline fill="none" points="337,112 257,112 257,118 244,118 244,112 193,112 193,198 200,198 200,335 160,335" stroke="#000000" stroke-width="1" /><polyline fill="none" points="337,179 257,179 257,173 244,173 244,355 160,355" stroke="#000000" stroke-width="1" /><line stroke="#000000" stroke-width="1" x1="335" x2="335" y1="112" y2="179" /><line stroke="#000000" stroke-width="1" x1="331" x2="331" y1="112" y2="179" /><line stroke="#000000" stroke-width="1" x1="327" x2="327" y1="112" y2="179" /><line stroke="#000000" stroke-width="1" x1="323" x2="323" y1="112" y2="179" /><line stroke="#000000" stroke-width="1" x1="319" x2="319" y1="112" y2="179" /><line stroke="#000000" stroke-width="1" x1="315" x2="315" y1="112" y2="179" /><line stroke="#000000" stroke-width="1" x1="311" x2="311" y1="112" y2="179" /><line stroke="#000000" stroke-width="1" x1="307" x2="307" y1="112" y2="179" /><line stroke="#000000" stroke-width="1" x1="303" x2="303" y1="112" y2="179" /><line stroke="#000000" stroke-width="1" x1="299" x2="299" y1="112" y2="179" /><line stroke="#000000" stroke-width="1" x1="295" x2="295" y1="112" y2="179" /><line stroke="#000000" stroke-width="1" x1="291" x2="291" y1="112" y2="179" /><line stroke="#000000" stroke-width="1" x1="162" x2="162" y1="335" y2="355" /><line stroke="#000000" stroke-width="1" x1="166" x2="166" y1="335" y2="355" /><line stroke="#000000" stroke-width="1" x1="170" x2="170" y1="335" y2="355" /><line stroke="#000000" stroke-width="1" x1="174" x2="174" y1="335" y2="355" /><line stroke="#000000" stroke-width="1" x1="178" x2="178" y1="335" y2="355" /><line stroke="#000000" stroke-width="1" x1="182" x2="182" y1="335" y2="355" /><line stroke="#000000" stroke-width="1" x1="186" x2="186" y1="335" y2="355" /><line stroke="#000000" stroke-width="1" x1="190" x2="190" y1="335" y2="355" /><line stroke="#000000" stroke-width="1" x1="194" x2="194" y1="335" y2="355" /><line stroke="#000000" stroke-width="1" x1="198" x2="198" y1="335" y2="355" /><polygon fill="#D0D0D0" points="244,133 257,133 257,159 244,159" stroke="#000000" stroke-width="1" /><polyline fill="none" marker-end="url(#id414)" points="245,166 228,166" stroke="#FF0000" stroke-width="1" /><polyline fill="none" marker-end="url(#id414)" points="255,125 273,125" stroke="#009900" stroke-width="1" /><text fill="#00AFAF" font-family="Arial" font-size="15" stroke="none" x="254" y="286.0">ул. Судмалиса</text><text fill="#00AFAF" font-family="Arial" font-size="15" stroke="none" x="887" y="286.0">ул. Судмалиса</text><text fill="#00AFAF" font-family="Arial" font-size="15" stroke="none" transform="rotate(-90.0,870,437)" x="870" y="452.0">ул. Серафимовича</text><text fill="#00AFAF" font-family="Arial" font-size="15" stroke="none" x="33" y="322.0">'на ж/д станцию "Минск-Восточный"'</text><polyline fill="none" marker-end="url(#id414)" points="147,350 20,350 -12,326 137,250" stroke="#00AFAF" stroke-width="1" /></g></svg>