<?xml version="1.0" encoding="utf-8" ?>
<svg baseProfile="full" height="520.0" version="1.1" width="1100.0" xmlns="http://www.w3.org/2000/svg" xmlns:ev="http://www.w3.org/2001/xml-events" xmlns:xlink="http://www.w3.org/1999/xlink">
  <defs>
    <marker id="id73" markerHeight="3" markerUnits="strokeWidth" markerWidth="4" orient="auto" refX="0" refY="5" viewBox="0,0,10,10">
      <path d="M 0 0 L 10 5 L 0 10 z"/>
    </marker>
  </defs>
  <g>
    <rect fill="none" height="520.0" stroke="none" stroke-width="0" width="1100.0" x="0.0" y="0.0"/>
    <g transform="rotate(-5.0,550.0,260.0)">
      <polyline fill="none" points="237.0,-36.0 237.0,535.0" stroke="#f5f5f5" stroke-width="40"/>
      <polyline fill="none" points="-12.0,285.0 1109.0,285.0" stroke="#f5f5f5" stroke-width="40"/>
      <path d="M237.0,57.0 C237.0,57.0 224.16666666666666,30.833333333333336 237.0,57.0 C249.83333333333334,83.16666666666666 275.6666666666667,176.0 314.0,214.0 C352.3333333333333,252.0 467.0,285.0 467.0,285.0 " fill="none" stroke="#f5f5f5" stroke-width="40"/>
      <path d="M467.0,285.0 C467.0,285.0 492.0,273.3333333333333 467.0,285.0 C442.0,296.6666666666667 355.3333333333333,316.6666666666667 317.0,355.0 C278.6666666666667,393.3333333333333 237.0,515.0 237.0,515.0 " fill="none" stroke="#f5f5f5" stroke-width="40"/>
      <path d="M237.0,515.0 C237.0,515.0 250.33333333333331,542.1666666666666 237.0,515.0 C223.66666666666669,487.8333333333333 195.0,390.33333333333337 157.0,352.0 C119.0,313.66666666666663 9.0,285.0 9.0,285.0 " fill="none" stroke="#f5f5f5" stroke-width="40"/>
      <path d="M9.0,285.0 C9.0,285.0 -16.833333333333332,297.3333333333333 9.0,285.0 C34.83333333333333,272.6666666666667 126.0,249.0 164.0,211.0 C202.0,173.0 237.0,57.0 237.0,57.0 " fill="none" stroke="#f5f5f5" stroke-width="40"/>
      <path d="M237.0,391.0 C237.0,391.0 224.5,396.0 237.0,391.0 C249.5,386.0 294.3333333333333,378.6666666666667 312.0,361.0 C329.6666666666667,343.3333333333333 342.6666666666667,309.6666666666667 343.0,285.0 C343.3333333333333,260.3333333333333 331.6666666666667,230.33333333333331 314.0,213.0 C296.3333333333333,195.66666666666669 262.0,181.0 237.0,181.0 C212.0,181.0 181.33333333333334,195.66666666666666 164.0,213.0 C146.66666666666666,230.33333333333334 133.66666666666666,261.1666666666667 133.0,285.0 C132.33333333333334,308.8333333333333 142.66666666666666,338.3333333333333 160.0,356.0 C177.33333333333334,373.6666666666667 237.0,391.0 237.0,391.0 " fill="none" stroke="#f5f5f5" stroke-width="40"/>
      <polygon fill="#bf0050" points="415.0,246.0 415.0,216.0 865.0,216.0 865.0,246.0" stroke="#000000" stroke-width="1"/>
      <polygon fill="#bf0050" points="415.0,326.0 415.0,356.0 865.0,356.0 865.0,326.0" stroke="#000000" stroke-width="1"/>
      <text fill="#bf0050" font-family="Arial" font-size="25.0" stroke="none" stroke-width="0" x="563.0" y="292.0">Пушкинская</text>
      <text fill="#bf0050" font-family="Arial" font-size="20.0" stroke="none" stroke-width="0" x="727.0" y="376.0">Молодежная &gt;&gt;</text>
      <text fill="#bf0050" font-family="Arial" font-size="20.0" stroke="none" stroke-width="0" x="416.0" y="212.0">&lt;&lt; Спортивная</text>
      <polyline fill="none" points="865.0,246.0 865.0,259.0 913.0,259.0 913.0,242.0 978.0,242.0 978.0,172.0 928.0,172.0" stroke="#000000" stroke-width="1"/>
      <polyline fill="none" points="928.0,150.0 1063.0,150.0" stroke="#000000" stroke-width="1"/>
      <polyline fill="none" points="1063.0,172.0 1013.0,172.0 1013.0,401.0 1063.0,401.0" stroke="#000000" stroke-width="1"/>
      <polyline fill="none" points="1063.0,422.0 928.0,422.0" stroke="#000000" stroke-width="1"/>
      <polyline fill="none" points="928.0,401.0 978.0,401.0 978.0,330.0 913.0,330.0 913.0,313.0 865.0,313.0 865.0,326.0" stroke="#000000" stroke-width="1"/>
      <line stroke="#000000" stroke-width="1" x1="867.0" x2="867.0" y1="259.0" y2="313.0"/>
      <line stroke="#000000" stroke-width="1" x1="871.0" x2="871.0" y1="259.0" y2="313.0"/>
      <line stroke="#000000" stroke-width="1" x1="875.0" x2="875.0" y1="259.0" y2="313.0"/>
      <line stroke="#000000" stroke-width="1" x1="879.0" x2="879.0" y1="259.0" y2="313.0"/>
      <line stroke="#000000" stroke-width="1" x1="883.0" x2="883.0" y1="259.0" y2="313.0"/>
      <line stroke="#000000" stroke-width="1" x1="887.0" x2="887.0" y1="259.0" y2="313.0"/>
      <line stroke="#000000" stroke-width="1" x1="891.0" x2="891.0" y1="259.0" y2="313.0"/>
      <line stroke="#000000" stroke-width="1" x1="895.0" x2="895.0" y1="259.0" y2="313.0"/>
      <line stroke="#000000" stroke-width="1" x1="899.0" x2="899.0" y1="259.0" y2="313.0"/>
      <line stroke="#000000" stroke-width="1" x1="903.0" x2="903.0" y1="259.0" y2="313.0"/>
      <line stroke="#000000" stroke-width="1" x1="907.0" x2="907.0" y1="259.0" y2="313.0"/>
      <line stroke="#000000" stroke-width="1" x1="911.0" x2="911.0" y1="259.0" y2="313.0"/>
      <line stroke="#000000" stroke-width="1" x1="930.0" x2="930.0" y1="172.0" y2="150.0"/>
      <line stroke="#000000" stroke-width="1" x1="934.0" x2="934.0" y1="172.0" y2="150.0"/>
      <line stroke="#000000" stroke-width="1" x1="938.0" x2="938.0" y1="172.0" y2="150.0"/>
      <line stroke="#000000" stroke-width="1" x1="942.0" x2="942.0" y1="172.0" y2="150.0"/>
      <line stroke="#000000" stroke-width="1" x1="946.0" x2="946.0" y1="172.0" y2="150.0"/>
      <line stroke="#000000" stroke-width="1" x1="950.0" x2="950.0" y1="172.0" y2="150.0"/>
      <line stroke="#000000" stroke-width="1" x1="954.0" x2="954.0" y1="172.0" y2="150.0"/>
      <line stroke="#000000" stroke-width="1" x1="958.0" x2="958.0" y1="172.0" y2="150.0"/>
      <line stroke="#000000" stroke-width="1" x1="962.0" x2="962.0" y1="172.0" y2="150.0"/>
      <line stroke="#000000" stroke-width="1" x1="966.0" x2="966.0" y1="172.0" y2="150.0"/>
      <line stroke="#000000" stroke-width="1" x1="970.0" x2="970.0" y1="172.0" y2="150.0"/>
      <line stroke="#000000" stroke-width="1" x1="974.0" x2="974.0" y1="172.0" y2="150.0"/>
      <line stroke="#000000" stroke-width="1" x1="1061.0" x2="1061.0" y1="172.0" y2="150.0"/>
      <line stroke="#000000" stroke-width="1" x1="1057.0" x2="1057.0" y1="172.0" y2="150.0"/>
      <line stroke="#000000" stroke-width="1" x1="1053.0" x2="1053.0" y1="172.0" y2="150.0"/>
      <line stroke="#000000" stroke-width="1" x1="1049.0" x2="1049.0" y1="172.0" y2="150.0"/>
      <line stroke="#000000" stroke-width="1" x1="1045.0" x2="1045.0" y1="172.0" y2="150.0"/>
      <line stroke="#000000" stroke-width="1" x1="1041.0" x2="1041.0" y1="172.0" y2="150.0"/>
      <line stroke="#000000" stroke-width="1" x1="1037.0" x2="1037.0" y1="172.0" y2="150.0"/>
      <line stroke="#000000" stroke-width="1" x1="1033.0" x2="1033.0" y1="172.0" y2="150.0"/>
      <line stroke="#000000" stroke-width="1" x1="1029.0" x2="1029.0" y1="172.0" y2="150.0"/>
      <line stroke="#000000" stroke-width="1" x1="1025.0" x2="1025.0" y1="172.0" y2="150.0"/>
      <line stroke="#000000" stroke-width="1" x1="1021.0" x2="1021.0" y1="172.0" y2="150.0"/>
      <line stroke="#000000" stroke-width="1" x1="1017.0" x2="1017.0" y1="172.0" y2="150.0"/>
      <line stroke="#000000" stroke-width="1" x1="930.0" x2="930.0" y1="401.0" y2="422.0"/>
      <line stroke="#000000" stroke-width="1" x1="934.0" x2="934.0" y1="401.0" y2="422.0"/>
      <line stroke="#000000" stroke-width="1" x1="938.0" x2="938.0" y1="401.0" y2="422.0"/>
      <line stroke="#000000" stroke-width="1" x1="942.0" x2="942.0" y1="401.0" y2="422.0"/>
      <line stroke="#000000" stroke-width="1" x1="946.0" x2="946.0" y1="401.0" y2="422.0"/>
      <line stroke="#000000" stroke-width="1" x1="950.0" x2="950.0" y1="401.0" y2="422.0"/>
      <line stroke="#000000" stroke-width="1" x1="954.0" x2="954.0" y1="401.0" y2="422.0"/>
      <line stroke="#000000" stroke-width="1" x1="958.0" x2="958.0" y1="401.0" y2="422.0"/>
      <line stroke="#000000" stroke-width="1" x1="962.0" x2="962.0" y1="401.0" y2="422.0"/>
      <line stroke="#000000" stroke-width="1" x1="966.0" x2="966.0" y1="401.0" y2="422.0"/>
      <line stroke="#000000" stroke-width="1" x1="970.0" x2="970.0" y1="401.0" y2="422.0"/>
      <line stroke="#000000" stroke-width="1" x1="974.0" x2="974.0" y1="401.0" y2="422.0"/>
      <line stroke="#000000" stroke-width="1" x1="1061.0" x2="1061.0" y1="401.0" y2="422.0"/>
      <line stroke="#000000" stroke-width="1" x1="1057.0" x2="1057.0" y1="401.0" y2="422.0"/>
      <line stroke="#000000" stroke-width="1" x1="1053.0" x2="1053.0" y1="401.0" y2="422.0"/>
      <line stroke="#000000" stroke-width="1" x1="1049.0" x2="1049.0" y1="401.0" y2="422.0"/>
      <line stroke="#000000" stroke-width="1" x1="1045.0" x2="1045.0" y1="401.0" y2="422.0"/>
      <line stroke="#000000" stroke-width="1" x1="1041.0" x2="1041.0" y1="401.0" y2="422.0"/>
      <line stroke="#000000" stroke-width="1" x1="1037.0" x2="1037.0" y1="401.0" y2="422.0"/>
      <line stroke="#000000" stroke-width="1" x1="1033.0" x2="1033.0" y1="401.0" y2="422.0"/>
      <line stroke="#000000" stroke-width="1" x1="1029.0" x2="1029.0" y1="401.0" y2="422.0"/>
      <line stroke="#000000" stroke-width="1" x1="1025.0" x2="1025.0" y1="401.0" y2="422.0"/>
      <line stroke="#000000" stroke-width="1" x1="1021.0" x2="1021.0" y1="401.0" y2="422.0"/>
      <line stroke="#000000" stroke-width="1" x1="1017.0" x2="1017.0" y1="401.0" y2="422.0"/>
      <polygon fill="#d0d0d0" points="970.0,277.0 978.0,277.0 978.0,293.0 970.0,293.0" stroke="#000000" stroke-width="1"/>
      <polyline fill="none" points="415.0,246.0 415.0,257.0 318.0,257.0" stroke="#000000" stroke-width="1"/>
      <path d="M310.0,242.0 C310.0,242.0 309.3333333333333,241.0 310.0,242.0 C310.6666666666667,243.0 312.6666666666667,245.5 314.0,248.0 C315.3333333333333,250.5 318.0,257.0 318.0,257.0 " fill="none" stroke="#000000" stroke-width="1"/>
      <polyline fill="none" points="310.0,242.0 357.0,195.0 391.0,229.0" stroke="#000000" stroke-width="1"/>
      <polyline fill="none" points="409.0,211.0 313.0,115.0" stroke="#000000" stroke-width="1"/>
      <polyline fill="none" points="296.0,132.0 330.0,166.0 282.0,214.0" stroke="#000000" stroke-width="1"/>
      <path d="M282.0,214.0 C282.0,214.0 289.5,216.16666666666666 282.0,214.0 C274.5,211.83333333333334 251.66666666666666,201.0 237.0,201.0 C222.33333333333334,201.0 194.0,214.0 194.0,214.0 " fill="none" stroke="#000000" stroke-width="1"/>
      <polyline fill="none" points="194.0,214.0 146.0,166.0 180.0,132.0" stroke="#000000" stroke-width="1"/>
      <polyline fill="none" points="163.0,115.0 67.0,211.0" stroke="#000000" stroke-width="1"/>
      <polyline fill="none" points="84.0,228.0 118.0,194.0 166.0,242.0" stroke="#000000" stroke-width="1"/>
      <path d="M166.0,242.0 C166.0,242.0 168.16666666666666,234.83333333333334 166.0,242.0 C163.83333333333334,249.16666666666666 153.0,270.3333333333333 153.0,285.0 C153.0,299.6666666666667 166.0,330.0 166.0,330.0 " fill="none" stroke="#000000" stroke-width="1"/>
      <polyline fill="none" points="166.0,330.0 118.0,378.0 84.0,344.0" stroke="#000000" stroke-width="1"/>
      <polyline fill="none" points="67.0,361.0 163.0,457.0" stroke="#000000" stroke-width="1"/>
      <polyline fill="none" points="180.0,440.0 146.0,406.0 194.0,358.0" stroke="#000000" stroke-width="1"/>
      <path d="M194.0,358.0 C194.0,358.0 186.83333333333334,355.8333333333333 194.0,358.0 C201.16666666666666,360.1666666666667 222.33333333333334,370.8333333333333 237.0,371.0 C251.66666666666666,371.1666666666667 282.0,359.0 282.0,359.0 " fill="none" stroke="#000000" stroke-width="1"/>
      <polyline fill="none" points="282.0,359.0 330.0,407.0 296.0,441.0" stroke="#000000" stroke-width="1"/>
      <polyline fill="none" points="313.0,458.0 410.0,361.0" stroke="#000000" stroke-width="1"/>
      <polyline fill="none" points="415.0,326.0 415.0,316.0 318.0,316.0" stroke="#000000" stroke-width="1"/>
      <path d="M318.0,316.0 C318.0,316.0 318.5,314.8333333333333 318.0,316.0 C317.5,317.1666666666667 316.1666666666667,320.6666666666667 315.0,323.0 C313.8333333333333,325.3333333333333 311.0,330.0 311.0,330.0 " fill="none" stroke="#000000" stroke-width="1"/>
      <polyline fill="none" points="311.0,330.0 359.0,378.0 393.0,344.0" stroke="#000000" stroke-width="1"/>
      <line stroke="#000000" stroke-width="1" x1="413.0" x2="413.0" y1="316.0" y2="257.0"/>
      <line stroke="#000000" stroke-width="1" x1="409.0" x2="409.0" y1="316.0" y2="257.0"/>
      <line stroke="#000000" stroke-width="1" x1="405.0" x2="405.0" y1="316.0" y2="257.0"/>
      <line stroke="#000000" stroke-width="1" x1="401.0" x2="401.0" y1="316.0" y2="257.0"/>
      <line stroke="#000000" stroke-width="1" x1="397.0" x2="397.0" y1="316.0" y2="257.0"/>
      <line stroke="#000000" stroke-width="1" x1="393.0" x2="393.0" y1="316.0" y2="257.0"/>
      <line stroke="#000000" stroke-width="1" x1="389.0" x2="389.0" y1="316.0" y2="257.0"/>
      <line stroke="#000000" stroke-width="1" x1="385.0" x2="385.0" y1="316.0" y2="257.0"/>
      <line stroke="#000000" stroke-width="1" x1="381.0" x2="381.0" y1="316.0" y2="257.0"/>
      <line stroke="#000000" stroke-width="1" x1="377.0" x2="377.0" y1="316.0" y2="257.0"/>
      <line stroke="#000000" stroke-width="1" x1="373.0" x2="373.0" y1="316.0" y2="257.0"/>
      <line stroke="#000000" stroke-width="1" x1="369.0" x2="369.0" y1="316.0" y2="257.0"/>
      <line stroke="#000000" stroke-width="1" x1="297.0" x2="314.0" y1="440.0" y2="457.0"/>
      <line stroke="#000000" stroke-width="1" x1="299.8284271247462" x2="316.8284271247462" y1="437.1715728752538" y2="454.1715728752538"/>
      <line stroke="#000000" stroke-width="1" x1="302.6568542494924" x2="319.6568542494924" y1="434.3431457505076" y2="451.3431457505076"/>
      <line stroke="#000000" stroke-width="1" x1="305.48528137423864" x2="322.48528137423864" y1="431.51471862576136" y2="448.51471862576136"/>
      <line stroke="#000000" stroke-width="1" x1="308.31370849898485" x2="325.31370849898485" y1="428.68629150101515" y2="445.68629150101515"/>
      <line stroke="#000000" stroke-width="1" x1="311.14213562373106" x2="328.14213562373106" y1="425.85786437626894" y2="442.85786437626894"/>
      <line stroke="#000000" stroke-width="1" x1="313.9705627484773" x2="330.9705627484773" y1="423.0294372515227" y2="440.0294372515227"/>
      <line stroke="#000000" stroke-width="1" x1="316.7989898732235" x2="333.7989898732235" y1="420.2010101267765" y2="437.2010101267765"/>
      <line stroke="#000000" stroke-width="1" x1="319.6274169979697" x2="336.6274169979697" y1="417.3725830020303" y2="434.3725830020303"/>
      <line stroke="#000000" stroke-width="1" x1="322.4558441227159" x2="339.4558441227159" y1="414.5441558772841" y2="431.5441558772841"/>
      <line stroke="#000000" stroke-width="1" x1="325.28427124746213" x2="342.28427124746213" y1="411.71572875253787" y2="428.71572875253787"/>
      <line stroke="#000000" stroke-width="1" x1="328.11269837220834" x2="345.11269837220834" y1="408.88730162779166" y2="425.88730162779166"/>
      <line stroke="#000000" stroke-width="1" x1="392.0" x2="409.0" y1="345.0" y2="362.0"/>
      <line stroke="#000000" stroke-width="1" x1="389.1715728752538" x2="406.1715728752538" y1="347.8284271247462" y2="364.8284271247462"/>
      <line stroke="#000000" stroke-width="1" x1="386.3431457505076" x2="403.3431457505076" y1="350.6568542494924" y2="367.6568542494924"/>
      <line stroke="#000000" stroke-width="1" x1="383.51471862576136" x2="400.51471862576136" y1="353.48528137423864" y2="370.48528137423864"/>
      <line stroke="#000000" stroke-width="1" x1="380.68629150101515" x2="397.68629150101515" y1="356.31370849898485" y2="373.31370849898485"/>
      <line stroke="#000000" stroke-width="1" x1="377.85786437626894" x2="394.85786437626894" y1="359.14213562373106" y2="376.14213562373106"/>
      <line stroke="#000000" stroke-width="1" x1="375.0294372515227" x2="392.0294372515227" y1="361.9705627484773" y2="378.9705627484773"/>
      <line stroke="#000000" stroke-width="1" x1="372.2010101267765" x2="389.2010101267765" y1="364.7989898732235" y2="381.7989898732235"/>
      <line stroke="#000000" stroke-width="1" x1="369.3725830020303" x2="386.3725830020303" y1="367.6274169979697" y2="384.6274169979697"/>
      <line stroke="#000000" stroke-width="1" x1="366.5441558772841" x2="383.5441558772841" y1="370.4558441227159" y2="387.4558441227159"/>
      <line stroke="#000000" stroke-width="1" x1="363.71572875253787" x2="380.71572875253787" y1="373.28427124746213" y2="390.28427124746213"/>
      <line stroke="#000000" stroke-width="1" x1="360.88730162779166" x2="377.88730162779166" y1="376.11269837220834" y2="393.11269837220834"/>
      <line stroke="#000000" stroke-width="1" x1="297.0" x2="314.0" y1="133.0" y2="116.0"/>
      <line stroke="#000000" stroke-width="1" x1="299.8284271247462" x2="316.8284271247462" y1="135.82842712474618" y2="118.82842712474618"/>
      <line stroke="#000000" stroke-width="1" x1="302.6568542494924" x2="319.6568542494924" y1="138.65685424949237" y2="121.65685424949237"/>
      <line stroke="#000000" stroke-width="1" x1="305.48528137423864" x2="322.48528137423864" y1="141.48528137423855" y2="124.48528137423855"/>
      <line stroke="#000000" stroke-width="1" x1="308.31370849898485" x2="325.31370849898485" y1="144.31370849898474" y2="127.31370849898474"/>
      <line stroke="#000000" stroke-width="1" x1="311.14213562373106" x2="328.14213562373106" y1="147.14213562373092" y2="130.14213562373092"/>
      <line stroke="#000000" stroke-width="1" x1="313.9705627484773" x2="330.9705627484773" y1="149.9705627484771" y2="132.9705627484771"/>
      <line stroke="#000000" stroke-width="1" x1="316.7989898732235" x2="333.7989898732235" y1="152.7989898732233" y2="135.7989898732233"/>
      <line stroke="#000000" stroke-width="1" x1="319.6274169979697" x2="336.6274169979697" y1="155.62741699796948" y2="138.62741699796948"/>
      <line stroke="#000000" stroke-width="1" x1="322.4558441227159" x2="339.4558441227159" y1="158.45584412271566" y2="141.45584412271566"/>
      <line stroke="#000000" stroke-width="1" x1="325.28427124746213" x2="342.28427124746213" y1="161.28427124746185" y2="144.28427124746185"/>
      <line stroke="#000000" stroke-width="1" x1="328.11269837220834" x2="345.11269837220834" y1="164.11269837220803" y2="147.11269837220803"/>
      <line stroke="#000000" stroke-width="1" x1="390.0" x2="408.0" y1="228.0" y2="210.0"/>
      <line stroke="#000000" stroke-width="1" x1="387.1715728752538" x2="405.1715728752538" y1="225.17157287525382" y2="207.17157287525382"/>
      <line stroke="#000000" stroke-width="1" x1="384.3431457505076" x2="402.3431457505076" y1="222.34314575050763" y2="204.34314575050763"/>
      <line stroke="#000000" stroke-width="1" x1="381.51471862576136" x2="399.51471862576136" y1="219.51471862576145" y2="201.51471862576145"/>
      <line stroke="#000000" stroke-width="1" x1="378.68629150101515" x2="396.68629150101515" y1="216.68629150101526" y2="198.68629150101526"/>
      <line stroke="#000000" stroke-width="1" x1="375.85786437626894" x2="393.85786437626894" y1="213.85786437626908" y2="195.85786437626908"/>
      <line stroke="#000000" stroke-width="1" x1="373.0294372515227" x2="391.0294372515227" y1="211.0294372515229" y2="193.0294372515229"/>
      <line stroke="#000000" stroke-width="1" x1="370.2010101267765" x2="388.2010101267765" y1="208.2010101267767" y2="190.2010101267767"/>
      <line stroke="#000000" stroke-width="1" x1="367.3725830020303" x2="385.3725830020303" y1="205.37258300203052" y2="187.37258300203052"/>
      <line stroke="#000000" stroke-width="1" x1="364.5441558772841" x2="382.5441558772841" y1="202.54415587728434" y2="184.54415587728434"/>
      <line stroke="#000000" stroke-width="1" x1="361.71572875253787" x2="379.71572875253787" y1="199.71572875253815" y2="181.71572875253815"/>
      <line stroke="#000000" stroke-width="1" x1="358.88730162779166" x2="376.88730162779166" y1="196.88730162779197" y2="178.88730162779197"/>
      <line stroke="#000000" stroke-width="1" x1="179.0" x2="162.0" y1="133.0" y2="116.0"/>
      <line stroke="#000000" stroke-width="1" x1="176.17157287525382" x2="159.17157287525382" y1="135.82842712474618" y2="118.82842712474618"/>
      <line stroke="#000000" stroke-width="1" x1="173.34314575050763" x2="156.34314575050763" y1="138.65685424949237" y2="121.65685424949237"/>
      <line stroke="#000000" stroke-width="1" x1="170.51471862576145" x2="153.51471862576145" y1="141.48528137423855" y2="124.48528137423855"/>
      <line stroke="#000000" stroke-width="1" x1="167.68629150101526" x2="150.68629150101526" y1="144.31370849898474" y2="127.31370849898474"/>
      <line stroke="#000000" stroke-width="1" x1="164.85786437626908" x2="147.85786437626908" y1="147.14213562373092" y2="130.14213562373092"/>
      <line stroke="#000000" stroke-width="1" x1="162.0294372515229" x2="145.0294372515229" y1="149.9705627484771" y2="132.9705627484771"/>
      <line stroke="#000000" stroke-width="1" x1="159.2010101267767" x2="142.2010101267767" y1="152.7989898732233" y2="135.7989898732233"/>
      <line stroke="#000000" stroke-width="1" x1="156.37258300203052" x2="139.37258300203052" y1="155.62741699796948" y2="138.62741699796948"/>
      <line stroke="#000000" stroke-width="1" x1="153.54415587728434" x2="136.54415587728434" y1="158.45584412271566" y2="141.45584412271566"/>
      <line stroke="#000000" stroke-width="1" x1="150.71572875253815" x2="133.71572875253815" y1="161.28427124746185" y2="144.28427124746185"/>
      <line stroke="#000000" stroke-width="1" x1="147.88730162779197" x2="130.88730162779197" y1="164.11269837220803" y2="147.11269837220803"/>
      <line stroke="#000000" stroke-width="1" x1="85.0" x2="68.0" y1="227.0" y2="210.0"/>
      <line stroke="#000000" stroke-width="1" x1="87.82842712474618" x2="70.82842712474618" y1="224.17157287525382" y2="207.17157287525382"/>
      <line stroke="#000000" stroke-width="1" x1="90.65685424949237" x2="73.65685424949237" y1="221.34314575050763" y2="204.34314575050763"/>
      <line stroke="#000000" stroke-width="1" x1="93.48528137423855" x2="76.48528137423855" y1="218.51471862576145" y2="201.51471862576145"/>
      <line stroke="#000000" stroke-width="1" x1="96.31370849898474" x2="79.31370849898474" y1="215.68629150101526" y2="198.68629150101526"/>
      <line stroke="#000000" stroke-width="1" x1="99.14213562373092" x2="82.14213562373092" y1="212.85786437626908" y2="195.85786437626908"/>
      <line stroke="#000000" stroke-width="1" x1="101.97056274847711" x2="84.97056274847711" y1="210.0294372515229" y2="193.0294372515229"/>
      <line stroke="#000000" stroke-width="1" x1="104.79898987322329" x2="87.79898987322329" y1="207.2010101267767" y2="190.2010101267767"/>
      <line stroke="#000000" stroke-width="1" x1="107.62741699796948" x2="90.62741699796948" y1="204.37258300203052" y2="187.37258300203052"/>
      <line stroke="#000000" stroke-width="1" x1="110.45584412271566" x2="93.45584412271566" y1="201.54415587728434" y2="184.54415587728434"/>
      <line stroke="#000000" stroke-width="1" x1="113.28427124746185" x2="96.28427124746185" y1="198.71572875253815" y2="181.71572875253815"/>
      <line stroke="#000000" stroke-width="1" x1="116.11269837220803" x2="99.11269837220803" y1="195.88730162779197" y2="178.88730162779197"/>
      <line stroke="#000000" stroke-width="1" x1="85.0" x2="68.0" y1="345.0" y2="362.0"/>
      <line stroke="#000000" stroke-width="1" x1="87.82842712474618" x2="70.82842712474618" y1="347.8284271247462" y2="364.8284271247462"/>
      <line stroke="#000000" stroke-width="1" x1="90.65685424949237" x2="73.65685424949237" y1="350.6568542494924" y2="367.6568542494924"/>
      <line stroke="#000000" stroke-width="1" x1="93.48528137423855" x2="76.48528137423855" y1="353.48528137423864" y2="370.48528137423864"/>
      <line stroke="#000000" stroke-width="1" x1="96.31370849898474" x2="79.31370849898474" y1="356.31370849898485" y2="373.31370849898485"/>
      <line stroke="#000000" stroke-width="1" x1="99.14213562373092" x2="82.14213562373092" y1="359.14213562373106" y2="376.14213562373106"/>
      <line stroke="#000000" stroke-width="1" x1="101.97056274847711" x2="84.97056274847711" y1="361.9705627484773" y2="378.9705627484773"/>
      <line stroke="#000000" stroke-width="1" x1="104.79898987322329" x2="87.79898987322329" y1="364.7989898732235" y2="381.7989898732235"/>
      <line stroke="#000000" stroke-width="1" x1="107.62741699796948" x2="90.62741699796948" y1="367.6274169979697" y2="384.6274169979697"/>
      <line stroke="#000000" stroke-width="1" x1="110.45584412271566" x2="93.45584412271566" y1="370.4558441227159" y2="387.4558441227159"/>
      <line stroke="#000000" stroke-width="1" x1="113.28427124746185" x2="96.28427124746185" y1="373.28427124746213" y2="390.28427124746213"/>
      <line stroke="#000000" stroke-width="1" x1="116.11269837220803" x2="99.11269837220803" y1="376.11269837220834" y2="393.11269837220834"/>
      <line stroke="#000000" stroke-width="1" x1="179.0" x2="162.0" y1="439.0" y2="456.0"/>
      <line stroke="#000000" stroke-width="1" x1="176.17157287525382" x2="159.17157287525382" y1="436.1715728752538" y2="453.1715728752538"/>
      <line stroke="#000000" stroke-width="1" x1="173.34314575050763" x2="156.34314575050763" y1="433.3431457505076" y2="450.3431457505076"/>
      <line stroke="#000000" stroke-width="1" x1="170.51471862576145" x2="153.51471862576145" y1="430.51471862576136" y2="447.51471862576136"/>
      <line stroke="#000000" stroke-width="1" x1="167.68629150101526" x2="150.68629150101526" y1="427.68629150101515" y2="444.68629150101515"/>
      <line stroke="#000000" stroke-width="1" x1="164.85786437626908" x2="147.85786437626908" y1="424.85786437626894" y2="441.85786437626894"/>
      <line stroke="#000000" stroke-width="1" x1="162.0294372515229" x2="145.0294372515229" y1="422.0294372515227" y2="439.0294372515227"/>
      <line stroke="#000000" stroke-width="1" x1="159.2010101267767" x2="142.2010101267767" y1="419.2010101267765" y2="436.2010101267765"/>
      <line stroke="#000000" stroke-width="1" x1="156.37258300203052" x2="139.37258300203052" y1="416.3725830020303" y2="433.3725830020303"/>
      <line stroke="#000000" stroke-width="1" x1="153.54415587728434" x2="136.54415587728434" y1="413.5441558772841" y2="430.5441558772841"/>
      <line stroke="#000000" stroke-width="1" x1="150.71572875253815" x2="133.71572875253815" y1="410.71572875253787" y2="427.71572875253787"/>
      <line stroke="#000000" stroke-width="1" x1="147.88730162779197" x2="130.88730162779197" y1="407.88730162779166" y2="424.88730162779166"/>
      <text fill="#00afaf" font-family="Arial" font-size="15.0" stroke="none" stroke-width="0" x="13.0" y="290.0">улица Притыцкого</text>
      <text fill="#00afaf" font-family="Arial" font-size="15.0" stroke="none" stroke-width="0" transform="rotate(-90.0,226.0,112.0)" x="226.0" y="127.0">проспект Пушкина</text>
    </g>
  </g>
</svg>
