<?xml version="1.0" encoding="utf-8" ?>
<svg baseProfile="full" height="700.0" version="1.1" width="990.0" xmlns="http://www.w3.org/2000/svg" xmlns:ev="http://www.w3.org/2001/xml-events" xmlns:xlink="http://www.w3.org/1999/xlink">
  <defs>
    <marker id="id77" markerHeight="3" markerUnits="strokeWidth" markerWidth="4" orient="auto" refX="0" refY="5" viewBox="0,0,10,10">
      <path d="M 0 0 L 10 5 L 0 10 z"/>
    </marker>
  </defs>
  <g>
    <rect fill="none" height="700.0" stroke="none" stroke-width="0" width="990.0" x="0.0" y="0.0"/>
    <g transform="rotate(-27.0,495.0,350.0)">
      <polygon fill="#00009f" points="281.0,266.0 281.0,236.0 731.0,236.0 731.0,266.0" stroke="#000000" stroke-width="1"/>
      <polygon fill="#00009f" points="281.0,376.0 281.0,346.0 731.0,346.0 731.0,376.0" stroke="#000000" stroke-width="1"/>
      <text fill="#00009f" font-family="Arial" font-size="25.0" stroke="none" stroke-width="0" x="457.0" y="313.0">Уручье</text>
      <text fill="#00009f" font-family="Arial" font-size="20.0" stroke="none" stroke-width="0" x="660.0" y="396.0">тупик &gt;&gt;</text>
      <text fill="#00009f" font-family="Arial" font-size="20.0" stroke="none" stroke-width="0" x="284.0" y="232.0">&lt;&lt; Борисовский тракт</text>
      <polyline fill="none" points="731.0,266.0 731.0,276.0 804.0,276.0 804.0,285.0 814.0,285.0 814.0,206.0 766.0,206.0" stroke="#000000" stroke-width="1"/>
      <polyline fill="none" points="766.0,188.0 901.0,188.0" stroke="#000000" stroke-width="1"/>
      <polyline fill="none" points="901.0,206.0 853.0,206.0 853.0,514.0 901.0,514.0" stroke="#000000" stroke-width="1"/>
      <polyline fill="none" points="901.0,532.0 719.0,532.0" stroke="#000000" stroke-width="1"/>
      <polyline fill="none" points="719.0,514.0 814.0,514.0 814.0,327.0 804.0,327.0 804.0,336.0 731.0,336.0 731.0,346.0" stroke="#000000" stroke-width="1"/>
      <line stroke="#000000" stroke-width="1" x1="768.0" x2="768.0" y1="206.0" y2="188.0"/>
      <line stroke="#000000" stroke-width="1" x1="772.0" x2="772.0" y1="206.0" y2="188.0"/>
      <line stroke="#000000" stroke-width="1" x1="776.0" x2="776.0" y1="206.0" y2="188.0"/>
      <line stroke="#000000" stroke-width="1" x1="780.0" x2="780.0" y1="206.0" y2="188.0"/>
      <line stroke="#000000" stroke-width="1" x1="784.0" x2="784.0" y1="206.0" y2="188.0"/>
      <line stroke="#000000" stroke-width="1" x1="788.0" x2="788.0" y1="206.0" y2="188.0"/>
      <line stroke="#000000" stroke-width="1" x1="792.0" x2="792.0" y1="206.0" y2="188.0"/>
      <line stroke="#000000" stroke-width="1" x1="796.0" x2="796.0" y1="206.0" y2="188.0"/>
      <line stroke="#000000" stroke-width="1" x1="800.0" x2="800.0" y1="206.0" y2="188.0"/>
      <line stroke="#000000" stroke-width="1" x1="804.0" x2="804.0" y1="206.0" y2="188.0"/>
      <line stroke="#000000" stroke-width="1" x1="808.0" x2="808.0" y1="206.0" y2="188.0"/>
      <line stroke="#000000" stroke-width="1" x1="812.0" x2="812.0" y1="206.0" y2="188.0"/>
      <line stroke="#000000" stroke-width="1" x1="899.0" x2="899.0" y1="206.0" y2="188.0"/>
      <line stroke="#000000" stroke-width="1" x1="895.0" x2="895.0" y1="206.0" y2="188.0"/>
      <line stroke="#000000" stroke-width="1" x1="891.0" x2="891.0" y1="206.0" y2="188.0"/>
      <line stroke="#000000" stroke-width="1" x1="887.0" x2="887.0" y1="206.0" y2="188.0"/>
      <line stroke="#000000" stroke-width="1" x1="883.0" x2="883.0" y1="206.0" y2="188.0"/>
      <line stroke="#000000" stroke-width="1" x1="879.0" x2="879.0" y1="206.0" y2="188.0"/>
      <line stroke="#000000" stroke-width="1" x1="875.0" x2="875.0" y1="206.0" y2="188.0"/>
      <line stroke="#000000" stroke-width="1" x1="871.0" x2="871.0" y1="206.0" y2="188.0"/>
      <line stroke="#000000" stroke-width="1" x1="867.0" x2="867.0" y1="206.0" y2="188.0"/>
      <line stroke="#000000" stroke-width="1" x1="863.0" x2="863.0" y1="206.0" y2="188.0"/>
      <line stroke="#000000" stroke-width="1" x1="859.0" x2="859.0" y1="206.0" y2="188.0"/>
      <line stroke="#000000" stroke-width="1" x1="855.0" x2="855.0" y1="206.0" y2="188.0"/>
      <line stroke="#000000" stroke-width="1" x1="899.0" x2="899.0" y1="514.0" y2="532.0"/>
      <line stroke="#000000" stroke-width="1" x1="895.0" x2="895.0" y1="514.0" y2="532.0"/>
      <line stroke="#000000" stroke-width="1" x1="891.0" x2="891.0" y1="514.0" y2="532.0"/>
      <line stroke="#000000" stroke-width="1" x1="887.0" x2="887.0" y1="514.0" y2="532.0"/>
      <line stroke="#000000" stroke-width="1" x1="883.0" x2="883.0" y1="514.0" y2="532.0"/>
      <line stroke="#000000" stroke-width="1" x1="879.0" x2="879.0" y1="514.0" y2="532.0"/>
      <line stroke="#000000" stroke-width="1" x1="875.0" x2="875.0" y1="514.0" y2="532.0"/>
      <line stroke="#000000" stroke-width="1" x1="871.0" x2="871.0" y1="514.0" y2="532.0"/>
      <line stroke="#000000" stroke-width="1" x1="867.0" x2="867.0" y1="514.0" y2="532.0"/>
      <line stroke="#000000" stroke-width="1" x1="863.0" x2="863.0" y1="514.0" y2="532.0"/>
      <line stroke="#000000" stroke-width="1" x1="859.0" x2="859.0" y1="514.0" y2="532.0"/>
      <line stroke="#000000" stroke-width="1" x1="855.0" x2="855.0" y1="514.0" y2="532.0"/>
      <line stroke="#000000" stroke-width="1" x1="721.0" x2="721.0" y1="514.0" y2="532.0"/>
      <line stroke="#000000" stroke-width="1" x1="725.0" x2="725.0" y1="514.0" y2="532.0"/>
      <line stroke="#000000" stroke-width="1" x1="729.0" x2="729.0" y1="514.0" y2="532.0"/>
      <line stroke="#000000" stroke-width="1" x1="733.0" x2="733.0" y1="514.0" y2="532.0"/>
      <line stroke="#000000" stroke-width="1" x1="737.0" x2="737.0" y1="514.0" y2="532.0"/>
      <line stroke="#000000" stroke-width="1" x1="741.0" x2="741.0" y1="514.0" y2="532.0"/>
      <line stroke="#000000" stroke-width="1" x1="745.0" x2="745.0" y1="514.0" y2="532.0"/>
      <line stroke="#000000" stroke-width="1" x1="749.0" x2="749.0" y1="514.0" y2="532.0"/>
      <line stroke="#000000" stroke-width="1" x1="753.0" x2="753.0" y1="514.0" y2="532.0"/>
      <line stroke="#000000" stroke-width="1" x1="757.0" x2="757.0" y1="514.0" y2="532.0"/>
      <line stroke="#000000" stroke-width="1" x1="761.0" x2="761.0" y1="514.0" y2="532.0"/>
      <line stroke="#000000" stroke-width="1" x1="765.0" x2="765.0" y1="514.0" y2="532.0"/>
      <line stroke="#000000" stroke-width="1" x1="733.0" x2="733.0" y1="336.0" y2="276.0"/>
      <line stroke="#000000" stroke-width="1" x1="737.0" x2="737.0" y1="336.0" y2="276.0"/>
      <line stroke="#000000" stroke-width="1" x1="741.0" x2="741.0" y1="336.0" y2="276.0"/>
      <line stroke="#000000" stroke-width="1" x1="745.0" x2="745.0" y1="336.0" y2="276.0"/>
      <line stroke="#000000" stroke-width="1" x1="749.0" x2="749.0" y1="336.0" y2="276.0"/>
      <line stroke="#000000" stroke-width="1" x1="753.0" x2="753.0" y1="336.0" y2="276.0"/>
      <line stroke="#000000" stroke-width="1" x1="757.0" x2="757.0" y1="336.0" y2="276.0"/>
      <line stroke="#000000" stroke-width="1" x1="761.0" x2="761.0" y1="336.0" y2="276.0"/>
      <line stroke="#000000" stroke-width="1" x1="765.0" x2="765.0" y1="336.0" y2="276.0"/>
      <line stroke="#000000" stroke-width="1" x1="769.0" x2="769.0" y1="336.0" y2="276.0"/>
      <line stroke="#000000" stroke-width="1" x1="773.0" x2="773.0" y1="336.0" y2="276.0"/>
      <line stroke="#000000" stroke-width="1" x1="777.0" x2="777.0" y1="336.0" y2="276.0"/>
      <polygon fill="#d0d0d0" points="804.0,298.0 814.0,298.0 814.0,311.0 804.0,311.0" stroke="#000000" stroke-width="1"/>
      <polyline fill="none" points="293.0,514.0 198.0,514.0 198.0,327.0 209.0,327.0 209.0,336.0 281.0,336.0 281.0,346.0" stroke="#000000" stroke-width="1"/>
      <polyline fill="none" points="281.0,266.0 281.0,276.0 209.0,276.0 209.0,285.0 199.0,285.0 199.0,206.0 247.0,206.0" stroke="#000000" stroke-width="1"/>
      <polyline fill="none" points="247.0,188.0 112.0,188.0" stroke="#000000" stroke-width="1"/>
      <polyline fill="none" points="112.0,206.0 160.0,206.0 160.0,514.0 112.0,514.0" stroke="#000000" stroke-width="1"/>
      <polyline fill="none" points="112.0,532.0 293.0,532.0" stroke="#000000" stroke-width="1"/>
      <line stroke="#000000" stroke-width="1" x1="114.0" x2="114.0" y1="514.0" y2="532.0"/>
      <line stroke="#000000" stroke-width="1" x1="118.0" x2="118.0" y1="514.0" y2="532.0"/>
      <line stroke="#000000" stroke-width="1" x1="122.0" x2="122.0" y1="514.0" y2="532.0"/>
      <line stroke="#000000" stroke-width="1" x1="126.0" x2="126.0" y1="514.0" y2="532.0"/>
      <line stroke="#000000" stroke-width="1" x1="130.0" x2="130.0" y1="514.0" y2="532.0"/>
      <line stroke="#000000" stroke-width="1" x1="134.0" x2="134.0" y1="514.0" y2="532.0"/>
      <line stroke="#000000" stroke-width="1" x1="138.0" x2="138.0" y1="514.0" y2="532.0"/>
      <line stroke="#000000" stroke-width="1" x1="142.0" x2="142.0" y1="514.0" y2="532.0"/>
      <line stroke="#000000" stroke-width="1" x1="146.0" x2="146.0" y1="514.0" y2="532.0"/>
      <line stroke="#000000" stroke-width="1" x1="150.0" x2="150.0" y1="514.0" y2="532.0"/>
      <line stroke="#000000" stroke-width="1" x1="154.0" x2="154.0" y1="514.0" y2="532.0"/>
      <line stroke="#000000" stroke-width="1" x1="158.0" x2="158.0" y1="514.0" y2="532.0"/>
      <line stroke="#000000" stroke-width="1" x1="291.0" x2="291.0" y1="514.0" y2="532.0"/>
      <line stroke="#000000" stroke-width="1" x1="287.0" x2="287.0" y1="514.0" y2="532.0"/>
      <line stroke="#000000" stroke-width="1" x1="283.0" x2="283.0" y1="514.0" y2="532.0"/>
      <line stroke="#000000" stroke-width="1" x1="279.0" x2="279.0" y1="514.0" y2="532.0"/>
      <line stroke="#000000" stroke-width="1" x1="275.0" x2="275.0" y1="514.0" y2="532.0"/>
      <line stroke="#000000" stroke-width="1" x1="271.0" x2="271.0" y1="514.0" y2="532.0"/>
      <line stroke="#000000" stroke-width="1" x1="267.0" x2="267.0" y1="514.0" y2="532.0"/>
      <line stroke="#000000" stroke-width="1" x1="263.0" x2="263.0" y1="514.0" y2="532.0"/>
      <line stroke="#000000" stroke-width="1" x1="259.0" x2="259.0" y1="514.0" y2="532.0"/>
      <line stroke="#000000" stroke-width="1" x1="255.0" x2="255.0" y1="514.0" y2="532.0"/>
      <line stroke="#000000" stroke-width="1" x1="251.0" x2="251.0" y1="514.0" y2="532.0"/>
      <line stroke="#000000" stroke-width="1" x1="247.0" x2="247.0" y1="514.0" y2="532.0"/>
      <line stroke="#000000" stroke-width="1" x1="245.0" x2="245.0" y1="206.0" y2="188.0"/>
      <line stroke="#000000" stroke-width="1" x1="241.0" x2="241.0" y1="206.0" y2="188.0"/>
      <line stroke="#000000" stroke-width="1" x1="237.0" x2="237.0" y1="206.0" y2="188.0"/>
      <line stroke="#000000" stroke-width="1" x1="233.0" x2="233.0" y1="206.0" y2="188.0"/>
      <line stroke="#000000" stroke-width="1" x1="229.0" x2="229.0" y1="206.0" y2="188.0"/>
      <line stroke="#000000" stroke-width="1" x1="225.0" x2="225.0" y1="206.0" y2="188.0"/>
      <line stroke="#000000" stroke-width="1" x1="221.0" x2="221.0" y1="206.0" y2="188.0"/>
      <line stroke="#000000" stroke-width="1" x1="217.0" x2="217.0" y1="206.0" y2="188.0"/>
      <line stroke="#000000" stroke-width="1" x1="213.0" x2="213.0" y1="206.0" y2="188.0"/>
      <line stroke="#000000" stroke-width="1" x1="209.0" x2="209.0" y1="206.0" y2="188.0"/>
      <line stroke="#000000" stroke-width="1" x1="205.0" x2="205.0" y1="206.0" y2="188.0"/>
      <line stroke="#000000" stroke-width="1" x1="201.0" x2="201.0" y1="206.0" y2="188.0"/>
      <line stroke="#000000" stroke-width="1" x1="114.0" x2="114.0" y1="206.0" y2="188.0"/>
      <line stroke="#000000" stroke-width="1" x1="118.0" x2="118.0" y1="206.0" y2="188.0"/>
      <line stroke="#000000" stroke-width="1" x1="122.0" x2="122.0" y1="206.0" y2="188.0"/>
      <line stroke="#000000" stroke-width="1" x1="126.0" x2="126.0" y1="206.0" y2="188.0"/>
      <line stroke="#000000" stroke-width="1" x1="130.0" x2="130.0" y1="206.0" y2="188.0"/>
      <line stroke="#000000" stroke-width="1" x1="134.0" x2="134.0" y1="206.0" y2="188.0"/>
      <line stroke="#000000" stroke-width="1" x1="138.0" x2="138.0" y1="206.0" y2="188.0"/>
      <line stroke="#000000" stroke-width="1" x1="142.0" x2="142.0" y1="206.0" y2="188.0"/>
      <line stroke="#000000" stroke-width="1" x1="146.0" x2="146.0" y1="206.0" y2="188.0"/>
      <line stroke="#000000" stroke-width="1" x1="150.0" x2="150.0" y1="206.0" y2="188.0"/>
      <line stroke="#000000" stroke-width="1" x1="154.0" x2="154.0" y1="206.0" y2="188.0"/>
      <line stroke="#000000" stroke-width="1" x1="158.0" x2="158.0" y1="206.0" y2="188.0"/>
      <line stroke="#000000" stroke-width="1" x1="279.0" x2="279.0" y1="336.0" y2="315.0"/>
      <line stroke="#000000" stroke-width="1" x1="275.0" x2="275.0" y1="336.0" y2="315.0"/>
      <line stroke="#000000" stroke-width="1" x1="271.0" x2="271.0" y1="336.0" y2="315.0"/>
      <line stroke="#000000" stroke-width="1" x1="267.0" x2="267.0" y1="336.0" y2="315.0"/>
      <line stroke="#000000" stroke-width="1" x1="263.0" x2="263.0" y1="336.0" y2="315.0"/>
      <line stroke="#000000" stroke-width="1" x1="259.0" x2="259.0" y1="336.0" y2="315.0"/>
      <line stroke="#000000" stroke-width="1" x1="255.0" x2="255.0" y1="336.0" y2="315.0"/>
      <line stroke="#000000" stroke-width="1" x1="251.0" x2="251.0" y1="336.0" y2="315.0"/>
      <line stroke="#000000" stroke-width="1" x1="247.0" x2="247.0" y1="336.0" y2="315.0"/>
      <line stroke="#000000" stroke-width="1" x1="243.0" x2="243.0" y1="336.0" y2="315.0"/>
      <line stroke="#000000" stroke-width="1" x1="239.0" x2="239.0" y1="336.0" y2="315.0"/>
      <line stroke="#000000" stroke-width="1" x1="235.0" x2="235.0" y1="336.0" y2="315.0"/>
      <line stroke="#000000" stroke-width="1" x1="279.0" x2="279.0" y1="276.0" y2="297.0"/>
      <line stroke="#000000" stroke-width="1" x1="275.0" x2="275.0" y1="276.0" y2="297.0"/>
      <line stroke="#000000" stroke-width="1" x1="271.0" x2="271.0" y1="276.0" y2="297.0"/>
      <line stroke="#000000" stroke-width="1" x1="267.0" x2="267.0" y1="276.0" y2="297.0"/>
      <line stroke="#000000" stroke-width="1" x1="263.0" x2="263.0" y1="276.0" y2="297.0"/>
      <line stroke="#000000" stroke-width="1" x1="259.0" x2="259.0" y1="276.0" y2="297.0"/>
      <line stroke="#000000" stroke-width="1" x1="255.0" x2="255.0" y1="276.0" y2="297.0"/>
      <line stroke="#000000" stroke-width="1" x1="251.0" x2="251.0" y1="276.0" y2="297.0"/>
      <line stroke="#000000" stroke-width="1" x1="247.0" x2="247.0" y1="276.0" y2="297.0"/>
      <line stroke="#000000" stroke-width="1" x1="243.0" x2="243.0" y1="276.0" y2="297.0"/>
      <line stroke="#000000" stroke-width="1" x1="239.0" x2="239.0" y1="276.0" y2="297.0"/>
      <line stroke="#000000" stroke-width="1" x1="235.0" x2="235.0" y1="276.0" y2="297.0"/>
      <polyline fill="none" points="233.0,297.0 311.0,297.0" stroke="#000000" stroke-width="1"/>
      <path d="M311.0,297.0 C311.0,297.0 310.1666666666667,297.6666666666667 311.0,297.0 C311.8333333333333,296.3333333333333 314.0,294.0 316.0,293.0 C318.0,292.0 320.6666666666667,291.0 323.0,291.0 C325.3333333333333,291.0 328.0,292.0 330.0,293.0 C332.0,294.0 335.0,297.0 335.0,297.0 " fill="none" stroke="#000000" stroke-width="1"/>
      <path d="M335.0,315.0 C335.0,315.0 335.8333333333333,314.3333333333333 335.0,315.0 C334.1666666666667,315.6666666666667 332.0,318.0 330.0,319.0 C328.0,320.0 325.3333333333333,321.0 323.0,321.0 C320.6666666666667,321.0 318.0,320.0 316.0,319.0 C314.0,318.0 311.0,315.0 311.0,315.0 " fill="none" stroke="#000000" stroke-width="1"/>
      <polyline fill="none" points="233.0,315.0 311.0,315.0" stroke="#000000" stroke-width="1"/>
      <polygon fill="#d0d0d0" points="199.0,298.0 210.0,298.0 210.0,311.0 199.0,311.0" stroke="#000000" stroke-width="1"/>
      <polygon fill="#d0efff" points="335.0,315.0 335.0,297.0 353.0,297.0 353.0,315.0" stroke="#000000" stroke-width="1"/>
      <text fill="#000000" font-family="Arial" font-size="7.0" stroke="none" stroke-width="0" x="336.0" y="308.0">лифт</text>
      <text fill="#00afaf" font-family="Arial" font-size="15.0" stroke="none" stroke-width="0" x="896.0" y="310.0">проспект Независимости</text>
      <text fill="#00afaf" font-family="Arial" font-size="15.0" stroke="none" stroke-width="0" x="-19.0" y="307.0">проспект Независимости</text>
      <text fill="#00afaf" font-family="Arial" font-size="15.0" stroke="none" stroke-width="0" transform="rotate(55.0,607.0,49.0)" x="607.0" y="64.0">Ложинская улица</text>
    </g>
  </g>
</svg>
