<?xml version="1.0" encoding="utf-8" ?>
<svg baseProfile="full" height="1000.0" version="1.1" width="950.0" xmlns="http://www.w3.org/2000/svg" xmlns:ev="http://www.w3.org/2001/xml-events" xmlns:xlink="http://www.w3.org/1999/xlink">
  <defs>
    <marker id="id10" markerHeight="3" markerUnits="strokeWidth" markerWidth="4" orient="auto" refX="0" refY="5" viewBox="0,0,10,10">
      <path d="M 0 0 L 10 5 L 0 10 z"/>
    </marker>
  </defs>
  <g>
    <rect fill="none" height="1000.0" stroke="none" stroke-width="0" width="950.0" x="0.0" y="0.0"/>
    <g transform="rotate(60.0,475.0,500.0)">
      <polygon fill="#d03036" points="789.0,449.0 789.0,479.0 339.0,479.0 339.0,449.0" stroke="#000000" stroke-width="1"/>
      <polygon fill="#d03036" points="789.0,369.0 789.0,339.0 339.0,339.0 339.0,369.0" stroke="#000000" stroke-width="1"/>
      <text fill="#d03036" font-family="Arial" font-size="20.0" stroke="none" stroke-width="0" x="637.0" y="499.0">Козья слобода &gt;&gt;</text>
      <text fill="#d03036" font-family="Arial" font-size="20.0" stroke="none" stroke-width="0" x="340.0" y="337.0">&lt;&lt; Северный вокзал</text>
      <text fill="#d03036" font-family="Arial" font-size="25.0" stroke="none" stroke-width="0" x="512.0" y="420.0">Яшьлек</text>
      <polyline fill="none" points="339.0,369.0 339.0,387.0 285.0,387.0" stroke="#000000" stroke-width="1"/>
      <polyline fill="none" points="285.0,431.0 339.0,431.0 339.0,449.0" stroke="#000000" stroke-width="1"/>
      <polyline fill="none" points="311.0,387.0 311.0,375.0 285.0,375.0 285.0,353.0 216.0,353.0 216.0,359.0 204.0,359.0 204.0,278.0 259.0,278.0" stroke="#000000" stroke-width="1"/>
      <polyline fill="none" points="311.0,431.0 311.0,443.0 285.0,443.0 285.0,466.0 216.0,466.0 216.0,460.0 204.0,460.0 204.0,540.0 259.0,540.0" stroke="#000000" stroke-width="1"/>
      <polyline fill="none" points="259.0,260.0 180.0,260.0 180.0,557.0 259.0,557.0" stroke="#000000" stroke-width="1"/>
      <line stroke="#000000" stroke-width="1" x1="337.0" x2="337.0" y1="387.0" y2="431.0"/>
      <line stroke="#000000" stroke-width="1" x1="333.0" x2="333.0" y1="387.0" y2="431.0"/>
      <line stroke="#000000" stroke-width="1" x1="329.0" x2="329.0" y1="387.0" y2="431.0"/>
      <line stroke="#000000" stroke-width="1" x1="325.0" x2="325.0" y1="387.0" y2="431.0"/>
      <line stroke="#000000" stroke-width="1" x1="321.0" x2="321.0" y1="387.0" y2="431.0"/>
      <line stroke="#000000" stroke-width="1" x1="317.0" x2="317.0" y1="387.0" y2="431.0"/>
      <line stroke="#000000" stroke-width="1" x1="313.0" x2="313.0" y1="387.0" y2="431.0"/>
      <line stroke="#000000" stroke-width="1" x1="309.0" x2="309.0" y1="387.0" y2="431.0"/>
      <line stroke="#000000" stroke-width="1" x1="305.0" x2="305.0" y1="387.0" y2="431.0"/>
      <line stroke="#000000" stroke-width="1" x1="301.0" x2="301.0" y1="387.0" y2="431.0"/>
      <line stroke="#000000" stroke-width="1" x1="297.0" x2="297.0" y1="387.0" y2="431.0"/>
      <line stroke="#000000" stroke-width="1" x1="293.0" x2="293.0" y1="387.0" y2="431.0"/>
      <line stroke="#000000" stroke-width="1" x1="289.0" x2="289.0" y1="387.0" y2="431.0"/>
      <line stroke="#000000" stroke-width="1" x1="257.0" x2="257.0" y1="260.0" y2="278.0"/>
      <line stroke="#000000" stroke-width="1" x1="253.0" x2="253.0" y1="260.0" y2="278.0"/>
      <line stroke="#000000" stroke-width="1" x1="249.0" x2="249.0" y1="260.0" y2="278.0"/>
      <line stroke="#000000" stroke-width="1" x1="245.0" x2="245.0" y1="260.0" y2="278.0"/>
      <line stroke="#000000" stroke-width="1" x1="241.0" x2="241.0" y1="260.0" y2="278.0"/>
      <line stroke="#000000" stroke-width="1" x1="237.0" x2="237.0" y1="260.0" y2="278.0"/>
      <line stroke="#000000" stroke-width="1" x1="233.0" x2="233.0" y1="260.0" y2="278.0"/>
      <line stroke="#000000" stroke-width="1" x1="229.0" x2="229.0" y1="260.0" y2="278.0"/>
      <line stroke="#000000" stroke-width="1" x1="225.0" x2="225.0" y1="260.0" y2="278.0"/>
      <line stroke="#000000" stroke-width="1" x1="221.0" x2="221.0" y1="260.0" y2="278.0"/>
      <line stroke="#000000" stroke-width="1" x1="217.0" x2="217.0" y1="260.0" y2="278.0"/>
      <line stroke="#000000" stroke-width="1" x1="213.0" x2="213.0" y1="260.0" y2="278.0"/>
      <line stroke="#000000" stroke-width="1" x1="257.0" x2="257.0" y1="540.0" y2="557.0"/>
      <line stroke="#000000" stroke-width="1" x1="253.0" x2="253.0" y1="540.0" y2="557.0"/>
      <line stroke="#000000" stroke-width="1" x1="249.0" x2="249.0" y1="540.0" y2="557.0"/>
      <line stroke="#000000" stroke-width="1" x1="245.0" x2="245.0" y1="540.0" y2="557.0"/>
      <line stroke="#000000" stroke-width="1" x1="241.0" x2="241.0" y1="540.0" y2="557.0"/>
      <line stroke="#000000" stroke-width="1" x1="237.0" x2="237.0" y1="540.0" y2="557.0"/>
      <line stroke="#000000" stroke-width="1" x1="233.0" x2="233.0" y1="540.0" y2="557.0"/>
      <line stroke="#000000" stroke-width="1" x1="229.0" x2="229.0" y1="540.0" y2="557.0"/>
      <line stroke="#000000" stroke-width="1" x1="225.0" x2="225.0" y1="540.0" y2="557.0"/>
      <line stroke="#000000" stroke-width="1" x1="221.0" x2="221.0" y1="540.0" y2="557.0"/>
      <line stroke="#000000" stroke-width="1" x1="217.0" x2="217.0" y1="540.0" y2="557.0"/>
      <line stroke="#000000" stroke-width="1" x1="213.0" x2="213.0" y1="540.0" y2="557.0"/>
      <polygon fill="#d0d0d0" points="216.0,431.0 216.0,387.0 204.0,387.0 204.0,431.0" stroke="#000000" stroke-width="1"/>
      <polygon fill="#ffffff" points="251.0,474.0 251.0,466.0 224.0,466.0 224.0,474.0" stroke="#000000" stroke-width="1"/>
      <text fill="#000000" font-family="Arial" font-size="10.0" stroke="none" stroke-width="0" x="225.0" y="473.0">кассы</text>
      <polygon fill="#ffffff" points="261.0,464.0 255.0,464.0 255.0,458.0 261.0,458.0" stroke="#000000" stroke-width="1"/>
      <polyline fill="none" points="216.0,387.0 260.0,387.0" stroke="#000000" stroke-width="0.5"/>
      <line stroke="#009900" stroke-width="1" x1="260.0" x2="256.0" y1="390.0" y2="390.0"/>
      <line stroke="#009900" stroke-width="1" x1="260.0" x2="256.0" y1="394.0" y2="394.0"/>
      <line stroke="#009900" stroke-width="1" x1="260.0" x2="256.0" y1="398.0" y2="398.0"/>
      <line stroke="#009900" stroke-width="1" x1="260.0" x2="256.0" y1="402.0" y2="402.0"/>
      <line stroke="#009900" stroke-width="1" x1="260.0" x2="256.0" y1="406.0" y2="406.0"/>
      <line stroke="#009900" stroke-width="1" x1="260.0" x2="256.0" y1="410.0" y2="410.0"/>
      <line stroke="#009900" stroke-width="1" x1="260.0" x2="256.0" y1="414.0" y2="414.0"/>
      <line stroke="#009900" stroke-width="1" x1="260.0" x2="256.0" y1="418.0" y2="418.0"/>
      <line stroke="#009900" stroke-width="1" x1="260.0" x2="256.0" y1="422.0" y2="422.0"/>
      <line stroke="#009900" stroke-width="1" x1="260.0" x2="256.0" y1="426.0" y2="426.0"/>
      <line stroke="#009900" stroke-width="1" x1="260.0" x2="256.0" y1="430.0" y2="430.0"/>
      <line stroke="#009900" stroke-width="1" x1="260.0" x2="256.0" y1="434.0" y2="434.0"/>
      <line stroke="#009900" stroke-width="1" x1="260.0" x2="256.0" y1="438.0" y2="438.0"/>
      <line stroke="#009900" stroke-width="1" x1="260.0" x2="256.0" y1="442.0" y2="442.0"/>
      <line stroke="#009900" stroke-width="1" x1="260.0" x2="256.0" y1="446.0" y2="446.0"/>
      <line stroke="#009900" stroke-width="1" x1="260.0" x2="256.0" y1="450.0" y2="450.0"/>
      <line stroke="#009900" stroke-width="1" x1="260.0" x2="256.0" y1="454.0" y2="454.0"/>
      <polyline fill="none" marker-end="url(#id10)" points="219.0,373.0 204.0,373.0" stroke="#ff0000" stroke-width="1"/>
      <polyline fill="none" marker-end="url(#id10)" points="204.0,446.0 219.0,446.0" stroke="#009900" stroke-width="1"/>
      <polyline fill="none" points="789.0,449.0 789.0,431.0 843.0,431.0" stroke="#000000" stroke-width="1"/>
      <polyline fill="none" points="843.0,387.0 789.0,387.0 789.0,369.0" stroke="#000000" stroke-width="1"/>
      <polyline fill="none" points="817.0,431.0 817.0,443.0 843.0,443.0 843.0,465.0 912.0,465.0 912.0,459.0 924.0,459.0 924.0,540.0 869.0,540.0" stroke="#000000" stroke-width="1"/>
      <polyline fill="none" points="817.0,387.0 817.0,375.0 843.0,375.0 843.0,352.0 912.0,352.0 912.0,358.0 924.0,358.0 924.0,278.0 869.0,278.0" stroke="#000000" stroke-width="1"/>
      <polyline fill="none" points="869.0,558.0 948.0,558.0 948.0,261.0 869.0,261.0" stroke="#000000" stroke-width="1"/>
      <line stroke="#000000" stroke-width="1" x1="791.0" x2="791.0" y1="431.0" y2="387.0"/>
      <line stroke="#000000" stroke-width="1" x1="795.0" x2="795.0" y1="431.0" y2="387.0"/>
      <line stroke="#000000" stroke-width="1" x1="799.0" x2="799.0" y1="431.0" y2="387.0"/>
      <line stroke="#000000" stroke-width="1" x1="803.0" x2="803.0" y1="431.0" y2="387.0"/>
      <line stroke="#000000" stroke-width="1" x1="807.0" x2="807.0" y1="431.0" y2="387.0"/>
      <line stroke="#000000" stroke-width="1" x1="811.0" x2="811.0" y1="431.0" y2="387.0"/>
      <line stroke="#000000" stroke-width="1" x1="815.0" x2="815.0" y1="431.0" y2="387.0"/>
      <line stroke="#000000" stroke-width="1" x1="819.0" x2="819.0" y1="431.0" y2="387.0"/>
      <line stroke="#000000" stroke-width="1" x1="823.0" x2="823.0" y1="431.0" y2="387.0"/>
      <line stroke="#000000" stroke-width="1" x1="827.0" x2="827.0" y1="431.0" y2="387.0"/>
      <line stroke="#000000" stroke-width="1" x1="831.0" x2="831.0" y1="431.0" y2="387.0"/>
      <line stroke="#000000" stroke-width="1" x1="835.0" x2="835.0" y1="431.0" y2="387.0"/>
      <line stroke="#000000" stroke-width="1" x1="839.0" x2="839.0" y1="431.0" y2="387.0"/>
      <line stroke="#000000" stroke-width="1" x1="871.0" x2="871.0" y1="558.0" y2="540.0"/>
      <line stroke="#000000" stroke-width="1" x1="875.0" x2="875.0" y1="558.0" y2="540.0"/>
      <line stroke="#000000" stroke-width="1" x1="879.0" x2="879.0" y1="558.0" y2="540.0"/>
      <line stroke="#000000" stroke-width="1" x1="883.0" x2="883.0" y1="558.0" y2="540.0"/>
      <line stroke="#000000" stroke-width="1" x1="887.0" x2="887.0" y1="558.0" y2="540.0"/>
      <line stroke="#000000" stroke-width="1" x1="891.0" x2="891.0" y1="558.0" y2="540.0"/>
      <line stroke="#000000" stroke-width="1" x1="895.0" x2="895.0" y1="558.0" y2="540.0"/>
      <line stroke="#000000" stroke-width="1" x1="899.0" x2="899.0" y1="558.0" y2="540.0"/>
      <line stroke="#000000" stroke-width="1" x1="903.0" x2="903.0" y1="558.0" y2="540.0"/>
      <line stroke="#000000" stroke-width="1" x1="907.0" x2="907.0" y1="558.0" y2="540.0"/>
      <line stroke="#000000" stroke-width="1" x1="911.0" x2="911.0" y1="558.0" y2="540.0"/>
      <line stroke="#000000" stroke-width="1" x1="915.0" x2="915.0" y1="558.0" y2="540.0"/>
      <line stroke="#000000" stroke-width="1" x1="871.0" x2="871.0" y1="278.0" y2="261.0"/>
      <line stroke="#000000" stroke-width="1" x1="875.0" x2="875.0" y1="278.0" y2="261.0"/>
      <line stroke="#000000" stroke-width="1" x1="879.0" x2="879.0" y1="278.0" y2="261.0"/>
      <line stroke="#000000" stroke-width="1" x1="883.0" x2="883.0" y1="278.0" y2="261.0"/>
      <line stroke="#000000" stroke-width="1" x1="887.0" x2="887.0" y1="278.0" y2="261.0"/>
      <line stroke="#000000" stroke-width="1" x1="891.0" x2="891.0" y1="278.0" y2="261.0"/>
      <line stroke="#000000" stroke-width="1" x1="895.0" x2="895.0" y1="278.0" y2="261.0"/>
      <line stroke="#000000" stroke-width="1" x1="899.0" x2="899.0" y1="278.0" y2="261.0"/>
      <line stroke="#000000" stroke-width="1" x1="903.0" x2="903.0" y1="278.0" y2="261.0"/>
      <line stroke="#000000" stroke-width="1" x1="907.0" x2="907.0" y1="278.0" y2="261.0"/>
      <line stroke="#000000" stroke-width="1" x1="911.0" x2="911.0" y1="278.0" y2="261.0"/>
      <line stroke="#000000" stroke-width="1" x1="915.0" x2="915.0" y1="278.0" y2="261.0"/>
      <polygon fill="#d0d0d0" points="912.0,387.0 912.0,431.0 924.0,431.0 924.0,387.0" stroke="#000000" stroke-width="1"/>
      <polygon fill="#ffffff" points="877.0,344.0 877.0,352.0 904.0,352.0 904.0,344.0" stroke="#000000" stroke-width="1"/>
      <text fill="#000000" font-family="Arial" font-size="10.0" stroke="none" stroke-width="0" x="878.0" y="351.0">кассы</text>
      <polygon fill="#ffffff" points="867.0,354.0 873.0,354.0 873.0,360.0 867.0,360.0" stroke="#000000" stroke-width="1"/>
      <polyline fill="none" points="912.0,431.0 868.0,431.0" stroke="#000000" stroke-width="0.5"/>
      <line stroke="#009900" stroke-width="1" x1="868.0" x2="872.0" y1="428.0" y2="428.0"/>
      <line stroke="#009900" stroke-width="1" x1="868.0" x2="872.0" y1="424.0" y2="424.0"/>
      <line stroke="#009900" stroke-width="1" x1="868.0" x2="872.0" y1="420.0" y2="420.0"/>
      <line stroke="#009900" stroke-width="1" x1="868.0" x2="872.0" y1="416.0" y2="416.0"/>
      <line stroke="#009900" stroke-width="1" x1="868.0" x2="872.0" y1="412.0" y2="412.0"/>
      <line stroke="#009900" stroke-width="1" x1="868.0" x2="872.0" y1="408.0" y2="408.0"/>
      <line stroke="#009900" stroke-width="1" x1="868.0" x2="872.0" y1="404.0" y2="404.0"/>
      <line stroke="#009900" stroke-width="1" x1="868.0" x2="872.0" y1="400.0" y2="400.0"/>
      <line stroke="#009900" stroke-width="1" x1="868.0" x2="872.0" y1="396.0" y2="396.0"/>
      <line stroke="#009900" stroke-width="1" x1="868.0" x2="872.0" y1="392.0" y2="392.0"/>
      <line stroke="#009900" stroke-width="1" x1="868.0" x2="872.0" y1="388.0" y2="388.0"/>
      <line stroke="#009900" stroke-width="1" x1="868.0" x2="872.0" y1="384.0" y2="384.0"/>
      <line stroke="#009900" stroke-width="1" x1="868.0" x2="872.0" y1="380.0" y2="380.0"/>
      <line stroke="#009900" stroke-width="1" x1="868.0" x2="872.0" y1="376.0" y2="376.0"/>
      <line stroke="#009900" stroke-width="1" x1="868.0" x2="872.0" y1="372.0" y2="372.0"/>
      <line stroke="#009900" stroke-width="1" x1="868.0" x2="872.0" y1="368.0" y2="368.0"/>
      <line stroke="#009900" stroke-width="1" x1="868.0" x2="872.0" y1="364.0" y2="364.0"/>
      <polyline fill="none" marker-end="url(#id10)" points="909.0,445.0 924.0,445.0" stroke="#ff0000" stroke-width="1"/>
      <polyline fill="none" marker-end="url(#id10)" points="924.0,372.0 909.0,372.0" stroke="#009900" stroke-width="1"/>
      <text fill="#00afaf" font-family="Arial" font-size="15.0" stroke="none" stroke-width="0" transform="rotate(-55.0,-103.0,705.0)" x="-103.0" y="720.0">улица Шамиля Усманова</text>
      <text fill="#00afaf" font-family="Arial" font-size="15.0" stroke="none" stroke-width="0" transform="rotate(-80.0,109.0,239.0)" x="109.0" y="254.0">Волгоградская улица</text>
      <text fill="#00afaf" font-family="Arial" font-size="15.0" stroke="none" stroke-width="0" x="967.0" y="417.0">улица Декабристов</text>
      <text fill="#00afaf" font-family="Arial" font-size="15.0" stroke="none" stroke-width="0" x="-12.0" y="412.0">улица Декабристов</text>
    </g>
  </g>
</svg>
