<?xml version="1.0" encoding="utf-8" ?>
<svg baseProfile="full" height="420.0" version="1.1" width="520.0" xmlns="http://www.w3.org/2000/svg" xmlns:ev="http://www.w3.org/2001/xml-events" xmlns:xlink="http://www.w3.org/1999/xlink">
  <defs>
    <marker id="id14" markerHeight="3" markerUnits="strokeWidth" markerWidth="4" orient="auto" refX="0" refY="5" viewBox="0,0,10,10">
      <path d="M 0 0 L 10 5 L 0 10 z"/>
    </marker>
  </defs>
  <g>
    <rect fill="none" height="420.0" stroke="none" stroke-width="0" width="520.0" x="0.0" y="0.0"/>
    <g transform="rotate(35.0,260.0,210.0)">
      <polygon fill="#085888" points="77.0,208.0 77.0,178.0 527.0,178.0 527.0,208.0" stroke="#000000" stroke-width="1"/>
      <polygon fill="#085888" points="77.0,211.0 77.0,241.0 527.0,241.0 527.0,211.0" stroke="#000000" stroke-width="1"/>
      <polyline fill="none" points="527.0,241.0 527.0,266.0 -5.0,266.0 -5.0,153.0 527.0,153.0 527.0,178.0" stroke="#000000" stroke-width="1"/>
      <polyline fill="none" points="77.0,178.0 77.0,175.0" stroke="#000000" stroke-width="1"/>
      <polyline fill="none" points="77.0,241.0 77.0,244.0" stroke="#000000" stroke-width="1"/>
      <line stroke="#000000" stroke-width="1" x1="75.0" x2="75.0" y1="171.0" y2="153.0"/>
      <line stroke="#000000" stroke-width="1" x1="71.0" x2="71.0" y1="171.0" y2="153.0"/>
      <line stroke="#000000" stroke-width="1" x1="67.0" x2="67.0" y1="171.0" y2="153.0"/>
      <line stroke="#000000" stroke-width="1" x1="63.0" x2="63.0" y1="171.0" y2="153.0"/>
      <line stroke="#000000" stroke-width="1" x1="59.0" x2="59.0" y1="171.0" y2="153.0"/>
      <line stroke="#000000" stroke-width="1" x1="55.0" x2="55.0" y1="171.0" y2="153.0"/>
      <line stroke="#000000" stroke-width="1" x1="51.0" x2="51.0" y1="171.0" y2="153.0"/>
      <line stroke="#000000" stroke-width="1" x1="47.0" x2="47.0" y1="171.0" y2="153.0"/>
      <line stroke="#000000" stroke-width="1" x1="43.0" x2="43.0" y1="171.0" y2="153.0"/>
      <line stroke="#000000" stroke-width="1" x1="39.0" x2="39.0" y1="171.0" y2="153.0"/>
      <line stroke="#000000" stroke-width="1" x1="35.0" x2="35.0" y1="171.0" y2="153.0"/>
      <line stroke="#000000" stroke-width="1" x1="31.0" x2="31.0" y1="171.0" y2="153.0"/>
      <line stroke="#000000" stroke-width="1" x1="75.0" x2="75.0" y1="248.0" y2="266.0"/>
      <line stroke="#000000" stroke-width="1" x1="71.0" x2="71.0" y1="248.0" y2="266.0"/>
      <line stroke="#000000" stroke-width="1" x1="67.0" x2="67.0" y1="248.0" y2="266.0"/>
      <line stroke="#000000" stroke-width="1" x1="63.0" x2="63.0" y1="248.0" y2="266.0"/>
      <line stroke="#000000" stroke-width="1" x1="59.0" x2="59.0" y1="248.0" y2="266.0"/>
      <line stroke="#000000" stroke-width="1" x1="55.0" x2="55.0" y1="248.0" y2="266.0"/>
      <line stroke="#000000" stroke-width="1" x1="51.0" x2="51.0" y1="248.0" y2="266.0"/>
      <line stroke="#000000" stroke-width="1" x1="47.0" x2="47.0" y1="248.0" y2="266.0"/>
      <line stroke="#000000" stroke-width="1" x1="43.0" x2="43.0" y1="248.0" y2="266.0"/>
      <line stroke="#000000" stroke-width="1" x1="39.0" x2="39.0" y1="248.0" y2="266.0"/>
      <line stroke="#000000" stroke-width="1" x1="35.0" x2="35.0" y1="248.0" y2="266.0"/>
      <line stroke="#000000" stroke-width="1" x1="31.0" x2="31.0" y1="248.0" y2="266.0"/>
    </g>
    <g fill="#085888" fill-opacity="0.85" stroke="#000000" stroke-opacity="0.85" transform="rotate(35.0,260.0,210.0)">
      <polygon fill="#ffffff" points="75.0,175.0 158.0,175.0 158.0,268.0 126.0,268.0 126.0,244.0 75.0,244.0" stroke="#ffffff" stroke-width="1"/>
    </g>
    <g fill="#ffffff" fill-opacity="1.0" stroke="#ffffff" stroke-opacity="1.0" transform="rotate(35.0,260.0,210.0)">
      <polyline fill="none" points="61.0,295.0 158.0,295.0 158.0,175.0 77.0,175.0" stroke="#000000" stroke-width="1"/>
      <polyline fill="none" points="61.0,270.0 126.0,270.0 126.0,244.0 77.0,244.0" stroke="#000000" stroke-width="1"/>
      <line stroke="#000000" stroke-width="1" x1="25.0" x2="25.0" y1="244.0" y2="175.0"/>
      <line stroke="#000000" stroke-width="1" x1="29.0" x2="29.0" y1="244.0" y2="175.0"/>
      <line stroke="#000000" stroke-width="1" x1="33.0" x2="33.0" y1="244.0" y2="175.0"/>
      <line stroke="#000000" stroke-width="1" x1="63.0" x2="63.0" y1="270.0" y2="295.0"/>
      <line stroke="#000000" stroke-width="1" x1="67.0" x2="67.0" y1="270.0" y2="295.0"/>
      <line stroke="#000000" stroke-width="1" x1="71.0" x2="71.0" y1="270.0" y2="295.0"/>
      <line stroke="#000000" stroke-width="1" x1="75.0" x2="75.0" y1="270.0" y2="295.0"/>
      <line stroke="#000000" stroke-width="1" x1="79.0" x2="79.0" y1="270.0" y2="295.0"/>
      <line stroke="#000000" stroke-width="1" x1="83.0" x2="83.0" y1="270.0" y2="295.0"/>
      <line stroke="#000000" stroke-width="1" x1="99.0" x2="99.0" y1="270.0" y2="295.0"/>
      <line stroke="#000000" stroke-width="1" x1="103.0" x2="103.0" y1="270.0" y2="295.0"/>
      <line stroke="#000000" stroke-width="1" x1="107.0" x2="107.0" y1="270.0" y2="295.0"/>
      <line stroke="#000000" stroke-width="1" x1="111.0" x2="111.0" y1="270.0" y2="295.0"/>
      <line stroke="#000000" stroke-width="1" x1="115.0" x2="115.0" y1="270.0" y2="295.0"/>
      <line stroke="#000000" stroke-width="1" x1="119.0" x2="119.0" y1="270.0" y2="295.0"/>
      <polygon fill="#d0d0d0" points="17.0,171.0 17.0,175.0 77.0,175.0 77.0,171.0" stroke="#000000" stroke-width="1"/>
      <polygon fill="#d0d0d0" points="17.0,244.0 17.0,248.0 77.0,248.0 77.0,244.0" stroke="#000000" stroke-width="1"/>
      <polyline fill="none" points="120.0,175.0 120.0,167.0 149.0,167.0 149.0,175.0" stroke="#000000" stroke-width="1"/>
      <text fill="#000000" font-family="Arial" font-size="10.0" stroke="none" stroke-width="0" x="122.0" y="174.0">кассы</text>
      <polygon fill="none" points="104.0,207.0 109.0,207.0 109.0,212.0 104.0,212.0" stroke="#000000" stroke-width="1"/>
      <line stroke="#009900" stroke-width="1" x1="108.0" x2="104.0" y1="179.0" y2="179.0"/>
      <line stroke="#009900" stroke-width="1" x1="108.0" x2="104.0" y1="183.0" y2="183.0"/>
      <line stroke="#009900" stroke-width="1" x1="108.0" x2="104.0" y1="187.0" y2="187.0"/>
      <line stroke="#009900" stroke-width="1" x1="108.0" x2="104.0" y1="191.0" y2="191.0"/>
      <line stroke="#009900" stroke-width="1" x1="108.0" x2="104.0" y1="195.0" y2="195.0"/>
      <line stroke="#009900" stroke-width="1" x1="108.0" x2="104.0" y1="199.0" y2="199.0"/>
      <line stroke="#009900" stroke-width="1" x1="108.0" x2="104.0" y1="203.0" y2="203.0"/>
      <line stroke="#ff0000" stroke-width="1" x1="108.0" x2="104.0" y1="216.0" y2="216.0"/>
      <line stroke="#ff0000" stroke-width="1" x1="108.0" x2="104.0" y1="220.0" y2="220.0"/>
      <line stroke="#ff0000" stroke-width="1" x1="108.0" x2="104.0" y1="224.0" y2="224.0"/>
      <line stroke="#ff0000" stroke-width="1" x1="108.0" x2="104.0" y1="228.0" y2="228.0"/>
      <line stroke="#ff0000" stroke-width="1" x1="108.0" x2="104.0" y1="232.0" y2="232.0"/>
      <line stroke="#ff0000" stroke-width="1" x1="108.0" x2="104.0" y1="236.0" y2="236.0"/>
      <line stroke="#ff0000" stroke-width="1" x1="108.0" x2="104.0" y1="240.0" y2="240.0"/>
      <polyline fill="none" marker-end="url(#id14)" points="27.0,257.0 11.0,257.0" stroke="#ff0000" stroke-width="1"/>
      <polyline fill="none" marker-end="url(#id14)" points="125.0,278.0 109.0,278.0" stroke="#ff0000" stroke-width="1"/>
      <polyline fill="none" marker-end="url(#id14)" points="68.0,226.0 84.0,226.0" stroke="#ff0000" stroke-width="1"/>
      <polyline fill="none" marker-end="url(#id14)" points="11.0,162.0 27.0,162.0" stroke="#009900" stroke-width="1"/>
      <polyline fill="none" marker-end="url(#id14)" points="109.0,288.0 125.0,288.0" stroke="#009900" stroke-width="1"/>
      <polyline fill="none" marker-end="url(#id14)" points="84.0,193.0 68.0,193.0" stroke="#009900" stroke-width="1"/>
      <text fill="#000000" font-family="Arial" font-size="20.0" stroke="none" stroke-width="0" x="163.0" y="238.0">&lt;&lt; тупик</text>
      <text fill="#000000" font-family="Arial" font-size="20.0" stroke="none" stroke-width="0" x="382.0" y="196.0">Бурнаковская &gt;&gt;</text>
      <text fill="#000000" font-family="Arial" font-size="25.0" stroke="none" stroke-width="0" x="235.0" y="218.0">Буревестник</text>
      <text fill="#ffffff" font-family="Arial" font-size="20.0" stroke="none" stroke-width="0" x="162.0" y="237.0">&lt;&lt; тупик</text>
      <text fill="#ffffff" font-family="Arial" font-size="20.0" stroke="none" stroke-width="0" x="381.0" y="195.0">Бурнаковская &gt;&gt;</text>
      <text fill="#ffffff" font-family="Arial" font-size="25.0" stroke="none" stroke-width="0" x="234.0" y="217.0">Буревестник</text>
      <text fill="#00afaf" font-family="Arial" font-size="15.0" stroke="none" stroke-width="0" x="182.0" y="360.0">Сормовское шоссе</text>
    </g>
  </g>
</svg>
