<?xml version="1.0" encoding="utf-8" ?>
<svg baseProfile="full" height="100%" version="1.1" width="100%" xmlns="http://www.w3.org/2000/svg" xmlns:ev="http://www.w3.org/2001/xml-events" xmlns:xlink="http://www.w3.org/1999/xlink"><defs><marker id="id118" markerHeight="3" markerUnits="strokeWidth" markerWidth="4" orient="auto" refX="0" refY="5" viewBox="0,0,10,10"><path d="M 0 0 L 10 5 L 0 10 z" /></marker></defs><g transform="scale(0.5) rotate(35.0,260,210)"><rect fill="none" height="420" stroke="none" width="520" x="0" y="0" /><polygon fill="#085888" points="77,208 77,178 527,178 527,208" stroke="#000000" stroke-width="1" /><polygon fill="#085888" points="77,211 77,241 527,241 527,211" stroke="#000000" stroke-width="1" /><polyline fill="none" points="527,241 527,266 -5,266 -5,153 527,153 527,178" stroke="#000000" stroke-width="1" /><polyline fill="none" points="77,178 77,175" stroke="#000000" stroke-width="1" /><polyline fill="none" points="77,241 77,244" stroke="#000000" stroke-width="1" /><line stroke="#000000" stroke-width="1" x1="75" x2="75" y1="171" y2="153" /><line stroke="#000000" stroke-width="1" x1="71" x2="71" y1="171" y2="153" /><line stroke="#000000" stroke-width="1" x1="67" x2="67" y1="171" y2="153" /><line stroke="#000000" stroke-width="1" x1="63" x2="63" y1="171" y2="153" /><line stroke="#000000" stroke-width="1" x1="59" x2="59" y1="171" y2="153" /><line stroke="#000000" stroke-width="1" x1="55" x2="55" y1="171" y2="153" /><line stroke="#000000" stroke-width="1" x1="51" x2="51" y1="171" y2="153" /><line stroke="#000000" stroke-width="1" x1="47" x2="47" y1="171" y2="153" /><line stroke="#000000" stroke-width="1" x1="43" x2="43" y1="171" y2="153" /><line stroke="#000000" stroke-width="1" x1="39" x2="39" y1="171" y2="153" /><line stroke="#000000" stroke-width="1" x1="35" x2="35" y1="171" y2="153" /><line stroke="#000000" stroke-width="1" x1="31" x2="31" y1="171" y2="153" /><line stroke="#000000" stroke-width="1" x1="75" x2="75" y1="248" y2="266" /><line stroke="#000000" stroke-width="1" x1="71" x2="71" y1="248" y2="266" /><line stroke="#000000" stroke-width="1" x1="67" x2="67" y1="248" y2="266" /><line stroke="#000000" stroke-width="1" x1="63" x2="63" y1="248" y2="266" /><line stroke="#000000" stroke-width="1" x1="59" x2="59" y1="248" y2="266" /><line stroke="#000000" stroke-width="1" x1="55" x2="55" y1="248" y2="266" /><line stroke="#000000" stroke-width="1" x1="51" x2="51" y1="248" y2="266" /><line stroke="#000000" stroke-width="1" x1="47" x2="47" y1="248" y2="266" /><line stroke="#000000" stroke-width="1" x1="43" x2="43" y1="248" y2="266" /><line stroke="#000000" stroke-width="1" x1="39" x2="39" y1="248" y2="266" /><line stroke="#000000" stroke-width="1" x1="35" x2="35" y1="248" y2="266" /><line stroke="#000000" stroke-width="1" x1="31" x2="31" y1="248" y2="266" /><g fill="#085888" fill-opacity="0.85" stroke="#000000" stroke-opacity="0.85"><polygon fill="#FFFFFF" points="75,175 158,175 158,268 126,268 126,244 75,244" stroke="#FFFFFF" stroke-width="1" /></g><g fill="#FFFFFF" fill-opacity="1.0" stroke="#FFFFFF" stroke-opacity="1.0"><polyline fill="none" points="61,295 158,295 158,175 77,175" stroke="#000000" stroke-width="1" /><polyline fill="none" points="61,270 126,270 126,244 77,244" stroke="#000000" stroke-width="1" /><line stroke="#000000" stroke-width="1" x1="25" x2="25" y1="244" y2="175" /><line stroke="#000000" stroke-width="1" x1="29" x2="29" y1="244" y2="175" /><line stroke="#000000" stroke-width="1" x1="33" x2="33" y1="244" y2="175" /><line stroke="#000000" stroke-width="1" x1="63" x2="63" y1="270" y2="295" /><line stroke="#000000" stroke-width="1" x1="67" x2="67" y1="270" y2="295" /><line stroke="#000000" stroke-width="1" x1="71" x2="71" y1="270" y2="295" /><line stroke="#000000" stroke-width="1" x1="75" x2="75" y1="270" y2="295" /><line stroke="#000000" stroke-width="1" x1="79" x2="79" y1="270" y2="295" /><line stroke="#000000" stroke-width="1" x1="83" x2="83" y1="270" y2="295" /><line stroke="#000000" stroke-width="1" x1="99" x2="99" y1="270" y2="295" /><line stroke="#000000" stroke-width="1" x1="103" x2="103" y1="270" y2="295" /><line stroke="#000000" stroke-width="1" x1="107" x2="107" y1="270" y2="295" /><line stroke="#000000" stroke-width="1" x1="111" x2="111" y1="270" y2="295" /><line stroke="#000000" stroke-width="1" x1="115" x2="115" y1="270" y2="295" /><line stroke="#000000" stroke-width="1" x1="119" x2="119" y1="270" y2="295" /><polygon fill="#D0D0D0" points="17,171 17,175 77,175 77,171" stroke="#000000" stroke-width="1" /><polygon fill="#D0D0D0" points="17,244 17,248 77,248 77,244" stroke="#000000" stroke-width="1" /><polyline fill="none" points="120,175 120,167 149,167 149,175" stroke="#000000" stroke-width="1" /><text fill="#000000" font-family="Arial" font-size="10" stroke="none" x="122" y="174.0">кассы</text><polygon fill="none" points="104,207 109,207 109,212 104,212" stroke="#000000" stroke-width="1" /><line stroke="#009900" stroke-width="1" x1="108" x2="104" y1="179" y2="179" /><line stroke="#009900" stroke-width="1" x1="108" x2="104" y1="183" y2="183" /><line stroke="#009900" stroke-width="1" x1="108" x2="104" y1="187" y2="187" /><line stroke="#009900" stroke-width="1" x1="108" x2="104" y1="191" y2="191" /><line stroke="#009900" stroke-width="1" x1="108" x2="104" y1="195" y2="195" /><line stroke="#009900" stroke-width="1" x1="108" x2="104" y1="199" y2="199" /><line stroke="#009900" stroke-width="1" x1="108" x2="104" y1="203" y2="203" /><line stroke="#FF0000" stroke-width="1" x1="108" x2="104" y1="216" y2="216" /><line stroke="#FF0000" stroke-width="1" x1="108" x2="104" y1="220" y2="220" /><line stroke="#FF0000" stroke-width="1" x1="108" x2="104" y1="224" y2="224" /><line stroke="#FF0000" stroke-width="1" x1="108" x2="104" y1="228" y2="228" /><line stroke="#FF0000" stroke-width="1" x1="108" x2="104" y1="232" y2="232" /><line stroke="#FF0000" stroke-width="1" x1="108" x2="104" y1="236" y2="236" /><line stroke="#FF0000" stroke-width="1" x1="108" x2="104" y1="240" y2="240" /><polyline fill="none" marker-end="url(#id118)" points="27,257 11,257" stroke="#FF0000" stroke-width="1" /><polyline fill="none" marker-end="url(#id118)" points="125,278 109,278" stroke="#FF0000" stroke-width="1" /><polyline fill="none" marker-end="url(#id118)" points="68,226 84,226" stroke="#FF0000" stroke-width="1" /><polyline fill="none" marker-end="url(#id118)" points="11,162 27,162" stroke="#009900" stroke-width="1" /><polyline fill="none" marker-end="url(#id118)" points="109,288 125,288" stroke="#009900" stroke-width="1" /><polyline fill="none" marker-end="url(#id118)" points="84,193 68,193" stroke="#009900" stroke-width="1" /><text fill="#000000" font-family="Arial" font-size="20" stroke="none" x="163" y="238.0">&lt;&lt; тупик</text><text fill="#000000" font-family="Arial" font-size="20" stroke="none" x="382" y="196.0">Бурнаковская &gt;&gt;</text><text fill="#000000" font-family="Arial" font-size="25" stroke="none" x="235" y="218.0">Буревестник</text><text fill="#FFFFFF" font-family="Arial" font-size="20" stroke="none" x="162" y="237.0">&lt;&lt; тупик</text><text fill="#FFFFFF" font-family="Arial" font-size="20" stroke="none" x="381" y="195.0">Бурнаковская &gt;&gt;</text><text fill="#FFFFFF" font-family="Arial" font-size="25" stroke="none" x="234" y="217.0">Буревестник</text><text fill="#00AFAF" font-family="Arial" font-size="15" stroke="none" x="182" y="360.0">Сормовское шоссе</text></g></g></svg>