<svg xmlns="http://www.w3.org/2000/svg" version="1.1">
<defs>
    <marker id="arrow"
      viewBox="0 0 10 10" refX="0" refY="5"
      markerUnits="strokeWidth"
      markerWidth="4" markerHeight="3"
      orient="auto">
      <path d="M 0 0 L 10 5 L 0 10 z" />
    </marker>
  </defs>
<g stroke="#000000" fill="none" stroke-opacity="1.0" fill-opacity="1.0" transform="scale(0.5)">
<rect x="0" y="0" width="910" height="900" stroke-width="0" fill="none" />
<g stroke="#000000" fill="none" stroke-opacity="1.0" fill-opacity="1.0" transform="scale(0.5)">
</g>
<g transform="rotate(40.0 455 450)" >
<g stroke="#000000" fill="none" stroke-opacity="1.0" fill-opacity="1.0" transform="scale(0.5)">
</g>
<g stroke="#000000" fill="#085888" stroke-opacity="1.0" fill-opacity="1.0" transform="scale(0.5)">
<polygon points="601,403  151,403  151,373  601,373" stroke-width="1" />
<polygon points="151,513  151,483  601,483  601,513" stroke-width="1" />
</g>
<g stroke="#085888" fill="none" stroke-opacity="1.0" fill-opacity="1.0" transform="scale(0.5)">
<text x=" 151" y="533.0" font-family="Arial" font-size=" 20" fill="#085888" stroke-width="0">&lt;&lt; Буревестник</text>
<text x=" 467" y="370.0" font-family="Arial" font-size=" 20" fill="#085888" stroke-width="0">Канавинская &gt;&gt;</text>
<text x=" 287" y="450.0" font-family="Arial" font-size=" 25" fill="#085888" stroke-width="0">Бурнаковская</text>
</g>
<g stroke="#000000" fill="none" stroke-opacity="1.0" fill-opacity="1.0" transform="scale(0.5)">
<polyline points="683,322  733,322  733,399  719,399  719,392  653,392  653,413  601,413  601,403" stroke-width="1" fill="none"  />
<polyline points="880,324  855,281  756,338  756,564  806,564" stroke-width="1" fill="none"  />
<polyline points="806,581  733,581  733,486  719,486  719,494  653,494  653,472  601,472  601,483" stroke-width="1" fill="none"  />
<polyline points="683,305  755,305  755,319  861,258  895,316" stroke-width="1" fill="none"  />
<line x1="605" y1="472" x2="605" y2="413" stroke-width="1" />
<line x1="609" y1="472" x2="609" y2="413" stroke-width="1" />
<line x1="613" y1="472" x2="613" y2="413" stroke-width="1" />
<line x1="617" y1="472" x2="617" y2="413" stroke-width="1" />
<line x1="621" y1="472" x2="621" y2="413" stroke-width="1" />
<line x1="625" y1="472" x2="625" y2="413" stroke-width="1" />
<line x1="629" y1="472" x2="629" y2="413" stroke-width="1" />
<line x1="633" y1="472" x2="633" y2="413" stroke-width="1" />
<line x1="637" y1="472" x2="637" y2="413" stroke-width="1" />
<line x1="641" y1="472" x2="641" y2="413" stroke-width="1" />
<line x1="645" y1="472" x2="645" y2="413" stroke-width="1" />
<line x1="649" y1="472" x2="649" y2="413" stroke-width="1" />
<line x1="879" y1="322" x2="894" y2="314" stroke-width="1" />
<line x1="876.96805992" y1="318.554536386" x2="891.96805992" y2="310.554536386" stroke-width="1" />
<line x1="874.93611984" y1="315.109072773" x2="889.93611984" y2="307.109072773" stroke-width="1" />
<line x1="872.904179761" y1="311.663609159" x2="887.904179761" y2="303.663609159" stroke-width="1" />
<line x1="870.872239681" y1="308.218145546" x2="885.872239681" y2="300.218145546" stroke-width="1" />
<line x1="868.840299601" y1="304.772681932" x2="883.840299601" y2="296.772681932" stroke-width="1" />
<line x1="866.808359521" y1="301.327218319" x2="881.808359521" y2="293.327218319" stroke-width="1" />
<line x1="864.776419442" y1="297.881754705" x2="879.776419442" y2="289.881754705" stroke-width="1" />
<line x1="862.744479362" y1="294.436291092" x2="877.744479362" y2="286.436291092" stroke-width="1" />
<line x1="860.712539282" y1="290.990827478" x2="875.712539282" y2="282.990827478" stroke-width="1" />
<line x1="858.680599202" y1="287.545363865" x2="873.680599202" y2="279.545363865" stroke-width="1" />
<line x1="856.648659122" y1="284.099900251" x2="871.648659122" y2="276.099900251" stroke-width="1" />
<line x1="804" y1="564" x2="804" y2="581" stroke-width="1" />
<line x1="800" y1="564" x2="800" y2="581" stroke-width="1" />
<line x1="796" y1="564" x2="796" y2="581" stroke-width="1" />
<line x1="792" y1="564" x2="792" y2="581" stroke-width="1" />
<line x1="788" y1="564" x2="788" y2="581" stroke-width="1" />
<line x1="784" y1="564" x2="784" y2="581" stroke-width="1" />
<line x1="780" y1="564" x2="780" y2="581" stroke-width="1" />
<line x1="776" y1="564" x2="776" y2="581" stroke-width="1" />
<line x1="772" y1="564" x2="772" y2="581" stroke-width="1" />
<line x1="768" y1="564" x2="768" y2="581" stroke-width="1" />
<line x1="764" y1="564" x2="764" y2="581" stroke-width="1" />
<line x1="760" y1="564" x2="760" y2="581" stroke-width="1" />
<line x1="685" y1="322" x2="685" y2="305" stroke-width="1" />
<line x1="689" y1="322" x2="689" y2="305" stroke-width="1" />
<line x1="693" y1="322" x2="693" y2="305" stroke-width="1" />
<line x1="697" y1="322" x2="697" y2="305" stroke-width="1" />
<line x1="701" y1="322" x2="701" y2="305" stroke-width="1" />
<line x1="705" y1="322" x2="705" y2="305" stroke-width="1" />
<line x1="709" y1="322" x2="709" y2="305" stroke-width="1" />
<line x1="713" y1="322" x2="713" y2="305" stroke-width="1" />
<line x1="717" y1="322" x2="717" y2="305" stroke-width="1" />
<line x1="721" y1="322" x2="721" y2="305" stroke-width="1" />
<line x1="725" y1="322" x2="725" y2="305" stroke-width="1" />
<line x1="729" y1="322" x2="729" y2="305" stroke-width="1" />
</g>
<g stroke="#000000" fill="#D0D0D0" stroke-opacity="1.0" fill-opacity="1.0" transform="scale(0.5)">
<polygon points="733,421  719,421  719,464  733,464" stroke-width="1" />
</g>
<g stroke="#000000" fill="#FFFFFF" stroke-opacity="1.0" fill-opacity="1.0" transform="scale(0.5)">
<polyline points="683,392  683,384  712,384  712,392" stroke-width="1" fill="none"  />
</g>
<g stroke="#000000" fill="none" stroke-opacity="1.0" fill-opacity="1.0" transform="scale(0.5)">
<text x=" 685" y="391.0" font-family="Arial" font-size=" 10" fill="#000000" stroke-width="0">кассы</text>
</g>
<g stroke="#000000" fill="none" stroke-opacity="1.0" fill-opacity="1.0" transform="scale(0.5)">
<polygon points="673,394  679,394  679,400  673,400" stroke-width="1" />
</g>
<g stroke="#009900" fill="none" stroke-opacity="1.0" fill-opacity="1.0" transform="scale(0.5)">
<line x1="678" y1="404" x2="674" y2="404" stroke-width="1" />
<line x1="678" y1="408" x2="674" y2="408" stroke-width="1" />
<line x1="678" y1="412" x2="674" y2="412" stroke-width="1" />
<line x1="678" y1="416" x2="674" y2="416" stroke-width="1" />
<line x1="678" y1="420" x2="674" y2="420" stroke-width="1" />
<line x1="678" y1="424" x2="674" y2="424" stroke-width="1" />
<line x1="678" y1="428" x2="674" y2="428" stroke-width="1" />
<line x1="678" y1="432" x2="674" y2="432" stroke-width="1" />
<line x1="678" y1="436" x2="674" y2="436" stroke-width="1" />
<line x1="678" y1="440" x2="674" y2="440" stroke-width="1" />
</g>
<g stroke="#FF0000" fill="none" stroke-opacity="1.0" fill-opacity="1.0" transform="scale(0.5)">
<line x1="678" y1="444" x2="674" y2="444" stroke-width="1" />
<line x1="678" y1="448" x2="674" y2="448" stroke-width="1" />
<line x1="678" y1="452" x2="674" y2="452" stroke-width="1" />
<line x1="678" y1="456" x2="674" y2="456" stroke-width="1" />
<line x1="678" y1="460" x2="674" y2="460" stroke-width="1" />
<line x1="678" y1="464" x2="674" y2="464" stroke-width="1" />
<line x1="678" y1="468" x2="674" y2="468" stroke-width="1" />
<line x1="678" y1="472" x2="674" y2="472" stroke-width="1" />
<line x1="678" y1="476" x2="674" y2="476" stroke-width="1" />
<line x1="678" y1="480" x2="674" y2="480" stroke-width="1" />
<line x1="678" y1="484" x2="674" y2="484" stroke-width="1" />
<line x1="678" y1="488" x2="674" y2="488" stroke-width="1" />
<line x1="678" y1="492" x2="674" y2="492" stroke-width="1" />
</g>
<g stroke="#000000" fill="none" stroke-opacity="1.0" fill-opacity="1.0" transform="scale(0.5)">
<polyline points="-54,305  19,305  19,399  33,399  33,392  99,392  99,413  151,413  151,403" stroke-width="1" fill="none"  />
<polyline points="-54,322  -4,322  -4,494  19,494  19,487  33,487  33,494  99,494  99,472  151,472  151,483" stroke-width="1" fill="none"  />
<line x1="147" y1="472" x2="147" y2="413" stroke-width="1" />
<line x1="143" y1="472" x2="143" y2="413" stroke-width="1" />
<line x1="139" y1="472" x2="139" y2="413" stroke-width="1" />
<line x1="135" y1="472" x2="135" y2="413" stroke-width="1" />
<line x1="131" y1="472" x2="131" y2="413" stroke-width="1" />
<line x1="127" y1="472" x2="127" y2="413" stroke-width="1" />
<line x1="123" y1="472" x2="123" y2="413" stroke-width="1" />
<line x1="119" y1="472" x2="119" y2="413" stroke-width="1" />
<line x1="115" y1="472" x2="115" y2="413" stroke-width="1" />
<line x1="111" y1="472" x2="111" y2="413" stroke-width="1" />
<line x1="107" y1="472" x2="107" y2="413" stroke-width="1" />
<line x1="103" y1="472" x2="103" y2="413" stroke-width="1" />
<line x1="-52" y1="322" x2="-52" y2="305" stroke-width="1" />
<line x1="-48" y1="322" x2="-48" y2="305" stroke-width="1" />
<line x1="-44" y1="322" x2="-44" y2="305" stroke-width="1" />
<line x1="-40" y1="322" x2="-40" y2="305" stroke-width="1" />
<line x1="-36" y1="322" x2="-36" y2="305" stroke-width="1" />
<line x1="-32" y1="322" x2="-32" y2="305" stroke-width="1" />
<line x1="-28" y1="322" x2="-28" y2="305" stroke-width="1" />
<line x1="-24" y1="322" x2="-24" y2="305" stroke-width="1" />
<line x1="-20" y1="322" x2="-20" y2="305" stroke-width="1" />
<line x1="-16" y1="322" x2="-16" y2="305" stroke-width="1" />
<line x1="-12" y1="322" x2="-12" y2="305" stroke-width="1" />
<line x1="-8" y1="322" x2="-8" y2="305" stroke-width="1" />
</g>
<g stroke="#000000" fill="#D0D0D0" stroke-opacity="1.0" fill-opacity="1.0" transform="scale(0.5)">
<polygon points="19,464  33,464  33,421  19,421" stroke-width="1" />
</g>
<g stroke="#000000" fill="#FFFFFF" stroke-opacity="1.0" fill-opacity="1.0" transform="scale(0.5)">
<polyline points="70,494  70,502  41,502  41,494" stroke-width="1" fill="none"  />
</g>
<g stroke="#000000" fill="none" stroke-opacity="1.0" fill-opacity="1.0" transform="scale(0.5)">
<text x=" 44" y="501.0" font-family="Arial" font-size=" 10" fill="#000000" stroke-width="0">кассы</text>
</g>
<g stroke="#000000" fill="none" stroke-opacity="1.0" fill-opacity="1.0" transform="scale(0.5)">
<polygon points="80,492  74,492  74,486  80,486" stroke-width="1" />
</g>
<g stroke="#009900" fill="none" stroke-opacity="1.0" fill-opacity="1.0" transform="scale(0.5)">
<line x1="75" y1="482" x2="79" y2="482" stroke-width="1" />
<line x1="75" y1="478" x2="79" y2="478" stroke-width="1" />
<line x1="75" y1="474" x2="79" y2="474" stroke-width="1" />
<line x1="75" y1="470" x2="79" y2="470" stroke-width="1" />
<line x1="75" y1="466" x2="79" y2="466" stroke-width="1" />
<line x1="75" y1="462" x2="79" y2="462" stroke-width="1" />
<line x1="75" y1="458" x2="79" y2="458" stroke-width="1" />
<line x1="75" y1="454" x2="79" y2="454" stroke-width="1" />
<line x1="75" y1="450" x2="79" y2="450" stroke-width="1" />
<line x1="75" y1="446" x2="79" y2="446" stroke-width="1" />
</g>
<g stroke="#FF0000" fill="none" stroke-opacity="1.0" fill-opacity="1.0" transform="scale(0.5)">
<line x1="75" y1="442" x2="79" y2="442" stroke-width="1" />
<line x1="75" y1="438" x2="79" y2="438" stroke-width="1" />
<line x1="75" y1="434" x2="79" y2="434" stroke-width="1" />
<line x1="75" y1="430" x2="79" y2="430" stroke-width="1" />
<line x1="75" y1="426" x2="79" y2="426" stroke-width="1" />
<line x1="75" y1="422" x2="79" y2="422" stroke-width="1" />
<line x1="75" y1="418" x2="79" y2="418" stroke-width="1" />
<line x1="75" y1="414" x2="79" y2="414" stroke-width="1" />
<line x1="75" y1="410" x2="79" y2="410" stroke-width="1" />
<line x1="75" y1="406" x2="79" y2="406" stroke-width="1" />
<line x1="75" y1="402" x2="79" y2="402" stroke-width="1" />
<line x1="75" y1="398" x2="79" y2="398" stroke-width="1" />
<line x1="75" y1="394" x2="79" y2="394" stroke-width="1" />
</g>
<g stroke="#00AFAF" fill="none" stroke-opacity="1.0" fill-opacity="1.0" transform="scale(0.5)">
<text x=" 797" y="441.0" font-family="Arial" font-size=" 15" fill="#00AFAF" stroke-width="0">Сормовское шоссе</text>
<text x=" -142" y="437.0" font-family="Arial" font-size=" 15" fill="#00AFAF" stroke-width="0">Сормовское шоссе</text>
<text x=" 777" y="270.0" font-family="Arial" font-size=" 15" fill="#00AFAF" transform="rotate(-120.0  777  255)" stroke-width="0">улица Куйбышева</text>
<text x=" 836" y="704.0" font-family="Arial" font-size=" 15" fill="#00AFAF" transform="rotate(-90.0  836  689)" stroke-width="0">Бурнаковский проезд</text>
</g>
</g>
</g>
</svg>
