<?xml version="1.0" encoding="utf-8" ?>
<svg baseProfile="full" height="880.0" version="1.1" width="1030.0" xmlns="http://www.w3.org/2000/svg" xmlns:ev="http://www.w3.org/2001/xml-events" xmlns:xlink="http://www.w3.org/1999/xlink">
  <defs>
    <marker id="id20" markerHeight="3" markerUnits="strokeWidth" markerWidth="4" orient="auto" refX="0" refY="5" viewBox="0,0,10,10">
      <path d="M 0 0 L 10 5 L 0 10 z"/>
    </marker>
  </defs>
  <g>
    <rect fill="none" height="880.0" stroke="none" stroke-width="0" width="1030.0" x="0.0" y="0.0"/>
    <g transform="rotate(-40.0,515.0,440.0)">
      <polygon fill="#cf0000" points="318.0,261.0 768.0,261.0 768.0,291.0 318.0,291.0" stroke="#000000" stroke-width="1"/>
      <polygon fill="#cf0000" points="318.0,371.0 768.0,371.0 768.0,401.0 318.0,401.0" stroke="#000000" stroke-width="1"/>
      <text fill="#cf0000" font-family="Arial" font-size="20.0" stroke="none" stroke-width="0" x="318.0" y="256.0">&lt;&lt; Парк Культуры</text>
      <text fill="#cf0000" font-family="Arial" font-size="20.0" stroke="none" stroke-width="0" x="607.0" y="421.0">Комсомольская &gt;&gt;</text>
      <text fill="#cf0000" font-family="Arial" font-size="25.0" stroke="none" stroke-width="0" x="480.0" y="339.0">Кировская</text>
      <polyline fill="none" points="318.0,291.0 318.0,302.0 248.0,302.0 248.0,281.0 186.0,281.0 186.0,286.0 172.0,286.0 172.0,240.0 127.0,195.0" stroke="#000000" stroke-width="1"/>
      <polyline fill="none" points="112.0,210.0 148.0,246.0 148.0,439.0 51.0,439.0 -5.0,383.0" stroke="#000000" stroke-width="1"/>
      <polyline fill="none" points="-17.0,395.0 38.0,450.0 1.0,487.0" stroke="#000000" stroke-width="1"/>
      <polyline fill="none" points="11.0,497.0 51.0,457.0 148.0,457.0 148.0,634.0 98.0,634.0" stroke="#000000" stroke-width="1"/>
      <polyline fill="none" points="98.0,652.0 222.0,652.0" stroke="#000000" stroke-width="1"/>
      <polyline fill="none" points="222.0,634.0 172.0,634.0 172.0,378.0 186.0,378.0 186.0,383.0 248.0,383.0 248.0,362.0 318.0,362.0 318.0,371.0" stroke="#000000" stroke-width="1"/>
      <line stroke="#000000" stroke-width="1" x1="275.0" x2="275.0" y1="302.0" y2="362.0"/>
      <line stroke="#000000" stroke-width="1" x1="271.0" x2="271.0" y1="302.0" y2="362.0"/>
      <line stroke="#000000" stroke-width="1" x1="267.0" x2="267.0" y1="302.0" y2="362.0"/>
      <line stroke="#000000" stroke-width="1" x1="263.0" x2="263.0" y1="302.0" y2="362.0"/>
      <line stroke="#000000" stroke-width="1" x1="259.0" x2="259.0" y1="302.0" y2="362.0"/>
      <line stroke="#000000" stroke-width="1" x1="255.0" x2="255.0" y1="302.0" y2="362.0"/>
      <line stroke="#000000" stroke-width="1" x1="311.0" x2="311.0" y1="302.0" y2="362.0"/>
      <line stroke="#000000" stroke-width="1" x1="307.0" x2="307.0" y1="302.0" y2="362.0"/>
      <line stroke="#000000" stroke-width="1" x1="303.0" x2="303.0" y1="302.0" y2="362.0"/>
      <line stroke="#000000" stroke-width="1" x1="299.0" x2="299.0" y1="302.0" y2="362.0"/>
      <line stroke="#000000" stroke-width="1" x1="295.0" x2="295.0" y1="302.0" y2="362.0"/>
      <line stroke="#000000" stroke-width="1" x1="291.0" x2="291.0" y1="302.0" y2="362.0"/>
      <line stroke="#000000" stroke-width="1" x1="-3.0" x2="-15.0" y1="385.0" y2="397.0"/>
      <line stroke="#000000" stroke-width="1" x1="-0.17157287525381015" x2="-12.17157287525381" y1="387.8284271247462" y2="399.8284271247462"/>
      <line stroke="#000000" stroke-width="1" x1="2.6568542494923797" x2="-9.34314575050762" y1="390.6568542494924" y2="402.6568542494924"/>
      <line stroke="#000000" stroke-width="1" x1="5.4852813742385695" x2="-6.5147186257614305" y1="393.48528137423864" y2="405.48528137423864"/>
      <line stroke="#000000" stroke-width="1" x1="8.31370849898476" x2="-3.6862915010152406" y1="396.31370849898485" y2="408.31370849898485"/>
      <line stroke="#000000" stroke-width="1" x1="11.14213562373095" x2="-0.8578643762690508" y1="399.14213562373106" y2="411.14213562373106"/>
      <line stroke="#000000" stroke-width="1" x1="13.970562748477139" x2="1.970562748477139" y1="401.9705627484773" y2="413.9705627484773"/>
      <line stroke="#000000" stroke-width="1" x1="16.798989873223327" x2="4.798989873223329" y1="404.7989898732235" y2="416.7989898732235"/>
      <line stroke="#000000" stroke-width="1" x1="19.62741699796952" x2="7.627416997969519" y1="407.6274169979697" y2="419.6274169979697"/>
      <line stroke="#000000" stroke-width="1" x1="22.45584412271571" x2="10.455844122715709" y1="410.4558441227159" y2="422.4558441227159"/>
      <line stroke="#000000" stroke-width="1" x1="25.284271247461902" x2="13.284271247461898" y1="413.28427124746213" y2="425.28427124746213"/>
      <line stroke="#000000" stroke-width="1" x1="28.112698372208094" x2="16.112698372208087" y1="416.11269837220834" y2="428.11269837220834"/>
      <line stroke="#000000" stroke-width="1" x1="3.0" x2="13.0" y1="485.0" y2="495.0"/>
      <line stroke="#000000" stroke-width="1" x1="5.82842712474619" x2="15.82842712474619" y1="482.1715728752538" y2="492.1715728752538"/>
      <line stroke="#000000" stroke-width="1" x1="8.65685424949238" x2="18.65685424949238" y1="479.3431457505076" y2="489.3431457505076"/>
      <line stroke="#000000" stroke-width="1" x1="11.48528137423857" x2="21.48528137423857" y1="476.51471862576136" y2="486.51471862576136"/>
      <line stroke="#000000" stroke-width="1" x1="14.31370849898476" x2="24.313708498984763" y1="473.68629150101515" y2="483.68629150101515"/>
      <line stroke="#000000" stroke-width="1" x1="17.14213562373095" x2="27.142135623730955" y1="470.85786437626894" y2="480.85786437626894"/>
      <line stroke="#000000" stroke-width="1" x1="19.970562748477143" x2="29.970562748477146" y1="468.0294372515227" y2="478.0294372515227"/>
      <line stroke="#000000" stroke-width="1" x1="22.798989873223334" x2="32.798989873223334" y1="465.2010101267765" y2="475.2010101267765"/>
      <line stroke="#000000" stroke-width="1" x1="25.627416997969526" x2="35.627416997969526" y1="462.3725830020303" y2="472.3725830020303"/>
      <line stroke="#000000" stroke-width="1" x1="28.455844122715718" x2="38.45584412271572" y1="459.5441558772841" y2="469.5441558772841"/>
      <line stroke="#000000" stroke-width="1" x1="31.28427124746191" x2="41.28427124746191" y1="456.71572875253787" y2="466.71572875253787"/>
      <line stroke="#000000" stroke-width="1" x1="34.1126983722081" x2="44.1126983722081" y1="453.88730162779166" y2="463.88730162779166"/>
      <line stroke="#000000" stroke-width="1" x1="114.0" x2="129.0" y1="212.0" y2="197.0"/>
      <line stroke="#000000" stroke-width="1" x1="116.82842712474618" x2="131.82842712474618" y1="214.82842712474618" y2="199.82842712474618"/>
      <line stroke="#000000" stroke-width="1" x1="119.65685424949237" x2="134.65685424949237" y1="217.65685424949237" y2="202.65685424949237"/>
      <line stroke="#000000" stroke-width="1" x1="122.48528137423855" x2="137.48528137423855" y1="220.48528137423855" y2="205.48528137423855"/>
      <line stroke="#000000" stroke-width="1" x1="125.31370849898474" x2="140.31370849898474" y1="223.31370849898474" y2="208.31370849898474"/>
      <line stroke="#000000" stroke-width="1" x1="128.14213562373092" x2="143.14213562373092" y1="226.14213562373092" y2="211.14213562373092"/>
      <line stroke="#000000" stroke-width="1" x1="130.9705627484771" x2="145.9705627484771" y1="228.9705627484771" y2="213.9705627484771"/>
      <line stroke="#000000" stroke-width="1" x1="133.7989898732233" x2="148.7989898732233" y1="231.7989898732233" y2="216.7989898732233"/>
      <line stroke="#000000" stroke-width="1" x1="136.62741699796948" x2="151.62741699796948" y1="234.62741699796948" y2="219.62741699796948"/>
      <line stroke="#000000" stroke-width="1" x1="139.45584412271566" x2="154.45584412271566" y1="237.45584412271566" y2="222.45584412271566"/>
      <line stroke="#000000" stroke-width="1" x1="142.28427124746185" x2="157.28427124746185" y1="240.28427124746185" y2="225.28427124746185"/>
      <line stroke="#000000" stroke-width="1" x1="145.11269837220803" x2="160.11269837220803" y1="243.11269837220803" y2="228.11269837220803"/>
      <line stroke="#000000" stroke-width="1" x1="220.0" x2="220.0" y1="634.0" y2="652.0"/>
      <line stroke="#000000" stroke-width="1" x1="216.0" x2="216.0" y1="634.0" y2="652.0"/>
      <line stroke="#000000" stroke-width="1" x1="212.0" x2="212.0" y1="634.0" y2="652.0"/>
      <line stroke="#000000" stroke-width="1" x1="208.0" x2="208.0" y1="634.0" y2="652.0"/>
      <line stroke="#000000" stroke-width="1" x1="204.0" x2="204.0" y1="634.0" y2="652.0"/>
      <line stroke="#000000" stroke-width="1" x1="200.0" x2="200.0" y1="634.0" y2="652.0"/>
      <line stroke="#000000" stroke-width="1" x1="196.0" x2="196.0" y1="634.0" y2="652.0"/>
      <line stroke="#000000" stroke-width="1" x1="192.0" x2="192.0" y1="634.0" y2="652.0"/>
      <line stroke="#000000" stroke-width="1" x1="188.0" x2="188.0" y1="634.0" y2="652.0"/>
      <line stroke="#000000" stroke-width="1" x1="184.0" x2="184.0" y1="634.0" y2="652.0"/>
      <line stroke="#000000" stroke-width="1" x1="180.0" x2="180.0" y1="634.0" y2="652.0"/>
      <line stroke="#000000" stroke-width="1" x1="176.0" x2="176.0" y1="634.0" y2="652.0"/>
      <line stroke="#000000" stroke-width="1" x1="100.0" x2="100.0" y1="634.0" y2="652.0"/>
      <line stroke="#000000" stroke-width="1" x1="104.0" x2="104.0" y1="634.0" y2="652.0"/>
      <line stroke="#000000" stroke-width="1" x1="108.0" x2="108.0" y1="634.0" y2="652.0"/>
      <line stroke="#000000" stroke-width="1" x1="112.0" x2="112.0" y1="634.0" y2="652.0"/>
      <line stroke="#000000" stroke-width="1" x1="116.0" x2="116.0" y1="634.0" y2="652.0"/>
      <line stroke="#000000" stroke-width="1" x1="120.0" x2="120.0" y1="634.0" y2="652.0"/>
      <line stroke="#000000" stroke-width="1" x1="124.0" x2="124.0" y1="634.0" y2="652.0"/>
      <line stroke="#000000" stroke-width="1" x1="128.0" x2="128.0" y1="634.0" y2="652.0"/>
      <line stroke="#000000" stroke-width="1" x1="132.0" x2="132.0" y1="634.0" y2="652.0"/>
      <line stroke="#000000" stroke-width="1" x1="136.0" x2="136.0" y1="634.0" y2="652.0"/>
      <line stroke="#000000" stroke-width="1" x1="140.0" x2="140.0" y1="634.0" y2="652.0"/>
      <line stroke="#000000" stroke-width="1" x1="144.0" x2="144.0" y1="634.0" y2="652.0"/>
      <polygon fill="#d0d0d0" points="172.0,353.0 186.0,353.0 186.0,310.0 172.0,310.0" stroke="#000000" stroke-width="1"/>
      <polyline fill="none" points="228.0,383.0 228.0,391.0 199.0,391.0 199.0,383.0" stroke="#000000" stroke-width="1"/>
      <text fill="#000000" font-family="Arial" font-size="10.0" stroke="none" stroke-width="0" x="201.0" y="390.0">кассы</text>
      <polygon fill="none" points="245.0,364.0 241.0,367.0 238.0,363.0 242.0,360.0" stroke="#000000" stroke-width="1"/>
      <line stroke="#009900" stroke-width="1" x1="236.0" x2="239.0" y1="359.0" y2="357.0"/>
      <line stroke="#009900" stroke-width="1" x1="233.73388470845174" x2="236.73388470845174" y1="355.70383230320255" y2="353.70383230320255"/>
      <line stroke="#009900" stroke-width="1" x1="231.46776941690348" x2="234.46776941690348" y1="352.4076646064051" y2="350.4076646064051"/>
      <line stroke="#009900" stroke-width="1" x1="229.20165412535522" x2="232.20165412535522" y1="349.11149690960764" y2="347.11149690960764"/>
      <line stroke="#009900" stroke-width="1" x1="226.93553883380696" x2="229.93553883380696" y1="345.8153292128102" y2="343.8153292128102"/>
      <line stroke="#009900" stroke-width="1" x1="224.6694235422587" x2="227.6694235422587" y1="342.51916151601273" y2="340.51916151601273"/>
      <line stroke="#009900" stroke-width="1" x1="222.40330825071044" x2="225.40330825071044" y1="339.2229938192153" y2="337.2229938192153"/>
      <line stroke="#009900" stroke-width="1" x1="220.13719295916218" x2="223.13719295916218" y1="335.9268261224178" y2="333.9268261224178"/>
      <line stroke="#009900" stroke-width="1" x1="217.87107766761392" x2="220.87107766761392" y1="332.63065842562037" y2="330.63065842562037"/>
      <line stroke="#009900" stroke-width="1" x1="215.60496237606566" x2="218.60496237606566" y1="329.3344907288229" y2="327.3344907288229"/>
      <line stroke="#009900" stroke-width="1" x1="213.3388470845174" x2="216.3388470845174" y1="326.03832303202546" y2="324.03832303202546"/>
      <line stroke="#009900" stroke-width="1" x1="211.07273179296914" x2="214.07273179296914" y1="322.742155335228" y2="320.742155335228"/>
      <line stroke="#009900" stroke-width="1" x1="208.80661650142088" x2="211.80661650142088" y1="319.44598763843055" y2="317.44598763843055"/>
      <line stroke="#009900" stroke-width="1" x1="206.54050120987262" x2="209.54050120987262" y1="316.1498199416331" y2="314.1498199416331"/>
      <line stroke="#009900" stroke-width="1" x1="204.27438591832436" x2="207.27438591832436" y1="312.85365224483564" y2="310.85365224483564"/>
      <line stroke="#ff0000" stroke-width="1" x1="203.0" x2="207.0" y1="308.0" y2="308.0"/>
      <line stroke="#ff0000" stroke-width="1" x1="203.14804664203953" x2="207.14804664203953" y1="304.00274066493296" y2="304.00274066493296"/>
      <line stroke="#ff0000" stroke-width="1" x1="203.29609328407906" x2="207.29609328407906" y1="300.0054813298659" y2="300.0054813298659"/>
      <line stroke="#ff0000" stroke-width="1" x1="203.4441399261186" x2="207.4441399261186" y1="296.0082219947989" y2="296.0082219947989"/>
      <line stroke="#ff0000" stroke-width="1" x1="203.59218656815813" x2="207.59218656815813" y1="292.01096265973183" y2="292.01096265973183"/>
      <line stroke="#ff0000" stroke-width="1" x1="203.74023321019766" x2="207.74023321019766" y1="288.0137033246648" y2="288.0137033246648"/>
      <line stroke="#ff0000" stroke-width="1" x1="203.8882798522372" x2="207.8882798522372" y1="284.01644398959775" y2="284.01644398959775"/>
      <polyline fill="none" points="768.0,291.0 768.0,302.0 838.0,302.0 838.0,281.0 901.0,281.0 901.0,286.0 914.0,286.0 914.0,248.0 864.0,248.0" stroke="#000000" stroke-width="1"/>
      <polyline fill="none" points="864.0,229.0 937.0,229.0 937.0,633.0 987.0,633.0" stroke="#000000" stroke-width="1"/>
      <polyline fill="none" points="768.0,371.0 768.0,362.0 838.0,362.0 838.0,378.0 901.0,378.0 901.0,373.0 913.0,373.0 913.0,416.0 863.0,416.0" stroke="#000000" stroke-width="1"/>
      <polyline fill="none" points="987.0,651.0 913.0,651.0 913.0,434.0 863.0,434.0" stroke="#000000" stroke-width="1"/>
      <line stroke="#000000" stroke-width="1" x1="775.0" x2="775.0" y1="302.0" y2="362.0"/>
      <line stroke="#000000" stroke-width="1" x1="779.0" x2="779.0" y1="302.0" y2="362.0"/>
      <line stroke="#000000" stroke-width="1" x1="783.0" x2="783.0" y1="302.0" y2="362.0"/>
      <line stroke="#000000" stroke-width="1" x1="787.0" x2="787.0" y1="302.0" y2="362.0"/>
      <line stroke="#000000" stroke-width="1" x1="791.0" x2="791.0" y1="302.0" y2="362.0"/>
      <line stroke="#000000" stroke-width="1" x1="795.0" x2="795.0" y1="302.0" y2="362.0"/>
      <line stroke="#000000" stroke-width="1" x1="811.0" x2="811.0" y1="302.0" y2="362.0"/>
      <line stroke="#000000" stroke-width="1" x1="815.0" x2="815.0" y1="302.0" y2="362.0"/>
      <line stroke="#000000" stroke-width="1" x1="819.0" x2="819.0" y1="302.0" y2="362.0"/>
      <line stroke="#000000" stroke-width="1" x1="823.0" x2="823.0" y1="302.0" y2="362.0"/>
      <line stroke="#000000" stroke-width="1" x1="827.0" x2="827.0" y1="302.0" y2="362.0"/>
      <line stroke="#000000" stroke-width="1" x1="831.0" x2="831.0" y1="302.0" y2="362.0"/>
      <line stroke="#000000" stroke-width="1" x1="865.0" x2="865.0" y1="434.0" y2="416.0"/>
      <line stroke="#000000" stroke-width="1" x1="869.0" x2="869.0" y1="434.0" y2="416.0"/>
      <line stroke="#000000" stroke-width="1" x1="873.0" x2="873.0" y1="434.0" y2="416.0"/>
      <line stroke="#000000" stroke-width="1" x1="877.0" x2="877.0" y1="434.0" y2="416.0"/>
      <line stroke="#000000" stroke-width="1" x1="881.0" x2="881.0" y1="434.0" y2="416.0"/>
      <line stroke="#000000" stroke-width="1" x1="885.0" x2="885.0" y1="434.0" y2="416.0"/>
      <line stroke="#000000" stroke-width="1" x1="889.0" x2="889.0" y1="434.0" y2="416.0"/>
      <line stroke="#000000" stroke-width="1" x1="893.0" x2="893.0" y1="434.0" y2="416.0"/>
      <line stroke="#000000" stroke-width="1" x1="897.0" x2="897.0" y1="434.0" y2="416.0"/>
      <line stroke="#000000" stroke-width="1" x1="901.0" x2="901.0" y1="434.0" y2="416.0"/>
      <line stroke="#000000" stroke-width="1" x1="905.0" x2="905.0" y1="434.0" y2="416.0"/>
      <line stroke="#000000" stroke-width="1" x1="909.0" x2="909.0" y1="434.0" y2="416.0"/>
      <line stroke="#000000" stroke-width="1" x1="866.0" x2="866.0" y1="248.0" y2="229.0"/>
      <line stroke="#000000" stroke-width="1" x1="870.0" x2="870.0" y1="248.0" y2="229.0"/>
      <line stroke="#000000" stroke-width="1" x1="874.0" x2="874.0" y1="248.0" y2="229.0"/>
      <line stroke="#000000" stroke-width="1" x1="878.0" x2="878.0" y1="248.0" y2="229.0"/>
      <line stroke="#000000" stroke-width="1" x1="882.0" x2="882.0" y1="248.0" y2="229.0"/>
      <line stroke="#000000" stroke-width="1" x1="886.0" x2="886.0" y1="248.0" y2="229.0"/>
      <line stroke="#000000" stroke-width="1" x1="890.0" x2="890.0" y1="248.0" y2="229.0"/>
      <line stroke="#000000" stroke-width="1" x1="894.0" x2="894.0" y1="248.0" y2="229.0"/>
      <line stroke="#000000" stroke-width="1" x1="898.0" x2="898.0" y1="248.0" y2="229.0"/>
      <line stroke="#000000" stroke-width="1" x1="902.0" x2="902.0" y1="248.0" y2="229.0"/>
      <line stroke="#000000" stroke-width="1" x1="906.0" x2="906.0" y1="248.0" y2="229.0"/>
      <line stroke="#000000" stroke-width="1" x1="910.0" x2="910.0" y1="248.0" y2="229.0"/>
      <line stroke="#000000" stroke-width="1" x1="985.0" x2="985.0" y1="633.0" y2="651.0"/>
      <line stroke="#000000" stroke-width="1" x1="981.0" x2="981.0" y1="633.0" y2="651.0"/>
      <line stroke="#000000" stroke-width="1" x1="977.0" x2="977.0" y1="633.0" y2="651.0"/>
      <line stroke="#000000" stroke-width="1" x1="973.0" x2="973.0" y1="633.0" y2="651.0"/>
      <line stroke="#000000" stroke-width="1" x1="969.0" x2="969.0" y1="633.0" y2="651.0"/>
      <line stroke="#000000" stroke-width="1" x1="965.0" x2="965.0" y1="633.0" y2="651.0"/>
      <line stroke="#000000" stroke-width="1" x1="961.0" x2="961.0" y1="633.0" y2="651.0"/>
      <line stroke="#000000" stroke-width="1" x1="957.0" x2="957.0" y1="633.0" y2="651.0"/>
      <line stroke="#000000" stroke-width="1" x1="953.0" x2="953.0" y1="633.0" y2="651.0"/>
      <line stroke="#000000" stroke-width="1" x1="949.0" x2="949.0" y1="633.0" y2="651.0"/>
      <line stroke="#000000" stroke-width="1" x1="945.0" x2="945.0" y1="633.0" y2="651.0"/>
      <line stroke="#000000" stroke-width="1" x1="941.0" x2="941.0" y1="633.0" y2="651.0"/>
      <polygon fill="#d0d0d0" points="901.0,310.0 901.0,353.0 913.0,353.0 913.0,310.0" stroke="#000000" stroke-width="1"/>
      <polyline fill="none" points="857.0,281.0 857.0,273.0 886.0,273.0 886.0,281.0" stroke="#000000" stroke-width="1"/>
      <text fill="#000000" font-family="Arial" font-size="10.0" stroke="none" stroke-width="0" x="859.0" y="281.0">кассы</text>
      <polygon fill="none" points="841.0,294.0 845.0,291.0 848.0,295.0 844.0,298.0" stroke="#000000" stroke-width="1"/>
      <line stroke="#009900" stroke-width="1" x1="850.0" x2="847.0" y1="299.0" y2="301.0"/>
      <line stroke="#009900" stroke-width="1" x1="852.2661152915483" x2="849.2661152915483" y1="302.29616769679745" y2="304.29616769679745"/>
      <line stroke="#009900" stroke-width="1" x1="854.5322305830966" x2="851.5322305830966" y1="305.5923353935949" y2="307.5923353935949"/>
      <line stroke="#009900" stroke-width="1" x1="856.798345874645" x2="853.798345874645" y1="308.88850309039236" y2="310.88850309039236"/>
      <line stroke="#009900" stroke-width="1" x1="859.0644611661933" x2="856.0644611661933" y1="312.1846707871898" y2="314.1846707871898"/>
      <line stroke="#009900" stroke-width="1" x1="861.3305764577416" x2="858.3305764577416" y1="315.48083848398727" y2="317.48083848398727"/>
      <line stroke="#009900" stroke-width="1" x1="863.5966917492899" x2="860.5966917492899" y1="318.7770061807847" y2="320.7770061807847"/>
      <line stroke="#009900" stroke-width="1" x1="865.8628070408382" x2="862.8628070408382" y1="322.0731738775822" y2="324.0731738775822"/>
      <line stroke="#009900" stroke-width="1" x1="868.1289223323865" x2="865.1289223323865" y1="325.36934157437963" y2="327.36934157437963"/>
      <line stroke="#009900" stroke-width="1" x1="870.3950376239349" x2="867.3950376239349" y1="328.6655092711771" y2="330.6655092711771"/>
      <line stroke="#009900" stroke-width="1" x1="872.6611529154832" x2="869.6611529154832" y1="331.96167696797454" y2="333.96167696797454"/>
      <line stroke="#009900" stroke-width="1" x1="874.9272682070315" x2="871.9272682070315" y1="335.257844664772" y2="337.257844664772"/>
      <line stroke="#009900" stroke-width="1" x1="877.1933834985798" x2="874.1933834985798" y1="338.55401236156945" y2="340.55401236156945"/>
      <line stroke="#009900" stroke-width="1" x1="879.4594987901281" x2="876.4594987901281" y1="341.8501800583669" y2="343.8501800583669"/>
      <line stroke="#009900" stroke-width="1" x1="881.7256140816764" x2="878.7256140816764" y1="345.14634775516436" y2="347.14634775516436"/>
      <line stroke="#ff0000" stroke-width="1" x1="883.0" x2="879.0" y1="350.0" y2="350.0"/>
      <line stroke="#ff0000" stroke-width="1" x1="882.8519533579605" x2="878.8519533579605" y1="353.99725933506704" y2="353.99725933506704"/>
      <line stroke="#ff0000" stroke-width="1" x1="882.703906715921" x2="878.703906715921" y1="357.9945186701341" y2="357.9945186701341"/>
      <line stroke="#ff0000" stroke-width="1" x1="882.5558600738815" x2="878.5558600738815" y1="361.9917780052011" y2="361.9917780052011"/>
      <line stroke="#ff0000" stroke-width="1" x1="882.407813431842" x2="878.407813431842" y1="365.98903734026817" y2="365.98903734026817"/>
      <line stroke="#ff0000" stroke-width="1" x1="882.2597667898025" x2="878.2597667898025" y1="369.9862966753352" y2="369.9862966753352"/>
      <line stroke="#ff0000" stroke-width="1" x1="882.111720147763" x2="878.111720147763" y1="373.98355601040225" y2="373.98355601040225"/>
      <text fill="#00afaf" font-family="Arial" font-size="15.0" stroke="none" stroke-width="0" x="22.0" y="556.0">проспект Ленина</text>
      <text fill="#00afaf" font-family="Arial" font-size="15.0" stroke="none" stroke-width="0" x="965.0" y="545.0">проспект Ленина</text>
      <text fill="#00afaf" font-family="Arial" font-size="15.0" stroke="none" stroke-width="0" transform="rotate(45.0,21.0,244.0)" x="21.0" y="259.0">проспект Кирова</text>
    </g>
  </g>
</svg>
