<?xml version="1.0" encoding="utf-8" ?>
<svg baseProfile="full" height="100%" version="1.1" width="100%" xmlns="http://www.w3.org/2000/svg" xmlns:ev="http://www.w3.org/2001/xml-events" xmlns:xlink="http://www.w3.org/1999/xlink">
  <defs>
    <marker id="id22" markerHeight="3" markerUnits="strokeWidth" markerWidth="4" orient="auto" refX="0" refY="5" viewBox="0,0,10,10">
      <path d="M 0 0 L 10 5 L 0 10 z"/>
    </marker>
  </defs>
  <g>
    <rect fill="none" height="1030" stroke="none" stroke-width="0" width="670" x="0" y="0"/>
    <g transform="rotate(-70.0,335,515)">
      <polygon fill="#cf0000" points="144,565 594,565 594,595 144,595" stroke="#000000" stroke-width="1"/>
      <polygon fill="#cf0000" points="594,455 594,485 144,485 144,455" stroke="#000000" stroke-width="1"/>
      <text fill="#cf0000" font-family="Arial" font-size="20" stroke="none" stroke-width="0" x="144" y="452.0">&lt;&lt; Заречная</text>
      <text fill="#cf0000" font-family="Arial" font-size="20" stroke="none" stroke-width="0" x="466" y="615.0">Чкаловская &gt;&gt;</text>
      <text fill="#cf0000" font-family="Arial" font-size="25" stroke="none" stroke-width="0" x="318" y="532.0">Ленинская</text>
      <polyline fill="none" points="-13,667 -13,612 -67,498 -4,498 -4,576 12,576 12,572 26,572 26,576 92,576 92,555 144,555 144,565" stroke="#000000" stroke-width="1"/>
      <polyline fill="none" points="-98,380 -98,430 -78,474 12,474 12,478 26,478 26,474 92,474 92,496 144,496 144,485" stroke="#000000" stroke-width="1"/>
      <polyline fill="none" points="-31,667 -31,617 -116,435 -116,380" stroke="#000000" stroke-width="1"/>
      <line stroke="#000000" stroke-width="1" x1="140" x2="140" y1="496" y2="555"/>
      <line stroke="#000000" stroke-width="1" x1="136" x2="136" y1="496" y2="555"/>
      <line stroke="#000000" stroke-width="1" x1="132" x2="132" y1="496" y2="555"/>
      <line stroke="#000000" stroke-width="1" x1="128" x2="128" y1="496" y2="555"/>
      <line stroke="#000000" stroke-width="1" x1="124" x2="124" y1="496" y2="555"/>
      <line stroke="#000000" stroke-width="1" x1="120" x2="120" y1="496" y2="555"/>
      <line stroke="#000000" stroke-width="1" x1="116" x2="116" y1="496" y2="555"/>
      <line stroke="#000000" stroke-width="1" x1="112" x2="112" y1="496" y2="555"/>
      <line stroke="#000000" stroke-width="1" x1="108" x2="108" y1="496" y2="555"/>
      <line stroke="#000000" stroke-width="1" x1="104" x2="104" y1="496" y2="555"/>
      <line stroke="#000000" stroke-width="1" x1="100" x2="100" y1="496" y2="555"/>
      <line stroke="#000000" stroke-width="1" x1="96" x2="96" y1="496" y2="555"/>
      <line stroke="#000000" stroke-width="1" x1="-31" x2="-13" y1="665" y2="665"/>
      <line stroke="#000000" stroke-width="1" x1="-31" x2="-13" y1="661" y2="661"/>
      <line stroke="#000000" stroke-width="1" x1="-31" x2="-13" y1="657" y2="657"/>
      <line stroke="#000000" stroke-width="1" x1="-31" x2="-13" y1="653" y2="653"/>
      <line stroke="#000000" stroke-width="1" x1="-31" x2="-13" y1="649" y2="649"/>
      <line stroke="#000000" stroke-width="1" x1="-31" x2="-13" y1="645" y2="645"/>
      <line stroke="#000000" stroke-width="1" x1="-31" x2="-13" y1="641" y2="641"/>
      <line stroke="#000000" stroke-width="1" x1="-31" x2="-13" y1="637" y2="637"/>
      <line stroke="#000000" stroke-width="1" x1="-31" x2="-13" y1="633" y2="633"/>
      <line stroke="#000000" stroke-width="1" x1="-31" x2="-13" y1="629" y2="629"/>
      <line stroke="#000000" stroke-width="1" x1="-31" x2="-13" y1="625" y2="625"/>
      <line stroke="#000000" stroke-width="1" x1="-31" x2="-13" y1="621" y2="621"/>
      <line stroke="#000000" stroke-width="1" x1="-98" x2="-116" y1="382" y2="382"/>
      <line stroke="#000000" stroke-width="1" x1="-98" x2="-116" y1="386" y2="386"/>
      <line stroke="#000000" stroke-width="1" x1="-98" x2="-116" y1="390" y2="390"/>
      <line stroke="#000000" stroke-width="1" x1="-98" x2="-116" y1="394" y2="394"/>
      <line stroke="#000000" stroke-width="1" x1="-98" x2="-116" y1="398" y2="398"/>
      <line stroke="#000000" stroke-width="1" x1="-98" x2="-116" y1="402" y2="402"/>
      <line stroke="#000000" stroke-width="1" x1="-98" x2="-116" y1="406" y2="406"/>
      <line stroke="#000000" stroke-width="1" x1="-98" x2="-116" y1="410" y2="410"/>
      <line stroke="#000000" stroke-width="1" x1="-98" x2="-116" y1="414" y2="414"/>
      <line stroke="#000000" stroke-width="1" x1="-98" x2="-116" y1="418" y2="418"/>
      <line stroke="#000000" stroke-width="1" x1="-98" x2="-116" y1="422" y2="422"/>
      <line stroke="#000000" stroke-width="1" x1="-98" x2="-116" y1="426" y2="426"/>
      <polygon fill="#d0d0d0" points="12,550 26,550 26,500 12,500" stroke="#000000" stroke-width="1"/>
      <polygon fill="#ffffff" points="26,511 18,511 18,539 26,539" stroke="#000000" stroke-width="1"/>
      <text fill="#000000" font-family="Arial" font-size="10" stroke="none" stroke-width="0" transform="rotate(90.0,29,513)" x="29" y="523.0">кассы</text>
      <polygon fill="none" points="50,476 45,476 45,481 50,481" stroke="#000000" stroke-width="1"/>
      <line stroke="#009900" stroke-width="1" x1="45" x2="49" y1="485" y2="485"/>
      <line stroke="#009900" stroke-width="1" x1="45" x2="49" y1="489" y2="489"/>
      <line stroke="#009900" stroke-width="1" x1="45" x2="49" y1="493" y2="493"/>
      <line stroke="#009900" stroke-width="1" x1="45" x2="49" y1="497" y2="497"/>
      <line stroke="#009900" stroke-width="1" x1="45" x2="49" y1="501" y2="501"/>
      <line stroke="#009900" stroke-width="1" x1="45" x2="49" y1="505" y2="505"/>
      <line stroke="#009900" stroke-width="1" x1="45" x2="49" y1="509" y2="509"/>
      <line stroke="#009900" stroke-width="1" x1="45" x2="49" y1="513" y2="513"/>
      <line stroke="#009900" stroke-width="1" x1="45" x2="49" y1="517" y2="517"/>
      <line stroke="#009900" stroke-width="1" x1="45" x2="49" y1="521" y2="521"/>
      <line stroke="#009900" stroke-width="1" x1="45" x2="49" y1="525" y2="525"/>
      <line stroke="#ff0000" stroke-width="1" x1="45" x2="49" y1="529" y2="529"/>
      <line stroke="#ff0000" stroke-width="1" x1="45" x2="49" y1="533" y2="533"/>
      <line stroke="#ff0000" stroke-width="1" x1="45" x2="49" y1="537" y2="537"/>
      <line stroke="#ff0000" stroke-width="1" x1="45" x2="49" y1="541" y2="541"/>
      <line stroke="#ff0000" stroke-width="1" x1="45" x2="49" y1="545" y2="545"/>
      <line stroke="#ff0000" stroke-width="1" x1="45" x2="49" y1="549" y2="549"/>
      <line stroke="#ff0000" stroke-width="1" x1="45" x2="49" y1="553" y2="553"/>
      <line stroke="#ff0000" stroke-width="1" x1="45" x2="49" y1="557" y2="557"/>
      <line stroke="#ff0000" stroke-width="1" x1="45" x2="49" y1="561" y2="561"/>
      <line stroke="#ff0000" stroke-width="1" x1="45" x2="49" y1="565" y2="565"/>
      <line stroke="#ff0000" stroke-width="1" x1="45" x2="49" y1="569" y2="569"/>
      <line stroke="#ff0000" stroke-width="1" x1="45" x2="49" y1="573" y2="573"/>
      <polyline fill="none" points="774,618 774,688 726,688 726,569 712,569 712,576 646,576 646,555 594,555 594,565" stroke="#000000" stroke-width="1"/>
      <polyline fill="none" points="756,618 756,668 744,668 744,618 750,618 750,364 705,364 705,431" stroke="#000000" stroke-width="1"/>
      <polyline fill="none" points="723,431 723,381 732,381 732,431 726,431 726,481 712,481 712,474 646,474 646,496 594,496 594,485" stroke="#000000" stroke-width="1"/>
      <line stroke="#000000" stroke-width="1" x1="598" x2="598" y1="496" y2="555"/>
      <line stroke="#000000" stroke-width="1" x1="602" x2="602" y1="496" y2="555"/>
      <line stroke="#000000" stroke-width="1" x1="606" x2="606" y1="496" y2="555"/>
      <line stroke="#000000" stroke-width="1" x1="610" x2="610" y1="496" y2="555"/>
      <line stroke="#000000" stroke-width="1" x1="614" x2="614" y1="496" y2="555"/>
      <line stroke="#000000" stroke-width="1" x1="618" x2="618" y1="496" y2="555"/>
      <line stroke="#000000" stroke-width="1" x1="622" x2="622" y1="496" y2="555"/>
      <line stroke="#000000" stroke-width="1" x1="626" x2="626" y1="496" y2="555"/>
      <line stroke="#000000" stroke-width="1" x1="630" x2="630" y1="496" y2="555"/>
      <line stroke="#000000" stroke-width="1" x1="634" x2="634" y1="496" y2="555"/>
      <line stroke="#000000" stroke-width="1" x1="638" x2="638" y1="496" y2="555"/>
      <line stroke="#000000" stroke-width="1" x1="642" x2="642" y1="496" y2="555"/>
      <line stroke="#000000" stroke-width="1" x1="756" x2="774" y1="620" y2="620"/>
      <line stroke="#000000" stroke-width="1" x1="756" x2="774" y1="624" y2="624"/>
      <line stroke="#000000" stroke-width="1" x1="756" x2="774" y1="628" y2="628"/>
      <line stroke="#000000" stroke-width="1" x1="756" x2="774" y1="632" y2="632"/>
      <line stroke="#000000" stroke-width="1" x1="756" x2="774" y1="636" y2="636"/>
      <line stroke="#000000" stroke-width="1" x1="756" x2="774" y1="640" y2="640"/>
      <line stroke="#000000" stroke-width="1" x1="756" x2="774" y1="644" y2="644"/>
      <line stroke="#000000" stroke-width="1" x1="756" x2="774" y1="648" y2="648"/>
      <line stroke="#000000" stroke-width="1" x1="756" x2="774" y1="652" y2="652"/>
      <line stroke="#000000" stroke-width="1" x1="756" x2="774" y1="656" y2="656"/>
      <line stroke="#000000" stroke-width="1" x1="756" x2="774" y1="660" y2="660"/>
      <line stroke="#000000" stroke-width="1" x1="756" x2="774" y1="664" y2="664"/>
      <line stroke="#000000" stroke-width="1" x1="723" x2="705" y1="429" y2="429"/>
      <line stroke="#000000" stroke-width="1" x1="723" x2="705" y1="425" y2="425"/>
      <line stroke="#000000" stroke-width="1" x1="723" x2="705" y1="421" y2="421"/>
      <line stroke="#000000" stroke-width="1" x1="723" x2="705" y1="417" y2="417"/>
      <line stroke="#000000" stroke-width="1" x1="723" x2="705" y1="413" y2="413"/>
      <line stroke="#000000" stroke-width="1" x1="723" x2="705" y1="409" y2="409"/>
      <line stroke="#000000" stroke-width="1" x1="723" x2="705" y1="405" y2="405"/>
      <line stroke="#000000" stroke-width="1" x1="723" x2="705" y1="401" y2="401"/>
      <line stroke="#000000" stroke-width="1" x1="723" x2="705" y1="397" y2="397"/>
      <line stroke="#000000" stroke-width="1" x1="723" x2="705" y1="393" y2="393"/>
      <line stroke="#000000" stroke-width="1" x1="723" x2="705" y1="389" y2="389"/>
      <line stroke="#000000" stroke-width="1" x1="723" x2="705" y1="385" y2="385"/>
      <polygon fill="#d0d0d0" points="726,504 712,504 712,547 726,547" stroke="#000000" stroke-width="1"/>
      <polyline fill="none" points="664,474 664,466 693,466 693,474" stroke="#000000" stroke-width="1"/>
      <text fill="#000000" font-family="Arial" font-size="10" stroke="none" stroke-width="0" x="666" y="474.0">кассы</text>
      <polygon fill="none" points="648,493 652,490 655,494 651,497" stroke="#000000" stroke-width="1"/>
      <line stroke="#009900" stroke-width="1" x1="657" x2="654" y1="498" y2="500"/>
      <line stroke="#009900" stroke-width="1" x1="659.266115292" x2="656.266115292" y1="501.296167697" y2="503.296167697"/>
      <line stroke="#009900" stroke-width="1" x1="661.532230583" x2="658.532230583" y1="504.592335394" y2="506.592335394"/>
      <line stroke="#009900" stroke-width="1" x1="663.798345875" x2="660.798345875" y1="507.88850309" y2="509.88850309"/>
      <line stroke="#009900" stroke-width="1" x1="666.064461166" x2="663.064461166" y1="511.184670787" y2="513.184670787"/>
      <line stroke="#009900" stroke-width="1" x1="668.330576458" x2="665.330576458" y1="514.480838484" y2="516.480838484"/>
      <line stroke="#009900" stroke-width="1" x1="670.596691749" x2="667.596691749" y1="517.777006181" y2="519.777006181"/>
      <line stroke="#009900" stroke-width="1" x1="672.862807041" x2="669.862807041" y1="521.073173878" y2="523.073173878"/>
      <line stroke="#009900" stroke-width="1" x1="675.128922332" x2="672.128922332" y1="524.369341574" y2="526.369341574"/>
      <line stroke="#009900" stroke-width="1" x1="677.395037624" x2="674.395037624" y1="527.665509271" y2="529.665509271"/>
      <line stroke="#009900" stroke-width="1" x1="679.661152915" x2="676.661152915" y1="530.961676968" y2="532.961676968"/>
      <line stroke="#009900" stroke-width="1" x1="681.927268207" x2="678.927268207" y1="534.257844665" y2="536.257844665"/>
      <line stroke="#009900" stroke-width="1" x1="684.193383499" x2="681.193383499" y1="537.554012362" y2="539.554012362"/>
      <line stroke="#009900" stroke-width="1" x1="686.45949879" x2="683.45949879" y1="540.850180058" y2="542.850180058"/>
      <line stroke="#009900" stroke-width="1" x1="688.725614082" x2="685.725614082" y1="544.146347755" y2="546.146347755"/>
      <line stroke="#ff0000" stroke-width="1" x1="690" x2="686" y1="549" y2="549"/>
      <line stroke="#ff0000" stroke-width="1" x1="689.851953358" x2="685.851953358" y1="552.997259335" y2="552.997259335"/>
      <line stroke="#ff0000" stroke-width="1" x1="689.703906716" x2="685.703906716" y1="556.99451867" y2="556.99451867"/>
      <line stroke="#ff0000" stroke-width="1" x1="689.555860074" x2="685.555860074" y1="560.991778005" y2="560.991778005"/>
      <line stroke="#ff0000" stroke-width="1" x1="689.407813432" x2="685.407813432" y1="564.98903734" y2="564.98903734"/>
      <line stroke="#ff0000" stroke-width="1" x1="689.25976679" x2="685.25976679" y1="568.986296675" y2="568.986296675"/>
      <line stroke="#ff0000" stroke-width="1" x1="689.111720148" x2="685.111720148" y1="572.98355601" y2="572.98355601"/>
      <text fill="#00afaf" font-family="Arial" font-size="15" stroke="none" stroke-width="0" x="-198" y="537.0">проспект Ленина</text>
      <text fill="#00afaf" font-family="Arial" font-size="15" stroke="none" stroke-width="0" x="772" y="537.0">проспект Ленина</text>
      <text fill="#00afaf" font-family="Arial" font-size="15" stroke="none" stroke-width="0" transform="rotate(90.0,-60,315)" x="-60" y="330.0">улица Рубо</text>
      <text fill="#00afaf" font-family="Arial" font-size="15" stroke="none" stroke-width="0" transform="rotate(90.0,369,640)" x="369" y="655.0">улица Искры</text>
    </g>
  </g>
</svg>
