<?xml version="1.0" encoding="utf-8" ?>
<svg baseProfile="full" height="100%" version="1.1" width="100%" xmlns="http://www.w3.org/2000/svg" xmlns:ev="http://www.w3.org/2001/xml-events" xmlns:xlink="http://www.w3.org/1999/xlink">
  <defs>
    <marker id="id26" markerHeight="3" markerUnits="strokeWidth" markerWidth="4" orient="auto" refX="0" refY="5" viewBox="0,0,10,10">
      <path d="M 0 0 L 10 5 L 0 10 z"/>
    </marker>
  </defs>
  <g transform="scale(0.5)">
    <rect fill="none" height="970" stroke="none" stroke-width="0" width="780" x="0" y="0"/>
    <g transform="rotate(-55.0,390,485)">
      <polygon fill="#cf0000" points="140,442 590,442 590,472 140,472" stroke="#000000" stroke-width="1"/>
      <polygon fill="#cf0000" points="140,552 590,552 590,582 140,582" stroke="#000000" stroke-width="1"/>
      <text fill="#cf0000" font-family="Arial" font-size="20" stroke="none" stroke-width="0" x="140" y="438.0">&lt;&lt; Автозаводская</text>
      <text fill="#cf0000" font-family="Arial" font-size="20" stroke="none" stroke-width="0" x="373" y="602.0">Двигатель Революции &gt;&gt;</text>
      <text fill="#cf0000" font-family="Arial" font-size="25" stroke="none" stroke-width="0" x="290" y="519.0">Пролетарская</text>
      <polyline fill="none" points="590,472 590,482 654,482 654,450 718,450 718,455 729,455 729,354" stroke="#000000" stroke-width="1"/>
      <polyline fill="none" points="753,354 753,621 803,621" stroke="#000000" stroke-width="1"/>
      <polyline fill="none" points="803,639 679,639" stroke="#000000" stroke-width="1"/>
      <polyline fill="none" points="590,552 590,542 654,542 654,574 718,574 718,569 729,569 729,621 679,621" stroke="#000000" stroke-width="1"/>
      <line stroke="#000000" stroke-width="1" x1="597" x2="597" y1="482" y2="542"/>
      <line stroke="#000000" stroke-width="1" x1="601" x2="601" y1="482" y2="542"/>
      <line stroke="#000000" stroke-width="1" x1="605" x2="605" y1="482" y2="542"/>
      <line stroke="#000000" stroke-width="1" x1="609" x2="609" y1="482" y2="542"/>
      <line stroke="#000000" stroke-width="1" x1="613" x2="613" y1="482" y2="542"/>
      <line stroke="#000000" stroke-width="1" x1="617" x2="617" y1="482" y2="542"/>
      <line stroke="#000000" stroke-width="1" x1="627" x2="627" y1="482" y2="542"/>
      <line stroke="#000000" stroke-width="1" x1="631" x2="631" y1="482" y2="542"/>
      <line stroke="#000000" stroke-width="1" x1="635" x2="635" y1="482" y2="542"/>
      <line stroke="#000000" stroke-width="1" x1="639" x2="639" y1="482" y2="542"/>
      <line stroke="#000000" stroke-width="1" x1="643" x2="643" y1="482" y2="542"/>
      <line stroke="#000000" stroke-width="1" x1="647" x2="647" y1="482" y2="542"/>
      <line stroke="#000000" stroke-width="1" x1="729" x2="753" y1="356" y2="356"/>
      <line stroke="#000000" stroke-width="1" x1="729" x2="753" y1="360" y2="360"/>
      <line stroke="#000000" stroke-width="1" x1="729" x2="753" y1="364" y2="364"/>
      <line stroke="#000000" stroke-width="1" x1="729" x2="753" y1="368" y2="368"/>
      <line stroke="#000000" stroke-width="1" x1="729" x2="753" y1="372" y2="372"/>
      <line stroke="#000000" stroke-width="1" x1="729" x2="753" y1="376" y2="376"/>
      <line stroke="#000000" stroke-width="1" x1="729" x2="753" y1="380" y2="380"/>
      <line stroke="#000000" stroke-width="1" x1="729" x2="753" y1="384" y2="384"/>
      <line stroke="#000000" stroke-width="1" x1="729" x2="753" y1="388" y2="388"/>
      <line stroke="#000000" stroke-width="1" x1="729" x2="753" y1="392" y2="392"/>
      <line stroke="#000000" stroke-width="1" x1="729" x2="753" y1="396" y2="396"/>
      <line stroke="#000000" stroke-width="1" x1="729" x2="753" y1="400" y2="400"/>
      <line stroke="#000000" stroke-width="1" x1="681" x2="681" y1="621" y2="639"/>
      <line stroke="#000000" stroke-width="1" x1="685" x2="685" y1="621" y2="639"/>
      <line stroke="#000000" stroke-width="1" x1="689" x2="689" y1="621" y2="639"/>
      <line stroke="#000000" stroke-width="1" x1="693" x2="693" y1="621" y2="639"/>
      <line stroke="#000000" stroke-width="1" x1="697" x2="697" y1="621" y2="639"/>
      <line stroke="#000000" stroke-width="1" x1="701" x2="701" y1="621" y2="639"/>
      <line stroke="#000000" stroke-width="1" x1="705" x2="705" y1="621" y2="639"/>
      <line stroke="#000000" stroke-width="1" x1="709" x2="709" y1="621" y2="639"/>
      <line stroke="#000000" stroke-width="1" x1="713" x2="713" y1="621" y2="639"/>
      <line stroke="#000000" stroke-width="1" x1="717" x2="717" y1="621" y2="639"/>
      <line stroke="#000000" stroke-width="1" x1="721" x2="721" y1="621" y2="639"/>
      <line stroke="#000000" stroke-width="1" x1="725" x2="725" y1="621" y2="639"/>
      <line stroke="#000000" stroke-width="1" x1="801" x2="801" y1="621" y2="639"/>
      <line stroke="#000000" stroke-width="1" x1="797" x2="797" y1="621" y2="639"/>
      <line stroke="#000000" stroke-width="1" x1="793" x2="793" y1="621" y2="639"/>
      <line stroke="#000000" stroke-width="1" x1="789" x2="789" y1="621" y2="639"/>
      <line stroke="#000000" stroke-width="1" x1="785" x2="785" y1="621" y2="639"/>
      <line stroke="#000000" stroke-width="1" x1="781" x2="781" y1="621" y2="639"/>
      <line stroke="#000000" stroke-width="1" x1="777" x2="777" y1="621" y2="639"/>
      <line stroke="#000000" stroke-width="1" x1="773" x2="773" y1="621" y2="639"/>
      <line stroke="#000000" stroke-width="1" x1="769" x2="769" y1="621" y2="639"/>
      <line stroke="#000000" stroke-width="1" x1="765" x2="765" y1="621" y2="639"/>
      <line stroke="#000000" stroke-width="1" x1="761" x2="761" y1="621" y2="639"/>
      <line stroke="#000000" stroke-width="1" x1="757" x2="757" y1="621" y2="639"/>
      <polygon fill="#d0d0d0" points="718,497 729,497 729,528 718,528" stroke="#000000" stroke-width="1"/>
      <polyline fill="none" points="654,482 681,482" stroke="#000000" stroke-width="0.5"/>
      <line stroke="#009900" stroke-width="1" x1="694" x2="698" y1="539" y2="538"/>
      <line stroke="#009900" stroke-width="1" x1="693.048525082" x2="697.048525082" y1="535.114810753" y2="534.114810753"/>
      <line stroke="#009900" stroke-width="1" x1="692.097050165" x2="696.097050165" y1="531.229621507" y2="530.229621507"/>
      <line stroke="#009900" stroke-width="1" x1="691.145575247" x2="695.145575247" y1="527.34443226" y2="526.34443226"/>
      <line stroke="#009900" stroke-width="1" x1="690.19410033" x2="694.19410033" y1="523.459243014" y2="522.459243014"/>
      <line stroke="#009900" stroke-width="1" x1="689.242625412" x2="693.242625412" y1="519.574053767" y2="518.574053767"/>
      <line stroke="#009900" stroke-width="1" x1="688.291150495" x2="692.291150495" y1="515.688864521" y2="514.688864521"/>
      <line stroke="#009900" stroke-width="1" x1="687.339675577" x2="691.339675577" y1="511.803675274" y2="510.803675274"/>
      <line stroke="#009900" stroke-width="1" x1="686.38820066" x2="690.38820066" y1="507.918486028" y2="506.918486028"/>
      <line stroke="#009900" stroke-width="1" x1="685.436725742" x2="689.436725742" y1="504.033296781" y2="503.033296781"/>
      <line stroke="#009900" stroke-width="1" x1="684.485250825" x2="688.485250825" y1="500.148107535" y2="499.148107535"/>
      <line stroke="#009900" stroke-width="1" x1="683.533775907" x2="687.533775907" y1="496.262918288" y2="495.262918288"/>
      <line stroke="#009900" stroke-width="1" x1="682.58230099" x2="686.58230099" y1="492.377729042" y2="491.377729042"/>
      <line stroke="#ff0000" stroke-width="1" x1="695" x2="699" y1="542" y2="542"/>
      <line stroke="#ff0000" stroke-width="1" x1="695" x2="699" y1="546" y2="546"/>
      <line stroke="#ff0000" stroke-width="1" x1="695" x2="699" y1="550" y2="550"/>
      <line stroke="#ff0000" stroke-width="1" x1="695" x2="699" y1="554" y2="554"/>
      <line stroke="#ff0000" stroke-width="1" x1="695" x2="699" y1="558" y2="558"/>
      <line stroke="#ff0000" stroke-width="1" x1="695" x2="699" y1="562" y2="562"/>
      <line stroke="#ff0000" stroke-width="1" x1="695" x2="699" y1="566" y2="566"/>
      <line stroke="#ff0000" stroke-width="1" x1="695" x2="699" y1="570" y2="570"/>
      <polygon fill="none" points="680,484 685,483 686,488 681,489" stroke="#000000" stroke-width="1"/>
      <polyline fill="none" points="654,452 662,452 666,456 666,476 662,480 654,480" stroke="#000000" stroke-width="1"/>
      <text fill="#000000" font-family="Arial" font-size="10" stroke="none" stroke-width="0" transform="rotate(90.0,667,454)" x="667" y="464.0">кассы</text>
      <polyline fill="none" marker-end="url(#id26)" points="670,552 683,552" stroke="#ff0000" stroke-width="1"/>
      <polyline fill="none" marker-end="url(#id26)" points="721,485 709,487" stroke="#009900" stroke-width="1"/>
      <polyline fill="none" points="140,472 140,482 78,482 78,450 13,450 13,456 2,456 2,385 -120,385" stroke="#000000" stroke-width="1"/>
      <polyline fill="none" points="-120,403 -22,403 -22,623 -72,623" stroke="#000000" stroke-width="1"/>
      <polyline fill="none" points="52,623 2,623 2,569 13,569 13,575 78,575 78,542 140,542 140,552" stroke="#000000" stroke-width="1"/>
      <polyline fill="none" points="52,641 -72,641" stroke="#000000" stroke-width="1"/>
      <line stroke="#000000" stroke-width="1" x1="105" x2="105" y1="482" y2="542"/>
      <line stroke="#000000" stroke-width="1" x1="101" x2="101" y1="482" y2="542"/>
      <line stroke="#000000" stroke-width="1" x1="97" x2="97" y1="482" y2="542"/>
      <line stroke="#000000" stroke-width="1" x1="93" x2="93" y1="482" y2="542"/>
      <line stroke="#000000" stroke-width="1" x1="89" x2="89" y1="482" y2="542"/>
      <line stroke="#000000" stroke-width="1" x1="85" x2="85" y1="482" y2="542"/>
      <line stroke="#000000" stroke-width="1" x1="135" x2="135" y1="482" y2="542"/>
      <line stroke="#000000" stroke-width="1" x1="131" x2="131" y1="482" y2="542"/>
      <line stroke="#000000" stroke-width="1" x1="127" x2="127" y1="482" y2="542"/>
      <line stroke="#000000" stroke-width="1" x1="123" x2="123" y1="482" y2="542"/>
      <line stroke="#000000" stroke-width="1" x1="119" x2="119" y1="482" y2="542"/>
      <line stroke="#000000" stroke-width="1" x1="115" x2="115" y1="482" y2="542"/>
      <line stroke="#000000" stroke-width="1" x1="-118" x2="-118" y1="403" y2="385"/>
      <line stroke="#000000" stroke-width="1" x1="-114" x2="-114" y1="403" y2="385"/>
      <line stroke="#000000" stroke-width="1" x1="-110" x2="-110" y1="403" y2="385"/>
      <line stroke="#000000" stroke-width="1" x1="-106" x2="-106" y1="403" y2="385"/>
      <line stroke="#000000" stroke-width="1" x1="-102" x2="-102" y1="403" y2="385"/>
      <line stroke="#000000" stroke-width="1" x1="-98" x2="-98" y1="403" y2="385"/>
      <line stroke="#000000" stroke-width="1" x1="-94" x2="-94" y1="403" y2="385"/>
      <line stroke="#000000" stroke-width="1" x1="-90" x2="-90" y1="403" y2="385"/>
      <line stroke="#000000" stroke-width="1" x1="-86" x2="-86" y1="403" y2="385"/>
      <line stroke="#000000" stroke-width="1" x1="-82" x2="-82" y1="403" y2="385"/>
      <line stroke="#000000" stroke-width="1" x1="-78" x2="-78" y1="403" y2="385"/>
      <line stroke="#000000" stroke-width="1" x1="-74" x2="-74" y1="403" y2="385"/>
      <line stroke="#000000" stroke-width="1" x1="-70" x2="-70" y1="623" y2="641"/>
      <line stroke="#000000" stroke-width="1" x1="-66" x2="-66" y1="623" y2="641"/>
      <line stroke="#000000" stroke-width="1" x1="-62" x2="-62" y1="623" y2="641"/>
      <line stroke="#000000" stroke-width="1" x1="-58" x2="-58" y1="623" y2="641"/>
      <line stroke="#000000" stroke-width="1" x1="-54" x2="-54" y1="623" y2="641"/>
      <line stroke="#000000" stroke-width="1" x1="-50" x2="-50" y1="623" y2="641"/>
      <line stroke="#000000" stroke-width="1" x1="-46" x2="-46" y1="623" y2="641"/>
      <line stroke="#000000" stroke-width="1" x1="-42" x2="-42" y1="623" y2="641"/>
      <line stroke="#000000" stroke-width="1" x1="-38" x2="-38" y1="623" y2="641"/>
      <line stroke="#000000" stroke-width="1" x1="-34" x2="-34" y1="623" y2="641"/>
      <line stroke="#000000" stroke-width="1" x1="-30" x2="-30" y1="623" y2="641"/>
      <line stroke="#000000" stroke-width="1" x1="-26" x2="-26" y1="623" y2="641"/>
      <line stroke="#000000" stroke-width="1" x1="50" x2="50" y1="623" y2="641"/>
      <line stroke="#000000" stroke-width="1" x1="46" x2="46" y1="623" y2="641"/>
      <line stroke="#000000" stroke-width="1" x1="42" x2="42" y1="623" y2="641"/>
      <line stroke="#000000" stroke-width="1" x1="38" x2="38" y1="623" y2="641"/>
      <line stroke="#000000" stroke-width="1" x1="34" x2="34" y1="623" y2="641"/>
      <line stroke="#000000" stroke-width="1" x1="30" x2="30" y1="623" y2="641"/>
      <line stroke="#000000" stroke-width="1" x1="26" x2="26" y1="623" y2="641"/>
      <line stroke="#000000" stroke-width="1" x1="22" x2="22" y1="623" y2="641"/>
      <line stroke="#000000" stroke-width="1" x1="18" x2="18" y1="623" y2="641"/>
      <line stroke="#000000" stroke-width="1" x1="14" x2="14" y1="623" y2="641"/>
      <line stroke="#000000" stroke-width="1" x1="10" x2="10" y1="623" y2="641"/>
      <line stroke="#000000" stroke-width="1" x1="6" x2="6" y1="623" y2="641"/>
      <polygon fill="#d0d0d0" points="13,527 2,527 2,496 13,496" stroke="#000000" stroke-width="1"/>
      <polyline fill="none" points="78,542 51,542" stroke="#000000" stroke-width="0.5"/>
      <line stroke="#009900" stroke-width="1" x1="38" x2="34" y1="485" y2="486"/>
      <line stroke="#009900" stroke-width="1" x1="38.9514749175" x2="34.9514749175" y1="488.885189247" y2="489.885189247"/>
      <line stroke="#009900" stroke-width="1" x1="39.902949835" x2="35.902949835" y1="492.770378493" y2="493.770378493"/>
      <line stroke="#009900" stroke-width="1" x1="40.8544247526" x2="36.8544247526" y1="496.65556774" y2="497.65556774"/>
      <line stroke="#009900" stroke-width="1" x1="41.8058996701" x2="37.8058996701" y1="500.540756986" y2="501.540756986"/>
      <line stroke="#009900" stroke-width="1" x1="42.7573745876" x2="38.7573745876" y1="504.425946233" y2="505.425946233"/>
      <line stroke="#009900" stroke-width="1" x1="43.7088495051" x2="39.7088495051" y1="508.311135479" y2="509.311135479"/>
      <line stroke="#009900" stroke-width="1" x1="44.6603244226" x2="40.6603244226" y1="512.196324726" y2="513.196324726"/>
      <line stroke="#009900" stroke-width="1" x1="45.6117993401" x2="41.6117993401" y1="516.081513972" y2="517.081513972"/>
      <line stroke="#009900" stroke-width="1" x1="46.5632742577" x2="42.5632742577" y1="519.966703219" y2="520.966703219"/>
      <line stroke="#009900" stroke-width="1" x1="47.5147491752" x2="43.5147491752" y1="523.851892465" y2="524.851892465"/>
      <line stroke="#009900" stroke-width="1" x1="48.4662240927" x2="44.4662240927" y1="527.737081712" y2="528.737081712"/>
      <line stroke="#009900" stroke-width="1" x1="49.4176990102" x2="45.4176990102" y1="531.622270958" y2="532.622270958"/>
      <line stroke="#ff0000" stroke-width="1" x1="37" x2="33" y1="482" y2="482"/>
      <line stroke="#ff0000" stroke-width="1" x1="37" x2="33" y1="478" y2="478"/>
      <line stroke="#ff0000" stroke-width="1" x1="37" x2="33" y1="474" y2="474"/>
      <line stroke="#ff0000" stroke-width="1" x1="37" x2="33" y1="470" y2="470"/>
      <line stroke="#ff0000" stroke-width="1" x1="37" x2="33" y1="466" y2="466"/>
      <line stroke="#ff0000" stroke-width="1" x1="37" x2="33" y1="462" y2="462"/>
      <line stroke="#ff0000" stroke-width="1" x1="37" x2="33" y1="458" y2="458"/>
      <line stroke="#ff0000" stroke-width="1" x1="37" x2="33" y1="454" y2="454"/>
      <polygon fill="none" points="52,540 47,541 46,536 51,535" stroke="#000000" stroke-width="1"/>
      <polyline fill="none" points="78,572 70,572 66,568 66,548 70,544 78,544" stroke="#000000" stroke-width="1"/>
      <text fill="#000000" font-family="Arial" font-size="10" stroke="none" stroke-width="0" transform="rotate(90.0,79,546)" x="79" y="556.0">кассы</text>
      <polyline fill="none" marker-end="url(#id26)" points="62,472 49,472" stroke="#ff0000" stroke-width="1"/>
      <polyline fill="none" marker-end="url(#id26)" points="11,539 23,537" stroke="#009900" stroke-width="1"/>
      <text fill="#00afaf" font-family="Arial" font-size="15" stroke="none" stroke-width="0" x="-146" y="521.0">проспект Ленина</text>
      <text fill="#00afaf" font-family="Arial" font-size="15" stroke="none" stroke-width="0" x="768" y="514.0">проспект Ленина</text>
      <text fill="#00afaf" font-family="Arial" font-size="15" stroke="none" stroke-width="0" transform="rotate(90.0,920,422)" x="920" y="437.0">улица Новикова-Прибоя</text>
    </g>
  </g>
</svg>
