<?xml version="1.0" encoding="utf-8" ?>
<svg baseProfile="full" height="330.0" version="1.1" width="960.0" xmlns="http://www.w3.org/2000/svg" xmlns:ev="http://www.w3.org/2001/xml-events" xmlns:xlink="http://www.w3.org/1999/xlink">
  <defs>
    <marker id="id33" markerHeight="3" markerUnits="strokeWidth" markerWidth="4" orient="auto" refX="0" refY="5" viewBox="0,0,10,10">
      <path d="M 0 0 L 10 5 L 0 10 z"/>
    </marker>
  </defs>
  <g>
    <rect fill="none" height="330.0" stroke="none" stroke-width="0" width="960.0" x="0.0" y="0.0"/>
    <polygon fill="#e1361e" points="176.0,94.0 626.0,94.0 626.0,124.0 176.0,124.0" stroke="#000000" stroke-width="1"/>
    <polygon fill="#e1361e" points="176.0,234.0 176.0,204.0 626.0,204.0 626.0,234.0" stroke="#000000" stroke-width="1"/>
    <text fill="#e1361e" font-family="Arial" font-size="20.0" stroke="none" stroke-width="0" x="176.0" y="94.0">&lt;&lt; Московская</text>
    <text fill="#e1361e" font-family="Arial" font-size="20.0" stroke="none" stroke-width="0" x="502.0" y="254.0">Спортивная &gt;&gt;</text>
    <text fill="#e1361e" font-family="Arial" font-size="25.0" stroke="none" stroke-width="0" x="337.0" y="176.0">Гагаринская</text>
    <polyline fill="none" points="176.0,124.0 176.0,137.0 172.0,137.0 172.0,133.0 167.0,133.0" stroke="#000000" stroke-width="1"/>
    <polyline fill="none" points="176.0,204.0 176.0,189.0 172.0,189.0 172.0,193.0 167.0,193.0" stroke="#000000" stroke-width="1"/>
    <polyline fill="none" points="146.0,104.0 146.0,100.0 12.0,100.0 12.0,227.0 146.0,227.0 146.0,223.0" stroke="#000000" stroke-width="1"/>
    <polyline fill="none" points="84.0,133.0 84.0,129.0 123.0,129.0 123.0,125.0 146.0,125.0 146.0,121.0" stroke="#000000" stroke-width="1"/>
    <polyline fill="none" points="84.0,193.0 84.0,197.0 124.0,197.0 124.0,201.0 146.0,201.0 146.0,205.0" stroke="#000000" stroke-width="1"/>
    <polyline fill="none" points="626.0,124.0 626.0,138.0 630.0,138.0 630.0,133.0 635.0,133.0" stroke="#000000" stroke-width="1"/>
    <polyline fill="none" points="626.0,204.0 626.0,188.0 630.0,188.0 630.0,193.0 635.0,193.0" stroke="#000000" stroke-width="1"/>
    <line stroke="#7f7f7f" stroke-width="1" x1="755.0" x2="755.0" y1="189.0" y2="137.0"/>
    <line stroke="#7f7f7f" stroke-width="1" x1="751.0" x2="751.0" y1="189.0" y2="137.0"/>
    <line stroke="#7f7f7f" stroke-width="1" x1="747.0" x2="747.0" y1="189.0" y2="137.0"/>
    <line stroke="#7f7f7f" stroke-width="1" x1="743.0" x2="743.0" y1="189.0" y2="137.0"/>
    <line stroke="#7f7f7f" stroke-width="1" x1="739.0" x2="739.0" y1="189.0" y2="137.0"/>
    <line stroke="#7f7f7f" stroke-width="1" x1="735.0" x2="735.0" y1="189.0" y2="137.0"/>
    <line stroke="#7f7f7f" stroke-width="1" x1="731.0" x2="731.0" y1="189.0" y2="137.0"/>
    <line stroke="#7f7f7f" stroke-width="1" x1="727.0" x2="727.0" y1="189.0" y2="137.0"/>
    <line stroke="#7f7f7f" stroke-width="1" x1="723.0" x2="723.0" y1="189.0" y2="137.0"/>
    <line stroke="#7f7f7f" stroke-width="1" x1="719.0" x2="719.0" y1="189.0" y2="137.0"/>
    <line stroke="#7f7f7f" stroke-width="1" x1="715.0" x2="715.0" y1="189.0" y2="137.0"/>
    <line stroke="#7f7f7f" stroke-width="1" x1="711.0" x2="711.0" y1="189.0" y2="137.0"/>
    <line stroke="#7f7f7f" stroke-width="1" x1="707.0" x2="707.0" y1="189.0" y2="137.0"/>
    <line stroke="#7f7f7f" stroke-width="1" x1="703.0" x2="703.0" y1="189.0" y2="137.0"/>
    <line stroke="#7f7f7f" stroke-width="1" x1="699.0" x2="699.0" y1="189.0" y2="137.0"/>
    <line stroke="#7f7f7f" stroke-width="1" x1="695.0" x2="695.0" y1="189.0" y2="137.0"/>
    <line stroke="#7f7f7f" stroke-width="1" x1="691.0" x2="691.0" y1="189.0" y2="137.0"/>
    <line stroke="#7f7f7f" stroke-width="1" x1="687.0" x2="687.0" y1="189.0" y2="137.0"/>
    <line stroke="#7f7f7f" stroke-width="1" x1="683.0" x2="683.0" y1="189.0" y2="137.0"/>
    <line stroke="#7f7f7f" stroke-width="1" x1="679.0" x2="679.0" y1="189.0" y2="137.0"/>
    <line stroke="#7f7f7f" stroke-width="1" x1="675.0" x2="675.0" y1="189.0" y2="137.0"/>
    <line stroke="#7f7f7f" stroke-width="1" x1="671.0" x2="671.0" y1="189.0" y2="137.0"/>
    <line stroke="#7f7f7f" stroke-width="1" x1="667.0" x2="667.0" y1="189.0" y2="137.0"/>
    <line stroke="#7f7f7f" stroke-width="1" x1="663.0" x2="663.0" y1="189.0" y2="137.0"/>
    <line stroke="#7f7f7f" stroke-width="1" x1="659.0" x2="659.0" y1="189.0" y2="137.0"/>
    <line stroke="#7f7f7f" stroke-width="1" x1="655.0" x2="655.0" y1="189.0" y2="137.0"/>
    <line stroke="#7f7f7f" stroke-width="1" x1="651.0" x2="651.0" y1="189.0" y2="137.0"/>
    <line stroke="#7f7f7f" stroke-width="1" x1="647.0" x2="647.0" y1="189.0" y2="137.0"/>
    <line stroke="#7f7f7f" stroke-width="1" x1="643.0" x2="643.0" y1="189.0" y2="137.0"/>
    <polygon fill="#9b5509" points="761.0,137.0 635.0,137.0 635.0,133.0 761.0,133.0" stroke="#000000" stroke-width="1"/>
    <polygon fill="#9b5509" points="761.0,149.0 761.0,157.0 635.0,157.0 635.0,149.0" stroke="#000000" stroke-width="1"/>
    <polygon fill="#9b5509" points="761.0,169.0 761.0,177.0 635.0,177.0 635.0,169.0" stroke="#000000" stroke-width="1"/>
    <polygon fill="#9b5509" points="761.0,189.0 635.0,189.0 635.0,193.0 761.0,193.0" stroke="#000000" stroke-width="1"/>
    <g fill="#9b5509" fill-opacity="0.85" stroke="#000000" stroke-opacity="0.85" transform="rotate(0.0,480.0,165.0)">
      <polygon fill="#ffffff" points="673.0,195.0 673.0,131.0 697.0,131.0 697.0,195.0" stroke="#ffffff" stroke-width="1"/>
    </g>
    <g fill="#ffffff" fill-opacity="1.0" stroke="#ffffff" stroke-opacity="1.0" transform="rotate(0.0,480.0,165.0)">
      <polygon fill="#d0d0d0" points="701.0,133.0 701.0,193.0 757.0,193.0 757.0,197.0 720.0,197.0 720.0,200.0 697.0,200.0 697.0,126.0 719.0,126.0 719.0,129.0 757.0,129.0 757.0,133.0" stroke="#000000" stroke-width="1"/>
      <polyline fill="none" points="623.0,9.0 697.0,9.0 697.0,97.0 719.0,97.0 719.0,94.0 828.0,94.0 828.0,234.0 720.0,234.0 720.0,231.0 697.0,231.0 697.0,319.0 623.0,319.0" stroke="#000000" stroke-width="1"/>
      <polyline fill="none" points="623.0,301.0 673.0,301.0 673.0,27.0 623.0,27.0" stroke="#000000" stroke-width="1"/>
      <line stroke="#000000" stroke-width="1" x1="625.0" x2="625.0" y1="27.0" y2="9.0"/>
      <line stroke="#000000" stroke-width="1" x1="629.0" x2="629.0" y1="27.0" y2="9.0"/>
      <line stroke="#000000" stroke-width="1" x1="633.0" x2="633.0" y1="27.0" y2="9.0"/>
      <line stroke="#000000" stroke-width="1" x1="637.0" x2="637.0" y1="27.0" y2="9.0"/>
      <line stroke="#000000" stroke-width="1" x1="641.0" x2="641.0" y1="27.0" y2="9.0"/>
      <line stroke="#000000" stroke-width="1" x1="645.0" x2="645.0" y1="27.0" y2="9.0"/>
      <line stroke="#000000" stroke-width="1" x1="649.0" x2="649.0" y1="27.0" y2="9.0"/>
      <line stroke="#000000" stroke-width="1" x1="653.0" x2="653.0" y1="27.0" y2="9.0"/>
      <line stroke="#000000" stroke-width="1" x1="657.0" x2="657.0" y1="27.0" y2="9.0"/>
      <line stroke="#000000" stroke-width="1" x1="661.0" x2="661.0" y1="27.0" y2="9.0"/>
      <line stroke="#000000" stroke-width="1" x1="665.0" x2="665.0" y1="27.0" y2="9.0"/>
      <line stroke="#000000" stroke-width="1" x1="669.0" x2="669.0" y1="27.0" y2="9.0"/>
      <line stroke="#000000" stroke-width="1" x1="625.0" x2="625.0" y1="301.0" y2="319.0"/>
      <line stroke="#000000" stroke-width="1" x1="629.0" x2="629.0" y1="301.0" y2="319.0"/>
      <line stroke="#000000" stroke-width="1" x1="633.0" x2="633.0" y1="301.0" y2="319.0"/>
      <line stroke="#000000" stroke-width="1" x1="637.0" x2="637.0" y1="301.0" y2="319.0"/>
      <line stroke="#000000" stroke-width="1" x1="641.0" x2="641.0" y1="301.0" y2="319.0"/>
      <line stroke="#000000" stroke-width="1" x1="645.0" x2="645.0" y1="301.0" y2="319.0"/>
      <line stroke="#000000" stroke-width="1" x1="649.0" x2="649.0" y1="301.0" y2="319.0"/>
      <line stroke="#000000" stroke-width="1" x1="653.0" x2="653.0" y1="301.0" y2="319.0"/>
      <line stroke="#000000" stroke-width="1" x1="657.0" x2="657.0" y1="301.0" y2="319.0"/>
      <line stroke="#000000" stroke-width="1" x1="661.0" x2="661.0" y1="301.0" y2="319.0"/>
      <line stroke="#000000" stroke-width="1" x1="665.0" x2="665.0" y1="301.0" y2="319.0"/>
      <line stroke="#000000" stroke-width="1" x1="669.0" x2="669.0" y1="301.0" y2="319.0"/>
      <polyline fill="none" points="828.0,103.0 838.0,103.0 838.0,132.0 828.0,132.0" stroke="#000000" stroke-width="1"/>
      <text fill="#000000" font-family="Arial" font-size="10.0" stroke="none" stroke-width="0" transform="rotate(-90.0,827.0,130.0)" x="827.0" y="140.0">кассы</text>
      <polyline fill="none" points="761.0,133.0 788.0,133.0 788.0,138.0" stroke="#000000" stroke-width="0.5"/>
      <polygon fill="none" points="791.0,174.0 785.0,174.0 785.0,180.0 791.0,180.0" stroke="#000000" stroke-width="1"/>
      <polyline fill="none" points="761.0,173.0 785.0,182.0 785.0,234.0" stroke="#000000" stroke-width="0.5"/>
      <line stroke="#009900" stroke-width="1" x1="790.0" x2="786.0" y1="138.0" y2="138.0"/>
      <line stroke="#009900" stroke-width="1" x1="790.0" x2="786.0" y1="142.0" y2="142.0"/>
      <line stroke="#009900" stroke-width="1" x1="790.0" x2="786.0" y1="146.0" y2="146.0"/>
      <line stroke="#009900" stroke-width="1" x1="790.0" x2="786.0" y1="150.0" y2="150.0"/>
      <line stroke="#009900" stroke-width="1" x1="790.0" x2="786.0" y1="154.0" y2="154.0"/>
      <line stroke="#009900" stroke-width="1" x1="790.0" x2="786.0" y1="158.0" y2="158.0"/>
      <line stroke="#009900" stroke-width="1" x1="790.0" x2="786.0" y1="162.0" y2="162.0"/>
      <line stroke="#009900" stroke-width="1" x1="790.0" x2="786.0" y1="166.0" y2="166.0"/>
      <line stroke="#009900" stroke-width="1" x1="790.0" x2="786.0" y1="170.0" y2="170.0"/>
      <text fill="#00afaf" font-family="Arial" font-size="15.0" stroke="none" stroke-width="0" x="833.0" y="162.0">улица Гагарина</text>
      <text fill="#00afaf" font-family="Arial" font-size="15.0" stroke="none" stroke-width="0" transform="rotate(-90.0,937.0,235.0)" x="937.0" y="250.0">улица Революционная</text>
      <line stroke="#7f7f7f" stroke-width="1" x1="160.0" x2="160.0" y1="189.0" y2="137.0"/>
      <line stroke="#7f7f7f" stroke-width="1" x1="156.0" x2="156.0" y1="189.0" y2="137.0"/>
      <line stroke="#7f7f7f" stroke-width="1" x1="152.0" x2="152.0" y1="189.0" y2="137.0"/>
      <line stroke="#7f7f7f" stroke-width="1" x1="148.0" x2="148.0" y1="189.0" y2="137.0"/>
      <line stroke="#7f7f7f" stroke-width="1" x1="144.0" x2="144.0" y1="189.0" y2="137.0"/>
      <line stroke="#7f7f7f" stroke-width="1" x1="140.0" x2="140.0" y1="189.0" y2="137.0"/>
      <line stroke="#7f7f7f" stroke-width="1" x1="136.0" x2="136.0" y1="189.0" y2="137.0"/>
      <line stroke="#7f7f7f" stroke-width="1" x1="132.0" x2="132.0" y1="189.0" y2="137.0"/>
      <line stroke="#7f7f7f" stroke-width="1" x1="128.0" x2="128.0" y1="189.0" y2="137.0"/>
      <line stroke="#7f7f7f" stroke-width="1" x1="124.0" x2="124.0" y1="189.0" y2="137.0"/>
      <line stroke="#7f7f7f" stroke-width="1" x1="120.0" x2="120.0" y1="189.0" y2="137.0"/>
      <line stroke="#7f7f7f" stroke-width="1" x1="116.0" x2="116.0" y1="189.0" y2="137.0"/>
      <line stroke="#7f7f7f" stroke-width="1" x1="112.0" x2="112.0" y1="189.0" y2="137.0"/>
      <line stroke="#7f7f7f" stroke-width="1" x1="108.0" x2="108.0" y1="189.0" y2="137.0"/>
      <line stroke="#7f7f7f" stroke-width="1" x1="104.0" x2="104.0" y1="189.0" y2="137.0"/>
      <line stroke="#7f7f7f" stroke-width="1" x1="100.0" x2="100.0" y1="189.0" y2="137.0"/>
      <line stroke="#7f7f7f" stroke-width="1" x1="96.0" x2="96.0" y1="189.0" y2="137.0"/>
      <line stroke="#7f7f7f" stroke-width="1" x1="92.0" x2="92.0" y1="189.0" y2="137.0"/>
      <line stroke="#7f7f7f" stroke-width="1" x1="88.0" x2="88.0" y1="189.0" y2="137.0"/>
      <polygon fill="#9b5509" points="167.0,137.0 81.0,137.0 81.0,133.0 167.0,133.0" stroke="#000000" stroke-width="1"/>
      <polygon fill="#9b5509" points="167.0,149.0 167.0,157.0 81.0,157.0 81.0,149.0" stroke="#000000" stroke-width="1"/>
      <polygon fill="#9b5509" points="167.0,169.0 167.0,177.0 81.0,177.0 81.0,169.0" stroke="#000000" stroke-width="1"/>
      <polygon fill="#9b5509" points="167.0,189.0 81.0,189.0 81.0,193.0 167.0,193.0" stroke="#000000" stroke-width="1"/>
      <polyline fill="none" marker-end="url(#id33)" points="625.0,183.0 647.0,183.0" stroke="#ff0000" stroke-width="1"/>
      <polyline fill="none" marker-end="url(#id33)" points="713.0,214.0 698.0,214.0" stroke="#ff0000" stroke-width="1"/>
      <polyline fill="none" marker-end="url(#id33)" points="766.0,143.0 750.0,143.0" stroke="#009900" stroke-width="1"/>
      <polyline fill="none" marker-end="url(#id33)" points="697.0,111.0 712.0,111.0" stroke="#009900" stroke-width="1"/>
    </g>
    <g fill="#9b5509" fill-opacity="0.7" stroke="#009900" stroke-opacity="0.7" transform="rotate(0.0,480.0,165.0)">
      <polygon fill="#ffd0d0" points="10.0,98.0 148.0,98.0 148.0,131.0 179.0,131.0 179.0,196.0 148.0,196.0 148.0,229.0 10.0,229.0" stroke="#ffd0d0" stroke-width="1"/>
    </g>
    <g fill="#ffd0d0" fill-opacity="1.0" stroke="#ff4040" stroke-opacity="1.0" transform="rotate(0.0,480.0,165.0)">
      <text fill="#ff4040" font-family="Arial" font-size="20.0" stroke="none" stroke-width="0" transform="rotate(90.0,53.0,126.0)" x="53.0" y="146.0">Закрыто</text>
      <polyline fill="none" points="10.0,98.0 148.0,98.0 148.0,131.0 179.0,131.0 179.0,196.0 148.0,196.0 148.0,229.0 10.0,229.0 10.0,98.0" stroke="#ff4040" stroke-dasharray="5 2" stroke-width="1"/>
    </g>
  </g>
</svg>
