<svg xmlns="http://www.w3.org/2000/svg" version="1.1">
<defs>
    <marker id="arrow"
      viewBox="0 0 10 10" refX="0" refY="5"
      markerUnits="strokeWidth"
      markerWidth="4" markerHeight="3"
      orient="auto">
      <path d="M 0 0 L 10 5 L 0 10 z" />
    </marker>
  </defs>
<g stroke="#000000" fill="none" stroke-opacity="1.0" fill-opacity="1.0" transform="scale(0.5)">
<rect x="0" y="0" width="1090" height="540" stroke-width="0" fill="none" />
<g stroke="#000000" fill="none" stroke-opacity="1.0" fill-opacity="1.0" transform="scale(0.5)">
</g>
<g transform="rotate(25.0 545 270)" >
<g stroke="#000000" fill="none" stroke-opacity="1.0" fill-opacity="1.0" transform="scale(0.5)">
</g>
<g stroke="#000000" fill="#E1361E" stroke-opacity="1.0" fill-opacity="1.0" transform="scale(0.5)">
<polygon points="328,163  778,163  778,193  328,193" stroke-width="1" />
<polygon points="328,303  328,273  778,273  778,303" stroke-width="1" />
</g>
<g stroke="#E1361E" fill="none" stroke-opacity="1.0" fill-opacity="1.0" transform="scale(0.5)">
<text x=" 328" y="161.0" font-family="Arial" font-size=" 20" fill="#E1361E" stroke-width="0">&lt;&lt; Безымянка</text>
<text x=" 660" y="323.0" font-family="Arial" font-size=" 20" fill="#E1361E" stroke-width="0">Юнгородок &gt;&gt;</text>
<text x=" 489" y="245.0" font-family="Arial" font-size=" 25" fill="#E1361E" stroke-width="0">Кировская</text>
</g>
<g stroke="#000000" fill="none" stroke-opacity="1.0" fill-opacity="1.0" transform="scale(0.5)">
<polyline points="243,202  243,168  170,168  170,172  163,172  163,168  139,168  139,376  194,408" stroke-width="1" fill="none"  />
<polyline points="206,389  163,364  163,296  170,296  170,300  242,300  242,262" stroke-width="1" fill="none"  />
<polyline points="328,193  328,202  319,202" stroke-width="1" fill="none"  />
<polyline points="328,273  328,262  319,262" stroke-width="1" fill="none"  />
<line x1="204" y1="388" x2="193" y2="407" stroke-width="1" />
<line x1="200.532374788" y1="386.006115503" x2="189.532374788" y2="405.006115503" stroke-width="1" />
<line x1="197.064749576" y1="384.012231006" x2="186.064749576" y2="403.012231006" stroke-width="1" />
<line x1="193.597124363" y1="382.018346509" x2="182.597124363" y2="401.018346509" stroke-width="1" />
<line x1="190.129499151" y1="380.024462012" x2="179.129499151" y2="399.024462012" stroke-width="1" />
<line x1="186.661873939" y1="378.030577515" x2="175.661873939" y2="397.030577515" stroke-width="1" />
<line x1="183.194248727" y1="376.036693018" x2="172.194248727" y2="395.036693018" stroke-width="1" />
<line x1="179.726623514" y1="374.042808521" x2="168.726623514" y2="393.042808521" stroke-width="1" />
<line x1="176.258998302" y1="372.048924024" x2="165.258998302" y2="391.048924024" stroke-width="1" />
<line x1="172.79137309" y1="370.055039527" x2="161.79137309" y2="389.055039527" stroke-width="1" />
<line x1="169.323747878" y1="368.06115503" x2="158.323747878" y2="387.06115503" stroke-width="1" />
<line x1="165.856122665" y1="366.067270533" x2="154.856122665" y2="385.067270533" stroke-width="1" />
</g>
<g stroke="#000000" fill="#D0D0D0" stroke-opacity="1.0" fill-opacity="1.0" transform="scale(0.5)">
<polygon points="163,194  170,194  170,274  163,274" stroke-width="1" />
</g>
<g stroke="#7F7F7F" fill="#D0D0D0" stroke-opacity="1.0" fill-opacity="1.0" transform="scale(0.5)">
<line x1="312" y1="258" x2="312" y2="206" stroke-width="1" />
<line x1="308" y1="258" x2="308" y2="206" stroke-width="1" />
<line x1="304" y1="258" x2="304" y2="206" stroke-width="1" />
<line x1="300" y1="258" x2="300" y2="206" stroke-width="1" />
<line x1="296" y1="258" x2="296" y2="206" stroke-width="1" />
<line x1="292" y1="258" x2="292" y2="206" stroke-width="1" />
<line x1="288" y1="258" x2="288" y2="206" stroke-width="1" />
<line x1="284" y1="258" x2="284" y2="206" stroke-width="1" />
<line x1="280" y1="258" x2="280" y2="206" stroke-width="1" />
<line x1="276" y1="258" x2="276" y2="206" stroke-width="1" />
<line x1="272" y1="258" x2="272" y2="206" stroke-width="1" />
<line x1="268" y1="258" x2="268" y2="206" stroke-width="1" />
<line x1="264" y1="258" x2="264" y2="206" stroke-width="1" />
<line x1="260" y1="258" x2="260" y2="206" stroke-width="1" />
<line x1="256" y1="258" x2="256" y2="206" stroke-width="1" />
<line x1="252" y1="258" x2="252" y2="206" stroke-width="1" />
<line x1="248" y1="258" x2="248" y2="206" stroke-width="1" />
<line x1="244" y1="258" x2="244" y2="206" stroke-width="1" />
<line x1="240" y1="258" x2="240" y2="206" stroke-width="1" />
</g>
<g stroke="#000000" fill="#9B5509" stroke-opacity="1.0" fill-opacity="1.0" transform="scale(0.5)">
<polygon points="319,206  233,206  233,202  319,202" stroke-width="1" />
<polygon points="319,218  319,226  233,226  233,218" stroke-width="1" />
<polygon points="319,238  319,246  233,246  233,238" stroke-width="1" />
<polygon points="319,258  233,258  233,262  319,262" stroke-width="1" />
</g>
<g stroke="#000000" fill="none" stroke-opacity="1.0" fill-opacity="1.0" transform="scale(0.5)">
<polyline points="243,195  234,195  234,168" stroke-width="1" fill="none"  />
<text x=" 232" y="204.0" font-family="Arial" font-size=" 10" fill="#000000" transform="rotate(-90.0  232  194)" stroke-width="0">кассы</text>
</g>
<g stroke="#000000" fill="none" stroke-opacity="1.0" fill-opacity="1.0" transform="scale(0.5)">
<polyline points="234,195  203,195" stroke-width=" 0.5" fill="none"  />
<polygon points="186,246  192,246  192,240  186,240" stroke-width="1" />
<polyline points="189,300  189,295" stroke-width=" 0.5" fill="none"  />
<polyline points="193,245  228,222  233,222" stroke-width=" 0.5" fill="none"  />
<polyline points="184,243  170,243" stroke-width=" 0.5" fill="none"  />
</g>
<g stroke="#009900" fill="none" stroke-opacity="1.0" fill-opacity="1.0" transform="scale(0.5)">
<line x1="190" y1="235" x2="194" y2="236" stroke-width="1" />
<line x1="191.036514264" y1="231.136628651" x2="195.036514264" y2="232.136628651" stroke-width="1" />
<line x1="192.073028529" y1="227.273257302" x2="196.073028529" y2="228.273257302" stroke-width="1" />
<line x1="193.109542793" y1="223.409885953" x2="197.109542793" y2="224.409885953" stroke-width="1" />
<line x1="194.146057057" y1="219.546514604" x2="198.146057057" y2="220.546514604" stroke-width="1" />
<line x1="195.182571322" y1="215.683143255" x2="199.182571322" y2="216.683143255" stroke-width="1" />
<line x1="196.219085586" y1="211.819771906" x2="200.219085586" y2="212.819771906" stroke-width="1" />
<line x1="197.25559985" y1="207.956400557" x2="201.25559985" y2="208.956400557" stroke-width="1" />
<line x1="198.292114115" y1="204.093029208" x2="202.292114115" y2="205.093029208" stroke-width="1" />
<line x1="199.328628379" y1="200.22965786" x2="203.328628379" y2="201.22965786" stroke-width="1" />
<line x1="200.365142643" y1="196.366286511" x2="204.365142643" y2="197.366286511" stroke-width="1" />
</g>
<g stroke="#FF0000" fill="none" stroke-opacity="1.0" fill-opacity="1.0" transform="scale(0.5)">
<line x1="187" y1="294" x2="191" y2="294" stroke-width="1" />
<line x1="187" y1="290" x2="191" y2="290" stroke-width="1" />
<line x1="187" y1="286" x2="191" y2="286" stroke-width="1" />
<line x1="187" y1="282" x2="191" y2="282" stroke-width="1" />
<line x1="187" y1="278" x2="191" y2="278" stroke-width="1" />
<line x1="187" y1="274" x2="191" y2="274" stroke-width="1" />
<line x1="187" y1="270" x2="191" y2="270" stroke-width="1" />
<line x1="187" y1="266" x2="191" y2="266" stroke-width="1" />
<line x1="187" y1="262" x2="191" y2="262" stroke-width="1" />
<line x1="187" y1="258" x2="191" y2="258" stroke-width="1" />
<line x1="187" y1="254" x2="191" y2="254" stroke-width="1" />
<line x1="187" y1="250" x2="191" y2="250" stroke-width="1" />
</g>
<g stroke="#000000" fill="none" stroke-opacity="1.0" fill-opacity="1.0" transform="scale(0.5)">
<polyline points="778,193  778,202  784,202  788,206  792,206  792,202  797,202" stroke-width="1" fill="none"  />
<polyline points="778,273  778,262  784,262  788,258  792,258  792,262  797,262" stroke-width="1" fill="none"  />
</g>
<g stroke="#7F7F7F" fill="none" stroke-opacity="1.0" fill-opacity="1.0" transform="scale(0.5)">
<line x1="924" y1="258" x2="924" y2="206" stroke-width="1" />
<line x1="920" y1="258" x2="920" y2="206" stroke-width="1" />
<line x1="916" y1="258" x2="916" y2="206" stroke-width="1" />
<line x1="912" y1="258" x2="912" y2="206" stroke-width="1" />
<line x1="908" y1="258" x2="908" y2="206" stroke-width="1" />
<line x1="904" y1="258" x2="904" y2="206" stroke-width="1" />
<line x1="900" y1="258" x2="900" y2="206" stroke-width="1" />
<line x1="896" y1="258" x2="896" y2="206" stroke-width="1" />
<line x1="892" y1="258" x2="892" y2="206" stroke-width="1" />
<line x1="888" y1="258" x2="888" y2="206" stroke-width="1" />
<line x1="884" y1="258" x2="884" y2="206" stroke-width="1" />
<line x1="880" y1="258" x2="880" y2="206" stroke-width="1" />
<line x1="876" y1="258" x2="876" y2="206" stroke-width="1" />
<line x1="872" y1="258" x2="872" y2="206" stroke-width="1" />
<line x1="868" y1="258" x2="868" y2="206" stroke-width="1" />
<line x1="864" y1="258" x2="864" y2="206" stroke-width="1" />
<line x1="860" y1="258" x2="860" y2="206" stroke-width="1" />
<line x1="856" y1="258" x2="856" y2="206" stroke-width="1" />
<line x1="852" y1="258" x2="852" y2="206" stroke-width="1" />
<line x1="848" y1="258" x2="848" y2="206" stroke-width="1" />
<line x1="844" y1="258" x2="844" y2="206" stroke-width="1" />
<line x1="840" y1="258" x2="840" y2="206" stroke-width="1" />
<line x1="836" y1="258" x2="836" y2="206" stroke-width="1" />
<line x1="832" y1="258" x2="832" y2="206" stroke-width="1" />
<line x1="828" y1="258" x2="828" y2="206" stroke-width="1" />
<line x1="824" y1="258" x2="824" y2="206" stroke-width="1" />
<line x1="820" y1="258" x2="820" y2="206" stroke-width="1" />
<line x1="816" y1="258" x2="816" y2="206" stroke-width="1" />
<line x1="812" y1="258" x2="812" y2="206" stroke-width="1" />
<line x1="808" y1="258" x2="808" y2="206" stroke-width="1" />
<line x1="804" y1="258" x2="804" y2="206" stroke-width="1" />
</g>
<g stroke="#000000" fill="#9B5509" stroke-opacity="1.0" fill-opacity="1.0" transform="scale(0.5)">
<polygon points="931,206  797,206  797,202  931,202" stroke-width="1" />
<polygon points="931,218  931,226  797,226  797,218" stroke-width="1" />
<polygon points="931,238  931,246  797,246  797,238" stroke-width="1" />
<polygon points="931,258  797,258  797,262  931,262" stroke-width="1" />
<polyline points="919,202  939,166  972,142  1013,133  1061,146  1097,181  1111,231  1096,284  1061,317  1013,330  967,319  935,292  919,262" stroke-width="1" fill="none"/> <!-- spline -->
</g>
<g stroke="#00AFAF" fill="none" stroke-opacity="1.0" fill-opacity="1.0" transform="scale(0.5)">
<text x=" 855" y="23.0" font-family="Arial" font-size=" 15" fill="#00AFAF" transform="rotate(-25.0  855  8)" stroke-width="0">Кировский рынок</text>
<text x=" 468" y="62.0" font-family="Arial" font-size=" 15" fill="#00AFAF" transform="rotate(-25.0  468  47)" stroke-width="0">'ТЦ "Золотой Дракон"'</text>
<text x=" 32" y="455.0" font-family="Arial" font-size=" 15" fill="#00AFAF" transform="rotate(-60.0  32  440)" stroke-width="0">'ж/д станция "Пятилетка"'</text>
<polyline points="120,328  54,443" marker-end="url(#arrow)" stroke-width="1" fill="none" />
</g>
<g stroke="#FF0000" fill="none" stroke-opacity="1.0" fill-opacity="1.0" transform="scale(0.5)">
<polyline points="227,253  212,261" marker-end="url(#arrow)" stroke-width="1" fill="none" />
</g>
<g stroke="#009900" fill="none" stroke-opacity="1.0" fill-opacity="1.0" transform="scale(0.5)">
<polyline points="173,182  184,188" marker-end="url(#arrow)" stroke-width="1" fill="none" />
</g>
<g stroke="#FFD0D0" fill="#FFD0D0" stroke-opacity="0.7" fill-opacity="0.7" transform="scale(0.5)">
<polygon points="775,200  933,200  933,264  775,264" stroke-width="1" />
</g>
<g stroke="#FF4040" fill="none" stroke-opacity="1.0" fill-opacity="1.0" transform="scale(0.5)">
<text x=" 830" y="237.0" font-family="Arial" font-size=" 20" fill="#FF4040" stroke-width="0">Закрыто</text>
<polyline points="775,200  933,200  933,264  775,264  775,200" stroke-width="1" fill="none" stroke-dasharray="5,2" />
</g>
</g>
</g>
</svg>
