<svg xmlns="http://www.w3.org/2000/svg" version="1.1">
<defs>
    <marker id="arrow"
      viewBox="0 0 10 10" refX="0" refY="5"
      markerUnits="strokeWidth"
      markerWidth="4" markerHeight="3"
      orient="auto">
      <path d="M 0 0 L 10 5 L 0 10 z" />
    </marker>
  </defs>
<g stroke="#000000" fill="none" stroke-opacity="1.0" fill-opacity="1.0" transform="scale(0.5)">
<rect x="0" y="0" width="580" height="760" stroke-width="0" fill="none" />
<g stroke="#000000" fill="none" stroke-opacity="1.0" fill-opacity="1.0" transform="scale(0.5)">
</g>
<g transform="rotate(50.0 290 380)" >
<g stroke="#000000" fill="none" stroke-opacity="1.0" fill-opacity="1.0" transform="scale(0.5)">
</g>
<g stroke="#000000" fill="#E1361E" stroke-opacity="1.0" fill-opacity="1.0" transform="scale(0.5)">
<polygon points="243,382  693,382  693,412  243,412" stroke-width="1" />
<polygon points="243,415  693,415  693,445  243,445" stroke-width="1" />
</g>
<g stroke="#000000" fill="none" stroke-opacity="1.0" fill-opacity="1.0" transform="scale(0.5)">
<text x=" 244" y="400.0" font-family="Arial" font-size=" 20" fill="#000000" stroke-width="0">&lt;&lt; Алабинская</text>
<text x=" 561" y="400.0" font-family="Arial" font-size=" 20" fill="#000000" stroke-width="0">Московская &gt;&gt;</text>
<text x=" 391" y="408.0" font-family="Arial" font-size=" 25" fill="#000000" stroke-width="0">Российская</text>
</g>
<g stroke="#FFFFFF" fill="none" stroke-opacity="1.0" fill-opacity="1.0" transform="scale(0.5)">
<text x=" 243" y="399.0" font-family="Arial" font-size=" 20" fill="#FFFFFF" stroke-width="0">&lt;&lt; Алабинская</text>
<text x=" 560" y="399.0" font-family="Arial" font-size=" 20" fill="#FFFFFF" stroke-width="0">Московская &gt;&gt;</text>
<text x=" 390" y="407.0" font-family="Arial" font-size=" 25" fill="#FFFFFF" stroke-width="0">Российская</text>
</g>
<g stroke="#00AFAF" fill="none" stroke-opacity="1.0" fill-opacity="1.0" transform="scale(0.5)">
<text x=" -86" y="261.0" font-family="Arial" font-size=" 15" fill="#00AFAF" stroke-width="0">улица Луначарского</text>
<text x=" 54" y="335.0" font-family="Arial" font-size=" 15" fill="#00AFAF" transform="rotate(-90.0  54  320)" stroke-width="0">Автобусный проезд</text>
<text x=" -25" y="497.0" font-family="Arial" font-size=" 15" fill="#00AFAF" transform="rotate(-50.0  -25  482)" stroke-width="0">проспект Ленина</text>
</g>
<g stroke="#000000" fill="#D0D0D0" stroke-opacity="1.0" fill-opacity="1.0" transform="scale(0.5)">
<polygon points="243,374  190,374  190,454  243,454" stroke-width="1" />
<polyline points="693,382  693,348  127,348  127,391  109,391  109,278" stroke-width="1" fill="none"  />
<polyline points="693,447  693,480  127,480  127,436  109,436  109,506  159,506" stroke-width="1" fill="none"  />
<polyline points="159,524  85,524  85,278" stroke-width="1" fill="none"  />
<polyline points="693,412  693,415" stroke-width="1" fill="none"  />
<line x1="241" y1="454" x2="241" y2="480" stroke-width="1" />
<line x1="237" y1="454" x2="237" y2="480" stroke-width="1" />
<line x1="233" y1="454" x2="233" y2="480" stroke-width="1" />
<line x1="229" y1="454" x2="229" y2="480" stroke-width="1" />
<line x1="225" y1="454" x2="225" y2="480" stroke-width="1" />
<line x1="221" y1="454" x2="221" y2="480" stroke-width="1" />
<line x1="217" y1="454" x2="217" y2="480" stroke-width="1" />
<line x1="213" y1="454" x2="213" y2="480" stroke-width="1" />
<line x1="209" y1="454" x2="209" y2="480" stroke-width="1" />
<line x1="205" y1="454" x2="205" y2="480" stroke-width="1" />
<line x1="201" y1="454" x2="201" y2="480" stroke-width="1" />
<line x1="197" y1="454" x2="197" y2="480" stroke-width="1" />
<line x1="241" y1="374" x2="241" y2="348" stroke-width="1" />
<line x1="237" y1="374" x2="237" y2="348" stroke-width="1" />
<line x1="233" y1="374" x2="233" y2="348" stroke-width="1" />
<line x1="229" y1="374" x2="229" y2="348" stroke-width="1" />
<line x1="225" y1="374" x2="225" y2="348" stroke-width="1" />
<line x1="221" y1="374" x2="221" y2="348" stroke-width="1" />
<line x1="217" y1="374" x2="217" y2="348" stroke-width="1" />
<line x1="213" y1="374" x2="213" y2="348" stroke-width="1" />
<line x1="209" y1="374" x2="209" y2="348" stroke-width="1" />
<line x1="205" y1="374" x2="205" y2="348" stroke-width="1" />
<line x1="201" y1="374" x2="201" y2="348" stroke-width="1" />
<line x1="197" y1="374" x2="197" y2="348" stroke-width="1" />
<line x1="157" y1="506" x2="157" y2="524" stroke-width="1" />
<line x1="153" y1="506" x2="153" y2="524" stroke-width="1" />
<line x1="149" y1="506" x2="149" y2="524" stroke-width="1" />
<line x1="145" y1="506" x2="145" y2="524" stroke-width="1" />
<line x1="141" y1="506" x2="141" y2="524" stroke-width="1" />
<line x1="137" y1="506" x2="137" y2="524" stroke-width="1" />
<line x1="133" y1="506" x2="133" y2="524" stroke-width="1" />
<line x1="129" y1="506" x2="129" y2="524" stroke-width="1" />
<line x1="125" y1="506" x2="125" y2="524" stroke-width="1" />
<line x1="121" y1="506" x2="121" y2="524" stroke-width="1" />
<line x1="117" y1="506" x2="117" y2="524" stroke-width="1" />
<line x1="113" y1="506" x2="113" y2="524" stroke-width="1" />
<line x1="85" y1="280" x2="109" y2="280" stroke-width="1" />
<line x1="85" y1="284" x2="109" y2="284" stroke-width="1" />
<line x1="85" y1="288" x2="109" y2="288" stroke-width="1" />
<line x1="85" y1="292" x2="109" y2="292" stroke-width="1" />
<line x1="85" y1="296" x2="109" y2="296" stroke-width="1" />
<line x1="85" y1="300" x2="109" y2="300" stroke-width="1" />
<line x1="85" y1="304" x2="109" y2="304" stroke-width="1" />
<line x1="85" y1="308" x2="109" y2="308" stroke-width="1" />
<line x1="85" y1="312" x2="109" y2="312" stroke-width="1" />
<line x1="85" y1="316" x2="109" y2="316" stroke-width="1" />
<line x1="85" y1="320" x2="109" y2="320" stroke-width="1" />
<line x1="85" y1="324" x2="109" y2="324" stroke-width="1" />
</g>
<g stroke="#000000" fill="#FFFFFF" stroke-opacity="1.0" fill-opacity="1.0" transform="scale(0.5)">
<polygon points="85,391  85,436  75,436  75,391" stroke-width="1" />
</g>
<g stroke="#000000" fill="none" stroke-opacity="1.0" fill-opacity="1.0" transform="scale(0.5)">
<polyline points="75,436  85,436  85,391" stroke-width="1" fill="none"  />
<text x=" 73" y="437.0" font-family="Arial" font-size=" 10" fill="#000000" transform="rotate(-90.0  73  427)" stroke-width="0">кассы</text>
</g>
<g stroke="#000000" fill="none" stroke-opacity="1.0" fill-opacity="1.0" transform="scale(0.5)">
<polyline points="157,480  157,468" stroke-width=" 0.5" fill="none"  />
<polygon points="154,462  160,462  160,468  154,468" stroke-width="1" />
<polyline points="157,417  157,407" stroke-width=" 0.5" fill="none"  />
<polyline points="157,367  157,348" stroke-width=" 0.5" fill="none"  />
</g>
<g stroke="#009900" fill="none" stroke-opacity="1.0" fill-opacity="1.0" transform="scale(0.5)">
<line x1="155" y1="457" x2="159" y2="457" stroke-width="1" />
<line x1="155" y1="453" x2="159" y2="453" stroke-width="1" />
<line x1="155" y1="449" x2="159" y2="449" stroke-width="1" />
<line x1="155" y1="445" x2="159" y2="445" stroke-width="1" />
<line x1="155" y1="441" x2="159" y2="441" stroke-width="1" />
<line x1="155" y1="437" x2="159" y2="437" stroke-width="1" />
<line x1="155" y1="433" x2="159" y2="433" stroke-width="1" />
<line x1="155" y1="429" x2="159" y2="429" stroke-width="1" />
<line x1="155" y1="425" x2="159" y2="425" stroke-width="1" />
<line x1="155" y1="421" x2="159" y2="421" stroke-width="1" />
<line x1="155" y1="417" x2="159" y2="417" stroke-width="1" />
</g>
<g stroke="#FF0000" fill="none" stroke-opacity="1.0" fill-opacity="1.0" transform="scale(0.5)">
<line x1="155" y1="407" x2="159" y2="407" stroke-width="1" />
<line x1="155" y1="403" x2="159" y2="403" stroke-width="1" />
<line x1="155" y1="399" x2="159" y2="399" stroke-width="1" />
<line x1="155" y1="395" x2="159" y2="395" stroke-width="1" />
<line x1="155" y1="391" x2="159" y2="391" stroke-width="1" />
<line x1="155" y1="387" x2="159" y2="387" stroke-width="1" />
<line x1="155" y1="383" x2="159" y2="383" stroke-width="1" />
<line x1="155" y1="379" x2="159" y2="379" stroke-width="1" />
<line x1="155" y1="375" x2="159" y2="375" stroke-width="1" />
<line x1="155" y1="371" x2="159" y2="371" stroke-width="1" />
<line x1="155" y1="367" x2="159" y2="367" stroke-width="1" />
</g>
<g stroke="#FF0000" fill="none" stroke-opacity="1.0" fill-opacity="1.0" transform="scale(0.5)">
<polyline points="131,403  110,403" marker-end="url(#arrow)" stroke-width="1" fill="none" />
<polyline points="230,356  207,356" marker-end="url(#arrow)" stroke-width="1" fill="none" />
</g>
<g stroke="#009900" fill="none" stroke-opacity="1.0" fill-opacity="1.0" transform="scale(0.5)">
<polyline points="110,424  131,424" marker-end="url(#arrow)" stroke-width="1" fill="none" />
<polyline points="207,367  230,367" marker-end="url(#arrow)" stroke-width="1" fill="none" />
</g>
<g stroke="#FFD0D0" fill="#FFD0D0" stroke-opacity="0.7" fill-opacity="0.7" transform="scale(0.5)">
<polygon points="188,414  695,414  695,482  188,482" stroke-width="1" />
</g>
<g stroke="#FF4040" fill="none" stroke-opacity="1.0" fill-opacity="1.0" transform="scale(0.5)">
<text x=" 409" y="454.0" font-family="Arial" font-size=" 20" fill="#FF4040" stroke-width="0">Закрыто</text>
<polyline points="188,414  695,414  695,482  188,482  188,414" stroke-width="1" fill="none" stroke-dasharray="5,2" />
</g>
</g>
</g>
</svg>
