<svg xmlns="http://www.w3.org/2000/svg" version="1.1">
<defs>
    <marker id="arrow"
      viewBox="0 0 10 10" refX="0" refY="5"
      markerUnits="strokeWidth"
      markerWidth="4" markerHeight="3"
      orient="auto">
      <path d="M 0 0 L 10 5 L 0 10 z" />
    </marker>
  </defs>
<g stroke="#000000" fill="none" stroke-opacity="1.0" fill-opacity="1.0" transform="scale(0.5)">
<rect x="0" y="0" width="1030" height="340" stroke-width="0" fill="none" />
<g stroke="#000000" fill="none" stroke-opacity="1.0" fill-opacity="1.0" transform="scale(0.5)">
</g>
<g stroke="#000000" fill="#E1361E" stroke-opacity="1.0" fill-opacity="1.0" transform="scale(0.5)">
<polygon points="235,87  685,87  685,117  235,117" stroke-width="1" />
<polygon points="235,227  235,197  685,197  685,227" stroke-width="1" />
</g>
<g stroke="#E1361E" fill="none" stroke-opacity="1.0" fill-opacity="1.0" transform="scale(0.5)">
<text x=" 235" y="84.0" font-family="Arial" font-size=" 20" fill="#E1361E" stroke-width="0">&lt;&lt; Гагаринская</text>
<text x=" 571" y="247.0" font-family="Arial" font-size=" 20" fill="#E1361E" stroke-width="0">Советская &gt;&gt;</text>
<text x=" 408" y="168.0" font-family="Arial" font-size=" 25" fill="#E1361E" stroke-width="0">Спортивная</text>
</g>
<g stroke="#000000" fill="none" stroke-opacity="1.0" fill-opacity="1.0" transform="scale(0.5)">
<polyline points="235,117  235,127  185,127  185,91  101,91  101,95  96,95  96,14  22,14" stroke-width="1" fill="none"  />
<polyline points="22,32  72,32  72,306  10,306" stroke-width="1" fill="none"  />
<polyline points="10,324  96,324  96,219  101,219  101,223  185,223  185,187  235,187  235,197" stroke-width="1" fill="none"  />
<line x1="187" y1="127" x2="187" y2="187" stroke-width="1" />
<line x1="191" y1="127" x2="191" y2="187" stroke-width="1" />
<line x1="195" y1="127" x2="195" y2="187" stroke-width="1" />
<line x1="199" y1="127" x2="199" y2="187" stroke-width="1" />
<line x1="203" y1="127" x2="203" y2="187" stroke-width="1" />
<line x1="207" y1="127" x2="207" y2="187" stroke-width="1" />
<line x1="211" y1="127" x2="211" y2="187" stroke-width="1" />
<line x1="215" y1="127" x2="215" y2="187" stroke-width="1" />
<line x1="219" y1="127" x2="219" y2="187" stroke-width="1" />
<line x1="223" y1="127" x2="223" y2="187" stroke-width="1" />
<line x1="227" y1="127" x2="227" y2="187" stroke-width="1" />
<line x1="231" y1="127" x2="231" y2="187" stroke-width="1" />
<line x1="24" y1="32" x2="24" y2="14" stroke-width="1" />
<line x1="28" y1="32" x2="28" y2="14" stroke-width="1" />
<line x1="32" y1="32" x2="32" y2="14" stroke-width="1" />
<line x1="36" y1="32" x2="36" y2="14" stroke-width="1" />
<line x1="40" y1="32" x2="40" y2="14" stroke-width="1" />
<line x1="44" y1="32" x2="44" y2="14" stroke-width="1" />
<line x1="48" y1="32" x2="48" y2="14" stroke-width="1" />
<line x1="52" y1="32" x2="52" y2="14" stroke-width="1" />
<line x1="56" y1="32" x2="56" y2="14" stroke-width="1" />
<line x1="60" y1="32" x2="60" y2="14" stroke-width="1" />
<line x1="64" y1="32" x2="64" y2="14" stroke-width="1" />
<line x1="68" y1="32" x2="68" y2="14" stroke-width="1" />
<line x1="12" y1="306" x2="12" y2="324" stroke-width="1" />
<line x1="16" y1="306" x2="16" y2="324" stroke-width="1" />
<line x1="20" y1="306" x2="20" y2="324" stroke-width="1" />
<line x1="24" y1="306" x2="24" y2="324" stroke-width="1" />
<line x1="28" y1="306" x2="28" y2="324" stroke-width="1" />
<line x1="32" y1="306" x2="32" y2="324" stroke-width="1" />
<line x1="36" y1="306" x2="36" y2="324" stroke-width="1" />
<line x1="40" y1="306" x2="40" y2="324" stroke-width="1" />
<line x1="44" y1="306" x2="44" y2="324" stroke-width="1" />
<line x1="48" y1="306" x2="48" y2="324" stroke-width="1" />
<line x1="52" y1="306" x2="52" y2="324" stroke-width="1" />
<line x1="56" y1="306" x2="56" y2="324" stroke-width="1" />
</g>
<g stroke="#000000" fill="#D0D0D0" stroke-opacity="1.0" fill-opacity="1.0" transform="scale(0.5)">
<polygon points="96,199  101,199  101,115  96,115" stroke-width="1" />
<polyline points="685,117  685,127  735,127  735,91  819,91  819,98  827,98  827,32  777,32" stroke-width="1" fill="none"  />
<polyline points="777,14  901,14" stroke-width="1" fill="none"  />
<polyline points="901,32  851,32  851,306  901,306" stroke-width="1" fill="none"  />
<polyline points="901,324  760,324" stroke-width="1" fill="none"  />
<polyline points="760,306  827,306  827,216  819,216  819,223  735,223  735,187  685,187  685,197" stroke-width="1" fill="none"  />
<line x1="733" y1="127" x2="733" y2="187" stroke-width="1" />
<line x1="729" y1="127" x2="729" y2="187" stroke-width="1" />
<line x1="725" y1="127" x2="725" y2="187" stroke-width="1" />
<line x1="721" y1="127" x2="721" y2="187" stroke-width="1" />
<line x1="717" y1="127" x2="717" y2="187" stroke-width="1" />
<line x1="713" y1="127" x2="713" y2="187" stroke-width="1" />
<line x1="709" y1="127" x2="709" y2="187" stroke-width="1" />
<line x1="705" y1="127" x2="705" y2="187" stroke-width="1" />
<line x1="701" y1="127" x2="701" y2="187" stroke-width="1" />
<line x1="697" y1="127" x2="697" y2="187" stroke-width="1" />
<line x1="693" y1="127" x2="693" y2="187" stroke-width="1" />
<line x1="689" y1="127" x2="689" y2="187" stroke-width="1" />
<line x1="899" y1="32" x2="899" y2="14" stroke-width="1" />
<line x1="895" y1="32" x2="895" y2="14" stroke-width="1" />
<line x1="891" y1="32" x2="891" y2="14" stroke-width="1" />
<line x1="887" y1="32" x2="887" y2="14" stroke-width="1" />
<line x1="883" y1="32" x2="883" y2="14" stroke-width="1" />
<line x1="879" y1="32" x2="879" y2="14" stroke-width="1" />
<line x1="875" y1="32" x2="875" y2="14" stroke-width="1" />
<line x1="871" y1="32" x2="871" y2="14" stroke-width="1" />
<line x1="867" y1="32" x2="867" y2="14" stroke-width="1" />
<line x1="863" y1="32" x2="863" y2="14" stroke-width="1" />
<line x1="859" y1="32" x2="859" y2="14" stroke-width="1" />
<line x1="855" y1="32" x2="855" y2="14" stroke-width="1" />
<line x1="779" y1="32" x2="779" y2="14" stroke-width="1" />
<line x1="783" y1="32" x2="783" y2="14" stroke-width="1" />
<line x1="787" y1="32" x2="787" y2="14" stroke-width="1" />
<line x1="791" y1="32" x2="791" y2="14" stroke-width="1" />
<line x1="795" y1="32" x2="795" y2="14" stroke-width="1" />
<line x1="799" y1="32" x2="799" y2="14" stroke-width="1" />
<line x1="803" y1="32" x2="803" y2="14" stroke-width="1" />
<line x1="807" y1="32" x2="807" y2="14" stroke-width="1" />
<line x1="811" y1="32" x2="811" y2="14" stroke-width="1" />
<line x1="815" y1="32" x2="815" y2="14" stroke-width="1" />
<line x1="819" y1="32" x2="819" y2="14" stroke-width="1" />
<line x1="823" y1="32" x2="823" y2="14" stroke-width="1" />
<line x1="899" y1="306" x2="899" y2="324" stroke-width="1" />
<line x1="895" y1="306" x2="895" y2="324" stroke-width="1" />
<line x1="891" y1="306" x2="891" y2="324" stroke-width="1" />
<line x1="887" y1="306" x2="887" y2="324" stroke-width="1" />
<line x1="883" y1="306" x2="883" y2="324" stroke-width="1" />
<line x1="879" y1="306" x2="879" y2="324" stroke-width="1" />
<line x1="875" y1="306" x2="875" y2="324" stroke-width="1" />
<line x1="871" y1="306" x2="871" y2="324" stroke-width="1" />
<line x1="867" y1="306" x2="867" y2="324" stroke-width="1" />
<line x1="863" y1="306" x2="863" y2="324" stroke-width="1" />
<line x1="859" y1="306" x2="859" y2="324" stroke-width="1" />
<line x1="855" y1="306" x2="855" y2="324" stroke-width="1" />
<line x1="762" y1="306" x2="762" y2="324" stroke-width="1" />
<line x1="766" y1="306" x2="766" y2="324" stroke-width="1" />
<line x1="770" y1="306" x2="770" y2="324" stroke-width="1" />
<line x1="774" y1="306" x2="774" y2="324" stroke-width="1" />
<line x1="778" y1="306" x2="778" y2="324" stroke-width="1" />
<line x1="782" y1="306" x2="782" y2="324" stroke-width="1" />
<line x1="786" y1="306" x2="786" y2="324" stroke-width="1" />
<line x1="790" y1="306" x2="790" y2="324" stroke-width="1" />
<line x1="794" y1="306" x2="794" y2="324" stroke-width="1" />
<line x1="798" y1="306" x2="798" y2="324" stroke-width="1" />
<line x1="802" y1="306" x2="802" y2="324" stroke-width="1" />
<line x1="806" y1="306" x2="806" y2="324" stroke-width="1" />
</g>
<g stroke="#000000" fill="#D0D0D0" stroke-opacity="1.0" fill-opacity="1.0" transform="scale(0.5)">
<polygon points="819,118  827,118  827,196  819,196" stroke-width="1" />
</g>
<g stroke="#000000" fill="none" stroke-opacity="1.0" fill-opacity="1.0" transform="scale(0.5)">
<polyline points="745,91  745,120  735,120" stroke-width="1" fill="none"  />
<text x=" 734" y="128.0" font-family="Arial" font-size=" 10" fill="#000000" transform="rotate(-90.0  734  118)" stroke-width="0">кассы</text>
</g>
<g stroke="#000000" fill="none" stroke-opacity="1.0" fill-opacity="1.0" transform="scale(0.5)">
<polyline points="745,120  754,120" stroke-width=" 0.5" fill="none"  />
<polygon points="797,176  792,179  795,184  800,181" stroke-width="1" />
</g>
<g stroke="#009900" fill="none" stroke-opacity="1.0" fill-opacity="1.0" transform="scale(0.5)">
<line x1="756" y1="119" x2="753" y2="121" stroke-width="1" />
<line x1="758.301973625" y1="122.271225677" x2="755.301973625" y2="124.271225677" stroke-width="1" />
<line x1="760.603947249" y1="125.542451354" x2="757.603947249" y2="127.542451354" stroke-width="1" />
<line x1="762.905920874" y1="128.813677032" x2="759.905920874" y2="130.813677032" stroke-width="1" />
<line x1="765.207894499" y1="132.084902709" x2="762.207894499" y2="134.084902709" stroke-width="1" />
<line x1="767.509868123" y1="135.356128386" x2="764.509868123" y2="137.356128386" stroke-width="1" />
<line x1="769.811841748" y1="138.627354063" x2="766.811841748" y2="140.627354063" stroke-width="1" />
<line x1="772.113815373" y1="141.89857974" x2="769.113815373" y2="143.89857974" stroke-width="1" />
<line x1="774.415788998" y1="145.169805418" x2="771.415788998" y2="147.169805418" stroke-width="1" />
<line x1="776.717762622" y1="148.441031095" x2="773.717762622" y2="150.441031095" stroke-width="1" />
<line x1="779.019736247" y1="151.712256772" x2="776.019736247" y2="153.712256772" stroke-width="1" />
<line x1="781.321709872" y1="154.983482449" x2="778.321709872" y2="156.983482449" stroke-width="1" />
<line x1="783.623683496" y1="158.254708126" x2="780.623683496" y2="160.254708126" stroke-width="1" />
<line x1="785.925657121" y1="161.525933804" x2="782.925657121" y2="163.525933804" stroke-width="1" />
<line x1="788.227630746" y1="164.797159481" x2="785.227630746" y2="166.797159481" stroke-width="1" />
<line x1="790.52960437" y1="168.068385158" x2="787.52960437" y2="170.068385158" stroke-width="1" />
<line x1="792.831577995" y1="171.339610835" x2="789.831577995" y2="173.339610835" stroke-width="1" />
</g>
<g stroke="#FF0000" fill="none" stroke-opacity="1.0" fill-opacity="1.0" transform="scale(0.5)">
<line x1="800" y1="188" x2="796" y2="188" stroke-width="1" />
<line x1="800" y1="192" x2="796" y2="192" stroke-width="1" />
<line x1="800" y1="196" x2="796" y2="196" stroke-width="1" />
<line x1="800" y1="200" x2="796" y2="200" stroke-width="1" />
<line x1="800" y1="204" x2="796" y2="204" stroke-width="1" />
<line x1="800" y1="208" x2="796" y2="208" stroke-width="1" />
<line x1="800" y1="212" x2="796" y2="212" stroke-width="1" />
<line x1="800" y1="216" x2="796" y2="216" stroke-width="1" />
<line x1="800" y1="220" x2="796" y2="220" stroke-width="1" />
</g>
<g stroke="#FF0000" fill="none" stroke-opacity="1.0" fill-opacity="1.0" transform="scale(0.5)">
<polyline points="758,201  768,201" marker-end="url(#arrow)" stroke-width="1" fill="none" />
</g>
<g stroke="#009900" fill="none" stroke-opacity="1.0" fill-opacity="1.0" transform="scale(0.5)">
<polyline points="801,112  791,119" marker-end="url(#arrow)" stroke-width="1" fill="none" />
</g>
<g stroke="#00AFAF" fill="none" stroke-opacity="1.0" fill-opacity="1.0" transform="scale(0.5)">
<text x=" 1009" y="221.0" font-family="Arial" font-size=" 15" fill="#00AFAF" transform="rotate(-90.0  1009  206)" stroke-width="0">улица Карбышева</text>
<text x=" 864" y="167.0" font-family="Arial" font-size=" 15" fill="#00AFAF" stroke-width="0">улица Гагарина</text>
</g>
<g stroke="#FFD0D0" fill="#FFD0D0" stroke-opacity="0.7" fill-opacity="0.7" transform="scale(0.5)">
<polygon points="8,12  187,12  187,125  237,125  237,189  187,189  187,326  8,326" stroke-width="1" />
</g>
<g stroke="#FF4040" fill="none" stroke-opacity="1.0" fill-opacity="1.0" transform="scale(0.5)">
<text x=" 115" y="165.0" font-family="Arial" font-size=" 17" fill="#FF4040" stroke-width="0">Закрыто</text>
<polyline points="8,12  187,12  187,125  237,125  237,189  187,189  187,326  8,326  8,12" stroke-width="1" fill="none" stroke-dasharray="5,2" />
</g>
</g>
</svg>
