<?xml version="1.0" encoding="utf-8" ?>
<svg baseProfile="full" height="100%" version="1.1" width="100%" xmlns="http://www.w3.org/2000/svg" xmlns:ev="http://www.w3.org/2001/xml-events" xmlns:xlink="http://www.w3.org/1999/xlink">
  <defs>
    <marker id="id41" markerHeight="3" markerUnits="strokeWidth" markerWidth="4" orient="auto" refX="0" refY="5" viewBox="0,0,10,10">
      <path d="M 0 0 L 10 5 L 0 10 z"/>
    </marker>
  </defs>
  <g>
    <rect fill="none" height="340" stroke="none" stroke-width="0" width="1030" x="0" y="0"/>
    <polygon fill="#e1361e" points="235,87 685,87 685,117 235,117" stroke="#000000" stroke-width="1"/>
    <polygon fill="#e1361e" points="235,227 235,197 685,197 685,227" stroke="#000000" stroke-width="1"/>
    <text fill="#e1361e" font-family="Arial" font-size="20" stroke="none" stroke-width="0" x="235" y="84.0">&lt;&lt; Гагаринская</text>
    <text fill="#e1361e" font-family="Arial" font-size="20" stroke="none" stroke-width="0" x="571" y="247.0">Советская &gt;&gt;</text>
    <text fill="#e1361e" font-family="Arial" font-size="25" stroke="none" stroke-width="0" x="408" y="168.0">Спортивная</text>
    <polyline fill="none" points="235,117 235,127 185,127 185,91 101,91 101,95 96,95 96,14 22,14" stroke="#000000" stroke-width="1"/>
    <polyline fill="none" points="22,32 72,32 72,306 10,306" stroke="#000000" stroke-width="1"/>
    <polyline fill="none" points="10,324 96,324 96,219 101,219 101,223 185,223 185,187 235,187 235,197" stroke="#000000" stroke-width="1"/>
    <line stroke="#000000" stroke-width="1" x1="187" x2="187" y1="127" y2="187"/>
    <line stroke="#000000" stroke-width="1" x1="191" x2="191" y1="127" y2="187"/>
    <line stroke="#000000" stroke-width="1" x1="195" x2="195" y1="127" y2="187"/>
    <line stroke="#000000" stroke-width="1" x1="199" x2="199" y1="127" y2="187"/>
    <line stroke="#000000" stroke-width="1" x1="203" x2="203" y1="127" y2="187"/>
    <line stroke="#000000" stroke-width="1" x1="207" x2="207" y1="127" y2="187"/>
    <line stroke="#000000" stroke-width="1" x1="211" x2="211" y1="127" y2="187"/>
    <line stroke="#000000" stroke-width="1" x1="215" x2="215" y1="127" y2="187"/>
    <line stroke="#000000" stroke-width="1" x1="219" x2="219" y1="127" y2="187"/>
    <line stroke="#000000" stroke-width="1" x1="223" x2="223" y1="127" y2="187"/>
    <line stroke="#000000" stroke-width="1" x1="227" x2="227" y1="127" y2="187"/>
    <line stroke="#000000" stroke-width="1" x1="231" x2="231" y1="127" y2="187"/>
    <line stroke="#000000" stroke-width="1" x1="24" x2="24" y1="32" y2="14"/>
    <line stroke="#000000" stroke-width="1" x1="28" x2="28" y1="32" y2="14"/>
    <line stroke="#000000" stroke-width="1" x1="32" x2="32" y1="32" y2="14"/>
    <line stroke="#000000" stroke-width="1" x1="36" x2="36" y1="32" y2="14"/>
    <line stroke="#000000" stroke-width="1" x1="40" x2="40" y1="32" y2="14"/>
    <line stroke="#000000" stroke-width="1" x1="44" x2="44" y1="32" y2="14"/>
    <line stroke="#000000" stroke-width="1" x1="48" x2="48" y1="32" y2="14"/>
    <line stroke="#000000" stroke-width="1" x1="52" x2="52" y1="32" y2="14"/>
    <line stroke="#000000" stroke-width="1" x1="56" x2="56" y1="32" y2="14"/>
    <line stroke="#000000" stroke-width="1" x1="60" x2="60" y1="32" y2="14"/>
    <line stroke="#000000" stroke-width="1" x1="64" x2="64" y1="32" y2="14"/>
    <line stroke="#000000" stroke-width="1" x1="68" x2="68" y1="32" y2="14"/>
    <line stroke="#000000" stroke-width="1" x1="12" x2="12" y1="306" y2="324"/>
    <line stroke="#000000" stroke-width="1" x1="16" x2="16" y1="306" y2="324"/>
    <line stroke="#000000" stroke-width="1" x1="20" x2="20" y1="306" y2="324"/>
    <line stroke="#000000" stroke-width="1" x1="24" x2="24" y1="306" y2="324"/>
    <line stroke="#000000" stroke-width="1" x1="28" x2="28" y1="306" y2="324"/>
    <line stroke="#000000" stroke-width="1" x1="32" x2="32" y1="306" y2="324"/>
    <line stroke="#000000" stroke-width="1" x1="36" x2="36" y1="306" y2="324"/>
    <line stroke="#000000" stroke-width="1" x1="40" x2="40" y1="306" y2="324"/>
    <line stroke="#000000" stroke-width="1" x1="44" x2="44" y1="306" y2="324"/>
    <line stroke="#000000" stroke-width="1" x1="48" x2="48" y1="306" y2="324"/>
    <line stroke="#000000" stroke-width="1" x1="52" x2="52" y1="306" y2="324"/>
    <line stroke="#000000" stroke-width="1" x1="56" x2="56" y1="306" y2="324"/>
    <polygon fill="#d0d0d0" points="96,199 101,199 101,115 96,115" stroke="#000000" stroke-width="1"/>
    <polyline fill="none" points="685,117 685,127 735,127 735,91 819,91 819,98 827,98 827,32 777,32" stroke="#000000" stroke-width="1"/>
    <polyline fill="none" points="777,14 901,14" stroke="#000000" stroke-width="1"/>
    <polyline fill="none" points="901,32 851,32 851,306 901,306" stroke="#000000" stroke-width="1"/>
    <polyline fill="none" points="901,324 760,324" stroke="#000000" stroke-width="1"/>
    <polyline fill="none" points="760,306 827,306 827,216 819,216 819,223 735,223 735,187 685,187 685,197" stroke="#000000" stroke-width="1"/>
    <line stroke="#000000" stroke-width="1" x1="733" x2="733" y1="127" y2="187"/>
    <line stroke="#000000" stroke-width="1" x1="729" x2="729" y1="127" y2="187"/>
    <line stroke="#000000" stroke-width="1" x1="725" x2="725" y1="127" y2="187"/>
    <line stroke="#000000" stroke-width="1" x1="721" x2="721" y1="127" y2="187"/>
    <line stroke="#000000" stroke-width="1" x1="717" x2="717" y1="127" y2="187"/>
    <line stroke="#000000" stroke-width="1" x1="713" x2="713" y1="127" y2="187"/>
    <line stroke="#000000" stroke-width="1" x1="709" x2="709" y1="127" y2="187"/>
    <line stroke="#000000" stroke-width="1" x1="705" x2="705" y1="127" y2="187"/>
    <line stroke="#000000" stroke-width="1" x1="701" x2="701" y1="127" y2="187"/>
    <line stroke="#000000" stroke-width="1" x1="697" x2="697" y1="127" y2="187"/>
    <line stroke="#000000" stroke-width="1" x1="693" x2="693" y1="127" y2="187"/>
    <line stroke="#000000" stroke-width="1" x1="689" x2="689" y1="127" y2="187"/>
    <line stroke="#000000" stroke-width="1" x1="899" x2="899" y1="32" y2="14"/>
    <line stroke="#000000" stroke-width="1" x1="895" x2="895" y1="32" y2="14"/>
    <line stroke="#000000" stroke-width="1" x1="891" x2="891" y1="32" y2="14"/>
    <line stroke="#000000" stroke-width="1" x1="887" x2="887" y1="32" y2="14"/>
    <line stroke="#000000" stroke-width="1" x1="883" x2="883" y1="32" y2="14"/>
    <line stroke="#000000" stroke-width="1" x1="879" x2="879" y1="32" y2="14"/>
    <line stroke="#000000" stroke-width="1" x1="875" x2="875" y1="32" y2="14"/>
    <line stroke="#000000" stroke-width="1" x1="871" x2="871" y1="32" y2="14"/>
    <line stroke="#000000" stroke-width="1" x1="867" x2="867" y1="32" y2="14"/>
    <line stroke="#000000" stroke-width="1" x1="863" x2="863" y1="32" y2="14"/>
    <line stroke="#000000" stroke-width="1" x1="859" x2="859" y1="32" y2="14"/>
    <line stroke="#000000" stroke-width="1" x1="855" x2="855" y1="32" y2="14"/>
    <line stroke="#000000" stroke-width="1" x1="779" x2="779" y1="32" y2="14"/>
    <line stroke="#000000" stroke-width="1" x1="783" x2="783" y1="32" y2="14"/>
    <line stroke="#000000" stroke-width="1" x1="787" x2="787" y1="32" y2="14"/>
    <line stroke="#000000" stroke-width="1" x1="791" x2="791" y1="32" y2="14"/>
    <line stroke="#000000" stroke-width="1" x1="795" x2="795" y1="32" y2="14"/>
    <line stroke="#000000" stroke-width="1" x1="799" x2="799" y1="32" y2="14"/>
    <line stroke="#000000" stroke-width="1" x1="803" x2="803" y1="32" y2="14"/>
    <line stroke="#000000" stroke-width="1" x1="807" x2="807" y1="32" y2="14"/>
    <line stroke="#000000" stroke-width="1" x1="811" x2="811" y1="32" y2="14"/>
    <line stroke="#000000" stroke-width="1" x1="815" x2="815" y1="32" y2="14"/>
    <line stroke="#000000" stroke-width="1" x1="819" x2="819" y1="32" y2="14"/>
    <line stroke="#000000" stroke-width="1" x1="823" x2="823" y1="32" y2="14"/>
    <line stroke="#000000" stroke-width="1" x1="899" x2="899" y1="306" y2="324"/>
    <line stroke="#000000" stroke-width="1" x1="895" x2="895" y1="306" y2="324"/>
    <line stroke="#000000" stroke-width="1" x1="891" x2="891" y1="306" y2="324"/>
    <line stroke="#000000" stroke-width="1" x1="887" x2="887" y1="306" y2="324"/>
    <line stroke="#000000" stroke-width="1" x1="883" x2="883" y1="306" y2="324"/>
    <line stroke="#000000" stroke-width="1" x1="879" x2="879" y1="306" y2="324"/>
    <line stroke="#000000" stroke-width="1" x1="875" x2="875" y1="306" y2="324"/>
    <line stroke="#000000" stroke-width="1" x1="871" x2="871" y1="306" y2="324"/>
    <line stroke="#000000" stroke-width="1" x1="867" x2="867" y1="306" y2="324"/>
    <line stroke="#000000" stroke-width="1" x1="863" x2="863" y1="306" y2="324"/>
    <line stroke="#000000" stroke-width="1" x1="859" x2="859" y1="306" y2="324"/>
    <line stroke="#000000" stroke-width="1" x1="855" x2="855" y1="306" y2="324"/>
    <line stroke="#000000" stroke-width="1" x1="762" x2="762" y1="306" y2="324"/>
    <line stroke="#000000" stroke-width="1" x1="766" x2="766" y1="306" y2="324"/>
    <line stroke="#000000" stroke-width="1" x1="770" x2="770" y1="306" y2="324"/>
    <line stroke="#000000" stroke-width="1" x1="774" x2="774" y1="306" y2="324"/>
    <line stroke="#000000" stroke-width="1" x1="778" x2="778" y1="306" y2="324"/>
    <line stroke="#000000" stroke-width="1" x1="782" x2="782" y1="306" y2="324"/>
    <line stroke="#000000" stroke-width="1" x1="786" x2="786" y1="306" y2="324"/>
    <line stroke="#000000" stroke-width="1" x1="790" x2="790" y1="306" y2="324"/>
    <line stroke="#000000" stroke-width="1" x1="794" x2="794" y1="306" y2="324"/>
    <line stroke="#000000" stroke-width="1" x1="798" x2="798" y1="306" y2="324"/>
    <line stroke="#000000" stroke-width="1" x1="802" x2="802" y1="306" y2="324"/>
    <line stroke="#000000" stroke-width="1" x1="806" x2="806" y1="306" y2="324"/>
    <polygon fill="#d0d0d0" points="819,118 827,118 827,196 819,196" stroke="#000000" stroke-width="1"/>
    <polyline fill="none" points="745,91 745,120 735,120" stroke="#000000" stroke-width="1"/>
    <text fill="#000000" font-family="Arial" font-size="10" stroke="none" stroke-width="0" transform="rotate(-90.0,734,118)" x="734" y="128.0">кассы</text>
    <polyline fill="none" points="745,120 754,120" stroke="#000000" stroke-width="0.5"/>
    <polygon fill="none" points="797,176 792,179 795,184 800,181" stroke="#000000" stroke-width="1"/>
    <line stroke="#009900" stroke-width="1" x1="756" x2="753" y1="119" y2="121"/>
    <line stroke="#009900" stroke-width="1" x1="758.301973625" x2="755.301973625" y1="122.271225677" y2="124.271225677"/>
    <line stroke="#009900" stroke-width="1" x1="760.603947249" x2="757.603947249" y1="125.542451354" y2="127.542451354"/>
    <line stroke="#009900" stroke-width="1" x1="762.905920874" x2="759.905920874" y1="128.813677032" y2="130.813677032"/>
    <line stroke="#009900" stroke-width="1" x1="765.207894499" x2="762.207894499" y1="132.084902709" y2="134.084902709"/>
    <line stroke="#009900" stroke-width="1" x1="767.509868123" x2="764.509868123" y1="135.356128386" y2="137.356128386"/>
    <line stroke="#009900" stroke-width="1" x1="769.811841748" x2="766.811841748" y1="138.627354063" y2="140.627354063"/>
    <line stroke="#009900" stroke-width="1" x1="772.113815373" x2="769.113815373" y1="141.89857974" y2="143.89857974"/>
    <line stroke="#009900" stroke-width="1" x1="774.415788998" x2="771.415788998" y1="145.169805418" y2="147.169805418"/>
    <line stroke="#009900" stroke-width="1" x1="776.717762622" x2="773.717762622" y1="148.441031095" y2="150.441031095"/>
    <line stroke="#009900" stroke-width="1" x1="779.019736247" x2="776.019736247" y1="151.712256772" y2="153.712256772"/>
    <line stroke="#009900" stroke-width="1" x1="781.321709872" x2="778.321709872" y1="154.983482449" y2="156.983482449"/>
    <line stroke="#009900" stroke-width="1" x1="783.623683496" x2="780.623683496" y1="158.254708126" y2="160.254708126"/>
    <line stroke="#009900" stroke-width="1" x1="785.925657121" x2="782.925657121" y1="161.525933804" y2="163.525933804"/>
    <line stroke="#009900" stroke-width="1" x1="788.227630746" x2="785.227630746" y1="164.797159481" y2="166.797159481"/>
    <line stroke="#009900" stroke-width="1" x1="790.52960437" x2="787.52960437" y1="168.068385158" y2="170.068385158"/>
    <line stroke="#009900" stroke-width="1" x1="792.831577995" x2="789.831577995" y1="171.339610835" y2="173.339610835"/>
    <line stroke="#ff0000" stroke-width="1" x1="800" x2="796" y1="188" y2="188"/>
    <line stroke="#ff0000" stroke-width="1" x1="800" x2="796" y1="192" y2="192"/>
    <line stroke="#ff0000" stroke-width="1" x1="800" x2="796" y1="196" y2="196"/>
    <line stroke="#ff0000" stroke-width="1" x1="800" x2="796" y1="200" y2="200"/>
    <line stroke="#ff0000" stroke-width="1" x1="800" x2="796" y1="204" y2="204"/>
    <line stroke="#ff0000" stroke-width="1" x1="800" x2="796" y1="208" y2="208"/>
    <line stroke="#ff0000" stroke-width="1" x1="800" x2="796" y1="212" y2="212"/>
    <line stroke="#ff0000" stroke-width="1" x1="800" x2="796" y1="216" y2="216"/>
    <line stroke="#ff0000" stroke-width="1" x1="800" x2="796" y1="220" y2="220"/>
    <polyline fill="none" marker-end="url(#id41)" points="758,201 768,201" stroke="#ff0000" stroke-width="1"/>
    <polyline fill="none" marker-end="url(#id41)" points="801,112 791,119" stroke="#009900" stroke-width="1"/>
    <text fill="#00afaf" font-family="Arial" font-size="15" stroke="none" stroke-width="0" transform="rotate(-90.0,1009,206)" x="1009" y="221.0">улица Карбышева</text>
    <text fill="#00afaf" font-family="Arial" font-size="15" stroke="none" stroke-width="0" x="864" y="167.0">улица Гагарина</text>
    <g fill="none" fill-opacity="0.7" stroke="#000000" stroke-opacity="0.7" transform="rotate(0.0,515,170)">
      <polygon fill="#ffd0d0" points="8,12 187,12 187,125 237,125 237,189 187,189 187,326 8,326" stroke="#ffd0d0" stroke-width="1"/>
    </g>
    <g fill="#ffd0d0" fill-opacity="1.0" stroke="#ff4040" stroke-opacity="1.0" transform="rotate(0.0,515,170)">
      <text fill="#ff4040" font-family="Arial" font-size="17" stroke="none" stroke-width="0" x="115" y="165.0">Закрыто</text>
      <polyline fill="none" points="8,12 187,12 187,125 237,125 237,189 187,189 187,326 8,326 8,12" stroke="#ff4040" stroke-dasharray="5 2" stroke-width="1"/>
    </g>
  </g>
</svg>
