<?xml version="1.0" encoding="utf-8" ?>
<svg baseProfile="full" height="660.0" version="1.1" width="650.0" xmlns="http://www.w3.org/2000/svg" xmlns:ev="http://www.w3.org/2001/xml-events" xmlns:xlink="http://www.w3.org/1999/xlink">
  <defs>
    <marker id="id534" markerHeight="3" markerUnits="strokeWidth" markerWidth="4" orient="auto" refX="0" refY="5" viewBox="0,0,10,10">
      <path d="M 0 0 L 10 5 L 0 10 z"/>
    </marker>
  </defs>
  <g>
    <rect fill="none" height="660.0" stroke="none" stroke-width="0" width="650.0" x="0.0" y="0.0"/>
    <g transform="rotate(-47.0,325.0,330.0)">
      <polyline fill="none" points="-20.0,295.0 139.0,295.0" stroke="#000000" stroke-width="1"/>
      <polygon fill="#fb0505" points="659.0,359.0 219.0,359.0 219.0,287.0 659.0,287.0" stroke="#000000" stroke-width="1"/>
      <polygon fill="#cccccc" points="219.0,223.0 219.0,287.0 659.0,287.0 659.0,223.0" stroke="#000000" stroke-width="1"/>
      <polygon fill="#cccccc" points="219.0,359.0 659.0,359.0 659.0,427.0 219.0,427.0" stroke="#000000" stroke-width="1"/>
      <line stroke="#000000" stroke-width="1" x1="5.0" x2="698.0" y1="326.0" y2="326.0"/>
      <line stroke="#000000" stroke-width="1" x1="5.0" x2="698.0" y1="348.0" y2="348.0"/>
      <line stroke="#000000" stroke-width="1" x1="10.0" x2="10.0" y1="326.0" y2="348.0"/>
      <line stroke="#000000" stroke-width="1" x1="20.0" x2="20.0" y1="326.0" y2="348.0"/>
      <line stroke="#000000" stroke-width="1" x1="30.0" x2="30.0" y1="326.0" y2="348.0"/>
      <line stroke="#000000" stroke-width="1" x1="40.0" x2="40.0" y1="326.0" y2="348.0"/>
      <line stroke="#000000" stroke-width="1" x1="50.0" x2="50.0" y1="326.0" y2="348.0"/>
      <line stroke="#000000" stroke-width="1" x1="60.0" x2="60.0" y1="326.0" y2="348.0"/>
      <line stroke="#000000" stroke-width="1" x1="70.0" x2="70.0" y1="326.0" y2="348.0"/>
      <line stroke="#000000" stroke-width="1" x1="80.0" x2="80.0" y1="326.0" y2="348.0"/>
      <line stroke="#000000" stroke-width="1" x1="90.0" x2="90.0" y1="326.0" y2="348.0"/>
      <line stroke="#000000" stroke-width="1" x1="100.0" x2="100.0" y1="326.0" y2="348.0"/>
      <line stroke="#000000" stroke-width="1" x1="110.0" x2="110.0" y1="326.0" y2="348.0"/>
      <line stroke="#000000" stroke-width="1" x1="120.0" x2="120.0" y1="326.0" y2="348.0"/>
      <line stroke="#000000" stroke-width="1" x1="130.0" x2="130.0" y1="326.0" y2="348.0"/>
      <line stroke="#000000" stroke-width="1" x1="140.0" x2="140.0" y1="326.0" y2="348.0"/>
      <line stroke="#000000" stroke-width="1" x1="150.0" x2="150.0" y1="326.0" y2="348.0"/>
      <line stroke="#000000" stroke-width="1" x1="160.0" x2="160.0" y1="326.0" y2="348.0"/>
      <line stroke="#000000" stroke-width="1" x1="170.0" x2="170.0" y1="326.0" y2="348.0"/>
      <line stroke="#000000" stroke-width="1" x1="180.0" x2="180.0" y1="326.0" y2="348.0"/>
      <line stroke="#000000" stroke-width="1" x1="190.0" x2="190.0" y1="326.0" y2="348.0"/>
      <line stroke="#000000" stroke-width="1" x1="200.0" x2="200.0" y1="326.0" y2="348.0"/>
      <line stroke="#000000" stroke-width="1" x1="210.0" x2="210.0" y1="326.0" y2="348.0"/>
      <line stroke="#000000" stroke-width="1" x1="220.0" x2="220.0" y1="326.0" y2="348.0"/>
      <line stroke="#000000" stroke-width="1" x1="230.0" x2="230.0" y1="326.0" y2="348.0"/>
      <line stroke="#000000" stroke-width="1" x1="240.0" x2="240.0" y1="326.0" y2="348.0"/>
      <line stroke="#000000" stroke-width="1" x1="250.0" x2="250.0" y1="326.0" y2="348.0"/>
      <line stroke="#000000" stroke-width="1" x1="260.0" x2="260.0" y1="326.0" y2="348.0"/>
      <line stroke="#000000" stroke-width="1" x1="270.0" x2="270.0" y1="326.0" y2="348.0"/>
      <line stroke="#000000" stroke-width="1" x1="280.0" x2="280.0" y1="326.0" y2="348.0"/>
      <line stroke="#000000" stroke-width="1" x1="290.0" x2="290.0" y1="326.0" y2="348.0"/>
      <line stroke="#000000" stroke-width="1" x1="300.0" x2="300.0" y1="326.0" y2="348.0"/>
      <line stroke="#000000" stroke-width="1" x1="310.0" x2="310.0" y1="326.0" y2="348.0"/>
      <line stroke="#000000" stroke-width="1" x1="320.0" x2="320.0" y1="326.0" y2="348.0"/>
      <line stroke="#000000" stroke-width="1" x1="330.0" x2="330.0" y1="326.0" y2="348.0"/>
      <line stroke="#000000" stroke-width="1" x1="340.0" x2="340.0" y1="326.0" y2="348.0"/>
      <line stroke="#000000" stroke-width="1" x1="350.0" x2="350.0" y1="326.0" y2="348.0"/>
      <line stroke="#000000" stroke-width="1" x1="360.0" x2="360.0" y1="326.0" y2="348.0"/>
      <line stroke="#000000" stroke-width="1" x1="370.0" x2="370.0" y1="326.0" y2="348.0"/>
      <line stroke="#000000" stroke-width="1" x1="380.0" x2="380.0" y1="326.0" y2="348.0"/>
      <line stroke="#000000" stroke-width="1" x1="390.0" x2="390.0" y1="326.0" y2="348.0"/>
      <line stroke="#000000" stroke-width="1" x1="400.0" x2="400.0" y1="326.0" y2="348.0"/>
      <line stroke="#000000" stroke-width="1" x1="410.0" x2="410.0" y1="326.0" y2="348.0"/>
      <line stroke="#000000" stroke-width="1" x1="420.0" x2="420.0" y1="326.0" y2="348.0"/>
      <line stroke="#000000" stroke-width="1" x1="430.0" x2="430.0" y1="326.0" y2="348.0"/>
      <line stroke="#000000" stroke-width="1" x1="440.0" x2="440.0" y1="326.0" y2="348.0"/>
      <line stroke="#000000" stroke-width="1" x1="450.0" x2="450.0" y1="326.0" y2="348.0"/>
      <line stroke="#000000" stroke-width="1" x1="460.0" x2="460.0" y1="326.0" y2="348.0"/>
      <line stroke="#000000" stroke-width="1" x1="470.0" x2="470.0" y1="326.0" y2="348.0"/>
      <line stroke="#000000" stroke-width="1" x1="480.0" x2="480.0" y1="326.0" y2="348.0"/>
      <line stroke="#000000" stroke-width="1" x1="490.0" x2="490.0" y1="326.0" y2="348.0"/>
      <line stroke="#000000" stroke-width="1" x1="500.0" x2="500.0" y1="326.0" y2="348.0"/>
      <line stroke="#000000" stroke-width="1" x1="510.0" x2="510.0" y1="326.0" y2="348.0"/>
      <line stroke="#000000" stroke-width="1" x1="520.0" x2="520.0" y1="326.0" y2="348.0"/>
      <line stroke="#000000" stroke-width="1" x1="530.0" x2="530.0" y1="326.0" y2="348.0"/>
      <line stroke="#000000" stroke-width="1" x1="540.0" x2="540.0" y1="326.0" y2="348.0"/>
      <line stroke="#000000" stroke-width="1" x1="550.0" x2="550.0" y1="326.0" y2="348.0"/>
      <line stroke="#000000" stroke-width="1" x1="560.0" x2="560.0" y1="326.0" y2="348.0"/>
      <line stroke="#000000" stroke-width="1" x1="570.0" x2="570.0" y1="326.0" y2="348.0"/>
      <line stroke="#000000" stroke-width="1" x1="580.0" x2="580.0" y1="326.0" y2="348.0"/>
      <line stroke="#000000" stroke-width="1" x1="590.0" x2="590.0" y1="326.0" y2="348.0"/>
      <line stroke="#000000" stroke-width="1" x1="600.0" x2="600.0" y1="326.0" y2="348.0"/>
      <line stroke="#000000" stroke-width="1" x1="610.0" x2="610.0" y1="326.0" y2="348.0"/>
      <line stroke="#000000" stroke-width="1" x1="620.0" x2="620.0" y1="326.0" y2="348.0"/>
      <line stroke="#000000" stroke-width="1" x1="630.0" x2="630.0" y1="326.0" y2="348.0"/>
      <line stroke="#000000" stroke-width="1" x1="640.0" x2="640.0" y1="326.0" y2="348.0"/>
      <line stroke="#000000" stroke-width="1" x1="650.0" x2="650.0" y1="326.0" y2="348.0"/>
      <line stroke="#000000" stroke-width="1" x1="660.0" x2="660.0" y1="326.0" y2="348.0"/>
      <line stroke="#000000" stroke-width="1" x1="670.0" x2="670.0" y1="326.0" y2="348.0"/>
      <line stroke="#000000" stroke-width="1" x1="680.0" x2="680.0" y1="326.0" y2="348.0"/>
      <line stroke="#000000" stroke-width="1" x1="690.0" x2="690.0" y1="326.0" y2="348.0"/>
      <line stroke="#000000" stroke-width="1" x1="4.0" x2="698.0" y1="297.0" y2="297.0"/>
      <line stroke="#000000" stroke-width="1" x1="4.0" x2="698.0" y1="319.0" y2="319.0"/>
      <line stroke="#000000" stroke-width="1" x1="9.0" x2="9.0" y1="297.0" y2="319.0"/>
      <line stroke="#000000" stroke-width="1" x1="19.0" x2="19.0" y1="297.0" y2="319.0"/>
      <line stroke="#000000" stroke-width="1" x1="29.0" x2="29.0" y1="297.0" y2="319.0"/>
      <line stroke="#000000" stroke-width="1" x1="39.0" x2="39.0" y1="297.0" y2="319.0"/>
      <line stroke="#000000" stroke-width="1" x1="49.0" x2="49.0" y1="297.0" y2="319.0"/>
      <line stroke="#000000" stroke-width="1" x1="59.0" x2="59.0" y1="297.0" y2="319.0"/>
      <line stroke="#000000" stroke-width="1" x1="69.0" x2="69.0" y1="297.0" y2="319.0"/>
      <line stroke="#000000" stroke-width="1" x1="79.0" x2="79.0" y1="297.0" y2="319.0"/>
      <line stroke="#000000" stroke-width="1" x1="89.0" x2="89.0" y1="297.0" y2="319.0"/>
      <line stroke="#000000" stroke-width="1" x1="99.0" x2="99.0" y1="297.0" y2="319.0"/>
      <line stroke="#000000" stroke-width="1" x1="109.0" x2="109.0" y1="297.0" y2="319.0"/>
      <line stroke="#000000" stroke-width="1" x1="119.0" x2="119.0" y1="297.0" y2="319.0"/>
      <line stroke="#000000" stroke-width="1" x1="129.0" x2="129.0" y1="297.0" y2="319.0"/>
      <line stroke="#000000" stroke-width="1" x1="139.0" x2="139.0" y1="297.0" y2="319.0"/>
      <line stroke="#000000" stroke-width="1" x1="149.0" x2="149.0" y1="297.0" y2="319.0"/>
      <line stroke="#000000" stroke-width="1" x1="159.0" x2="159.0" y1="297.0" y2="319.0"/>
      <line stroke="#000000" stroke-width="1" x1="169.0" x2="169.0" y1="297.0" y2="319.0"/>
      <line stroke="#000000" stroke-width="1" x1="179.0" x2="179.0" y1="297.0" y2="319.0"/>
      <line stroke="#000000" stroke-width="1" x1="189.0" x2="189.0" y1="297.0" y2="319.0"/>
      <line stroke="#000000" stroke-width="1" x1="199.0" x2="199.0" y1="297.0" y2="319.0"/>
      <line stroke="#000000" stroke-width="1" x1="209.0" x2="209.0" y1="297.0" y2="319.0"/>
      <line stroke="#000000" stroke-width="1" x1="219.0" x2="219.0" y1="297.0" y2="319.0"/>
      <line stroke="#000000" stroke-width="1" x1="229.0" x2="229.0" y1="297.0" y2="319.0"/>
      <line stroke="#000000" stroke-width="1" x1="239.0" x2="239.0" y1="297.0" y2="319.0"/>
      <line stroke="#000000" stroke-width="1" x1="249.0" x2="249.0" y1="297.0" y2="319.0"/>
      <line stroke="#000000" stroke-width="1" x1="259.0" x2="259.0" y1="297.0" y2="319.0"/>
      <line stroke="#000000" stroke-width="1" x1="269.0" x2="269.0" y1="297.0" y2="319.0"/>
      <line stroke="#000000" stroke-width="1" x1="279.0" x2="279.0" y1="297.0" y2="319.0"/>
      <line stroke="#000000" stroke-width="1" x1="289.0" x2="289.0" y1="297.0" y2="319.0"/>
      <line stroke="#000000" stroke-width="1" x1="299.0" x2="299.0" y1="297.0" y2="319.0"/>
      <line stroke="#000000" stroke-width="1" x1="309.0" x2="309.0" y1="297.0" y2="319.0"/>
      <line stroke="#000000" stroke-width="1" x1="319.0" x2="319.0" y1="297.0" y2="319.0"/>
      <line stroke="#000000" stroke-width="1" x1="329.0" x2="329.0" y1="297.0" y2="319.0"/>
      <line stroke="#000000" stroke-width="1" x1="339.0" x2="339.0" y1="297.0" y2="319.0"/>
      <line stroke="#000000" stroke-width="1" x1="349.0" x2="349.0" y1="297.0" y2="319.0"/>
      <line stroke="#000000" stroke-width="1" x1="359.0" x2="359.0" y1="297.0" y2="319.0"/>
      <line stroke="#000000" stroke-width="1" x1="369.0" x2="369.0" y1="297.0" y2="319.0"/>
      <line stroke="#000000" stroke-width="1" x1="379.0" x2="379.0" y1="297.0" y2="319.0"/>
      <line stroke="#000000" stroke-width="1" x1="389.0" x2="389.0" y1="297.0" y2="319.0"/>
      <line stroke="#000000" stroke-width="1" x1="399.0" x2="399.0" y1="297.0" y2="319.0"/>
      <line stroke="#000000" stroke-width="1" x1="409.0" x2="409.0" y1="297.0" y2="319.0"/>
      <line stroke="#000000" stroke-width="1" x1="419.0" x2="419.0" y1="297.0" y2="319.0"/>
      <line stroke="#000000" stroke-width="1" x1="429.0" x2="429.0" y1="297.0" y2="319.0"/>
      <line stroke="#000000" stroke-width="1" x1="439.0" x2="439.0" y1="297.0" y2="319.0"/>
      <line stroke="#000000" stroke-width="1" x1="449.0" x2="449.0" y1="297.0" y2="319.0"/>
      <line stroke="#000000" stroke-width="1" x1="459.0" x2="459.0" y1="297.0" y2="319.0"/>
      <line stroke="#000000" stroke-width="1" x1="469.0" x2="469.0" y1="297.0" y2="319.0"/>
      <line stroke="#000000" stroke-width="1" x1="479.0" x2="479.0" y1="297.0" y2="319.0"/>
      <line stroke="#000000" stroke-width="1" x1="489.0" x2="489.0" y1="297.0" y2="319.0"/>
      <line stroke="#000000" stroke-width="1" x1="499.0" x2="499.0" y1="297.0" y2="319.0"/>
      <line stroke="#000000" stroke-width="1" x1="509.0" x2="509.0" y1="297.0" y2="319.0"/>
      <line stroke="#000000" stroke-width="1" x1="519.0" x2="519.0" y1="297.0" y2="319.0"/>
      <line stroke="#000000" stroke-width="1" x1="529.0" x2="529.0" y1="297.0" y2="319.0"/>
      <line stroke="#000000" stroke-width="1" x1="539.0" x2="539.0" y1="297.0" y2="319.0"/>
      <line stroke="#000000" stroke-width="1" x1="549.0" x2="549.0" y1="297.0" y2="319.0"/>
      <line stroke="#000000" stroke-width="1" x1="559.0" x2="559.0" y1="297.0" y2="319.0"/>
      <line stroke="#000000" stroke-width="1" x1="569.0" x2="569.0" y1="297.0" y2="319.0"/>
      <line stroke="#000000" stroke-width="1" x1="579.0" x2="579.0" y1="297.0" y2="319.0"/>
      <line stroke="#000000" stroke-width="1" x1="589.0" x2="589.0" y1="297.0" y2="319.0"/>
      <line stroke="#000000" stroke-width="1" x1="599.0" x2="599.0" y1="297.0" y2="319.0"/>
      <line stroke="#000000" stroke-width="1" x1="609.0" x2="609.0" y1="297.0" y2="319.0"/>
      <line stroke="#000000" stroke-width="1" x1="619.0" x2="619.0" y1="297.0" y2="319.0"/>
      <line stroke="#000000" stroke-width="1" x1="629.0" x2="629.0" y1="297.0" y2="319.0"/>
      <line stroke="#000000" stroke-width="1" x1="639.0" x2="639.0" y1="297.0" y2="319.0"/>
      <line stroke="#000000" stroke-width="1" x1="649.0" x2="649.0" y1="297.0" y2="319.0"/>
      <line stroke="#000000" stroke-width="1" x1="659.0" x2="659.0" y1="297.0" y2="319.0"/>
      <line stroke="#000000" stroke-width="1" x1="669.0" x2="669.0" y1="297.0" y2="319.0"/>
      <line stroke="#000000" stroke-width="1" x1="679.0" x2="679.0" y1="297.0" y2="319.0"/>
      <line stroke="#000000" stroke-width="1" x1="689.0" x2="689.0" y1="297.0" y2="319.0"/>
      <text fill="#dc004b" font-family="Arial" font-size="20.0" stroke="none" stroke-width="0" x="441.0" y="383.0">Центральный стадион &gt;&gt;</text>
      <text fill="#dc004b" font-family="Arial" font-size="20.0" stroke="none" stroke-width="0" x="222.0" y="285.0">&lt;&lt; ТК «Европа»</text>
      <text fill="#ffffff" font-family="Arial" font-size="30.0" stroke="none" stroke-width="0" x="388.0" y="336.0">ЦПКиО</text>
      <line stroke="#009966" stroke-width="1" x1="219.0" x2="219.0" y1="223.0" y2="287.0"/>
      <line stroke="#009966" stroke-width="1" x1="215.0" x2="215.0" y1="223.0" y2="287.0"/>
      <line stroke="#009966" stroke-width="1" x1="211.0" x2="211.0" y1="223.0" y2="287.0"/>
      <line stroke="#009966" stroke-width="1" x1="207.0" x2="207.0" y1="223.0" y2="287.0"/>
      <line stroke="#009966" stroke-width="1" x1="219.0" x2="140.0" y1="359.0" y2="359.0"/>
      <line stroke="#009966" stroke-width="1" x1="219.0" x2="140.0" y1="355.0" y2="355.0"/>
      <line stroke="#009966" stroke-width="1" x1="219.0" x2="140.0" y1="351.0" y2="351.0"/>
      <line stroke="#009966" stroke-width="1" x1="4.0" x2="4.0" y1="359.0" y2="427.0"/>
      <line stroke="#009966" stroke-width="1" x1="0.0" x2="0.0" y1="359.0" y2="427.0"/>
      <line stroke="#009966" stroke-width="1" x1="-4.0" x2="-4.0" y1="359.0" y2="427.0"/>
      <line stroke="#009966" stroke-width="1" x1="-8.0" x2="-8.0" y1="359.0" y2="427.0"/>
      <line stroke="#009966" stroke-width="1" x1="-12.0" x2="-12.0" y1="359.0" y2="427.0"/>
      <line stroke="#009966" stroke-width="1" x1="-16.0" x2="-16.0" y1="359.0" y2="427.0"/>
      <line stroke="#009966" stroke-width="1" x1="659.0" x2="659.0" y1="359.0" y2="427.0"/>
      <line stroke="#009966" stroke-width="1" x1="663.0" x2="663.0" y1="359.0" y2="427.0"/>
      <line stroke="#009966" stroke-width="1" x1="667.0" x2="667.0" y1="359.0" y2="427.0"/>
      <line stroke="#009966" stroke-width="1" x1="671.0" x2="671.0" y1="359.0" y2="427.0"/>
      <line stroke="#009966" stroke-width="1" x1="675.0" x2="675.0" y1="359.0" y2="427.0"/>
      <polyline fill="none" points="207.0,223.0 219.0,223.0" stroke="#009966" stroke-width="1"/>
      <polyline fill="none" points="207.0,287.0 219.0,287.0" stroke="#009966" stroke-width="1"/>
      <polyline fill="none" points="140.0,359.0 140.0,351.0" stroke="#009966" stroke-width="1"/>
      <polyline fill="none" points="-17.0,359.0 4.0,359.0" stroke="#009966" stroke-width="1"/>
      <polyline fill="none" points="-16.0,427.0 4.0,427.0" stroke="#009966" stroke-width="1"/>
      <polyline fill="none" points="659.0,359.0 676.0,359.0" stroke="#009966" stroke-width="1"/>
      <polyline fill="none" points="659.0,427.0 674.0,427.0" stroke="#009966" stroke-width="1"/>
      <polygon fill="#666666" points="207.0,295.0 139.0,295.0 139.0,223.0 207.0,223.0" stroke="#000000" stroke-width="1"/>
      <polygon fill="#666666" points="207.0,299.0 139.0,299.0 139.0,317.0 207.0,317.0" stroke="#000000" stroke-width="1"/>
      <polygon fill="#666666" points="207.0,324.0 139.0,324.0 139.0,321.0 207.0,321.0" stroke="#000000" stroke-width="1"/>
      <polygon fill="#666666" points="207.0,328.0 207.0,346.0 139.0,346.0 139.0,328.0" stroke="#000000" stroke-width="1"/>
      <polygon fill="#666666" points="219.0,427.0 219.0,359.0 4.0,359.0 4.0,427.0" stroke="#000000" stroke-width="1"/>
      <polygon fill="#33cccc" points="8.0,395.0 8.0,424.0 135.0,424.0 135.0,395.0" stroke="#000000" stroke-width="1"/>
      <text fill="#00699c" font-family="Arial" font-size="16.0" stroke="none" stroke-width="0" x="285.0" y="196.0">пр-т им. Ленина</text>
      <text fill="#00699c" font-family="Arial" font-size="16.0" stroke="none" stroke-width="0" x="76.0" y="251.0">Выход</text>
      <text fill="#00699c" font-family="Arial" font-size="14.0" stroke="none" stroke-width="0" x="-42.0" y="263.0">к троллейбусной остановке</text>
      <polyline fill="none" marker-end="url(#id534)" points="226.0,251.0 142.0,251.0" stroke="#ffffff" stroke-width="1"/>
      <text fill="#ffffff" font-family="Arial" font-size="13.0" stroke="none" stroke-width="0" x="13.0" y="415.0">Торговый павильон</text>
    </g>
  </g>
</svg>
