<svg xmlns="http://www.w3.org/2000/svg" version="1.1">
<defs>
    <marker id="arrow"
      viewBox="0 0 10 10" refX="0" refY="5"
      markerUnits="strokeWidth"
      markerWidth="4" markerHeight="3"
      orient="auto">
      <path d="M 0 0 L 10 5 L 0 10 z" />
    </marker>
  </defs>
<g stroke="#000000" fill="none" stroke-opacity="1.0" fill-opacity="1.0" transform="scale(0.5)">
<rect x="0" y="0" width="700" height="830" stroke-width="0" fill="none" />
<g stroke="#000000" fill="none" stroke-opacity="1.0" fill-opacity="1.0" transform="scale(0.5)">
</g>
<g transform="rotate(-45.0 350 415)" >
<g stroke="#000000" fill="none" stroke-opacity="1.0" fill-opacity="1.0" transform="scale(0.5)">
</g>
<g stroke="#000000" fill="#FB0505" stroke-opacity="1.0" fill-opacity="1.0" transform="scale(0.5)">
<polygon points="701,405  245,405  245,328  701,328" stroke-width="1" />
</g>
<g stroke="#000000" fill="#CCCCCC" stroke-opacity="1.0" fill-opacity="1.0" transform="scale(0.5)">
<polygon points="245,263  245,328  701,328  701,263" stroke-width="1" />
<polygon points="245,405  701,405  701,466  245,466" stroke-width="1" />
</g>
<g stroke="#0" fill="#CCCCCC" stroke-opacity="1.0" fill-opacity="1.0" transform="scale(0.5)">
<line x1="-69" y1="372" x2="846" y2="372" stroke-width="1" />
<line x1="-69" y1="388" x2="846" y2="388" stroke-width="1" />
<line x1="-66" y1="370.0" x2="-66" y2="390.0" stroke-width="1" />
<line x1="-59" y1="370.0" x2="-59" y2="390.0" stroke-width="1" />
<line x1="-52" y1="370.0" x2="-52" y2="390.0" stroke-width="1" />
<line x1="-45" y1="370.0" x2="-45" y2="390.0" stroke-width="1" />
<line x1="-38" y1="370.0" x2="-38" y2="390.0" stroke-width="1" />
<line x1="-31" y1="370.0" x2="-31" y2="390.0" stroke-width="1" />
<line x1="-24" y1="370.0" x2="-24" y2="390.0" stroke-width="1" />
<line x1="-17" y1="370.0" x2="-17" y2="390.0" stroke-width="1" />
<line x1="-10" y1="370.0" x2="-10" y2="390.0" stroke-width="1" />
<line x1="-3" y1="370.0" x2="-3" y2="390.0" stroke-width="1" />
<line x1="4" y1="370.0" x2="4" y2="390.0" stroke-width="1" />
<line x1="11" y1="370.0" x2="11" y2="390.0" stroke-width="1" />
<line x1="18" y1="370.0" x2="18" y2="390.0" stroke-width="1" />
<line x1="25" y1="370.0" x2="25" y2="390.0" stroke-width="1" />
<line x1="32" y1="370.0" x2="32" y2="390.0" stroke-width="1" />
<line x1="39" y1="370.0" x2="39" y2="390.0" stroke-width="1" />
<line x1="46" y1="370.0" x2="46" y2="390.0" stroke-width="1" />
<line x1="53" y1="370.0" x2="53" y2="390.0" stroke-width="1" />
<line x1="60" y1="370.0" x2="60" y2="390.0" stroke-width="1" />
<line x1="67" y1="370.0" x2="67" y2="390.0" stroke-width="1" />
<line x1="74" y1="370.0" x2="74" y2="390.0" stroke-width="1" />
<line x1="81" y1="370.0" x2="81" y2="390.0" stroke-width="1" />
<line x1="88" y1="370.0" x2="88" y2="390.0" stroke-width="1" />
<line x1="95" y1="370.0" x2="95" y2="390.0" stroke-width="1" />
<line x1="102" y1="370.0" x2="102" y2="390.0" stroke-width="1" />
<line x1="109" y1="370.0" x2="109" y2="390.0" stroke-width="1" />
<line x1="116" y1="370.0" x2="116" y2="390.0" stroke-width="1" />
<line x1="123" y1="370.0" x2="123" y2="390.0" stroke-width="1" />
<line x1="130" y1="370.0" x2="130" y2="390.0" stroke-width="1" />
<line x1="137" y1="370.0" x2="137" y2="390.0" stroke-width="1" />
<line x1="144" y1="370.0" x2="144" y2="390.0" stroke-width="1" />
<line x1="151" y1="370.0" x2="151" y2="390.0" stroke-width="1" />
<line x1="158" y1="370.0" x2="158" y2="390.0" stroke-width="1" />
<line x1="165" y1="370.0" x2="165" y2="390.0" stroke-width="1" />
<line x1="172" y1="370.0" x2="172" y2="390.0" stroke-width="1" />
<line x1="179" y1="370.0" x2="179" y2="390.0" stroke-width="1" />
<line x1="186" y1="370.0" x2="186" y2="390.0" stroke-width="1" />
<line x1="193" y1="370.0" x2="193" y2="390.0" stroke-width="1" />
<line x1="200" y1="370.0" x2="200" y2="390.0" stroke-width="1" />
<line x1="207" y1="370.0" x2="207" y2="390.0" stroke-width="1" />
<line x1="214" y1="370.0" x2="214" y2="390.0" stroke-width="1" />
<line x1="221" y1="370.0" x2="221" y2="390.0" stroke-width="1" />
<line x1="228" y1="370.0" x2="228" y2="390.0" stroke-width="1" />
<line x1="235" y1="370.0" x2="235" y2="390.0" stroke-width="1" />
<line x1="242" y1="370.0" x2="242" y2="390.0" stroke-width="1" />
<line x1="249" y1="370.0" x2="249" y2="390.0" stroke-width="1" />
<line x1="256" y1="370.0" x2="256" y2="390.0" stroke-width="1" />
<line x1="263" y1="370.0" x2="263" y2="390.0" stroke-width="1" />
<line x1="270" y1="370.0" x2="270" y2="390.0" stroke-width="1" />
<line x1="277" y1="370.0" x2="277" y2="390.0" stroke-width="1" />
<line x1="284" y1="370.0" x2="284" y2="390.0" stroke-width="1" />
<line x1="291" y1="370.0" x2="291" y2="390.0" stroke-width="1" />
<line x1="298" y1="370.0" x2="298" y2="390.0" stroke-width="1" />
<line x1="305" y1="370.0" x2="305" y2="390.0" stroke-width="1" />
<line x1="312" y1="370.0" x2="312" y2="390.0" stroke-width="1" />
<line x1="319" y1="370.0" x2="319" y2="390.0" stroke-width="1" />
<line x1="326" y1="370.0" x2="326" y2="390.0" stroke-width="1" />
<line x1="333" y1="370.0" x2="333" y2="390.0" stroke-width="1" />
<line x1="340" y1="370.0" x2="340" y2="390.0" stroke-width="1" />
<line x1="347" y1="370.0" x2="347" y2="390.0" stroke-width="1" />
<line x1="354" y1="370.0" x2="354" y2="390.0" stroke-width="1" />
<line x1="361" y1="370.0" x2="361" y2="390.0" stroke-width="1" />
<line x1="368" y1="370.0" x2="368" y2="390.0" stroke-width="1" />
<line x1="375" y1="370.0" x2="375" y2="390.0" stroke-width="1" />
<line x1="382" y1="370.0" x2="382" y2="390.0" stroke-width="1" />
<line x1="389" y1="370.0" x2="389" y2="390.0" stroke-width="1" />
<line x1="396" y1="370.0" x2="396" y2="390.0" stroke-width="1" />
<line x1="403" y1="370.0" x2="403" y2="390.0" stroke-width="1" />
<line x1="410" y1="370.0" x2="410" y2="390.0" stroke-width="1" />
<line x1="417" y1="370.0" x2="417" y2="390.0" stroke-width="1" />
<line x1="424" y1="370.0" x2="424" y2="390.0" stroke-width="1" />
<line x1="431" y1="370.0" x2="431" y2="390.0" stroke-width="1" />
<line x1="438" y1="370.0" x2="438" y2="390.0" stroke-width="1" />
<line x1="445" y1="370.0" x2="445" y2="390.0" stroke-width="1" />
<line x1="452" y1="370.0" x2="452" y2="390.0" stroke-width="1" />
<line x1="459" y1="370.0" x2="459" y2="390.0" stroke-width="1" />
<line x1="466" y1="370.0" x2="466" y2="390.0" stroke-width="1" />
<line x1="473" y1="370.0" x2="473" y2="390.0" stroke-width="1" />
<line x1="480" y1="370.0" x2="480" y2="390.0" stroke-width="1" />
<line x1="487" y1="370.0" x2="487" y2="390.0" stroke-width="1" />
<line x1="494" y1="370.0" x2="494" y2="390.0" stroke-width="1" />
<line x1="501" y1="370.0" x2="501" y2="390.0" stroke-width="1" />
<line x1="508" y1="370.0" x2="508" y2="390.0" stroke-width="1" />
<line x1="515" y1="370.0" x2="515" y2="390.0" stroke-width="1" />
<line x1="522" y1="370.0" x2="522" y2="390.0" stroke-width="1" />
<line x1="529" y1="370.0" x2="529" y2="390.0" stroke-width="1" />
<line x1="536" y1="370.0" x2="536" y2="390.0" stroke-width="1" />
<line x1="543" y1="370.0" x2="543" y2="390.0" stroke-width="1" />
<line x1="550" y1="370.0" x2="550" y2="390.0" stroke-width="1" />
<line x1="557" y1="370.0" x2="557" y2="390.0" stroke-width="1" />
<line x1="564" y1="370.0" x2="564" y2="390.0" stroke-width="1" />
<line x1="571" y1="370.0" x2="571" y2="390.0" stroke-width="1" />
<line x1="578" y1="370.0" x2="578" y2="390.0" stroke-width="1" />
<line x1="585" y1="370.0" x2="585" y2="390.0" stroke-width="1" />
<line x1="592" y1="370.0" x2="592" y2="390.0" stroke-width="1" />
<line x1="599" y1="370.0" x2="599" y2="390.0" stroke-width="1" />
<line x1="606" y1="370.0" x2="606" y2="390.0" stroke-width="1" />
<line x1="613" y1="370.0" x2="613" y2="390.0" stroke-width="1" />
<line x1="620" y1="370.0" x2="620" y2="390.0" stroke-width="1" />
<line x1="627" y1="370.0" x2="627" y2="390.0" stroke-width="1" />
<line x1="634" y1="370.0" x2="634" y2="390.0" stroke-width="1" />
<line x1="641" y1="370.0" x2="641" y2="390.0" stroke-width="1" />
<line x1="648" y1="370.0" x2="648" y2="390.0" stroke-width="1" />
<line x1="655" y1="370.0" x2="655" y2="390.0" stroke-width="1" />
<line x1="662" y1="370.0" x2="662" y2="390.0" stroke-width="1" />
<line x1="669" y1="370.0" x2="669" y2="390.0" stroke-width="1" />
<line x1="676" y1="370.0" x2="676" y2="390.0" stroke-width="1" />
<line x1="683" y1="370.0" x2="683" y2="390.0" stroke-width="1" />
<line x1="690" y1="370.0" x2="690" y2="390.0" stroke-width="1" />
<line x1="697" y1="370.0" x2="697" y2="390.0" stroke-width="1" />
<line x1="704" y1="370.0" x2="704" y2="390.0" stroke-width="1" />
<line x1="711" y1="370.0" x2="711" y2="390.0" stroke-width="1" />
<line x1="718" y1="370.0" x2="718" y2="390.0" stroke-width="1" />
<line x1="725" y1="370.0" x2="725" y2="390.0" stroke-width="1" />
<line x1="732" y1="370.0" x2="732" y2="390.0" stroke-width="1" />
<line x1="739" y1="370.0" x2="739" y2="390.0" stroke-width="1" />
<line x1="746" y1="370.0" x2="746" y2="390.0" stroke-width="1" />
<line x1="753" y1="370.0" x2="753" y2="390.0" stroke-width="1" />
<line x1="760" y1="370.0" x2="760" y2="390.0" stroke-width="1" />
<line x1="767" y1="370.0" x2="767" y2="390.0" stroke-width="1" />
<line x1="774" y1="370.0" x2="774" y2="390.0" stroke-width="1" />
<line x1="781" y1="370.0" x2="781" y2="390.0" stroke-width="1" />
<line x1="788" y1="370.0" x2="788" y2="390.0" stroke-width="1" />
<line x1="795" y1="370.0" x2="795" y2="390.0" stroke-width="1" />
<line x1="802" y1="370.0" x2="802" y2="390.0" stroke-width="1" />
<line x1="809" y1="370.0" x2="809" y2="390.0" stroke-width="1" />
<line x1="816" y1="370.0" x2="816" y2="390.0" stroke-width="1" />
<line x1="823" y1="370.0" x2="823" y2="390.0" stroke-width="1" />
<line x1="830" y1="370.0" x2="830" y2="390.0" stroke-width="1" />
<line x1="837" y1="370.0" x2="837" y2="390.0" stroke-width="1" />
<line x1="844" y1="370.0" x2="844" y2="390.0" stroke-width="1" />
</g>
<g stroke="#0" fill="#CCCCCC" stroke-opacity="1.0" fill-opacity="1.0" transform="scale(0.5)">
<line x1="-70" y1="337" x2="845" y2="337" stroke-width="1" />
<line x1="-70" y1="353" x2="845" y2="353" stroke-width="1" />
<line x1="-67" y1="335.0" x2="-67" y2="355.0" stroke-width="1" />
<line x1="-60" y1="335.0" x2="-60" y2="355.0" stroke-width="1" />
<line x1="-53" y1="335.0" x2="-53" y2="355.0" stroke-width="1" />
<line x1="-46" y1="335.0" x2="-46" y2="355.0" stroke-width="1" />
<line x1="-39" y1="335.0" x2="-39" y2="355.0" stroke-width="1" />
<line x1="-32" y1="335.0" x2="-32" y2="355.0" stroke-width="1" />
<line x1="-25" y1="335.0" x2="-25" y2="355.0" stroke-width="1" />
<line x1="-18" y1="335.0" x2="-18" y2="355.0" stroke-width="1" />
<line x1="-11" y1="335.0" x2="-11" y2="355.0" stroke-width="1" />
<line x1="-4" y1="335.0" x2="-4" y2="355.0" stroke-width="1" />
<line x1="3" y1="335.0" x2="3" y2="355.0" stroke-width="1" />
<line x1="10" y1="335.0" x2="10" y2="355.0" stroke-width="1" />
<line x1="17" y1="335.0" x2="17" y2="355.0" stroke-width="1" />
<line x1="24" y1="335.0" x2="24" y2="355.0" stroke-width="1" />
<line x1="31" y1="335.0" x2="31" y2="355.0" stroke-width="1" />
<line x1="38" y1="335.0" x2="38" y2="355.0" stroke-width="1" />
<line x1="45" y1="335.0" x2="45" y2="355.0" stroke-width="1" />
<line x1="52" y1="335.0" x2="52" y2="355.0" stroke-width="1" />
<line x1="59" y1="335.0" x2="59" y2="355.0" stroke-width="1" />
<line x1="66" y1="335.0" x2="66" y2="355.0" stroke-width="1" />
<line x1="73" y1="335.0" x2="73" y2="355.0" stroke-width="1" />
<line x1="80" y1="335.0" x2="80" y2="355.0" stroke-width="1" />
<line x1="87" y1="335.0" x2="87" y2="355.0" stroke-width="1" />
<line x1="94" y1="335.0" x2="94" y2="355.0" stroke-width="1" />
<line x1="101" y1="335.0" x2="101" y2="355.0" stroke-width="1" />
<line x1="108" y1="335.0" x2="108" y2="355.0" stroke-width="1" />
<line x1="115" y1="335.0" x2="115" y2="355.0" stroke-width="1" />
<line x1="122" y1="335.0" x2="122" y2="355.0" stroke-width="1" />
<line x1="129" y1="335.0" x2="129" y2="355.0" stroke-width="1" />
<line x1="136" y1="335.0" x2="136" y2="355.0" stroke-width="1" />
<line x1="143" y1="335.0" x2="143" y2="355.0" stroke-width="1" />
<line x1="150" y1="335.0" x2="150" y2="355.0" stroke-width="1" />
<line x1="157" y1="335.0" x2="157" y2="355.0" stroke-width="1" />
<line x1="164" y1="335.0" x2="164" y2="355.0" stroke-width="1" />
<line x1="171" y1="335.0" x2="171" y2="355.0" stroke-width="1" />
<line x1="178" y1="335.0" x2="178" y2="355.0" stroke-width="1" />
<line x1="185" y1="335.0" x2="185" y2="355.0" stroke-width="1" />
<line x1="192" y1="335.0" x2="192" y2="355.0" stroke-width="1" />
<line x1="199" y1="335.0" x2="199" y2="355.0" stroke-width="1" />
<line x1="206" y1="335.0" x2="206" y2="355.0" stroke-width="1" />
<line x1="213" y1="335.0" x2="213" y2="355.0" stroke-width="1" />
<line x1="220" y1="335.0" x2="220" y2="355.0" stroke-width="1" />
<line x1="227" y1="335.0" x2="227" y2="355.0" stroke-width="1" />
<line x1="234" y1="335.0" x2="234" y2="355.0" stroke-width="1" />
<line x1="241" y1="335.0" x2="241" y2="355.0" stroke-width="1" />
<line x1="248" y1="335.0" x2="248" y2="355.0" stroke-width="1" />
<line x1="255" y1="335.0" x2="255" y2="355.0" stroke-width="1" />
<line x1="262" y1="335.0" x2="262" y2="355.0" stroke-width="1" />
<line x1="269" y1="335.0" x2="269" y2="355.0" stroke-width="1" />
<line x1="276" y1="335.0" x2="276" y2="355.0" stroke-width="1" />
<line x1="283" y1="335.0" x2="283" y2="355.0" stroke-width="1" />
<line x1="290" y1="335.0" x2="290" y2="355.0" stroke-width="1" />
<line x1="297" y1="335.0" x2="297" y2="355.0" stroke-width="1" />
<line x1="304" y1="335.0" x2="304" y2="355.0" stroke-width="1" />
<line x1="311" y1="335.0" x2="311" y2="355.0" stroke-width="1" />
<line x1="318" y1="335.0" x2="318" y2="355.0" stroke-width="1" />
<line x1="325" y1="335.0" x2="325" y2="355.0" stroke-width="1" />
<line x1="332" y1="335.0" x2="332" y2="355.0" stroke-width="1" />
<line x1="339" y1="335.0" x2="339" y2="355.0" stroke-width="1" />
<line x1="346" y1="335.0" x2="346" y2="355.0" stroke-width="1" />
<line x1="353" y1="335.0" x2="353" y2="355.0" stroke-width="1" />
<line x1="360" y1="335.0" x2="360" y2="355.0" stroke-width="1" />
<line x1="367" y1="335.0" x2="367" y2="355.0" stroke-width="1" />
<line x1="374" y1="335.0" x2="374" y2="355.0" stroke-width="1" />
<line x1="381" y1="335.0" x2="381" y2="355.0" stroke-width="1" />
<line x1="388" y1="335.0" x2="388" y2="355.0" stroke-width="1" />
<line x1="395" y1="335.0" x2="395" y2="355.0" stroke-width="1" />
<line x1="402" y1="335.0" x2="402" y2="355.0" stroke-width="1" />
<line x1="409" y1="335.0" x2="409" y2="355.0" stroke-width="1" />
<line x1="416" y1="335.0" x2="416" y2="355.0" stroke-width="1" />
<line x1="423" y1="335.0" x2="423" y2="355.0" stroke-width="1" />
<line x1="430" y1="335.0" x2="430" y2="355.0" stroke-width="1" />
<line x1="437" y1="335.0" x2="437" y2="355.0" stroke-width="1" />
<line x1="444" y1="335.0" x2="444" y2="355.0" stroke-width="1" />
<line x1="451" y1="335.0" x2="451" y2="355.0" stroke-width="1" />
<line x1="458" y1="335.0" x2="458" y2="355.0" stroke-width="1" />
<line x1="465" y1="335.0" x2="465" y2="355.0" stroke-width="1" />
<line x1="472" y1="335.0" x2="472" y2="355.0" stroke-width="1" />
<line x1="479" y1="335.0" x2="479" y2="355.0" stroke-width="1" />
<line x1="486" y1="335.0" x2="486" y2="355.0" stroke-width="1" />
<line x1="493" y1="335.0" x2="493" y2="355.0" stroke-width="1" />
<line x1="500" y1="335.0" x2="500" y2="355.0" stroke-width="1" />
<line x1="507" y1="335.0" x2="507" y2="355.0" stroke-width="1" />
<line x1="514" y1="335.0" x2="514" y2="355.0" stroke-width="1" />
<line x1="521" y1="335.0" x2="521" y2="355.0" stroke-width="1" />
<line x1="528" y1="335.0" x2="528" y2="355.0" stroke-width="1" />
<line x1="535" y1="335.0" x2="535" y2="355.0" stroke-width="1" />
<line x1="542" y1="335.0" x2="542" y2="355.0" stroke-width="1" />
<line x1="549" y1="335.0" x2="549" y2="355.0" stroke-width="1" />
<line x1="556" y1="335.0" x2="556" y2="355.0" stroke-width="1" />
<line x1="563" y1="335.0" x2="563" y2="355.0" stroke-width="1" />
<line x1="570" y1="335.0" x2="570" y2="355.0" stroke-width="1" />
<line x1="577" y1="335.0" x2="577" y2="355.0" stroke-width="1" />
<line x1="584" y1="335.0" x2="584" y2="355.0" stroke-width="1" />
<line x1="591" y1="335.0" x2="591" y2="355.0" stroke-width="1" />
<line x1="598" y1="335.0" x2="598" y2="355.0" stroke-width="1" />
<line x1="605" y1="335.0" x2="605" y2="355.0" stroke-width="1" />
<line x1="612" y1="335.0" x2="612" y2="355.0" stroke-width="1" />
<line x1="619" y1="335.0" x2="619" y2="355.0" stroke-width="1" />
<line x1="626" y1="335.0" x2="626" y2="355.0" stroke-width="1" />
<line x1="633" y1="335.0" x2="633" y2="355.0" stroke-width="1" />
<line x1="640" y1="335.0" x2="640" y2="355.0" stroke-width="1" />
<line x1="647" y1="335.0" x2="647" y2="355.0" stroke-width="1" />
<line x1="654" y1="335.0" x2="654" y2="355.0" stroke-width="1" />
<line x1="661" y1="335.0" x2="661" y2="355.0" stroke-width="1" />
<line x1="668" y1="335.0" x2="668" y2="355.0" stroke-width="1" />
<line x1="675" y1="335.0" x2="675" y2="355.0" stroke-width="1" />
<line x1="682" y1="335.0" x2="682" y2="355.0" stroke-width="1" />
<line x1="689" y1="335.0" x2="689" y2="355.0" stroke-width="1" />
<line x1="696" y1="335.0" x2="696" y2="355.0" stroke-width="1" />
<line x1="703" y1="335.0" x2="703" y2="355.0" stroke-width="1" />
<line x1="710" y1="335.0" x2="710" y2="355.0" stroke-width="1" />
<line x1="717" y1="335.0" x2="717" y2="355.0" stroke-width="1" />
<line x1="724" y1="335.0" x2="724" y2="355.0" stroke-width="1" />
<line x1="731" y1="335.0" x2="731" y2="355.0" stroke-width="1" />
<line x1="738" y1="335.0" x2="738" y2="355.0" stroke-width="1" />
<line x1="745" y1="335.0" x2="745" y2="355.0" stroke-width="1" />
<line x1="752" y1="335.0" x2="752" y2="355.0" stroke-width="1" />
<line x1="759" y1="335.0" x2="759" y2="355.0" stroke-width="1" />
<line x1="766" y1="335.0" x2="766" y2="355.0" stroke-width="1" />
<line x1="773" y1="335.0" x2="773" y2="355.0" stroke-width="1" />
<line x1="780" y1="335.0" x2="780" y2="355.0" stroke-width="1" />
<line x1="787" y1="335.0" x2="787" y2="355.0" stroke-width="1" />
<line x1="794" y1="335.0" x2="794" y2="355.0" stroke-width="1" />
<line x1="801" y1="335.0" x2="801" y2="355.0" stroke-width="1" />
<line x1="808" y1="335.0" x2="808" y2="355.0" stroke-width="1" />
<line x1="815" y1="335.0" x2="815" y2="355.0" stroke-width="1" />
<line x1="822" y1="335.0" x2="822" y2="355.0" stroke-width="1" />
<line x1="829" y1="335.0" x2="829" y2="355.0" stroke-width="1" />
<line x1="836" y1="335.0" x2="836" y2="355.0" stroke-width="1" />
<line x1="843" y1="335.0" x2="843" y2="355.0" stroke-width="1" />
</g>
<g stroke="#DC004B" fill="none" stroke-opacity="1.0" fill-opacity="1.0" transform="scale(0.5)">
<text x=" 475" y="429.0" font-family="Arial" font-size=" 20" fill="#DC004B" stroke-width="0">Площадь Возрождения &gt;&gt;</text>
<text x=" 249" y="321.0" font-family="Arial" font-size=" 20" fill="#DC004B" stroke-width="0">&lt;&lt; Мамаев Курган</text>
</g>
<g stroke="#FFFFFF" fill="none" stroke-opacity="1.0" fill-opacity="1.0" transform="scale(0.5)">
<text x=" 367" y="374.0" font-family="Arial" font-size=" 30" fill="#FFFFFF" stroke-width="0">Дворец Спорта</text>
</g>
<g stroke="#00699C" fill="none" stroke-opacity="1.0" fill-opacity="1.0" transform="scale(0.5)">
<text x=" 532" y="221.0" font-family="Arial" font-size=" 16" fill="#00699C" stroke-width="0">пр-т им. Ленина</text>
<text x=" 14" y="653.0" font-family="Arial" font-size=" 16" fill="#00699C" stroke-width="0">Троллейбусное депо №4</text>
<text x=" 298" y="8.0" font-family="Arial" font-size=" 16" fill="#00699C" stroke-width="0">Дворец Спорта Профсоюзов</text>
</g>
<g stroke="#000000" fill="#666666" stroke-opacity="1.0" fill-opacity="1.0" transform="scale(0.5)">
<polygon points="245,334  166,334  166,263  245,263" stroke-width="1" />
<polygon points="243,340  166,340  166,352  243,352" stroke-width="1" />
<polygon points="243,369  166,369  166,357  243,357" stroke-width="1" />
<polygon points="243,374  243,386  166,386  166,374" stroke-width="1" />
<polygon points="245,466  245,392  166,392  166,466" stroke-width="1" />
</g>
</g>
</g>
</svg>
