<?xml version="1.0" encoding="utf-8" ?>
<svg baseProfile="full" height="980.0" version="1.1" width="750.0" xmlns="http://www.w3.org/2000/svg" xmlns:ev="http://www.w3.org/2001/xml-events" xmlns:xlink="http://www.w3.org/1999/xlink">
  <defs>
    <marker id="id537" markerHeight="3" markerUnits="strokeWidth" markerWidth="4" orient="auto" refX="0" refY="5" viewBox="0,0,10,10">
      <path d="M 0 0 L 10 5 L 0 10 z"/>
    </marker>
  </defs>
  <g>
    <rect fill="none" height="980.0" stroke="none" stroke-width="0" width="750.0" x="0.0" y="0.0"/>
    <g transform="rotate(-45.0,375.0,490.0)">
      <polygon fill="#fb0505" points="575.0,641.0 119.0,641.0 119.0,564.0 575.0,564.0" stroke="#000000" stroke-width="1"/>
      <polygon fill="#cccccc" points="119.0,499.0 119.0,564.0 575.0,564.0 575.0,499.0" stroke="#000000" stroke-width="1"/>
      <polygon fill="#cccccc" points="119.0,641.0 575.0,641.0 575.0,702.0 119.0,702.0" stroke="#000000" stroke-width="1"/>
      <line stroke="#000000" stroke-width="1" x1="-83.0" x2="821.0" y1="610.0" y2="610.0"/>
      <line stroke="#000000" stroke-width="1" x1="-83.0" x2="821.0" y1="626.0" y2="626.0"/>
      <line stroke="#000000" stroke-width="1" x1="-79.5" x2="-79.5" y1="608.0" y2="628.0"/>
      <line stroke="#000000" stroke-width="1" x1="-72.5" x2="-72.5" y1="608.0" y2="628.0"/>
      <line stroke="#000000" stroke-width="1" x1="-65.5" x2="-65.5" y1="608.0" y2="628.0"/>
      <line stroke="#000000" stroke-width="1" x1="-58.5" x2="-58.5" y1="608.0" y2="628.0"/>
      <line stroke="#000000" stroke-width="1" x1="-51.5" x2="-51.5" y1="608.0" y2="628.0"/>
      <line stroke="#000000" stroke-width="1" x1="-44.5" x2="-44.5" y1="608.0" y2="628.0"/>
      <line stroke="#000000" stroke-width="1" x1="-37.5" x2="-37.5" y1="608.0" y2="628.0"/>
      <line stroke="#000000" stroke-width="1" x1="-30.5" x2="-30.5" y1="608.0" y2="628.0"/>
      <line stroke="#000000" stroke-width="1" x1="-23.5" x2="-23.5" y1="608.0" y2="628.0"/>
      <line stroke="#000000" stroke-width="1" x1="-16.5" x2="-16.5" y1="608.0" y2="628.0"/>
      <line stroke="#000000" stroke-width="1" x1="-9.5" x2="-9.5" y1="608.0" y2="628.0"/>
      <line stroke="#000000" stroke-width="1" x1="-2.5" x2="-2.5" y1="608.0" y2="628.0"/>
      <line stroke="#000000" stroke-width="1" x1="4.5" x2="4.5" y1="608.0" y2="628.0"/>
      <line stroke="#000000" stroke-width="1" x1="11.5" x2="11.5" y1="608.0" y2="628.0"/>
      <line stroke="#000000" stroke-width="1" x1="18.5" x2="18.5" y1="608.0" y2="628.0"/>
      <line stroke="#000000" stroke-width="1" x1="25.5" x2="25.5" y1="608.0" y2="628.0"/>
      <line stroke="#000000" stroke-width="1" x1="32.5" x2="32.5" y1="608.0" y2="628.0"/>
      <line stroke="#000000" stroke-width="1" x1="39.5" x2="39.5" y1="608.0" y2="628.0"/>
      <line stroke="#000000" stroke-width="1" x1="46.5" x2="46.5" y1="608.0" y2="628.0"/>
      <line stroke="#000000" stroke-width="1" x1="53.5" x2="53.5" y1="608.0" y2="628.0"/>
      <line stroke="#000000" stroke-width="1" x1="60.5" x2="60.5" y1="608.0" y2="628.0"/>
      <line stroke="#000000" stroke-width="1" x1="67.5" x2="67.5" y1="608.0" y2="628.0"/>
      <line stroke="#000000" stroke-width="1" x1="74.5" x2="74.5" y1="608.0" y2="628.0"/>
      <line stroke="#000000" stroke-width="1" x1="81.5" x2="81.5" y1="608.0" y2="628.0"/>
      <line stroke="#000000" stroke-width="1" x1="88.5" x2="88.5" y1="608.0" y2="628.0"/>
      <line stroke="#000000" stroke-width="1" x1="95.5" x2="95.5" y1="608.0" y2="628.0"/>
      <line stroke="#000000" stroke-width="1" x1="102.5" x2="102.5" y1="608.0" y2="628.0"/>
      <line stroke="#000000" stroke-width="1" x1="109.5" x2="109.5" y1="608.0" y2="628.0"/>
      <line stroke="#000000" stroke-width="1" x1="116.5" x2="116.5" y1="608.0" y2="628.0"/>
      <line stroke="#000000" stroke-width="1" x1="123.5" x2="123.5" y1="608.0" y2="628.0"/>
      <line stroke="#000000" stroke-width="1" x1="130.5" x2="130.5" y1="608.0" y2="628.0"/>
      <line stroke="#000000" stroke-width="1" x1="137.5" x2="137.5" y1="608.0" y2="628.0"/>
      <line stroke="#000000" stroke-width="1" x1="144.5" x2="144.5" y1="608.0" y2="628.0"/>
      <line stroke="#000000" stroke-width="1" x1="151.5" x2="151.5" y1="608.0" y2="628.0"/>
      <line stroke="#000000" stroke-width="1" x1="158.5" x2="158.5" y1="608.0" y2="628.0"/>
      <line stroke="#000000" stroke-width="1" x1="165.5" x2="165.5" y1="608.0" y2="628.0"/>
      <line stroke="#000000" stroke-width="1" x1="172.5" x2="172.5" y1="608.0" y2="628.0"/>
      <line stroke="#000000" stroke-width="1" x1="179.5" x2="179.5" y1="608.0" y2="628.0"/>
      <line stroke="#000000" stroke-width="1" x1="186.5" x2="186.5" y1="608.0" y2="628.0"/>
      <line stroke="#000000" stroke-width="1" x1="193.5" x2="193.5" y1="608.0" y2="628.0"/>
      <line stroke="#000000" stroke-width="1" x1="200.5" x2="200.5" y1="608.0" y2="628.0"/>
      <line stroke="#000000" stroke-width="1" x1="207.5" x2="207.5" y1="608.0" y2="628.0"/>
      <line stroke="#000000" stroke-width="1" x1="214.5" x2="214.5" y1="608.0" y2="628.0"/>
      <line stroke="#000000" stroke-width="1" x1="221.5" x2="221.5" y1="608.0" y2="628.0"/>
      <line stroke="#000000" stroke-width="1" x1="228.5" x2="228.5" y1="608.0" y2="628.0"/>
      <line stroke="#000000" stroke-width="1" x1="235.5" x2="235.5" y1="608.0" y2="628.0"/>
      <line stroke="#000000" stroke-width="1" x1="242.5" x2="242.5" y1="608.0" y2="628.0"/>
      <line stroke="#000000" stroke-width="1" x1="249.5" x2="249.5" y1="608.0" y2="628.0"/>
      <line stroke="#000000" stroke-width="1" x1="256.5" x2="256.5" y1="608.0" y2="628.0"/>
      <line stroke="#000000" stroke-width="1" x1="263.5" x2="263.5" y1="608.0" y2="628.0"/>
      <line stroke="#000000" stroke-width="1" x1="270.5" x2="270.5" y1="608.0" y2="628.0"/>
      <line stroke="#000000" stroke-width="1" x1="277.5" x2="277.5" y1="608.0" y2="628.0"/>
      <line stroke="#000000" stroke-width="1" x1="284.5" x2="284.5" y1="608.0" y2="628.0"/>
      <line stroke="#000000" stroke-width="1" x1="291.5" x2="291.5" y1="608.0" y2="628.0"/>
      <line stroke="#000000" stroke-width="1" x1="298.5" x2="298.5" y1="608.0" y2="628.0"/>
      <line stroke="#000000" stroke-width="1" x1="305.5" x2="305.5" y1="608.0" y2="628.0"/>
      <line stroke="#000000" stroke-width="1" x1="312.5" x2="312.5" y1="608.0" y2="628.0"/>
      <line stroke="#000000" stroke-width="1" x1="319.5" x2="319.5" y1="608.0" y2="628.0"/>
      <line stroke="#000000" stroke-width="1" x1="326.5" x2="326.5" y1="608.0" y2="628.0"/>
      <line stroke="#000000" stroke-width="1" x1="333.5" x2="333.5" y1="608.0" y2="628.0"/>
      <line stroke="#000000" stroke-width="1" x1="340.5" x2="340.5" y1="608.0" y2="628.0"/>
      <line stroke="#000000" stroke-width="1" x1="347.5" x2="347.5" y1="608.0" y2="628.0"/>
      <line stroke="#000000" stroke-width="1" x1="354.5" x2="354.5" y1="608.0" y2="628.0"/>
      <line stroke="#000000" stroke-width="1" x1="361.5" x2="361.5" y1="608.0" y2="628.0"/>
      <line stroke="#000000" stroke-width="1" x1="368.5" x2="368.5" y1="608.0" y2="628.0"/>
      <line stroke="#000000" stroke-width="1" x1="375.5" x2="375.5" y1="608.0" y2="628.0"/>
      <line stroke="#000000" stroke-width="1" x1="382.5" x2="382.5" y1="608.0" y2="628.0"/>
      <line stroke="#000000" stroke-width="1" x1="389.5" x2="389.5" y1="608.0" y2="628.0"/>
      <line stroke="#000000" stroke-width="1" x1="396.5" x2="396.5" y1="608.0" y2="628.0"/>
      <line stroke="#000000" stroke-width="1" x1="403.5" x2="403.5" y1="608.0" y2="628.0"/>
      <line stroke="#000000" stroke-width="1" x1="410.5" x2="410.5" y1="608.0" y2="628.0"/>
      <line stroke="#000000" stroke-width="1" x1="417.5" x2="417.5" y1="608.0" y2="628.0"/>
      <line stroke="#000000" stroke-width="1" x1="424.5" x2="424.5" y1="608.0" y2="628.0"/>
      <line stroke="#000000" stroke-width="1" x1="431.5" x2="431.5" y1="608.0" y2="628.0"/>
      <line stroke="#000000" stroke-width="1" x1="438.5" x2="438.5" y1="608.0" y2="628.0"/>
      <line stroke="#000000" stroke-width="1" x1="445.5" x2="445.5" y1="608.0" y2="628.0"/>
      <line stroke="#000000" stroke-width="1" x1="452.5" x2="452.5" y1="608.0" y2="628.0"/>
      <line stroke="#000000" stroke-width="1" x1="459.5" x2="459.5" y1="608.0" y2="628.0"/>
      <line stroke="#000000" stroke-width="1" x1="466.5" x2="466.5" y1="608.0" y2="628.0"/>
      <line stroke="#000000" stroke-width="1" x1="473.5" x2="473.5" y1="608.0" y2="628.0"/>
      <line stroke="#000000" stroke-width="1" x1="480.5" x2="480.5" y1="608.0" y2="628.0"/>
      <line stroke="#000000" stroke-width="1" x1="487.5" x2="487.5" y1="608.0" y2="628.0"/>
      <line stroke="#000000" stroke-width="1" x1="494.5" x2="494.5" y1="608.0" y2="628.0"/>
      <line stroke="#000000" stroke-width="1" x1="501.5" x2="501.5" y1="608.0" y2="628.0"/>
      <line stroke="#000000" stroke-width="1" x1="508.5" x2="508.5" y1="608.0" y2="628.0"/>
      <line stroke="#000000" stroke-width="1" x1="515.5" x2="515.5" y1="608.0" y2="628.0"/>
      <line stroke="#000000" stroke-width="1" x1="522.5" x2="522.5" y1="608.0" y2="628.0"/>
      <line stroke="#000000" stroke-width="1" x1="529.5" x2="529.5" y1="608.0" y2="628.0"/>
      <line stroke="#000000" stroke-width="1" x1="536.5" x2="536.5" y1="608.0" y2="628.0"/>
      <line stroke="#000000" stroke-width="1" x1="543.5" x2="543.5" y1="608.0" y2="628.0"/>
      <line stroke="#000000" stroke-width="1" x1="550.5" x2="550.5" y1="608.0" y2="628.0"/>
      <line stroke="#000000" stroke-width="1" x1="557.5" x2="557.5" y1="608.0" y2="628.0"/>
      <line stroke="#000000" stroke-width="1" x1="564.5" x2="564.5" y1="608.0" y2="628.0"/>
      <line stroke="#000000" stroke-width="1" x1="571.5" x2="571.5" y1="608.0" y2="628.0"/>
      <line stroke="#000000" stroke-width="1" x1="578.5" x2="578.5" y1="608.0" y2="628.0"/>
      <line stroke="#000000" stroke-width="1" x1="585.5" x2="585.5" y1="608.0" y2="628.0"/>
      <line stroke="#000000" stroke-width="1" x1="592.5" x2="592.5" y1="608.0" y2="628.0"/>
      <line stroke="#000000" stroke-width="1" x1="599.5" x2="599.5" y1="608.0" y2="628.0"/>
      <line stroke="#000000" stroke-width="1" x1="606.5" x2="606.5" y1="608.0" y2="628.0"/>
      <line stroke="#000000" stroke-width="1" x1="613.5" x2="613.5" y1="608.0" y2="628.0"/>
      <line stroke="#000000" stroke-width="1" x1="620.5" x2="620.5" y1="608.0" y2="628.0"/>
      <line stroke="#000000" stroke-width="1" x1="627.5" x2="627.5" y1="608.0" y2="628.0"/>
      <line stroke="#000000" stroke-width="1" x1="634.5" x2="634.5" y1="608.0" y2="628.0"/>
      <line stroke="#000000" stroke-width="1" x1="641.5" x2="641.5" y1="608.0" y2="628.0"/>
      <line stroke="#000000" stroke-width="1" x1="648.5" x2="648.5" y1="608.0" y2="628.0"/>
      <line stroke="#000000" stroke-width="1" x1="655.5" x2="655.5" y1="608.0" y2="628.0"/>
      <line stroke="#000000" stroke-width="1" x1="662.5" x2="662.5" y1="608.0" y2="628.0"/>
      <line stroke="#000000" stroke-width="1" x1="669.5" x2="669.5" y1="608.0" y2="628.0"/>
      <line stroke="#000000" stroke-width="1" x1="676.5" x2="676.5" y1="608.0" y2="628.0"/>
      <line stroke="#000000" stroke-width="1" x1="683.5" x2="683.5" y1="608.0" y2="628.0"/>
      <line stroke="#000000" stroke-width="1" x1="690.5" x2="690.5" y1="608.0" y2="628.0"/>
      <line stroke="#000000" stroke-width="1" x1="697.5" x2="697.5" y1="608.0" y2="628.0"/>
      <line stroke="#000000" stroke-width="1" x1="704.5" x2="704.5" y1="608.0" y2="628.0"/>
      <line stroke="#000000" stroke-width="1" x1="711.5" x2="711.5" y1="608.0" y2="628.0"/>
      <line stroke="#000000" stroke-width="1" x1="718.5" x2="718.5" y1="608.0" y2="628.0"/>
      <line stroke="#000000" stroke-width="1" x1="725.5" x2="725.5" y1="608.0" y2="628.0"/>
      <line stroke="#000000" stroke-width="1" x1="732.5" x2="732.5" y1="608.0" y2="628.0"/>
      <line stroke="#000000" stroke-width="1" x1="739.5" x2="739.5" y1="608.0" y2="628.0"/>
      <line stroke="#000000" stroke-width="1" x1="746.5" x2="746.5" y1="608.0" y2="628.0"/>
      <line stroke="#000000" stroke-width="1" x1="753.5" x2="753.5" y1="608.0" y2="628.0"/>
      <line stroke="#000000" stroke-width="1" x1="760.5" x2="760.5" y1="608.0" y2="628.0"/>
      <line stroke="#000000" stroke-width="1" x1="767.5" x2="767.5" y1="608.0" y2="628.0"/>
      <line stroke="#000000" stroke-width="1" x1="774.5" x2="774.5" y1="608.0" y2="628.0"/>
      <line stroke="#000000" stroke-width="1" x1="781.5" x2="781.5" y1="608.0" y2="628.0"/>
      <line stroke="#000000" stroke-width="1" x1="788.5" x2="788.5" y1="608.0" y2="628.0"/>
      <line stroke="#000000" stroke-width="1" x1="795.5" x2="795.5" y1="608.0" y2="628.0"/>
      <line stroke="#000000" stroke-width="1" x1="802.5" x2="802.5" y1="608.0" y2="628.0"/>
      <line stroke="#000000" stroke-width="1" x1="809.5" x2="809.5" y1="608.0" y2="628.0"/>
      <line stroke="#000000" stroke-width="1" x1="816.5" x2="816.5" y1="608.0" y2="628.0"/>
      <line stroke="#000000" stroke-width="1" x1="-83.0" x2="821.0" y1="575.0" y2="575.0"/>
      <line stroke="#000000" stroke-width="1" x1="-83.0" x2="821.0" y1="591.0" y2="591.0"/>
      <line stroke="#000000" stroke-width="1" x1="-79.5" x2="-79.5" y1="573.0" y2="593.0"/>
      <line stroke="#000000" stroke-width="1" x1="-72.5" x2="-72.5" y1="573.0" y2="593.0"/>
      <line stroke="#000000" stroke-width="1" x1="-65.5" x2="-65.5" y1="573.0" y2="593.0"/>
      <line stroke="#000000" stroke-width="1" x1="-58.5" x2="-58.5" y1="573.0" y2="593.0"/>
      <line stroke="#000000" stroke-width="1" x1="-51.5" x2="-51.5" y1="573.0" y2="593.0"/>
      <line stroke="#000000" stroke-width="1" x1="-44.5" x2="-44.5" y1="573.0" y2="593.0"/>
      <line stroke="#000000" stroke-width="1" x1="-37.5" x2="-37.5" y1="573.0" y2="593.0"/>
      <line stroke="#000000" stroke-width="1" x1="-30.5" x2="-30.5" y1="573.0" y2="593.0"/>
      <line stroke="#000000" stroke-width="1" x1="-23.5" x2="-23.5" y1="573.0" y2="593.0"/>
      <line stroke="#000000" stroke-width="1" x1="-16.5" x2="-16.5" y1="573.0" y2="593.0"/>
      <line stroke="#000000" stroke-width="1" x1="-9.5" x2="-9.5" y1="573.0" y2="593.0"/>
      <line stroke="#000000" stroke-width="1" x1="-2.5" x2="-2.5" y1="573.0" y2="593.0"/>
      <line stroke="#000000" stroke-width="1" x1="4.5" x2="4.5" y1="573.0" y2="593.0"/>
      <line stroke="#000000" stroke-width="1" x1="11.5" x2="11.5" y1="573.0" y2="593.0"/>
      <line stroke="#000000" stroke-width="1" x1="18.5" x2="18.5" y1="573.0" y2="593.0"/>
      <line stroke="#000000" stroke-width="1" x1="25.5" x2="25.5" y1="573.0" y2="593.0"/>
      <line stroke="#000000" stroke-width="1" x1="32.5" x2="32.5" y1="573.0" y2="593.0"/>
      <line stroke="#000000" stroke-width="1" x1="39.5" x2="39.5" y1="573.0" y2="593.0"/>
      <line stroke="#000000" stroke-width="1" x1="46.5" x2="46.5" y1="573.0" y2="593.0"/>
      <line stroke="#000000" stroke-width="1" x1="53.5" x2="53.5" y1="573.0" y2="593.0"/>
      <line stroke="#000000" stroke-width="1" x1="60.5" x2="60.5" y1="573.0" y2="593.0"/>
      <line stroke="#000000" stroke-width="1" x1="67.5" x2="67.5" y1="573.0" y2="593.0"/>
      <line stroke="#000000" stroke-width="1" x1="74.5" x2="74.5" y1="573.0" y2="593.0"/>
      <line stroke="#000000" stroke-width="1" x1="81.5" x2="81.5" y1="573.0" y2="593.0"/>
      <line stroke="#000000" stroke-width="1" x1="88.5" x2="88.5" y1="573.0" y2="593.0"/>
      <line stroke="#000000" stroke-width="1" x1="95.5" x2="95.5" y1="573.0" y2="593.0"/>
      <line stroke="#000000" stroke-width="1" x1="102.5" x2="102.5" y1="573.0" y2="593.0"/>
      <line stroke="#000000" stroke-width="1" x1="109.5" x2="109.5" y1="573.0" y2="593.0"/>
      <line stroke="#000000" stroke-width="1" x1="116.5" x2="116.5" y1="573.0" y2="593.0"/>
      <line stroke="#000000" stroke-width="1" x1="123.5" x2="123.5" y1="573.0" y2="593.0"/>
      <line stroke="#000000" stroke-width="1" x1="130.5" x2="130.5" y1="573.0" y2="593.0"/>
      <line stroke="#000000" stroke-width="1" x1="137.5" x2="137.5" y1="573.0" y2="593.0"/>
      <line stroke="#000000" stroke-width="1" x1="144.5" x2="144.5" y1="573.0" y2="593.0"/>
      <line stroke="#000000" stroke-width="1" x1="151.5" x2="151.5" y1="573.0" y2="593.0"/>
      <line stroke="#000000" stroke-width="1" x1="158.5" x2="158.5" y1="573.0" y2="593.0"/>
      <line stroke="#000000" stroke-width="1" x1="165.5" x2="165.5" y1="573.0" y2="593.0"/>
      <line stroke="#000000" stroke-width="1" x1="172.5" x2="172.5" y1="573.0" y2="593.0"/>
      <line stroke="#000000" stroke-width="1" x1="179.5" x2="179.5" y1="573.0" y2="593.0"/>
      <line stroke="#000000" stroke-width="1" x1="186.5" x2="186.5" y1="573.0" y2="593.0"/>
      <line stroke="#000000" stroke-width="1" x1="193.5" x2="193.5" y1="573.0" y2="593.0"/>
      <line stroke="#000000" stroke-width="1" x1="200.5" x2="200.5" y1="573.0" y2="593.0"/>
      <line stroke="#000000" stroke-width="1" x1="207.5" x2="207.5" y1="573.0" y2="593.0"/>
      <line stroke="#000000" stroke-width="1" x1="214.5" x2="214.5" y1="573.0" y2="593.0"/>
      <line stroke="#000000" stroke-width="1" x1="221.5" x2="221.5" y1="573.0" y2="593.0"/>
      <line stroke="#000000" stroke-width="1" x1="228.5" x2="228.5" y1="573.0" y2="593.0"/>
      <line stroke="#000000" stroke-width="1" x1="235.5" x2="235.5" y1="573.0" y2="593.0"/>
      <line stroke="#000000" stroke-width="1" x1="242.5" x2="242.5" y1="573.0" y2="593.0"/>
      <line stroke="#000000" stroke-width="1" x1="249.5" x2="249.5" y1="573.0" y2="593.0"/>
      <line stroke="#000000" stroke-width="1" x1="256.5" x2="256.5" y1="573.0" y2="593.0"/>
      <line stroke="#000000" stroke-width="1" x1="263.5" x2="263.5" y1="573.0" y2="593.0"/>
      <line stroke="#000000" stroke-width="1" x1="270.5" x2="270.5" y1="573.0" y2="593.0"/>
      <line stroke="#000000" stroke-width="1" x1="277.5" x2="277.5" y1="573.0" y2="593.0"/>
      <line stroke="#000000" stroke-width="1" x1="284.5" x2="284.5" y1="573.0" y2="593.0"/>
      <line stroke="#000000" stroke-width="1" x1="291.5" x2="291.5" y1="573.0" y2="593.0"/>
      <line stroke="#000000" stroke-width="1" x1="298.5" x2="298.5" y1="573.0" y2="593.0"/>
      <line stroke="#000000" stroke-width="1" x1="305.5" x2="305.5" y1="573.0" y2="593.0"/>
      <line stroke="#000000" stroke-width="1" x1="312.5" x2="312.5" y1="573.0" y2="593.0"/>
      <line stroke="#000000" stroke-width="1" x1="319.5" x2="319.5" y1="573.0" y2="593.0"/>
      <line stroke="#000000" stroke-width="1" x1="326.5" x2="326.5" y1="573.0" y2="593.0"/>
      <line stroke="#000000" stroke-width="1" x1="333.5" x2="333.5" y1="573.0" y2="593.0"/>
      <line stroke="#000000" stroke-width="1" x1="340.5" x2="340.5" y1="573.0" y2="593.0"/>
      <line stroke="#000000" stroke-width="1" x1="347.5" x2="347.5" y1="573.0" y2="593.0"/>
      <line stroke="#000000" stroke-width="1" x1="354.5" x2="354.5" y1="573.0" y2="593.0"/>
      <line stroke="#000000" stroke-width="1" x1="361.5" x2="361.5" y1="573.0" y2="593.0"/>
      <line stroke="#000000" stroke-width="1" x1="368.5" x2="368.5" y1="573.0" y2="593.0"/>
      <line stroke="#000000" stroke-width="1" x1="375.5" x2="375.5" y1="573.0" y2="593.0"/>
      <line stroke="#000000" stroke-width="1" x1="382.5" x2="382.5" y1="573.0" y2="593.0"/>
      <line stroke="#000000" stroke-width="1" x1="389.5" x2="389.5" y1="573.0" y2="593.0"/>
      <line stroke="#000000" stroke-width="1" x1="396.5" x2="396.5" y1="573.0" y2="593.0"/>
      <line stroke="#000000" stroke-width="1" x1="403.5" x2="403.5" y1="573.0" y2="593.0"/>
      <line stroke="#000000" stroke-width="1" x1="410.5" x2="410.5" y1="573.0" y2="593.0"/>
      <line stroke="#000000" stroke-width="1" x1="417.5" x2="417.5" y1="573.0" y2="593.0"/>
      <line stroke="#000000" stroke-width="1" x1="424.5" x2="424.5" y1="573.0" y2="593.0"/>
      <line stroke="#000000" stroke-width="1" x1="431.5" x2="431.5" y1="573.0" y2="593.0"/>
      <line stroke="#000000" stroke-width="1" x1="438.5" x2="438.5" y1="573.0" y2="593.0"/>
      <line stroke="#000000" stroke-width="1" x1="445.5" x2="445.5" y1="573.0" y2="593.0"/>
      <line stroke="#000000" stroke-width="1" x1="452.5" x2="452.5" y1="573.0" y2="593.0"/>
      <line stroke="#000000" stroke-width="1" x1="459.5" x2="459.5" y1="573.0" y2="593.0"/>
      <line stroke="#000000" stroke-width="1" x1="466.5" x2="466.5" y1="573.0" y2="593.0"/>
      <line stroke="#000000" stroke-width="1" x1="473.5" x2="473.5" y1="573.0" y2="593.0"/>
      <line stroke="#000000" stroke-width="1" x1="480.5" x2="480.5" y1="573.0" y2="593.0"/>
      <line stroke="#000000" stroke-width="1" x1="487.5" x2="487.5" y1="573.0" y2="593.0"/>
      <line stroke="#000000" stroke-width="1" x1="494.5" x2="494.5" y1="573.0" y2="593.0"/>
      <line stroke="#000000" stroke-width="1" x1="501.5" x2="501.5" y1="573.0" y2="593.0"/>
      <line stroke="#000000" stroke-width="1" x1="508.5" x2="508.5" y1="573.0" y2="593.0"/>
      <line stroke="#000000" stroke-width="1" x1="515.5" x2="515.5" y1="573.0" y2="593.0"/>
      <line stroke="#000000" stroke-width="1" x1="522.5" x2="522.5" y1="573.0" y2="593.0"/>
      <line stroke="#000000" stroke-width="1" x1="529.5" x2="529.5" y1="573.0" y2="593.0"/>
      <line stroke="#000000" stroke-width="1" x1="536.5" x2="536.5" y1="573.0" y2="593.0"/>
      <line stroke="#000000" stroke-width="1" x1="543.5" x2="543.5" y1="573.0" y2="593.0"/>
      <line stroke="#000000" stroke-width="1" x1="550.5" x2="550.5" y1="573.0" y2="593.0"/>
      <line stroke="#000000" stroke-width="1" x1="557.5" x2="557.5" y1="573.0" y2="593.0"/>
      <line stroke="#000000" stroke-width="1" x1="564.5" x2="564.5" y1="573.0" y2="593.0"/>
      <line stroke="#000000" stroke-width="1" x1="571.5" x2="571.5" y1="573.0" y2="593.0"/>
      <line stroke="#000000" stroke-width="1" x1="578.5" x2="578.5" y1="573.0" y2="593.0"/>
      <line stroke="#000000" stroke-width="1" x1="585.5" x2="585.5" y1="573.0" y2="593.0"/>
      <line stroke="#000000" stroke-width="1" x1="592.5" x2="592.5" y1="573.0" y2="593.0"/>
      <line stroke="#000000" stroke-width="1" x1="599.5" x2="599.5" y1="573.0" y2="593.0"/>
      <line stroke="#000000" stroke-width="1" x1="606.5" x2="606.5" y1="573.0" y2="593.0"/>
      <line stroke="#000000" stroke-width="1" x1="613.5" x2="613.5" y1="573.0" y2="593.0"/>
      <line stroke="#000000" stroke-width="1" x1="620.5" x2="620.5" y1="573.0" y2="593.0"/>
      <line stroke="#000000" stroke-width="1" x1="627.5" x2="627.5" y1="573.0" y2="593.0"/>
      <line stroke="#000000" stroke-width="1" x1="634.5" x2="634.5" y1="573.0" y2="593.0"/>
      <line stroke="#000000" stroke-width="1" x1="641.5" x2="641.5" y1="573.0" y2="593.0"/>
      <line stroke="#000000" stroke-width="1" x1="648.5" x2="648.5" y1="573.0" y2="593.0"/>
      <line stroke="#000000" stroke-width="1" x1="655.5" x2="655.5" y1="573.0" y2="593.0"/>
      <line stroke="#000000" stroke-width="1" x1="662.5" x2="662.5" y1="573.0" y2="593.0"/>
      <line stroke="#000000" stroke-width="1" x1="669.5" x2="669.5" y1="573.0" y2="593.0"/>
      <line stroke="#000000" stroke-width="1" x1="676.5" x2="676.5" y1="573.0" y2="593.0"/>
      <line stroke="#000000" stroke-width="1" x1="683.5" x2="683.5" y1="573.0" y2="593.0"/>
      <line stroke="#000000" stroke-width="1" x1="690.5" x2="690.5" y1="573.0" y2="593.0"/>
      <line stroke="#000000" stroke-width="1" x1="697.5" x2="697.5" y1="573.0" y2="593.0"/>
      <line stroke="#000000" stroke-width="1" x1="704.5" x2="704.5" y1="573.0" y2="593.0"/>
      <line stroke="#000000" stroke-width="1" x1="711.5" x2="711.5" y1="573.0" y2="593.0"/>
      <line stroke="#000000" stroke-width="1" x1="718.5" x2="718.5" y1="573.0" y2="593.0"/>
      <line stroke="#000000" stroke-width="1" x1="725.5" x2="725.5" y1="573.0" y2="593.0"/>
      <line stroke="#000000" stroke-width="1" x1="732.5" x2="732.5" y1="573.0" y2="593.0"/>
      <line stroke="#000000" stroke-width="1" x1="739.5" x2="739.5" y1="573.0" y2="593.0"/>
      <line stroke="#000000" stroke-width="1" x1="746.5" x2="746.5" y1="573.0" y2="593.0"/>
      <line stroke="#000000" stroke-width="1" x1="753.5" x2="753.5" y1="573.0" y2="593.0"/>
      <line stroke="#000000" stroke-width="1" x1="760.5" x2="760.5" y1="573.0" y2="593.0"/>
      <line stroke="#000000" stroke-width="1" x1="767.5" x2="767.5" y1="573.0" y2="593.0"/>
      <line stroke="#000000" stroke-width="1" x1="774.5" x2="774.5" y1="573.0" y2="593.0"/>
      <line stroke="#000000" stroke-width="1" x1="781.5" x2="781.5" y1="573.0" y2="593.0"/>
      <line stroke="#000000" stroke-width="1" x1="788.5" x2="788.5" y1="573.0" y2="593.0"/>
      <line stroke="#000000" stroke-width="1" x1="795.5" x2="795.5" y1="573.0" y2="593.0"/>
      <line stroke="#000000" stroke-width="1" x1="802.5" x2="802.5" y1="573.0" y2="593.0"/>
      <line stroke="#000000" stroke-width="1" x1="809.5" x2="809.5" y1="573.0" y2="593.0"/>
      <line stroke="#000000" stroke-width="1" x1="816.5" x2="816.5" y1="573.0" y2="593.0"/>
      <text fill="#dc004b" font-family="Arial" font-size="20.0" stroke="none" stroke-width="0" x="413.0" y="664.0">Дворец Спорта &gt;&gt;</text>
      <text fill="#dc004b" font-family="Arial" font-size="20.0" stroke="none" stroke-width="0" x="125.0" y="558.0">&lt;&lt; Центральный стадион</text>
      <text fill="#ffffff" font-family="Arial" font-size="30.0" stroke="none" stroke-width="0" x="256.0" y="610.0">Мамаев Курган</text>
      <text fill="#00699c" font-family="Arial" font-size="16.0" stroke="none" stroke-width="0" x="411.0" y="409.0">пр-т им. Ленина</text>
      <text fill="#00699c" font-family="Arial" font-size="16.0" stroke="none" stroke-width="0" x="113.0" y="920.0">Физкультурная академия</text>
      <text fill="#00699c" font-family="Arial" font-size="16.0" stroke="none" stroke-width="0" x="317.0" y="52.0">'Памятник-ансамбль &quot;Мамаев Курган&quot;'</text>
      <polygon fill="#666666" points="649.0,573.0 575.0,573.0 575.0,499.0 649.0,499.0" stroke="#000000" stroke-width="1"/>
      <polygon fill="#666666" points="649.0,576.0 575.0,576.0 575.0,589.0 649.0,589.0" stroke="#000000" stroke-width="1"/>
      <polygon fill="#666666" points="649.0,608.0 575.0,608.0 575.0,592.0 649.0,592.0" stroke="#000000" stroke-width="1"/>
      <polygon fill="#666666" points="649.0,612.0 649.0,624.0 575.0,624.0 575.0,612.0" stroke="#000000" stroke-width="1"/>
      <polygon fill="#666666" points="575.0,702.0 575.0,628.0 649.0,628.0 649.0,702.0" stroke="#000000" stroke-width="1"/>
    </g>
  </g>
</svg>
