<?xml version="1.0" encoding="utf-8" ?>
<svg baseProfile="full" height="100%" version="1.1" width="100%" xmlns="http://www.w3.org/2000/svg" xmlns:ev="http://www.w3.org/2001/xml-events" xmlns:xlink="http://www.w3.org/1999/xlink"><defs><marker id="id74" markerHeight="3" markerUnits="strokeWidth" markerWidth="4" orient="auto" refX="0" refY="5" viewBox="0,0,10,10"><path d="M 0 0 L 10 5 L 0 10 z" /></marker></defs><g transform="scale(0.5)"><rect fill="none" height="1000" stroke="none" width="890" x="0" y="0" /><path d="M161,1004 C161,1004 153.666666667,1016.66666667 161,1004 C168.333333333,991.333333333 185.0,958.833333333 205,928 C225.0,897.166666667 260.0,849.5 281,819 C302.0,788.5 303.666666667,775.333333333 331,745 C358.333333333,714.666666667 413.833333333,671.166666667 445,637 C476.166666667,602.833333333 495.333333333,576.0 518,540 C540.666666667,504.0 557.333333333,460.833333333 581,421 C604.666666667,381.166666667 630.5,344.5 660,301 C689.5,257.5 733.333333333,191.833333333 758,160 C782.666666667,128.166666667 795.333333333,127.833333333 808,110 C820.666666667,92.1666666667 821.0,71.8333333333 834,53 C847.0,34.1666666667 886,-3 886,-3 " fill="none" stroke="#D9F5FF" stroke-width="20" /><path d="M206,1005 C206,1005 200.0,1016.0 206,1005 C212.0,994.0 230.333333333,959.0 242,939 C253.666666667,919.0 265.666666667,902.833333333 276,885 C286.333333333,867.166666667 288.666666667,852.0 304,832 C319.333333333,812.0 346.666666667,787.333333333 368,765 C389.333333333,742.666666667 418.166666667,709.333333333 432,698 C445.833333333,686.666666667 444.333333333,688.0 451,697 C457.666666667,706.0 469.833333333,735.5 472,752 C474.166666667,768.5 468.5,779.666666667 464,796 C459.5,812.333333333 450.333333333,828.166666667 445,850 C439.666666667,871.833333333 435.0,909.0 432,927 C429.0,945.0 430.0,947.0 427,958 C424.0,969.0 418.333333333,993.5 414,993 C409.666666667,992.5 403.166666667,965.0 401,955 C398.833333333,945.0 402.666666667,932.833333333 401,933 C399.333333333,933.166666667 391.666666667,944.666666667 391,956 C390.333333333,967.333333333 397,1001 397,1001 " fill="none" stroke="#D9F5FF" stroke-width="20" /><path d="M421,1000 C421,1000 418.166666667,1009.0 421,1000 C423.833333333,991.0 429.166666667,964.833333333 438,946 C446.833333333,927.166666667 467.0,904.666666667 474,887 C481.0,869.333333333 476.166666667,854.5 480,840 C483.833333333,825.5 489.166666667,831.166666667 497,800 C504.833333333,768.833333333 516.833333333,685.333333333 527,653 C537.166666667,620.666666667 541.5,620.333333333 558,606 C574.5,591.666666667 613.0,577.333333333 626,567 C639.0,556.666666667 632.0,549.833333333 636,544 C640.0,538.166666667 643.666666667,534.833333333 650,532 C656.333333333,529.166666667 674.333333333,527.333333333 674,527 C673.666666667,526.666666667 654.5,529.0 648,530 C641.5,531.0 639.833333333,532.333333333 635,533 C630.166666667,533.666666667 621.5,531.333333333 619,534 C616.5,536.666666667 624.166666667,543.0 620,549 C615.833333333,555.0 603.833333333,562.166666667 594,570 C584.166666667,577.833333333 572.0,588.5 561,596 C550.0,603.5 531.5,619.0 528,615 C524.5,611.0 533.0,589.333333333 540,572 C547.0,554.666666667 560.833333333,530.166666667 570,511 C579.166666667,491.833333333 586.166666667,471.833333333 595,457 C603.833333333,442.166666667 609.833333333,430.666666667 623,422 C636.166666667,413.333333333 654.5,410.0 674,405 C693.5,400.0 720.166666667,397.833333333 740,392 C759.833333333,386.166666667 775.0,376.333333333 793,370 C811.0,363.666666667 830.166666667,369.833333333 848,354 C865.833333333,338.166666667 900,275 900,275 " fill="none" stroke="#D9F5FF" stroke-width="20" /><path d="M672,329 C672,329 666.166666667,339.5 672,329 C677.833333333,318.5 697.166666667,279.833333333 707,266 C716.833333333,252.166666667 716.5,263.166666667 731,246 C745.5,228.833333333 775.0,183.333333333 794,163 C813.0,142.666666667 836.333333333,126.833333333 845,124 C853.666666667,121.166666667 845.666666667,133.0 846,146 C846.333333333,159.0 850.333333333,180.5 847,202 C843.666666667,223.5 833.5,255.166666667 826,275 C818.5,294.833333333 812.5,308.0 802,321 C791.5,334.0 774.166666667,345.0 763,353 C751.833333333,361.0 743.166666667,367.333333333 735,369 C726.833333333,370.666666667 715.0,367.0 714,363 C713.0,359.0 724.333333333,350.833333333 729,345 C733.666666667,339.166666667 747.666666667,327.833333333 742,328 C736.333333333,328.166666667 704.333333333,344.333333333 695,346 C685.666666667,347.666666667 681.0,342.5 686,338 C691.0,333.5 724.333333333,321.166666667 725,319 C725.666666667,316.833333333 694.333333333,327.666666667 690,325 C685.666666667,322.333333333 702.0,302.333333333 699,303 C696.0,303.666666667 672,329 672,329 " fill="none" stroke="#D9F5FF" stroke-width="5" /><polygon fill="#D9F5FF" points="170,1000 282,828 334,752 436,657 532,520 554,535 523,643 432,689 333,794 206,1000" stroke="#D9F5FF" stroke-width="1" /><polygon fill="#D9F5FF" points="442,678 530,637 494,807 448,938 433,905 479,767" stroke="#D9F5FF" stroke-width="1" /><polygon fill="#D9F5FF" points="526,523 556,540 611,430 848,357 890,298 890,2 815,84 848,125 846,152 849,190 836,246 817,298 797,326 756,360 728,370 713,363 721,352 741,330 693,346 686,345 684,340 719,321 690,326 696,305 678,321 659,312" stroke="#D9F5FF" stroke-width="1" /><polygon fill="#D9F5FF" points="657,316 763,160 827,91 851,122 832,131 803,153 776,184 727,249 715,258 705,268 675,322" stroke="#D9F5FF" stroke-width="1" /><polyline fill="none" points="832,-10 900,-10 900,314" stroke="#FFFFFF" stroke-width="20" /><polyline fill="none" points="151,1010 430,1010" stroke="#FFFFFF" stroke-width="20" /><polyline fill="none" points="520,512 569,539" stroke="#FFFFFF" stroke-width="4" /><text fill="#040464" font-family="Arial" font-size="30" stroke="none" x="60" y="50.0">ВОЛГОГРАД</text><text fill="#040464" font-family="Arial" font-size="20" stroke="none" x="60" y="70.0">схема скоростного трамвая</text></g></svg>