<?xml version="1.0" encoding="utf-8" ?>
<svg baseProfile="full" height="100%" version="1.1" width="100%" xmlns="http://www.w3.org/2000/svg" xmlns:ev="http://www.w3.org/2001/xml-events" xmlns:xlink="http://www.w3.org/1999/xlink">
  <defs>
    <marker id="id506" markerHeight="3" markerUnits="strokeWidth" markerWidth="4" orient="auto" refX="0" refY="5" viewBox="0,0,10,10">
      <path d="M 0 0 L 10 5 L 0 10 z"/>
    </marker>
  </defs>
  <g>
    <rect fill="none" height="950" stroke="none" stroke-width="0" width="890" x="0" y="0"/>
    <g transform="rotate(-50.0,445,475)">
      <polygon fill="#f52d35" points="675,497 225,497 225,467 675,467" stroke="#000000" stroke-width="1"/>
      <polygon fill="#f52d35" points="225,607 225,577 675,577 675,607" stroke="#000000" stroke-width="1"/>
      <text fill="#f52d35" font-family="Arial" font-size="20" stroke="none" stroke-width="0" x="225" y="462.0">&lt;&lt; Olmazor</text>
      <text fill="#f52d35" font-family="Arial" font-size="20" stroke="none" stroke-width="0" x="522" y="627.0">Mirzo Ulug'bek &gt;&gt;</text>
      <text fill="#f52d35" font-family="Arial" font-size="25" stroke="none" stroke-width="0" x="392" y="544.0">Chilonzor</text>
      <polyline fill="none" points="757,285 807,285 807,481 793,481 793,474 727,474 727,507 675,507 675,497" stroke="#000000" stroke-width="1"/>
      <polyline fill="none" points="880,285 830,285 830,658 880,658" stroke="#000000" stroke-width="1"/>
      <polyline fill="none" points="757,658 807,658 807,593 793,593 793,600 727,600 727,566 675,566 675,577" stroke="#000000" stroke-width="1"/>
      <polyline fill="none" points="757,268 880,268" stroke="#000000" stroke-width="1"/>
      <polyline fill="none" points="757,675 880,675" stroke="#000000" stroke-width="1"/>
      <line stroke="#000000" stroke-width="1" x1="679" x2="679" y1="566" y2="507"/>
      <line stroke="#000000" stroke-width="1" x1="683" x2="683" y1="566" y2="507"/>
      <line stroke="#000000" stroke-width="1" x1="687" x2="687" y1="566" y2="507"/>
      <line stroke="#000000" stroke-width="1" x1="691" x2="691" y1="566" y2="507"/>
      <line stroke="#000000" stroke-width="1" x1="695" x2="695" y1="566" y2="507"/>
      <line stroke="#000000" stroke-width="1" x1="699" x2="699" y1="566" y2="507"/>
      <line stroke="#000000" stroke-width="1" x1="703" x2="703" y1="566" y2="507"/>
      <line stroke="#000000" stroke-width="1" x1="707" x2="707" y1="566" y2="507"/>
      <line stroke="#000000" stroke-width="1" x1="711" x2="711" y1="566" y2="507"/>
      <line stroke="#000000" stroke-width="1" x1="715" x2="715" y1="566" y2="507"/>
      <line stroke="#000000" stroke-width="1" x1="719" x2="719" y1="566" y2="507"/>
      <line stroke="#000000" stroke-width="1" x1="723" x2="723" y1="566" y2="507"/>
      <line stroke="#000000" stroke-width="1" x1="878" x2="878" y1="285" y2="268"/>
      <line stroke="#000000" stroke-width="1" x1="874" x2="874" y1="285" y2="268"/>
      <line stroke="#000000" stroke-width="1" x1="870" x2="870" y1="285" y2="268"/>
      <line stroke="#000000" stroke-width="1" x1="866" x2="866" y1="285" y2="268"/>
      <line stroke="#000000" stroke-width="1" x1="862" x2="862" y1="285" y2="268"/>
      <line stroke="#000000" stroke-width="1" x1="858" x2="858" y1="285" y2="268"/>
      <line stroke="#000000" stroke-width="1" x1="854" x2="854" y1="285" y2="268"/>
      <line stroke="#000000" stroke-width="1" x1="850" x2="850" y1="285" y2="268"/>
      <line stroke="#000000" stroke-width="1" x1="846" x2="846" y1="285" y2="268"/>
      <line stroke="#000000" stroke-width="1" x1="842" x2="842" y1="285" y2="268"/>
      <line stroke="#000000" stroke-width="1" x1="838" x2="838" y1="285" y2="268"/>
      <line stroke="#000000" stroke-width="1" x1="834" x2="834" y1="285" y2="268"/>
      <line stroke="#000000" stroke-width="1" x1="878" x2="878" y1="658" y2="675"/>
      <line stroke="#000000" stroke-width="1" x1="874" x2="874" y1="658" y2="675"/>
      <line stroke="#000000" stroke-width="1" x1="870" x2="870" y1="658" y2="675"/>
      <line stroke="#000000" stroke-width="1" x1="866" x2="866" y1="658" y2="675"/>
      <line stroke="#000000" stroke-width="1" x1="862" x2="862" y1="658" y2="675"/>
      <line stroke="#000000" stroke-width="1" x1="858" x2="858" y1="658" y2="675"/>
      <line stroke="#000000" stroke-width="1" x1="854" x2="854" y1="658" y2="675"/>
      <line stroke="#000000" stroke-width="1" x1="850" x2="850" y1="658" y2="675"/>
      <line stroke="#000000" stroke-width="1" x1="846" x2="846" y1="658" y2="675"/>
      <line stroke="#000000" stroke-width="1" x1="842" x2="842" y1="658" y2="675"/>
      <line stroke="#000000" stroke-width="1" x1="838" x2="838" y1="658" y2="675"/>
      <line stroke="#000000" stroke-width="1" x1="834" x2="834" y1="658" y2="675"/>
      <line stroke="#000000" stroke-width="1" x1="759" x2="759" y1="658" y2="675"/>
      <line stroke="#000000" stroke-width="1" x1="763" x2="763" y1="658" y2="675"/>
      <line stroke="#000000" stroke-width="1" x1="767" x2="767" y1="658" y2="675"/>
      <line stroke="#000000" stroke-width="1" x1="771" x2="771" y1="658" y2="675"/>
      <line stroke="#000000" stroke-width="1" x1="775" x2="775" y1="658" y2="675"/>
      <line stroke="#000000" stroke-width="1" x1="779" x2="779" y1="658" y2="675"/>
      <line stroke="#000000" stroke-width="1" x1="783" x2="783" y1="658" y2="675"/>
      <line stroke="#000000" stroke-width="1" x1="787" x2="787" y1="658" y2="675"/>
      <line stroke="#000000" stroke-width="1" x1="791" x2="791" y1="658" y2="675"/>
      <line stroke="#000000" stroke-width="1" x1="795" x2="795" y1="658" y2="675"/>
      <line stroke="#000000" stroke-width="1" x1="799" x2="799" y1="658" y2="675"/>
      <line stroke="#000000" stroke-width="1" x1="803" x2="803" y1="658" y2="675"/>
      <line stroke="#000000" stroke-width="1" x1="759" x2="759" y1="285" y2="268"/>
      <line stroke="#000000" stroke-width="1" x1="763" x2="763" y1="285" y2="268"/>
      <line stroke="#000000" stroke-width="1" x1="767" x2="767" y1="285" y2="268"/>
      <line stroke="#000000" stroke-width="1" x1="771" x2="771" y1="285" y2="268"/>
      <line stroke="#000000" stroke-width="1" x1="775" x2="775" y1="285" y2="268"/>
      <line stroke="#000000" stroke-width="1" x1="779" x2="779" y1="285" y2="268"/>
      <line stroke="#000000" stroke-width="1" x1="783" x2="783" y1="285" y2="268"/>
      <line stroke="#000000" stroke-width="1" x1="787" x2="787" y1="285" y2="268"/>
      <line stroke="#000000" stroke-width="1" x1="791" x2="791" y1="285" y2="268"/>
      <line stroke="#000000" stroke-width="1" x1="795" x2="795" y1="285" y2="268"/>
      <line stroke="#000000" stroke-width="1" x1="799" x2="799" y1="285" y2="268"/>
      <line stroke="#000000" stroke-width="1" x1="803" x2="803" y1="285" y2="268"/>
      <polygon fill="#d0d0d0" points="807,516 793,516 793,559 807,559" stroke="#000000" stroke-width="1"/>
      <polyline fill="none" points="143,285 93,285 93,481 107,481 107,474 173,474 173,507 225,507 225,497" stroke="#000000" stroke-width="1"/>
      <polyline fill="none" points="20,285 70,285 70,658 20,658" stroke="#000000" stroke-width="1"/>
      <polyline fill="none" points="143,658 93,658 93,593 107,593 107,600 173,600 173,566 225,566 225,577" stroke="#000000" stroke-width="1"/>
      <polyline fill="none" points="143,268 20,268" stroke="#000000" stroke-width="1"/>
      <polyline fill="none" points="143,675 20,675" stroke="#000000" stroke-width="1"/>
      <line stroke="#000000" stroke-width="1" x1="221" x2="221" y1="566" y2="507"/>
      <line stroke="#000000" stroke-width="1" x1="217" x2="217" y1="566" y2="507"/>
      <line stroke="#000000" stroke-width="1" x1="213" x2="213" y1="566" y2="507"/>
      <line stroke="#000000" stroke-width="1" x1="209" x2="209" y1="566" y2="507"/>
      <line stroke="#000000" stroke-width="1" x1="205" x2="205" y1="566" y2="507"/>
      <line stroke="#000000" stroke-width="1" x1="201" x2="201" y1="566" y2="507"/>
      <line stroke="#000000" stroke-width="1" x1="197" x2="197" y1="566" y2="507"/>
      <line stroke="#000000" stroke-width="1" x1="193" x2="193" y1="566" y2="507"/>
      <line stroke="#000000" stroke-width="1" x1="189" x2="189" y1="566" y2="507"/>
      <line stroke="#000000" stroke-width="1" x1="185" x2="185" y1="566" y2="507"/>
      <line stroke="#000000" stroke-width="1" x1="181" x2="181" y1="566" y2="507"/>
      <line stroke="#000000" stroke-width="1" x1="177" x2="177" y1="566" y2="507"/>
      <line stroke="#000000" stroke-width="1" x1="22" x2="22" y1="285" y2="268"/>
      <line stroke="#000000" stroke-width="1" x1="26" x2="26" y1="285" y2="268"/>
      <line stroke="#000000" stroke-width="1" x1="30" x2="30" y1="285" y2="268"/>
      <line stroke="#000000" stroke-width="1" x1="34" x2="34" y1="285" y2="268"/>
      <line stroke="#000000" stroke-width="1" x1="38" x2="38" y1="285" y2="268"/>
      <line stroke="#000000" stroke-width="1" x1="42" x2="42" y1="285" y2="268"/>
      <line stroke="#000000" stroke-width="1" x1="46" x2="46" y1="285" y2="268"/>
      <line stroke="#000000" stroke-width="1" x1="50" x2="50" y1="285" y2="268"/>
      <line stroke="#000000" stroke-width="1" x1="54" x2="54" y1="285" y2="268"/>
      <line stroke="#000000" stroke-width="1" x1="58" x2="58" y1="285" y2="268"/>
      <line stroke="#000000" stroke-width="1" x1="62" x2="62" y1="285" y2="268"/>
      <line stroke="#000000" stroke-width="1" x1="66" x2="66" y1="285" y2="268"/>
      <line stroke="#000000" stroke-width="1" x1="22" x2="22" y1="658" y2="675"/>
      <line stroke="#000000" stroke-width="1" x1="26" x2="26" y1="658" y2="675"/>
      <line stroke="#000000" stroke-width="1" x1="30" x2="30" y1="658" y2="675"/>
      <line stroke="#000000" stroke-width="1" x1="34" x2="34" y1="658" y2="675"/>
      <line stroke="#000000" stroke-width="1" x1="38" x2="38" y1="658" y2="675"/>
      <line stroke="#000000" stroke-width="1" x1="42" x2="42" y1="658" y2="675"/>
      <line stroke="#000000" stroke-width="1" x1="46" x2="46" y1="658" y2="675"/>
      <line stroke="#000000" stroke-width="1" x1="50" x2="50" y1="658" y2="675"/>
      <line stroke="#000000" stroke-width="1" x1="54" x2="54" y1="658" y2="675"/>
      <line stroke="#000000" stroke-width="1" x1="58" x2="58" y1="658" y2="675"/>
      <line stroke="#000000" stroke-width="1" x1="62" x2="62" y1="658" y2="675"/>
      <line stroke="#000000" stroke-width="1" x1="66" x2="66" y1="658" y2="675"/>
      <line stroke="#000000" stroke-width="1" x1="141" x2="141" y1="658" y2="675"/>
      <line stroke="#000000" stroke-width="1" x1="137" x2="137" y1="658" y2="675"/>
      <line stroke="#000000" stroke-width="1" x1="133" x2="133" y1="658" y2="675"/>
      <line stroke="#000000" stroke-width="1" x1="129" x2="129" y1="658" y2="675"/>
      <line stroke="#000000" stroke-width="1" x1="125" x2="125" y1="658" y2="675"/>
      <line stroke="#000000" stroke-width="1" x1="121" x2="121" y1="658" y2="675"/>
      <line stroke="#000000" stroke-width="1" x1="117" x2="117" y1="658" y2="675"/>
      <line stroke="#000000" stroke-width="1" x1="113" x2="113" y1="658" y2="675"/>
      <line stroke="#000000" stroke-width="1" x1="109" x2="109" y1="658" y2="675"/>
      <line stroke="#000000" stroke-width="1" x1="105" x2="105" y1="658" y2="675"/>
      <line stroke="#000000" stroke-width="1" x1="101" x2="101" y1="658" y2="675"/>
      <line stroke="#000000" stroke-width="1" x1="97" x2="97" y1="658" y2="675"/>
      <line stroke="#000000" stroke-width="1" x1="141" x2="141" y1="285" y2="268"/>
      <line stroke="#000000" stroke-width="1" x1="137" x2="137" y1="285" y2="268"/>
      <line stroke="#000000" stroke-width="1" x1="133" x2="133" y1="285" y2="268"/>
      <line stroke="#000000" stroke-width="1" x1="129" x2="129" y1="285" y2="268"/>
      <line stroke="#000000" stroke-width="1" x1="125" x2="125" y1="285" y2="268"/>
      <line stroke="#000000" stroke-width="1" x1="121" x2="121" y1="285" y2="268"/>
      <line stroke="#000000" stroke-width="1" x1="117" x2="117" y1="285" y2="268"/>
      <line stroke="#000000" stroke-width="1" x1="113" x2="113" y1="285" y2="268"/>
      <line stroke="#000000" stroke-width="1" x1="109" x2="109" y1="285" y2="268"/>
      <line stroke="#000000" stroke-width="1" x1="105" x2="105" y1="285" y2="268"/>
      <line stroke="#000000" stroke-width="1" x1="101" x2="101" y1="285" y2="268"/>
      <line stroke="#000000" stroke-width="1" x1="97" x2="97" y1="285" y2="268"/>
      <polygon fill="#d0d0d0" points="93,516 107,516 107,559 93,559" stroke="#000000" stroke-width="1"/>
      <text fill="#00afaf" font-family="Arial" font-size="15" stroke="none" stroke-width="0" x="853" y="541.0">проспект Бунёдкор</text>
      <text fill="#00afaf" font-family="Arial" font-size="15" stroke="none" stroke-width="0" transform="rotate(90.0,473,115)" x="473" y="130.0">Малая кольцевая автодорога</text>
    </g>
  </g>
</svg>
