<?xml version="1.0" encoding="utf-8" ?>
<svg baseProfile="full" height="840.0" version="1.1" width="1050.0" xmlns="http://www.w3.org/2000/svg" xmlns:ev="http://www.w3.org/2001/xml-events" xmlns:xlink="http://www.w3.org/1999/xlink">
  <defs>
    <marker id="id511" markerHeight="3" markerUnits="strokeWidth" markerWidth="4" orient="auto" refX="0" refY="5" viewBox="0,0,10,10">
      <path d="M 0 0 L 10 5 L 0 10 z"/>
    </marker>
  </defs>
  <g>
    <rect fill="none" height="840.0" stroke="none" stroke-width="0" width="1050.0" x="0.0" y="0.0"/>
    <g transform="rotate(-30.0,525.0,420.0)">
      <polygon fill="#f52d35" points="824.0,356.0 374.0,356.0 374.0,326.0 824.0,326.0" stroke="#000000" stroke-width="1"/>
      <polygon fill="#f52d35" points="374.0,466.0 374.0,436.0 824.0,436.0 824.0,466.0" stroke="#000000" stroke-width="1"/>
      <text fill="#f52d35" font-family="Arial" font-size="20.0" stroke="none" stroke-width="0" x="374.0" y="322.0">&lt;&lt; Amir Temur Xiyoboni</text>
      <text fill="#f52d35" font-family="Arial" font-size="20.0" stroke="none" stroke-width="0" x="732.0" y="486.0">Pushkin &gt;&gt;</text>
      <text fill="#f52d35" font-family="Arial" font-size="25.0" stroke="none" stroke-width="0" x="498.0" y="404.0">Hamid Olimjon</text>
      <polyline fill="none" points="1054.0,275.0 1004.0,275.0 1004.0,503.0 1054.0,503.0" stroke="#000000" stroke-width="1"/>
      <polyline fill="none" points="1054.0,258.0 981.0,258.0 981.0,339.0 967.0,339.0 967.0,333.0 901.0,333.0 901.0,378.0" stroke="#000000" stroke-width="1"/>
      <polyline fill="none" points="837.0,378.0 837.0,366.0 824.0,366.0 824.0,356.0" stroke="#000000" stroke-width="1"/>
      <polyline fill="none" points="1054.0,520.0 981.0,520.0 981.0,453.0 967.0,453.0 967.0,459.0 901.0,459.0 901.0,413.0" stroke="#000000" stroke-width="1"/>
      <polyline fill="none" points="837.0,413.0 837.0,425.0 824.0,425.0 824.0,436.0" stroke="#000000" stroke-width="1"/>
      <line stroke="#000000" stroke-width="1" x1="1052.0" x2="1052.0" y1="275.0" y2="258.0"/>
      <line stroke="#000000" stroke-width="1" x1="1048.0" x2="1048.0" y1="275.0" y2="258.0"/>
      <line stroke="#000000" stroke-width="1" x1="1044.0" x2="1044.0" y1="275.0" y2="258.0"/>
      <line stroke="#000000" stroke-width="1" x1="1040.0" x2="1040.0" y1="275.0" y2="258.0"/>
      <line stroke="#000000" stroke-width="1" x1="1036.0" x2="1036.0" y1="275.0" y2="258.0"/>
      <line stroke="#000000" stroke-width="1" x1="1032.0" x2="1032.0" y1="275.0" y2="258.0"/>
      <line stroke="#000000" stroke-width="1" x1="1028.0" x2="1028.0" y1="275.0" y2="258.0"/>
      <line stroke="#000000" stroke-width="1" x1="1024.0" x2="1024.0" y1="275.0" y2="258.0"/>
      <line stroke="#000000" stroke-width="1" x1="1020.0" x2="1020.0" y1="275.0" y2="258.0"/>
      <line stroke="#000000" stroke-width="1" x1="1016.0" x2="1016.0" y1="275.0" y2="258.0"/>
      <line stroke="#000000" stroke-width="1" x1="1012.0" x2="1012.0" y1="275.0" y2="258.0"/>
      <line stroke="#000000" stroke-width="1" x1="1008.0" x2="1008.0" y1="275.0" y2="258.0"/>
      <line stroke="#000000" stroke-width="1" x1="1052.0" x2="1052.0" y1="503.0" y2="520.0"/>
      <line stroke="#000000" stroke-width="1" x1="1048.0" x2="1048.0" y1="503.0" y2="520.0"/>
      <line stroke="#000000" stroke-width="1" x1="1044.0" x2="1044.0" y1="503.0" y2="520.0"/>
      <line stroke="#000000" stroke-width="1" x1="1040.0" x2="1040.0" y1="503.0" y2="520.0"/>
      <line stroke="#000000" stroke-width="1" x1="1036.0" x2="1036.0" y1="503.0" y2="520.0"/>
      <line stroke="#000000" stroke-width="1" x1="1032.0" x2="1032.0" y1="503.0" y2="520.0"/>
      <line stroke="#000000" stroke-width="1" x1="1028.0" x2="1028.0" y1="503.0" y2="520.0"/>
      <line stroke="#000000" stroke-width="1" x1="1024.0" x2="1024.0" y1="503.0" y2="520.0"/>
      <line stroke="#000000" stroke-width="1" x1="1020.0" x2="1020.0" y1="503.0" y2="520.0"/>
      <line stroke="#000000" stroke-width="1" x1="1016.0" x2="1016.0" y1="503.0" y2="520.0"/>
      <line stroke="#000000" stroke-width="1" x1="1012.0" x2="1012.0" y1="503.0" y2="520.0"/>
      <line stroke="#000000" stroke-width="1" x1="1008.0" x2="1008.0" y1="503.0" y2="520.0"/>
      <polygon fill="#d0d0d0" points="981.0,375.0 967.0,375.0 967.0,418.0 981.0,418.0" stroke="#000000" stroke-width="1"/>
      <line stroke="#7f7f7f" stroke-width="1" x1="903.0" x2="903.0" y1="410.0" y2="381.0"/>
      <line stroke="#7f7f7f" stroke-width="1" x1="899.0" x2="899.0" y1="410.0" y2="381.0"/>
      <line stroke="#7f7f7f" stroke-width="1" x1="895.0" x2="895.0" y1="410.0" y2="381.0"/>
      <line stroke="#7f7f7f" stroke-width="1" x1="891.0" x2="891.0" y1="410.0" y2="381.0"/>
      <line stroke="#7f7f7f" stroke-width="1" x1="887.0" x2="887.0" y1="410.0" y2="381.0"/>
      <line stroke="#7f7f7f" stroke-width="1" x1="883.0" x2="883.0" y1="410.0" y2="381.0"/>
      <line stroke="#7f7f7f" stroke-width="1" x1="879.0" x2="879.0" y1="410.0" y2="381.0"/>
      <line stroke="#7f7f7f" stroke-width="1" x1="875.0" x2="875.0" y1="410.0" y2="381.0"/>
      <line stroke="#7f7f7f" stroke-width="1" x1="871.0" x2="871.0" y1="410.0" y2="381.0"/>
      <line stroke="#7f7f7f" stroke-width="1" x1="867.0" x2="867.0" y1="410.0" y2="381.0"/>
      <line stroke="#7f7f7f" stroke-width="1" x1="863.0" x2="863.0" y1="410.0" y2="381.0"/>
      <line stroke="#7f7f7f" stroke-width="1" x1="859.0" x2="859.0" y1="410.0" y2="381.0"/>
      <line stroke="#7f7f7f" stroke-width="1" x1="855.0" x2="855.0" y1="410.0" y2="381.0"/>
      <line stroke="#7f7f7f" stroke-width="1" x1="851.0" x2="851.0" y1="410.0" y2="381.0"/>
      <line stroke="#7f7f7f" stroke-width="1" x1="847.0" x2="847.0" y1="410.0" y2="381.0"/>
      <line stroke="#7f7f7f" stroke-width="1" x1="843.0" x2="843.0" y1="410.0" y2="381.0"/>
      <line stroke="#7f7f7f" stroke-width="1" x1="839.0" x2="839.0" y1="410.0" y2="381.0"/>
      <line stroke="#7f7f7f" stroke-width="1" x1="835.0" x2="835.0" y1="410.0" y2="381.0"/>
      <polygon fill="#9b5509" points="910.0,381.0 830.0,381.0 830.0,378.0 910.0,378.0" stroke="#000000" stroke-width="1"/>
      <polygon fill="#9b5509" points="910.0,388.0 910.0,392.0 830.0,392.0 830.0,388.0" stroke="#000000" stroke-width="1"/>
      <polygon fill="#9b5509" points="910.0,399.0 910.0,403.0 830.0,403.0 830.0,399.0" stroke="#000000" stroke-width="1"/>
      <polygon fill="#9b5509" points="910.0,410.0 830.0,410.0 830.0,413.0 910.0,413.0" stroke="#000000" stroke-width="1"/>
      <polyline fill="none" points="361.0,376.0 361.0,366.0 374.0,366.0 374.0,356.0" stroke="#000000" stroke-width="1"/>
      <polyline fill="none" points="361.0,411.0 361.0,426.0 374.0,426.0 374.0,436.0" stroke="#000000" stroke-width="1"/>
      <polyline fill="none" points="128.0,273.0 178.0,273.0 178.0,518.0 259.0,518.0" stroke="#000000" stroke-width="1"/>
      <polyline fill="none" points="251.0,273.0 201.0,273.0 201.0,337.0 215.0,337.0 215.0,331.0 281.0,331.0 281.0,376.0" stroke="#000000" stroke-width="1"/>
      <polyline fill="none" points="128.0,256.0 251.0,256.0" stroke="#000000" stroke-width="1"/>
      <polyline fill="none" points="259.0,501.0 201.0,501.0 201.0,451.0 215.0,451.0 215.0,457.0 281.0,457.0 281.0,411.0" stroke="#000000" stroke-width="1"/>
      <line stroke="#000000" stroke-width="1" x1="130.0" x2="130.0" y1="273.0" y2="256.0"/>
      <line stroke="#000000" stroke-width="1" x1="134.0" x2="134.0" y1="273.0" y2="256.0"/>
      <line stroke="#000000" stroke-width="1" x1="138.0" x2="138.0" y1="273.0" y2="256.0"/>
      <line stroke="#000000" stroke-width="1" x1="142.0" x2="142.0" y1="273.0" y2="256.0"/>
      <line stroke="#000000" stroke-width="1" x1="146.0" x2="146.0" y1="273.0" y2="256.0"/>
      <line stroke="#000000" stroke-width="1" x1="150.0" x2="150.0" y1="273.0" y2="256.0"/>
      <line stroke="#000000" stroke-width="1" x1="154.0" x2="154.0" y1="273.0" y2="256.0"/>
      <line stroke="#000000" stroke-width="1" x1="158.0" x2="158.0" y1="273.0" y2="256.0"/>
      <line stroke="#000000" stroke-width="1" x1="162.0" x2="162.0" y1="273.0" y2="256.0"/>
      <line stroke="#000000" stroke-width="1" x1="166.0" x2="166.0" y1="273.0" y2="256.0"/>
      <line stroke="#000000" stroke-width="1" x1="170.0" x2="170.0" y1="273.0" y2="256.0"/>
      <line stroke="#000000" stroke-width="1" x1="174.0" x2="174.0" y1="273.0" y2="256.0"/>
      <line stroke="#000000" stroke-width="1" x1="257.0" x2="257.0" y1="501.0" y2="518.0"/>
      <line stroke="#000000" stroke-width="1" x1="253.0" x2="253.0" y1="501.0" y2="518.0"/>
      <line stroke="#000000" stroke-width="1" x1="249.0" x2="249.0" y1="501.0" y2="518.0"/>
      <line stroke="#000000" stroke-width="1" x1="245.0" x2="245.0" y1="501.0" y2="518.0"/>
      <line stroke="#000000" stroke-width="1" x1="241.0" x2="241.0" y1="501.0" y2="518.0"/>
      <line stroke="#000000" stroke-width="1" x1="237.0" x2="237.0" y1="501.0" y2="518.0"/>
      <line stroke="#000000" stroke-width="1" x1="233.0" x2="233.0" y1="501.0" y2="518.0"/>
      <line stroke="#000000" stroke-width="1" x1="229.0" x2="229.0" y1="501.0" y2="518.0"/>
      <line stroke="#000000" stroke-width="1" x1="225.0" x2="225.0" y1="501.0" y2="518.0"/>
      <line stroke="#000000" stroke-width="1" x1="221.0" x2="221.0" y1="501.0" y2="518.0"/>
      <line stroke="#000000" stroke-width="1" x1="217.0" x2="217.0" y1="501.0" y2="518.0"/>
      <line stroke="#000000" stroke-width="1" x1="213.0" x2="213.0" y1="501.0" y2="518.0"/>
      <line stroke="#000000" stroke-width="1" x1="249.0" x2="249.0" y1="273.0" y2="256.0"/>
      <line stroke="#000000" stroke-width="1" x1="245.0" x2="245.0" y1="273.0" y2="256.0"/>
      <line stroke="#000000" stroke-width="1" x1="241.0" x2="241.0" y1="273.0" y2="256.0"/>
      <line stroke="#000000" stroke-width="1" x1="237.0" x2="237.0" y1="273.0" y2="256.0"/>
      <line stroke="#000000" stroke-width="1" x1="233.0" x2="233.0" y1="273.0" y2="256.0"/>
      <line stroke="#000000" stroke-width="1" x1="229.0" x2="229.0" y1="273.0" y2="256.0"/>
      <line stroke="#000000" stroke-width="1" x1="225.0" x2="225.0" y1="273.0" y2="256.0"/>
      <line stroke="#000000" stroke-width="1" x1="221.0" x2="221.0" y1="273.0" y2="256.0"/>
      <line stroke="#000000" stroke-width="1" x1="217.0" x2="217.0" y1="273.0" y2="256.0"/>
      <line stroke="#000000" stroke-width="1" x1="213.0" x2="213.0" y1="273.0" y2="256.0"/>
      <line stroke="#000000" stroke-width="1" x1="209.0" x2="209.0" y1="273.0" y2="256.0"/>
      <line stroke="#000000" stroke-width="1" x1="205.0" x2="205.0" y1="273.0" y2="256.0"/>
      <polygon fill="#d0d0d0" points="201.0,373.0 215.0,373.0 215.0,416.0 201.0,416.0" stroke="#000000" stroke-width="1"/>
      <line stroke="#7f7f7f" stroke-width="1" x1="363.0" x2="363.0" y1="408.0" y2="379.0"/>
      <line stroke="#7f7f7f" stroke-width="1" x1="359.0" x2="359.0" y1="408.0" y2="379.0"/>
      <line stroke="#7f7f7f" stroke-width="1" x1="355.0" x2="355.0" y1="408.0" y2="379.0"/>
      <line stroke="#7f7f7f" stroke-width="1" x1="351.0" x2="351.0" y1="408.0" y2="379.0"/>
      <line stroke="#7f7f7f" stroke-width="1" x1="347.0" x2="347.0" y1="408.0" y2="379.0"/>
      <line stroke="#7f7f7f" stroke-width="1" x1="343.0" x2="343.0" y1="408.0" y2="379.0"/>
      <line stroke="#7f7f7f" stroke-width="1" x1="339.0" x2="339.0" y1="408.0" y2="379.0"/>
      <line stroke="#7f7f7f" stroke-width="1" x1="335.0" x2="335.0" y1="408.0" y2="379.0"/>
      <line stroke="#7f7f7f" stroke-width="1" x1="331.0" x2="331.0" y1="408.0" y2="379.0"/>
      <line stroke="#7f7f7f" stroke-width="1" x1="327.0" x2="327.0" y1="408.0" y2="379.0"/>
      <line stroke="#7f7f7f" stroke-width="1" x1="323.0" x2="323.0" y1="408.0" y2="379.0"/>
      <line stroke="#7f7f7f" stroke-width="1" x1="319.0" x2="319.0" y1="408.0" y2="379.0"/>
      <line stroke="#7f7f7f" stroke-width="1" x1="315.0" x2="315.0" y1="408.0" y2="379.0"/>
      <line stroke="#7f7f7f" stroke-width="1" x1="311.0" x2="311.0" y1="408.0" y2="379.0"/>
      <line stroke="#7f7f7f" stroke-width="1" x1="307.0" x2="307.0" y1="408.0" y2="379.0"/>
      <line stroke="#7f7f7f" stroke-width="1" x1="303.0" x2="303.0" y1="408.0" y2="379.0"/>
      <line stroke="#7f7f7f" stroke-width="1" x1="299.0" x2="299.0" y1="408.0" y2="379.0"/>
      <line stroke="#7f7f7f" stroke-width="1" x1="295.0" x2="295.0" y1="408.0" y2="379.0"/>
      <line stroke="#7f7f7f" stroke-width="1" x1="291.0" x2="291.0" y1="408.0" y2="379.0"/>
      <line stroke="#7f7f7f" stroke-width="1" x1="287.0" x2="287.0" y1="408.0" y2="379.0"/>
      <line stroke="#7f7f7f" stroke-width="1" x1="283.0" x2="283.0" y1="408.0" y2="379.0"/>
      <line stroke="#7f7f7f" stroke-width="1" x1="279.0" x2="279.0" y1="408.0" y2="379.0"/>
      <polygon fill="#9b5509" points="370.0,379.0 272.0,379.0 272.0,376.0 370.0,376.0" stroke="#000000" stroke-width="1"/>
      <polygon fill="#9b5509" points="370.0,386.0 370.0,390.0 272.0,390.0 272.0,386.0" stroke="#000000" stroke-width="1"/>
      <polygon fill="#9b5509" points="370.0,397.0 370.0,401.0 272.0,401.0 272.0,397.0" stroke="#000000" stroke-width="1"/>
      <polygon fill="#9b5509" points="370.0,408.0 272.0,408.0 272.0,411.0 370.0,411.0" stroke="#000000" stroke-width="1"/>
      <text fill="#00afaf" font-family="Arial" font-size="15.0" stroke="none" stroke-width="0" x="22.0" y="399.0">проспект Мустакиллик</text>
      <text fill="#00afaf" font-family="Arial" font-size="15.0" stroke="none" stroke-width="0" transform="rotate(90.0,127.0,476.0)" x="127.0" y="491.0">улица Хамидуллы Орипова</text>
      <text fill="#00afaf" font-family="Arial" font-size="15.0" stroke="none" stroke-width="0" transform="rotate(90.0,-37.0,410.0)" x="-37.0" y="425.0">улица Абдуллы Кадыри</text>
    </g>
  </g>
</svg>
