<?xml version="1.0" encoding="utf-8" ?>
<svg baseProfile="full" height="100%" version="1.1" width="100%" xmlns="http://www.w3.org/2000/svg" xmlns:ev="http://www.w3.org/2001/xml-events" xmlns:xlink="http://www.w3.org/1999/xlink">
  <defs>
    <marker id="id513" markerHeight="3" markerUnits="strokeWidth" markerWidth="4" orient="auto" refX="0" refY="5" viewBox="0,0,10,10">
      <path d="M 0 0 L 10 5 L 0 10 z"/>
    </marker>
  </defs>
  <g>
    <rect fill="none" height="520" stroke="none" stroke-width="0" width="950" x="0" y="0"/>
    <g transform="rotate(15.0,475,260)">
      <polygon fill="#2d3c9b" points="722,277 272,277 272,247 722,247" stroke="#000000" stroke-width="1"/>
      <polygon fill="#2d3c9b" points="272,387 272,357 722,357 722,387" stroke="#000000" stroke-width="1"/>
      <text fill="#2d3c9b" font-family="Arial" font-size="20" stroke="none" stroke-width="0" x="277" y="243.0">&lt;&lt; Toshkent</text>
      <text fill="#2d3c9b" font-family="Arial" font-size="20" stroke="none" stroke-width="0" x="629" y="407.0">Do'stlik &gt;&gt;</text>
      <text fill="#2d3c9b" font-family="Arial" font-size="25" stroke="none" stroke-width="0" x="412" y="328.0">Mashinasozlar</text>
      <polyline fill="none" points="927,193 854,193 854,261 840,261 840,254 774,254 774,287 722,287 722,277" stroke="#000000" stroke-width="1"/>
      <polyline fill="none" points="927,210 877,210 877,380 854,380 854,373 840,373 840,380 774,380 774,346 722,346 722,357" stroke="#000000" stroke-width="1"/>
      <line stroke="#000000" stroke-width="1" x1="726" x2="726" y1="346" y2="287"/>
      <line stroke="#000000" stroke-width="1" x1="730" x2="730" y1="346" y2="287"/>
      <line stroke="#000000" stroke-width="1" x1="734" x2="734" y1="346" y2="287"/>
      <line stroke="#000000" stroke-width="1" x1="738" x2="738" y1="346" y2="287"/>
      <line stroke="#000000" stroke-width="1" x1="742" x2="742" y1="346" y2="287"/>
      <line stroke="#000000" stroke-width="1" x1="746" x2="746" y1="346" y2="287"/>
      <line stroke="#000000" stroke-width="1" x1="750" x2="750" y1="346" y2="287"/>
      <line stroke="#000000" stroke-width="1" x1="754" x2="754" y1="346" y2="287"/>
      <line stroke="#000000" stroke-width="1" x1="758" x2="758" y1="346" y2="287"/>
      <line stroke="#000000" stroke-width="1" x1="762" x2="762" y1="346" y2="287"/>
      <line stroke="#000000" stroke-width="1" x1="766" x2="766" y1="346" y2="287"/>
      <line stroke="#000000" stroke-width="1" x1="770" x2="770" y1="346" y2="287"/>
      <line stroke="#000000" stroke-width="1" x1="925" x2="925" y1="210" y2="193"/>
      <line stroke="#000000" stroke-width="1" x1="921" x2="921" y1="210" y2="193"/>
      <line stroke="#000000" stroke-width="1" x1="917" x2="917" y1="210" y2="193"/>
      <line stroke="#000000" stroke-width="1" x1="913" x2="913" y1="210" y2="193"/>
      <line stroke="#000000" stroke-width="1" x1="909" x2="909" y1="210" y2="193"/>
      <line stroke="#000000" stroke-width="1" x1="905" x2="905" y1="210" y2="193"/>
      <line stroke="#000000" stroke-width="1" x1="901" x2="901" y1="210" y2="193"/>
      <line stroke="#000000" stroke-width="1" x1="897" x2="897" y1="210" y2="193"/>
      <line stroke="#000000" stroke-width="1" x1="893" x2="893" y1="210" y2="193"/>
      <line stroke="#000000" stroke-width="1" x1="889" x2="889" y1="210" y2="193"/>
      <line stroke="#000000" stroke-width="1" x1="885" x2="885" y1="210" y2="193"/>
      <line stroke="#000000" stroke-width="1" x1="881" x2="881" y1="210" y2="193"/>
      <polygon fill="#d0d0d0" points="854,296 840,296 840,339 854,339" stroke="#000000" stroke-width="1"/>
      <polyline fill="none" points="190,208 140,208 140,259 154,259 154,252 220,252 220,287 272,287 272,277" stroke="#000000" stroke-width="1"/>
      <polyline fill="none" points="190,191 120,191 120,371 153,371 153,378 220,378 220,347 272,347 272,357" stroke="#000000" stroke-width="1"/>
      <line stroke="#000000" stroke-width="1" x1="268" x2="268" y1="287" y2="347"/>
      <line stroke="#000000" stroke-width="1" x1="264" x2="264" y1="287" y2="347"/>
      <line stroke="#000000" stroke-width="1" x1="260" x2="260" y1="287" y2="347"/>
      <line stroke="#000000" stroke-width="1" x1="256" x2="256" y1="287" y2="347"/>
      <line stroke="#000000" stroke-width="1" x1="252" x2="252" y1="287" y2="347"/>
      <line stroke="#000000" stroke-width="1" x1="248" x2="248" y1="287" y2="347"/>
      <line stroke="#000000" stroke-width="1" x1="244" x2="244" y1="287" y2="347"/>
      <line stroke="#000000" stroke-width="1" x1="240" x2="240" y1="287" y2="347"/>
      <line stroke="#000000" stroke-width="1" x1="236" x2="236" y1="287" y2="347"/>
      <line stroke="#000000" stroke-width="1" x1="232" x2="232" y1="287" y2="347"/>
      <line stroke="#000000" stroke-width="1" x1="228" x2="228" y1="287" y2="347"/>
      <line stroke="#000000" stroke-width="1" x1="224" x2="224" y1="287" y2="347"/>
      <line stroke="#000000" stroke-width="1" x1="188" x2="188" y1="208" y2="191"/>
      <line stroke="#000000" stroke-width="1" x1="184" x2="184" y1="208" y2="191"/>
      <line stroke="#000000" stroke-width="1" x1="180" x2="180" y1="208" y2="191"/>
      <line stroke="#000000" stroke-width="1" x1="176" x2="176" y1="208" y2="191"/>
      <line stroke="#000000" stroke-width="1" x1="172" x2="172" y1="208" y2="191"/>
      <line stroke="#000000" stroke-width="1" x1="168" x2="168" y1="208" y2="191"/>
      <line stroke="#000000" stroke-width="1" x1="164" x2="164" y1="208" y2="191"/>
      <line stroke="#000000" stroke-width="1" x1="160" x2="160" y1="208" y2="191"/>
      <line stroke="#000000" stroke-width="1" x1="156" x2="156" y1="208" y2="191"/>
      <line stroke="#000000" stroke-width="1" x1="152" x2="152" y1="208" y2="191"/>
      <line stroke="#000000" stroke-width="1" x1="148" x2="148" y1="208" y2="191"/>
      <line stroke="#000000" stroke-width="1" x1="144" x2="144" y1="208" y2="191"/>
      <polygon fill="#d0d0d0" points="140,294 154,294 154,337 140,337" stroke="#000000" stroke-width="1"/>
      <text fill="#00afaf" font-family="Arial" font-size="15" stroke="none" stroke-width="0" transform="rotate(-90.0,237,193)" x="237" y="208.0">2-й проезд</text>
      <text fill="#00afaf" font-family="Arial" font-size="15" stroke="none" stroke-width="0" transform="rotate(-90.0,252,193)" x="252" y="208.0">Пахлавона Махмуда</text>
      <text fill="#00afaf" font-family="Arial" font-size="15" stroke="none" stroke-width="0" x="8" y="303.0">улица Элбек</text>
    </g>
    <g fill="none" fill-opacity="0.7" stroke="#00afaf" stroke-opacity="0.7" transform="rotate(15.0,475,260)">
      <polygon fill="#ffd0d0" points="725,190 930,190 930,382 725,382" stroke="#ffd0d0" stroke-width="1"/>
    </g>
    <g fill="#ffd0d0" fill-opacity="1.0" stroke="#ff4040" stroke-opacity="1.0" transform="rotate(15.0,475,260)">
      <text fill="#ff4040" font-family="Arial" font-size="15" stroke="none" stroke-width="0" x="817" y="285.0">закрыто</text>
      <polyline fill="none" points="725,190 930,190 930,382 725,382 725,190" stroke="#ff4040" stroke-dasharray="5 2" stroke-width="1"/>
    </g>
  </g>
</svg>
