<?xml version="1.0" encoding="utf-8" ?>
<svg baseProfile="full" height="100%" version="1.1" width="100%" xmlns="http://www.w3.org/2000/svg" xmlns:ev="http://www.w3.org/2001/xml-events" xmlns:xlink="http://www.w3.org/1999/xlink"><defs><marker id="id102" markerHeight="3" markerUnits="strokeWidth" markerWidth="4" orient="auto" refX="0" refY="5" viewBox="0,0,10,10"><path d="M 0 0 L 10 5 L 0 10 z" /></marker></defs><g transform="scale(0.5) rotate(-55.0,250,375)"><rect fill="none" height="750" stroke="none" width="500" x="0" y="0" /><polygon fill="#F52D35" points="342,378 -108,378 -108,348 342,348" stroke="#000000" stroke-width="1" /><polygon fill="#F52D35" points="-108,488 -108,458 342,458 342,488" stroke="#000000" stroke-width="1" /><text fill="#F52D35" font-family="Arial" font-size="20" stroke="none" x="-103" y="344.0">&lt;&lt; Hamza</text><text fill="#F52D35" font-family="Arial" font-size="20" stroke="none" x="224" y="508.0">Bunyodkor &gt;&gt;</text><text fill="#F52D35" font-family="Arial" font-size="25" stroke="none" x="100" y="426.0">Milliy Bog'</text><polyline fill="none" points="547,280 497,280 497,170 547,170" stroke="#000000" stroke-width="1" /><polyline fill="none" points="424,297 474,297 474,362 460,362 460,355 394,355 394,388 342,388 342,378" stroke="#000000" stroke-width="1" /><polyline fill="none" points="547,297 497,297 497,481 474,481 474,474 460,474 460,481 394,481 394,447 342,447 342,458" stroke="#000000" stroke-width="1" /><polyline fill="none" points="424,280 474,280 474,170 424,170" stroke="#000000" stroke-width="1" /><polyline fill="none" points="424,153 547,153" stroke="#000000" stroke-width="1" /><line stroke="#000000" stroke-width="1" x1="346" x2="346" y1="447" y2="388" /><line stroke="#000000" stroke-width="1" x1="350" x2="350" y1="447" y2="388" /><line stroke="#000000" stroke-width="1" x1="354" x2="354" y1="447" y2="388" /><line stroke="#000000" stroke-width="1" x1="358" x2="358" y1="447" y2="388" /><line stroke="#000000" stroke-width="1" x1="362" x2="362" y1="447" y2="388" /><line stroke="#000000" stroke-width="1" x1="366" x2="366" y1="447" y2="388" /><line stroke="#000000" stroke-width="1" x1="370" x2="370" y1="447" y2="388" /><line stroke="#000000" stroke-width="1" x1="374" x2="374" y1="447" y2="388" /><line stroke="#000000" stroke-width="1" x1="378" x2="378" y1="447" y2="388" /><line stroke="#000000" stroke-width="1" x1="382" x2="382" y1="447" y2="388" /><line stroke="#000000" stroke-width="1" x1="386" x2="386" y1="447" y2="388" /><line stroke="#000000" stroke-width="1" x1="390" x2="390" y1="447" y2="388" /><line stroke="#000000" stroke-width="1" x1="545" x2="545" y1="170" y2="153" /><line stroke="#000000" stroke-width="1" x1="541" x2="541" y1="170" y2="153" /><line stroke="#000000" stroke-width="1" x1="537" x2="537" y1="170" y2="153" /><line stroke="#000000" stroke-width="1" x1="533" x2="533" y1="170" y2="153" /><line stroke="#000000" stroke-width="1" x1="529" x2="529" y1="170" y2="153" /><line stroke="#000000" stroke-width="1" x1="525" x2="525" y1="170" y2="153" /><line stroke="#000000" stroke-width="1" x1="521" x2="521" y1="170" y2="153" /><line stroke="#000000" stroke-width="1" x1="517" x2="517" y1="170" y2="153" /><line stroke="#000000" stroke-width="1" x1="513" x2="513" y1="170" y2="153" /><line stroke="#000000" stroke-width="1" x1="509" x2="509" y1="170" y2="153" /><line stroke="#000000" stroke-width="1" x1="505" x2="505" y1="170" y2="153" /><line stroke="#000000" stroke-width="1" x1="501" x2="501" y1="170" y2="153" /><line stroke="#000000" stroke-width="1" x1="545" x2="545" y1="280" y2="297" /><line stroke="#000000" stroke-width="1" x1="541" x2="541" y1="280" y2="297" /><line stroke="#000000" stroke-width="1" x1="537" x2="537" y1="280" y2="297" /><line stroke="#000000" stroke-width="1" x1="533" x2="533" y1="280" y2="297" /><line stroke="#000000" stroke-width="1" x1="529" x2="529" y1="280" y2="297" /><line stroke="#000000" stroke-width="1" x1="525" x2="525" y1="280" y2="297" /><line stroke="#000000" stroke-width="1" x1="521" x2="521" y1="280" y2="297" /><line stroke="#000000" stroke-width="1" x1="517" x2="517" y1="280" y2="297" /><line stroke="#000000" stroke-width="1" x1="513" x2="513" y1="280" y2="297" /><line stroke="#000000" stroke-width="1" x1="509" x2="509" y1="280" y2="297" /><line stroke="#000000" stroke-width="1" x1="505" x2="505" y1="280" y2="297" /><line stroke="#000000" stroke-width="1" x1="501" x2="501" y1="280" y2="297" /><line stroke="#000000" stroke-width="1" x1="426" x2="426" y1="280" y2="297" /><line stroke="#000000" stroke-width="1" x1="430" x2="430" y1="280" y2="297" /><line stroke="#000000" stroke-width="1" x1="434" x2="434" y1="280" y2="297" /><line stroke="#000000" stroke-width="1" x1="438" x2="438" y1="280" y2="297" /><line stroke="#000000" stroke-width="1" x1="442" x2="442" y1="280" y2="297" /><line stroke="#000000" stroke-width="1" x1="446" x2="446" y1="280" y2="297" /><line stroke="#000000" stroke-width="1" x1="450" x2="450" y1="280" y2="297" /><line stroke="#000000" stroke-width="1" x1="454" x2="454" y1="280" y2="297" /><line stroke="#000000" stroke-width="1" x1="458" x2="458" y1="280" y2="297" /><line stroke="#000000" stroke-width="1" x1="462" x2="462" y1="280" y2="297" /><line stroke="#000000" stroke-width="1" x1="466" x2="466" y1="280" y2="297" /><line stroke="#000000" stroke-width="1" x1="470" x2="470" y1="280" y2="297" /><line stroke="#000000" stroke-width="1" x1="426" x2="426" y1="170" y2="153" /><line stroke="#000000" stroke-width="1" x1="430" x2="430" y1="170" y2="153" /><line stroke="#000000" stroke-width="1" x1="434" x2="434" y1="170" y2="153" /><line stroke="#000000" stroke-width="1" x1="438" x2="438" y1="170" y2="153" /><line stroke="#000000" stroke-width="1" x1="442" x2="442" y1="170" y2="153" /><line stroke="#000000" stroke-width="1" x1="446" x2="446" y1="170" y2="153" /><line stroke="#000000" stroke-width="1" x1="450" x2="450" y1="170" y2="153" /><line stroke="#000000" stroke-width="1" x1="454" x2="454" y1="170" y2="153" /><line stroke="#000000" stroke-width="1" x1="458" x2="458" y1="170" y2="153" /><line stroke="#000000" stroke-width="1" x1="462" x2="462" y1="170" y2="153" /><line stroke="#000000" stroke-width="1" x1="466" x2="466" y1="170" y2="153" /><line stroke="#000000" stroke-width="1" x1="470" x2="470" y1="170" y2="153" /><polygon fill="#D0D0D0" points="474,397 460,397 460,440 474,440" stroke="#000000" stroke-width="1" /><polyline fill="none" points="-108,378 -108,393 -3,393 -3,443 -108,443 -108,458" stroke="#000000" stroke-width="1" /><text fill="#00AFAF" font-family="Arial" font-size="15" stroke="none" x="182" y="216.0">проспект Бунёдкор</text></g></svg>