<?xml version="1.0" encoding="utf-8" ?>
<svg baseProfile="full" height="100%" version="1.1" width="100%" xmlns="http://www.w3.org/2000/svg" xmlns:ev="http://www.w3.org/2001/xml-events" xmlns:xlink="http://www.w3.org/1999/xlink">
  <defs>
    <marker id="id515" markerHeight="3" markerUnits="strokeWidth" markerWidth="4" orient="auto" refX="0" refY="5" viewBox="0,0,10,10">
      <path d="M 0 0 L 10 5 L 0 10 z"/>
    </marker>
  </defs>
  <g>
    <rect fill="none" height="930" stroke="none" stroke-width="0" width="380" x="0" y="0"/>
    <g transform="rotate(-80.0,190,465)">
      <polygon fill="#4b7d43" points="-70,414 -70,384 380,384 380,414" stroke="#000000" stroke-width="1"/>
      <polygon fill="#4b7d43" points="-70,524 -70,494 380,494 380,524" stroke="#000000" stroke-width="1"/>
      <text fill="#4b7d43" font-family="Arial" font-size="20" stroke="none" stroke-width="0" x="-70" y="378.0">&lt;&lt; Abdulla Qodiriy</text>
      <text fill="#4b7d43" font-family="Arial" font-size="20" stroke="none" stroke-width="0" x="268" y="544.0">Bodomzor &gt;&gt;</text>
      <text fill="#4b7d43" font-family="Arial" font-size="25" stroke="none" stroke-width="0" x="123" y="463.0">Minor</text>
      <polyline fill="none" points="380,414 380,424 431,424 431,390 497,390 497,397 511,397 511,390 534,390 534,556 551,556 551,506" stroke="#000000" stroke-width="1"/>
      <polyline fill="none" points="568,506 568,573 511,573 511,509 497,509 497,516 431,516 431,483 380,483 380,494" stroke="#000000" stroke-width="1"/>
      <line stroke="#000000" stroke-width="1" x1="568" x2="551" y1="508" y2="508"/>
      <line stroke="#000000" stroke-width="1" x1="568" x2="551" y1="512" y2="512"/>
      <line stroke="#000000" stroke-width="1" x1="568" x2="551" y1="516" y2="516"/>
      <line stroke="#000000" stroke-width="1" x1="568" x2="551" y1="520" y2="520"/>
      <line stroke="#000000" stroke-width="1" x1="568" x2="551" y1="524" y2="524"/>
      <line stroke="#000000" stroke-width="1" x1="568" x2="551" y1="528" y2="528"/>
      <line stroke="#000000" stroke-width="1" x1="568" x2="551" y1="532" y2="532"/>
      <line stroke="#000000" stroke-width="1" x1="568" x2="551" y1="536" y2="536"/>
      <line stroke="#000000" stroke-width="1" x1="568" x2="551" y1="540" y2="540"/>
      <line stroke="#000000" stroke-width="1" x1="568" x2="551" y1="544" y2="544"/>
      <line stroke="#000000" stroke-width="1" x1="568" x2="551" y1="548" y2="548"/>
      <line stroke="#000000" stroke-width="1" x1="568" x2="551" y1="552" y2="552"/>
      <line stroke="#000000" stroke-width="1" x1="383" x2="383" y1="424" y2="483"/>
      <line stroke="#000000" stroke-width="1" x1="387" x2="387" y1="424" y2="483"/>
      <line stroke="#000000" stroke-width="1" x1="391" x2="391" y1="424" y2="483"/>
      <line stroke="#000000" stroke-width="1" x1="395" x2="395" y1="424" y2="483"/>
      <line stroke="#000000" stroke-width="1" x1="399" x2="399" y1="424" y2="483"/>
      <line stroke="#000000" stroke-width="1" x1="403" x2="403" y1="424" y2="483"/>
      <line stroke="#000000" stroke-width="1" x1="407" x2="407" y1="424" y2="483"/>
      <line stroke="#000000" stroke-width="1" x1="411" x2="411" y1="424" y2="483"/>
      <line stroke="#000000" stroke-width="1" x1="415" x2="415" y1="424" y2="483"/>
      <line stroke="#000000" stroke-width="1" x1="419" x2="419" y1="424" y2="483"/>
      <line stroke="#000000" stroke-width="1" x1="423" x2="423" y1="424" y2="483"/>
      <line stroke="#000000" stroke-width="1" x1="427" x2="427" y1="424" y2="483"/>
      <polygon fill="#d0d0d0" points="497,475 497,432 511,432 511,475" stroke="#000000" stroke-width="1"/>
      <polygon fill="#fefbf1" points="-259,363 -84,363 -84,530 -259,530" stroke="#dfdfdf" stroke-width="1"/>
      <polygon fill="#d0d0d0" points="-192,363 -192,389 -221,389 -221,515 -122,515 -122,484 -84,484 -84,530 -259,530 -259,363" stroke="#000000" stroke-width="1"/>
      <polygon fill="#d0d0d0" points="-151,389 -151,363 -84,363 -84,424 -122,424 -122,389" stroke="#000000" stroke-width="1"/>
      <polyline fill="none" points="-70,494 -70,484 -84,484" stroke="#000000" stroke-width="1"/>
      <polyline fill="none" points="-84,424 -70,424 -70,414" stroke="#000000" stroke-width="1"/>
      <line stroke="#000000" stroke-width="1" x1="-74" x2="-74" y1="424" y2="484"/>
      <line stroke="#000000" stroke-width="1" x1="-78" x2="-78" y1="424" y2="484"/>
      <line stroke="#000000" stroke-width="1" x1="-82" x2="-82" y1="424" y2="484"/>
      <line stroke="#000000" stroke-width="1" x1="-86" x2="-86" y1="424" y2="484"/>
      <line stroke="#000000" stroke-width="1" x1="-90" x2="-90" y1="424" y2="484"/>
      <line stroke="#000000" stroke-width="1" x1="-94" x2="-94" y1="424" y2="484"/>
      <line stroke="#000000" stroke-width="1" x1="-98" x2="-98" y1="424" y2="484"/>
      <line stroke="#000000" stroke-width="1" x1="-102" x2="-102" y1="424" y2="484"/>
      <line stroke="#000000" stroke-width="1" x1="-106" x2="-106" y1="424" y2="484"/>
      <line stroke="#000000" stroke-width="1" x1="-110" x2="-110" y1="424" y2="484"/>
      <line stroke="#000000" stroke-width="1" x1="-114" x2="-114" y1="424" y2="484"/>
      <line stroke="#000000" stroke-width="1" x1="-118" x2="-118" y1="424" y2="484"/>
      <line stroke="#000000" stroke-width="1" x1="-151" x2="-192" y1="374" y2="374"/>
      <line stroke="#000000" stroke-width="1" x1="-151" x2="-192" y1="378" y2="378"/>
      <line stroke="#000000" stroke-width="1" x1="-151" x2="-192" y1="382" y2="382"/>
      <line stroke="#000000" stroke-width="1" x1="-151" x2="-192" y1="386" y2="386"/>
      <polygon fill="#d0d0d0" points="-167,371 -176,371 -176,363 -167,363" stroke="#000000" stroke-width="1"/>
      <text fill="#00afaf" font-family="Arial" font-size="15" stroke="none" stroke-width="0" x="450" y="281.0">проспект Амира Тимура</text>
      <text fill="#00afaf" font-family="Arial" font-size="15" stroke="none" stroke-width="0" transform="rotate(90.0,644,423)" x="644" y="438.0">улица Осиё</text>
    </g>
  </g>
</svg>
