<?xml version="1.0" encoding="utf-8" ?>
<svg baseProfile="full" height="930.0" version="1.1" width="380.0" xmlns="http://www.w3.org/2000/svg" xmlns:ev="http://www.w3.org/2001/xml-events" xmlns:xlink="http://www.w3.org/1999/xlink">
  <defs>
    <marker id="id515" markerHeight="3" markerUnits="strokeWidth" markerWidth="4" orient="auto" refX="0" refY="5" viewBox="0,0,10,10">
      <path d="M 0 0 L 10 5 L 0 10 z"/>
    </marker>
  </defs>
  <g>
    <rect fill="none" height="930.0" stroke="none" stroke-width="0" width="380.0" x="0.0" y="0.0"/>
    <g transform="rotate(-80.0,190.0,465.0)">
      <polygon fill="#4b7d43" points="-70.0,414.0 -70.0,384.0 380.0,384.0 380.0,414.0" stroke="#000000" stroke-width="1"/>
      <polygon fill="#4b7d43" points="-70.0,524.0 -70.0,494.0 380.0,494.0 380.0,524.0" stroke="#000000" stroke-width="1"/>
      <text fill="#4b7d43" font-family="Arial" font-size="20.0" stroke="none" stroke-width="0" x="-70.0" y="378.0">&lt;&lt; Abdulla Qodiriy</text>
      <text fill="#4b7d43" font-family="Arial" font-size="20.0" stroke="none" stroke-width="0" x="268.0" y="544.0">Bodomzor &gt;&gt;</text>
      <text fill="#4b7d43" font-family="Arial" font-size="25.0" stroke="none" stroke-width="0" x="123.0" y="463.0">Minor</text>
      <polyline fill="none" points="380.0,414.0 380.0,424.0 431.0,424.0 431.0,390.0 497.0,390.0 497.0,397.0 511.0,397.0 511.0,390.0 534.0,390.0 534.0,556.0 551.0,556.0 551.0,506.0" stroke="#000000" stroke-width="1"/>
      <polyline fill="none" points="568.0,506.0 568.0,573.0 511.0,573.0 511.0,509.0 497.0,509.0 497.0,516.0 431.0,516.0 431.0,483.0 380.0,483.0 380.0,494.0" stroke="#000000" stroke-width="1"/>
      <line stroke="#000000" stroke-width="1" x1="568.0" x2="551.0" y1="508.0" y2="508.0"/>
      <line stroke="#000000" stroke-width="1" x1="568.0" x2="551.0" y1="512.0" y2="512.0"/>
      <line stroke="#000000" stroke-width="1" x1="568.0" x2="551.0" y1="516.0" y2="516.0"/>
      <line stroke="#000000" stroke-width="1" x1="568.0" x2="551.0" y1="520.0" y2="520.0"/>
      <line stroke="#000000" stroke-width="1" x1="568.0" x2="551.0" y1="524.0" y2="524.0"/>
      <line stroke="#000000" stroke-width="1" x1="568.0" x2="551.0" y1="528.0" y2="528.0"/>
      <line stroke="#000000" stroke-width="1" x1="568.0" x2="551.0" y1="532.0" y2="532.0"/>
      <line stroke="#000000" stroke-width="1" x1="568.0" x2="551.0" y1="536.0" y2="536.0"/>
      <line stroke="#000000" stroke-width="1" x1="568.0" x2="551.0" y1="540.0" y2="540.0"/>
      <line stroke="#000000" stroke-width="1" x1="568.0" x2="551.0" y1="544.0" y2="544.0"/>
      <line stroke="#000000" stroke-width="1" x1="568.0" x2="551.0" y1="548.0" y2="548.0"/>
      <line stroke="#000000" stroke-width="1" x1="568.0" x2="551.0" y1="552.0" y2="552.0"/>
      <line stroke="#000000" stroke-width="1" x1="383.0" x2="383.0" y1="424.0" y2="483.0"/>
      <line stroke="#000000" stroke-width="1" x1="387.0" x2="387.0" y1="424.0" y2="483.0"/>
      <line stroke="#000000" stroke-width="1" x1="391.0" x2="391.0" y1="424.0" y2="483.0"/>
      <line stroke="#000000" stroke-width="1" x1="395.0" x2="395.0" y1="424.0" y2="483.0"/>
      <line stroke="#000000" stroke-width="1" x1="399.0" x2="399.0" y1="424.0" y2="483.0"/>
      <line stroke="#000000" stroke-width="1" x1="403.0" x2="403.0" y1="424.0" y2="483.0"/>
      <line stroke="#000000" stroke-width="1" x1="407.0" x2="407.0" y1="424.0" y2="483.0"/>
      <line stroke="#000000" stroke-width="1" x1="411.0" x2="411.0" y1="424.0" y2="483.0"/>
      <line stroke="#000000" stroke-width="1" x1="415.0" x2="415.0" y1="424.0" y2="483.0"/>
      <line stroke="#000000" stroke-width="1" x1="419.0" x2="419.0" y1="424.0" y2="483.0"/>
      <line stroke="#000000" stroke-width="1" x1="423.0" x2="423.0" y1="424.0" y2="483.0"/>
      <line stroke="#000000" stroke-width="1" x1="427.0" x2="427.0" y1="424.0" y2="483.0"/>
      <polygon fill="#d0d0d0" points="497.0,475.0 497.0,432.0 511.0,432.0 511.0,475.0" stroke="#000000" stroke-width="1"/>
      <polygon fill="#fefbf1" points="-259.0,363.0 -84.0,363.0 -84.0,530.0 -259.0,530.0" stroke="#dfdfdf" stroke-width="1"/>
      <polygon fill="#d0d0d0" points="-192.0,363.0 -192.0,389.0 -221.0,389.0 -221.0,515.0 -122.0,515.0 -122.0,484.0 -84.0,484.0 -84.0,530.0 -259.0,530.0 -259.0,363.0" stroke="#000000" stroke-width="1"/>
      <polygon fill="#d0d0d0" points="-151.0,389.0 -151.0,363.0 -84.0,363.0 -84.0,424.0 -122.0,424.0 -122.0,389.0" stroke="#000000" stroke-width="1"/>
      <polyline fill="none" points="-70.0,494.0 -70.0,484.0 -84.0,484.0" stroke="#000000" stroke-width="1"/>
      <polyline fill="none" points="-84.0,424.0 -70.0,424.0 -70.0,414.0" stroke="#000000" stroke-width="1"/>
      <line stroke="#000000" stroke-width="1" x1="-74.0" x2="-74.0" y1="424.0" y2="484.0"/>
      <line stroke="#000000" stroke-width="1" x1="-78.0" x2="-78.0" y1="424.0" y2="484.0"/>
      <line stroke="#000000" stroke-width="1" x1="-82.0" x2="-82.0" y1="424.0" y2="484.0"/>
      <line stroke="#000000" stroke-width="1" x1="-86.0" x2="-86.0" y1="424.0" y2="484.0"/>
      <line stroke="#000000" stroke-width="1" x1="-90.0" x2="-90.0" y1="424.0" y2="484.0"/>
      <line stroke="#000000" stroke-width="1" x1="-94.0" x2="-94.0" y1="424.0" y2="484.0"/>
      <line stroke="#000000" stroke-width="1" x1="-98.0" x2="-98.0" y1="424.0" y2="484.0"/>
      <line stroke="#000000" stroke-width="1" x1="-102.0" x2="-102.0" y1="424.0" y2="484.0"/>
      <line stroke="#000000" stroke-width="1" x1="-106.0" x2="-106.0" y1="424.0" y2="484.0"/>
      <line stroke="#000000" stroke-width="1" x1="-110.0" x2="-110.0" y1="424.0" y2="484.0"/>
      <line stroke="#000000" stroke-width="1" x1="-114.0" x2="-114.0" y1="424.0" y2="484.0"/>
      <line stroke="#000000" stroke-width="1" x1="-118.0" x2="-118.0" y1="424.0" y2="484.0"/>
      <line stroke="#000000" stroke-width="1" x1="-151.0" x2="-192.0" y1="374.0" y2="374.0"/>
      <line stroke="#000000" stroke-width="1" x1="-151.0" x2="-192.0" y1="378.0" y2="378.0"/>
      <line stroke="#000000" stroke-width="1" x1="-151.0" x2="-192.0" y1="382.0" y2="382.0"/>
      <line stroke="#000000" stroke-width="1" x1="-151.0" x2="-192.0" y1="386.0" y2="386.0"/>
      <polygon fill="#d0d0d0" points="-167.0,371.0 -176.0,371.0 -176.0,363.0 -167.0,363.0" stroke="#000000" stroke-width="1"/>
      <text fill="#00afaf" font-family="Arial" font-size="15.0" stroke="none" stroke-width="0" x="450.0" y="281.0">проспект Амира Тимура</text>
      <text fill="#00afaf" font-family="Arial" font-size="15.0" stroke="none" stroke-width="0" transform="rotate(90.0,644.0,423.0)" x="644.0" y="438.0">улица Осиё</text>
    </g>
  </g>
</svg>
