<svg xmlns="http://www.w3.org/2000/svg" version="1.1">
<defs>
    <marker id="arrow"
      viewBox="0 0 10 10" refX="0" refY="5"
      markerUnits="strokeWidth"
      markerWidth="4" markerHeight="3"
      orient="auto">
      <path d="M 0 0 L 10 5 L 0 10 z" />
    </marker>
  </defs>
<g stroke="#000000" fill="none" stroke-opacity="1.0" fill-opacity="1.0" transform="scale(0.5)">
<rect x="0" y="0" width="970" height="870" stroke-width="0" fill="none" />
<g stroke="#000000" fill="none" stroke-opacity="1.0" fill-opacity="1.0" transform="scale(0.5)">
</g>
<g transform="rotate(-50.0 485 435)" >
<g stroke="#000000" fill="none" stroke-opacity="1.0" fill-opacity="1.0" transform="scale(0.5)">
</g>
<g stroke="#000000" fill="#F52D35" stroke-opacity="1.0" fill-opacity="1.0" transform="scale(0.5)">
<polygon points="654,327  204,327  204,297  654,297" stroke-width="1" />
<polygon points="204,437  204,407  654,407  654,437" stroke-width="1" />
</g>
<g stroke="#F52D35" fill="none" stroke-opacity="1.0" fill-opacity="1.0" transform="scale(0.5)">
<text x=" 209" y="293.0" font-family="Arial" font-size=" 20" fill="#F52D35" stroke-width="0">&lt;&lt; Chilonzor</text>
<text x=" 570" y="457.0" font-family="Arial" font-size=" 20" fill="#F52D35" stroke-width="0">Hamza &gt;&gt;</text>
<text x=" 371" y="374.0" font-family="Arial" font-size=" 25" fill="#F52D35" stroke-width="0">Mirzo Ulug'bek</text>
</g>
<g stroke="#000000" fill="none" stroke-opacity="1.0" fill-opacity="1.0" transform="scale(0.5)">
<polyline points="736,246  786,246  786,311  772,311  772,304  706,304  706,337  654,337  654,327" stroke-width="1" fill="none"  />
<polyline points="859,246  809,246  809,488  859,488" stroke-width="1" fill="none"  />
<polyline points="736,488  786,488  786,423  772,423  772,430  706,430  706,396  654,396  654,407" stroke-width="1" fill="none"  />
<polyline points="736,229  859,229" stroke-width="1" fill="none"  />
<polyline points="736,505  859,505" stroke-width="1" fill="none"  />
<line x1="658" y1="396" x2="658" y2="337" stroke-width="1" />
<line x1="662" y1="396" x2="662" y2="337" stroke-width="1" />
<line x1="666" y1="396" x2="666" y2="337" stroke-width="1" />
<line x1="670" y1="396" x2="670" y2="337" stroke-width="1" />
<line x1="674" y1="396" x2="674" y2="337" stroke-width="1" />
<line x1="678" y1="396" x2="678" y2="337" stroke-width="1" />
<line x1="682" y1="396" x2="682" y2="337" stroke-width="1" />
<line x1="686" y1="396" x2="686" y2="337" stroke-width="1" />
<line x1="690" y1="396" x2="690" y2="337" stroke-width="1" />
<line x1="694" y1="396" x2="694" y2="337" stroke-width="1" />
<line x1="698" y1="396" x2="698" y2="337" stroke-width="1" />
<line x1="702" y1="396" x2="702" y2="337" stroke-width="1" />
<line x1="857" y1="246" x2="857" y2="229" stroke-width="1" />
<line x1="853" y1="246" x2="853" y2="229" stroke-width="1" />
<line x1="849" y1="246" x2="849" y2="229" stroke-width="1" />
<line x1="845" y1="246" x2="845" y2="229" stroke-width="1" />
<line x1="841" y1="246" x2="841" y2="229" stroke-width="1" />
<line x1="837" y1="246" x2="837" y2="229" stroke-width="1" />
<line x1="833" y1="246" x2="833" y2="229" stroke-width="1" />
<line x1="829" y1="246" x2="829" y2="229" stroke-width="1" />
<line x1="825" y1="246" x2="825" y2="229" stroke-width="1" />
<line x1="821" y1="246" x2="821" y2="229" stroke-width="1" />
<line x1="817" y1="246" x2="817" y2="229" stroke-width="1" />
<line x1="813" y1="246" x2="813" y2="229" stroke-width="1" />
<line x1="857" y1="488" x2="857" y2="505" stroke-width="1" />
<line x1="853" y1="488" x2="853" y2="505" stroke-width="1" />
<line x1="849" y1="488" x2="849" y2="505" stroke-width="1" />
<line x1="845" y1="488" x2="845" y2="505" stroke-width="1" />
<line x1="841" y1="488" x2="841" y2="505" stroke-width="1" />
<line x1="837" y1="488" x2="837" y2="505" stroke-width="1" />
<line x1="833" y1="488" x2="833" y2="505" stroke-width="1" />
<line x1="829" y1="488" x2="829" y2="505" stroke-width="1" />
<line x1="825" y1="488" x2="825" y2="505" stroke-width="1" />
<line x1="821" y1="488" x2="821" y2="505" stroke-width="1" />
<line x1="817" y1="488" x2="817" y2="505" stroke-width="1" />
<line x1="813" y1="488" x2="813" y2="505" stroke-width="1" />
<line x1="738" y1="488" x2="738" y2="505" stroke-width="1" />
<line x1="742" y1="488" x2="742" y2="505" stroke-width="1" />
<line x1="746" y1="488" x2="746" y2="505" stroke-width="1" />
<line x1="750" y1="488" x2="750" y2="505" stroke-width="1" />
<line x1="754" y1="488" x2="754" y2="505" stroke-width="1" />
<line x1="758" y1="488" x2="758" y2="505" stroke-width="1" />
<line x1="762" y1="488" x2="762" y2="505" stroke-width="1" />
<line x1="766" y1="488" x2="766" y2="505" stroke-width="1" />
<line x1="770" y1="488" x2="770" y2="505" stroke-width="1" />
<line x1="774" y1="488" x2="774" y2="505" stroke-width="1" />
<line x1="778" y1="488" x2="778" y2="505" stroke-width="1" />
<line x1="782" y1="488" x2="782" y2="505" stroke-width="1" />
<line x1="738" y1="246" x2="738" y2="229" stroke-width="1" />
<line x1="742" y1="246" x2="742" y2="229" stroke-width="1" />
<line x1="746" y1="246" x2="746" y2="229" stroke-width="1" />
<line x1="750" y1="246" x2="750" y2="229" stroke-width="1" />
<line x1="754" y1="246" x2="754" y2="229" stroke-width="1" />
<line x1="758" y1="246" x2="758" y2="229" stroke-width="1" />
<line x1="762" y1="246" x2="762" y2="229" stroke-width="1" />
<line x1="766" y1="246" x2="766" y2="229" stroke-width="1" />
<line x1="770" y1="246" x2="770" y2="229" stroke-width="1" />
<line x1="774" y1="246" x2="774" y2="229" stroke-width="1" />
<line x1="778" y1="246" x2="778" y2="229" stroke-width="1" />
<line x1="782" y1="246" x2="782" y2="229" stroke-width="1" />
</g>
<g stroke="#000000" fill="#D0D0D0" stroke-opacity="1.0" fill-opacity="1.0" transform="scale(0.5)">
<polygon points="786,346  772,346  772,389  786,389" stroke-width="1" />
</g>
<g stroke="#000000" fill="#D0D0D0" stroke-opacity="1.0" fill-opacity="1.0" transform="scale(0.5)">
<polyline points="122,246  72,246  72,311  86,311  86,304  152,304  152,337  204,337  204,327" stroke-width="1" fill="none"  />
<polyline points="-1,246  49,246  49,488  -1,488" stroke-width="1" fill="none"  />
<polyline points="122,488  72,488  72,423  86,423  86,430  152,430  152,396  204,396  204,407" stroke-width="1" fill="none"  />
<polyline points="122,229  -1,229" stroke-width="1" fill="none"  />
<polyline points="122,505  -1,505" stroke-width="1" fill="none"  />
<line x1="200" y1="396" x2="200" y2="337" stroke-width="1" />
<line x1="196" y1="396" x2="196" y2="337" stroke-width="1" />
<line x1="192" y1="396" x2="192" y2="337" stroke-width="1" />
<line x1="188" y1="396" x2="188" y2="337" stroke-width="1" />
<line x1="184" y1="396" x2="184" y2="337" stroke-width="1" />
<line x1="180" y1="396" x2="180" y2="337" stroke-width="1" />
<line x1="176" y1="396" x2="176" y2="337" stroke-width="1" />
<line x1="172" y1="396" x2="172" y2="337" stroke-width="1" />
<line x1="168" y1="396" x2="168" y2="337" stroke-width="1" />
<line x1="164" y1="396" x2="164" y2="337" stroke-width="1" />
<line x1="160" y1="396" x2="160" y2="337" stroke-width="1" />
<line x1="156" y1="396" x2="156" y2="337" stroke-width="1" />
<line x1="1" y1="246" x2="1" y2="229" stroke-width="1" />
<line x1="5" y1="246" x2="5" y2="229" stroke-width="1" />
<line x1="9" y1="246" x2="9" y2="229" stroke-width="1" />
<line x1="13" y1="246" x2="13" y2="229" stroke-width="1" />
<line x1="17" y1="246" x2="17" y2="229" stroke-width="1" />
<line x1="21" y1="246" x2="21" y2="229" stroke-width="1" />
<line x1="25" y1="246" x2="25" y2="229" stroke-width="1" />
<line x1="29" y1="246" x2="29" y2="229" stroke-width="1" />
<line x1="33" y1="246" x2="33" y2="229" stroke-width="1" />
<line x1="37" y1="246" x2="37" y2="229" stroke-width="1" />
<line x1="41" y1="246" x2="41" y2="229" stroke-width="1" />
<line x1="45" y1="246" x2="45" y2="229" stroke-width="1" />
<line x1="1" y1="488" x2="1" y2="505" stroke-width="1" />
<line x1="5" y1="488" x2="5" y2="505" stroke-width="1" />
<line x1="9" y1="488" x2="9" y2="505" stroke-width="1" />
<line x1="13" y1="488" x2="13" y2="505" stroke-width="1" />
<line x1="17" y1="488" x2="17" y2="505" stroke-width="1" />
<line x1="21" y1="488" x2="21" y2="505" stroke-width="1" />
<line x1="25" y1="488" x2="25" y2="505" stroke-width="1" />
<line x1="29" y1="488" x2="29" y2="505" stroke-width="1" />
<line x1="33" y1="488" x2="33" y2="505" stroke-width="1" />
<line x1="37" y1="488" x2="37" y2="505" stroke-width="1" />
<line x1="41" y1="488" x2="41" y2="505" stroke-width="1" />
<line x1="45" y1="488" x2="45" y2="505" stroke-width="1" />
<line x1="120" y1="488" x2="120" y2="505" stroke-width="1" />
<line x1="116" y1="488" x2="116" y2="505" stroke-width="1" />
<line x1="112" y1="488" x2="112" y2="505" stroke-width="1" />
<line x1="108" y1="488" x2="108" y2="505" stroke-width="1" />
<line x1="104" y1="488" x2="104" y2="505" stroke-width="1" />
<line x1="100" y1="488" x2="100" y2="505" stroke-width="1" />
<line x1="96" y1="488" x2="96" y2="505" stroke-width="1" />
<line x1="92" y1="488" x2="92" y2="505" stroke-width="1" />
<line x1="88" y1="488" x2="88" y2="505" stroke-width="1" />
<line x1="84" y1="488" x2="84" y2="505" stroke-width="1" />
<line x1="80" y1="488" x2="80" y2="505" stroke-width="1" />
<line x1="76" y1="488" x2="76" y2="505" stroke-width="1" />
<line x1="120" y1="246" x2="120" y2="229" stroke-width="1" />
<line x1="116" y1="246" x2="116" y2="229" stroke-width="1" />
<line x1="112" y1="246" x2="112" y2="229" stroke-width="1" />
<line x1="108" y1="246" x2="108" y2="229" stroke-width="1" />
<line x1="104" y1="246" x2="104" y2="229" stroke-width="1" />
<line x1="100" y1="246" x2="100" y2="229" stroke-width="1" />
<line x1="96" y1="246" x2="96" y2="229" stroke-width="1" />
<line x1="92" y1="246" x2="92" y2="229" stroke-width="1" />
<line x1="88" y1="246" x2="88" y2="229" stroke-width="1" />
<line x1="84" y1="246" x2="84" y2="229" stroke-width="1" />
<line x1="80" y1="246" x2="80" y2="229" stroke-width="1" />
<line x1="76" y1="246" x2="76" y2="229" stroke-width="1" />
</g>
<g stroke="#000000" fill="#D0D0D0" stroke-opacity="1.0" fill-opacity="1.0" transform="scale(0.5)">
<polygon points="72,346  86,346  86,389  72,389" stroke-width="1" />
</g>
<g stroke="#00AFAF" fill="none" stroke-opacity="1.0" fill-opacity="1.0" transform="scale(0.5)">
<text x=" 832" y="371.0" font-family="Arial" font-size=" 15" fill="#00AFAF" stroke-width="0">проспект Бунёдкор</text>
<text x=" 452" y="91.0" font-family="Arial" font-size=" 15" fill="#00AFAF" transform="rotate(90.0  452  76)" stroke-width="0">улица Чапаната</text>
<text x=" 836" y="555.0" font-family="Arial" font-size=" 15" fill="#00AFAF" transform="rotate(50.0  836  540)" stroke-width="0">парк имени Гафура Гуляма</text>
</g>
</g>
</g>
</svg>
