<?xml version="1.0" encoding="utf-8" ?>
<svg baseProfile="full" height="1300.0" version="1.1" width="980.0" xmlns="http://www.w3.org/2000/svg" xmlns:ev="http://www.w3.org/2001/xml-events" xmlns:xlink="http://www.w3.org/1999/xlink">
  <defs>
    <marker id="id520" markerHeight="3" markerUnits="strokeWidth" markerWidth="4" orient="auto" refX="0" refY="5" viewBox="0,0,10,10">
      <path d="M 0 0 L 10 5 L 0 10 z"/>
    </marker>
  </defs>
  <g>
    <rect fill="none" height="1300.0" stroke="none" stroke-width="0" width="980.0" x="0.0" y="0.0"/>
    <g transform="rotate(-40.0,490.0,650.0)">
      <polyline fill="none" points="-776.0,461.0 1307.0,460.0" stroke="#f5f5f5" stroke-width="50"/>
      <polyline fill="none" points="287.0,-383.0 286.0,1398.0" stroke="#f5f5f5" stroke-width="50"/>
      <polygon fill="#4b7d43" points="891.0,456.0 441.0,456.0 441.0,426.0 891.0,426.0" stroke="#000000" stroke-width="1"/>
      <polygon fill="#4b7d43" points="441.0,566.0 441.0,536.0 891.0,536.0 891.0,566.0" stroke="#000000" stroke-width="1"/>
      <text fill="#4b7d43" font-family="Arial" font-size="20.0" stroke="none" stroke-width="0" x="446.0" y="422.0">&lt;&lt; тупик</text>
      <text fill="#4b7d43" font-family="Arial" font-size="20.0" stroke="none" stroke-width="0" x="744.0" y="586.0">Yunus Rajabiy &gt;&gt;</text>
      <text fill="#4b7d43" font-family="Arial" font-size="25.0" stroke="none" stroke-width="0" x="553.0" y="510.0">Ming O'rik</text>
      <polyline fill="none" points="1121.0,375.0 1071.0,375.0 1071.0,603.0 1121.0,603.0" stroke="#000000" stroke-width="1"/>
      <polyline fill="none" points="1121.0,358.0 1048.0,358.0 1048.0,433.0 968.0,433.0 968.0,478.0" stroke="#000000" stroke-width="1"/>
      <polyline fill="none" points="904.0,478.0 904.0,466.0 891.0,466.0 891.0,456.0" stroke="#000000" stroke-width="1"/>
      <polyline fill="none" points="1121.0,620.0 1048.0,620.0 1048.0,559.0 968.0,559.0 968.0,513.0" stroke="#000000" stroke-width="1"/>
      <polyline fill="none" points="904.0,513.0 904.0,525.0 891.0,525.0 891.0,536.0" stroke="#000000" stroke-width="1"/>
      <line stroke="#000000" stroke-width="1" x1="1119.0" x2="1119.0" y1="375.0" y2="358.0"/>
      <line stroke="#000000" stroke-width="1" x1="1115.0" x2="1115.0" y1="375.0" y2="358.0"/>
      <line stroke="#000000" stroke-width="1" x1="1111.0" x2="1111.0" y1="375.0" y2="358.0"/>
      <line stroke="#000000" stroke-width="1" x1="1107.0" x2="1107.0" y1="375.0" y2="358.0"/>
      <line stroke="#000000" stroke-width="1" x1="1103.0" x2="1103.0" y1="375.0" y2="358.0"/>
      <line stroke="#000000" stroke-width="1" x1="1099.0" x2="1099.0" y1="375.0" y2="358.0"/>
      <line stroke="#000000" stroke-width="1" x1="1095.0" x2="1095.0" y1="375.0" y2="358.0"/>
      <line stroke="#000000" stroke-width="1" x1="1091.0" x2="1091.0" y1="375.0" y2="358.0"/>
      <line stroke="#000000" stroke-width="1" x1="1087.0" x2="1087.0" y1="375.0" y2="358.0"/>
      <line stroke="#000000" stroke-width="1" x1="1083.0" x2="1083.0" y1="375.0" y2="358.0"/>
      <line stroke="#000000" stroke-width="1" x1="1079.0" x2="1079.0" y1="375.0" y2="358.0"/>
      <line stroke="#000000" stroke-width="1" x1="1075.0" x2="1075.0" y1="375.0" y2="358.0"/>
      <line stroke="#000000" stroke-width="1" x1="1119.0" x2="1119.0" y1="603.0" y2="620.0"/>
      <line stroke="#000000" stroke-width="1" x1="1115.0" x2="1115.0" y1="603.0" y2="620.0"/>
      <line stroke="#000000" stroke-width="1" x1="1111.0" x2="1111.0" y1="603.0" y2="620.0"/>
      <line stroke="#000000" stroke-width="1" x1="1107.0" x2="1107.0" y1="603.0" y2="620.0"/>
      <line stroke="#000000" stroke-width="1" x1="1103.0" x2="1103.0" y1="603.0" y2="620.0"/>
      <line stroke="#000000" stroke-width="1" x1="1099.0" x2="1099.0" y1="603.0" y2="620.0"/>
      <line stroke="#000000" stroke-width="1" x1="1095.0" x2="1095.0" y1="603.0" y2="620.0"/>
      <line stroke="#000000" stroke-width="1" x1="1091.0" x2="1091.0" y1="603.0" y2="620.0"/>
      <line stroke="#000000" stroke-width="1" x1="1087.0" x2="1087.0" y1="603.0" y2="620.0"/>
      <line stroke="#000000" stroke-width="1" x1="1083.0" x2="1083.0" y1="603.0" y2="620.0"/>
      <line stroke="#000000" stroke-width="1" x1="1079.0" x2="1079.0" y1="603.0" y2="620.0"/>
      <line stroke="#000000" stroke-width="1" x1="1075.0" x2="1075.0" y1="603.0" y2="620.0"/>
      <polygon fill="#d0d0d0" points="1048.0,475.0 1034.0,475.0 1034.0,518.0 1048.0,518.0" stroke="#000000" stroke-width="1"/>
      <line stroke="#7f7f7f" stroke-width="1" x1="970.0" x2="970.0" y1="510.0" y2="481.0"/>
      <line stroke="#7f7f7f" stroke-width="1" x1="966.0" x2="966.0" y1="510.0" y2="481.0"/>
      <line stroke="#7f7f7f" stroke-width="1" x1="962.0" x2="962.0" y1="510.0" y2="481.0"/>
      <line stroke="#7f7f7f" stroke-width="1" x1="958.0" x2="958.0" y1="510.0" y2="481.0"/>
      <line stroke="#7f7f7f" stroke-width="1" x1="954.0" x2="954.0" y1="510.0" y2="481.0"/>
      <line stroke="#7f7f7f" stroke-width="1" x1="950.0" x2="950.0" y1="510.0" y2="481.0"/>
      <line stroke="#7f7f7f" stroke-width="1" x1="946.0" x2="946.0" y1="510.0" y2="481.0"/>
      <line stroke="#7f7f7f" stroke-width="1" x1="942.0" x2="942.0" y1="510.0" y2="481.0"/>
      <line stroke="#7f7f7f" stroke-width="1" x1="938.0" x2="938.0" y1="510.0" y2="481.0"/>
      <line stroke="#7f7f7f" stroke-width="1" x1="934.0" x2="934.0" y1="510.0" y2="481.0"/>
      <line stroke="#7f7f7f" stroke-width="1" x1="930.0" x2="930.0" y1="510.0" y2="481.0"/>
      <line stroke="#7f7f7f" stroke-width="1" x1="926.0" x2="926.0" y1="510.0" y2="481.0"/>
      <line stroke="#7f7f7f" stroke-width="1" x1="922.0" x2="922.0" y1="510.0" y2="481.0"/>
      <line stroke="#7f7f7f" stroke-width="1" x1="918.0" x2="918.0" y1="510.0" y2="481.0"/>
      <line stroke="#7f7f7f" stroke-width="1" x1="914.0" x2="914.0" y1="510.0" y2="481.0"/>
      <line stroke="#7f7f7f" stroke-width="1" x1="910.0" x2="910.0" y1="510.0" y2="481.0"/>
      <line stroke="#7f7f7f" stroke-width="1" x1="906.0" x2="906.0" y1="510.0" y2="481.0"/>
      <line stroke="#7f7f7f" stroke-width="1" x1="902.0" x2="902.0" y1="510.0" y2="481.0"/>
      <polygon fill="#9b5509" points="977.0,481.0 897.0,481.0 897.0,478.0 977.0,478.0" stroke="#000000" stroke-width="1"/>
      <polygon fill="#9b5509" points="977.0,488.0 977.0,492.0 897.0,492.0 897.0,488.0" stroke="#000000" stroke-width="1"/>
      <polygon fill="#9b5509" points="977.0,499.0 977.0,503.0 897.0,503.0 897.0,499.0" stroke="#000000" stroke-width="1"/>
      <polygon fill="#9b5509" points="977.0,510.0 897.0,510.0 897.0,513.0 977.0,513.0" stroke="#000000" stroke-width="1"/>
      <polygon fill="#ffffff" points="1015.0,568.0 1015.0,559.0 1041.0,559.0 1041.0,568.0" stroke="#000000" stroke-width="1"/>
      <text fill="#000000" font-family="Arial" font-size="10.0" stroke="none" stroke-width="0" x="1016.0" y="567.0">кассы</text>
      <polygon fill="none" points="1001.0,498.0 1001.0,492.0 1007.0,492.0 1007.0,498.0" stroke="#000000" stroke-width="1"/>
      <line stroke="#009900" stroke-width="1" x1="1006.0" x2="1001.0" y1="555.0" y2="555.0"/>
      <line stroke="#009900" stroke-width="1" x1="1006.0" x2="1001.0" y1="551.0" y2="551.0"/>
      <line stroke="#009900" stroke-width="1" x1="1006.0" x2="1001.0" y1="547.0" y2="547.0"/>
      <line stroke="#009900" stroke-width="1" x1="1006.0" x2="1001.0" y1="543.0" y2="543.0"/>
      <line stroke="#009900" stroke-width="1" x1="1006.0" x2="1001.0" y1="539.0" y2="539.0"/>
      <line stroke="#009900" stroke-width="1" x1="1006.0" x2="1001.0" y1="535.0" y2="535.0"/>
      <line stroke="#009900" stroke-width="1" x1="1006.0" x2="1001.0" y1="531.0" y2="531.0"/>
      <line stroke="#009900" stroke-width="1" x1="1006.0" x2="1001.0" y1="527.0" y2="527.0"/>
      <line stroke="#009900" stroke-width="1" x1="1006.0" x2="1001.0" y1="523.0" y2="523.0"/>
      <line stroke="#009900" stroke-width="1" x1="1006.0" x2="1001.0" y1="519.0" y2="519.0"/>
      <line stroke="#009900" stroke-width="1" x1="1006.0" x2="1001.0" y1="515.0" y2="515.0"/>
      <line stroke="#009900" stroke-width="1" x1="1006.0" x2="1001.0" y1="511.0" y2="511.0"/>
      <line stroke="#009900" stroke-width="1" x1="1006.0" x2="1001.0" y1="507.0" y2="507.0"/>
      <line stroke="#009900" stroke-width="1" x1="1006.0" x2="1001.0" y1="503.0" y2="503.0"/>
      <line stroke="#ff0000" stroke-width="1" x1="1002.0" x2="1007.0" y1="437.0" y2="437.0"/>
      <line stroke="#ff0000" stroke-width="1" x1="1002.0" x2="1007.0" y1="441.0" y2="441.0"/>
      <line stroke="#ff0000" stroke-width="1" x1="1002.0" x2="1007.0" y1="445.0" y2="445.0"/>
      <line stroke="#ff0000" stroke-width="1" x1="1002.0" x2="1007.0" y1="449.0" y2="449.0"/>
      <line stroke="#ff0000" stroke-width="1" x1="1002.0" x2="1007.0" y1="453.0" y2="453.0"/>
      <line stroke="#ff0000" stroke-width="1" x1="1002.0" x2="1007.0" y1="457.0" y2="457.0"/>
      <line stroke="#ff0000" stroke-width="1" x1="1002.0" x2="1007.0" y1="461.0" y2="461.0"/>
      <line stroke="#ff0000" stroke-width="1" x1="1002.0" x2="1007.0" y1="465.0" y2="465.0"/>
      <line stroke="#ff0000" stroke-width="1" x1="1002.0" x2="1007.0" y1="469.0" y2="469.0"/>
      <line stroke="#ff0000" stroke-width="1" x1="1002.0" x2="1007.0" y1="473.0" y2="473.0"/>
      <line stroke="#ff0000" stroke-width="1" x1="1002.0" x2="1007.0" y1="477.0" y2="477.0"/>
      <line stroke="#ff0000" stroke-width="1" x1="1002.0" x2="1007.0" y1="481.0" y2="481.0"/>
      <line stroke="#ff0000" stroke-width="1" x1="1002.0" x2="1007.0" y1="485.0" y2="485.0"/>
      <line stroke="#ff0000" stroke-width="1" x1="1002.0" x2="1007.0" y1="489.0" y2="489.0"/>
      <polyline fill="none" points="428.0,476.0 428.0,466.0 441.0,466.0 441.0,456.0" stroke="#000000" stroke-width="1"/>
      <polyline fill="none" points="428.0,511.0 428.0,526.0 441.0,526.0 441.0,536.0" stroke="#000000" stroke-width="1"/>
      <line stroke="#7f7f7f" stroke-width="1" x1="430.0" x2="430.0" y1="508.0" y2="479.0"/>
      <line stroke="#7f7f7f" stroke-width="1" x1="426.0" x2="426.0" y1="508.0" y2="479.0"/>
      <line stroke="#7f7f7f" stroke-width="1" x1="422.0" x2="422.0" y1="508.0" y2="479.0"/>
      <line stroke="#7f7f7f" stroke-width="1" x1="418.0" x2="418.0" y1="508.0" y2="479.0"/>
      <line stroke="#7f7f7f" stroke-width="1" x1="414.0" x2="414.0" y1="508.0" y2="479.0"/>
      <line stroke="#7f7f7f" stroke-width="1" x1="410.0" x2="410.0" y1="508.0" y2="479.0"/>
      <line stroke="#7f7f7f" stroke-width="1" x1="406.0" x2="406.0" y1="508.0" y2="479.0"/>
      <line stroke="#7f7f7f" stroke-width="1" x1="402.0" x2="402.0" y1="508.0" y2="479.0"/>
      <line stroke="#7f7f7f" stroke-width="1" x1="398.0" x2="398.0" y1="508.0" y2="479.0"/>
      <line stroke="#7f7f7f" stroke-width="1" x1="394.0" x2="394.0" y1="508.0" y2="479.0"/>
      <line stroke="#7f7f7f" stroke-width="1" x1="390.0" x2="390.0" y1="508.0" y2="479.0"/>
      <line stroke="#7f7f7f" stroke-width="1" x1="386.0" x2="386.0" y1="508.0" y2="479.0"/>
      <line stroke="#7f7f7f" stroke-width="1" x1="382.0" x2="382.0" y1="508.0" y2="479.0"/>
      <line stroke="#7f7f7f" stroke-width="1" x1="378.0" x2="378.0" y1="508.0" y2="479.0"/>
      <line stroke="#7f7f7f" stroke-width="1" x1="374.0" x2="374.0" y1="508.0" y2="479.0"/>
      <line stroke="#7f7f7f" stroke-width="1" x1="370.0" x2="370.0" y1="508.0" y2="479.0"/>
      <line stroke="#7f7f7f" stroke-width="1" x1="366.0" x2="366.0" y1="508.0" y2="479.0"/>
      <line stroke="#7f7f7f" stroke-width="1" x1="362.0" x2="362.0" y1="508.0" y2="479.0"/>
      <line stroke="#7f7f7f" stroke-width="1" x1="358.0" x2="358.0" y1="508.0" y2="479.0"/>
      <line stroke="#7f7f7f" stroke-width="1" x1="354.0" x2="354.0" y1="508.0" y2="479.0"/>
      <line stroke="#7f7f7f" stroke-width="1" x1="350.0" x2="350.0" y1="508.0" y2="479.0"/>
      <line stroke="#7f7f7f" stroke-width="1" x1="346.0" x2="346.0" y1="508.0" y2="479.0"/>
      <polygon fill="#9b5509" points="437.0,479.0 339.0,479.0 339.0,476.0 437.0,476.0" stroke="#000000" stroke-width="1"/>
      <polygon fill="#9b5509" points="437.0,486.0 437.0,490.0 339.0,490.0 339.0,486.0" stroke="#000000" stroke-width="1"/>
      <polygon fill="#9b5509" points="437.0,497.0 437.0,501.0 339.0,501.0 339.0,497.0" stroke="#000000" stroke-width="1"/>
      <polygon fill="#9b5509" points="437.0,508.0 339.0,508.0 339.0,511.0 437.0,511.0" stroke="#000000" stroke-width="1"/>
    </g>
    <g fill="#9b5509" fill-opacity="0.85" stroke="#000000" stroke-opacity="0.85" transform="rotate(-40.0,490.0,650.0)">
      <polygon fill="#ffffff" points="391.0,456.0 412.0,456.0 412.0,515.0 391.0,515.0" stroke="#ffffff" stroke-width="1"/>
    </g>
    <g fill="#ffffff" fill-opacity="1.0" stroke="#ffffff" stroke-opacity="1.0" transform="rotate(-40.0,490.0,650.0)">
      <polygon fill="#2d3c9b" points="245.0,572.0 245.0,1022.0 215.0,1022.0 215.0,572.0" stroke="#000000" stroke-width="1"/>
      <polygon fill="#2d3c9b" points="355.0,1022.0 325.0,1022.0 325.0,572.0 355.0,572.0" stroke="#000000" stroke-width="1"/>
      <text fill="#2d3c9b" font-family="Arial" font-size="20.0" stroke="none" stroke-width="0" transform="rotate(90.0,379.0,573.0)" x="379.0" y="593.0">&lt;&lt; Kosmonavtlar</text>
      <text fill="#2d3c9b" font-family="Arial" font-size="20.0" stroke="none" stroke-width="0" transform="rotate(90.0,215.0,917.0)" x="215.0" y="937.0">Toshkent &gt;&gt;</text>
      <text fill="#2d3c9b" font-family="Arial" font-size="25.0" stroke="none" stroke-width="0" transform="rotate(90.0,304.0,696.0)" x="304.0" y="721.0">Oybek</text>
      <polyline fill="none" points="148.0,1182.0 401.0,1182.0 401.0,1232.0" stroke="#000000" stroke-width="1"/>
      <polyline fill="none" points="148.0,1163.0 222.0,1163.0 222.0,1079.0 255.0,1079.0 255.0,1022.0 245.0,1022.0" stroke="#000000" stroke-width="1"/>
      <polyline fill="none" points="418.0,1232.0 418.0,1159.0 348.0,1159.0 348.0,1079.0 315.0,1079.0 315.0,1022.0 325.0,1022.0" stroke="#000000" stroke-width="1"/>
      <line stroke="#000000" stroke-width="1" x1="150.0" x2="150.0" y1="1163.0" y2="1182.0"/>
      <line stroke="#000000" stroke-width="1" x1="154.0" x2="154.0" y1="1163.0" y2="1182.0"/>
      <line stroke="#000000" stroke-width="1" x1="158.0" x2="158.0" y1="1163.0" y2="1182.0"/>
      <line stroke="#000000" stroke-width="1" x1="162.0" x2="162.0" y1="1163.0" y2="1182.0"/>
      <line stroke="#000000" stroke-width="1" x1="166.0" x2="166.0" y1="1163.0" y2="1182.0"/>
      <line stroke="#000000" stroke-width="1" x1="170.0" x2="170.0" y1="1163.0" y2="1182.0"/>
      <line stroke="#000000" stroke-width="1" x1="174.0" x2="174.0" y1="1163.0" y2="1182.0"/>
      <line stroke="#000000" stroke-width="1" x1="178.0" x2="178.0" y1="1163.0" y2="1182.0"/>
      <line stroke="#000000" stroke-width="1" x1="182.0" x2="182.0" y1="1163.0" y2="1182.0"/>
      <line stroke="#000000" stroke-width="1" x1="186.0" x2="186.0" y1="1163.0" y2="1182.0"/>
      <line stroke="#000000" stroke-width="1" x1="190.0" x2="190.0" y1="1163.0" y2="1182.0"/>
      <line stroke="#000000" stroke-width="1" x1="194.0" x2="194.0" y1="1163.0" y2="1182.0"/>
      <line stroke="#000000" stroke-width="1" x1="315.0" x2="255.0" y1="1070.0" y2="1070.0"/>
      <line stroke="#000000" stroke-width="1" x1="315.0" x2="255.0" y1="1066.0" y2="1066.0"/>
      <line stroke="#000000" stroke-width="1" x1="315.0" x2="255.0" y1="1062.0" y2="1062.0"/>
      <line stroke="#000000" stroke-width="1" x1="315.0" x2="255.0" y1="1058.0" y2="1058.0"/>
      <line stroke="#000000" stroke-width="1" x1="315.0" x2="255.0" y1="1054.0" y2="1054.0"/>
      <line stroke="#000000" stroke-width="1" x1="315.0" x2="255.0" y1="1050.0" y2="1050.0"/>
      <line stroke="#000000" stroke-width="1" x1="315.0" x2="255.0" y1="1046.0" y2="1046.0"/>
      <line stroke="#000000" stroke-width="1" x1="315.0" x2="255.0" y1="1042.0" y2="1042.0"/>
      <line stroke="#000000" stroke-width="1" x1="315.0" x2="255.0" y1="1038.0" y2="1038.0"/>
      <line stroke="#000000" stroke-width="1" x1="315.0" x2="255.0" y1="1034.0" y2="1034.0"/>
      <line stroke="#000000" stroke-width="1" x1="315.0" x2="255.0" y1="1030.0" y2="1030.0"/>
      <line stroke="#000000" stroke-width="1" x1="315.0" x2="255.0" y1="1026.0" y2="1026.0"/>
      <line stroke="#000000" stroke-width="1" x1="401.0" x2="418.0" y1="1230.0" y2="1230.0"/>
      <line stroke="#000000" stroke-width="1" x1="401.0" x2="418.0" y1="1226.0" y2="1226.0"/>
      <line stroke="#000000" stroke-width="1" x1="401.0" x2="418.0" y1="1222.0" y2="1222.0"/>
      <line stroke="#000000" stroke-width="1" x1="401.0" x2="418.0" y1="1218.0" y2="1218.0"/>
      <line stroke="#000000" stroke-width="1" x1="401.0" x2="418.0" y1="1214.0" y2="1214.0"/>
      <line stroke="#000000" stroke-width="1" x1="401.0" x2="418.0" y1="1210.0" y2="1210.0"/>
      <line stroke="#000000" stroke-width="1" x1="401.0" x2="418.0" y1="1206.0" y2="1206.0"/>
      <line stroke="#000000" stroke-width="1" x1="401.0" x2="418.0" y1="1202.0" y2="1202.0"/>
      <line stroke="#000000" stroke-width="1" x1="401.0" x2="418.0" y1="1198.0" y2="1198.0"/>
      <line stroke="#000000" stroke-width="1" x1="401.0" x2="418.0" y1="1194.0" y2="1194.0"/>
      <line stroke="#000000" stroke-width="1" x1="401.0" x2="418.0" y1="1190.0" y2="1190.0"/>
      <line stroke="#000000" stroke-width="1" x1="401.0" x2="418.0" y1="1186.0" y2="1186.0"/>
      <polygon fill="#d0d0d0" points="264.0,1163.0 264.0,1149.0 307.0,1149.0 307.0,1163.0" stroke="#000000" stroke-width="1"/>
      <polygon fill="#ffffff" points="348.0,1154.0 356.0,1154.0 356.0,1128.0 348.0,1128.0" stroke="#000000" stroke-width="1"/>
      <text fill="#000000" font-family="Arial" font-size="10.0" stroke="none" stroke-width="0" transform="rotate(90.0,359.0,1129.0)" x="359.0" y="1139.0">кассы</text>
      <polygon fill="none" points="288.0,1120.0 288.0,1114.0 282.0,1114.0 282.0,1120.0" stroke="#000000" stroke-width="1"/>
      <line stroke="#009900" stroke-width="1" x1="344.0" x2="344.0" y1="1119.0" y2="1114.0"/>
      <line stroke="#009900" stroke-width="1" x1="340.0" x2="340.0" y1="1119.0" y2="1114.0"/>
      <line stroke="#009900" stroke-width="1" x1="336.0" x2="336.0" y1="1119.0" y2="1114.0"/>
      <line stroke="#009900" stroke-width="1" x1="332.0" x2="332.0" y1="1119.0" y2="1114.0"/>
      <line stroke="#009900" stroke-width="1" x1="328.0" x2="328.0" y1="1119.0" y2="1114.0"/>
      <line stroke="#009900" stroke-width="1" x1="324.0" x2="324.0" y1="1119.0" y2="1114.0"/>
      <line stroke="#009900" stroke-width="1" x1="320.0" x2="320.0" y1="1119.0" y2="1114.0"/>
      <line stroke="#009900" stroke-width="1" x1="316.0" x2="316.0" y1="1119.0" y2="1114.0"/>
      <line stroke="#009900" stroke-width="1" x1="312.0" x2="312.0" y1="1119.0" y2="1114.0"/>
      <line stroke="#009900" stroke-width="1" x1="308.0" x2="308.0" y1="1119.0" y2="1114.0"/>
      <line stroke="#009900" stroke-width="1" x1="304.0" x2="304.0" y1="1119.0" y2="1114.0"/>
      <line stroke="#009900" stroke-width="1" x1="300.0" x2="300.0" y1="1119.0" y2="1114.0"/>
      <line stroke="#009900" stroke-width="1" x1="296.0" x2="296.0" y1="1119.0" y2="1114.0"/>
      <line stroke="#009900" stroke-width="1" x1="292.0" x2="292.0" y1="1119.0" y2="1114.0"/>
      <line stroke="#ff0000" stroke-width="1" x1="278.0" x2="278.0" y1="1119.0" y2="1114.0"/>
      <line stroke="#ff0000" stroke-width="1" x1="274.0" x2="274.0" y1="1119.0" y2="1114.0"/>
      <line stroke="#ff0000" stroke-width="1" x1="270.0" x2="270.0" y1="1119.0" y2="1114.0"/>
      <line stroke="#ff0000" stroke-width="1" x1="266.0" x2="266.0" y1="1119.0" y2="1114.0"/>
      <line stroke="#ff0000" stroke-width="1" x1="262.0" x2="262.0" y1="1119.0" y2="1114.0"/>
      <line stroke="#ff0000" stroke-width="1" x1="258.0" x2="258.0" y1="1119.0" y2="1114.0"/>
      <line stroke="#ff0000" stroke-width="1" x1="254.0" x2="254.0" y1="1119.0" y2="1114.0"/>
      <line stroke="#ff0000" stroke-width="1" x1="250.0" x2="250.0" y1="1119.0" y2="1114.0"/>
      <line stroke="#ff0000" stroke-width="1" x1="246.0" x2="246.0" y1="1119.0" y2="1114.0"/>
      <line stroke="#ff0000" stroke-width="1" x1="242.0" x2="242.0" y1="1119.0" y2="1114.0"/>
      <line stroke="#ff0000" stroke-width="1" x1="238.0" x2="238.0" y1="1119.0" y2="1114.0"/>
      <line stroke="#ff0000" stroke-width="1" x1="234.0" x2="234.0" y1="1119.0" y2="1114.0"/>
      <line stroke="#ff0000" stroke-width="1" x1="230.0" x2="230.0" y1="1119.0" y2="1114.0"/>
      <line stroke="#ff0000" stroke-width="1" x1="226.0" x2="226.0" y1="1119.0" y2="1114.0"/>
      <polyline fill="none" points="393.0,339.0 393.0,389.0 162.0,389.0 162.0,339.0" stroke="#000000" stroke-width="1"/>
      <polyline fill="none" points="145.0,339.0 145.0,550.0" stroke="#000000" stroke-width="1"/>
      <polyline fill="none" points="393.0,550.0 393.0,412.0 348.0,412.0 348.0,476.0" stroke="#000000" stroke-width="1"/>
      <polyline fill="none" points="348.0,511.0 348.0,515.0 315.0,515.0 315.0,572.0 325.0,572.0" stroke="#000000" stroke-width="1"/>
      <polyline fill="none" points="409.0,550.0 409.0,339.0" stroke="#000000" stroke-width="1"/>
      <polyline fill="none" points="162.0,550.0 162.0,412.0 222.0,412.0 222.0,515.0 255.0,515.0 255.0,572.0 245.0,572.0" stroke="#000000" stroke-width="1"/>
      <line stroke="#000000" stroke-width="1" x1="162.0" x2="145.0" y1="548.0" y2="548.0"/>
      <line stroke="#000000" stroke-width="1" x1="162.0" x2="145.0" y1="544.0" y2="544.0"/>
      <line stroke="#000000" stroke-width="1" x1="162.0" x2="145.0" y1="540.0" y2="540.0"/>
      <line stroke="#000000" stroke-width="1" x1="162.0" x2="145.0" y1="536.0" y2="536.0"/>
      <line stroke="#000000" stroke-width="1" x1="162.0" x2="145.0" y1="532.0" y2="532.0"/>
      <line stroke="#000000" stroke-width="1" x1="162.0" x2="145.0" y1="528.0" y2="528.0"/>
      <line stroke="#000000" stroke-width="1" x1="162.0" x2="145.0" y1="524.0" y2="524.0"/>
      <line stroke="#000000" stroke-width="1" x1="162.0" x2="145.0" y1="520.0" y2="520.0"/>
      <line stroke="#000000" stroke-width="1" x1="162.0" x2="145.0" y1="516.0" y2="516.0"/>
      <line stroke="#000000" stroke-width="1" x1="162.0" x2="145.0" y1="512.0" y2="512.0"/>
      <line stroke="#000000" stroke-width="1" x1="162.0" x2="145.0" y1="508.0" y2="508.0"/>
      <line stroke="#000000" stroke-width="1" x1="162.0" x2="145.0" y1="504.0" y2="504.0"/>
      <line stroke="#000000" stroke-width="1" x1="162.0" x2="145.0" y1="341.0" y2="341.0"/>
      <line stroke="#000000" stroke-width="1" x1="162.0" x2="145.0" y1="345.0" y2="345.0"/>
      <line stroke="#000000" stroke-width="1" x1="162.0" x2="145.0" y1="349.0" y2="349.0"/>
      <line stroke="#000000" stroke-width="1" x1="162.0" x2="145.0" y1="353.0" y2="353.0"/>
      <line stroke="#000000" stroke-width="1" x1="162.0" x2="145.0" y1="357.0" y2="357.0"/>
      <line stroke="#000000" stroke-width="1" x1="162.0" x2="145.0" y1="361.0" y2="361.0"/>
      <line stroke="#000000" stroke-width="1" x1="162.0" x2="145.0" y1="365.0" y2="365.0"/>
      <line stroke="#000000" stroke-width="1" x1="162.0" x2="145.0" y1="369.0" y2="369.0"/>
      <line stroke="#000000" stroke-width="1" x1="162.0" x2="145.0" y1="373.0" y2="373.0"/>
      <line stroke="#000000" stroke-width="1" x1="162.0" x2="145.0" y1="377.0" y2="377.0"/>
      <line stroke="#000000" stroke-width="1" x1="162.0" x2="145.0" y1="381.0" y2="381.0"/>
      <line stroke="#000000" stroke-width="1" x1="162.0" x2="145.0" y1="385.0" y2="385.0"/>
      <line stroke="#000000" stroke-width="1" x1="255.0" x2="315.0" y1="524.0" y2="524.0"/>
      <line stroke="#000000" stroke-width="1" x1="255.0" x2="315.0" y1="528.0" y2="528.0"/>
      <line stroke="#000000" stroke-width="1" x1="255.0" x2="315.0" y1="532.0" y2="532.0"/>
      <line stroke="#000000" stroke-width="1" x1="255.0" x2="315.0" y1="536.0" y2="536.0"/>
      <line stroke="#000000" stroke-width="1" x1="255.0" x2="315.0" y1="540.0" y2="540.0"/>
      <line stroke="#000000" stroke-width="1" x1="255.0" x2="315.0" y1="544.0" y2="544.0"/>
      <line stroke="#000000" stroke-width="1" x1="255.0" x2="315.0" y1="548.0" y2="548.0"/>
      <line stroke="#000000" stroke-width="1" x1="255.0" x2="315.0" y1="552.0" y2="552.0"/>
      <line stroke="#000000" stroke-width="1" x1="255.0" x2="315.0" y1="556.0" y2="556.0"/>
      <line stroke="#000000" stroke-width="1" x1="255.0" x2="315.0" y1="560.0" y2="560.0"/>
      <line stroke="#000000" stroke-width="1" x1="255.0" x2="315.0" y1="564.0" y2="564.0"/>
      <line stroke="#000000" stroke-width="1" x1="255.0" x2="315.0" y1="568.0" y2="568.0"/>
      <line stroke="#000000" stroke-width="1" x1="393.0" x2="409.0" y1="341.0" y2="341.0"/>
      <line stroke="#000000" stroke-width="1" x1="393.0" x2="409.0" y1="345.0" y2="345.0"/>
      <line stroke="#000000" stroke-width="1" x1="393.0" x2="409.0" y1="349.0" y2="349.0"/>
      <line stroke="#000000" stroke-width="1" x1="393.0" x2="409.0" y1="353.0" y2="353.0"/>
      <line stroke="#000000" stroke-width="1" x1="393.0" x2="409.0" y1="357.0" y2="357.0"/>
      <line stroke="#000000" stroke-width="1" x1="393.0" x2="409.0" y1="361.0" y2="361.0"/>
      <line stroke="#000000" stroke-width="1" x1="393.0" x2="409.0" y1="365.0" y2="365.0"/>
      <line stroke="#000000" stroke-width="1" x1="393.0" x2="409.0" y1="369.0" y2="369.0"/>
      <line stroke="#000000" stroke-width="1" x1="393.0" x2="409.0" y1="373.0" y2="373.0"/>
      <line stroke="#000000" stroke-width="1" x1="393.0" x2="409.0" y1="377.0" y2="377.0"/>
      <line stroke="#000000" stroke-width="1" x1="393.0" x2="409.0" y1="381.0" y2="381.0"/>
      <line stroke="#000000" stroke-width="1" x1="393.0" x2="409.0" y1="385.0" y2="385.0"/>
      <line stroke="#000000" stroke-width="1" x1="393.0" x2="409.0" y1="548.0" y2="548.0"/>
      <line stroke="#000000" stroke-width="1" x1="393.0" x2="409.0" y1="544.0" y2="544.0"/>
      <line stroke="#000000" stroke-width="1" x1="393.0" x2="409.0" y1="540.0" y2="540.0"/>
      <line stroke="#000000" stroke-width="1" x1="393.0" x2="409.0" y1="536.0" y2="536.0"/>
      <line stroke="#000000" stroke-width="1" x1="393.0" x2="409.0" y1="532.0" y2="532.0"/>
      <line stroke="#000000" stroke-width="1" x1="393.0" x2="409.0" y1="528.0" y2="528.0"/>
      <line stroke="#000000" stroke-width="1" x1="393.0" x2="409.0" y1="524.0" y2="524.0"/>
      <line stroke="#000000" stroke-width="1" x1="393.0" x2="409.0" y1="520.0" y2="520.0"/>
      <line stroke="#000000" stroke-width="1" x1="393.0" x2="409.0" y1="516.0" y2="516.0"/>
      <line stroke="#000000" stroke-width="1" x1="393.0" x2="409.0" y1="512.0" y2="512.0"/>
      <line stroke="#000000" stroke-width="1" x1="393.0" x2="409.0" y1="508.0" y2="508.0"/>
      <line stroke="#000000" stroke-width="1" x1="393.0" x2="409.0" y1="504.0" y2="504.0"/>
      <polygon fill="#d0d0d0" points="306.0,412.0 306.0,426.0 263.0,426.0 263.0,412.0" stroke="#000000" stroke-width="1"/>
      <polygon fill="#ffffff" points="348.0,425.0 357.0,425.0 357.0,453.0 348.0,453.0" stroke="#000000" stroke-width="1"/>
      <text fill="#000000" font-family="Arial" font-size="10.0" stroke="none" stroke-width="0" transform="rotate(90.0,359.0,427.0)" x="359.0" y="437.0">кассы</text>
      <polygon fill="none" points="311.0,433.0 306.0,438.0 301.0,433.0 306.0,428.0" stroke="#000000" stroke-width="1"/>
      <line stroke="#009900" stroke-width="1" x1="314.0" x2="310.0" y1="437.0" y2="441.0"/>
      <line stroke="#009900" stroke-width="1" x1="317.04333580783634" x2="313.04333580783634" y1="439.595786424331" y2="443.595786424331"/>
      <line stroke="#009900" stroke-width="1" x1="320.0866716156727" x2="316.0866716156727" y1="442.19157284866196" y2="446.19157284866196"/>
      <line stroke="#009900" stroke-width="1" x1="323.130007423509" x2="319.130007423509" y1="444.78735927299294" y2="448.78735927299294"/>
      <line stroke="#009900" stroke-width="1" x1="326.17334323134537" x2="322.17334323134537" y1="447.3831456973239" y2="451.3831456973239"/>
      <line stroke="#009900" stroke-width="1" x1="329.2166790391817" x2="325.2166790391817" y1="449.9789321216549" y2="453.9789321216549"/>
      <line stroke="#009900" stroke-width="1" x1="332.26001484701806" x2="328.26001484701806" y1="452.5747185459859" y2="456.5747185459859"/>
      <line stroke="#009900" stroke-width="1" x1="335.3033506548544" x2="331.3033506548544" y1="455.17050497031687" y2="459.17050497031687"/>
      <line stroke="#009900" stroke-width="1" x1="338.34668646269074" x2="334.34668646269074" y1="457.76629139464785" y2="461.76629139464785"/>
      <line stroke="#009900" stroke-width="1" x1="341.3900222705271" x2="337.3900222705271" y1="460.36207781897883" y2="464.36207781897883"/>
      <line stroke="#009900" stroke-width="1" x1="344.4333580783634" x2="340.4333580783634" y1="462.9578642433098" y2="466.9578642433098"/>
      <line stroke="#009900" stroke-width="1" x1="347.47669388619977" x2="343.47669388619977" y1="465.5536506676408" y2="469.5536506676408"/>
      <line stroke="#ff0000" stroke-width="1" x1="258.0" x2="258.0" y1="419.0" y2="425.0"/>
      <line stroke="#ff0000" stroke-width="1" x1="254.0" x2="254.0" y1="419.0" y2="425.0"/>
      <line stroke="#ff0000" stroke-width="1" x1="250.0" x2="250.0" y1="419.0" y2="425.0"/>
      <line stroke="#ff0000" stroke-width="1" x1="246.0" x2="246.0" y1="419.0" y2="425.0"/>
      <line stroke="#ff0000" stroke-width="1" x1="242.0" x2="242.0" y1="419.0" y2="425.0"/>
      <line stroke="#ff0000" stroke-width="1" x1="238.0" x2="238.0" y1="419.0" y2="425.0"/>
      <line stroke="#ff0000" stroke-width="1" x1="234.0" x2="234.0" y1="419.0" y2="425.0"/>
      <line stroke="#ff0000" stroke-width="1" x1="230.0" x2="230.0" y1="419.0" y2="425.0"/>
      <line stroke="#ff0000" stroke-width="1" x1="226.0" x2="226.0" y1="419.0" y2="425.0"/>
    </g>
    <g fill="none" fill-opacity="0.85" stroke="#ff0000" stroke-opacity="0.85" transform="rotate(-40.0,490.0,650.0)">
      <polygon fill="#ffffff" points="720.0,568.0 720.0,534.0 700.0,534.0 700.0,568.0" stroke="#ffffff" stroke-width="1"/>
    </g>
    <g fill="#ffffff" fill-opacity="1.0" stroke="#ffffff" stroke-opacity="1.0" transform="rotate(-40.0,490.0,650.0)">
      <polyline fill="none" points="746.0,489.0 674.0,489.0" stroke="#000000" stroke-width="1"/>
      <polyline fill="none" points="746.0,509.0 720.0,509.0 720.0,590.0" stroke="#000000" stroke-width="1"/>
      <path d="M720.0,590.0 C720.0,590.0 721.0,587.0 720.0,590.0 C719.0,593.0 717.3333333333334,602.1666666666666 714.0,608.0 C710.6666666666666,613.8333333333334 700.0,625.0 700.0,625.0 " fill="none" stroke="#000000" stroke-width="1"/>
      <polyline fill="none" points="700.0,625.0 447.0,847.0" stroke="#000000" stroke-width="1"/>
      <path d="M447.0,847.0 C447.0,847.0 449.3333333333333,845.8333333333334 447.0,847.0 C444.6666666666667,848.1666666666666 437.6666666666667,852.3333333333334 433.0,854.0 C428.3333333333333,855.6666666666666 419.0,857.0 419.0,857.0 " fill="none" stroke="#000000" stroke-width="1"/>
      <polyline fill="none" points="419.0,857.0 358.0,857.0" stroke="#000000" stroke-width="1"/>
      <polyline fill="none" points="674.0,509.0 700.0,509.0 700.0,587.0" stroke="#000000" stroke-width="1"/>
      <path d="M700.0,587.0 C700.0,587.0 700.6666666666666,585.0 700.0,587.0 C699.3333333333334,589.0 697.8333333333334,595.3333333333334 696.0,599.0 C694.1666666666666,602.6666666666666 689.0,609.0 689.0,609.0 " fill="none" stroke="#000000" stroke-width="1"/>
      <polyline fill="none" points="689.0,609.0 436.0,831.0" stroke="#000000" stroke-width="1"/>
      <path d="M436.0,831.0 C436.0,831.0 437.5,830.3333333333334 436.0,831.0 C434.5,831.6666666666666 430.0,834.0 427.0,835.0 C424.0,836.0 418.0,837.0 418.0,837.0 " fill="none" stroke="#000000" stroke-width="1"/>
      <polyline fill="none" points="418.0,837.0 358.0,837.0" stroke="#000000" stroke-width="1"/>
      <polyline fill="none" points="299.0,806.0 299.0,830.0 279.0,830.0 279.0,806.0" stroke="#000000" stroke-width="1"/>
      <polyline fill="none" points="299.0,888.0 299.0,864.0 279.0,864.0 279.0,888.0" stroke="#000000" stroke-width="1"/>
      <line stroke="#000000" stroke-width="1" x1="744.0" x2="744.0" y1="509.0" y2="489.0"/>
      <line stroke="#000000" stroke-width="1" x1="740.0" x2="740.0" y1="509.0" y2="489.0"/>
      <line stroke="#000000" stroke-width="1" x1="736.0" x2="736.0" y1="509.0" y2="489.0"/>
      <line stroke="#000000" stroke-width="1" x1="732.0" x2="732.0" y1="509.0" y2="489.0"/>
      <line stroke="#000000" stroke-width="1" x1="728.0" x2="728.0" y1="509.0" y2="489.0"/>
      <line stroke="#000000" stroke-width="1" x1="724.0" x2="724.0" y1="509.0" y2="489.0"/>
      <line stroke="#000000" stroke-width="1" x1="676.0" x2="676.0" y1="509.0" y2="489.0"/>
      <line stroke="#000000" stroke-width="1" x1="680.0" x2="680.0" y1="509.0" y2="489.0"/>
      <line stroke="#000000" stroke-width="1" x1="684.0" x2="684.0" y1="509.0" y2="489.0"/>
      <line stroke="#000000" stroke-width="1" x1="688.0" x2="688.0" y1="509.0" y2="489.0"/>
      <line stroke="#000000" stroke-width="1" x1="692.0" x2="692.0" y1="509.0" y2="489.0"/>
      <line stroke="#000000" stroke-width="1" x1="696.0" x2="696.0" y1="509.0" y2="489.0"/>
      <line stroke="#000000" stroke-width="1" x1="720.0" x2="700.0" y1="511.0" y2="511.0"/>
      <line stroke="#000000" stroke-width="1" x1="720.0" x2="700.0" y1="515.0" y2="515.0"/>
      <line stroke="#000000" stroke-width="1" x1="720.0" x2="700.0" y1="519.0" y2="519.0"/>
      <line stroke="#000000" stroke-width="1" x1="720.0" x2="700.0" y1="523.0" y2="523.0"/>
      <line stroke="#000000" stroke-width="1" x1="720.0" x2="700.0" y1="527.0" y2="527.0"/>
      <line stroke="#000000" stroke-width="1" x1="720.0" x2="700.0" y1="531.0" y2="531.0"/>
      <line stroke="#000000" stroke-width="1" x1="299.0" x2="279.0" y1="808.0" y2="808.0"/>
      <line stroke="#000000" stroke-width="1" x1="299.0" x2="279.0" y1="812.0" y2="812.0"/>
      <line stroke="#000000" stroke-width="1" x1="299.0" x2="279.0" y1="816.0" y2="816.0"/>
      <line stroke="#000000" stroke-width="1" x1="299.0" x2="279.0" y1="820.0" y2="820.0"/>
      <line stroke="#000000" stroke-width="1" x1="299.0" x2="279.0" y1="824.0" y2="824.0"/>
      <line stroke="#000000" stroke-width="1" x1="299.0" x2="279.0" y1="828.0" y2="828.0"/>
      <line stroke="#000000" stroke-width="1" x1="299.0" x2="279.0" y1="886.0" y2="886.0"/>
      <line stroke="#000000" stroke-width="1" x1="299.0" x2="279.0" y1="882.0" y2="882.0"/>
      <line stroke="#000000" stroke-width="1" x1="299.0" x2="279.0" y1="878.0" y2="878.0"/>
      <line stroke="#000000" stroke-width="1" x1="299.0" x2="279.0" y1="874.0" y2="874.0"/>
      <line stroke="#000000" stroke-width="1" x1="299.0" x2="279.0" y1="870.0" y2="870.0"/>
      <line stroke="#000000" stroke-width="1" x1="299.0" x2="279.0" y1="866.0" y2="866.0"/>
      <polyline fill="none" points="354.0,837.0 326.0,837.0" stroke="#263282" stroke-width="1"/>
      <polyline fill="none" points="354.0,857.0 326.0,857.0" stroke="#263282" stroke-width="1"/>
      <polyline fill="none" points="322.0,837.0 299.0,837.0 299.0,832.0" stroke="#d0d0d0" stroke-width="1"/>
      <polyline fill="none" points="322.0,857.0 299.0,857.0 299.0,862.0" stroke="#d0d0d0" stroke-width="1"/>
      <polyline fill="none" points="279.0,862.0 279.0,832.0" stroke="#d0d0d0" stroke-width="1"/>
      <text fill="#00afaf" font-family="Arial" font-size="15.0" stroke="none" stroke-width="0" x="-15.0" y="465.0">Шахрисабская улица</text>
      <text fill="#00afaf" font-family="Arial" font-size="15.0" stroke="none" stroke-width="0" transform="rotate(90.0,296.0,244.0)" x="296.0" y="259.0">улица Айбека</text>
    </g>
  </g>
</svg>
