<?xml version="1.0" encoding="utf-8" ?>
<svg baseProfile="full" height="1440.0" version="1.1" width="1090.0" xmlns="http://www.w3.org/2000/svg" xmlns:ev="http://www.w3.org/2001/xml-events" xmlns:xlink="http://www.w3.org/1999/xlink">
  <defs>
    <marker id="id523" markerHeight="3" markerUnits="strokeWidth" markerWidth="4" orient="auto" refX="0" refY="5" viewBox="0,0,10,10">
      <path d="M 0 0 L 10 5 L 0 10 z"/>
    </marker>
  </defs>
  <g>
    <rect fill="none" height="1440.0" stroke="none" stroke-width="0" width="1090.0" x="0.0" y="0.0"/>
    <g transform="rotate(5.0,545.0,720.0)">
      <polygon fill="#f52d35" points="474.0,1219.0 474.0,1189.0 924.0,1189.0 924.0,1219.0" stroke="#000000" stroke-width="1"/>
      <polygon fill="#f52d35" points="474.0,1329.0 474.0,1299.0 924.0,1299.0 924.0,1329.0" stroke="#000000" stroke-width="1"/>
      <text fill="#f52d35" font-family="Arial" font-size="20.0" stroke="none" stroke-width="0" x="474.0" y="1184.0">&lt;&lt; Bunyodkor</text>
      <text fill="#f52d35" font-family="Arial" font-size="20.0" stroke="none" stroke-width="0" x="735.0" y="1349.0">Mustaqillik Maydoni &gt;&gt;</text>
      <text fill="#f52d35" font-family="Arial" font-size="25.0" stroke="none" stroke-width="0" x="654.0" y="1267.0">Paxtakor</text>
      <polyline fill="none" points="937.0,1241.0 937.0,1229.0 924.0,1229.0 924.0,1219.0" stroke="#000000" stroke-width="1"/>
      <polyline fill="none" points="937.0,1276.0 937.0,1288.0 924.0,1288.0 924.0,1299.0" stroke="#000000" stroke-width="1"/>
      <polyline fill="none" points="1037.0,1190.0 1037.0,1195.0" stroke="#000000" stroke-width="1"/>
      <polyline fill="none" points="1071.0,1195.0 1071.0,1190.0" stroke="#000000" stroke-width="1"/>
      <line stroke="#7f7f7f" stroke-width="1" x1="1050.0" x2="1050.0" y1="1273.0" y2="1244.0"/>
      <line stroke="#7f7f7f" stroke-width="1" x1="1046.0" x2="1046.0" y1="1273.0" y2="1244.0"/>
      <line stroke="#7f7f7f" stroke-width="1" x1="1042.0" x2="1042.0" y1="1273.0" y2="1244.0"/>
      <line stroke="#7f7f7f" stroke-width="1" x1="1038.0" x2="1038.0" y1="1273.0" y2="1244.0"/>
      <line stroke="#7f7f7f" stroke-width="1" x1="1034.0" x2="1034.0" y1="1273.0" y2="1244.0"/>
      <line stroke="#7f7f7f" stroke-width="1" x1="1030.0" x2="1030.0" y1="1273.0" y2="1244.0"/>
      <line stroke="#7f7f7f" stroke-width="1" x1="1026.0" x2="1026.0" y1="1273.0" y2="1244.0"/>
      <line stroke="#7f7f7f" stroke-width="1" x1="1022.0" x2="1022.0" y1="1273.0" y2="1244.0"/>
      <line stroke="#7f7f7f" stroke-width="1" x1="1018.0" x2="1018.0" y1="1273.0" y2="1244.0"/>
      <line stroke="#7f7f7f" stroke-width="1" x1="1014.0" x2="1014.0" y1="1273.0" y2="1244.0"/>
      <line stroke="#7f7f7f" stroke-width="1" x1="1010.0" x2="1010.0" y1="1273.0" y2="1244.0"/>
      <line stroke="#7f7f7f" stroke-width="1" x1="1006.0" x2="1006.0" y1="1273.0" y2="1244.0"/>
      <line stroke="#7f7f7f" stroke-width="1" x1="1002.0" x2="1002.0" y1="1273.0" y2="1244.0"/>
      <line stroke="#7f7f7f" stroke-width="1" x1="998.0" x2="998.0" y1="1273.0" y2="1244.0"/>
      <line stroke="#7f7f7f" stroke-width="1" x1="994.0" x2="994.0" y1="1273.0" y2="1244.0"/>
      <line stroke="#7f7f7f" stroke-width="1" x1="990.0" x2="990.0" y1="1273.0" y2="1244.0"/>
      <line stroke="#7f7f7f" stroke-width="1" x1="986.0" x2="986.0" y1="1273.0" y2="1244.0"/>
      <line stroke="#7f7f7f" stroke-width="1" x1="982.0" x2="982.0" y1="1273.0" y2="1244.0"/>
      <line stroke="#7f7f7f" stroke-width="1" x1="978.0" x2="978.0" y1="1273.0" y2="1244.0"/>
      <line stroke="#7f7f7f" stroke-width="1" x1="974.0" x2="974.0" y1="1273.0" y2="1244.0"/>
      <line stroke="#7f7f7f" stroke-width="1" x1="970.0" x2="970.0" y1="1273.0" y2="1244.0"/>
      <line stroke="#7f7f7f" stroke-width="1" x1="966.0" x2="966.0" y1="1273.0" y2="1244.0"/>
      <line stroke="#7f7f7f" stroke-width="1" x1="962.0" x2="962.0" y1="1273.0" y2="1244.0"/>
      <line stroke="#7f7f7f" stroke-width="1" x1="958.0" x2="958.0" y1="1273.0" y2="1244.0"/>
      <line stroke="#7f7f7f" stroke-width="1" x1="954.0" x2="954.0" y1="1273.0" y2="1244.0"/>
      <line stroke="#7f7f7f" stroke-width="1" x1="950.0" x2="950.0" y1="1273.0" y2="1244.0"/>
      <line stroke="#7f7f7f" stroke-width="1" x1="946.0" x2="946.0" y1="1273.0" y2="1244.0"/>
      <line stroke="#7f7f7f" stroke-width="1" x1="942.0" x2="942.0" y1="1273.0" y2="1244.0"/>
      <line stroke="#7f7f7f" stroke-width="1" x1="938.0" x2="938.0" y1="1273.0" y2="1244.0"/>
      <line stroke="#7f7f7f" stroke-width="1" x1="934.0" x2="934.0" y1="1273.0" y2="1244.0"/>
      <polygon fill="#9b5509" points="1057.0,1244.0 930.0,1244.0 930.0,1241.0 1057.0,1241.0" stroke="#000000" stroke-width="1"/>
      <polygon fill="#9b5509" points="1057.0,1251.0 1057.0,1255.0 930.0,1255.0 930.0,1251.0" stroke="#000000" stroke-width="1"/>
      <polygon fill="#9b5509" points="1057.0,1262.0 1057.0,1266.0 930.0,1266.0 930.0,1262.0" stroke="#000000" stroke-width="1"/>
      <polygon fill="#9b5509" points="1057.0,1273.0 930.0,1273.0 930.0,1276.0 1057.0,1276.0" stroke="#000000" stroke-width="1"/>
    </g>
    <g fill="#9b5509" fill-opacity="0.95" stroke="#000000" stroke-opacity="0.95" transform="rotate(5.0,545.0,720.0)">
      <polygon fill="#ffffff" points="949.0,1239.0 1032.0,1239.0 1032.0,1279.0 949.0,1278.0" stroke="#ffffff" stroke-width="1"/>
    </g>
    <g fill="#ffffff" fill-opacity="1.0" stroke="#ffffff" stroke-opacity="1.0" transform="rotate(5.0,545.0,720.0)">
      <polyline fill="none" points="1032.0,1241.0 1032.0,1276.0" stroke="#000000" stroke-width="1"/>
      <polyline fill="none" points="949.0,1241.0 949.0,1276.0" stroke="#000000" stroke-width="1"/>
      <path d="M985.0,1242.0 C985.0,1242.0 981.8333333333334,1247.5 985.0,1242.0 C988.1666666666666,1236.5 995.3333333333334,1217.6666666666667 1004.0,1209.0 C1012.6666666666666,1200.3333333333333 1037.0,1190.0 1037.0,1190.0 " fill="none" stroke="#000000" stroke-width="1"/>
      <path d="M1071.0,1190.0 C1071.0,1190.0 1066.6666666666667,1187.8333333333333 1071.0,1190.0 C1075.3333333333333,1192.1666666666667 1089.3333333333333,1197.0 1097.0,1203.0 C1104.6666666666667,1209.0 1112.3333333333333,1217.0 1117.0,1226.0 C1121.6666666666667,1235.0 1125.1666666666667,1245.6666666666667 1125.0,1257.0 C1124.8333333333333,1268.3333333333333 1122.0,1283.3333333333333 1116.0,1294.0 C1110.0,1304.6666666666667 1099.3333333333333,1315.0 1089.0,1321.0 C1078.6666666666667,1327.0 1065.0,1329.6666666666667 1054.0,1330.0 C1043.0,1330.3333333333333 1032.1666666666667,1327.3333333333333 1023.0,1323.0 C1013.8333333333334,1318.6666666666667 1005.3333333333334,1311.8333333333333 999.0,1304.0 C992.6666666666666,1296.1666666666667 985.0,1276.0 985.0,1276.0 " fill="none" stroke="#000000" stroke-width="1"/>
      <polyline fill="none" points="985.0,1242.0 990.0,1242.0" stroke="#000000" stroke-width="1"/>
      <polyline fill="none" points="985.0,1276.0 990.0,1276.0" stroke="#000000" stroke-width="1"/>
      <polyline fill="none" marker-end="url(#id523)" points="1054.0,1210.0 1054.0,1192.0" stroke="#ff0000" stroke-width="1"/>
      <polyline fill="none" marker-end="url(#id523)" points="986.0,1258.0 1004.0,1258.0" stroke="#009900" stroke-width="1"/>
      <polyline fill="none" points="461.0,1241.0 461.0,1229.0 474.0,1229.0 474.0,1219.0" stroke="#000000" stroke-width="1"/>
      <polyline fill="none" points="461.0,1276.0 461.0,1288.0 474.0,1288.0 474.0,1299.0" stroke="#000000" stroke-width="1"/>
      <line stroke="#7f7f7f" stroke-width="1" x1="463.0" x2="463.0" y1="1273.0" y2="1244.0"/>
      <line stroke="#7f7f7f" stroke-width="1" x1="459.0" x2="459.0" y1="1273.0" y2="1244.0"/>
      <line stroke="#7f7f7f" stroke-width="1" x1="455.0" x2="455.0" y1="1273.0" y2="1244.0"/>
      <line stroke="#7f7f7f" stroke-width="1" x1="451.0" x2="451.0" y1="1273.0" y2="1244.0"/>
      <line stroke="#7f7f7f" stroke-width="1" x1="447.0" x2="447.0" y1="1273.0" y2="1244.0"/>
      <line stroke="#7f7f7f" stroke-width="1" x1="443.0" x2="443.0" y1="1273.0" y2="1244.0"/>
      <line stroke="#7f7f7f" stroke-width="1" x1="439.0" x2="439.0" y1="1273.0" y2="1244.0"/>
      <line stroke="#7f7f7f" stroke-width="1" x1="435.0" x2="435.0" y1="1273.0" y2="1244.0"/>
      <line stroke="#7f7f7f" stroke-width="1" x1="431.0" x2="431.0" y1="1273.0" y2="1244.0"/>
      <line stroke="#7f7f7f" stroke-width="1" x1="427.0" x2="427.0" y1="1273.0" y2="1244.0"/>
      <line stroke="#7f7f7f" stroke-width="1" x1="423.0" x2="423.0" y1="1273.0" y2="1244.0"/>
      <line stroke="#7f7f7f" stroke-width="1" x1="419.0" x2="419.0" y1="1273.0" y2="1244.0"/>
      <line stroke="#7f7f7f" stroke-width="1" x1="415.0" x2="415.0" y1="1273.0" y2="1244.0"/>
      <line stroke="#7f7f7f" stroke-width="1" x1="411.0" x2="411.0" y1="1273.0" y2="1244.0"/>
      <line stroke="#7f7f7f" stroke-width="1" x1="407.0" x2="407.0" y1="1273.0" y2="1244.0"/>
      <line stroke="#7f7f7f" stroke-width="1" x1="403.0" x2="403.0" y1="1273.0" y2="1244.0"/>
      <line stroke="#7f7f7f" stroke-width="1" x1="399.0" x2="399.0" y1="1273.0" y2="1244.0"/>
      <line stroke="#7f7f7f" stroke-width="1" x1="395.0" x2="395.0" y1="1273.0" y2="1244.0"/>
      <line stroke="#7f7f7f" stroke-width="1" x1="391.0" x2="391.0" y1="1273.0" y2="1244.0"/>
      <line stroke="#7f7f7f" stroke-width="1" x1="387.0" x2="387.0" y1="1273.0" y2="1244.0"/>
      <line stroke="#7f7f7f" stroke-width="1" x1="383.0" x2="383.0" y1="1273.0" y2="1244.0"/>
      <line stroke="#7f7f7f" stroke-width="1" x1="379.0" x2="379.0" y1="1273.0" y2="1244.0"/>
      <polygon fill="#9b5509" points="470.0,1244.0 372.0,1244.0 372.0,1241.0 470.0,1241.0" stroke="#000000" stroke-width="1"/>
      <polygon fill="#9b5509" points="470.0,1251.0 470.0,1255.0 372.0,1255.0 372.0,1251.0" stroke="#000000" stroke-width="1"/>
      <polygon fill="#9b5509" points="470.0,1262.0 470.0,1266.0 372.0,1266.0 372.0,1262.0" stroke="#000000" stroke-width="1"/>
      <polygon fill="#9b5509" points="470.0,1273.0 372.0,1273.0 372.0,1276.0 470.0,1276.0" stroke="#000000" stroke-width="1"/>
      <polygon fill="#2d3c9b" points="154.0,1021.0 124.0,1021.0 124.0,571.0 154.0,571.0" stroke="#000000" stroke-width="1"/>
      <polygon fill="#2d3c9b" points="264.0,1021.0 234.0,1021.0 234.0,571.0 264.0,571.0" stroke="#000000" stroke-width="1"/>
      <text fill="#2d3c9b" font-family="Arial" font-size="20.0" stroke="none" stroke-width="0" transform="rotate(-90.0,99.0,1021.0)" x="99.0" y="1041.0">&lt;&lt; O'zbekiston</text>
      <text fill="#2d3c9b" font-family="Arial" font-size="20.0" stroke="none" stroke-width="0" transform="rotate(-90.0,264.0,718.0)" x="264.0" y="738.0">G'afur G'ulom &gt;&gt;</text>
      <text fill="#2d3c9b" font-family="Arial" font-size="25.0" stroke="none" stroke-width="0" transform="rotate(-90.0,178.0,878.0)" x="178.0" y="903.0">Alisher Navoiy</text>
      <polyline fill="none" points="154.0,571.0 168.0,571.0 168.0,559.0 176.0,559.0" stroke="#000000" stroke-width="1"/>
      <polyline fill="none" points="176.0,439.0 133.0,439.0 133.0,372.0 140.0,372.0 140.0,359.0 70.0,359.0 70.0,287.0" stroke="#000000" stroke-width="1"/>
      <polyline fill="none" points="90.0,287.0 90.0,339.0 303.0,339.0 303.0,289.0" stroke="#000000" stroke-width="1"/>
      <polyline fill="none" points="320.0,289.0 320.0,359.0 252.0,359.0 252.0,373.0 259.0,373.0 259.0,439.0 211.0,439.0" stroke="#000000" stroke-width="1"/>
      <polyline fill="none" points="211.0,559.0 219.0,559.0 219.0,571.0 234.0,571.0" stroke="#000000" stroke-width="1"/>
      <line stroke="#000000" stroke-width="1" x1="303.0" x2="320.0" y1="291.0" y2="291.0"/>
      <line stroke="#000000" stroke-width="1" x1="303.0" x2="320.0" y1="295.0" y2="295.0"/>
      <line stroke="#000000" stroke-width="1" x1="303.0" x2="320.0" y1="299.0" y2="299.0"/>
      <line stroke="#000000" stroke-width="1" x1="303.0" x2="320.0" y1="303.0" y2="303.0"/>
      <line stroke="#000000" stroke-width="1" x1="303.0" x2="320.0" y1="307.0" y2="307.0"/>
      <line stroke="#000000" stroke-width="1" x1="303.0" x2="320.0" y1="311.0" y2="311.0"/>
      <line stroke="#000000" stroke-width="1" x1="303.0" x2="320.0" y1="315.0" y2="315.0"/>
      <line stroke="#000000" stroke-width="1" x1="303.0" x2="320.0" y1="319.0" y2="319.0"/>
      <line stroke="#000000" stroke-width="1" x1="303.0" x2="320.0" y1="323.0" y2="323.0"/>
      <line stroke="#000000" stroke-width="1" x1="303.0" x2="320.0" y1="327.0" y2="327.0"/>
      <line stroke="#000000" stroke-width="1" x1="303.0" x2="320.0" y1="331.0" y2="331.0"/>
      <line stroke="#000000" stroke-width="1" x1="303.0" x2="320.0" y1="335.0" y2="335.0"/>
      <line stroke="#000000" stroke-width="1" x1="90.0" x2="70.0" y1="289.0" y2="289.0"/>
      <line stroke="#000000" stroke-width="1" x1="90.0" x2="70.0" y1="293.0" y2="293.0"/>
      <line stroke="#000000" stroke-width="1" x1="90.0" x2="70.0" y1="297.0" y2="297.0"/>
      <line stroke="#000000" stroke-width="1" x1="90.0" x2="70.0" y1="301.0" y2="301.0"/>
      <line stroke="#000000" stroke-width="1" x1="90.0" x2="70.0" y1="305.0" y2="305.0"/>
      <line stroke="#000000" stroke-width="1" x1="90.0" x2="70.0" y1="309.0" y2="309.0"/>
      <line stroke="#000000" stroke-width="1" x1="90.0" x2="70.0" y1="313.0" y2="313.0"/>
      <line stroke="#000000" stroke-width="1" x1="90.0" x2="70.0" y1="317.0" y2="317.0"/>
      <line stroke="#000000" stroke-width="1" x1="90.0" x2="70.0" y1="321.0" y2="321.0"/>
      <line stroke="#000000" stroke-width="1" x1="90.0" x2="70.0" y1="325.0" y2="325.0"/>
      <line stroke="#000000" stroke-width="1" x1="90.0" x2="70.0" y1="329.0" y2="329.0"/>
      <line stroke="#000000" stroke-width="1" x1="90.0" x2="70.0" y1="333.0" y2="333.0"/>
      <line stroke="#000000" stroke-width="1" x1="90.0" x2="70.0" y1="337.0" y2="337.0"/>
      <polygon fill="#d0d0d0" points="217.0,373.0 174.0,373.0 174.0,359.0 217.0,359.0" stroke="#000000" stroke-width="1"/>
      <line stroke="#7f7f7f" stroke-width="1" x1="179.0" x2="208.0" y1="561.0" y2="561.0"/>
      <line stroke="#7f7f7f" stroke-width="1" x1="179.0" x2="208.0" y1="557.0" y2="557.0"/>
      <line stroke="#7f7f7f" stroke-width="1" x1="179.0" x2="208.0" y1="553.0" y2="553.0"/>
      <line stroke="#7f7f7f" stroke-width="1" x1="179.0" x2="208.0" y1="549.0" y2="549.0"/>
      <line stroke="#7f7f7f" stroke-width="1" x1="179.0" x2="208.0" y1="545.0" y2="545.0"/>
      <line stroke="#7f7f7f" stroke-width="1" x1="179.0" x2="208.0" y1="541.0" y2="541.0"/>
      <line stroke="#7f7f7f" stroke-width="1" x1="179.0" x2="208.0" y1="537.0" y2="537.0"/>
      <line stroke="#7f7f7f" stroke-width="1" x1="179.0" x2="208.0" y1="533.0" y2="533.0"/>
      <line stroke="#7f7f7f" stroke-width="1" x1="179.0" x2="208.0" y1="529.0" y2="529.0"/>
      <line stroke="#7f7f7f" stroke-width="1" x1="179.0" x2="208.0" y1="525.0" y2="525.0"/>
      <line stroke="#7f7f7f" stroke-width="1" x1="179.0" x2="208.0" y1="521.0" y2="521.0"/>
      <line stroke="#7f7f7f" stroke-width="1" x1="179.0" x2="208.0" y1="517.0" y2="517.0"/>
      <line stroke="#7f7f7f" stroke-width="1" x1="179.0" x2="208.0" y1="513.0" y2="513.0"/>
      <line stroke="#7f7f7f" stroke-width="1" x1="179.0" x2="208.0" y1="509.0" y2="509.0"/>
      <line stroke="#7f7f7f" stroke-width="1" x1="179.0" x2="208.0" y1="505.0" y2="505.0"/>
      <line stroke="#7f7f7f" stroke-width="1" x1="179.0" x2="208.0" y1="501.0" y2="501.0"/>
      <line stroke="#7f7f7f" stroke-width="1" x1="179.0" x2="208.0" y1="497.0" y2="497.0"/>
      <line stroke="#7f7f7f" stroke-width="1" x1="179.0" x2="208.0" y1="493.0" y2="493.0"/>
      <line stroke="#7f7f7f" stroke-width="1" x1="179.0" x2="208.0" y1="489.0" y2="489.0"/>
      <line stroke="#7f7f7f" stroke-width="1" x1="179.0" x2="208.0" y1="485.0" y2="485.0"/>
      <line stroke="#7f7f7f" stroke-width="1" x1="179.0" x2="208.0" y1="481.0" y2="481.0"/>
      <line stroke="#7f7f7f" stroke-width="1" x1="179.0" x2="208.0" y1="477.0" y2="477.0"/>
      <line stroke="#7f7f7f" stroke-width="1" x1="179.0" x2="208.0" y1="473.0" y2="473.0"/>
      <line stroke="#7f7f7f" stroke-width="1" x1="179.0" x2="208.0" y1="469.0" y2="469.0"/>
      <line stroke="#7f7f7f" stroke-width="1" x1="179.0" x2="208.0" y1="465.0" y2="465.0"/>
      <line stroke="#7f7f7f" stroke-width="1" x1="179.0" x2="208.0" y1="461.0" y2="461.0"/>
      <line stroke="#7f7f7f" stroke-width="1" x1="179.0" x2="208.0" y1="457.0" y2="457.0"/>
      <line stroke="#7f7f7f" stroke-width="1" x1="179.0" x2="208.0" y1="453.0" y2="453.0"/>
      <line stroke="#7f7f7f" stroke-width="1" x1="179.0" x2="208.0" y1="449.0" y2="449.0"/>
      <line stroke="#7f7f7f" stroke-width="1" x1="179.0" x2="208.0" y1="445.0" y2="445.0"/>
      <line stroke="#7f7f7f" stroke-width="1" x1="179.0" x2="208.0" y1="441.0" y2="441.0"/>
      <line stroke="#7f7f7f" stroke-width="1" x1="179.0" x2="208.0" y1="437.0" y2="437.0"/>
      <line stroke="#7f7f7f" stroke-width="1" x1="179.0" x2="208.0" y1="433.0" y2="433.0"/>
      <polygon fill="#9b5509" points="176.0,567.0 176.0,428.0 179.0,428.0 179.0,567.0" stroke="#000000" stroke-width="1"/>
      <polygon fill="#9b5509" points="186.0,567.0 186.0,428.0 190.0,428.0 190.0,567.0" stroke="#000000" stroke-width="1"/>
      <polygon fill="#9b5509" points="197.0,567.0 197.0,428.0 201.0,428.0 201.0,567.0" stroke="#000000" stroke-width="1"/>
      <polygon fill="#9b5509" points="208.0,567.0 208.0,428.0 211.0,428.0 211.0,567.0" stroke="#000000" stroke-width="1"/>
      <polyline fill="none" points="234.0,1021.0 220.0,1021.0 220.0,1032.0 212.0,1032.0" stroke="#000000" stroke-width="1"/>
      <polyline fill="none" points="177.0,1032.0 169.0,1032.0 169.0,1021.0 154.0,1021.0" stroke="#000000" stroke-width="1"/>
      <line stroke="#7f7f7f" stroke-width="1" x1="180.0" x2="209.0" y1="1158.0" y2="1158.0"/>
      <line stroke="#7f7f7f" stroke-width="1" x1="180.0" x2="209.0" y1="1154.0" y2="1154.0"/>
      <line stroke="#7f7f7f" stroke-width="1" x1="180.0" x2="209.0" y1="1150.0" y2="1150.0"/>
      <line stroke="#7f7f7f" stroke-width="1" x1="180.0" x2="209.0" y1="1146.0" y2="1146.0"/>
      <line stroke="#7f7f7f" stroke-width="1" x1="180.0" x2="209.0" y1="1142.0" y2="1142.0"/>
      <line stroke="#7f7f7f" stroke-width="1" x1="180.0" x2="209.0" y1="1138.0" y2="1138.0"/>
      <line stroke="#7f7f7f" stroke-width="1" x1="180.0" x2="209.0" y1="1134.0" y2="1134.0"/>
      <line stroke="#7f7f7f" stroke-width="1" x1="180.0" x2="209.0" y1="1130.0" y2="1130.0"/>
      <line stroke="#7f7f7f" stroke-width="1" x1="180.0" x2="209.0" y1="1126.0" y2="1126.0"/>
      <line stroke="#7f7f7f" stroke-width="1" x1="180.0" x2="209.0" y1="1122.0" y2="1122.0"/>
      <line stroke="#7f7f7f" stroke-width="1" x1="180.0" x2="209.0" y1="1118.0" y2="1118.0"/>
      <line stroke="#7f7f7f" stroke-width="1" x1="180.0" x2="209.0" y1="1114.0" y2="1114.0"/>
      <line stroke="#7f7f7f" stroke-width="1" x1="180.0" x2="209.0" y1="1110.0" y2="1110.0"/>
      <line stroke="#7f7f7f" stroke-width="1" x1="180.0" x2="209.0" y1="1106.0" y2="1106.0"/>
      <line stroke="#7f7f7f" stroke-width="1" x1="180.0" x2="209.0" y1="1102.0" y2="1102.0"/>
      <line stroke="#7f7f7f" stroke-width="1" x1="180.0" x2="209.0" y1="1098.0" y2="1098.0"/>
      <line stroke="#7f7f7f" stroke-width="1" x1="180.0" x2="209.0" y1="1094.0" y2="1094.0"/>
      <line stroke="#7f7f7f" stroke-width="1" x1="180.0" x2="209.0" y1="1090.0" y2="1090.0"/>
      <line stroke="#7f7f7f" stroke-width="1" x1="180.0" x2="209.0" y1="1086.0" y2="1086.0"/>
      <line stroke="#7f7f7f" stroke-width="1" x1="180.0" x2="209.0" y1="1082.0" y2="1082.0"/>
      <line stroke="#7f7f7f" stroke-width="1" x1="180.0" x2="209.0" y1="1078.0" y2="1078.0"/>
      <line stroke="#7f7f7f" stroke-width="1" x1="180.0" x2="209.0" y1="1074.0" y2="1074.0"/>
      <line stroke="#7f7f7f" stroke-width="1" x1="180.0" x2="209.0" y1="1070.0" y2="1070.0"/>
      <line stroke="#7f7f7f" stroke-width="1" x1="180.0" x2="209.0" y1="1066.0" y2="1066.0"/>
      <line stroke="#7f7f7f" stroke-width="1" x1="180.0" x2="209.0" y1="1062.0" y2="1062.0"/>
      <line stroke="#7f7f7f" stroke-width="1" x1="180.0" x2="209.0" y1="1058.0" y2="1058.0"/>
      <line stroke="#7f7f7f" stroke-width="1" x1="180.0" x2="209.0" y1="1054.0" y2="1054.0"/>
      <line stroke="#7f7f7f" stroke-width="1" x1="180.0" x2="209.0" y1="1050.0" y2="1050.0"/>
      <line stroke="#7f7f7f" stroke-width="1" x1="180.0" x2="209.0" y1="1046.0" y2="1046.0"/>
      <line stroke="#7f7f7f" stroke-width="1" x1="180.0" x2="209.0" y1="1042.0" y2="1042.0"/>
      <line stroke="#7f7f7f" stroke-width="1" x1="180.0" x2="209.0" y1="1038.0" y2="1038.0"/>
      <line stroke="#7f7f7f" stroke-width="1" x1="180.0" x2="209.0" y1="1034.0" y2="1034.0"/>
      <line stroke="#7f7f7f" stroke-width="1" x1="180.0" x2="209.0" y1="1030.0" y2="1030.0"/>
      <polygon fill="#9b5509" points="177.0,1164.0 177.0,1025.0 180.0,1025.0 180.0,1164.0" stroke="#000000" stroke-width="1"/>
      <polygon fill="#9b5509" points="187.0,1164.0 187.0,1025.0 191.0,1025.0 191.0,1164.0" stroke="#000000" stroke-width="1"/>
      <polygon fill="#9b5509" points="198.0,1164.0 198.0,1025.0 202.0,1025.0 202.0,1164.0" stroke="#000000" stroke-width="1"/>
      <polygon fill="#9b5509" points="209.0,1164.0 209.0,1025.0 212.0,1025.0 212.0,1164.0" stroke="#000000" stroke-width="1"/>
      <polyline fill="none" points="75.0,1426.0 314.0,1426.0" stroke="#000000" stroke-width="1"/>
      <polyline fill="none" points="314.0,1409.0 250.0,1409.0 250.0,1395.0 257.0,1395.0 257.0,1330.0 381.0,1330.0 381.0,1276.0" stroke="#000000" stroke-width="1"/>
      <polyline fill="none" points="381.0,1241.0 381.0,1187.0 266.0,1187.0 266.0,1156.0 212.0,1156.0" stroke="#000000" stroke-width="1"/>
      <polyline fill="none" points="75.0,1409.0 138.0,1409.0 138.0,1395.0 131.0,1395.0 131.0,1156.0 177.0,1156.0" stroke="#000000" stroke-width="1"/>
      <line stroke="#000000" stroke-width="1" x1="77.0" x2="77.0" y1="1409.0" y2="1426.0"/>
      <line stroke="#000000" stroke-width="1" x1="81.0" x2="81.0" y1="1409.0" y2="1426.0"/>
      <line stroke="#000000" stroke-width="1" x1="85.0" x2="85.0" y1="1409.0" y2="1426.0"/>
      <line stroke="#000000" stroke-width="1" x1="89.0" x2="89.0" y1="1409.0" y2="1426.0"/>
      <line stroke="#000000" stroke-width="1" x1="93.0" x2="93.0" y1="1409.0" y2="1426.0"/>
      <line stroke="#000000" stroke-width="1" x1="97.0" x2="97.0" y1="1409.0" y2="1426.0"/>
      <line stroke="#000000" stroke-width="1" x1="101.0" x2="101.0" y1="1409.0" y2="1426.0"/>
      <line stroke="#000000" stroke-width="1" x1="105.0" x2="105.0" y1="1409.0" y2="1426.0"/>
      <line stroke="#000000" stroke-width="1" x1="109.0" x2="109.0" y1="1409.0" y2="1426.0"/>
      <line stroke="#000000" stroke-width="1" x1="113.0" x2="113.0" y1="1409.0" y2="1426.0"/>
      <line stroke="#000000" stroke-width="1" x1="117.0" x2="117.0" y1="1409.0" y2="1426.0"/>
      <line stroke="#000000" stroke-width="1" x1="121.0" x2="121.0" y1="1409.0" y2="1426.0"/>
      <line stroke="#000000" stroke-width="1" x1="312.0" x2="312.0" y1="1409.0" y2="1426.0"/>
      <line stroke="#000000" stroke-width="1" x1="308.0" x2="308.0" y1="1409.0" y2="1426.0"/>
      <line stroke="#000000" stroke-width="1" x1="304.0" x2="304.0" y1="1409.0" y2="1426.0"/>
      <line stroke="#000000" stroke-width="1" x1="300.0" x2="300.0" y1="1409.0" y2="1426.0"/>
      <line stroke="#000000" stroke-width="1" x1="296.0" x2="296.0" y1="1409.0" y2="1426.0"/>
      <line stroke="#000000" stroke-width="1" x1="292.0" x2="292.0" y1="1409.0" y2="1426.0"/>
      <line stroke="#000000" stroke-width="1" x1="288.0" x2="288.0" y1="1409.0" y2="1426.0"/>
      <line stroke="#000000" stroke-width="1" x1="284.0" x2="284.0" y1="1409.0" y2="1426.0"/>
      <line stroke="#000000" stroke-width="1" x1="280.0" x2="280.0" y1="1409.0" y2="1426.0"/>
      <line stroke="#000000" stroke-width="1" x1="276.0" x2="276.0" y1="1409.0" y2="1426.0"/>
      <line stroke="#000000" stroke-width="1" x1="272.0" x2="272.0" y1="1409.0" y2="1426.0"/>
      <line stroke="#000000" stroke-width="1" x1="268.0" x2="268.0" y1="1409.0" y2="1426.0"/>
      <polygon fill="#d0d0d0" points="218.0,1409.0 168.0,1409.0 168.0,1395.0 218.0,1395.0" stroke="#000000" stroke-width="1"/>
      <text fill="#00afaf" font-family="Arial" font-size="15.0" stroke="none" stroke-width="0" transform="rotate(-90.0,187.0,299.0)" x="187.0" y="314.0">улица Батыра Закирова</text>
      <text fill="#00afaf" font-family="Arial" font-size="15.0" stroke="none" stroke-width="0" x="170.0" y="54.0">проспект Навои</text>
    </g>
  </g>
</svg>
