<svg xmlns="http://www.w3.org/2000/svg" version="1.1">
<defs>
    <marker id="arrow"
      viewBox="0 0 10 10" refX="0" refY="5"
      markerUnits="strokeWidth"
      markerWidth="4" markerHeight="3"
      orient="auto">
      <path d="M 0 0 L 10 5 L 0 10 z" />
    </marker>
  </defs>
<g stroke="#000000" fill="none" stroke-opacity="1.0" fill-opacity="1.0" transform="scale(0.5)">
<rect x="0" y="0" width="1090" height="1440" stroke-width="0" fill="none" />
<g stroke="#000000" fill="none" stroke-opacity="1.0" fill-opacity="1.0" transform="scale(0.5)">
</g>
<g transform="rotate(5.0 545 720)" >
<g stroke="#000000" fill="none" stroke-opacity="1.0" fill-opacity="1.0" transform="scale(0.5)">
</g>
<g stroke="#000000" fill="#F52D35" stroke-opacity="1.0" fill-opacity="1.0" transform="scale(0.5)">
<polygon points="474,1219  474,1189  924,1189  924,1219" stroke-width="1" />
<polygon points="474,1329  474,1299  924,1299  924,1329" stroke-width="1" />
</g>
<g stroke="#F52D35" fill="none" stroke-opacity="1.0" fill-opacity="1.0" transform="scale(0.5)">
<text x=" 474" y="1184.0" font-family="Arial" font-size=" 20" fill="#F52D35" stroke-width="0">&lt;&lt; Bunyodkor</text>
<text x=" 735" y="1349.0" font-family="Arial" font-size=" 20" fill="#F52D35" stroke-width="0">Mustaqillik Maydoni &gt;&gt;</text>
<text x=" 654" y="1267.0" font-family="Arial" font-size=" 25" fill="#F52D35" stroke-width="0">Paxtakor</text>
</g>
<g stroke="#000000" fill="none" stroke-opacity="1.0" fill-opacity="1.0" transform="scale(0.5)">
<polyline points="937,1241  937,1229  924,1229  924,1219" stroke-width="1" fill="none"  />
<polyline points="937,1276  937,1288  924,1288  924,1299" stroke-width="1" fill="none"  />
<polyline points="1037,1190  1037,1195" stroke-width="1" fill="none"  />
<polyline points="1071,1195  1071,1190" stroke-width="1" fill="none"  />
</g>
<g stroke="#7F7F7F" fill="none" stroke-opacity="1.0" fill-opacity="1.0" transform="scale(0.5)">
<line x1="1050" y1="1273" x2="1050" y2="1244" stroke-width="1" />
<line x1="1046" y1="1273" x2="1046" y2="1244" stroke-width="1" />
<line x1="1042" y1="1273" x2="1042" y2="1244" stroke-width="1" />
<line x1="1038" y1="1273" x2="1038" y2="1244" stroke-width="1" />
<line x1="1034" y1="1273" x2="1034" y2="1244" stroke-width="1" />
<line x1="1030" y1="1273" x2="1030" y2="1244" stroke-width="1" />
<line x1="1026" y1="1273" x2="1026" y2="1244" stroke-width="1" />
<line x1="1022" y1="1273" x2="1022" y2="1244" stroke-width="1" />
<line x1="1018" y1="1273" x2="1018" y2="1244" stroke-width="1" />
<line x1="1014" y1="1273" x2="1014" y2="1244" stroke-width="1" />
<line x1="1010" y1="1273" x2="1010" y2="1244" stroke-width="1" />
<line x1="1006" y1="1273" x2="1006" y2="1244" stroke-width="1" />
<line x1="1002" y1="1273" x2="1002" y2="1244" stroke-width="1" />
<line x1="998" y1="1273" x2="998" y2="1244" stroke-width="1" />
<line x1="994" y1="1273" x2="994" y2="1244" stroke-width="1" />
<line x1="990" y1="1273" x2="990" y2="1244" stroke-width="1" />
<line x1="986" y1="1273" x2="986" y2="1244" stroke-width="1" />
<line x1="982" y1="1273" x2="982" y2="1244" stroke-width="1" />
<line x1="978" y1="1273" x2="978" y2="1244" stroke-width="1" />
<line x1="974" y1="1273" x2="974" y2="1244" stroke-width="1" />
<line x1="970" y1="1273" x2="970" y2="1244" stroke-width="1" />
<line x1="966" y1="1273" x2="966" y2="1244" stroke-width="1" />
<line x1="962" y1="1273" x2="962" y2="1244" stroke-width="1" />
<line x1="958" y1="1273" x2="958" y2="1244" stroke-width="1" />
<line x1="954" y1="1273" x2="954" y2="1244" stroke-width="1" />
<line x1="950" y1="1273" x2="950" y2="1244" stroke-width="1" />
<line x1="946" y1="1273" x2="946" y2="1244" stroke-width="1" />
<line x1="942" y1="1273" x2="942" y2="1244" stroke-width="1" />
<line x1="938" y1="1273" x2="938" y2="1244" stroke-width="1" />
<line x1="934" y1="1273" x2="934" y2="1244" stroke-width="1" />
</g>
<g stroke="#000000" fill="#9B5509" stroke-opacity="1.0" fill-opacity="1.0" transform="scale(0.5)">
<polygon points="1057,1244  930,1244  930,1241  1057,1241" stroke-width="1" />
<polygon points="1057,1251  1057,1255  930,1255  930,1251" stroke-width="1" />
<polygon points="1057,1262  1057,1266  930,1266  930,1262" stroke-width="1" />
<polygon points="1057,1273  930,1273  930,1276  1057,1276" stroke-width="1" />
</g>
<g stroke="#FFFFFF" fill="#FFFFFF" stroke-opacity="0.95" fill-opacity="0.95" transform="scale(0.5)">
<polygon points="949,1239  1032,1239  1032,1279  949,1278" stroke-width="1" />
</g>
<g stroke="#000000" fill="#FFFFFF" stroke-opacity="1.0" fill-opacity="1.0" transform="scale(0.5)">
<polyline points="1032,1241  1032,1276" stroke-width="1" fill="none"  />
<polyline points="949,1241  949,1276" stroke-width="1" fill="none"  />
<polyline points="985,1242  1004,1209  1037,1190" stroke-width="1" fill="none"/> <!-- spline -->
<polyline points="1071,1190  1097,1203  1117,1226  1125,1257  1116,1294  1089,1321  1054,1330  1023,1323  999,1304  985,1276" stroke-width="1" fill="none"/> <!-- spline -->
<polyline points="985,1242  990,1242" stroke-width="1" fill="none"  />
<polyline points="985,1276  990,1276" stroke-width="1" fill="none"  />
</g>
<g stroke="#FF0000" fill="#FFFFFF" stroke-opacity="1.0" fill-opacity="1.0" transform="scale(0.5)">
<polyline points="1054,1210  1054,1192" marker-end="url(#arrow)" stroke-width="1" fill="none" />
</g>
<g stroke="#009900" fill="#FFFFFF" stroke-opacity="1.0" fill-opacity="1.0" transform="scale(0.5)">
<polyline points="986,1258  1004,1258" marker-end="url(#arrow)" stroke-width="1" fill="none" />
</g>
<g stroke="#000000" fill="#D0D0D0" stroke-opacity="1.0" fill-opacity="1.0" transform="scale(0.5)">
<polyline points="461,1241  461,1229  474,1229  474,1219" stroke-width="1" fill="none"  />
<polyline points="461,1276  461,1288  474,1288  474,1299" stroke-width="1" fill="none"  />
</g>
<g stroke="#7F7F7F" fill="#D0D0D0" stroke-opacity="1.0" fill-opacity="1.0" transform="scale(0.5)">
<line x1="463" y1="1273" x2="463" y2="1244" stroke-width="1" />
<line x1="459" y1="1273" x2="459" y2="1244" stroke-width="1" />
<line x1="455" y1="1273" x2="455" y2="1244" stroke-width="1" />
<line x1="451" y1="1273" x2="451" y2="1244" stroke-width="1" />
<line x1="447" y1="1273" x2="447" y2="1244" stroke-width="1" />
<line x1="443" y1="1273" x2="443" y2="1244" stroke-width="1" />
<line x1="439" y1="1273" x2="439" y2="1244" stroke-width="1" />
<line x1="435" y1="1273" x2="435" y2="1244" stroke-width="1" />
<line x1="431" y1="1273" x2="431" y2="1244" stroke-width="1" />
<line x1="427" y1="1273" x2="427" y2="1244" stroke-width="1" />
<line x1="423" y1="1273" x2="423" y2="1244" stroke-width="1" />
<line x1="419" y1="1273" x2="419" y2="1244" stroke-width="1" />
<line x1="415" y1="1273" x2="415" y2="1244" stroke-width="1" />
<line x1="411" y1="1273" x2="411" y2="1244" stroke-width="1" />
<line x1="407" y1="1273" x2="407" y2="1244" stroke-width="1" />
<line x1="403" y1="1273" x2="403" y2="1244" stroke-width="1" />
<line x1="399" y1="1273" x2="399" y2="1244" stroke-width="1" />
<line x1="395" y1="1273" x2="395" y2="1244" stroke-width="1" />
<line x1="391" y1="1273" x2="391" y2="1244" stroke-width="1" />
<line x1="387" y1="1273" x2="387" y2="1244" stroke-width="1" />
<line x1="383" y1="1273" x2="383" y2="1244" stroke-width="1" />
<line x1="379" y1="1273" x2="379" y2="1244" stroke-width="1" />
</g>
<g stroke="#000000" fill="#9B5509" stroke-opacity="1.0" fill-opacity="1.0" transform="scale(0.5)">
<polygon points="470,1244  372,1244  372,1241  470,1241" stroke-width="1" />
<polygon points="470,1251  470,1255  372,1255  372,1251" stroke-width="1" />
<polygon points="470,1262  470,1266  372,1266  372,1262" stroke-width="1" />
<polygon points="470,1273  372,1273  372,1276  470,1276" stroke-width="1" />
</g>
<g stroke="#000000" fill="#2D3C9B" stroke-opacity="1.0" fill-opacity="1.0" transform="scale(0.5)">
<polygon points="154,1021  124,1021  124,571  154,571" stroke-width="1" />
<polygon points="264,1021  234,1021  234,571  264,571" stroke-width="1" />
</g>
<g stroke="#2D3C9B" fill="none" stroke-opacity="1.0" fill-opacity="1.0" transform="scale(0.5)">
<text x=" 99" y="1041.0" font-family="Arial" font-size=" 20" fill="#2D3C9B" transform="rotate(-90.0  99  1021)" stroke-width="0">&lt;&lt; O'zbekiston</text>
<text x=" 264" y="738.0" font-family="Arial" font-size=" 20" fill="#2D3C9B" transform="rotate(-90.0  264  718)" stroke-width="0">G'afur G'ulom &gt;&gt;</text>
<text x=" 178" y="903.0" font-family="Arial" font-size=" 25" fill="#2D3C9B" transform="rotate(-90.0  178  878)" stroke-width="0">Alisher Navoiy</text>
</g>
<g stroke="#000000" fill="none" stroke-opacity="1.0" fill-opacity="1.0" transform="scale(0.5)">
<polyline points="154,571  168,571  168,559  176,559" stroke-width="1" fill="none"  />
<polyline points="176,439  133,439  133,372  140,372  140,359  70,359  70,287" stroke-width="1" fill="none"  />
<polyline points="90,287  90,339  303,339  303,289" stroke-width="1" fill="none"  />
<polyline points="320,289  320,359  252,359  252,373  259,373  259,439  211,439" stroke-width="1" fill="none"  />
<polyline points="211,559  219,559  219,571  234,571" stroke-width="1" fill="none"  />
<line x1="303" y1="291" x2="320" y2="291" stroke-width="1" />
<line x1="303" y1="295" x2="320" y2="295" stroke-width="1" />
<line x1="303" y1="299" x2="320" y2="299" stroke-width="1" />
<line x1="303" y1="303" x2="320" y2="303" stroke-width="1" />
<line x1="303" y1="307" x2="320" y2="307" stroke-width="1" />
<line x1="303" y1="311" x2="320" y2="311" stroke-width="1" />
<line x1="303" y1="315" x2="320" y2="315" stroke-width="1" />
<line x1="303" y1="319" x2="320" y2="319" stroke-width="1" />
<line x1="303" y1="323" x2="320" y2="323" stroke-width="1" />
<line x1="303" y1="327" x2="320" y2="327" stroke-width="1" />
<line x1="303" y1="331" x2="320" y2="331" stroke-width="1" />
<line x1="303" y1="335" x2="320" y2="335" stroke-width="1" />
<line x1="90" y1="289" x2="70" y2="289" stroke-width="1" />
<line x1="90" y1="293" x2="70" y2="293" stroke-width="1" />
<line x1="90" y1="297" x2="70" y2="297" stroke-width="1" />
<line x1="90" y1="301" x2="70" y2="301" stroke-width="1" />
<line x1="90" y1="305" x2="70" y2="305" stroke-width="1" />
<line x1="90" y1="309" x2="70" y2="309" stroke-width="1" />
<line x1="90" y1="313" x2="70" y2="313" stroke-width="1" />
<line x1="90" y1="317" x2="70" y2="317" stroke-width="1" />
<line x1="90" y1="321" x2="70" y2="321" stroke-width="1" />
<line x1="90" y1="325" x2="70" y2="325" stroke-width="1" />
<line x1="90" y1="329" x2="70" y2="329" stroke-width="1" />
<line x1="90" y1="333" x2="70" y2="333" stroke-width="1" />
<line x1="90" y1="337" x2="70" y2="337" stroke-width="1" />
</g>
<g stroke="#000000" fill="#D0D0D0" stroke-opacity="1.0" fill-opacity="1.0" transform="scale(0.5)">
<polygon points="217,373  174,373  174,359  217,359" stroke-width="1" />
</g>
<g stroke="#7F7F7F" fill="#D0D0D0" stroke-opacity="1.0" fill-opacity="1.0" transform="scale(0.5)">
<line x1="179" y1="561" x2="208" y2="561" stroke-width="1" />
<line x1="179" y1="557" x2="208" y2="557" stroke-width="1" />
<line x1="179" y1="553" x2="208" y2="553" stroke-width="1" />
<line x1="179" y1="549" x2="208" y2="549" stroke-width="1" />
<line x1="179" y1="545" x2="208" y2="545" stroke-width="1" />
<line x1="179" y1="541" x2="208" y2="541" stroke-width="1" />
<line x1="179" y1="537" x2="208" y2="537" stroke-width="1" />
<line x1="179" y1="533" x2="208" y2="533" stroke-width="1" />
<line x1="179" y1="529" x2="208" y2="529" stroke-width="1" />
<line x1="179" y1="525" x2="208" y2="525" stroke-width="1" />
<line x1="179" y1="521" x2="208" y2="521" stroke-width="1" />
<line x1="179" y1="517" x2="208" y2="517" stroke-width="1" />
<line x1="179" y1="513" x2="208" y2="513" stroke-width="1" />
<line x1="179" y1="509" x2="208" y2="509" stroke-width="1" />
<line x1="179" y1="505" x2="208" y2="505" stroke-width="1" />
<line x1="179" y1="501" x2="208" y2="501" stroke-width="1" />
<line x1="179" y1="497" x2="208" y2="497" stroke-width="1" />
<line x1="179" y1="493" x2="208" y2="493" stroke-width="1" />
<line x1="179" y1="489" x2="208" y2="489" stroke-width="1" />
<line x1="179" y1="485" x2="208" y2="485" stroke-width="1" />
<line x1="179" y1="481" x2="208" y2="481" stroke-width="1" />
<line x1="179" y1="477" x2="208" y2="477" stroke-width="1" />
<line x1="179" y1="473" x2="208" y2="473" stroke-width="1" />
<line x1="179" y1="469" x2="208" y2="469" stroke-width="1" />
<line x1="179" y1="465" x2="208" y2="465" stroke-width="1" />
<line x1="179" y1="461" x2="208" y2="461" stroke-width="1" />
<line x1="179" y1="457" x2="208" y2="457" stroke-width="1" />
<line x1="179" y1="453" x2="208" y2="453" stroke-width="1" />
<line x1="179" y1="449" x2="208" y2="449" stroke-width="1" />
<line x1="179" y1="445" x2="208" y2="445" stroke-width="1" />
<line x1="179" y1="441" x2="208" y2="441" stroke-width="1" />
<line x1="179" y1="437" x2="208" y2="437" stroke-width="1" />
<line x1="179" y1="433" x2="208" y2="433" stroke-width="1" />
</g>
<g stroke="#000000" fill="#9B5509" stroke-opacity="1.0" fill-opacity="1.0" transform="scale(0.5)">
<polygon points="176,567  176,428  179,428  179,567" stroke-width="1" />
<polygon points="186,567  186,428  190,428  190,567" stroke-width="1" />
<polygon points="197,567  197,428  201,428  201,567" stroke-width="1" />
<polygon points="208,567  208,428  211,428  211,567" stroke-width="1" />
</g>
<g stroke="#000000" fill="#9B5509" stroke-opacity="1.0" fill-opacity="1.0" transform="scale(0.5)">
<polyline points="234,1021  220,1021  220,1032  212,1032" stroke-width="1" fill="none"  />
<polyline points="177,1032  169,1032  169,1021  154,1021" stroke-width="1" fill="none"  />
</g>
<g stroke="#7F7F7F" fill="#9B5509" stroke-opacity="1.0" fill-opacity="1.0" transform="scale(0.5)">
<line x1="180" y1="1158" x2="209" y2="1158" stroke-width="1" />
<line x1="180" y1="1154" x2="209" y2="1154" stroke-width="1" />
<line x1="180" y1="1150" x2="209" y2="1150" stroke-width="1" />
<line x1="180" y1="1146" x2="209" y2="1146" stroke-width="1" />
<line x1="180" y1="1142" x2="209" y2="1142" stroke-width="1" />
<line x1="180" y1="1138" x2="209" y2="1138" stroke-width="1" />
<line x1="180" y1="1134" x2="209" y2="1134" stroke-width="1" />
<line x1="180" y1="1130" x2="209" y2="1130" stroke-width="1" />
<line x1="180" y1="1126" x2="209" y2="1126" stroke-width="1" />
<line x1="180" y1="1122" x2="209" y2="1122" stroke-width="1" />
<line x1="180" y1="1118" x2="209" y2="1118" stroke-width="1" />
<line x1="180" y1="1114" x2="209" y2="1114" stroke-width="1" />
<line x1="180" y1="1110" x2="209" y2="1110" stroke-width="1" />
<line x1="180" y1="1106" x2="209" y2="1106" stroke-width="1" />
<line x1="180" y1="1102" x2="209" y2="1102" stroke-width="1" />
<line x1="180" y1="1098" x2="209" y2="1098" stroke-width="1" />
<line x1="180" y1="1094" x2="209" y2="1094" stroke-width="1" />
<line x1="180" y1="1090" x2="209" y2="1090" stroke-width="1" />
<line x1="180" y1="1086" x2="209" y2="1086" stroke-width="1" />
<line x1="180" y1="1082" x2="209" y2="1082" stroke-width="1" />
<line x1="180" y1="1078" x2="209" y2="1078" stroke-width="1" />
<line x1="180" y1="1074" x2="209" y2="1074" stroke-width="1" />
<line x1="180" y1="1070" x2="209" y2="1070" stroke-width="1" />
<line x1="180" y1="1066" x2="209" y2="1066" stroke-width="1" />
<line x1="180" y1="1062" x2="209" y2="1062" stroke-width="1" />
<line x1="180" y1="1058" x2="209" y2="1058" stroke-width="1" />
<line x1="180" y1="1054" x2="209" y2="1054" stroke-width="1" />
<line x1="180" y1="1050" x2="209" y2="1050" stroke-width="1" />
<line x1="180" y1="1046" x2="209" y2="1046" stroke-width="1" />
<line x1="180" y1="1042" x2="209" y2="1042" stroke-width="1" />
<line x1="180" y1="1038" x2="209" y2="1038" stroke-width="1" />
<line x1="180" y1="1034" x2="209" y2="1034" stroke-width="1" />
<line x1="180" y1="1030" x2="209" y2="1030" stroke-width="1" />
</g>
<g stroke="#000000" fill="#9B5509" stroke-opacity="1.0" fill-opacity="1.0" transform="scale(0.5)">
<polygon points="177,1164  177,1025  180,1025  180,1164" stroke-width="1" />
<polygon points="187,1164  187,1025  191,1025  191,1164" stroke-width="1" />
<polygon points="198,1164  198,1025  202,1025  202,1164" stroke-width="1" />
<polygon points="209,1164  209,1025  212,1025  212,1164" stroke-width="1" />
</g>
<g stroke="#000000" fill="#9B5509" stroke-opacity="1.0" fill-opacity="1.0" transform="scale(0.5)">
<polyline points="75,1426  314,1426" stroke-width="1" fill="none"  />
<polyline points="314,1409  250,1409  250,1395  257,1395  257,1330  381,1330  381,1276" stroke-width="1" fill="none"  />
<polyline points="381,1241  381,1187  266,1187  266,1156  212,1156" stroke-width="1" fill="none"  />
<polyline points="75,1409  138,1409  138,1395  131,1395  131,1156  177,1156" stroke-width="1" fill="none"  />
<line x1="77" y1="1409" x2="77" y2="1426" stroke-width="1" />
<line x1="81" y1="1409" x2="81" y2="1426" stroke-width="1" />
<line x1="85" y1="1409" x2="85" y2="1426" stroke-width="1" />
<line x1="89" y1="1409" x2="89" y2="1426" stroke-width="1" />
<line x1="93" y1="1409" x2="93" y2="1426" stroke-width="1" />
<line x1="97" y1="1409" x2="97" y2="1426" stroke-width="1" />
<line x1="101" y1="1409" x2="101" y2="1426" stroke-width="1" />
<line x1="105" y1="1409" x2="105" y2="1426" stroke-width="1" />
<line x1="109" y1="1409" x2="109" y2="1426" stroke-width="1" />
<line x1="113" y1="1409" x2="113" y2="1426" stroke-width="1" />
<line x1="117" y1="1409" x2="117" y2="1426" stroke-width="1" />
<line x1="121" y1="1409" x2="121" y2="1426" stroke-width="1" />
<line x1="312" y1="1409" x2="312" y2="1426" stroke-width="1" />
<line x1="308" y1="1409" x2="308" y2="1426" stroke-width="1" />
<line x1="304" y1="1409" x2="304" y2="1426" stroke-width="1" />
<line x1="300" y1="1409" x2="300" y2="1426" stroke-width="1" />
<line x1="296" y1="1409" x2="296" y2="1426" stroke-width="1" />
<line x1="292" y1="1409" x2="292" y2="1426" stroke-width="1" />
<line x1="288" y1="1409" x2="288" y2="1426" stroke-width="1" />
<line x1="284" y1="1409" x2="284" y2="1426" stroke-width="1" />
<line x1="280" y1="1409" x2="280" y2="1426" stroke-width="1" />
<line x1="276" y1="1409" x2="276" y2="1426" stroke-width="1" />
<line x1="272" y1="1409" x2="272" y2="1426" stroke-width="1" />
<line x1="268" y1="1409" x2="268" y2="1426" stroke-width="1" />
</g>
<g stroke="#000000" fill="#D0D0D0" stroke-opacity="1.0" fill-opacity="1.0" transform="scale(0.5)">
<polygon points="218,1409  168,1409  168,1395  218,1395" stroke-width="1" />
</g>
<g stroke="#00AFAF" fill="none" stroke-opacity="1.0" fill-opacity="1.0" transform="scale(0.5)">
<text x=" 187" y="314.0" font-family="Arial" font-size=" 15" fill="#00AFAF" transform="rotate(-90.0  187  299)" stroke-width="0">улица Батыра Закирова</text>
<text x=" 170" y="54.0" font-family="Arial" font-size=" 15" fill="#00AFAF" stroke-width="0">проспект Навои</text>
</g>
</g>
</g>
</svg>
