<svg xmlns="http://www.w3.org/2000/svg" version="1.1">
<defs>
    <marker id="arrow"
      viewBox="0 0 10 10" refX="0" refY="5"
      markerUnits="strokeWidth"
      markerWidth="4" markerHeight="3"
      orient="auto">
      <path d="M 0 0 L 10 5 L 0 10 z" />
    </marker>
  </defs>
<g stroke="#000000" fill="none" stroke-opacity="1.0" fill-opacity="1.0" transform="scale(0.5)">
<rect x="0" y="0" width="850" height="530" stroke-width="0" fill="none" />
<g stroke="#000000" fill="none" stroke-opacity="1.0" fill-opacity="1.0" transform="scale(0.5)">
</g>
<g transform="rotate(-25.0 425 265)" >
<g stroke="#000000" fill="none" stroke-opacity="1.0" fill-opacity="1.0" transform="scale(0.5)">
</g>
<g stroke="#000000" fill="#F52D35" stroke-opacity="1.0" fill-opacity="1.0" transform="scale(0.5)">
<polygon points="629,176  179,176  179,146  629,146" stroke-width="1" />
<polygon points="179,286  179,256  629,256  629,286" stroke-width="1" />
</g>
<g stroke="#F52D35" fill="none" stroke-opacity="1.0" fill-opacity="1.0" transform="scale(0.5)">
<text x=" 184" y="142.0" font-family="Arial" font-size=" 20" fill="#F52D35" stroke-width="0">&lt;&lt; Hamid Olimjon</text>
<text x=" 474" y="306.0" font-family="Arial" font-size=" 20" fill="#F52D35" stroke-width="0">Buyuk Ipak Yo'li &gt;&gt;</text>
<text x=" 353" y="224.0" font-family="Arial" font-size=" 25" fill="#F52D35" stroke-width="0">Pushkin</text>
</g>
<g stroke="#000000" fill="none" stroke-opacity="1.0" fill-opacity="1.0" transform="scale(0.5)">
<polyline points="834,323  784,323  784,153  761,153  761,160  747,160  747,153  681,153  681,186  629,186  629,176" stroke-width="1" fill="none"  />
<polyline points="834,340  761,340  761,272  747,272  747,279  681,279  681,245  629,245  629,256" stroke-width="1" fill="none"  />
<line x1="633" y1="245" x2="633" y2="186" stroke-width="1" />
<line x1="637" y1="245" x2="637" y2="186" stroke-width="1" />
<line x1="641" y1="245" x2="641" y2="186" stroke-width="1" />
<line x1="645" y1="245" x2="645" y2="186" stroke-width="1" />
<line x1="649" y1="245" x2="649" y2="186" stroke-width="1" />
<line x1="653" y1="245" x2="653" y2="186" stroke-width="1" />
<line x1="657" y1="245" x2="657" y2="186" stroke-width="1" />
<line x1="661" y1="245" x2="661" y2="186" stroke-width="1" />
<line x1="665" y1="245" x2="665" y2="186" stroke-width="1" />
<line x1="669" y1="245" x2="669" y2="186" stroke-width="1" />
<line x1="673" y1="245" x2="673" y2="186" stroke-width="1" />
<line x1="677" y1="245" x2="677" y2="186" stroke-width="1" />
<line x1="832" y1="323" x2="832" y2="340" stroke-width="1" />
<line x1="828" y1="323" x2="828" y2="340" stroke-width="1" />
<line x1="824" y1="323" x2="824" y2="340" stroke-width="1" />
<line x1="820" y1="323" x2="820" y2="340" stroke-width="1" />
<line x1="816" y1="323" x2="816" y2="340" stroke-width="1" />
<line x1="812" y1="323" x2="812" y2="340" stroke-width="1" />
<line x1="808" y1="323" x2="808" y2="340" stroke-width="1" />
<line x1="804" y1="323" x2="804" y2="340" stroke-width="1" />
<line x1="800" y1="323" x2="800" y2="340" stroke-width="1" />
<line x1="796" y1="323" x2="796" y2="340" stroke-width="1" />
<line x1="792" y1="323" x2="792" y2="340" stroke-width="1" />
<line x1="788" y1="323" x2="788" y2="340" stroke-width="1" />
</g>
<g stroke="#000000" fill="#D0D0D0" stroke-opacity="1.0" fill-opacity="1.0" transform="scale(0.5)">
<polygon points="761,195  747,195  747,238  761,238" stroke-width="1" />
</g>
<g stroke="#000000" fill="#D0D0D0" stroke-opacity="1.0" fill-opacity="1.0" transform="scale(0.5)">
<polyline points="-26,321  24,321  24,151  47,151  47,158  61,158  61,151  127,151  127,186  179,186  179,176" stroke-width="1" fill="none"  />
<polyline points="-26,338  47,338  47,270  60,270  60,277  127,277  127,246  179,246  179,256" stroke-width="1" fill="none"  />
<line x1="175" y1="186" x2="175" y2="246" stroke-width="1" />
<line x1="171" y1="186" x2="171" y2="246" stroke-width="1" />
<line x1="167" y1="186" x2="167" y2="246" stroke-width="1" />
<line x1="163" y1="186" x2="163" y2="246" stroke-width="1" />
<line x1="159" y1="186" x2="159" y2="246" stroke-width="1" />
<line x1="155" y1="186" x2="155" y2="246" stroke-width="1" />
<line x1="151" y1="186" x2="151" y2="246" stroke-width="1" />
<line x1="147" y1="186" x2="147" y2="246" stroke-width="1" />
<line x1="143" y1="186" x2="143" y2="246" stroke-width="1" />
<line x1="139" y1="186" x2="139" y2="246" stroke-width="1" />
<line x1="135" y1="186" x2="135" y2="246" stroke-width="1" />
<line x1="131" y1="186" x2="131" y2="246" stroke-width="1" />
<line x1="-24" y1="321" x2="-24" y2="338" stroke-width="1" />
<line x1="-20" y1="321" x2="-20" y2="338" stroke-width="1" />
<line x1="-16" y1="321" x2="-16" y2="338" stroke-width="1" />
<line x1="-12" y1="321" x2="-12" y2="338" stroke-width="1" />
<line x1="-8" y1="321" x2="-8" y2="338" stroke-width="1" />
<line x1="-4" y1="321" x2="-4" y2="338" stroke-width="1" />
<line x1="0" y1="321" x2="0" y2="338" stroke-width="1" />
<line x1="4" y1="321" x2="4" y2="338" stroke-width="1" />
<line x1="8" y1="321" x2="8" y2="338" stroke-width="1" />
<line x1="12" y1="321" x2="12" y2="338" stroke-width="1" />
<line x1="16" y1="321" x2="16" y2="338" stroke-width="1" />
<line x1="20" y1="321" x2="20" y2="338" stroke-width="1" />
</g>
<g stroke="#000000" fill="#D0D0D0" stroke-opacity="1.0" fill-opacity="1.0" transform="scale(0.5)">
<polygon points="47,193  61,193  61,236  47,236" stroke-width="1" />
</g>
<g stroke="#00AFAF" fill="none" stroke-opacity="1.0" fill-opacity="1.0" transform="scale(0.5)">
<text x=" 316" y="407.0" font-family="Arial" font-size=" 15" fill="#00AFAF" stroke-width="0">проспект Мустакиллик</text>
<text x=" 712" y="375.0" font-family="Arial" font-size=" 15" fill="#00AFAF" stroke-width="0">'ж/д станция "Салар"'</text>
<polyline points="783,352  833,352" marker-end="url(#arrow)" stroke-width="1" fill="none" />
</g>
</g>
</g>
</svg>
