<?xml version="1.0" encoding="utf-8" ?>
<svg baseProfile="full" height="100%" version="1.1" width="100%" xmlns="http://www.w3.org/2000/svg" xmlns:ev="http://www.w3.org/2001/xml-events" xmlns:xlink="http://www.w3.org/1999/xlink">
  <defs>
    <marker id="id525" markerHeight="3" markerUnits="strokeWidth" markerWidth="4" orient="auto" refX="0" refY="5" viewBox="0,0,10,10">
      <path d="M 0 0 L 10 5 L 0 10 z"/>
    </marker>
  </defs>
  <g>
    <rect fill="none" height="930" stroke="none" stroke-width="0" width="550" x="0" y="0"/>
    <g transform="rotate(-80.0,275,465)">
      <polygon fill="#4b7d43" points="63,492 63,462 513,462 513,492" stroke="#000000" stroke-width="1"/>
      <polygon fill="#4b7d43" points="63,495 63,525 513,525 513,495" stroke="#000000" stroke-width="1"/>
      <polyline fill="none" points="183,428 395,428" stroke="#000000" stroke-width="1"/>
      <polyline fill="none" points="183,559 395,559" stroke="#000000" stroke-width="1"/>
      <line stroke="#000000" stroke-width="1" x1="165" x2="165" y1="428" y2="410"/>
      <line stroke="#000000" stroke-width="1" x1="161" x2="161" y1="428" y2="410"/>
      <line stroke="#000000" stroke-width="1" x1="157" x2="157" y1="428" y2="410"/>
      <line stroke="#000000" stroke-width="1" x1="153" x2="153" y1="428" y2="410"/>
      <line stroke="#000000" stroke-width="1" x1="149" x2="149" y1="428" y2="410"/>
      <line stroke="#000000" stroke-width="1" x1="145" x2="145" y1="428" y2="410"/>
      <line stroke="#000000" stroke-width="1" x1="141" x2="141" y1="428" y2="410"/>
      <line stroke="#000000" stroke-width="1" x1="137" x2="137" y1="428" y2="410"/>
      <line stroke="#000000" stroke-width="1" x1="133" x2="133" y1="428" y2="410"/>
      <line stroke="#000000" stroke-width="1" x1="129" x2="129" y1="428" y2="410"/>
      <line stroke="#000000" stroke-width="1" x1="125" x2="125" y1="428" y2="410"/>
      <line stroke="#000000" stroke-width="1" x1="121" x2="121" y1="428" y2="410"/>
      <line stroke="#000000" stroke-width="1" x1="165" x2="165" y1="559" y2="577"/>
      <line stroke="#000000" stroke-width="1" x1="161" x2="161" y1="559" y2="577"/>
      <line stroke="#000000" stroke-width="1" x1="157" x2="157" y1="559" y2="577"/>
      <line stroke="#000000" stroke-width="1" x1="153" x2="153" y1="559" y2="577"/>
      <line stroke="#000000" stroke-width="1" x1="149" x2="149" y1="559" y2="577"/>
      <line stroke="#000000" stroke-width="1" x1="145" x2="145" y1="559" y2="577"/>
      <line stroke="#000000" stroke-width="1" x1="141" x2="141" y1="559" y2="577"/>
      <line stroke="#000000" stroke-width="1" x1="137" x2="137" y1="559" y2="577"/>
      <line stroke="#000000" stroke-width="1" x1="133" x2="133" y1="559" y2="577"/>
      <line stroke="#000000" stroke-width="1" x1="129" x2="129" y1="559" y2="577"/>
      <line stroke="#000000" stroke-width="1" x1="125" x2="125" y1="559" y2="577"/>
      <line stroke="#000000" stroke-width="1" x1="121" x2="121" y1="559" y2="577"/>
      <line stroke="#000000" stroke-width="1" x1="413" x2="413" y1="428" y2="406"/>
      <line stroke="#000000" stroke-width="1" x1="417" x2="417" y1="428" y2="406"/>
      <line stroke="#000000" stroke-width="1" x1="421" x2="421" y1="428" y2="406"/>
      <line stroke="#000000" stroke-width="1" x1="425" x2="425" y1="428" y2="406"/>
      <line stroke="#000000" stroke-width="1" x1="429" x2="429" y1="428" y2="406"/>
      <line stroke="#000000" stroke-width="1" x1="433" x2="433" y1="428" y2="406"/>
      <line stroke="#000000" stroke-width="1" x1="437" x2="437" y1="428" y2="406"/>
      <line stroke="#000000" stroke-width="1" x1="441" x2="441" y1="428" y2="406"/>
      <line stroke="#000000" stroke-width="1" x1="445" x2="445" y1="428" y2="406"/>
      <line stroke="#000000" stroke-width="1" x1="449" x2="449" y1="428" y2="406"/>
      <line stroke="#000000" stroke-width="1" x1="453" x2="453" y1="428" y2="406"/>
      <line stroke="#000000" stroke-width="1" x1="457" x2="457" y1="428" y2="406"/>
      <line stroke="#000000" stroke-width="1" x1="413" x2="413" y1="563" y2="581"/>
      <line stroke="#000000" stroke-width="1" x1="417" x2="417" y1="563" y2="581"/>
      <line stroke="#000000" stroke-width="1" x1="421" x2="421" y1="563" y2="581"/>
      <line stroke="#000000" stroke-width="1" x1="425" x2="425" y1="563" y2="581"/>
      <line stroke="#000000" stroke-width="1" x1="429" x2="429" y1="563" y2="581"/>
      <line stroke="#000000" stroke-width="1" x1="433" x2="433" y1="563" y2="581"/>
      <line stroke="#000000" stroke-width="1" x1="437" x2="437" y1="563" y2="581"/>
      <line stroke="#000000" stroke-width="1" x1="441" x2="441" y1="563" y2="581"/>
      <line stroke="#000000" stroke-width="1" x1="445" x2="445" y1="563" y2="581"/>
      <line stroke="#000000" stroke-width="1" x1="449" x2="449" y1="563" y2="581"/>
      <line stroke="#000000" stroke-width="1" x1="453" x2="453" y1="563" y2="581"/>
      <line stroke="#000000" stroke-width="1" x1="457" x2="457" y1="563" y2="581"/>
      <text fill="#000000" font-family="Arial" font-size="20" stroke="none" stroke-width="0" x="64" y="478.0">&lt;&lt; Bodomzor</text>
      <text fill="#000000" font-family="Arial" font-size="20" stroke="none" stroke-width="0" x="439" y="525.0">тупик &gt;&gt;</text>
      <text fill="#000000" font-family="Arial" font-size="25" stroke="none" stroke-width="0" x="243" y="502.0">Shahriston</text>
      <text fill="#ffffff" font-family="Arial" font-size="20" stroke="none" stroke-width="0" x="63" y="477.0">&lt;&lt; Bodomzor</text>
      <text fill="#ffffff" font-family="Arial" font-size="20" stroke="none" stroke-width="0" x="438" y="524.0">тупик &gt;&gt;</text>
      <text fill="#ffffff" font-family="Arial" font-size="25" stroke="none" stroke-width="0" x="242" y="501.0">Shahriston</text>
      <polyline fill="none" points="31,343 -46,343 -46,647 31,647" stroke="#000000" stroke-width="1"/>
      <polyline fill="none" points="31,361 -19,361 -19,427 45,427 45,410 183,410 183,428" stroke="#000000" stroke-width="1"/>
      <polyline fill="none" points="183,559 183,577 45,577 45,561 -19,561 -19,629 31,629" stroke="#000000" stroke-width="1"/>
      <line stroke="#000000" stroke-width="1" x1="29" x2="29" y1="629" y2="647"/>
      <line stroke="#000000" stroke-width="1" x1="25" x2="25" y1="629" y2="647"/>
      <line stroke="#000000" stroke-width="1" x1="21" x2="21" y1="629" y2="647"/>
      <line stroke="#000000" stroke-width="1" x1="17" x2="17" y1="629" y2="647"/>
      <line stroke="#000000" stroke-width="1" x1="13" x2="13" y1="629" y2="647"/>
      <line stroke="#000000" stroke-width="1" x1="9" x2="9" y1="629" y2="647"/>
      <line stroke="#000000" stroke-width="1" x1="5" x2="5" y1="629" y2="647"/>
      <line stroke="#000000" stroke-width="1" x1="1" x2="1" y1="629" y2="647"/>
      <line stroke="#000000" stroke-width="1" x1="-3" x2="-3" y1="629" y2="647"/>
      <line stroke="#000000" stroke-width="1" x1="-7" x2="-7" y1="629" y2="647"/>
      <line stroke="#000000" stroke-width="1" x1="-11" x2="-11" y1="629" y2="647"/>
      <line stroke="#000000" stroke-width="1" x1="-15" x2="-15" y1="629" y2="647"/>
      <line stroke="#000000" stroke-width="1" x1="29" x2="29" y1="361" y2="343"/>
      <line stroke="#000000" stroke-width="1" x1="25" x2="25" y1="361" y2="343"/>
      <line stroke="#000000" stroke-width="1" x1="21" x2="21" y1="361" y2="343"/>
      <line stroke="#000000" stroke-width="1" x1="17" x2="17" y1="361" y2="343"/>
      <line stroke="#000000" stroke-width="1" x1="13" x2="13" y1="361" y2="343"/>
      <line stroke="#000000" stroke-width="1" x1="9" x2="9" y1="361" y2="343"/>
      <line stroke="#000000" stroke-width="1" x1="5" x2="5" y1="361" y2="343"/>
      <line stroke="#000000" stroke-width="1" x1="1" x2="1" y1="361" y2="343"/>
      <line stroke="#000000" stroke-width="1" x1="-3" x2="-3" y1="361" y2="343"/>
      <line stroke="#000000" stroke-width="1" x1="-7" x2="-7" y1="361" y2="343"/>
      <line stroke="#000000" stroke-width="1" x1="-11" x2="-11" y1="361" y2="343"/>
      <line stroke="#000000" stroke-width="1" x1="-15" x2="-15" y1="361" y2="343"/>
      <polygon fill="#d0d0d0" points="-12,480 -19,480 -19,508 -12,508" stroke="#000000" stroke-width="1"/>
      <polygon fill="#d0d0d0" points="167,424 167,428 63,428 63,559 167,559 167,563 59,563 59,424" stroke="#000000" stroke-width="1"/>
      <polyline fill="none" points="395,428 395,406 535,406 535,428 606,428 606,343 686,343" stroke="#000000" stroke-width="1"/>
      <polyline fill="none" points="395,559 395,581 535,581 535,559 606,559 606,647 686,647" stroke="#000000" stroke-width="1"/>
      <polyline fill="none" points="686,629 636,629 636,361 686,361" stroke="#000000" stroke-width="1"/>
      <line stroke="#000000" stroke-width="1" x1="684" x2="684" y1="361" y2="343"/>
      <line stroke="#000000" stroke-width="1" x1="680" x2="680" y1="361" y2="343"/>
      <line stroke="#000000" stroke-width="1" x1="676" x2="676" y1="361" y2="343"/>
      <line stroke="#000000" stroke-width="1" x1="672" x2="672" y1="361" y2="343"/>
      <line stroke="#000000" stroke-width="1" x1="668" x2="668" y1="361" y2="343"/>
      <line stroke="#000000" stroke-width="1" x1="664" x2="664" y1="361" y2="343"/>
      <line stroke="#000000" stroke-width="1" x1="660" x2="660" y1="361" y2="343"/>
      <line stroke="#000000" stroke-width="1" x1="656" x2="656" y1="361" y2="343"/>
      <line stroke="#000000" stroke-width="1" x1="652" x2="652" y1="361" y2="343"/>
      <line stroke="#000000" stroke-width="1" x1="648" x2="648" y1="361" y2="343"/>
      <line stroke="#000000" stroke-width="1" x1="644" x2="644" y1="361" y2="343"/>
      <line stroke="#000000" stroke-width="1" x1="640" x2="640" y1="361" y2="343"/>
      <line stroke="#000000" stroke-width="1" x1="684" x2="684" y1="629" y2="647"/>
      <line stroke="#000000" stroke-width="1" x1="680" x2="680" y1="629" y2="647"/>
      <line stroke="#000000" stroke-width="1" x1="676" x2="676" y1="629" y2="647"/>
      <line stroke="#000000" stroke-width="1" x1="672" x2="672" y1="629" y2="647"/>
      <line stroke="#000000" stroke-width="1" x1="668" x2="668" y1="629" y2="647"/>
      <line stroke="#000000" stroke-width="1" x1="664" x2="664" y1="629" y2="647"/>
      <line stroke="#000000" stroke-width="1" x1="660" x2="660" y1="629" y2="647"/>
      <line stroke="#000000" stroke-width="1" x1="656" x2="656" y1="629" y2="647"/>
      <line stroke="#000000" stroke-width="1" x1="652" x2="652" y1="629" y2="647"/>
      <line stroke="#000000" stroke-width="1" x1="648" x2="648" y1="629" y2="647"/>
      <line stroke="#000000" stroke-width="1" x1="644" x2="644" y1="629" y2="647"/>
      <line stroke="#000000" stroke-width="1" x1="640" x2="640" y1="629" y2="647"/>
      <polygon fill="#d0d0d0" points="599,479 606,479 606,507 599,507" stroke="#000000" stroke-width="1"/>
      <polygon fill="#d0d0d0" points="411,428 411,424 517,424 517,563 411,563 411,559 513,559 513,428" stroke="#000000" stroke-width="1"/>
      <text fill="#00afaf" font-family="Arial" font-size="15" stroke="none" stroke-width="0" x="646" y="488.0">проспект Амира Тимура</text>
      <text fill="#00afaf" font-family="Arial" font-size="15" stroke="none" stroke-width="0" x="-164" y="485.0">проспект Амира Тимура</text>
      <text fill="#00afaf" font-family="Arial" font-size="15" stroke="none" stroke-width="0" transform="rotate(90.0,-136,280)" x="-136" y="295.0">улица Шахристон</text>
      <text fill="#00afaf" font-family="Arial" font-size="15" stroke="none" stroke-width="0" transform="rotate(90.0,-137,579)" x="-137" y="594.0">улица Чинобод</text>
    </g>
  </g>
</svg>
