<?xml version="1.0" encoding="utf-8" ?>
<svg baseProfile="full" height="930.0" version="1.1" width="550.0" xmlns="http://www.w3.org/2000/svg" xmlns:ev="http://www.w3.org/2001/xml-events" xmlns:xlink="http://www.w3.org/1999/xlink">
  <defs>
    <marker id="id525" markerHeight="3" markerUnits="strokeWidth" markerWidth="4" orient="auto" refX="0" refY="5" viewBox="0,0,10,10">
      <path d="M 0 0 L 10 5 L 0 10 z"/>
    </marker>
  </defs>
  <g>
    <rect fill="none" height="930.0" stroke="none" stroke-width="0" width="550.0" x="0.0" y="0.0"/>
    <g transform="rotate(-80.0,275.0,465.0)">
      <polygon fill="#4b7d43" points="63.0,492.0 63.0,462.0 513.0,462.0 513.0,492.0" stroke="#000000" stroke-width="1"/>
      <polygon fill="#4b7d43" points="63.0,495.0 63.0,525.0 513.0,525.0 513.0,495.0" stroke="#000000" stroke-width="1"/>
      <polyline fill="none" points="183.0,428.0 395.0,428.0" stroke="#000000" stroke-width="1"/>
      <polyline fill="none" points="183.0,559.0 395.0,559.0" stroke="#000000" stroke-width="1"/>
      <line stroke="#000000" stroke-width="1" x1="165.0" x2="165.0" y1="428.0" y2="410.0"/>
      <line stroke="#000000" stroke-width="1" x1="161.0" x2="161.0" y1="428.0" y2="410.0"/>
      <line stroke="#000000" stroke-width="1" x1="157.0" x2="157.0" y1="428.0" y2="410.0"/>
      <line stroke="#000000" stroke-width="1" x1="153.0" x2="153.0" y1="428.0" y2="410.0"/>
      <line stroke="#000000" stroke-width="1" x1="149.0" x2="149.0" y1="428.0" y2="410.0"/>
      <line stroke="#000000" stroke-width="1" x1="145.0" x2="145.0" y1="428.0" y2="410.0"/>
      <line stroke="#000000" stroke-width="1" x1="141.0" x2="141.0" y1="428.0" y2="410.0"/>
      <line stroke="#000000" stroke-width="1" x1="137.0" x2="137.0" y1="428.0" y2="410.0"/>
      <line stroke="#000000" stroke-width="1" x1="133.0" x2="133.0" y1="428.0" y2="410.0"/>
      <line stroke="#000000" stroke-width="1" x1="129.0" x2="129.0" y1="428.0" y2="410.0"/>
      <line stroke="#000000" stroke-width="1" x1="125.0" x2="125.0" y1="428.0" y2="410.0"/>
      <line stroke="#000000" stroke-width="1" x1="121.0" x2="121.0" y1="428.0" y2="410.0"/>
      <line stroke="#000000" stroke-width="1" x1="165.0" x2="165.0" y1="559.0" y2="577.0"/>
      <line stroke="#000000" stroke-width="1" x1="161.0" x2="161.0" y1="559.0" y2="577.0"/>
      <line stroke="#000000" stroke-width="1" x1="157.0" x2="157.0" y1="559.0" y2="577.0"/>
      <line stroke="#000000" stroke-width="1" x1="153.0" x2="153.0" y1="559.0" y2="577.0"/>
      <line stroke="#000000" stroke-width="1" x1="149.0" x2="149.0" y1="559.0" y2="577.0"/>
      <line stroke="#000000" stroke-width="1" x1="145.0" x2="145.0" y1="559.0" y2="577.0"/>
      <line stroke="#000000" stroke-width="1" x1="141.0" x2="141.0" y1="559.0" y2="577.0"/>
      <line stroke="#000000" stroke-width="1" x1="137.0" x2="137.0" y1="559.0" y2="577.0"/>
      <line stroke="#000000" stroke-width="1" x1="133.0" x2="133.0" y1="559.0" y2="577.0"/>
      <line stroke="#000000" stroke-width="1" x1="129.0" x2="129.0" y1="559.0" y2="577.0"/>
      <line stroke="#000000" stroke-width="1" x1="125.0" x2="125.0" y1="559.0" y2="577.0"/>
      <line stroke="#000000" stroke-width="1" x1="121.0" x2="121.0" y1="559.0" y2="577.0"/>
      <line stroke="#000000" stroke-width="1" x1="413.0" x2="413.0" y1="428.0" y2="406.0"/>
      <line stroke="#000000" stroke-width="1" x1="417.0" x2="417.0" y1="428.0" y2="406.0"/>
      <line stroke="#000000" stroke-width="1" x1="421.0" x2="421.0" y1="428.0" y2="406.0"/>
      <line stroke="#000000" stroke-width="1" x1="425.0" x2="425.0" y1="428.0" y2="406.0"/>
      <line stroke="#000000" stroke-width="1" x1="429.0" x2="429.0" y1="428.0" y2="406.0"/>
      <line stroke="#000000" stroke-width="1" x1="433.0" x2="433.0" y1="428.0" y2="406.0"/>
      <line stroke="#000000" stroke-width="1" x1="437.0" x2="437.0" y1="428.0" y2="406.0"/>
      <line stroke="#000000" stroke-width="1" x1="441.0" x2="441.0" y1="428.0" y2="406.0"/>
      <line stroke="#000000" stroke-width="1" x1="445.0" x2="445.0" y1="428.0" y2="406.0"/>
      <line stroke="#000000" stroke-width="1" x1="449.0" x2="449.0" y1="428.0" y2="406.0"/>
      <line stroke="#000000" stroke-width="1" x1="453.0" x2="453.0" y1="428.0" y2="406.0"/>
      <line stroke="#000000" stroke-width="1" x1="457.0" x2="457.0" y1="428.0" y2="406.0"/>
      <line stroke="#000000" stroke-width="1" x1="413.0" x2="413.0" y1="563.0" y2="581.0"/>
      <line stroke="#000000" stroke-width="1" x1="417.0" x2="417.0" y1="563.0" y2="581.0"/>
      <line stroke="#000000" stroke-width="1" x1="421.0" x2="421.0" y1="563.0" y2="581.0"/>
      <line stroke="#000000" stroke-width="1" x1="425.0" x2="425.0" y1="563.0" y2="581.0"/>
      <line stroke="#000000" stroke-width="1" x1="429.0" x2="429.0" y1="563.0" y2="581.0"/>
      <line stroke="#000000" stroke-width="1" x1="433.0" x2="433.0" y1="563.0" y2="581.0"/>
      <line stroke="#000000" stroke-width="1" x1="437.0" x2="437.0" y1="563.0" y2="581.0"/>
      <line stroke="#000000" stroke-width="1" x1="441.0" x2="441.0" y1="563.0" y2="581.0"/>
      <line stroke="#000000" stroke-width="1" x1="445.0" x2="445.0" y1="563.0" y2="581.0"/>
      <line stroke="#000000" stroke-width="1" x1="449.0" x2="449.0" y1="563.0" y2="581.0"/>
      <line stroke="#000000" stroke-width="1" x1="453.0" x2="453.0" y1="563.0" y2="581.0"/>
      <line stroke="#000000" stroke-width="1" x1="457.0" x2="457.0" y1="563.0" y2="581.0"/>
      <text fill="#000000" font-family="Arial" font-size="20.0" stroke="none" stroke-width="0" x="64.0" y="478.0">&lt;&lt; Bodomzor</text>
      <text fill="#000000" font-family="Arial" font-size="20.0" stroke="none" stroke-width="0" x="439.0" y="525.0">тупик &gt;&gt;</text>
      <text fill="#000000" font-family="Arial" font-size="25.0" stroke="none" stroke-width="0" x="243.0" y="502.0">Shahriston</text>
      <text fill="#ffffff" font-family="Arial" font-size="20.0" stroke="none" stroke-width="0" x="63.0" y="477.0">&lt;&lt; Bodomzor</text>
      <text fill="#ffffff" font-family="Arial" font-size="20.0" stroke="none" stroke-width="0" x="438.0" y="524.0">тупик &gt;&gt;</text>
      <text fill="#ffffff" font-family="Arial" font-size="25.0" stroke="none" stroke-width="0" x="242.0" y="501.0">Shahriston</text>
      <polyline fill="none" points="31.0,343.0 -46.0,343.0 -46.0,647.0 31.0,647.0" stroke="#000000" stroke-width="1"/>
      <polyline fill="none" points="31.0,361.0 -19.0,361.0 -19.0,427.0 45.0,427.0 45.0,410.0 183.0,410.0 183.0,428.0" stroke="#000000" stroke-width="1"/>
      <polyline fill="none" points="183.0,559.0 183.0,577.0 45.0,577.0 45.0,561.0 -19.0,561.0 -19.0,629.0 31.0,629.0" stroke="#000000" stroke-width="1"/>
      <line stroke="#000000" stroke-width="1" x1="29.0" x2="29.0" y1="629.0" y2="647.0"/>
      <line stroke="#000000" stroke-width="1" x1="25.0" x2="25.0" y1="629.0" y2="647.0"/>
      <line stroke="#000000" stroke-width="1" x1="21.0" x2="21.0" y1="629.0" y2="647.0"/>
      <line stroke="#000000" stroke-width="1" x1="17.0" x2="17.0" y1="629.0" y2="647.0"/>
      <line stroke="#000000" stroke-width="1" x1="13.0" x2="13.0" y1="629.0" y2="647.0"/>
      <line stroke="#000000" stroke-width="1" x1="9.0" x2="9.0" y1="629.0" y2="647.0"/>
      <line stroke="#000000" stroke-width="1" x1="5.0" x2="5.0" y1="629.0" y2="647.0"/>
      <line stroke="#000000" stroke-width="1" x1="1.0" x2="1.0" y1="629.0" y2="647.0"/>
      <line stroke="#000000" stroke-width="1" x1="-3.0" x2="-3.0" y1="629.0" y2="647.0"/>
      <line stroke="#000000" stroke-width="1" x1="-7.0" x2="-7.0" y1="629.0" y2="647.0"/>
      <line stroke="#000000" stroke-width="1" x1="-11.0" x2="-11.0" y1="629.0" y2="647.0"/>
      <line stroke="#000000" stroke-width="1" x1="-15.0" x2="-15.0" y1="629.0" y2="647.0"/>
      <line stroke="#000000" stroke-width="1" x1="29.0" x2="29.0" y1="361.0" y2="343.0"/>
      <line stroke="#000000" stroke-width="1" x1="25.0" x2="25.0" y1="361.0" y2="343.0"/>
      <line stroke="#000000" stroke-width="1" x1="21.0" x2="21.0" y1="361.0" y2="343.0"/>
      <line stroke="#000000" stroke-width="1" x1="17.0" x2="17.0" y1="361.0" y2="343.0"/>
      <line stroke="#000000" stroke-width="1" x1="13.0" x2="13.0" y1="361.0" y2="343.0"/>
      <line stroke="#000000" stroke-width="1" x1="9.0" x2="9.0" y1="361.0" y2="343.0"/>
      <line stroke="#000000" stroke-width="1" x1="5.0" x2="5.0" y1="361.0" y2="343.0"/>
      <line stroke="#000000" stroke-width="1" x1="1.0" x2="1.0" y1="361.0" y2="343.0"/>
      <line stroke="#000000" stroke-width="1" x1="-3.0" x2="-3.0" y1="361.0" y2="343.0"/>
      <line stroke="#000000" stroke-width="1" x1="-7.0" x2="-7.0" y1="361.0" y2="343.0"/>
      <line stroke="#000000" stroke-width="1" x1="-11.0" x2="-11.0" y1="361.0" y2="343.0"/>
      <line stroke="#000000" stroke-width="1" x1="-15.0" x2="-15.0" y1="361.0" y2="343.0"/>
      <polygon fill="#d0d0d0" points="-12.0,480.0 -19.0,480.0 -19.0,508.0 -12.0,508.0" stroke="#000000" stroke-width="1"/>
      <polygon fill="#d0d0d0" points="167.0,424.0 167.0,428.0 63.0,428.0 63.0,559.0 167.0,559.0 167.0,563.0 59.0,563.0 59.0,424.0" stroke="#000000" stroke-width="1"/>
      <polyline fill="none" points="395.0,428.0 395.0,406.0 535.0,406.0 535.0,428.0 606.0,428.0 606.0,343.0 686.0,343.0" stroke="#000000" stroke-width="1"/>
      <polyline fill="none" points="395.0,559.0 395.0,581.0 535.0,581.0 535.0,559.0 606.0,559.0 606.0,647.0 686.0,647.0" stroke="#000000" stroke-width="1"/>
      <polyline fill="none" points="686.0,629.0 636.0,629.0 636.0,361.0 686.0,361.0" stroke="#000000" stroke-width="1"/>
      <line stroke="#000000" stroke-width="1" x1="684.0" x2="684.0" y1="361.0" y2="343.0"/>
      <line stroke="#000000" stroke-width="1" x1="680.0" x2="680.0" y1="361.0" y2="343.0"/>
      <line stroke="#000000" stroke-width="1" x1="676.0" x2="676.0" y1="361.0" y2="343.0"/>
      <line stroke="#000000" stroke-width="1" x1="672.0" x2="672.0" y1="361.0" y2="343.0"/>
      <line stroke="#000000" stroke-width="1" x1="668.0" x2="668.0" y1="361.0" y2="343.0"/>
      <line stroke="#000000" stroke-width="1" x1="664.0" x2="664.0" y1="361.0" y2="343.0"/>
      <line stroke="#000000" stroke-width="1" x1="660.0" x2="660.0" y1="361.0" y2="343.0"/>
      <line stroke="#000000" stroke-width="1" x1="656.0" x2="656.0" y1="361.0" y2="343.0"/>
      <line stroke="#000000" stroke-width="1" x1="652.0" x2="652.0" y1="361.0" y2="343.0"/>
      <line stroke="#000000" stroke-width="1" x1="648.0" x2="648.0" y1="361.0" y2="343.0"/>
      <line stroke="#000000" stroke-width="1" x1="644.0" x2="644.0" y1="361.0" y2="343.0"/>
      <line stroke="#000000" stroke-width="1" x1="640.0" x2="640.0" y1="361.0" y2="343.0"/>
      <line stroke="#000000" stroke-width="1" x1="684.0" x2="684.0" y1="629.0" y2="647.0"/>
      <line stroke="#000000" stroke-width="1" x1="680.0" x2="680.0" y1="629.0" y2="647.0"/>
      <line stroke="#000000" stroke-width="1" x1="676.0" x2="676.0" y1="629.0" y2="647.0"/>
      <line stroke="#000000" stroke-width="1" x1="672.0" x2="672.0" y1="629.0" y2="647.0"/>
      <line stroke="#000000" stroke-width="1" x1="668.0" x2="668.0" y1="629.0" y2="647.0"/>
      <line stroke="#000000" stroke-width="1" x1="664.0" x2="664.0" y1="629.0" y2="647.0"/>
      <line stroke="#000000" stroke-width="1" x1="660.0" x2="660.0" y1="629.0" y2="647.0"/>
      <line stroke="#000000" stroke-width="1" x1="656.0" x2="656.0" y1="629.0" y2="647.0"/>
      <line stroke="#000000" stroke-width="1" x1="652.0" x2="652.0" y1="629.0" y2="647.0"/>
      <line stroke="#000000" stroke-width="1" x1="648.0" x2="648.0" y1="629.0" y2="647.0"/>
      <line stroke="#000000" stroke-width="1" x1="644.0" x2="644.0" y1="629.0" y2="647.0"/>
      <line stroke="#000000" stroke-width="1" x1="640.0" x2="640.0" y1="629.0" y2="647.0"/>
      <polygon fill="#d0d0d0" points="599.0,479.0 606.0,479.0 606.0,507.0 599.0,507.0" stroke="#000000" stroke-width="1"/>
      <polygon fill="#d0d0d0" points="411.0,428.0 411.0,424.0 517.0,424.0 517.0,563.0 411.0,563.0 411.0,559.0 513.0,559.0 513.0,428.0" stroke="#000000" stroke-width="1"/>
      <text fill="#00afaf" font-family="Arial" font-size="15.0" stroke="none" stroke-width="0" x="646.0" y="488.0">проспект Амира Тимура</text>
      <text fill="#00afaf" font-family="Arial" font-size="15.0" stroke="none" stroke-width="0" x="-164.0" y="485.0">проспект Амира Тимура</text>
      <text fill="#00afaf" font-family="Arial" font-size="15.0" stroke="none" stroke-width="0" transform="rotate(90.0,-136.0,280.0)" x="-136.0" y="295.0">улица Шахристон</text>
      <text fill="#00afaf" font-family="Arial" font-size="15.0" stroke="none" stroke-width="0" transform="rotate(90.0,-137.0,579.0)" x="-137.0" y="594.0">улица Чинобод</text>
    </g>
  </g>
</svg>
