<?xml version="1.0" encoding="utf-8" ?>
<svg baseProfile="full" height="780.0" version="1.1" width="970.0" xmlns="http://www.w3.org/2000/svg" xmlns:ev="http://www.w3.org/2001/xml-events" xmlns:xlink="http://www.w3.org/1999/xlink">
  <defs>
    <marker id="id527" markerHeight="3" markerUnits="strokeWidth" markerWidth="4" orient="auto" refX="0" refY="5" viewBox="0,0,10,10">
      <path d="M 0 0 L 10 5 L 0 10 z"/>
    </marker>
  </defs>
  <g>
    <rect fill="none" height="780.0" stroke="none" stroke-width="0" width="970.0" x="0.0" y="0.0"/>
    <g transform="rotate(35.0,485.0,390.0)">
      <polygon fill="#2d3c9b" points="306.0,354.0 306.0,324.0 756.0,324.0 756.0,354.0" stroke="#000000" stroke-width="1"/>
      <polygon fill="#2d3c9b" points="306.0,464.0 306.0,434.0 756.0,434.0 756.0,464.0" stroke="#000000" stroke-width="1"/>
      <text fill="#2d3c9b" font-family="Arial" font-size="20.0" stroke="none" stroke-width="0" x="304.0" y="318.0">&lt;&lt; Beruniy</text>
      <text fill="#2d3c9b" font-family="Arial" font-size="20.0" stroke="none" stroke-width="0" x="668.0" y="484.0">Chorsu &gt;&gt;</text>
      <text fill="#2d3c9b" font-family="Arial" font-size="25.0" stroke="none" stroke-width="0" x="488.0" y="405.0">Tinchlik</text>
      <polyline fill="none" points="756.0,354.0 756.0,364.0 808.0,364.0 808.0,331.0 874.0,331.0 874.0,338.0 888.0,338.0 888.0,270.0 961.0,270.0" stroke="#000000" stroke-width="1"/>
      <polyline fill="none" points="961.0,287.0 911.0,287.0 911.0,497.0 961.0,497.0" stroke="#000000" stroke-width="1"/>
      <polyline fill="none" points="961.0,514.0 888.0,514.0 888.0,450.0 874.0,450.0 874.0,457.0 808.0,457.0 808.0,423.0 756.0,423.0 756.0,434.0" stroke="#000000" stroke-width="1"/>
      <line stroke="#000000" stroke-width="1" x1="760.0" x2="760.0" y1="423.0" y2="364.0"/>
      <line stroke="#000000" stroke-width="1" x1="764.0" x2="764.0" y1="423.0" y2="364.0"/>
      <line stroke="#000000" stroke-width="1" x1="768.0" x2="768.0" y1="423.0" y2="364.0"/>
      <line stroke="#000000" stroke-width="1" x1="772.0" x2="772.0" y1="423.0" y2="364.0"/>
      <line stroke="#000000" stroke-width="1" x1="776.0" x2="776.0" y1="423.0" y2="364.0"/>
      <line stroke="#000000" stroke-width="1" x1="780.0" x2="780.0" y1="423.0" y2="364.0"/>
      <line stroke="#000000" stroke-width="1" x1="784.0" x2="784.0" y1="423.0" y2="364.0"/>
      <line stroke="#000000" stroke-width="1" x1="788.0" x2="788.0" y1="423.0" y2="364.0"/>
      <line stroke="#000000" stroke-width="1" x1="792.0" x2="792.0" y1="423.0" y2="364.0"/>
      <line stroke="#000000" stroke-width="1" x1="796.0" x2="796.0" y1="423.0" y2="364.0"/>
      <line stroke="#000000" stroke-width="1" x1="800.0" x2="800.0" y1="423.0" y2="364.0"/>
      <line stroke="#000000" stroke-width="1" x1="804.0" x2="804.0" y1="423.0" y2="364.0"/>
      <line stroke="#000000" stroke-width="1" x1="959.0" x2="959.0" y1="287.0" y2="270.0"/>
      <line stroke="#000000" stroke-width="1" x1="955.0" x2="955.0" y1="287.0" y2="270.0"/>
      <line stroke="#000000" stroke-width="1" x1="951.0" x2="951.0" y1="287.0" y2="270.0"/>
      <line stroke="#000000" stroke-width="1" x1="947.0" x2="947.0" y1="287.0" y2="270.0"/>
      <line stroke="#000000" stroke-width="1" x1="943.0" x2="943.0" y1="287.0" y2="270.0"/>
      <line stroke="#000000" stroke-width="1" x1="939.0" x2="939.0" y1="287.0" y2="270.0"/>
      <line stroke="#000000" stroke-width="1" x1="935.0" x2="935.0" y1="287.0" y2="270.0"/>
      <line stroke="#000000" stroke-width="1" x1="931.0" x2="931.0" y1="287.0" y2="270.0"/>
      <line stroke="#000000" stroke-width="1" x1="927.0" x2="927.0" y1="287.0" y2="270.0"/>
      <line stroke="#000000" stroke-width="1" x1="923.0" x2="923.0" y1="287.0" y2="270.0"/>
      <line stroke="#000000" stroke-width="1" x1="919.0" x2="919.0" y1="287.0" y2="270.0"/>
      <line stroke="#000000" stroke-width="1" x1="915.0" x2="915.0" y1="287.0" y2="270.0"/>
      <line stroke="#000000" stroke-width="1" x1="959.0" x2="959.0" y1="497.0" y2="514.0"/>
      <line stroke="#000000" stroke-width="1" x1="955.0" x2="955.0" y1="497.0" y2="514.0"/>
      <line stroke="#000000" stroke-width="1" x1="951.0" x2="951.0" y1="497.0" y2="514.0"/>
      <line stroke="#000000" stroke-width="1" x1="947.0" x2="947.0" y1="497.0" y2="514.0"/>
      <line stroke="#000000" stroke-width="1" x1="943.0" x2="943.0" y1="497.0" y2="514.0"/>
      <line stroke="#000000" stroke-width="1" x1="939.0" x2="939.0" y1="497.0" y2="514.0"/>
      <line stroke="#000000" stroke-width="1" x1="935.0" x2="935.0" y1="497.0" y2="514.0"/>
      <line stroke="#000000" stroke-width="1" x1="931.0" x2="931.0" y1="497.0" y2="514.0"/>
      <line stroke="#000000" stroke-width="1" x1="927.0" x2="927.0" y1="497.0" y2="514.0"/>
      <line stroke="#000000" stroke-width="1" x1="923.0" x2="923.0" y1="497.0" y2="514.0"/>
      <line stroke="#000000" stroke-width="1" x1="919.0" x2="919.0" y1="497.0" y2="514.0"/>
      <line stroke="#000000" stroke-width="1" x1="915.0" x2="915.0" y1="497.0" y2="514.0"/>
      <polygon fill="#d0d0d0" points="874.0,416.0 874.0,373.0 888.0,373.0 888.0,416.0" stroke="#000000" stroke-width="1"/>
      <polyline fill="none" points="306.0,434.0 306.0,424.0 254.0,424.0 254.0,455.0 187.0,455.0 187.0,448.0 174.0,448.0 174.0,497.0 224.0,497.0" stroke="#000000" stroke-width="1"/>
      <polyline fill="none" points="-2.0,497.0 154.0,497.0 154.0,270.0 224.0,270.0" stroke="#000000" stroke-width="1"/>
      <polyline fill="none" points="224.0,287.0 174.0,287.0 174.0,336.0 188.0,336.0 188.0,329.0 254.0,329.0 254.0,364.0 306.0,364.0 306.0,354.0" stroke="#000000" stroke-width="1"/>
      <polyline fill="none" points="-2.0,514.0 224.0,514.0" stroke="#000000" stroke-width="1"/>
      <line stroke="#000000" stroke-width="1" x1="302.0" x2="302.0" y1="364.0" y2="424.0"/>
      <line stroke="#000000" stroke-width="1" x1="298.0" x2="298.0" y1="364.0" y2="424.0"/>
      <line stroke="#000000" stroke-width="1" x1="294.0" x2="294.0" y1="364.0" y2="424.0"/>
      <line stroke="#000000" stroke-width="1" x1="290.0" x2="290.0" y1="364.0" y2="424.0"/>
      <line stroke="#000000" stroke-width="1" x1="286.0" x2="286.0" y1="364.0" y2="424.0"/>
      <line stroke="#000000" stroke-width="1" x1="282.0" x2="282.0" y1="364.0" y2="424.0"/>
      <line stroke="#000000" stroke-width="1" x1="278.0" x2="278.0" y1="364.0" y2="424.0"/>
      <line stroke="#000000" stroke-width="1" x1="274.0" x2="274.0" y1="364.0" y2="424.0"/>
      <line stroke="#000000" stroke-width="1" x1="270.0" x2="270.0" y1="364.0" y2="424.0"/>
      <line stroke="#000000" stroke-width="1" x1="266.0" x2="266.0" y1="364.0" y2="424.0"/>
      <line stroke="#000000" stroke-width="1" x1="262.0" x2="262.0" y1="364.0" y2="424.0"/>
      <line stroke="#000000" stroke-width="1" x1="258.0" x2="258.0" y1="364.0" y2="424.0"/>
      <line stroke="#000000" stroke-width="1" x1="222.0" x2="222.0" y1="497.0" y2="514.0"/>
      <line stroke="#000000" stroke-width="1" x1="218.0" x2="218.0" y1="497.0" y2="514.0"/>
      <line stroke="#000000" stroke-width="1" x1="214.0" x2="214.0" y1="497.0" y2="514.0"/>
      <line stroke="#000000" stroke-width="1" x1="210.0" x2="210.0" y1="497.0" y2="514.0"/>
      <line stroke="#000000" stroke-width="1" x1="206.0" x2="206.0" y1="497.0" y2="514.0"/>
      <line stroke="#000000" stroke-width="1" x1="202.0" x2="202.0" y1="497.0" y2="514.0"/>
      <line stroke="#000000" stroke-width="1" x1="198.0" x2="198.0" y1="497.0" y2="514.0"/>
      <line stroke="#000000" stroke-width="1" x1="194.0" x2="194.0" y1="497.0" y2="514.0"/>
      <line stroke="#000000" stroke-width="1" x1="190.0" x2="190.0" y1="497.0" y2="514.0"/>
      <line stroke="#000000" stroke-width="1" x1="186.0" x2="186.0" y1="497.0" y2="514.0"/>
      <line stroke="#000000" stroke-width="1" x1="182.0" x2="182.0" y1="497.0" y2="514.0"/>
      <line stroke="#000000" stroke-width="1" x1="178.0" x2="178.0" y1="497.0" y2="514.0"/>
      <line stroke="#000000" stroke-width="1" x1="0.0" x2="0.0" y1="497.0" y2="514.0"/>
      <line stroke="#000000" stroke-width="1" x1="4.0" x2="4.0" y1="497.0" y2="514.0"/>
      <line stroke="#000000" stroke-width="1" x1="8.0" x2="8.0" y1="497.0" y2="514.0"/>
      <line stroke="#000000" stroke-width="1" x1="12.0" x2="12.0" y1="497.0" y2="514.0"/>
      <line stroke="#000000" stroke-width="1" x1="16.0" x2="16.0" y1="497.0" y2="514.0"/>
      <line stroke="#000000" stroke-width="1" x1="20.0" x2="20.0" y1="497.0" y2="514.0"/>
      <line stroke="#000000" stroke-width="1" x1="24.0" x2="24.0" y1="497.0" y2="514.0"/>
      <line stroke="#000000" stroke-width="1" x1="28.0" x2="28.0" y1="497.0" y2="514.0"/>
      <line stroke="#000000" stroke-width="1" x1="32.0" x2="32.0" y1="497.0" y2="514.0"/>
      <line stroke="#000000" stroke-width="1" x1="36.0" x2="36.0" y1="497.0" y2="514.0"/>
      <line stroke="#000000" stroke-width="1" x1="40.0" x2="40.0" y1="497.0" y2="514.0"/>
      <line stroke="#000000" stroke-width="1" x1="44.0" x2="44.0" y1="497.0" y2="514.0"/>
      <line stroke="#000000" stroke-width="1" x1="222.0" x2="222.0" y1="287.0" y2="270.0"/>
      <line stroke="#000000" stroke-width="1" x1="218.0" x2="218.0" y1="287.0" y2="270.0"/>
      <line stroke="#000000" stroke-width="1" x1="214.0" x2="214.0" y1="287.0" y2="270.0"/>
      <line stroke="#000000" stroke-width="1" x1="210.0" x2="210.0" y1="287.0" y2="270.0"/>
      <line stroke="#000000" stroke-width="1" x1="206.0" x2="206.0" y1="287.0" y2="270.0"/>
      <line stroke="#000000" stroke-width="1" x1="202.0" x2="202.0" y1="287.0" y2="270.0"/>
      <line stroke="#000000" stroke-width="1" x1="198.0" x2="198.0" y1="287.0" y2="270.0"/>
      <line stroke="#000000" stroke-width="1" x1="194.0" x2="194.0" y1="287.0" y2="270.0"/>
      <line stroke="#000000" stroke-width="1" x1="190.0" x2="190.0" y1="287.0" y2="270.0"/>
      <line stroke="#000000" stroke-width="1" x1="186.0" x2="186.0" y1="287.0" y2="270.0"/>
      <line stroke="#000000" stroke-width="1" x1="182.0" x2="182.0" y1="287.0" y2="270.0"/>
      <line stroke="#000000" stroke-width="1" x1="178.0" x2="178.0" y1="287.0" y2="270.0"/>
      <polygon fill="#d0d0d0" points="174.0,414.0 174.0,371.0 188.0,371.0 188.0,414.0" stroke="#000000" stroke-width="1"/>
      <text fill="#00afaf" font-family="Arial" font-size="15.0" stroke="none" stroke-width="0" x="10.0" y="392.0">проспект Беруни</text>
      <text fill="#00afaf" font-family="Arial" font-size="15.0" stroke="none" stroke-width="0" x="927.0" y="398.0">проспект Беруни</text>
      <text fill="#00afaf" font-family="Arial" font-size="15.0" stroke="none" stroke-width="0" transform="rotate(-90.0,104.0,293.0)" x="104.0" y="308.0">улица Матлубот</text>
    </g>
  </g>
</svg>
