<?xml version="1.0" encoding="utf-8" ?>
<svg baseProfile="full" height="100%" version="1.1" width="100%" xmlns="http://www.w3.org/2000/svg" xmlns:ev="http://www.w3.org/2001/xml-events" xmlns:xlink="http://www.w3.org/1999/xlink"><defs><marker id="id113" markerHeight="3" markerUnits="strokeWidth" markerWidth="4" orient="auto" refX="0" refY="5" viewBox="0,0,10,10"><path d="M 0 0 L 10 5 L 0 10 z" /></marker></defs><g transform="scale(0.5) rotate(35.0,485,390)"><rect fill="none" height="780" stroke="none" width="970" x="0" y="0" /><polygon fill="#2D3C9B" points="306,354 306,324 756,324 756,354" stroke="#000000" stroke-width="1" /><polygon fill="#2D3C9B" points="306,464 306,434 756,434 756,464" stroke="#000000" stroke-width="1" /><text fill="#2D3C9B" font-family="Arial" font-size="20" stroke="none" x="304" y="318.0">&lt;&lt; Beruniy</text><text fill="#2D3C9B" font-family="Arial" font-size="20" stroke="none" x="668" y="484.0">Chorsu &gt;&gt;</text><text fill="#2D3C9B" font-family="Arial" font-size="25" stroke="none" x="488" y="405.0">Tinchlik</text><polyline fill="none" points="756,354 756,364 808,364 808,331 874,331 874,338 888,338 888,270 961,270" stroke="#000000" stroke-width="1" /><polyline fill="none" points="961,287 911,287 911,497 961,497" stroke="#000000" stroke-width="1" /><polyline fill="none" points="961,514 888,514 888,450 874,450 874,457 808,457 808,423 756,423 756,434" stroke="#000000" stroke-width="1" /><line stroke="#000000" stroke-width="1" x1="760" x2="760" y1="423" y2="364" /><line stroke="#000000" stroke-width="1" x1="764" x2="764" y1="423" y2="364" /><line stroke="#000000" stroke-width="1" x1="768" x2="768" y1="423" y2="364" /><line stroke="#000000" stroke-width="1" x1="772" x2="772" y1="423" y2="364" /><line stroke="#000000" stroke-width="1" x1="776" x2="776" y1="423" y2="364" /><line stroke="#000000" stroke-width="1" x1="780" x2="780" y1="423" y2="364" /><line stroke="#000000" stroke-width="1" x1="784" x2="784" y1="423" y2="364" /><line stroke="#000000" stroke-width="1" x1="788" x2="788" y1="423" y2="364" /><line stroke="#000000" stroke-width="1" x1="792" x2="792" y1="423" y2="364" /><line stroke="#000000" stroke-width="1" x1="796" x2="796" y1="423" y2="364" /><line stroke="#000000" stroke-width="1" x1="800" x2="800" y1="423" y2="364" /><line stroke="#000000" stroke-width="1" x1="804" x2="804" y1="423" y2="364" /><line stroke="#000000" stroke-width="1" x1="959" x2="959" y1="287" y2="270" /><line stroke="#000000" stroke-width="1" x1="955" x2="955" y1="287" y2="270" /><line stroke="#000000" stroke-width="1" x1="951" x2="951" y1="287" y2="270" /><line stroke="#000000" stroke-width="1" x1="947" x2="947" y1="287" y2="270" /><line stroke="#000000" stroke-width="1" x1="943" x2="943" y1="287" y2="270" /><line stroke="#000000" stroke-width="1" x1="939" x2="939" y1="287" y2="270" /><line stroke="#000000" stroke-width="1" x1="935" x2="935" y1="287" y2="270" /><line stroke="#000000" stroke-width="1" x1="931" x2="931" y1="287" y2="270" /><line stroke="#000000" stroke-width="1" x1="927" x2="927" y1="287" y2="270" /><line stroke="#000000" stroke-width="1" x1="923" x2="923" y1="287" y2="270" /><line stroke="#000000" stroke-width="1" x1="919" x2="919" y1="287" y2="270" /><line stroke="#000000" stroke-width="1" x1="915" x2="915" y1="287" y2="270" /><line stroke="#000000" stroke-width="1" x1="959" x2="959" y1="497" y2="514" /><line stroke="#000000" stroke-width="1" x1="955" x2="955" y1="497" y2="514" /><line stroke="#000000" stroke-width="1" x1="951" x2="951" y1="497" y2="514" /><line stroke="#000000" stroke-width="1" x1="947" x2="947" y1="497" y2="514" /><line stroke="#000000" stroke-width="1" x1="943" x2="943" y1="497" y2="514" /><line stroke="#000000" stroke-width="1" x1="939" x2="939" y1="497" y2="514" /><line stroke="#000000" stroke-width="1" x1="935" x2="935" y1="497" y2="514" /><line stroke="#000000" stroke-width="1" x1="931" x2="931" y1="497" y2="514" /><line stroke="#000000" stroke-width="1" x1="927" x2="927" y1="497" y2="514" /><line stroke="#000000" stroke-width="1" x1="923" x2="923" y1="497" y2="514" /><line stroke="#000000" stroke-width="1" x1="919" x2="919" y1="497" y2="514" /><line stroke="#000000" stroke-width="1" x1="915" x2="915" y1="497" y2="514" /><polygon fill="#D0D0D0" points="874,416 874,373 888,373 888,416" stroke="#000000" stroke-width="1" /><polyline fill="none" points="306,434 306,424 254,424 254,455 187,455 187,448 174,448 174,497 224,497" stroke="#000000" stroke-width="1" /><polyline fill="none" points="-2,497 154,497 154,270 224,270" stroke="#000000" stroke-width="1" /><polyline fill="none" points="224,287 174,287 174,336 188,336 188,329 254,329 254,364 306,364 306,354" stroke="#000000" stroke-width="1" /><polyline fill="none" points="-2,514 224,514" stroke="#000000" stroke-width="1" /><line stroke="#000000" stroke-width="1" x1="302" x2="302" y1="364" y2="424" /><line stroke="#000000" stroke-width="1" x1="298" x2="298" y1="364" y2="424" /><line stroke="#000000" stroke-width="1" x1="294" x2="294" y1="364" y2="424" /><line stroke="#000000" stroke-width="1" x1="290" x2="290" y1="364" y2="424" /><line stroke="#000000" stroke-width="1" x1="286" x2="286" y1="364" y2="424" /><line stroke="#000000" stroke-width="1" x1="282" x2="282" y1="364" y2="424" /><line stroke="#000000" stroke-width="1" x1="278" x2="278" y1="364" y2="424" /><line stroke="#000000" stroke-width="1" x1="274" x2="274" y1="364" y2="424" /><line stroke="#000000" stroke-width="1" x1="270" x2="270" y1="364" y2="424" /><line stroke="#000000" stroke-width="1" x1="266" x2="266" y1="364" y2="424" /><line stroke="#000000" stroke-width="1" x1="262" x2="262" y1="364" y2="424" /><line stroke="#000000" stroke-width="1" x1="258" x2="258" y1="364" y2="424" /><line stroke="#000000" stroke-width="1" x1="222" x2="222" y1="497" y2="514" /><line stroke="#000000" stroke-width="1" x1="218" x2="218" y1="497" y2="514" /><line stroke="#000000" stroke-width="1" x1="214" x2="214" y1="497" y2="514" /><line stroke="#000000" stroke-width="1" x1="210" x2="210" y1="497" y2="514" /><line stroke="#000000" stroke-width="1" x1="206" x2="206" y1="497" y2="514" /><line stroke="#000000" stroke-width="1" x1="202" x2="202" y1="497" y2="514" /><line stroke="#000000" stroke-width="1" x1="198" x2="198" y1="497" y2="514" /><line stroke="#000000" stroke-width="1" x1="194" x2="194" y1="497" y2="514" /><line stroke="#000000" stroke-width="1" x1="190" x2="190" y1="497" y2="514" /><line stroke="#000000" stroke-width="1" x1="186" x2="186" y1="497" y2="514" /><line stroke="#000000" stroke-width="1" x1="182" x2="182" y1="497" y2="514" /><line stroke="#000000" stroke-width="1" x1="178" x2="178" y1="497" y2="514" /><line stroke="#000000" stroke-width="1" x1="0" x2="0" y1="497" y2="514" /><line stroke="#000000" stroke-width="1" x1="4" x2="4" y1="497" y2="514" /><line stroke="#000000" stroke-width="1" x1="8" x2="8" y1="497" y2="514" /><line stroke="#000000" stroke-width="1" x1="12" x2="12" y1="497" y2="514" /><line stroke="#000000" stroke-width="1" x1="16" x2="16" y1="497" y2="514" /><line stroke="#000000" stroke-width="1" x1="20" x2="20" y1="497" y2="514" /><line stroke="#000000" stroke-width="1" x1="24" x2="24" y1="497" y2="514" /><line stroke="#000000" stroke-width="1" x1="28" x2="28" y1="497" y2="514" /><line stroke="#000000" stroke-width="1" x1="32" x2="32" y1="497" y2="514" /><line stroke="#000000" stroke-width="1" x1="36" x2="36" y1="497" y2="514" /><line stroke="#000000" stroke-width="1" x1="40" x2="40" y1="497" y2="514" /><line stroke="#000000" stroke-width="1" x1="44" x2="44" y1="497" y2="514" /><line stroke="#000000" stroke-width="1" x1="222" x2="222" y1="287" y2="270" /><line stroke="#000000" stroke-width="1" x1="218" x2="218" y1="287" y2="270" /><line stroke="#000000" stroke-width="1" x1="214" x2="214" y1="287" y2="270" /><line stroke="#000000" stroke-width="1" x1="210" x2="210" y1="287" y2="270" /><line stroke="#000000" stroke-width="1" x1="206" x2="206" y1="287" y2="270" /><line stroke="#000000" stroke-width="1" x1="202" x2="202" y1="287" y2="270" /><line stroke="#000000" stroke-width="1" x1="198" x2="198" y1="287" y2="270" /><line stroke="#000000" stroke-width="1" x1="194" x2="194" y1="287" y2="270" /><line stroke="#000000" stroke-width="1" x1="190" x2="190" y1="287" y2="270" /><line stroke="#000000" stroke-width="1" x1="186" x2="186" y1="287" y2="270" /><line stroke="#000000" stroke-width="1" x1="182" x2="182" y1="287" y2="270" /><line stroke="#000000" stroke-width="1" x1="178" x2="178" y1="287" y2="270" /><polygon fill="#D0D0D0" points="174,414 174,371 188,371 188,414" stroke="#000000" stroke-width="1" /><text fill="#00AFAF" font-family="Arial" font-size="15" stroke="none" x="10" y="392.0">проспект Беруни</text><text fill="#00AFAF" font-family="Arial" font-size="15" stroke="none" x="927" y="398.0">проспект Беруни</text><text fill="#00AFAF" font-family="Arial" font-size="15" stroke="none" transform="rotate(-90.0,104,293)" x="104" y="308.0">улица Матлубот</text></g></svg>