<?xml version="1.0" encoding="utf-8" ?>
<svg baseProfile="full" height="880.0" version="1.1" width="470.0" xmlns="http://www.w3.org/2000/svg" xmlns:ev="http://www.w3.org/2001/xml-events" xmlns:xlink="http://www.w3.org/1999/xlink">
  <defs>
    <marker id="id406" markerHeight="3" markerUnits="strokeWidth" markerWidth="4" orient="auto" refX="0" refY="5" viewBox="0,0,10,10">
      <path d="M 0 0 L 10 5 L 0 10 z"/>
    </marker>
  </defs>
  <g>
    <rect fill="none" height="880.0" stroke="none" stroke-width="0" width="470.0" x="0.0" y="0.0"/>
    <g transform="rotate(-75.0,235.0,440.0)">
      <polygon fill="#0078c9" points="670.0,497.0 670.0,527.0 220.0,527.0 220.0,497.0" stroke="#000000" stroke-width="1"/>
      <polygon fill="#0078c9" points="670.0,417.0 670.0,387.0 220.0,387.0 220.0,417.0" stroke="#000000" stroke-width="1"/>
      <text fill="#0078c9" font-family="Arial" font-size="20.0" stroke="none" stroke-width="0" x="542.0" y="547.0">Пионерская &gt;&gt;</text>
      <text fill="#0078c9" font-family="Arial" font-size="20.0" stroke="none" stroke-width="0" x="217.0" y="381.0">&lt;&lt; Петроградская</text>
      <text fill="#0078c9" font-family="Arial" font-size="25.0" stroke="none" stroke-width="0" x="363.0" y="465.0">Чёрная речка</text>
      <polyline fill="none" points="670.0,417.0 670.0,433.0 603.0,433.0 603.0,443.0 618.0,451.0 635.0,453.0 635.0,460.0 618.0,462.0 603.0,470.0 603.0,480.0 670.0,480.0 670.0,497.0" stroke="#000000" stroke-width="1"/>
      <polyline fill="none" points="603.0,475.0 581.0,475.0 570.0,464.0 570.0,449.0 581.0,438.0 603.0,438.0" stroke="#000000" stroke-width="0.5"/>
      <polyline fill="none" points="220.0,497.0 220.0,479.0 135.0,479.0 135.0,476.0" stroke="#000000" stroke-width="1"/>
      <polyline fill="none" points="220.0,417.0 220.0,433.0 135.0,433.0 135.0,436.0" stroke="#000000" stroke-width="1"/>
      <line stroke="#000000" stroke-width="1" x1="218.0" x2="218.0" y1="479.0" y2="433.0"/>
      <line stroke="#000000" stroke-width="1" x1="214.0" x2="214.0" y1="479.0" y2="433.0"/>
      <line stroke="#000000" stroke-width="1" x1="210.0" x2="210.0" y1="479.0" y2="433.0"/>
      <line stroke="#000000" stroke-width="1" x1="206.0" x2="206.0" y1="479.0" y2="433.0"/>
      <line stroke="#000000" stroke-width="1" x1="202.0" x2="202.0" y1="479.0" y2="433.0"/>
      <line stroke="#000000" stroke-width="1" x1="198.0" x2="198.0" y1="479.0" y2="433.0"/>
      <line stroke="#000000" stroke-width="1" x1="194.0" x2="194.0" y1="479.0" y2="433.0"/>
      <line stroke="#000000" stroke-width="1" x1="190.0" x2="190.0" y1="479.0" y2="433.0"/>
      <line stroke="#000000" stroke-width="1" x1="186.0" x2="186.0" y1="479.0" y2="433.0"/>
      <line stroke="#000000" stroke-width="1" x1="182.0" x2="182.0" y1="479.0" y2="433.0"/>
      <line stroke="#000000" stroke-width="1" x1="178.0" x2="178.0" y1="479.0" y2="433.0"/>
      <line stroke="#000000" stroke-width="1" x1="174.0" x2="174.0" y1="479.0" y2="433.0"/>
      <line stroke="#7f7f7f" stroke-width="1" x1="-31.0" x2="-31.0" y1="439.0" y2="473.0"/>
      <line stroke="#7f7f7f" stroke-width="1" x1="-27.0" x2="-27.0" y1="439.0" y2="473.0"/>
      <line stroke="#7f7f7f" stroke-width="1" x1="-23.0" x2="-23.0" y1="439.0" y2="473.0"/>
      <line stroke="#7f7f7f" stroke-width="1" x1="-19.0" x2="-19.0" y1="439.0" y2="473.0"/>
      <line stroke="#7f7f7f" stroke-width="1" x1="-15.0" x2="-15.0" y1="439.0" y2="473.0"/>
      <line stroke="#7f7f7f" stroke-width="1" x1="-11.0" x2="-11.0" y1="439.0" y2="473.0"/>
      <line stroke="#7f7f7f" stroke-width="1" x1="-7.0" x2="-7.0" y1="439.0" y2="473.0"/>
      <line stroke="#7f7f7f" stroke-width="1" x1="-3.0" x2="-3.0" y1="439.0" y2="473.0"/>
      <line stroke="#7f7f7f" stroke-width="1" x1="1.0" x2="1.0" y1="439.0" y2="473.0"/>
      <line stroke="#7f7f7f" stroke-width="1" x1="5.0" x2="5.0" y1="439.0" y2="473.0"/>
      <line stroke="#7f7f7f" stroke-width="1" x1="9.0" x2="9.0" y1="439.0" y2="473.0"/>
      <line stroke="#7f7f7f" stroke-width="1" x1="13.0" x2="13.0" y1="439.0" y2="473.0"/>
      <line stroke="#7f7f7f" stroke-width="1" x1="17.0" x2="17.0" y1="439.0" y2="473.0"/>
      <line stroke="#7f7f7f" stroke-width="1" x1="21.0" x2="21.0" y1="439.0" y2="473.0"/>
      <line stroke="#7f7f7f" stroke-width="1" x1="25.0" x2="25.0" y1="439.0" y2="473.0"/>
      <line stroke="#7f7f7f" stroke-width="1" x1="29.0" x2="29.0" y1="439.0" y2="473.0"/>
      <line stroke="#7f7f7f" stroke-width="1" x1="33.0" x2="33.0" y1="439.0" y2="473.0"/>
      <line stroke="#7f7f7f" stroke-width="1" x1="37.0" x2="37.0" y1="439.0" y2="473.0"/>
      <line stroke="#7f7f7f" stroke-width="1" x1="41.0" x2="41.0" y1="439.0" y2="473.0"/>
      <line stroke="#7f7f7f" stroke-width="1" x1="45.0" x2="45.0" y1="439.0" y2="473.0"/>
      <line stroke="#7f7f7f" stroke-width="1" x1="49.0" x2="49.0" y1="439.0" y2="473.0"/>
      <line stroke="#7f7f7f" stroke-width="1" x1="53.0" x2="53.0" y1="439.0" y2="473.0"/>
      <line stroke="#7f7f7f" stroke-width="1" x1="57.0" x2="57.0" y1="439.0" y2="473.0"/>
      <line stroke="#7f7f7f" stroke-width="1" x1="61.0" x2="61.0" y1="439.0" y2="473.0"/>
      <line stroke="#7f7f7f" stroke-width="1" x1="65.0" x2="65.0" y1="439.0" y2="473.0"/>
      <line stroke="#7f7f7f" stroke-width="1" x1="69.0" x2="69.0" y1="439.0" y2="473.0"/>
      <line stroke="#7f7f7f" stroke-width="1" x1="73.0" x2="73.0" y1="439.0" y2="473.0"/>
      <line stroke="#7f7f7f" stroke-width="1" x1="77.0" x2="77.0" y1="439.0" y2="473.0"/>
      <line stroke="#7f7f7f" stroke-width="1" x1="81.0" x2="81.0" y1="439.0" y2="473.0"/>
      <line stroke="#7f7f7f" stroke-width="1" x1="85.0" x2="85.0" y1="439.0" y2="473.0"/>
      <line stroke="#7f7f7f" stroke-width="1" x1="89.0" x2="89.0" y1="439.0" y2="473.0"/>
      <line stroke="#7f7f7f" stroke-width="1" x1="93.0" x2="93.0" y1="439.0" y2="473.0"/>
      <line stroke="#7f7f7f" stroke-width="1" x1="97.0" x2="97.0" y1="439.0" y2="473.0"/>
      <line stroke="#7f7f7f" stroke-width="1" x1="101.0" x2="101.0" y1="439.0" y2="473.0"/>
      <line stroke="#7f7f7f" stroke-width="1" x1="105.0" x2="105.0" y1="439.0" y2="473.0"/>
      <line stroke="#7f7f7f" stroke-width="1" x1="109.0" x2="109.0" y1="439.0" y2="473.0"/>
      <line stroke="#7f7f7f" stroke-width="1" x1="113.0" x2="113.0" y1="439.0" y2="473.0"/>
      <line stroke="#7f7f7f" stroke-width="1" x1="117.0" x2="117.0" y1="439.0" y2="473.0"/>
      <line stroke="#7f7f7f" stroke-width="1" x1="121.0" x2="121.0" y1="439.0" y2="473.0"/>
      <line stroke="#7f7f7f" stroke-width="1" x1="125.0" x2="125.0" y1="439.0" y2="473.0"/>
      <line stroke="#7f7f7f" stroke-width="1" x1="129.0" x2="129.0" y1="439.0" y2="473.0"/>
      <line stroke="#7f7f7f" stroke-width="1" x1="133.0" x2="133.0" y1="439.0" y2="473.0"/>
      <line stroke="#7f7f7f" stroke-width="1" x1="137.0" x2="137.0" y1="439.0" y2="473.0"/>
      <polygon fill="#9b5509" points="-38.0,473.0 142.0,473.0 142.0,476.0 -38.0,476.0" stroke="#000000" stroke-width="1"/>
      <polygon fill="#9b5509" points="-38.0,465.0 -38.0,460.0 142.0,460.0 142.0,465.0" stroke="#000000" stroke-width="1"/>
      <polygon fill="#9b5509" points="-38.0,452.0 -38.0,447.0 142.0,447.0 142.0,452.0" stroke="#000000" stroke-width="1"/>
      <polygon fill="#9b5509" points="-38.0,439.0 142.0,439.0 142.0,436.0 -38.0,436.0" stroke="#000000" stroke-width="1"/>
    </g>
    <g fill="#9b5509" fill-opacity="0.8" stroke="#000000" stroke-opacity="0.8" transform="rotate(-75.0,235.0,440.0)">
      <polygon fill="#ffffff" points="90.0,477.0 90.0,435.0 43.0,435.0 43.0,477.0" stroke="#ffffff" stroke-width="1"/>
    </g>
    <g fill="#ffffff" fill-opacity="1.0" stroke="#ffffff" stroke-opacity="1.0" transform="rotate(-75.0,235.0,440.0)">
      <polyline fill="none" points="-1.0,380.0 -5.0,380.0 -5.0,404.0 12.0,404.0 43.0,435.0 43.0,477.0 12.0,508.0 -74.0,508.0 -74.0,514.0" stroke="#000000" stroke-width="1"/>
      <polyline fill="none" points="-101.0,514.0 -101.0,508.0 -109.0,508.0 -112.0,505.0 -119.0,512.0" stroke="#000000" stroke-width="1"/>
      <polyline fill="none" points="8.0,584.0 -7.0,569.0 -179.0,569.0" stroke="#000000" stroke-width="1"/>
      <polyline fill="none" points="-179.0,469.0 -144.0,469.0 -144.0,487.0 -136.0,495.0 -129.0,488.0 -132.0,485.0 -132.0,357.0 -106.0,331.0 -5.0,331.0 -5.0,348.0 5.0,348.0 29.0,324.0 29.0,306.0" stroke="#000000" stroke-width="1"/>
      <path d="M29.0,306.0 C29.0,306.0 30.0,307.1666666666667 29.0,306.0 C28.0,304.8333333333333 23.0,301.3333333333333 23.0,299.0 C23.0,296.6666666666667 29.0,292.0 29.0,292.0 " fill="none" stroke="#000000" stroke-width="1"/>
      <polyline fill="none" points="29.0,292.0 29.0,270.0" stroke="#000000" stroke-width="1"/>
      <polyline fill="none" points="63.0,270.0 63.0,292.0" stroke="#000000" stroke-width="1"/>
      <path d="M63.0,292.0 C63.0,292.0 62.0,290.8333333333333 63.0,292.0 C64.0,293.1666666666667 69.0,296.6666666666667 69.0,299.0 C69.0,301.3333333333333 63.0,306.0 63.0,306.0 " fill="none" stroke="#000000" stroke-width="1"/>
      <polyline fill="none" points="63.0,306.0 63.0,324.0 91.0,324.0" stroke="#000000" stroke-width="1"/>
      <line stroke="#000000" stroke-width="1" x1="-177.0" x2="-177.0" y1="569.0" y2="469.0"/>
      <line stroke="#000000" stroke-width="1" x1="-173.0" x2="-173.0" y1="569.0" y2="469.0"/>
      <line stroke="#000000" stroke-width="1" x1="-169.0" x2="-169.0" y1="569.0" y2="469.0"/>
      <line stroke="#000000" stroke-width="1" x1="-165.0" x2="-165.0" y1="569.0" y2="469.0"/>
      <line stroke="#000000" stroke-width="1" x1="29.0" x2="63.0" y1="274.0" y2="274.0"/>
      <line stroke="#000000" stroke-width="1" x1="29.0" x2="63.0" y1="278.0" y2="278.0"/>
      <line stroke="#000000" stroke-width="1" x1="29.0" x2="63.0" y1="282.0" y2="282.0"/>
      <line stroke="#000000" stroke-width="1" x1="29.0" x2="63.0" y1="286.0" y2="286.0"/>
      <polyline fill="none" points="6.0,582.0 88.0,500.0 88.0,324.0" stroke="#000000" stroke-width="1"/>
      <polyline fill="none" points="3.0,579.0 84.0,498.0 84.0,324.0" stroke="#000000" stroke-width="1"/>
      <polyline fill="none" points="0.0,576.0 80.0,496.0 80.0,324.0" stroke="#000000" stroke-width="1"/>
      <polyline fill="none" points="-3.0,573.0 76.0,494.0 76.0,324.0" stroke="#000000" stroke-width="1"/>
      <polyline fill="none" points="-6.0,570.0 72.0,492.0 72.0,324.0" stroke="#000000" stroke-width="1"/>
      <polyline fill="none" points="-5.0,397.0 -54.0,397.0" stroke="#000000" stroke-width="0.5"/>
      <polyline fill="none" points="-110.0,397.0 -120.0,397.0 -120.0,414.0 -92.0,460.0 -38.0,460.0" stroke="#000000" stroke-width="0.5"/>
      <line stroke="#009900" stroke-width="1" x1="-110.0" x2="-110.0" y1="400.0" y2="394.0"/>
      <line stroke="#009900" stroke-width="1" x1="-106.0" x2="-106.0" y1="400.0" y2="394.0"/>
      <line stroke="#009900" stroke-width="1" x1="-102.0" x2="-102.0" y1="400.0" y2="394.0"/>
      <line stroke="#009900" stroke-width="1" x1="-98.0" x2="-98.0" y1="400.0" y2="394.0"/>
      <line stroke="#009900" stroke-width="1" x1="-94.0" x2="-94.0" y1="400.0" y2="394.0"/>
      <line stroke="#009900" stroke-width="1" x1="-90.0" x2="-90.0" y1="400.0" y2="394.0"/>
      <line stroke="#009900" stroke-width="1" x1="-86.0" x2="-86.0" y1="400.0" y2="394.0"/>
      <line stroke="#009900" stroke-width="1" x1="-82.0" x2="-82.0" y1="400.0" y2="394.0"/>
      <line stroke="#009900" stroke-width="1" x1="-78.0" x2="-78.0" y1="400.0" y2="394.0"/>
      <line stroke="#009900" stroke-width="1" x1="-74.0" x2="-74.0" y1="400.0" y2="394.0"/>
      <line stroke="#009900" stroke-width="1" x1="-70.0" x2="-70.0" y1="400.0" y2="394.0"/>
      <line stroke="#009900" stroke-width="1" x1="-66.0" x2="-66.0" y1="400.0" y2="394.0"/>
      <line stroke="#009900" stroke-width="1" x1="-62.0" x2="-62.0" y1="400.0" y2="394.0"/>
      <line stroke="#009900" stroke-width="1" x1="-58.0" x2="-58.0" y1="400.0" y2="394.0"/>
      <line stroke="#009900" stroke-width="1" x1="-54.0" x2="-54.0" y1="400.0" y2="394.0"/>
      <polyline fill="none" marker-end="url(#id406)" points="-117.0,494.0 -130.0,507.0" stroke="#ff0000" stroke-width="1"/>
      <polyline fill="none" marker-end="url(#id406)" points="-87.0,503.0 -87.0,523.0" stroke="#ff0000" stroke-width="1"/>
      <polyline fill="none" marker-end="url(#id406)" points="12.0,364.0 -17.0,364.0" stroke="#009900" stroke-width="1"/>
      <text fill="#00afaf" font-family="Arial" font-size="15.0" stroke="none" stroke-width="0" transform="rotate(-360.0,-128.0,652.0)" x="-128.0" y="667.0">улица Академика Крылова</text>
    </g>
  </g>
</svg>
