<?xml version="1.0" encoding="utf-8" ?>
<svg baseProfile="full" height="100%" version="1.1" width="100%" xmlns="http://www.w3.org/2000/svg" xmlns:ev="http://www.w3.org/2001/xml-events" xmlns:xlink="http://www.w3.org/1999/xlink"><defs><marker id="id19" markerHeight="3" markerUnits="strokeWidth" markerWidth="4" orient="auto" refX="0" refY="5" viewBox="0,0,10,10"><path d="M 0 0 L 10 5 L 0 10 z" /></marker></defs><g transform="rotate(50.0,340,360)"><rect fill="none" height="720" stroke="none" stroke-width="0" width="680" x="0" y="0" /><polygon fill="#009A49" points="-65,335 -65,305 385,305 385,335" stroke="#000000" stroke-width="1" /><polygon fill="#009A49" points="-65,415 -65,445 385,445 385,415" stroke="#000000" stroke-width="1" /><polyline fill="none" points="438,356 438,353 385,353 385,338 373,338 373,339 360,339 360,337 355,337 355,339 343,339 343,337 338,337 338,339 326,339 326,337 321,337 321,339 309,339 309,337 304,337 304,339 292,339 292,337 287,337 287,339 275,339 275,337 270,337 270,339 258,339 258,337 253,337 253,339 241,339 241,337 236,337 236,339 224,339 224,337 219,337 219,339 207,339 207,337 202,337 202,339 190,339 190,337 185,337 185,339 173,339 173,337 168,337 168,339 156,339 156,337 151,337 151,339 139,339 139,337 134,337 134,339 122,339 122,337 117,337 117,339 105,339 105,337 100,337 100,339 88,339 88,337 83,337 83,339 71,339 71,337 66,337 66,339 54,339 54,337 49,337 49,339 37,339 37,337 32,337 32,339 20,339 20,337 15,337 15,339 3,339 3,337 -2,337 -2,339 -14,339 -14,337 -19,337 -19,339 -31,339 -31,337 -36,337 -36,339 -49,339 -49,338 -65,338" stroke="#000000" stroke-width="1" /><polyline fill="none" points="438,396 438,399 385,399 385,412 373,412 373,411 360,411 360,413 355,413 355,411 343,411 343,413 338,413 338,411 326,411 326,413 321,413 321,411 309,411 309,413 304,413 304,411 292,411 292,413 287,413 287,411 275,411 275,413 270,413 270,411 258,411 258,413 253,413 253,411 241,411 241,413 236,413 236,411 224,411 224,413 219,413 219,411 207,411 207,413 202,413 202,411 190,411 190,413 185,413 185,411 173,411 173,413 168,413 168,411 156,411 156,413 151,413 151,411 139,411 139,413 134,413 134,411 122,411 122,413 117,413 117,411 105,411 105,413 100,413 100,411 88,411 88,413 83,413 83,411 71,411 71,413 66,413 66,411 54,411 54,413 49,413 49,411 37,411 37,413 32,413 32,411 20,411 20,413 15,413 15,411 3,411 3,413 -2,413 -2,411 -14,411 -14,413 -19,413 -19,411 -31,411 -31,413 -36,413 -36,411 -49,411 -49,412 -65,412 -65,338" stroke="#000000" stroke-width="1" /><line stroke="#7F7F7F" stroke-width="1" x1="540" x2="540" y1="393" y2="359" /><line stroke="#7F7F7F" stroke-width="1" x1="536" x2="536" y1="393" y2="359" /><line stroke="#7F7F7F" stroke-width="1" x1="532" x2="532" y1="393" y2="359" /><line stroke="#7F7F7F" stroke-width="1" x1="528" x2="528" y1="393" y2="359" /><line stroke="#7F7F7F" stroke-width="1" x1="524" x2="524" y1="393" y2="359" /><line stroke="#7F7F7F" stroke-width="1" x1="520" x2="520" y1="393" y2="359" /><line stroke="#7F7F7F" stroke-width="1" x1="516" x2="516" y1="393" y2="359" /><line stroke="#7F7F7F" stroke-width="1" x1="512" x2="512" y1="393" y2="359" /><line stroke="#7F7F7F" stroke-width="1" x1="508" x2="508" y1="393" y2="359" /><line stroke="#7F7F7F" stroke-width="1" x1="504" x2="504" y1="393" y2="359" /><line stroke="#7F7F7F" stroke-width="1" x1="500" x2="500" y1="393" y2="359" /><line stroke="#7F7F7F" stroke-width="1" x1="496" x2="496" y1="393" y2="359" /><line stroke="#7F7F7F" stroke-width="1" x1="492" x2="492" y1="393" y2="359" /><line stroke="#7F7F7F" stroke-width="1" x1="488" x2="488" y1="393" y2="359" /><line stroke="#7F7F7F" stroke-width="1" x1="484" x2="484" y1="393" y2="359" /><line stroke="#7F7F7F" stroke-width="1" x1="480" x2="480" y1="393" y2="359" /><line stroke="#7F7F7F" stroke-width="1" x1="476" x2="476" y1="393" y2="359" /><line stroke="#7F7F7F" stroke-width="1" x1="472" x2="472" y1="393" y2="359" /><line stroke="#7F7F7F" stroke-width="1" x1="468" x2="468" y1="393" y2="359" /><line stroke="#7F7F7F" stroke-width="1" x1="464" x2="464" y1="393" y2="359" /><line stroke="#7F7F7F" stroke-width="1" x1="460" x2="460" y1="393" y2="359" /><line stroke="#7F7F7F" stroke-width="1" x1="456" x2="456" y1="393" y2="359" /><line stroke="#7F7F7F" stroke-width="1" x1="452" x2="452" y1="393" y2="359" /><line stroke="#7F7F7F" stroke-width="1" x1="448" x2="448" y1="393" y2="359" /><line stroke="#7F7F7F" stroke-width="1" x1="444" x2="444" y1="393" y2="359" /><line stroke="#7F7F7F" stroke-width="1" x1="440" x2="440" y1="393" y2="359" /><line stroke="#7F7F7F" stroke-width="1" x1="436" x2="436" y1="393" y2="359" /><polygon fill="#9B5509" points="547,359 431,359 431,356 547,356" stroke="#000000" stroke-width="1" /><polygon fill="#9B5509" points="547,367 547,372 431,372 431,367" stroke="#000000" stroke-width="1" /><polygon fill="#9B5509" points="547,380 547,385 431,385 431,380" stroke="#000000" stroke-width="1" /><polygon fill="#9B5509" points="547,393 431,393 431,396 547,396" stroke="#000000" stroke-width="1" /><g fill="#9B5509" fill-opacity="0.8" stroke="#000000" stroke-opacity="0.8"><polygon fill="#FFFFFF" points="536,355 510,355 510,397 536,397 532,393 529,389 527,385 525,380 525,376 525,372 527,367 529,363 532,359" stroke="#FFFFFF" stroke-width="1" /></g><g fill="#FFFFFF" fill-opacity="1.0" stroke="#FFFFFF" stroke-opacity="1.0"><path d="M536,356 C536,356 537.833333333,352.666666667 536,356 C534.166666667,359.333333333 525,369.333333333 525,376 C525,382.666666667 536,396 536,396 " fill="none" stroke="#000000" stroke-width="1" /><polyline fill="none" points="699,302 699,293 510,293 510,456 699,456 699,447" stroke="#000000" stroke-width="1" /><polygon fill="#CCCCCC" points="699,412 658,412 658,404 677,404 677,346 659,346 659,338 699,338" stroke="#000000" stroke-width="1" /><polyline fill="none" points="547,356 612,356 616,366" stroke="#000000" stroke-width="1" /><polyline fill="none" points="547,396 601,416 608,412" stroke="#000000" stroke-width="1" /><polyline fill="none" points="626,388 631,399 624,403" stroke="#000000" stroke-width="1" /><line stroke="#009900" stroke-width="1" x1="614" x2="618" y1="367" y2="365" /><line stroke="#009900" stroke-width="1" x1="615.666618842" x2="619.666618842" y1="370.636259292" y2="368.636259292" /><line stroke="#009900" stroke-width="1" x1="617.333237684" x2="621.333237684" y1="374.272518583" y2="372.272518583" /><line stroke="#009900" stroke-width="1" x1="618.999856526" x2="622.999856526" y1="377.908777875" y2="375.908777875" /><line stroke="#009900" stroke-width="1" x1="620.666475368" x2="624.666475368" y1="381.545037166" y2="379.545037166" /><line stroke="#009900" stroke-width="1" x1="622.33309421" x2="626.33309421" y1="385.181296458" y2="383.181296458" /><line stroke="#009900" stroke-width="1" x1="623.999713052" x2="627.999713052" y1="388.817555749" y2="386.817555749" /><line stroke="#FF0000" stroke-width="1" x1="623" x2="625" y1="401" y2="405" /><line stroke="#FF0000" stroke-width="1" x1="619.513697852" x2="621.513697852" y1="402.961044959" y2="406.961044959" /><line stroke="#FF0000" stroke-width="1" x1="616.027395703" x2="618.027395703" y1="404.922089917" y2="408.922089917" /><line stroke="#FF0000" stroke-width="1" x1="612.541093555" x2="614.541093555" y1="406.883134876" y2="410.883134876" /><line stroke="#FF0000" stroke-width="1" x1="609.054791406" x2="611.054791406" y1="408.844179834" y2="412.844179834" /><polyline fill="none" marker-end="url(#id19)" points="675,430 692,430" stroke="#FF0000" stroke-width="1" /><polyline fill="none" marker-end="url(#id19)" points="692,320 675,320" stroke="#009900" stroke-width="1" /><text fill="#009A49" font-family="Arial" font-size="20" stroke="none" stroke-width="0" x="-62" y="299.0">&lt;&lt; Площадь Александра Невского-I</text><text fill="#009A49" font-family="Arial" font-size="20" stroke="none" stroke-width="0" x="230" y="465.0">Ломоносовская &gt;&gt;</text><text fill="#009A49" font-family="Arial" font-size="25" stroke="none" stroke-width="0" x="84" y="383.0">Елизаровская</text><text fill="#00AFAF" font-family="Arial" font-size="15" stroke="none" stroke-width="0" x="525" y="519.0">улица Бабушкина</text><text fill="#00AFAF" font-family="Arial" font-size="15" stroke="none" stroke-width="0" transform="rotate(-90.0,733,418)" x="733" y="433.0">проспект Елизарова</text></g></g></svg>