<?xml version="1.0" encoding="utf-8" ?>
<svg baseProfile="full" height="720.0" version="1.1" width="680.0" xmlns="http://www.w3.org/2000/svg" xmlns:ev="http://www.w3.org/2001/xml-events" xmlns:xlink="http://www.w3.org/1999/xlink">
  <defs>
    <marker id="id411" markerHeight="3" markerUnits="strokeWidth" markerWidth="4" orient="auto" refX="0" refY="5" viewBox="0,0,10,10">
      <path d="M 0 0 L 10 5 L 0 10 z"/>
    </marker>
  </defs>
  <g>
    <rect fill="none" height="720.0" stroke="none" stroke-width="0" width="680.0" x="0.0" y="0.0"/>
    <g transform="rotate(50.0,340.0,360.0)">
      <polygon fill="#009a49" points="-65.0,335.0 -65.0,305.0 385.0,305.0 385.0,335.0" stroke="#000000" stroke-width="1"/>
      <polygon fill="#009a49" points="-65.0,415.0 -65.0,445.0 385.0,445.0 385.0,415.0" stroke="#000000" stroke-width="1"/>
      <polyline fill="none" points="438.0,356.0 438.0,353.0 385.0,353.0 385.0,338.0 373.0,338.0 373.0,339.0 360.0,339.0 360.0,337.0 355.0,337.0 355.0,339.0 343.0,339.0 343.0,337.0 338.0,337.0 338.0,339.0 326.0,339.0 326.0,337.0 321.0,337.0 321.0,339.0 309.0,339.0 309.0,337.0 304.0,337.0 304.0,339.0 292.0,339.0 292.0,337.0 287.0,337.0 287.0,339.0 275.0,339.0 275.0,337.0 270.0,337.0 270.0,339.0 258.0,339.0 258.0,337.0 253.0,337.0 253.0,339.0 241.0,339.0 241.0,337.0 236.0,337.0 236.0,339.0 224.0,339.0 224.0,337.0 219.0,337.0 219.0,339.0 207.0,339.0 207.0,337.0 202.0,337.0 202.0,339.0 190.0,339.0 190.0,337.0 185.0,337.0 185.0,339.0 173.0,339.0 173.0,337.0 168.0,337.0 168.0,339.0 156.0,339.0 156.0,337.0 151.0,337.0 151.0,339.0 139.0,339.0 139.0,337.0 134.0,337.0 134.0,339.0 122.0,339.0 122.0,337.0 117.0,337.0 117.0,339.0 105.0,339.0 105.0,337.0 100.0,337.0 100.0,339.0 88.0,339.0 88.0,337.0 83.0,337.0 83.0,339.0 71.0,339.0 71.0,337.0 66.0,337.0 66.0,339.0 54.0,339.0 54.0,337.0 49.0,337.0 49.0,339.0 37.0,339.0 37.0,337.0 32.0,337.0 32.0,339.0 20.0,339.0 20.0,337.0 15.0,337.0 15.0,339.0 3.0,339.0 3.0,337.0 -2.0,337.0 -2.0,339.0 -14.0,339.0 -14.0,337.0 -19.0,337.0 -19.0,339.0 -31.0,339.0 -31.0,337.0 -36.0,337.0 -36.0,339.0 -49.0,339.0 -49.0,338.0 -65.0,338.0" stroke="#000000" stroke-width="1"/>
      <polyline fill="none" points="438.0,396.0 438.0,399.0 385.0,399.0 385.0,412.0 373.0,412.0 373.0,411.0 360.0,411.0 360.0,413.0 355.0,413.0 355.0,411.0 343.0,411.0 343.0,413.0 338.0,413.0 338.0,411.0 326.0,411.0 326.0,413.0 321.0,413.0 321.0,411.0 309.0,411.0 309.0,413.0 304.0,413.0 304.0,411.0 292.0,411.0 292.0,413.0 287.0,413.0 287.0,411.0 275.0,411.0 275.0,413.0 270.0,413.0 270.0,411.0 258.0,411.0 258.0,413.0 253.0,413.0 253.0,411.0 241.0,411.0 241.0,413.0 236.0,413.0 236.0,411.0 224.0,411.0 224.0,413.0 219.0,413.0 219.0,411.0 207.0,411.0 207.0,413.0 202.0,413.0 202.0,411.0 190.0,411.0 190.0,413.0 185.0,413.0 185.0,411.0 173.0,411.0 173.0,413.0 168.0,413.0 168.0,411.0 156.0,411.0 156.0,413.0 151.0,413.0 151.0,411.0 139.0,411.0 139.0,413.0 134.0,413.0 134.0,411.0 122.0,411.0 122.0,413.0 117.0,413.0 117.0,411.0 105.0,411.0 105.0,413.0 100.0,413.0 100.0,411.0 88.0,411.0 88.0,413.0 83.0,413.0 83.0,411.0 71.0,411.0 71.0,413.0 66.0,413.0 66.0,411.0 54.0,411.0 54.0,413.0 49.0,413.0 49.0,411.0 37.0,411.0 37.0,413.0 32.0,413.0 32.0,411.0 20.0,411.0 20.0,413.0 15.0,413.0 15.0,411.0 3.0,411.0 3.0,413.0 -2.0,413.0 -2.0,411.0 -14.0,411.0 -14.0,413.0 -19.0,413.0 -19.0,411.0 -31.0,411.0 -31.0,413.0 -36.0,413.0 -36.0,411.0 -49.0,411.0 -49.0,412.0 -65.0,412.0 -65.0,338.0" stroke="#000000" stroke-width="1"/>
      <line stroke="#7f7f7f" stroke-width="1" x1="540.0" x2="540.0" y1="393.0" y2="359.0"/>
      <line stroke="#7f7f7f" stroke-width="1" x1="536.0" x2="536.0" y1="393.0" y2="359.0"/>
      <line stroke="#7f7f7f" stroke-width="1" x1="532.0" x2="532.0" y1="393.0" y2="359.0"/>
      <line stroke="#7f7f7f" stroke-width="1" x1="528.0" x2="528.0" y1="393.0" y2="359.0"/>
      <line stroke="#7f7f7f" stroke-width="1" x1="524.0" x2="524.0" y1="393.0" y2="359.0"/>
      <line stroke="#7f7f7f" stroke-width="1" x1="520.0" x2="520.0" y1="393.0" y2="359.0"/>
      <line stroke="#7f7f7f" stroke-width="1" x1="516.0" x2="516.0" y1="393.0" y2="359.0"/>
      <line stroke="#7f7f7f" stroke-width="1" x1="512.0" x2="512.0" y1="393.0" y2="359.0"/>
      <line stroke="#7f7f7f" stroke-width="1" x1="508.0" x2="508.0" y1="393.0" y2="359.0"/>
      <line stroke="#7f7f7f" stroke-width="1" x1="504.0" x2="504.0" y1="393.0" y2="359.0"/>
      <line stroke="#7f7f7f" stroke-width="1" x1="500.0" x2="500.0" y1="393.0" y2="359.0"/>
      <line stroke="#7f7f7f" stroke-width="1" x1="496.0" x2="496.0" y1="393.0" y2="359.0"/>
      <line stroke="#7f7f7f" stroke-width="1" x1="492.0" x2="492.0" y1="393.0" y2="359.0"/>
      <line stroke="#7f7f7f" stroke-width="1" x1="488.0" x2="488.0" y1="393.0" y2="359.0"/>
      <line stroke="#7f7f7f" stroke-width="1" x1="484.0" x2="484.0" y1="393.0" y2="359.0"/>
      <line stroke="#7f7f7f" stroke-width="1" x1="480.0" x2="480.0" y1="393.0" y2="359.0"/>
      <line stroke="#7f7f7f" stroke-width="1" x1="476.0" x2="476.0" y1="393.0" y2="359.0"/>
      <line stroke="#7f7f7f" stroke-width="1" x1="472.0" x2="472.0" y1="393.0" y2="359.0"/>
      <line stroke="#7f7f7f" stroke-width="1" x1="468.0" x2="468.0" y1="393.0" y2="359.0"/>
      <line stroke="#7f7f7f" stroke-width="1" x1="464.0" x2="464.0" y1="393.0" y2="359.0"/>
      <line stroke="#7f7f7f" stroke-width="1" x1="460.0" x2="460.0" y1="393.0" y2="359.0"/>
      <line stroke="#7f7f7f" stroke-width="1" x1="456.0" x2="456.0" y1="393.0" y2="359.0"/>
      <line stroke="#7f7f7f" stroke-width="1" x1="452.0" x2="452.0" y1="393.0" y2="359.0"/>
      <line stroke="#7f7f7f" stroke-width="1" x1="448.0" x2="448.0" y1="393.0" y2="359.0"/>
      <line stroke="#7f7f7f" stroke-width="1" x1="444.0" x2="444.0" y1="393.0" y2="359.0"/>
      <line stroke="#7f7f7f" stroke-width="1" x1="440.0" x2="440.0" y1="393.0" y2="359.0"/>
      <line stroke="#7f7f7f" stroke-width="1" x1="436.0" x2="436.0" y1="393.0" y2="359.0"/>
      <polygon fill="#9b5509" points="547.0,359.0 431.0,359.0 431.0,356.0 547.0,356.0" stroke="#000000" stroke-width="1"/>
      <polygon fill="#9b5509" points="547.0,367.0 547.0,372.0 431.0,372.0 431.0,367.0" stroke="#000000" stroke-width="1"/>
      <polygon fill="#9b5509" points="547.0,380.0 547.0,385.0 431.0,385.0 431.0,380.0" stroke="#000000" stroke-width="1"/>
      <polygon fill="#9b5509" points="547.0,393.0 431.0,393.0 431.0,396.0 547.0,396.0" stroke="#000000" stroke-width="1"/>
    </g>
    <g fill="#9b5509" fill-opacity="0.8" stroke="#000000" stroke-opacity="0.8" transform="rotate(50.0,340.0,360.0)">
      <polygon fill="#ffffff" points="536.0,355.0 510.0,355.0 510.0,397.0 536.0,397.0 532.0,393.0 529.0,389.0 527.0,385.0 525.0,380.0 525.0,376.0 525.0,372.0 527.0,367.0 529.0,363.0 532.0,359.0" stroke="#ffffff" stroke-width="1"/>
    </g>
    <g fill="#ffffff" fill-opacity="1.0" stroke="#ffffff" stroke-opacity="1.0" transform="rotate(50.0,340.0,360.0)">
      <path d="M536.0,356.0 C536.0,356.0 537.8333333333334,352.6666666666667 536.0,356.0 C534.1666666666666,359.3333333333333 525.0,369.3333333333333 525.0,376.0 C525.0,382.6666666666667 536.0,396.0 536.0,396.0 " fill="none" stroke="#000000" stroke-width="1"/>
      <polyline fill="none" points="699.0,302.0 699.0,293.0 510.0,293.0 510.0,456.0 699.0,456.0 699.0,447.0" stroke="#000000" stroke-width="1"/>
      <polygon fill="#cccccc" points="699.0,412.0 658.0,412.0 658.0,404.0 677.0,404.0 677.0,346.0 659.0,346.0 659.0,338.0 699.0,338.0" stroke="#000000" stroke-width="1"/>
      <polyline fill="none" points="547.0,356.0 612.0,356.0 616.0,366.0" stroke="#000000" stroke-width="1"/>
      <polyline fill="none" points="547.0,396.0 601.0,416.0 608.0,412.0" stroke="#000000" stroke-width="1"/>
      <polyline fill="none" points="626.0,388.0 631.0,399.0 624.0,403.0" stroke="#000000" stroke-width="1"/>
      <line stroke="#009900" stroke-width="1" x1="614.0" x2="618.0" y1="367.0" y2="365.0"/>
      <line stroke="#009900" stroke-width="1" x1="615.6666188419729" x2="619.6666188419729" y1="370.6362592915771" y2="368.6362592915771"/>
      <line stroke="#009900" stroke-width="1" x1="617.3332376839458" x2="621.3332376839458" y1="374.27251858315424" y2="372.27251858315424"/>
      <line stroke="#009900" stroke-width="1" x1="618.9998565259186" x2="622.9998565259186" y1="377.90877787473136" y2="375.90877787473136"/>
      <line stroke="#009900" stroke-width="1" x1="620.6664753678915" x2="624.6664753678915" y1="381.5450371663085" y2="379.5450371663085"/>
      <line stroke="#009900" stroke-width="1" x1="622.3330942098644" x2="626.3330942098644" y1="385.1812964578856" y2="383.1812964578856"/>
      <line stroke="#009900" stroke-width="1" x1="623.9997130518373" x2="627.9997130518373" y1="388.8175557494627" y2="386.8175557494627"/>
      <line stroke="#ff0000" stroke-width="1" x1="623.0" x2="625.0" y1="401.0" y2="405.0"/>
      <line stroke="#ff0000" stroke-width="1" x1="619.5136978515018" x2="621.5136978515018" y1="402.96104495853024" y2="406.96104495853024"/>
      <line stroke="#ff0000" stroke-width="1" x1="616.0273957030035" x2="618.0273957030035" y1="404.9220899170605" y2="408.9220899170605"/>
      <line stroke="#ff0000" stroke-width="1" x1="612.5410935545053" x2="614.5410935545053" y1="406.8831348755907" y2="410.8831348755907"/>
      <line stroke="#ff0000" stroke-width="1" x1="609.0547914060071" x2="611.0547914060071" y1="408.84417983412095" y2="412.84417983412095"/>
      <polyline fill="none" marker-end="url(#id411)" points="675.0,430.0 692.0,430.0" stroke="#ff0000" stroke-width="1"/>
      <polyline fill="none" marker-end="url(#id411)" points="692.0,320.0 675.0,320.0" stroke="#009900" stroke-width="1"/>
      <text fill="#009a49" font-family="Arial" font-size="20.0" stroke="none" stroke-width="0" x="-62.0" y="299.0">&lt;&lt; Площадь Александра Невского-I</text>
      <text fill="#009a49" font-family="Arial" font-size="20.0" stroke="none" stroke-width="0" x="230.0" y="465.0">Ломоносовская &gt;&gt;</text>
      <text fill="#009a49" font-family="Arial" font-size="25.0" stroke="none" stroke-width="0" x="84.0" y="383.0">Елизаровская</text>
      <text fill="#00afaf" font-family="Arial" font-size="15.0" stroke="none" stroke-width="0" x="525.0" y="519.0">улица Бабушкина</text>
      <text fill="#00afaf" font-family="Arial" font-size="15.0" stroke="none" stroke-width="0" transform="rotate(-90.0,733.0,418.0)" x="733.0" y="433.0">проспект Елизарова</text>
    </g>
  </g>
</svg>
