<?xml version="1.0" encoding="utf-8" ?>
<svg baseProfile="full" height="630.0" version="1.1" width="220.0" xmlns="http://www.w3.org/2000/svg" xmlns:ev="http://www.w3.org/2001/xml-events" xmlns:xlink="http://www.w3.org/1999/xlink">
  <defs>
    <marker id="id412" markerHeight="3" markerUnits="strokeWidth" markerWidth="4" orient="auto" refX="0" refY="5" viewBox="0,0,10,10">
      <path d="M 0 0 L 10 5 L 0 10 z"/>
    </marker>
  </defs>
  <g>
    <rect fill="none" height="630.0" stroke="none" stroke-width="0" width="220.0" x="0.0" y="0.0"/>
    <g transform="rotate(-90.0,110.0,315.0)">
      <polygon fill="#0078c9" points="-195.0,345.0 -195.0,375.0 255.0,375.0 255.0,345.0" stroke="#000000" stroke-width="1"/>
      <polygon fill="#0078c9" points="-195.0,235.0 -195.0,265.0 255.0,265.0 255.0,235.0" stroke="#000000" stroke-width="1"/>
      <text fill="#0078c9" font-family="Arial" font-size="20.0" stroke="none" stroke-width="0" x="-194.0" y="231.0">&lt;&lt; Московские ворота</text>
      <text fill="#0078c9" font-family="Arial" font-size="20.0" stroke="none" stroke-width="0" x="-13.0" y="395.0">Технологический институт-II &gt;&gt;</text>
      <text fill="#0078c9" font-family="Arial" font-size="25.0" stroke="none" stroke-width="0" x="-30.0" y="314.0">Фрунзенская</text>
      <polygon fill="#cccccc" points="-16.0,335.0 -9.0,335.0 -9.0,328.0 -16.0,328.0" stroke="#000000" stroke-width="1"/>
      <polygon fill="#cccccc" points="10.0,335.0 17.0,335.0 17.0,328.0 10.0,328.0" stroke="#000000" stroke-width="1"/>
      <polygon fill="#cccccc" points="36.0,335.0 43.0,335.0 43.0,328.0 36.0,328.0" stroke="#000000" stroke-width="1"/>
      <polygon fill="#cccccc" points="62.0,335.0 69.0,335.0 69.0,328.0 62.0,328.0" stroke="#000000" stroke-width="1"/>
      <polygon fill="#cccccc" points="-16.0,282.0 -9.0,282.0 -9.0,275.0 -16.0,275.0" stroke="#000000" stroke-width="1"/>
      <polygon fill="#cccccc" points="10.0,282.0 17.0,282.0 17.0,275.0 10.0,275.0" stroke="#000000" stroke-width="1"/>
      <polygon fill="#cccccc" points="36.0,282.0 43.0,282.0 43.0,275.0 36.0,275.0" stroke="#000000" stroke-width="1"/>
      <polygon fill="#cccccc" points="62.0,282.0 69.0,282.0 69.0,275.0 62.0,275.0" stroke="#000000" stroke-width="1"/>
      <polyline fill="none" points="-195.0,265.0 -195.0,275.0 -35.0,275.0 -35.0,282.0 -45.0,282.0 -45.0,328.0 -35.0,328.0 -35.0,335.0 -195.0,335.0 -195.0,345.0" stroke="#000000" stroke-width="1"/>
      <polyline fill="none" points="255.0,265.0 255.0,275.0 88.0,275.0 88.0,282.0 93.0,282.0 93.0,288.0 109.0,288.0 109.0,282.0 139.0,282.0 139.0,285.0" stroke="#000000" stroke-width="1"/>
      <polyline fill="none" points="255.0,345.0 255.0,335.0 88.0,335.0 88.0,328.0 93.0,328.0 93.0,322.0 109.0,322.0 109.0,328.0 139.0,328.0 139.0,325.0" stroke="#000000" stroke-width="1"/>
      <line stroke="#7f7f7f" stroke-width="1" x1="305.0" x2="305.0" y1="322.0" y2="288.0"/>
      <line stroke="#7f7f7f" stroke-width="1" x1="301.0" x2="301.0" y1="322.0" y2="288.0"/>
      <line stroke="#7f7f7f" stroke-width="1" x1="297.0" x2="297.0" y1="322.0" y2="288.0"/>
      <line stroke="#7f7f7f" stroke-width="1" x1="293.0" x2="293.0" y1="322.0" y2="288.0"/>
      <line stroke="#7f7f7f" stroke-width="1" x1="289.0" x2="289.0" y1="322.0" y2="288.0"/>
      <line stroke="#7f7f7f" stroke-width="1" x1="285.0" x2="285.0" y1="322.0" y2="288.0"/>
      <line stroke="#7f7f7f" stroke-width="1" x1="281.0" x2="281.0" y1="322.0" y2="288.0"/>
      <line stroke="#7f7f7f" stroke-width="1" x1="277.0" x2="277.0" y1="322.0" y2="288.0"/>
      <line stroke="#7f7f7f" stroke-width="1" x1="273.0" x2="273.0" y1="322.0" y2="288.0"/>
      <line stroke="#7f7f7f" stroke-width="1" x1="269.0" x2="269.0" y1="322.0" y2="288.0"/>
      <line stroke="#7f7f7f" stroke-width="1" x1="265.0" x2="265.0" y1="322.0" y2="288.0"/>
      <line stroke="#7f7f7f" stroke-width="1" x1="261.0" x2="261.0" y1="322.0" y2="288.0"/>
      <line stroke="#7f7f7f" stroke-width="1" x1="257.0" x2="257.0" y1="322.0" y2="288.0"/>
      <line stroke="#7f7f7f" stroke-width="1" x1="253.0" x2="253.0" y1="322.0" y2="288.0"/>
      <line stroke="#7f7f7f" stroke-width="1" x1="249.0" x2="249.0" y1="322.0" y2="288.0"/>
      <line stroke="#7f7f7f" stroke-width="1" x1="245.0" x2="245.0" y1="322.0" y2="288.0"/>
      <line stroke="#7f7f7f" stroke-width="1" x1="241.0" x2="241.0" y1="322.0" y2="288.0"/>
      <line stroke="#7f7f7f" stroke-width="1" x1="237.0" x2="237.0" y1="322.0" y2="288.0"/>
      <line stroke="#7f7f7f" stroke-width="1" x1="233.0" x2="233.0" y1="322.0" y2="288.0"/>
      <line stroke="#7f7f7f" stroke-width="1" x1="229.0" x2="229.0" y1="322.0" y2="288.0"/>
      <line stroke="#7f7f7f" stroke-width="1" x1="225.0" x2="225.0" y1="322.0" y2="288.0"/>
      <line stroke="#7f7f7f" stroke-width="1" x1="221.0" x2="221.0" y1="322.0" y2="288.0"/>
      <line stroke="#7f7f7f" stroke-width="1" x1="217.0" x2="217.0" y1="322.0" y2="288.0"/>
      <line stroke="#7f7f7f" stroke-width="1" x1="213.0" x2="213.0" y1="322.0" y2="288.0"/>
      <line stroke="#7f7f7f" stroke-width="1" x1="209.0" x2="209.0" y1="322.0" y2="288.0"/>
      <line stroke="#7f7f7f" stroke-width="1" x1="205.0" x2="205.0" y1="322.0" y2="288.0"/>
      <line stroke="#7f7f7f" stroke-width="1" x1="201.0" x2="201.0" y1="322.0" y2="288.0"/>
      <line stroke="#7f7f7f" stroke-width="1" x1="197.0" x2="197.0" y1="322.0" y2="288.0"/>
      <line stroke="#7f7f7f" stroke-width="1" x1="193.0" x2="193.0" y1="322.0" y2="288.0"/>
      <line stroke="#7f7f7f" stroke-width="1" x1="189.0" x2="189.0" y1="322.0" y2="288.0"/>
      <line stroke="#7f7f7f" stroke-width="1" x1="185.0" x2="185.0" y1="322.0" y2="288.0"/>
      <line stroke="#7f7f7f" stroke-width="1" x1="181.0" x2="181.0" y1="322.0" y2="288.0"/>
      <line stroke="#7f7f7f" stroke-width="1" x1="177.0" x2="177.0" y1="322.0" y2="288.0"/>
      <line stroke="#7f7f7f" stroke-width="1" x1="173.0" x2="173.0" y1="322.0" y2="288.0"/>
      <line stroke="#7f7f7f" stroke-width="1" x1="169.0" x2="169.0" y1="322.0" y2="288.0"/>
      <line stroke="#7f7f7f" stroke-width="1" x1="165.0" x2="165.0" y1="322.0" y2="288.0"/>
      <line stroke="#7f7f7f" stroke-width="1" x1="161.0" x2="161.0" y1="322.0" y2="288.0"/>
      <line stroke="#7f7f7f" stroke-width="1" x1="157.0" x2="157.0" y1="322.0" y2="288.0"/>
      <line stroke="#7f7f7f" stroke-width="1" x1="153.0" x2="153.0" y1="322.0" y2="288.0"/>
      <line stroke="#7f7f7f" stroke-width="1" x1="149.0" x2="149.0" y1="322.0" y2="288.0"/>
      <line stroke="#7f7f7f" stroke-width="1" x1="145.0" x2="145.0" y1="322.0" y2="288.0"/>
      <line stroke="#7f7f7f" stroke-width="1" x1="141.0" x2="141.0" y1="322.0" y2="288.0"/>
      <line stroke="#7f7f7f" stroke-width="1" x1="137.0" x2="137.0" y1="322.0" y2="288.0"/>
      <polygon fill="#9b5509" points="312.0,288.0 129.0,288.0 129.0,285.0 312.0,285.0" stroke="#000000" stroke-width="1"/>
      <polygon fill="#9b5509" points="312.0,296.0 312.0,301.0 129.0,301.0 129.0,296.0" stroke="#000000" stroke-width="1"/>
      <polygon fill="#9b5509" points="312.0,309.0 312.0,314.0 129.0,314.0 129.0,309.0" stroke="#000000" stroke-width="1"/>
      <polygon fill="#9b5509" points="312.0,322.0 129.0,322.0 129.0,325.0 312.0,325.0" stroke="#000000" stroke-width="1"/>
      <path d="M326.0,358.0 C326.0,358.0 329.0,360.5 326.0,358.0 C323.0,355.5 312.8333333333333,348.5 308.0,343.0 C303.1666666666667,337.5 297.0,325.0 297.0,325.0 " fill="none" stroke="#000000" stroke-width="1"/>
      <path d="M373.0,361.0 C373.0,361.0 369.6666666666667,363.0 373.0,361.0 C376.3333333333333,359.0 387.3333333333333,353.8333333333333 393.0,349.0 C398.6666666666667,344.1666666666667 403.5,338.5 407.0,332.0 C410.5,325.5 413.3333333333333,317.8333333333333 414.0,310.0 C414.6666666666667,302.1666666666667 413.5,292.6666666666667 411.0,285.0 C408.5,277.3333333333333 404.0,269.8333333333333 399.0,264.0 C394.0,258.1666666666667 387.3333333333333,253.33333333333334 381.0,250.0 C374.6666666666667,246.66666666666666 368.6666666666667,244.66666666666666 361.0,244.0 C353.3333333333333,243.33333333333334 343.3333333333333,243.16666666666666 335.0,246.0 C326.6666666666667,248.83333333333334 317.5,254.5 311.0,261.0 C304.5,267.5 296.0,285.0 296.0,285.0 " fill="none" stroke="#000000" stroke-width="1"/>
      <polyline fill="none" points="373.0,361.0 380.0,376.0 389.0,372.0" stroke="#000000" stroke-width="1"/>
      <polyline fill="none" points="326.0,358.0 318.0,376.0 308.0,372.0" stroke="#000000" stroke-width="1"/>
      <polygon fill="#cccccc" points="356.0,364.0 359.0,371.0 355.0,373.0 359.0,381.0 344.0,381.0 347.0,373.0 343.0,371.0 346.0,364.0" stroke="#000000" stroke-width="1"/>
      <polygon fill="none" points="348.0,253.0 354.0,253.0 354.0,259.0 348.0,259.0" stroke="#000000" stroke-width="1"/>
      <polyline fill="none" points="312.0,301.0 332.0,301.0 332.0,323.0 351.0,323.0" stroke="#000000" stroke-width="0.5"/>
      <polyline fill="none" points="351.0,364.0 351.0,315.0" stroke="#000000" stroke-width="0.5"/>
      <polyline fill="none" points="351.0,253.0 351.0,244.0" stroke="#000000" stroke-width="0.5"/>
      <line stroke="#009900" stroke-width="1" x1="353.0" x2="349.0" y1="315.0" y2="315.0"/>
      <line stroke="#009900" stroke-width="1" x1="353.0" x2="349.0" y1="311.0" y2="311.0"/>
      <line stroke="#009900" stroke-width="1" x1="353.0" x2="349.0" y1="307.0" y2="307.0"/>
      <line stroke="#009900" stroke-width="1" x1="353.0" x2="349.0" y1="303.0" y2="303.0"/>
      <line stroke="#009900" stroke-width="1" x1="353.0" x2="349.0" y1="299.0" y2="299.0"/>
      <line stroke="#009900" stroke-width="1" x1="353.0" x2="349.0" y1="295.0" y2="295.0"/>
      <line stroke="#009900" stroke-width="1" x1="353.0" x2="349.0" y1="291.0" y2="291.0"/>
      <line stroke="#009900" stroke-width="1" x1="353.0" x2="349.0" y1="287.0" y2="287.0"/>
      <line stroke="#009900" stroke-width="1" x1="353.0" x2="349.0" y1="283.0" y2="283.0"/>
      <line stroke="#009900" stroke-width="1" x1="353.0" x2="349.0" y1="279.0" y2="279.0"/>
      <line stroke="#009900" stroke-width="1" x1="353.0" x2="349.0" y1="275.0" y2="275.0"/>
      <line stroke="#009900" stroke-width="1" x1="353.0" x2="349.0" y1="271.0" y2="271.0"/>
      <line stroke="#009900" stroke-width="1" x1="353.0" x2="349.0" y1="267.0" y2="267.0"/>
      <line stroke="#009900" stroke-width="1" x1="353.0" x2="349.0" y1="263.0" y2="263.0"/>
      <polyline fill="none" marker-end="url(#id412)" points="372.0,386.0 365.0,363.0" stroke="#009900" stroke-width="1"/>
      <polyline fill="none" marker-end="url(#id412)" points="334.0,364.0 328.0,382.0" stroke="#ff0000" stroke-width="1"/>
      <polyline fill="none" points="387.0,253.0 394.0,246.0 414.0,266.0 406.0,274.0" stroke="#000000" stroke-width="1"/>
      <text fill="#000000" font-family="Arial" font-size="10.0" stroke="none" stroke-width="0" transform="rotate(45.0,397.0,245.0)" x="397.0" y="255.0">кассы</text>
      <text fill="#00afaf" font-family="Arial" font-size="15.0" stroke="none" stroke-width="0" x="270.0" y="420.0">Московский проспект</text>
    </g>
  </g>
</svg>
