<?xml version="1.0" encoding="utf-8" ?>
<svg baseProfile="full" height="100%" version="1.1" width="100%" xmlns="http://www.w3.org/2000/svg" xmlns:ev="http://www.w3.org/2001/xml-events" xmlns:xlink="http://www.w3.org/1999/xlink">
  <defs>
    <marker id="id413" markerHeight="3" markerUnits="strokeWidth" markerWidth="4" orient="auto" refX="0" refY="5" viewBox="0,0,10,10">
      <path d="M 0 0 L 10 5 L 0 10 z"/>
    </marker>
  </defs>
  <g transform="scale(0.5)">
    <rect fill="none" height="750" stroke="none" stroke-width="0" width="570" x="0" y="0"/>
    <g transform="rotate(70.0,285,375)">
      <polygon fill="#0078c9" points="663,304 663,274 213,274 213,304" stroke="#000000" stroke-width="1"/>
      <polygon fill="#0078c9" points="663,414 663,384 213,384 213,414" stroke="#000000" stroke-width="1"/>
      <text fill="#0078c9" font-family="Arial" font-size="25" stroke="none" stroke-width="0" x="353" y="351.0">Горьковская</text>
      <text fill="#0078c9" font-family="Arial" font-size="20" stroke="none" stroke-width="0" x="213" y="270.0">&lt;&lt;  Петроградская</text>
      <text fill="#0078c9" font-family="Arial" font-size="20" stroke="none" stroke-width="0" x="483" y="434.0">Невский проспект &gt;&gt;</text>
      <polygon fill="#cccccc" points="485,314 477,314 477,322 485,322" stroke="#000000" stroke-width="1"/>
      <polygon fill="#cccccc" points="460,314 452,314 452,322 460,322" stroke="#000000" stroke-width="1"/>
      <polygon fill="#cccccc" points="434,314 426,314 426,322 434,322" stroke="#000000" stroke-width="1"/>
      <polygon fill="#cccccc" points="408,314 400,314 400,322 408,322" stroke="#000000" stroke-width="1"/>
      <polygon fill="#cccccc" points="485,366 477,366 477,374 485,374" stroke="#000000" stroke-width="1"/>
      <polygon fill="#cccccc" points="460,366 452,366 452,374 460,374" stroke="#000000" stroke-width="1"/>
      <polygon fill="#cccccc" points="434,366 426,366 426,374 434,374" stroke="#000000" stroke-width="1"/>
      <polygon fill="#cccccc" points="408,366 400,366 400,374 408,374" stroke="#000000" stroke-width="1"/>
      <polyline fill="none" points="663,304 663,314 503,314 503,322 509,322 509,366 503,366 503,374 663,374 663,384" stroke="#000000" stroke-width="1"/>
      <polyline fill="none" points="213,384 213,374 383,374 383,366 378,366 378,360 361,360 361,366 332,366 332,364" stroke="#000000" stroke-width="1"/>
      <polyline fill="none" points="213,304 213,314 383,314 383,322 378,322 378,328 361,328 361,322 332,322 332,324" stroke="#000000" stroke-width="1"/>
      <line stroke="#7f7f7f" stroke-width="1" x1="334" x2="334" y1="361" y2="327"/>
      <line stroke="#7f7f7f" stroke-width="1" x1="330" x2="330" y1="361" y2="327"/>
      <line stroke="#7f7f7f" stroke-width="1" x1="326" x2="326" y1="361" y2="327"/>
      <line stroke="#7f7f7f" stroke-width="1" x1="322" x2="322" y1="361" y2="327"/>
      <line stroke="#7f7f7f" stroke-width="1" x1="318" x2="318" y1="361" y2="327"/>
      <line stroke="#7f7f7f" stroke-width="1" x1="314" x2="314" y1="361" y2="327"/>
      <line stroke="#7f7f7f" stroke-width="1" x1="310" x2="310" y1="361" y2="327"/>
      <line stroke="#7f7f7f" stroke-width="1" x1="306" x2="306" y1="361" y2="327"/>
      <line stroke="#7f7f7f" stroke-width="1" x1="302" x2="302" y1="361" y2="327"/>
      <line stroke="#7f7f7f" stroke-width="1" x1="298" x2="298" y1="361" y2="327"/>
      <line stroke="#7f7f7f" stroke-width="1" x1="294" x2="294" y1="361" y2="327"/>
      <line stroke="#7f7f7f" stroke-width="1" x1="290" x2="290" y1="361" y2="327"/>
      <line stroke="#7f7f7f" stroke-width="1" x1="286" x2="286" y1="361" y2="327"/>
      <line stroke="#7f7f7f" stroke-width="1" x1="282" x2="282" y1="361" y2="327"/>
      <line stroke="#7f7f7f" stroke-width="1" x1="278" x2="278" y1="361" y2="327"/>
      <line stroke="#7f7f7f" stroke-width="1" x1="274" x2="274" y1="361" y2="327"/>
      <line stroke="#7f7f7f" stroke-width="1" x1="270" x2="270" y1="361" y2="327"/>
      <line stroke="#7f7f7f" stroke-width="1" x1="266" x2="266" y1="361" y2="327"/>
      <line stroke="#7f7f7f" stroke-width="1" x1="262" x2="262" y1="361" y2="327"/>
      <line stroke="#7f7f7f" stroke-width="1" x1="258" x2="258" y1="361" y2="327"/>
      <line stroke="#7f7f7f" stroke-width="1" x1="254" x2="254" y1="361" y2="327"/>
      <line stroke="#7f7f7f" stroke-width="1" x1="250" x2="250" y1="361" y2="327"/>
      <line stroke="#7f7f7f" stroke-width="1" x1="246" x2="246" y1="361" y2="327"/>
      <line stroke="#7f7f7f" stroke-width="1" x1="242" x2="242" y1="361" y2="327"/>
      <line stroke="#7f7f7f" stroke-width="1" x1="238" x2="238" y1="361" y2="327"/>
      <line stroke="#7f7f7f" stroke-width="1" x1="234" x2="234" y1="361" y2="327"/>
      <line stroke="#7f7f7f" stroke-width="1" x1="230" x2="230" y1="361" y2="327"/>
      <line stroke="#7f7f7f" stroke-width="1" x1="226" x2="226" y1="361" y2="327"/>
      <line stroke="#7f7f7f" stroke-width="1" x1="222" x2="222" y1="361" y2="327"/>
      <line stroke="#7f7f7f" stroke-width="1" x1="218" x2="218" y1="361" y2="327"/>
      <line stroke="#7f7f7f" stroke-width="1" x1="214" x2="214" y1="361" y2="327"/>
      <line stroke="#7f7f7f" stroke-width="1" x1="210" x2="210" y1="361" y2="327"/>
      <line stroke="#7f7f7f" stroke-width="1" x1="206" x2="206" y1="361" y2="327"/>
      <line stroke="#7f7f7f" stroke-width="1" x1="202" x2="202" y1="361" y2="327"/>
      <line stroke="#7f7f7f" stroke-width="1" x1="198" x2="198" y1="361" y2="327"/>
      <line stroke="#7f7f7f" stroke-width="1" x1="194" x2="194" y1="361" y2="327"/>
      <line stroke="#7f7f7f" stroke-width="1" x1="190" x2="190" y1="361" y2="327"/>
      <line stroke="#7f7f7f" stroke-width="1" x1="186" x2="186" y1="361" y2="327"/>
      <line stroke="#7f7f7f" stroke-width="1" x1="182" x2="182" y1="361" y2="327"/>
      <line stroke="#7f7f7f" stroke-width="1" x1="178" x2="178" y1="361" y2="327"/>
      <line stroke="#7f7f7f" stroke-width="1" x1="174" x2="174" y1="361" y2="327"/>
      <line stroke="#7f7f7f" stroke-width="1" x1="170" x2="170" y1="361" y2="327"/>
      <line stroke="#7f7f7f" stroke-width="1" x1="166" x2="166" y1="361" y2="327"/>
      <line stroke="#7f7f7f" stroke-width="1" x1="162" x2="162" y1="361" y2="327"/>
      <line stroke="#7f7f7f" stroke-width="1" x1="158" x2="158" y1="361" y2="327"/>
      <line stroke="#7f7f7f" stroke-width="1" x1="154" x2="154" y1="361" y2="327"/>
      <line stroke="#7f7f7f" stroke-width="1" x1="150" x2="150" y1="361" y2="327"/>
      <line stroke="#7f7f7f" stroke-width="1" x1="146" x2="146" y1="361" y2="327"/>
      <line stroke="#7f7f7f" stroke-width="1" x1="142" x2="142" y1="361" y2="327"/>
      <line stroke="#7f7f7f" stroke-width="1" x1="138" x2="138" y1="361" y2="327"/>
      <line stroke="#7f7f7f" stroke-width="1" x1="134" x2="134" y1="361" y2="327"/>
      <line stroke="#7f7f7f" stroke-width="1" x1="130" x2="130" y1="361" y2="327"/>
      <line stroke="#7f7f7f" stroke-width="1" x1="126" x2="126" y1="361" y2="327"/>
      <polygon fill="#9b5509" points="341,327 119,327 119,324 341,324" stroke="#000000" stroke-width="1"/>
      <polygon fill="#9b5509" points="341,335 341,340 119,340 119,335" stroke="#000000" stroke-width="1"/>
      <polygon fill="#9b5509" points="341,348 341,353 119,353 119,348" stroke="#000000" stroke-width="1"/>
      <polygon fill="#9b5509" points="341,361 119,361 119,364 341,364" stroke="#000000" stroke-width="1"/>
      <path d="M130,302 C130,302 131.5,303.333333333 130,302 C128.5,300.666666667 124.166666667,296.166666667 121,294 C117.833333333,291.833333333 111,289 111,289 " fill="none" stroke="#000000" stroke-width="1"/>
      <path d="M100,285 C100,285 101.5,285.166666667 100,285 C98.5,284.833333333 94.1666666667,284.166666667 91,284 C87.8333333333,283.833333333 81,284 81,284 " fill="none" stroke="#000000" stroke-width="1"/>
      <path d="M71,286 C71,286 73.5,284.833333333 71,286 C68.5,287.166666667 60.3333333333,290.333333333 56,293 C51.6666666667,295.666666667 48.5,298.166666667 45,302 C41.5,305.833333333 37.6666666667,310.666666667 35,316 C32.3333333333,321.333333333 30.0,327.5 29,334 C28.0,340.5 27.8333333333,348.5 29,355 C30.1666666667,361.5 33.0,367.666666667 36,373 C39.0,378.333333333 42.6666666667,383.0 47,387 C51.3333333333,391.0 56.6666666667,394.5 62,397 C67.3333333333,399.5 73.1666666667,401.166666667 79,402 C84.8333333333,402.833333333 91.0,403.0 97,402 C103.0,401.0 109.5,398.833333333 115,396 C120.5,393.166666667 130,385 130,385 " fill="none" stroke="#000000" stroke-width="1"/>
      <polyline fill="none" points="130,302 130,324" stroke="#000000" stroke-width="1"/>
      <polyline fill="none" points="130,385 130,364" stroke="#000000" stroke-width="1"/>
      <polyline fill="none" points="68,287 61,272 50,277 19,218" stroke="#000000" stroke-width="1"/>
      <polyline fill="none" points="115,291 122,277 128,280 160,217" stroke="#000000" stroke-width="1"/>
      <polygon fill="#cccccc" points="92,252 92,204 100,204 100,252" stroke="#000000" stroke-width="1"/>
      <polygon fill="#cccccc" points="85,284 83,278 87,273 84,267 101,268 97,274 99,279 97,285" stroke="#000000" stroke-width="1"/>
      <polyline fill="none" points="92,250 42,263" stroke="#000000" stroke-width="1"/>
      <polyline fill="none" points="92,246 40,259" stroke="#000000" stroke-width="1"/>
      <polyline fill="none" points="92,242 38,255" stroke="#000000" stroke-width="1"/>
      <polyline fill="none" points="92,238 36,251" stroke="#000000" stroke-width="1"/>
      <polyline fill="none" points="92,234 34,247" stroke="#000000" stroke-width="1"/>
      <polyline fill="none" points="92,230 32,243" stroke="#000000" stroke-width="1"/>
      <polyline fill="none" points="92,226 30,239" stroke="#000000" stroke-width="1"/>
      <polyline fill="none" points="92,222 28,235" stroke="#000000" stroke-width="1"/>
      <polyline fill="none" points="92,218 26,231" stroke="#000000" stroke-width="1"/>
      <polyline fill="none" points="92,214 24,227" stroke="#000000" stroke-width="1"/>
      <polyline fill="none" points="92,210 22,223" stroke="#000000" stroke-width="1"/>
      <polyline fill="none" points="100,250 138,261" stroke="#000000" stroke-width="1"/>
      <polyline fill="none" points="100,246 140,257" stroke="#000000" stroke-width="1"/>
      <polyline fill="none" points="100,242 142,253" stroke="#000000" stroke-width="1"/>
      <polyline fill="none" points="100,238 144,249" stroke="#000000" stroke-width="1"/>
      <polyline fill="none" points="100,234 146,245" stroke="#000000" stroke-width="1"/>
      <polyline fill="none" points="100,230 148,241" stroke="#000000" stroke-width="1"/>
      <polyline fill="none" points="100,226 150,237" stroke="#000000" stroke-width="1"/>
      <polyline fill="none" points="100,222 152,233" stroke="#000000" stroke-width="1"/>
      <polyline fill="none" points="100,218 154,229" stroke="#000000" stroke-width="1"/>
      <polyline fill="none" points="100,214 156,225" stroke="#000000" stroke-width="1"/>
      <polyline fill="none" points="100,210 158,221" stroke="#000000" stroke-width="1"/>
      <polyline fill="none" points="119,348 105,348 105,330 88,330 88,284" stroke="#000000" stroke-width="0.5"/>
      <polygon fill="none" points="84,391 92,391 92,399 84,399" stroke="#000000" stroke-width="1"/>
      <line stroke="#009900" stroke-width="1" x1="85" x2="91" y1="334" y2="334"/>
      <line stroke="#009900" stroke-width="1" x1="85" x2="91" y1="338" y2="338"/>
      <line stroke="#009900" stroke-width="1" x1="85" x2="91" y1="342" y2="342"/>
      <line stroke="#009900" stroke-width="1" x1="85" x2="91" y1="346" y2="346"/>
      <line stroke="#009900" stroke-width="1" x1="85" x2="91" y1="350" y2="350"/>
      <line stroke="#009900" stroke-width="1" x1="85" x2="91" y1="354" y2="354"/>
      <line stroke="#009900" stroke-width="1" x1="85" x2="91" y1="358" y2="358"/>
      <line stroke="#009900" stroke-width="1" x1="85" x2="91" y1="362" y2="362"/>
      <line stroke="#009900" stroke-width="1" x1="85" x2="91" y1="366" y2="366"/>
      <line stroke="#009900" stroke-width="1" x1="85" x2="91" y1="370" y2="370"/>
      <line stroke="#009900" stroke-width="1" x1="85" x2="91" y1="374" y2="374"/>
      <line stroke="#009900" stroke-width="1" x1="85" x2="91" y1="378" y2="378"/>
      <line stroke="#009900" stroke-width="1" x1="85" x2="91" y1="382" y2="382"/>
      <line stroke="#009900" stroke-width="1" x1="85" x2="91" y1="386" y2="386"/>
      <polyline fill="none" marker-end="url(#id413)" points="70,263 74,281" stroke="#009900" stroke-width="1"/>
      <polyline fill="none" marker-end="url(#id413)" points="107,284 113,264" stroke="#ff0000" stroke-width="1"/>
      <text fill="#00afaf" font-family="Arial" font-size="15" stroke="none" stroke-width="0" transform="rotate(-75.0,87,594)" x="87" y="609.0">Александровский парк</text>
      <text fill="#00afaf" font-family="Arial" font-size="15" stroke="none" stroke-width="0" transform="rotate(-65.0,-84,296)" x="-84" y="311.0">Кронверкский проспект</text>
      <text fill="#00afaf" font-family="Arial" font-size="15" stroke="none" stroke-width="0" x="80" y="91.0">Каменноостровский проспект</text>
    </g>
  </g>
</svg>
