<svg xmlns="http://www.w3.org/2000/svg" version="1.1">
<defs>
    <marker id="arrow"
      viewBox="0 0 10 10" refX="0" refY="5"
      markerUnits="strokeWidth"
      markerWidth="4" markerHeight="3"
      orient="auto">
      <path d="M 0 0 L 10 5 L 0 10 z" />
    </marker>
  </defs>
<g stroke="#000000" fill="none" stroke-opacity="1.0" fill-opacity="1.0" transform="scale(0.5)">
<rect x="0" y="0" width="570" height="900" stroke-width="0" fill="none" />
<g stroke="#000000" fill="none" stroke-opacity="1.0" fill-opacity="1.0" transform="scale(0.5)">
</g>
<g transform="rotate(-65.0 285 450)" >
<g stroke="#000000" fill="none" stroke-opacity="1.0" fill-opacity="1.0" transform="scale(0.5)">
</g>
<g stroke="#000000" fill="#D6083B" stroke-opacity="1.0" fill-opacity="1.0" transform="scale(0.5)">
<polygon points="279,503  279,473  -171,473  -171,503" stroke-width="1" />
<polygon points="-171,393  -171,363  279,363  279,393" stroke-width="1" />
</g>
<g stroke="#D6083B" fill="none" stroke-opacity="1.0" fill-opacity="1.0" transform="scale(0.5)">
<text x=" 159" y="522.0" font-family="Arial" font-size=" 20" fill="#D6083B" stroke-width="0">Девяткино &gt;&gt;</text>
<text x=" -167" y="360.0" font-family="Arial" font-size=" 20" fill="#D6083B" stroke-width="0">&lt;&lt; Академическая</text>
<text x=" -89" y="440.0" font-family="Arial" font-size=" 25" fill="#D6083B" stroke-width="0">Гражданский проспект</text>
</g>
<g stroke="#000000" fill="none" stroke-opacity="1.0" fill-opacity="1.0" transform="scale(0.5)">
<polyline points="-171,393  -171,407  -153,407  -153,458  -171,458  -171,472" stroke-width="1" fill="none"  />
</g>
<g stroke="#000000" fill="none" stroke-opacity="1.0" fill-opacity="1.0" transform="scale(0.5)">
<polyline points="279,393  279,398  258,398  258,403  306,403  306,406" stroke-width="1" fill="none"  />
<polyline points="279,473  279,468  258,468  258,462  306,462  306,459" stroke-width="1" fill="none"  />
<polyline points="514,488  514,499  499,499  499,510  509,510  509,524" stroke-width="1" fill="none"  />
<polyline points="542,488  542,499  556,499  556,510  546,510  546,524" stroke-width="1" fill="none"  />
<polyline points="582,448  595,448  595,471  605,471  605,453  616,453  616,461  628,473  628,480  673,480  680,473  680,453  687,453" stroke-width="1" fill="none"  />
<polyline points="583,422  595,422  595,399  605,399  605,415  616,415  616,410  620,406  637,406  637,391  672,391  680,399  680,417  687,417" stroke-width="1" fill="none"  />
<polyline points="477,459  487,473  499,482  514,488" stroke-width="1" fill="none"/> <!-- spline -->
<polyline points="542,488  567,474  582,448" stroke-width="1" fill="none"/> <!-- spline -->
<polyline points="583,422  568,394  542,379  515,378  493,389  478,406" stroke-width="1" fill="none"/> <!-- spline -->
</g>
<g stroke="#7F7F7F" fill="none" stroke-opacity="1.0" fill-opacity="1.0" transform="scale(0.5)">
<line x1="492" y1="456" x2="492" y2="409" stroke-width="1" />
<line x1="488" y1="456" x2="488" y2="409" stroke-width="1" />
<line x1="484" y1="456" x2="484" y2="409" stroke-width="1" />
<line x1="480" y1="456" x2="480" y2="409" stroke-width="1" />
<line x1="476" y1="456" x2="476" y2="409" stroke-width="1" />
<line x1="472" y1="456" x2="472" y2="409" stroke-width="1" />
<line x1="468" y1="456" x2="468" y2="409" stroke-width="1" />
<line x1="464" y1="456" x2="464" y2="409" stroke-width="1" />
<line x1="460" y1="456" x2="460" y2="409" stroke-width="1" />
<line x1="456" y1="456" x2="456" y2="409" stroke-width="1" />
<line x1="452" y1="456" x2="452" y2="409" stroke-width="1" />
<line x1="448" y1="456" x2="448" y2="409" stroke-width="1" />
<line x1="444" y1="456" x2="444" y2="409" stroke-width="1" />
<line x1="440" y1="456" x2="440" y2="409" stroke-width="1" />
<line x1="436" y1="456" x2="436" y2="409" stroke-width="1" />
<line x1="432" y1="456" x2="432" y2="409" stroke-width="1" />
<line x1="428" y1="456" x2="428" y2="409" stroke-width="1" />
<line x1="424" y1="456" x2="424" y2="409" stroke-width="1" />
<line x1="420" y1="456" x2="420" y2="409" stroke-width="1" />
<line x1="416" y1="456" x2="416" y2="409" stroke-width="1" />
<line x1="412" y1="456" x2="412" y2="409" stroke-width="1" />
<line x1="408" y1="456" x2="408" y2="409" stroke-width="1" />
<line x1="404" y1="456" x2="404" y2="409" stroke-width="1" />
<line x1="400" y1="456" x2="400" y2="409" stroke-width="1" />
<line x1="396" y1="456" x2="396" y2="409" stroke-width="1" />
<line x1="392" y1="456" x2="392" y2="409" stroke-width="1" />
<line x1="388" y1="456" x2="388" y2="409" stroke-width="1" />
<line x1="384" y1="456" x2="384" y2="409" stroke-width="1" />
<line x1="380" y1="456" x2="380" y2="409" stroke-width="1" />
<line x1="376" y1="456" x2="376" y2="409" stroke-width="1" />
<line x1="372" y1="456" x2="372" y2="409" stroke-width="1" />
<line x1="368" y1="456" x2="368" y2="409" stroke-width="1" />
<line x1="364" y1="456" x2="364" y2="409" stroke-width="1" />
<line x1="360" y1="456" x2="360" y2="409" stroke-width="1" />
<line x1="356" y1="456" x2="356" y2="409" stroke-width="1" />
<line x1="352" y1="456" x2="352" y2="409" stroke-width="1" />
<line x1="348" y1="456" x2="348" y2="409" stroke-width="1" />
<line x1="344" y1="456" x2="344" y2="409" stroke-width="1" />
<line x1="340" y1="456" x2="340" y2="409" stroke-width="1" />
<line x1="336" y1="456" x2="336" y2="409" stroke-width="1" />
<line x1="332" y1="456" x2="332" y2="409" stroke-width="1" />
<line x1="328" y1="456" x2="328" y2="409" stroke-width="1" />
<line x1="324" y1="456" x2="324" y2="409" stroke-width="1" />
<line x1="320" y1="456" x2="320" y2="409" stroke-width="1" />
<line x1="316" y1="456" x2="316" y2="409" stroke-width="1" />
<line x1="312" y1="456" x2="312" y2="409" stroke-width="1" />
<line x1="308" y1="456" x2="308" y2="409" stroke-width="1" />
<line x1="304" y1="456" x2="304" y2="409" stroke-width="1" />
</g>
<g stroke="#000000" fill="#9B5509" stroke-opacity="1.0" fill-opacity="1.0" transform="scale(0.5)">
<polygon points="499,409  298,409  298,406  499,406" stroke-width="1" />
<polygon points="499,417  499,422  298,422  298,417" stroke-width="1" />
<polygon points="499,430  499,435  298,435  298,430" stroke-width="1" />
<polygon points="499,443  499,448  298,448  298,443" stroke-width="1" />
<polygon points="499,456  298,456  298,459  499,459" stroke-width="1" />
<polyline points="541,379  541,386" stroke-width=" 0.5" fill="none"  />
<polyline points="541,446  541,458" stroke-width=" 0.5" fill="none"  />
<polyline points="499,433  545,461  545,487" stroke-width=" 0.5" fill="none"  />
</g>
<g stroke="#009900" fill="#9B5509" stroke-opacity="1.0" fill-opacity="1.0" transform="scale(0.5)">
<line x1="538" y1="386" x2="544" y2="386" stroke-width="1" />
<line x1="538" y1="390" x2="544" y2="390" stroke-width="1" />
<line x1="538" y1="394" x2="544" y2="394" stroke-width="1" />
<line x1="538" y1="398" x2="544" y2="398" stroke-width="1" />
<line x1="538" y1="402" x2="544" y2="402" stroke-width="1" />
<line x1="538" y1="406" x2="544" y2="406" stroke-width="1" />
<line x1="538" y1="410" x2="544" y2="410" stroke-width="1" />
<line x1="538" y1="414" x2="544" y2="414" stroke-width="1" />
<line x1="538" y1="418" x2="544" y2="418" stroke-width="1" />
<line x1="538" y1="422" x2="544" y2="422" stroke-width="1" />
<line x1="538" y1="426" x2="544" y2="426" stroke-width="1" />
<line x1="538" y1="430" x2="544" y2="430" stroke-width="1" />
<line x1="538" y1="434" x2="544" y2="434" stroke-width="1" />
<line x1="538" y1="438" x2="544" y2="438" stroke-width="1" />
<line x1="538" y1="442" x2="544" y2="442" stroke-width="1" />
<line x1="538" y1="446" x2="544" y2="446" stroke-width="1" />
</g>
<g stroke="#FF0000" fill="#9B5509" stroke-opacity="1.0" fill-opacity="1.0" transform="scale(0.5)">
<polyline points="530,504  530,520" marker-end="url(#arrow)" stroke-width="1" fill="none" />
</g>
<g stroke="#009900" fill="#9B5509" stroke-opacity="1.0" fill-opacity="1.0" transform="scale(0.5)">
<polyline points="687,436  668,436" marker-end="url(#arrow)" stroke-width="1" fill="none" />
</g>
<g stroke="#00AFAF" fill="none" stroke-opacity="1.0" fill-opacity="1.0" transform="scale(0.5)">
<text x=" 486" y="576.0" font-family="Arial" font-size=" 15" fill="#00AFAF" stroke-width="0">Гражданский проспект</text>
<text x=" 745" y="407.0" font-family="Arial" font-size=" 15" fill="#00AFAF" transform="rotate(90.0  745  392)" stroke-width="0">проспект Просвещения</text>
</g>
</g>
</g>
</svg>
