<svg xmlns="http://www.w3.org/2000/svg" version="1.1">
<defs>
    <marker id="arrow"
      viewBox="0 0 10 10" refX="0" refY="5"
      markerUnits="strokeWidth"
      markerWidth="4" markerHeight="3"
      orient="auto">
      <path d="M 0 0 L 10 5 L 0 10 z" />
    </marker>
  </defs>
<g stroke="#000000" fill="none" stroke-opacity="1.0" fill-opacity="1.0" transform="scale(0.5)">
<rect x="0" y="0" width="630" height="580" stroke-width="0" fill="none" />
<g stroke="#000000" fill="none" stroke-opacity="1.0" fill-opacity="1.0" transform="scale(0.5)">
</g>
<g transform="rotate(80.0 315 290)" >
<g stroke="#000000" fill="none" stroke-opacity="1.0" fill-opacity="1.0" transform="scale(0.5)">
</g>
<g stroke="#EEEEEE" fill="#EEEEEE" stroke-opacity="1.0" fill-opacity="1.0" transform="scale(0.5)">
<polygon points="118,561  164,561  164,544  150,544  150,489  164,489  164,472  150,472  150,392  162,392  162,376  150,376  150,220  157,220  157,201  150,201  150,91  150,78  150,38  143,38  143,78  139,78  139,38  132,38  132,400  100,400  100,415  106,415  106,436  100,436  100,451  132,451  132,472  118,472  118,489  132,489  132,544  118,544" stroke-width="1" />
</g>
<g stroke="#000000" fill="#EEEEEE" stroke-opacity="1.0" fill-opacity="1.0" transform="scale(0.5)">
<polyline points="192,472  150,472  150,392  172,392" stroke-width="1" fill="none"  />
<polyline points="172,376  150,376  150,220" stroke-width="1" fill="none"  />
<polyline points="150,201  150,137  153,137" stroke-width="1" fill="none"  />
<polyline points="153,124  150,124  150,91  153,91" stroke-width="1" fill="none"  />
<polyline points="153,78  150,78  150,21" stroke-width="1" fill="none"  />
<polyline points="143,21  143,78  139,78  139,21" stroke-width="1" fill="none"  />
<polyline points="132,21  132,78  129,78" stroke-width="1" fill="none"  />
<polyline points="129,91  132,91  132,124  129,124" stroke-width="1" fill="none"  />
<polyline points="129,137  132,137  132,400  75,400  75,451  132,451  132,472  90,472" stroke-width="1" fill="none"  />
<polyline points="106,418  106,433" stroke-width="1" fill="none"  />
<polyline points="90,489  132,489  132,544  90,544" stroke-width="1" fill="none"  />
<polyline points="90,561  192,561" stroke-width="1" fill="none"  />
<polyline points="192,544  150,544  150,489  192,489" stroke-width="1" fill="none"  />
<line x1="132" y1="24" x2="139" y2="24" stroke-width="1" />
<line x1="132" y1="28" x2="139" y2="28" stroke-width="1" />
<line x1="132" y1="32" x2="139" y2="32" stroke-width="1" />
<line x1="132" y1="36" x2="139" y2="36" stroke-width="1" />
<line x1="132" y1="40" x2="139" y2="40" stroke-width="1" />
<line x1="150" y1="24" x2="143" y2="24" stroke-width="1" />
<line x1="150" y1="28" x2="143" y2="28" stroke-width="1" />
<line x1="150" y1="32" x2="143" y2="32" stroke-width="1" />
<line x1="150" y1="36" x2="143" y2="36" stroke-width="1" />
<line x1="150" y1="40" x2="143" y2="40" stroke-width="1" />
<line x1="132" y1="69" x2="139" y2="69" stroke-width="1" />
<line x1="132" y1="65" x2="139" y2="65" stroke-width="1" />
<line x1="92" y1="489" x2="92" y2="472" stroke-width="1" />
<line x1="96" y1="489" x2="96" y2="472" stroke-width="1" />
<line x1="100" y1="489" x2="100" y2="472" stroke-width="1" />
<line x1="104" y1="489" x2="104" y2="472" stroke-width="1" />
<line x1="108" y1="489" x2="108" y2="472" stroke-width="1" />
<line x1="112" y1="489" x2="112" y2="472" stroke-width="1" />
<line x1="116" y1="489" x2="116" y2="472" stroke-width="1" />
<line x1="120" y1="489" x2="120" y2="472" stroke-width="1" />
<line x1="124" y1="489" x2="124" y2="472" stroke-width="1" />
<line x1="128" y1="489" x2="128" y2="472" stroke-width="1" />
<line x1="190" y1="472" x2="190" y2="489" stroke-width="1" />
<line x1="186" y1="472" x2="186" y2="489" stroke-width="1" />
<line x1="182" y1="472" x2="182" y2="489" stroke-width="1" />
<line x1="178" y1="472" x2="178" y2="489" stroke-width="1" />
<line x1="174" y1="472" x2="174" y2="489" stroke-width="1" />
<line x1="170" y1="472" x2="170" y2="489" stroke-width="1" />
<line x1="166" y1="472" x2="166" y2="489" stroke-width="1" />
<line x1="162" y1="472" x2="162" y2="489" stroke-width="1" />
<line x1="158" y1="472" x2="158" y2="489" stroke-width="1" />
<line x1="154" y1="472" x2="154" y2="489" stroke-width="1" />
<line x1="92" y1="544" x2="92" y2="561" stroke-width="1" />
<line x1="96" y1="544" x2="96" y2="561" stroke-width="1" />
<line x1="100" y1="544" x2="100" y2="561" stroke-width="1" />
<line x1="104" y1="544" x2="104" y2="561" stroke-width="1" />
<line x1="108" y1="544" x2="108" y2="561" stroke-width="1" />
<line x1="112" y1="544" x2="112" y2="561" stroke-width="1" />
<line x1="116" y1="544" x2="116" y2="561" stroke-width="1" />
<line x1="120" y1="544" x2="120" y2="561" stroke-width="1" />
<line x1="124" y1="544" x2="124" y2="561" stroke-width="1" />
<line x1="128" y1="544" x2="128" y2="561" stroke-width="1" />
<line x1="190" y1="544" x2="190" y2="561" stroke-width="1" />
<line x1="186" y1="544" x2="186" y2="561" stroke-width="1" />
<line x1="182" y1="544" x2="182" y2="561" stroke-width="1" />
<line x1="178" y1="544" x2="178" y2="561" stroke-width="1" />
<line x1="174" y1="544" x2="174" y2="561" stroke-width="1" />
<line x1="170" y1="544" x2="170" y2="561" stroke-width="1" />
<line x1="166" y1="544" x2="166" y2="561" stroke-width="1" />
<line x1="162" y1="544" x2="162" y2="561" stroke-width="1" />
<line x1="158" y1="544" x2="158" y2="561" stroke-width="1" />
<line x1="154" y1="544" x2="154" y2="561" stroke-width="1" />
</g>
<g stroke="#EEEEEE" fill="#EEEEEE" stroke-opacity="1.0" fill-opacity="1.0" transform="scale(0.5)">
<polygon points="492,16  504,16  504,43  506,43  506,28  511,28  511,78  513,78  513,28  518,28  518,400  550,400  550,415  544,415  544,436  550,436  550,451  500,451  500,392  492,392  492,376  500,376  500,220  493,220  493,201  500,201  500,22  492,22" stroke-width="1" />
</g>
<g stroke="#000000" fill="#EEEEEE" stroke-opacity="1.0" fill-opacity="1.0" transform="scale(0.5)">
<polyline points="500,220  500,376  478,376" stroke-width="1" fill="none"  />
<polyline points="478,392  500,392  500,451  575,451  575,400  518,400  518,137  521,137" stroke-width="1" fill="none"  />
<polyline points="544,418  544,433" stroke-width="1" fill="none"  />
<polyline points="497,137  500,137  500,201" stroke-width="1" fill="none"  />
<polyline points="521,124  518,124  518,91  521,91" stroke-width="1" fill="none"  />
<polyline points="521,78  518,78  518,16" stroke-width="1" fill="none"  />
<polyline points="513,16  513,78  511,78  511,16" stroke-width="1" fill="none"  />
<polyline points="506,16  506,43  504,43  504,16  481,16" stroke-width="1" fill="none"  />
<polyline points="481,22  500,22  500,78  497,78" stroke-width="1" fill="none"  />
<polyline points="497,91  500,91  500,124  497,124" stroke-width="1" fill="none"  />
<line x1="506" y1="18" x2="511" y2="18" stroke-width="1" />
<line x1="506" y1="22" x2="511" y2="22" stroke-width="1" />
<line x1="506" y1="26" x2="511" y2="26" stroke-width="1" />
<line x1="506" y1="30" x2="511" y2="30" stroke-width="1" />
<line x1="506" y1="34" x2="511" y2="34" stroke-width="1" />
<line x1="506" y1="38" x2="511" y2="38" stroke-width="1" />
<line x1="513" y1="18" x2="518" y2="18" stroke-width="1" />
<line x1="513" y1="22" x2="518" y2="22" stroke-width="1" />
<line x1="513" y1="26" x2="518" y2="26" stroke-width="1" />
<line x1="513" y1="30" x2="518" y2="30" stroke-width="1" />
<line x1="513" y1="34" x2="518" y2="34" stroke-width="1" />
<line x1="513" y1="38" x2="518" y2="38" stroke-width="1" />
<line x1="513" y1="69" x2="518" y2="69" stroke-width="1" />
<line x1="513" y1="65" x2="518" y2="65" stroke-width="1" />
</g>
<g stroke="#FFFFFF" fill="#FFFFFF" stroke-opacity="0.9" fill-opacity="0.9" transform="scale(0.5)">
<polygon points="100,260  550,260  550,373  534,373  534,405  540,405  540,418  546,418  546,433  540,433  540,445  494,445  494,405  521,405  521,373  129,373  129,405  156,405  156,445  110,445  110,433  104,433  104,418  110,418  110,405  116,405  116,373  100,373" stroke-width="1" />
</g>
<g stroke="#DDDDDD" fill="#FEFBF1" stroke-opacity="0.9" fill-opacity="0.9" transform="scale(0.5)">
<polygon points="110,405  156,405  156,445  110,445" stroke-width="1" />
<polygon points="494,405  540,405  540,445  494,445" stroke-width="1" />
</g>
<g stroke="#FFFFFF" fill="#FFFFFF" stroke-opacity="0.9" fill-opacity="0.9" transform="scale(0.5)">
<polygon points="128,47  153,47  153,63  128,63" stroke-width="1" />
<polygon points="128,152  154,152  154,168  128,168" stroke-width="1" />
<polygon points="498,47  522,47  522,63  498,63" stroke-width="1" />
<polygon points="499,152  519,152  519,168  499,168" stroke-width="1" />
</g>
<g stroke="#000000" fill="#0078C9" stroke-opacity="0.9" fill-opacity="0.9" transform="scale(0.5)">
<polygon points="100,315  100,285  550,285  550,315" stroke-width="1" />
<polygon points="100,348  100,318  550,318  550,348" stroke-width="1" />
</g>
<g stroke="#000000" fill="none" stroke-opacity="0.9" fill-opacity="0.9" transform="scale(0.5)">
<text x=" 282" y="323.0" font-family="Arial" font-size=" 25" fill="#000000" stroke-width="0">Купчино</text>
</g>
<g stroke="#FFFFFF" fill="none" stroke-opacity="0.9" fill-opacity="0.9" transform="scale(0.5)">
<text x=" 284" y="325.0" font-family="Arial" font-size=" 25" fill="#FFFFFF" stroke-width="0">Купчино</text>
</g>
<g stroke="#0078C9" fill="none" stroke-opacity="0.9" fill-opacity="0.9" transform="scale(0.5)">
<text x=" 102" y="283.0" font-family="Arial" font-size=" 20" fill="#0078C9" stroke-width="0">&lt;&lt; Звёздная</text>
<text x=" 419" y="364.0" font-family="Arial" font-size=" 20" fill="#0078C9" stroke-width="0">посадки нет &gt;&gt;</text>
</g>
<g stroke="#000000" fill="#C0C0C0" stroke-opacity="0.9" fill-opacity="0.9" transform="scale(0.5)">
<polygon points="65,99  65,71  585,71  585,99" stroke-width="1" />
<polygon points="65,144  65,116  585,116  585,144" stroke-width="1" />
</g>
<g stroke="#000000" fill="none" stroke-opacity="0.9" fill-opacity="0.9" transform="scale(0.5)">
<text x=" 271" y="40.0" font-family="Arial" font-size=" 25" fill="#000000" stroke-width="0">Купчино</text>
<text x=" 181" y="87.0" font-family="Arial" font-size=" 20" fill="#000000" stroke-width="0">&lt;&lt; Проспект Славы</text>
<text x=" 370" y="141.0" font-family="Arial" font-size=" 20" fill="#000000" stroke-width="0">Шушары &gt;&gt;</text>
</g>
<g stroke="#FFFFFF" fill="#FFFFFF" stroke-opacity="0.9" fill-opacity="0.9" transform="scale(0.5)">
<polygon points="109,124  109,137  129,137  129,124" stroke-width="1" />
<polygon points="153,137  153,124  173,124  173,137" stroke-width="1" />
<polygon points="109,91  109,78  129,78  129,91" stroke-width="1" />
<polygon points="153,78  173,78  173,91  153,91" stroke-width="1" />
<polygon points="477,91  477,78  497,78  497,91" stroke-width="1" />
<polygon points="521,78  541,78  541,91  521,91" stroke-width="1" />
<polygon points="477,137  477,124  497,124  497,137" stroke-width="1" />
<polygon points="521,124  541,124  541,137  521,137" stroke-width="1" />
</g>
<g stroke="#000000" fill="#FFFFFF" stroke-opacity="0.9" fill-opacity="0.9" transform="scale(0.5)">
<polyline points="541,91  521,91  521,78  541,78" stroke-width="1" fill="none"  />
<polyline points="477,91  497,91  497,78  477,78" stroke-width="1" fill="none"  />
<polyline points="477,124  497,124  497,137  477,137" stroke-width="1" fill="none"  />
<polyline points="541,124  521,124  521,137  541,137" stroke-width="1" fill="none"  />
<polyline points="109,78  129,78  129,91  109,91" stroke-width="1" fill="none"  />
<polyline points="173,78  153,78  153,91  173,91" stroke-width="1" fill="none"  />
<polyline points="109,124  129,124  129,137  109,137" stroke-width="1" fill="none"  />
<polyline points="173,124  153,124  153,137  173,137" stroke-width="1" fill="none"  />
<line x1="171" y1="78" x2="171" y2="91" stroke-width="1" />
<line x1="167" y1="78" x2="167" y2="91" stroke-width="1" />
<line x1="163" y1="78" x2="163" y2="91" stroke-width="1" />
<line x1="159" y1="78" x2="159" y2="91" stroke-width="1" />
<line x1="155" y1="78" x2="155" y2="91" stroke-width="1" />
<line x1="171" y1="124" x2="171" y2="137" stroke-width="1" />
<line x1="167" y1="124" x2="167" y2="137" stroke-width="1" />
<line x1="163" y1="124" x2="163" y2="137" stroke-width="1" />
<line x1="159" y1="124" x2="159" y2="137" stroke-width="1" />
<line x1="155" y1="124" x2="155" y2="137" stroke-width="1" />
<line x1="111" y1="78" x2="111" y2="91" stroke-width="1" />
<line x1="115" y1="78" x2="115" y2="91" stroke-width="1" />
<line x1="119" y1="78" x2="119" y2="91" stroke-width="1" />
<line x1="123" y1="78" x2="123" y2="91" stroke-width="1" />
<line x1="127" y1="78" x2="127" y2="91" stroke-width="1" />
<line x1="111" y1="124" x2="111" y2="137" stroke-width="1" />
<line x1="115" y1="124" x2="115" y2="137" stroke-width="1" />
<line x1="119" y1="124" x2="119" y2="137" stroke-width="1" />
<line x1="123" y1="124" x2="123" y2="137" stroke-width="1" />
<line x1="127" y1="124" x2="127" y2="137" stroke-width="1" />
<line x1="539" y1="78" x2="539" y2="91" stroke-width="1" />
<line x1="535" y1="78" x2="535" y2="91" stroke-width="1" />
<line x1="531" y1="78" x2="531" y2="91" stroke-width="1" />
<line x1="527" y1="78" x2="527" y2="91" stroke-width="1" />
<line x1="523" y1="78" x2="523" y2="91" stroke-width="1" />
<line x1="479" y1="124" x2="479" y2="137" stroke-width="1" />
<line x1="483" y1="124" x2="483" y2="137" stroke-width="1" />
<line x1="487" y1="124" x2="487" y2="137" stroke-width="1" />
<line x1="491" y1="124" x2="491" y2="137" stroke-width="1" />
<line x1="495" y1="124" x2="495" y2="137" stroke-width="1" />
<line x1="539" y1="124" x2="539" y2="137" stroke-width="1" />
<line x1="535" y1="124" x2="535" y2="137" stroke-width="1" />
<line x1="531" y1="124" x2="531" y2="137" stroke-width="1" />
<line x1="527" y1="124" x2="527" y2="137" stroke-width="1" />
<line x1="523" y1="124" x2="523" y2="137" stroke-width="1" />
<line x1="479" y1="78" x2="479" y2="91" stroke-width="1" />
<line x1="483" y1="78" x2="483" y2="91" stroke-width="1" />
<line x1="487" y1="78" x2="487" y2="91" stroke-width="1" />
<line x1="491" y1="78" x2="491" y2="91" stroke-width="1" />
<line x1="495" y1="78" x2="495" y2="91" stroke-width="1" />
</g>
<g stroke="#000000" fill="#FFFFFF" stroke-opacity="0.9" fill-opacity="0.9" transform="scale(0.5)">
<polyline points="550,348  550,373  534,373  534,405  540,405  540,418  562,418  562,415  544,415  544,418" stroke-width="1" fill="none"  />
<polyline points="461,376  439,376  439,373  521,373  521,405  494,405  494,418  497,418" stroke-width="1" fill="none"  />
<polyline points="497,433  494,433  494,445  540,445  540,433  562,433  562,436  544,436  544,433" stroke-width="1" fill="none"  />
<line x1="459" y1="376" x2="459" y2="392" stroke-width="1" />
<line x1="455" y1="376" x2="455" y2="392" stroke-width="1" />
<line x1="451" y1="376" x2="451" y2="392" stroke-width="1" />
<line x1="447" y1="376" x2="447" y2="392" stroke-width="1" />
<line x1="443" y1="376" x2="443" y2="392" stroke-width="1" />
<line x1="498" y1="392" x2="498" y2="376" stroke-width="1" />
<line x1="494" y1="392" x2="494" y2="376" stroke-width="1" />
<line x1="490" y1="392" x2="490" y2="376" stroke-width="1" />
<line x1="486" y1="392" x2="486" y2="376" stroke-width="1" />
<line x1="482" y1="392" x2="482" y2="376" stroke-width="1" />
<line x1="521" y1="375" x2="534" y2="375" stroke-width="1" />
<line x1="521" y1="379" x2="534" y2="379" stroke-width="1" />
<line x1="521" y1="383" x2="534" y2="383" stroke-width="1" />
<line x1="521" y1="387" x2="534" y2="387" stroke-width="1" />
<line x1="521" y1="391" x2="534" y2="391" stroke-width="1" />
<line x1="542" y1="418" x2="542" y2="433" stroke-width="1" />
<line x1="546" y1="418" x2="546" y2="433" stroke-width="1" />
<line x1="550" y1="418" x2="550" y2="433" stroke-width="1" />
<line x1="554" y1="418" x2="554" y2="433" stroke-width="1" />
<line x1="558" y1="418" x2="558" y2="433" stroke-width="1" />
<line x1="560" y1="415" x2="560" y2="400" stroke-width="1" />
<line x1="556" y1="415" x2="556" y2="400" stroke-width="1" />
<line x1="552" y1="415" x2="552" y2="400" stroke-width="1" />
<line x1="548" y1="415" x2="548" y2="400" stroke-width="1" />
<line x1="560" y1="436" x2="560" y2="451" stroke-width="1" />
<line x1="556" y1="436" x2="556" y2="451" stroke-width="1" />
<line x1="552" y1="436" x2="552" y2="451" stroke-width="1" />
<line x1="548" y1="436" x2="548" y2="451" stroke-width="1" />
</g>
<g stroke="#FF0000" fill="#FFFFFF" stroke-opacity="0.9" fill-opacity="0.9" transform="scale(0.5)">
<polyline points="430,384  453,384" marker-end="url(#arrow)" stroke-width="1" fill="none" />
<polyline points="527,385  527,403" marker-end="url(#arrow)" stroke-width="1" fill="none" />
</g>
<g stroke="#000000" fill="#FFFFFF" stroke-opacity="0.9" fill-opacity="0.9" transform="scale(0.5)">
<polyline points="461,392  337,392" stroke-width="1" fill="none"  />
<polyline points="337,376  359,376  359,373  295,373  295,376  317,376" stroke-width="1" fill="none"  />
<polyline points="317,392  189,392" stroke-width="1" fill="none"  />
<line x1="191" y1="376" x2="191" y2="392" stroke-width="1" />
<line x1="195" y1="376" x2="195" y2="392" stroke-width="1" />
<line x1="199" y1="376" x2="199" y2="392" stroke-width="1" />
<line x1="203" y1="376" x2="203" y2="392" stroke-width="1" />
<line x1="207" y1="376" x2="207" y2="392" stroke-width="1" />
<line x1="297" y1="392" x2="297" y2="376" stroke-width="1" />
<line x1="301" y1="392" x2="301" y2="376" stroke-width="1" />
<line x1="305" y1="392" x2="305" y2="376" stroke-width="1" />
<line x1="309" y1="392" x2="309" y2="376" stroke-width="1" />
<line x1="313" y1="392" x2="313" y2="376" stroke-width="1" />
<line x1="357" y1="392" x2="357" y2="376" stroke-width="1" />
<line x1="353" y1="392" x2="353" y2="376" stroke-width="1" />
<line x1="349" y1="392" x2="349" y2="376" stroke-width="1" />
<line x1="345" y1="392" x2="345" y2="376" stroke-width="1" />
<line x1="341" y1="392" x2="341" y2="376" stroke-width="1" />
</g>
<g stroke="#FF0000" fill="#FFFFFF" stroke-opacity="0.9" fill-opacity="0.9" transform="scale(0.5)">
<polyline points="327,387  327,403" marker-end="url(#arrow)" stroke-width="1" fill="none" />
<polyline points="216,384  202,384" marker-end="url(#arrow)" stroke-width="1" fill="none" />
<polyline points="122,386  122,402" marker-end="url(#arrow)" stroke-width="1" fill="none" />
</g>
<g stroke="#000000" fill="#FFFFFF" stroke-opacity="0.9" fill-opacity="0.9" transform="scale(0.5)">
<polyline points="153,432  156,432  156,445  110,445  110,433  88,433  88,436  106,436  106,433" stroke-width="1" fill="none"  />
<polyline points="106,418  106,415  88,415  88,418  110,418  110,405  116,405  116,373  100,373  100,348" stroke-width="1" fill="none"  />
<polyline points="189,376  211,376  211,373  129,373  129,405  156,405  156,418  153,418" stroke-width="1" fill="none"  />
<line x1="116" y1="376" x2="129" y2="376" stroke-width="1" />
<line x1="116" y1="380" x2="129" y2="380" stroke-width="1" />
<line x1="116" y1="384" x2="129" y2="384" stroke-width="1" />
<line x1="116" y1="388" x2="129" y2="388" stroke-width="1" />
<line x1="116" y1="392" x2="129" y2="392" stroke-width="1" />
<line x1="152" y1="392" x2="152" y2="376" stroke-width="1" />
<line x1="156" y1="392" x2="156" y2="376" stroke-width="1" />
<line x1="160" y1="392" x2="160" y2="376" stroke-width="1" />
<line x1="164" y1="392" x2="164" y2="376" stroke-width="1" />
<line x1="168" y1="392" x2="168" y2="376" stroke-width="1" />
<line x1="108" y1="418" x2="108" y2="433" stroke-width="1" />
<line x1="104" y1="418" x2="104" y2="433" stroke-width="1" />
<line x1="100" y1="418" x2="100" y2="433" stroke-width="1" />
<line x1="96" y1="418" x2="96" y2="433" stroke-width="1" />
<line x1="92" y1="418" x2="92" y2="433" stroke-width="1" />
<line x1="90" y1="415" x2="90" y2="400" stroke-width="1" />
<line x1="94" y1="415" x2="94" y2="400" stroke-width="1" />
<line x1="98" y1="415" x2="98" y2="400" stroke-width="1" />
<line x1="102" y1="415" x2="102" y2="400" stroke-width="1" />
<line x1="90" y1="436" x2="90" y2="451" stroke-width="1" />
<line x1="94" y1="436" x2="94" y2="451" stroke-width="1" />
<line x1="98" y1="436" x2="98" y2="451" stroke-width="1" />
<line x1="102" y1="436" x2="102" y2="451" stroke-width="1" />
</g>
<g stroke="#CCCCCC" fill="#FFFFFF" stroke-opacity="0.9" fill-opacity="0.9" transform="scale(0.5)">
<polyline points="249,230  401,230  401,259  249,259  249,230" stroke-width="1" fill="none"  />
<polyline points="439,259  439,230  476,230  476,221  499,221  499,259  439,259" stroke-width="1" fill="none"  />
<polyline points="151,259  151,221  174,221  174,230  211,230  211,259  151,259" stroke-width="1" fill="none"  />
<polyline points="151,200  174,200  174,193  325,193  325,177  381,177" stroke-width="1" fill="none"  />
<polyline points="341,193  476,193  476,200  499,200" stroke-width="1" fill="none"  />
</g>
<g stroke="#000000" fill="#FFFFFF" stroke-opacity="0.9" fill-opacity="0.9" transform="scale(0.5)">
<polyline points="550,285  550,260  438,260  438,229  475,229  475,220  500,220" stroke-width="1" fill="none"  />
<polyline points="500,201  475,201  475,194  340,194  340,192  382,192" stroke-width="1" fill="none"  />
<polyline points="382,178  326,178  326,194  175,194  175,201  150,201" stroke-width="1" fill="none"  />
<polyline points="150,220  175,220  175,229  212,229  212,260  100,260  100,285" stroke-width="1" fill="none"  />
<polyline points="248,229  402,229  402,260  248,260  248,229" stroke-width="1" fill="none"  />
<line x1="495" y1="201" x2="495" y2="220" stroke-width="1" />
<line x1="491" y1="201" x2="491" y2="220" stroke-width="1" />
<line x1="487" y1="201" x2="487" y2="220" stroke-width="1" />
<line x1="483" y1="201" x2="483" y2="220" stroke-width="1" />
<line x1="479" y1="201" x2="479" y2="220" stroke-width="1" />
<line x1="155" y1="201" x2="155" y2="220" stroke-width="1" />
<line x1="159" y1="201" x2="159" y2="220" stroke-width="1" />
<line x1="163" y1="201" x2="163" y2="220" stroke-width="1" />
<line x1="167" y1="201" x2="167" y2="220" stroke-width="1" />
<line x1="171" y1="201" x2="171" y2="220" stroke-width="1" />
<polyline points="212,242  218,242" stroke-width="1" fill="none"  />
<polyline points="242,242  248,242" stroke-width="1" fill="none"  />
<polyline points="402,242  408,242" stroke-width="1" fill="none"  />
<polyline points="432,242  438,242" stroke-width="1" fill="none"  />
<line x1="342" y1="192" x2="342" y2="178" stroke-width="1" />
<line x1="346" y1="192" x2="346" y2="178" stroke-width="1" />
<line x1="350" y1="192" x2="350" y2="178" stroke-width="1" />
<line x1="354" y1="192" x2="354" y2="178" stroke-width="1" />
<line x1="358" y1="192" x2="358" y2="178" stroke-width="1" />
<line x1="362" y1="192" x2="362" y2="178" stroke-width="1" />
<line x1="366" y1="192" x2="366" y2="178" stroke-width="1" />
<line x1="370" y1="192" x2="370" y2="178" stroke-width="1" />
<line x1="374" y1="192" x2="374" y2="178" stroke-width="1" />
<line x1="378" y1="192" x2="378" y2="178" stroke-width="1" />
</g>
<g stroke="#009900" fill="#FFFFFF" stroke-opacity="0.9" fill-opacity="0.9" transform="scale(0.5)">
<line x1="218" y1="239" x2="218" y2="245" stroke-width="1" />
<line x1="222" y1="239" x2="222" y2="245" stroke-width="1" />
<line x1="226" y1="239" x2="226" y2="245" stroke-width="1" />
<line x1="230" y1="239" x2="230" y2="245" stroke-width="1" />
<line x1="234" y1="239" x2="234" y2="245" stroke-width="1" />
<line x1="238" y1="239" x2="238" y2="245" stroke-width="1" />
<line x1="242" y1="239" x2="242" y2="245" stroke-width="1" />
<line x1="408" y1="239" x2="408" y2="245" stroke-width="1" />
<line x1="412" y1="239" x2="412" y2="245" stroke-width="1" />
<line x1="416" y1="239" x2="416" y2="245" stroke-width="1" />
<line x1="420" y1="239" x2="420" y2="245" stroke-width="1" />
<line x1="424" y1="239" x2="424" y2="245" stroke-width="1" />
<line x1="428" y1="239" x2="428" y2="245" stroke-width="1" />
<line x1="432" y1="239" x2="432" y2="245" stroke-width="1" />
</g>
<g stroke="#000000" fill="#FFFFFF" stroke-opacity="0.9" fill-opacity="0.9" transform="scale(0.5)">
<polygon points="255,237  255,229  283,229  283,237" stroke-width="1" />
<polygon points="367,237  367,229  395,229  395,237" stroke-width="1" />
</g>
<g stroke="#000000" fill="none" stroke-opacity="0.9" fill-opacity="0.9" transform="scale(0.5)">
<text x=" 257" y="236.0" font-family="Arial" font-size=" 10" fill="#000000" stroke-width="0">кассы</text>
<text x=" 369" y="236.0" font-family="Arial" font-size=" 10" fill="#000000" stroke-width="0">кассы</text>
</g>
<g stroke="#009900" fill="none" stroke-opacity="0.9" fill-opacity="0.9" transform="scale(0.5)">
<polyline points="422,235  422,252" marker-end="url(#arrow)" stroke-width="1" fill="none" />
<polyline points="232,235  232,252" marker-end="url(#arrow)" stroke-width="1" fill="none" />
</g>
<g stroke="#0" fill="none" stroke-opacity="0.9" fill-opacity="0.9" transform="scale(0.5)">
<line x1="42" y1="155" x2="633" y2="155" stroke-width="1" />
<line x1="42" y1="165" x2="633" y2="165" stroke-width="1" />
<line x1="44" y1="153.0" x2="44" y2="167.0" stroke-width="1" />
<line x1="48" y1="153.0" x2="48" y2="167.0" stroke-width="1" />
<line x1="52" y1="153.0" x2="52" y2="167.0" stroke-width="1" />
<line x1="56" y1="153.0" x2="56" y2="167.0" stroke-width="1" />
<line x1="60" y1="153.0" x2="60" y2="167.0" stroke-width="1" />
<line x1="64" y1="153.0" x2="64" y2="167.0" stroke-width="1" />
<line x1="68" y1="153.0" x2="68" y2="167.0" stroke-width="1" />
<line x1="72" y1="153.0" x2="72" y2="167.0" stroke-width="1" />
<line x1="76" y1="153.0" x2="76" y2="167.0" stroke-width="1" />
<line x1="80" y1="153.0" x2="80" y2="167.0" stroke-width="1" />
<line x1="84" y1="153.0" x2="84" y2="167.0" stroke-width="1" />
<line x1="88" y1="153.0" x2="88" y2="167.0" stroke-width="1" />
<line x1="92" y1="153.0" x2="92" y2="167.0" stroke-width="1" />
<line x1="96" y1="153.0" x2="96" y2="167.0" stroke-width="1" />
<line x1="100" y1="153.0" x2="100" y2="167.0" stroke-width="1" />
<line x1="104" y1="153.0" x2="104" y2="167.0" stroke-width="1" />
<line x1="108" y1="153.0" x2="108" y2="167.0" stroke-width="1" />
<line x1="112" y1="153.0" x2="112" y2="167.0" stroke-width="1" />
<line x1="116" y1="153.0" x2="116" y2="167.0" stroke-width="1" />
<line x1="120" y1="153.0" x2="120" y2="167.0" stroke-width="1" />
<line x1="124" y1="153.0" x2="124" y2="167.0" stroke-width="1" />
<line x1="128" y1="153.0" x2="128" y2="167.0" stroke-width="1" />
<line x1="132" y1="153.0" x2="132" y2="167.0" stroke-width="1" />
<line x1="136" y1="153.0" x2="136" y2="167.0" stroke-width="1" />
<line x1="140" y1="153.0" x2="140" y2="167.0" stroke-width="1" />
<line x1="144" y1="153.0" x2="144" y2="167.0" stroke-width="1" />
<line x1="148" y1="153.0" x2="148" y2="167.0" stroke-width="1" />
<line x1="152" y1="153.0" x2="152" y2="167.0" stroke-width="1" />
<line x1="156" y1="153.0" x2="156" y2="167.0" stroke-width="1" />
<line x1="160" y1="153.0" x2="160" y2="167.0" stroke-width="1" />
<line x1="164" y1="153.0" x2="164" y2="167.0" stroke-width="1" />
<line x1="168" y1="153.0" x2="168" y2="167.0" stroke-width="1" />
<line x1="172" y1="153.0" x2="172" y2="167.0" stroke-width="1" />
<line x1="176" y1="153.0" x2="176" y2="167.0" stroke-width="1" />
<line x1="180" y1="153.0" x2="180" y2="167.0" stroke-width="1" />
<line x1="184" y1="153.0" x2="184" y2="167.0" stroke-width="1" />
<line x1="188" y1="153.0" x2="188" y2="167.0" stroke-width="1" />
<line x1="192" y1="153.0" x2="192" y2="167.0" stroke-width="1" />
<line x1="196" y1="153.0" x2="196" y2="167.0" stroke-width="1" />
<line x1="200" y1="153.0" x2="200" y2="167.0" stroke-width="1" />
<line x1="204" y1="153.0" x2="204" y2="167.0" stroke-width="1" />
<line x1="208" y1="153.0" x2="208" y2="167.0" stroke-width="1" />
<line x1="212" y1="153.0" x2="212" y2="167.0" stroke-width="1" />
<line x1="216" y1="153.0" x2="216" y2="167.0" stroke-width="1" />
<line x1="220" y1="153.0" x2="220" y2="167.0" stroke-width="1" />
<line x1="224" y1="153.0" x2="224" y2="167.0" stroke-width="1" />
<line x1="228" y1="153.0" x2="228" y2="167.0" stroke-width="1" />
<line x1="232" y1="153.0" x2="232" y2="167.0" stroke-width="1" />
<line x1="236" y1="153.0" x2="236" y2="167.0" stroke-width="1" />
<line x1="240" y1="153.0" x2="240" y2="167.0" stroke-width="1" />
<line x1="244" y1="153.0" x2="244" y2="167.0" stroke-width="1" />
<line x1="248" y1="153.0" x2="248" y2="167.0" stroke-width="1" />
<line x1="252" y1="153.0" x2="252" y2="167.0" stroke-width="1" />
<line x1="256" y1="153.0" x2="256" y2="167.0" stroke-width="1" />
<line x1="260" y1="153.0" x2="260" y2="167.0" stroke-width="1" />
<line x1="264" y1="153.0" x2="264" y2="167.0" stroke-width="1" />
<line x1="268" y1="153.0" x2="268" y2="167.0" stroke-width="1" />
<line x1="272" y1="153.0" x2="272" y2="167.0" stroke-width="1" />
<line x1="276" y1="153.0" x2="276" y2="167.0" stroke-width="1" />
<line x1="280" y1="153.0" x2="280" y2="167.0" stroke-width="1" />
<line x1="284" y1="153.0" x2="284" y2="167.0" stroke-width="1" />
<line x1="288" y1="153.0" x2="288" y2="167.0" stroke-width="1" />
<line x1="292" y1="153.0" x2="292" y2="167.0" stroke-width="1" />
<line x1="296" y1="153.0" x2="296" y2="167.0" stroke-width="1" />
<line x1="300" y1="153.0" x2="300" y2="167.0" stroke-width="1" />
<line x1="304" y1="153.0" x2="304" y2="167.0" stroke-width="1" />
<line x1="308" y1="153.0" x2="308" y2="167.0" stroke-width="1" />
<line x1="312" y1="153.0" x2="312" y2="167.0" stroke-width="1" />
<line x1="316" y1="153.0" x2="316" y2="167.0" stroke-width="1" />
<line x1="320" y1="153.0" x2="320" y2="167.0" stroke-width="1" />
<line x1="324" y1="153.0" x2="324" y2="167.0" stroke-width="1" />
<line x1="328" y1="153.0" x2="328" y2="167.0" stroke-width="1" />
<line x1="332" y1="153.0" x2="332" y2="167.0" stroke-width="1" />
<line x1="336" y1="153.0" x2="336" y2="167.0" stroke-width="1" />
<line x1="340" y1="153.0" x2="340" y2="167.0" stroke-width="1" />
<line x1="344" y1="153.0" x2="344" y2="167.0" stroke-width="1" />
<line x1="348" y1="153.0" x2="348" y2="167.0" stroke-width="1" />
<line x1="352" y1="153.0" x2="352" y2="167.0" stroke-width="1" />
<line x1="356" y1="153.0" x2="356" y2="167.0" stroke-width="1" />
<line x1="360" y1="153.0" x2="360" y2="167.0" stroke-width="1" />
<line x1="364" y1="153.0" x2="364" y2="167.0" stroke-width="1" />
<line x1="368" y1="153.0" x2="368" y2="167.0" stroke-width="1" />
<line x1="372" y1="153.0" x2="372" y2="167.0" stroke-width="1" />
<line x1="376" y1="153.0" x2="376" y2="167.0" stroke-width="1" />
<line x1="380" y1="153.0" x2="380" y2="167.0" stroke-width="1" />
<line x1="384" y1="153.0" x2="384" y2="167.0" stroke-width="1" />
<line x1="388" y1="153.0" x2="388" y2="167.0" stroke-width="1" />
<line x1="392" y1="153.0" x2="392" y2="167.0" stroke-width="1" />
<line x1="396" y1="153.0" x2="396" y2="167.0" stroke-width="1" />
<line x1="400" y1="153.0" x2="400" y2="167.0" stroke-width="1" />
<line x1="404" y1="153.0" x2="404" y2="167.0" stroke-width="1" />
<line x1="408" y1="153.0" x2="408" y2="167.0" stroke-width="1" />
<line x1="412" y1="153.0" x2="412" y2="167.0" stroke-width="1" />
<line x1="416" y1="153.0" x2="416" y2="167.0" stroke-width="1" />
<line x1="420" y1="153.0" x2="420" y2="167.0" stroke-width="1" />
<line x1="424" y1="153.0" x2="424" y2="167.0" stroke-width="1" />
<line x1="428" y1="153.0" x2="428" y2="167.0" stroke-width="1" />
<line x1="432" y1="153.0" x2="432" y2="167.0" stroke-width="1" />
<line x1="436" y1="153.0" x2="436" y2="167.0" stroke-width="1" />
<line x1="440" y1="153.0" x2="440" y2="167.0" stroke-width="1" />
<line x1="444" y1="153.0" x2="444" y2="167.0" stroke-width="1" />
<line x1="448" y1="153.0" x2="448" y2="167.0" stroke-width="1" />
<line x1="452" y1="153.0" x2="452" y2="167.0" stroke-width="1" />
<line x1="456" y1="153.0" x2="456" y2="167.0" stroke-width="1" />
<line x1="460" y1="153.0" x2="460" y2="167.0" stroke-width="1" />
<line x1="464" y1="153.0" x2="464" y2="167.0" stroke-width="1" />
<line x1="468" y1="153.0" x2="468" y2="167.0" stroke-width="1" />
<line x1="472" y1="153.0" x2="472" y2="167.0" stroke-width="1" />
<line x1="476" y1="153.0" x2="476" y2="167.0" stroke-width="1" />
<line x1="480" y1="153.0" x2="480" y2="167.0" stroke-width="1" />
<line x1="484" y1="153.0" x2="484" y2="167.0" stroke-width="1" />
<line x1="488" y1="153.0" x2="488" y2="167.0" stroke-width="1" />
<line x1="492" y1="153.0" x2="492" y2="167.0" stroke-width="1" />
<line x1="496" y1="153.0" x2="496" y2="167.0" stroke-width="1" />
<line x1="500" y1="153.0" x2="500" y2="167.0" stroke-width="1" />
<line x1="504" y1="153.0" x2="504" y2="167.0" stroke-width="1" />
<line x1="508" y1="153.0" x2="508" y2="167.0" stroke-width="1" />
<line x1="512" y1="153.0" x2="512" y2="167.0" stroke-width="1" />
<line x1="516" y1="153.0" x2="516" y2="167.0" stroke-width="1" />
<line x1="520" y1="153.0" x2="520" y2="167.0" stroke-width="1" />
<line x1="524" y1="153.0" x2="524" y2="167.0" stroke-width="1" />
<line x1="528" y1="153.0" x2="528" y2="167.0" stroke-width="1" />
<line x1="532" y1="153.0" x2="532" y2="167.0" stroke-width="1" />
<line x1="536" y1="153.0" x2="536" y2="167.0" stroke-width="1" />
<line x1="540" y1="153.0" x2="540" y2="167.0" stroke-width="1" />
<line x1="544" y1="153.0" x2="544" y2="167.0" stroke-width="1" />
<line x1="548" y1="153.0" x2="548" y2="167.0" stroke-width="1" />
<line x1="552" y1="153.0" x2="552" y2="167.0" stroke-width="1" />
<line x1="556" y1="153.0" x2="556" y2="167.0" stroke-width="1" />
<line x1="560" y1="153.0" x2="560" y2="167.0" stroke-width="1" />
<line x1="564" y1="153.0" x2="564" y2="167.0" stroke-width="1" />
<line x1="568" y1="153.0" x2="568" y2="167.0" stroke-width="1" />
<line x1="572" y1="153.0" x2="572" y2="167.0" stroke-width="1" />
<line x1="576" y1="153.0" x2="576" y2="167.0" stroke-width="1" />
<line x1="580" y1="153.0" x2="580" y2="167.0" stroke-width="1" />
<line x1="584" y1="153.0" x2="584" y2="167.0" stroke-width="1" />
<line x1="588" y1="153.0" x2="588" y2="167.0" stroke-width="1" />
<line x1="592" y1="153.0" x2="592" y2="167.0" stroke-width="1" />
<line x1="596" y1="153.0" x2="596" y2="167.0" stroke-width="1" />
<line x1="600" y1="153.0" x2="600" y2="167.0" stroke-width="1" />
<line x1="604" y1="153.0" x2="604" y2="167.0" stroke-width="1" />
<line x1="608" y1="153.0" x2="608" y2="167.0" stroke-width="1" />
<line x1="612" y1="153.0" x2="612" y2="167.0" stroke-width="1" />
<line x1="616" y1="153.0" x2="616" y2="167.0" stroke-width="1" />
<line x1="620" y1="153.0" x2="620" y2="167.0" stroke-width="1" />
<line x1="624" y1="153.0" x2="624" y2="167.0" stroke-width="1" />
<line x1="628" y1="153.0" x2="628" y2="167.0" stroke-width="1" />
<line x1="632" y1="153.0" x2="632" y2="167.0" stroke-width="1" />
</g>
<g stroke="#0" fill="none" stroke-opacity="0.9" fill-opacity="0.9" transform="scale(0.5)">
<line x1="61" y1="50" x2="651" y2="50" stroke-width="1" />
<line x1="61" y1="60" x2="651" y2="60" stroke-width="1" />
<line x1="63" y1="48.0" x2="63" y2="62.0" stroke-width="1" />
<line x1="67" y1="48.0" x2="67" y2="62.0" stroke-width="1" />
<line x1="71" y1="48.0" x2="71" y2="62.0" stroke-width="1" />
<line x1="75" y1="48.0" x2="75" y2="62.0" stroke-width="1" />
<line x1="79" y1="48.0" x2="79" y2="62.0" stroke-width="1" />
<line x1="83" y1="48.0" x2="83" y2="62.0" stroke-width="1" />
<line x1="87" y1="48.0" x2="87" y2="62.0" stroke-width="1" />
<line x1="91" y1="48.0" x2="91" y2="62.0" stroke-width="1" />
<line x1="95" y1="48.0" x2="95" y2="62.0" stroke-width="1" />
<line x1="99" y1="48.0" x2="99" y2="62.0" stroke-width="1" />
<line x1="103" y1="48.0" x2="103" y2="62.0" stroke-width="1" />
<line x1="107" y1="48.0" x2="107" y2="62.0" stroke-width="1" />
<line x1="111" y1="48.0" x2="111" y2="62.0" stroke-width="1" />
<line x1="115" y1="48.0" x2="115" y2="62.0" stroke-width="1" />
<line x1="119" y1="48.0" x2="119" y2="62.0" stroke-width="1" />
<line x1="123" y1="48.0" x2="123" y2="62.0" stroke-width="1" />
<line x1="127" y1="48.0" x2="127" y2="62.0" stroke-width="1" />
<line x1="131" y1="48.0" x2="131" y2="62.0" stroke-width="1" />
<line x1="135" y1="48.0" x2="135" y2="62.0" stroke-width="1" />
<line x1="139" y1="48.0" x2="139" y2="62.0" stroke-width="1" />
<line x1="143" y1="48.0" x2="143" y2="62.0" stroke-width="1" />
<line x1="147" y1="48.0" x2="147" y2="62.0" stroke-width="1" />
<line x1="151" y1="48.0" x2="151" y2="62.0" stroke-width="1" />
<line x1="155" y1="48.0" x2="155" y2="62.0" stroke-width="1" />
<line x1="159" y1="48.0" x2="159" y2="62.0" stroke-width="1" />
<line x1="163" y1="48.0" x2="163" y2="62.0" stroke-width="1" />
<line x1="167" y1="48.0" x2="167" y2="62.0" stroke-width="1" />
<line x1="171" y1="48.0" x2="171" y2="62.0" stroke-width="1" />
<line x1="175" y1="48.0" x2="175" y2="62.0" stroke-width="1" />
<line x1="179" y1="48.0" x2="179" y2="62.0" stroke-width="1" />
<line x1="183" y1="48.0" x2="183" y2="62.0" stroke-width="1" />
<line x1="187" y1="48.0" x2="187" y2="62.0" stroke-width="1" />
<line x1="191" y1="48.0" x2="191" y2="62.0" stroke-width="1" />
<line x1="195" y1="48.0" x2="195" y2="62.0" stroke-width="1" />
<line x1="199" y1="48.0" x2="199" y2="62.0" stroke-width="1" />
<line x1="203" y1="48.0" x2="203" y2="62.0" stroke-width="1" />
<line x1="207" y1="48.0" x2="207" y2="62.0" stroke-width="1" />
<line x1="211" y1="48.0" x2="211" y2="62.0" stroke-width="1" />
<line x1="215" y1="48.0" x2="215" y2="62.0" stroke-width="1" />
<line x1="219" y1="48.0" x2="219" y2="62.0" stroke-width="1" />
<line x1="223" y1="48.0" x2="223" y2="62.0" stroke-width="1" />
<line x1="227" y1="48.0" x2="227" y2="62.0" stroke-width="1" />
<line x1="231" y1="48.0" x2="231" y2="62.0" stroke-width="1" />
<line x1="235" y1="48.0" x2="235" y2="62.0" stroke-width="1" />
<line x1="239" y1="48.0" x2="239" y2="62.0" stroke-width="1" />
<line x1="243" y1="48.0" x2="243" y2="62.0" stroke-width="1" />
<line x1="247" y1="48.0" x2="247" y2="62.0" stroke-width="1" />
<line x1="251" y1="48.0" x2="251" y2="62.0" stroke-width="1" />
<line x1="255" y1="48.0" x2="255" y2="62.0" stroke-width="1" />
<line x1="259" y1="48.0" x2="259" y2="62.0" stroke-width="1" />
<line x1="263" y1="48.0" x2="263" y2="62.0" stroke-width="1" />
<line x1="267" y1="48.0" x2="267" y2="62.0" stroke-width="1" />
<line x1="271" y1="48.0" x2="271" y2="62.0" stroke-width="1" />
<line x1="275" y1="48.0" x2="275" y2="62.0" stroke-width="1" />
<line x1="279" y1="48.0" x2="279" y2="62.0" stroke-width="1" />
<line x1="283" y1="48.0" x2="283" y2="62.0" stroke-width="1" />
<line x1="287" y1="48.0" x2="287" y2="62.0" stroke-width="1" />
<line x1="291" y1="48.0" x2="291" y2="62.0" stroke-width="1" />
<line x1="295" y1="48.0" x2="295" y2="62.0" stroke-width="1" />
<line x1="299" y1="48.0" x2="299" y2="62.0" stroke-width="1" />
<line x1="303" y1="48.0" x2="303" y2="62.0" stroke-width="1" />
<line x1="307" y1="48.0" x2="307" y2="62.0" stroke-width="1" />
<line x1="311" y1="48.0" x2="311" y2="62.0" stroke-width="1" />
<line x1="315" y1="48.0" x2="315" y2="62.0" stroke-width="1" />
<line x1="319" y1="48.0" x2="319" y2="62.0" stroke-width="1" />
<line x1="323" y1="48.0" x2="323" y2="62.0" stroke-width="1" />
<line x1="327" y1="48.0" x2="327" y2="62.0" stroke-width="1" />
<line x1="331" y1="48.0" x2="331" y2="62.0" stroke-width="1" />
<line x1="335" y1="48.0" x2="335" y2="62.0" stroke-width="1" />
<line x1="339" y1="48.0" x2="339" y2="62.0" stroke-width="1" />
<line x1="343" y1="48.0" x2="343" y2="62.0" stroke-width="1" />
<line x1="347" y1="48.0" x2="347" y2="62.0" stroke-width="1" />
<line x1="351" y1="48.0" x2="351" y2="62.0" stroke-width="1" />
<line x1="355" y1="48.0" x2="355" y2="62.0" stroke-width="1" />
<line x1="359" y1="48.0" x2="359" y2="62.0" stroke-width="1" />
<line x1="363" y1="48.0" x2="363" y2="62.0" stroke-width="1" />
<line x1="367" y1="48.0" x2="367" y2="62.0" stroke-width="1" />
<line x1="371" y1="48.0" x2="371" y2="62.0" stroke-width="1" />
<line x1="375" y1="48.0" x2="375" y2="62.0" stroke-width="1" />
<line x1="379" y1="48.0" x2="379" y2="62.0" stroke-width="1" />
<line x1="383" y1="48.0" x2="383" y2="62.0" stroke-width="1" />
<line x1="387" y1="48.0" x2="387" y2="62.0" stroke-width="1" />
<line x1="391" y1="48.0" x2="391" y2="62.0" stroke-width="1" />
<line x1="395" y1="48.0" x2="395" y2="62.0" stroke-width="1" />
<line x1="399" y1="48.0" x2="399" y2="62.0" stroke-width="1" />
<line x1="403" y1="48.0" x2="403" y2="62.0" stroke-width="1" />
<line x1="407" y1="48.0" x2="407" y2="62.0" stroke-width="1" />
<line x1="411" y1="48.0" x2="411" y2="62.0" stroke-width="1" />
<line x1="415" y1="48.0" x2="415" y2="62.0" stroke-width="1" />
<line x1="419" y1="48.0" x2="419" y2="62.0" stroke-width="1" />
<line x1="423" y1="48.0" x2="423" y2="62.0" stroke-width="1" />
<line x1="427" y1="48.0" x2="427" y2="62.0" stroke-width="1" />
<line x1="431" y1="48.0" x2="431" y2="62.0" stroke-width="1" />
<line x1="435" y1="48.0" x2="435" y2="62.0" stroke-width="1" />
<line x1="439" y1="48.0" x2="439" y2="62.0" stroke-width="1" />
<line x1="443" y1="48.0" x2="443" y2="62.0" stroke-width="1" />
<line x1="447" y1="48.0" x2="447" y2="62.0" stroke-width="1" />
<line x1="451" y1="48.0" x2="451" y2="62.0" stroke-width="1" />
<line x1="455" y1="48.0" x2="455" y2="62.0" stroke-width="1" />
<line x1="459" y1="48.0" x2="459" y2="62.0" stroke-width="1" />
<line x1="463" y1="48.0" x2="463" y2="62.0" stroke-width="1" />
<line x1="467" y1="48.0" x2="467" y2="62.0" stroke-width="1" />
<line x1="471" y1="48.0" x2="471" y2="62.0" stroke-width="1" />
<line x1="475" y1="48.0" x2="475" y2="62.0" stroke-width="1" />
<line x1="479" y1="48.0" x2="479" y2="62.0" stroke-width="1" />
<line x1="483" y1="48.0" x2="483" y2="62.0" stroke-width="1" />
<line x1="487" y1="48.0" x2="487" y2="62.0" stroke-width="1" />
<line x1="491" y1="48.0" x2="491" y2="62.0" stroke-width="1" />
<line x1="495" y1="48.0" x2="495" y2="62.0" stroke-width="1" />
<line x1="499" y1="48.0" x2="499" y2="62.0" stroke-width="1" />
<line x1="503" y1="48.0" x2="503" y2="62.0" stroke-width="1" />
<line x1="507" y1="48.0" x2="507" y2="62.0" stroke-width="1" />
<line x1="511" y1="48.0" x2="511" y2="62.0" stroke-width="1" />
<line x1="515" y1="48.0" x2="515" y2="62.0" stroke-width="1" />
<line x1="519" y1="48.0" x2="519" y2="62.0" stroke-width="1" />
<line x1="523" y1="48.0" x2="523" y2="62.0" stroke-width="1" />
<line x1="527" y1="48.0" x2="527" y2="62.0" stroke-width="1" />
<line x1="531" y1="48.0" x2="531" y2="62.0" stroke-width="1" />
<line x1="535" y1="48.0" x2="535" y2="62.0" stroke-width="1" />
<line x1="539" y1="48.0" x2="539" y2="62.0" stroke-width="1" />
<line x1="543" y1="48.0" x2="543" y2="62.0" stroke-width="1" />
<line x1="547" y1="48.0" x2="547" y2="62.0" stroke-width="1" />
<line x1="551" y1="48.0" x2="551" y2="62.0" stroke-width="1" />
<line x1="555" y1="48.0" x2="555" y2="62.0" stroke-width="1" />
<line x1="559" y1="48.0" x2="559" y2="62.0" stroke-width="1" />
<line x1="563" y1="48.0" x2="563" y2="62.0" stroke-width="1" />
<line x1="567" y1="48.0" x2="567" y2="62.0" stroke-width="1" />
<line x1="571" y1="48.0" x2="571" y2="62.0" stroke-width="1" />
<line x1="575" y1="48.0" x2="575" y2="62.0" stroke-width="1" />
<line x1="579" y1="48.0" x2="579" y2="62.0" stroke-width="1" />
<line x1="583" y1="48.0" x2="583" y2="62.0" stroke-width="1" />
<line x1="587" y1="48.0" x2="587" y2="62.0" stroke-width="1" />
<line x1="591" y1="48.0" x2="591" y2="62.0" stroke-width="1" />
<line x1="595" y1="48.0" x2="595" y2="62.0" stroke-width="1" />
<line x1="599" y1="48.0" x2="599" y2="62.0" stroke-width="1" />
<line x1="603" y1="48.0" x2="603" y2="62.0" stroke-width="1" />
<line x1="607" y1="48.0" x2="607" y2="62.0" stroke-width="1" />
<line x1="611" y1="48.0" x2="611" y2="62.0" stroke-width="1" />
<line x1="615" y1="48.0" x2="615" y2="62.0" stroke-width="1" />
<line x1="619" y1="48.0" x2="619" y2="62.0" stroke-width="1" />
<line x1="623" y1="48.0" x2="623" y2="62.0" stroke-width="1" />
<line x1="627" y1="48.0" x2="627" y2="62.0" stroke-width="1" />
<line x1="631" y1="48.0" x2="631" y2="62.0" stroke-width="1" />
<line x1="635" y1="48.0" x2="635" y2="62.0" stroke-width="1" />
<line x1="639" y1="48.0" x2="639" y2="62.0" stroke-width="1" />
<line x1="643" y1="48.0" x2="643" y2="62.0" stroke-width="1" />
<line x1="647" y1="48.0" x2="647" y2="62.0" stroke-width="1" />
<line x1="651" y1="48.0" x2="651" y2="62.0" stroke-width="1" />
</g>
<g stroke="#0" fill="none" stroke-opacity="0.9" fill-opacity="0.9" transform="scale(0.5)">
<line x1="543" y1="178" x2="628" y2="178" stroke-width="1" />
<line x1="543" y1="185" x2="628" y2="185" stroke-width="1" />
<line x1="544" y1="176.5" x2="544" y2="186.5" stroke-width="1" />
<line x1="547" y1="176.5" x2="547" y2="186.5" stroke-width="1" />
<line x1="550" y1="176.5" x2="550" y2="186.5" stroke-width="1" />
<line x1="553" y1="176.5" x2="553" y2="186.5" stroke-width="1" />
<line x1="556" y1="176.5" x2="556" y2="186.5" stroke-width="1" />
<line x1="559" y1="176.5" x2="559" y2="186.5" stroke-width="1" />
<line x1="562" y1="176.5" x2="562" y2="186.5" stroke-width="1" />
<line x1="565" y1="176.5" x2="565" y2="186.5" stroke-width="1" />
<line x1="568" y1="176.5" x2="568" y2="186.5" stroke-width="1" />
<line x1="571" y1="176.5" x2="571" y2="186.5" stroke-width="1" />
<line x1="574" y1="176.5" x2="574" y2="186.5" stroke-width="1" />
<line x1="577" y1="176.5" x2="577" y2="186.5" stroke-width="1" />
<line x1="580" y1="176.5" x2="580" y2="186.5" stroke-width="1" />
<line x1="583" y1="176.5" x2="583" y2="186.5" stroke-width="1" />
<line x1="586" y1="176.5" x2="586" y2="186.5" stroke-width="1" />
<line x1="589" y1="176.5" x2="589" y2="186.5" stroke-width="1" />
<line x1="592" y1="176.5" x2="592" y2="186.5" stroke-width="1" />
<line x1="595" y1="176.5" x2="595" y2="186.5" stroke-width="1" />
<line x1="598" y1="176.5" x2="598" y2="186.5" stroke-width="1" />
<line x1="601" y1="176.5" x2="601" y2="186.5" stroke-width="1" />
<line x1="604" y1="176.5" x2="604" y2="186.5" stroke-width="1" />
<line x1="607" y1="176.5" x2="607" y2="186.5" stroke-width="1" />
<line x1="610" y1="176.5" x2="610" y2="186.5" stroke-width="1" />
<line x1="613" y1="176.5" x2="613" y2="186.5" stroke-width="1" />
<line x1="616" y1="176.5" x2="616" y2="186.5" stroke-width="1" />
<line x1="619" y1="176.5" x2="619" y2="186.5" stroke-width="1" />
<line x1="622" y1="176.5" x2="622" y2="186.5" stroke-width="1" />
<line x1="625" y1="176.5" x2="625" y2="186.5" stroke-width="1" />
<line x1="628" y1="176.5" x2="628" y2="186.5" stroke-width="1" />
<polyline points="543,176  543,187" stroke-width="1" fill="none"  />
</g>
<g stroke="#00AFAF" fill="none" stroke-opacity="0.9" fill-opacity="0.9" transform="scale(0.5)">
<text x=" 254" y="522.0" font-family="Arial" font-size=" 15" fill="#00AFAF" stroke-width="0">Витебский проспект</text>
<text x=" 390" y="189.0" font-family="Arial" font-size=" 15" fill="#00AFAF" stroke-width="0">к детской ж/д &gt;&gt;</text>
</g>
</g>
</g>
</svg>
