<?xml version="1.0" encoding="utf-8" ?>
<svg baseProfile="full" height="760.0" version="1.1" width="470.0" xmlns="http://www.w3.org/2000/svg" xmlns:ev="http://www.w3.org/2001/xml-events" xmlns:xlink="http://www.w3.org/1999/xlink">
  <defs>
    <marker id="id421" markerHeight="3" markerUnits="strokeWidth" markerWidth="4" orient="auto" refX="0" refY="5" viewBox="0,0,10,10">
      <path d="M 0 0 L 10 5 L 0 10 z"/>
    </marker>
  </defs>
  <g>
    <rect fill="none" height="760.0" stroke="none" stroke-width="0" width="470.0" x="0.0" y="0.0"/>
    <g transform="rotate(-80.0,235.0,380.0)">
      <polygon fill="#d6083b" points="597.0,458.0 597.0,488.0 147.0,488.0 147.0,458.0" stroke="#000000" stroke-width="1"/>
      <polygon fill="#d6083b" points="597.0,379.0 597.0,349.0 147.0,349.0 147.0,379.0" stroke="#000000" stroke-width="1"/>
      <text fill="#d6083b" font-family="Arial" font-size="20.0" stroke="none" stroke-width="0" x="397.0" y="508.0">Площадь Мужества &gt;&gt;</text>
      <text fill="#d6083b" font-family="Arial" font-size="20.0" stroke="none" stroke-width="0" x="148.0" y="343.0">&lt;&lt; Выборгская</text>
      <text fill="#d6083b" font-family="Arial" font-size="25.0" stroke="none" stroke-width="0" x="338.0" y="424.0">Лесная</text>
      <polyline fill="none" points="597.0,458.0 597.0,435.0 603.0,435.0 603.0,402.0 597.0,402.0 597.0,379.0" stroke="#000000" stroke-width="1"/>
      <polyline fill="none" points="147.0,458.0 147.0,444.0 115.0,444.0 115.0,441.0" stroke="#000000" stroke-width="1"/>
      <polyline fill="none" points="147.0,379.0 147.0,392.0 115.0,392.0 115.0,395.0" stroke="#000000" stroke-width="1"/>
      <line stroke="#808080" stroke-width="1" x1="117.0" x2="117.0" y1="437.0" y2="399.0"/>
      <line stroke="#808080" stroke-width="1" x1="113.0" x2="113.0" y1="437.0" y2="399.0"/>
      <line stroke="#808080" stroke-width="1" x1="109.0" x2="109.0" y1="437.0" y2="399.0"/>
      <line stroke="#808080" stroke-width="1" x1="105.0" x2="105.0" y1="437.0" y2="399.0"/>
      <line stroke="#808080" stroke-width="1" x1="101.0" x2="101.0" y1="437.0" y2="399.0"/>
      <line stroke="#808080" stroke-width="1" x1="97.0" x2="97.0" y1="437.0" y2="399.0"/>
      <line stroke="#808080" stroke-width="1" x1="93.0" x2="93.0" y1="437.0" y2="399.0"/>
      <line stroke="#808080" stroke-width="1" x1="89.0" x2="89.0" y1="437.0" y2="399.0"/>
      <line stroke="#808080" stroke-width="1" x1="85.0" x2="85.0" y1="437.0" y2="399.0"/>
      <line stroke="#808080" stroke-width="1" x1="81.0" x2="81.0" y1="437.0" y2="399.0"/>
      <line stroke="#808080" stroke-width="1" x1="77.0" x2="77.0" y1="437.0" y2="399.0"/>
      <line stroke="#808080" stroke-width="1" x1="73.0" x2="73.0" y1="437.0" y2="399.0"/>
      <line stroke="#808080" stroke-width="1" x1="69.0" x2="69.0" y1="437.0" y2="399.0"/>
      <line stroke="#808080" stroke-width="1" x1="65.0" x2="65.0" y1="437.0" y2="399.0"/>
      <line stroke="#808080" stroke-width="1" x1="61.0" x2="61.0" y1="437.0" y2="399.0"/>
      <line stroke="#808080" stroke-width="1" x1="57.0" x2="57.0" y1="437.0" y2="399.0"/>
      <line stroke="#808080" stroke-width="1" x1="53.0" x2="53.0" y1="437.0" y2="399.0"/>
      <line stroke="#808080" stroke-width="1" x1="49.0" x2="49.0" y1="437.0" y2="399.0"/>
      <line stroke="#808080" stroke-width="1" x1="45.0" x2="45.0" y1="437.0" y2="399.0"/>
      <line stroke="#808080" stroke-width="1" x1="41.0" x2="41.0" y1="437.0" y2="399.0"/>
      <line stroke="#808080" stroke-width="1" x1="37.0" x2="37.0" y1="437.0" y2="399.0"/>
      <line stroke="#808080" stroke-width="1" x1="33.0" x2="33.0" y1="437.0" y2="399.0"/>
      <line stroke="#808080" stroke-width="1" x1="29.0" x2="29.0" y1="437.0" y2="399.0"/>
      <line stroke="#808080" stroke-width="1" x1="25.0" x2="25.0" y1="437.0" y2="399.0"/>
      <line stroke="#808080" stroke-width="1" x1="21.0" x2="21.0" y1="437.0" y2="399.0"/>
      <line stroke="#808080" stroke-width="1" x1="17.0" x2="17.0" y1="437.0" y2="399.0"/>
      <line stroke="#808080" stroke-width="1" x1="13.0" x2="13.0" y1="437.0" y2="399.0"/>
      <line stroke="#808080" stroke-width="1" x1="9.0" x2="9.0" y1="437.0" y2="399.0"/>
      <line stroke="#808080" stroke-width="1" x1="5.0" x2="5.0" y1="437.0" y2="399.0"/>
      <line stroke="#808080" stroke-width="1" x1="1.0" x2="1.0" y1="437.0" y2="399.0"/>
      <line stroke="#808080" stroke-width="1" x1="-3.0" x2="-3.0" y1="437.0" y2="399.0"/>
      <line stroke="#808080" stroke-width="1" x1="-7.0" x2="-7.0" y1="437.0" y2="399.0"/>
      <line stroke="#808080" stroke-width="1" x1="-11.0" x2="-11.0" y1="437.0" y2="399.0"/>
      <line stroke="#808080" stroke-width="1" x1="-15.0" x2="-15.0" y1="437.0" y2="399.0"/>
      <line stroke="#808080" stroke-width="1" x1="-19.0" x2="-19.0" y1="437.0" y2="399.0"/>
      <line stroke="#808080" stroke-width="1" x1="-23.0" x2="-23.0" y1="437.0" y2="399.0"/>
      <line stroke="#808080" stroke-width="1" x1="-27.0" x2="-27.0" y1="437.0" y2="399.0"/>
      <line stroke="#808080" stroke-width="1" x1="-31.0" x2="-31.0" y1="437.0" y2="399.0"/>
      <polygon fill="#9b5509" points="-37.0,395.0 123.0,395.0 123.0,399.0 -37.0,399.0" stroke="#000000" stroke-width="1"/>
      <polygon fill="#9b5509" points="-37.0,407.0 123.0,407.0 123.0,414.0 -37.0,414.0" stroke="#000000" stroke-width="1"/>
      <polygon fill="#9b5509" points="-37.0,422.0 123.0,422.0 123.0,429.0 -37.0,429.0" stroke="#000000" stroke-width="1"/>
      <polygon fill="#9b5509" points="-37.0,437.0 123.0,437.0 123.0,441.0 -37.0,441.0" stroke="#000000" stroke-width="1"/>
    </g>
    <g fill="#9b5509" fill-opacity="0.8" stroke="#000000" stroke-opacity="0.8" transform="rotate(-80.0,235.0,380.0)">
      <polygon fill="#ffffff" points="-25.0,394.0 -5.0,395.0 11.0,441.0 -25.0,442.0 -19.0,437.0 -16.0,434.0 -13.0,429.0 -11.0,426.0 -10.0,422.0 -10.0,418.0 -10.0,414.0 -11.0,410.0 -13.0,407.0 -16.0,402.0 -19.0,399.0" stroke="#ffffff" stroke-width="1"/>
    </g>
    <g fill="#ffffff" fill-opacity="1.0" stroke="#ffffff" stroke-opacity="1.0" transform="rotate(-80.0,235.0,380.0)">
      <polyline fill="none" points="-93.0,485.0 -91.0,489.0 -95.0,490.0 -134.0,385.0 -23.0,345.0 -22.0,349.0 -26.0,350.0" stroke="#000000" stroke-width="1"/>
      <path d="M-25.0,394.0 C-25.0,394.0 -27.5,390.0 -25.0,394.0 C-22.5,398.0 -10.0,410.0 -10.0,418.0 C-10.0,426.0 -25.0,442.0 -25.0,442.0 " fill="none" stroke="#000000" stroke-width="1"/>
      <polyline fill="none" points="-20.0,366.0 -16.0,365.0 15.0,450.0 -71.0,481.0 -73.0,477.0" stroke="#000000" stroke-width="1"/>
      <polyline fill="none" points="-111.0,447.0 -119.0,450.0 -127.0,428.0 -119.0,425.0" stroke="#000000" stroke-width="1"/>
      <text fill="#000000" font-family="Arial" font-size="8.0" stroke="none" stroke-width="0" transform="rotate(-290.0,-117.0,428.0)" x="-117.0" y="436.0">касса</text>
      <polyline fill="none" points="-37.0,429.0 -108.0,454.0" stroke="#000000" stroke-width="0.5"/>
      <polyline fill="none" points="-32.0,395.0 -35.0,387.0 -58.0,395.0" stroke="#000000" stroke-width="0.5"/>
      <polyline fill="none" points="-84.0,405.0 -89.0,415.0" stroke="#000000" stroke-width="0.5"/>
      <polyline fill="none" points="-79.0,444.0 -81.0,438.0" stroke="#000000" stroke-width="0.5"/>
      <line stroke="#009900" stroke-width="1" x1="-78.0" x2="-84.0" y1="437.0" y2="439.0"/>
      <line stroke="#009900" stroke-width="1" x1="-79.31408249976509" x2="-85.31408249976509" y1="433.22201281317535" y2="435.22201281317535"/>
      <line stroke="#009900" stroke-width="1" x1="-80.62816499953018" x2="-86.62816499953018" y1="429.4440256263507" y2="431.4440256263507"/>
      <line stroke="#009900" stroke-width="1" x1="-81.94224749929528" x2="-87.94224749929528" y1="425.66603843952606" y2="427.66603843952606"/>
      <line stroke="#009900" stroke-width="1" x1="-83.25632999906037" x2="-89.25632999906037" y1="421.8880512527014" y2="423.8880512527014"/>
      <line stroke="#009900" stroke-width="1" x1="-84.57041249882546" x2="-90.57041249882546" y1="418.11006406587677" y2="420.11006406587677"/>
      <line stroke="#009900" stroke-width="1" x1="-85.88449499859055" x2="-91.88449499859055" y1="414.3320768790521" y2="416.3320768790521"/>
      <line stroke="#009900" stroke-width="1" x1="-57.0" x2="-59.0" y1="398.0" y2="392.0"/>
      <line stroke="#009900" stroke-width="1" x1="-60.76696764637935" x2="-62.76696764637935" y1="399.3453455879926" y2="393.3453455879926"/>
      <line stroke="#009900" stroke-width="1" x1="-64.5339352927587" x2="-66.5339352927587" y1="400.6906911759852" y2="394.6906911759852"/>
      <line stroke="#009900" stroke-width="1" x1="-68.30090293913806" x2="-70.30090293913806" y1="402.0360367639778" y2="396.0360367639778"/>
      <line stroke="#009900" stroke-width="1" x1="-72.06787058551741" x2="-74.06787058551741" y1="403.3813823519704" y2="397.3813823519704"/>
      <line stroke="#009900" stroke-width="1" x1="-75.83483823189677" x2="-77.83483823189677" y1="404.726727939963" y2="398.726727939963"/>
      <line stroke="#009900" stroke-width="1" x1="-79.60180587827612" x2="-81.60180587827612" y1="406.0720735279556" y2="400.0720735279556"/>
      <line stroke="#009900" stroke-width="1" x1="-83.36877352465548" x2="-85.36877352465548" y1="407.4174191159482" y2="401.4174191159482"/>
      <polyline fill="none" marker-end="url(#id421)" points="-86.0,475.0 -82.0,485.0" stroke="#ff0000" stroke-width="1"/>
      <polyline fill="none" marker-end="url(#id421)" points="-19.0,357.0 -30.0,361.0" stroke="#009900" stroke-width="1"/>
      <text fill="#00afaf" font-family="Arial" font-size="15.0" stroke="none" stroke-width="0" transform="rotate(160.0,95.0,596.0)" x="95.0" y="611.0">Парголовская улица</text>
      <text fill="#00afaf" font-family="Arial" font-size="15.0" stroke="none" stroke-width="0" transform="rotate(160.0,-18.0,218.0)" x="-18.0" y="233.0">Лесной проспект</text>
      <text fill="#00afaf" font-family="Arial" font-size="15.0" stroke="none" stroke-width="0" transform="rotate(70.0,33.0,228.0)" x="33.0" y="243.0">Кантемировская улица</text>
    </g>
  </g>
</svg>
