<?xml version="1.0" encoding="utf-8" ?>
<svg baseProfile="full" height="100%" version="1.1" width="100%" xmlns="http://www.w3.org/2000/svg" xmlns:ev="http://www.w3.org/2001/xml-events" xmlns:xlink="http://www.w3.org/1999/xlink"><defs><marker id="id483" markerHeight="3" markerUnits="strokeWidth" markerWidth="4" orient="auto" refX="0" refY="5" viewBox="0,0,10,10"><path d="M 0 0 L 10 5 L 0 10 z" /></marker></defs><g transform="scale(0.5) rotate(10.0,425,275)"><rect fill="none" height="550" stroke="none" width="850" x="0" y="0" /><polygon fill="#EA7125" points="349,65 349,35 799,35 799,65" stroke="#000000" stroke-width="1" /><polygon fill="#EA7125" points="349,145 799,145 799,175 349,175" stroke="#000000" stroke-width="1" /><text fill="#EA7125" font-family="Arial" font-size="20" stroke="none" x="350" y="30.0">&lt;&lt; Достоевская</text><text fill="#EA7125" font-family="Arial" font-size="20" stroke="none" x="489" y="195.0">Площадь Александра Невского-II &gt;&gt;</text><text fill="#EA7125" font-family="Arial" font-size="25" stroke="none" x="437" y="111.0">Лиговский Проспект</text><polyline fill="none" points="799,65 799,80 759,80 759,84 756,84 756,127 759,127 759,131 799,131 799,145" stroke="#000000" stroke-width="1" /><polyline fill="none" points="349,65 349,82" stroke="#000000" stroke-width="1" /><polyline fill="none" points="349,145 349,130" stroke="#000000" stroke-width="1" /><line stroke="#7F7F7F" stroke-width="1" x1="281" x2="245" y1="287" y2="274" /><line stroke="#7F7F7F" stroke-width="1" x1="279.611964473" x2="243.611964473" y1="290.751447371" y2="277.751447371" /><line stroke="#7F7F7F" stroke-width="1" x1="278.223928946" x2="242.223928946" y1="294.502894741" y2="281.502894741" /><line stroke="#7F7F7F" stroke-width="1" x1="276.835893418" x2="240.835893418" y1="298.254342112" y2="285.254342112" /><line stroke="#7F7F7F" stroke-width="1" x1="275.447857891" x2="239.447857891" y1="302.005789483" y2="289.005789483" /><line stroke="#7F7F7F" stroke-width="1" x1="274.059822364" x2="238.059822364" y1="305.757236854" y2="292.757236854" /><line stroke="#7F7F7F" stroke-width="1" x1="272.671786837" x2="236.671786837" y1="309.508684224" y2="296.508684224" /><line stroke="#7F7F7F" stroke-width="1" x1="271.28375131" x2="235.28375131" y1="313.260131595" y2="300.260131595" /><line stroke="#7F7F7F" stroke-width="1" x1="269.895715783" x2="233.895715783" y1="317.011578966" y2="304.011578966" /><line stroke="#7F7F7F" stroke-width="1" x1="268.507680255" x2="232.507680255" y1="320.763026337" y2="307.763026337" /><line stroke="#7F7F7F" stroke-width="1" x1="267.119644728" x2="231.119644728" y1="324.514473707" y2="311.514473707" /><line stroke="#7F7F7F" stroke-width="1" x1="265.731609201" x2="229.731609201" y1="328.265921078" y2="315.265921078" /><line stroke="#7F7F7F" stroke-width="1" x1="264.343573674" x2="228.343573674" y1="332.017368449" y2="319.017368449" /><line stroke="#7F7F7F" stroke-width="1" x1="262.955538147" x2="226.955538147" y1="335.768815819" y2="322.768815819" /><line stroke="#7F7F7F" stroke-width="1" x1="261.56750262" x2="225.56750262" y1="339.52026319" y2="326.52026319" /><line stroke="#7F7F7F" stroke-width="1" x1="260.179467092" x2="224.179467092" y1="343.271710561" y2="330.271710561" /><line stroke="#7F7F7F" stroke-width="1" x1="258.791431565" x2="222.791431565" y1="347.023157932" y2="334.023157932" /><line stroke="#7F7F7F" stroke-width="1" x1="257.403396038" x2="221.403396038" y1="350.774605302" y2="337.774605302" /><line stroke="#7F7F7F" stroke-width="1" x1="256.015360511" x2="220.015360511" y1="354.526052673" y2="341.526052673" /><line stroke="#7F7F7F" stroke-width="1" x1="254.627324984" x2="218.627324984" y1="358.277500044" y2="345.277500044" /><line stroke="#7F7F7F" stroke-width="1" x1="253.239289457" x2="217.239289457" y1="362.028947414" y2="349.028947414" /><line stroke="#7F7F7F" stroke-width="1" x1="251.851253929" x2="215.851253929" y1="365.780394785" y2="352.780394785" /><line stroke="#7F7F7F" stroke-width="1" x1="250.463218402" x2="214.463218402" y1="369.531842156" y2="356.531842156" /><line stroke="#7F7F7F" stroke-width="1" x1="249.075182875" x2="213.075182875" y1="373.283289527" y2="360.283289527" /><line stroke="#7F7F7F" stroke-width="1" x1="247.687147348" x2="211.687147348" y1="377.034736897" y2="364.034736897" /><line stroke="#7F7F7F" stroke-width="1" x1="246.299111821" x2="210.299111821" y1="380.786184268" y2="367.786184268" /><line stroke="#7F7F7F" stroke-width="1" x1="244.911076294" x2="208.911076294" y1="384.537631639" y2="371.537631639" /><polygon fill="#9B5509" points="249,266 208,378 205,377 246,265" stroke="#000000" stroke-width="1" /><polygon fill="#9B5509" points="257,269 262,271 221,383 216,381" stroke="#000000" stroke-width="1" /><polygon fill="#9B5509" points="270,274 275,276 234,388 229,386" stroke="#000000" stroke-width="1" /><polygon fill="#9B5509" points="283,279 242,391 245,392 286,280" stroke="#000000" stroke-width="1" /><g fill="#9B5509" fill-opacity="0.8" stroke="#000000" stroke-opacity="0.8"><polygon fill="#FFFFFF" points="228,313 266,335 255,368 253,361 251,354 248,349 245,345 240,343 236,342 230,343 224,345 218,349 213,353" stroke="#FFFFFF" stroke-width="1" /></g><g fill="#FFFFFF" fill-opacity="1.0" stroke="#FFFFFF" stroke-opacity="1.0"><path d="M214,353 C214,353 209.666666667,354.666666667 214,353 C218.333333333,351.333333333 233.333333333,340.666666667 240,343 C246.666666667,345.333333333 254,367 254,367 " fill="none" stroke="#000000" stroke-width="1" /><polygon fill="#FFFFFF" points="271,272 274,264 279,266 276,274" stroke="#000000" stroke-width="1" /><polygon fill="#FFFFFF" points="251,439 254,433 262,437 259,443" stroke="#000000" stroke-width="1" /><polyline fill="none" points="282,289 285,290 292,271 287,269 292,255 300,258 319,206 319,130 361,130" stroke="#000000" stroke-width="1" /><polyline fill="none" points="361,82 313,82 313,76 260,76 260,82 255,82 255,130 260,130 260,200 246,239 257,243 252,257 247,255 240,274 243,275" stroke="#000000" stroke-width="1" /><polyline fill="none" points="117,392 113,390 100,413 141,437 131,454 135,456" stroke="#000000" stroke-width="1" /><polyline fill="none" points="120,482 116,480 104,501 198,556 311,360 191,291 165,336 150,327 138,347 144,351 139,360 133,356 126,368 130,370" stroke="#000000" stroke-width="1" /><line stroke="#000000" stroke-width="1" x1="359" x2="359" y1="82" y2="130" /><line stroke="#000000" stroke-width="1" x1="355" x2="355" y1="82" y2="130" /><line stroke="#000000" stroke-width="1" x1="351" x2="351" y1="82" y2="130" /><line stroke="#000000" stroke-width="1" x1="347" x2="347" y1="82" y2="130" /><line stroke="#000000" stroke-width="1" x1="343" x2="343" y1="82" y2="130" /><line stroke="#000000" stroke-width="1" x1="339" x2="339" y1="82" y2="130" /><line stroke="#000000" stroke-width="1" x1="335" x2="335" y1="82" y2="130" /><line stroke="#000000" stroke-width="1" x1="331" x2="331" y1="82" y2="130" /><line stroke="#000000" stroke-width="1" x1="327" x2="327" y1="82" y2="130" /><line stroke="#000000" stroke-width="1" x1="323" x2="323" y1="82" y2="130" /><polyline fill="none" points="260,447 194,452 146,425 144,351" stroke="#000000" stroke-width="1" /><polyline fill="none" points="258,451 193,456 142,427 140,357" stroke="#000000" stroke-width="1" /><polyline fill="none" points="256,455 192,460 138,429 136,358" stroke="#000000" stroke-width="1" /><polygon fill="#CCCCCC" points="184,458 190,447 198,452 192,463" stroke="#000000" stroke-width="1" /><polyline fill="none" points="218,382 195,407 141,437" stroke="#000000" stroke-width="0.5" /><polyline fill="none" points="199,409 195,407" stroke="#000000" stroke-width="0.5" /><line stroke="#009900" stroke-width="1" x1="248" x2="250" y1="436" y2="432" /><line stroke="#009900" stroke-width="1" x1="244.422291236" x2="246.422291236" y1="434.211145618" y2="430.211145618" /><line stroke="#009900" stroke-width="1" x1="240.844582472" x2="242.844582472" y1="432.422291236" y2="428.422291236" /><line stroke="#009900" stroke-width="1" x1="237.266873708" x2="239.266873708" y1="430.633436854" y2="426.633436854" /><line stroke="#009900" stroke-width="1" x1="233.689164944" x2="235.689164944" y1="428.844582472" y2="424.844582472" /><line stroke="#009900" stroke-width="1" x1="230.11145618" x2="232.11145618" y1="427.05572809" y2="423.05572809" /><line stroke="#009900" stroke-width="1" x1="226.533747416" x2="228.533747416" y1="425.266873708" y2="421.266873708" /><line stroke="#009900" stroke-width="1" x1="222.956038652" x2="224.956038652" y1="423.478019326" y2="419.478019326" /><line stroke="#009900" stroke-width="1" x1="219.378329888" x2="221.378329888" y1="421.689164944" y2="417.689164944" /><line stroke="#009900" stroke-width="1" x1="215.800621124" x2="217.800621124" y1="419.900310562" y2="415.900310562" /><line stroke="#009900" stroke-width="1" x1="212.22291236" x2="214.22291236" y1="418.11145618" y2="414.11145618" /><line stroke="#009900" stroke-width="1" x1="208.645203596" x2="210.645203596" y1="416.322601798" y2="412.322601798" /><line stroke="#009900" stroke-width="1" x1="205.067494832" x2="207.067494832" y1="414.533747416" y2="410.533747416" /><line stroke="#009900" stroke-width="1" x1="201.489786068" x2="203.489786068" y1="412.744893034" y2="408.744893034" /><line stroke="#009900" stroke-width="1" x1="197.912077304" x2="199.912077304" y1="410.956038652" y2="406.956038652" /><polyline fill="none" marker-end="url(#id483)" points="131,386 117,378" stroke="#FF0000" stroke-width="1" /><polyline fill="none" marker-end="url(#id483)" points="124,466 138,474" stroke="#009900" stroke-width="1" /><text fill="#00AFAF" font-family="Arial" font-size="16" stroke="none" x="61" y="269.0">Транспортный переулок</text><text fill="#00AFAF" font-family="Arial" font-size="18" stroke="none" transform="rotate(-90.0,43,482)" x="43" y="500.0">Лиговский  проспект</text></g></g></svg>