<?xml version="1.0" encoding="utf-8" ?>
<svg baseProfile="full" height="100%" version="1.1" width="100%" xmlns="http://www.w3.org/2000/svg" xmlns:ev="http://www.w3.org/2001/xml-events" xmlns:xlink="http://www.w3.org/1999/xlink"><defs><marker id="id484" markerHeight="3" markerUnits="strokeWidth" markerWidth="4" orient="auto" refX="0" refY="5" viewBox="0,0,10,10"><path d="M 0 0 L 10 5 L 0 10 z" /></marker></defs><g transform="scale(0.5) rotate(60.0,310,385)"><rect fill="none" height="770" stroke="none" width="620" x="0" y="0" /><polygon fill="#009a49" points="-95,386 -95,356 355,356 355,386" stroke="#000000" stroke-width="1" /><polygon fill="#009a49" points="-95,466 -95,496 355,496 355,466" stroke="#000000" stroke-width="1" /><text fill="#009a49" font-family="Arial" font-size="20" stroke="none" x="-95" y="352.0">&lt;&lt; Елизаровская</text><text fill="#009a49" font-family="Arial" font-size="20" stroke="none" x="212" y="516.0">Пролетарская &gt;&gt;</text><text fill="#009a49" font-family="Arial" font-size="25" stroke="none" x="59" y="436.0">Ломоносовская</text><polyline fill="none" points="408,407 408,404 355,404 355,389 343,389 343,390 330,390 330,388 325,388 325,390 313,390 313,388 308,388 308,390 296,390 296,388 291,388 291,390 279,390 279,388 274,388 274,390 262,390 262,388 257,388 257,390 245,390 245,388 240,388 240,390 228,390 228,388 223,388 223,390 211,390 211,388 206,388 206,390 194,390 194,388 189,388 189,390 177,390 177,388 172,388 172,390 160,390 160,388 155,388 155,390 143,390 143,388 138,388 138,390 126,390 126,388 121,388 121,390 109,390 109,388 104,388 104,390 92,390 92,388 87,388 87,390 75,390 75,388 70,388 70,390 58,390 58,388 53,388 53,390 41,390 41,388 36,388 36,390 24,390 24,388 19,388 19,390 7,390 7,388 2,388 2,390 -10,390 -10,388 -15,388 -15,390 -27,390 -27,388 -32,388 -32,390 -44,390 -44,388 -49,388 -49,390 -61,390 -61,388 -66,388 -66,390 -79,390 -79,389 -95,389" stroke="#000000" stroke-width="1" /><polyline fill="none" points="408,447 408,450 355,450 355,463 343,463 343,462 330,462 330,464 325,464 325,462 313,462 313,464 308,464 308,462 296,462 296,464 291,464 291,462 279,462 279,464 274,464 274,462 262,462 262,464 257,464 257,462 245,462 245,464 240,464 240,462 228,462 228,464 223,464 223,462 211,462 211,464 206,464 206,462 194,462 194,464 189,464 189,462 177,462 177,464 172,464 172,462 160,462 160,464 155,464 155,462 143,462 143,464 138,464 138,462 126,462 126,464 121,464 121,462 109,462 109,464 104,464 104,462 92,462 92,464 87,464 87,462 75,462 75,464 70,464 70,462 58,462 58,464 53,464 53,462 41,462 41,464 36,464 36,462 24,462 24,464 19,464 19,462 7,462 7,464 2,464 2,462 -10,462 -10,464 -15,464 -15,462 -27,462 -27,464 -32,464 -32,462 -44,462 -44,464 -49,464 -49,462 -61,462 -61,464 -66,464 -66,462 -79,462 -79,463 -95,463 -95,450 -99,442 -99,409 -95,401 -95,389" stroke="#000000" stroke-width="1" /><line stroke="#7F7F7F" stroke-width="1" x1="530" x2="530" y1="444" y2="410" /><line stroke="#7F7F7F" stroke-width="1" x1="526" x2="526" y1="444" y2="410" /><line stroke="#7F7F7F" stroke-width="1" x1="522" x2="522" y1="444" y2="410" /><line stroke="#7F7F7F" stroke-width="1" x1="518" x2="518" y1="444" y2="410" /><line stroke="#7F7F7F" stroke-width="1" x1="514" x2="514" y1="444" y2="410" /><line stroke="#7F7F7F" stroke-width="1" x1="510" x2="510" y1="444" y2="410" /><line stroke="#7F7F7F" stroke-width="1" x1="506" x2="506" y1="444" y2="410" /><line stroke="#7F7F7F" stroke-width="1" x1="502" x2="502" y1="444" y2="410" /><line stroke="#7F7F7F" stroke-width="1" x1="498" x2="498" y1="444" y2="410" /><line stroke="#7F7F7F" stroke-width="1" x1="494" x2="494" y1="444" y2="410" /><line stroke="#7F7F7F" stroke-width="1" x1="490" x2="490" y1="444" y2="410" /><line stroke="#7F7F7F" stroke-width="1" x1="486" x2="486" y1="444" y2="410" /><line stroke="#7F7F7F" stroke-width="1" x1="482" x2="482" y1="444" y2="410" /><line stroke="#7F7F7F" stroke-width="1" x1="478" x2="478" y1="444" y2="410" /><line stroke="#7F7F7F" stroke-width="1" x1="474" x2="474" y1="444" y2="410" /><line stroke="#7F7F7F" stroke-width="1" x1="470" x2="470" y1="444" y2="410" /><line stroke="#7F7F7F" stroke-width="1" x1="466" x2="466" y1="444" y2="410" /><line stroke="#7F7F7F" stroke-width="1" x1="462" x2="462" y1="444" y2="410" /><line stroke="#7F7F7F" stroke-width="1" x1="458" x2="458" y1="444" y2="410" /><line stroke="#7F7F7F" stroke-width="1" x1="454" x2="454" y1="444" y2="410" /><line stroke="#7F7F7F" stroke-width="1" x1="450" x2="450" y1="444" y2="410" /><line stroke="#7F7F7F" stroke-width="1" x1="446" x2="446" y1="444" y2="410" /><line stroke="#7F7F7F" stroke-width="1" x1="442" x2="442" y1="444" y2="410" /><line stroke="#7F7F7F" stroke-width="1" x1="438" x2="438" y1="444" y2="410" /><line stroke="#7F7F7F" stroke-width="1" x1="434" x2="434" y1="444" y2="410" /><line stroke="#7F7F7F" stroke-width="1" x1="430" x2="430" y1="444" y2="410" /><line stroke="#7F7F7F" stroke-width="1" x1="426" x2="426" y1="444" y2="410" /><line stroke="#7F7F7F" stroke-width="1" x1="422" x2="422" y1="444" y2="410" /><line stroke="#7F7F7F" stroke-width="1" x1="418" x2="418" y1="444" y2="410" /><line stroke="#7F7F7F" stroke-width="1" x1="414" x2="414" y1="444" y2="410" /><line stroke="#7F7F7F" stroke-width="1" x1="410" x2="410" y1="444" y2="410" /><line stroke="#7F7F7F" stroke-width="1" x1="406" x2="406" y1="444" y2="410" /><polygon fill="#9B5509" points="537,410 399,410 399,407 537,407" stroke="#000000" stroke-width="1" /><polygon fill="#9B5509" points="537,418 537,423 399,423 399,418" stroke="#000000" stroke-width="1" /><polygon fill="#9B5509" points="537,431 537,436 399,436 399,431" stroke="#000000" stroke-width="1" /><polygon fill="#9B5509" points="537,444 399,444 399,447 537,447" stroke="#000000" stroke-width="1" /><path d="M520,407 C520,407 516.833333333,412.166666667 520,407 C523.166666667,401.833333333 530.333333333,383.833333333 539,376 C547.666666667,368.166666667 572,360 572,360 " fill="none" stroke="#000000" stroke-width="1" /><polyline fill="none" points="572,360 572,330 515,330 515,273 572,273 572,277" stroke="#000000" stroke-width="1" /><polyline fill="none" points="598,277 598,273 656,273 656,330 598,330 598,360" stroke="#000000" stroke-width="1" /><path d="M598,360 C598,360 593.666666667,358.0 598,360 C602.333333333,362.0 617.0,367.166666667 624,372 C631.0,376.833333333 635.666666667,382.333333333 640,389 C644.333333333,395.666666667 650,412 650,412 " fill="none" stroke="#000000" stroke-width="1" /><polyline fill="none" points="650,412 680,412 680,408 709,408" stroke="#000000" stroke-width="1" /><polyline fill="none" points="709,443 681,443 681,439 650,439" stroke="#000000" stroke-width="1" /><path d="M650,439 C650,439 652.333333333,434.166666667 650,439 C647.666666667,443.833333333 642.333333333,460.0 636,468 C629.666666667,476.0 621.333333333,482.833333333 612,487 C602.666666667,491.166666667 590.0,493.333333333 580,493 C570.0,492.666666667 560.0,489.166666667 552,485 C544.0,480.833333333 537.333333333,474.333333333 532,468 C526.666666667,461.666666667 520,447 520,447 " fill="none" stroke="#000000" stroke-width="1" /><polyline fill="none" points="649,408 537,431" stroke="#000000" stroke-width="0.5" /><polyline fill="none" points="563,362 570,369" stroke="#000000" stroke-width="0.5" /><polyline fill="none" points="617,415 608,406" stroke="#000000" stroke-width="0.5" /><line stroke="#009900" stroke-width="1" x1="568" x2="572" y1="371" y2="367" /><line stroke="#009900" stroke-width="1" x1="570.865884752" x2="574.865884752" y1="373.790466733" y2="369.790466733" /><line stroke="#009900" stroke-width="1" x1="573.731769505" x2="577.731769505" y1="376.580933465" y2="372.580933465" /><line stroke="#009900" stroke-width="1" x1="576.597654257" x2="580.597654257" y1="379.371400198" y2="375.371400198" /><line stroke="#009900" stroke-width="1" x1="579.46353901" x2="583.46353901" y1="382.16186693" y2="378.16186693" /><line stroke="#009900" stroke-width="1" x1="582.329423762" x2="586.329423762" y1="384.952333663" y2="380.952333663" /><line stroke="#009900" stroke-width="1" x1="585.195308515" x2="589.195308515" y1="387.742800396" y2="383.742800396" /><line stroke="#009900" stroke-width="1" x1="588.061193267" x2="592.061193267" y1="390.533267128" y2="386.533267128" /><line stroke="#009900" stroke-width="1" x1="590.927078019" x2="594.927078019" y1="393.323733861" y2="389.323733861" /><line stroke="#009900" stroke-width="1" x1="593.792962772" x2="597.792962772" y1="396.114200594" y2="392.114200594" /><line stroke="#009900" stroke-width="1" x1="596.658847524" x2="600.658847524" y1="398.904667326" y2="394.904667326" /><line stroke="#009900" stroke-width="1" x1="599.524732277" x2="603.524732277" y1="401.695134059" y2="397.695134059" /><line stroke="#009900" stroke-width="1" x1="602.390617029" x2="606.390617029" y1="404.485600791" y2="400.485600791" /><line stroke="#009900" stroke-width="1" x1="605.256501781" x2="609.256501781" y1="407.276067524" y2="403.276067524" /><polyline fill="none" points="643,330 643,339 608,339 608,330" stroke="#000000" stroke-width="1" /><text fill="#000000" font-family="Arial" font-size="10" stroke="none" x="613" y="338.0">кассы</text><polyline fill="none" marker-end="url(#id484)" points="680,425 697,425" stroke="#FF0000" stroke-width="1" /><polyline fill="none" marker-end="url(#id484)" points="586,273 586,289" stroke="#009900" stroke-width="1" /><text fill="#00AFAF" font-family="Arial" font-size="15" stroke="none" x="467" y="220.0">улица Бабушкина</text></g></svg>