<svg xmlns="http://www.w3.org/2000/svg" version="1.1">
<defs>
    <marker id="arrow"
      viewBox="0 0 10 10" refX="0" refY="5"
      markerUnits="strokeWidth"
      markerWidth="4" markerHeight="3"
      orient="auto">
      <path d="M 0 0 L 10 5 L 0 10 z" />
    </marker>
  </defs>
<g stroke="#000000" fill="none" stroke-opacity="1.0" fill-opacity="1.0" transform="scale(0.5)">
<rect x="0" y="0" width="850" height="960" stroke-width="0" fill="none" />
<g stroke="#000000" fill="none" stroke-opacity="1.0" fill-opacity="1.0" transform="scale(0.5)">
</g>
<g stroke="#151694" fill="#151694" stroke-opacity="1.0" fill-opacity="1.0" transform="scale(0.5)">
<polygon points="0,0  850,0  850,42  0,42" stroke-width="1" />
</g>
<g stroke="#FFFFFF" fill="none" stroke-opacity="1.0" fill-opacity="1.0" transform="scale(0.5)">
<text x=" 138" y="36.0" font-family="Arial" font-size=" 30" fill="#FFFFFF" stroke-width="0">Схема линий Петербургского метрополитена</text>
</g>
<g stroke="#B1DFF7" fill="#B1DFF7" stroke-opacity="1.0" fill-opacity="1.0" transform="scale(0.5)">
<polyline points="656,961  662,934  657,885  645,851  645,811  649,761  641,668  641,577  642,510  639,448  644,419  652,395  653,379  648,367  636,357  609,349  576,350  531,361  494,364  445,361  418,354  413,336  417,323  418,304  409,283  393,273  371,269  340,256  289,243  253,241  221,243  166,241  102,240  49,241  0,244" stroke-width=" 3" fill="none"/> <!-- spline -->
<polyline points="0,571  33,543  77,499  104,479  138,467  177,455  226,427  276,408  324,397  372,388  426,379  469,376  510,378  555,368  584,358  610,362  627,375  632,384  630,395  623,421  619,455  621,492  617,554  618,680  624,760  624,808  619,838  625,866  634,885  641,924  637,961" stroke-width=" 3" fill="none"/> <!-- spline -->
<polygon points="656,961  662,934  657,885  645,851  645,811  649,761  641,668  641,577  642,510  639,448  644,419  652,395  653,379  648,367  636,357  609,349  576,350  531,361  494,364  445,361  418,354  413,336  417,323  418,304  409,283  393,273  371,269  340,256  289,243  253,241  221,243  166,241  102,240  49,241  0,244  0,571  33,543  77,499  104,479  138,467  177,455  226,427  276,408  324,397  372,388  426,379  469,376  510,378  555,368  584,358  610,362  627,375  632,384  630,395  623,421  619,455  621,492  617,554  618,680  624,760  624,808  619,838  625,866  634,885  641,924  637,961" stroke-width="1" />
</g>
<g stroke="#FFFFFF" fill="#FFFFFF" stroke-opacity="1.0" fill-opacity="1.0" transform="scale(0.5)">
<polyline points="-1,541  23,522  42,499  65,478  96,460  135,448  181,429  212,415  224,408  233,401  231,394  223,391  197,383  154,366  116,341  74,321  38,309  0,302" stroke-width=" 3" fill="none"/> <!-- spline -->
<polygon points="-1,541  23,522  42,499  65,478  96,460  135,448  181,429  212,415  224,408  233,401  231,394  223,391  197,383  154,366  116,341  74,321  38,309  0,302" stroke-width="1" />
<polyline points="293,375  279,374  270,370  267,366  272,361  282,355  294,353  304,354  312,358  314,362  313,366  309,367  304,367  300,370  297,374  293,375" stroke-width=" 2" fill="none"/> <!-- spline -->
<polygon points="293,375  279,374  270,370  267,366  272,361  282,355  294,353  304,354  312,358  314,362  313,366  309,367  304,367  300,370  297,374" stroke-width="1" />
<polyline points="222,248  188,246  143,244  103,243  87,243  75,244  66,244  63,245  67,246  78,247  99,250  116,252  136,255  159,256  180,255  200,254  213,252  222,248" stroke-width=" 3" fill="none"/> <!-- spline -->
<polygon points="222,248  188,246  143,244  103,243  87,243  75,244  66,244  63,245  67,246  78,247  99,250  116,252  136,255  159,256  180,255  200,254  213,252" stroke-width="1" />
<polyline points="-1,251  23,249  50,250  82,255  109,261  139,264  175,263  208,262  222,259  229,254  233,248  246,245  268,245  293,248  317,253  334,260  340,264  341,266  337,269  318,271  296,273  276,275  265,277  256,280  250,286  242,291  222,296  197,296  157,295  115,292  75,287  38,283  0,284" stroke-width=" 3" fill="none"/> <!-- spline -->
<polygon points="-1,251  23,249  50,250  82,255  109,261  139,264  175,263  208,262  222,259  229,254  233,248  246,245  268,245  293,248  317,253  334,260  340,264  341,266  337,269  318,271  296,273  276,275  265,277  256,280  250,286  242,291  222,296  197,296  157,295  115,292  75,287  38,283  0,284" stroke-width="1" />
<polyline points="396,356  392,345  396,330  399,311  396,292  380,278  353,277  316,280  291,282  273,284  264,287  256,294  241,302  214,305  177,307  142,307  116,306  96,301  79,299  72,298  68,298  67,301  69,304  77,306  94,310  116,318  138,331  168,352  200,366  224,370  251,362  264,356  280,349  301,346  312,350  320,354  325,361  328,364  334,364  344,363  371,359  396,356" stroke-width=" 3" fill="none"/> <!-- spline -->
<polygon points="396,356  392,345  396,330  399,311  396,292  380,278  353,277  316,280  291,282  273,284  264,287  256,294  241,302  214,305  177,307  142,307  116,306  96,301  79,299  72,298  68,298  67,301  69,304  77,306  94,310  116,318  138,331  168,352  200,366  224,370  251,362  264,356  280,349  301,346  312,350  320,354  325,361  328,364  334,364  344,363  371,359" stroke-width="1" />
</g>
<g stroke="#B1DFF7" fill="#B1DFF7" stroke-opacity="1.0" fill-opacity="1.0" transform="scale(0.5)">
<polyline points="263,280  252,271  240,263  224,255" stroke-width=" 2" fill="none"/> <!-- spline -->
</g>
<g stroke="#0033CC" fill="none" stroke-opacity="1.0" fill-opacity="1.0" transform="scale(0.5)">
<text x=" 156" y="730.0" font-family="Arial" font-size=" 9" fill="#0033CC" stroke-width="0">Балтийский вокзал</text>
<text x=" 497" y="585.0" font-family="Arial" font-size=" 9" fill="#0033CC" stroke-width="0">Витебский вокзал</text>
<text x=" 600" y="423.0" font-family="Arial" font-size=" 9" fill="#0033CC" stroke-width="0">Московский вокзал</text>
<text x=" 714" y="621.0" font-family="Arial" font-size=" 9" fill="#0033CC" stroke-width="0">Ладожский вокзал</text>
<text x=" 582" y="343.0" font-family="Arial" font-size=" 9" fill="#0033CC" stroke-width="0">Финляндский вокзал</text>
<text x=" 680" y="440.0" font-family="Arial" font-size=" 9" fill="#0033CC" stroke-width="0">Схема движения до</text>
<text x=" 680" y="448.0" font-family="Arial" font-size=" 9" fill="#0033CC" stroke-width="0">Новгорода и Пскова</text>
</g>
<g stroke="#D6083B" fill="#D6083B" stroke-opacity="1.0" fill-opacity="1.0" transform="scale(0.5)">
<polygon points="656,70  668,70  668,82  656,82" stroke-width="1" />
</g>
<g stroke="#D6083B" fill="none" stroke-opacity="1.0" fill-opacity="1.0" transform="scale(0.5)">
<text x=" 672" y="83.0" font-family="Arial" font-size=" 14" fill="#D6083B" stroke-width="0">Кировско-Выборгская линия</text>
</g>
<g stroke="#FFFFFF" fill="none" stroke-opacity="1.0" fill-opacity="1.0" transform="scale(0.5)">
<text x=" 659" y="83.0" font-family="Arial" font-size=" 14" fill="#FFFFFF" stroke-width="0">1</text>
</g>
<g stroke="#0078C9" fill="#0078C9" stroke-opacity="1.0" fill-opacity="1.0" transform="scale(0.5)">
<polygon points="656,93  668,93  668,105  656,105" stroke-width="1" />
</g>
<g stroke="#0078C9" fill="none" stroke-opacity="1.0" fill-opacity="1.0" transform="scale(0.5)">
<text x=" 672" y="106.0" font-family="Arial" font-size=" 14" fill="#0078C9" stroke-width="0">Московско-Петроградская линия</text>
</g>
<g stroke="#FFFFFF" fill="none" stroke-opacity="1.0" fill-opacity="1.0" transform="scale(0.5)">
<text x=" 659" y="106.0" font-family="Arial" font-size=" 14" fill="#FFFFFF" stroke-width="0">2</text>
</g>
<g stroke="#009A49" fill="#009A49" stroke-opacity="1.0" fill-opacity="1.0" transform="scale(0.5)">
<polygon points="656,116  668,116  668,128  656,128" stroke-width="1" />
</g>
<g stroke="#009A49" fill="none" stroke-opacity="1.0" fill-opacity="1.0" transform="scale(0.5)">
<text x=" 672" y="129.0" font-family="Arial" font-size=" 14" fill="#009A49" stroke-width="0">Невско-Василеостровская линия</text>
</g>
<g stroke="#FFFFFF" fill="none" stroke-opacity="1.0" fill-opacity="1.0" transform="scale(0.5)">
<text x=" 659" y="129.0" font-family="Arial" font-size=" 14" fill="#FFFFFF" stroke-width="0">3</text>
</g>
<g stroke="#EA7125" fill="#EA7125" stroke-opacity="1.0" fill-opacity="1.0" transform="scale(0.5)">
<polygon points="656,139  668,139  668,151  656,151" stroke-width="1" />
</g>
<g stroke="#EA7125" fill="none" stroke-opacity="1.0" fill-opacity="1.0" transform="scale(0.5)">
<text x=" 672" y="152.0" font-family="Arial" font-size=" 14" fill="#EA7125" stroke-width="0">Правобережная линия</text>
</g>
<g stroke="#FFFFFF" fill="none" stroke-opacity="1.0" fill-opacity="1.0" transform="scale(0.5)">
<text x=" 659" y="152.0" font-family="Arial" font-size=" 14" fill="#FFFFFF" stroke-width="0">4</text>
</g>
<g stroke="#702785" fill="#702785" stroke-opacity="1.0" fill-opacity="1.0" transform="scale(0.5)">
<polygon points="656,162  668,162  668,174  656,174" stroke-width="1" />
</g>
<g stroke="#702785" fill="none" stroke-opacity="1.0" fill-opacity="1.0" transform="scale(0.5)">
<text x=" 672" y="175.0" font-family="Arial" font-size=" 14" fill="#702785" stroke-width="0">Фрунзенско-Приморская линия</text>
</g>
<g stroke="#FFFFFF" fill="none" stroke-opacity="1.0" fill-opacity="1.0" transform="scale(0.5)">
<text x=" 659" y="175.0" font-family="Arial" font-size=" 14" fill="#FFFFFF" stroke-width="0">5</text>
</g>
<g stroke="#8D5B2D" fill="#8D5B2D" stroke-opacity="1.0" fill-opacity="1.0" transform="scale(0.5)">
<polygon points="656,185  668,185  668,197  656,197" stroke-width="1" />
</g>
<g stroke="#8D5B2D" fill="none" stroke-opacity="1.0" fill-opacity="1.0" transform="scale(0.5)">
<text x=" 672" y="198.0" font-family="Arial" font-size=" 14" fill="#8D5B2D" stroke-width="0">Красносельско-Калининская линия</text>
</g>
<g stroke="#FFFFFF" fill="none" stroke-opacity="1.0" fill-opacity="1.0" transform="scale(0.5)">
<text x=" 659" y="198.0" font-family="Arial" font-size=" 14" fill="#FFFFFF" stroke-width="0">6</text>
</g>
<g stroke="#FFFFFF" fill="none" stroke-opacity="1.0" fill-opacity="1.0" transform="scale(0.5)">
<text x=" 428" y="103.0" font-family="Arial" font-size=" 25" fill="#FFFFFF" stroke-width="0">1</text>
</g>
<g stroke="#FFFFFF" fill="none" stroke-opacity="1.0" fill-opacity="1.0" transform="scale(0.5)">
<text x=" 130" y="921.0" font-family="Arial" font-size=" 25" fill="#FFFFFF" stroke-width="0">1</text>
</g>
<g stroke="#FFFFFF" fill="none" stroke-opacity="1.0" fill-opacity="1.0" transform="scale(0.5)">
<text x=" 343" y="82.0" font-family="Arial" font-size=" 25" fill="#FFFFFF" stroke-width="0">2</text>
</g>
<g stroke="#FFFFFF" fill="none" stroke-opacity="1.0" fill-opacity="1.0" transform="scale(0.5)">
<text x=" 295" y="942.0" font-family="Arial" font-size=" 25" fill="#FFFFFF" stroke-width="0">2</text>
</g>
<g stroke="#FFFFFF" fill="none" stroke-opacity="1.0" fill-opacity="1.0" transform="scale(0.5)">
<text x=" 37" y="387.0" font-family="Arial" font-size=" 25" fill="#FFFFFF" stroke-width="0">3</text>
</g>
<g stroke="#FFFFFF" fill="none" stroke-opacity="1.0" fill-opacity="1.0" transform="scale(0.5)">
<text x=" 578" y="942.0" font-family="Arial" font-size=" 25" fill="#FFFFFF" stroke-width="0">3</text>
</g>
<g stroke="#FFFFFF" fill="none" stroke-opacity="1.0" fill-opacity="1.0" transform="scale(0.5)">
<text x=" 672" y="744.0" font-family="Arial" font-size=" 25" fill="#FFFFFF" stroke-width="0">4</text>
</g>
<g stroke="#FFFFFF" fill="none" stroke-opacity="1.0" fill-opacity="1.0" transform="scale(0.5)">
<text x=" 231" y="539.0" font-family="Arial" font-size=" 25" fill="#FFFFFF" stroke-width="0">4</text>
</g>
<g stroke="#FFFFFF" fill="none" stroke-opacity="1.0" fill-opacity="1.0" transform="scale(0.5)">
<text x=" 210" y="201.0" font-family="Arial" font-size=" 25" fill="#FFFFFF" stroke-width="0">5</text>
</g>
<g stroke="#FFFFFF" fill="none" stroke-opacity="1.0" fill-opacity="1.0" transform="scale(0.5)">
<text x=" 449" y="916.0" font-family="Arial" font-size=" 25" fill="#FFFFFF" stroke-width="0">5</text>
</g>
<g stroke="#FFFFFF" fill="none" stroke-opacity="1.0" fill-opacity="1.0" transform="scale(0.5)">
<text x=" 64" y="883.0" font-family="Arial" font-size=" 25" fill="#FFFFFF" stroke-width="0">6</text>
</g>
</g>
</svg>
