<?xml version="1.0" encoding="utf-8" ?>
<svg baseProfile="full" height="100%" version="1.1" width="100%" xmlns="http://www.w3.org/2000/svg" xmlns:ev="http://www.w3.org/2001/xml-events" xmlns:xlink="http://www.w3.org/1999/xlink"><defs><marker id="id35" markerHeight="3" markerUnits="strokeWidth" markerWidth="4" orient="auto" refX="0" refY="5" viewBox="0,0,10,10"><path d="M 0 0 L 10 5 L 0 10 z" /></marker></defs><g transform="rotate(-90.0,210,325)"><rect fill="none" height="650" stroke="none" stroke-width="0" width="420" x="0" y="0" /><polygon fill="#0078c9" points="523,304 523,274 73,274 73,304" stroke="#000000" stroke-width="1" /><polygon fill="#0078c9" points="523,414 523,384 73,384 73,414" stroke="#000000" stroke-width="1" /><text fill="#0078c9" font-family="Arial" font-size="20" stroke="none" stroke-width="0" x="390" y="434.0">Фрунзенская &gt;&gt;</text><text fill="#0078c9" font-family="Arial" font-size="20" stroke="none" stroke-width="0" x="75" y="271.0">&lt;&lt; Электросила</text><text fill="#0078c9" font-family="Arial" font-size="25" stroke="none" stroke-width="0" x="198" y="345.0">Московские</text><text fill="#0078c9" font-family="Arial" font-size="25" stroke="none" stroke-width="0" x="212" y="361.0">ворота</text><polygon fill="#CCCCCC" points="367,312 358,312 358,321 367,321" stroke="#000000" stroke-width="1" /><polygon fill="#CCCCCC" points="338,312 329,312 329,321 338,321" stroke="#000000" stroke-width="1" /><polygon fill="#CCCCCC" points="309,312 300,312 300,321 309,321" stroke="#000000" stroke-width="1" /><polygon fill="#CCCCCC" points="280,312 271,312 271,321 280,321" stroke="#000000" stroke-width="1" /><polygon fill="#CCCCCC" points="367,367 358,367 358,376 367,376" stroke="#000000" stroke-width="1" /><polygon fill="#CCCCCC" points="338,367 329,367 329,376 338,376" stroke="#000000" stroke-width="1" /><polygon fill="#CCCCCC" points="310,367 300,367 300,376 310,376" stroke="#000000" stroke-width="1" /><polygon fill="#CCCCCC" points="280,367 271,367 271,376 280,376" stroke="#000000" stroke-width="1" /><polygon fill="#CCCCCC" points="392,349 382,349 382,339 392,339" stroke="#000000" stroke-width="1" /><polyline fill="none" points="523,304 523,312 387,312 387,321 396,321 396,367 387,367 387,376 523,376 523,384" stroke="#000000" stroke-width="1" /><polyline fill="none" points="73,384 73,376 251,376 251,367 236,367 236,361 220,361 220,367 168,367 168,364" stroke="#000000" stroke-width="1" /><polyline fill="none" points="73,304 73,312 251,312 251,321 236,321 236,327 220,327 220,321 168,321 168,324" stroke="#000000" stroke-width="1" /><line stroke="#7F7F7F" stroke-width="1" x1="170" x2="170" y1="361" y2="327" /><line stroke="#7F7F7F" stroke-width="1" x1="166" x2="166" y1="361" y2="327" /><line stroke="#7F7F7F" stroke-width="1" x1="162" x2="162" y1="361" y2="327" /><line stroke="#7F7F7F" stroke-width="1" x1="158" x2="158" y1="361" y2="327" /><line stroke="#7F7F7F" stroke-width="1" x1="154" x2="154" y1="361" y2="327" /><line stroke="#7F7F7F" stroke-width="1" x1="150" x2="150" y1="361" y2="327" /><line stroke="#7F7F7F" stroke-width="1" x1="146" x2="146" y1="361" y2="327" /><line stroke="#7F7F7F" stroke-width="1" x1="142" x2="142" y1="361" y2="327" /><line stroke="#7F7F7F" stroke-width="1" x1="138" x2="138" y1="361" y2="327" /><line stroke="#7F7F7F" stroke-width="1" x1="134" x2="134" y1="361" y2="327" /><line stroke="#7F7F7F" stroke-width="1" x1="130" x2="130" y1="361" y2="327" /><line stroke="#7F7F7F" stroke-width="1" x1="126" x2="126" y1="361" y2="327" /><line stroke="#7F7F7F" stroke-width="1" x1="122" x2="122" y1="361" y2="327" /><line stroke="#7F7F7F" stroke-width="1" x1="118" x2="118" y1="361" y2="327" /><line stroke="#7F7F7F" stroke-width="1" x1="114" x2="114" y1="361" y2="327" /><line stroke="#7F7F7F" stroke-width="1" x1="110" x2="110" y1="361" y2="327" /><line stroke="#7F7F7F" stroke-width="1" x1="106" x2="106" y1="361" y2="327" /><line stroke="#7F7F7F" stroke-width="1" x1="102" x2="102" y1="361" y2="327" /><line stroke="#7F7F7F" stroke-width="1" x1="98" x2="98" y1="361" y2="327" /><line stroke="#7F7F7F" stroke-width="1" x1="94" x2="94" y1="361" y2="327" /><line stroke="#7F7F7F" stroke-width="1" x1="90" x2="90" y1="361" y2="327" /><line stroke="#7F7F7F" stroke-width="1" x1="86" x2="86" y1="361" y2="327" /><line stroke="#7F7F7F" stroke-width="1" x1="82" x2="82" y1="361" y2="327" /><line stroke="#7F7F7F" stroke-width="1" x1="78" x2="78" y1="361" y2="327" /><line stroke="#7F7F7F" stroke-width="1" x1="74" x2="74" y1="361" y2="327" /><line stroke="#7F7F7F" stroke-width="1" x1="70" x2="70" y1="361" y2="327" /><line stroke="#7F7F7F" stroke-width="1" x1="66" x2="66" y1="361" y2="327" /><line stroke="#7F7F7F" stroke-width="1" x1="62" x2="62" y1="361" y2="327" /><line stroke="#7F7F7F" stroke-width="1" x1="58" x2="58" y1="361" y2="327" /><line stroke="#7F7F7F" stroke-width="1" x1="54" x2="54" y1="361" y2="327" /><line stroke="#7F7F7F" stroke-width="1" x1="50" x2="50" y1="361" y2="327" /><line stroke="#7F7F7F" stroke-width="1" x1="46" x2="46" y1="361" y2="327" /><line stroke="#7F7F7F" stroke-width="1" x1="42" x2="42" y1="361" y2="327" /><line stroke="#7F7F7F" stroke-width="1" x1="38" x2="38" y1="361" y2="327" /><line stroke="#7F7F7F" stroke-width="1" x1="34" x2="34" y1="361" y2="327" /><line stroke="#7F7F7F" stroke-width="1" x1="30" x2="30" y1="361" y2="327" /><line stroke="#7F7F7F" stroke-width="1" x1="26" x2="26" y1="361" y2="327" /><line stroke="#7F7F7F" stroke-width="1" x1="22" x2="22" y1="361" y2="327" /><line stroke="#7F7F7F" stroke-width="1" x1="18" x2="18" y1="361" y2="327" /><line stroke="#7F7F7F" stroke-width="1" x1="14" x2="14" y1="361" y2="327" /><line stroke="#7F7F7F" stroke-width="1" x1="10" x2="10" y1="361" y2="327" /><polygon fill="#9B5509" points="177,327 4,327 4,324 177,324" stroke="#000000" stroke-width="1" /><polygon fill="#9B5509" points="177,335 177,340 4,340 4,335" stroke="#000000" stroke-width="1" /><polygon fill="#9B5509" points="177,348 177,353 4,353 4,348" stroke="#000000" stroke-width="1" /><polygon fill="#9B5509" points="177,361 4,361 4,364 177,364" stroke="#000000" stroke-width="1" /><polygon fill="#CCCCCC" points="-26,404 -23,411 -25,415 -23,421 -26,427 -36,427 -39,421 -37,415 -39,411 -38,405 -38,405 -38,405" stroke="#000000" stroke-width="1" /><path d="M17,364 C17,364 18.0,361.833333333 17,364 C16.0,366.166666667 13.8333333333,372.666666667 11,377 C8.16666666667,381.333333333 4.0,386.333333333 0,390 C-4.0,393.666666667 -13,399 -13,399 " fill="none" stroke="#000000" stroke-width="1" /><path d="M-21,402 C-21,402 -19.1666666667,401.5 -21,402 C-22.8333333333,402.5 -28.0,404.5 -32,405 C-36.0,405.5 -45,405 -45,405 " fill="none" stroke="#000000" stroke-width="1" /><path d="M-57,402 C-57,402 -53.6666666667,403.833333333 -57,402 C-60.3333333333,400.166666667 -71.1666666667,396.0 -77,391 C-82.8333333333,386.0 -88.5,378.5 -92,372 C-95.5,365.5 -97.3333333333,359.0 -98,352 C-98.6666666667,345.0 -98.3333333333,337.333333333 -96,330 C-93.6666666667,322.666666667 -88.8333333333,314.0 -84,308 C-79.1666666667,302.0 -72.8333333333,297.333333333 -67,294 C-61.1666666667,290.666666667 -55.5,289.0 -49,288 C-42.5,287.0 -34.3333333333,287.0 -28,288 C-21.6666666667,289.0 -16.5,290.833333333 -11,294 C-5.5,297.166666667 0.5,302.0 5,307 C9.5,312.0 16,324 16,324 " fill="none" stroke="#000000" stroke-width="1" /><polyline fill="none" points="-9,397 -7,405 -3,405 -3,409 3,409 8,414 8,427 -3,427" stroke="#000000" stroke-width="1" /><polyline fill="none" points="-21,427 -41,427" stroke="#000000" stroke-width="1" /><polyline fill="none" points="-57,427 -73,427 -73,412 -63,412 -60,401" stroke="#000000" stroke-width="1" /><polyline fill="none" points="-12,403 -13,399" stroke="#000000" stroke-width="1" /><polyline fill="none" points="-20,406 -21,402" stroke="#000000" stroke-width="1" /><polyline fill="none" points="-46,409 -45,405" stroke="#000000" stroke-width="1" /><polyline fill="none" points="-58,406 -57,402" stroke="#000000" stroke-width="1" /><polyline fill="none" points="4,340 -15,340 -15,347 -35,347 -35,336" stroke="#000000" stroke-width="0.5" /><polyline fill="none" points="-35,292 -35,287" stroke="#000000" stroke-width="0.5" /><line stroke="#009900" stroke-width="1" x1="-32" x2="-38" y1="336" y2="336" /><line stroke="#009900" stroke-width="1" x1="-32" x2="-38" y1="332" y2="332" /><line stroke="#009900" stroke-width="1" x1="-32" x2="-38" y1="328" y2="328" /><line stroke="#009900" stroke-width="1" x1="-32" x2="-38" y1="324" y2="324" /><line stroke="#009900" stroke-width="1" x1="-32" x2="-38" y1="320" y2="320" /><line stroke="#009900" stroke-width="1" x1="-32" x2="-38" y1="316" y2="316" /><line stroke="#009900" stroke-width="1" x1="-32" x2="-38" y1="312" y2="312" /><line stroke="#009900" stroke-width="1" x1="-32" x2="-38" y1="308" y2="308" /><line stroke="#009900" stroke-width="1" x1="-32" x2="-38" y1="304" y2="304" /><line stroke="#009900" stroke-width="1" x1="-32" x2="-38" y1="300" y2="300" /><line stroke="#009900" stroke-width="1" x1="-32" x2="-38" y1="296" y2="296" /><line stroke="#009900" stroke-width="1" x1="-32" x2="-38" y1="292" y2="292" /><polyline fill="none" points="-90,316 -99,307 -78,286 -69,295" stroke="#000000" stroke-width="1" /><text fill="#000000" font-family="Arial" font-size="10" stroke="none" stroke-width="0" transform="rotate(135.0,-71,297)" x="-71" y="307.0">кассы</text><polyline fill="none" marker-end="url(#id35)" points="-50,439 -50,418" stroke="#009900" stroke-width="1" /><polyline fill="none" marker-end="url(#id35)" points="-12,418 -12,439" stroke="#FF0000" stroke-width="1" /><text fill="#00AFAF" font-family="Arial" font-size="15" stroke="none" stroke-width="0" x="395" y="524.0">Московский проспект</text><text fill="#00AFAF" font-family="Arial" font-size="15" stroke="none" stroke-width="0" x="-103" y="483.0">площадь Московские ворота</text><text fill="#00AFAF" font-family="Arial" font-size="15" stroke="none" stroke-width="0" transform="rotate(60.0,134,123)" x="134" y="138.0">Ташкентская улица</text></g></svg>