<svg xmlns="http://www.w3.org/2000/svg" version="1.1">
<defs>
    <marker id="arrow"
      viewBox="0 0 10 10" refX="0" refY="5"
      markerUnits="strokeWidth"
      markerWidth="4" markerHeight="3"
      orient="auto">
      <path d="M 0 0 L 10 5 L 0 10 z" />
    </marker>
  </defs>
<g stroke="#000000" fill="none" stroke-opacity="1.0" fill-opacity="1.0" transform="scale(0.5)">
<rect x="0" y="0" width="550" height="800" stroke-width="0" fill="none" />
<g stroke="#000000" fill="none" stroke-opacity="1.0" fill-opacity="1.0" transform="scale(0.5)">
</g>
<g transform="rotate(-80.0 275 400)" >
<g stroke="#000000" fill="none" stroke-opacity="1.0" fill-opacity="1.0" transform="scale(0.5)">
</g>
<g stroke="#F7F7F7" fill="none" stroke-opacity="1.0" fill-opacity="1.0" transform="scale(0.5)">
<polyline points="-121,473  80,415  340,360  433,264  570,200  640,166" stroke-width=" 40" fill="none"/> <!-- spline -->
<polyline points="505,227  665,281" stroke-width=" 40" fill="none"/> <!-- spline -->
<polyline points="267,109  58,248  -138,370" stroke-width=" 40" fill="none"/> <!-- spline -->
<polyline points="245,130  202,214  232,297  306,326  398,301" stroke-width=" 40" fill="none"/> <!-- spline -->
</g>
<g stroke="#FFFFFF" fill="none" stroke-opacity="1.0" fill-opacity="1.0" transform="scale(0.5)">
<polyline points="737,615  -85,760  -186,185  635,40  737,615" stroke-width=" 35" fill="none"  />
</g>
<g stroke="#DDDDDD" fill="#FEFBF1" stroke-opacity="1.0" fill-opacity="1.0" transform="scale(0.5)">
<polygon points="380,241  419,208  349,125  310,158" stroke-width="1" />
</g>
<g stroke="#000000" fill="none" stroke-opacity="1.0" fill-opacity="1.0" transform="scale(0.5)">
<text x=" 358" y="156.0" font-family="Arial" font-size=" 15" fill="#000000" transform="rotate(50.0  358  141)" stroke-width="0">Нарвские</text>
<text x=" 338" y="154.0" font-family="Arial" font-size=" 15" fill="#000000" transform="rotate(50.0  338  139)" stroke-width="0">триумфальные</text>
<text x=" 343" y="181.0" font-family="Arial" font-size=" 15" fill="#000000" transform="rotate(50.0  343  166)" stroke-width="0">ворота</text>
</g>
<g stroke="#000000" fill="#D6083B" stroke-opacity="1.0" fill-opacity="1.0" transform="scale(0.5)">
<polygon points="346,488  346,518  -104,518  -104,488" stroke-width="1" />
<polygon points="346,378  346,408  -104,408  -104,378" stroke-width="1" />
</g>
<g stroke="#D6083B" fill="none" stroke-opacity="1.0" fill-opacity="1.0" transform="scale(0.5)">
<text x=" -98" y="371.0" font-family="Arial" font-size=" 20" fill="#D6083B" stroke-width="0">&lt;&lt; Кировский завод</text>
<text x=" 222" y="538.0" font-family="Arial" font-size=" 20" fill="#D6083B" stroke-width="0">Балтийская &gt;&gt;</text>
<text x=" 69" y="458.0" font-family="Arial" font-size=" 25" fill="#D6083B" stroke-width="0">Нарвская</text>
</g>
<g stroke="#000000" fill="#CCCCCC" stroke-opacity="1.0" fill-opacity="1.0" transform="scale(0.5)">
<polygon points="5,420  17,420  17,432  5,432" stroke-width="1" />
<polygon points="27,420  39,420  39,432  27,432" stroke-width="1" />
<polygon points="50,420  62,420  62,432  50,432" stroke-width="1" />
<polygon points="73,420  85,420  85,432  73,432" stroke-width="1" />
<polygon points="95,420  107,420  107,432  95,432" stroke-width="1" />
<polygon points="117,420  129,420  129,432  117,432" stroke-width="1" />
<polygon points="139,420  151,420  151,432  139,432" stroke-width="1" />
<polygon points="162,420  174,420  174,432  162,432" stroke-width="1" />
<polygon points="184,420  196,420  196,432  184,432" stroke-width="1" />
<polygon points="206,420  218,420  218,432  206,432" stroke-width="1" />
<polygon points="228,420  240,420  240,432  228,432" stroke-width="1" />
<polygon points="5,464  17,464  17,476  5,476" stroke-width="1" />
<polygon points="27,464  39,464  39,476  27,476" stroke-width="1" />
<polygon points="50,464  62,464  62,476  50,476" stroke-width="1" />
<polygon points="73,464  85,464  85,476  73,476" stroke-width="1" />
<polygon points="95,464  107,464  107,476  95,476" stroke-width="1" />
<polygon points="117,464  129,464  129,476  117,476" stroke-width="1" />
<polygon points="139,464  151,464  151,476  139,476" stroke-width="1" />
<polygon points="162,464  174,464  174,476  162,476" stroke-width="1" />
<polygon points="184,464  196,464  196,476  184,476" stroke-width="1" />
<polygon points="206,464  218,464  218,476  206,476" stroke-width="1" />
<polygon points="228,464  240,464  240,476  228,476" stroke-width="1" />
<polyline points="-104,488  -104,476  -5,476  -5,464  -10,464  -10,432  -5,432  -5,420  -104,420  -104,408" stroke-width="1" fill="none"  />
<polyline points="346,488  346,476  253,476  253,471  259,471  259,466  278,466  278,471  303,471  303,468" stroke-width="1" fill="none"  />
<polyline points="346,408  346,420  253,420  253,425  259,425  259,430  278,430  278,425  303,425  303,428" stroke-width="1" fill="none"  />
</g>
<g stroke="#7F7F7F" fill="#CCCCCC" stroke-opacity="1.0" fill-opacity="1.0" transform="scale(0.5)">
<line x1="497" y1="465" x2="497" y2="431" stroke-width="1" />
<line x1="493" y1="465" x2="493" y2="431" stroke-width="1" />
<line x1="489" y1="465" x2="489" y2="431" stroke-width="1" />
<line x1="485" y1="465" x2="485" y2="431" stroke-width="1" />
<line x1="481" y1="465" x2="481" y2="431" stroke-width="1" />
<line x1="477" y1="465" x2="477" y2="431" stroke-width="1" />
<line x1="473" y1="465" x2="473" y2="431" stroke-width="1" />
<line x1="469" y1="465" x2="469" y2="431" stroke-width="1" />
<line x1="465" y1="465" x2="465" y2="431" stroke-width="1" />
<line x1="461" y1="465" x2="461" y2="431" stroke-width="1" />
<line x1="457" y1="465" x2="457" y2="431" stroke-width="1" />
<line x1="453" y1="465" x2="453" y2="431" stroke-width="1" />
<line x1="449" y1="465" x2="449" y2="431" stroke-width="1" />
<line x1="445" y1="465" x2="445" y2="431" stroke-width="1" />
<line x1="441" y1="465" x2="441" y2="431" stroke-width="1" />
<line x1="437" y1="465" x2="437" y2="431" stroke-width="1" />
<line x1="433" y1="465" x2="433" y2="431" stroke-width="1" />
<line x1="429" y1="465" x2="429" y2="431" stroke-width="1" />
<line x1="425" y1="465" x2="425" y2="431" stroke-width="1" />
<line x1="421" y1="465" x2="421" y2="431" stroke-width="1" />
<line x1="417" y1="465" x2="417" y2="431" stroke-width="1" />
<line x1="413" y1="465" x2="413" y2="431" stroke-width="1" />
<line x1="409" y1="465" x2="409" y2="431" stroke-width="1" />
<line x1="405" y1="465" x2="405" y2="431" stroke-width="1" />
<line x1="401" y1="465" x2="401" y2="431" stroke-width="1" />
<line x1="397" y1="465" x2="397" y2="431" stroke-width="1" />
<line x1="393" y1="465" x2="393" y2="431" stroke-width="1" />
<line x1="389" y1="465" x2="389" y2="431" stroke-width="1" />
<line x1="385" y1="465" x2="385" y2="431" stroke-width="1" />
<line x1="381" y1="465" x2="381" y2="431" stroke-width="1" />
<line x1="377" y1="465" x2="377" y2="431" stroke-width="1" />
<line x1="373" y1="465" x2="373" y2="431" stroke-width="1" />
<line x1="369" y1="465" x2="369" y2="431" stroke-width="1" />
<line x1="365" y1="465" x2="365" y2="431" stroke-width="1" />
<line x1="361" y1="465" x2="361" y2="431" stroke-width="1" />
<line x1="357" y1="465" x2="357" y2="431" stroke-width="1" />
<line x1="353" y1="465" x2="353" y2="431" stroke-width="1" />
<line x1="349" y1="465" x2="349" y2="431" stroke-width="1" />
<line x1="345" y1="465" x2="345" y2="431" stroke-width="1" />
<line x1="341" y1="465" x2="341" y2="431" stroke-width="1" />
<line x1="337" y1="465" x2="337" y2="431" stroke-width="1" />
<line x1="333" y1="465" x2="333" y2="431" stroke-width="1" />
<line x1="329" y1="465" x2="329" y2="431" stroke-width="1" />
<line x1="325" y1="465" x2="325" y2="431" stroke-width="1" />
<line x1="321" y1="465" x2="321" y2="431" stroke-width="1" />
<line x1="317" y1="465" x2="317" y2="431" stroke-width="1" />
<line x1="313" y1="465" x2="313" y2="431" stroke-width="1" />
<line x1="309" y1="465" x2="309" y2="431" stroke-width="1" />
<line x1="305" y1="465" x2="305" y2="431" stroke-width="1" />
<line x1="301" y1="465" x2="301" y2="431" stroke-width="1" />
</g>
<g stroke="#000000" fill="#9B5509" stroke-opacity="1.0" fill-opacity="1.0" transform="scale(0.5)">
<polygon points="504,431  294,431  294,428  504,428" stroke-width="1" />
<polygon points="504,439  504,444  294,444  294,439" stroke-width="1" />
<polygon points="504,452  504,457  294,457  294,452" stroke-width="1" />
<polygon points="504,465  294,465  294,468  504,468" stroke-width="1" />
</g>
<g stroke="#FFFFFF" fill="#FFFFFF" stroke-opacity="0.8" fill-opacity="0.8" transform="scale(0.5)">
<polygon points="475,427  470,438  470,448  470,458  475,469  426,469  402,442  391,452  383,443  384,427" stroke-width="1" />
</g>
<g stroke="#000000" fill="#FFFFFF" stroke-opacity="1.0" fill-opacity="1.0" transform="scale(0.5)">
<polyline points="475,428  470,448  475,468" stroke-width="1" fill="none"/> <!-- spline -->
<polyline points="530,498  524,518" stroke-width="1" fill="none"  />
<polyline points="530,399  522,376  520,377  521,379" stroke-width="1" fill="none"  />
<polyline points="624,492  608,482  600,494  583,482" stroke-width="1" fill="none"  />
<polyline points="624,405  608,415  600,403  583,415" stroke-width="1" fill="none"  />
<polyline points="479,481  473,484" stroke-width="1" fill="none"  />
<polyline points="468,486  462,490" stroke-width="1" fill="none"  />
<polyline points="520,360  518,356  513,358  512,356  515,353  514,351  517,349" stroke-width="1" fill="none"  />
<polyline points="511,340  507,342  506,335  502,330  506,326" stroke-width="1" fill="none"  />
<polyline points="490,339  493,336  497,341  471,363  467,357  470,354" stroke-width="1" fill="none"  />
<polyline points="454,367  458,364  463,370  435,390  431,384  434,382" stroke-width="1" fill="none"  />
<polyline points="420,396  423,394  427,400  435,403  436,403  433,406" stroke-width="1" fill="none"  />
<polyline points="441,416  444,413  451,412  454,414  476,423" stroke-width="1" fill="none"  />
<polyline points="471,548  481,540  536,605  592,558  588,550  575,554" stroke-width="1" fill="none"  />
<polyline points="433,503  445,493  402,442  391,452  383,443  386,411  381,405" stroke-width="1" fill="none"  />
<polyline points="559,316  569,309" stroke-width="1" fill="none"  />
<polyline points="434,405  437,408" stroke-width="1" fill="none"  />
<polyline points="440,411  443,414" stroke-width="1" fill="none"  />
<line x1="442" y1="496" x2="480" y2="541" stroke-width="1" />
<line x1="438.8" y1="498.4" x2="476.8" y2="543.4" stroke-width="1" />
<line x1="435.6" y1="500.8" x2="473.6" y2="545.8" stroke-width="1" />
<line x1="580" y1="533" x2="586" y2="550" stroke-width="1" />
<line x1="576.25468329" y1="534.404493766" x2="582.25468329" y2="551.404493766" stroke-width="1" />
<line x1="572.509366579" y1="535.808987533" x2="578.509366579" y2="552.808987533" stroke-width="1" />
<polyline points="561,314  535,284  385,409" stroke-width="1" fill="none"  />
<polyline points="564,312  536,279  383,407" stroke-width="1" fill="none"  />
<polyline points="567,310  537,274  381,405" stroke-width="1" fill="none"  />
<polyline points="524,516  545,519  567,515  585,505  598,493" stroke-width="1" fill="none"/> <!-- spline -->
<polyline points="525,513  545,516  566,512  583,503  596,491" stroke-width="1" fill="none"/> <!-- spline -->
<polyline points="526,510  545,513  565,509  582,500  593,490" stroke-width="1" fill="none"/> <!-- spline -->
<polyline points="527,507  545,510  564,506  580,498  591,488" stroke-width="1" fill="none"/> <!-- spline -->
<polyline points="528,504  545,507  563,503  579,495  589,486" stroke-width="1" fill="none"/> <!-- spline -->
<polyline points="529,501  545,504  562,500  577,493  586,484" stroke-width="1" fill="none"/> <!-- spline -->
<polyline points="598,404  585,392  567,382  545,378  524,381" stroke-width="1" fill="none"/> <!-- spline -->
<polyline points="596,406  583,394  566,385  545,381  525,384" stroke-width="1" fill="none"/> <!-- spline -->
<polyline points="593,407  582,397  565,388  545,384  526,387" stroke-width="1" fill="none"/> <!-- spline -->
<polyline points="591,409  580,399  564,391  545,387  527,390" stroke-width="1" fill="none"/> <!-- spline -->
<polyline points="588,411  579,402  563,394  545,390  528,393" stroke-width="1" fill="none"/> <!-- spline -->
<polyline points="586,413  577,404  562,397  545,393  529,396" stroke-width="1" fill="none"/> <!-- spline -->
</g>
<g stroke="#000000" fill="#CCCCCC" stroke-opacity="1.0" fill-opacity="1.0" transform="scale(0.5)">
<polygon points="557,497  562,519  572,515  564,495" stroke-width="1" />
<polygon points="562,378  572,382  564,401  557,398" stroke-width="1" />
<polyline points="583,415  595,449  583,482" stroke-width="1" fill="none"/> <!-- spline -->
<polyline points="530,498  508,487  495,468" stroke-width="1" fill="none"/> <!-- spline -->
<polyline points="524,518  497,504  479,481" stroke-width="1" fill="none"/> <!-- spline -->
<polyline points="530,399  509,409  495,428" stroke-width="1" fill="none"/> <!-- spline -->
<polyline points="521,379  494,395  476,423" stroke-width="1" fill="none"/> <!-- spline -->
<polyline points="473,484  470,483  468,486" stroke-width="1" fill="none"/> <!-- spline -->
<polyline points="624,492  602,519  570,536  534,540  502,530  475,509" stroke-width="1" fill="none"/> <!-- spline -->
<polyline points="624,405  602,378  573,362  545,357  520,360" stroke-width="1" fill="none"/> <!-- spline -->
<polyline points="481,515  483,513" stroke-width="1" fill="none"  />
<polyline points="487,510  489,508" stroke-width="1" fill="none"  />
<polyline points="493,504  495,502" stroke-width="1" fill="none"  />
<polyline points="462,490  465,495" stroke-width="1" fill="none"  />
<polyline points="469,501  471,504" stroke-width="1" fill="none"  />
<polyline points="423,394  426,392" stroke-width="1" fill="none"  />
<polyline points="430,389  433,387" stroke-width="1" fill="none"  />
<polyline points="460,366  463,364" stroke-width="1" fill="none"  />
<polyline points="466,362  469,360" stroke-width="1" fill="none"  />
<polyline points="495,338  497,336" stroke-width="1" fill="none"  />
<polyline points="500,332  502,330" stroke-width="1" fill="none"  />
<polyline points="509,341  511,344" stroke-width="1" fill="none"  />
<polyline points="514,348  516,350" stroke-width="1" fill="none"  />
<ellipse cx="562" cy="491" rx="2.0" ry="2.0" />
<ellipse cx="556" cy="493" rx="2.0" ry="2.0" />
<ellipse cx="529" cy="493" rx="2.0" ry="2.0" />
<ellipse cx="523" cy="491" rx="2.0" ry="2.0" />
<ellipse cx="505" cy="478" rx="2.0" ry="2.0" />
<ellipse cx="501" cy="473" rx="2.0" ry="2.0" />
<ellipse cx="506" cy="416" rx="3.0" ry="3.0" />
<ellipse cx="502" cy="421" rx="3.0" ry="3.0" />
<ellipse cx="525" cy="405" rx="3.0" ry="3.0" />
<ellipse cx="531" cy="403" rx="3.0" ry="3.0" />
<ellipse cx="561" cy="403" rx="2.0" ry="2.0" />
<ellipse cx="555" cy="401" rx="2.0" ry="2.0" />
<ellipse cx="580" cy="418" rx="2.0" ry="2.0" />
<ellipse cx="583" cy="423" rx="2.0" ry="2.0" />
<ellipse cx="583" cy="472" rx="2.0" ry="2.0" />
<ellipse cx="580" cy="477" rx="2.0" ry="2.0" />
</g>
<g stroke="#000000" fill="none" stroke-opacity="1.0" fill-opacity="1.0" transform="scale(0.5)">
<polyline points="507,386  510,390  493,404  490,400" stroke-width="1" fill="none"  />
<text x=" 510" y="401.0" font-family="Arial" font-size=" 8" fill="#000000" transform="rotate(140.0  510  393)" stroke-width="0">касса</text>
</g>
<g stroke="#000000" fill="#FFFFFF" stroke-opacity="1.0" fill-opacity="1.0" transform="scale(0.5)">
<polygon points="292,439  292,444  284,444  284,439" stroke-width="1" />
<polygon points="537,408  535,414  527,411  529,405" stroke-width="1" />
<polygon points="571,419  569,425  577,428  579,422" stroke-width="1" />
</g>
<g stroke="#000000" fill="#FFFFFF" stroke-opacity="1.0" fill-opacity="1.0" transform="scale(0.5)">
<polyline points="504,454  531,445  571,445  577,428" stroke-width=" 0.5" fill="none"  />
</g>
<g stroke="#009900" fill="#FFFFFF" stroke-opacity="1.0" fill-opacity="1.0" transform="scale(0.5)">
<line x1="566" y1="420" x2="565" y2="423" stroke-width="1" />
<line x1="562.233032354" y1="418.654654412" x2="561.233032354" y2="421.654654412" stroke-width="1" />
<line x1="558.466064707" y1="417.309308824" x2="557.466064707" y2="420.309308824" stroke-width="1" />
<line x1="554.699097061" y1="415.963963236" x2="553.699097061" y2="418.963963236" stroke-width="1" />
<line x1="550.932129414" y1="414.618617648" x2="549.932129414" y2="417.618617648" stroke-width="1" />
<line x1="547.165161768" y1="413.27327206" x2="546.165161768" y2="416.27327206" stroke-width="1" />
<line x1="543.398194122" y1="411.927926472" x2="542.398194122" y2="414.927926472" stroke-width="1" />
<line x1="539.631226475" y1="410.582580884" x2="538.631226475" y2="413.582580884" stroke-width="1" />
</g>
<g stroke="#FF0000" fill="#FFFFFF" stroke-opacity="1.0" fill-opacity="1.0" transform="scale(0.5)">
<polyline points="475,493  461,502" marker-end="url(#arrow)" stroke-width="1" fill="none" />
</g>
<g stroke="#009900" fill="#FFFFFF" stroke-opacity="1.0" fill-opacity="1.0" transform="scale(0.5)">
<polyline points="425,388  434,395" marker-end="url(#arrow)" stroke-width="1" fill="none" />
<polyline points="497,331  504,345" marker-end="url(#arrow)" stroke-width="1" fill="none" />
</g>
<g stroke="#00AFAF" fill="none" stroke-opacity="1.0" fill-opacity="1.0" transform="scale(0.5)">
<text x=" 526" y="224.0" font-family="Arial" font-size=" 15" fill="#00AFAF" transform="rotate(20.0  526  209)" stroke-width="0">Старо-Петергофский</text>
<text x=" 547" y="249.0" font-family="Arial" font-size=" 15" fill="#00AFAF" transform="rotate(20.0  547  234)" stroke-width="0">проспект</text>
<text x=" 471" y="268.0" font-family="Arial" font-size=" 15" fill="#00AFAF" transform="rotate(140.0  471  253)" stroke-width="0">Площадь Стачек</text>
<text x=" 259" y="571.0" font-family="Arial" font-size=" 15" fill="#00AFAF" transform="rotate(80.0  259  556)" stroke-width="0">ДК им. М. Горького</text>
</g>
</g>
</g>
</svg>
