<svg xmlns="http://www.w3.org/2000/svg" version="1.1">
<defs>
    <marker id="arrow"
      viewBox="0 0 10 10" refX="0" refY="5"
      markerUnits="strokeWidth"
      markerWidth="4" markerHeight="3"
      orient="auto">
      <path d="M 0 0 L 10 5 L 0 10 z" />
    </marker>
  </defs>
<g stroke="#000000" fill="none" stroke-opacity="1.0" fill-opacity="1.0" transform="scale(0.5)">
<rect x="0" y="0" width="1400" height="1000" stroke-width="0" fill="none" />
<g stroke="#000000" fill="none" stroke-opacity="1.0" fill-opacity="1.0" transform="scale(0.5)">
</g>
<g transform="rotate(15.0 700 500)" >
<g stroke="#000000" fill="none" stroke-opacity="1.0" fill-opacity="1.0" transform="scale(0.5)">
</g>
<g stroke="#F7F7F7" fill="none" stroke-opacity="1.0" fill-opacity="1.0" transform="scale(0.5)">
<polyline points="-68,375  1401,353" stroke-width=" 60" fill="none"  />
<polyline points="-28,143  -28,591" stroke-width=" 30" fill="none"  />
<polyline points="694,-51  693,747  611,1054" stroke-width=" 30" fill="none"  />
<polyline points="685,359  664,438  592,483  426,1102" stroke-width=" 30" fill="none"  />
<polyline points="1460,563  1225,898" stroke-width=" 30" fill="none"  />
</g>
<g stroke="#FFFFFF" fill="none" stroke-opacity="1.0" fill-opacity="1.0" transform="scale(0.5)">
<polyline points="-136,181  1264,-195  1536,819  136,1195  -136,181" stroke-width=" 50" fill="none"  />
</g>
<g stroke="#000000" fill="#009A49" stroke-opacity="1.0" fill-opacity="1.0" transform="scale(0.5)">
<polygon points="1015,598  1015,628  565,628  565,598" stroke-width="1" />
<polygon points="565,488  565,518  1015,518  1015,488" stroke-width="1" />
</g>
<g stroke="#009A49" fill="none" stroke-opacity="1.0" fill-opacity="1.0" transform="scale(0.5)">
<text x=" 702" y="546.0" font-family="Arial" font-size=" 25" fill="#009A49" stroke-width="0">Гостиный двор</text>
<text x=" 891" y="648.0" font-family="Arial" font-size=" 20" fill="#009A49" stroke-width="0">Маяковская &gt;&gt;</text>
<text x=" 720" y="482.0" font-family="Arial" font-size=" 20" fill="#009A49" stroke-width="0">&lt;&lt; Василеостровская</text>
</g>
<g stroke="#000000" fill="#0078C9" stroke-opacity="1.0" fill-opacity="1.0" transform="scale(0.5)">
<polygon points="329,514  359,514  359,964  329,964" stroke-width="1" />
<polygon points="439,514  469,514  469,964  439,964" stroke-width="1" />
</g>
<g stroke="#0078C9" fill="none" stroke-opacity="1.0" fill-opacity="1.0" transform="scale(0.5)">
<text x=" 469" y="749.0" font-family="Arial" font-size=" 20" fill="#0078C9" transform="rotate(-90.0  469  729)" stroke-width="0">Горьковская &gt;&gt;</text>
<text x=" 306" y="983.0" font-family="Arial" font-size=" 20" fill="#0078C9" transform="rotate(-90.0  306  963)" stroke-width="0">&lt;&lt; Сенная площадь</text>
<text x=" 374" y="875.0" font-family="Arial" font-size=" 25" fill="#0078C9" transform="rotate(-90.0  374  850)" stroke-width="0">Невский проспект</text>
</g>
<g stroke="#FFFFFF" fill="#FFFFFF" stroke-opacity="0.8" fill-opacity="0.8" transform="scale(0.5)">
<polygon points="327,527  471,527  470,589  327,589" stroke-width="1" />
</g>
<g stroke="#000000" fill="#FFFFFF" stroke-opacity="1.0" fill-opacity="1.0" transform="scale(0.5)">
<polyline points="1052,534  1052,529  1015,529  1015,521  1003,521  1003,522  990,522  990,520  985,520  985,522  973,522  973,520  968,520  968,522  956,522  956,520  951,520  951,522  939,522  939,520  934,520  934,522  922,522  922,520  917,520  917,522  905,522  905,520  900,520  900,522  888,522  888,520  883,520  883,522  871,522  871,520  866,520  866,522  854,522  854,520  849,520  849,522  837,522  837,520  832,520  832,522  820,522  820,520  815,520  815,522  803,522  803,520  798,520  798,522  786,522  786,520  781,520  781,522  769,522  769,520  764,520  764,522  752,522  752,520  747,520  747,522  735,522  735,520  730,520  730,522  718,522  718,520  713,520  713,522  701,522  701,520  696,520  696,522  684,522  684,520  679,520  679,522  667,522  667,520  662,520  662,522  650,522  650,520  645,520  645,522  633,522  633,520  628,520  628,522  616,522  616,520  611,520  611,522  599,522  599,520  594,520  594,522  581,522  581,521  565,521  565,527  276,527  276,535  226,535" stroke-width="1" fill="none"  />
<polyline points="1052,583  1052,588  1015,588  1015,595  1003,595  1003,594  990,594  990,596  985,596  985,594  973,594  973,596  968,596  968,594  956,594  956,596  951,596  951,594  939,594  939,596  934,596  934,594  922,594  922,596  917,596  917,594  905,594  905,596  900,596  900,594  888,594  888,596  883,596  883,594  871,594  871,596  866,596  866,594  854,594  854,596  849,596  849,594  837,594  837,596  832,596  832,594  820,594  820,596  815,596  815,594  803,594  803,596  798,596  798,594  786,594  786,596  781,596  781,594  769,594  769,596  764,596  764,594  752,594  752,596  747,596  747,594  735,594  735,596  730,596  730,594  718,594  718,596  713,596  713,594  701,594  701,596  696,596  696,594  684,594  684,596  679,596  679,594  667,594  667,596  662,596  662,594  650,594  650,596  645,596  645,594  633,594  633,596  628,596  628,594  616,594  616,596  611,596  611,594  599,594  599,596  594,596  594,594  581,594  581,595  565,595  565,589  276,589  276,581  221,581" stroke-width="1" fill="none"  />
</g>
<g stroke="#7F7F7F" fill="#FFFFFF" stroke-opacity="1.0" fill-opacity="1.0" transform="scale(0.5)">
<line x1="74" y1="264" x2="41" y2="276" stroke-width="1" />
<line x1="75.3669722523" y1="267.759173694" x2="42.3669722523" y2="279.759173694" stroke-width="1" />
<line x1="76.7339445047" y1="271.518347388" x2="43.7339445047" y2="283.518347388" stroke-width="1" />
<line x1="78.100916757" y1="275.277521082" x2="45.100916757" y2="287.277521082" stroke-width="1" />
<line x1="79.4678890094" y1="279.036694776" x2="46.4678890094" y2="291.036694776" stroke-width="1" />
<line x1="80.8348612617" y1="282.79586847" x2="47.8348612617" y2="294.79586847" stroke-width="1" />
<line x1="82.2018335141" y1="286.555042164" x2="49.2018335141" y2="298.555042164" stroke-width="1" />
<line x1="83.5688057664" y1="290.314215858" x2="50.5688057664" y2="302.314215858" stroke-width="1" />
<line x1="84.9357780188" y1="294.073389552" x2="51.9357780188" y2="306.073389552" stroke-width="1" />
<line x1="86.3027502711" y1="297.832563246" x2="53.3027502711" y2="309.832563246" stroke-width="1" />
<line x1="87.6697225235" y1="301.59173694" x2="54.6697225235" y2="313.59173694" stroke-width="1" />
<line x1="89.0366947758" y1="305.350910633" x2="56.0366947758" y2="317.350910633" stroke-width="1" />
<line x1="90.4036670282" y1="309.110084327" x2="57.4036670282" y2="321.110084327" stroke-width="1" />
<line x1="91.7706392805" y1="312.869258021" x2="58.7706392805" y2="324.869258021" stroke-width="1" />
<line x1="93.1376115329" y1="316.628431715" x2="60.1376115329" y2="328.628431715" stroke-width="1" />
<line x1="94.5045837852" y1="320.387605409" x2="61.5045837852" y2="332.387605409" stroke-width="1" />
<line x1="95.8715560375" y1="324.146779103" x2="62.8715560375" y2="336.146779103" stroke-width="1" />
<line x1="97.2385282899" y1="327.905952797" x2="64.2385282899" y2="339.905952797" stroke-width="1" />
<line x1="98.6055005422" y1="331.665126491" x2="65.6055005422" y2="343.665126491" stroke-width="1" />
<line x1="99.9724727946" y1="335.424300185" x2="66.9724727946" y2="347.424300185" stroke-width="1" />
<line x1="101.339445047" y1="339.183473879" x2="68.3394450469" y2="351.183473879" stroke-width="1" />
<line x1="102.706417299" y1="342.942647573" x2="69.7064172993" y2="354.942647573" stroke-width="1" />
<line x1="104.073389552" y1="346.701821267" x2="71.0733895516" y2="358.701821267" stroke-width="1" />
<line x1="105.440361804" y1="350.460994961" x2="72.440361804" y2="362.460994961" stroke-width="1" />
<line x1="106.807334056" y1="354.220168655" x2="73.8073340563" y2="366.220168655" stroke-width="1" />
<line x1="108.174306309" y1="357.979342349" x2="75.1743063087" y2="369.979342349" stroke-width="1" />
<line x1="109.541278561" y1="361.738516043" x2="76.541278561" y2="373.738516043" stroke-width="1" />
<line x1="110.908250813" y1="365.497689737" x2="77.9082508134" y2="377.497689737" stroke-width="1" />
<line x1="112.275223066" y1="369.256863431" x2="79.2752230657" y2="381.256863431" stroke-width="1" />
<line x1="113.642195318" y1="373.016037125" x2="80.6421953181" y2="385.016037125" stroke-width="1" />
<line x1="115.00916757" y1="376.775210819" x2="82.0091675704" y2="388.775210819" stroke-width="1" />
<line x1="116.376139823" y1="380.534384513" x2="83.3761398228" y2="392.534384513" stroke-width="1" />
<line x1="117.743112075" y1="384.293558207" x2="84.7431120751" y2="396.293558207" stroke-width="1" />
<line x1="119.110084327" y1="388.0527319" x2="86.1100843274" y2="400.0527319" stroke-width="1" />
<line x1="120.47705658" y1="391.811905594" x2="87.4770565798" y2="403.811905594" stroke-width="1" />
<line x1="121.844028832" y1="395.571079288" x2="88.8440288321" y2="407.571079288" stroke-width="1" />
<line x1="123.211001084" y1="399.330252982" x2="90.2110010845" y2="411.330252982" stroke-width="1" />
<line x1="124.577973337" y1="403.089426676" x2="91.5779733368" y2="415.089426676" stroke-width="1" />
<line x1="125.944945589" y1="406.84860037" x2="92.9449455892" y2="418.84860037" stroke-width="1" />
<line x1="127.311917842" y1="410.607774064" x2="94.3119178415" y2="422.607774064" stroke-width="1" />
<line x1="128.678890094" y1="414.366947758" x2="95.6788900939" y2="426.366947758" stroke-width="1" />
<line x1="130.045862346" y1="418.126121452" x2="97.0458623462" y2="430.126121452" stroke-width="1" />
<line x1="131.412834599" y1="421.885295146" x2="98.4128345986" y2="433.885295146" stroke-width="1" />
<line x1="132.779806851" y1="425.64446884" x2="99.7798068509" y2="437.64446884" stroke-width="1" />
<line x1="134.146779103" y1="429.403642534" x2="101.146779103" y2="441.403642534" stroke-width="1" />
<line x1="135.513751356" y1="433.162816228" x2="102.513751356" y2="445.162816228" stroke-width="1" />
<line x1="136.880723608" y1="436.921989922" x2="103.880723608" y2="448.921989922" stroke-width="1" />
</g>
<g stroke="#000000" fill="#9B5509" stroke-opacity="1.0" fill-opacity="1.0" transform="scale(0.5)">
<polygon points="39,270  107,456  104,457  36,271" stroke-width="1" />
<polygon points="47,267  52,265  119,451  114,453" stroke-width="1" />
<polygon points="59,262  64,260  132,446  127,448" stroke-width="1" />
<polygon points="71,257  139,443  142,442  74,256" stroke-width="1" />
</g>
<g stroke="#CCCCCC" fill="#CCCCCC" stroke-opacity="0.8" fill-opacity="0.8" transform="scale(0.5)">
<polygon points="21,255  29,255  29,264  31,271  33,279  37,285  43,289  49,292  55,293  61,292  67,289  71,287  75,283  77,279  79,273  81,266  81,261  81,255  87,255  86,263  85,269  83,275  81,280  78,285  75,289  71,293  68,295  65,297  62,299  59,300  56,301  53,301  49,302  43,303  35,303  26,303  20,303  21,289  17,289" stroke-width="1" />
</g>
<g stroke="#FFFFFF" fill="#FFFFFF" stroke-opacity="0.8" fill-opacity="0.8" transform="scale(0.5)">
<polygon points="47,304  47,303  61,300  76,289  82,277  94,306  77,322  57,330  56,329" stroke-width="1" />
</g>
<g stroke="#000000" fill="#FFFFFF" stroke-opacity="1.0" fill-opacity="1.0" transform="scale(0.5)">
<line x1="-4" y1="296" x2="20" y2="299" stroke-width="1" />
<line x1="-3.60198512392" y1="292.019851239" x2="20.3980148761" y2="295.019851239" stroke-width="1" />
<line x1="-3.20397024783" y1="288.039702478" x2="20.7960297522" y2="291.039702478" stroke-width="1" />
<line x1="86" y1="231" x2="109" y2="208" stroke-width="1" />
<line x1="86" y1="227" x2="109" y2="204" stroke-width="1" />
<line x1="86" y1="223" x2="109" y2="200" stroke-width="1" />
<polyline points="87,255  83,275  73,291  53,301  20,303" stroke-width="1" fill="none"/> <!-- spline -->
<polyline points="81,255  87,255" stroke-width="1" fill="none"  />
<polyline points="29,255  31,271  38,285  55,293  72,285  79,272  81,255" stroke-width="1" fill="none"/> <!-- spline -->
<polyline points="20,303  21,289  17,289  21,255  29,255" stroke-width="1" fill="none"  />
<polyline points="13,223  5,223  -5,300" stroke-width="1" fill="none"  />
<polyline points="52,186  38,191  25,200  17,211  13,223" stroke-width="1" fill="none"/> <!-- spline -->
<polyline points="51,178  52,186" stroke-width="1" fill="none"  />
<polyline points="103,188  88,179  69,177  51,178" stroke-width="1" fill="none"/> <!-- spline -->
<polyline points="109,273  109,188  103,188" stroke-width="1" fill="none"  />
<polyline points="19,331  60,329  87,314  101,295  109,273" stroke-width="1" fill="none"/> <!-- spline -->
<polyline points="22,327  19,327  19,331" stroke-width="1" fill="none"  />
<polyline points="65,297  78,321" stroke-width="1" fill="none"  />
<polyline points="62,299  73,323" stroke-width="1" fill="none"  />
<polyline points="59,300  69,325" stroke-width="1" fill="none"  />
<polyline points="56,301  63,327" stroke-width="1" fill="none"  />
<polyline points="109,482  91,432  94,431" stroke-width="1" fill="none"  />
<polyline points="158,477  136,416  133,417" stroke-width="1" fill="none"  />
<polyline points="226,535  199,528  176,505  158,477" stroke-width="1" fill="none"/> <!-- spline -->
<polyline points="221,581  166,564  131,526  109,482" stroke-width="1" fill="none"/> <!-- spline -->
</g>
<g stroke="#000000" fill="none" stroke-opacity="1.0" fill-opacity="1.0" transform="scale(0.5)">
<polyline points="56,177  56,168  86,168  86,178" stroke-width="1" fill="none"  />
<text x=" 59" y="176.0" font-family="Arial" font-size=" 10" fill="#000000" stroke-width="0">кассы</text>
<polyline points="36,223  40,223" stroke-width=" 0.5" fill="none"  />
<polygon points="39,220  41,226  47,224  45,218" stroke-width="1" />
<polyline points="86,255  86,208  79,208" stroke-width=" 0.5" fill="none"  />
<polyline points="13,223  36,223  51,266" stroke-width=" 0.5" fill="none"  />
</g>
<g stroke="#009900" fill="none" stroke-opacity="1.0" fill-opacity="1.0" transform="scale(0.5)">
<line x1="49" y1="218" x2="51" y2="222" stroke-width="1" />
<line x1="52.7139067635" y1="216.514437295" x2="54.7139067635" y2="220.514437295" stroke-width="1" />
<line x1="56.4278135271" y1="215.028874589" x2="58.4278135271" y2="219.028874589" stroke-width="1" />
<line x1="60.1417202906" y1="213.543311884" x2="62.1417202906" y2="217.543311884" stroke-width="1" />
<line x1="63.8556270542" y1="212.057749178" x2="65.8556270542" y2="216.057749178" stroke-width="1" />
<line x1="67.5695338177" y1="210.572186473" x2="69.5695338177" y2="214.572186473" stroke-width="1" />
<line x1="71.2834405812" y1="209.086623768" x2="73.2834405812" y2="213.086623768" stroke-width="1" />
<line x1="74.9973473448" y1="207.601061062" x2="76.9973473448" y2="211.601061062" stroke-width="1" />
<line x1="78.7112541083" y1="206.115498357" x2="80.7112541083" y2="210.115498357" stroke-width="1" />
</g>
<g stroke="#FF0000" fill="none" stroke-opacity="1.0" fill-opacity="1.0" transform="scale(0.5)">
<polyline points="9,263  7,280" marker-end="url(#arrow)" stroke-width="1" fill="none" />
</g>
<g stroke="#009900" fill="none" stroke-opacity="1.0" fill-opacity="1.0" transform="scale(0.5)">
<polyline points="24,315  44,315" marker-end="url(#arrow)" stroke-width="1" fill="none" />
<polyline points="336,570  353,570" marker-end="url(#arrow)" stroke-width="1" fill="none" />
<polyline points="60,209  67,223" marker-end="url(#arrow)" stroke-width="1" fill="none" />
</g>
<g stroke="#FF0000" fill="none" stroke-opacity="1.0" fill-opacity="1.0" transform="scale(0.5)">
<text x=" 128" y="220.0" font-family="Arial" font-size=" 10" fill="#FF0000" transform="rotate(-15.0  128  210)" stroke-width="0">по рабочим дням с 7:00 до 10:00 b c 16:00 до 18:30 вестибюль закрыт на вход</text>
</g>
<g stroke="#7F7F7F" fill="none" stroke-opacity="1.0" fill-opacity="1.0" transform="scale(0.5)">
<line x1="1202" y1="580" x2="1202" y2="537" stroke-width="1" />
<line x1="1198" y1="580" x2="1198" y2="537" stroke-width="1" />
<line x1="1194" y1="580" x2="1194" y2="537" stroke-width="1" />
<line x1="1190" y1="580" x2="1190" y2="537" stroke-width="1" />
<line x1="1186" y1="580" x2="1186" y2="537" stroke-width="1" />
<line x1="1182" y1="580" x2="1182" y2="537" stroke-width="1" />
<line x1="1178" y1="580" x2="1178" y2="537" stroke-width="1" />
<line x1="1174" y1="580" x2="1174" y2="537" stroke-width="1" />
<line x1="1170" y1="580" x2="1170" y2="537" stroke-width="1" />
<line x1="1166" y1="580" x2="1166" y2="537" stroke-width="1" />
<line x1="1162" y1="580" x2="1162" y2="537" stroke-width="1" />
<line x1="1158" y1="580" x2="1158" y2="537" stroke-width="1" />
<line x1="1154" y1="580" x2="1154" y2="537" stroke-width="1" />
<line x1="1150" y1="580" x2="1150" y2="537" stroke-width="1" />
<line x1="1146" y1="580" x2="1146" y2="537" stroke-width="1" />
<line x1="1142" y1="580" x2="1142" y2="537" stroke-width="1" />
<line x1="1138" y1="580" x2="1138" y2="537" stroke-width="1" />
<line x1="1134" y1="580" x2="1134" y2="537" stroke-width="1" />
<line x1="1130" y1="580" x2="1130" y2="537" stroke-width="1" />
<line x1="1126" y1="580" x2="1126" y2="537" stroke-width="1" />
<line x1="1122" y1="580" x2="1122" y2="537" stroke-width="1" />
<line x1="1118" y1="580" x2="1118" y2="537" stroke-width="1" />
<line x1="1114" y1="580" x2="1114" y2="537" stroke-width="1" />
<line x1="1110" y1="580" x2="1110" y2="537" stroke-width="1" />
<line x1="1106" y1="580" x2="1106" y2="537" stroke-width="1" />
<line x1="1102" y1="580" x2="1102" y2="537" stroke-width="1" />
<line x1="1098" y1="580" x2="1098" y2="537" stroke-width="1" />
<line x1="1094" y1="580" x2="1094" y2="537" stroke-width="1" />
<line x1="1090" y1="580" x2="1090" y2="537" stroke-width="1" />
<line x1="1086" y1="580" x2="1086" y2="537" stroke-width="1" />
<line x1="1082" y1="580" x2="1082" y2="537" stroke-width="1" />
<line x1="1078" y1="580" x2="1078" y2="537" stroke-width="1" />
<line x1="1074" y1="580" x2="1074" y2="537" stroke-width="1" />
<line x1="1070" y1="580" x2="1070" y2="537" stroke-width="1" />
<line x1="1066" y1="580" x2="1066" y2="537" stroke-width="1" />
<line x1="1062" y1="580" x2="1062" y2="537" stroke-width="1" />
<line x1="1058" y1="580" x2="1058" y2="537" stroke-width="1" />
<line x1="1054" y1="580" x2="1054" y2="537" stroke-width="1" />
<line x1="1050" y1="580" x2="1050" y2="537" stroke-width="1" />
</g>
<g stroke="#000000" fill="#9B5509" stroke-opacity="1.0" fill-opacity="1.0" transform="scale(0.5)">
<polygon points="1209,537  1045,537  1045,534  1209,534" stroke-width="1" />
<polygon points="1209,544  1209,549  1045,549  1045,544" stroke-width="1" />
<polygon points="1209,556  1209,561  1045,561  1045,556" stroke-width="1" />
<polygon points="1209,568  1209,573  1045,573  1045,568" stroke-width="1" />
<polygon points="1209,580  1045,580  1045,583  1209,583" stroke-width="1" />
</g>
<g stroke="#FFFFFF" fill="#FFFFFF" stroke-opacity="0.8" fill-opacity="0.8" transform="scale(0.5)">
<polygon points="1135,533  1102,533  1102,584  1135,584" stroke-width="1" />
</g>
<g stroke="#0" fill="#FFFFFF" stroke-opacity="1.0" fill-opacity="1.0" transform="scale(0.5)">
<polyline points="1135,534  1135,583" stroke-width="1" fill="none"  />
<polyline points="1135,642  1135,623  1291,623  1372,542  1372,435  1368,435" stroke-width="1" fill="none"  />
<polyline points="1149,668  1138,656  1135,642" stroke-width="1" fill="none"/> <!-- spline -->
<polyline points="1242,729  1240,732  1149,668" stroke-width="1" fill="none"  />
<polyline points="1128,698  1219,762  1217,765" stroke-width="1" fill="none"  />
<polyline points="1106,663  1113,683  1128,698" stroke-width="1" fill="none"/> <!-- spline -->
<polyline points="1296,435  1292,435  1292,479  1275,496  1102,496  1102,623  1106,623  1106,663" stroke-width="1" fill="none"  />
<polyline points="1321,435  1346,435" stroke-width="1" fill="none"  />
</g>
<g stroke="#0" fill="#D0D0D0" stroke-opacity="1.0" fill-opacity="1.0" transform="scale(0.5)">
<polygon points="1342,435  1342,485  1325,485  1325,435  1342,435" stroke-width="1" />
<polygon points="1135,534  1135,529  1209,529  1209,534" stroke-width="1" />
<polygon points="1135,588  1135,583  1209,583  1209,588" stroke-width="1" />
<line x1="1141" y1="623" x2="1141" y2="588" stroke-width="1" />
<line x1="1145" y1="623" x2="1145" y2="588" stroke-width="1" />
<line x1="1149" y1="623" x2="1149" y2="588" stroke-width="1" />
<line x1="1153" y1="623" x2="1153" y2="588" stroke-width="1" />
<line x1="1157" y1="623" x2="1157" y2="588" stroke-width="1" />
<line x1="1161" y1="623" x2="1161" y2="588" stroke-width="1" />
<line x1="1141" y1="529" x2="1141" y2="496" stroke-width="1" />
<line x1="1145" y1="529" x2="1145" y2="496" stroke-width="1" />
<line x1="1149" y1="529" x2="1149" y2="496" stroke-width="1" />
<line x1="1153" y1="529" x2="1153" y2="496" stroke-width="1" />
<line x1="1157" y1="529" x2="1157" y2="496" stroke-width="1" />
<line x1="1161" y1="529" x2="1161" y2="496" stroke-width="1" />
<line x1="1163" y1="678" x2="1142" y2="708" stroke-width="1" />
<line x1="1166.23494434" y1="680.352686791" x2="1145.23494434" y2="710.352686791" stroke-width="1" />
<line x1="1169.46988867" y1="682.705373581" x2="1148.46988867" y2="712.705373581" stroke-width="1" />
<line x1="1172.70483301" y1="685.058060372" x2="1151.70483301" y2="715.058060372" stroke-width="1" />
</g>
<g stroke="#0" fill="none" stroke-opacity="1.0" fill-opacity="1.0" transform="scale(0.5)">
<polyline points="1268,623  1268,633  1233,633  1233,623" stroke-width="1" fill="none"  />
<text x=" 1237" y="631.0" font-family="Arial" font-size=" 10" fill="#0" stroke-width="0">кассы</text>
<polyline points="1270,622  1284,608  1306,608" stroke-width="1" fill="none"  />
<text x=" 1274" y="624.0" font-family="Arial" font-size=" 10" fill="#0" transform="rotate(-22.0  1274  614)" stroke-width="0">кассы</text>
<polyline points="1106,658  1095,658  1095,626  1106,626" stroke-width="1" fill="none"  />
<text x=" 1093" y="665.0" font-family="Arial" font-size=" 10" fill="#0" transform="rotate(-90.0  1093  655)" stroke-width="0">кассы</text>
<polyline points="1209,588  1259,588  1259,580" stroke-width=" 0.5" fill="none"  />
<polygon points="1255,573  1262,573  1262,580  1255,580" stroke-width="1" />
<polyline points="1209,559  1259,534  1259,541" stroke-width=" 0.5" fill="none"  />
<polyline points="1259,534  1298,534  1334,498  1334,485" stroke-width=" 0.5" fill="none"  />
</g>
<g stroke="#009900" fill="none" stroke-opacity="1.0" fill-opacity="1.0" transform="scale(0.5)">
<line x1="1256" y1="569" x2="1261" y2="569" stroke-width="1" />
<line x1="1256" y1="565" x2="1261" y2="565" stroke-width="1" />
<line x1="1256" y1="561" x2="1261" y2="561" stroke-width="1" />
<line x1="1256" y1="557" x2="1261" y2="557" stroke-width="1" />
<line x1="1256" y1="553" x2="1261" y2="553" stroke-width="1" />
<line x1="1256" y1="549" x2="1261" y2="549" stroke-width="1" />
<line x1="1256" y1="545" x2="1261" y2="545" stroke-width="1" />
<line x1="1256" y1="541" x2="1261" y2="541" stroke-width="1" />
</g>
<g stroke="#FF0000" fill="none" stroke-opacity="1.0" fill-opacity="1.0" transform="scale(0.5)">
<polyline points="1309,469  1309,449" marker-end="url(#arrow)" stroke-width="1" fill="none" />
</g>
<g stroke="#009900" fill="none" stroke-opacity="1.0" fill-opacity="1.0" transform="scale(0.5)">
<polyline points="1357,447  1357,468" marker-end="url(#arrow)" stroke-width="1" fill="none" />
<polyline points="1266,559  1245,559" marker-end="url(#arrow)" stroke-width="1" fill="none" />
</g>
<g stroke="#00AFAF" fill="none" stroke-opacity="1.0" fill-opacity="1.0" transform="scale(0.5)">
<text x=" 1212" y="809.0" font-family="Arial" font-size=" 15" fill="#00AFAF" transform="rotate(-55.0  1212  794)" stroke-width="0">'Универмаг "Большой'</text>
<text x=" 1231" y="815.0" font-family="Arial" font-size=" 15" fill="#00AFAF" transform="rotate(-55.0  1231  800)" stroke-width="0">'гостиный двор"'</text>
</g>
<g stroke="#000000" fill="none" stroke-opacity="1.0" fill-opacity="1.0" transform="scale(0.5)">
<polyline points="439,514  431,514  431,635  423,635  423,591" stroke-width="1" fill="none"  />
<polyline points="359,514  367,514  367,635  375,635  375,591" stroke-width="1" fill="none"  />
<line x1="375" y1="613" x2="423" y2="613" stroke-width="1" />
<line x1="375" y1="609" x2="423" y2="609" stroke-width="1" />
<line x1="375" y1="605" x2="423" y2="605" stroke-width="1" />
<line x1="375" y1="601" x2="423" y2="601" stroke-width="1" />
<line x1="375" y1="597" x2="423" y2="597" stroke-width="1" />
</g>
<g stroke="#000000" fill="none" stroke-opacity="1.0" fill-opacity="1.0" transform="scale(0.5)">
<polyline points="375,587  375,579  367,579  367,576" stroke-width="1" fill="none"  />
<polyline points="431,576  431,579  423,579  423,587" stroke-width="1" fill="none"  />
<polyline points="367,538  367,535  431,535  431,538" stroke-width="1" fill="none"  />
</g>
<g stroke="#7F7F7F" fill="none" stroke-opacity="1.0" fill-opacity="1.0" transform="scale(0.5)">
<line x1="429" y1="541" x2="429" y2="573" stroke-width="1" />
<line x1="433" y1="541" x2="433" y2="573" stroke-width="1" />
<line x1="437" y1="541" x2="437" y2="573" stroke-width="1" />
<line x1="441" y1="541" x2="441" y2="573" stroke-width="1" />
<line x1="445" y1="541" x2="445" y2="573" stroke-width="1" />
<line x1="449" y1="541" x2="449" y2="573" stroke-width="1" />
<line x1="453" y1="541" x2="453" y2="573" stroke-width="1" />
<line x1="457" y1="541" x2="457" y2="573" stroke-width="1" />
<line x1="461" y1="541" x2="461" y2="573" stroke-width="1" />
<line x1="465" y1="541" x2="465" y2="573" stroke-width="1" />
</g>
<g stroke="#000000" fill="#9B5509" stroke-opacity="1.0" fill-opacity="1.0" transform="scale(0.5)">
<polygon points="423,538  471,538  471,541  423,541" stroke-width="1" />
<polygon points="423,546  471,546  471,550  423,550" stroke-width="1" />
<polygon points="423,555  471,555  471,559  423,559" stroke-width="1" />
<polygon points="423,564  471,564  471,568  423,568" stroke-width="1" />
<polygon points="423,573  471,573  471,576  423,576" stroke-width="1" />
</g>
<g stroke="#7F7F7F" fill="#9B5509" stroke-opacity="1.0" fill-opacity="1.0" transform="scale(0.5)">
<line x1="333" y1="541" x2="333" y2="573" stroke-width="1" />
<line x1="337" y1="541" x2="337" y2="573" stroke-width="1" />
<line x1="341" y1="541" x2="341" y2="573" stroke-width="1" />
<line x1="345" y1="541" x2="345" y2="573" stroke-width="1" />
<line x1="349" y1="541" x2="349" y2="573" stroke-width="1" />
<line x1="353" y1="541" x2="353" y2="573" stroke-width="1" />
<line x1="357" y1="541" x2="357" y2="573" stroke-width="1" />
<line x1="361" y1="541" x2="361" y2="573" stroke-width="1" />
<line x1="365" y1="541" x2="365" y2="573" stroke-width="1" />
<line x1="369" y1="541" x2="369" y2="573" stroke-width="1" />
</g>
<g stroke="#000000" fill="#9B5509" stroke-opacity="1.0" fill-opacity="1.0" transform="scale(0.5)">
<polygon points="327,538  375,538  375,541  327,541" stroke-width="1" />
<polygon points="327,546  375,546  375,550  327,550" stroke-width="1" />
<polygon points="327,555  375,555  375,559  327,559" stroke-width="1" />
<polygon points="327,564  375,564  375,568  327,568" stroke-width="1" />
<polygon points="327,573  375,573  375,576  327,576" stroke-width="1" />
</g>
<g stroke="#FFFFFF" fill="#FFFFFF" stroke-opacity="0.8" fill-opacity="0.8" transform="scale(0.5)">
<polygon points="363,528  435,528  435,588  363,588" stroke-width="1" />
</g>
<g stroke="#000000" fill="#FFFFFF" stroke-opacity="1.0" fill-opacity="1.0" transform="scale(0.5)">
<polyline points="435,576  435,538" stroke-width="1" fill="none"  />
<polyline points="363,576  363,538" stroke-width="1" fill="none"  />
</g>
<g stroke="#FFFFFF" fill="#FFFFFF" stroke-opacity="0.8" fill-opacity="0.8" transform="scale(0.5)">
<polygon points="438,738  470,738  470,794  438,794" stroke-width="1" />
</g>
<g stroke="#000000" fill="#FFFFFF" stroke-opacity="1.0" fill-opacity="1.0" transform="scale(0.5)">
<line x1="853" y1="569" x2="853" y2="551" stroke-width="1" />
<line x1="849" y1="569" x2="849" y2="551" stroke-width="1" />
<line x1="845" y1="569" x2="845" y2="551" stroke-width="1" />
<line x1="841" y1="569" x2="841" y2="551" stroke-width="1" />
<line x1="837" y1="569" x2="837" y2="551" stroke-width="1" />
<line x1="833" y1="569" x2="833" y2="551" stroke-width="1" />
<line x1="829" y1="569" x2="829" y2="551" stroke-width="1" />
<line x1="825" y1="569" x2="825" y2="551" stroke-width="1" />
<line x1="821" y1="569" x2="821" y2="551" stroke-width="1" />
<line x1="817" y1="569" x2="817" y2="551" stroke-width="1" />
<line x1="708" y1="570" x2="708" y2="551" stroke-width="1" />
<line x1="712" y1="570" x2="712" y2="551" stroke-width="1" />
<line x1="716" y1="570" x2="716" y2="551" stroke-width="1" />
<line x1="720" y1="570" x2="720" y2="551" stroke-width="1" />
<line x1="724" y1="570" x2="724" y2="551" stroke-width="1" />
<line x1="728" y1="570" x2="728" y2="551" stroke-width="1" />
<line x1="732" y1="570" x2="732" y2="551" stroke-width="1" />
<line x1="736" y1="570" x2="736" y2="551" stroke-width="1" />
<line x1="740" y1="570" x2="740" y2="551" stroke-width="1" />
<line x1="744" y1="570" x2="744" y2="551" stroke-width="1" />
<polyline points="855,551  815,551  815,569  855,569" stroke-width="1" fill="none"  />
<polyline points="706,551  746,551  746,570  706,570" stroke-width="1" fill="none"  />
<polyline points="815,628  800,658  800,676" stroke-width="1" fill="none"  />
<polyline points="746,628  763,658  763,677" stroke-width="1" fill="none"  />
<polyline points="800,676  795,697  788,711  766,731  739,743" stroke-width="1" fill="none"/> <!-- spline -->
<polyline points="763,677  759,687  754,694  741,702  726,706" stroke-width="1" fill="none"/> <!-- spline -->
<polyline points="726,706  498,745  498,738  419,738" stroke-width="1" fill="none"  />
<polyline points="739,743  498,786  498,794  419,794" stroke-width="1" fill="none"  />
<line x1="429" y1="738" x2="429" y2="794" stroke-width="1" />
<line x1="433" y1="738" x2="433" y2="794" stroke-width="1" />
<line x1="437" y1="738" x2="437" y2="794" stroke-width="1" />
<line x1="441" y1="738" x2="441" y2="794" stroke-width="1" />
<line x1="445" y1="738" x2="445" y2="794" stroke-width="1" />
<line x1="449" y1="738" x2="449" y2="794" stroke-width="1" />
<line x1="453" y1="738" x2="453" y2="794" stroke-width="1" />
<line x1="419" y1="742" x2="424" y2="742" stroke-width="1" />
<line x1="419" y1="746" x2="424" y2="746" stroke-width="1" />
<line x1="419" y1="750" x2="424" y2="750" stroke-width="1" />
<line x1="419" y1="754" x2="424" y2="754" stroke-width="1" />
<line x1="419" y1="758" x2="424" y2="758" stroke-width="1" />
<line x1="419" y1="762" x2="424" y2="762" stroke-width="1" />
<line x1="419" y1="766" x2="424" y2="766" stroke-width="1" />
<line x1="419" y1="770" x2="424" y2="770" stroke-width="1" />
<line x1="419" y1="774" x2="424" y2="774" stroke-width="1" />
<line x1="419" y1="778" x2="424" y2="778" stroke-width="1" />
<line x1="419" y1="782" x2="424" y2="782" stroke-width="1" />
<line x1="419" y1="786" x2="424" y2="786" stroke-width="1" />
<line x1="419" y1="790" x2="424" y2="790" stroke-width="1" />
<polyline points="692,560  716,560" marker-end="url(#arrow)" stroke-width="1" fill="none" />
<polyline points="887,560  862,560" marker-end="url(#arrow)" stroke-width="1" fill="none" />
<polyline points="782,654  782,671" marker-end="url(#arrow)" stroke-width="1" fill="none" />
<polyline points="534,760  496,767" marker-end="url(#arrow)" stroke-width="1" fill="none" />
<polyline points="426,768  410,768" marker-end="url(#arrow)" stroke-width="1" fill="none" />
</g>
<g stroke="#FFFFFF" fill="#FFFFFF" stroke-opacity="0.1" fill-opacity="0.1" transform="scale(0.5)">
<polygon points="746,597  815,597  815,628  746,628" stroke-width="1" />
</g>
<g stroke="#000000" fill="#FFFFFF" stroke-opacity="0.1" fill-opacity="0.1" transform="scale(0.5)">
<polyline points="746,551  815,551" stroke-width="1" fill="none"  />
<polyline points="746,570  746,628" stroke-width="1" fill="none"  />
<polyline points="815,569  815,628" stroke-width="1" fill="none"  />
</g>
<g stroke="#000000" fill="#777777" stroke-opacity="0.1" fill-opacity="0.1" transform="scale(0.5)">
<polygon points="773,570  792,570  792,618  782,640  773,618" stroke-width="1" />
</g>
<g stroke="#FFFFFF" fill="#FFFFFF" stroke-opacity="0.9" fill-opacity="0.9" transform="scale(0.5)">
<polygon points="547,735  657,716  660,721  650,760  535,780" stroke-width="1" />
<polygon points="638,487  698,487  660,629  600,630" stroke-width="1" />
</g>
<g stroke="#0" fill="#FFFFFF" stroke-opacity="1.0" fill-opacity="1.0" transform="scale(0.5)">
<polyline points="359,964  366,964  366,885  373,885  373,976  365,976  365,1023  479,1023  544,1040  566,958  559,956" stroke-width="1" fill="none"  />
<polyline points="439,964  432,964  432,885  425,885  425,976  486,976  510,982  520,945  527,947" stroke-width="1" fill="none"  />
<line x1="373" y1="974" x2="425" y2="974" stroke-width="1" />
<line x1="373" y1="970" x2="425" y2="970" stroke-width="1" />
<line x1="373" y1="966" x2="425" y2="966" stroke-width="1" />
<line x1="373" y1="962" x2="425" y2="962" stroke-width="1" />
<line x1="373" y1="958" x2="425" y2="958" stroke-width="1" />
<line x1="373" y1="954" x2="425" y2="954" stroke-width="1" />
<line x1="373" y1="950" x2="425" y2="950" stroke-width="1" />
<line x1="373" y1="946" x2="425" y2="946" stroke-width="1" />
<line x1="373" y1="942" x2="425" y2="942" stroke-width="1" />
<line x1="373" y1="938" x2="425" y2="938" stroke-width="1" />
<line x1="373" y1="934" x2="425" y2="934" stroke-width="1" />
<line x1="373" y1="930" x2="425" y2="930" stroke-width="1" />
<line x1="430" y1="976" x2="430" y2="1023" stroke-width="1" />
<line x1="434" y1="976" x2="434" y2="1023" stroke-width="1" />
<line x1="438" y1="976" x2="438" y2="1023" stroke-width="1" />
<line x1="442" y1="976" x2="442" y2="1023" stroke-width="1" />
<line x1="446" y1="976" x2="446" y2="1023" stroke-width="1" />
<line x1="450" y1="976" x2="450" y2="1023" stroke-width="1" />
<line x1="454" y1="976" x2="454" y2="1023" stroke-width="1" />
<line x1="458" y1="976" x2="458" y2="1023" stroke-width="1" />
<line x1="462" y1="976" x2="462" y2="1023" stroke-width="1" />
<line x1="466" y1="976" x2="466" y2="1023" stroke-width="1" />
<line x1="470" y1="976" x2="470" y2="1023" stroke-width="1" />
<line x1="474" y1="976" x2="474" y2="1023" stroke-width="1" />
</g>
<g stroke="#7F7F7F" fill="#FFFFFF" stroke-opacity="1.0" fill-opacity="1.0" transform="scale(0.5)">
<line x1="591" y1="833" x2="561" y2="825" stroke-width="1" />
<line x1="589.973109553" y1="836.865940508" x2="559.973109553" y2="828.865940508" stroke-width="1" />
<line x1="588.946219105" y1="840.731881015" x2="558.946219105" y2="832.731881015" stroke-width="1" />
<line x1="587.919328658" y1="844.597821523" x2="557.919328658" y2="836.597821523" stroke-width="1" />
<line x1="586.892438211" y1="848.463762031" x2="556.892438211" y2="840.463762031" stroke-width="1" />
<line x1="585.865547763" y1="852.329702539" x2="555.865547763" y2="844.329702539" stroke-width="1" />
<line x1="584.838657316" y1="856.195643046" x2="554.838657316" y2="848.195643046" stroke-width="1" />
<line x1="583.811766868" y1="860.061583554" x2="553.811766868" y2="852.061583554" stroke-width="1" />
<line x1="582.784876421" y1="863.927524062" x2="552.784876421" y2="855.927524062" stroke-width="1" />
<line x1="581.757985974" y1="867.793464569" x2="551.757985974" y2="859.793464569" stroke-width="1" />
<line x1="580.731095526" y1="871.659405077" x2="550.731095526" y2="863.659405077" stroke-width="1" />
<line x1="579.704205079" y1="875.525345585" x2="549.704205079" y2="867.525345585" stroke-width="1" />
<line x1="578.677314632" y1="879.391286092" x2="548.677314632" y2="871.391286092" stroke-width="1" />
<line x1="577.650424184" y1="883.2572266" x2="547.650424184" y2="875.2572266" stroke-width="1" />
<line x1="576.623533737" y1="887.123167108" x2="546.623533737" y2="879.123167108" stroke-width="1" />
<line x1="575.59664329" y1="890.989107616" x2="545.59664329" y2="882.989107616" stroke-width="1" />
<line x1="574.569752842" y1="894.855048123" x2="544.569752842" y2="886.855048123" stroke-width="1" />
<line x1="573.542862395" y1="898.720988631" x2="543.542862395" y2="890.720988631" stroke-width="1" />
<line x1="572.515971948" y1="902.586929139" x2="542.515971948" y2="894.586929139" stroke-width="1" />
<line x1="571.4890815" y1="906.452869646" x2="541.4890815" y2="898.452869646" stroke-width="1" />
<line x1="570.462191053" y1="910.318810154" x2="540.462191053" y2="902.318810154" stroke-width="1" />
<line x1="569.435300605" y1="914.184750662" x2="539.435300605" y2="906.184750662" stroke-width="1" />
<line x1="568.408410158" y1="918.05069117" x2="538.408410158" y2="910.05069117" stroke-width="1" />
<line x1="567.381519711" y1="921.916631677" x2="537.381519711" y2="913.916631677" stroke-width="1" />
<line x1="566.354629263" y1="925.782572185" x2="536.354629263" y2="917.782572185" stroke-width="1" />
<line x1="565.327738816" y1="929.648512693" x2="535.327738816" y2="921.648512693" stroke-width="1" />
<line x1="564.300848369" y1="933.5144532" x2="534.300848369" y2="925.5144532" stroke-width="1" />
<line x1="563.273957921" y1="937.380393708" x2="533.273957921" y2="929.380393708" stroke-width="1" />
<line x1="562.247067474" y1="941.246334216" x2="532.247067474" y2="933.246334216" stroke-width="1" />
<line x1="561.220177027" y1="945.112274723" x2="531.220177027" y2="937.112274723" stroke-width="1" />
<line x1="560.193286579" y1="948.978215231" x2="530.193286579" y2="940.978215231" stroke-width="1" />
<line x1="559.166396132" y1="952.844155739" x2="529.166396132" y2="944.844155739" stroke-width="1" />
<line x1="558.139505684" y1="956.710096247" x2="528.139505684" y2="948.710096247" stroke-width="1" />
<line x1="557.112615237" y1="960.576036754" x2="527.112615237" y2="952.576036754" stroke-width="1" />
</g>
<g stroke="#000000" fill="#9B5509" stroke-opacity="1.0" fill-opacity="1.0" transform="scale(0.5)">
<polygon points="563,818  526,957  523,956  560,817" stroke-width="1" />
<polygon points="570,820  574,821  537,960  533,959" stroke-width="1" />
<polygon points="581,823  585,824  548,963  544,962" stroke-width="1" />
<polygon points="592,826  555,965  558,966  595,827" stroke-width="1" />
<polyline points="559,826  548,823  532,795  559,694  587,678  653,430  611,430" stroke-width="1" fill="none"  />
<polyline points="611,411  653,411  663,299  621,299" stroke-width="1" fill="none"  />
<polyline points="621,279  766,279" stroke-width="1" fill="none"  />
<polyline points="766,299  724,299  714,411  756,411" stroke-width="1" fill="none"  />
<polyline points="756,430  714,430  643,693  659,721  632,822  604,838  592,835" stroke-width="1" fill="none"  />
<line x1="613" y1="430" x2="613" y2="411" stroke-width="1" />
<line x1="617" y1="430" x2="617" y2="411" stroke-width="1" />
<line x1="621" y1="430" x2="621" y2="411" stroke-width="1" />
<line x1="625" y1="430" x2="625" y2="411" stroke-width="1" />
<line x1="629" y1="430" x2="629" y2="411" stroke-width="1" />
<line x1="633" y1="430" x2="633" y2="411" stroke-width="1" />
<line x1="637" y1="430" x2="637" y2="411" stroke-width="1" />
<line x1="641" y1="430" x2="641" y2="411" stroke-width="1" />
<line x1="645" y1="430" x2="645" y2="411" stroke-width="1" />
<line x1="649" y1="430" x2="649" y2="411" stroke-width="1" />
<line x1="754" y1="430" x2="754" y2="411" stroke-width="1" />
<line x1="750" y1="430" x2="750" y2="411" stroke-width="1" />
<line x1="746" y1="430" x2="746" y2="411" stroke-width="1" />
<line x1="742" y1="430" x2="742" y2="411" stroke-width="1" />
<line x1="738" y1="430" x2="738" y2="411" stroke-width="1" />
<line x1="734" y1="430" x2="734" y2="411" stroke-width="1" />
<line x1="730" y1="430" x2="730" y2="411" stroke-width="1" />
<line x1="726" y1="430" x2="726" y2="411" stroke-width="1" />
<line x1="722" y1="430" x2="722" y2="411" stroke-width="1" />
<line x1="718" y1="430" x2="718" y2="411" stroke-width="1" />
<line x1="764" y1="299" x2="764" y2="279" stroke-width="1" />
<line x1="760" y1="299" x2="760" y2="279" stroke-width="1" />
<line x1="756" y1="299" x2="756" y2="279" stroke-width="1" />
<line x1="752" y1="299" x2="752" y2="279" stroke-width="1" />
<line x1="748" y1="299" x2="748" y2="279" stroke-width="1" />
<line x1="744" y1="299" x2="744" y2="279" stroke-width="1" />
<line x1="740" y1="299" x2="740" y2="279" stroke-width="1" />
<line x1="736" y1="299" x2="736" y2="279" stroke-width="1" />
<line x1="732" y1="299" x2="732" y2="279" stroke-width="1" />
<line x1="728" y1="299" x2="728" y2="279" stroke-width="1" />
<line x1="623" y1="299" x2="623" y2="279" stroke-width="1" />
<line x1="627" y1="299" x2="627" y2="279" stroke-width="1" />
<line x1="631" y1="299" x2="631" y2="279" stroke-width="1" />
<line x1="635" y1="299" x2="635" y2="279" stroke-width="1" />
<line x1="639" y1="299" x2="639" y2="279" stroke-width="1" />
<line x1="643" y1="299" x2="643" y2="279" stroke-width="1" />
<line x1="647" y1="299" x2="647" y2="279" stroke-width="1" />
<line x1="651" y1="299" x2="651" y2="279" stroke-width="1" />
<line x1="655" y1="299" x2="655" y2="279" stroke-width="1" />
<line x1="659" y1="299" x2="659" y2="279" stroke-width="1" />
</g>
<g stroke="#000000" fill="none" stroke-opacity="1.0" fill-opacity="1.0" transform="scale(0.5)">
<polyline points="546,743  550,744" stroke-width=" 0.5" fill="none"  />
<polyline points="596,756  601,757  583,823" stroke-width=" 0.5" fill="none"  />
<polygon points="550,747  551,742  556,743  555,748" stroke-width="1" />
</g>
<g stroke="#009900" fill="none" stroke-opacity="1.0" fill-opacity="1.0" transform="scale(0.5)">
<line x1="561" y1="745" x2="560" y2="749" stroke-width="1" />
<line x1="564.87397173" y1="745.996164159" x2="563.87397173" y2="749.996164159" stroke-width="1" />
<line x1="568.747943461" y1="746.992328318" x2="567.747943461" y2="750.992328318" stroke-width="1" />
<line x1="572.621915191" y1="747.988492478" x2="571.621915191" y2="751.988492478" stroke-width="1" />
<line x1="576.495886922" y1="748.984656637" x2="575.495886922" y2="752.984656637" stroke-width="1" />
<line x1="580.369858652" y1="749.980820796" x2="579.369858652" y2="753.980820796" stroke-width="1" />
<line x1="584.243830382" y1="750.976984955" x2="583.243830382" y2="754.976984955" stroke-width="1" />
<line x1="588.117802113" y1="751.973149115" x2="587.117802113" y2="755.973149115" stroke-width="1" />
<line x1="591.991773843" y1="752.969313274" x2="590.991773843" y2="756.969313274" stroke-width="1" />
<line x1="595.865745573" y1="753.965477433" x2="594.865745573" y2="757.965477433" stroke-width="1" />
</g>
<g stroke="#000000" fill="none" stroke-opacity="1.0" fill-opacity="1.0" transform="scale(0.5)">
<polyline points="549,733  540,731  548,701  557,703" stroke-width="1" fill="none"  />
<text x=" 539" y="738.0" font-family="Arial" font-size=" 10" fill="#000000" transform="rotate(-75.0  539  728)" stroke-width="0">кассы</text>
</g>
<g stroke="#FF0000" fill="none" stroke-opacity="1.0" fill-opacity="1.0" transform="scale(0.5)">
<polyline points="626,674  634,644" marker-end="url(#arrow)" stroke-width="1" fill="none" />
</g>
<g stroke="#009900" fill="none" stroke-opacity="1.0" fill-opacity="1.0" transform="scale(0.5)">
<polyline points="611,638  603,668" marker-end="url(#arrow)" stroke-width="1" fill="none" />
</g>
<g stroke="#000000" fill="none" stroke-opacity="1.0" fill-opacity="1.0" transform="scale(0.5)">
<polyline points="480,560  500,560" marker-end="url(#arrow)" stroke-width="1" fill="none" />
</g>
<g stroke="#00AFAF" fill="none" stroke-opacity="1.0" fill-opacity="1.0" transform="scale(0.5)">
<text x=" 483" y="358.0" font-family="Arial" font-size=" 15" fill="#00AFAF" stroke-width="0">Невский проспект</text>
<text x=" 685" y="256.0" font-family="Arial" font-size=" 15" fill="#00AFAF" transform="rotate(-90.0  685  241)" stroke-width="0">Михайловская улица</text>
<text x=" 1356" y="706.0" font-family="Arial" font-size=" 15" fill="#00AFAF" transform="rotate(-55.0  1356  691)" stroke-width="0">Садовая улица</text>
<text x=" -39" y="456.0" font-family="Arial" font-size=" 15" fill="#00AFAF" transform="rotate(-90.0  -39  441)" stroke-width="0">набережная канала Грибоедова</text>
<text x=" 517" y="737.0" font-family="Arial" font-size=" 15" fill="#00AFAF" transform="rotate(-75.0  517  722)" stroke-width="0">Думская улица</text>
<text x=" 650" y="885.0" font-family="Arial" font-size=" 15" fill="#00AFAF" transform="rotate(-75.0  650  870)" stroke-width="0">Перинная линия</text>
</g>
</g>
</g>
</svg>
