<?xml version="1.0" encoding="utf-8" ?>
<svg baseProfile="full" height="100%" version="1.1" width="100%" xmlns="http://www.w3.org/2000/svg" xmlns:ev="http://www.w3.org/2001/xml-events" xmlns:xlink="http://www.w3.org/1999/xlink">
  <defs>
    <marker id="id430" markerHeight="3" markerUnits="strokeWidth" markerWidth="4" orient="auto" refX="0" refY="5" viewBox="0,0,10,10">
      <path d="M 0 0 L 10 5 L 0 10 z"/>
    </marker>
  </defs>
  <g transform="scale(0.5)">
    <rect fill="none" height="900" stroke="none" stroke-width="0" width="1200" x="0" y="0"/>
    <g transform="rotate(-20.0,600,450)">
      <polygon fill="#ea7125" points="808,261 808,231 1258,231 1258,261" stroke="#000000" stroke-width="1"/>
      <polygon fill="#ea7125" points="808,341 808,371 1258,371 1258,341" stroke="#000000" stroke-width="1"/>
      <text fill="#ea7125" font-family="Arial" font-size="20" stroke="none" stroke-width="0" x="811" y="227.0">&lt;&lt; Площадь Александра Невского-II</text>
      <text fill="#ea7125" font-family="Arial" font-size="20" stroke="none" stroke-width="0" x="1141" y="391.0">Ладожская &gt;&gt;</text>
      <text fill="#ea7125" font-family="Arial" font-size="25" stroke="none" stroke-width="0" x="920" y="307.0">Новочеркасская</text>
      <polyline fill="none" points="1258,341 1258,331 1221,331 1221,271 1258,271 1258,261" stroke="#000000" stroke-width="1"/>
      <polyline fill="none" points="808,261 808,279 752,279 752,283" stroke="#000000" stroke-width="1"/>
      <polyline fill="none" points="808,341 808,327 752,327 752,323" stroke="#000000" stroke-width="1"/>
      <line stroke="#7f7f7f" stroke-width="1" x1="754" x2="754" y1="320" y2="286"/>
      <line stroke="#7f7f7f" stroke-width="1" x1="750" x2="750" y1="320" y2="286"/>
      <line stroke="#7f7f7f" stroke-width="1" x1="746" x2="746" y1="320" y2="286"/>
      <line stroke="#7f7f7f" stroke-width="1" x1="742" x2="742" y1="320" y2="286"/>
      <line stroke="#7f7f7f" stroke-width="1" x1="738" x2="738" y1="320" y2="286"/>
      <line stroke="#7f7f7f" stroke-width="1" x1="734" x2="734" y1="320" y2="286"/>
      <line stroke="#7f7f7f" stroke-width="1" x1="730" x2="730" y1="320" y2="286"/>
      <line stroke="#7f7f7f" stroke-width="1" x1="726" x2="726" y1="320" y2="286"/>
      <line stroke="#7f7f7f" stroke-width="1" x1="722" x2="722" y1="320" y2="286"/>
      <line stroke="#7f7f7f" stroke-width="1" x1="718" x2="718" y1="320" y2="286"/>
      <line stroke="#7f7f7f" stroke-width="1" x1="714" x2="714" y1="320" y2="286"/>
      <line stroke="#7f7f7f" stroke-width="1" x1="710" x2="710" y1="320" y2="286"/>
      <line stroke="#7f7f7f" stroke-width="1" x1="706" x2="706" y1="320" y2="286"/>
      <line stroke="#7f7f7f" stroke-width="1" x1="702" x2="702" y1="320" y2="286"/>
      <line stroke="#7f7f7f" stroke-width="1" x1="698" x2="698" y1="320" y2="286"/>
      <line stroke="#7f7f7f" stroke-width="1" x1="694" x2="694" y1="320" y2="286"/>
      <line stroke="#7f7f7f" stroke-width="1" x1="690" x2="690" y1="320" y2="286"/>
      <line stroke="#7f7f7f" stroke-width="1" x1="686" x2="686" y1="320" y2="286"/>
      <line stroke="#7f7f7f" stroke-width="1" x1="682" x2="682" y1="320" y2="286"/>
      <line stroke="#7f7f7f" stroke-width="1" x1="678" x2="678" y1="320" y2="286"/>
      <line stroke="#7f7f7f" stroke-width="1" x1="674" x2="674" y1="320" y2="286"/>
      <line stroke="#7f7f7f" stroke-width="1" x1="670" x2="670" y1="320" y2="286"/>
      <line stroke="#7f7f7f" stroke-width="1" x1="666" x2="666" y1="320" y2="286"/>
      <line stroke="#7f7f7f" stroke-width="1" x1="662" x2="662" y1="320" y2="286"/>
      <line stroke="#7f7f7f" stroke-width="1" x1="658" x2="658" y1="320" y2="286"/>
      <line stroke="#7f7f7f" stroke-width="1" x1="654" x2="654" y1="320" y2="286"/>
      <line stroke="#7f7f7f" stroke-width="1" x1="650" x2="650" y1="320" y2="286"/>
      <line stroke="#7f7f7f" stroke-width="1" x1="646" x2="646" y1="320" y2="286"/>
      <line stroke="#7f7f7f" stroke-width="1" x1="642" x2="642" y1="320" y2="286"/>
      <line stroke="#7f7f7f" stroke-width="1" x1="638" x2="638" y1="320" y2="286"/>
      <line stroke="#7f7f7f" stroke-width="1" x1="634" x2="634" y1="320" y2="286"/>
      <line stroke="#7f7f7f" stroke-width="1" x1="630" x2="630" y1="320" y2="286"/>
      <line stroke="#7f7f7f" stroke-width="1" x1="626" x2="626" y1="320" y2="286"/>
      <line stroke="#7f7f7f" stroke-width="1" x1="622" x2="622" y1="320" y2="286"/>
      <line stroke="#7f7f7f" stroke-width="1" x1="618" x2="618" y1="320" y2="286"/>
      <line stroke="#7f7f7f" stroke-width="1" x1="614" x2="614" y1="320" y2="286"/>
      <line stroke="#7f7f7f" stroke-width="1" x1="610" x2="610" y1="320" y2="286"/>
      <line stroke="#7f7f7f" stroke-width="1" x1="606" x2="606" y1="320" y2="286"/>
      <line stroke="#7f7f7f" stroke-width="1" x1="602" x2="602" y1="320" y2="286"/>
      <line stroke="#7f7f7f" stroke-width="1" x1="598" x2="598" y1="320" y2="286"/>
      <line stroke="#7f7f7f" stroke-width="1" x1="594" x2="594" y1="320" y2="286"/>
      <line stroke="#7f7f7f" stroke-width="1" x1="590" x2="590" y1="320" y2="286"/>
      <line stroke="#7f7f7f" stroke-width="1" x1="586" x2="586" y1="320" y2="286"/>
      <line stroke="#7f7f7f" stroke-width="1" x1="582" x2="582" y1="320" y2="286"/>
      <line stroke="#7f7f7f" stroke-width="1" x1="578" x2="578" y1="320" y2="286"/>
      <line stroke="#7f7f7f" stroke-width="1" x1="574" x2="574" y1="320" y2="286"/>
      <line stroke="#7f7f7f" stroke-width="1" x1="570" x2="570" y1="320" y2="286"/>
      <line stroke="#7f7f7f" stroke-width="1" x1="566" x2="566" y1="320" y2="286"/>
      <line stroke="#7f7f7f" stroke-width="1" x1="562" x2="562" y1="320" y2="286"/>
      <line stroke="#7f7f7f" stroke-width="1" x1="558" x2="558" y1="320" y2="286"/>
      <line stroke="#7f7f7f" stroke-width="1" x1="554" x2="554" y1="320" y2="286"/>
      <line stroke="#7f7f7f" stroke-width="1" x1="550" x2="550" y1="320" y2="286"/>
      <line stroke="#7f7f7f" stroke-width="1" x1="546" x2="546" y1="320" y2="286"/>
      <line stroke="#7f7f7f" stroke-width="1" x1="542" x2="542" y1="320" y2="286"/>
      <line stroke="#7f7f7f" stroke-width="1" x1="538" x2="538" y1="320" y2="286"/>
      <line stroke="#7f7f7f" stroke-width="1" x1="534" x2="534" y1="320" y2="286"/>
      <line stroke="#7f7f7f" stroke-width="1" x1="530" x2="530" y1="320" y2="286"/>
      <line stroke="#7f7f7f" stroke-width="1" x1="526" x2="526" y1="320" y2="286"/>
      <line stroke="#7f7f7f" stroke-width="1" x1="522" x2="522" y1="320" y2="286"/>
      <line stroke="#7f7f7f" stroke-width="1" x1="518" x2="518" y1="320" y2="286"/>
      <line stroke="#7f7f7f" stroke-width="1" x1="514" x2="514" y1="320" y2="286"/>
      <line stroke="#7f7f7f" stroke-width="1" x1="510" x2="510" y1="320" y2="286"/>
      <line stroke="#7f7f7f" stroke-width="1" x1="506" x2="506" y1="320" y2="286"/>
      <line stroke="#7f7f7f" stroke-width="1" x1="502" x2="502" y1="320" y2="286"/>
      <line stroke="#7f7f7f" stroke-width="1" x1="498" x2="498" y1="320" y2="286"/>
      <line stroke="#7f7f7f" stroke-width="1" x1="494" x2="494" y1="320" y2="286"/>
      <line stroke="#7f7f7f" stroke-width="1" x1="490" x2="490" y1="320" y2="286"/>
      <line stroke="#7f7f7f" stroke-width="1" x1="486" x2="486" y1="320" y2="286"/>
      <line stroke="#7f7f7f" stroke-width="1" x1="482" x2="482" y1="320" y2="286"/>
      <line stroke="#7f7f7f" stroke-width="1" x1="478" x2="478" y1="320" y2="286"/>
      <line stroke="#7f7f7f" stroke-width="1" x1="474" x2="474" y1="320" y2="286"/>
      <line stroke="#7f7f7f" stroke-width="1" x1="470" x2="470" y1="320" y2="286"/>
      <line stroke="#7f7f7f" stroke-width="1" x1="466" x2="466" y1="320" y2="286"/>
      <line stroke="#7f7f7f" stroke-width="1" x1="462" x2="462" y1="320" y2="286"/>
      <line stroke="#7f7f7f" stroke-width="1" x1="458" x2="458" y1="320" y2="286"/>
      <line stroke="#7f7f7f" stroke-width="1" x1="454" x2="454" y1="320" y2="286"/>
      <line stroke="#7f7f7f" stroke-width="1" x1="450" x2="450" y1="320" y2="286"/>
      <line stroke="#7f7f7f" stroke-width="1" x1="446" x2="446" y1="320" y2="286"/>
      <line stroke="#7f7f7f" stroke-width="1" x1="442" x2="442" y1="320" y2="286"/>
      <polygon fill="#9b5509" points="761,286 435,286 435,283 761,283" stroke="#000000" stroke-width="1"/>
      <polygon fill="#9b5509" points="761,294 761,299 435,299 435,294" stroke="#000000" stroke-width="1"/>
      <polygon fill="#9b5509" points="761,307 761,312 435,312 435,307" stroke="#000000" stroke-width="1"/>
      <polygon fill="#9b5509" points="761,320 435,320 435,323 761,323" stroke="#000000" stroke-width="1"/>
    </g>
    <g fill="#9b5509" fill-opacity="0.8" stroke="#000000" stroke-opacity="0.8" transform="rotate(-20.0,600,450)">
      <polygon fill="#ffffff" points="625,282 677,282 677,324 625,324" stroke="#ffffff" stroke-width="1"/>
      <polygon fill="#cccccc" points="254,348 254,421 340,507 490,507 490,471 531,471 625,377 625,223 495,93 344,93 254,183 254,258 443,258 452,267 505,267 505,339 451,339 442,348" stroke="#cccccc" stroke-width="1"/>
    </g>
    <g fill="#cccccc" fill-opacity="1.0" stroke="#cccccc" stroke-opacity="1.0" transform="rotate(-20.0,600,450)">
      <polyline fill="none" points="505,267 505,339 451,339 442,348 254,348 254,421 340,507 490,507 490,471 531,471 625,377 625,223 495,93 344,93 254,183 254,258 443,258 452,267 505,267" stroke="#000000" stroke-width="1"/>
      <line stroke="#000000" stroke-width="1" x1="308" x2="308" y1="258" y2="348"/>
      <line stroke="#000000" stroke-width="1" x1="304" x2="304" y1="258" y2="348"/>
      <line stroke="#000000" stroke-width="1" x1="300" x2="300" y1="258" y2="348"/>
      <line stroke="#000000" stroke-width="1" x1="296" x2="296" y1="258" y2="348"/>
      <line stroke="#000000" stroke-width="1" x1="292" x2="292" y1="258" y2="348"/>
      <polyline fill="none" points="162,374 204,374 204,231 162,231" stroke="#000000" stroke-width="1"/>
      <polyline fill="none" points="162,180 203,180 340,43 340,1" stroke="#000000" stroke-width="1"/>
      <polyline fill="none" points="369,1 369,43 394,43 394,1" stroke="#000000" stroke-width="1"/>
      <polyline fill="none" points="414,1 414,43 443,43 443,1" stroke="#000000" stroke-width="1"/>
      <polyline fill="none" points="463,1 463,43 488,43 488,1" stroke="#000000" stroke-width="1"/>
      <polyline fill="none" points="517,1 517,43 677,203 719,203" stroke="#000000" stroke-width="1"/>
      <polyline fill="none" points="719,228 677,228 677,377 719,377" stroke="#000000" stroke-width="1"/>
      <polyline fill="none" points="719,402 677,402 517,562 517,605" stroke="#000000" stroke-width="1"/>
      <polyline fill="none" points="488,605 488,563 463,563 463,605" stroke="#000000" stroke-width="1"/>
      <polyline fill="none" points="443,605 443,563 414,563 414,605" stroke="#000000" stroke-width="1"/>
      <polyline fill="none" points="394,605 394,563 369,563 369,605" stroke="#000000" stroke-width="1"/>
      <polyline fill="none" points="340,605 340,561 204,424 161,424" stroke="#000000" stroke-width="1"/>
      <line stroke="#000000" stroke-width="1" x1="164" x2="164" y1="231" y2="180"/>
      <line stroke="#000000" stroke-width="1" x1="168" x2="168" y1="231" y2="180"/>
      <line stroke="#000000" stroke-width="1" x1="172" x2="172" y1="231" y2="180"/>
      <line stroke="#000000" stroke-width="1" x1="176" x2="176" y1="231" y2="180"/>
      <line stroke="#000000" stroke-width="1" x1="180" x2="180" y1="231" y2="180"/>
      <line stroke="#000000" stroke-width="1" x1="184" x2="184" y1="231" y2="180"/>
      <line stroke="#000000" stroke-width="1" x1="188" x2="188" y1="231" y2="180"/>
      <line stroke="#000000" stroke-width="1" x1="192" x2="192" y1="231" y2="180"/>
      <line stroke="#000000" stroke-width="1" x1="196" x2="196" y1="231" y2="180"/>
      <line stroke="#000000" stroke-width="1" x1="200" x2="200" y1="231" y2="180"/>
      <line stroke="#000000" stroke-width="1" x1="164" x2="164" y1="374" y2="424"/>
      <line stroke="#000000" stroke-width="1" x1="168" x2="168" y1="374" y2="424"/>
      <line stroke="#000000" stroke-width="1" x1="172" x2="172" y1="374" y2="424"/>
      <line stroke="#000000" stroke-width="1" x1="176" x2="176" y1="374" y2="424"/>
      <line stroke="#000000" stroke-width="1" x1="180" x2="180" y1="374" y2="424"/>
      <line stroke="#000000" stroke-width="1" x1="184" x2="184" y1="374" y2="424"/>
      <line stroke="#000000" stroke-width="1" x1="188" x2="188" y1="374" y2="424"/>
      <line stroke="#000000" stroke-width="1" x1="192" x2="192" y1="374" y2="424"/>
      <line stroke="#000000" stroke-width="1" x1="196" x2="196" y1="374" y2="424"/>
      <line stroke="#000000" stroke-width="1" x1="200" x2="200" y1="374" y2="424"/>
      <line stroke="#000000" stroke-width="1" x1="340" x2="369" y1="603" y2="603"/>
      <line stroke="#000000" stroke-width="1" x1="340" x2="369" y1="599" y2="599"/>
      <line stroke="#000000" stroke-width="1" x1="340" x2="369" y1="595" y2="595"/>
      <line stroke="#000000" stroke-width="1" x1="340" x2="369" y1="591" y2="591"/>
      <line stroke="#000000" stroke-width="1" x1="340" x2="369" y1="587" y2="587"/>
      <line stroke="#000000" stroke-width="1" x1="340" x2="369" y1="583" y2="583"/>
      <line stroke="#000000" stroke-width="1" x1="340" x2="369" y1="579" y2="579"/>
      <line stroke="#000000" stroke-width="1" x1="340" x2="369" y1="575" y2="575"/>
      <line stroke="#000000" stroke-width="1" x1="340" x2="369" y1="571" y2="571"/>
      <line stroke="#000000" stroke-width="1" x1="340" x2="369" y1="567" y2="567"/>
      <line stroke="#000000" stroke-width="1" x1="394" x2="414" y1="603" y2="603"/>
      <line stroke="#000000" stroke-width="1" x1="394" x2="414" y1="599" y2="599"/>
      <line stroke="#000000" stroke-width="1" x1="394" x2="414" y1="595" y2="595"/>
      <line stroke="#000000" stroke-width="1" x1="394" x2="414" y1="591" y2="591"/>
      <line stroke="#000000" stroke-width="1" x1="394" x2="414" y1="587" y2="587"/>
      <line stroke="#000000" stroke-width="1" x1="394" x2="414" y1="583" y2="583"/>
      <line stroke="#000000" stroke-width="1" x1="394" x2="414" y1="579" y2="579"/>
      <line stroke="#000000" stroke-width="1" x1="394" x2="414" y1="575" y2="575"/>
      <line stroke="#000000" stroke-width="1" x1="394" x2="414" y1="571" y2="571"/>
      <line stroke="#000000" stroke-width="1" x1="394" x2="414" y1="567" y2="567"/>
      <line stroke="#000000" stroke-width="1" x1="443" x2="463" y1="603" y2="603"/>
      <line stroke="#000000" stroke-width="1" x1="443" x2="463" y1="599" y2="599"/>
      <line stroke="#000000" stroke-width="1" x1="443" x2="463" y1="595" y2="595"/>
      <line stroke="#000000" stroke-width="1" x1="443" x2="463" y1="591" y2="591"/>
      <line stroke="#000000" stroke-width="1" x1="443" x2="463" y1="587" y2="587"/>
      <line stroke="#000000" stroke-width="1" x1="443" x2="463" y1="583" y2="583"/>
      <line stroke="#000000" stroke-width="1" x1="443" x2="463" y1="579" y2="579"/>
      <line stroke="#000000" stroke-width="1" x1="443" x2="463" y1="575" y2="575"/>
      <line stroke="#000000" stroke-width="1" x1="443" x2="463" y1="571" y2="571"/>
      <line stroke="#000000" stroke-width="1" x1="443" x2="463" y1="567" y2="567"/>
      <line stroke="#000000" stroke-width="1" x1="488" x2="517" y1="603" y2="603"/>
      <line stroke="#000000" stroke-width="1" x1="488" x2="517" y1="599" y2="599"/>
      <line stroke="#000000" stroke-width="1" x1="488" x2="517" y1="595" y2="595"/>
      <line stroke="#000000" stroke-width="1" x1="488" x2="517" y1="591" y2="591"/>
      <line stroke="#000000" stroke-width="1" x1="488" x2="517" y1="587" y2="587"/>
      <line stroke="#000000" stroke-width="1" x1="488" x2="517" y1="583" y2="583"/>
      <line stroke="#000000" stroke-width="1" x1="488" x2="517" y1="579" y2="579"/>
      <line stroke="#000000" stroke-width="1" x1="488" x2="517" y1="575" y2="575"/>
      <line stroke="#000000" stroke-width="1" x1="488" x2="517" y1="571" y2="571"/>
      <line stroke="#000000" stroke-width="1" x1="488" x2="517" y1="567" y2="567"/>
      <line stroke="#000000" stroke-width="1" x1="717" x2="717" y1="402" y2="377"/>
      <line stroke="#000000" stroke-width="1" x1="713" x2="713" y1="402" y2="377"/>
      <line stroke="#000000" stroke-width="1" x1="709" x2="709" y1="402" y2="377"/>
      <line stroke="#000000" stroke-width="1" x1="705" x2="705" y1="402" y2="377"/>
      <line stroke="#000000" stroke-width="1" x1="701" x2="701" y1="402" y2="377"/>
      <line stroke="#000000" stroke-width="1" x1="697" x2="697" y1="402" y2="377"/>
      <line stroke="#000000" stroke-width="1" x1="693" x2="693" y1="402" y2="377"/>
      <line stroke="#000000" stroke-width="1" x1="689" x2="689" y1="402" y2="377"/>
      <line stroke="#000000" stroke-width="1" x1="685" x2="685" y1="402" y2="377"/>
      <line stroke="#000000" stroke-width="1" x1="681" x2="681" y1="402" y2="377"/>
      <line stroke="#000000" stroke-width="1" x1="717" x2="717" y1="228" y2="203"/>
      <line stroke="#000000" stroke-width="1" x1="713" x2="713" y1="228" y2="203"/>
      <line stroke="#000000" stroke-width="1" x1="709" x2="709" y1="228" y2="203"/>
      <line stroke="#000000" stroke-width="1" x1="705" x2="705" y1="228" y2="203"/>
      <line stroke="#000000" stroke-width="1" x1="701" x2="701" y1="228" y2="203"/>
      <line stroke="#000000" stroke-width="1" x1="697" x2="697" y1="228" y2="203"/>
      <line stroke="#000000" stroke-width="1" x1="693" x2="693" y1="228" y2="203"/>
      <line stroke="#000000" stroke-width="1" x1="689" x2="689" y1="228" y2="203"/>
      <line stroke="#000000" stroke-width="1" x1="685" x2="685" y1="228" y2="203"/>
      <line stroke="#000000" stroke-width="1" x1="681" x2="681" y1="228" y2="203"/>
      <line stroke="#000000" stroke-width="1" x1="488" x2="517" y1="3" y2="3"/>
      <line stroke="#000000" stroke-width="1" x1="488" x2="517" y1="7" y2="7"/>
      <line stroke="#000000" stroke-width="1" x1="488" x2="517" y1="11" y2="11"/>
      <line stroke="#000000" stroke-width="1" x1="488" x2="517" y1="15" y2="15"/>
      <line stroke="#000000" stroke-width="1" x1="488" x2="517" y1="19" y2="19"/>
      <line stroke="#000000" stroke-width="1" x1="488" x2="517" y1="23" y2="23"/>
      <line stroke="#000000" stroke-width="1" x1="488" x2="517" y1="27" y2="27"/>
      <line stroke="#000000" stroke-width="1" x1="488" x2="517" y1="31" y2="31"/>
      <line stroke="#000000" stroke-width="1" x1="488" x2="517" y1="35" y2="35"/>
      <line stroke="#000000" stroke-width="1" x1="488" x2="517" y1="39" y2="39"/>
      <line stroke="#000000" stroke-width="1" x1="443" x2="463" y1="3" y2="3"/>
      <line stroke="#000000" stroke-width="1" x1="443" x2="463" y1="7" y2="7"/>
      <line stroke="#000000" stroke-width="1" x1="443" x2="463" y1="11" y2="11"/>
      <line stroke="#000000" stroke-width="1" x1="443" x2="463" y1="15" y2="15"/>
      <line stroke="#000000" stroke-width="1" x1="443" x2="463" y1="19" y2="19"/>
      <line stroke="#000000" stroke-width="1" x1="443" x2="463" y1="23" y2="23"/>
      <line stroke="#000000" stroke-width="1" x1="443" x2="463" y1="27" y2="27"/>
      <line stroke="#000000" stroke-width="1" x1="443" x2="463" y1="31" y2="31"/>
      <line stroke="#000000" stroke-width="1" x1="443" x2="463" y1="35" y2="35"/>
      <line stroke="#000000" stroke-width="1" x1="443" x2="463" y1="39" y2="39"/>
      <line stroke="#000000" stroke-width="1" x1="394" x2="414" y1="3" y2="3"/>
      <line stroke="#000000" stroke-width="1" x1="394" x2="414" y1="7" y2="7"/>
      <line stroke="#000000" stroke-width="1" x1="394" x2="414" y1="11" y2="11"/>
      <line stroke="#000000" stroke-width="1" x1="394" x2="414" y1="15" y2="15"/>
      <line stroke="#000000" stroke-width="1" x1="394" x2="414" y1="19" y2="19"/>
      <line stroke="#000000" stroke-width="1" x1="394" x2="414" y1="23" y2="23"/>
      <line stroke="#000000" stroke-width="1" x1="394" x2="414" y1="27" y2="27"/>
      <line stroke="#000000" stroke-width="1" x1="394" x2="414" y1="31" y2="31"/>
      <line stroke="#000000" stroke-width="1" x1="394" x2="414" y1="35" y2="35"/>
      <line stroke="#000000" stroke-width="1" x1="394" x2="414" y1="39" y2="39"/>
      <line stroke="#000000" stroke-width="1" x1="340" x2="369" y1="3" y2="3"/>
      <line stroke="#000000" stroke-width="1" x1="340" x2="369" y1="7" y2="7"/>
      <line stroke="#000000" stroke-width="1" x1="340" x2="369" y1="11" y2="11"/>
      <line stroke="#000000" stroke-width="1" x1="340" x2="369" y1="15" y2="15"/>
      <line stroke="#000000" stroke-width="1" x1="340" x2="369" y1="19" y2="19"/>
      <line stroke="#000000" stroke-width="1" x1="340" x2="369" y1="23" y2="23"/>
      <line stroke="#000000" stroke-width="1" x1="340" x2="369" y1="27" y2="27"/>
      <line stroke="#000000" stroke-width="1" x1="340" x2="369" y1="31" y2="31"/>
      <line stroke="#000000" stroke-width="1" x1="340" x2="369" y1="35" y2="35"/>
      <line stroke="#000000" stroke-width="1" x1="340" x2="369" y1="39" y2="39"/>
      <polyline fill="none" points="362,348 362,356 328,356 328,348" stroke="#000000" stroke-width="1"/>
      <text fill="#000000" font-family="Arial" font-size="10" stroke="none" stroke-width="0" x="333" y="355.0">кассы</text>
      <polyline fill="none" points="435,294 393,294 393,304" stroke="#000000" stroke-width="0.5"/>
      <polyline fill="none" points="393,340 393,348" stroke="#000000" stroke-width="0.5"/>
      <line stroke="#009900" stroke-width="1" x1="390" x2="396" y1="304" y2="304"/>
      <line stroke="#009900" stroke-width="1" x1="390" x2="396" y1="308" y2="308"/>
      <line stroke="#009900" stroke-width="1" x1="390" x2="396" y1="312" y2="312"/>
      <line stroke="#009900" stroke-width="1" x1="390" x2="396" y1="316" y2="316"/>
      <line stroke="#009900" stroke-width="1" x1="390" x2="396" y1="320" y2="320"/>
      <line stroke="#009900" stroke-width="1" x1="390" x2="396" y1="324" y2="324"/>
      <line stroke="#009900" stroke-width="1" x1="390" x2="396" y1="328" y2="328"/>
      <line stroke="#009900" stroke-width="1" x1="390" x2="396" y1="332" y2="332"/>
      <line stroke="#009900" stroke-width="1" x1="390" x2="396" y1="336" y2="336"/>
      <line stroke="#009900" stroke-width="1" x1="390" x2="396" y1="340" y2="340"/>
      <polyline fill="none" marker-end="url(#id430)" points="344,276 329,276" stroke="#ff0000" stroke-width="1"/>
      <polyline fill="none" marker-end="url(#id430)" points="328,330 345,330" stroke="#009900" stroke-width="1"/>
      <text fill="#00afaf" font-family="Arial" font-size="15" stroke="none" stroke-width="0" x="26" y="301.0">Заневский проспект</text>
      <text fill="#00afaf" font-family="Arial" font-size="15" stroke="none" stroke-width="0" transform="rotate(90.0,435,666)" x="435" y="681.0">Новочеркасский проспект</text>
    </g>
  </g>
</svg>
