<?xml version="1.0" encoding="utf-8" ?>
<svg baseProfile="full" height="760.0" version="1.1" width="500.0" xmlns="http://www.w3.org/2000/svg" xmlns:ev="http://www.w3.org/2001/xml-events" xmlns:xlink="http://www.w3.org/1999/xlink">
  <defs>
    <marker id="id431" markerHeight="3" markerUnits="strokeWidth" markerWidth="4" orient="auto" refX="0" refY="5" viewBox="0,0,10,10">
      <path d="M 0 0 L 10 5 L 0 10 z"/>
    </marker>
  </defs>
  <g>
    <rect fill="none" height="760.0" stroke="none" stroke-width="0" width="500.0" x="0.0" y="0.0"/>
    <g transform="rotate(-80.0,250.0,380.0)">
      <polygon fill="#047c54" points="180.0,419.0 180.0,449.0 630.0,449.0 630.0,419.0" stroke="#000000" stroke-width="1"/>
      <polygon fill="#047c54" points="180.0,519.0 180.0,549.0 630.0,549.0 630.0,519.0" stroke="#000000" stroke-width="1"/>
      <text fill="#047c54" font-family="Arial" font-size="25.0" stroke="none" stroke-width="0" x="351.0" y="493.0">Обухово</text>
      <text fill="#047c54" font-family="Arial" font-size="15.0" stroke="none" stroke-width="0" x="518.0" y="563.0">Пролетарская &gt;&gt;</text>
      <text fill="#047c54" font-family="Arial" font-size="15.0" stroke="none" stroke-width="0" x="181.0" y="416.0">&lt;&lt; Рыбацкое</text>
      <polyline fill="none" points="630.0,449.0 630.0,459.0 587.0,459.0 587.0,509.0 630.0,509.0 630.0,519.0" stroke="#000000" stroke-width="1"/>
      <polygon fill="#cccccc" points="-43.0,449.0 -26.0,466.0 -29.0,473.0 -30.0,483.0 -30.0,491.0 -27.0,499.0 -24.0,506.0 -18.0,513.0 -12.0,519.0 -3.0,523.0 -3.0,544.0 -12.0,535.0 -9.0,532.0 -31.0,510.0 -34.0,513.0 -43.0,504.0 -43.0,493.0 -39.0,493.0 -39.0,462.0 -43.0,462.0" stroke="#cccccc" stroke-width="1"/>
      <polyline fill="none" points="180.0,449.0 180.0,467.0 160.0,467.0 160.0,461.0 137.0,461.0 137.0,464.0" stroke="#000000" stroke-width="1"/>
      <polyline fill="none" points="180.0,519.0 180.0,501.0 160.0,501.0 160.0,507.0 137.0,507.0 137.0,504.0" stroke="#000000" stroke-width="1"/>
      <path d="M50.0,463.0 C50.0,463.0 51.5,464.8333333333333 50.0,463.0 C48.5,461.1666666666667 44.666666666666664,455.1666666666667 41.0,452.0 C37.333333333333336,448.8333333333333 32.666666666666664,445.8333333333333 28.0,444.0 C23.333333333333336,442.1666666666667 18.333333333333332,441.0 13.0,441.0 C7.666666666666667,441.0 -4.0,444.0 -4.0,444.0 " fill="none" stroke="#000000" stroke-width="1"/>
      <polyline fill="none" points="-4.0,444.0 -20.0,428.0 -4.0,428.0 -4.0,399.0 -21.0,399.0 -34.0,412.0" stroke="#000000" stroke-width="1"/>
      <polyline fill="none" points="-56.0,434.0 -71.0,449.0 -71.0,517.0 -52.0,536.0" stroke="#000000" stroke-width="1"/>
      <polyline fill="none" points="-35.0,553.0 -21.0,567.0 48.0,567.0 76.0,539.0 56.0,519.0 31.0,544.0 31.0,522.0" stroke="#000000" stroke-width="1"/>
      <path d="M31.0,522.0 C31.0,522.0 29.0,523.5 31.0,522.0 C33.0,520.5 39.833333333333336,516.1666666666666 43.0,513.0 C46.166666666666664,509.8333333333333 50.0,503.0 50.0,503.0 " fill="none" stroke="#000000" stroke-width="1"/>
      <polyline fill="none" points="-3.0,523.0 -3.0,544.0 -12.0,535.0 -9.0,532.0 -31.0,510.0 -34.0,513.0 -43.0,504.0 -43.0,493.0 -39.0,493.0 -39.0,462.0 -43.0,462.0 -43.0,449.0 -26.0,466.0" stroke="#000000" stroke-width="1"/>
      <path d="M-26.0,466.0 C-26.0,466.0 -25.333333333333332,463.1666666666667 -26.0,466.0 C-26.666666666666668,468.8333333333333 -29.833333333333332,477.5 -30.0,483.0 C-30.166666666666668,488.5 -29.0,494.0 -27.0,499.0 C-25.0,504.0 -22.0,509.0 -18.0,513.0 C-14.0,517.0 -3.0,523.0 -3.0,523.0 " fill="none" stroke="#000000" stroke-width="1"/>
      <line stroke="#7f7f7f" stroke-width="1" x1="139.0" x2="139.0" y1="501.0" y2="467.0"/>
      <line stroke="#7f7f7f" stroke-width="1" x1="135.0" x2="135.0" y1="501.0" y2="467.0"/>
      <line stroke="#7f7f7f" stroke-width="1" x1="131.0" x2="131.0" y1="501.0" y2="467.0"/>
      <line stroke="#7f7f7f" stroke-width="1" x1="127.0" x2="127.0" y1="501.0" y2="467.0"/>
      <line stroke="#7f7f7f" stroke-width="1" x1="123.0" x2="123.0" y1="501.0" y2="467.0"/>
      <line stroke="#7f7f7f" stroke-width="1" x1="119.0" x2="119.0" y1="501.0" y2="467.0"/>
      <line stroke="#7f7f7f" stroke-width="1" x1="115.0" x2="115.0" y1="501.0" y2="467.0"/>
      <line stroke="#7f7f7f" stroke-width="1" x1="111.0" x2="111.0" y1="501.0" y2="467.0"/>
      <line stroke="#7f7f7f" stroke-width="1" x1="107.0" x2="107.0" y1="501.0" y2="467.0"/>
      <line stroke="#7f7f7f" stroke-width="1" x1="103.0" x2="103.0" y1="501.0" y2="467.0"/>
      <line stroke="#7f7f7f" stroke-width="1" x1="99.0" x2="99.0" y1="501.0" y2="467.0"/>
      <line stroke="#7f7f7f" stroke-width="1" x1="95.0" x2="95.0" y1="501.0" y2="467.0"/>
      <line stroke="#7f7f7f" stroke-width="1" x1="91.0" x2="91.0" y1="501.0" y2="467.0"/>
      <line stroke="#7f7f7f" stroke-width="1" x1="87.0" x2="87.0" y1="501.0" y2="467.0"/>
      <line stroke="#7f7f7f" stroke-width="1" x1="83.0" x2="83.0" y1="501.0" y2="467.0"/>
      <line stroke="#7f7f7f" stroke-width="1" x1="79.0" x2="79.0" y1="501.0" y2="467.0"/>
      <line stroke="#7f7f7f" stroke-width="1" x1="75.0" x2="75.0" y1="501.0" y2="467.0"/>
      <line stroke="#7f7f7f" stroke-width="1" x1="71.0" x2="71.0" y1="501.0" y2="467.0"/>
      <line stroke="#7f7f7f" stroke-width="1" x1="67.0" x2="67.0" y1="501.0" y2="467.0"/>
      <line stroke="#7f7f7f" stroke-width="1" x1="63.0" x2="63.0" y1="501.0" y2="467.0"/>
      <line stroke="#7f7f7f" stroke-width="1" x1="59.0" x2="59.0" y1="501.0" y2="467.0"/>
      <line stroke="#7f7f7f" stroke-width="1" x1="55.0" x2="55.0" y1="501.0" y2="467.0"/>
      <polygon fill="#9b5509" points="146.0,467.0 50.0,467.0 50.0,464.0 146.0,464.0" stroke="#000000" stroke-width="1"/>
      <polygon fill="#9b5509" points="146.0,475.0 146.0,480.0 50.0,480.0 50.0,475.0" stroke="#000000" stroke-width="1"/>
      <polygon fill="#9b5509" points="146.0,488.0 146.0,493.0 50.0,493.0 50.0,488.0" stroke="#000000" stroke-width="1"/>
      <polygon fill="#9b5509" points="146.0,501.0 50.0,501.0 50.0,504.0 146.0,504.0" stroke="#000000" stroke-width="1"/>
      <polyline fill="none" points="-10.0,511.0 -4.0,511.0 -4.0,517.0 -10.0,517.0 -10.0,511.0" stroke="#000000" stroke-width="1"/>
      <polyline fill="none" points="-7.0,511.0 25.0,476.0 50.0,476.0" stroke="#000000" stroke-width="0.5"/>
      <polyline fill="none" points="32.0,514.0 42.0,514.0" stroke="#000000" stroke-width="0.5"/>
      <line stroke="#009900" stroke-width="1" x1="0.0" x2="0.0" y1="512.0" y2="516.0"/>
      <line stroke="#009900" stroke-width="1" x1="4.0" x2="4.0" y1="512.0" y2="516.0"/>
      <line stroke="#009900" stroke-width="1" x1="8.0" x2="8.0" y1="512.0" y2="516.0"/>
      <line stroke="#009900" stroke-width="1" x1="12.0" x2="12.0" y1="512.0" y2="516.0"/>
      <line stroke="#009900" stroke-width="1" x1="16.0" x2="16.0" y1="512.0" y2="516.0"/>
      <line stroke="#009900" stroke-width="1" x1="20.0" x2="20.0" y1="512.0" y2="516.0"/>
      <line stroke="#009900" stroke-width="1" x1="24.0" x2="24.0" y1="512.0" y2="516.0"/>
      <line stroke="#009900" stroke-width="1" x1="28.0" x2="28.0" y1="512.0" y2="516.0"/>
      <line stroke="#009900" stroke-width="1" x1="32.0" x2="32.0" y1="512.0" y2="516.0"/>
      <polyline fill="none" points="49.0,526.0 69.0,546.0" stroke="none" stroke-width="1"/>
      <text fill="none" font-family="Arial" font-size="10.0" stroke="none" stroke-width="0" transform="rotate(45.0,59.0,519.0)" x="59.0" y="529.0">кассы</text>
      <line stroke="#000000" stroke-width="1" x1="-143.0" x2="107.0" y1="393.0" y2="143.0"/>
      <line stroke="#000000" stroke-width="1" x1="-135.92893218813452" x2="114.07106781186548" y1="400.0710678118655" y2="150.07106781186548"/>
      <line stroke="#000000" stroke-width="1" x1="-143.0" x2="-133.1005050633883" y1="390.1715728752538" y2="400.0710678118655"/>
      <line stroke="#000000" stroke-width="1" x1="-140.17157287525382" x2="-130.27207793864213" y1="387.3431457505076" y2="397.24264068711926"/>
      <line stroke="#000000" stroke-width="1" x1="-137.34314575050763" x2="-127.44365081389594" y1="384.51471862576136" y2="394.41421356237305"/>
      <line stroke="#000000" stroke-width="1" x1="-134.51471862576145" x2="-124.61522368914976" y1="381.68629150101515" y2="391.58578643762684"/>
      <line stroke="#000000" stroke-width="1" x1="-131.68629150101526" x2="-121.78679656440357" y1="378.85786437626894" y2="388.7573593128806"/>
      <line stroke="#000000" stroke-width="1" x1="-128.85786437626908" x2="-118.95836943965739" y1="376.0294372515227" y2="385.9289321881344"/>
      <line stroke="#000000" stroke-width="1" x1="-126.02943725152289" x2="-116.1299423149112" y1="373.2010101267765" y2="383.1005050633882"/>
      <line stroke="#000000" stroke-width="1" x1="-123.20101012677671" x2="-113.30151519016502" y1="370.3725830020303" y2="380.272077938642"/>
      <line stroke="#000000" stroke-width="1" x1="-120.37258300203052" x2="-110.47308806541884" y1="367.5441558772841" y2="377.4436508138958"/>
      <line stroke="#000000" stroke-width="1" x1="-117.54415587728434" x2="-107.64466094067265" y1="364.71572875253787" y2="374.61522368914956"/>
      <line stroke="#000000" stroke-width="1" x1="-114.71572875253815" x2="-104.81623381592647" y1="361.88730162779166" y2="371.78679656440335"/>
      <line stroke="#000000" stroke-width="1" x1="-111.88730162779197" x2="-101.98780669118028" y1="359.05887450304544" y2="368.95836943965713"/>
      <line stroke="#000000" stroke-width="1" x1="-109.05887450304579" x2="-99.1593795664341" y1="356.23044737829923" y2="366.1299423149109"/>
      <line stroke="#000000" stroke-width="1" x1="-106.2304473782996" x2="-96.33095244168791" y1="353.402020253553" y2="363.3015151901647"/>
      <line stroke="#000000" stroke-width="1" x1="-103.40202025355342" x2="-93.50252531694173" y1="350.5735931288068" y2="360.4730880654185"/>
      <line stroke="#000000" stroke-width="1" x1="-100.57359312880723" x2="-90.67409819219554" y1="347.7451660040606" y2="357.6446609406723"/>
      <line stroke="#000000" stroke-width="1" x1="-97.74516600406105" x2="-87.84567106744936" y1="344.9167388793144" y2="354.81623381592607"/>
      <line stroke="#000000" stroke-width="1" x1="-94.91673887931486" x2="-85.01724394270317" y1="342.08831175456817" y2="351.98780669117986"/>
      <line stroke="#000000" stroke-width="1" x1="-92.08831175456868" x2="-82.18881681795699" y1="339.25988462982195" y2="349.15937956643364"/>
      <line stroke="#000000" stroke-width="1" x1="-89.2598846298225" x2="-79.3603896932108" y1="336.43145750507574" y2="346.33095244168743"/>
      <line stroke="#000000" stroke-width="1" x1="-86.43145750507631" x2="-76.53196256846462" y1="333.6030303803295" y2="343.5025253169412"/>
      <line stroke="#000000" stroke-width="1" x1="-83.60303038033013" x2="-73.70353544371844" y1="330.7746032555833" y2="340.674098192195"/>
      <line stroke="#000000" stroke-width="1" x1="-80.77460325558394" x2="-70.87510831897225" y1="327.9461761308371" y2="337.8456710674488"/>
      <line stroke="#000000" stroke-width="1" x1="-77.94617613083776" x2="-68.04668119422607" y1="325.1177490060909" y2="335.0172439427026"/>
      <line stroke="#000000" stroke-width="1" x1="-75.11774900609157" x2="-65.21825406947988" y1="322.2893218813447" y2="332.18881681795636"/>
      <line stroke="#000000" stroke-width="1" x1="-72.28932188134539" x2="-62.38982694473369" y1="319.46089475659846" y2="329.36038969321015"/>
      <line stroke="#000000" stroke-width="1" x1="-69.4608947565992" x2="-59.5613998199875" y1="316.63246763185225" y2="326.53196256846394"/>
      <line stroke="#000000" stroke-width="1" x1="-66.63246763185302" x2="-56.73297269524131" y1="313.80404050710604" y2="323.7035354437177"/>
      <line stroke="#000000" stroke-width="1" x1="-63.804040507106826" x2="-53.90454557049512" y1="310.9756133823598" y2="320.8751083189715"/>
      <line stroke="#000000" stroke-width="1" x1="-60.975613382360635" x2="-51.076118445748925" y1="308.1471862576136" y2="318.0466811942253"/>
      <line stroke="#000000" stroke-width="1" x1="-58.14718625761444" x2="-48.24769132100273" y1="305.3187591328674" y2="315.2182540694791"/>
      <line stroke="#000000" stroke-width="1" x1="-55.31875913286825" x2="-45.41926419625654" y1="302.4903320081212" y2="312.3898269447329"/>
      <line stroke="#000000" stroke-width="1" x1="-52.49033200812206" x2="-42.59083707151035" y1="299.661904883375" y2="309.56139981998666"/>
      <line stroke="#000000" stroke-width="1" x1="-49.66190488337587" x2="-39.76240994676416" y1="296.83347775862876" y2="306.73297269524045"/>
      <line stroke="#000000" stroke-width="1" x1="-46.83347775862968" x2="-36.93398282201797" y1="294.00505063388255" y2="303.90454557049424"/>
      <line stroke="#000000" stroke-width="1" x1="-44.005050633883485" x2="-34.105555697271775" y1="291.17662350913633" y2="301.076118445748"/>
      <line stroke="#000000" stroke-width="1" x1="-41.17662350913729" x2="-31.277128572525584" y1="288.3481963843901" y2="298.2476913210018"/>
      <line stroke="#000000" stroke-width="1" x1="-38.3481963843911" x2="-28.448701447779392" y1="285.5197692596439" y2="295.4192641962556"/>
      <line stroke="#000000" stroke-width="1" x1="-35.51976925964491" x2="-25.6202743230332" y1="282.6913421348977" y2="292.5908370715094"/>
      <line stroke="#000000" stroke-width="1" x1="-32.69134213489872" x2="-22.79184719828701" y1="279.8629150101515" y2="289.76240994676317"/>
      <line stroke="#000000" stroke-width="1" x1="-29.862915010152527" x2="-19.963420073540817" y1="277.03448788540527" y2="286.93398282201696"/>
      <line stroke="#000000" stroke-width="1" x1="-27.034487885406335" x2="-17.134992948794626" y1="274.20606076065906" y2="284.10555569727074"/>
      <line stroke="#000000" stroke-width="1" x1="-24.206060760660144" x2="-14.306565824048436" y1="271.37763363591284" y2="281.27712857252453"/>
      <line stroke="#000000" stroke-width="1" x1="-21.377633635913952" x2="-11.478138699302246" y1="268.54920651116663" y2="278.4487014477783"/>
      <line stroke="#000000" stroke-width="1" x1="-18.54920651116776" x2="-8.649711574556056" y1="265.7207793864204" y2="275.6202743230321"/>
      <line stroke="#000000" stroke-width="1" x1="-15.72077938642157" x2="-5.821284449809866" y1="262.8923522616742" y2="272.7918471982859"/>
      <line stroke="#000000" stroke-width="1" x1="-12.89235226167538" x2="-2.992857325063676" y1="260.063925136928" y2="269.9634200735397"/>
      <line stroke="#000000" stroke-width="1" x1="-10.06392513692919" x2="-0.16443020031748556" y1="257.2354980121818" y2="267.13499294879347"/>
      <line stroke="#000000" stroke-width="1" x1="-7.235498012183001" x2="2.6639969244287047" y1="254.4070708874356" y2="264.30656582404725"/>
      <line stroke="#000000" stroke-width="1" x1="-4.407070887436811" x2="5.492424049174895" y1="251.5786437626894" y2="261.47813869930104"/>
      <line stroke="#000000" stroke-width="1" x1="-1.578643762690621" x2="8.320851173921085" y1="248.75021663794323" y2="258.64971157455483"/>
      <line stroke="#000000" stroke-width="1" x1="1.2497833620555694" x2="11.149278298667275" y1="245.92178951319704" y2="255.82128444980864"/>
      <line stroke="#000000" stroke-width="1" x1="4.07821048680176" x2="13.977705423413465" y1="243.09336238845086" y2="252.99285732506246"/>
      <line stroke="#000000" stroke-width="1" x1="6.90663761154795" x2="16.806132548159656" y1="240.26493526370467" y2="250.16443020031627"/>
      <line stroke="#000000" stroke-width="1" x1="9.73506473629414" x2="19.634559672905848" y1="237.4365081389585" y2="247.3360030755701"/>
      <line stroke="#000000" stroke-width="1" x1="12.56349186104033" x2="22.46298679765204" y1="234.6080810142123" y2="244.5075759508239"/>
      <line stroke="#000000" stroke-width="1" x1="15.39191898578652" x2="25.29141392239823" y1="231.77965388946612" y2="241.67914882607772"/>
      <line stroke="#000000" stroke-width="1" x1="18.22034611053271" x2="28.119841047144423" y1="228.95122676471993" y2="238.85072170133154"/>
      <line stroke="#000000" stroke-width="1" x1="21.0487732352789" x2="30.948268171890614" y1="226.12279963997375" y2="236.02229457658535"/>
      <line stroke="#000000" stroke-width="1" x1="23.877200360025093" x2="33.7766952966368" y1="223.29437251522756" y2="233.19386745183917"/>
      <line stroke="#000000" stroke-width="1" x1="26.705627484771284" x2="36.605122421382994" y1="220.46594539048138" y2="230.36544032709298"/>
      <line stroke="#000000" stroke-width="1" x1="29.534054609517476" x2="39.433549546129186" y1="217.6375182657352" y2="227.5370132023468"/>
      <line stroke="#000000" stroke-width="1" x1="32.36248173426367" x2="42.26197667087538" y1="214.809091140989" y2="224.70858607760061"/>
      <line stroke="#000000" stroke-width="1" x1="35.19090885900986" x2="45.09040379562157" y1="211.98066401624283" y2="221.88015895285443"/>
      <line stroke="#000000" stroke-width="1" x1="38.01933598375605" x2="47.91883092036776" y1="209.15223689149664" y2="219.05173182810825"/>
      <line stroke="#000000" stroke-width="1" x1="40.84776310850224" x2="50.74725804511395" y1="206.32380976675046" y2="216.22330470336206"/>
      <line stroke="#000000" stroke-width="1" x1="43.676190233248434" x2="53.575685169860144" y1="203.49538264200427" y2="213.39487757861588"/>
      <line stroke="#000000" stroke-width="1" x1="46.504617357994626" x2="56.404112294606335" y1="200.6669555172581" y2="210.5664504538697"/>
      <line stroke="#000000" stroke-width="1" x1="49.33304448274082" x2="59.23253941935253" y1="197.8385283925119" y2="207.7380233291235"/>
      <line stroke="#000000" stroke-width="1" x1="52.16147160748701" x2="62.06096654409872" y1="195.01010126776572" y2="204.90959620437732"/>
      <line stroke="#000000" stroke-width="1" x1="54.9898987322332" x2="64.8893936688449" y1="192.18167414301953" y2="202.08116907963114"/>
      <line stroke="#000000" stroke-width="1" x1="57.81832585697939" x2="67.71782079359109" y1="189.35324701827335" y2="199.25274195488495"/>
      <line stroke="#000000" stroke-width="1" x1="60.646752981725584" x2="70.54624791833727" y1="186.52481989352717" y2="196.42431483013877"/>
      <line stroke="#000000" stroke-width="1" x1="63.475180106471775" x2="73.37467504308346" y1="183.69639276878098" y2="193.59588770539258"/>
      <line stroke="#000000" stroke-width="1" x1="66.30360723121797" x2="76.20310216782964" y1="180.8679656440348" y2="190.7674605806464"/>
      <line stroke="#000000" stroke-width="1" x1="69.13203435596415" x2="79.03152929257583" y1="178.0395385192886" y2="187.93903345590022"/>
      <line stroke="#000000" stroke-width="1" x1="71.96046148071034" x2="81.85995641732201" y1="175.21111139454243" y2="185.11060633115403"/>
      <line stroke="#000000" stroke-width="1" x1="74.78888860545652" x2="84.6883835420682" y1="172.38268426979624" y2="182.28217920640785"/>
      <line stroke="#000000" stroke-width="1" x1="77.6173157302027" x2="87.51681066681438" y1="169.55425714505006" y2="179.45375208166166"/>
      <line stroke="#000000" stroke-width="1" x1="80.44574285494889" x2="90.34523779156056" y1="166.72583002030387" y2="176.62532495691548"/>
      <line stroke="#000000" stroke-width="1" x1="83.27416997969507" x2="93.17366491630675" y1="163.8974028955577" y2="173.7968978321693"/>
      <line stroke="#000000" stroke-width="1" x1="86.10259710444126" x2="96.00209204105293" y1="161.0689757708115" y2="170.9684707074231"/>
      <line stroke="#000000" stroke-width="1" x1="88.93102422918744" x2="98.83051916579912" y1="158.24054864606532" y2="168.14004358267692"/>
      <line stroke="#000000" stroke-width="1" x1="91.75945135393363" x2="101.6589462905453" y1="155.41212152131914" y2="165.31161645793074"/>
      <line stroke="#000000" stroke-width="1" x1="94.58787847867981" x2="104.48737341529149" y1="152.58369439657295" y2="162.48318933318455"/>
      <line stroke="#000000" stroke-width="1" x1="97.416305603426" x2="107.31580054003767" y1="149.75526727182677" y2="159.65476220843837"/>
      <line stroke="#000000" stroke-width="1" x1="100.24473272817218" x2="110.14422766478386" y1="146.92684014708058" y2="156.8263350836922"/>
      <line stroke="#000000" stroke-width="1" x1="103.07315985291837" x2="112.97265478953004" y1="144.0984130223344" y2="153.997907958946"/>
      <line stroke="#000000" stroke-width="1" x1="-149.0" x2="23.0" y1="334.0" y2="162.0"/>
      <line stroke="#000000" stroke-width="1" x1="-141.92893218813452" x2="30.071067811865476" y1="341.0710678118655" y2="169.07106781186548"/>
      <line stroke="#000000" stroke-width="1" x1="-149.0" x2="-139.1005050633883" y1="331.1715728752538" y2="341.0710678118655"/>
      <line stroke="#000000" stroke-width="1" x1="-146.17157287525382" x2="-136.27207793864213" y1="328.3431457505076" y2="338.24264068711926"/>
      <line stroke="#000000" stroke-width="1" x1="-143.34314575050763" x2="-133.44365081389594" y1="325.51471862576136" y2="335.41421356237305"/>
      <line stroke="#000000" stroke-width="1" x1="-140.51471862576145" x2="-130.61522368914976" y1="322.68629150101515" y2="332.58578643762684"/>
      <line stroke="#000000" stroke-width="1" x1="-137.68629150101526" x2="-127.78679656440357" y1="319.85786437626894" y2="329.7573593128806"/>
      <line stroke="#000000" stroke-width="1" x1="-134.85786437626908" x2="-124.95836943965739" y1="317.0294372515227" y2="326.9289321881344"/>
      <line stroke="#000000" stroke-width="1" x1="-132.0294372515229" x2="-122.1299423149112" y1="314.2010101267765" y2="324.1005050633882"/>
      <line stroke="#000000" stroke-width="1" x1="-129.2010101267767" x2="-119.30151519016502" y1="311.3725830020303" y2="321.272077938642"/>
      <line stroke="#000000" stroke-width="1" x1="-126.37258300203052" x2="-116.47308806541884" y1="308.5441558772841" y2="318.4436508138958"/>
      <line stroke="#000000" stroke-width="1" x1="-123.54415587728434" x2="-113.64466094067265" y1="305.71572875253787" y2="315.61522368914956"/>
      <line stroke="#000000" stroke-width="1" x1="-120.71572875253815" x2="-110.81623381592647" y1="302.88730162779166" y2="312.78679656440335"/>
      <line stroke="#000000" stroke-width="1" x1="-117.88730162779197" x2="-107.98780669118028" y1="300.05887450304544" y2="309.95836943965713"/>
      <line stroke="#000000" stroke-width="1" x1="-115.05887450304579" x2="-105.1593795664341" y1="297.23044737829923" y2="307.1299423149109"/>
      <line stroke="#000000" stroke-width="1" x1="-112.2304473782996" x2="-102.33095244168791" y1="294.402020253553" y2="304.3015151901647"/>
      <line stroke="#000000" stroke-width="1" x1="-109.40202025355342" x2="-99.50252531694173" y1="291.5735931288068" y2="301.4730880654185"/>
      <line stroke="#000000" stroke-width="1" x1="-106.57359312880723" x2="-96.67409819219554" y1="288.7451660040606" y2="298.6446609406723"/>
      <line stroke="#000000" stroke-width="1" x1="-103.74516600406105" x2="-93.84567106744936" y1="285.9167388793144" y2="295.81623381592607"/>
      <line stroke="#000000" stroke-width="1" x1="-100.91673887931486" x2="-91.01724394270317" y1="283.08831175456817" y2="292.98780669117986"/>
      <line stroke="#000000" stroke-width="1" x1="-98.08831175456868" x2="-88.18881681795699" y1="280.25988462982195" y2="290.15937956643364"/>
      <line stroke="#000000" stroke-width="1" x1="-95.2598846298225" x2="-85.3603896932108" y1="277.43145750507574" y2="287.33095244168743"/>
      <line stroke="#000000" stroke-width="1" x1="-92.43145750507631" x2="-82.53196256846462" y1="274.6030303803295" y2="284.5025253169412"/>
      <line stroke="#000000" stroke-width="1" x1="-89.60303038033013" x2="-79.70353544371844" y1="271.7746032555833" y2="281.674098192195"/>
      <line stroke="#000000" stroke-width="1" x1="-86.77460325558394" x2="-76.87510831897225" y1="268.9461761308371" y2="278.8456710674488"/>
      <line stroke="#000000" stroke-width="1" x1="-83.94617613083776" x2="-74.04668119422607" y1="266.1177490060909" y2="276.0172439427026"/>
      <line stroke="#000000" stroke-width="1" x1="-81.11774900609157" x2="-71.21825406947988" y1="263.2893218813447" y2="273.18881681795636"/>
      <line stroke="#000000" stroke-width="1" x1="-78.28932188134539" x2="-68.3898269447337" y1="260.46089475659846" y2="270.36038969321015"/>
      <line stroke="#000000" stroke-width="1" x1="-75.4608947565992" x2="-65.56139981998751" y1="257.63246763185225" y2="267.53196256846394"/>
      <line stroke="#000000" stroke-width="1" x1="-72.63246763185302" x2="-62.73297269524132" y1="254.80404050710607" y2="264.7035354437177"/>
      <line stroke="#000000" stroke-width="1" x1="-69.80404050710683" x2="-59.90454557049513" y1="251.97561338235988" y2="261.8751083189715"/>
      <line stroke="#000000" stroke-width="1" x1="-66.97561338236065" x2="-57.07611844574894" y1="249.1471862576137" y2="259.0466811942253"/>
      <line stroke="#000000" stroke-width="1" x1="-64.14718625761446" x2="-54.24769132100275" y1="246.3187591328675" y2="256.2182540694791"/>
      <line stroke="#000000" stroke-width="1" x1="-61.31875913286827" x2="-51.419264196256556" y1="243.49033200812133" y2="253.3898269447329"/>
      <line stroke="#000000" stroke-width="1" x1="-58.49033200812208" x2="-48.590837071510364" y1="240.66190488337514" y2="250.56139981998672"/>
      <line stroke="#000000" stroke-width="1" x1="-55.66190488337589" x2="-45.76240994676417" y1="237.83347775862896" y2="247.73297269524053"/>
      <line stroke="#000000" stroke-width="1" x1="-52.8334777586297" x2="-42.93398282201798" y1="235.00505063388277" y2="244.90454557049435"/>
      <line stroke="#000000" stroke-width="1" x1="-50.005050633883506" x2="-40.10555569727179" y1="232.1766235091366" y2="242.07611844574816"/>
      <line stroke="#000000" stroke-width="1" x1="-47.176623509137315" x2="-37.2771285725256" y1="229.3481963843904" y2="239.24769132100198"/>
      <line stroke="#000000" stroke-width="1" x1="-44.34819638439112" x2="-34.448701447779406" y1="226.51976925964422" y2="236.4192641962558"/>
      <line stroke="#000000" stroke-width="1" x1="-41.51976925964493" x2="-31.620274323033215" y1="223.69134213489804" y2="233.5908370715096"/>
      <line stroke="#000000" stroke-width="1" x1="-38.69134213489874" x2="-28.791847198287023" y1="220.86291501015185" y2="230.76240994676343"/>
      <line stroke="#000000" stroke-width="1" x1="-35.86291501015255" x2="-25.96342007354083" y1="218.03448788540567" y2="227.93398282201724"/>
      <line stroke="#000000" stroke-width="1" x1="-33.03448788540636" x2="-23.13499294879464" y1="215.20606076065948" y2="225.10555569727106"/>
      <line stroke="#000000" stroke-width="1" x1="-30.206060760660165" x2="-20.306565824048448" y1="212.3776336359133" y2="222.27712857252487"/>
      <line stroke="#000000" stroke-width="1" x1="-27.377633635913973" x2="-17.478138699302256" y1="209.5492065111671" y2="219.4487014477787"/>
      <line stroke="#000000" stroke-width="1" x1="-24.54920651116778" x2="-14.649711574556067" y1="206.72077938642093" y2="216.6202743230325"/>
      <line stroke="#000000" stroke-width="1" x1="-21.72077938642159" x2="-11.821284449809877" y1="203.89235226167474" y2="213.79184719828632"/>
      <line stroke="#000000" stroke-width="1" x1="-18.8923522616754" x2="-8.992857325063687" y1="201.06392513692856" y2="210.96342007354014"/>
      <line stroke="#000000" stroke-width="1" x1="-16.063925136929207" x2="-6.164430200317497" y1="198.23549801218238" y2="208.13499294879395"/>
      <line stroke="#000000" stroke-width="1" x1="-13.235498012183017" x2="-3.336003075571307" y1="195.4070708874362" y2="205.30656582404777"/>
      <line stroke="#000000" stroke-width="1" x1="-10.407070887436827" x2="-0.5075759508251165" y1="192.57864376269" y2="202.47813869930158"/>
      <line stroke="#000000" stroke-width="1" x1="-7.578643762690637" x2="2.3208511739210738" y1="189.75021663794382" y2="199.6497115745554"/>
      <line stroke="#000000" stroke-width="1" x1="-4.7502166379444475" x2="5.149278298667264" y1="186.92178951319764" y2="196.8212844498092"/>
      <line stroke="#000000" stroke-width="1" x1="-1.9217895131982572" x2="7.977705423413454" y1="184.09336238845145" y2="193.99285732506303"/>
      <line stroke="#000000" stroke-width="1" x1="0.9066376115479331" x2="10.806132548159644" y1="181.26493526370527" y2="191.16443020031684"/>
      <line stroke="#000000" stroke-width="1" x1="3.7350647362941234" x2="13.634559672905834" y1="178.43650813895908" y2="188.33600307557066"/>
      <line stroke="#000000" stroke-width="1" x1="6.563491861040314" x2="16.462986797652025" y1="175.6080810142129" y2="185.50757595082447"/>
      <line stroke="#000000" stroke-width="1" x1="9.391918985786504" x2="19.291413922398217" y1="172.77965388946672" y2="182.6791488260783"/>
      <line stroke="#000000" stroke-width="1" x1="12.220346110532693" x2="22.11984104714441" y1="169.95122676472053" y2="179.8507217013321"/>
      <line stroke="#000000" stroke-width="1" x1="15.048773235278883" x2="24.9482681718906" y1="167.12279963997435" y2="177.02229457658592"/>
      <line stroke="#000000" stroke-width="1" x1="17.877200360025075" x2="27.77669529663679" y1="164.29437251522816" y2="174.19386745183974"/>
      <line stroke="#000000" stroke-width="1" x1="20.705627484771266" x2="30.605122421382983" y1="161.46594539048198" y2="171.36544032709355"/>
      <polyline fill="none" points="-151.0,329.0 -137.0,403.0" stroke="#ffffff" stroke-width="11"/>
      <polyline fill="none" points="114.0,145.0 13.0,163.0" stroke="#ffffff" stroke-width="11"/>
      <polyline fill="none" marker-end="url(#id431)" points="-51.0,553.0 -37.0,539.0" stroke="#009900" stroke-width="1"/>
      <polyline fill="none" marker-end="url(#id431)" points="-38.0,429.0 -54.0,413.0" stroke="#ff0000" stroke-width="1"/>
      <text fill="#00afaf" font-family="Arial" font-size="15.0" stroke="none" stroke-width="0" x="58.0" y="634.0">улица Грибакиных</text>
    </g>
  </g>
</svg>
