<?xml version="1.0" encoding="utf-8" ?>
<svg baseProfile="full" height="680.0" version="1.1" width="580.0" xmlns="http://www.w3.org/2000/svg" xmlns:ev="http://www.w3.org/2001/xml-events" xmlns:xlink="http://www.w3.org/1999/xlink">
  <defs>
    <marker id="id432" markerHeight="3" markerUnits="strokeWidth" markerWidth="4" orient="auto" refX="0" refY="5" viewBox="0,0,10,10">
      <path d="M 0 0 L 10 5 L 0 10 z"/>
    </marker>
  </defs>
  <g>
    <rect fill="none" height="680.0" stroke="none" stroke-width="0" width="580.0" x="0.0" y="0.0"/>
    <g transform="rotate(73.0,290.0,340.0)">
      <polyline fill="none" points="-108.0,443.0 200.0,3.0" stroke="#f5f5f5" stroke-width="20"/>
      <polyline fill="none" points="-51.0,289.0 538.0,702.0" stroke="#f5f5f5" stroke-width="20"/>
      <text fill="#00afaf" font-family="Arial" font-size="15.0" stroke="none" stroke-width="0" transform="rotate(-145.0,398.0,614.0)" x="398.0" y="629.0">Лиговский проспект</text>
      <text fill="#00afaf" font-family="Arial" font-size="15.0" stroke="none" stroke-width="0" transform="rotate(-55.0,-11.0,287.0)" x="-11.0" y="302.0">набережная Обводного канала</text>
      <polygon fill="#702785" points="649.0,271.0 649.0,301.0 200.0,301.0 200.0,271.0" stroke="#000000" stroke-width="1"/>
      <polygon fill="#702785" points="649.0,191.0 649.0,161.0 200.0,161.0 200.0,191.0" stroke="#000000" stroke-width="1"/>
      <text fill="#702785" font-family="Arial" font-size="20.0" stroke="none" stroke-width="0" x="525.0" y="321.0">Волковская &gt;&gt;</text>
      <text fill="#702785" font-family="Arial" font-size="20.0" stroke="none" stroke-width="0" x="203.0" y="156.0">&lt;&lt; Звенигородская</text>
      <text fill="#702785" font-family="Arial" font-size="25.0" stroke="none" stroke-width="0" x="311.0" y="238.0">Обводный канал</text>
      <polyline fill="none" points="649.0,271.0 649.0,256.0 505.0,256.0 505.0,248.0 512.0,248.0 512.0,213.0 505.0,213.0 505.0,205.0 649.0,205.0 649.0,191.0" stroke="#000000" stroke-width="1"/>
      <polyline fill="none" points="361.0,256.0 200.0,256.0 200.0,271.0" stroke="#000000" stroke-width="1"/>
    </g>
    <g fill="none" fill-opacity="0.8" stroke="#000000" stroke-opacity="0.8" transform="rotate(73.0,290.0,340.0)">
      <polygon fill="#ffffff" points="306.0,302.0 306.0,269.0 306.0,269.0 306.0,248.0 355.0,249.0 355.0,269.0 355.0,269.0 355.0,302.0" stroke="#ffffff" stroke-width="1"/>
    </g>
    <g fill="#ffffff" fill-opacity="1.0" stroke="#ffffff" stroke-opacity="1.0" transform="rotate(73.0,290.0,340.0)">
      <polyline fill="none" points="200.0,191.0 200.0,205.0 361.0,205.0 361.0,213.0 300.0,213.0 300.0,248.0 306.0,248.0 306.0,323.0" stroke="#000000" stroke-width="1"/>
      <polyline fill="none" points="303.0,332.0 253.0,369.0" stroke="#000000" stroke-width="1"/>
      <polyline fill="none" points="245.0,375.0 165.0,389.0 166.0,395.0" stroke="#000000" stroke-width="1"/>
      <polyline fill="none" points="173.0,432.0 174.0,438.0 254.0,424.0" stroke="#000000" stroke-width="1"/>
      <polyline fill="none" points="293.0,403.0 343.0,366.0" stroke="#000000" stroke-width="1"/>
      <polyline fill="none" points="355.0,323.0 355.0,248.0 361.0,248.0 361.0,256.0" stroke="#000000" stroke-width="1"/>
      <line stroke="#000000" stroke-width="1" x1="306.0" x2="355.0" y1="250.0" y2="250.0"/>
      <line stroke="#000000" stroke-width="1" x1="306.0" x2="355.0" y1="254.0" y2="254.0"/>
      <line stroke="#000000" stroke-width="1" x1="306.0" x2="355.0" y1="258.0" y2="258.0"/>
      <line stroke="#000000" stroke-width="1" x1="306.0" x2="355.0" y1="262.0" y2="262.0"/>
      <line stroke="#000000" stroke-width="1" x1="306.0" x2="355.0" y1="266.0" y2="266.0"/>
      <line stroke="#000000" stroke-width="1" x1="306.0" x2="355.0" y1="270.0" y2="270.0"/>
      <line stroke="#000000" stroke-width="1" x1="306.0" x2="355.0" y1="274.0" y2="274.0"/>
      <line stroke="#000000" stroke-width="1" x1="306.0" x2="355.0" y1="278.0" y2="278.0"/>
      <line stroke="#000000" stroke-width="1" x1="306.0" x2="355.0" y1="282.0" y2="282.0"/>
      <line stroke="#000000" stroke-width="1" x1="306.0" x2="355.0" y1="286.0" y2="286.0"/>
      <line stroke="#000000" stroke-width="1" x1="306.0" x2="355.0" y1="290.0" y2="290.0"/>
      <line stroke="#000000" stroke-width="1" x1="306.0" x2="355.0" y1="294.0" y2="294.0"/>
      <line stroke="#000000" stroke-width="1" x1="306.0" x2="355.0" y1="298.0" y2="298.0"/>
      <line stroke="#000000" stroke-width="1" x1="306.0" x2="355.0" y1="302.0" y2="302.0"/>
      <line stroke="#000000" stroke-width="1" x1="306.0" x2="355.0" y1="306.0" y2="306.0"/>
      <line stroke="#000000" stroke-width="1" x1="306.0" x2="355.0" y1="310.0" y2="310.0"/>
      <polyline fill="none" points="34.0,496.0 38.0,495.0 40.0,506.0 -52.0,522.0 -76.0,505.0 -85.0,451.0 -74.0,435.0 -71.0,437.0" stroke="#000000" stroke-width="1"/>
      <polyline fill="none" points="-50.0,409.0 -53.0,407.0 -40.0,389.0 -28.0,397.0 -32.0,403.0 -8.0,420.0 24.0,414.0 25.0,420.0" stroke="#000000" stroke-width="1"/>
      <polyline fill="none" points="32.0,458.0 35.0,476.0 31.0,477.0" stroke="#000000" stroke-width="1"/>
      <path d="M306.0,323.0 C306.0,323.0 306.1666666666667,322.1666666666667 306.0,323.0 C305.8333333333333,323.8333333333333 305.5,326.5 305.0,328.0 C304.5,329.5 303.0,332.0 303.0,332.0 " fill="none" stroke="#000000" stroke-width="1"/>
      <path d="M253.0,369.0 C253.0,369.0 253.66666666666666,368.3333333333333 253.0,369.0 C252.33333333333334,369.6666666666667 250.33333333333334,372.0 249.0,373.0 C247.66666666666666,374.0 245.0,375.0 245.0,375.0 " fill="none" stroke="#000000" stroke-width="1"/>
      <path d="M355.0,323.0 C355.0,323.0 355.5,319.1666666666667 355.0,323.0 C354.5,326.8333333333333 354.0,338.8333333333333 352.0,346.0 C350.0,353.1666666666667 343.0,366.0 343.0,366.0 " fill="none" stroke="#000000" stroke-width="1"/>
      <path d="M293.0,403.0 C293.0,403.0 296.0,400.8333333333333 293.0,403.0 C290.0,405.1666666666667 281.5,412.5 275.0,416.0 C268.5,419.5 254.0,424.0 254.0,424.0 " fill="none" stroke="#000000" stroke-width="1"/>
      <polygon fill="#cccccc" points="374.0,205.0 389.0,205.0 389.0,213.0 374.0,213.0" stroke="#000000" stroke-width="1"/>
      <polygon fill="#cccccc" points="402.0,205.0 417.0,205.0 417.0,213.0 402.0,213.0" stroke="#000000" stroke-width="1"/>
      <polygon fill="#cccccc" points="430.0,205.0 462.0,205.0 462.0,213.0 430.0,213.0" stroke="#000000" stroke-width="1"/>
      <polygon fill="#cccccc" points="475.0,205.0 490.0,205.0 490.0,213.0 475.0,213.0" stroke="#000000" stroke-width="1"/>
      <polygon fill="#cccccc" points="374.0,248.0 389.0,248.0 389.0,256.0 374.0,256.0" stroke="#000000" stroke-width="1"/>
      <polygon fill="#cccccc" points="402.0,248.0 417.0,248.0 417.0,256.0 402.0,256.0" stroke="#000000" stroke-width="1"/>
      <polygon fill="#cccccc" points="430.0,248.0 462.0,248.0 462.0,256.0 430.0,256.0" stroke="#000000" stroke-width="1"/>
      <polygon fill="#cccccc" points="475.0,248.0 490.0,248.0 490.0,256.0 475.0,256.0" stroke="#000000" stroke-width="1"/>
      <line stroke="#7f7f7f" stroke-width="1" x1="11.0" x2="17.0" y1="425.0" y2="458.0"/>
      <line stroke="#7f7f7f" stroke-width="1" x1="14.936573580757711" x2="20.936573580757713" y1="424.2905012732355" y2="457.2905012732355"/>
      <line stroke="#7f7f7f" stroke-width="1" x1="18.873147161515423" x2="24.873147161515426" y1="423.58100254647104" y2="456.58100254647104"/>
      <line stroke="#7f7f7f" stroke-width="1" x1="22.809720742273136" x2="28.80972074227314" y1="422.87150381970656" y2="455.87150381970656"/>
      <line stroke="#7f7f7f" stroke-width="1" x1="26.74629432303085" x2="32.74629432303085" y1="422.1620050929421" y2="455.1620050929421"/>
      <line stroke="#7f7f7f" stroke-width="1" x1="30.682867903788562" x2="36.68286790378856" y1="421.4525063661776" y2="454.4525063661776"/>
      <line stroke="#7f7f7f" stroke-width="1" x1="34.61944148454627" x2="40.61944148454627" y1="420.7430076394131" y2="453.7430076394131"/>
      <line stroke="#7f7f7f" stroke-width="1" x1="38.55601506530398" x2="44.55601506530398" y1="420.03350891264864" y2="453.03350891264864"/>
      <line stroke="#7f7f7f" stroke-width="1" x1="42.49258864606169" x2="48.49258864606169" y1="419.32401018588416" y2="452.32401018588416"/>
      <line stroke="#7f7f7f" stroke-width="1" x1="46.4291622268194" x2="52.4291622268194" y1="418.6145114591197" y2="451.6145114591197"/>
      <line stroke="#7f7f7f" stroke-width="1" x1="50.36573580757711" x2="56.36573580757711" y1="417.9050127323552" y2="450.9050127323552"/>
      <line stroke="#7f7f7f" stroke-width="1" x1="54.30230938833482" x2="60.30230938833482" y1="417.1955140055907" y2="450.1955140055907"/>
      <line stroke="#7f7f7f" stroke-width="1" x1="58.23888296909253" x2="64.23888296909253" y1="416.48601527882624" y2="449.48601527882624"/>
      <line stroke="#7f7f7f" stroke-width="1" x1="62.17545654985024" x2="68.17545654985024" y1="415.77651655206176" y2="448.77651655206176"/>
      <line stroke="#7f7f7f" stroke-width="1" x1="66.11203013060795" x2="72.11203013060795" y1="415.0670178252973" y2="448.0670178252973"/>
      <line stroke="#7f7f7f" stroke-width="1" x1="70.04860371136566" x2="76.04860371136566" y1="414.3575190985328" y2="447.3575190985328"/>
      <line stroke="#7f7f7f" stroke-width="1" x1="73.98517729212337" x2="79.98517729212337" y1="413.6480203717683" y2="446.6480203717683"/>
      <line stroke="#7f7f7f" stroke-width="1" x1="77.92175087288108" x2="83.92175087288108" y1="412.93852164500385" y2="445.93852164500385"/>
      <line stroke="#7f7f7f" stroke-width="1" x1="81.85832445363879" x2="87.85832445363879" y1="412.22902291823937" y2="445.22902291823937"/>
      <line stroke="#7f7f7f" stroke-width="1" x1="85.7948980343965" x2="91.7948980343965" y1="411.5195241914749" y2="444.5195241914749"/>
      <line stroke="#7f7f7f" stroke-width="1" x1="89.7314716151542" x2="95.7314716151542" y1="410.8100254647104" y2="443.8100254647104"/>
      <line stroke="#7f7f7f" stroke-width="1" x1="93.66804519591192" x2="99.66804519591192" y1="410.1005267379459" y2="443.1005267379459"/>
      <line stroke="#7f7f7f" stroke-width="1" x1="97.60461877666962" x2="103.60461877666962" y1="409.39102801118145" y2="442.39102801118145"/>
      <line stroke="#7f7f7f" stroke-width="1" x1="101.54119235742733" x2="107.54119235742733" y1="408.68152928441697" y2="441.68152928441697"/>
      <line stroke="#7f7f7f" stroke-width="1" x1="105.47776593818504" x2="111.47776593818504" y1="407.9720305576525" y2="440.9720305576525"/>
      <line stroke="#7f7f7f" stroke-width="1" x1="109.41433951894275" x2="115.41433951894275" y1="407.262531830888" y2="440.262531830888"/>
      <line stroke="#7f7f7f" stroke-width="1" x1="113.35091309970046" x2="119.35091309970046" y1="406.55303310412353" y2="439.55303310412353"/>
      <line stroke="#7f7f7f" stroke-width="1" x1="117.28748668045817" x2="123.28748668045817" y1="405.84353437735905" y2="438.84353437735905"/>
      <line stroke="#7f7f7f" stroke-width="1" x1="121.22406026121588" x2="127.22406026121588" y1="405.13403565059457" y2="438.13403565059457"/>
      <line stroke="#7f7f7f" stroke-width="1" x1="125.16063384197359" x2="131.1606338419736" y1="404.4245369238301" y2="437.4245369238301"/>
      <line stroke="#7f7f7f" stroke-width="1" x1="129.09720742273132" x2="135.09720742273132" y1="403.7150381970656" y2="436.7150381970656"/>
      <line stroke="#7f7f7f" stroke-width="1" x1="133.03378100348903" x2="139.03378100348903" y1="403.00553947030113" y2="436.00553947030113"/>
      <line stroke="#7f7f7f" stroke-width="1" x1="136.97035458424673" x2="142.97035458424673" y1="402.29604074353665" y2="435.29604074353665"/>
      <line stroke="#7f7f7f" stroke-width="1" x1="140.90692816500444" x2="146.90692816500444" y1="401.58654201677217" y2="434.58654201677217"/>
      <line stroke="#7f7f7f" stroke-width="1" x1="144.84350174576215" x2="150.84350174576215" y1="400.8770432900077" y2="433.8770432900077"/>
      <line stroke="#7f7f7f" stroke-width="1" x1="148.78007532651986" x2="154.78007532651986" y1="400.1675445632432" y2="433.1675445632432"/>
      <line stroke="#7f7f7f" stroke-width="1" x1="152.71664890727757" x2="158.71664890727757" y1="399.45804583647873" y2="432.45804583647873"/>
      <line stroke="#7f7f7f" stroke-width="1" x1="156.65322248803528" x2="162.65322248803528" y1="398.74854710971425" y2="431.74854710971425"/>
      <line stroke="#7f7f7f" stroke-width="1" x1="160.589796068793" x2="166.589796068793" y1="398.0390483829498" y2="431.0390483829498"/>
      <line stroke="#7f7f7f" stroke-width="1" x1="164.5263696495507" x2="170.5263696495507" y1="397.3295496561853" y2="430.3295496561853"/>
      <line stroke="#7f7f7f" stroke-width="1" x1="168.4629432303084" x2="174.4629432303084" y1="396.6200509294208" y2="429.6200509294208"/>
      <line stroke="#7f7f7f" stroke-width="1" x1="172.39951681106612" x2="178.39951681106612" y1="395.91055220265633" y2="428.91055220265633"/>
      <line stroke="#7f7f7f" stroke-width="1" x1="176.33609039182383" x2="182.33609039182383" y1="395.20105347589185" y2="428.20105347589185"/>
      <line stroke="#7f7f7f" stroke-width="1" x1="180.27266397258154" x2="186.27266397258154" y1="394.4915547491274" y2="427.4915547491274"/>
      <polygon fill="#9b5509" points="4.0,423.0 186.0,391.0 187.0,394.0 5.0,426.0" stroke="#000000" stroke-width="1"/>
      <polygon fill="#9b5509" points="6.0,431.0 187.0,399.0 188.0,403.0 7.0,435.0" stroke="#000000" stroke-width="1"/>
      <polygon fill="#9b5509" points="8.0,440.0 189.0,408.0 190.0,412.0 9.0,444.0" stroke="#000000" stroke-width="1"/>
      <polygon fill="#9b5509" points="9.0,449.0 191.0,417.0 192.0,421.0 10.0,453.0" stroke="#000000" stroke-width="1"/>
      <polygon fill="#9b5509" points="11.0,458.0 192.0,426.0 193.0,429.0 12.0,461.0" stroke="#000000" stroke-width="1"/>
      <polyline fill="none" points="13.0,511.0 14.0,518.0 -15.0,523.0 -16.0,516.0" stroke="#000000" stroke-width="1"/>
      <text fill="#000000" font-family="Arial" font-size="10.0" stroke="none" stroke-width="0" transform="rotate(-10.0,-14.0,512.0)" x="-14.0" y="522.0">кассы</text>
      <ellipse cx="-32.5" cy="464.5" fill="none" rx="3.5" ry="3.5" stroke="#000000" stroke-width="1"/>
      <polyline fill="none" points="15.0,461.0 19.0,482.0 -2.0,486.0 -5.0,484.0" stroke="#000000" stroke-width="0.5"/>
      <polyline fill="none" points="-8.0,420.0 -14.0,421.0" stroke="#000000" stroke-width="0.5"/>
      <polyline fill="none" points="-60.0,469.0 -41.0,458.0 -37.0,461.0 -20.0,447.0 8.0,442.0" stroke="#000000" stroke-width="0.5"/>
      <polyline fill="none" points="-69.0,473.0 -81.0,475.0" stroke="#000000" stroke-width="0.5"/>
      <line stroke="#009900" stroke-width="1" x1="-4.0" x2="-6.0" y1="482.0" y2="485.0"/>
      <line stroke="#009900" stroke-width="1" x1="-7.283620807141949" x2="-9.283620807141949" y1="479.7157420472056" y2="482.7157420472056"/>
      <line stroke="#009900" stroke-width="1" x1="-10.567241614283898" x2="-12.567241614283898" y1="477.4314840944112" y2="480.4314840944112"/>
      <line stroke="#009900" stroke-width="1" x1="-13.850862421425846" x2="-15.850862421425846" y1="475.1472261416168" y2="478.1472261416168"/>
      <line stroke="#009900" stroke-width="1" x1="-17.134483228567795" x2="-19.134483228567795" y1="472.8629681888224" y2="475.8629681888224"/>
      <line stroke="#009900" stroke-width="1" x1="-20.418104035709746" x2="-22.418104035709746" y1="470.578710236028" y2="473.578710236028"/>
      <line stroke="#009900" stroke-width="1" x1="-23.701724842851696" x2="-25.701724842851696" y1="468.29445228323357" y2="471.29445228323357"/>
      <line stroke="#009900" stroke-width="1" x1="-26.985345649993647" x2="-28.985345649993647" y1="466.01019433043916" y2="469.01019433043916"/>
      <line stroke="#ff0000" stroke-width="1" x1="-42.0" x2="-39.0" y1="456.0" y2="458.0"/>
      <line stroke="#ff0000" stroke-width="1" x1="-39.64212371976231" x2="-36.64212371976231" y1="452.7688362085632" y2="454.7688362085632"/>
      <line stroke="#ff0000" stroke-width="1" x1="-37.28424743952462" x2="-34.28424743952462" y1="449.5376724171264" y2="451.5376724171264"/>
      <line stroke="#ff0000" stroke-width="1" x1="-34.92637115928693" x2="-31.92637115928693" y1="446.30650862568956" y2="448.30650862568956"/>
      <line stroke="#ff0000" stroke-width="1" x1="-32.56849487904924" x2="-29.56849487904924" y1="443.07534483425275" y2="445.07534483425275"/>
      <line stroke="#ff0000" stroke-width="1" x1="-30.21061859881155" x2="-27.21061859881155" y1="439.84418104281593" y2="441.84418104281593"/>
      <line stroke="#ff0000" stroke-width="1" x1="-27.85274231857386" x2="-24.85274231857386" y1="436.6130172513791" y2="438.6130172513791"/>
      <line stroke="#ff0000" stroke-width="1" x1="-25.49486603833617" x2="-22.49486603833617" y1="433.3818534599423" y2="435.3818534599423"/>
      <line stroke="#ff0000" stroke-width="1" x1="-23.13698975809848" x2="-20.13698975809848" y1="430.1506896685055" y2="432.1506896685055"/>
      <line stroke="#ff0000" stroke-width="1" x1="-20.77911347786079" x2="-17.77911347786079" y1="426.9195258770687" y2="428.9195258770687"/>
      <line stroke="#ff0000" stroke-width="1" x1="-18.4212371976231" x2="-15.4212371976231" y1="423.68836208563187" y2="425.68836208563187"/>
      <line stroke="#ff0000" stroke-width="1" x1="-16.06336091738541" x2="-13.06336091738541" y1="420.45719829419505" y2="422.45719829419505"/>
      <polyline fill="none" marker-end="url(#id432)" points="-55.0,426.0 -69.0,416.0" stroke="#ff0000" stroke-width="1"/>
      <polyline fill="none" marker-end="url(#id432)" points="209.0,393.0 193.0,396.0" stroke="#ff0000" stroke-width="1"/>
      <polyline fill="none" marker-end="url(#id432)" points="43.0,484.0 20.0,488.0" stroke="#009900" stroke-width="1"/>
      <polyline fill="none" marker-end="url(#id432)" points="199.0,422.0 217.0,419.0" stroke="#009900" stroke-width="1"/>
      <polygon fill="#34349c" points="-65.0,470.0 -60.0,468.0 -59.0,470.0 -64.0,472.0" stroke="#34349c" stroke-width="1"/>
      <polygon fill="#ff0000" points="-70.0,472.0 -65.0,470.0 -64.0,472.0 -69.0,474.0" stroke="#ff0000" stroke-width="1"/>
    </g>
  </g>
</svg>
