<?xml version="1.0" encoding="utf-8" ?>
<svg baseProfile="full" height="100%" version="1.1" width="100%" xmlns="http://www.w3.org/2000/svg" xmlns:ev="http://www.w3.org/2001/xml-events" xmlns:xlink="http://www.w3.org/1999/xlink"><defs><marker id="id494" markerHeight="3" markerUnits="strokeWidth" markerWidth="4" orient="auto" refX="0" refY="5" viewBox="0,0,10,10"><path d="M 0 0 L 10 5 L 0 10 z" /></marker></defs><g transform="scale(0.5) rotate(-75.0,255,425)"><rect fill="none" height="850" stroke="none" width="510" x="0" y="0" /><polygon fill="#0078c9" points="281,413 281,443 -169,443 -169,413" stroke="#000000" stroke-width="1" /><polygon fill="#0078c9" points="281,333 281,303 -169,303 -169,333" stroke="#000000" stroke-width="1" /><text fill="#0078c9" font-family="Arial" font-size="20" stroke="none" x="49" y="463.0">Проспект Просвещения &gt;&gt;</text><text fill="#0078c9" font-family="Arial" font-size="20" stroke="none" x="-163" y="298.0">&lt;&lt; Удельная</text><text fill="#0078c9" font-family="Arial" font-size="25" stroke="none" x="16" y="380.0">Озерки</text><polyline fill="none" points="-169,333 -169,345 -90,345 -90,400 -169,400 -169,413" stroke="#000000" stroke-width="1" /><polygon fill="#FEFBF1" points="647,294 585,232 444,373 585,514 647,452 612,417 623,406 607,390 607,356 623,340 612,329" stroke="#DDDDDD" stroke-width="1" /><polygon fill="#CCCCCC" points="585,232 596,243 530,309 519,298" stroke="#000000" stroke-width="1" /><polygon fill="#CCCCCC" points="530,437 519,448 585,514 596,503" stroke="#000000" stroke-width="1" /><polyline fill="none" points="281,413 281,396 337,396 337,393" stroke="#000000" stroke-width="1" /><polyline fill="none" points="281,333 281,350 337,350 337,353" stroke="#000000" stroke-width="1" /><line stroke="#7F7F7F" stroke-width="1" x1="515" x2="515" y1="390" y2="356" /><line stroke="#7F7F7F" stroke-width="1" x1="511" x2="511" y1="390" y2="356" /><line stroke="#7F7F7F" stroke-width="1" x1="507" x2="507" y1="390" y2="356" /><line stroke="#7F7F7F" stroke-width="1" x1="503" x2="503" y1="390" y2="356" /><line stroke="#7F7F7F" stroke-width="1" x1="499" x2="499" y1="390" y2="356" /><line stroke="#7F7F7F" stroke-width="1" x1="495" x2="495" y1="390" y2="356" /><line stroke="#7F7F7F" stroke-width="1" x1="491" x2="491" y1="390" y2="356" /><line stroke="#7F7F7F" stroke-width="1" x1="487" x2="487" y1="390" y2="356" /><line stroke="#7F7F7F" stroke-width="1" x1="483" x2="483" y1="390" y2="356" /><line stroke="#7F7F7F" stroke-width="1" x1="479" x2="479" y1="390" y2="356" /><line stroke="#7F7F7F" stroke-width="1" x1="475" x2="475" y1="390" y2="356" /><line stroke="#7F7F7F" stroke-width="1" x1="471" x2="471" y1="390" y2="356" /><line stroke="#7F7F7F" stroke-width="1" x1="467" x2="467" y1="390" y2="356" /><line stroke="#7F7F7F" stroke-width="1" x1="463" x2="463" y1="390" y2="356" /><line stroke="#7F7F7F" stroke-width="1" x1="459" x2="459" y1="390" y2="356" /><line stroke="#7F7F7F" stroke-width="1" x1="455" x2="455" y1="390" y2="356" /><line stroke="#7F7F7F" stroke-width="1" x1="451" x2="451" y1="390" y2="356" /><line stroke="#7F7F7F" stroke-width="1" x1="447" x2="447" y1="390" y2="356" /><line stroke="#7F7F7F" stroke-width="1" x1="443" x2="443" y1="390" y2="356" /><line stroke="#7F7F7F" stroke-width="1" x1="439" x2="439" y1="390" y2="356" /><line stroke="#7F7F7F" stroke-width="1" x1="435" x2="435" y1="390" y2="356" /><line stroke="#7F7F7F" stroke-width="1" x1="431" x2="431" y1="390" y2="356" /><line stroke="#7F7F7F" stroke-width="1" x1="427" x2="427" y1="390" y2="356" /><line stroke="#7F7F7F" stroke-width="1" x1="423" x2="423" y1="390" y2="356" /><line stroke="#7F7F7F" stroke-width="1" x1="419" x2="419" y1="390" y2="356" /><line stroke="#7F7F7F" stroke-width="1" x1="415" x2="415" y1="390" y2="356" /><line stroke="#7F7F7F" stroke-width="1" x1="411" x2="411" y1="390" y2="356" /><line stroke="#7F7F7F" stroke-width="1" x1="407" x2="407" y1="390" y2="356" /><line stroke="#7F7F7F" stroke-width="1" x1="403" x2="403" y1="390" y2="356" /><line stroke="#7F7F7F" stroke-width="1" x1="399" x2="399" y1="390" y2="356" /><line stroke="#7F7F7F" stroke-width="1" x1="395" x2="395" y1="390" y2="356" /><line stroke="#7F7F7F" stroke-width="1" x1="391" x2="391" y1="390" y2="356" /><line stroke="#7F7F7F" stroke-width="1" x1="387" x2="387" y1="390" y2="356" /><line stroke="#7F7F7F" stroke-width="1" x1="383" x2="383" y1="390" y2="356" /><line stroke="#7F7F7F" stroke-width="1" x1="379" x2="379" y1="390" y2="356" /><line stroke="#7F7F7F" stroke-width="1" x1="375" x2="375" y1="390" y2="356" /><line stroke="#7F7F7F" stroke-width="1" x1="371" x2="371" y1="390" y2="356" /><line stroke="#7F7F7F" stroke-width="1" x1="367" x2="367" y1="390" y2="356" /><line stroke="#7F7F7F" stroke-width="1" x1="363" x2="363" y1="390" y2="356" /><line stroke="#7F7F7F" stroke-width="1" x1="359" x2="359" y1="390" y2="356" /><line stroke="#7F7F7F" stroke-width="1" x1="355" x2="355" y1="390" y2="356" /><line stroke="#7F7F7F" stroke-width="1" x1="351" x2="351" y1="390" y2="356" /><line stroke="#7F7F7F" stroke-width="1" x1="347" x2="347" y1="390" y2="356" /><line stroke="#7F7F7F" stroke-width="1" x1="343" x2="343" y1="390" y2="356" /><line stroke="#7F7F7F" stroke-width="1" x1="339" x2="339" y1="390" y2="356" /><line stroke="#7F7F7F" stroke-width="1" x1="335" x2="335" y1="390" y2="356" /><polygon fill="#9B5509" points="522,356 329,356 329,353 522,353" stroke="#000000" stroke-width="1" /><polygon fill="#9B5509" points="522,364 522,369 329,369 329,364" stroke="#000000" stroke-width="1" /><polygon fill="#9B5509" points="522,377 522,382 329,382 329,377" stroke="#000000" stroke-width="1" /><polygon fill="#9B5509" points="522,390 329,390 329,393 522,393" stroke="#000000" stroke-width="1" /><polyline fill="none" points="642,447 647,452 585,514 464,393" stroke="#000000" stroke-width="1" /><polyline fill="none" points="464,353 519,298" stroke="#000000" stroke-width="1" /><polyline fill="none" points="596,243 647,294 644,297" stroke="#000000" stroke-width="1" /><polyline fill="none" points="634,307 612,329 623,340 607,356 607,390 623,406 612,417 631,436" stroke="#000000" stroke-width="1" /><polyline fill="none" points="607,390 590,364 522,364" stroke="#000000" stroke-width="0.5" /><polyline fill="none" points="607,390 595,398" stroke="#000000" stroke-width="0.5" /><polyline fill="none" points="534,441 549,430" stroke="#000000" stroke-width="0.5" /><line stroke="#009900" stroke-width="1" x1="547" x2="551" y1="428" y2="432" /><line stroke="#009900" stroke-width="1" x1="550.283620807" x2="554.283620807" y1="425.715742047" y2="429.715742047" /><line stroke="#009900" stroke-width="1" x1="553.567241614" x2="557.567241614" y1="423.431484094" y2="427.431484094" /><line stroke="#009900" stroke-width="1" x1="556.850862421" x2="560.850862421" y1="421.147226142" y2="425.147226142" /><line stroke="#009900" stroke-width="1" x1="560.134483229" x2="564.134483229" y1="418.862968189" y2="422.862968189" /><line stroke="#009900" stroke-width="1" x1="563.418104036" x2="567.418104036" y1="416.578710236" y2="420.578710236" /><line stroke="#009900" stroke-width="1" x1="566.701724843" x2="570.701724843" y1="414.294452283" y2="418.294452283" /><line stroke="#009900" stroke-width="1" x1="569.98534565" x2="573.98534565" y1="412.01019433" y2="416.01019433" /><line stroke="#009900" stroke-width="1" x1="573.268966457" x2="577.268966457" y1="409.725936378" y2="413.725936378" /><line stroke="#009900" stroke-width="1" x1="576.552587264" x2="580.552587264" y1="407.441678425" y2="411.441678425" /><line stroke="#009900" stroke-width="1" x1="579.836208071" x2="583.836208071" y1="405.157420472" y2="409.157420472" /><line stroke="#009900" stroke-width="1" x1="583.119828879" x2="587.119828879" y1="402.873162519" y2="406.873162519" /><line stroke="#009900" stroke-width="1" x1="586.403449686" x2="590.403449686" y1="400.588904566" y2="404.588904566" /><line stroke="#009900" stroke-width="1" x1="589.687070493" x2="593.687070493" y1="398.304646614" y2="402.304646614" /><line stroke="#009900" stroke-width="1" x1="592.9706913" x2="596.9706913" y1="396.020388661" y2="400.020388661" /><polygon fill="#FFFFFF" points="551,458 543,466 568,491 576,483" stroke="#000000" stroke-width="1" /><text fill="#000000" font-family="Arial" font-size="10" stroke="none" transform="rotate(45.0,556,461)" x="556" y="471.0">кассы</text><polyline fill="none" marker-end="url(#id494)" points="635,298 648,311" stroke="#FF0000" stroke-width="1" /><polyline fill="none" marker-end="url(#id494)" points="643,435 631,447" stroke="#009900" stroke-width="1" /><text fill="#00AFAF" font-family="Arial" font-size="15" stroke="none" x="530" y="561.0">проспект Энгельса</text></g></svg>