<?xml version="1.0" encoding="utf-8" ?>
<svg baseProfile="full" height="430.0" version="1.1" width="650.0" xmlns="http://www.w3.org/2000/svg" xmlns:ev="http://www.w3.org/2001/xml-events" xmlns:xlink="http://www.w3.org/1999/xlink">
  <defs>
    <marker id="id435" markerHeight="3" markerUnits="strokeWidth" markerWidth="4" orient="auto" refX="0" refY="5" viewBox="0,0,10,10">
      <path d="M 0 0 L 10 5 L 0 10 z"/>
    </marker>
  </defs>
  <g>
    <rect fill="none" height="430.0" stroke="none" stroke-width="0" width="650.0" x="0.0" y="0.0"/>
    <g transform="rotate(15.0,325.0,215.0)">
      <polygon fill="#0078c9" points="524.0,195.0 524.0,225.0 74.0,225.0 74.0,195.0" stroke="#000000" stroke-width="1"/>
      <polygon fill="#0078c9" points="524.0,228.0 524.0,258.0 74.0,258.0 74.0,228.0" stroke="#000000" stroke-width="1"/>
      <text fill="#000000" font-family="Arial" font-size="25.0" stroke="none" stroke-width="0" x="183.0" y="236.0">Парнас</text>
      <text fill="#ffffff" font-family="Arial" font-size="25.0" stroke="none" stroke-width="0" x="182.0" y="234.0">Парнас</text>
      <text fill="#0078c9" font-family="Arial" font-size="20.0" stroke="none" stroke-width="0" x="75.0" y="190.0">&lt;&lt; посадки нет</text>
      <text fill="#0078c9" font-family="Arial" font-size="20.0" stroke="none" stroke-width="0" x="340.0" y="275.0">Проспект Просвещения &gt;&gt;</text>
      <polyline fill="none" points="74.0,258.0 74.0,278.0 231.0,278.0 231.0,316.0 357.0,316.0 357.0,278.0 524.0,278.0 524.0,258.0" stroke="#000000" stroke-width="1"/>
      <line stroke="#000000" stroke-width="1" x1="248.0" x2="231.0" y1="279.0" y2="279.0"/>
      <line stroke="#000000" stroke-width="1" x1="248.0" x2="231.0" y1="283.0" y2="283.0"/>
      <line stroke="#000000" stroke-width="1" x1="248.0" x2="231.0" y1="287.0" y2="287.0"/>
      <line stroke="#000000" stroke-width="1" x1="248.0" x2="231.0" y1="291.0" y2="291.0"/>
      <line stroke="#000000" stroke-width="1" x1="248.0" x2="231.0" y1="295.0" y2="295.0"/>
      <line stroke="#000000" stroke-width="1" x1="357.0" x2="339.0" y1="279.0" y2="279.0"/>
      <line stroke="#000000" stroke-width="1" x1="357.0" x2="339.0" y1="283.0" y2="283.0"/>
      <line stroke="#000000" stroke-width="1" x1="357.0" x2="339.0" y1="287.0" y2="287.0"/>
      <line stroke="#000000" stroke-width="1" x1="357.0" x2="339.0" y1="291.0" y2="291.0"/>
      <line stroke="#000000" stroke-width="1" x1="357.0" x2="339.0" y1="295.0" y2="295.0"/>
      <line stroke="#000000" stroke-width="1" x1="319.0" x2="273.0" y1="294.0" y2="294.0"/>
      <line stroke="#000000" stroke-width="1" x1="319.0" x2="273.0" y1="290.0" y2="290.0"/>
      <line stroke="#000000" stroke-width="1" x1="319.0" x2="273.0" y1="286.0" y2="286.0"/>
      <line stroke="#000000" stroke-width="1" x1="319.0" x2="273.0" y1="282.0" y2="282.0"/>
      <line stroke="#000000" stroke-width="1" x1="319.0" x2="273.0" y1="278.0" y2="278.0"/>
      <line stroke="#000000" stroke-width="1" x1="319.0" x2="273.0" y1="274.0" y2="274.0"/>
      <line stroke="#000000" stroke-width="1" x1="319.0" x2="273.0" y1="270.0" y2="270.0"/>
      <line stroke="#000000" stroke-width="1" x1="319.0" x2="273.0" y1="266.0" y2="266.0"/>
      <polygon fill="#cccccc" points="248.0,278.0 273.0,278.0 273.0,296.0 248.0,296.0" stroke="#000000" stroke-width="1"/>
      <polygon fill="#cccccc" points="319.0,278.0 339.0,278.0 339.0,296.0 319.0,296.0" stroke="#000000" stroke-width="1"/>
      <polygon fill="#00efff" points="319.0,269.0 329.0,269.0 329.0,279.0 319.0,279.0" stroke="#000000" stroke-width="1"/>
      <text fill="#000000" font-family="Arial" font-size="3.0" stroke="none" stroke-width="0" x="321.0" y="275.0">лифт</text>
      <polyline fill="none" points="74.0,195.0 74.0,175.0 232.0,175.0 232.0,133.0" stroke="#000000" stroke-width="1"/>
      <polyline fill="none" points="333.0,151.0 333.0,112.0" stroke="#000000" stroke-width="1"/>
      <polyline fill="none" points="357.0,133.0 357.0,175.0 524.0,175.0 524.0,195.0" stroke="#000000" stroke-width="1"/>
      <polyline fill="none" points="339.0,107.0 339.0,145.0" stroke="#000000" stroke-width="1"/>
      <polyline fill="none" points="345.0,151.0 345.0,112.0" stroke="#000000" stroke-width="1"/>
      <line stroke="#000000" stroke-width="1" x1="345.0" x2="357.0" y1="148.0" y2="148.0"/>
      <line stroke="#000000" stroke-width="1" x1="345.0" x2="357.0" y1="144.0" y2="144.0"/>
      <line stroke="#000000" stroke-width="1" x1="345.0" x2="357.0" y1="140.0" y2="140.0"/>
      <line stroke="#000000" stroke-width="1" x1="345.0" x2="357.0" y1="136.0" y2="136.0"/>
      <line stroke="#000000" stroke-width="1" x1="248.0" x2="232.0" y1="148.0" y2="148.0"/>
      <line stroke="#000000" stroke-width="1" x1="248.0" x2="232.0" y1="144.0" y2="144.0"/>
      <line stroke="#000000" stroke-width="1" x1="248.0" x2="232.0" y1="140.0" y2="140.0"/>
      <line stroke="#000000" stroke-width="1" x1="248.0" x2="232.0" y1="136.0" y2="136.0"/>
      <line stroke="#000000" stroke-width="1" x1="273.0" x2="319.0" y1="155.0" y2="155.0"/>
      <line stroke="#000000" stroke-width="1" x1="273.0" x2="319.0" y1="159.0" y2="159.0"/>
      <line stroke="#000000" stroke-width="1" x1="273.0" x2="319.0" y1="163.0" y2="163.0"/>
      <line stroke="#000000" stroke-width="1" x1="273.0" x2="319.0" y1="167.0" y2="167.0"/>
      <line stroke="#000000" stroke-width="1" x1="273.0" x2="319.0" y1="171.0" y2="171.0"/>
      <line stroke="#000000" stroke-width="1" x1="273.0" x2="319.0" y1="175.0" y2="175.0"/>
      <line stroke="#000000" stroke-width="1" x1="273.0" x2="319.0" y1="179.0" y2="179.0"/>
      <line stroke="#000000" stroke-width="1" x1="273.0" x2="319.0" y1="183.0" y2="183.0"/>
      <line stroke="#000000" stroke-width="1" x1="273.0" x2="319.0" y1="187.0" y2="187.0"/>
      <line stroke="#000000" stroke-width="1" x1="273.0" x2="319.0" y1="105.0" y2="105.0"/>
      <line stroke="#000000" stroke-width="1" x1="273.0" x2="319.0" y1="101.0" y2="101.0"/>
      <line stroke="#000000" stroke-width="1" x1="273.0" x2="319.0" y1="97.0" y2="97.0"/>
      <line stroke="#000000" stroke-width="1" x1="273.0" x2="319.0" y1="93.0" y2="93.0"/>
      <polygon fill="#cccccc" points="319.0,91.0 339.0,91.0 339.0,107.0 319.0,107.0" stroke="#000000" stroke-width="1"/>
      <polygon fill="#cccccc" points="329.0,151.0 339.0,151.0 339.0,175.0 319.0,175.0 319.0,161.0 329.0,161.0" stroke="#000000" stroke-width="1"/>
      <polygon fill="#cccccc" points="273.0,91.0 248.0,91.0 248.0,175.0 273.0,175.0 273.0,151.0 262.0,151.0 262.0,107.0 273.0,107.0" stroke="#000000" stroke-width="1"/>
      <polygon fill="#00efff" points="319.0,151.0 329.0,151.0 329.0,161.0 319.0,161.0" stroke="#000000" stroke-width="1"/>
      <text fill="#000000" font-family="Arial" font-size="3.0" stroke="none" stroke-width="0" x="321.0" y="157.0">лифт</text>
      <polygon fill="#ffffff" points="262.0,140.0 253.0,140.0 253.0,115.0 262.0,115.0" stroke="#000000" stroke-width="1"/>
      <text fill="#000000" font-family="Arial" font-size="8.0" stroke="none" stroke-width="0" transform="rotate(-90.0,253.0,137.0)" x="253.0" y="145.0">кассы</text>
      <polyline fill="none" points="262.0,144.0 271.0,144.0" stroke="#000000" stroke-width="0.5"/>
      <polyline fill="none" points="324.0,144.0 333.0,144.0" stroke="#000000" stroke-width="0.5"/>
      <line stroke="#009900" stroke-width="1" x1="271.0" x2="271.0" y1="141.0" y2="147.0"/>
      <line stroke="#009900" stroke-width="1" x1="275.0" x2="275.0" y1="141.0" y2="147.0"/>
      <line stroke="#009900" stroke-width="1" x1="279.0" x2="279.0" y1="141.0" y2="147.0"/>
      <line stroke="#009900" stroke-width="1" x1="283.0" x2="283.0" y1="141.0" y2="147.0"/>
      <line stroke="#009900" stroke-width="1" x1="287.0" x2="287.0" y1="141.0" y2="147.0"/>
      <line stroke="#009900" stroke-width="1" x1="291.0" x2="291.0" y1="141.0" y2="147.0"/>
      <line stroke="#009900" stroke-width="1" x1="295.0" x2="295.0" y1="141.0" y2="147.0"/>
      <line stroke="#009900" stroke-width="1" x1="299.0" x2="299.0" y1="141.0" y2="147.0"/>
      <line stroke="#009900" stroke-width="1" x1="303.0" x2="303.0" y1="141.0" y2="147.0"/>
      <line stroke="#009900" stroke-width="1" x1="307.0" x2="307.0" y1="141.0" y2="147.0"/>
      <line stroke="#009900" stroke-width="1" x1="311.0" x2="311.0" y1="141.0" y2="147.0"/>
      <line stroke="#009900" stroke-width="1" x1="315.0" x2="315.0" y1="141.0" y2="147.0"/>
      <line stroke="#009900" stroke-width="1" x1="319.0" x2="319.0" y1="141.0" y2="147.0"/>
      <line stroke="#009900" stroke-width="1" x1="323.0" x2="323.0" y1="141.0" y2="147.0"/>
      <polyline fill="none" marker-end="url(#id435)" points="240.0,180.0 240.0,161.0" stroke="#ff0000" stroke-width="1"/>
      <polyline fill="none" marker-end="url(#id435)" points="348.0,180.0 348.0,161.0" stroke="#ff0000" stroke-width="1"/>
      <polyline fill="none" marker-end="url(#id435)" points="296.0,81.0 296.0,119.0" stroke="#009900" stroke-width="1"/>
    </g>
    <g fill="none" fill-opacity="0.8" stroke="#009900" stroke-opacity="0.8" transform="rotate(15.0,325.0,215.0)">
      <polygon fill="#ffffff" points="273.0,259.0 274.0,194.0 318.0,194.0 319.0,259.0" stroke="#ffffff" stroke-width="1"/>
      <polygon fill="#ffffff" points="321.0,161.0 327.0,161.0 327.0,269.0 321.0,269.0" stroke="#ffffff" stroke-width="1"/>
    </g>
    <g fill="#ffffff" fill-opacity="1.0" stroke="#ffffff" stroke-opacity="1.0" transform="rotate(15.0,325.0,215.0)">
      <polyline fill="none" points="273.0,155.0 273.0,296.0" stroke="#000000" stroke-width="1"/>
      <polyline fill="none" points="319.0,155.0 319.0,296.0" stroke="#000000" stroke-width="1"/>
      <polyline fill="none" points="321.0,161.0 327.0,161.0 327.0,269.0 321.0,269.0 321.0,161.0" stroke="#000000" stroke-width="1"/>
      <line stroke="#000000" stroke-width="1" x1="569.0" x2="39.0" y1="362.0" y2="362.0"/>
      <line stroke="#000000" stroke-width="1" x1="569.0" x2="39.0" y1="352.0" y2="352.0"/>
      <line stroke="#000000" stroke-width="1" x1="567.0" x2="567.0" y1="364.0" y2="350.0"/>
      <line stroke="#000000" stroke-width="1" x1="563.0" x2="563.0" y1="364.0" y2="350.0"/>
      <line stroke="#000000" stroke-width="1" x1="559.0" x2="559.0" y1="364.0" y2="350.0"/>
      <line stroke="#000000" stroke-width="1" x1="555.0" x2="555.0" y1="364.0" y2="350.0"/>
      <line stroke="#000000" stroke-width="1" x1="551.0" x2="551.0" y1="364.0" y2="350.0"/>
      <line stroke="#000000" stroke-width="1" x1="547.0" x2="547.0" y1="364.0" y2="350.0"/>
      <line stroke="#000000" stroke-width="1" x1="543.0" x2="543.0" y1="364.0" y2="350.0"/>
      <line stroke="#000000" stroke-width="1" x1="539.0" x2="539.0" y1="364.0" y2="350.0"/>
      <line stroke="#000000" stroke-width="1" x1="535.0" x2="535.0" y1="364.0" y2="350.0"/>
      <line stroke="#000000" stroke-width="1" x1="531.0" x2="531.0" y1="364.0" y2="350.0"/>
      <line stroke="#000000" stroke-width="1" x1="527.0" x2="527.0" y1="364.0" y2="350.0"/>
      <line stroke="#000000" stroke-width="1" x1="523.0" x2="523.0" y1="364.0" y2="350.0"/>
      <line stroke="#000000" stroke-width="1" x1="519.0" x2="519.0" y1="364.0" y2="350.0"/>
      <line stroke="#000000" stroke-width="1" x1="515.0" x2="515.0" y1="364.0" y2="350.0"/>
      <line stroke="#000000" stroke-width="1" x1="511.0" x2="511.0" y1="364.0" y2="350.0"/>
      <line stroke="#000000" stroke-width="1" x1="507.0" x2="507.0" y1="364.0" y2="350.0"/>
      <line stroke="#000000" stroke-width="1" x1="503.0" x2="503.0" y1="364.0" y2="350.0"/>
      <line stroke="#000000" stroke-width="1" x1="499.0" x2="499.0" y1="364.0" y2="350.0"/>
      <line stroke="#000000" stroke-width="1" x1="495.0" x2="495.0" y1="364.0" y2="350.0"/>
      <line stroke="#000000" stroke-width="1" x1="491.0" x2="491.0" y1="364.0" y2="350.0"/>
      <line stroke="#000000" stroke-width="1" x1="487.0" x2="487.0" y1="364.0" y2="350.0"/>
      <line stroke="#000000" stroke-width="1" x1="483.0" x2="483.0" y1="364.0" y2="350.0"/>
      <line stroke="#000000" stroke-width="1" x1="479.0" x2="479.0" y1="364.0" y2="350.0"/>
      <line stroke="#000000" stroke-width="1" x1="475.0" x2="475.0" y1="364.0" y2="350.0"/>
      <line stroke="#000000" stroke-width="1" x1="471.0" x2="471.0" y1="364.0" y2="350.0"/>
      <line stroke="#000000" stroke-width="1" x1="467.0" x2="467.0" y1="364.0" y2="350.0"/>
      <line stroke="#000000" stroke-width="1" x1="463.0" x2="463.0" y1="364.0" y2="350.0"/>
      <line stroke="#000000" stroke-width="1" x1="459.0" x2="459.0" y1="364.0" y2="350.0"/>
      <line stroke="#000000" stroke-width="1" x1="455.0" x2="455.0" y1="364.0" y2="350.0"/>
      <line stroke="#000000" stroke-width="1" x1="451.0" x2="451.0" y1="364.0" y2="350.0"/>
      <line stroke="#000000" stroke-width="1" x1="447.0" x2="447.0" y1="364.0" y2="350.0"/>
      <line stroke="#000000" stroke-width="1" x1="443.0" x2="443.0" y1="364.0" y2="350.0"/>
      <line stroke="#000000" stroke-width="1" x1="439.0" x2="439.0" y1="364.0" y2="350.0"/>
      <line stroke="#000000" stroke-width="1" x1="435.0" x2="435.0" y1="364.0" y2="350.0"/>
      <line stroke="#000000" stroke-width="1" x1="431.0" x2="431.0" y1="364.0" y2="350.0"/>
      <line stroke="#000000" stroke-width="1" x1="427.0" x2="427.0" y1="364.0" y2="350.0"/>
      <line stroke="#000000" stroke-width="1" x1="423.0" x2="423.0" y1="364.0" y2="350.0"/>
      <line stroke="#000000" stroke-width="1" x1="419.0" x2="419.0" y1="364.0" y2="350.0"/>
      <line stroke="#000000" stroke-width="1" x1="415.0" x2="415.0" y1="364.0" y2="350.0"/>
      <line stroke="#000000" stroke-width="1" x1="411.0" x2="411.0" y1="364.0" y2="350.0"/>
      <line stroke="#000000" stroke-width="1" x1="407.0" x2="407.0" y1="364.0" y2="350.0"/>
      <line stroke="#000000" stroke-width="1" x1="403.0" x2="403.0" y1="364.0" y2="350.0"/>
      <line stroke="#000000" stroke-width="1" x1="399.0" x2="399.0" y1="364.0" y2="350.0"/>
      <line stroke="#000000" stroke-width="1" x1="395.0" x2="395.0" y1="364.0" y2="350.0"/>
      <line stroke="#000000" stroke-width="1" x1="391.0" x2="391.0" y1="364.0" y2="350.0"/>
      <line stroke="#000000" stroke-width="1" x1="387.0" x2="387.0" y1="364.0" y2="350.0"/>
      <line stroke="#000000" stroke-width="1" x1="383.0" x2="383.0" y1="364.0" y2="350.0"/>
      <line stroke="#000000" stroke-width="1" x1="379.0" x2="379.0" y1="364.0" y2="350.0"/>
      <line stroke="#000000" stroke-width="1" x1="375.0" x2="375.0" y1="364.0" y2="350.0"/>
      <line stroke="#000000" stroke-width="1" x1="371.0" x2="371.0" y1="364.0" y2="350.0"/>
      <line stroke="#000000" stroke-width="1" x1="367.0" x2="367.0" y1="364.0" y2="350.0"/>
      <line stroke="#000000" stroke-width="1" x1="363.0" x2="363.0" y1="364.0" y2="350.0"/>
      <line stroke="#000000" stroke-width="1" x1="359.0" x2="359.0" y1="364.0" y2="350.0"/>
      <line stroke="#000000" stroke-width="1" x1="355.0" x2="355.0" y1="364.0" y2="350.0"/>
      <line stroke="#000000" stroke-width="1" x1="351.0" x2="351.0" y1="364.0" y2="350.0"/>
      <line stroke="#000000" stroke-width="1" x1="347.0" x2="347.0" y1="364.0" y2="350.0"/>
      <line stroke="#000000" stroke-width="1" x1="343.0" x2="343.0" y1="364.0" y2="350.0"/>
      <line stroke="#000000" stroke-width="1" x1="339.0" x2="339.0" y1="364.0" y2="350.0"/>
      <line stroke="#000000" stroke-width="1" x1="335.0" x2="335.0" y1="364.0" y2="350.0"/>
      <line stroke="#000000" stroke-width="1" x1="331.0" x2="331.0" y1="364.0" y2="350.0"/>
      <line stroke="#000000" stroke-width="1" x1="327.0" x2="327.0" y1="364.0" y2="350.0"/>
      <line stroke="#000000" stroke-width="1" x1="323.0" x2="323.0" y1="364.0" y2="350.0"/>
      <line stroke="#000000" stroke-width="1" x1="319.0" x2="319.0" y1="364.0" y2="350.0"/>
      <line stroke="#000000" stroke-width="1" x1="315.0" x2="315.0" y1="364.0" y2="350.0"/>
      <line stroke="#000000" stroke-width="1" x1="311.0" x2="311.0" y1="364.0" y2="350.0"/>
      <line stroke="#000000" stroke-width="1" x1="307.0" x2="307.0" y1="364.0" y2="350.0"/>
      <line stroke="#000000" stroke-width="1" x1="303.0" x2="303.0" y1="364.0" y2="350.0"/>
      <line stroke="#000000" stroke-width="1" x1="299.0" x2="299.0" y1="364.0" y2="350.0"/>
      <line stroke="#000000" stroke-width="1" x1="295.0" x2="295.0" y1="364.0" y2="350.0"/>
      <line stroke="#000000" stroke-width="1" x1="291.0" x2="291.0" y1="364.0" y2="350.0"/>
      <line stroke="#000000" stroke-width="1" x1="287.0" x2="287.0" y1="364.0" y2="350.0"/>
      <line stroke="#000000" stroke-width="1" x1="283.0" x2="283.0" y1="364.0" y2="350.0"/>
      <line stroke="#000000" stroke-width="1" x1="279.0" x2="279.0" y1="364.0" y2="350.0"/>
      <line stroke="#000000" stroke-width="1" x1="275.0" x2="275.0" y1="364.0" y2="350.0"/>
      <line stroke="#000000" stroke-width="1" x1="271.0" x2="271.0" y1="364.0" y2="350.0"/>
      <line stroke="#000000" stroke-width="1" x1="267.0" x2="267.0" y1="364.0" y2="350.0"/>
      <line stroke="#000000" stroke-width="1" x1="263.0" x2="263.0" y1="364.0" y2="350.0"/>
      <line stroke="#000000" stroke-width="1" x1="259.0" x2="259.0" y1="364.0" y2="350.0"/>
      <line stroke="#000000" stroke-width="1" x1="255.0" x2="255.0" y1="364.0" y2="350.0"/>
      <line stroke="#000000" stroke-width="1" x1="251.0" x2="251.0" y1="364.0" y2="350.0"/>
      <line stroke="#000000" stroke-width="1" x1="247.0" x2="247.0" y1="364.0" y2="350.0"/>
      <line stroke="#000000" stroke-width="1" x1="243.0" x2="243.0" y1="364.0" y2="350.0"/>
      <line stroke="#000000" stroke-width="1" x1="239.0" x2="239.0" y1="364.0" y2="350.0"/>
      <line stroke="#000000" stroke-width="1" x1="235.0" x2="235.0" y1="364.0" y2="350.0"/>
      <line stroke="#000000" stroke-width="1" x1="231.0" x2="231.0" y1="364.0" y2="350.0"/>
      <line stroke="#000000" stroke-width="1" x1="227.0" x2="227.0" y1="364.0" y2="350.0"/>
      <line stroke="#000000" stroke-width="1" x1="223.0" x2="223.0" y1="364.0" y2="350.0"/>
      <line stroke="#000000" stroke-width="1" x1="219.0" x2="219.0" y1="364.0" y2="350.0"/>
      <line stroke="#000000" stroke-width="1" x1="215.0" x2="215.0" y1="364.0" y2="350.0"/>
      <line stroke="#000000" stroke-width="1" x1="211.0" x2="211.0" y1="364.0" y2="350.0"/>
      <line stroke="#000000" stroke-width="1" x1="207.0" x2="207.0" y1="364.0" y2="350.0"/>
      <line stroke="#000000" stroke-width="1" x1="203.0" x2="203.0" y1="364.0" y2="350.0"/>
      <line stroke="#000000" stroke-width="1" x1="199.0" x2="199.0" y1="364.0" y2="350.0"/>
      <line stroke="#000000" stroke-width="1" x1="195.0" x2="195.0" y1="364.0" y2="350.0"/>
      <line stroke="#000000" stroke-width="1" x1="191.0" x2="191.0" y1="364.0" y2="350.0"/>
      <line stroke="#000000" stroke-width="1" x1="187.0" x2="187.0" y1="364.0" y2="350.0"/>
      <line stroke="#000000" stroke-width="1" x1="183.0" x2="183.0" y1="364.0" y2="350.0"/>
      <line stroke="#000000" stroke-width="1" x1="179.0" x2="179.0" y1="364.0" y2="350.0"/>
      <line stroke="#000000" stroke-width="1" x1="175.0" x2="175.0" y1="364.0" y2="350.0"/>
      <line stroke="#000000" stroke-width="1" x1="171.0" x2="171.0" y1="364.0" y2="350.0"/>
      <line stroke="#000000" stroke-width="1" x1="167.0" x2="167.0" y1="364.0" y2="350.0"/>
      <line stroke="#000000" stroke-width="1" x1="163.0" x2="163.0" y1="364.0" y2="350.0"/>
      <line stroke="#000000" stroke-width="1" x1="159.0" x2="159.0" y1="364.0" y2="350.0"/>
      <line stroke="#000000" stroke-width="1" x1="155.0" x2="155.0" y1="364.0" y2="350.0"/>
      <line stroke="#000000" stroke-width="1" x1="151.0" x2="151.0" y1="364.0" y2="350.0"/>
      <line stroke="#000000" stroke-width="1" x1="147.0" x2="147.0" y1="364.0" y2="350.0"/>
      <line stroke="#000000" stroke-width="1" x1="143.0" x2="143.0" y1="364.0" y2="350.0"/>
      <line stroke="#000000" stroke-width="1" x1="139.0" x2="139.0" y1="364.0" y2="350.0"/>
      <line stroke="#000000" stroke-width="1" x1="135.0" x2="135.0" y1="364.0" y2="350.0"/>
      <line stroke="#000000" stroke-width="1" x1="131.0" x2="131.0" y1="364.0" y2="350.0"/>
      <line stroke="#000000" stroke-width="1" x1="127.0" x2="127.0" y1="364.0" y2="350.0"/>
      <line stroke="#000000" stroke-width="1" x1="123.0" x2="123.0" y1="364.0" y2="350.0"/>
      <line stroke="#000000" stroke-width="1" x1="119.0" x2="119.0" y1="364.0" y2="350.0"/>
      <line stroke="#000000" stroke-width="1" x1="115.0" x2="115.0" y1="364.0" y2="350.0"/>
      <line stroke="#000000" stroke-width="1" x1="111.0" x2="111.0" y1="364.0" y2="350.0"/>
      <line stroke="#000000" stroke-width="1" x1="107.0" x2="107.0" y1="364.0" y2="350.0"/>
      <line stroke="#000000" stroke-width="1" x1="103.0" x2="103.0" y1="364.0" y2="350.0"/>
      <line stroke="#000000" stroke-width="1" x1="99.0" x2="99.0" y1="364.0" y2="350.0"/>
      <line stroke="#000000" stroke-width="1" x1="95.0" x2="95.0" y1="364.0" y2="350.0"/>
      <line stroke="#000000" stroke-width="1" x1="91.0" x2="91.0" y1="364.0" y2="350.0"/>
      <line stroke="#000000" stroke-width="1" x1="87.0" x2="87.0" y1="364.0" y2="350.0"/>
      <line stroke="#000000" stroke-width="1" x1="83.0" x2="83.0" y1="364.0" y2="350.0"/>
      <line stroke="#000000" stroke-width="1" x1="79.0" x2="79.0" y1="364.0" y2="350.0"/>
      <line stroke="#000000" stroke-width="1" x1="75.0" x2="75.0" y1="364.0" y2="350.0"/>
      <line stroke="#000000" stroke-width="1" x1="71.0" x2="71.0" y1="364.0" y2="350.0"/>
      <line stroke="#000000" stroke-width="1" x1="67.0" x2="67.0" y1="364.0" y2="350.0"/>
      <line stroke="#000000" stroke-width="1" x1="63.0" x2="63.0" y1="364.0" y2="350.0"/>
      <line stroke="#000000" stroke-width="1" x1="59.0" x2="59.0" y1="364.0" y2="350.0"/>
      <line stroke="#000000" stroke-width="1" x1="55.0" x2="55.0" y1="364.0" y2="350.0"/>
      <line stroke="#000000" stroke-width="1" x1="51.0" x2="51.0" y1="364.0" y2="350.0"/>
      <line stroke="#000000" stroke-width="1" x1="47.0" x2="47.0" y1="364.0" y2="350.0"/>
      <line stroke="#000000" stroke-width="1" x1="43.0" x2="43.0" y1="364.0" y2="350.0"/>
      <line stroke="#000000" stroke-width="1" x1="39.0" x2="39.0" y1="364.0" y2="350.0"/>
      <text fill="#00afaf" font-family="Arial" font-size="15.0" stroke="none" stroke-width="0" x="241.0" y="36.0">3-й Верхний пер.</text>
      <text fill="#00afaf" font-family="Arial" font-size="15.0" stroke="none" stroke-width="0" transform="rotate(-90.0,574.0,105.0)" x="574.0" y="120.0">проспект Энгельса</text>
    </g>
  </g>
</svg>
