<svg xmlns="http://www.w3.org/2000/svg" version="1.1">
<defs>
    <marker id="arrow"
      viewBox="0 0 10 10" refX="0" refY="5"
      markerUnits="strokeWidth"
      markerWidth="4" markerHeight="3"
      orient="auto">
      <path d="M 0 0 L 10 5 L 0 10 z" />
    </marker>
  </defs>
<g stroke="#000000" fill="none" stroke-opacity="1.0" fill-opacity="1.0" transform="scale(0.5)">
<rect x="0" y="0" width="678" height="850" stroke-width="0" fill="none" />
<g stroke="#000000" fill="none" stroke-opacity="1.0" fill-opacity="1.0" transform="scale(0.5)">
</g>
<g transform="rotate(70.0 339 425)" >
<g stroke="#000000" fill="none" stroke-opacity="1.0" fill-opacity="1.0" transform="scale(0.5)">
</g>
<g stroke="#000000" fill="#D6083B" stroke-opacity="1.0" fill-opacity="1.0" transform="scale(0.5)">
<polygon points="562,400  562,430  112,430  112,400" stroke-width="1" />
<polygon points="562,320  562,290  112,290  112,320" stroke-width="1" />
</g>
<g stroke="#D6083B" fill="none" stroke-opacity="1.0" fill-opacity="1.0" transform="scale(0.5)">
<text x=" 117" y="286.0" font-family="Arial" font-size=" 20" fill="#D6083B" stroke-width="0">&lt;&lt; Выборгская</text>
<text x=" 407" y="450.0" font-family="Arial" font-size=" 20" fill="#D6083B" stroke-width="0">Чернышевская &gt;&gt;</text>
<text x=" 243" y="367.0" font-family="Arial" font-size=" 25" fill="#D6083B" stroke-width="0">Площадь Ленина</text>
</g>
<g stroke="#CCCCCC" fill="#CCCCCC" stroke-opacity="1.0" fill-opacity="1.0" transform="scale(0.5)">
<polygon points="662,356  705,399  746,358  735,347  724,351  712,354  701,355  689,357  676,357" stroke-width="1" />
</g>
<g stroke="#000000" fill="#CCCCCC" stroke-opacity="1.0" fill-opacity="1.0" transform="scale(0.5)">
<polyline points="562,400  562,391  420,391  420,383  472,383  472,380" stroke-width="1" fill="none"  />
<polyline points="562,320  562,328  420,328  420,337  472,337  472,340" stroke-width="1" fill="none"  />
<polyline points="612,380  612,383  646,383  676,413  676,431  663,444  658,439  652,445  673,466  679,460  677,458" stroke-width="1" fill="none"  />
<polyline points="612,340  612,337  662,337" stroke-width="1" fill="none"  />
<polyline points="662,337  685,336  704,334  725,329  743,320" stroke-width="1" fill="none"/> <!-- spline -->
<polyline points="662,356  701,355  735,347" stroke-width="1" fill="none"/> <!-- spline -->
<polyline points="743,320  747,324  775,296" stroke-width="1" fill="none"  />
<polyline points="783,304  755,332  781,358  776,363  774,361" stroke-width="1" fill="none"  />
<polyline points="767,368  769,370  689,450  687,448" stroke-width="1" fill="none"  />
<polyline points="735,347  746,358  705,399  662,356" stroke-width="1" fill="none"  />
<line x1="774" y1="297" x2="782" y2="305" stroke-width="1" />
<line x1="771.171572875" y1="299.828427125" x2="779.171572875" y2="307.828427125" stroke-width="1" />
<line x1="768.343145751" y1="302.656854249" x2="776.343145751" y2="310.656854249" stroke-width="1" />
<line x1="765.514718626" y1="305.485281374" x2="773.514718626" y2="313.485281374" stroke-width="1" />
<line x1="762.686291501" y1="308.313708499" x2="770.686291501" y2="316.313708499" stroke-width="1" />
<line x1="759.857864376" y1="311.142135624" x2="767.857864376" y2="319.142135624" stroke-width="1" />
<line x1="757.029437252" y1="313.970562748" x2="765.029437252" y2="321.970562748" stroke-width="1" />
<line x1="754.201010127" y1="316.798989873" x2="762.201010127" y2="324.798989873" stroke-width="1" />
<line x1="751.372583002" y1="319.627416998" x2="759.372583002" y2="327.627416998" stroke-width="1" />
<line x1="748.544155877" y1="322.455844123" x2="756.544155877" y2="330.455844123" stroke-width="1" />
<polyline points="741,363  758,380" stroke-width=" 0.5" fill="none"  />
<polyline points="676,428  683,421" stroke-width=" 0.5" fill="none"  />
<polyline points="700,404  705,399" stroke-width=" 0.5" fill="none"  />
<polyline points="621,356  662,356" stroke-width=" 0.5" fill="none"  />
</g>
<g stroke="#009900" fill="#CCCCCC" stroke-opacity="1.0" fill-opacity="1.0" transform="scale(0.5)">
<line x1="698" y1="402" x2="703" y2="407" stroke-width="1" />
<line x1="695.171572875" y1="404.828427125" x2="700.171572875" y2="409.828427125" stroke-width="1" />
<line x1="692.343145751" y1="407.656854249" x2="697.343145751" y2="412.656854249" stroke-width="1" />
<line x1="689.514718626" y1="410.485281374" x2="694.514718626" y2="415.485281374" stroke-width="1" />
<line x1="686.686291501" y1="413.313708499" x2="691.686291501" y2="418.313708499" stroke-width="1" />
<line x1="683.857864376" y1="416.142135624" x2="688.857864376" y2="421.142135624" stroke-width="1" />
<line x1="681.029437252" y1="418.970562748" x2="686.029437252" y2="423.970562748" stroke-width="1" />
</g>
<g stroke="#7F7F7F" fill="#CCCCCC" stroke-opacity="1.0" fill-opacity="1.0" transform="scale(0.5)">
<line x1="614" y1="377" x2="614" y2="343" stroke-width="1" />
<line x1="610" y1="377" x2="610" y2="343" stroke-width="1" />
<line x1="606" y1="377" x2="606" y2="343" stroke-width="1" />
<line x1="602" y1="377" x2="602" y2="343" stroke-width="1" />
<line x1="598" y1="377" x2="598" y2="343" stroke-width="1" />
<line x1="594" y1="377" x2="594" y2="343" stroke-width="1" />
<line x1="590" y1="377" x2="590" y2="343" stroke-width="1" />
<line x1="586" y1="377" x2="586" y2="343" stroke-width="1" />
<line x1="582" y1="377" x2="582" y2="343" stroke-width="1" />
<line x1="578" y1="377" x2="578" y2="343" stroke-width="1" />
<line x1="574" y1="377" x2="574" y2="343" stroke-width="1" />
<line x1="570" y1="377" x2="570" y2="343" stroke-width="1" />
<line x1="566" y1="377" x2="566" y2="343" stroke-width="1" />
<line x1="562" y1="377" x2="562" y2="343" stroke-width="1" />
<line x1="558" y1="377" x2="558" y2="343" stroke-width="1" />
<line x1="554" y1="377" x2="554" y2="343" stroke-width="1" />
<line x1="550" y1="377" x2="550" y2="343" stroke-width="1" />
<line x1="546" y1="377" x2="546" y2="343" stroke-width="1" />
<line x1="542" y1="377" x2="542" y2="343" stroke-width="1" />
<line x1="538" y1="377" x2="538" y2="343" stroke-width="1" />
<line x1="534" y1="377" x2="534" y2="343" stroke-width="1" />
<line x1="530" y1="377" x2="530" y2="343" stroke-width="1" />
<line x1="526" y1="377" x2="526" y2="343" stroke-width="1" />
<line x1="522" y1="377" x2="522" y2="343" stroke-width="1" />
<line x1="518" y1="377" x2="518" y2="343" stroke-width="1" />
<line x1="514" y1="377" x2="514" y2="343" stroke-width="1" />
<line x1="510" y1="377" x2="510" y2="343" stroke-width="1" />
<line x1="506" y1="377" x2="506" y2="343" stroke-width="1" />
<line x1="502" y1="377" x2="502" y2="343" stroke-width="1" />
<line x1="498" y1="377" x2="498" y2="343" stroke-width="1" />
<line x1="494" y1="377" x2="494" y2="343" stroke-width="1" />
<line x1="490" y1="377" x2="490" y2="343" stroke-width="1" />
<line x1="486" y1="377" x2="486" y2="343" stroke-width="1" />
<line x1="482" y1="377" x2="482" y2="343" stroke-width="1" />
<line x1="478" y1="377" x2="478" y2="343" stroke-width="1" />
<line x1="474" y1="377" x2="474" y2="343" stroke-width="1" />
<line x1="470" y1="377" x2="470" y2="343" stroke-width="1" />
</g>
<g stroke="#000000" fill="#9B5509" stroke-opacity="1.0" fill-opacity="1.0" transform="scale(0.5)">
<polygon points="621,343  465,343  465,340  621,340" stroke-width="1" />
<polygon points="621,351  621,356  465,356  465,351" stroke-width="1" />
<polygon points="621,364  621,369  465,369  465,364" stroke-width="1" />
<polygon points="621,377  465,377  465,380  621,380" stroke-width="1" />
</g>
<g stroke="#000000" fill="#9B5509" stroke-opacity="1.0" fill-opacity="1.0" transform="scale(0.5)">
<polyline points="112,400  112,391  253,391  253,383  200,383  200,380" stroke-width="1" fill="none"  />
<polyline points="112,320  112,328  253,328  253,337  200,337  200,340" stroke-width="1" fill="none"  />
<polyline points="75,321  53,313" stroke-width="1" fill="none"  />
<polyline points="53,313  37,310  21,313  6,323  -7,341  -10,363  -4,381  7,394  21,402" stroke-width="1" fill="none"/> <!-- spline -->
<polyline points="21,402  43,410" stroke-width="1" fill="none"  />
<polyline points="69,338  47,330" stroke-width="1" fill="none"  />
<polyline points="47,330  32,328  20,335" stroke-width="1" fill="none"/> <!-- spline -->
<polyline points="20,335  34,340" stroke-width="1" fill="none"  />
<polyline points="27,385  49,393" stroke-width="1" fill="none"  />
<polyline points="27,385  18,380  12,372" stroke-width="1" fill="none"/> <!-- spline -->
<polyline points="12,372  34,380" stroke-width="1" fill="none"  />
<polyline points="34,364  -9,348" stroke-width=" 0.5" fill="none"  />
<polyline points="36,328  36,325" stroke-width=" 0.5" fill="none"  />
<polyline points="36,313  36,310" stroke-width=" 0.5" fill="none"  />
</g>
<g stroke="#009900" fill="#9B5509" stroke-opacity="1.0" fill-opacity="1.0" transform="scale(0.5)">
<line x1="34" y1="313" x2="38" y2="313" stroke-width="1" />
<line x1="34" y1="317" x2="38" y2="317" stroke-width="1" />
<line x1="34" y1="321" x2="38" y2="321" stroke-width="1" />
<line x1="34" y1="325" x2="38" y2="325" stroke-width="1" />
</g>
<g stroke="#7F7F7F" fill="#9B5509" stroke-opacity="1.0" fill-opacity="1.0" transform="scale(0.5)">
<line x1="202" y1="377" x2="202" y2="343" stroke-width="1" />
<line x1="198" y1="377" x2="198" y2="343" stroke-width="1" />
<line x1="194" y1="377" x2="194" y2="343" stroke-width="1" />
<line x1="190" y1="377" x2="190" y2="343" stroke-width="1" />
<line x1="186" y1="377" x2="186" y2="343" stroke-width="1" />
<line x1="182" y1="377" x2="182" y2="343" stroke-width="1" />
<line x1="178" y1="377" x2="178" y2="343" stroke-width="1" />
<line x1="174" y1="377" x2="174" y2="343" stroke-width="1" />
<line x1="170" y1="377" x2="170" y2="343" stroke-width="1" />
<line x1="166" y1="377" x2="166" y2="343" stroke-width="1" />
<line x1="162" y1="377" x2="162" y2="343" stroke-width="1" />
<line x1="158" y1="377" x2="158" y2="343" stroke-width="1" />
<line x1="154" y1="377" x2="154" y2="343" stroke-width="1" />
<line x1="150" y1="377" x2="150" y2="343" stroke-width="1" />
<line x1="146" y1="377" x2="146" y2="343" stroke-width="1" />
<line x1="142" y1="377" x2="142" y2="343" stroke-width="1" />
<line x1="138" y1="377" x2="138" y2="343" stroke-width="1" />
<line x1="134" y1="377" x2="134" y2="343" stroke-width="1" />
<line x1="130" y1="377" x2="130" y2="343" stroke-width="1" />
<line x1="126" y1="377" x2="126" y2="343" stroke-width="1" />
<line x1="122" y1="377" x2="122" y2="343" stroke-width="1" />
<line x1="118" y1="377" x2="118" y2="343" stroke-width="1" />
<line x1="114" y1="377" x2="114" y2="343" stroke-width="1" />
<line x1="110" y1="377" x2="110" y2="343" stroke-width="1" />
<line x1="106" y1="377" x2="106" y2="343" stroke-width="1" />
<line x1="102" y1="377" x2="102" y2="343" stroke-width="1" />
<line x1="98" y1="377" x2="98" y2="343" stroke-width="1" />
<line x1="94" y1="377" x2="94" y2="343" stroke-width="1" />
<line x1="90" y1="377" x2="90" y2="343" stroke-width="1" />
<line x1="86" y1="377" x2="86" y2="343" stroke-width="1" />
<line x1="82" y1="377" x2="82" y2="343" stroke-width="1" />
<line x1="78" y1="377" x2="78" y2="343" stroke-width="1" />
<line x1="74" y1="377" x2="74" y2="343" stroke-width="1" />
<line x1="70" y1="377" x2="70" y2="343" stroke-width="1" />
<line x1="66" y1="377" x2="66" y2="343" stroke-width="1" />
<line x1="62" y1="377" x2="62" y2="343" stroke-width="1" />
<line x1="58" y1="377" x2="58" y2="343" stroke-width="1" />
<line x1="54" y1="377" x2="54" y2="343" stroke-width="1" />
<line x1="50" y1="377" x2="50" y2="343" stroke-width="1" />
<line x1="46" y1="377" x2="46" y2="343" stroke-width="1" />
<line x1="42" y1="377" x2="42" y2="343" stroke-width="1" />
</g>
<g stroke="#000000" fill="#9B5509" stroke-opacity="1.0" fill-opacity="1.0" transform="scale(0.5)">
<polygon points="209,343  34,343  34,340  209,340" stroke-width="1" />
<polygon points="209,351  209,356  34,356  34,351" stroke-width="1" />
<polygon points="209,364  209,369  34,369  34,364" stroke-width="1" />
<polygon points="209,377  34,377  34,380  209,380" stroke-width="1" />
</g>
<g stroke="#FF0000" fill="#9B5509" stroke-opacity="1.0" fill-opacity="1.0" transform="scale(0.5)">
<polyline points="32,396  46,401" marker-end="url(#arrow)" stroke-width="1" fill="none" />
<polyline points="760,354  772,366" marker-end="url(#arrow)" stroke-width="1" fill="none" />
<polyline points="741,338  751,328" marker-end="url(#arrow)" stroke-width="1" fill="none" />
</g>
<g stroke="#009900" fill="#9B5509" stroke-opacity="1.0" fill-opacity="1.0" transform="scale(0.5)">
<polyline points="72,329  58,324" marker-end="url(#arrow)" stroke-width="1" fill="none" />
<polyline points="684,455  675,446" marker-end="url(#arrow)" stroke-width="1" fill="none" />
</g>
<g stroke="#00AFAF" fill="none" stroke-opacity="1.0" fill-opacity="1.0" transform="scale(0.5)">
<text x=" 166" y="734.0" font-family="Arial" font-size=" 15" fill="#00AFAF" transform="rotate(-140.0  166  719)" stroke-width="0">улица Академика Лебедева</text>
<text x=" 37" y="572.0" font-family="Arial" font-size=" 15" fill="#00AFAF" transform="rotate(-50.0  37  557)" stroke-width="0">Боткинская улица</text>
<text x=" 229" y="572.0" font-family="Arial" font-size=" 15" fill="#00AFAF" transform="rotate(-50.0  229  557)" stroke-width="0">Финский переулок</text>
<text x=" -98" y="428.0" font-family="Arial" font-size=" 15" fill="#00AFAF" stroke-width="0">&lt;&lt; Лесной проспект</text>
<text x=" 769" y="309.0" font-family="Arial" font-size=" 15" fill="#00AFAF" transform="rotate(-140.0  769  294)" stroke-width="0">Финляндский вокзал</text>
<text x=" 708" y="469.0" font-family="Arial" font-size=" 15" fill="#00AFAF" transform="rotate(-50.0  708  454)" stroke-width="0">улица Комсомола</text>
</g>
</g>
</g>
</svg>
