<?xml version="1.0" encoding="utf-8" ?>
<svg baseProfile="full" height="730.0" version="1.1" width="740.0" xmlns="http://www.w3.org/2000/svg" xmlns:ev="http://www.w3.org/2001/xml-events" xmlns:xlink="http://www.w3.org/1999/xlink">
  <defs>
    <marker id="id442" markerHeight="3" markerUnits="strokeWidth" markerWidth="4" orient="auto" refX="0" refY="5" viewBox="0,0,10,10">
      <path d="M 0 0 L 10 5 L 0 10 z"/>
    </marker>
  </defs>
  <g>
    <rect fill="none" height="730.0" stroke="none" stroke-width="0" width="740.0" x="0.0" y="0.0"/>
    <g transform="rotate(45.0,370.0,365.0)">
      <polygon fill="#ea7125" points="-56.0,327.0 -56.0,297.0 394.0,297.0 394.0,327.0" stroke="#000000" stroke-width="1"/>
      <polygon fill="#ea7125" points="-56.0,407.0 -56.0,437.0 394.0,437.0 394.0,407.0" stroke="#000000" stroke-width="1"/>
      <text fill="#ea7125" font-family="Arial" font-size="20.0" stroke="none" stroke-width="0" x="-55.0" y="293.0">&lt;&lt; Ладожская</text>
      <text fill="#ea7125" font-family="Arial" font-size="20.0" stroke="none" stroke-width="0" x="237.0" y="457.0">Улица Дыбенко &gt;&gt;</text>
      <text fill="#ea7125" font-family="Arial" font-size="25.0" stroke="none" stroke-width="0" x="58.0" y="378.0">Проспект Большевиков</text>
      <polyline fill="none" points="-56.0,327.0 -56.0,337.0 -13.0,337.0 -13.0,396.0 -56.0,396.0 -56.0,407.0" stroke="#000000" stroke-width="1"/>
      <polyline fill="none" points="394.0,407.0 394.0,397.0 479.0,397.0 479.0,394.0" stroke="#000000" stroke-width="1"/>
      <polyline fill="none" points="394.0,327.0 394.0,338.0 479.0,338.0 479.0,341.0" stroke="#000000" stroke-width="1"/>
      <line stroke="#000000" stroke-width="1" x1="397.0" x2="397.0" y1="338.0" y2="397.0"/>
      <line stroke="#000000" stroke-width="1" x1="401.0" x2="401.0" y1="338.0" y2="397.0"/>
      <line stroke="#000000" stroke-width="1" x1="405.0" x2="405.0" y1="338.0" y2="397.0"/>
      <line stroke="#000000" stroke-width="1" x1="409.0" x2="409.0" y1="338.0" y2="397.0"/>
      <line stroke="#000000" stroke-width="1" x1="413.0" x2="413.0" y1="338.0" y2="397.0"/>
      <line stroke="#000000" stroke-width="1" x1="417.0" x2="417.0" y1="338.0" y2="397.0"/>
      <line stroke="#000000" stroke-width="1" x1="421.0" x2="421.0" y1="338.0" y2="397.0"/>
      <line stroke="#000000" stroke-width="1" x1="425.0" x2="425.0" y1="338.0" y2="397.0"/>
      <line stroke="#000000" stroke-width="1" x1="429.0" x2="429.0" y1="338.0" y2="397.0"/>
      <line stroke="#000000" stroke-width="1" x1="433.0" x2="433.0" y1="338.0" y2="397.0"/>
      <line stroke="#000000" stroke-width="1" x1="437.0" x2="437.0" y1="338.0" y2="397.0"/>
      <line stroke="#000000" stroke-width="1" x1="441.0" x2="441.0" y1="338.0" y2="397.0"/>
      <line stroke="#7f7f7f" stroke-width="1" x1="593.0" x2="593.0" y1="391.0" y2="344.0"/>
      <line stroke="#7f7f7f" stroke-width="1" x1="589.0" x2="589.0" y1="391.0" y2="344.0"/>
      <line stroke="#7f7f7f" stroke-width="1" x1="585.0" x2="585.0" y1="391.0" y2="344.0"/>
      <line stroke="#7f7f7f" stroke-width="1" x1="581.0" x2="581.0" y1="391.0" y2="344.0"/>
      <line stroke="#7f7f7f" stroke-width="1" x1="577.0" x2="577.0" y1="391.0" y2="344.0"/>
      <line stroke="#7f7f7f" stroke-width="1" x1="573.0" x2="573.0" y1="391.0" y2="344.0"/>
      <line stroke="#7f7f7f" stroke-width="1" x1="569.0" x2="569.0" y1="391.0" y2="344.0"/>
      <line stroke="#7f7f7f" stroke-width="1" x1="565.0" x2="565.0" y1="391.0" y2="344.0"/>
      <line stroke="#7f7f7f" stroke-width="1" x1="561.0" x2="561.0" y1="391.0" y2="344.0"/>
      <line stroke="#7f7f7f" stroke-width="1" x1="557.0" x2="557.0" y1="391.0" y2="344.0"/>
      <line stroke="#7f7f7f" stroke-width="1" x1="553.0" x2="553.0" y1="391.0" y2="344.0"/>
      <line stroke="#7f7f7f" stroke-width="1" x1="549.0" x2="549.0" y1="391.0" y2="344.0"/>
      <line stroke="#7f7f7f" stroke-width="1" x1="545.0" x2="545.0" y1="391.0" y2="344.0"/>
      <line stroke="#7f7f7f" stroke-width="1" x1="541.0" x2="541.0" y1="391.0" y2="344.0"/>
      <line stroke="#7f7f7f" stroke-width="1" x1="537.0" x2="537.0" y1="391.0" y2="344.0"/>
      <line stroke="#7f7f7f" stroke-width="1" x1="533.0" x2="533.0" y1="391.0" y2="344.0"/>
      <line stroke="#7f7f7f" stroke-width="1" x1="529.0" x2="529.0" y1="391.0" y2="344.0"/>
      <line stroke="#7f7f7f" stroke-width="1" x1="525.0" x2="525.0" y1="391.0" y2="344.0"/>
      <line stroke="#7f7f7f" stroke-width="1" x1="521.0" x2="521.0" y1="391.0" y2="344.0"/>
      <line stroke="#7f7f7f" stroke-width="1" x1="517.0" x2="517.0" y1="391.0" y2="344.0"/>
      <line stroke="#7f7f7f" stroke-width="1" x1="513.0" x2="513.0" y1="391.0" y2="344.0"/>
      <line stroke="#7f7f7f" stroke-width="1" x1="509.0" x2="509.0" y1="391.0" y2="344.0"/>
      <line stroke="#7f7f7f" stroke-width="1" x1="505.0" x2="505.0" y1="391.0" y2="344.0"/>
      <line stroke="#7f7f7f" stroke-width="1" x1="501.0" x2="501.0" y1="391.0" y2="344.0"/>
      <line stroke="#7f7f7f" stroke-width="1" x1="497.0" x2="497.0" y1="391.0" y2="344.0"/>
      <line stroke="#7f7f7f" stroke-width="1" x1="493.0" x2="493.0" y1="391.0" y2="344.0"/>
      <line stroke="#7f7f7f" stroke-width="1" x1="489.0" x2="489.0" y1="391.0" y2="344.0"/>
      <line stroke="#7f7f7f" stroke-width="1" x1="485.0" x2="485.0" y1="391.0" y2="344.0"/>
      <line stroke="#7f7f7f" stroke-width="1" x1="481.0" x2="481.0" y1="391.0" y2="344.0"/>
      <line stroke="#7f7f7f" stroke-width="1" x1="477.0" x2="477.0" y1="391.0" y2="344.0"/>
      <polygon fill="#9b5509" points="600.0,344.0 471.0,344.0 471.0,341.0 600.0,341.0" stroke="#000000" stroke-width="1"/>
      <polygon fill="#9b5509" points="600.0,352.0 600.0,357.0 471.0,357.0 471.0,352.0" stroke="#000000" stroke-width="1"/>
      <polygon fill="#9b5509" points="600.0,365.0 600.0,370.0 471.0,370.0 471.0,365.0" stroke="#000000" stroke-width="1"/>
      <polygon fill="#9b5509" points="600.0,378.0 600.0,383.0 471.0,383.0 471.0,378.0" stroke="#000000" stroke-width="1"/>
      <polygon fill="#9b5509" points="600.0,391.0 471.0,391.0 471.0,394.0 600.0,394.0" stroke="#000000" stroke-width="1"/>
      <path d="M582.0,341.0 C582.0,341.0 578.6666666666666,344.1666666666667 582.0,341.0 C585.3333333333334,337.8333333333333 594.1666666666666,326.1666666666667 602.0,322.0 C609.8333333333334,317.8333333333333 620.5,315.6666666666667 629.0,316.0 C637.5,316.3333333333333 646.1666666666666,319.8333333333333 653.0,324.0 C659.8333333333334,328.1666666666667 666.0,334.0 670.0,341.0 C674.0,348.0 677.0,366.0 677.0,366.0 " fill="none" stroke="#000000" stroke-width="1"/>
      <polyline fill="none" points="677.0,366.0 728.0,400.0" stroke="#000000" stroke-width="1"/>
      <polyline fill="none" points="695.0,449.0 644.0,415.0" stroke="#000000" stroke-width="1"/>
      <path d="M644.0,415.0 C644.0,415.0 648.0,414.5 644.0,415.0 C640.0,415.5 627.8333333333334,419.0 620.0,418.0 C612.1666666666666,417.0 603.1666666666666,413.0 597.0,409.0 C590.8333333333334,405.0 583.0,394.0 583.0,394.0 " fill="none" stroke="#000000" stroke-width="1"/>
      <line stroke="#000000" stroke-width="1" x1="686.0" x2="653.0" y1="372.0" y2="421.0"/>
      <line stroke="#000000" stroke-width="1" x1="689.3282011773514" x2="656.3282011773514" y1="374.2188007849009" y2="423.2188007849009"/>
      <line stroke="#000000" stroke-width="1" x1="692.6564023547028" x2="659.6564023547028" y1="376.4376015698018" y2="425.4376015698018"/>
      <line stroke="#000000" stroke-width="1" x1="695.9846035320542" x2="662.9846035320542" y1="378.6564023547027" y2="427.6564023547027"/>
      <line stroke="#000000" stroke-width="1" x1="699.3128047094056" x2="666.3128047094056" y1="380.8752031396036" y2="429.8752031396036"/>
      <line stroke="#000000" stroke-width="1" x1="702.641005886757" x2="669.641005886757" y1="383.09400392450453" y2="432.09400392450453"/>
      <line stroke="#000000" stroke-width="1" x1="705.9692070641083" x2="672.9692070641083" y1="385.31280470940544" y2="434.31280470940544"/>
      <line stroke="#000000" stroke-width="1" x1="709.2974082414597" x2="676.2974082414597" y1="387.53160549430635" y2="436.53160549430635"/>
      <line stroke="#000000" stroke-width="1" x1="712.6256094188111" x2="679.6256094188111" y1="389.75040627920725" y2="438.75040627920725"/>
      <line stroke="#000000" stroke-width="1" x1="715.9538105961625" x2="682.9538105961625" y1="391.96920706410816" y2="440.96920706410816"/>
      <polyline fill="none" points="712.0,425.0 644.0,379.0 600.0,367.0" stroke="#000000" stroke-width="0.5"/>
      <polyline fill="none" points="618.0,317.0 623.0,328.0" stroke="#000000" stroke-width="0.5"/>
      <polyline fill="none" points="640.0,369.0 644.0,379.0" stroke="#000000" stroke-width="0.5"/>
      <line stroke="#009900" stroke-width="1" x1="638.0" x2="643.0" y1="370.0" y2="368.0"/>
      <line stroke="#009900" stroke-width="1" x1="636.4679399091983" x2="641.4679399091983" y1="366.30503154571346" y2="364.30503154571346"/>
      <line stroke="#009900" stroke-width="1" x1="634.9358798183966" x2="639.9358798183966" y1="362.6100630914269" y2="360.6100630914269"/>
      <line stroke="#009900" stroke-width="1" x1="633.403819727595" x2="638.403819727595" y1="358.9150946371404" y2="356.9150946371404"/>
      <line stroke="#009900" stroke-width="1" x1="631.8717596367933" x2="636.8717596367933" y1="355.22012618285385" y2="353.22012618285385"/>
      <line stroke="#009900" stroke-width="1" x1="630.3396995459916" x2="635.3396995459916" y1="351.5251577285673" y2="349.5251577285673"/>
      <line stroke="#009900" stroke-width="1" x1="628.8076394551899" x2="633.8076394551899" y1="347.83018927428077" y2="345.83018927428077"/>
      <line stroke="#009900" stroke-width="1" x1="627.2755793643882" x2="632.2755793643882" y1="344.13522081999423" y2="342.13522081999423"/>
      <line stroke="#009900" stroke-width="1" x1="625.7435192735866" x2="630.7435192735866" y1="340.4402523657077" y2="338.4402523657077"/>
      <line stroke="#009900" stroke-width="1" x1="624.2114591827849" x2="629.2114591827849" y1="336.74528391142115" y2="334.74528391142115"/>
      <line stroke="#009900" stroke-width="1" x1="622.6793990919832" x2="627.6793990919832" y1="333.0503154571346" y2="331.0503154571346"/>
      <line stroke="#009900" stroke-width="1" x1="621.1473390011815" x2="626.1473390011815" y1="329.3553470028481" y2="327.3553470028481"/>
      <polyline fill="none" marker-end="url(#id442)" points="693.0,430.0 705.0,438.0" stroke="#ff0000" stroke-width="1"/>
      <polyline fill="none" marker-end="url(#id442)" points="722.0,414.0 710.0,406.0" stroke="#009900" stroke-width="1"/>
      <text fill="#00afaf" font-family="Arial" font-size="15.0" stroke="none" stroke-width="0" transform="rotate(-20.0,448.0,93.0)" x="448.0" y="108.0">проспект Пятилеток</text>
      <text fill="#00afaf" font-family="Arial" font-size="15.0" stroke="none" stroke-width="0" transform="rotate(-55.0,711.0,510.0)" x="711.0" y="525.0">улица Коллонтай</text>
    </g>
  </g>
</svg>
