<svg xmlns="http://www.w3.org/2000/svg" version="1.1">
<defs>
    <marker id="arrow"
      viewBox="0 0 10 10" refX="0" refY="5"
      markerUnits="strokeWidth"
      markerWidth="4" markerHeight="3"
      orient="auto">
      <path d="M 0 0 L 10 5 L 0 10 z" />
    </marker>
  </defs>
<g stroke="#000000" fill="none" stroke-opacity="1.0" fill-opacity="1.0" transform="scale(0.5)">
<rect x="0" y="0" width="1180" height="890" stroke-width="0" fill="none" />
<g stroke="#000000" fill="none" stroke-opacity="1.0" fill-opacity="1.0" transform="scale(0.5)">
</g>
<g transform="rotate(-15.0 590 445)" >
<g stroke="#000000" fill="none" stroke-opacity="1.0" fill-opacity="1.0" transform="scale(0.5)">
</g>
<g stroke="#F5F5F5" fill="#F5F5F5" stroke-opacity="1.0" fill-opacity="1.0" transform="scale(0.5)">
<polyline points="602,142  794,670" stroke-width=" 10" fill="none"  />
<polyline points="820,660  628,131" stroke-width=" 10" fill="none"  />
<polyline points="741,776  928,709" stroke-width=" 10" fill="none"  />
<polyline points="741,776  753,715  794,670" stroke-width=" 10" fill="none"/> <!-- spline -->
<polyline points="928,709  880,669  820,660" stroke-width=" 10" fill="none"/> <!-- spline -->
<polygon points="-1,373  11,327  797,40  861,58" stroke-width="1" />
<polygon points="1138,132  1161,138  1231,330  1222,363" stroke-width="1" />
</g>
<g stroke="#DDDDDD" fill="#FEFBF1" stroke-opacity="1.0" fill-opacity="1.0" transform="scale(0.5)">
<polygon points="58,437  251,367  318,553  125,623" stroke-width="1" />
<polygon points="1114,121  967,175  994,248  982,263  975,277  971,303  976,327  986,345  1000,358  1018,368  1040,372  1066,445  1211,392" stroke-width="1" />
</g>
<g stroke="#CCCCCC" fill="#CCCCCC" stroke-opacity="1.0" fill-opacity="1.0" transform="scale(0.5)">
<polygon points="58,437  183,392  185,398  176,401  180,407  175,410  170,403  157,409  145,417  134,426  123,439  116,450  111,462  108,467  104,466  101,481  99,499  101,516  93,519  105,552  113,549  122,562  136,576  148,585  152,586  174,578  186,592  189,600  125,623" stroke-width="1" />
<polygon points="204,384  251,367  277,439  227,457  229,461  222,463  213,438  186,448  185,444  174,449  166,455  158,465  155,470  153,477  149,476  155,464  163,454  174,445  183,440  193,436  189,430  194,427  199,434  233,422  220,385  206,390" stroke-width="1" />
<polygon points="318,553  297,495  247,513  246,509  239,511  248,536  222,545  224,550  217,553  209,554  199,554  191,552  185,550  178,546  176,548  191,555  203,573  210,592" stroke-width="1" />
</g>
<g stroke="#000000" fill="#D6083B" stroke-opacity="1.0" fill-opacity="1.0" transform="scale(0.5)">
<polygon points="403,436  403,406  853,406  853,436" stroke-width="1" />
<polygon points="403,516  853,516  853,546  403,546" stroke-width="1" />
</g>
<g stroke="#000000" fill="#CCCCCC" stroke-opacity="1.0" fill-opacity="1.0" transform="scale(0.5)">
<polygon points="406,445  415,445  415,448  406,448" stroke-width="1" />
<polygon points="406,505  415,505  415,508  406,508" stroke-width="1" />
<polygon points="425,445  435,445  435,448  425,448" stroke-width="1" />
<polygon points="425,505  435,505  435,508  425,508" stroke-width="1" />
<polygon points="445,445  455,445  455,448  445,448" stroke-width="1" />
<polygon points="445,505  455,505  455,508  445,508" stroke-width="1" />
<polygon points="465,445  475,445  475,448  465,448" stroke-width="1" />
<polygon points="465,505  475,505  475,508  465,508" stroke-width="1" />
<polygon points="485,445  495,445  495,448  485,448" stroke-width="1" />
<polygon points="485,505  495,505  495,508  485,508" stroke-width="1" />
<polygon points="764,445  774,445  774,448  764,448" stroke-width="1" />
<polygon points="764,505  774,505  774,508  764,508" stroke-width="1" />
<polygon points="783,445  793,445  793,448  783,448" stroke-width="1" />
<polygon points="783,505  793,505  793,508  783,508" stroke-width="1" />
<polygon points="802,445  812,445  812,448  802,448" stroke-width="1" />
<polygon points="802,505  812,505  812,508  802,508" stroke-width="1" />
<polygon points="821,445  831,445  831,448  821,448" stroke-width="1" />
<polygon points="821,505  831,505  831,508  821,508" stroke-width="1" />
<polygon points="840,445  850,445  850,448  840,448" stroke-width="1" />
<polygon points="840,505  850,505  850,508  840,508" stroke-width="1" />
<polygon points="505,445  515,445  515,455  505,455" stroke-width="1" />
<polygon points="505,498  515,498  515,508  505,508" stroke-width="1" />
<polygon points="524,445  534,445  534,455  524,455" stroke-width="1" />
<polygon points="524,498  534,498  534,508  524,508" stroke-width="1" />
<polygon points="544,445  554,445  554,455  544,455" stroke-width="1" />
<polygon points="544,498  554,498  554,508  544,508" stroke-width="1" />
<polygon points="564,445  574,445  574,455  564,455" stroke-width="1" />
<polygon points="564,498  574,498  574,508  564,508" stroke-width="1" />
<polygon points="584,445  594,445  594,455  584,455" stroke-width="1" />
<polygon points="584,498  594,498  594,508  584,508" stroke-width="1" />
<polygon points="604,445  614,445  614,455  604,455" stroke-width="1" />
<polygon points="604,498  614,498  614,508  604,508" stroke-width="1" />
<polygon points="624,445  634,445  634,455  624,455" stroke-width="1" />
<polygon points="624,498  634,498  634,508  624,508" stroke-width="1" />
<polygon points="684,445  694,445  694,455  684,455" stroke-width="1" />
<polygon points="644,498  654,498  654,508  644,508" stroke-width="1" />
<polygon points="664,445  674,445  674,455  664,455" stroke-width="1" />
<polygon points="664,498  674,498  674,508  664,508" stroke-width="1" />
<polygon points="684,498  694,498  694,508  684,508" stroke-width="1" />
<polygon points="704,445  714,445  714,455  704,455" stroke-width="1" />
<polygon points="704,498  714,498  714,508  704,508" stroke-width="1" />
<polygon points="724,445  734,445  734,455  724,455" stroke-width="1" />
<polygon points="724,498  734,498  734,508  724,508" stroke-width="1" />
<polygon points="744,445  755,445  755,455  744,455" stroke-width="1" />
<polygon points="744,498  755,498  755,508  744,508" stroke-width="1" />
<polygon points="757,474  763,474  763,480  757,480" stroke-width="1" />
</g>
<g stroke="#7F7F7F" fill="#CCCCCC" stroke-opacity="1.0" fill-opacity="1.0" transform="scale(0.5)">
<polyline points="510,459  510,459" stroke-width=" 7" fill="none"  />
<polyline points="529,459  529,459" stroke-width=" 7" fill="none"  />
<polyline points="549,459  549,459" stroke-width=" 7" fill="none"  />
<polyline points="569,459  569,459" stroke-width=" 7" fill="none"  />
<polyline points="589,459  589,459" stroke-width=" 7" fill="none"  />
<polyline points="609,459  609,459" stroke-width=" 7" fill="none"  />
<polyline points="629,459  629,459" stroke-width=" 7" fill="none"  />
<polyline points="649,459  649,459" stroke-width=" 7" fill="none"  />
<polyline points="669,459  669,459" stroke-width=" 7" fill="none"  />
<polyline points="689,459  689,459" stroke-width=" 7" fill="none"  />
<polyline points="709,459  709,459" stroke-width=" 7" fill="none"  />
<polyline points="729,459  729,459" stroke-width=" 7" fill="none"  />
<polyline points="749,459  749,459" stroke-width=" 7" fill="none"  />
<polyline points="761,463  761,463" stroke-width=" 7" fill="none"  />
<polyline points="761,491  761,491" stroke-width=" 7" fill="none"  />
<polyline points="510,494  510,494" stroke-width=" 7" fill="none"  />
<polyline points="529,494  529,494" stroke-width=" 7" fill="none"  />
<polyline points="549,494  549,494" stroke-width=" 7" fill="none"  />
<polyline points="569,494  569,494" stroke-width=" 7" fill="none"  />
<polyline points="589,494  589,494" stroke-width=" 7" fill="none"  />
<polyline points="609,494  609,494" stroke-width=" 7" fill="none"  />
<polyline points="629,494  629,494" stroke-width=" 7" fill="none"  />
<polyline points="649,494  649,494" stroke-width=" 7" fill="none"  />
<polyline points="669,494  669,494" stroke-width=" 7" fill="none"  />
<polyline points="689,494  689,494" stroke-width=" 7" fill="none"  />
<polyline points="709,494  709,494" stroke-width=" 7" fill="none"  />
<polyline points="729,494  729,494" stroke-width=" 7" fill="none"  />
<polyline points="749,494  749,494" stroke-width=" 7" fill="none"  />
</g>
<g stroke="#000000" fill="#CCCCCC" stroke-opacity="1.0" fill-opacity="1.0" transform="scale(0.5)">
<polyline points="853,436  853,445  850,445" stroke-width="1" fill="none"  />
<polyline points="853,516  853,508  850,508" stroke-width="1" fill="none"  />
<polyline points="850,448  755,448  755,453  765,453  765,471  770,471  770,468  776,468" stroke-width="1" fill="none"  />
<polyline points="850,505  755,505  755,500  765,500  765,482  770,482  770,485  776,485" stroke-width="1" fill="none"  />
<polyline points="776,468  778,476  776,485" stroke-width="1" fill="none"/> <!-- spline -->
<polyline points="403,437  403,445  406,445" stroke-width="1" fill="none"  />
<polyline points="403,516  403,508  406,508" stroke-width="1" fill="none"  />
<polyline points="415,448  488,448  488,455  485,455  485,459  467,459  467,453  446,453  446,456" stroke-width="1" fill="none"  />
<polyline points="415,505  488,505  488,498  485,498  485,493  467,493  467,499  446,499  446,496" stroke-width="1" fill="none"  />
</g>
<g stroke="#7F7F7F" fill="#CCCCCC" stroke-opacity="1.0" fill-opacity="1.0" transform="scale(0.5)">
<line x1="448" y1="493" x2="448" y2="459" stroke-width="1" />
<line x1="444" y1="493" x2="444" y2="459" stroke-width="1" />
<line x1="440" y1="493" x2="440" y2="459" stroke-width="1" />
<line x1="436" y1="493" x2="436" y2="459" stroke-width="1" />
<line x1="432" y1="493" x2="432" y2="459" stroke-width="1" />
<line x1="428" y1="493" x2="428" y2="459" stroke-width="1" />
<line x1="424" y1="493" x2="424" y2="459" stroke-width="1" />
<line x1="420" y1="493" x2="420" y2="459" stroke-width="1" />
<line x1="416" y1="493" x2="416" y2="459" stroke-width="1" />
<line x1="412" y1="493" x2="412" y2="459" stroke-width="1" />
<line x1="408" y1="493" x2="408" y2="459" stroke-width="1" />
<line x1="404" y1="493" x2="404" y2="459" stroke-width="1" />
<line x1="400" y1="493" x2="400" y2="459" stroke-width="1" />
<line x1="396" y1="493" x2="396" y2="459" stroke-width="1" />
<line x1="392" y1="493" x2="392" y2="459" stroke-width="1" />
<line x1="388" y1="493" x2="388" y2="459" stroke-width="1" />
<line x1="384" y1="493" x2="384" y2="459" stroke-width="1" />
<line x1="380" y1="493" x2="380" y2="459" stroke-width="1" />
<line x1="376" y1="493" x2="376" y2="459" stroke-width="1" />
<line x1="372" y1="493" x2="372" y2="459" stroke-width="1" />
<line x1="368" y1="493" x2="368" y2="459" stroke-width="1" />
<line x1="364" y1="493" x2="364" y2="459" stroke-width="1" />
<line x1="360" y1="493" x2="360" y2="459" stroke-width="1" />
<line x1="356" y1="493" x2="356" y2="459" stroke-width="1" />
<line x1="352" y1="493" x2="352" y2="459" stroke-width="1" />
<line x1="348" y1="493" x2="348" y2="459" stroke-width="1" />
<line x1="344" y1="493" x2="344" y2="459" stroke-width="1" />
<line x1="340" y1="493" x2="340" y2="459" stroke-width="1" />
<line x1="336" y1="493" x2="336" y2="459" stroke-width="1" />
<line x1="332" y1="493" x2="332" y2="459" stroke-width="1" />
<line x1="328" y1="493" x2="328" y2="459" stroke-width="1" />
<line x1="324" y1="493" x2="324" y2="459" stroke-width="1" />
<line x1="320" y1="493" x2="320" y2="459" stroke-width="1" />
<line x1="316" y1="493" x2="316" y2="459" stroke-width="1" />
<line x1="312" y1="493" x2="312" y2="459" stroke-width="1" />
<line x1="308" y1="493" x2="308" y2="459" stroke-width="1" />
<line x1="304" y1="493" x2="304" y2="459" stroke-width="1" />
<line x1="300" y1="493" x2="300" y2="459" stroke-width="1" />
<line x1="296" y1="493" x2="296" y2="459" stroke-width="1" />
<line x1="292" y1="493" x2="292" y2="459" stroke-width="1" />
<line x1="288" y1="493" x2="288" y2="459" stroke-width="1" />
<line x1="284" y1="493" x2="284" y2="459" stroke-width="1" />
<line x1="280" y1="493" x2="280" y2="459" stroke-width="1" />
<line x1="276" y1="493" x2="276" y2="459" stroke-width="1" />
<line x1="272" y1="493" x2="272" y2="459" stroke-width="1" />
<line x1="268" y1="493" x2="268" y2="459" stroke-width="1" />
<line x1="264" y1="493" x2="264" y2="459" stroke-width="1" />
<line x1="260" y1="493" x2="260" y2="459" stroke-width="1" />
<line x1="256" y1="493" x2="256" y2="459" stroke-width="1" />
</g>
<g stroke="#000000" fill="#9B5509" stroke-opacity="1.0" fill-opacity="1.0" transform="scale(0.5)">
<polygon points="455,459  251,459  251,456  455,456" stroke-width="1" />
<polygon points="455,467  455,472  251,472  251,467" stroke-width="1" />
<polygon points="455,480  455,485  251,485  251,480" stroke-width="1" />
<polygon points="455,493  251,493  251,496  455,496" stroke-width="1" />
</g>
<g stroke="#000000" fill="#FFFFFF" stroke-opacity="1.0" fill-opacity="1.0" transform="scale(0.5)">
<polygon points="458,480  467,480  467,485  458,485" stroke-width="1" />
</g>
<g stroke="#FEFBF1" fill="#FEFBF1" stroke-opacity="0.85" fill-opacity="0.85" transform="scale(0.5)">
<polygon points="282,455  269,455  275,462  279,468  281,476  279,484  275,491  269,497  290,497  297,495" stroke-width="1" />
</g>
<g stroke="#000000" fill="none" stroke-opacity="1.0" fill-opacity="1.0" transform="scale(0.5)">
<polyline points="269,456  280,476  269,496" stroke-width="1" fill="none"/> <!-- spline -->
<polygon points="189,502  186,493  198,489  201,498" stroke-width="1" />
<polygon points="205,539  211,537  213,543  207,545" stroke-width="1" />
<polyline points="100,506  147,518" stroke-width=" 0.5" fill="none"  />
<polyline points="151,516  189,502" stroke-width=" 0.5" fill="none"  />
<polyline points="201,498  251,480" stroke-width=" 0.5" fill="none"  />
<polyline points="185,444  186,448  213,438  222,463  229,461  227,457  277,439  297,495  247,513  246,509  239,511  248,536  222,545  224,551" stroke-width="1" fill="none"  />
<polyline points="193,436  189,430  194,427  199,434  233,422  220,385  206,390  204,384  251,367  277,439" stroke-width="1" fill="none"  />
<polyline points="189,600  125,623  58,437  183,392  185,398  176,401  180,407  175,410  170,403" stroke-width="1" fill="none"  />
<polyline points="108,467  104,466" stroke-width="1" fill="none"  />
<polyline points="148,585  152,586  174,578  186,592  189,600" stroke-width="1" fill="none"  />
<polyline points="297,495  318,553  210,592  203,573  191,555  176,548" stroke-width="1" fill="none"  />
<polyline points="185,444  162,460  152,481" stroke-width="1" fill="none"/> <!-- spline -->
<polyline points="149,476  165,452  193,436" stroke-width="1" fill="none"/> <!-- spline -->
<polyline points="170,403  132,429  109,467" stroke-width="1" fill="none"/> <!-- spline -->
<polyline points="104,466  106,533  148,585" stroke-width="1" fill="none"/> <!-- spline -->
<polyline points="178,546  189,551  205,554  224,550" stroke-width="1" fill="none"/> <!-- spline -->
</g>
<g stroke="#009900" fill="none" stroke-opacity="1.0" fill-opacity="1.0" transform="scale(0.5)">
<line x1="193" y1="505" x2="199" y2="503" stroke-width="1" />
<line x1="194.337639381" y1="508.769710982" x2="200.337639381" y2="506.769710982" stroke-width="1" />
<line x1="195.675278761" y1="512.539421964" x2="201.675278761" y2="510.539421964" stroke-width="1" />
<line x1="197.012918142" y1="516.309132946" x2="203.012918142" y2="514.309132946" stroke-width="1" />
<line x1="198.350557523" y1="520.078843928" x2="204.350557523" y2="518.078843928" stroke-width="1" />
<line x1="199.688196903" y1="523.84855491" x2="205.688196903" y2="521.84855491" stroke-width="1" />
<line x1="201.025836284" y1="527.618265892" x2="207.025836284" y2="525.618265892" stroke-width="1" />
<line x1="202.363475665" y1="531.387976873" x2="208.363475665" y2="529.387976873" stroke-width="1" />
<line x1="203.701115045" y1="535.157687855" x2="209.701115045" y2="533.157687855" stroke-width="1" />
</g>
<g stroke="#000000" fill="#CCCCCC" stroke-opacity="1.0" fill-opacity="1.0" transform="scale(0.5)">
<polygon points="151,581  153,576  158,578  156,583" stroke-width="1" />
<polygon points="108,467  111,462  116,465  114,470" stroke-width="1" />
<polygon points="145,481  147,475  153,477  151,483" stroke-width="1" />
<polygon points="143,494  149,494  149,500  143,500" stroke-width="1" />
<polygon points="146,515  152,513  154,519  148,521" stroke-width="1" />
<polygon points="156,535  161,531  165,536  160,540" stroke-width="1" />
<polygon points="170,548  173,543  178,546  175,551" stroke-width="1" />
<ellipse cx="159" cy="472" rx="2.0" ry="2.0" />
<ellipse cx="167" cy="461" rx="2.0" ry="2.0" />
<ellipse cx="179" cy="452" rx="2.0" ry="2.0" />
<ellipse cx="184" cy="544" rx="2.0" ry="2.0" />
<ellipse cx="198" cy="548" rx="2.0" ry="2.0" />
<ellipse cx="214" cy="548" rx="2.0" ry="2.0" />
</g>
<g stroke="#FFFFFF" fill="#FFFFFF" stroke-opacity="1.0" fill-opacity="1.0" transform="scale(0.5)">
<polygon points="102,525  104,533  108,541  112,549  105,552  100,542  95,528  93,519  100,517" stroke-width="1" />
</g>
<g stroke="#000000" fill="#FFFFFF" stroke-opacity="1.0" fill-opacity="1.0" transform="scale(0.5)">
<polyline points="113,549  105,552" stroke-width="1" fill="none"  />
<polyline points="93,519  101,516" stroke-width="1" fill="none"  />
<polyline points="93,519  97,534  105,552" stroke-width="1" fill="none"/> <!-- spline -->
</g>
<g stroke="#000000" fill="none" stroke-opacity="1.0" fill-opacity="1.0" transform="scale(0.5)">
<text x=" 103" y="530.0" font-family="Arial" font-size=" 10" fill="#000000" transform="rotate(70.0  103  520)" stroke-width="0">кассы</text>
</g>
<g stroke="#FF0000" fill="none" stroke-opacity="1.0" fill-opacity="1.0" transform="scale(0.5)">
<polyline points="201,408  195,391" marker-end="url(#arrow)" stroke-width="1" fill="none" />
</g>
<g stroke="#009900" fill="none" stroke-opacity="1.0" fill-opacity="1.0" transform="scale(0.5)">
<polyline points="199,595  193,579" marker-end="url(#arrow)" stroke-width="1" fill="none" />
</g>
<g stroke="#000000" fill="#702785" stroke-opacity="1.0" fill-opacity="1.0" transform="scale(0.5)">
<polygon points="486,263  486,233  936,233  936,263" stroke-width="1" />
<polygon points="486,373  486,343  936,343  936,373" stroke-width="1" />
</g>
<g stroke="#000000" fill="#702785" stroke-opacity="1.0" fill-opacity="1.0" transform="scale(0.5)">
<polyline points="486,263  486,270  570,270  570,276  564,276  564,330  570,330  570,336  486,336  486,343" stroke-width="1" fill="none"  />
<polyline points="936,263  936,270  833,270  833,275  862,275  862,278" stroke-width="1" fill="none"  />
<polyline points="862,327  862,330  833,330  833,336  936,336  936,343" stroke-width="1" fill="none"  />
</g>
<g stroke="#000000" fill="#CCCCCC" stroke-opacity="1.0" fill-opacity="1.0" transform="scale(0.5)">
<polygon points="740,276  740,270  783,270  783,276" stroke-width="1" />
<polygon points="740,336  740,330  783,330  783,336" stroke-width="1" />
</g>
<g stroke="#CCCCCC" fill="#CCCCCC" stroke-opacity="1.0" fill-opacity="1.0" transform="scale(0.5)">
<polygon points="1149,319  1158,339  1188,328  1173,286  1162,290  1158,279  1152,281  1155,294  1154,307" stroke-width="1" />
<polygon points="1139,193  1109,204  1115,225  1126,231  1135,240  1141,251  1147,249  1143,238  1154,234" stroke-width="1" />
</g>
<g stroke="#000000" fill="#CCCCCC" stroke-opacity="1.0" fill-opacity="1.0" transform="scale(0.5)">
<polyline points="1040,169  1043,168" stroke-width="1" fill="none"  />
<polyline points="1050,197  1054,208  1046,211  1010,242" stroke-width="1" fill="none"  />
<polyline points="1065,159  1068,158" stroke-width="1" fill="none"  />
<polyline points="1073,156  1101,146" stroke-width="1" fill="none"  />
<polyline points="1139,193  1154,234  1143,238  1147,249  1141,251" stroke-width="1" fill="none"  />
<polyline points="1152,281  1158,279  1162,290  1173,286  1188,328" stroke-width="1" fill="none"  />
<polyline points="1153,393  1150,394" stroke-width="1" fill="none"  />
<polyline points="1128,402  1125,403" stroke-width="1" fill="none"  />
<polyline points="1147,343  1188,328" stroke-width="1" fill="none"  />
<polyline points="1139,193  1098,208" stroke-width="1" fill="none"  />
<polyline points="1158,339  1140,303" stroke-width="1" fill="none"  />
<polyline points="1109,204  1119,245" stroke-width="1" fill="none"  />
<polyline points="1109,248  1130,307" stroke-width="1" fill="none"  />
<polyline points="1106,249  1127,308" stroke-width="1" fill="none"  />
<polyline points="1103,250  1124,309" stroke-width="1" fill="none"  />
<polyline points="1108,248  1103,250" stroke-width="1" fill="none"  />
<polyline points="1124,309  1131,307" stroke-width="1" fill="none"  />
<polyline points="1115,225  1125,231  1134,240  1141,251" stroke-width="1" fill="none"/> <!-- spline -->
<polyline points="1149,319  1153,307  1154,294  1152,281" stroke-width="1" fill="none"/> <!-- spline -->
<line x1="1064" y1="140" x2="1034" y2="151" stroke-width="1" />
<line x1="1064.9701425" y1="143.880570001" x2="1034.9701425" y2="154.880570001" stroke-width="1" />
<line x1="1136" y1="194" x2="1129" y2="173" stroke-width="1" />
<line x1="1132.25468329" y1="195.404493766" x2="1125.25468329" y2="174.404493766" stroke-width="1" />
<line x1="1128.50936658" y1="196.808987533" x2="1121.50936658" y2="175.808987533" stroke-width="1" />
<line x1="1124.76404987" y1="198.213481299" x2="1117.76404987" y2="177.213481299" stroke-width="1" />
<line x1="1121.01873316" y1="199.617975065" x2="1114.01873316" y2="178.617975065" stroke-width="1" />
<line x1="1159" y1="410" x2="1131" y2="420" stroke-width="1" />
<line x1="1157.21114562" y1="406.422291236" x2="1129.21114562" y2="416.422291236" stroke-width="1" />
<line x1="1158" y1="226" x2="1181" y2="289" stroke-width="1" />
<line x1="1154.28609324" y1="227.485562705" x2="1177.28609324" y2="290.485562705" stroke-width="1" />
<line x1="1192" y1="348" x2="1185" y2="329" stroke-width="1" />
<line x1="1188.25468329" y1="349.404493766" x2="1181.25468329" y2="330.404493766" stroke-width="1" />
<line x1="1184.50936658" y1="350.808987533" x2="1177.50936658" y2="331.808987533" stroke-width="1" />
<line x1="1180.76404987" y1="352.213481299" x2="1173.76404987" y2="333.213481299" stroke-width="1" />
<line x1="1177.01873316" y1="353.617975065" x2="1170.01873316" y2="334.617975065" stroke-width="1" />
<line x1="1117" y1="140" x2="1115" y2="134" stroke-width="1" />
<line x1="1113.26661758" y1="141.435916317" x2="1111.26661758" y2="135.435916317" stroke-width="1" />
<line x1="1109.53323515" y1="142.871832634" x2="1107.53323515" y2="136.871832634" stroke-width="1" />
<line x1="1105.79985273" y1="144.307748952" x2="1103.79985273" y2="138.307748952" stroke-width="1" />
<line x1="1203" y1="375" x2="1205" y2="381" stroke-width="1" />
<line x1="1199.20526681" y1="376.264911064" x2="1201.20526681" y2="382.264911064" stroke-width="1" />
<line x1="1195.41053362" y1="377.529822128" x2="1197.41053362" y2="383.529822128" stroke-width="1" />
<line x1="1191.61580042" y1="378.794733192" x2="1193.61580042" y2="384.794733192" stroke-width="1" />
<polyline points="1207,380  1188,387" stroke-width="1" fill="none"  />
<polyline points="1060,427  1064,439" stroke-width="1" fill="none"  />
<polyline points="1118,133  1099,140" stroke-width="1" fill="none"  />
<polyline points="1158,226  1152,228" stroke-width="1" fill="none"  />
<polyline points="969,181  974,193" stroke-width="1" fill="none"  />
<polyline points="1181,289  1176,291" stroke-width="1" fill="none"  />
</g>
<g stroke="#000000" fill="#CCCCCC" stroke-opacity="1.0" fill-opacity="1.0" transform="scale(0.5)">
<polygon points="1068,158  1073,156  1085,189  1080,191" stroke-width="1" />
<polygon points="1101,146  1113,179  1132,172  1120,139" stroke-width="1" />
<polygon points="994,248  1010,242  1007,234  1050,197  1040,169  974,193" stroke-width="1" />
<polygon points="1153,393  1143,366  1195,347  1205,374" stroke-width="1" />
<polygon points="1125,403  1112,367  1056,366  1040,372  1060,427" stroke-width="1" />
<polygon points="1064,439  1129,415  1131,421  1066,445" stroke-width="1" />
<polygon points="1159,411  1157,405  1209,386  1211,392" stroke-width="1" />
<polygon points="969,181  1035,157  1033,151  967,175" stroke-width="1" />
<polygon points="1066,145  1064,139  1114,121  1116,127" stroke-width="1" />
<polygon points="1158,245  1169,275  1163,277  1161,271  1150,275  1143,257  1154,253  1152,247" stroke-width="1" />
</g>
<g stroke="#7F7F7F" fill="#CCCCCC" stroke-opacity="1.0" fill-opacity="1.0" transform="scale(0.5)">
<line x1="1056" y1="324" x2="1056" y2="281" stroke-width="1" />
<line x1="1052" y1="324" x2="1052" y2="281" stroke-width="1" />
<line x1="1048" y1="324" x2="1048" y2="281" stroke-width="1" />
<line x1="1044" y1="324" x2="1044" y2="281" stroke-width="1" />
<line x1="1040" y1="324" x2="1040" y2="281" stroke-width="1" />
<line x1="1036" y1="324" x2="1036" y2="281" stroke-width="1" />
<line x1="1032" y1="324" x2="1032" y2="281" stroke-width="1" />
<line x1="1028" y1="324" x2="1028" y2="281" stroke-width="1" />
<line x1="1024" y1="324" x2="1024" y2="281" stroke-width="1" />
<line x1="1020" y1="324" x2="1020" y2="281" stroke-width="1" />
<line x1="1016" y1="324" x2="1016" y2="281" stroke-width="1" />
<line x1="1012" y1="324" x2="1012" y2="281" stroke-width="1" />
<line x1="1008" y1="324" x2="1008" y2="281" stroke-width="1" />
<line x1="1004" y1="324" x2="1004" y2="281" stroke-width="1" />
<line x1="1000" y1="324" x2="1000" y2="281" stroke-width="1" />
<line x1="996" y1="324" x2="996" y2="281" stroke-width="1" />
<line x1="992" y1="324" x2="992" y2="281" stroke-width="1" />
<line x1="988" y1="324" x2="988" y2="281" stroke-width="1" />
<line x1="984" y1="324" x2="984" y2="281" stroke-width="1" />
<line x1="980" y1="324" x2="980" y2="281" stroke-width="1" />
<line x1="976" y1="324" x2="976" y2="281" stroke-width="1" />
<line x1="972" y1="324" x2="972" y2="281" stroke-width="1" />
<line x1="968" y1="324" x2="968" y2="281" stroke-width="1" />
<line x1="964" y1="324" x2="964" y2="281" stroke-width="1" />
<line x1="960" y1="324" x2="960" y2="281" stroke-width="1" />
<line x1="956" y1="324" x2="956" y2="281" stroke-width="1" />
<line x1="952" y1="324" x2="952" y2="281" stroke-width="1" />
<line x1="948" y1="324" x2="948" y2="281" stroke-width="1" />
<line x1="944" y1="324" x2="944" y2="281" stroke-width="1" />
<line x1="940" y1="324" x2="940" y2="281" stroke-width="1" />
<line x1="936" y1="324" x2="936" y2="281" stroke-width="1" />
<line x1="932" y1="324" x2="932" y2="281" stroke-width="1" />
<line x1="928" y1="324" x2="928" y2="281" stroke-width="1" />
<line x1="924" y1="324" x2="924" y2="281" stroke-width="1" />
<line x1="920" y1="324" x2="920" y2="281" stroke-width="1" />
<line x1="916" y1="324" x2="916" y2="281" stroke-width="1" />
<line x1="912" y1="324" x2="912" y2="281" stroke-width="1" />
<line x1="908" y1="324" x2="908" y2="281" stroke-width="1" />
<line x1="904" y1="324" x2="904" y2="281" stroke-width="1" />
<line x1="900" y1="324" x2="900" y2="281" stroke-width="1" />
<line x1="896" y1="324" x2="896" y2="281" stroke-width="1" />
<line x1="892" y1="324" x2="892" y2="281" stroke-width="1" />
<line x1="888" y1="324" x2="888" y2="281" stroke-width="1" />
<line x1="884" y1="324" x2="884" y2="281" stroke-width="1" />
<line x1="880" y1="324" x2="880" y2="281" stroke-width="1" />
<line x1="876" y1="324" x2="876" y2="281" stroke-width="1" />
<line x1="872" y1="324" x2="872" y2="281" stroke-width="1" />
<line x1="868" y1="324" x2="868" y2="281" stroke-width="1" />
<line x1="864" y1="324" x2="864" y2="281" stroke-width="1" />
<line x1="860" y1="324" x2="860" y2="281" stroke-width="1" />
</g>
<g stroke="#000000" fill="#9B5509" stroke-opacity="1.0" fill-opacity="1.0" transform="scale(0.5)">
<polygon points="1063,281  855,281  855,278  1063,278" stroke-width="1" />
<polygon points="1063,288  1063,293  855,293  855,288" stroke-width="1" />
<polygon points="1063,300  1063,305  855,305  855,300" stroke-width="1" />
<polygon points="1063,312  1063,317  855,317  855,312" stroke-width="1" />
<polygon points="1063,324  855,324  855,327  1063,327" stroke-width="1" />
</g>
<g stroke="#7F7F7F" fill="#9B5509" stroke-opacity="1.0" fill-opacity="1.0" transform="scale(0.5)">
<line x1="1139" y1="308" x2="1133" y2="309" stroke-width="1" />
<line x1="1139.70013334" y1="311.938250031" x2="1133.70013334" y2="312.938250031" stroke-width="1" />
<line x1="1140.40026668" y1="315.876500062" x2="1134.40026668" y2="316.876500062" stroke-width="1" />
<line x1="1141.10040002" y1="319.814750093" x2="1135.10040002" y2="320.814750093" stroke-width="1" />
<line x1="1141.80053336" y1="323.753000125" x2="1135.80053336" y2="324.753000125" stroke-width="1" />
<line x1="1142.50066669" y1="327.691250156" x2="1136.50066669" y2="328.691250156" stroke-width="1" />
<line x1="1143.20080003" y1="331.629500187" x2="1137.20080003" y2="332.629500187" stroke-width="1" />
<line x1="1143.90093337" y1="335.567750218" x2="1137.90093337" y2="336.567750218" stroke-width="1" />
<line x1="1144.60106671" y1="339.506000249" x2="1138.60106671" y2="340.506000249" stroke-width="1" />
<line x1="1145.30120005" y1="343.44425028" x2="1139.30120005" y2="344.44425028" stroke-width="1" />
<line x1="1146.00133339" y1="347.382500311" x2="1140.00133339" y2="348.382500311" stroke-width="1" />
<line x1="1146.70146673" y1="351.320750343" x2="1140.70146673" y2="352.320750343" stroke-width="1" />
</g>
<g stroke="#000000" fill="#9B5509" stroke-opacity="1.0" fill-opacity="1.0" transform="scale(0.5)">
<polygon points="1132,304  1142,359  1140,359  1130,305" stroke-width="1" />
<polygon points="1138,303  1148,358  1150,358  1140,303" stroke-width="1" />
</g>
<g stroke="#7F7F7F" fill="#9B5509" stroke-opacity="1.0" fill-opacity="1.0" transform="scale(0.5)">
<line x1="1109" y1="245" x2="1116" y2="241" stroke-width="1" />
<line x1="1107.01544425" y1="241.527027432" x2="1114.01544425" y2="237.527027432" stroke-width="1" />
<line x1="1105.03088849" y1="238.054054863" x2="1112.03088849" y2="234.054054863" stroke-width="1" />
<line x1="1103.04633274" y1="234.581082295" x2="1110.04633274" y2="230.581082295" stroke-width="1" />
<line x1="1101.06177699" y1="231.108109726" x2="1108.06177699" y2="227.108109726" stroke-width="1" />
<line x1="1099.07722123" y1="227.635137158" x2="1106.07722123" y2="223.635137158" stroke-width="1" />
<line x1="1097.09266548" y1="224.162164589" x2="1104.09266548" y2="220.162164589" stroke-width="1" />
<line x1="1095.10810973" y1="220.689192021" x2="1102.10810973" y2="216.689192021" stroke-width="1" />
<line x1="1093.12355397" y1="217.216219452" x2="1100.12355397" y2="213.216219452" stroke-width="1" />
<line x1="1091.13899822" y1="213.743246884" x2="1098.13899822" y2="209.743246884" stroke-width="1" />
<line x1="1089.15444247" y1="210.270274315" x2="1096.15444247" y2="206.270274315" stroke-width="1" />
<line x1="1087.16988671" y1="206.797301747" x2="1094.16988671" y2="202.797301747" stroke-width="1" />
<line x1="1085.18533096" y1="203.324329178" x2="1092.18533096" y2="199.324329178" stroke-width="1" />
</g>
<g stroke="#000000" fill="#9B5509" stroke-opacity="1.0" fill-opacity="1.0" transform="scale(0.5)">
<polygon points="1117,246  1088,196  1090,195  1119,245" stroke-width="1" />
<polygon points="1112,249  1083,199  1081,200  1110,250" stroke-width="1" />
</g>
<g stroke="#FEFBF1" fill="#FEFBF1" stroke-opacity="0.85" fill-opacity="0.85" transform="scale(0.5)">
<polygon points="975,277  974,283  972,292  972,300  972,306  973,316  975,323  977,329  1011,328  1002,317  999,310  997,303  999,295  1002,288  1010,277" stroke-width="1" />
</g>
<g stroke="#0" fill="#FEFBF1" stroke-opacity="1.0" fill-opacity="1.0" transform="scale(0.5)">
<polyline points="994,248  973,284  975,325  1000,358  1040,372" stroke-width="1" fill="none"/> <!-- spline -->
<polyline points="1010,278  998,303  1011,327" stroke-width="1" fill="none"/> <!-- spline -->
</g>
<g stroke="#0" fill="none" stroke-opacity="1.0" fill-opacity="1.0" transform="scale(0.5)">
<text x=" 1015" y="233.0" font-family="Arial" font-size=" 10" fill="#0" transform="rotate(-40.0  1015  223)" stroke-width="0">кассы</text>
</g>
<g stroke="#0" fill="none" stroke-opacity="1.0" fill-opacity="1.0" transform="scale(0.5)">
<polyline points="1063,303  1098,303" stroke-width=" 0.5" fill="none"  />
<polyline points="1075,267  1047,271  1047,278" stroke-width=" 0.5" fill="none"  />
<polyline points="1070,345  1047,345  1047,327" stroke-width=" 0.5" fill="none"  />
</g>
<g stroke="#009900" fill="none" stroke-opacity="1.0" fill-opacity="1.0" transform="scale(0.5)">
<line x1="1101" y1="299" x2="1098" y2="301" stroke-width="1" />
<line x1="1098.69326721" y1="295.732128547" x2="1095.69326721" y2="297.732128547" stroke-width="1" />
<line x1="1096.38653442" y1="292.464257094" x2="1093.38653442" y2="294.464257094" stroke-width="1" />
<line x1="1094.07980163" y1="289.196385641" x2="1091.07980163" y2="291.196385641" stroke-width="1" />
<line x1="1091.77306884" y1="285.928514188" x2="1088.77306884" y2="287.928514188" stroke-width="1" />
<line x1="1089.46633605" y1="282.660642735" x2="1086.46633605" y2="284.660642735" stroke-width="1" />
<line x1="1087.15960326" y1="279.392771282" x2="1084.15960326" y2="281.392771282" stroke-width="1" />
<line x1="1084.85287047" y1="276.124899829" x2="1081.85287047" y2="278.124899829" stroke-width="1" />
<line x1="1082.54613768" y1="272.857028376" x2="1079.54613768" y2="274.857028376" stroke-width="1" />
<line x1="1080.23940489" y1="269.589156922" x2="1077.23940489" y2="271.589156922" stroke-width="1" />
<line x1="1077.9326721" y1="266.321285469" x2="1074.9326721" y2="268.321285469" stroke-width="1" />
</g>
<g stroke="#FF0000" fill="none" stroke-opacity="1.0" fill-opacity="1.0" transform="scale(0.5)">
<line x1="1101" y1="307" x2="1098" y2="305" stroke-width="1" />
<line x1="1098.70615062" y1="310.276927682" x2="1095.70615062" y2="308.276927682" stroke-width="1" />
<line x1="1096.41230125" y1="313.553855364" x2="1093.41230125" y2="311.553855364" stroke-width="1" />
<line x1="1094.11845187" y1="316.830783046" x2="1091.11845187" y2="314.830783046" stroke-width="1" />
<line x1="1091.82460249" y1="320.107710728" x2="1088.82460249" y2="318.107710728" stroke-width="1" />
<line x1="1089.53075311" y1="323.38463841" x2="1086.53075311" y2="321.38463841" stroke-width="1" />
<line x1="1087.23690374" y1="326.661566092" x2="1084.23690374" y2="324.661566092" stroke-width="1" />
<line x1="1084.94305436" y1="329.938493775" x2="1081.94305436" y2="327.938493775" stroke-width="1" />
<line x1="1082.64920498" y1="333.215421457" x2="1079.64920498" y2="331.215421457" stroke-width="1" />
<line x1="1080.3553556" y1="336.492349139" x2="1077.3553556" y2="334.492349139" stroke-width="1" />
<line x1="1078.06150623" y1="339.769276821" x2="1075.06150623" y2="337.769276821" stroke-width="1" />
<line x1="1075.76765685" y1="343.046204503" x2="1072.76765685" y2="341.046204503" stroke-width="1" />
<line x1="1073.47380747" y1="346.323132185" x2="1070.47380747" y2="344.323132185" stroke-width="1" />
</g>
<g stroke="#FFFFFF" fill="#FFFFFF" stroke-opacity="0.8" fill-opacity="0.8" transform="scale(0.5)">
<polygon points="634,405  664,405  664,437  653,437  653,405  645,405  645,437  634,437" stroke-width="1" />
<polygon points="637,342  675,342  675,368  670,374  640,374  637,368" stroke-width="1" />
</g>
<g stroke="#000000" fill="#CCCCCC" stroke-opacity="1.0" fill-opacity="1.0" transform="scale(0.5)">
<polygon points="623,276  623,270  690,270  690,276" stroke-width="1" />
<polygon points="623,330  623,336  637,336  637,330" stroke-width="1" />
<polygon points="675,330  675,336  690,336  690,330" stroke-width="1" />
<polygon points="660,357  667,357  667,364  664,369  660,369" stroke-width="1" />
<polygon points="652,357  645,357  645,364  648,369  652,369" stroke-width="1" />
<polyline points="637,336  637,368  639,374  634,403  634,459" stroke-width="1" fill="none"  />
<polyline points="675,336  675,368  668,379  664,403  664,459" stroke-width="1" fill="none"  />
<polyline points="652,357  652,369" stroke-width="1" fill="none"  />
<polyline points="660,357  660,369" stroke-width="1" fill="none"  />
<polyline points="653,459  653,404  657,377  649,376  645,403  645,459" stroke-width="1" fill="none"  />
<line x1="637" y1="333" x2="675" y2="333" stroke-width="1" />
<line x1="637" y1="337" x2="675" y2="337" stroke-width="1" />
<line x1="637" y1="341" x2="675" y2="341" stroke-width="1" />
<line x1="637" y1="345" x2="675" y2="345" stroke-width="1" />
<line x1="637" y1="349" x2="675" y2="349" stroke-width="1" />
<line x1="637" y1="353" x2="675" y2="353" stroke-width="1" />
<line x1="634" y1="457" x2="645" y2="457" stroke-width="1" />
<line x1="634" y1="453" x2="645" y2="453" stroke-width="1" />
<line x1="634" y1="449" x2="645" y2="449" stroke-width="1" />
<line x1="634" y1="445" x2="645" y2="445" stroke-width="1" />
<line x1="634" y1="441" x2="645" y2="441" stroke-width="1" />
<line x1="634" y1="437" x2="645" y2="437" stroke-width="1" />
<line x1="634" y1="433" x2="645" y2="433" stroke-width="1" />
<line x1="634" y1="429" x2="645" y2="429" stroke-width="1" />
<line x1="664" y1="457" x2="653" y2="457" stroke-width="1" />
<line x1="664" y1="453" x2="653" y2="453" stroke-width="1" />
<line x1="664" y1="449" x2="653" y2="449" stroke-width="1" />
<line x1="664" y1="445" x2="653" y2="445" stroke-width="1" />
<line x1="664" y1="441" x2="653" y2="441" stroke-width="1" />
<line x1="664" y1="437" x2="653" y2="437" stroke-width="1" />
<line x1="664" y1="433" x2="653" y2="433" stroke-width="1" />
<line x1="664" y1="429" x2="653" y2="429" stroke-width="1" />
<line x1="688" y1="276" x2="688" y2="330" stroke-width="1" />
<line x1="684" y1="276" x2="684" y2="330" stroke-width="1" />
<line x1="680" y1="276" x2="680" y2="330" stroke-width="1" />
<line x1="625" y1="276" x2="625" y2="330" stroke-width="1" />
<line x1="629" y1="276" x2="629" y2="330" stroke-width="1" />
<line x1="633" y1="276" x2="633" y2="330" stroke-width="1" />
</g>
<g stroke="#FF0000" fill="#CCCCCC" stroke-opacity="1.0" fill-opacity="1.0" transform="scale(0.5)">
<polyline points="1083,321  1094,329" marker-end="url(#arrow)" stroke-width="1" fill="none" />
<polyline points="1130,374  1135,387" marker-end="url(#arrow)" stroke-width="1" fill="none" />
</g>
<g stroke="#009900" fill="#CCCCCC" stroke-opacity="1.0" fill-opacity="1.0" transform="scale(0.5)">
<polyline points="1092,279  1081,286" marker-end="url(#arrow)" stroke-width="1" fill="none" />
<polyline points="1058,173  1064,189" marker-end="url(#arrow)" stroke-width="1" fill="none" />
</g>
<g stroke="#702785" fill="none" stroke-opacity="1.0" fill-opacity="1.0" transform="scale(0.5)">
<text x=" 488" y="230.0" font-family="Arial" font-size=" 20" fill="#702785" stroke-width="0">&lt;&lt; Садовая</text>
<text x=" 760" y="394.0" font-family="Arial" font-size=" 20" fill="#702785" stroke-width="0">Обводный канал &gt;&gt;</text>
<text x=" 635" y="309.0" font-family="Arial" font-size=" 25" fill="#702785" stroke-width="0">Звенигородская</text>
</g>
<g stroke="#D6083B" fill="none" stroke-opacity="1.0" fill-opacity="1.0" transform="scale(0.5)">
<text x=" 405" y="402.0" font-family="Arial" font-size=" 20" fill="#D6083B" stroke-width="0">&lt;&lt; Технологический институт-I</text>
<text x=" 694" y="565.0" font-family="Arial" font-size=" 20" fill="#D6083B" stroke-width="0">Владимирская &gt;&gt;</text>
<text x=" 536" y="484.0" font-family="Arial" font-size=" 25" fill="#D6083B" stroke-width="0">Пушкинская</text>
</g>
<g stroke="#DDDDDD" fill="#FEFBF1" stroke-opacity="1.0" fill-opacity="1.0" transform="scale(0.5)">
<polygon points="-120,714  -115,694  -100,678  -104,667  -85,660  -81,671  52,623  94,738  45,756  32,720  -51,750  -38,786  -87,804" stroke-width="1" />
<polygon points="793,776  889,741  945,896  849,931" stroke-width="1" />
</g>
<g stroke="#000000" fill="none" stroke-opacity="1.0" fill-opacity="1.0" transform="scale(0.5)">
<text x=" -79" y="720.0" font-family="Arial" font-size=" 15" fill="#000000" transform="rotate(-20.0  -79  705)" stroke-width="0">Витебский вокзал</text>
<text x=" 852" y="843.0" font-family="Arial" font-size=" 15" fill="#000000" transform="rotate(-20.0  852  828)" stroke-width="0">ТЮЗ</text>
</g>
<g stroke="#00AFAF" fill="none" stroke-opacity="1.0" fill-opacity="1.0" transform="scale(0.5)">
<text x=" 225" y="275.0" font-family="Arial" font-size=" 15" fill="#00AFAF" transform="rotate(-20.0  225  260)" stroke-width="0">Загородный проспект</text>
<text x=" 1174" y="189.0" font-family="Arial" font-size=" 15" fill="#00AFAF" transform="rotate(70.0  1174  174)" stroke-width="0">Звенигородская улица</text>
<text x=" 791" y="606.0" font-family="Arial" font-size=" 15" fill="#00AFAF" transform="rotate(70.0  791  591)" stroke-width="0">Пионерская площадь</text>
</g>
<g stroke="#FFD0D0" fill="#FFD0D0" stroke-opacity="0.7" fill-opacity="0.7" transform="scale(0.5)">
<polygon points="81,315  370,393  295,674  6,596" stroke-width="1" />
</g>
<g stroke="#FF4040" fill="#FFD0D0" stroke-opacity="1.0" fill-opacity="1.0" transform="scale(0.5)">
<polyline points="81,315  370,393  295,674  6,596  81,315" stroke-width="1" fill="none" stroke-dasharray="5,2" />
</g>
<g stroke="#FF4040" fill="none" stroke-opacity="1.0" fill-opacity="1.0" transform="scale(0.5)">
<text x=" 121" y="480.0" font-family="Arial" font-size=" 20" fill="#FF4040" transform="rotate(15.0  121  460)" stroke-width="0">Вестибюль закрыт до</text>
<text x=" 161" y="514.0" font-family="Arial" font-size=" 20" fill="#FF4040" transform="rotate(15.0  161  494)" stroke-width="0">30.06.2015</text>
</g>
</g>
</g>
</svg>
