<?xml version="1.0" encoding="utf-8" ?>
<svg baseProfile="full" height="100%" version="1.1" width="100%" xmlns="http://www.w3.org/2000/svg" xmlns:ev="http://www.w3.org/2001/xml-events" xmlns:xlink="http://www.w3.org/1999/xlink"><defs><marker id="id512" markerHeight="3" markerUnits="strokeWidth" markerWidth="4" orient="auto" refX="0" refY="5" viewBox="0,0,10,10"><path d="M 0 0 L 10 5 L 0 10 z" /></marker></defs><g transform="scale(0.5)"><rect fill="none" height="946" stroke="none" width="1090" x="0" y="0" /><polyline fill="none" points="434,4 560,260 1072,183" stroke="#CEEBFF" stroke-width="20" /><text fill="#0033CC" font-family="Arial" font-size="20" stroke="none" x="730" y="20.0">Схема движения электропоездов</text><text fill="#0033CC" font-family="Arial" font-size="20" stroke="none" x="730" y="40.0">с Московского и Ладожского вокзалов</text><text fill="#0033CC" font-family="Arial" font-size="12" stroke="none" x="720" y="139.0">Схема движения электропоездов</text><text fill="#0033CC" font-family="Arial" font-size="12" stroke="none" x="720" y="149.0">с Финляндского вокзала</text><text fill="#0033CC" font-family="Arial" font-size="12" stroke="none" x="15" y="912.0">Схема с Витебского вкз</text><text fill="#0033CC" font-family="Arial" font-size="12" stroke="none" x="15" y="932.0">Схема от Новгорода</text><text fill="#0033CC" font-family="Arial" font-size="14" stroke="none" x="804" y="263.0">Нева</text><polyline fill="none" marker-end="url(#id512)" points="160,910 160,940" stroke="#0033CC" stroke-width="1" /><text fill="#0033CC" font-family="Arial" font-size="14" stroke="none" x="175" y="939.0">Схема до Москвы</text><polyline fill="none" points="153,22 167,22" stroke="#000033" stroke-width="1" /><text fill="#000033" font-family="Arial" font-size="12" stroke="none" x="145" y="34.0">1</text><polyline fill="none" points="153,72 167,72" stroke="#000033" stroke-width="1" /><text fill="#000033" font-family="Arial" font-size="12" stroke="none" x="145" y="84.0">2</text><polyline fill="none" points="153,147 169,147" stroke="#000033" stroke-width="1" /><text fill="#000033" font-family="Arial" font-size="12" stroke="none" x="145" y="159.0">3</text><polyline fill="none" points="153,222 169,222" stroke="#000033" stroke-width="1" /><text fill="#000033" font-family="Arial" font-size="12" stroke="none" x="145" y="234.0">4</text><polyline fill="none" points="153,272 169,272" stroke="#000033" stroke-width="1" /><text fill="#000033" font-family="Arial" font-size="12" stroke="none" x="145" y="284.0">5</text><polyline fill="none" points="153,297 169,297" stroke="#000033" stroke-width="1" /><text fill="#000033" font-family="Arial" font-size="12" stroke="none" x="145" y="309.0">6</text><polyline fill="none" points="153,347 169,347 173,329" stroke="#000033" stroke-width="1" /><text fill="#000033" font-family="Arial" font-size="12" stroke="none" x="145" y="359.0">7</text><polyline fill="none" points="303,397 319,397" stroke="#000033" stroke-width="1" /><text fill="#000033" font-family="Arial" font-size="12" stroke="none" x="295" y="409.0">8</text><polyline fill="none" points="153,372 169,372" stroke="#000033" stroke-width="1" /><text fill="#000033" font-family="Arial" font-size="12" stroke="none" x="145" y="384.0">8</text><polyline fill="none" points="153,422 169,422" stroke="#000033" stroke-width="1" /><text fill="#000033" font-family="Arial" font-size="12" stroke="none" x="145" y="434.0">9</text><polyline fill="none" points="153,497 169,497" stroke="#000033" stroke-width="1" /><text fill="#000033" font-family="Arial" font-size="12" stroke="none" x="138" y="509.0">10</text><polyline fill="none" points="153,547 169,547" stroke="#000033" stroke-width="1" /><text fill="#000033" font-family="Arial" font-size="12" stroke="none" x="138" y="559.0">11</text><polyline fill="none" points="153,647 169,647" stroke="#000033" stroke-width="1" /><text fill="#000033" font-family="Arial" font-size="12" stroke="none" x="138" y="659.0">12</text><polyline fill="none" points="153,672 169,672" stroke="#000033" stroke-width="1" /><text fill="#000033" font-family="Arial" font-size="12" stroke="none" x="138" y="684.0">13</text><polyline fill="none" points="153,722 169,722" stroke="#000033" stroke-width="1" /><text fill="#000033" font-family="Arial" font-size="12" stroke="none" x="138" y="734.0">14</text><polyline fill="none" points="153,797 169,797" stroke="#000033" stroke-width="1" /><text fill="#000033" font-family="Arial" font-size="12" stroke="none" x="138" y="809.0">15</text><polyline fill="none" points="153,847 169,847" stroke="#000033" stroke-width="1" /><text fill="#000033" font-family="Arial" font-size="12" stroke="none" x="138" y="859.0">16</text><polyline fill="none" points="153,897 169,897" stroke="#000033" stroke-width="1" /><text fill="#000033" font-family="Arial" font-size="12" stroke="none" x="138" y="909.0">17</text><polyline fill="none" points="353,172 369,172" stroke="#000033" stroke-width="1" /><text fill="#000033" font-family="Arial" font-size="12" stroke="none" x="345" y="184.0">3</text><polyline fill="none" points="353,222 369,222" stroke="#000033" stroke-width="1" /><text fill="#000033" font-family="Arial" font-size="12" stroke="none" x="345" y="234.0">4</text><polyline fill="none" points="353,297 369,297" stroke="#000033" stroke-width="1" /><text fill="#000033" font-family="Arial" font-size="12" stroke="none" x="345" y="309.0">5</text><polyline fill="none" points="444,342 449,324" stroke="#000033" stroke-width="1" /><text fill="#000033" font-family="Arial" font-size="12" stroke="none" x="444" y="354.0">6</text><polyline fill="none" points="453,422 469,422" stroke="#000033" stroke-width="1" /><text fill="#000033" font-family="Arial" font-size="12" stroke="none" x="445" y="434.0">7</text><polyline fill="none" points="453,472 469,472" stroke="#000033" stroke-width="1" /><text fill="#000033" font-family="Arial" font-size="12" stroke="none" x="445" y="484.0">8</text><polyline fill="none" points="453,522 469,522" stroke="#000033" stroke-width="1" /><text fill="#000033" font-family="Arial" font-size="12" stroke="none" x="445" y="534.0">9</text><polyline fill="none" points="453,547 469,547" stroke="#000033" stroke-width="1" /><text fill="#000033" font-family="Arial" font-size="12" stroke="none" x="438" y="559.0">10</text><polyline fill="none" points="453,572 469,572" stroke="#000033" stroke-width="1" /><text fill="#000033" font-family="Arial" font-size="12" stroke="none" x="438" y="584.0">11</text><polyline fill="none" points="453,622 469,622" stroke="#000033" stroke-width="1" /><text fill="#000033" font-family="Arial" font-size="12" stroke="none" x="438" y="634.0">12</text><polyline fill="none" points="453,697 469,697" stroke="#000033" stroke-width="1" /><text fill="#000033" font-family="Arial" font-size="12" stroke="none" x="438" y="709.0">13</text><polyline fill="none" points="453,747 469,747" stroke="#000033" stroke-width="1" /><text fill="#000033" font-family="Arial" font-size="12" stroke="none" x="438" y="759.0">14</text><polyline fill="none" points="453,772 469,772" stroke="#000033" stroke-width="1" /><text fill="#000033" font-family="Arial" font-size="12" stroke="none" x="438" y="784.0">15</text><polyline fill="none" points="603,447 619,447" stroke="#000033" stroke-width="1" /><text fill="#000033" font-family="Arial" font-size="12" stroke="none" x="595" y="459.0">7</text><polyline fill="none" points="603,497 619,497" stroke="#000033" stroke-width="1" /><text fill="#000033" font-family="Arial" font-size="12" stroke="none" x="595" y="509.0">8</text><polyline fill="none" points="739,371 734,353" stroke="#000033" stroke-width="1" /><text fill="#000033" font-family="Arial" font-size="12" stroke="none" x="739" y="356.0">7</text><polyline fill="none" points="753,422 769,422" stroke="#000033" stroke-width="1" /><text fill="#000033" font-family="Arial" font-size="12" stroke="none" x="745" y="434.0">8</text><polyline fill="none" points="753,497 769,497" stroke="#000033" stroke-width="1" /><text fill="#000033" font-family="Arial" font-size="12" stroke="none" x="745" y="509.0">9</text><polyline fill="none" points="753,572 769,572" stroke="#000033" stroke-width="1" /><text fill="#000033" font-family="Arial" font-size="12" stroke="none" x="738" y="584.0">10</text><polyline fill="none" points="753,622 769,622" stroke="#000033" stroke-width="1" /><text fill="#000033" font-family="Arial" font-size="12" stroke="none" x="738" y="634.0">11</text><polyline fill="none" points="753,647 769,647" stroke="#000033" stroke-width="1" /><text fill="#000033" font-family="Arial" font-size="12" stroke="none" x="738" y="659.0">12</text><polyline fill="none" points="753,722 769,722" stroke="#000033" stroke-width="1" /><text fill="#000033" font-family="Arial" font-size="12" stroke="none" x="738" y="734.0">13</text><polyline fill="none" points="903,397 919,397" stroke="#000033" stroke-width="1" /><text fill="#000033" font-family="Arial" font-size="12" stroke="none" x="888" y="409.0">17</text><polyline fill="none" points="903,422 919,422" stroke="#000033" stroke-width="1" /><text fill="#000033" font-family="Arial" font-size="12" stroke="none" x="888" y="434.0">18</text><polyline fill="none" points="903,622 919,622" stroke="#000033" stroke-width="1" /><text fill="#000033" font-family="Arial" font-size="12" stroke="none" x="888" y="634.0">21</text><polyline fill="none" points="903,772 919,772" stroke="#000033" stroke-width="1" /><text fill="#000033" font-family="Arial" font-size="12" stroke="none" x="888" y="784.0">26</text><polyline fill="none" points="3,872 19,872" stroke="#000033" stroke-width="1" /><text fill="#000033" font-family="Arial" font-size="12" stroke="none" x="19" y="884.0">21</text></g></svg>