<?xml version="1.0" encoding="utf-8" ?>
<svg baseProfile="full" height="100%" version="1.1" width="100%" xmlns="http://www.w3.org/2000/svg" xmlns:ev="http://www.w3.org/2001/xml-events" xmlns:xlink="http://www.w3.org/1999/xlink"><defs><marker id="id509" markerHeight="3" markerUnits="strokeWidth" markerWidth="4" orient="auto" refX="0" refY="5" viewBox="0,0,10,10"><path d="M 0 0 L 10 5 L 0 10 z" /></marker></defs><g transform="scale(0.5)"><rect fill="none" height="870" stroke="none" width="815" x="0" y="0" /><text fill="#0033CC" font-family="Arial" font-size="20" stroke="none" x="35" y="20.0">Схема движения</text><text fill="#0033CC" font-family="Arial" font-size="20" stroke="none" x="35" y="40.0">электропоездов</text><text fill="#0033CC" font-family="Arial" font-size="20" stroke="none" x="35" y="60.0">с Балтийского вокзала</text><polyline fill="none" marker-end="url(#id509)" points="145,795 130,815" stroke="#0033CC" stroke-width="1" /><polyline fill="none" marker-end="url(#id509)" points="125,825 105,850" stroke="#0033CC" stroke-width="1" /><polyline fill="none" marker-end="url(#id509)" points="130,825 130,850" stroke="#0033CC" stroke-width="1" /><text fill="#0033CC" font-family="Arial" font-size="12" stroke="none" x="115" y="827.0">Котлы</text><text fill="#0033CC" font-family="Arial" font-size="12" stroke="none" x="70" y="862.0">Усть-Луга</text><text fill="#0033CC" font-family="Arial" font-size="12" stroke="none" x="130" y="865.0">Веймарн</text><polyline fill="none" marker-end="url(#id509)" points="465,430 465,480" stroke="#0033CC" stroke-width="1" /><polyline fill="none" marker-end="url(#id509)" points="465,490 445,510" stroke="#0033CC" stroke-width="1" /><polyline fill="none" marker-end="url(#id509)" points="465,490 485,510" stroke="#0033CC" stroke-width="1" /><text fill="#0033CC" font-family="Arial" font-size="12" stroke="none" x="445" y="492.0">Веймарн</text><text fill="#0033CC" font-family="Arial" font-size="12" stroke="none" x="405" y="522.0">Ивангород</text><text fill="#0033CC" font-family="Arial" font-size="12" stroke="none" x="485" y="522.0">Гдов</text><polyline fill="none" marker-end="url(#id509)" points="590,850 590,870" stroke="#0033CC" stroke-width="1" /><text fill="#0033CC" font-family="Arial" font-size="12" stroke="none" x="610" y="867.0">Схема до Пскова и Новгорода</text><text fill="#003300" font-family="Arial" font-size="14" stroke="none" x="165" y="357.0">г. Петродворец</text><text fill="#003300" font-family="Arial" font-size="14" stroke="none" x="165" y="478.0">г. Ломоносов</text><text fill="#003300" font-family="Arial" font-size="14" stroke="none" x="165" y="808.0">г. Сосновый Бор</text><polyline fill="none" points="360,25 390,25" stroke="#003300" stroke-width="1" /><text fill="#003300" font-family="Arial" font-size="12" stroke="none" x="393" y="32.0">зона 1</text><polyline fill="none" points="360,85 390,85" stroke="#003300" stroke-width="1" /><text fill="#003300" font-family="Arial" font-size="12" stroke="none" x="393" y="92.0">зона 2</text><polyline fill="none" points="140,205 160,205 160,182" stroke="#003300" stroke-width="1" /><text fill="#003300" font-family="Arial" font-size="12" stroke="none" x="103" y="212.0">зона 3</text><polyline fill="none" points="140,325 160,325" stroke="#003300" stroke-width="1" /><text fill="#003300" font-family="Arial" font-size="12" stroke="none" x="103" y="332.0">зона 4</text><polyline fill="none" points="140,415 160,415" stroke="#003300" stroke-width="1" /><text fill="#003300" font-family="Arial" font-size="12" stroke="none" x="103" y="422.0">зона 5</text><polyline fill="none" points="140,535 160,535" stroke="#003300" stroke-width="1" /><text fill="#003300" font-family="Arial" font-size="12" stroke="none" x="103" y="542.0">зона 6</text><polyline fill="none" points="140,625 160,625" stroke="#003300" stroke-width="1" /><text fill="#003300" font-family="Arial" font-size="12" stroke="none" x="103" y="632.0">зона 7</text><polyline fill="none" points="135,665 140,685 160,685" stroke="#003300" stroke-width="1" /><text fill="#003300" font-family="Arial" font-size="12" stroke="none" x="103" y="672.0">зона 8</text><polyline fill="none" points="140,745 160,745" stroke="#003300" stroke-width="1" /><text fill="#003300" font-family="Arial" font-size="12" stroke="none" x="103" y="752.0">зона 9</text><polyline fill="none" points="340,295 360,295" stroke="#003300" stroke-width="1" /><text fill="#003300" font-family="Arial" font-size="12" stroke="none" x="303" y="302.0">зона 4</text><polyline fill="none" points="340,385 360,385" stroke="#003300" stroke-width="1" /><text fill="#003300" font-family="Arial" font-size="12" stroke="none" x="303" y="392.0">зона 5</text><polyline fill="none" points="340,445 360,445" stroke="#003300" stroke-width="1" /><text fill="#003300" font-family="Arial" font-size="12" stroke="none" x="303" y="452.0">зона 6</text><text fill="#003300" font-family="Arial" font-size="12" stroke="none" x="460" y="422.0">зона 7</text><polyline fill="none" points="580,175 600,175" stroke="#003300" stroke-width="1" /><text fill="#003300" font-family="Arial" font-size="12" stroke="none" x="543" y="182.0">зона 3</text><polyline fill="none" points="580,235 600,235" stroke="#003300" stroke-width="1" /><text fill="#003300" font-family="Arial" font-size="12" stroke="none" x="543" y="242.0">зона 4</text><polyline fill="none" points="580,265 600,265" stroke="#003300" stroke-width="1" /><text fill="#003300" font-family="Arial" font-size="12" stroke="none" x="543" y="272.0">зона 5</text><polyline fill="none" points="580,355 600,355" stroke="#003300" stroke-width="1" /><text fill="#003300" font-family="Arial" font-size="12" stroke="none" x="543" y="362.0">зона 6</text><polyline fill="none" points="580,415 600,415" stroke="#003300" stroke-width="1" /><text fill="#003300" font-family="Arial" font-size="12" stroke="none" x="543" y="422.0">зона 7</text><polyline fill="none" points="580,505 600,505" stroke="#003300" stroke-width="1" /><text fill="#003300" font-family="Arial" font-size="12" stroke="none" x="543" y="512.0">зона 8</text><polyline fill="none" points="580,535 600,535" stroke="#003300" stroke-width="1" /><text fill="#003300" font-family="Arial" font-size="12" stroke="none" x="543" y="542.0">зона 9</text><polyline fill="none" points="580,595 600,595" stroke="#003300" stroke-width="1" /><text fill="#003300" font-family="Arial" font-size="12" stroke="none" x="543" y="602.0">зона 10</text><polyline fill="none" points="580,625 600,625" stroke="#003300" stroke-width="1" /><text fill="#003300" font-family="Arial" font-size="12" stroke="none" x="543" y="632.0">зона 11</text><polyline fill="none" points="580,685 600,685" stroke="#003300" stroke-width="1" /><text fill="#003300" font-family="Arial" font-size="12" stroke="none" x="543" y="692.0">зона 12</text><polyline fill="none" points="580,745 600,745" stroke="#003300" stroke-width="1" /><text fill="#003300" font-family="Arial" font-size="12" stroke="none" x="543" y="752.0">зона 13</text><polyline fill="none" points="580,775 600,775" stroke="#003300" stroke-width="1" /><text fill="#003300" font-family="Arial" font-size="12" stroke="none" x="543" y="782.0">зона 14</text><polyline fill="none" points="580,835 600,835" stroke="#003300" stroke-width="1" /><text fill="#003300" font-family="Arial" font-size="12" stroke="none" x="543" y="842.0">зона 15</text></g></svg>