<?xml version="1.0" encoding="utf-8" ?>
<svg baseProfile="full" height="100%" version="1.1" width="100%" xmlns="http://www.w3.org/2000/svg" xmlns:ev="http://www.w3.org/2001/xml-events" xmlns:xlink="http://www.w3.org/1999/xlink">
  <defs>
    <marker id="id457" markerHeight="3" markerUnits="strokeWidth" markerWidth="4" orient="auto" refX="0" refY="5" viewBox="0,0,10,10">
      <path d="M 0 0 L 10 5 L 0 10 z"/>
    </marker>
  </defs>
  <g>
    <rect fill="none" height="810" stroke="none" stroke-width="0" width="260" x="0" y="0"/>
    <g transform="rotate(85.0,130,405)">
      <polygon fill="#702785" points="71,370 71,340 521,340 521,370" stroke="#000000" stroke-width="1"/>
      <polygon fill="#702785" points="71,450 71,480 521,480 521,450" stroke="#000000" stroke-width="1"/>
      <text fill="#702785" font-family="Arial" font-size="20" stroke="none" stroke-width="0" x="72" y="336.0">&lt;&lt; Комендантский проспект</text>
      <text fill="#702785" font-family="Arial" font-size="20" stroke="none" stroke-width="0" x="329" y="500.0">Крестовский остров &gt;&gt;</text>
      <text fill="#702785" font-family="Arial" font-size="25" stroke="none" stroke-width="0" x="198" y="417.0">Старая Деревня</text>
      <polyline fill="none" points="521,370 521,381 470,381 470,439 521,439 521,450" stroke="#000000" stroke-width="1"/>
      <polyline fill="none" points="71,370 71,381 18,381 18,384" stroke="#000000" stroke-width="1"/>
      <polyline fill="none" points="71,450 71,440 18,440 18,437" stroke="#000000" stroke-width="1"/>
      <line stroke="#7f7f7f" stroke-width="1" x1="20" x2="20" y1="434" y2="387"/>
      <line stroke="#7f7f7f" stroke-width="1" x1="16" x2="16" y1="434" y2="387"/>
      <line stroke="#7f7f7f" stroke-width="1" x1="12" x2="12" y1="434" y2="387"/>
      <line stroke="#7f7f7f" stroke-width="1" x1="8" x2="8" y1="434" y2="387"/>
      <line stroke="#7f7f7f" stroke-width="1" x1="4" x2="4" y1="434" y2="387"/>
      <line stroke="#7f7f7f" stroke-width="1" x1="0" x2="0" y1="434" y2="387"/>
      <line stroke="#7f7f7f" stroke-width="1" x1="-4" x2="-4" y1="434" y2="387"/>
      <line stroke="#7f7f7f" stroke-width="1" x1="-8" x2="-8" y1="434" y2="387"/>
      <line stroke="#7f7f7f" stroke-width="1" x1="-12" x2="-12" y1="434" y2="387"/>
      <line stroke="#7f7f7f" stroke-width="1" x1="-16" x2="-16" y1="434" y2="387"/>
      <line stroke="#7f7f7f" stroke-width="1" x1="-20" x2="-20" y1="434" y2="387"/>
      <line stroke="#7f7f7f" stroke-width="1" x1="-24" x2="-24" y1="434" y2="387"/>
      <line stroke="#7f7f7f" stroke-width="1" x1="-28" x2="-28" y1="434" y2="387"/>
      <line stroke="#7f7f7f" stroke-width="1" x1="-32" x2="-32" y1="434" y2="387"/>
      <line stroke="#7f7f7f" stroke-width="1" x1="-36" x2="-36" y1="434" y2="387"/>
      <line stroke="#7f7f7f" stroke-width="1" x1="-40" x2="-40" y1="434" y2="387"/>
      <line stroke="#7f7f7f" stroke-width="1" x1="-44" x2="-44" y1="434" y2="387"/>
      <line stroke="#7f7f7f" stroke-width="1" x1="-48" x2="-48" y1="434" y2="387"/>
      <line stroke="#7f7f7f" stroke-width="1" x1="-52" x2="-52" y1="434" y2="387"/>
      <line stroke="#7f7f7f" stroke-width="1" x1="-56" x2="-56" y1="434" y2="387"/>
      <line stroke="#7f7f7f" stroke-width="1" x1="-60" x2="-60" y1="434" y2="387"/>
      <line stroke="#7f7f7f" stroke-width="1" x1="-64" x2="-64" y1="434" y2="387"/>
      <line stroke="#7f7f7f" stroke-width="1" x1="-68" x2="-68" y1="434" y2="387"/>
      <line stroke="#7f7f7f" stroke-width="1" x1="-72" x2="-72" y1="434" y2="387"/>
      <line stroke="#7f7f7f" stroke-width="1" x1="-76" x2="-76" y1="434" y2="387"/>
      <line stroke="#7f7f7f" stroke-width="1" x1="-80" x2="-80" y1="434" y2="387"/>
      <line stroke="#7f7f7f" stroke-width="1" x1="-84" x2="-84" y1="434" y2="387"/>
      <line stroke="#7f7f7f" stroke-width="1" x1="-88" x2="-88" y1="434" y2="387"/>
      <line stroke="#7f7f7f" stroke-width="1" x1="-92" x2="-92" y1="434" y2="387"/>
      <line stroke="#7f7f7f" stroke-width="1" x1="-96" x2="-96" y1="434" y2="387"/>
      <polygon fill="#9b5509" points="27,387 -105,387 -105,384 27,384" stroke="#000000" stroke-width="1"/>
      <polygon fill="#9b5509" points="27,395 27,400 -105,400 -105,395" stroke="#000000" stroke-width="1"/>
      <polygon fill="#9b5509" points="27,408 27,413 -105,413 -105,408" stroke="#000000" stroke-width="1"/>
      <polygon fill="#9b5509" points="27,421 27,426 -105,426 -105,421" stroke="#000000" stroke-width="1"/>
      <polygon fill="#9b5509" points="27,434 -105,434 -105,437 27,437" stroke="#000000" stroke-width="1"/>
      <path d="M-90,384 C-90,384 -87.0,387.0 -90,384 C-93.0,381.0 -100.666666667,370.166666667 -108,366 C-115.333333333,361.833333333 -125.166666667,358.833333333 -134,359 C-142.833333333,359.166666667 -153.333333333,362.166666667 -161,367 C-168.666666667,371.833333333 -180,388 -180,388 " fill="none" stroke="#000000" stroke-width="1"/>
      <path d="M-91,437 C-91,437 -87.8333333333,434.0 -91,437 C-94.1666666667,440.0 -102.333333333,451.0 -110,455 C-117.666666667,459.0 -128.166666667,461.5 -137,461 C-145.833333333,460.5 -155.833333333,456.833333333 -163,452 C-170.166666667,447.166666667 -180,432 -180,432 " fill="none" stroke="#000000" stroke-width="1"/>
      <polyline fill="none" points="-180,388 -196,388 -196,370 -207,370 -207,374" stroke="#000000" stroke-width="1"/>
      <polyline fill="none" points="-237,374 -237,370 -247,370 -260,386 -260,436 -247,452 -237,452 -237,447" stroke="#000000" stroke-width="1"/>
      <polyline fill="none" points="-180,432 -196,432 -196,452 -207,452 -207,447" stroke="#000000" stroke-width="1"/>
      <polyline fill="none" points="-260,403 -214,403 -207,410 -147,410 -139,402 -129,402 -105,410" stroke="#000000" stroke-width="0.5"/>
      <polyline fill="none" points="-135,359 -135,365" stroke="#000000" stroke-width="0.5"/>
      <polyline fill="none" points="-135,461 -135,455" stroke="#000000" stroke-width="0.5"/>
      <polyline fill="none" points="-135,407 -135,397" stroke="#000000" stroke-width="0.5"/>
      <line stroke="#009900" stroke-width="1" x1="-138" x2="-132" y1="455" y2="455"/>
      <line stroke="#009900" stroke-width="1" x1="-138" x2="-132" y1="451" y2="451"/>
      <line stroke="#009900" stroke-width="1" x1="-138" x2="-132" y1="447" y2="447"/>
      <line stroke="#009900" stroke-width="1" x1="-138" x2="-132" y1="443" y2="443"/>
      <line stroke="#009900" stroke-width="1" x1="-138" x2="-132" y1="439" y2="439"/>
      <line stroke="#009900" stroke-width="1" x1="-138" x2="-132" y1="435" y2="435"/>
      <line stroke="#009900" stroke-width="1" x1="-138" x2="-132" y1="431" y2="431"/>
      <line stroke="#009900" stroke-width="1" x1="-138" x2="-132" y1="427" y2="427"/>
      <line stroke="#009900" stroke-width="1" x1="-138" x2="-132" y1="423" y2="423"/>
      <line stroke="#009900" stroke-width="1" x1="-138" x2="-132" y1="419" y2="419"/>
      <line stroke="#009900" stroke-width="1" x1="-138" x2="-132" y1="415" y2="415"/>
      <line stroke="#009900" stroke-width="1" x1="-138" x2="-132" y1="411" y2="411"/>
      <line stroke="#009900" stroke-width="1" x1="-138" x2="-132" y1="407" y2="407"/>
      <line stroke="#ff0000" stroke-width="1" x1="-138" x2="-132" y1="365" y2="365"/>
      <line stroke="#ff0000" stroke-width="1" x1="-138" x2="-132" y1="369" y2="369"/>
      <line stroke="#ff0000" stroke-width="1" x1="-138" x2="-132" y1="373" y2="373"/>
      <line stroke="#ff0000" stroke-width="1" x1="-138" x2="-132" y1="377" y2="377"/>
      <line stroke="#ff0000" stroke-width="1" x1="-138" x2="-132" y1="381" y2="381"/>
      <line stroke="#ff0000" stroke-width="1" x1="-138" x2="-132" y1="385" y2="385"/>
      <line stroke="#ff0000" stroke-width="1" x1="-138" x2="-132" y1="389" y2="389"/>
      <line stroke="#ff0000" stroke-width="1" x1="-138" x2="-132" y1="393" y2="393"/>
      <line stroke="#ff0000" stroke-width="1" x1="-138" x2="-132" y1="397" y2="397"/>
      <polyline fill="none" marker-end="url(#id457)" points="-222,379 -222,364" stroke="#ff0000" stroke-width="1"/>
      <polyline fill="none" marker-end="url(#id457)" points="-222,460 -222,445" stroke="#009900" stroke-width="1"/>
      <text fill="#00afaf" font-family="Arial" font-size="15" stroke="none" stroke-width="0" transform="rotate(5.0,-255,257)" x="-255" y="272.0">Торфяная дорога</text>
      <text fill="#00afaf" font-family="Arial" font-size="15" stroke="none" stroke-width="0" transform="rotate(-90.0,300,796)" x="300" y="811.0">'ж/д платформа &quot;Старая деревня&quot;'</text>
    </g>
  </g>
</svg>
