<svg xmlns="http://www.w3.org/2000/svg" version="1.1">
<defs>
    <marker id="arrow"
      viewBox="0 0 10 10" refX="0" refY="5"
      markerUnits="strokeWidth"
      markerWidth="4" markerHeight="3"
      orient="auto">
      <path d="M 0 0 L 10 5 L 0 10 z" />
    </marker>
  </defs>
<g stroke="#000000" fill="none" stroke-opacity="1.0" fill-opacity="1.0" transform="scale(0.5)">
<rect x="0" y="0" width="600" height="760" stroke-width="0" fill="none" />
<g stroke="#000000" fill="none" stroke-opacity="1.0" fill-opacity="1.0" transform="scale(0.5)">
</g>
<g transform="rotate(60.0 300 380)" >
<g stroke="#000000" fill="none" stroke-opacity="1.0" fill-opacity="1.0" transform="scale(0.5)">
</g>
<g stroke="#000000" fill="#EA7125" stroke-opacity="1.0" fill-opacity="1.0" transform="scale(0.5)">
<polygon points="-89,367  -89,337  361,337  361,367" stroke-width="1" />
<polygon points="-89,447  -89,477  361,477  361,447" stroke-width="1" />
</g>
<g stroke="#EA7125" fill="none" stroke-opacity="1.0" fill-opacity="1.0" transform="scale(0.5)">
<text x=" -88" y="331.0" font-family="Arial" font-size=" 20" fill="#EA7125" stroke-width="0">&lt;&lt; Проспект Большевиков</text>
<text x=" 234" y="494.0" font-family="Arial" font-size=" 20" fill="#EA7125" stroke-width="0">посадки нет &gt;&gt;</text>
<text x=" 70" y="416.0" font-family="Arial" font-size=" 25" fill="#EA7125" stroke-width="0">Улица Дыбенко</text>
</g>
<g stroke="#000000" fill="none" stroke-opacity="1.0" fill-opacity="1.0" transform="scale(0.5)">
<polyline points="-89,367  -89,379  -41,379  -41,390  -11,390  -11,425  -41,425  -41,435  -89,435  -89,447" stroke-width="1" fill="none"  />
<polyline points="361,447  361,439  336,439  336,431  387,431  387,437  419,437  419,434" stroke-width="1" fill="none"  />
<polyline points="361,367  361,376  336,376  336,384  387,384  387,378  419,378  419,381" stroke-width="1" fill="none"  />
</g>
<g stroke="#7F7F7F" fill="none" stroke-opacity="1.0" fill-opacity="1.0" transform="scale(0.5)">
<line x1="549" y1="431" x2="549" y2="384" stroke-width="1" />
<line x1="545" y1="431" x2="545" y2="384" stroke-width="1" />
<line x1="541" y1="431" x2="541" y2="384" stroke-width="1" />
<line x1="537" y1="431" x2="537" y2="384" stroke-width="1" />
<line x1="533" y1="431" x2="533" y2="384" stroke-width="1" />
<line x1="529" y1="431" x2="529" y2="384" stroke-width="1" />
<line x1="525" y1="431" x2="525" y2="384" stroke-width="1" />
<line x1="521" y1="431" x2="521" y2="384" stroke-width="1" />
<line x1="517" y1="431" x2="517" y2="384" stroke-width="1" />
<line x1="513" y1="431" x2="513" y2="384" stroke-width="1" />
<line x1="509" y1="431" x2="509" y2="384" stroke-width="1" />
<line x1="505" y1="431" x2="505" y2="384" stroke-width="1" />
<line x1="501" y1="431" x2="501" y2="384" stroke-width="1" />
<line x1="497" y1="431" x2="497" y2="384" stroke-width="1" />
<line x1="493" y1="431" x2="493" y2="384" stroke-width="1" />
<line x1="489" y1="431" x2="489" y2="384" stroke-width="1" />
<line x1="485" y1="431" x2="485" y2="384" stroke-width="1" />
<line x1="481" y1="431" x2="481" y2="384" stroke-width="1" />
<line x1="477" y1="431" x2="477" y2="384" stroke-width="1" />
<line x1="473" y1="431" x2="473" y2="384" stroke-width="1" />
<line x1="469" y1="431" x2="469" y2="384" stroke-width="1" />
<line x1="465" y1="431" x2="465" y2="384" stroke-width="1" />
<line x1="461" y1="431" x2="461" y2="384" stroke-width="1" />
<line x1="457" y1="431" x2="457" y2="384" stroke-width="1" />
<line x1="453" y1="431" x2="453" y2="384" stroke-width="1" />
<line x1="449" y1="431" x2="449" y2="384" stroke-width="1" />
<line x1="445" y1="431" x2="445" y2="384" stroke-width="1" />
<line x1="441" y1="431" x2="441" y2="384" stroke-width="1" />
<line x1="437" y1="431" x2="437" y2="384" stroke-width="1" />
<line x1="433" y1="431" x2="433" y2="384" stroke-width="1" />
<line x1="429" y1="431" x2="429" y2="384" stroke-width="1" />
<line x1="425" y1="431" x2="425" y2="384" stroke-width="1" />
<line x1="421" y1="431" x2="421" y2="384" stroke-width="1" />
<line x1="417" y1="431" x2="417" y2="384" stroke-width="1" />
</g>
<g stroke="#000000" fill="#9B5509" stroke-opacity="1.0" fill-opacity="1.0" transform="scale(0.5)">
<polygon points="556,384  411,384  411,381  556,381" stroke-width="1" />
<polygon points="556,392  556,397  411,397  411,392" stroke-width="1" />
<polygon points="556,405  556,410  411,410  411,405" stroke-width="1" />
<polygon points="556,418  556,423  411,423  411,418" stroke-width="1" />
<polygon points="556,431  411,431  411,434  556,434" stroke-width="1" />
</g>
<g stroke="#CCCCCC" fill="#CCCCCC" stroke-opacity="1.0" fill-opacity="1.0" transform="scale(0.5)">
<polygon points="641,423  641,436  608,469  595,469  595,456  603,454  610,450  618,444  623,438  628,431  631,423" stroke-width="1" />
</g>
<g stroke="#000000" fill="#CCCCCC" stroke-opacity="1.0" fill-opacity="1.0" transform="scale(0.5)">
<polyline points="536,381  556,361  581,354  606,360  625,376  634,399" stroke-width="1" fill="none"/> <!-- spline -->
<polyline points="634,399  641,399  641,382  637,382  637,348  650,348  650,358  664,358  664,456  661,453" stroke-width="1" fill="none"  />
<polyline points="637,477  640,480  629,491  622,484  604,502  600,502  595,497  536,497  536,494" stroke-width="1" fill="none"  />
<polyline points="536,472  536,469  571,469  571,457" stroke-width="1" fill="none"  />
<polyline points="631,423  641,423  641,436  608,469  595,469  595,456" stroke-width="1" fill="none"  />
<polyline points="631,423  623,438  610,450  595,456" stroke-width="1" fill="none"/> <!-- spline -->
<polyline points="571,457  553,449  537,434" stroke-width="1" fill="none"/> <!-- spline -->
<polyline points="595,497  595,469" stroke-width=" 0.5" fill="none"  />
<polyline points="595,456  595,433  556,407" stroke-width=" 0.5" fill="none"  />
<polyline points="595,388  595,381  556,381" stroke-width=" 0.5" fill="none"  />
<polyline points="595,424  595,433" stroke-width=" 0.5" fill="none"  />
</g>
<g stroke="#009900" fill="#CCCCCC" stroke-opacity="1.0" fill-opacity="1.0" transform="scale(0.5)">
<line x1="592" y1="424" x2="598" y2="424" stroke-width="1" />
<line x1="592" y1="420" x2="598" y2="420" stroke-width="1" />
<line x1="592" y1="416" x2="598" y2="416" stroke-width="1" />
<line x1="592" y1="412" x2="598" y2="412" stroke-width="1" />
<line x1="592" y1="408" x2="598" y2="408" stroke-width="1" />
<line x1="592" y1="404" x2="598" y2="404" stroke-width="1" />
<line x1="592" y1="400" x2="598" y2="400" stroke-width="1" />
<line x1="592" y1="396" x2="598" y2="396" stroke-width="1" />
<line x1="592" y1="392" x2="598" y2="392" stroke-width="1" />
<line x1="592" y1="388" x2="598" y2="388" stroke-width="1" />
</g>
<g stroke="#000000" fill="#FFFFFF" stroke-opacity="1.0" fill-opacity="1.0" transform="scale(0.5)">
<polygon points="615,462  609,456  630,435  636,441" stroke-width="1" />
</g>
<g stroke="#000000" fill="none" stroke-opacity="1.0" fill-opacity="1.0" transform="scale(0.5)">
<text x=" 609" y="462.0" font-family="Arial" font-size=" 10" fill="#000000" transform="rotate(-45.0  609  452)" stroke-width="0">кассы</text>
</g>
<g stroke="#FF0000" fill="none" stroke-opacity="1.0" fill-opacity="1.0" transform="scale(0.5)">
<polyline points="556,483  541,483" marker-end="url(#arrow)" stroke-width="1" fill="none" />
</g>
<g stroke="#009900" fill="none" stroke-opacity="1.0" fill-opacity="1.0" transform="scale(0.5)">
<polyline points="653,469  643,459" marker-end="url(#arrow)" stroke-width="1" fill="none" />
</g>
<g stroke="#00AFAF" fill="none" stroke-opacity="1.0" fill-opacity="1.0" transform="scale(0.5)">
<text x=" 461" y="555.0" font-family="Arial" font-size=" 15" fill="#00AFAF" stroke-width="0">проспект Большевиков</text>
<text x=" 691" y="409.0" font-family="Arial" font-size=" 15" fill="#00AFAF" transform="rotate(-90.0  691  394)" stroke-width="0">улица Дыбенко</text>
</g>
</g>
</g>
</svg>
