<?xml version="1.0" encoding="utf-8" ?>
<svg baseProfile="full" height="530.0" version="1.1" width="870.0" xmlns="http://www.w3.org/2000/svg" xmlns:ev="http://www.w3.org/2001/xml-events" xmlns:xlink="http://www.w3.org/1999/xlink">
  <defs>
    <marker id="id461" markerHeight="3" markerUnits="strokeWidth" markerWidth="4" orient="auto" refX="0" refY="5" viewBox="0,0,10,10">
      <path d="M 0 0 L 10 5 L 0 10 z"/>
    </marker>
  </defs>
  <g>
    <rect fill="none" height="530.0" stroke="none" stroke-width="0" width="870.0" x="0.0" y="0.0"/>
    <g transform="rotate(30.0,435.0,265.0)">
      <polyline fill="none" points="-159.0,100.0 947.0,98.0" stroke="#f7f7f7" stroke-width="60"/>
      <polyline fill="none" points="892.0,108.0 896.0,419.0" stroke="#f7f7f7" stroke-width="30"/>
      <polygon fill="#009a49" points="10.0,265.0 10.0,235.0 460.0,235.0 460.0,265.0" stroke="#f7f7f7" stroke-width="1"/>
      <polygon fill="#009a49" points="10.0,345.0 10.0,375.0 460.0,375.0 460.0,345.0" stroke="#f7f7f7" stroke-width="1"/>
      <text fill="#009a49" font-family="Arial" font-size="20.0" stroke="none" stroke-width="0" x="11.0" y="231.0">&lt;&lt; Приморская</text>
      <text fill="#009a49" font-family="Arial" font-size="20.0" stroke="none" stroke-width="0" x="306.0" y="395.0">Гостиный двор &gt;&gt;</text>
      <text fill="#009a49" font-family="Arial" font-size="25.0" stroke="none" stroke-width="0" x="133.0" y="312.0">Василеостровская</text>
      <polyline fill="none" points="518.0,286.0 518.0,283.0 460.0,283.0 460.0,268.0 448.0,268.0 448.0,269.0 435.0,269.0 435.0,267.0 430.0,267.0 430.0,269.0 418.0,269.0 418.0,267.0 413.0,267.0 413.0,269.0 401.0,269.0 401.0,267.0 396.0,267.0 396.0,269.0 384.0,269.0 384.0,267.0 379.0,267.0 379.0,269.0 367.0,269.0 367.0,267.0 362.0,267.0 362.0,269.0 350.0,269.0 350.0,267.0 345.0,267.0 345.0,269.0 333.0,269.0 333.0,267.0 328.0,267.0 328.0,269.0 316.0,269.0 316.0,267.0 311.0,267.0 311.0,269.0 299.0,269.0 299.0,267.0 294.0,267.0 294.0,269.0 282.0,269.0 282.0,267.0 277.0,267.0 277.0,269.0 265.0,269.0 265.0,267.0 260.0,267.0 260.0,269.0 248.0,269.0 248.0,267.0 243.0,267.0 243.0,269.0 231.0,269.0 231.0,267.0 226.0,267.0 226.0,269.0 214.0,269.0 214.0,267.0 209.0,267.0 209.0,269.0 197.0,269.0 197.0,267.0 192.0,267.0 192.0,269.0 180.0,269.0 180.0,267.0 175.0,267.0 175.0,269.0 163.0,269.0 163.0,267.0 158.0,267.0 158.0,269.0 146.0,269.0 146.0,267.0 141.0,267.0 141.0,269.0 129.0,269.0 129.0,267.0 124.0,267.0 124.0,269.0 112.0,269.0 112.0,267.0 107.0,267.0 107.0,269.0 95.0,269.0 95.0,267.0 90.0,267.0 90.0,269.0 78.0,269.0 78.0,267.0 73.0,267.0 73.0,269.0 61.0,269.0 61.0,267.0 56.0,267.0 56.0,269.0 44.0,269.0 44.0,267.0 39.0,267.0 39.0,269.0 26.0,269.0 26.0,268.0 10.0,268.0" stroke="#000000" stroke-width="1"/>
      <polyline fill="none" points="518.0,326.0 518.0,329.0 460.0,329.0 460.0,342.0 448.0,342.0 448.0,341.0 435.0,341.0 435.0,343.0 430.0,343.0 430.0,341.0 418.0,341.0 418.0,343.0 413.0,343.0 413.0,341.0 401.0,341.0 401.0,343.0 396.0,343.0 396.0,341.0 384.0,341.0 384.0,343.0 379.0,343.0 379.0,341.0 367.0,341.0 367.0,343.0 362.0,343.0 362.0,341.0 350.0,341.0 350.0,343.0 345.0,343.0 345.0,341.0 333.0,341.0 333.0,343.0 328.0,343.0 328.0,341.0 316.0,341.0 316.0,343.0 311.0,343.0 311.0,341.0 299.0,341.0 299.0,343.0 294.0,343.0 294.0,341.0 282.0,341.0 282.0,343.0 277.0,343.0 277.0,341.0 265.0,341.0 265.0,343.0 260.0,343.0 260.0,341.0 248.0,341.0 248.0,343.0 243.0,343.0 243.0,341.0 231.0,341.0 231.0,343.0 226.0,343.0 226.0,341.0 214.0,341.0 214.0,343.0 209.0,343.0 209.0,341.0 197.0,341.0 197.0,343.0 192.0,343.0 192.0,341.0 180.0,341.0 180.0,343.0 175.0,343.0 175.0,341.0 163.0,341.0 163.0,343.0 158.0,343.0 158.0,341.0 146.0,341.0 146.0,343.0 141.0,343.0 141.0,341.0 129.0,341.0 129.0,343.0 124.0,343.0 124.0,341.0 112.0,341.0 112.0,343.0 107.0,343.0 107.0,341.0 95.0,341.0 95.0,343.0 90.0,343.0 90.0,341.0 78.0,341.0 78.0,343.0 73.0,343.0 73.0,341.0 61.0,341.0 61.0,343.0 56.0,343.0 56.0,341.0 44.0,341.0 44.0,343.0 39.0,343.0 39.0,341.0 26.0,341.0 26.0,342.0 10.0,342.0 10.0,268.0" stroke="#000000" stroke-width="1"/>
      <line stroke="#7f7f7f" stroke-width="1" x1="652.0" x2="652.0" y1="323.0" y2="289.0"/>
      <line stroke="#7f7f7f" stroke-width="1" x1="648.0" x2="648.0" y1="323.0" y2="289.0"/>
      <line stroke="#7f7f7f" stroke-width="1" x1="644.0" x2="644.0" y1="323.0" y2="289.0"/>
      <line stroke="#7f7f7f" stroke-width="1" x1="640.0" x2="640.0" y1="323.0" y2="289.0"/>
      <line stroke="#7f7f7f" stroke-width="1" x1="636.0" x2="636.0" y1="323.0" y2="289.0"/>
      <line stroke="#7f7f7f" stroke-width="1" x1="632.0" x2="632.0" y1="323.0" y2="289.0"/>
      <line stroke="#7f7f7f" stroke-width="1" x1="628.0" x2="628.0" y1="323.0" y2="289.0"/>
      <line stroke="#7f7f7f" stroke-width="1" x1="624.0" x2="624.0" y1="323.0" y2="289.0"/>
      <line stroke="#7f7f7f" stroke-width="1" x1="620.0" x2="620.0" y1="323.0" y2="289.0"/>
      <line stroke="#7f7f7f" stroke-width="1" x1="616.0" x2="616.0" y1="323.0" y2="289.0"/>
      <line stroke="#7f7f7f" stroke-width="1" x1="612.0" x2="612.0" y1="323.0" y2="289.0"/>
      <line stroke="#7f7f7f" stroke-width="1" x1="608.0" x2="608.0" y1="323.0" y2="289.0"/>
      <line stroke="#7f7f7f" stroke-width="1" x1="604.0" x2="604.0" y1="323.0" y2="289.0"/>
      <line stroke="#7f7f7f" stroke-width="1" x1="600.0" x2="600.0" y1="323.0" y2="289.0"/>
      <line stroke="#7f7f7f" stroke-width="1" x1="596.0" x2="596.0" y1="323.0" y2="289.0"/>
      <line stroke="#7f7f7f" stroke-width="1" x1="592.0" x2="592.0" y1="323.0" y2="289.0"/>
      <line stroke="#7f7f7f" stroke-width="1" x1="588.0" x2="588.0" y1="323.0" y2="289.0"/>
      <line stroke="#7f7f7f" stroke-width="1" x1="584.0" x2="584.0" y1="323.0" y2="289.0"/>
      <line stroke="#7f7f7f" stroke-width="1" x1="580.0" x2="580.0" y1="323.0" y2="289.0"/>
      <line stroke="#7f7f7f" stroke-width="1" x1="576.0" x2="576.0" y1="323.0" y2="289.0"/>
      <line stroke="#7f7f7f" stroke-width="1" x1="572.0" x2="572.0" y1="323.0" y2="289.0"/>
      <line stroke="#7f7f7f" stroke-width="1" x1="568.0" x2="568.0" y1="323.0" y2="289.0"/>
      <line stroke="#7f7f7f" stroke-width="1" x1="564.0" x2="564.0" y1="323.0" y2="289.0"/>
      <line stroke="#7f7f7f" stroke-width="1" x1="560.0" x2="560.0" y1="323.0" y2="289.0"/>
      <line stroke="#7f7f7f" stroke-width="1" x1="556.0" x2="556.0" y1="323.0" y2="289.0"/>
      <line stroke="#7f7f7f" stroke-width="1" x1="552.0" x2="552.0" y1="323.0" y2="289.0"/>
      <line stroke="#7f7f7f" stroke-width="1" x1="548.0" x2="548.0" y1="323.0" y2="289.0"/>
      <line stroke="#7f7f7f" stroke-width="1" x1="544.0" x2="544.0" y1="323.0" y2="289.0"/>
      <line stroke="#7f7f7f" stroke-width="1" x1="540.0" x2="540.0" y1="323.0" y2="289.0"/>
      <line stroke="#7f7f7f" stroke-width="1" x1="536.0" x2="536.0" y1="323.0" y2="289.0"/>
      <line stroke="#7f7f7f" stroke-width="1" x1="532.0" x2="532.0" y1="323.0" y2="289.0"/>
      <line stroke="#7f7f7f" stroke-width="1" x1="528.0" x2="528.0" y1="323.0" y2="289.0"/>
      <line stroke="#7f7f7f" stroke-width="1" x1="524.0" x2="524.0" y1="323.0" y2="289.0"/>
      <line stroke="#7f7f7f" stroke-width="1" x1="520.0" x2="520.0" y1="323.0" y2="289.0"/>
      <line stroke="#7f7f7f" stroke-width="1" x1="516.0" x2="516.0" y1="323.0" y2="289.0"/>
      <polygon fill="#9b5509" points="659.0,289.0 509.0,289.0 509.0,286.0 659.0,286.0" stroke="#000000" stroke-width="1"/>
      <polygon fill="#9b5509" points="659.0,297.0 659.0,302.0 509.0,302.0 509.0,297.0" stroke="#000000" stroke-width="1"/>
      <polygon fill="#9b5509" points="659.0,310.0 659.0,315.0 509.0,315.0 509.0,310.0" stroke="#000000" stroke-width="1"/>
      <polygon fill="#9b5509" points="659.0,323.0 509.0,323.0 509.0,326.0 659.0,326.0" stroke="#000000" stroke-width="1"/>
      <path d="M642.0,286.0 C642.0,286.0 640.1666666666666,290.0 642.0,286.0 C643.8333333333334,282.0 647.6666666666666,269.3333333333333 653.0,262.0 C658.3333333333334,254.66666666666666 674.0,242.0 674.0,242.0 " fill="none" stroke="#000000" stroke-width="1"/>
      <path d="M700.0,232.0 C700.0,232.0 695.0,231.83333333333334 700.0,232.0 C705.0,232.16666666666666 720.3333333333334,230.5 730.0,233.0 C739.6666666666666,235.5 758.0,247.0 758.0,247.0 " fill="none" stroke="#000000" stroke-width="1"/>
      <path d="M767.0,284.0 C767.0,284.0 766.5,279.6666666666667 767.0,284.0 C767.5,288.3333333333333 770.8333333333334,301.8333333333333 770.0,310.0 C769.1666666666666,318.1666666666667 766.3333333333334,326.0 762.0,333.0 C757.6666666666666,340.0 744.0,352.0 744.0,352.0 " fill="none" stroke="#000000" stroke-width="1"/>
      <path d="M752.0,364.0 C752.0,364.0 756.5,362.1666666666667 752.0,364.0 C747.5,365.8333333333333 735.0,373.5 725.0,375.0 C715.0,376.5 702.5,376.3333333333333 692.0,373.0 C681.5,369.6666666666667 670.0,362.8333333333333 662.0,355.0 C654.0,347.1666666666667 644.0,326.0 644.0,326.0 " fill="none" stroke="#000000" stroke-width="1"/>
      <polyline fill="none" points="674.0,242.0 667.0,231.0 655.0,230.0 636.0,194.0 599.0,194.0 599.0,177.0 571.0,177.0 571.0,140.0" stroke="#000000" stroke-width="1"/>
      <polyline fill="none" points="599.0,177.0 662.0,177.0" stroke="#000000" stroke-width="1"/>
      <polyline fill="none" points="752.0,364.0 744.0,352.0" stroke="#000000" stroke-width="1"/>
      <polyline fill="none" points="685.0,177.0 814.0,177.0 814.0,214.0" stroke="#000000" stroke-width="1"/>
      <polyline fill="none" points="814.0,244.0 814.0,302.0 805.0,302.0 798.0,260.0 786.0,260.0 777.0,270.0 781.0,279.0 767.0,284.0" stroke="#000000" stroke-width="1"/>
      <polyline fill="none" points="814.0,207.0 766.0,223.0 767.0,237.0 758.0,247.0" stroke="#000000" stroke-width="1"/>
      <polyline fill="none" points="700.0,232.0 694.0,222.0 699.0,211.0 699.0,177.0" stroke="#000000" stroke-width="1"/>
      <polyline fill="none" points="766.0,223.0 699.0,211.0" stroke="#000000" stroke-width="1"/>
      <polyline fill="none" points="814.0,301.0 837.0,301.0 837.0,154.0 571.0,154.0" stroke="#000000" stroke-width="1"/>
      <polyline fill="none" points="571.0,147.0 844.0,147.0 844.0,308.0 814.0,308.0" stroke="#000000" stroke-width="1"/>
      <polyline fill="none" points="814.0,315.0 851.0,315.0 851.0,140.0 571.0,140.0" stroke="#000000" stroke-width="1"/>
      <polyline fill="none" points="814.0,302.0 814.0,323.0" stroke="#000000" stroke-width="1"/>
      <polyline fill="none" points="758.0,247.0 716.0,268.0 703.0,302.0 659.0,302.0" stroke="#000000" stroke-width="0.5"/>
      <polyline fill="none" points="703.0,364.0 703.0,375.0" stroke="#000000" stroke-width="0.5"/>
      <polyline fill="none" points="703.0,302.0 703.0,312.0" stroke="#000000" stroke-width="0.5"/>
      <line stroke="#009900" stroke-width="1" x1="700.0" x2="706.0" y1="312.0" y2="312.0"/>
      <line stroke="#009900" stroke-width="1" x1="700.0" x2="706.0" y1="316.0" y2="316.0"/>
      <line stroke="#009900" stroke-width="1" x1="700.0" x2="706.0" y1="320.0" y2="320.0"/>
      <line stroke="#009900" stroke-width="1" x1="700.0" x2="706.0" y1="324.0" y2="324.0"/>
      <line stroke="#009900" stroke-width="1" x1="700.0" x2="706.0" y1="328.0" y2="328.0"/>
      <line stroke="#009900" stroke-width="1" x1="700.0" x2="706.0" y1="332.0" y2="332.0"/>
      <line stroke="#009900" stroke-width="1" x1="700.0" x2="706.0" y1="336.0" y2="336.0"/>
      <line stroke="#009900" stroke-width="1" x1="700.0" x2="706.0" y1="340.0" y2="340.0"/>
      <line stroke="#009900" stroke-width="1" x1="700.0" x2="706.0" y1="344.0" y2="344.0"/>
      <line stroke="#009900" stroke-width="1" x1="700.0" x2="706.0" y1="348.0" y2="348.0"/>
      <line stroke="#009900" stroke-width="1" x1="700.0" x2="706.0" y1="352.0" y2="352.0"/>
      <line stroke="#009900" stroke-width="1" x1="700.0" x2="706.0" y1="356.0" y2="356.0"/>
      <line stroke="#009900" stroke-width="1" x1="700.0" x2="706.0" y1="360.0" y2="360.0"/>
      <line stroke="#009900" stroke-width="1" x1="700.0" x2="706.0" y1="364.0" y2="364.0"/>
      <polyline fill="none" marker-end="url(#id461)" points="678.0,212.0 674.0,185.0" stroke="#ff0000" stroke-width="1"/>
      <polyline fill="none" marker-end="url(#id461)" points="813.0,228.0 790.0,241.0" stroke="#009900" stroke-width="1"/>
      <text fill="#00afaf" font-family="Arial" font-size="15.0" stroke="none" stroke-width="0" x="422.0" y="108.0">Средний проспект В.О.</text>
      <text fill="#00afaf" font-family="Arial" font-size="15.0" stroke="none" stroke-width="0" transform="rotate(-90.0,885.0,345.0)" x="885.0" y="360.0">Андреевский бульвар</text>
    </g>
  </g>
</svg>
