<?xml version="1.0" encoding="utf-8" ?>
<svg baseProfile="full" height="100%" version="1.1" width="100%" xmlns="http://www.w3.org/2000/svg" xmlns:ev="http://www.w3.org/2001/xml-events" xmlns:xlink="http://www.w3.org/1999/xlink"><defs><marker id="id522" markerHeight="3" markerUnits="strokeWidth" markerWidth="4" orient="auto" refX="0" refY="5" viewBox="0,0,10,10"><path d="M 0 0 L 10 5 L 0 10 z" /></marker></defs><g transform="scale(0.5) rotate(30.0,435,265)"><rect fill="none" height="530" stroke="none" width="870" x="0" y="0" /><polygon fill="#009A49" points="11,265 11,235 461,235 461,265" stroke="#000000" stroke-width="1" /><polygon fill="#009A49" points="11,345 11,375 461,375 461,345" stroke="#000000" stroke-width="1" /><text fill="#009A49" font-family="Arial" font-size="20" stroke="none" x="12" y="231.0">&lt;&lt; Приморская</text><text fill="#009A49" font-family="Arial" font-size="20" stroke="none" x="307" y="395.0">Гостиный двор &gt;&gt;</text><text fill="#009A49" font-family="Arial" font-size="25" stroke="none" x="134" y="312.0">Василеостровская</text><polyline fill="none" points="519,286 519,283 461,283 461,268 449,268 449,269 436,269 436,267 431,267 431,269 419,269 419,267 414,267 414,269 402,269 402,267 397,267 397,269 385,269 385,267 380,267 380,269 368,269 368,267 363,267 363,269 351,269 351,267 346,267 346,269 334,269 334,267 329,267 329,269 317,269 317,267 312,267 312,269 300,269 300,267 295,267 295,269 283,269 283,267 278,267 278,269 266,269 266,267 261,267 261,269 249,269 249,267 244,267 244,269 232,269 232,267 227,267 227,269 215,269 215,267 210,267 210,269 198,269 198,267 193,267 193,269 181,269 181,267 176,267 176,269 164,269 164,267 159,267 159,269 147,269 147,267 142,267 142,269 130,269 130,267 125,267 125,269 113,269 113,267 108,267 108,269 96,269 96,267 91,267 91,269 79,269 79,267 74,267 74,269 62,269 62,267 57,267 57,269 45,269 45,267 40,267 40,269 27,269 27,268 11,268" stroke="#000000" stroke-width="1" /><polyline fill="none" points="519,326 519,329 461,329 461,342 449,342 449,341 436,341 436,343 431,343 431,341 419,341 419,343 414,343 414,341 402,341 402,343 397,343 397,341 385,341 385,343 380,343 380,341 368,341 368,343 363,343 363,341 351,341 351,343 346,343 346,341 334,341 334,343 329,343 329,341 317,341 317,343 312,343 312,341 300,341 300,343 295,343 295,341 283,341 283,343 278,343 278,341 266,341 266,343 261,343 261,341 249,341 249,343 244,343 244,341 232,341 232,343 227,343 227,341 215,341 215,343 210,343 210,341 198,341 198,343 193,343 193,341 181,341 181,343 176,343 176,341 164,341 164,343 159,343 159,341 147,341 147,343 142,343 142,341 130,341 130,343 125,343 125,341 113,341 113,343 108,343 108,341 96,341 96,343 91,343 91,341 79,341 79,343 74,343 74,341 62,341 62,343 57,343 57,341 45,341 45,343 40,343 40,341 27,341 27,342 11,342 11,268" stroke="#000000" stroke-width="1" /><line stroke="#7F7F7F" stroke-width="1" x1="653" x2="653" y1="323" y2="289" /><line stroke="#7F7F7F" stroke-width="1" x1="649" x2="649" y1="323" y2="289" /><line stroke="#7F7F7F" stroke-width="1" x1="645" x2="645" y1="323" y2="289" /><line stroke="#7F7F7F" stroke-width="1" x1="641" x2="641" y1="323" y2="289" /><line stroke="#7F7F7F" stroke-width="1" x1="637" x2="637" y1="323" y2="289" /><line stroke="#7F7F7F" stroke-width="1" x1="633" x2="633" y1="323" y2="289" /><line stroke="#7F7F7F" stroke-width="1" x1="629" x2="629" y1="323" y2="289" /><line stroke="#7F7F7F" stroke-width="1" x1="625" x2="625" y1="323" y2="289" /><line stroke="#7F7F7F" stroke-width="1" x1="621" x2="621" y1="323" y2="289" /><line stroke="#7F7F7F" stroke-width="1" x1="617" x2="617" y1="323" y2="289" /><line stroke="#7F7F7F" stroke-width="1" x1="613" x2="613" y1="323" y2="289" /><line stroke="#7F7F7F" stroke-width="1" x1="609" x2="609" y1="323" y2="289" /><line stroke="#7F7F7F" stroke-width="1" x1="605" x2="605" y1="323" y2="289" /><line stroke="#7F7F7F" stroke-width="1" x1="601" x2="601" y1="323" y2="289" /><line stroke="#7F7F7F" stroke-width="1" x1="597" x2="597" y1="323" y2="289" /><line stroke="#7F7F7F" stroke-width="1" x1="593" x2="593" y1="323" y2="289" /><line stroke="#7F7F7F" stroke-width="1" x1="589" x2="589" y1="323" y2="289" /><line stroke="#7F7F7F" stroke-width="1" x1="585" x2="585" y1="323" y2="289" /><line stroke="#7F7F7F" stroke-width="1" x1="581" x2="581" y1="323" y2="289" /><line stroke="#7F7F7F" stroke-width="1" x1="577" x2="577" y1="323" y2="289" /><line stroke="#7F7F7F" stroke-width="1" x1="573" x2="573" y1="323" y2="289" /><line stroke="#7F7F7F" stroke-width="1" x1="569" x2="569" y1="323" y2="289" /><line stroke="#7F7F7F" stroke-width="1" x1="565" x2="565" y1="323" y2="289" /><line stroke="#7F7F7F" stroke-width="1" x1="561" x2="561" y1="323" y2="289" /><line stroke="#7F7F7F" stroke-width="1" x1="557" x2="557" y1="323" y2="289" /><line stroke="#7F7F7F" stroke-width="1" x1="553" x2="553" y1="323" y2="289" /><line stroke="#7F7F7F" stroke-width="1" x1="549" x2="549" y1="323" y2="289" /><line stroke="#7F7F7F" stroke-width="1" x1="545" x2="545" y1="323" y2="289" /><line stroke="#7F7F7F" stroke-width="1" x1="541" x2="541" y1="323" y2="289" /><line stroke="#7F7F7F" stroke-width="1" x1="537" x2="537" y1="323" y2="289" /><line stroke="#7F7F7F" stroke-width="1" x1="533" x2="533" y1="323" y2="289" /><line stroke="#7F7F7F" stroke-width="1" x1="529" x2="529" y1="323" y2="289" /><line stroke="#7F7F7F" stroke-width="1" x1="525" x2="525" y1="323" y2="289" /><line stroke="#7F7F7F" stroke-width="1" x1="521" x2="521" y1="323" y2="289" /><line stroke="#7F7F7F" stroke-width="1" x1="517" x2="517" y1="323" y2="289" /><polygon fill="#9B5509" points="660,289 510,289 510,286 660,286" stroke="#000000" stroke-width="1" /><polygon fill="#9B5509" points="660,297 660,302 510,302 510,297" stroke="#000000" stroke-width="1" /><polygon fill="#9B5509" points="660,310 660,315 510,315 510,310" stroke="#000000" stroke-width="1" /><polygon fill="#9B5509" points="660,323 510,323 510,326 660,326" stroke="#000000" stroke-width="1" /><polyline fill="none" points="643,286 654,262 675,242" stroke="#000000" stroke-width="1" /><polyline fill="none" points="701,232 731,233 759,247" stroke="#000000" stroke-width="1" /><polyline fill="none" points="768,284 771,310 763,333 745,352" stroke="#000000" stroke-width="1" /><polyline fill="none" points="753,364 726,375 693,373 663,355 645,326" stroke="#000000" stroke-width="1" /><polyline fill="none" points="675,242 668,231 656,230 637,194 600,194 600,177 572,177 572,132" stroke="#000000" stroke-width="1" /><polyline fill="none" points="600,177 663,177" stroke="#000000" stroke-width="1" /><polyline fill="none" points="753,364 745,352" stroke="#000000" stroke-width="1" /><polyline fill="none" points="686,177 815,177 815,214" stroke="#000000" stroke-width="1" /><polyline fill="none" points="815,244 815,302 806,302 799,260 787,260 778,270 782,279 768,284" stroke="#000000" stroke-width="1" /><polyline fill="none" points="815,207 767,223 768,237 759,247" stroke="#000000" stroke-width="1" /><polyline fill="none" points="701,232 695,222 700,211 700,177" stroke="#000000" stroke-width="1" /><polyline fill="none" points="767,223 700,211" stroke="#000000" stroke-width="1" /><polyline fill="none" points="815,301 838,301 838,154 572,154" stroke="#000000" stroke-width="1" /><polyline fill="none" points="572,147 845,147 845,308 815,308" stroke="#000000" stroke-width="1" /><polyline fill="none" points="815,315 852,315 852,140 572,140" stroke="#000000" stroke-width="1" /><polyline fill="none" points="815,302 815,323" stroke="#000000" stroke-width="1" /><polyline fill="none" points="759,247 717,268 704,302 660,302" stroke="#000000" stroke-width="0.5" /><polyline fill="none" points="704,364 704,375" stroke="#000000" stroke-width="0.5" /><polyline fill="none" points="704,302 704,312" stroke="#000000" stroke-width="0.5" /><line stroke="#009900" stroke-width="1" x1="701" x2="707" y1="312" y2="312" /><line stroke="#009900" stroke-width="1" x1="701" x2="707" y1="316" y2="316" /><line stroke="#009900" stroke-width="1" x1="701" x2="707" y1="320" y2="320" /><line stroke="#009900" stroke-width="1" x1="701" x2="707" y1="324" y2="324" /><line stroke="#009900" stroke-width="1" x1="701" x2="707" y1="328" y2="328" /><line stroke="#009900" stroke-width="1" x1="701" x2="707" y1="332" y2="332" /><line stroke="#009900" stroke-width="1" x1="701" x2="707" y1="336" y2="336" /><line stroke="#009900" stroke-width="1" x1="701" x2="707" y1="340" y2="340" /><line stroke="#009900" stroke-width="1" x1="701" x2="707" y1="344" y2="344" /><line stroke="#009900" stroke-width="1" x1="701" x2="707" y1="348" y2="348" /><line stroke="#009900" stroke-width="1" x1="701" x2="707" y1="352" y2="352" /><line stroke="#009900" stroke-width="1" x1="701" x2="707" y1="356" y2="356" /><line stroke="#009900" stroke-width="1" x1="701" x2="707" y1="360" y2="360" /><line stroke="#009900" stroke-width="1" x1="701" x2="707" y1="364" y2="364" /><polyline fill="none" marker-end="url(#id522)" points="679,212 675,185" stroke="#FF0000" stroke-width="1" /><polyline fill="none" marker-end="url(#id522)" points="814,228 791,241" stroke="#009900" stroke-width="1" /><text fill="#00AFAF" font-family="Arial" font-size="15" stroke="none" transform="rotate(-60.0,547,67)" x="547" y="82.0">Средний проспект</text><polygon fill="#FFD0D0" points="813,115 874,115 874,128 813,128" stroke="#FFD0D0" stroke-width="1" /><polyline fill="none" points="812,114 812,129" stroke="#000000" stroke-width="0.5" /><text fill="#000000" font-family="Arial" font-size="6" stroke="none" x="815" y="121.0">Внимание! Посадки</text><text fill="#000000" font-family="Arial" font-size="6" stroke="none" x="815" y="126.0">в первый вагон нет</text></g></svg>