<?xml version="1.0" encoding="utf-8" ?>
<svg baseProfile="full" height="100%" version="1.1" width="100%" xmlns="http://www.w3.org/2000/svg" xmlns:ev="http://www.w3.org/2001/xml-events" xmlns:xlink="http://www.w3.org/1999/xlink"><defs><marker id="id69" markerHeight="3" markerUnits="strokeWidth" markerWidth="4" orient="auto" refX="0" refY="5" viewBox="0,0,10,10"><path d="M 0 0 L 10 5 L 0 10 z" /></marker></defs><g transform="rotate(30.0,435,265)"><rect fill="none" height="530" stroke="none" stroke-width="0" width="870" x="0" y="0" /><polyline fill="none" points="-159,100 947,98" stroke="#F7F7F7" stroke-width="60" /><polyline fill="none" points="892,108 896,419" stroke="#F7F7F7" stroke-width="30" /><polygon fill="#009A49" points="10,265 10,235 460,235 460,265" stroke="#F7F7F7" stroke-width="1" /><polygon fill="#009A49" points="10,345 10,375 460,375 460,345" stroke="#F7F7F7" stroke-width="1" /><text fill="#009A49" font-family="Arial" font-size="20" stroke="none" stroke-width="0" x="11" y="231.0">&lt;&lt; Приморская</text><text fill="#009A49" font-family="Arial" font-size="20" stroke="none" stroke-width="0" x="306" y="395.0">Гостиный двор &gt;&gt;</text><text fill="#009A49" font-family="Arial" font-size="25" stroke="none" stroke-width="0" x="133" y="312.0">Василеостровская</text><polyline fill="none" points="518,286 518,283 460,283 460,268 448,268 448,269 435,269 435,267 430,267 430,269 418,269 418,267 413,267 413,269 401,269 401,267 396,267 396,269 384,269 384,267 379,267 379,269 367,269 367,267 362,267 362,269 350,269 350,267 345,267 345,269 333,269 333,267 328,267 328,269 316,269 316,267 311,267 311,269 299,269 299,267 294,267 294,269 282,269 282,267 277,267 277,269 265,269 265,267 260,267 260,269 248,269 248,267 243,267 243,269 231,269 231,267 226,267 226,269 214,269 214,267 209,267 209,269 197,269 197,267 192,267 192,269 180,269 180,267 175,267 175,269 163,269 163,267 158,267 158,269 146,269 146,267 141,267 141,269 129,269 129,267 124,267 124,269 112,269 112,267 107,267 107,269 95,269 95,267 90,267 90,269 78,269 78,267 73,267 73,269 61,269 61,267 56,267 56,269 44,269 44,267 39,267 39,269 26,269 26,268 10,268" stroke="#000000" stroke-width="1" /><polyline fill="none" points="518,326 518,329 460,329 460,342 448,342 448,341 435,341 435,343 430,343 430,341 418,341 418,343 413,343 413,341 401,341 401,343 396,343 396,341 384,341 384,343 379,343 379,341 367,341 367,343 362,343 362,341 350,341 350,343 345,343 345,341 333,341 333,343 328,343 328,341 316,341 316,343 311,343 311,341 299,341 299,343 294,343 294,341 282,341 282,343 277,343 277,341 265,341 265,343 260,343 260,341 248,341 248,343 243,343 243,341 231,341 231,343 226,343 226,341 214,341 214,343 209,343 209,341 197,341 197,343 192,343 192,341 180,341 180,343 175,343 175,341 163,341 163,343 158,343 158,341 146,341 146,343 141,343 141,341 129,341 129,343 124,343 124,341 112,341 112,343 107,343 107,341 95,341 95,343 90,343 90,341 78,341 78,343 73,343 73,341 61,341 61,343 56,343 56,341 44,341 44,343 39,343 39,341 26,341 26,342 10,342 10,268" stroke="#000000" stroke-width="1" /><line stroke="#7F7F7F" stroke-width="1" x1="652" x2="652" y1="323" y2="289" /><line stroke="#7F7F7F" stroke-width="1" x1="648" x2="648" y1="323" y2="289" /><line stroke="#7F7F7F" stroke-width="1" x1="644" x2="644" y1="323" y2="289" /><line stroke="#7F7F7F" stroke-width="1" x1="640" x2="640" y1="323" y2="289" /><line stroke="#7F7F7F" stroke-width="1" x1="636" x2="636" y1="323" y2="289" /><line stroke="#7F7F7F" stroke-width="1" x1="632" x2="632" y1="323" y2="289" /><line stroke="#7F7F7F" stroke-width="1" x1="628" x2="628" y1="323" y2="289" /><line stroke="#7F7F7F" stroke-width="1" x1="624" x2="624" y1="323" y2="289" /><line stroke="#7F7F7F" stroke-width="1" x1="620" x2="620" y1="323" y2="289" /><line stroke="#7F7F7F" stroke-width="1" x1="616" x2="616" y1="323" y2="289" /><line stroke="#7F7F7F" stroke-width="1" x1="612" x2="612" y1="323" y2="289" /><line stroke="#7F7F7F" stroke-width="1" x1="608" x2="608" y1="323" y2="289" /><line stroke="#7F7F7F" stroke-width="1" x1="604" x2="604" y1="323" y2="289" /><line stroke="#7F7F7F" stroke-width="1" x1="600" x2="600" y1="323" y2="289" /><line stroke="#7F7F7F" stroke-width="1" x1="596" x2="596" y1="323" y2="289" /><line stroke="#7F7F7F" stroke-width="1" x1="592" x2="592" y1="323" y2="289" /><line stroke="#7F7F7F" stroke-width="1" x1="588" x2="588" y1="323" y2="289" /><line stroke="#7F7F7F" stroke-width="1" x1="584" x2="584" y1="323" y2="289" /><line stroke="#7F7F7F" stroke-width="1" x1="580" x2="580" y1="323" y2="289" /><line stroke="#7F7F7F" stroke-width="1" x1="576" x2="576" y1="323" y2="289" /><line stroke="#7F7F7F" stroke-width="1" x1="572" x2="572" y1="323" y2="289" /><line stroke="#7F7F7F" stroke-width="1" x1="568" x2="568" y1="323" y2="289" /><line stroke="#7F7F7F" stroke-width="1" x1="564" x2="564" y1="323" y2="289" /><line stroke="#7F7F7F" stroke-width="1" x1="560" x2="560" y1="323" y2="289" /><line stroke="#7F7F7F" stroke-width="1" x1="556" x2="556" y1="323" y2="289" /><line stroke="#7F7F7F" stroke-width="1" x1="552" x2="552" y1="323" y2="289" /><line stroke="#7F7F7F" stroke-width="1" x1="548" x2="548" y1="323" y2="289" /><line stroke="#7F7F7F" stroke-width="1" x1="544" x2="544" y1="323" y2="289" /><line stroke="#7F7F7F" stroke-width="1" x1="540" x2="540" y1="323" y2="289" /><line stroke="#7F7F7F" stroke-width="1" x1="536" x2="536" y1="323" y2="289" /><line stroke="#7F7F7F" stroke-width="1" x1="532" x2="532" y1="323" y2="289" /><line stroke="#7F7F7F" stroke-width="1" x1="528" x2="528" y1="323" y2="289" /><line stroke="#7F7F7F" stroke-width="1" x1="524" x2="524" y1="323" y2="289" /><line stroke="#7F7F7F" stroke-width="1" x1="520" x2="520" y1="323" y2="289" /><line stroke="#7F7F7F" stroke-width="1" x1="516" x2="516" y1="323" y2="289" /><polygon fill="#9B5509" points="659,289 509,289 509,286 659,286" stroke="#000000" stroke-width="1" /><polygon fill="#9B5509" points="659,297 659,302 509,302 509,297" stroke="#000000" stroke-width="1" /><polygon fill="#9B5509" points="659,310 659,315 509,315 509,310" stroke="#000000" stroke-width="1" /><polygon fill="#9B5509" points="659,323 509,323 509,326 659,326" stroke="#000000" stroke-width="1" /><path d="M642,286 C642,286 640.166666667,290.0 642,286 C643.833333333,282.0 647.666666667,269.333333333 653,262 C658.333333333,254.666666667 674,242 674,242 " fill="none" stroke="#000000" stroke-width="1" /><path d="M700,232 C700,232 695.0,231.833333333 700,232 C705.0,232.166666667 720.333333333,230.5 730,233 C739.666666667,235.5 758,247 758,247 " fill="none" stroke="#000000" stroke-width="1" /><path d="M767,284 C767,284 766.5,279.666666667 767,284 C767.5,288.333333333 770.833333333,301.833333333 770,310 C769.166666667,318.166666667 766.333333333,326.0 762,333 C757.666666667,340.0 744,352 744,352 " fill="none" stroke="#000000" stroke-width="1" /><path d="M752,364 C752,364 756.5,362.166666667 752,364 C747.5,365.833333333 735.0,373.5 725,375 C715.0,376.5 702.5,376.333333333 692,373 C681.5,369.666666667 670.0,362.833333333 662,355 C654.0,347.166666667 644,326 644,326 " fill="none" stroke="#000000" stroke-width="1" /><polyline fill="none" points="674,242 667,231 655,230 636,194 599,194 599,177 571,177 571,140" stroke="#000000" stroke-width="1" /><polyline fill="none" points="599,177 662,177" stroke="#000000" stroke-width="1" /><polyline fill="none" points="752,364 744,352" stroke="#000000" stroke-width="1" /><polyline fill="none" points="685,177 814,177 814,214" stroke="#000000" stroke-width="1" /><polyline fill="none" points="814,244 814,302 805,302 798,260 786,260 777,270 781,279 767,284" stroke="#000000" stroke-width="1" /><polyline fill="none" points="814,207 766,223 767,237 758,247" stroke="#000000" stroke-width="1" /><polyline fill="none" points="700,232 694,222 699,211 699,177" stroke="#000000" stroke-width="1" /><polyline fill="none" points="766,223 699,211" stroke="#000000" stroke-width="1" /><polyline fill="none" points="814,301 837,301 837,154 571,154" stroke="#000000" stroke-width="1" /><polyline fill="none" points="571,147 844,147 844,308 814,308" stroke="#000000" stroke-width="1" /><polyline fill="none" points="814,315 851,315 851,140 571,140" stroke="#000000" stroke-width="1" /><polyline fill="none" points="814,302 814,323" stroke="#000000" stroke-width="1" /><polyline fill="none" points="758,247 716,268 703,302 659,302" stroke="#000000" stroke-width="0.5" /><polyline fill="none" points="703,364 703,375" stroke="#000000" stroke-width="0.5" /><polyline fill="none" points="703,302 703,312" stroke="#000000" stroke-width="0.5" /><line stroke="#009900" stroke-width="1" x1="700" x2="706" y1="312" y2="312" /><line stroke="#009900" stroke-width="1" x1="700" x2="706" y1="316" y2="316" /><line stroke="#009900" stroke-width="1" x1="700" x2="706" y1="320" y2="320" /><line stroke="#009900" stroke-width="1" x1="700" x2="706" y1="324" y2="324" /><line stroke="#009900" stroke-width="1" x1="700" x2="706" y1="328" y2="328" /><line stroke="#009900" stroke-width="1" x1="700" x2="706" y1="332" y2="332" /><line stroke="#009900" stroke-width="1" x1="700" x2="706" y1="336" y2="336" /><line stroke="#009900" stroke-width="1" x1="700" x2="706" y1="340" y2="340" /><line stroke="#009900" stroke-width="1" x1="700" x2="706" y1="344" y2="344" /><line stroke="#009900" stroke-width="1" x1="700" x2="706" y1="348" y2="348" /><line stroke="#009900" stroke-width="1" x1="700" x2="706" y1="352" y2="352" /><line stroke="#009900" stroke-width="1" x1="700" x2="706" y1="356" y2="356" /><line stroke="#009900" stroke-width="1" x1="700" x2="706" y1="360" y2="360" /><line stroke="#009900" stroke-width="1" x1="700" x2="706" y1="364" y2="364" /><polyline fill="none" marker-end="url(#id69)" points="678,212 674,185" stroke="#FF0000" stroke-width="1" /><polyline fill="none" marker-end="url(#id69)" points="813,228 790,241" stroke="#009900" stroke-width="1" /><text fill="#00AFAF" font-family="Arial" font-size="15" stroke="none" stroke-width="0" x="422" y="108.0">Средний проспект В.О.</text><text fill="#00AFAF" font-family="Arial" font-size="15" stroke="none" stroke-width="0" transform="rotate(-90.0,885,345)" x="885" y="360.0">Андреевский бульвар</text></g></svg>