<?xml version="1.0" encoding="utf-8" ?>
<svg baseProfile="full" height="100%" version="1.1" width="100%" xmlns="http://www.w3.org/2000/svg" xmlns:ev="http://www.w3.org/2001/xml-events" xmlns:xlink="http://www.w3.org/1999/xlink">
  <defs>
    <marker id="id473" markerHeight="3" markerUnits="strokeWidth" markerWidth="4" orient="auto" refX="0" refY="5" viewBox="0,0,10,10">
      <path d="M 0 0 L 10 5 L 0 10 z"/>
    </marker>
  </defs>
  <g>
    <rect fill="none" height="260" stroke="none" stroke-width="0" width="910" x="0" y="0"/>
    <polygon fill="#0da303" points="259,165 709,165 709,195 259,195" stroke="#000000" stroke-width="1"/>
    <polygon fill="#0da303" points="709,85 709,55 259,55 259,85" stroke="#000000" stroke-width="1"/>
    <text fill="#0da303" font-family="Arial" font-size="20" stroke="none" stroke-width="0" x="261" y="55.0">&lt;&lt; Сибирская</text>
    <text fill="#0da303" font-family="Arial" font-size="20" stroke="none" stroke-width="0" x="546" y="215.0">Берёзовая роща &gt;&gt;</text>
    <text fill="#0da303" font-family="Arial" font-size="25" stroke="none" stroke-width="0" x="359" y="137.0">Маршала Покрышкина</text>
    <polyline fill="none" points="709,85 709,100" stroke="#000000" stroke-width="1"/>
    <polyline fill="none" points="709,165 709,150" stroke="#000000" stroke-width="1"/>
    <polyline fill="none" points="703,100 738,100 738,72 797,72 797,19 902,19 902,24" stroke="#000000" stroke-width="1"/>
    <polyline fill="none" points="902,45 902,50 827,50 827,72 837,72 837,176 827,176 827,203 861,203 861,184 865,184" stroke="#000000" stroke-width="1"/>
    <polyline fill="none" points="887,184 891,184 891,233 797,233 797,176 738,176 738,150 703,150" stroke="#000000" stroke-width="1"/>
    <line stroke="#000000" stroke-width="1" x1="703" x2="703" y1="150" y2="100"/>
    <line stroke="#000000" stroke-width="1" x1="707" x2="707" y1="150" y2="100"/>
    <line stroke="#000000" stroke-width="1" x1="711" x2="711" y1="150" y2="100"/>
    <line stroke="#000000" stroke-width="1" x1="715" x2="715" y1="150" y2="100"/>
    <line stroke="#000000" stroke-width="1" x1="719" x2="719" y1="150" y2="100"/>
    <line stroke="#000000" stroke-width="1" x1="723" x2="723" y1="150" y2="100"/>
    <line stroke="#000000" stroke-width="1" x1="727" x2="727" y1="150" y2="100"/>
    <line stroke="#000000" stroke-width="1" x1="731" x2="731" y1="150" y2="100"/>
    <line stroke="#000000" stroke-width="1" x1="735" x2="735" y1="150" y2="100"/>
    <line stroke="#000000" stroke-width="1" x1="847" x2="847" y1="50" y2="19"/>
    <line stroke="#000000" stroke-width="1" x1="851" x2="851" y1="50" y2="19"/>
    <line stroke="#000000" stroke-width="1" x1="855" x2="855" y1="50" y2="19"/>
    <line stroke="#000000" stroke-width="1" x1="859" x2="859" y1="50" y2="19"/>
    <line stroke="#000000" stroke-width="1" x1="863" x2="863" y1="50" y2="19"/>
    <line stroke="#000000" stroke-width="1" x1="867" x2="867" y1="50" y2="19"/>
    <line stroke="#000000" stroke-width="1" x1="871" x2="871" y1="50" y2="19"/>
    <line stroke="#000000" stroke-width="1" x1="875" x2="875" y1="50" y2="19"/>
    <line stroke="#000000" stroke-width="1" x1="879" x2="879" y1="50" y2="19"/>
    <line stroke="#000000" stroke-width="1" x1="883" x2="883" y1="50" y2="19"/>
    <line stroke="#000000" stroke-width="1" x1="887" x2="887" y1="50" y2="19"/>
    <line stroke="#000000" stroke-width="1" x1="861" x2="891" y1="188" y2="188"/>
    <line stroke="#000000" stroke-width="1" x1="861" x2="891" y1="192" y2="192"/>
    <line stroke="#000000" stroke-width="1" x1="861" x2="891" y1="196" y2="196"/>
    <line stroke="#000000" stroke-width="1" x1="861" x2="891" y1="200" y2="200"/>
    <line stroke="#000000" stroke-width="1" x1="854" x2="854" y1="203" y2="233"/>
    <line stroke="#000000" stroke-width="1" x1="850" x2="850" y1="203" y2="233"/>
    <line stroke="#000000" stroke-width="1" x1="846" x2="846" y1="203" y2="233"/>
    <line stroke="#000000" stroke-width="1" x1="842" x2="842" y1="203" y2="233"/>
    <line stroke="#000000" stroke-width="1" x1="838" x2="838" y1="203" y2="233"/>
    <polygon fill="#c0c0c0" points="789,101 797,101 797,143 789,143" stroke="#000000" stroke-width="1"/>
    <polyline fill="none" points="746,96 756,96" stroke="#000000" stroke-width="1"/>
    <polygon fill="#ffffff" points="756,96 766,96 766,106 756,106" stroke="#000000" stroke-width="1"/>
    <polyline fill="none" points="761,106 761,110" stroke="#000000" stroke-width="1"/>
    <polyline fill="none" points="761,138 761,144" stroke="#000000" stroke-width="1"/>
    <polyline fill="none" points="761,172 761,176" stroke="#000000" stroke-width="1"/>
    <line stroke="#009900" stroke-width="1" x1="759" x2="763" y1="110" y2="110"/>
    <line stroke="#009900" stroke-width="1" x1="759" x2="763" y1="114" y2="114"/>
    <line stroke="#009900" stroke-width="1" x1="759" x2="763" y1="118" y2="118"/>
    <line stroke="#009900" stroke-width="1" x1="759" x2="763" y1="122" y2="122"/>
    <line stroke="#009900" stroke-width="1" x1="759" x2="763" y1="126" y2="126"/>
    <line stroke="#009900" stroke-width="1" x1="759" x2="763" y1="130" y2="130"/>
    <line stroke="#009900" stroke-width="1" x1="759" x2="763" y1="134" y2="134"/>
    <line stroke="#009900" stroke-width="1" x1="759" x2="763" y1="138" y2="138"/>
    <line stroke="#ff0000" stroke-width="1" x1="759" x2="763" y1="144" y2="144"/>
    <line stroke="#ff0000" stroke-width="1" x1="759" x2="763" y1="148" y2="148"/>
    <line stroke="#ff0000" stroke-width="1" x1="759" x2="763" y1="152" y2="152"/>
    <line stroke="#ff0000" stroke-width="1" x1="759" x2="763" y1="156" y2="156"/>
    <line stroke="#ff0000" stroke-width="1" x1="759" x2="763" y1="160" y2="160"/>
    <line stroke="#ff0000" stroke-width="1" x1="759" x2="763" y1="164" y2="164"/>
    <line stroke="#ff0000" stroke-width="1" x1="759" x2="763" y1="168" y2="168"/>
    <line stroke="#ff0000" stroke-width="1" x1="759" x2="763" y1="172" y2="172"/>
    <polyline fill="none" points="746,72 746,96 738,96" stroke="#000000" stroke-width="1"/>
    <text fill="#000000" font-family="Arial" font-size="7" stroke="none" stroke-width="0" transform="rotate(-90.0,738,93)" x="738" y="100.0">кассы</text>
    <polyline fill="none" points="259,85 259,100" stroke="#000000" stroke-width="1"/>
    <polyline fill="none" points="259,165 259,150" stroke="#000000" stroke-width="1"/>
    <polyline fill="none" points="265,100 228,100 228,72 168,72 168,20 77,20 77,25" stroke="#000000" stroke-width="1"/>
    <polyline fill="none" points="77,45 77,50 139,50 139,72 128,72 128,177 138,177 138,190 118,210 73,210 73,164 68,164" stroke="#000000" stroke-width="1"/>
    <polyline fill="none" points="47,164 42,164 42,241 125,241 169,197 169,177 228,177 228,150 265,150" stroke="#000000" stroke-width="1"/>
    <line stroke="#000000" stroke-width="1" x1="265" x2="265" y1="150" y2="100"/>
    <line stroke="#000000" stroke-width="1" x1="261" x2="261" y1="150" y2="100"/>
    <line stroke="#000000" stroke-width="1" x1="257" x2="257" y1="150" y2="100"/>
    <line stroke="#000000" stroke-width="1" x1="253" x2="253" y1="150" y2="100"/>
    <line stroke="#000000" stroke-width="1" x1="249" x2="249" y1="150" y2="100"/>
    <line stroke="#000000" stroke-width="1" x1="245" x2="245" y1="150" y2="100"/>
    <line stroke="#000000" stroke-width="1" x1="241" x2="241" y1="150" y2="100"/>
    <line stroke="#000000" stroke-width="1" x1="237" x2="237" y1="150" y2="100"/>
    <line stroke="#000000" stroke-width="1" x1="233" x2="233" y1="150" y2="100"/>
    <line stroke="#000000" stroke-width="1" x1="229" x2="229" y1="150" y2="100"/>
    <line stroke="#000000" stroke-width="1" x1="128" x2="128" y1="20" y2="50"/>
    <line stroke="#000000" stroke-width="1" x1="124" x2="124" y1="20" y2="50"/>
    <line stroke="#000000" stroke-width="1" x1="120" x2="120" y1="20" y2="50"/>
    <line stroke="#000000" stroke-width="1" x1="116" x2="116" y1="20" y2="50"/>
    <line stroke="#000000" stroke-width="1" x1="112" x2="112" y1="20" y2="50"/>
    <line stroke="#000000" stroke-width="1" x1="108" x2="108" y1="20" y2="50"/>
    <line stroke="#000000" stroke-width="1" x1="104" x2="104" y1="20" y2="50"/>
    <line stroke="#000000" stroke-width="1" x1="100" x2="100" y1="20" y2="50"/>
    <line stroke="#000000" stroke-width="1" x1="96" x2="96" y1="20" y2="50"/>
    <line stroke="#000000" stroke-width="1" x1="92" x2="92" y1="20" y2="50"/>
    <line stroke="#000000" stroke-width="1" x1="118" x2="118" y1="210" y2="241"/>
    <line stroke="#000000" stroke-width="1" x1="114" x2="114" y1="210" y2="241"/>
    <line stroke="#000000" stroke-width="1" x1="110" x2="110" y1="210" y2="241"/>
    <line stroke="#000000" stroke-width="1" x1="106" x2="106" y1="210" y2="241"/>
    <line stroke="#000000" stroke-width="1" x1="102" x2="102" y1="210" y2="241"/>
    <line stroke="#000000" stroke-width="1" x1="98" x2="98" y1="210" y2="241"/>
    <line stroke="#000000" stroke-width="1" x1="94" x2="94" y1="210" y2="241"/>
    <line stroke="#000000" stroke-width="1" x1="90" x2="90" y1="210" y2="241"/>
    <line stroke="#000000" stroke-width="1" x1="86" x2="86" y1="210" y2="241"/>
    <line stroke="#000000" stroke-width="1" x1="82" x2="82" y1="210" y2="241"/>
    <line stroke="#000000" stroke-width="1" x1="73" x2="42" y1="180" y2="180"/>
    <line stroke="#000000" stroke-width="1" x1="73" x2="42" y1="184" y2="184"/>
    <line stroke="#000000" stroke-width="1" x1="73" x2="42" y1="188" y2="188"/>
    <line stroke="#000000" stroke-width="1" x1="73" x2="42" y1="192" y2="192"/>
    <line stroke="#000000" stroke-width="1" x1="73" x2="42" y1="196" y2="196"/>
    <line stroke="#000000" stroke-width="1" x1="73" x2="42" y1="200" y2="200"/>
    <line stroke="#000000" stroke-width="1" x1="73" x2="42" y1="204" y2="204"/>
    <polygon fill="#c0c0c0" points="168,143 168,101 175,101 175,143" stroke="#000000" stroke-width="1"/>
    <polyline fill="none" points="221,158 209,158" stroke="#000000" stroke-width="1"/>
    <polygon fill="#ffffff" points="209,158 199,158 199,148 209,148" stroke="#000000" stroke-width="1"/>
    <polyline fill="none" points="204,148 204,143" stroke="#000000" stroke-width="1"/>
    <polyline fill="none" points="204,115 204,106" stroke="#000000" stroke-width="1"/>
    <polyline fill="none" points="204,78 204,72" stroke="#000000" stroke-width="1"/>
    <line stroke="#009900" stroke-width="1" x1="202" x2="206" y1="143" y2="143"/>
    <line stroke="#009900" stroke-width="1" x1="202" x2="206" y1="139" y2="139"/>
    <line stroke="#009900" stroke-width="1" x1="202" x2="206" y1="135" y2="135"/>
    <line stroke="#009900" stroke-width="1" x1="202" x2="206" y1="131" y2="131"/>
    <line stroke="#009900" stroke-width="1" x1="202" x2="206" y1="127" y2="127"/>
    <line stroke="#009900" stroke-width="1" x1="202" x2="206" y1="123" y2="123"/>
    <line stroke="#009900" stroke-width="1" x1="202" x2="206" y1="119" y2="119"/>
    <line stroke="#009900" stroke-width="1" x1="202" x2="206" y1="115" y2="115"/>
    <line stroke="#ff0000" stroke-width="1" x1="202" x2="206" y1="106" y2="106"/>
    <line stroke="#ff0000" stroke-width="1" x1="202" x2="206" y1="102" y2="102"/>
    <line stroke="#ff0000" stroke-width="1" x1="202" x2="206" y1="98" y2="98"/>
    <line stroke="#ff0000" stroke-width="1" x1="202" x2="206" y1="94" y2="94"/>
    <line stroke="#ff0000" stroke-width="1" x1="202" x2="206" y1="90" y2="90"/>
    <line stroke="#ff0000" stroke-width="1" x1="202" x2="206" y1="86" y2="86"/>
    <line stroke="#ff0000" stroke-width="1" x1="202" x2="206" y1="82" y2="82"/>
    <line stroke="#ff0000" stroke-width="1" x1="202" x2="206" y1="78" y2="78"/>
    <polyline fill="none" points="228,158 221,158 221,177" stroke="#000000" stroke-width="1"/>
    <text fill="#000000" font-family="Arial" font-size="7" stroke="none" stroke-width="0" transform="rotate(-90.0,220,176)" x="220" y="183.0">кассы</text>
    <text fill="#00cccc" font-family="Arial" font-size="15" stroke="none" stroke-width="0" x="47" y="130.0">ул. Гоголя</text>
    <text fill="#00cccc" font-family="Arial" font-size="15" stroke="none" stroke-width="0" x="847" y="126.0">ул. Гоголя</text>
    <text fill="#00cccc" font-family="Arial" font-size="15" stroke="none" stroke-width="0" transform="rotate(-90.0,8,190)" x="8" y="205.0">ул. Ольги Жилиной</text>
    <ellipse cx="54" cy="50" fill="#0000ff" rx="15.0" ry="15.0" stroke="#00cccc" stroke-width="1"/>
    <text fill="#ffffff" font-family="Arial" font-size="20" stroke="none" stroke-width="0" x="48" y="59.0">А</text>
    <polyline fill="none" marker-end="url(#id473)" points="750,158 772,158" stroke="#ff0000" stroke-width="1"/>
    <polyline fill="none" marker-end="url(#id473)" points="215,88 194,88" stroke="#ff0000" stroke-width="1"/>
    <polyline fill="none" marker-end="url(#id473)" points="772,124 750,124" stroke="#009900" stroke-width="1"/>
    <polyline fill="none" marker-end="url(#id473)" points="194,129 215,129" stroke="#009900" stroke-width="1"/>
  </g>
</svg>
