<svg xmlns="http://www.w3.org/2000/svg" version="1.1">
<defs>
    <marker id="arrow"
      viewBox="0 0 10 10" refX="0" refY="5"
      markerUnits="strokeWidth"
      markerWidth="4" markerHeight="3"
      orient="auto">
      <path d="M 0 0 L 10 5 L 0 10 z" />
    </marker>
  </defs>
<g stroke="#000000" fill="none" stroke-opacity="1.0" fill-opacity="1.0" transform="scale(0.5)">
<rect x="0" y="0" width="910" height="260" stroke-width="0" fill="none" />
<g stroke="#000000" fill="none" stroke-opacity="1.0" fill-opacity="1.0" transform="scale(0.5)">
</g>
<g stroke="#000000" fill="#0DA303" stroke-opacity="1.0" fill-opacity="1.0" transform="scale(0.5)">
<polygon points="259,165  709,165  709,195  259,195" stroke-width="1" />
<polygon points="709,85  709,55  259,55  259,85" stroke-width="1" />
</g>
<g stroke="#0DA303" fill="none" stroke-opacity="1.0" fill-opacity="1.0" transform="scale(0.5)">
<text x=" 261" y="55.0" font-family="Arial" font-size=" 20" fill="#0DA303" stroke-width="0">&lt;&lt; Сибирская</text>
<text x=" 546" y="215.0" font-family="Arial" font-size=" 20" fill="#0DA303" stroke-width="0">Берёзовая роща &gt;&gt;</text>
<text x=" 359" y="137.0" font-family="Arial" font-size=" 25" fill="#0DA303" stroke-width="0">Маршала Покрышкина</text>
</g>
<g stroke="#000000" fill="none" stroke-opacity="1.0" fill-opacity="1.0" transform="scale(0.5)">
<polyline points="709,85  709,100" stroke-width="1" fill="none"  />
<polyline points="709,165  709,150" stroke-width="1" fill="none"  />
<polyline points="703,100  738,100  738,72  797,72  797,19  902,19  902,24" stroke-width="1" fill="none"  />
<polyline points="902,45  902,50  827,50  827,72  837,72  837,176  827,176  827,203  861,203  861,184  865,184" stroke-width="1" fill="none"  />
<polyline points="887,184  891,184  891,233  797,233  797,176  738,176  738,150  703,150" stroke-width="1" fill="none"  />
<line x1="703" y1="150" x2="703" y2="100" stroke-width="1" />
<line x1="707" y1="150" x2="707" y2="100" stroke-width="1" />
<line x1="711" y1="150" x2="711" y2="100" stroke-width="1" />
<line x1="715" y1="150" x2="715" y2="100" stroke-width="1" />
<line x1="719" y1="150" x2="719" y2="100" stroke-width="1" />
<line x1="723" y1="150" x2="723" y2="100" stroke-width="1" />
<line x1="727" y1="150" x2="727" y2="100" stroke-width="1" />
<line x1="731" y1="150" x2="731" y2="100" stroke-width="1" />
<line x1="735" y1="150" x2="735" y2="100" stroke-width="1" />
<line x1="847" y1="50" x2="847" y2="19" stroke-width="1" />
<line x1="851" y1="50" x2="851" y2="19" stroke-width="1" />
<line x1="855" y1="50" x2="855" y2="19" stroke-width="1" />
<line x1="859" y1="50" x2="859" y2="19" stroke-width="1" />
<line x1="863" y1="50" x2="863" y2="19" stroke-width="1" />
<line x1="867" y1="50" x2="867" y2="19" stroke-width="1" />
<line x1="871" y1="50" x2="871" y2="19" stroke-width="1" />
<line x1="875" y1="50" x2="875" y2="19" stroke-width="1" />
<line x1="879" y1="50" x2="879" y2="19" stroke-width="1" />
<line x1="883" y1="50" x2="883" y2="19" stroke-width="1" />
<line x1="887" y1="50" x2="887" y2="19" stroke-width="1" />
<line x1="861" y1="188" x2="891" y2="188" stroke-width="1" />
<line x1="861" y1="192" x2="891" y2="192" stroke-width="1" />
<line x1="861" y1="196" x2="891" y2="196" stroke-width="1" />
<line x1="861" y1="200" x2="891" y2="200" stroke-width="1" />
<line x1="854" y1="203" x2="854" y2="233" stroke-width="1" />
<line x1="850" y1="203" x2="850" y2="233" stroke-width="1" />
<line x1="846" y1="203" x2="846" y2="233" stroke-width="1" />
<line x1="842" y1="203" x2="842" y2="233" stroke-width="1" />
<line x1="838" y1="203" x2="838" y2="233" stroke-width="1" />
</g>
<g stroke="#000000" fill="#C0C0C0" stroke-opacity="1.0" fill-opacity="1.0" transform="scale(0.5)">
<polygon points="789,101  797,101  797,143  789,143" stroke-width="1" />
</g>
<g stroke="#000000" fill="#FFFFFF" stroke-opacity="1.0" fill-opacity="1.0" transform="scale(0.5)">
<polyline points="746,96  756,96" stroke-width="1" fill="none"  />
<polygon points="756,96  766,96  766,106  756,106" stroke-width="1" />
<polyline points="761,106  761,110" stroke-width="1" fill="none"  />
<polyline points="761,138  761,144" stroke-width="1" fill="none"  />
<polyline points="761,172  761,176" stroke-width="1" fill="none"  />
</g>
<g stroke="#009900" fill="#FFFFFF" stroke-opacity="1.0" fill-opacity="1.0" transform="scale(0.5)">
<line x1="759" y1="110" x2="763" y2="110" stroke-width="1" />
<line x1="759" y1="114" x2="763" y2="114" stroke-width="1" />
<line x1="759" y1="118" x2="763" y2="118" stroke-width="1" />
<line x1="759" y1="122" x2="763" y2="122" stroke-width="1" />
<line x1="759" y1="126" x2="763" y2="126" stroke-width="1" />
<line x1="759" y1="130" x2="763" y2="130" stroke-width="1" />
<line x1="759" y1="134" x2="763" y2="134" stroke-width="1" />
<line x1="759" y1="138" x2="763" y2="138" stroke-width="1" />
</g>
<g stroke="#FF0000" fill="#FFFFFF" stroke-opacity="1.0" fill-opacity="1.0" transform="scale(0.5)">
<line x1="759" y1="144" x2="763" y2="144" stroke-width="1" />
<line x1="759" y1="148" x2="763" y2="148" stroke-width="1" />
<line x1="759" y1="152" x2="763" y2="152" stroke-width="1" />
<line x1="759" y1="156" x2="763" y2="156" stroke-width="1" />
<line x1="759" y1="160" x2="763" y2="160" stroke-width="1" />
<line x1="759" y1="164" x2="763" y2="164" stroke-width="1" />
<line x1="759" y1="168" x2="763" y2="168" stroke-width="1" />
<line x1="759" y1="172" x2="763" y2="172" stroke-width="1" />
</g>
<g stroke="#000000" fill="none" stroke-opacity="1.0" fill-opacity="1.0" transform="scale(0.5)">
<polyline points="746,72  746,96  738,96" stroke-width="1" fill="none"  />
<text x=" 738" y="100.0" font-family="Arial" font-size=" 7" fill="#000000" transform="rotate(-90.0  738  93)" stroke-width="0">кассы</text>
<polyline points="259,85  259,100" stroke-width="1" fill="none"  />
<polyline points="259,165  259,150" stroke-width="1" fill="none"  />
<polyline points="265,100  228,100  228,72  168,72  168,20  77,20  77,25" stroke-width="1" fill="none"  />
<polyline points="77,45  77,50  139,50  139,72  128,72  128,177  138,177  138,190  118,210  73,210  73,164  68,164" stroke-width="1" fill="none"  />
<polyline points="47,164  42,164  42,241  125,241  169,197  169,177  228,177  228,150  265,150" stroke-width="1" fill="none"  />
<line x1="265" y1="150" x2="265" y2="100" stroke-width="1" />
<line x1="261" y1="150" x2="261" y2="100" stroke-width="1" />
<line x1="257" y1="150" x2="257" y2="100" stroke-width="1" />
<line x1="253" y1="150" x2="253" y2="100" stroke-width="1" />
<line x1="249" y1="150" x2="249" y2="100" stroke-width="1" />
<line x1="245" y1="150" x2="245" y2="100" stroke-width="1" />
<line x1="241" y1="150" x2="241" y2="100" stroke-width="1" />
<line x1="237" y1="150" x2="237" y2="100" stroke-width="1" />
<line x1="233" y1="150" x2="233" y2="100" stroke-width="1" />
<line x1="229" y1="150" x2="229" y2="100" stroke-width="1" />
<line x1="128" y1="20" x2="128" y2="50" stroke-width="1" />
<line x1="124" y1="20" x2="124" y2="50" stroke-width="1" />
<line x1="120" y1="20" x2="120" y2="50" stroke-width="1" />
<line x1="116" y1="20" x2="116" y2="50" stroke-width="1" />
<line x1="112" y1="20" x2="112" y2="50" stroke-width="1" />
<line x1="108" y1="20" x2="108" y2="50" stroke-width="1" />
<line x1="104" y1="20" x2="104" y2="50" stroke-width="1" />
<line x1="100" y1="20" x2="100" y2="50" stroke-width="1" />
<line x1="96" y1="20" x2="96" y2="50" stroke-width="1" />
<line x1="92" y1="20" x2="92" y2="50" stroke-width="1" />
<line x1="118" y1="210" x2="118" y2="241" stroke-width="1" />
<line x1="114" y1="210" x2="114" y2="241" stroke-width="1" />
<line x1="110" y1="210" x2="110" y2="241" stroke-width="1" />
<line x1="106" y1="210" x2="106" y2="241" stroke-width="1" />
<line x1="102" y1="210" x2="102" y2="241" stroke-width="1" />
<line x1="98" y1="210" x2="98" y2="241" stroke-width="1" />
<line x1="94" y1="210" x2="94" y2="241" stroke-width="1" />
<line x1="90" y1="210" x2="90" y2="241" stroke-width="1" />
<line x1="86" y1="210" x2="86" y2="241" stroke-width="1" />
<line x1="82" y1="210" x2="82" y2="241" stroke-width="1" />
<line x1="73" y1="180" x2="42" y2="180" stroke-width="1" />
<line x1="73" y1="184" x2="42" y2="184" stroke-width="1" />
<line x1="73" y1="188" x2="42" y2="188" stroke-width="1" />
<line x1="73" y1="192" x2="42" y2="192" stroke-width="1" />
<line x1="73" y1="196" x2="42" y2="196" stroke-width="1" />
<line x1="73" y1="200" x2="42" y2="200" stroke-width="1" />
<line x1="73" y1="204" x2="42" y2="204" stroke-width="1" />
</g>
<g stroke="#000000" fill="#C0C0C0" stroke-opacity="1.0" fill-opacity="1.0" transform="scale(0.5)">
<polygon points="168,143  168,101  175,101  175,143" stroke-width="1" />
</g>
<g stroke="#000000" fill="#FFFFFF" stroke-opacity="1.0" fill-opacity="1.0" transform="scale(0.5)">
<polyline points="221,158  209,158" stroke-width="1" fill="none"  />
<polygon points="209,158  199,158  199,148  209,148" stroke-width="1" />
<polyline points="204,148  204,143" stroke-width="1" fill="none"  />
<polyline points="204,115  204,106" stroke-width="1" fill="none"  />
<polyline points="204,78  204,72" stroke-width="1" fill="none"  />
</g>
<g stroke="#009900" fill="#FFFFFF" stroke-opacity="1.0" fill-opacity="1.0" transform="scale(0.5)">
<line x1="202" y1="143" x2="206" y2="143" stroke-width="1" />
<line x1="202" y1="139" x2="206" y2="139" stroke-width="1" />
<line x1="202" y1="135" x2="206" y2="135" stroke-width="1" />
<line x1="202" y1="131" x2="206" y2="131" stroke-width="1" />
<line x1="202" y1="127" x2="206" y2="127" stroke-width="1" />
<line x1="202" y1="123" x2="206" y2="123" stroke-width="1" />
<line x1="202" y1="119" x2="206" y2="119" stroke-width="1" />
<line x1="202" y1="115" x2="206" y2="115" stroke-width="1" />
</g>
<g stroke="#FF0000" fill="#FFFFFF" stroke-opacity="1.0" fill-opacity="1.0" transform="scale(0.5)">
<line x1="202" y1="106" x2="206" y2="106" stroke-width="1" />
<line x1="202" y1="102" x2="206" y2="102" stroke-width="1" />
<line x1="202" y1="98" x2="206" y2="98" stroke-width="1" />
<line x1="202" y1="94" x2="206" y2="94" stroke-width="1" />
<line x1="202" y1="90" x2="206" y2="90" stroke-width="1" />
<line x1="202" y1="86" x2="206" y2="86" stroke-width="1" />
<line x1="202" y1="82" x2="206" y2="82" stroke-width="1" />
<line x1="202" y1="78" x2="206" y2="78" stroke-width="1" />
</g>
<g stroke="#000000" fill="none" stroke-opacity="1.0" fill-opacity="1.0" transform="scale(0.5)">
<polyline points="228,158  221,158  221,177" stroke-width="1" fill="none"  />
<text x=" 220" y="183.0" font-family="Arial" font-size=" 7" fill="#000000" transform="rotate(-90.0  220  176)" stroke-width="0">кассы</text>
</g>
<g stroke="#00CCCC" fill="none" stroke-opacity="1.0" fill-opacity="1.0" transform="scale(0.5)">
<text x=" 47" y="130.0" font-family="Arial" font-size=" 15" fill="#00CCCC" stroke-width="0">ул. Гоголя</text>
<text x=" 847" y="126.0" font-family="Arial" font-size=" 15" fill="#00CCCC" stroke-width="0">ул. Гоголя</text>
<text x=" 8" y="205.0" font-family="Arial" font-size=" 15" fill="#00CCCC" transform="rotate(-90.0  8  190)" stroke-width="0">ул. Ольги Жилиной</text>
</g>
<g stroke="#FFFFFF" fill="none" stroke-opacity="1.0" fill-opacity="1.0" transform="scale(0.5)">
<text x=" 48" y="59.0" font-family="Arial" font-size=" 20" fill="#FFFFFF" stroke-width="0">А</text>
</g>
<g stroke="#FF0000" fill="none" stroke-opacity="1.0" fill-opacity="1.0" transform="scale(0.5)">
<polyline points="750,158  772,158" marker-end="url(#arrow)" stroke-width="1" fill="none" />
<polyline points="215,88  194,88" marker-end="url(#arrow)" stroke-width="1" fill="none" />
</g>
<g stroke="#009900" fill="none" stroke-opacity="1.0" fill-opacity="1.0" transform="scale(0.5)">
<polyline points="772,124  750,124" marker-end="url(#arrow)" stroke-width="1" fill="none" />
<polyline points="194,129  215,129" marker-end="url(#arrow)" stroke-width="1" fill="none" />
</g>
</g>
</svg>
