<?xml version="1.0" encoding="utf-8" ?>
<svg baseProfile="full" height="260.0" version="1.1" width="910.0" xmlns="http://www.w3.org/2000/svg" xmlns:ev="http://www.w3.org/2001/xml-events" xmlns:xlink="http://www.w3.org/1999/xlink">
  <defs>
    <marker id="id473" markerHeight="3" markerUnits="strokeWidth" markerWidth="4" orient="auto" refX="0" refY="5" viewBox="0,0,10,10">
      <path d="M 0 0 L 10 5 L 0 10 z"/>
    </marker>
  </defs>
  <g>
    <rect fill="none" height="260.0" stroke="none" stroke-width="0" width="910.0" x="0.0" y="0.0"/>
    <polygon fill="#0da303" points="259.0,165.0 709.0,165.0 709.0,195.0 259.0,195.0" stroke="#000000" stroke-width="1"/>
    <polygon fill="#0da303" points="709.0,85.0 709.0,55.0 259.0,55.0 259.0,85.0" stroke="#000000" stroke-width="1"/>
    <text fill="#0da303" font-family="Arial" font-size="20.0" stroke="none" stroke-width="0" x="261.0" y="55.0">&lt;&lt; Сибирская</text>
    <text fill="#0da303" font-family="Arial" font-size="20.0" stroke="none" stroke-width="0" x="546.0" y="215.0">Берёзовая роща &gt;&gt;</text>
    <text fill="#0da303" font-family="Arial" font-size="25.0" stroke="none" stroke-width="0" x="359.0" y="137.0">Маршала Покрышкина</text>
    <polyline fill="none" points="709.0,85.0 709.0,100.0" stroke="#000000" stroke-width="1"/>
    <polyline fill="none" points="709.0,165.0 709.0,150.0" stroke="#000000" stroke-width="1"/>
    <polyline fill="none" points="703.0,100.0 738.0,100.0 738.0,72.0 797.0,72.0 797.0,19.0 902.0,19.0 902.0,24.0" stroke="#000000" stroke-width="1"/>
    <polyline fill="none" points="902.0,45.0 902.0,50.0 827.0,50.0 827.0,72.0 837.0,72.0 837.0,176.0 827.0,176.0 827.0,203.0 861.0,203.0 861.0,184.0 865.0,184.0" stroke="#000000" stroke-width="1"/>
    <polyline fill="none" points="887.0,184.0 891.0,184.0 891.0,233.0 797.0,233.0 797.0,176.0 738.0,176.0 738.0,150.0 703.0,150.0" stroke="#000000" stroke-width="1"/>
    <line stroke="#000000" stroke-width="1" x1="703.0" x2="703.0" y1="150.0" y2="100.0"/>
    <line stroke="#000000" stroke-width="1" x1="707.0" x2="707.0" y1="150.0" y2="100.0"/>
    <line stroke="#000000" stroke-width="1" x1="711.0" x2="711.0" y1="150.0" y2="100.0"/>
    <line stroke="#000000" stroke-width="1" x1="715.0" x2="715.0" y1="150.0" y2="100.0"/>
    <line stroke="#000000" stroke-width="1" x1="719.0" x2="719.0" y1="150.0" y2="100.0"/>
    <line stroke="#000000" stroke-width="1" x1="723.0" x2="723.0" y1="150.0" y2="100.0"/>
    <line stroke="#000000" stroke-width="1" x1="727.0" x2="727.0" y1="150.0" y2="100.0"/>
    <line stroke="#000000" stroke-width="1" x1="731.0" x2="731.0" y1="150.0" y2="100.0"/>
    <line stroke="#000000" stroke-width="1" x1="735.0" x2="735.0" y1="150.0" y2="100.0"/>
    <line stroke="#000000" stroke-width="1" x1="847.0" x2="847.0" y1="50.0" y2="19.0"/>
    <line stroke="#000000" stroke-width="1" x1="851.0" x2="851.0" y1="50.0" y2="19.0"/>
    <line stroke="#000000" stroke-width="1" x1="855.0" x2="855.0" y1="50.0" y2="19.0"/>
    <line stroke="#000000" stroke-width="1" x1="859.0" x2="859.0" y1="50.0" y2="19.0"/>
    <line stroke="#000000" stroke-width="1" x1="863.0" x2="863.0" y1="50.0" y2="19.0"/>
    <line stroke="#000000" stroke-width="1" x1="867.0" x2="867.0" y1="50.0" y2="19.0"/>
    <line stroke="#000000" stroke-width="1" x1="871.0" x2="871.0" y1="50.0" y2="19.0"/>
    <line stroke="#000000" stroke-width="1" x1="875.0" x2="875.0" y1="50.0" y2="19.0"/>
    <line stroke="#000000" stroke-width="1" x1="879.0" x2="879.0" y1="50.0" y2="19.0"/>
    <line stroke="#000000" stroke-width="1" x1="883.0" x2="883.0" y1="50.0" y2="19.0"/>
    <line stroke="#000000" stroke-width="1" x1="887.0" x2="887.0" y1="50.0" y2="19.0"/>
    <line stroke="#000000" stroke-width="1" x1="861.0" x2="891.0" y1="188.0" y2="188.0"/>
    <line stroke="#000000" stroke-width="1" x1="861.0" x2="891.0" y1="192.0" y2="192.0"/>
    <line stroke="#000000" stroke-width="1" x1="861.0" x2="891.0" y1="196.0" y2="196.0"/>
    <line stroke="#000000" stroke-width="1" x1="861.0" x2="891.0" y1="200.0" y2="200.0"/>
    <line stroke="#000000" stroke-width="1" x1="854.0" x2="854.0" y1="203.0" y2="233.0"/>
    <line stroke="#000000" stroke-width="1" x1="850.0" x2="850.0" y1="203.0" y2="233.0"/>
    <line stroke="#000000" stroke-width="1" x1="846.0" x2="846.0" y1="203.0" y2="233.0"/>
    <line stroke="#000000" stroke-width="1" x1="842.0" x2="842.0" y1="203.0" y2="233.0"/>
    <line stroke="#000000" stroke-width="1" x1="838.0" x2="838.0" y1="203.0" y2="233.0"/>
    <polygon fill="#c0c0c0" points="789.0,101.0 797.0,101.0 797.0,143.0 789.0,143.0" stroke="#000000" stroke-width="1"/>
    <polyline fill="none" points="746.0,96.0 756.0,96.0" stroke="#000000" stroke-width="1"/>
    <polygon fill="#ffffff" points="756.0,96.0 766.0,96.0 766.0,106.0 756.0,106.0" stroke="#000000" stroke-width="1"/>
    <polyline fill="none" points="761.0,106.0 761.0,110.0" stroke="#000000" stroke-width="1"/>
    <polyline fill="none" points="761.0,138.0 761.0,144.0" stroke="#000000" stroke-width="1"/>
    <polyline fill="none" points="761.0,172.0 761.0,176.0" stroke="#000000" stroke-width="1"/>
    <line stroke="#009900" stroke-width="1" x1="759.0" x2="763.0" y1="110.0" y2="110.0"/>
    <line stroke="#009900" stroke-width="1" x1="759.0" x2="763.0" y1="114.0" y2="114.0"/>
    <line stroke="#009900" stroke-width="1" x1="759.0" x2="763.0" y1="118.0" y2="118.0"/>
    <line stroke="#009900" stroke-width="1" x1="759.0" x2="763.0" y1="122.0" y2="122.0"/>
    <line stroke="#009900" stroke-width="1" x1="759.0" x2="763.0" y1="126.0" y2="126.0"/>
    <line stroke="#009900" stroke-width="1" x1="759.0" x2="763.0" y1="130.0" y2="130.0"/>
    <line stroke="#009900" stroke-width="1" x1="759.0" x2="763.0" y1="134.0" y2="134.0"/>
    <line stroke="#009900" stroke-width="1" x1="759.0" x2="763.0" y1="138.0" y2="138.0"/>
    <line stroke="#ff0000" stroke-width="1" x1="759.0" x2="763.0" y1="144.0" y2="144.0"/>
    <line stroke="#ff0000" stroke-width="1" x1="759.0" x2="763.0" y1="148.0" y2="148.0"/>
    <line stroke="#ff0000" stroke-width="1" x1="759.0" x2="763.0" y1="152.0" y2="152.0"/>
    <line stroke="#ff0000" stroke-width="1" x1="759.0" x2="763.0" y1="156.0" y2="156.0"/>
    <line stroke="#ff0000" stroke-width="1" x1="759.0" x2="763.0" y1="160.0" y2="160.0"/>
    <line stroke="#ff0000" stroke-width="1" x1="759.0" x2="763.0" y1="164.0" y2="164.0"/>
    <line stroke="#ff0000" stroke-width="1" x1="759.0" x2="763.0" y1="168.0" y2="168.0"/>
    <line stroke="#ff0000" stroke-width="1" x1="759.0" x2="763.0" y1="172.0" y2="172.0"/>
    <polyline fill="none" points="746.0,72.0 746.0,96.0 738.0,96.0" stroke="#000000" stroke-width="1"/>
    <text fill="#000000" font-family="Arial" font-size="7.0" stroke="none" stroke-width="0" transform="rotate(-90.0,738.0,93.0)" x="738.0" y="100.0">кассы</text>
    <polyline fill="none" points="259.0,85.0 259.0,100.0" stroke="#000000" stroke-width="1"/>
    <polyline fill="none" points="259.0,165.0 259.0,150.0" stroke="#000000" stroke-width="1"/>
    <polyline fill="none" points="265.0,100.0 228.0,100.0 228.0,72.0 168.0,72.0 168.0,20.0 77.0,20.0 77.0,25.0" stroke="#000000" stroke-width="1"/>
    <polyline fill="none" points="77.0,45.0 77.0,50.0 139.0,50.0 139.0,72.0 128.0,72.0 128.0,177.0 138.0,177.0 138.0,190.0 118.0,210.0 73.0,210.0 73.0,164.0 68.0,164.0" stroke="#000000" stroke-width="1"/>
    <polyline fill="none" points="47.0,164.0 42.0,164.0 42.0,241.0 125.0,241.0 169.0,197.0 169.0,177.0 228.0,177.0 228.0,150.0 265.0,150.0" stroke="#000000" stroke-width="1"/>
    <line stroke="#000000" stroke-width="1" x1="265.0" x2="265.0" y1="150.0" y2="100.0"/>
    <line stroke="#000000" stroke-width="1" x1="261.0" x2="261.0" y1="150.0" y2="100.0"/>
    <line stroke="#000000" stroke-width="1" x1="257.0" x2="257.0" y1="150.0" y2="100.0"/>
    <line stroke="#000000" stroke-width="1" x1="253.0" x2="253.0" y1="150.0" y2="100.0"/>
    <line stroke="#000000" stroke-width="1" x1="249.0" x2="249.0" y1="150.0" y2="100.0"/>
    <line stroke="#000000" stroke-width="1" x1="245.0" x2="245.0" y1="150.0" y2="100.0"/>
    <line stroke="#000000" stroke-width="1" x1="241.0" x2="241.0" y1="150.0" y2="100.0"/>
    <line stroke="#000000" stroke-width="1" x1="237.0" x2="237.0" y1="150.0" y2="100.0"/>
    <line stroke="#000000" stroke-width="1" x1="233.0" x2="233.0" y1="150.0" y2="100.0"/>
    <line stroke="#000000" stroke-width="1" x1="229.0" x2="229.0" y1="150.0" y2="100.0"/>
    <line stroke="#000000" stroke-width="1" x1="128.0" x2="128.0" y1="20.0" y2="50.0"/>
    <line stroke="#000000" stroke-width="1" x1="124.0" x2="124.0" y1="20.0" y2="50.0"/>
    <line stroke="#000000" stroke-width="1" x1="120.0" x2="120.0" y1="20.0" y2="50.0"/>
    <line stroke="#000000" stroke-width="1" x1="116.0" x2="116.0" y1="20.0" y2="50.0"/>
    <line stroke="#000000" stroke-width="1" x1="112.0" x2="112.0" y1="20.0" y2="50.0"/>
    <line stroke="#000000" stroke-width="1" x1="108.0" x2="108.0" y1="20.0" y2="50.0"/>
    <line stroke="#000000" stroke-width="1" x1="104.0" x2="104.0" y1="20.0" y2="50.0"/>
    <line stroke="#000000" stroke-width="1" x1="100.0" x2="100.0" y1="20.0" y2="50.0"/>
    <line stroke="#000000" stroke-width="1" x1="96.0" x2="96.0" y1="20.0" y2="50.0"/>
    <line stroke="#000000" stroke-width="1" x1="92.0" x2="92.0" y1="20.0" y2="50.0"/>
    <line stroke="#000000" stroke-width="1" x1="118.0" x2="118.0" y1="210.0" y2="241.0"/>
    <line stroke="#000000" stroke-width="1" x1="114.0" x2="114.0" y1="210.0" y2="241.0"/>
    <line stroke="#000000" stroke-width="1" x1="110.0" x2="110.0" y1="210.0" y2="241.0"/>
    <line stroke="#000000" stroke-width="1" x1="106.0" x2="106.0" y1="210.0" y2="241.0"/>
    <line stroke="#000000" stroke-width="1" x1="102.0" x2="102.0" y1="210.0" y2="241.0"/>
    <line stroke="#000000" stroke-width="1" x1="98.0" x2="98.0" y1="210.0" y2="241.0"/>
    <line stroke="#000000" stroke-width="1" x1="94.0" x2="94.0" y1="210.0" y2="241.0"/>
    <line stroke="#000000" stroke-width="1" x1="90.0" x2="90.0" y1="210.0" y2="241.0"/>
    <line stroke="#000000" stroke-width="1" x1="86.0" x2="86.0" y1="210.0" y2="241.0"/>
    <line stroke="#000000" stroke-width="1" x1="82.0" x2="82.0" y1="210.0" y2="241.0"/>
    <line stroke="#000000" stroke-width="1" x1="73.0" x2="42.0" y1="180.0" y2="180.0"/>
    <line stroke="#000000" stroke-width="1" x1="73.0" x2="42.0" y1="184.0" y2="184.0"/>
    <line stroke="#000000" stroke-width="1" x1="73.0" x2="42.0" y1="188.0" y2="188.0"/>
    <line stroke="#000000" stroke-width="1" x1="73.0" x2="42.0" y1="192.0" y2="192.0"/>
    <line stroke="#000000" stroke-width="1" x1="73.0" x2="42.0" y1="196.0" y2="196.0"/>
    <line stroke="#000000" stroke-width="1" x1="73.0" x2="42.0" y1="200.0" y2="200.0"/>
    <line stroke="#000000" stroke-width="1" x1="73.0" x2="42.0" y1="204.0" y2="204.0"/>
    <polygon fill="#c0c0c0" points="168.0,143.0 168.0,101.0 175.0,101.0 175.0,143.0" stroke="#000000" stroke-width="1"/>
    <polyline fill="none" points="221.0,158.0 209.0,158.0" stroke="#000000" stroke-width="1"/>
    <polygon fill="#ffffff" points="209.0,158.0 199.0,158.0 199.0,148.0 209.0,148.0" stroke="#000000" stroke-width="1"/>
    <polyline fill="none" points="204.0,148.0 204.0,143.0" stroke="#000000" stroke-width="1"/>
    <polyline fill="none" points="204.0,115.0 204.0,106.0" stroke="#000000" stroke-width="1"/>
    <polyline fill="none" points="204.0,78.0 204.0,72.0" stroke="#000000" stroke-width="1"/>
    <line stroke="#009900" stroke-width="1" x1="202.0" x2="206.0" y1="143.0" y2="143.0"/>
    <line stroke="#009900" stroke-width="1" x1="202.0" x2="206.0" y1="139.0" y2="139.0"/>
    <line stroke="#009900" stroke-width="1" x1="202.0" x2="206.0" y1="135.0" y2="135.0"/>
    <line stroke="#009900" stroke-width="1" x1="202.0" x2="206.0" y1="131.0" y2="131.0"/>
    <line stroke="#009900" stroke-width="1" x1="202.0" x2="206.0" y1="127.0" y2="127.0"/>
    <line stroke="#009900" stroke-width="1" x1="202.0" x2="206.0" y1="123.0" y2="123.0"/>
    <line stroke="#009900" stroke-width="1" x1="202.0" x2="206.0" y1="119.0" y2="119.0"/>
    <line stroke="#009900" stroke-width="1" x1="202.0" x2="206.0" y1="115.0" y2="115.0"/>
    <line stroke="#ff0000" stroke-width="1" x1="202.0" x2="206.0" y1="106.0" y2="106.0"/>
    <line stroke="#ff0000" stroke-width="1" x1="202.0" x2="206.0" y1="102.0" y2="102.0"/>
    <line stroke="#ff0000" stroke-width="1" x1="202.0" x2="206.0" y1="98.0" y2="98.0"/>
    <line stroke="#ff0000" stroke-width="1" x1="202.0" x2="206.0" y1="94.0" y2="94.0"/>
    <line stroke="#ff0000" stroke-width="1" x1="202.0" x2="206.0" y1="90.0" y2="90.0"/>
    <line stroke="#ff0000" stroke-width="1" x1="202.0" x2="206.0" y1="86.0" y2="86.0"/>
    <line stroke="#ff0000" stroke-width="1" x1="202.0" x2="206.0" y1="82.0" y2="82.0"/>
    <line stroke="#ff0000" stroke-width="1" x1="202.0" x2="206.0" y1="78.0" y2="78.0"/>
    <polyline fill="none" points="228.0,158.0 221.0,158.0 221.0,177.0" stroke="#000000" stroke-width="1"/>
    <text fill="#000000" font-family="Arial" font-size="7.0" stroke="none" stroke-width="0" transform="rotate(-90.0,220.0,176.0)" x="220.0" y="183.0">кассы</text>
    <text fill="#00cccc" font-family="Arial" font-size="15.0" stroke="none" stroke-width="0" x="47.0" y="130.0">ул. Гоголя</text>
    <text fill="#00cccc" font-family="Arial" font-size="15.0" stroke="none" stroke-width="0" x="847.0" y="126.0">ул. Гоголя</text>
    <text fill="#00cccc" font-family="Arial" font-size="15.0" stroke="none" stroke-width="0" transform="rotate(-90.0,8.0,190.0)" x="8.0" y="205.0">ул. Ольги Жилиной</text>
    <ellipse cx="54.0" cy="50.0" fill="#0000ff" rx="15.0" ry="15.0" stroke="#00cccc" stroke-width="1"/>
    <text fill="#ffffff" font-family="Arial" font-size="20.0" stroke="none" stroke-width="0" x="48.0" y="59.0">А</text>
    <polyline fill="none" marker-end="url(#id473)" points="750.0,158.0 772.0,158.0" stroke="#ff0000" stroke-width="1"/>
    <polyline fill="none" marker-end="url(#id473)" points="215.0,88.0 194.0,88.0" stroke="#ff0000" stroke-width="1"/>
    <polyline fill="none" marker-end="url(#id473)" points="772.0,124.0 750.0,124.0" stroke="#009900" stroke-width="1"/>
    <polyline fill="none" marker-end="url(#id473)" points="194.0,129.0 215.0,129.0" stroke="#009900" stroke-width="1"/>
  </g>
</svg>
