<?xml version="1.0" encoding="utf-8" ?>
<svg baseProfile="full" height="750.0" version="1.1" width="800.0" xmlns="http://www.w3.org/2000/svg" xmlns:ev="http://www.w3.org/2001/xml-events" xmlns:xlink="http://www.w3.org/1999/xlink">
  <defs>
    <marker id="id475" markerHeight="3" markerUnits="strokeWidth" markerWidth="4" orient="auto" refX="0" refY="5" viewBox="0,0,10,10">
      <path d="M 0 0 L 10 5 L 0 10 z"/>
    </marker>
  </defs>
  <g>
    <rect fill="none" height="750.0" stroke="none" stroke-width="0" width="800.0" x="0.0" y="0.0"/>
    <g transform="rotate(40.0,400.0,375.0)">
      <polygon fill="#fb0505" points="643.0,410.0 643.0,440.0 193.0,440.0 193.0,410.0" stroke="#000000" stroke-width="1"/>
      <polygon fill="#fb0505" points="643.0,330.0 643.0,300.0 193.0,300.0 193.0,330.0" stroke="#000000" stroke-width="1"/>
      <text fill="#fb0505" font-family="Arial" font-size="20.0" stroke="none" stroke-width="0" x="491.0" y="461.0">Речной вокзал &gt;&gt;</text>
      <text fill="#fb0505" font-family="Arial" font-size="20.0" stroke="none" stroke-width="0" x="193.0" y="298.0">&lt;&lt; Площадь Ленина</text>
      <text fill="#fb0505" font-family="Arial" font-size="25.0" stroke="none" stroke-width="0" x="342.0" y="380.0">Октябрьская</text>
      <polyline fill="none" points="643.0,330.0 643.0,336.0" stroke="#000000" stroke-width="1"/>
      <polyline fill="none" points="643.0,410.0 643.0,404.0" stroke="#000000" stroke-width="1"/>
      <polyline fill="none" points="693.0,336.0 693.0,302.0 767.0,302.0 767.0,275.0 709.0,275.0 709.0,271.0" stroke="#000000" stroke-width="1"/>
      <polyline fill="none" points="709.0,249.0 709.0,245.0 795.0,245.0 795.0,302.0 807.0,302.0 807.0,433.0 795.0,433.0 795.0,487.0 699.0,487.0 699.0,482.0" stroke="#000000" stroke-width="1"/>
      <polyline fill="none" points="699.0,462.0 699.0,457.0 767.0,457.0 767.0,434.0 693.0,434.0 693.0,404.0" stroke="#000000" stroke-width="1"/>
      <line stroke="#000000" stroke-width="1" x1="726.0" x2="726.0" y1="275.0" y2="245.0"/>
      <line stroke="#000000" stroke-width="1" x1="730.0" x2="730.0" y1="275.0" y2="245.0"/>
      <line stroke="#000000" stroke-width="1" x1="734.0" x2="734.0" y1="275.0" y2="245.0"/>
      <line stroke="#000000" stroke-width="1" x1="738.0" x2="738.0" y1="275.0" y2="245.0"/>
      <line stroke="#000000" stroke-width="1" x1="742.0" x2="742.0" y1="275.0" y2="245.0"/>
      <line stroke="#000000" stroke-width="1" x1="746.0" x2="746.0" y1="275.0" y2="245.0"/>
      <line stroke="#000000" stroke-width="1" x1="750.0" x2="750.0" y1="275.0" y2="245.0"/>
      <line stroke="#000000" stroke-width="1" x1="754.0" x2="754.0" y1="275.0" y2="245.0"/>
      <line stroke="#000000" stroke-width="1" x1="716.0" x2="716.0" y1="487.0" y2="457.0"/>
      <line stroke="#000000" stroke-width="1" x1="720.0" x2="720.0" y1="487.0" y2="457.0"/>
      <line stroke="#000000" stroke-width="1" x1="724.0" x2="724.0" y1="487.0" y2="457.0"/>
      <line stroke="#000000" stroke-width="1" x1="728.0" x2="728.0" y1="487.0" y2="457.0"/>
      <line stroke="#000000" stroke-width="1" x1="732.0" x2="732.0" y1="487.0" y2="457.0"/>
      <line stroke="#000000" stroke-width="1" x1="736.0" x2="736.0" y1="487.0" y2="457.0"/>
      <line stroke="#000000" stroke-width="1" x1="740.0" x2="740.0" y1="487.0" y2="457.0"/>
      <line stroke="#000000" stroke-width="1" x1="744.0" x2="744.0" y1="487.0" y2="457.0"/>
      <polyline fill="none" points="693.0,333.0 703.0,333.0 703.0,302.0" stroke="#000000" stroke-width="1"/>
      <text fill="#000000" font-family="Arial" font-size="10.0" stroke="none" stroke-width="0" transform="rotate(-90.0,691.0,330.0)" x="691.0" y="340.0">кассы</text>
      <polyline fill="none" points="732.0,434.0 732.0,426.0" stroke="#000000" stroke-width="1"/>
      <polyline fill="none" points="732.0,390.0 732.0,385.0 730.0,381.0" stroke="#000000" stroke-width="1"/>
      <polyline fill="none" points="712.0,345.0 710.0,341.0" stroke="#000000" stroke-width="1"/>
      <polygon fill="none" points="702.0,335.0 710.0,331.0 714.0,339.0 706.0,343.0" stroke="#000000" stroke-width="1"/>
      <line stroke="#009900" stroke-width="1" x1="714.0" x2="710.0" y1="344.0" y2="346.0"/>
      <line stroke="#009900" stroke-width="1" x1="715.7498628753972" x2="711.7498628753972" y1="347.5969403549832" y2="349.5969403549832"/>
      <line stroke="#009900" stroke-width="1" x1="717.4997257507944" x2="713.4997257507944" y1="351.1938807099664" y2="353.1938807099664"/>
      <line stroke="#009900" stroke-width="1" x1="719.2495886261916" x2="715.2495886261916" y1="354.79082106494957" y2="356.79082106494957"/>
      <line stroke="#009900" stroke-width="1" x1="720.9994515015887" x2="716.9994515015887" y1="358.38776141993276" y2="360.38776141993276"/>
      <line stroke="#009900" stroke-width="1" x1="722.7493143769859" x2="718.7493143769859" y1="361.98470177491595" y2="363.98470177491595"/>
      <line stroke="#009900" stroke-width="1" x1="724.4991772523831" x2="720.4991772523831" y1="365.58164212989914" y2="367.58164212989914"/>
      <line stroke="#009900" stroke-width="1" x1="726.2490401277803" x2="722.2490401277803" y1="369.1785824848823" y2="371.1785824848823"/>
      <line stroke="#009900" stroke-width="1" x1="727.9989030031775" x2="723.9989030031775" y1="372.7755228398655" y2="374.7755228398655"/>
      <line stroke="#009900" stroke-width="1" x1="729.7487658785747" x2="725.7487658785747" y1="376.3724631948487" y2="378.3724631948487"/>
      <line stroke="#009900" stroke-width="1" x1="731.4986287539718" x2="727.4986287539718" y1="379.9694035498319" y2="381.9694035498319"/>
      <line stroke="#ff0000" stroke-width="1" x1="734.0" x2="730.0" y1="390.0" y2="390.0"/>
      <line stroke="#ff0000" stroke-width="1" x1="734.0" x2="730.0" y1="394.0" y2="394.0"/>
      <line stroke="#ff0000" stroke-width="1" x1="734.0" x2="730.0" y1="398.0" y2="398.0"/>
      <line stroke="#ff0000" stroke-width="1" x1="734.0" x2="730.0" y1="402.0" y2="402.0"/>
      <line stroke="#ff0000" stroke-width="1" x1="734.0" x2="730.0" y1="406.0" y2="406.0"/>
      <line stroke="#ff0000" stroke-width="1" x1="734.0" x2="730.0" y1="410.0" y2="410.0"/>
      <line stroke="#ff0000" stroke-width="1" x1="734.0" x2="730.0" y1="414.0" y2="414.0"/>
      <line stroke="#ff0000" stroke-width="1" x1="734.0" x2="730.0" y1="418.0" y2="418.0"/>
      <line stroke="#ff0000" stroke-width="1" x1="734.0" x2="730.0" y1="422.0" y2="422.0"/>
      <line stroke="#ff0000" stroke-width="1" x1="734.0" x2="730.0" y1="426.0" y2="426.0"/>
      <polygon fill="#c0c0c0" points="767.0,393.0 767.0,351.0 759.0,351.0 759.0,393.0" stroke="#000000" stroke-width="1"/>
      <line stroke="#7f7f7f" stroke-width="1" x1="694.0" x2="694.0" y1="399.0" y2="341.0"/>
      <line stroke="#7f7f7f" stroke-width="1" x1="690.0" x2="690.0" y1="399.0" y2="341.0"/>
      <line stroke="#7f7f7f" stroke-width="1" x1="686.0" x2="686.0" y1="399.0" y2="341.0"/>
      <line stroke="#7f7f7f" stroke-width="1" x1="682.0" x2="682.0" y1="399.0" y2="341.0"/>
      <line stroke="#7f7f7f" stroke-width="1" x1="678.0" x2="678.0" y1="399.0" y2="341.0"/>
      <line stroke="#7f7f7f" stroke-width="1" x1="674.0" x2="674.0" y1="399.0" y2="341.0"/>
      <line stroke="#7f7f7f" stroke-width="1" x1="670.0" x2="670.0" y1="399.0" y2="341.0"/>
      <line stroke="#7f7f7f" stroke-width="1" x1="666.0" x2="666.0" y1="399.0" y2="341.0"/>
      <line stroke="#7f7f7f" stroke-width="1" x1="662.0" x2="662.0" y1="399.0" y2="341.0"/>
      <line stroke="#7f7f7f" stroke-width="1" x1="658.0" x2="658.0" y1="399.0" y2="341.0"/>
      <line stroke="#7f7f7f" stroke-width="1" x1="654.0" x2="654.0" y1="399.0" y2="341.0"/>
      <line stroke="#7f7f7f" stroke-width="1" x1="650.0" x2="650.0" y1="399.0" y2="341.0"/>
      <line stroke="#7f7f7f" stroke-width="1" x1="646.0" x2="646.0" y1="399.0" y2="341.0"/>
      <line stroke="#7f7f7f" stroke-width="1" x1="642.0" x2="642.0" y1="399.0" y2="341.0"/>
      <line stroke="#7f7f7f" stroke-width="1" x1="638.0" x2="638.0" y1="399.0" y2="341.0"/>
      <polygon fill="#9b5509" points="700.0,341.0 631.0,341.0 631.0,336.0 700.0,336.0" stroke="#000000" stroke-width="1"/>
      <polygon fill="#9b5509" points="700.0,354.0 700.0,364.0 631.0,364.0 631.0,354.0" stroke="#000000" stroke-width="1"/>
      <polygon fill="#9b5509" points="700.0,378.0 700.0,387.0 631.0,387.0 631.0,378.0" stroke="#000000" stroke-width="1"/>
      <polygon fill="#9b5509" points="700.0,399.0 631.0,399.0 631.0,404.0 700.0,404.0" stroke="#000000" stroke-width="1"/>
      <polyline fill="none" points="193.0,330.0 193.0,339.0 143.0,339.0 143.0,302.0 73.0,302.0 73.0,245.0 -14.0,245.0 -14.0,249.0" stroke="#000000" stroke-width="1"/>
      <polyline fill="none" points="-14.0,270.0 -14.0,274.0 43.0,274.0 43.0,303.0 33.0,303.0 33.0,433.0 43.0,433.0 43.0,455.0 -14.0,455.0 -14.0,459.0" stroke="#000000" stroke-width="1"/>
      <polyline fill="none" points="-14.0,482.0 -14.0,486.0 73.0,486.0 73.0,434.0 143.0,434.0 143.0,400.0 193.0,400.0 193.0,410.0" stroke="#000000" stroke-width="1"/>
      <line stroke="#000000" stroke-width="1" x1="152.0" x2="152.0" y1="400.0" y2="339.0"/>
      <line stroke="#000000" stroke-width="1" x1="156.0" x2="156.0" y1="400.0" y2="339.0"/>
      <line stroke="#000000" stroke-width="1" x1="160.0" x2="160.0" y1="400.0" y2="339.0"/>
      <line stroke="#000000" stroke-width="1" x1="164.0" x2="164.0" y1="400.0" y2="339.0"/>
      <line stroke="#000000" stroke-width="1" x1="168.0" x2="168.0" y1="400.0" y2="339.0"/>
      <line stroke="#000000" stroke-width="1" x1="172.0" x2="172.0" y1="400.0" y2="339.0"/>
      <line stroke="#000000" stroke-width="1" x1="176.0" x2="176.0" y1="400.0" y2="339.0"/>
      <line stroke="#000000" stroke-width="1" x1="180.0" x2="180.0" y1="400.0" y2="339.0"/>
      <line stroke="#000000" stroke-width="1" x1="184.0" x2="184.0" y1="400.0" y2="339.0"/>
      <line stroke="#000000" stroke-width="1" x1="188.0" x2="188.0" y1="400.0" y2="339.0"/>
      <line stroke="#000000" stroke-width="1" x1="192.0" x2="192.0" y1="400.0" y2="339.0"/>
      <line stroke="#000000" stroke-width="1" x1="3.0" x2="3.0" y1="274.0" y2="245.0"/>
      <line stroke="#000000" stroke-width="1" x1="7.0" x2="7.0" y1="274.0" y2="245.0"/>
      <line stroke="#000000" stroke-width="1" x1="11.0" x2="11.0" y1="274.0" y2="245.0"/>
      <line stroke="#000000" stroke-width="1" x1="15.0" x2="15.0" y1="274.0" y2="245.0"/>
      <line stroke="#000000" stroke-width="1" x1="19.0" x2="19.0" y1="274.0" y2="245.0"/>
      <line stroke="#000000" stroke-width="1" x1="23.0" x2="23.0" y1="274.0" y2="245.0"/>
      <line stroke="#000000" stroke-width="1" x1="27.0" x2="27.0" y1="274.0" y2="245.0"/>
      <line stroke="#000000" stroke-width="1" x1="31.0" x2="31.0" y1="274.0" y2="245.0"/>
      <line stroke="#000000" stroke-width="1" x1="3.0" x2="3.0" y1="486.0" y2="455.0"/>
      <line stroke="#000000" stroke-width="1" x1="7.0" x2="7.0" y1="486.0" y2="455.0"/>
      <line stroke="#000000" stroke-width="1" x1="11.0" x2="11.0" y1="486.0" y2="455.0"/>
      <line stroke="#000000" stroke-width="1" x1="15.0" x2="15.0" y1="486.0" y2="455.0"/>
      <line stroke="#000000" stroke-width="1" x1="19.0" x2="19.0" y1="486.0" y2="455.0"/>
      <line stroke="#000000" stroke-width="1" x1="23.0" x2="23.0" y1="486.0" y2="455.0"/>
      <line stroke="#000000" stroke-width="1" x1="27.0" x2="27.0" y1="486.0" y2="455.0"/>
      <line stroke="#000000" stroke-width="1" x1="31.0" x2="31.0" y1="486.0" y2="455.0"/>
      <polygon fill="#c0c0c0" points="73.0,393.0 73.0,351.0 81.0,351.0 81.0,393.0" stroke="#000000" stroke-width="1"/>
      <text fill="#00afaf" font-family="Arial" font-size="15.0" stroke="none" stroke-width="0" x="-43.0" y="370.0">ул. Кирова</text>
      <text fill="#00afaf" font-family="Arial" font-size="15.0" stroke="none" stroke-width="0" x="841.0" y="381.0">ул. Кирова</text>
      <ellipse cx="835.0" cy="469.0" fill="#0000ff" rx="15.0" ry="15.0" stroke="#00afaf" stroke-width="1"/>
      <ellipse cx="118.0" cy="259.0" fill="#0000ff" rx="15.0" ry="15.0" stroke="#00afaf" stroke-width="1"/>
      <text fill="#ffffff" font-family="Arial" font-size="25.0" stroke="none" stroke-width="0" x="827.0" y="478.0">А</text>
      <text fill="#ffffff" font-family="Arial" font-size="25.0" stroke="none" stroke-width="0" x="110.0" y="267.0">А</text>
      <polyline fill="none" marker-end="url(#id475)" points="750.0,411.0 768.0,411.0" stroke="#ff0000" stroke-width="1"/>
      <polyline fill="none" marker-end="url(#id475)" points="755.0,329.0 738.0,329.0" stroke="#009900" stroke-width="1"/>
    </g>
  </g>
</svg>
