<svg xmlns="http://www.w3.org/2000/svg" version="1.1">
<defs>
    <marker id="arrow"
      viewBox="0 0 10 10" refX="0" refY="5"
      markerUnits="strokeWidth"
      markerWidth="4" markerHeight="3"
      orient="auto">
      <path d="M 0 0 L 10 5 L 0 10 z" />
    </marker>
  </defs>
<g stroke="#000000" fill="none" stroke-opacity="1.0" fill-opacity="1.0" transform="scale(0.5)">
<rect x="0" y="0" width="700" height="1400" stroke-width="0" fill="none" />
<g stroke="#000000" fill="none" stroke-opacity="1.0" fill-opacity="1.0" transform="scale(0.5)">
</g>
<g stroke="#000000" fill="#FB0505" stroke-opacity="1.0" fill-opacity="1.0" transform="scale(0.5)">
<polygon points="385,250  415,250  415,700  385,700" stroke-width="1" />
<polygon points="305,250  275,250  275,700  305,700" stroke-width="1" />
</g>
<g stroke="#FB0505" fill="none" stroke-opacity="1.0" fill-opacity="1.0" transform="scale(0.5)">
<text x=" 415" y="450.0" font-family="Arial" font-size=" 20" fill="#FB0505" transform="rotate(-90.0  415  430)" stroke-width="0">Красный проспект &gt;&gt;</text>
<text x=" 251" y="720.0" font-family="Arial" font-size=" 20" fill="#FB0505" transform="rotate(-90.0  251  700)" stroke-width="0">&lt;&lt; Октябрьская</text>
<text x=" 326" y="609.0" font-family="Arial" font-size=" 25" fill="#FB0505" transform="rotate(-90.0  326  584)" stroke-width="0">Площадь Ленина</text>
</g>
<g stroke="#000000" fill="none" stroke-opacity="1.0" fill-opacity="1.0" transform="scale(0.5)">
<polyline points="385,250  380,250" stroke-width="1" fill="none"  />
<polyline points="305,250  311,250" stroke-width="1" fill="none"  />
<polyline points="380,199  409,199  409,160  460,160  460,230  522,230" stroke-width="1" fill="none"  />
<polyline points="522,200  490,200  490,130  409,130  409,97  281,97  281,129  231,129  160,171  127,130" stroke-width="1" fill="none"  />
<polyline points="103,148  143,200  143,270" stroke-width="1" fill="none"  />
<polyline points="174,270  174,199  243,160  281,160  281,199  311,199" stroke-width="1" fill="none"  />
</g>
<g stroke="#000000" fill="#C0C0C0" stroke-opacity="1.0" fill-opacity="1.0" transform="scale(0.5)">
<polygon points="324,160  366,160  366,165  324,165" stroke-width="1" />
<polygon points="323,129  333,129  333,118  323,118" stroke-width="1" />
<polygon points="366,129  356,129  356,118  366,118" stroke-width="1" />
<line x1="460" y1="170" x2="490" y2="170" stroke-width="1" />
<line x1="460" y1="174" x2="490" y2="174" stroke-width="1" />
<line x1="460" y1="178" x2="490" y2="178" stroke-width="1" />
<line x1="460" y1="182" x2="490" y2="182" stroke-width="1" />
<line x1="460" y1="186" x2="490" y2="186" stroke-width="1" />
<line x1="460" y1="190" x2="490" y2="190" stroke-width="1" />
<line x1="460" y1="194" x2="490" y2="194" stroke-width="1" />
<line x1="460" y1="198" x2="490" y2="198" stroke-width="1" />
<line x1="490" y1="230" x2="490" y2="200" stroke-width="1" />
<line x1="494" y1="230" x2="494" y2="200" stroke-width="1" />
<line x1="498" y1="230" x2="498" y2="200" stroke-width="1" />
<line x1="502" y1="230" x2="502" y2="200" stroke-width="1" />
<line x1="506" y1="230" x2="506" y2="200" stroke-width="1" />
<line x1="510" y1="230" x2="510" y2="200" stroke-width="1" />
<line x1="514" y1="230" x2="514" y2="200" stroke-width="1" />
<line x1="518" y1="230" x2="518" y2="200" stroke-width="1" />
<line x1="522" y1="230" x2="522" y2="200" stroke-width="1" />
<line x1="143" y1="240" x2="174" y2="240" stroke-width="1" />
<line x1="143" y1="244" x2="174" y2="244" stroke-width="1" />
<line x1="143" y1="248" x2="174" y2="248" stroke-width="1" />
<line x1="143" y1="252" x2="174" y2="252" stroke-width="1" />
<line x1="143" y1="256" x2="174" y2="256" stroke-width="1" />
<line x1="143" y1="260" x2="174" y2="260" stroke-width="1" />
<line x1="143" y1="264" x2="174" y2="264" stroke-width="1" />
<line x1="143" y1="268" x2="174" y2="268" stroke-width="1" />
<line x1="147" y1="155" x2="123" y2="173" stroke-width="1" />
<line x1="144.50121981" y1="151.876524762" x2="120.50121981" y2="169.876524762" stroke-width="1" />
<line x1="142.00243962" y1="148.753049524" x2="118.00243962" y2="166.753049524" stroke-width="1" />
<line x1="139.503659429" y1="145.629574287" x2="115.503659429" y2="163.629574287" stroke-width="1" />
<line x1="137.004879239" y1="142.506099049" x2="113.004879239" y2="160.506099049" stroke-width="1" />
<line x1="134.506099049" y1="139.382623811" x2="110.506099049" y2="157.382623811" stroke-width="1" />
<line x1="132.007318859" y1="136.259148573" x2="108.007318859" y2="154.259148573" stroke-width="1" />
<line x1="129.508538668" y1="133.135673336" x2="105.508538668" y2="151.135673336" stroke-width="1" />
<line x1="127.009758478" y1="130.012198098" x2="103.009758478" y2="148.012198098" stroke-width="1" />
</g>
<g stroke="#000000" fill="none" stroke-opacity="1.0" fill-opacity="1.0" transform="scale(0.5)">
<polyline points="281,190  309,190  309,199" stroke-width="1" fill="none"  />
<text x=" 283" y="199.0" font-family="Arial" font-size=" 10" fill="#000000" stroke-width="0">кассы</text>
</g>
<g stroke="#7F7F7F" fill="none" stroke-opacity="1.0" fill-opacity="1.0" transform="scale(0.5)">
<line x1="375" y1="203" x2="316" y2="203" stroke-width="1" />
<line x1="375" y1="207" x2="316" y2="207" stroke-width="1" />
<line x1="375" y1="211" x2="316" y2="211" stroke-width="1" />
<line x1="375" y1="215" x2="316" y2="215" stroke-width="1" />
<line x1="375" y1="219" x2="316" y2="219" stroke-width="1" />
<line x1="375" y1="223" x2="316" y2="223" stroke-width="1" />
<line x1="375" y1="227" x2="316" y2="227" stroke-width="1" />
<line x1="375" y1="231" x2="316" y2="231" stroke-width="1" />
<line x1="375" y1="235" x2="316" y2="235" stroke-width="1" />
<line x1="375" y1="239" x2="316" y2="239" stroke-width="1" />
<line x1="375" y1="243" x2="316" y2="243" stroke-width="1" />
<line x1="375" y1="247" x2="316" y2="247" stroke-width="1" />
</g>
<g stroke="#000000" fill="#9B5509" stroke-opacity="1.0" fill-opacity="1.0" transform="scale(0.5)">
<polygon points="316,197  316,252  311,252  311,197" stroke-width="1" />
<polygon points="329,197  339,197  339,252  329,252" stroke-width="1" />
<polygon points="352,197  362,197  362,252  352,252" stroke-width="1" />
<polygon points="375,197  375,252  380,252  380,197" stroke-width="1" />
</g>
<g stroke="#000000" fill="none" stroke-opacity="1.0" fill-opacity="1.0" transform="scale(0.5)">
<polygon points="310,184  310,189  315,189  315,184" stroke-width="1" />
<polyline points="349,175  370,175" stroke-width="1" fill="none"  />
</g>
<g stroke="#009900" fill="none" stroke-opacity="1.0" fill-opacity="1.0" transform="scale(0.5)">
<line x1="317" y1="181" x2="318" y2="185" stroke-width="1" />
<line x1="320.880570001" y1="180.0298575" x2="321.880570001" y2="184.0298575" stroke-width="1" />
<line x1="324.761140001" y1="179.059715" x2="325.761140001" y2="183.059715" stroke-width="1" />
<line x1="328.641710002" y1="178.0895725" x2="329.641710002" y2="182.0895725" stroke-width="1" />
<line x1="332.522280002" y1="177.119429999" x2="333.522280002" y2="181.119429999" stroke-width="1" />
<line x1="336.402850003" y1="176.149287499" x2="337.402850003" y2="180.149287499" stroke-width="1" />
<line x1="340.283420003" y1="175.179144999" x2="341.283420003" y2="179.179144999" stroke-width="1" />
<line x1="344.163990004" y1="174.209002499" x2="345.163990004" y2="178.209002499" stroke-width="1" />
<line x1="348.044560005" y1="173.238859999" x2="349.044560005" y2="177.238859999" stroke-width="1" />
</g>
<g stroke="#FF0000" fill="none" stroke-opacity="1.0" fill-opacity="1.0" transform="scale(0.5)">
<line x1="370" y1="173" x2="370" y2="177" stroke-width="1" />
<line x1="374" y1="173" x2="374" y2="177" stroke-width="1" />
<line x1="378" y1="173" x2="378" y2="177" stroke-width="1" />
<line x1="382" y1="173" x2="382" y2="177" stroke-width="1" />
<line x1="386" y1="173" x2="386" y2="177" stroke-width="1" />
<line x1="390" y1="173" x2="390" y2="177" stroke-width="1" />
<line x1="394" y1="173" x2="394" y2="177" stroke-width="1" />
<line x1="398" y1="173" x2="398" y2="177" stroke-width="1" />
<line x1="402" y1="173" x2="402" y2="177" stroke-width="1" />
<line x1="406" y1="173" x2="406" y2="177" stroke-width="1" />
</g>
<g stroke="#000000" fill="none" stroke-opacity="1.0" fill-opacity="1.0" transform="scale(0.5)">
<polyline points="385,700  379,700" stroke-width="1" fill="none"  />
<polyline points="305,700  310,700" stroke-width="1" fill="none"  />
<polyline points="379,750  409,750  409,790  439,790  491,820  510,820  510,730  570,730" stroke-width="1" fill="none"  />
<polyline points="570,760  540,760  540,850  484,850  430,820  409,820  409,851  281,851  281,820  261,820  261,850  230,850  230,860  178,860" stroke-width="1" fill="none"  />
<polyline points="139,731  193,731  193,736" stroke-width="1" fill="none"  />
<polyline points="193,747  193,754" stroke-width="1" fill="none"  />
<polyline points="193,765  193,771  179,771  179,820  200,820  200,770  260,770  260,789  281,789  281,750  310,750" stroke-width="1" fill="none"  />
</g>
<g stroke="#000000" fill="#C0C0C0" stroke-opacity="1.0" fill-opacity="1.0" transform="scale(0.5)">
<polygon points="324,789  364,789  364,783  324,783" stroke-width="1" />
<polygon points="322,820  332,820  332,831  322,831" stroke-width="1" />
<polygon points="366,820  355,820  355,831  366,831" stroke-width="1" />
<polygon points="244,821  221,821  221,792  244,792" stroke-width="1" />
<line x1="510" y1="760" x2="540" y2="760" stroke-width="1" />
<line x1="510" y1="764" x2="540" y2="764" stroke-width="1" />
<line x1="510" y1="768" x2="540" y2="768" stroke-width="1" />
<line x1="510" y1="772" x2="540" y2="772" stroke-width="1" />
<line x1="510" y1="776" x2="540" y2="776" stroke-width="1" />
<line x1="510" y1="780" x2="540" y2="780" stroke-width="1" />
<line x1="510" y1="784" x2="540" y2="784" stroke-width="1" />
<line x1="510" y1="788" x2="540" y2="788" stroke-width="1" />
<line x1="540" y1="760" x2="540" y2="730" stroke-width="1" />
<line x1="544" y1="760" x2="544" y2="730" stroke-width="1" />
<line x1="548" y1="760" x2="548" y2="730" stroke-width="1" />
<line x1="552" y1="760" x2="552" y2="730" stroke-width="1" />
<line x1="556" y1="760" x2="556" y2="730" stroke-width="1" />
<line x1="560" y1="760" x2="560" y2="730" stroke-width="1" />
<line x1="564" y1="760" x2="564" y2="730" stroke-width="1" />
<line x1="568" y1="760" x2="568" y2="730" stroke-width="1" />
<line x1="200" y1="860" x2="200" y2="820" stroke-width="1" />
<line x1="196" y1="860" x2="196" y2="820" stroke-width="1" />
<line x1="192" y1="860" x2="192" y2="820" stroke-width="1" />
<line x1="188" y1="860" x2="188" y2="820" stroke-width="1" />
<line x1="184" y1="860" x2="184" y2="820" stroke-width="1" />
<line x1="180" y1="860" x2="180" y2="820" stroke-width="1" />
<line x1="140" y1="820" x2="179" y2="820" stroke-width="1" />
<line x1="139.918384341" y1="816.000832726" x2="178.918384341" y2="816.000832726" stroke-width="1" />
<line x1="139.836768683" y1="812.001665452" x2="178.836768683" y2="812.001665452" stroke-width="1" />
<line x1="139.755153024" y1="808.002498178" x2="178.755153024" y2="808.002498178" stroke-width="1" />
<line x1="139.673537365" y1="804.003330905" x2="178.673537365" y2="804.003330905" stroke-width="1" />
<line x1="139.591921707" y1="800.004163631" x2="178.591921707" y2="800.004163631" stroke-width="1" />
<line x1="139.510306048" y1="796.004996357" x2="178.510306048" y2="796.004996357" stroke-width="1" />
<line x1="139.428690389" y1="792.005829083" x2="178.428690389" y2="792.005829083" stroke-width="1" />
<line x1="139.347074731" y1="788.006661809" x2="178.347074731" y2="788.006661809" stroke-width="1" />
<line x1="139.265459072" y1="784.007494535" x2="178.265459072" y2="784.007494535" stroke-width="1" />
<line x1="139.183843413" y1="780.008327261" x2="178.183843413" y2="780.008327261" stroke-width="1" />
<line x1="139.102227755" y1="776.009159988" x2="178.102227755" y2="776.009159988" stroke-width="1" />
<line x1="139.020612096" y1="772.009992714" x2="178.020612096" y2="772.009992714" stroke-width="1" />
<line x1="179" y1="771" x2="179" y2="731" stroke-width="1" />
<line x1="183" y1="771" x2="183" y2="731" stroke-width="1" />
<line x1="187" y1="771" x2="187" y2="731" stroke-width="1" />
</g>
<g stroke="#000000" fill="none" stroke-opacity="1.0" fill-opacity="1.0" transform="scale(0.5)">
<polyline points="381,750  381,759  409,759" stroke-width="1" fill="none"  />
<text x=" 384" y="759.0" font-family="Arial" font-size=" 10" fill="#000000" stroke-width="0">кассы</text>
</g>
<g stroke="#7F7F7F" fill="none" stroke-opacity="1.0" fill-opacity="1.0" transform="scale(0.5)">
<line x1="374" y1="704" x2="315" y2="704" stroke-width="1" />
<line x1="374" y1="708" x2="315" y2="708" stroke-width="1" />
<line x1="374" y1="712" x2="315" y2="712" stroke-width="1" />
<line x1="374" y1="716" x2="315" y2="716" stroke-width="1" />
<line x1="374" y1="720" x2="315" y2="720" stroke-width="1" />
<line x1="374" y1="724" x2="315" y2="724" stroke-width="1" />
<line x1="374" y1="728" x2="315" y2="728" stroke-width="1" />
<line x1="374" y1="732" x2="315" y2="732" stroke-width="1" />
<line x1="374" y1="736" x2="315" y2="736" stroke-width="1" />
<line x1="374" y1="740" x2="315" y2="740" stroke-width="1" />
<line x1="374" y1="744" x2="315" y2="744" stroke-width="1" />
</g>
<g stroke="#000000" fill="#9B5509" stroke-opacity="1.0" fill-opacity="1.0" transform="scale(0.5)">
<polygon points="315,698  315,752  310,752  310,698" stroke-width="1" />
<polygon points="328,698  338,698  338,752  328,752" stroke-width="1" />
<polygon points="351,698  361,698  361,752  351,752" stroke-width="1" />
<polygon points="374,698  374,752  379,752  379,698" stroke-width="1" />
</g>
<g stroke="#000000" fill="none" stroke-opacity="1.0" fill-opacity="1.0" transform="scale(0.5)">
<polygon points="375,760  380,760  380,765  375,765" stroke-width="1" />
<polyline points="337,775  324,775" stroke-width="1" fill="none"  />
</g>
<g stroke="#009900" fill="none" stroke-opacity="1.0" fill-opacity="1.0" transform="scale(0.5)">
<line x1="371" y1="763" x2="372" y2="767" stroke-width="1" />
<line x1="367.153904209" y1="764.098884512" x2="368.153904209" y2="768.098884512" stroke-width="1" />
<line x1="363.307808419" y1="765.197769023" x2="364.307808419" y2="769.197769023" stroke-width="1" />
<line x1="359.461712628" y1="766.296653535" x2="360.461712628" y2="770.296653535" stroke-width="1" />
<line x1="355.615616838" y1="767.395538046" x2="356.615616838" y2="771.395538046" stroke-width="1" />
<line x1="351.769521047" y1="768.494422558" x2="352.769521047" y2="772.494422558" stroke-width="1" />
<line x1="347.923425257" y1="769.59330707" x2="348.923425257" y2="773.59330707" stroke-width="1" />
<line x1="344.077329466" y1="770.692191581" x2="345.077329466" y2="774.692191581" stroke-width="1" />
<line x1="340.231233675" y1="771.791076093" x2="341.231233675" y2="775.791076093" stroke-width="1" />
<line x1="336.385137885" y1="772.889960604" x2="337.385137885" y2="776.889960604" stroke-width="1" />
</g>
<g stroke="#FF0000" fill="none" stroke-opacity="1.0" fill-opacity="1.0" transform="scale(0.5)">
<line x1="324" y1="773" x2="324" y2="777" stroke-width="1" />
<line x1="320" y1="773" x2="320" y2="777" stroke-width="1" />
<line x1="316" y1="773" x2="316" y2="777" stroke-width="1" />
<line x1="312" y1="773" x2="312" y2="777" stroke-width="1" />
<line x1="308" y1="773" x2="308" y2="777" stroke-width="1" />
<line x1="304" y1="773" x2="304" y2="777" stroke-width="1" />
<line x1="300" y1="773" x2="300" y2="777" stroke-width="1" />
<line x1="296" y1="773" x2="296" y2="777" stroke-width="1" />
<line x1="292" y1="773" x2="292" y2="777" stroke-width="1" />
<line x1="288" y1="773" x2="288" y2="777" stroke-width="1" />
<line x1="284" y1="773" x2="284" y2="777" stroke-width="1" />
</g>
<g stroke="#000000" fill="#FEFBF1" stroke-opacity="1.0" fill-opacity="1.0" transform="scale(0.5)">
<polygon points="139,731  110,731  110,941  178,941  178,860  139,860" stroke-width="1" />
<polygon points="560,780  560,940  670,940  670,780" stroke-width="1" />
<polygon points="580,981  580,1010  570,1010  570,1020  560,1020  560,1060  569,1060  569,1069  579,1069  579,1100  671,1100  671,981" stroke-width="1" />
<polygon points="577,1286  672,1357  641,1394  586,1353  561,1365  561,1393  510,1393  510,1327" stroke-width="1" />
<polygon points="180,1131  180,1279  130,1279  130,1180  2,1180  2,1131" stroke-width="1" />
<polygon points="160,1059  160,1000  140,1000  140,1059" stroke-width="1" />
<polygon points="320,1270  360,1270  360,1310  320,1310" stroke-width="1" />
<ellipse cx="341" cy="1291" rx="15.0" ry="15.0" />
<ellipse cx="151" cy="1030" rx="15.0" ry="14.0" />
<polyline points="340,1279  340,1304" stroke-width="1" fill="none"  />
<polyline points="336,1283  344,1283" stroke-width="1" fill="none"  />
<polyline points="332,1287  348,1287" stroke-width="1" fill="none"  />
<polyline points="337,1292  343,1296" stroke-width="1" fill="none"  />
<polygon points="491,90  694,90  694,40  537,40  537,0  491,0" stroke-width="1" />
<polygon points="695,1149  650,1149  621,1239  695,1288  695,1238  669,1224  677,1194  695,1194" stroke-width="1" />
<ellipse cx="558" cy="469" rx="12.0" ry="12.0" />
<ellipse cx="562" cy="495" rx="8.0" ry="8.0" />
<ellipse cx="562" cy="516" rx="8.0" ry="8.0" />
<ellipse cx="554" cy="443" rx="8.0" ry="8.0" />
<ellipse cx="554" cy="422" rx="8.0" ry="8.0" />
<ellipse cx="554" cy="401" rx="8.0" ry="8.0" />
</g>
<g stroke="#FEEDB9" fill="#FEFBF1" stroke-opacity="1.0" fill-opacity="1.0" transform="scale(0.5)">
<polygon points="695,391  661,391  661,545  695,545" stroke-width="1" />
<polygon points="8,589  34,589  34,580  44,570  44,489  34,479  34,469  8,469" stroke-width="1" />
<polygon points="0,344  31,344  31,191  0,148" stroke-width="1" />
<polygon points="77,0  118,35  145,2  199,2  199,28  167,28  167,61  232,61  232,0" stroke-width="1" />
</g>
<g stroke="#000000" fill="#FEFBF1" stroke-opacity="1.0" fill-opacity="1.0" transform="scale(0.5)">
<polyline points="695,391  661,391  661,545  695,545" stroke-width="1" fill="none"  />
<polyline points="8,469  34,469  34,479  44,489  44,570  34,580  34,589  8,589" stroke-width="1" fill="none"  />
<polyline points="0,148  31,191  31,344  0,344" stroke-width="1" fill="none"  />
<polyline points="77,0  118,35  145,2  199,2  199,28  167,28  167,61  232,61  232,0" stroke-width="1" fill="none"  />
</g>
<g stroke="#000000" fill="#709020" stroke-opacity="1.0" fill-opacity="1.0" transform="scale(0.5)">
<polygon points="170,1085  170,984  49,984  49,722  0,722  0,1085" stroke-width="1" />
</g>
<g stroke="#000000" fill="#CCCCCC" stroke-opacity="1.0" fill-opacity="1.0" transform="scale(0.5)">
<line x1="326" y1="1234" x2="353" y2="1234" stroke-width="1" />
<line x1="326" y1="1230" x2="353" y2="1230" stroke-width="1" />
<line x1="326" y1="1226" x2="353" y2="1226" stroke-width="1" />
<line x1="326" y1="1222" x2="353" y2="1222" stroke-width="1" />
<line x1="326" y1="1218" x2="353" y2="1218" stroke-width="1" />
<line x1="326" y1="1214" x2="353" y2="1214" stroke-width="1" />
<line x1="326" y1="1210" x2="353" y2="1210" stroke-width="1" />
<line x1="326" y1="1206" x2="353" y2="1206" stroke-width="1" />
<line x1="326" y1="1202" x2="353" y2="1202" stroke-width="1" />
<line x1="590" y1="1201" x2="617" y2="1201" stroke-width="1" />
<line x1="590" y1="1205" x2="617" y2="1205" stroke-width="1" />
<line x1="590" y1="1209" x2="617" y2="1209" stroke-width="1" />
<line x1="590" y1="1213" x2="617" y2="1213" stroke-width="1" />
<line x1="590" y1="1217" x2="617" y2="1217" stroke-width="1" />
<line x1="590" y1="1221" x2="617" y2="1221" stroke-width="1" />
<line x1="590" y1="1225" x2="617" y2="1225" stroke-width="1" />
<line x1="556" y1="1248" x2="576" y2="1268" stroke-width="1" />
<line x1="553.171572875" y1="1250.82842712" x2="573.171572875" y2="1270.82842712" stroke-width="1" />
<line x1="550.343145751" y1="1253.65685425" x2="570.343145751" y2="1273.65685425" stroke-width="1" />
<line x1="547.514718626" y1="1256.48528137" x2="567.514718626" y2="1276.48528137" stroke-width="1" />
<line x1="544.686291501" y1="1259.3137085" x2="564.686291501" y2="1279.3137085" stroke-width="1" />
<line x1="541.857864376" y1="1262.14213562" x2="561.857864376" y2="1282.14213562" stroke-width="1" />
<line x1="583" y1="1168" x2="611" y2="1157" stroke-width="1" />
<line x1="581.461538462" y1="1164.30769231" x2="609.461538462" y2="1153.30769231" stroke-width="1" />
<line x1="579.923076923" y1="1160.61538462" x2="607.923076923" y2="1149.61538462" stroke-width="1" />
<line x1="578.384615385" y1="1156.92307692" x2="606.384615385" y2="1145.92307692" stroke-width="1" />
<line x1="576.846153846" y1="1153.23076923" x2="604.846153846" y2="1142.23076923" stroke-width="1" />
<line x1="575.307692308" y1="1149.53846154" x2="603.307692308" y2="1138.53846154" stroke-width="1" />
<line x1="573.769230769" y1="1145.84615385" x2="601.769230769" y2="1134.84615385" stroke-width="1" />
<line x1="515" y1="1279" x2="520" y2="1307" stroke-width="1" />
<line x1="511.06452036" y1="1279.71554175" x2="516.06452036" y2="1307.71554175" stroke-width="1" />
<line x1="507.129040719" y1="1280.43108351" x2="512.129040719" y2="1308.43108351" stroke-width="1" />
<line x1="503.193561079" y1="1281.14662526" x2="508.193561079" y2="1309.14662526" stroke-width="1" />
<line x1="499.258081438" y1="1281.86216701" x2="504.258081438" y2="1309.86216701" stroke-width="1" />
<line x1="495.322601798" y1="1282.57770876" x2="500.322601798" y2="1310.57770876" stroke-width="1" />
<line x1="190" y1="1130" x2="219" y2="1130" stroke-width="1" />
<line x1="190" y1="1134" x2="219" y2="1134" stroke-width="1" />
<line x1="190" y1="1138" x2="219" y2="1138" stroke-width="1" />
<line x1="190" y1="1142" x2="219" y2="1142" stroke-width="1" />
<line x1="190" y1="1146" x2="219" y2="1146" stroke-width="1" />
<line x1="190" y1="1150" x2="219" y2="1150" stroke-width="1" />
<line x1="190" y1="1154" x2="219" y2="1154" stroke-width="1" />
<line x1="190" y1="1158" x2="219" y2="1158" stroke-width="1" />
<line x1="190" y1="1085" x2="217" y2="1085" stroke-width="1" />
<line x1="190" y1="1081" x2="217" y2="1081" stroke-width="1" />
<line x1="190" y1="1077" x2="217" y2="1077" stroke-width="1" />
<line x1="190" y1="1073" x2="217" y2="1073" stroke-width="1" />
<line x1="190" y1="1069" x2="217" y2="1069" stroke-width="1" />
<line x1="190" y1="1065" x2="217" y2="1065" stroke-width="1" />
<line x1="190" y1="1061" x2="217" y2="1061" stroke-width="1" />
<line x1="190" y1="1057" x2="217" y2="1057" stroke-width="1" />
<line x1="190" y1="1053" x2="217" y2="1053" stroke-width="1" />
<line x1="543" y1="1076" x2="516" y2="1076" stroke-width="1" />
<line x1="543" y1="1072" x2="516" y2="1072" stroke-width="1" />
<line x1="543" y1="1068" x2="516" y2="1068" stroke-width="1" />
<line x1="543" y1="1064" x2="516" y2="1064" stroke-width="1" />
<line x1="543" y1="1060" x2="516" y2="1060" stroke-width="1" />
<line x1="543" y1="1056" x2="516" y2="1056" stroke-width="1" />
<line x1="543" y1="1052" x2="516" y2="1052" stroke-width="1" />
<line x1="543" y1="1048" x2="516" y2="1048" stroke-width="1" />
<polyline points="217,1048  217,1098  488,1098  516,1077  516,1044" stroke-width="1" fill="none"  />
<polyline points="543,1044  543,1089  493,1127  539,1193  585,1173  573,1144" stroke-width="1" fill="none"  />
<polyline points="602,1132  617,1179  617,1226" stroke-width="1" fill="none"  />
<polyline points="590,1226  590,1201  556,1214  539,1235  539,1265  556,1248" stroke-width="1" fill="none"  />
<polyline points="576,1268  560,1284  520,1307  497,1310" stroke-width="1" fill="none"  />
<polyline points="493,1283  515,1279  513,1231  519,1213  456,1123  353,1123  353,1240" stroke-width="1" fill="none"  />
<polyline points="326,1240  326,1125  219,1125  219,1164" stroke-width="1" fill="none"  />
<polyline points="190,1165  190,1048" stroke-width="1" fill="none"  />
</g>
<g stroke="#FFFFFF" fill="none" stroke-opacity="1.0" fill-opacity="1.0" transform="scale(0.5)">
<text x=" 455" y="31.0" font-family="Arial" font-size=" 20" fill="#FFFFFF" stroke-width="0">А</text>
<text x=" 132" y="74.0" font-family="Arial" font-size=" 20" fill="#FFFFFF" stroke-width="0">А</text>
<text x=" 522" y="1017.0" font-family="Arial" font-size=" 20" fill="#FFFFFF" stroke-width="0">А</text>
</g>
<g stroke="#00AFAF" fill="none" stroke-opacity="1.0" fill-opacity="1.0" transform="scale(0.5)">
<text x=" 326" y="1093.0" font-family="Arial" font-size=" 15" fill="#00AFAF" transform="rotate(-90.0  326  1078)" stroke-width="0">Красный проспект</text>
<text x=" 203" y="436.0" font-family="Arial" font-size=" 20" fill="#00AFAF" transform="rotate(-90.0  203  416)" stroke-width="0">площадь Ленина</text>
<text x=" 497" y="118.0" font-family="Arial" font-size=" 15" fill="#00AFAF" stroke-width="0">ул. Орджоникидзе</text>
<text x=" 497" y="705.0" font-family="Arial" font-size=" 15" fill="#00AFAF" stroke-width="0">ул. Депутатская</text>
<text x=" 507" y="964.0" font-family="Arial" font-size=" 15" fill="#00AFAF" stroke-width="0">ул. Щетинкина</text>
<text x=" 8" y="1109.0" font-family="Arial" font-size=" 15" fill="#00AFAF" stroke-width="0">ул. Горького</text>
<text x=" 537" y="1118.0" font-family="Arial" font-size=" 15" fill="#00AFAF" stroke-width="0">ул. Горького</text>
<text x=" 8" y="1319.0" font-family="Arial" font-size=" 15" fill="#00AFAF" stroke-width="0">ул. Чаплыгина</text>
<text x=" 5" y="413.0" font-family="Arial" font-size=" 15" fill="#00AFAF" stroke-width="0">ул. Ленина</text>
<text x=" 48" y="15.0" font-family="Arial" font-size=" 15" fill="#00AFAF" transform="rotate(45.0  48  0)" stroke-width="0">Вокзальная магистраль</text>
<text x=" 561" y="1232.0" font-family="Arial" font-size=" 15" fill="#00AFAF" transform="rotate(35.0  561  1217)" stroke-width="0">Октябрьская маг-ль</text>
</g>
<g stroke="#000000" fill="none" stroke-opacity="1.0" fill-opacity="1.0" transform="scale(0.5)">
<text x=" 14" y="1024.0" font-family="Arial" font-size=" 15" fill="#000000" stroke-width="0">Первомайский сквер</text>
<text x=" 592" y="867.0" font-family="Arial" font-size=" 15" fill="#000000" stroke-width="0">Мэрия</text>
<text x=" 585" y="1026.0" font-family="Arial" font-size=" 15" fill="#000000" stroke-width="0">Дом памяти</text>
<text x=" 582" y="1042.0" font-family="Arial" font-size=" 15" fill="#000000" stroke-width="0">В. И. Ленина</text>
<text x=" 115" y="929.0" font-family="Arial" font-size=" 15" fill="#000000" transform="rotate(-90.0  115  914)" stroke-width="0">Краеведческий музей</text>
<text x=" 7" y="326.0" font-family="Arial" font-size=" 15" fill="#000000" transform="rotate(-90.0  7  311)" stroke-width="0">Центробанк</text>
<text x=" 11" y="597.0" font-family="Arial" font-size=" 13" fill="#000000" transform="rotate(-90.0  11  584)" stroke-width="0">'Гост. "Центральная"'</text>
<text x=" 669" y="556.0" font-family="Arial" font-size=" 15" fill="#000000" transform="rotate(-90.0  669  541)" stroke-width="0">Театр оперы и балета</text>
<text x=" 576" y="1057.0" font-family="Arial" font-size=" 15" fill="#000000" stroke-width="0">(Филармония)</text>
<text x=" 501" y="62.0" font-family="Arial" font-size=" 15" fill="#000000" stroke-width="0">Архитектурно-строительная</text>
<text x=" 550" y="78.0" font-family="Arial" font-size=" 15" fill="#000000" stroke-width="0">академия</text>
<text x=" 515" y="1348.0" font-family="Arial" font-size=" 15" fill="#000000" stroke-width="0">'Маг. "Под строкой"'</text>
<text x=" 578" y="546.0" font-family="Arial" font-size=" 15" fill="#000000" transform="rotate(-90.0  578  531)" stroke-width="0">Памятник В. И. Ленину</text>
<text x=" 274" y="1330.0" font-family="Arial" font-size=" 15" fill="#000000" stroke-width="0">Часовня св. Николая</text>
</g>
<g stroke="#009900" fill="none" stroke-opacity="1.0" fill-opacity="1.0" transform="scale(0.5)">
<polyline points="329,172  333,187" marker-end="url(#arrow)" stroke-width="1" fill="none" />
<polyline points="356,777  352,761" marker-end="url(#arrow)" stroke-width="1" fill="none" />
</g>
<g stroke="#FF0000" fill="none" stroke-opacity="1.0" fill-opacity="1.0" transform="scale(0.5)">
<polyline points="388,182  388,166" marker-end="url(#arrow)" stroke-width="1" fill="none" />
<polyline points="306,769  306,783" marker-end="url(#arrow)" stroke-width="1" fill="none" />
</g>
</g>
</svg>
