<?xml version="1.0" encoding="utf-8" ?>
<svg baseProfile="full" height="760.0" version="1.1" width="1350.0" xmlns="http://www.w3.org/2000/svg" xmlns:ev="http://www.w3.org/2001/xml-events" xmlns:xlink="http://www.w3.org/1999/xlink">
  <defs>
    <marker id="id478" markerHeight="3" markerUnits="strokeWidth" markerWidth="4" orient="auto" refX="0" refY="5" viewBox="0,0,10,10">
      <path d="M 0 0 L 10 5 L 0 10 z"/>
    </marker>
  </defs>
  <g>
    <rect fill="none" height="760.0" stroke="none" stroke-width="0" width="1350.0" x="0.0" y="0.0"/>
    <polygon fill="#fb0505" points="266.0,279.0 716.0,279.0 716.0,309.0 266.0,309.0" stroke="#000000" stroke-width="1"/>
    <polygon fill="#fb0505" points="266.0,419.0 716.0,419.0 716.0,389.0 266.0,389.0" stroke="#000000" stroke-width="1"/>
    <text fill="#fb0505" font-family="Arial" font-size="20.0" stroke="none" stroke-width="0" x="266.0" y="278.0">&lt;&lt; тупик</text>
    <text fill="#fb0505" font-family="Arial" font-size="20.0" stroke="none" stroke-width="0" x="574.0" y="439.0">Студенческая &gt;&gt;</text>
    <text fill="#fb0505" font-family="Arial" font-size="25.0" stroke="none" stroke-width="0" x="409.0" y="340.0">Площадь Маркса</text>
    <polyline fill="none" points="716.0,309.0 725.0,309.0 716.0,300.0 716.0,279.0 800.0,279.0 800.0,164.0 851.0,113.0" stroke="#000000" stroke-width="1"/>
    <polyline fill="none" points="874.0,136.0 832.0,178.0 832.0,278.0 845.0,278.0 845.0,298.0 865.0,298.0 865.0,324.0" stroke="#000000" stroke-width="1"/>
    <polyline fill="none" points="716.0,389.0 725.0,389.0 716.0,398.0 716.0,419.0 845.0,419.0 845.0,404.0 865.0,404.0 865.0,374.0" stroke="#000000" stroke-width="1"/>
    <polyline fill="none" points="847.0,324.0 1046.0,324.0 1062.0,340.0 1165.0,237.0 1133.0,205.0 1103.0,235.0" stroke="#000000" stroke-width="1"/>
    <polyline fill="none" points="847.0,374.0 896.0,374.0 896.0,459.0 846.0,509.0 811.0,474.0" stroke="#000000" stroke-width="1"/>
    <polyline fill="none" points="784.0,501.0 843.0,560.0 932.0,471.0 932.0,374.0 1016.0,374.0 1124.0,482.0 1095.0,511.0" stroke="#000000" stroke-width="1"/>
    <polyline fill="none" points="1118.0,534.0 1172.0,480.0 1087.0,395.0 1087.0,365.0 1190.0,262.0 1217.0,289.0 1188.0,318.0" stroke="#000000" stroke-width="1"/>
    <polyline fill="none" points="1211.0,341.0 1290.0,262.0" stroke="#000000" stroke-width="1"/>
    <polyline fill="none" points="1267.0,239.0 1238.0,268.0 1153.0,183.0 1185.0,151.0" stroke="#000000" stroke-width="1"/>
    <polyline fill="none" points="1163.0,129.0 1080.0,212.0" stroke="#000000" stroke-width="1"/>
    <line stroke="#000000" stroke-width="1" x1="677.0" x2="677.0" y1="389.0" y2="309.0"/>
    <line stroke="#000000" stroke-width="1" x1="681.0" x2="681.0" y1="389.0" y2="309.0"/>
    <line stroke="#000000" stroke-width="1" x1="685.0" x2="685.0" y1="389.0" y2="309.0"/>
    <line stroke="#000000" stroke-width="1" x1="689.0" x2="689.0" y1="389.0" y2="309.0"/>
    <line stroke="#000000" stroke-width="1" x1="693.0" x2="693.0" y1="389.0" y2="309.0"/>
    <line stroke="#000000" stroke-width="1" x1="697.0" x2="697.0" y1="389.0" y2="309.0"/>
    <line stroke="#000000" stroke-width="1" x1="701.0" x2="701.0" y1="389.0" y2="309.0"/>
    <line stroke="#000000" stroke-width="1" x1="705.0" x2="705.0" y1="389.0" y2="309.0"/>
    <line stroke="#000000" stroke-width="1" x1="709.0" x2="709.0" y1="389.0" y2="309.0"/>
    <line stroke="#000000" stroke-width="1" x1="713.0" x2="713.0" y1="389.0" y2="309.0"/>
    <line stroke="#000000" stroke-width="1" x1="717.0" x2="717.0" y1="389.0" y2="309.0"/>
    <line stroke="#000000" stroke-width="1" x1="721.0" x2="721.0" y1="389.0" y2="309.0"/>
    <line stroke="#000000" stroke-width="1" x1="725.0" x2="725.0" y1="389.0" y2="309.0"/>
    <line stroke="#000000" stroke-width="1" x1="847.0" x2="847.0" y1="374.0" y2="324.0"/>
    <line stroke="#000000" stroke-width="1" x1="851.0" x2="851.0" y1="374.0" y2="324.0"/>
    <line stroke="#000000" stroke-width="1" x1="855.0" x2="855.0" y1="374.0" y2="324.0"/>
    <line stroke="#000000" stroke-width="1" x1="859.0" x2="859.0" y1="374.0" y2="324.0"/>
    <line stroke="#000000" stroke-width="1" x1="863.0" x2="863.0" y1="374.0" y2="324.0"/>
    <line stroke="#000000" stroke-width="1" x1="867.0" x2="867.0" y1="374.0" y2="324.0"/>
    <line stroke="#000000" stroke-width="1" x1="871.0" x2="871.0" y1="374.0" y2="324.0"/>
    <line stroke="#000000" stroke-width="1" x1="875.0" x2="875.0" y1="374.0" y2="324.0"/>
    <line stroke="#000000" stroke-width="1" x1="1087.0" x2="1062.0" y1="365.0" y2="340.0"/>
    <line stroke="#000000" stroke-width="1" x1="1089.8284271247462" x2="1064.8284271247462" y1="362.1715728752538" y2="337.1715728752538"/>
    <line stroke="#000000" stroke-width="1" x1="1092.6568542494924" x2="1067.6568542494924" y1="359.3431457505076" y2="334.3431457505076"/>
    <line stroke="#000000" stroke-width="1" x1="1095.4852813742386" x2="1070.4852813742386" y1="356.51471862576136" y2="331.51471862576136"/>
    <line stroke="#000000" stroke-width="1" x1="1098.3137084989849" x2="1073.3137084989849" y1="353.68629150101515" y2="328.68629150101515"/>
    <line stroke="#000000" stroke-width="1" x1="1124.0" x2="1147.0" y1="482.0" y2="505.0"/>
    <line stroke="#000000" stroke-width="1" x1="1121.1715728752538" x2="1144.1715728752538" y1="484.8284271247462" y2="507.8284271247462"/>
    <line stroke="#000000" stroke-width="1" x1="1118.3431457505076" x2="1141.3431457505076" y1="487.6568542494924" y2="510.6568542494924"/>
    <line stroke="#000000" stroke-width="1" x1="1115.5147186257614" x2="1138.5147186257614" y1="490.48528137423864" y2="513.4852813742386"/>
    <line stroke="#000000" stroke-width="1" x1="1112.6862915010151" x2="1135.6862915010151" y1="493.31370849898485" y2="516.3137084989849"/>
    <line stroke="#000000" stroke-width="1" x1="1109.857864376269" x2="1132.857864376269" y1="496.14213562373106" y2="519.1421356237311"/>
    <line stroke="#000000" stroke-width="1" x1="1107.0294372515227" x2="1130.0294372515227" y1="498.9705627484773" y2="521.9705627484773"/>
    <line stroke="#000000" stroke-width="1" x1="1104.2010101267765" x2="1127.2010101267765" y1="501.7989898732235" y2="524.7989898732235"/>
    <line stroke="#000000" stroke-width="1" x1="1101.3725830020303" x2="1124.3725830020303" y1="504.6274169979697" y2="527.6274169979697"/>
    <line stroke="#000000" stroke-width="1" x1="1098.544155877284" x2="1121.544155877284" y1="507.4558441227159" y2="530.4558441227159"/>
    <line stroke="#000000" stroke-width="1" x1="1095.7157287525379" x2="1118.7157287525379" y1="510.28427124746213" y2="533.2842712474621"/>
    <line stroke="#000000" stroke-width="1" x1="846.0" x2="819.0" y1="509.0" y2="536.0"/>
    <line stroke="#000000" stroke-width="1" x1="843.1715728752538" x2="816.1715728752538" y1="506.1715728752538" y2="533.1715728752538"/>
    <line stroke="#000000" stroke-width="1" x1="840.3431457505076" x2="813.3431457505076" y1="503.3431457505076" y2="530.3431457505076"/>
    <line stroke="#000000" stroke-width="1" x1="837.5147186257614" x2="810.5147186257614" y1="500.51471862576136" y2="527.5147186257614"/>
    <line stroke="#000000" stroke-width="1" x1="834.6862915010151" x2="807.6862915010151" y1="497.68629150101515" y2="524.6862915010151"/>
    <line stroke="#000000" stroke-width="1" x1="831.8578643762689" x2="804.8578643762689" y1="494.85786437626894" y2="521.8578643762689"/>
    <line stroke="#000000" stroke-width="1" x1="829.0294372515227" x2="802.0294372515227" y1="492.0294372515227" y2="519.0294372515227"/>
    <line stroke="#000000" stroke-width="1" x1="826.2010101267765" x2="799.2010101267765" y1="489.2010101267765" y2="516.2010101267765"/>
    <line stroke="#000000" stroke-width="1" x1="823.3725830020303" x2="796.3725830020303" y1="486.3725830020303" y2="513.3725830020303"/>
    <line stroke="#000000" stroke-width="1" x1="820.5441558772841" x2="793.5441558772841" y1="483.5441558772841" y2="510.5441558772841"/>
    <line stroke="#000000" stroke-width="1" x1="817.7157287525379" x2="790.7157287525379" y1="480.71572875253787" y2="507.71572875253787"/>
    <line stroke="#000000" stroke-width="1" x1="814.8873016277917" x2="787.8873016277917" y1="477.88730162779166" y2="504.88730162779166"/>
    <line stroke="#000000" stroke-width="1" x1="812.0588745030454" x2="785.0588745030454" y1="475.05887450304544" y2="502.05887450304544"/>
    <line stroke="#000000" stroke-width="1" x1="1164.0" x2="1139.0" y1="288.0" y2="263.0"/>
    <line stroke="#000000" stroke-width="1" x1="1166.8284271247462" x2="1141.8284271247462" y1="285.1715728752538" y2="260.1715728752538"/>
    <line stroke="#000000" stroke-width="1" x1="1169.6568542494924" x2="1144.6568542494924" y1="282.3431457505076" y2="257.3431457505076"/>
    <line stroke="#000000" stroke-width="1" x1="1172.4852813742386" x2="1147.4852813742386" y1="279.51471862576136" y2="254.5147186257614"/>
    <line stroke="#000000" stroke-width="1" x1="1175.3137084989849" x2="1150.3137084989849" y1="276.68629150101515" y2="251.6862915010152"/>
    <line stroke="#000000" stroke-width="1" x1="1261.0" x2="1238.0" y1="291.0" y2="268.0"/>
    <line stroke="#000000" stroke-width="1" x1="1263.8284271247462" x2="1240.8284271247462" y1="288.1715728752538" y2="265.1715728752538"/>
    <line stroke="#000000" stroke-width="1" x1="1266.6568542494924" x2="1243.6568542494924" y1="285.3431457505076" y2="262.3431457505076"/>
    <line stroke="#000000" stroke-width="1" x1="1269.4852813742386" x2="1246.4852813742386" y1="282.51471862576136" y2="259.51471862576136"/>
    <line stroke="#000000" stroke-width="1" x1="1272.3137084989849" x2="1249.3137084989849" y1="279.68629150101515" y2="256.68629150101515"/>
    <line stroke="#000000" stroke-width="1" x1="1275.142135623731" x2="1252.142135623731" y1="276.85786437626894" y2="253.85786437626896"/>
    <line stroke="#000000" stroke-width="1" x1="1277.9705627484773" x2="1254.9705627484773" y1="274.0294372515227" y2="251.02943725152278"/>
    <line stroke="#000000" stroke-width="1" x1="1280.7989898732235" x2="1257.7989898732235" y1="271.2010101267765" y2="248.2010101267766"/>
    <line stroke="#000000" stroke-width="1" x1="1283.6274169979697" x2="1260.6274169979697" y1="268.3725830020303" y2="245.3725830020304"/>
    <line stroke="#000000" stroke-width="1" x1="1286.455844122716" x2="1263.455844122716" y1="265.5441558772841" y2="242.54415587728423"/>
    <line stroke="#000000" stroke-width="1" x1="1289.2842712474621" x2="1266.2842712474621" y1="262.71572875253787" y2="239.71572875253804"/>
    <line stroke="#000000" stroke-width="1" x1="1153.0" x2="1131.0" y1="183.0" y2="161.0"/>
    <line stroke="#000000" stroke-width="1" x1="1155.8284271247462" x2="1133.8284271247462" y1="180.17157287525382" y2="158.17157287525382"/>
    <line stroke="#000000" stroke-width="1" x1="1158.6568542494924" x2="1136.6568542494924" y1="177.34314575050763" y2="155.34314575050763"/>
    <line stroke="#000000" stroke-width="1" x1="1161.4852813742386" x2="1139.4852813742386" y1="174.51471862576145" y2="152.51471862576145"/>
    <line stroke="#000000" stroke-width="1" x1="1164.3137084989849" x2="1142.3137084989849" y1="171.68629150101526" y2="149.68629150101526"/>
    <line stroke="#000000" stroke-width="1" x1="1167.142135623731" x2="1145.142135623731" y1="168.85786437626908" y2="146.85786437626908"/>
    <line stroke="#000000" stroke-width="1" x1="1169.9705627484773" x2="1147.9705627484773" y1="166.0294372515229" y2="144.0294372515229"/>
    <line stroke="#000000" stroke-width="1" x1="1172.7989898732235" x2="1150.7989898732235" y1="163.2010101267767" y2="141.2010101267767"/>
    <line stroke="#000000" stroke-width="1" x1="1175.6274169979697" x2="1153.6274169979697" y1="160.37258300203052" y2="138.37258300203052"/>
    <line stroke="#000000" stroke-width="1" x1="1178.455844122716" x2="1156.455844122716" y1="157.54415587728434" y2="135.54415587728434"/>
    <line stroke="#000000" stroke-width="1" x1="1181.2842712474621" x2="1159.2842712474621" y1="154.71572875253815" y2="132.71572875253815"/>
    <line stroke="#000000" stroke-width="1" x1="1184.1126983722083" x2="1162.1126983722083" y1="151.88730162779197" y2="129.88730162779197"/>
    <line stroke="#000000" stroke-width="1" x1="1217.0" x2="1240.0" y1="289.0" y2="312.0"/>
    <line stroke="#000000" stroke-width="1" x1="1214.1715728752538" x2="1237.1715728752538" y1="291.8284271247462" y2="314.8284271247462"/>
    <line stroke="#000000" stroke-width="1" x1="1211.3431457505076" x2="1234.3431457505076" y1="294.6568542494924" y2="317.6568542494924"/>
    <line stroke="#000000" stroke-width="1" x1="1208.5147186257614" x2="1231.5147186257614" y1="297.48528137423864" y2="320.48528137423864"/>
    <line stroke="#000000" stroke-width="1" x1="1205.6862915010151" x2="1228.6862915010151" y1="300.31370849898485" y2="323.31370849898485"/>
    <line stroke="#000000" stroke-width="1" x1="1202.857864376269" x2="1225.857864376269" y1="303.14213562373106" y2="326.14213562373106"/>
    <line stroke="#000000" stroke-width="1" x1="1200.0294372515227" x2="1223.0294372515227" y1="305.9705627484773" y2="328.9705627484773"/>
    <line stroke="#000000" stroke-width="1" x1="1197.2010101267765" x2="1220.2010101267765" y1="308.7989898732235" y2="331.7989898732235"/>
    <line stroke="#000000" stroke-width="1" x1="1194.3725830020303" x2="1217.3725830020303" y1="311.6274169979697" y2="334.6274169979697"/>
    <line stroke="#000000" stroke-width="1" x1="1191.544155877284" x2="1214.544155877284" y1="314.4558441227159" y2="337.4558441227159"/>
    <line stroke="#000000" stroke-width="1" x1="1188.7157287525379" x2="1211.7157287525379" y1="317.28427124746213" y2="340.28427124746213"/>
    <line stroke="#000000" stroke-width="1" x1="1110.0" x2="1133.0" y1="182.0" y2="205.0"/>
    <line stroke="#000000" stroke-width="1" x1="1107.1715728752538" x2="1130.1715728752538" y1="184.82842712474618" y2="207.82842712474618"/>
    <line stroke="#000000" stroke-width="1" x1="1104.3431457505076" x2="1127.3431457505076" y1="187.65685424949237" y2="210.65685424949237"/>
    <line stroke="#000000" stroke-width="1" x1="1101.5147186257614" x2="1124.5147186257614" y1="190.48528137423855" y2="213.48528137423855"/>
    <line stroke="#000000" stroke-width="1" x1="1098.6862915010151" x2="1121.6862915010151" y1="193.31370849898474" y2="216.31370849898474"/>
    <line stroke="#000000" stroke-width="1" x1="1095.857864376269" x2="1118.857864376269" y1="196.14213562373092" y2="219.14213562373092"/>
    <line stroke="#000000" stroke-width="1" x1="1093.0294372515227" x2="1116.0294372515227" y1="198.9705627484771" y2="221.9705627484771"/>
    <line stroke="#000000" stroke-width="1" x1="1090.2010101267765" x2="1113.2010101267765" y1="201.7989898732233" y2="224.7989898732233"/>
    <line stroke="#000000" stroke-width="1" x1="1087.3725830020303" x2="1110.3725830020303" y1="204.62741699796948" y2="227.62741699796948"/>
    <line stroke="#000000" stroke-width="1" x1="1084.544155877284" x2="1107.544155877284" y1="207.45584412271566" y2="230.45584412271566"/>
    <line stroke="#000000" stroke-width="1" x1="1081.7157287525379" x2="1104.7157287525379" y1="210.28427124746185" y2="233.28427124746185"/>
    <line stroke="#000000" stroke-width="1" x1="811.0" x2="834.0" y1="153.0" y2="176.0"/>
    <line stroke="#000000" stroke-width="1" x1="813.8284271247462" x2="836.8284271247462" y1="150.17157287525382" y2="173.17157287525382"/>
    <line stroke="#000000" stroke-width="1" x1="816.6568542494924" x2="839.6568542494924" y1="147.34314575050763" y2="170.34314575050763"/>
    <line stroke="#000000" stroke-width="1" x1="819.4852813742386" x2="842.4852813742386" y1="144.51471862576145" y2="167.51471862576145"/>
    <line stroke="#000000" stroke-width="1" x1="822.3137084989849" x2="845.3137084989849" y1="141.68629150101526" y2="164.68629150101526"/>
    <line stroke="#000000" stroke-width="1" x1="825.1421356237311" x2="848.1421356237311" y1="138.85786437626908" y2="161.85786437626908"/>
    <line stroke="#000000" stroke-width="1" x1="827.9705627484773" x2="850.9705627484773" y1="136.0294372515229" y2="159.0294372515229"/>
    <line stroke="#000000" stroke-width="1" x1="830.7989898732235" x2="853.7989898732235" y1="133.2010101267767" y2="156.2010101267767"/>
    <line stroke="#000000" stroke-width="1" x1="833.6274169979697" x2="856.6274169979697" y1="130.37258300203052" y2="153.37258300203052"/>
    <line stroke="#000000" stroke-width="1" x1="836.4558441227159" x2="859.4558441227159" y1="127.54415587728434" y2="150.54415587728434"/>
    <line stroke="#000000" stroke-width="1" x1="839.2842712474621" x2="862.2842712474621" y1="124.71572875253815" y2="147.71572875253815"/>
    <line stroke="#000000" stroke-width="1" x1="842.1126983722083" x2="865.1126983722083" y1="121.88730162779197" y2="144.88730162779197"/>
    <line stroke="#000000" stroke-width="1" x1="844.9411254969546" x2="867.9411254969546" y1="119.05887450304579" y2="142.05887450304579"/>
    <line stroke="#000000" stroke-width="1" x1="847.7695526217008" x2="870.7695526217008" y1="116.2304473782996" y2="139.2304473782996"/>
    <line stroke="#000000" stroke-width="1" x1="850.597979746447" x2="873.597979746447" y1="113.40202025355342" y2="136.40202025355342"/>
    <polyline fill="none" points="855.0,404.0 855.0,374.0" stroke="#000000" stroke-width="1"/>
    <polygon fill="none" points="780.0,331.0 791.0,331.0 791.0,342.0 780.0,342.0" stroke="#000000" stroke-width="1"/>
    <polyline fill="none" points="785.0,279.0 785.0,283.0" stroke="#000000" stroke-width="1"/>
    <polyline fill="none" points="785.0,327.0 785.0,331.0" stroke="#000000" stroke-width="1"/>
    <polyline fill="none" points="785.0,342.0 785.0,347.0" stroke="#000000" stroke-width="1"/>
    <polyline fill="none" points="785.0,415.0 785.0,419.0" stroke="#000000" stroke-width="1"/>
    <text fill="#000000" font-family="Arial" font-size="10.0" stroke="none" stroke-width="0" transform="rotate(-90.0,854.0,402.0)" x="854.0" y="412.0">кассы</text>
    <line stroke="#009900" stroke-width="1" x1="782.0" x2="788.0" y1="347.0" y2="347.0"/>
    <line stroke="#009900" stroke-width="1" x1="782.0" x2="788.0" y1="351.0" y2="351.0"/>
    <line stroke="#009900" stroke-width="1" x1="782.0" x2="788.0" y1="355.0" y2="355.0"/>
    <line stroke="#009900" stroke-width="1" x1="782.0" x2="788.0" y1="359.0" y2="359.0"/>
    <line stroke="#009900" stroke-width="1" x1="782.0" x2="788.0" y1="363.0" y2="363.0"/>
    <line stroke="#009900" stroke-width="1" x1="782.0" x2="788.0" y1="367.0" y2="367.0"/>
    <line stroke="#009900" stroke-width="1" x1="782.0" x2="788.0" y1="371.0" y2="371.0"/>
    <line stroke="#009900" stroke-width="1" x1="782.0" x2="788.0" y1="375.0" y2="375.0"/>
    <line stroke="#009900" stroke-width="1" x1="782.0" x2="788.0" y1="379.0" y2="379.0"/>
    <line stroke="#009900" stroke-width="1" x1="782.0" x2="788.0" y1="383.0" y2="383.0"/>
    <line stroke="#009900" stroke-width="1" x1="782.0" x2="788.0" y1="387.0" y2="387.0"/>
    <line stroke="#009900" stroke-width="1" x1="782.0" x2="788.0" y1="391.0" y2="391.0"/>
    <line stroke="#009900" stroke-width="1" x1="782.0" x2="788.0" y1="395.0" y2="395.0"/>
    <line stroke="#009900" stroke-width="1" x1="782.0" x2="788.0" y1="399.0" y2="399.0"/>
    <line stroke="#009900" stroke-width="1" x1="782.0" x2="788.0" y1="403.0" y2="403.0"/>
    <line stroke="#009900" stroke-width="1" x1="782.0" x2="788.0" y1="407.0" y2="407.0"/>
    <line stroke="#009900" stroke-width="1" x1="782.0" x2="788.0" y1="411.0" y2="411.0"/>
    <line stroke="#009900" stroke-width="1" x1="782.0" x2="788.0" y1="415.0" y2="415.0"/>
    <line stroke="#ff0000" stroke-width="1" x1="782.0" x2="788.0" y1="283.0" y2="283.0"/>
    <line stroke="#ff0000" stroke-width="1" x1="782.0" x2="788.0" y1="287.0" y2="287.0"/>
    <line stroke="#ff0000" stroke-width="1" x1="782.0" x2="788.0" y1="291.0" y2="291.0"/>
    <line stroke="#ff0000" stroke-width="1" x1="782.0" x2="788.0" y1="295.0" y2="295.0"/>
    <line stroke="#ff0000" stroke-width="1" x1="782.0" x2="788.0" y1="299.0" y2="299.0"/>
    <line stroke="#ff0000" stroke-width="1" x1="782.0" x2="788.0" y1="303.0" y2="303.0"/>
    <line stroke="#ff0000" stroke-width="1" x1="782.0" x2="788.0" y1="307.0" y2="307.0"/>
    <line stroke="#ff0000" stroke-width="1" x1="782.0" x2="788.0" y1="311.0" y2="311.0"/>
    <line stroke="#ff0000" stroke-width="1" x1="782.0" x2="788.0" y1="315.0" y2="315.0"/>
    <line stroke="#ff0000" stroke-width="1" x1="782.0" x2="788.0" y1="319.0" y2="319.0"/>
    <line stroke="#ff0000" stroke-width="1" x1="782.0" x2="788.0" y1="323.0" y2="323.0"/>
    <line stroke="#ff0000" stroke-width="1" x1="782.0" x2="788.0" y1="327.0" y2="327.0"/>
    <polyline fill="none" points="266.0,309.0 258.0,309.0 266.0,301.0 266.0,279.0 176.0,279.0 176.0,197.0 125.0,146.0" stroke="#000000" stroke-width="1"/>
    <polyline fill="none" points="103.0,168.0 146.0,211.0 146.0,278.0 136.0,278.0 136.0,298.0 124.0,298.0 124.0,323.0 136.0,323.0 136.0,373.0 125.0,373.0 125.0,399.0 136.0,399.0 136.0,419.0 146.0,419.0 146.0,525.0 114.0,557.0" stroke="#000000" stroke-width="1"/>
    <polyline fill="none" points="136.0,579.0 176.0,539.0 176.0,419.0 266.0,419.0 266.0,397.0 258.0,389.0 266.0,389.0" stroke="#000000" stroke-width="1"/>
    <line stroke="#000000" stroke-width="1" x1="306.0" x2="306.0" y1="309.0" y2="389.0"/>
    <line stroke="#000000" stroke-width="1" x1="302.0" x2="302.0" y1="309.0" y2="389.0"/>
    <line stroke="#000000" stroke-width="1" x1="298.0" x2="298.0" y1="309.0" y2="389.0"/>
    <line stroke="#000000" stroke-width="1" x1="294.0" x2="294.0" y1="309.0" y2="389.0"/>
    <line stroke="#000000" stroke-width="1" x1="290.0" x2="290.0" y1="309.0" y2="389.0"/>
    <line stroke="#000000" stroke-width="1" x1="286.0" x2="286.0" y1="309.0" y2="389.0"/>
    <line stroke="#000000" stroke-width="1" x1="282.0" x2="282.0" y1="309.0" y2="389.0"/>
    <line stroke="#000000" stroke-width="1" x1="278.0" x2="278.0" y1="309.0" y2="389.0"/>
    <line stroke="#000000" stroke-width="1" x1="274.0" x2="274.0" y1="309.0" y2="389.0"/>
    <line stroke="#000000" stroke-width="1" x1="270.0" x2="270.0" y1="309.0" y2="389.0"/>
    <line stroke="#000000" stroke-width="1" x1="266.0" x2="266.0" y1="309.0" y2="389.0"/>
    <line stroke="#000000" stroke-width="1" x1="262.0" x2="262.0" y1="309.0" y2="389.0"/>
    <line stroke="#000000" stroke-width="1" x1="258.0" x2="258.0" y1="309.0" y2="389.0"/>
    <line stroke="#000000" stroke-width="1" x1="146.0" x2="175.0" y1="438.0" y2="438.0"/>
    <line stroke="#000000" stroke-width="1" x1="146.0" x2="175.0" y1="442.0" y2="442.0"/>
    <line stroke="#000000" stroke-width="1" x1="146.0" x2="175.0" y1="446.0" y2="446.0"/>
    <line stroke="#000000" stroke-width="1" x1="146.0" x2="175.0" y1="450.0" y2="450.0"/>
    <line stroke="#000000" stroke-width="1" x1="146.0" x2="175.0" y1="454.0" y2="454.0"/>
    <line stroke="#000000" stroke-width="1" x1="146.0" x2="175.0" y1="458.0" y2="458.0"/>
    <line stroke="#000000" stroke-width="1" x1="176.0" x2="146.0" y1="239.0" y2="239.0"/>
    <line stroke="#000000" stroke-width="1" x1="176.0" x2="146.0" y1="235.0" y2="235.0"/>
    <line stroke="#000000" stroke-width="1" x1="176.0" x2="146.0" y1="231.0" y2="231.0"/>
    <line stroke="#000000" stroke-width="1" x1="176.0" x2="146.0" y1="227.0" y2="227.0"/>
    <line stroke="#000000" stroke-width="1" x1="176.0" x2="146.0" y1="223.0" y2="223.0"/>
    <line stroke="#000000" stroke-width="1" x1="176.0" x2="146.0" y1="219.0" y2="219.0"/>
    <line stroke="#000000" stroke-width="1" x1="146.0" x2="176.0" y1="504.0" y2="504.0"/>
    <line stroke="#000000" stroke-width="1" x1="146.0" x2="176.0" y1="508.0" y2="508.0"/>
    <line stroke="#000000" stroke-width="1" x1="146.0" x2="176.0" y1="512.0" y2="512.0"/>
    <line stroke="#000000" stroke-width="1" x1="146.0" x2="176.0" y1="516.0" y2="516.0"/>
    <line stroke="#000000" stroke-width="1" x1="146.0" x2="176.0" y1="520.0" y2="520.0"/>
    <line stroke="#000000" stroke-width="1" x1="146.0" x2="176.0" y1="524.0" y2="524.0"/>
    <line stroke="#000000" stroke-width="1" x1="146.0" x2="168.0" y1="525.0" y2="547.0"/>
    <line stroke="#000000" stroke-width="1" x1="143.17157287525382" x2="165.17157287525382" y1="527.8284271247462" y2="549.8284271247462"/>
    <line stroke="#000000" stroke-width="1" x1="140.34314575050763" x2="162.34314575050763" y1="530.6568542494924" y2="552.6568542494924"/>
    <line stroke="#000000" stroke-width="1" x1="137.51471862576145" x2="159.51471862576145" y1="533.4852813742386" y2="555.4852813742386"/>
    <line stroke="#000000" stroke-width="1" x1="134.68629150101526" x2="156.68629150101526" y1="536.3137084989849" y2="558.3137084989849"/>
    <line stroke="#000000" stroke-width="1" x1="131.85786437626908" x2="153.85786437626908" y1="539.1421356237311" y2="561.1421356237311"/>
    <line stroke="#000000" stroke-width="1" x1="129.0294372515229" x2="151.0294372515229" y1="541.9705627484773" y2="563.9705627484773"/>
    <line stroke="#000000" stroke-width="1" x1="126.20101012677671" x2="148.2010101267767" y1="544.7989898732235" y2="566.7989898732235"/>
    <line stroke="#000000" stroke-width="1" x1="123.37258300203052" x2="145.37258300203052" y1="547.6274169979697" y2="569.6274169979697"/>
    <line stroke="#000000" stroke-width="1" x1="120.54415587728434" x2="142.54415587728434" y1="550.4558441227159" y2="572.4558441227159"/>
    <line stroke="#000000" stroke-width="1" x1="117.71572875253815" x2="139.71572875253815" y1="553.2842712474621" y2="575.2842712474621"/>
    <line stroke="#000000" stroke-width="1" x1="114.88730162779197" x2="136.88730162779197" y1="556.1126983722083" y2="578.1126983722083"/>
    <line stroke="#000000" stroke-width="1" x1="134.0" x2="156.0" y1="199.0" y2="177.0"/>
    <line stroke="#000000" stroke-width="1" x1="131.17157287525382" x2="153.17157287525382" y1="196.17157287525382" y2="174.17157287525382"/>
    <line stroke="#000000" stroke-width="1" x1="128.34314575050763" x2="150.34314575050763" y1="193.34314575050763" y2="171.34314575050763"/>
    <line stroke="#000000" stroke-width="1" x1="125.51471862576145" x2="147.51471862576145" y1="190.51471862576145" y2="168.51471862576145"/>
    <line stroke="#000000" stroke-width="1" x1="122.68629150101526" x2="144.68629150101526" y1="187.68629150101526" y2="165.68629150101526"/>
    <line stroke="#000000" stroke-width="1" x1="119.85786437626908" x2="141.85786437626908" y1="184.85786437626908" y2="162.85786437626908"/>
    <line stroke="#000000" stroke-width="1" x1="117.02943725152289" x2="139.0294372515229" y1="182.0294372515229" y2="160.0294372515229"/>
    <line stroke="#000000" stroke-width="1" x1="114.20101012677671" x2="136.2010101267767" y1="179.2010101267767" y2="157.2010101267767"/>
    <line stroke="#000000" stroke-width="1" x1="111.37258300203052" x2="133.37258300203052" y1="176.37258300203052" y2="154.37258300203052"/>
    <line stroke="#000000" stroke-width="1" x1="108.54415587728434" x2="130.54415587728434" y1="173.54415587728434" y2="151.54415587728434"/>
    <line stroke="#000000" stroke-width="1" x1="105.71572875253815" x2="127.71572875253815" y1="170.71572875253815" y2="148.71572875253815"/>
    <polyline fill="none" marker-end="url(#id478)" points="771.0,309.0 798.0,309.0" stroke="#ff0000" stroke-width="1"/>
    <polyline fill="none" marker-end="url(#id478)" points="238.0,309.0 211.0,309.0" stroke="#ff0000" stroke-width="1"/>
    <polyline fill="none" marker-end="url(#id478)" points="798.0,381.0 771.0,381.0" stroke="#009900" stroke-width="1"/>
    <polyline fill="none" marker-end="url(#id478)" points="211.0,381.0 238.0,381.0" stroke="#009900" stroke-width="1"/>
    <ellipse cx="375.5" cy="351.5" fill="#cccccc" rx="10.5" ry="10.5" stroke="#000000" stroke-width="1"/>
    <ellipse cx="490.5" cy="351.5" fill="#cccccc" rx="10.5" ry="10.5" stroke="#000000" stroke-width="1"/>
    <ellipse cx="604.5" cy="351.5" fill="#cccccc" rx="10.5" ry="10.5" stroke="#000000" stroke-width="1"/>
    <ellipse cx="1066.5" cy="385.5" fill="#cccccc" rx="-4.5" ry="5.5" stroke="#000000" stroke-width="1"/>
    <ellipse cx="1028.5" cy="347.5" fill="#cccccc" rx="-4.5" ry="5.5" stroke="#000000" stroke-width="1"/>
    <ellipse cx="1047.5" cy="366.5" fill="#cccccc" rx="-4.5" ry="5.5" stroke="#000000" stroke-width="1"/>
    <polyline fill="none" points="213.0,419.0 213.0,429.0 184.0,429.0 184.0,419.0" stroke="#000000" stroke-width="1"/>
    <polyline fill="none" points="224.0,419.0 224.0,415.0" stroke="#000000" stroke-width="1"/>
    <polygon fill="none" points="218.0,331.0 229.0,331.0 229.0,342.0 218.0,342.0" stroke="#000000" stroke-width="1"/>
    <polyline fill="none" points="224.0,347.0 224.0,342.0" stroke="#000000" stroke-width="1"/>
    <polyline fill="none" points="224.0,331.0 224.0,327.0" stroke="#000000" stroke-width="1"/>
    <polyline fill="none" points="224.0,283.0 224.0,279.0" stroke="#000000" stroke-width="1"/>
    <text fill="#000000" font-family="Arial" font-size="10.0" stroke="none" stroke-width="0" x="186.0" y="428.0">кассы</text>
    <line stroke="#009900" stroke-width="1" x1="221.0" x2="227.0" y1="347.0" y2="347.0"/>
    <line stroke="#009900" stroke-width="1" x1="221.0" x2="227.0" y1="351.0" y2="351.0"/>
    <line stroke="#009900" stroke-width="1" x1="221.0" x2="227.0" y1="355.0" y2="355.0"/>
    <line stroke="#009900" stroke-width="1" x1="221.0" x2="227.0" y1="359.0" y2="359.0"/>
    <line stroke="#009900" stroke-width="1" x1="221.0" x2="227.0" y1="363.0" y2="363.0"/>
    <line stroke="#009900" stroke-width="1" x1="221.0" x2="227.0" y1="367.0" y2="367.0"/>
    <line stroke="#009900" stroke-width="1" x1="221.0" x2="227.0" y1="371.0" y2="371.0"/>
    <line stroke="#009900" stroke-width="1" x1="221.0" x2="227.0" y1="375.0" y2="375.0"/>
    <line stroke="#009900" stroke-width="1" x1="221.0" x2="227.0" y1="379.0" y2="379.0"/>
    <line stroke="#009900" stroke-width="1" x1="221.0" x2="227.0" y1="383.0" y2="383.0"/>
    <line stroke="#009900" stroke-width="1" x1="221.0" x2="227.0" y1="387.0" y2="387.0"/>
    <line stroke="#009900" stroke-width="1" x1="221.0" x2="227.0" y1="391.0" y2="391.0"/>
    <line stroke="#009900" stroke-width="1" x1="221.0" x2="227.0" y1="395.0" y2="395.0"/>
    <line stroke="#009900" stroke-width="1" x1="221.0" x2="227.0" y1="399.0" y2="399.0"/>
    <line stroke="#009900" stroke-width="1" x1="221.0" x2="227.0" y1="403.0" y2="403.0"/>
    <line stroke="#009900" stroke-width="1" x1="221.0" x2="227.0" y1="407.0" y2="407.0"/>
    <line stroke="#009900" stroke-width="1" x1="221.0" x2="227.0" y1="411.0" y2="411.0"/>
    <line stroke="#009900" stroke-width="1" x1="221.0" x2="227.0" y1="415.0" y2="415.0"/>
    <line stroke="#ff0000" stroke-width="1" x1="221.0" x2="227.0" y1="283.0" y2="283.0"/>
    <line stroke="#ff0000" stroke-width="1" x1="221.0" x2="227.0" y1="287.0" y2="287.0"/>
    <line stroke="#ff0000" stroke-width="1" x1="221.0" x2="227.0" y1="291.0" y2="291.0"/>
    <line stroke="#ff0000" stroke-width="1" x1="221.0" x2="227.0" y1="295.0" y2="295.0"/>
    <line stroke="#ff0000" stroke-width="1" x1="221.0" x2="227.0" y1="299.0" y2="299.0"/>
    <line stroke="#ff0000" stroke-width="1" x1="221.0" x2="227.0" y1="303.0" y2="303.0"/>
    <line stroke="#ff0000" stroke-width="1" x1="221.0" x2="227.0" y1="307.0" y2="307.0"/>
    <line stroke="#ff0000" stroke-width="1" x1="221.0" x2="227.0" y1="311.0" y2="311.0"/>
    <line stroke="#ff0000" stroke-width="1" x1="221.0" x2="227.0" y1="315.0" y2="315.0"/>
    <line stroke="#ff0000" stroke-width="1" x1="221.0" x2="227.0" y1="319.0" y2="319.0"/>
    <line stroke="#ff0000" stroke-width="1" x1="221.0" x2="227.0" y1="323.0" y2="323.0"/>
    <line stroke="#ff0000" stroke-width="1" x1="221.0" x2="227.0" y1="327.0" y2="327.0"/>
    <polygon fill="#fefbf1" points="1108.0,575.0 1027.0,656.0 1082.0,711.0 1163.0,630.0" stroke="#000000" stroke-width="1"/>
    <polygon fill="#fefbf1" points="280.0,563.0 355.0,488.0 448.0,581.0 373.0,656.0" stroke="#000000" stroke-width="1"/>
    <polygon fill="#fefbf1" points="534.0,729.0 568.0,729.0 568.0,718.0 563.0,718.0 561.0,688.0 541.0,688.0 539.0,719.0 534.0,719.0" stroke="#000000" stroke-width="1"/>
    <polygon fill="#fefbf1" points="547.0,628.0 544.0,620.0 551.0,613.0 558.0,620.0 555.0,628.0 561.0,630.0 565.0,651.0 557.0,654.0 559.0,684.0 544.0,689.0 542.0,669.0 546.0,654.0 537.0,651.0 541.0,630.0" stroke="#000000" stroke-width="1"/>
    <polygon fill="#fefbf1" points="542.0,673.0 530.0,670.0 515.0,663.0 515.0,670.0 526.0,679.0 540.0,680.0 545.0,686.0 551.0,683.0 562.0,681.0 578.0,674.0 581.0,665.0 565.0,670.0 549.0,672.0 555.0,665.0 546.0,662.0" stroke="#000000" stroke-width="1"/>
    <polygon fill="#fefbf1" points="401.0,108.0 448.0,155.0 531.0,72.0 484.0,25.0" stroke="#fefbf1" stroke-width="1"/>
    <polygon fill="#fefbf1" points="272.0,141.0 382.0,31.0 460.0,109.0 390.0,179.0 370.0,191.0 350.0,194.0 330.0,191.0 310.0,179.0" stroke="#fefbf1" stroke-width="1"/>
    <polyline fill="none" points="310.0,179.0 272.0,141.0 382.0,31.0 430.0,79.0 484.0,25.0 531.0,72.0 448.0,155.0 431.0,138.0 390.0,179.0" stroke="#000000" stroke-width="1"/>
    <path d="M390.0,179.0 C390.0,179.0 393.3333333333333,177.0 390.0,179.0 C386.6666666666667,181.0 376.6666666666667,188.5 370.0,191.0 C363.3333333333333,193.5 356.6666666666667,194.0 350.0,194.0 C343.3333333333333,194.0 336.6666666666667,193.5 330.0,191.0 C323.3333333333333,188.5 310.0,179.0 310.0,179.0 " fill="none" stroke="#000000" stroke-width="1"/>
    <ellipse cx="617.0" cy="210.0" fill="#0000ff" rx="15.0" ry="15.0" stroke="#000000" stroke-width="1"/>
    <ellipse cx="1306.0" cy="198.0" fill="#0000ff" rx="15.0" ry="15.0" stroke="#000000" stroke-width="1"/>
    <ellipse cx="941.0" cy="204.0" fill="#0000ff" rx="15.0" ry="15.0" stroke="#000000" stroke-width="1"/>
    <ellipse cx="1245.0" cy="465.0" fill="#0000ff" rx="15.0" ry="15.0" stroke="#000000" stroke-width="1"/>
    <ellipse cx="202.0" cy="26.0" fill="#0000ff" rx="15.0" ry="15.0" stroke="#000000" stroke-width="1"/>
    <ellipse cx="23.0" cy="655.0" fill="#0000ff" rx="15.0" ry="15.0" stroke="#000000" stroke-width="1"/>
    <ellipse cx="93.0" cy="593.0" fill="#ff0000" rx="15.0" ry="15.0" stroke="#000000" stroke-width="1"/>
    <text fill="#ffffff" font-family="Arial" font-size="20.0" stroke="none" stroke-width="0" x="611.0" y="220.0">А</text>
    <text fill="#ffffff" font-family="Arial" font-size="20.0" stroke="none" stroke-width="0" transform="rotate(-45.0,1293.0,194.0)" x="1293.0" y="214.0">А</text>
    <text fill="#ffffff" font-family="Arial" font-size="20.0" stroke="none" stroke-width="0" transform="rotate(45.0,945.0,191.0)" x="945.0" y="211.0">А</text>
    <text fill="#ffffff" font-family="Arial" font-size="20.0" stroke="none" stroke-width="0" x="1239.0" y="475.0">А</text>
    <text fill="#ffffff" font-family="Arial" font-size="20.0" stroke="none" stroke-width="0" transform="rotate(-45.0,189.0,22.0)" x="189.0" y="42.0">А</text>
    <text fill="#ffffff" font-family="Arial" font-size="20.0" stroke="none" stroke-width="0" transform="rotate(56.0,30.0,643.0)" x="30.0" y="663.0">А</text>
    <text fill="#ffffff" font-family="Arial" font-size="20.0" stroke="none" stroke-width="0" transform="rotate(56.0,99.0,583.0)" x="99.0" y="603.0">Т</text>
    <text fill="#00afaf" font-family="Arial" font-size="15.0" stroke="none" stroke-width="0" x="848.0" y="242.0">ул. Титова</text>
    <text fill="#00afaf" font-family="Arial" font-size="15.0" stroke="none" stroke-width="0" x="240.0" y="238.0">ул. Титова</text>
    <text fill="#00afaf" font-family="Arial" font-size="15.0" stroke="none" stroke-width="0" transform="rotate(-45.0,1195.0,201.0)" x="1195.0" y="216.0">проспект Маркса</text>
    <text fill="#00afaf" font-family="Arial" font-size="15.0" stroke="none" stroke-width="0" transform="rotate(-45.0,16.0,170.0)" x="16.0" y="185.0">ул. Блюхера</text>
    <text fill="#00afaf" font-family="Arial" font-size="15.0" stroke="none" stroke-width="0" transform="rotate(56.0,53.0,515.0)" x="53.0" y="530.0">ул. Покрышкина</text>
    <text fill="#00afaf" font-family="Arial" font-size="15.0" stroke="none" stroke-width="0" transform="rotate(45.0,959.0,157.0)" x="959.0" y="172.0">ул. Ватутина</text>
    <text fill="#000000" font-family="Arial" font-size="15.0" stroke="none" stroke-width="0" x="307.0" y="151.0">'ТЦ &quot;Фестиваль&quot;'</text>
    <text fill="#000000" font-family="Arial" font-size="20.0" stroke="none" stroke-width="0" x="312.0" y="582.0">'ТК &quot;Гранит&quot;'</text>
    <text fill="#000000" font-family="Arila" font-size="15.0" stroke="none" stroke-width="0" x="1052.0" y="654.0">'ГУМ &quot;Россия&quot;'</text>
    <text fill="#000000" font-family="Arial" font-size="20.0" stroke="none" stroke-width="0" x="416.0" y="251.0">'Остановка наземного транспорта &quot;Пл. Маркса&quot;'</text>
    <text fill="#000000" font-family="Arial" font-size="15.0" stroke="none" stroke-width="0" transform="rotate(56.0,21.0,533.0)" x="21.0" y="548.0">'Остановка &quot;Маг. Кристалл&quot;'</text>
    <text fill="#000000" font-family="Arial" font-size="15.0" stroke="none" stroke-width="0" transform="rotate(56.0,18.0,577.0)" x="18.0" y="592.0">Конечная трамвая</text>
    <text fill="#000000" font-family="Arial" font-size="15.0" stroke="none" stroke-width="0" transform="rotate(-45.0,1210.0,228.0)" x="1210.0" y="243.0">'Остановка &quot;Ул. Ватутина&quot;'</text>
    <text fill="#000000" font-family="Arial" font-size="20.0" stroke="none" stroke-width="0" x="470.0" y="755.0">А. И. Покрышкину</text>
  </g>
</svg>
