<?xml version="1.0" encoding="utf-8" ?>
<svg baseProfile="full" height="880.0" version="1.1" width="880.0" xmlns="http://www.w3.org/2000/svg" xmlns:ev="http://www.w3.org/2001/xml-events" xmlns:xlink="http://www.w3.org/1999/xlink">
  <defs>
    <marker id="id481" markerHeight="3" markerUnits="strokeWidth" markerWidth="4" orient="auto" refX="0" refY="5" viewBox="0,0,10,10">
      <path d="M 0 0 L 10 5 L 0 10 z"/>
    </marker>
  </defs>
  <g>
    <rect fill="none" height="880.0" stroke="none" stroke-width="0" width="880.0" x="0.0" y="0.0"/>
    <g transform="rotate(-45.0,440.0,440.0)">
      <polygon fill="#fb0505" points="710.0,375.0 710.0,345.0 260.0,345.0 260.0,375.0" stroke="#000000" stroke-width="1"/>
      <polygon fill="#fb0505" points="710.0,455.0 260.0,455.0 260.0,485.0 710.0,485.0" stroke="#000000" stroke-width="1"/>
      <text fill="#fb0505" font-family="Arial" font-size="20.0" stroke="none" stroke-width="0" x="263.0" y="339.0">&lt;&lt; Площадь Маркса</text>
      <text fill="#fb0505" font-family="Arial" font-size="20.0" stroke="none" stroke-width="0" x="557.0" y="504.0">Речной вокзал &gt;&gt;</text>
      <text fill="#fb0505" font-family="Arial" font-size="25.0" stroke="none" stroke-width="0" x="413.0" y="425.0">Студенческая</text>
      <polyline fill="none" points="710.0,375.0 710.0,385.0" stroke="#000000" stroke-width="1"/>
      <polyline fill="none" points="710.0,455.0 710.0,445.0" stroke="#000000" stroke-width="1"/>
      <polyline fill="none" points="700.0,385.0 739.0,385.0 746.0,378.0 746.0,350.0 752.0,344.0 811.0,344.0 823.0,332.0 823.0,275.0 767.0,275.0" stroke="#000000" stroke-width="1"/>
      <polyline fill="none" points="700.0,445.0 739.0,445.0 746.0,452.0 746.0,479.0 752.0,485.0 823.0,485.0 823.0,521.0 811.0,533.0 771.0,533.0" stroke="#000000" stroke-width="1"/>
      <polyline fill="none" points="740.0,275.0 734.0,275.0 734.0,257.0 744.0,247.0 757.0,247.0 765.0,237.0 773.0,237.0 773.0,245.0 854.0,245.0 854.0,385.0 864.0,385.0 864.0,445.0 853.0,445.0 853.0,533.0 906.0,533.0" stroke="#000000" stroke-width="1"/>
      <polyline fill="none" points="770.0,562.0 906.0,562.0" stroke="#000000" stroke-width="1"/>
      <line stroke="#000000" stroke-width="1" x1="700.0" x2="700.0" y1="445.0" y2="385.0"/>
      <line stroke="#000000" stroke-width="1" x1="704.0" x2="704.0" y1="445.0" y2="385.0"/>
      <line stroke="#000000" stroke-width="1" x1="708.0" x2="708.0" y1="445.0" y2="385.0"/>
      <line stroke="#000000" stroke-width="1" x1="712.0" x2="712.0" y1="445.0" y2="385.0"/>
      <line stroke="#000000" stroke-width="1" x1="716.0" x2="716.0" y1="445.0" y2="385.0"/>
      <line stroke="#000000" stroke-width="1" x1="720.0" x2="720.0" y1="445.0" y2="385.0"/>
      <line stroke="#000000" stroke-width="1" x1="724.0" x2="724.0" y1="445.0" y2="385.0"/>
      <line stroke="#000000" stroke-width="1" x1="728.0" x2="728.0" y1="445.0" y2="385.0"/>
      <line stroke="#000000" stroke-width="1" x1="732.0" x2="732.0" y1="445.0" y2="385.0"/>
      <line stroke="#000000" stroke-width="1" x1="736.0" x2="736.0" y1="445.0" y2="385.0"/>
      <line stroke="#000000" stroke-width="1" x1="823.0" x2="853.0" y1="503.0" y2="503.0"/>
      <line stroke="#000000" stroke-width="1" x1="823.0" x2="853.0" y1="507.0" y2="507.0"/>
      <line stroke="#000000" stroke-width="1" x1="823.0" x2="853.0" y1="511.0" y2="511.0"/>
      <line stroke="#000000" stroke-width="1" x1="823.0" x2="853.0" y1="515.0" y2="515.0"/>
      <line stroke="#000000" stroke-width="1" x1="823.0" x2="853.0" y1="519.0" y2="519.0"/>
      <line stroke="#000000" stroke-width="1" x1="823.0" x2="854.0" y1="325.0" y2="325.0"/>
      <line stroke="#000000" stroke-width="1" x1="823.0" x2="854.0" y1="321.0" y2="321.0"/>
      <line stroke="#000000" stroke-width="1" x1="823.0" x2="854.0" y1="317.0" y2="317.0"/>
      <line stroke="#000000" stroke-width="1" x1="823.0" x2="854.0" y1="313.0" y2="313.0"/>
      <line stroke="#000000" stroke-width="1" x1="823.0" x2="854.0" y1="309.0" y2="309.0"/>
      <line stroke="#000000" stroke-width="1" x1="823.0" x2="854.0" y1="305.0" y2="305.0"/>
      <line stroke="#000000" stroke-width="1" x1="865.0" x2="865.0" y1="533.0" y2="562.0"/>
      <line stroke="#000000" stroke-width="1" x1="869.0" x2="869.0" y1="533.0" y2="562.0"/>
      <line stroke="#000000" stroke-width="1" x1="873.0" x2="873.0" y1="533.0" y2="562.0"/>
      <line stroke="#000000" stroke-width="1" x1="877.0" x2="877.0" y1="533.0" y2="562.0"/>
      <line stroke="#000000" stroke-width="1" x1="881.0" x2="881.0" y1="533.0" y2="562.0"/>
      <line stroke="#000000" stroke-width="1" x1="885.0" x2="885.0" y1="533.0" y2="562.0"/>
      <line stroke="#000000" stroke-width="1" x1="889.0" x2="889.0" y1="533.0" y2="562.0"/>
      <line stroke="#000000" stroke-width="1" x1="893.0" x2="893.0" y1="533.0" y2="562.0"/>
      <line stroke="#000000" stroke-width="1" x1="897.0" x2="897.0" y1="533.0" y2="562.0"/>
      <line stroke="#000000" stroke-width="1" x1="901.0" x2="901.0" y1="533.0" y2="562.0"/>
      <line stroke="#000000" stroke-width="1" x1="811.0" x2="811.0" y1="562.0" y2="533.0"/>
      <line stroke="#000000" stroke-width="1" x1="807.0" x2="807.0" y1="562.0" y2="533.0"/>
      <line stroke="#000000" stroke-width="1" x1="803.0" x2="803.0" y1="562.0" y2="533.0"/>
      <line stroke="#000000" stroke-width="1" x1="799.0" x2="799.0" y1="562.0" y2="533.0"/>
      <line stroke="#000000" stroke-width="1" x1="795.0" x2="795.0" y1="562.0" y2="533.0"/>
      <line stroke="#000000" stroke-width="1" x1="791.0" x2="791.0" y1="562.0" y2="533.0"/>
      <line stroke="#000000" stroke-width="1" x1="787.0" x2="787.0" y1="562.0" y2="533.0"/>
      <line stroke="#000000" stroke-width="1" x1="783.0" x2="783.0" y1="562.0" y2="533.0"/>
      <line stroke="#000000" stroke-width="1" x1="779.0" x2="779.0" y1="562.0" y2="533.0"/>
      <line stroke="#000000" stroke-width="1" x1="775.0" x2="775.0" y1="562.0" y2="533.0"/>
      <line stroke="#000000" stroke-width="1" x1="814.0" x2="814.0" y1="245.0" y2="275.0"/>
      <line stroke="#000000" stroke-width="1" x1="810.0" x2="810.0" y1="245.0" y2="275.0"/>
      <line stroke="#000000" stroke-width="1" x1="806.0" x2="806.0" y1="245.0" y2="275.0"/>
      <line stroke="#000000" stroke-width="1" x1="802.0" x2="802.0" y1="245.0" y2="275.0"/>
      <line stroke="#000000" stroke-width="1" x1="798.0" x2="798.0" y1="245.0" y2="275.0"/>
      <line stroke="#000000" stroke-width="1" x1="794.0" x2="794.0" y1="245.0" y2="275.0"/>
      <line stroke="#000000" stroke-width="1" x1="790.0" x2="790.0" y1="245.0" y2="275.0"/>
      <line stroke="#000000" stroke-width="1" x1="786.0" x2="786.0" y1="245.0" y2="275.0"/>
      <line stroke="#000000" stroke-width="1" x1="782.0" x2="782.0" y1="245.0" y2="275.0"/>
      <line stroke="#000000" stroke-width="1" x1="778.0" x2="778.0" y1="245.0" y2="275.0"/>
      <line stroke="#000000" stroke-width="1" x1="774.0" x2="774.0" y1="245.0" y2="275.0"/>
      <polygon fill="#cccccc" points="823.0,400.0 823.0,431.0 815.0,431.0 815.0,400.0" stroke="#000000" stroke-width="1"/>
      <polyline fill="none" points="757.0,344.0 757.0,375.0 746.0,375.0" stroke="#000000" stroke-width="1"/>
      <text fill="#000000" font-family="Arial" font-size="10.0" stroke="none" stroke-width="0" transform="rotate(90.0,759.0,348.0)" x="759.0" y="358.0">кассы</text>
      <polygon fill="none" points="759.0,377.0 764.0,377.0 764.0,382.0 759.0,382.0" stroke="#000000" stroke-width="1"/>
      <polyline fill="none" points="780.0,413.0 780.0,437.0" stroke="#000000" stroke-width="1"/>
      <polyline fill="none" points="780.0,477.0 780.0,485.0" stroke="#000000" stroke-width="1"/>
      <line stroke="#009900" stroke-width="1" x1="763.0" x2="767.0" y1="385.0" y2="383.0"/>
      <line stroke="#009900" stroke-width="1" x1="764.8376916754951" x2="768.8376916754951" y1="388.5528705726238" y2="386.5528705726238"/>
      <line stroke="#009900" stroke-width="1" x1="766.6753833509902" x2="770.6753833509902" y1="392.10574114524763" y2="390.10574114524763"/>
      <line stroke="#009900" stroke-width="1" x1="768.5130750264852" x2="772.5130750264852" y1="395.65861171787145" y2="393.65861171787145"/>
      <line stroke="#009900" stroke-width="1" x1="770.3507667019803" x2="774.3507667019803" y1="399.21148229049527" y2="397.21148229049527"/>
      <line stroke="#009900" stroke-width="1" x1="772.1884583774754" x2="776.1884583774754" y1="402.7643528631191" y2="400.7643528631191"/>
      <line stroke="#009900" stroke-width="1" x1="774.0261500529705" x2="778.0261500529705" y1="406.3172234357429" y2="404.3172234357429"/>
      <line stroke="#009900" stroke-width="1" x1="775.8638417284656" x2="779.8638417284656" y1="409.8700940083667" y2="407.8700940083667"/>
      <line stroke="#009900" stroke-width="1" x1="777.7015334039606" x2="781.7015334039606" y1="413.42296458099054" y2="411.42296458099054"/>
      <line stroke="#ff0000" stroke-width="1" x1="778.0" x2="782.0" y1="437.0" y2="437.0"/>
      <line stroke="#ff0000" stroke-width="1" x1="778.0" x2="782.0" y1="441.0" y2="441.0"/>
      <line stroke="#ff0000" stroke-width="1" x1="778.0" x2="782.0" y1="445.0" y2="445.0"/>
      <line stroke="#ff0000" stroke-width="1" x1="778.0" x2="782.0" y1="449.0" y2="449.0"/>
      <line stroke="#ff0000" stroke-width="1" x1="778.0" x2="782.0" y1="453.0" y2="453.0"/>
      <line stroke="#ff0000" stroke-width="1" x1="778.0" x2="782.0" y1="457.0" y2="457.0"/>
      <line stroke="#ff0000" stroke-width="1" x1="778.0" x2="782.0" y1="461.0" y2="461.0"/>
      <line stroke="#ff0000" stroke-width="1" x1="778.0" x2="782.0" y1="465.0" y2="465.0"/>
      <line stroke="#ff0000" stroke-width="1" x1="778.0" x2="782.0" y1="469.0" y2="469.0"/>
      <line stroke="#ff0000" stroke-width="1" x1="778.0" x2="782.0" y1="473.0" y2="473.0"/>
      <line stroke="#ff0000" stroke-width="1" x1="778.0" x2="782.0" y1="477.0" y2="477.0"/>
      <polyline fill="none" points="260.0,375.0 260.0,385.0" stroke="#000000" stroke-width="1"/>
      <polyline fill="none" points="260.0,455.0 260.0,445.0" stroke="#000000" stroke-width="1"/>
      <polyline fill="none" points="270.0,385.0 222.0,385.0 215.0,378.0 215.0,370.0 209.0,364.0 171.0,364.0 171.0,345.0 121.0,345.0 121.0,340.0 95.0,340.0 80.0,325.0 80.0,255.0 11.0,255.0 11.0,365.0 16.0,365.0" stroke="#000000" stroke-width="1"/>
      <polyline fill="none" points="36.0,365.0 41.0,365.0 41.0,283.0 50.0,283.0 50.0,545.0 -14.0,545.0" stroke="#000000" stroke-width="1"/>
      <polyline fill="none" points="-30.0,545.0 -35.0,545.0 -35.0,575.0 80.0,575.0 80.0,498.0 95.0,483.0 169.0,483.0 169.0,466.0 209.0,466.0 215.0,460.0 215.0,452.0 222.0,445.0 270.0,445.0" stroke="#000000" stroke-width="1"/>
      <line stroke="#000000" stroke-width="1" x1="-10.0" x2="-10.0" y1="575.0" y2="545.0"/>
      <line stroke="#000000" stroke-width="1" x1="-6.0" x2="-6.0" y1="575.0" y2="545.0"/>
      <line stroke="#000000" stroke-width="1" x1="-2.0" x2="-2.0" y1="575.0" y2="545.0"/>
      <line stroke="#000000" stroke-width="1" x1="2.0" x2="2.0" y1="575.0" y2="545.0"/>
      <line stroke="#000000" stroke-width="1" x1="6.0" x2="6.0" y1="575.0" y2="545.0"/>
      <line stroke="#000000" stroke-width="1" x1="10.0" x2="10.0" y1="575.0" y2="545.0"/>
      <line stroke="#000000" stroke-width="1" x1="14.0" x2="14.0" y1="575.0" y2="545.0"/>
      <line stroke="#000000" stroke-width="1" x1="18.0" x2="18.0" y1="575.0" y2="545.0"/>
      <line stroke="#000000" stroke-width="1" x1="22.0" x2="22.0" y1="575.0" y2="545.0"/>
      <line stroke="#000000" stroke-width="1" x1="26.0" x2="26.0" y1="575.0" y2="545.0"/>
      <line stroke="#000000" stroke-width="1" x1="30.0" x2="30.0" y1="575.0" y2="545.0"/>
      <line stroke="#000000" stroke-width="1" x1="34.0" x2="34.0" y1="575.0" y2="545.0"/>
      <line stroke="#000000" stroke-width="1" x1="38.0" x2="38.0" y1="575.0" y2="545.0"/>
      <line stroke="#000000" stroke-width="1" x1="121.0" x2="121.0" y1="374.0" y2="345.0"/>
      <line stroke="#000000" stroke-width="1" x1="125.0" x2="125.0" y1="374.0" y2="345.0"/>
      <line stroke="#000000" stroke-width="1" x1="129.0" x2="129.0" y1="374.0" y2="345.0"/>
      <line stroke="#000000" stroke-width="1" x1="133.0" x2="133.0" y1="374.0" y2="345.0"/>
      <line stroke="#000000" stroke-width="1" x1="137.0" x2="137.0" y1="374.0" y2="345.0"/>
      <line stroke="#000000" stroke-width="1" x1="122.0" x2="122.0" y1="483.0" y2="454.0"/>
      <line stroke="#000000" stroke-width="1" x1="126.0" x2="126.0" y1="483.0" y2="454.0"/>
      <line stroke="#000000" stroke-width="1" x1="130.0" x2="130.0" y1="483.0" y2="454.0"/>
      <line stroke="#000000" stroke-width="1" x1="134.0" x2="134.0" y1="483.0" y2="454.0"/>
      <line stroke="#000000" stroke-width="1" x1="138.0" x2="138.0" y1="483.0" y2="454.0"/>
      <line stroke="#000000" stroke-width="1" x1="11.0" x2="41.0" y1="296.0" y2="296.0"/>
      <line stroke="#000000" stroke-width="1" x1="11.0" x2="41.0" y1="300.0" y2="300.0"/>
      <line stroke="#000000" stroke-width="1" x1="11.0" x2="41.0" y1="304.0" y2="304.0"/>
      <line stroke="#000000" stroke-width="1" x1="11.0" x2="41.0" y1="308.0" y2="308.0"/>
      <line stroke="#000000" stroke-width="1" x1="11.0" x2="41.0" y1="312.0" y2="312.0"/>
      <line stroke="#000000" stroke-width="1" x1="11.0" x2="41.0" y1="316.0" y2="316.0"/>
      <line stroke="#000000" stroke-width="1" x1="11.0" x2="41.0" y1="320.0" y2="320.0"/>
      <line stroke="#000000" stroke-width="1" x1="11.0" x2="41.0" y1="324.0" y2="324.0"/>
      <line stroke="#000000" stroke-width="1" x1="11.0" x2="41.0" y1="328.0" y2="328.0"/>
      <line stroke="#000000" stroke-width="1" x1="11.0" x2="41.0" y1="332.0" y2="332.0"/>
      <line stroke="#000000" stroke-width="1" x1="11.0" x2="41.0" y1="336.0" y2="336.0"/>
      <line stroke="#000000" stroke-width="1" x1="11.0" x2="41.0" y1="340.0" y2="340.0"/>
      <line stroke="#000000" stroke-width="1" x1="270.0" x2="270.0" y1="445.0" y2="385.0"/>
      <line stroke="#000000" stroke-width="1" x1="266.0" x2="266.0" y1="445.0" y2="385.0"/>
      <line stroke="#000000" stroke-width="1" x1="262.0" x2="262.0" y1="445.0" y2="385.0"/>
      <line stroke="#000000" stroke-width="1" x1="258.0" x2="258.0" y1="445.0" y2="385.0"/>
      <line stroke="#000000" stroke-width="1" x1="254.0" x2="254.0" y1="445.0" y2="385.0"/>
      <line stroke="#000000" stroke-width="1" x1="250.0" x2="250.0" y1="445.0" y2="385.0"/>
      <line stroke="#000000" stroke-width="1" x1="246.0" x2="246.0" y1="445.0" y2="385.0"/>
      <line stroke="#000000" stroke-width="1" x1="242.0" x2="242.0" y1="445.0" y2="385.0"/>
      <line stroke="#000000" stroke-width="1" x1="238.0" x2="238.0" y1="445.0" y2="385.0"/>
      <line stroke="#000000" stroke-width="1" x1="234.0" x2="234.0" y1="445.0" y2="385.0"/>
      <polygon fill="#cccccc" points="79.0,454.0 79.0,374.0 140.0,374.0 140.0,385.0 130.0,385.0 130.0,445.0 140.0,445.0 140.0,454.0" stroke="#000000" stroke-width="1"/>
      <polygon fill="#cccccc" points="171.0,430.0 171.0,400.0 184.0,400.0 184.0,430.0" stroke="#000000" stroke-width="1"/>
      <ellipse cx="81.5" cy="351.5" fill="#cccccc" rx="3.5" ry="3.5" stroke="#000000" stroke-width="1"/>
      <ellipse cx="81.5" cy="471.5" fill="#cccccc" rx="3.5" ry="3.5" stroke="#000000" stroke-width="1"/>
      <polyline fill="none" points="140.0,385.0 140.0,445.0" stroke="#000000" stroke-width="1"/>
      <text fill="#000000" font-family="Arial" font-size="10.0" stroke="none" stroke-width="0" transform="rotate(90.0,142.0,404.0)" x="142.0" y="414.0">кассы</text>
      <polyline fill="none" points="177.0,364.0 177.0,368.0" stroke="#000000" stroke-width="1"/>
      <polyline fill="none" points="177.0,396.0 177.0,400.0" stroke="#000000" stroke-width="1"/>
      <polyline fill="none" points="177.0,430.0 177.0,434.0" stroke="#000000" stroke-width="1"/>
      <polyline fill="none" points="177.0,462.0 177.0,466.0" stroke="#000000" stroke-width="1"/>
      <line stroke="#009900" stroke-width="1" x1="175.0" x2="179.0" y1="434.0" y2="434.0"/>
      <line stroke="#009900" stroke-width="1" x1="175.0" x2="179.0" y1="438.0" y2="438.0"/>
      <line stroke="#009900" stroke-width="1" x1="175.0" x2="179.0" y1="442.0" y2="442.0"/>
      <line stroke="#009900" stroke-width="1" x1="175.0" x2="179.0" y1="446.0" y2="446.0"/>
      <line stroke="#009900" stroke-width="1" x1="175.0" x2="179.0" y1="450.0" y2="450.0"/>
      <line stroke="#009900" stroke-width="1" x1="175.0" x2="179.0" y1="454.0" y2="454.0"/>
      <line stroke="#009900" stroke-width="1" x1="175.0" x2="179.0" y1="458.0" y2="458.0"/>
      <line stroke="#009900" stroke-width="1" x1="175.0" x2="179.0" y1="462.0" y2="462.0"/>
      <line stroke="#ff0000" stroke-width="1" x1="175.0" x2="179.0" y1="368.0" y2="368.0"/>
      <line stroke="#ff0000" stroke-width="1" x1="175.0" x2="179.0" y1="372.0" y2="372.0"/>
      <line stroke="#ff0000" stroke-width="1" x1="175.0" x2="179.0" y1="376.0" y2="376.0"/>
      <line stroke="#ff0000" stroke-width="1" x1="175.0" x2="179.0" y1="380.0" y2="380.0"/>
      <line stroke="#ff0000" stroke-width="1" x1="175.0" x2="179.0" y1="384.0" y2="384.0"/>
      <line stroke="#ff0000" stroke-width="1" x1="175.0" x2="179.0" y1="388.0" y2="388.0"/>
      <line stroke="#ff0000" stroke-width="1" x1="175.0" x2="179.0" y1="392.0" y2="392.0"/>
      <line stroke="#ff0000" stroke-width="1" x1="175.0" x2="179.0" y1="396.0" y2="396.0"/>
      <text fill="#00afaf" font-family="Arial" font-size="20.0" stroke="none" stroke-width="0" x="282.0" y="525.0">проспект Маркса</text>
      <text fill="#00afaf" font-family="Arial" font-size="20.0" stroke="none" stroke-width="0" transform="rotate(90.0,193.0,508.0)" x="193.0" y="528.0">ул. Геодезическая</text>
      <text fill="#000000" font-family="Arial" font-size="15.0" stroke="none" stroke-width="0" x="-47.0" y="373.0">Авт.26э</text>
      <text fill="#000000" font-family="Arial" font-size="15.0" stroke="none" stroke-width="0" x="926.0" y="513.0">Авт.26э</text>
      <ellipse cx="947.0" cy="529.0" fill="#0000ff" rx="15.0" ry="15.0" stroke="#000000" stroke-width="1"/>
      <ellipse cx="-24.0" cy="390.0" fill="#0000ff" rx="15.0" ry="15.0" stroke="#000000" stroke-width="1"/>
      <text fill="#ffffff" font-family="Arial" font-size="25.0" stroke="none" stroke-width="0" x="939.0" y="538.0">А</text>
      <text fill="#ffffff" font-family="Arial" font-size="25.0" stroke="none" stroke-width="0" x="-32.0" y="399.0">А</text>
      <polyline fill="none" marker-end="url(#id481)" points="772.0,455.0 790.0,455.0" stroke="#ff0000" stroke-width="1"/>
      <polyline fill="none" marker-end="url(#id481)" points="188.0,378.0 167.0,378.0" stroke="#ff0000" stroke-width="1"/>
      <polyline fill="none" marker-end="url(#id481)" points="781.0,396.0 765.0,404.0" stroke="#009900" stroke-width="1"/>
      <polyline fill="none" marker-end="url(#id481)" points="167.0,448.0 188.0,448.0" stroke="#009900" stroke-width="1"/>
    </g>
  </g>
</svg>
