<?xml version="1.0" encoding="utf-8" ?>
<svg baseProfile="full" height="880.0" version="1.1" width="760.0" xmlns="http://www.w3.org/2000/svg" xmlns:ev="http://www.w3.org/2001/xml-events" xmlns:xlink="http://www.w3.org/1999/xlink">
  <defs>
    <marker id="id486" markerHeight="3" markerUnits="strokeWidth" markerWidth="4" orient="auto" refX="0" refY="5" viewBox="0,0,10,10">
      <path d="M 0 0 L 10 5 L 0 10 z"/>
    </marker>
  </defs>
  <g>
    <rect fill="none" height="880.0" stroke="none" stroke-width="0" width="760.0" x="0.0" y="0.0"/>
    <g transform="rotate(45.0,380.0,440.0)">
      <polygon fill="#0da303" points="92.0,455.0 542.0,455.0 542.0,485.0 92.0,485.0" stroke="#000000" stroke-width="1"/>
      <polygon fill="#0da303" points="542.0,375.0 542.0,345.0 92.0,345.0 92.0,375.0" stroke="#000000" stroke-width="1"/>
      <text fill="#0da303" font-family="Arial" font-size="20.0" stroke="none" stroke-width="0" x="102.0" y="512.0">&lt;&lt; Берёзовая роща</text>
      <text fill="#0da303" font-family="Arial" font-size="20.0" stroke="none" stroke-width="0" x="467.0" y="505.0">тупик &gt;&gt;</text>
      <text fill="#0da303" font-family="Arial" font-size="25.0" stroke="none" stroke-width="0" x="250.0" y="425.0">Золотая нива</text>
      <polyline fill="none" points="385.0,462.0 419.0,462.0" stroke="#000000" stroke-width="1"/>
      <path d="M419.0,462.0 C419.0,462.0 418.0,461.3333333333333 419.0,462.0 C420.0,462.6666666666667 424.0,464.0 425.0,466.0 C426.0,468.0 426.0,472.0 425.0,474.0 C424.0,476.0 419.0,478.0 419.0,478.0 " fill="none" stroke="#000000" stroke-width="1"/>
      <polyline fill="none" marker-end="url(#id486)" points="419.0,478.0 385.0,478.0" stroke="#000000" stroke-width="1"/>
      <text fill="#000000" font-family="Arial" font-size="15.0" stroke="none" stroke-width="0" x="245.0" y="366.0">путь не используется</text>
      <polyline fill="none" points="384.0,461.0 418.0,461.0" stroke="#ffffff" stroke-width="1"/>
      <path d="M418.0,461.0 C418.0,461.0 417.0,460.3333333333333 418.0,461.0 C419.0,461.6666666666667 423.0,463.0 424.0,465.0 C425.0,467.0 425.0,471.0 424.0,473.0 C423.0,475.0 418.0,477.0 418.0,477.0 " fill="none" stroke="#ffffff" stroke-width="1"/>
      <polyline fill="none" marker-end="url(#id486)" points="418.0,477.0 384.0,477.0" stroke="#ffffff" stroke-width="1"/>
      <text fill="#ffffff" font-family="Arial" font-size="15.0" stroke="none" stroke-width="0" x="244.0" y="365.0">путь не используется</text>
      <polyline fill="none" points="542.0,375.0 542.0,392.0" stroke="#000000" stroke-width="1"/>
      <polyline fill="none" points="542.0,455.0 542.0,439.0" stroke="#000000" stroke-width="1"/>
      <polyline fill="none" points="571.0,392.0 571.0,368.0 644.0,368.0 644.0,327.0 594.0,327.0" stroke="#000000" stroke-width="1"/>
      <polyline fill="none" points="594.0,309.0 662.0,309.0 662.0,403.0 798.0,403.0 798.0,352.0" stroke="#000000" stroke-width="1"/>
      <polyline fill="none" points="816.0,352.0 816.0,497.0 887.0,497.0 887.0,485.0 837.0,485.0" stroke="#000000" stroke-width="1"/>
      <polyline fill="none" points="837.0,467.0 905.0,467.0 905.0,515.0 798.0,515.0 798.0,427.0 676.0,427.0 676.0,564.0" stroke="#000000" stroke-width="1"/>
      <polyline fill="none" points="658.0,564.0 658.0,425.0 648.0,425.0 648.0,462.0 571.0,462.0 571.0,439.0" stroke="#000000" stroke-width="1"/>
      <line stroke="#000000" stroke-width="1" x1="596.0" x2="596.0" y1="327.0" y2="309.0"/>
      <line stroke="#000000" stroke-width="1" x1="600.0" x2="600.0" y1="327.0" y2="309.0"/>
      <line stroke="#000000" stroke-width="1" x1="604.0" x2="604.0" y1="327.0" y2="309.0"/>
      <line stroke="#000000" stroke-width="1" x1="608.0" x2="608.0" y1="327.0" y2="309.0"/>
      <line stroke="#000000" stroke-width="1" x1="612.0" x2="612.0" y1="327.0" y2="309.0"/>
      <line stroke="#000000" stroke-width="1" x1="616.0" x2="616.0" y1="327.0" y2="309.0"/>
      <line stroke="#000000" stroke-width="1" x1="620.0" x2="620.0" y1="327.0" y2="309.0"/>
      <line stroke="#000000" stroke-width="1" x1="624.0" x2="624.0" y1="327.0" y2="309.0"/>
      <line stroke="#000000" stroke-width="1" x1="628.0" x2="628.0" y1="327.0" y2="309.0"/>
      <line stroke="#000000" stroke-width="1" x1="632.0" x2="632.0" y1="327.0" y2="309.0"/>
      <line stroke="#000000" stroke-width="1" x1="636.0" x2="636.0" y1="327.0" y2="309.0"/>
      <line stroke="#000000" stroke-width="1" x1="640.0" x2="640.0" y1="327.0" y2="309.0"/>
      <line stroke="#000000" stroke-width="1" x1="658.0" x2="676.0" y1="562.0" y2="562.0"/>
      <line stroke="#000000" stroke-width="1" x1="658.0" x2="676.0" y1="558.0" y2="558.0"/>
      <line stroke="#000000" stroke-width="1" x1="658.0" x2="676.0" y1="554.0" y2="554.0"/>
      <line stroke="#000000" stroke-width="1" x1="658.0" x2="676.0" y1="550.0" y2="550.0"/>
      <line stroke="#000000" stroke-width="1" x1="658.0" x2="676.0" y1="546.0" y2="546.0"/>
      <line stroke="#000000" stroke-width="1" x1="658.0" x2="676.0" y1="542.0" y2="542.0"/>
      <line stroke="#000000" stroke-width="1" x1="658.0" x2="676.0" y1="538.0" y2="538.0"/>
      <line stroke="#000000" stroke-width="1" x1="658.0" x2="676.0" y1="534.0" y2="534.0"/>
      <line stroke="#000000" stroke-width="1" x1="658.0" x2="676.0" y1="530.0" y2="530.0"/>
      <line stroke="#000000" stroke-width="1" x1="658.0" x2="676.0" y1="526.0" y2="526.0"/>
      <line stroke="#000000" stroke-width="1" x1="658.0" x2="676.0" y1="522.0" y2="522.0"/>
      <line stroke="#000000" stroke-width="1" x1="658.0" x2="676.0" y1="518.0" y2="518.0"/>
      <line stroke="#000000" stroke-width="1" x1="798.0" x2="816.0" y1="354.0" y2="354.0"/>
      <line stroke="#000000" stroke-width="1" x1="798.0" x2="816.0" y1="358.0" y2="358.0"/>
      <line stroke="#000000" stroke-width="1" x1="798.0" x2="816.0" y1="362.0" y2="362.0"/>
      <line stroke="#000000" stroke-width="1" x1="798.0" x2="816.0" y1="366.0" y2="366.0"/>
      <line stroke="#000000" stroke-width="1" x1="798.0" x2="816.0" y1="370.0" y2="370.0"/>
      <line stroke="#000000" stroke-width="1" x1="798.0" x2="816.0" y1="374.0" y2="374.0"/>
      <line stroke="#000000" stroke-width="1" x1="798.0" x2="816.0" y1="378.0" y2="378.0"/>
      <line stroke="#000000" stroke-width="1" x1="798.0" x2="816.0" y1="382.0" y2="382.0"/>
      <line stroke="#000000" stroke-width="1" x1="798.0" x2="816.0" y1="386.0" y2="386.0"/>
      <line stroke="#000000" stroke-width="1" x1="798.0" x2="816.0" y1="390.0" y2="390.0"/>
      <line stroke="#000000" stroke-width="1" x1="798.0" x2="816.0" y1="394.0" y2="394.0"/>
      <line stroke="#000000" stroke-width="1" x1="798.0" x2="816.0" y1="398.0" y2="398.0"/>
      <line stroke="#000000" stroke-width="1" x1="839.0" x2="839.0" y1="485.0" y2="467.0"/>
      <line stroke="#000000" stroke-width="1" x1="843.0" x2="843.0" y1="485.0" y2="467.0"/>
      <line stroke="#000000" stroke-width="1" x1="847.0" x2="847.0" y1="485.0" y2="467.0"/>
      <line stroke="#000000" stroke-width="1" x1="851.0" x2="851.0" y1="485.0" y2="467.0"/>
      <line stroke="#000000" stroke-width="1" x1="855.0" x2="855.0" y1="485.0" y2="467.0"/>
      <line stroke="#000000" stroke-width="1" x1="859.0" x2="859.0" y1="485.0" y2="467.0"/>
      <line stroke="#000000" stroke-width="1" x1="863.0" x2="863.0" y1="485.0" y2="467.0"/>
      <line stroke="#000000" stroke-width="1" x1="867.0" x2="867.0" y1="485.0" y2="467.0"/>
      <line stroke="#000000" stroke-width="1" x1="871.0" x2="871.0" y1="485.0" y2="467.0"/>
      <line stroke="#000000" stroke-width="1" x1="875.0" x2="875.0" y1="485.0" y2="467.0"/>
      <line stroke="#000000" stroke-width="1" x1="879.0" x2="879.0" y1="485.0" y2="467.0"/>
      <line stroke="#000000" stroke-width="1" x1="883.0" x2="883.0" y1="485.0" y2="467.0"/>
      <line stroke="#7f7f7f" stroke-width="1" x1="572.0" x2="572.0" y1="435.0" y2="396.0"/>
      <line stroke="#7f7f7f" stroke-width="1" x1="568.0" x2="568.0" y1="435.0" y2="396.0"/>
      <line stroke="#7f7f7f" stroke-width="1" x1="564.0" x2="564.0" y1="435.0" y2="396.0"/>
      <line stroke="#7f7f7f" stroke-width="1" x1="560.0" x2="560.0" y1="435.0" y2="396.0"/>
      <line stroke="#7f7f7f" stroke-width="1" x1="556.0" x2="556.0" y1="435.0" y2="396.0"/>
      <line stroke="#7f7f7f" stroke-width="1" x1="552.0" x2="552.0" y1="435.0" y2="396.0"/>
      <line stroke="#7f7f7f" stroke-width="1" x1="548.0" x2="548.0" y1="435.0" y2="396.0"/>
      <line stroke="#7f7f7f" stroke-width="1" x1="544.0" x2="544.0" y1="435.0" y2="396.0"/>
      <line stroke="#7f7f7f" stroke-width="1" x1="540.0" x2="540.0" y1="435.0" y2="396.0"/>
      <line stroke="#7f7f7f" stroke-width="1" x1="536.0" x2="536.0" y1="435.0" y2="396.0"/>
      <line stroke="#7f7f7f" stroke-width="1" x1="532.0" x2="532.0" y1="435.0" y2="396.0"/>
      <line stroke="#7f7f7f" stroke-width="1" x1="528.0" x2="528.0" y1="435.0" y2="396.0"/>
      <line stroke="#7f7f7f" stroke-width="1" x1="524.0" x2="524.0" y1="435.0" y2="396.0"/>
      <polygon fill="#9b5509" points="578.0,396.0 519.0,396.0 519.0,392.0 578.0,392.0" stroke="#000000" stroke-width="1"/>
      <polygon fill="#9b5509" points="578.0,405.0 578.0,411.0 519.0,411.0 519.0,405.0" stroke="#000000" stroke-width="1"/>
      <polygon fill="#9b5509" points="578.0,420.0 578.0,426.0 519.0,426.0 519.0,420.0" stroke="#000000" stroke-width="1"/>
      <polygon fill="#9b5509" points="578.0,435.0 519.0,435.0 519.0,439.0 578.0,439.0" stroke="#000000" stroke-width="1"/>
      <polygon fill="#ffffff" points="585.0,377.0 579.0,383.0 573.0,377.0 579.0,371.0" stroke="#000000" stroke-width="1"/>
      <polyline fill="none" points="627.0,413.0 615.0,413.0" stroke="#000000" stroke-width="0.5"/>
      <line stroke="#ff0000" stroke-width="1" x1="617.0" x2="612.0" y1="415.0" y2="415.0"/>
      <line stroke="#ff0000" stroke-width="1" x1="617.0" x2="612.0" y1="419.0" y2="419.0"/>
      <line stroke="#ff0000" stroke-width="1" x1="617.0" x2="612.0" y1="423.0" y2="423.0"/>
      <line stroke="#ff0000" stroke-width="1" x1="617.0" x2="612.0" y1="427.0" y2="427.0"/>
      <line stroke="#ff0000" stroke-width="1" x1="617.0" x2="612.0" y1="431.0" y2="431.0"/>
      <line stroke="#ff0000" stroke-width="1" x1="617.0" x2="612.0" y1="435.0" y2="435.0"/>
      <line stroke="#ff0000" stroke-width="1" x1="617.0" x2="612.0" y1="439.0" y2="439.0"/>
      <line stroke="#ff0000" stroke-width="1" x1="617.0" x2="612.0" y1="443.0" y2="443.0"/>
      <line stroke="#ff0000" stroke-width="1" x1="617.0" x2="612.0" y1="447.0" y2="447.0"/>
      <line stroke="#ff0000" stroke-width="1" x1="617.0" x2="612.0" y1="451.0" y2="451.0"/>
      <line stroke="#ff0000" stroke-width="1" x1="617.0" x2="612.0" y1="455.0" y2="455.0"/>
      <line stroke="#ff0000" stroke-width="1" x1="617.0" x2="612.0" y1="459.0" y2="459.0"/>
      <line stroke="#009900" stroke-width="1" x1="612.0" x2="615.0" y1="412.0" y2="409.0"/>
      <line stroke="#009900" stroke-width="1" x1="609.1240464958036" x2="612.1240464958036" y1="409.2199116126101" y2="406.2199116126101"/>
      <line stroke="#009900" stroke-width="1" x1="606.2480929916071" x2="609.2480929916071" y1="406.43982322522015" y2="403.43982322522015"/>
      <line stroke="#009900" stroke-width="1" x1="603.3721394874107" x2="606.3721394874107" y1="403.65973483783023" y2="400.65973483783023"/>
      <line stroke="#009900" stroke-width="1" x1="600.4961859832142" x2="603.4961859832142" y1="400.8796464504403" y2="397.8796464504403"/>
      <line stroke="#009900" stroke-width="1" x1="597.6202324790178" x2="600.6202324790178" y1="398.0995580630504" y2="395.0995580630504"/>
      <line stroke="#009900" stroke-width="1" x1="594.7442789748213" x2="597.7442789748213" y1="395.31946967566046" y2="392.31946967566046"/>
      <line stroke="#009900" stroke-width="1" x1="591.8683254706249" x2="594.8683254706249" y1="392.53938128827053" y2="389.53938128827053"/>
      <line stroke="#009900" stroke-width="1" x1="588.9923719664284" x2="591.9923719664284" y1="389.7592929008806" y2="386.7592929008806"/>
      <line stroke="#009900" stroke-width="1" x1="586.116418462232" x2="589.116418462232" y1="386.9792045134907" y2="383.9792045134907"/>
      <line stroke="#009900" stroke-width="1" x1="583.2404649580355" x2="586.2404649580355" y1="384.19911612610076" y2="381.19911612610076"/>
      <polyline fill="none" points="620.0,368.0 620.0,360.0 594.0,360.0 594.0,368.0" stroke="#000000" stroke-width="1"/>
      <text fill="#000000" font-family="Arial" font-size="7.0" stroke="none" stroke-width="0" x="598.0" y="366.0">кассы</text>
      <polyline fill="none" marker-end="url(#id486)" points="589.0,431.0 603.0,431.0" stroke="#ff0000" stroke-width="1"/>
      <polyline fill="none" marker-end="url(#id486)" points="629.0,387.0 613.0,387.0" stroke="#009900" stroke-width="1"/>
      <polyline fill="none" points="92.0,375.0 92.0,390.0" stroke="#000000" stroke-width="1"/>
      <polyline fill="none" points="92.0,455.0 92.0,440.0" stroke="#000000" stroke-width="1"/>
      <polyline fill="none" points="99.0,390.0 62.0,390.0 62.0,362.0 2.0,362.0 2.0,289.0 -72.0,289.0" stroke="#000000" stroke-width="1"/>
      <polyline fill="none" points="-72.0,307.0 -22.0,307.0 -22.0,362.0 -34.0,362.0 -34.0,467.0 -22.0,467.0 -22.0,553.0 52.0,553.0" stroke="#000000" stroke-width="1"/>
      <polyline fill="none" points="52.0,535.0 2.0,535.0 2.0,467.0 62.0,467.0 62.0,440.0 99.0,440.0" stroke="#000000" stroke-width="1"/>
      <line stroke="#000000" stroke-width="1" x1="99.0" x2="99.0" y1="440.0" y2="390.0"/>
      <line stroke="#000000" stroke-width="1" x1="95.0" x2="95.0" y1="440.0" y2="390.0"/>
      <line stroke="#000000" stroke-width="1" x1="91.0" x2="91.0" y1="440.0" y2="390.0"/>
      <line stroke="#000000" stroke-width="1" x1="87.0" x2="87.0" y1="440.0" y2="390.0"/>
      <line stroke="#000000" stroke-width="1" x1="83.0" x2="83.0" y1="440.0" y2="390.0"/>
      <line stroke="#000000" stroke-width="1" x1="79.0" x2="79.0" y1="440.0" y2="390.0"/>
      <line stroke="#000000" stroke-width="1" x1="75.0" x2="75.0" y1="440.0" y2="390.0"/>
      <line stroke="#000000" stroke-width="1" x1="71.0" x2="71.0" y1="440.0" y2="390.0"/>
      <line stroke="#000000" stroke-width="1" x1="67.0" x2="67.0" y1="440.0" y2="390.0"/>
      <line stroke="#000000" stroke-width="1" x1="63.0" x2="63.0" y1="440.0" y2="390.0"/>
      <line stroke="#000000" stroke-width="1" x1="-70.0" x2="-70.0" y1="307.0" y2="289.0"/>
      <line stroke="#000000" stroke-width="1" x1="-66.0" x2="-66.0" y1="307.0" y2="289.0"/>
      <line stroke="#000000" stroke-width="1" x1="-62.0" x2="-62.0" y1="307.0" y2="289.0"/>
      <line stroke="#000000" stroke-width="1" x1="-58.0" x2="-58.0" y1="307.0" y2="289.0"/>
      <line stroke="#000000" stroke-width="1" x1="-54.0" x2="-54.0" y1="307.0" y2="289.0"/>
      <line stroke="#000000" stroke-width="1" x1="-50.0" x2="-50.0" y1="307.0" y2="289.0"/>
      <line stroke="#000000" stroke-width="1" x1="-46.0" x2="-46.0" y1="307.0" y2="289.0"/>
      <line stroke="#000000" stroke-width="1" x1="-42.0" x2="-42.0" y1="307.0" y2="289.0"/>
      <line stroke="#000000" stroke-width="1" x1="-38.0" x2="-38.0" y1="307.0" y2="289.0"/>
      <line stroke="#000000" stroke-width="1" x1="-34.0" x2="-34.0" y1="307.0" y2="289.0"/>
      <line stroke="#000000" stroke-width="1" x1="-30.0" x2="-30.0" y1="307.0" y2="289.0"/>
      <line stroke="#000000" stroke-width="1" x1="-26.0" x2="-26.0" y1="307.0" y2="289.0"/>
      <line stroke="#000000" stroke-width="1" x1="50.0" x2="50.0" y1="535.0" y2="553.0"/>
      <line stroke="#000000" stroke-width="1" x1="46.0" x2="46.0" y1="535.0" y2="553.0"/>
      <line stroke="#000000" stroke-width="1" x1="42.0" x2="42.0" y1="535.0" y2="553.0"/>
      <line stroke="#000000" stroke-width="1" x1="38.0" x2="38.0" y1="535.0" y2="553.0"/>
      <line stroke="#000000" stroke-width="1" x1="34.0" x2="34.0" y1="535.0" y2="553.0"/>
      <line stroke="#000000" stroke-width="1" x1="30.0" x2="30.0" y1="535.0" y2="553.0"/>
      <line stroke="#000000" stroke-width="1" x1="26.0" x2="26.0" y1="535.0" y2="553.0"/>
      <line stroke="#000000" stroke-width="1" x1="22.0" x2="22.0" y1="535.0" y2="553.0"/>
      <line stroke="#000000" stroke-width="1" x1="18.0" x2="18.0" y1="535.0" y2="553.0"/>
      <line stroke="#000000" stroke-width="1" x1="14.0" x2="14.0" y1="535.0" y2="553.0"/>
      <line stroke="#000000" stroke-width="1" x1="10.0" x2="10.0" y1="535.0" y2="553.0"/>
      <line stroke="#000000" stroke-width="1" x1="6.0" x2="6.0" y1="535.0" y2="553.0"/>
      <polygon fill="#c0c0c0" points="2.0,433.0 2.0,391.0 9.0,391.0 9.0,433.0" stroke="#000000" stroke-width="1"/>
      <polyline fill="none" points="55.0,448.0 38.0,448.0 38.0,440.0" stroke="#000000" stroke-width="0.5"/>
      <polygon fill="#ffffff" points="43.0,409.0 33.0,409.0 33.0,399.0 43.0,399.0" stroke="#000000" stroke-width="1"/>
      <polyline fill="none" points="38.0,398.0 38.0,394.0 9.0,394.0" stroke="#000000" stroke-width="0.5"/>
      <line stroke="#009900" stroke-width="1" x1="36.0" x2="40.0" y1="440.0" y2="440.0"/>
      <line stroke="#009900" stroke-width="1" x1="36.0" x2="40.0" y1="436.0" y2="436.0"/>
      <line stroke="#009900" stroke-width="1" x1="36.0" x2="40.0" y1="432.0" y2="432.0"/>
      <line stroke="#009900" stroke-width="1" x1="36.0" x2="40.0" y1="428.0" y2="428.0"/>
      <line stroke="#009900" stroke-width="1" x1="36.0" x2="40.0" y1="424.0" y2="424.0"/>
      <line stroke="#009900" stroke-width="1" x1="36.0" x2="40.0" y1="420.0" y2="420.0"/>
      <line stroke="#009900" stroke-width="1" x1="36.0" x2="40.0" y1="416.0" y2="416.0"/>
      <line stroke="#009900" stroke-width="1" x1="36.0" x2="40.0" y1="412.0" y2="412.0"/>
      <polyline fill="none" points="62.0,448.0 55.0,448.0 55.0,467.0" stroke="#000000" stroke-width="1"/>
      <text fill="#000000" font-family="Arial" font-size="7.0" stroke="none" stroke-width="0" transform="rotate(-90.0,54.0,466.0)" x="54.0" y="473.0">кассы</text>
      <text fill="#00cccc" font-family="Arial" font-size="15.0" stroke="none" stroke-width="0" x="675.0" y="378.0">ул. Кошурникова</text>
      <text fill="#00cccc" font-family="Arial" font-size="15.0" stroke="none" stroke-width="0" x="-155.0" y="422.0">ул. Кошурникова</text>
      <text fill="#00cccc" font-family="Arial" font-size="15.0" stroke="none" stroke-width="0" transform="rotate(-90.0,740.0,596.0)" x="740.0" y="611.0">ул. Бориса Богаткова</text>
      <polyline fill="none" marker-end="url(#id486)" points="49.0,378.0 28.0,378.0" stroke="#ff0000" stroke-width="1"/>
      <polyline fill="none" marker-end="url(#id486)" points="28.0,426.0 49.0,426.0" stroke="#009900" stroke-width="1"/>
    </g>
  </g>
</svg>
