<svg xmlns="http://www.w3.org/2000/svg" version="1.1">
<defs>
    <marker id="arrow"
      viewBox="0 0 10 10" refX="0" refY="5"
      markerUnits="strokeWidth"
      markerWidth="4" markerHeight="3"
      orient="auto">
      <path d="M 0 0 L 10 5 L 0 10 z" />
    </marker>
  </defs>
<g stroke="#000000" fill="none" stroke-opacity="1.0" fill-opacity="1.0" transform="scale(0.5)">
<rect x="0" y="0" width="760" height="880" stroke-width="0" fill="none" />
<g stroke="#000000" fill="none" stroke-opacity="1.0" fill-opacity="1.0" transform="scale(0.5)">
</g>
<g transform="rotate(45.0 380 440)" >
<g stroke="#000000" fill="none" stroke-opacity="1.0" fill-opacity="1.0" transform="scale(0.5)">
</g>
<g stroke="#000000" fill="#0DA303" stroke-opacity="1.0" fill-opacity="1.0" transform="scale(0.5)">
<polygon points="92,455  542,455  542,485  92,485" stroke-width="1" />
<polygon points="542,375  542,345  92,345  92,375" stroke-width="1" />
</g>
<g stroke="#0DA303" fill="none" stroke-opacity="1.0" fill-opacity="1.0" transform="scale(0.5)">
<text x=" 102" y="512.0" font-family="Arial" font-size=" 20" fill="#0DA303" stroke-width="0">&lt;&lt; Берёзовая роща</text>
<text x=" 467" y="505.0" font-family="Arial" font-size=" 20" fill="#0DA303" stroke-width="0">тупик &gt;&gt;</text>
<text x=" 250" y="425.0" font-family="Arial" font-size=" 25" fill="#0DA303" stroke-width="0">Золотая нива</text>
</g>
<g stroke="#000000" fill="none" stroke-opacity="1.0" fill-opacity="1.0" transform="scale(0.5)">
<polyline points="385,462  419,462" stroke-width="1" fill="none"  />
<polyline points="419,462  425,466  425,474  419,478" stroke-width="1" fill="none"/> <!-- spline -->
<polyline points="419,478  385,478" marker-end="url(#arrow)" stroke-width="1" fill="none" />
<text x=" 245" y="366.0" font-family="Arial" font-size=" 15" fill="#000000" stroke-width="0">путь не используется</text>
</g>
<g stroke="#FFFFFF" fill="none" stroke-opacity="1.0" fill-opacity="1.0" transform="scale(0.5)">
<polyline points="384,461  418,461" stroke-width="1" fill="none"  />
<polyline points="418,461  424,465  424,473  418,477" stroke-width="1" fill="none"/> <!-- spline -->
<polyline points="418,477  384,477" marker-end="url(#arrow)" stroke-width="1" fill="none" />
<text x=" 244" y="365.0" font-family="Arial" font-size=" 15" fill="#FFFFFF" stroke-width="0">путь не используется</text>
</g>
<g stroke="#000000" fill="none" stroke-opacity="1.0" fill-opacity="1.0" transform="scale(0.5)">
<polyline points="542,375  542,392" stroke-width="1" fill="none"  />
<polyline points="542,455  542,439" stroke-width="1" fill="none"  />
<polyline points="571,392  571,368  644,368  644,327  594,327" stroke-width="1" fill="none"  />
<polyline points="594,309  662,309  662,403  798,403  798,352" stroke-width="1" fill="none"  />
<polyline points="816,352  816,497  887,497  887,485  837,485" stroke-width="1" fill="none"  />
<polyline points="837,467  905,467  905,515  798,515  798,427  676,427  676,564" stroke-width="1" fill="none"  />
<polyline points="658,564  658,425  648,425  648,462  571,462  571,439" stroke-width="1" fill="none"  />
<line x1="596" y1="327" x2="596" y2="309" stroke-width="1" />
<line x1="600" y1="327" x2="600" y2="309" stroke-width="1" />
<line x1="604" y1="327" x2="604" y2="309" stroke-width="1" />
<line x1="608" y1="327" x2="608" y2="309" stroke-width="1" />
<line x1="612" y1="327" x2="612" y2="309" stroke-width="1" />
<line x1="616" y1="327" x2="616" y2="309" stroke-width="1" />
<line x1="620" y1="327" x2="620" y2="309" stroke-width="1" />
<line x1="624" y1="327" x2="624" y2="309" stroke-width="1" />
<line x1="628" y1="327" x2="628" y2="309" stroke-width="1" />
<line x1="632" y1="327" x2="632" y2="309" stroke-width="1" />
<line x1="636" y1="327" x2="636" y2="309" stroke-width="1" />
<line x1="640" y1="327" x2="640" y2="309" stroke-width="1" />
<line x1="658" y1="562" x2="676" y2="562" stroke-width="1" />
<line x1="658" y1="558" x2="676" y2="558" stroke-width="1" />
<line x1="658" y1="554" x2="676" y2="554" stroke-width="1" />
<line x1="658" y1="550" x2="676" y2="550" stroke-width="1" />
<line x1="658" y1="546" x2="676" y2="546" stroke-width="1" />
<line x1="658" y1="542" x2="676" y2="542" stroke-width="1" />
<line x1="658" y1="538" x2="676" y2="538" stroke-width="1" />
<line x1="658" y1="534" x2="676" y2="534" stroke-width="1" />
<line x1="658" y1="530" x2="676" y2="530" stroke-width="1" />
<line x1="658" y1="526" x2="676" y2="526" stroke-width="1" />
<line x1="658" y1="522" x2="676" y2="522" stroke-width="1" />
<line x1="658" y1="518" x2="676" y2="518" stroke-width="1" />
<line x1="798" y1="354" x2="816" y2="354" stroke-width="1" />
<line x1="798" y1="358" x2="816" y2="358" stroke-width="1" />
<line x1="798" y1="362" x2="816" y2="362" stroke-width="1" />
<line x1="798" y1="366" x2="816" y2="366" stroke-width="1" />
<line x1="798" y1="370" x2="816" y2="370" stroke-width="1" />
<line x1="798" y1="374" x2="816" y2="374" stroke-width="1" />
<line x1="798" y1="378" x2="816" y2="378" stroke-width="1" />
<line x1="798" y1="382" x2="816" y2="382" stroke-width="1" />
<line x1="798" y1="386" x2="816" y2="386" stroke-width="1" />
<line x1="798" y1="390" x2="816" y2="390" stroke-width="1" />
<line x1="798" y1="394" x2="816" y2="394" stroke-width="1" />
<line x1="798" y1="398" x2="816" y2="398" stroke-width="1" />
<line x1="839" y1="485" x2="839" y2="467" stroke-width="1" />
<line x1="843" y1="485" x2="843" y2="467" stroke-width="1" />
<line x1="847" y1="485" x2="847" y2="467" stroke-width="1" />
<line x1="851" y1="485" x2="851" y2="467" stroke-width="1" />
<line x1="855" y1="485" x2="855" y2="467" stroke-width="1" />
<line x1="859" y1="485" x2="859" y2="467" stroke-width="1" />
<line x1="863" y1="485" x2="863" y2="467" stroke-width="1" />
<line x1="867" y1="485" x2="867" y2="467" stroke-width="1" />
<line x1="871" y1="485" x2="871" y2="467" stroke-width="1" />
<line x1="875" y1="485" x2="875" y2="467" stroke-width="1" />
<line x1="879" y1="485" x2="879" y2="467" stroke-width="1" />
<line x1="883" y1="485" x2="883" y2="467" stroke-width="1" />
</g>
<g stroke="#7F7F7F" fill="none" stroke-opacity="1.0" fill-opacity="1.0" transform="scale(0.5)">
<line x1="572" y1="435" x2="572" y2="396" stroke-width="1" />
<line x1="568" y1="435" x2="568" y2="396" stroke-width="1" />
<line x1="564" y1="435" x2="564" y2="396" stroke-width="1" />
<line x1="560" y1="435" x2="560" y2="396" stroke-width="1" />
<line x1="556" y1="435" x2="556" y2="396" stroke-width="1" />
<line x1="552" y1="435" x2="552" y2="396" stroke-width="1" />
<line x1="548" y1="435" x2="548" y2="396" stroke-width="1" />
<line x1="544" y1="435" x2="544" y2="396" stroke-width="1" />
<line x1="540" y1="435" x2="540" y2="396" stroke-width="1" />
<line x1="536" y1="435" x2="536" y2="396" stroke-width="1" />
<line x1="532" y1="435" x2="532" y2="396" stroke-width="1" />
<line x1="528" y1="435" x2="528" y2="396" stroke-width="1" />
<line x1="524" y1="435" x2="524" y2="396" stroke-width="1" />
</g>
<g stroke="#000000" fill="#9B5509" stroke-opacity="1.0" fill-opacity="1.0" transform="scale(0.5)">
<polygon points="578,396  519,396  519,392  578,392" stroke-width="1" />
<polygon points="578,405  578,411  519,411  519,405" stroke-width="1" />
<polygon points="578,420  578,426  519,426  519,420" stroke-width="1" />
<polygon points="578,435  519,435  519,439  578,439" stroke-width="1" />
</g>
<g stroke="#000000" fill="#FFFFFF" stroke-opacity="1.0" fill-opacity="1.0" transform="scale(0.5)">
<polygon points="585,377  579,383  573,377  579,371" stroke-width="1" />
<polyline points="627,413  615,413" stroke-width=" 0.5" fill="none"  />
</g>
<g stroke="#FF0000" fill="#FFFFFF" stroke-opacity="1.0" fill-opacity="1.0" transform="scale(0.5)">
<line x1="617" y1="415" x2="612" y2="415" stroke-width="1" />
<line x1="617" y1="419" x2="612" y2="419" stroke-width="1" />
<line x1="617" y1="423" x2="612" y2="423" stroke-width="1" />
<line x1="617" y1="427" x2="612" y2="427" stroke-width="1" />
<line x1="617" y1="431" x2="612" y2="431" stroke-width="1" />
<line x1="617" y1="435" x2="612" y2="435" stroke-width="1" />
<line x1="617" y1="439" x2="612" y2="439" stroke-width="1" />
<line x1="617" y1="443" x2="612" y2="443" stroke-width="1" />
<line x1="617" y1="447" x2="612" y2="447" stroke-width="1" />
<line x1="617" y1="451" x2="612" y2="451" stroke-width="1" />
<line x1="617" y1="455" x2="612" y2="455" stroke-width="1" />
<line x1="617" y1="459" x2="612" y2="459" stroke-width="1" />
</g>
<g stroke="#009900" fill="#FFFFFF" stroke-opacity="1.0" fill-opacity="1.0" transform="scale(0.5)">
<line x1="612" y1="412" x2="615" y2="409" stroke-width="1" />
<line x1="609.124046496" y1="409.219911613" x2="612.124046496" y2="406.219911613" stroke-width="1" />
<line x1="606.248092992" y1="406.439823225" x2="609.248092992" y2="403.439823225" stroke-width="1" />
<line x1="603.372139487" y1="403.659734838" x2="606.372139487" y2="400.659734838" stroke-width="1" />
<line x1="600.496185983" y1="400.87964645" x2="603.496185983" y2="397.87964645" stroke-width="1" />
<line x1="597.620232479" y1="398.099558063" x2="600.620232479" y2="395.099558063" stroke-width="1" />
<line x1="594.744278975" y1="395.319469676" x2="597.744278975" y2="392.319469676" stroke-width="1" />
<line x1="591.868325471" y1="392.539381288" x2="594.868325471" y2="389.539381288" stroke-width="1" />
<line x1="588.992371966" y1="389.759292901" x2="591.992371966" y2="386.759292901" stroke-width="1" />
<line x1="586.116418462" y1="386.979204513" x2="589.116418462" y2="383.979204513" stroke-width="1" />
<line x1="583.240464958" y1="384.199116126" x2="586.240464958" y2="381.199116126" stroke-width="1" />
</g>
<g stroke="#000000" fill="none" stroke-opacity="1.0" fill-opacity="1.0" transform="scale(0.5)">
<polyline points="620,368  620,360  594,360  594,368" stroke-width="1" fill="none"  />
<text x=" 598" y="366.0" font-family="Arial" font-size=" 7" fill="#000000" stroke-width="0">кассы</text>
</g>
<g stroke="#FF0000" fill="none" stroke-opacity="1.0" fill-opacity="1.0" transform="scale(0.5)">
<polyline points="589,431  603,431" marker-end="url(#arrow)" stroke-width="1" fill="none" />
</g>
<g stroke="#009900" fill="none" stroke-opacity="1.0" fill-opacity="1.0" transform="scale(0.5)">
<polyline points="629,387  613,387" marker-end="url(#arrow)" stroke-width="1" fill="none" />
</g>
<g stroke="#000000" fill="none" stroke-opacity="1.0" fill-opacity="1.0" transform="scale(0.5)">
<polyline points="92,375  92,390" stroke-width="1" fill="none"  />
<polyline points="92,455  92,440" stroke-width="1" fill="none"  />
<polyline points="99,390  62,390  62,362  2,362  2,289  -72,289" stroke-width="1" fill="none"  />
<polyline points="-72,307  -22,307  -22,362  -34,362  -34,467  -22,467  -22,553  52,553" stroke-width="1" fill="none"  />
<polyline points="52,535  2,535  2,467  62,467  62,440  99,440" stroke-width="1" fill="none"  />
<line x1="99" y1="440" x2="99" y2="390" stroke-width="1" />
<line x1="95" y1="440" x2="95" y2="390" stroke-width="1" />
<line x1="91" y1="440" x2="91" y2="390" stroke-width="1" />
<line x1="87" y1="440" x2="87" y2="390" stroke-width="1" />
<line x1="83" y1="440" x2="83" y2="390" stroke-width="1" />
<line x1="79" y1="440" x2="79" y2="390" stroke-width="1" />
<line x1="75" y1="440" x2="75" y2="390" stroke-width="1" />
<line x1="71" y1="440" x2="71" y2="390" stroke-width="1" />
<line x1="67" y1="440" x2="67" y2="390" stroke-width="1" />
<line x1="63" y1="440" x2="63" y2="390" stroke-width="1" />
<line x1="-70" y1="307" x2="-70" y2="289" stroke-width="1" />
<line x1="-66" y1="307" x2="-66" y2="289" stroke-width="1" />
<line x1="-62" y1="307" x2="-62" y2="289" stroke-width="1" />
<line x1="-58" y1="307" x2="-58" y2="289" stroke-width="1" />
<line x1="-54" y1="307" x2="-54" y2="289" stroke-width="1" />
<line x1="-50" y1="307" x2="-50" y2="289" stroke-width="1" />
<line x1="-46" y1="307" x2="-46" y2="289" stroke-width="1" />
<line x1="-42" y1="307" x2="-42" y2="289" stroke-width="1" />
<line x1="-38" y1="307" x2="-38" y2="289" stroke-width="1" />
<line x1="-34" y1="307" x2="-34" y2="289" stroke-width="1" />
<line x1="-30" y1="307" x2="-30" y2="289" stroke-width="1" />
<line x1="-26" y1="307" x2="-26" y2="289" stroke-width="1" />
<line x1="50" y1="535" x2="50" y2="553" stroke-width="1" />
<line x1="46" y1="535" x2="46" y2="553" stroke-width="1" />
<line x1="42" y1="535" x2="42" y2="553" stroke-width="1" />
<line x1="38" y1="535" x2="38" y2="553" stroke-width="1" />
<line x1="34" y1="535" x2="34" y2="553" stroke-width="1" />
<line x1="30" y1="535" x2="30" y2="553" stroke-width="1" />
<line x1="26" y1="535" x2="26" y2="553" stroke-width="1" />
<line x1="22" y1="535" x2="22" y2="553" stroke-width="1" />
<line x1="18" y1="535" x2="18" y2="553" stroke-width="1" />
<line x1="14" y1="535" x2="14" y2="553" stroke-width="1" />
<line x1="10" y1="535" x2="10" y2="553" stroke-width="1" />
<line x1="6" y1="535" x2="6" y2="553" stroke-width="1" />
</g>
<g stroke="#000000" fill="#C0C0C0" stroke-opacity="1.0" fill-opacity="1.0" transform="scale(0.5)">
<polygon points="2,433  2,391  9,391  9,433" stroke-width="1" />
</g>
<g stroke="#000000" fill="#FFFFFF" stroke-opacity="1.0" fill-opacity="1.0" transform="scale(0.5)">
<polyline points="55,448  38,448  38,440" stroke-width=" 0.5" fill="none"  />
<polygon points="43,409  33,409  33,399  43,399" stroke-width="1" />
<polyline points="38,398  38,394  9,394" stroke-width=" 0.5" fill="none"  />
</g>
<g stroke="#009900" fill="#FFFFFF" stroke-opacity="1.0" fill-opacity="1.0" transform="scale(0.5)">
<line x1="36" y1="440" x2="40" y2="440" stroke-width="1" />
<line x1="36" y1="436" x2="40" y2="436" stroke-width="1" />
<line x1="36" y1="432" x2="40" y2="432" stroke-width="1" />
<line x1="36" y1="428" x2="40" y2="428" stroke-width="1" />
<line x1="36" y1="424" x2="40" y2="424" stroke-width="1" />
<line x1="36" y1="420" x2="40" y2="420" stroke-width="1" />
<line x1="36" y1="416" x2="40" y2="416" stroke-width="1" />
<line x1="36" y1="412" x2="40" y2="412" stroke-width="1" />
</g>
<g stroke="#000000" fill="none" stroke-opacity="1.0" fill-opacity="1.0" transform="scale(0.5)">
<polyline points="62,448  55,448  55,467" stroke-width="1" fill="none"  />
<text x=" 54" y="473.0" font-family="Arial" font-size=" 7" fill="#000000" transform="rotate(-90.0  54  466)" stroke-width="0">кассы</text>
</g>
<g stroke="#00CCCC" fill="none" stroke-opacity="1.0" fill-opacity="1.0" transform="scale(0.5)">
<text x=" 675" y="378.0" font-family="Arial" font-size=" 15" fill="#00CCCC" stroke-width="0">ул. Кошурникова</text>
<text x=" -155" y="422.0" font-family="Arial" font-size=" 15" fill="#00CCCC" stroke-width="0">ул. Кошурникова</text>
<text x=" 740" y="611.0" font-family="Arial" font-size=" 15" fill="#00CCCC" transform="rotate(-90.0  740  596)" stroke-width="0">ул. Бориса Богаткова</text>
</g>
<g stroke="#FF0000" fill="none" stroke-opacity="1.0" fill-opacity="1.0" transform="scale(0.5)">
<polyline points="49,378  28,378" marker-end="url(#arrow)" stroke-width="1" fill="none" />
</g>
<g stroke="#009900" fill="none" stroke-opacity="1.0" fill-opacity="1.0" transform="scale(0.5)">
<polyline points="28,426  49,426" marker-end="url(#arrow)" stroke-width="1" fill="none" />
</g>
</g>
</g>
</svg>
