<?xml version="1.0" encoding="utf-8" ?>
<svg baseProfile="full" height="100%" version="1.1" width="100%" xmlns="http://www.w3.org/2000/svg" xmlns:ev="http://www.w3.org/2001/xml-events" xmlns:xlink="http://www.w3.org/1999/xlink">
  <defs>
    <marker id="id491" markerHeight="3" markerUnits="strokeWidth" markerWidth="4" orient="auto" refX="0" refY="5" viewBox="0,0,10,10">
      <path d="M 0 0 L 10 5 L 0 10 z"/>
    </marker>
  </defs>
  <g transform="scale(0.5)">
    <rect fill="none" height="1060" stroke="none" stroke-width="0" width="450" x="0" y="0"/>
    <g transform="rotate(80.0,225,530)">
      <polygon fill="#00861d" points="302,438 302,408 752,408 752,438" stroke="#000000" stroke-width="1"/>
      <polygon fill="#00861d" points="302,548 302,518 752,518 752,548" stroke="#000000" stroke-width="1"/>
      <text fill="#00861d" font-family="Arial" font-size="20" stroke="none" stroke-width="0" x="608" y="568.0">Ботаническая &gt;&gt;</text>
      <text fill="#00861d" font-family="Arial" font-size="20" stroke="none" stroke-width="0" x="302" y="404.0">&lt;&lt; Геологическая</text>
      <text fill="#00861d" font-family="Arial" font-size="25" stroke="none" stroke-width="0" x="421" y="484.0">Чкаловская</text>
      <polyline fill="none" points="752,438 752,457 670,457 670,499 752,499 752,518" stroke="#000000" stroke-width="1"/>
      <polygon fill="#d0d0d0" points="655,457 655,499 612,499 612,457" stroke="#000000" stroke-width="1"/>
      <polygon fill="#d0d0d0" points="68,435 68,432 8,432 8,404 4,404 4,441 18,441 18,436" stroke="#d0d0d0" stroke-width="1"/>
      <polyline fill="none" points="302,438 302,456 238,456 238,450 210,450 210,454" stroke="#000000" stroke-width="1"/>
      <polyline fill="none" points="138,454 138,450 85,450 85,436 18,436 18,441 4,441 4,404 8,404 8,432 73,432" stroke="#000000" stroke-width="1"/>
      <polyline fill="none" points="302,518 302,502 238,502 238,508 210,508 210,504" stroke="#000000" stroke-width="1"/>
      <polyline fill="none" points="138,504 138,508 85,508 85,522 18,522 18,517 4,517 4,585 -39,585 -39,605 14,605" stroke="#000000" stroke-width="1"/>
      <polyline fill="none" points="74,409 31,409 31,388 -73,388 -73,327" stroke="#000000" stroke-width="1"/>
      <polyline fill="none" points="-227,559 -227,621 -181,621 -181,573 -73,586 -73,673" stroke="#000000" stroke-width="1"/>
      <polyline fill="none" points="-50,673 -50,627 14,627" stroke="#000000" stroke-width="1"/>
      <polyline fill="none" points="-181,341 -181,415 -177,415 -96,389 -96,327" stroke="#000000" stroke-width="1"/>
      <polyline fill="none" points="-31,412 -41,412" stroke="#000000" stroke-width="1"/>
      <polyline fill="none" points="-205,341 -205,414" stroke="#000000" stroke-width="1"/>
      <polyline fill="none" points="-216,404 -216,415 -282,415" stroke="#000000" stroke-width="1"/>
      <polyline fill="none" points="-205,595 -205,438 -282,438" stroke="#000000" stroke-width="1"/>
      <polyline fill="none" points="-216,610 -205,610" stroke="#000000" stroke-width="1"/>
      <polyline fill="none" points="-50,585 -50,594" stroke="#000000" stroke-width="1"/>
      <line stroke="#000000" stroke-width="1" x1="70" x2="70" y1="432" y2="414"/>
      <line stroke="#000000" stroke-width="1" x1="66" x2="66" y1="432" y2="414"/>
      <line stroke="#000000" stroke-width="1" x1="62" x2="62" y1="432" y2="414"/>
      <line stroke="#000000" stroke-width="1" x1="58" x2="58" y1="432" y2="414"/>
      <line stroke="#000000" stroke-width="1" x1="54" x2="54" y1="432" y2="414"/>
      <line stroke="#000000" stroke-width="1" x1="50" x2="50" y1="432" y2="414"/>
      <line stroke="#000000" stroke-width="1" x1="46" x2="46" y1="432" y2="414"/>
      <line stroke="#000000" stroke-width="1" x1="42" x2="42" y1="432" y2="414"/>
      <line stroke="#000000" stroke-width="1" x1="38" x2="38" y1="432" y2="414"/>
      <line stroke="#000000" stroke-width="1" x1="34" x2="34" y1="432" y2="414"/>
      <polyline fill="none" points="32,414 73,414" stroke="#000000" stroke-width="0.5"/>
      <line stroke="#000000" stroke-width="1" x1="26" x2="8" y1="410" y2="410"/>
      <line stroke="#000000" stroke-width="1" x1="26" x2="8" y1="406" y2="406"/>
      <polyline fill="none" points="26,412 26,404" stroke="#000000" stroke-width="0.5"/>
      <line stroke="#000000" stroke-width="1" x1="-55" x2="-73" y1="669" y2="669"/>
      <line stroke="#000000" stroke-width="1" x1="-55" x2="-73" y1="665" y2="665"/>
      <line stroke="#000000" stroke-width="1" x1="-55" x2="-73" y1="661" y2="661"/>
      <line stroke="#000000" stroke-width="1" x1="-55" x2="-73" y1="657" y2="657"/>
      <line stroke="#000000" stroke-width="1" x1="-55" x2="-73" y1="653" y2="653"/>
      <line stroke="#000000" stroke-width="1" x1="-55" x2="-73" y1="649" y2="649"/>
      <line stroke="#000000" stroke-width="1" x1="-55" x2="-73" y1="645" y2="645"/>
      <line stroke="#000000" stroke-width="1" x1="-55" x2="-73" y1="641" y2="641"/>
      <line stroke="#000000" stroke-width="1" x1="-55" x2="-73" y1="637" y2="637"/>
      <polyline fill="none" points="-55,672 -55,632" stroke="#000000" stroke-width="0.5"/>
      <line stroke="#000000" stroke-width="1" x1="-92" x2="-73" y1="333" y2="333"/>
      <line stroke="#000000" stroke-width="1" x1="-92" x2="-73" y1="337" y2="337"/>
      <line stroke="#000000" stroke-width="1" x1="-92" x2="-73" y1="341" y2="341"/>
      <line stroke="#000000" stroke-width="1" x1="-92" x2="-73" y1="345" y2="345"/>
      <line stroke="#000000" stroke-width="1" x1="-92" x2="-73" y1="349" y2="349"/>
      <line stroke="#000000" stroke-width="1" x1="-92" x2="-73" y1="353" y2="353"/>
      <line stroke="#000000" stroke-width="1" x1="-92" x2="-73" y1="357" y2="357"/>
      <line stroke="#000000" stroke-width="1" x1="-92" x2="-73" y1="361" y2="361"/>
      <line stroke="#000000" stroke-width="1" x1="-92" x2="-73" y1="365" y2="365"/>
      <line stroke="#000000" stroke-width="1" x1="-92" x2="-73" y1="369" y2="369"/>
      <line stroke="#000000" stroke-width="1" x1="-92" x2="-73" y1="373" y2="373"/>
      <line stroke="#000000" stroke-width="1" x1="-92" x2="-73" y1="377" y2="377"/>
      <polyline fill="none" points="-92,331 -92,380" stroke="#000000" stroke-width="0.5"/>
      <line stroke="#000000" stroke-width="1" x1="-186" x2="-205" y1="345" y2="345"/>
      <line stroke="#000000" stroke-width="1" x1="-186" x2="-205" y1="349" y2="349"/>
      <line stroke="#000000" stroke-width="1" x1="-186" x2="-205" y1="353" y2="353"/>
      <line stroke="#000000" stroke-width="1" x1="-186" x2="-205" y1="357" y2="357"/>
      <line stroke="#000000" stroke-width="1" x1="-186" x2="-205" y1="361" y2="361"/>
      <line stroke="#000000" stroke-width="1" x1="-186" x2="-205" y1="365" y2="365"/>
      <line stroke="#000000" stroke-width="1" x1="-186" x2="-205" y1="369" y2="369"/>
      <line stroke="#000000" stroke-width="1" x1="-186" x2="-205" y1="373" y2="373"/>
      <line stroke="#000000" stroke-width="1" x1="-186" x2="-205" y1="377" y2="377"/>
      <line stroke="#000000" stroke-width="1" x1="-186" x2="-205" y1="381" y2="381"/>
      <line stroke="#000000" stroke-width="1" x1="-186" x2="-205" y1="385" y2="385"/>
      <line stroke="#000000" stroke-width="1" x1="-186" x2="-205" y1="389" y2="389"/>
      <polyline fill="none" points="-186,343 -186,392" stroke="#000000" stroke-width="0.5"/>
      <line stroke="#000000" stroke-width="1" x1="-275" x2="-275" y1="415" y2="433"/>
      <line stroke="#000000" stroke-width="1" x1="-271" x2="-271" y1="415" y2="433"/>
      <line stroke="#000000" stroke-width="1" x1="-267" x2="-267" y1="415" y2="433"/>
      <line stroke="#000000" stroke-width="1" x1="-263" x2="-263" y1="415" y2="433"/>
      <line stroke="#000000" stroke-width="1" x1="-259" x2="-259" y1="415" y2="433"/>
      <line stroke="#000000" stroke-width="1" x1="-255" x2="-255" y1="415" y2="433"/>
      <line stroke="#000000" stroke-width="1" x1="-251" x2="-251" y1="415" y2="433"/>
      <line stroke="#000000" stroke-width="1" x1="-247" x2="-247" y1="415" y2="433"/>
      <line stroke="#000000" stroke-width="1" x1="-243" x2="-243" y1="415" y2="433"/>
      <line stroke="#000000" stroke-width="1" x1="-239" x2="-239" y1="415" y2="433"/>
      <line stroke="#000000" stroke-width="1" x1="-235" x2="-235" y1="415" y2="433"/>
      <line stroke="#000000" stroke-width="1" x1="-231" x2="-231" y1="415" y2="433"/>
      <polyline fill="none" points="-278,433 -227,433" stroke="#000000" stroke-width="0.5"/>
      <line stroke="#000000" stroke-width="1" x1="-222" x2="-205" y1="562" y2="562"/>
      <line stroke="#000000" stroke-width="1" x1="-222" x2="-205" y1="566" y2="566"/>
      <line stroke="#000000" stroke-width="1" x1="-222" x2="-205" y1="570" y2="570"/>
      <line stroke="#000000" stroke-width="1" x1="-222" x2="-205" y1="574" y2="574"/>
      <line stroke="#000000" stroke-width="1" x1="-222" x2="-205" y1="578" y2="578"/>
      <line stroke="#000000" stroke-width="1" x1="-222" x2="-205" y1="582" y2="582"/>
      <line stroke="#000000" stroke-width="1" x1="-222" x2="-205" y1="586" y2="586"/>
      <line stroke="#000000" stroke-width="1" x1="-222" x2="-205" y1="590" y2="590"/>
      <line stroke="#000000" stroke-width="1" x1="-222" x2="-205" y1="594" y2="594"/>
      <polyline fill="none" points="-222,596 -222,560" stroke="#000000" stroke-width="0.5"/>
      <line stroke="#000000" stroke-width="1" x1="-186" x2="-205" y1="584" y2="584"/>
      <line stroke="#000000" stroke-width="1" x1="-186" x2="-205" y1="588" y2="588"/>
      <line stroke="#000000" stroke-width="1" x1="-186" x2="-205" y1="592" y2="592"/>
      <polyline fill="none" points="-186,582 -186,610" stroke="#000000" stroke-width="0.5"/>
      <line stroke="#000000" stroke-width="1" x1="-73" x2="-55" y1="589" y2="589"/>
      <line stroke="#000000" stroke-width="1" x1="-73" x2="-55" y1="593" y2="593"/>
      <line stroke="#000000" stroke-width="1" x1="-73" x2="-55" y1="597" y2="597"/>
      <polyline fill="none" points="-55,600 -55,588" stroke="#000000" stroke-width="0.5"/>
      <line stroke="#000000" stroke-width="1" x1="-102" x2="-100" y1="576" y2="559"/>
      <line stroke="#000000" stroke-width="1" x1="-105.975534939" x2="-103.975534939" y1="575.558273896" y2="558.558273896"/>
      <line stroke="#000000" stroke-width="1" x1="-109.951069877" x2="-107.951069877" y1="575.116547791" y2="558.116547791"/>
      <polyline fill="none" points="-97,577 -114,575" stroke="#000000" stroke-width="0.5"/>
      <line stroke="#000000" stroke-width="1" x1="-141" x2="-143" y1="554" y2="571"/>
      <line stroke="#000000" stroke-width="1" x1="-144.980148761" x2="-146.980148761" y1="553.601985124" y2="570.601985124"/>
      <line stroke="#000000" stroke-width="1" x1="-148.960297522" x2="-150.960297522" y1="553.203970248" y2="570.203970248"/>
      <polyline fill="none" points="-138,572 -154,570" stroke="#000000" stroke-width="0.5"/>
      <line stroke="#000000" stroke-width="1" x1="8" x2="8" y1="627" y2="610"/>
      <line stroke="#000000" stroke-width="1" x1="4" x2="4" y1="627" y2="610"/>
      <line stroke="#000000" stroke-width="1" x1="0" x2="0" y1="627" y2="610"/>
      <line stroke="#000000" stroke-width="1" x1="-4" x2="-4" y1="627" y2="610"/>
      <line stroke="#000000" stroke-width="1" x1="-8" x2="-8" y1="627" y2="610"/>
      <line stroke="#000000" stroke-width="1" x1="-12" x2="-12" y1="627" y2="610"/>
      <line stroke="#000000" stroke-width="1" x1="-16" x2="-16" y1="627" y2="610"/>
      <line stroke="#000000" stroke-width="1" x1="-20" x2="-20" y1="627" y2="610"/>
      <line stroke="#000000" stroke-width="1" x1="-24" x2="-24" y1="627" y2="610"/>
      <polyline fill="none" points="11,610 -27,610" stroke="#000000" stroke-width="0.5"/>
      <polygon fill="#d0d0d0" points="4,493 18,493 18,465 4,465" stroke="#000000" stroke-width="1"/>
      <polygon fill="#d0d0d0" points="-181,438 -172,438 -89,412 -51,412 -51,423 -20,423 -20,561 -80,561 -181,549" stroke="#000000" stroke-width="1"/>
      <line stroke="#7f7f7f" stroke-width="1" x1="136" x2="136" y1="501" y2="457"/>
      <line stroke="#7f7f7f" stroke-width="1" x1="140" x2="140" y1="501" y2="457"/>
      <line stroke="#7f7f7f" stroke-width="1" x1="144" x2="144" y1="501" y2="457"/>
      <line stroke="#7f7f7f" stroke-width="1" x1="148" x2="148" y1="501" y2="457"/>
      <line stroke="#7f7f7f" stroke-width="1" x1="152" x2="152" y1="501" y2="457"/>
      <line stroke="#7f7f7f" stroke-width="1" x1="156" x2="156" y1="501" y2="457"/>
      <line stroke="#7f7f7f" stroke-width="1" x1="160" x2="160" y1="501" y2="457"/>
      <line stroke="#7f7f7f" stroke-width="1" x1="164" x2="164" y1="501" y2="457"/>
      <line stroke="#7f7f7f" stroke-width="1" x1="168" x2="168" y1="501" y2="457"/>
      <line stroke="#7f7f7f" stroke-width="1" x1="172" x2="172" y1="501" y2="457"/>
      <line stroke="#7f7f7f" stroke-width="1" x1="176" x2="176" y1="501" y2="457"/>
      <line stroke="#7f7f7f" stroke-width="1" x1="180" x2="180" y1="501" y2="457"/>
      <line stroke="#7f7f7f" stroke-width="1" x1="184" x2="184" y1="501" y2="457"/>
      <line stroke="#7f7f7f" stroke-width="1" x1="188" x2="188" y1="501" y2="457"/>
      <line stroke="#7f7f7f" stroke-width="1" x1="192" x2="192" y1="501" y2="457"/>
      <line stroke="#7f7f7f" stroke-width="1" x1="196" x2="196" y1="501" y2="457"/>
      <line stroke="#7f7f7f" stroke-width="1" x1="200" x2="200" y1="501" y2="457"/>
      <line stroke="#7f7f7f" stroke-width="1" x1="204" x2="204" y1="501" y2="457"/>
      <line stroke="#7f7f7f" stroke-width="1" x1="208" x2="208" y1="501" y2="457"/>
      <line stroke="#7f7f7f" stroke-width="1" x1="212" x2="212" y1="501" y2="457"/>
      <polygon fill="#9b5509" points="130,504 218,504 218,501 130,501" stroke="#000000" stroke-width="1"/>
      <polygon fill="#9b5509" points="130,493 218,493 218,489 130,489" stroke="#000000" stroke-width="1"/>
      <polygon fill="#9b5509" points="130,481 218,481 218,477 130,477" stroke="#000000" stroke-width="1"/>
      <polygon fill="#9b5509" points="130,469 218,469 218,465 130,465" stroke="#000000" stroke-width="1"/>
      <polygon fill="#9b5509" points="130,457 218,457 218,454 130,454" stroke="#000000" stroke-width="1"/>
      <polyline fill="none" points="69,522 69,529 32,529 32,522" stroke="#000000" stroke-width="1"/>
      <text fill="#000000" font-family="Arial" font-size="8" stroke="none" stroke-width="0" x="40" y="528.0">кассы</text>
      <polyline fill="none" points="62,469 58,461" stroke="#000000" stroke-width="0.5"/>
      <polygon fill="none" points="67,473 62,475 60,470 65,468" stroke="#000000" stroke-width="1"/>
      <line stroke="#009900" stroke-width="1" x1="87" x2="91" y1="506" y2="504"/>
      <line stroke="#009900" stroke-width="1" x1="85.1233790962" x2="89.1233790962" y1="502.467537122" y2="500.467537122"/>
      <line stroke="#009900" stroke-width="1" x1="83.2467581923" x2="87.2467581923" y1="498.935074244" y2="496.935074244"/>
      <line stroke="#009900" stroke-width="1" x1="81.3701372885" x2="85.3701372885" y1="495.402611367" y2="493.402611367"/>
      <line stroke="#009900" stroke-width="1" x1="79.4935163846" x2="83.4935163846" y1="491.870148489" y2="489.870148489"/>
      <line stroke="#009900" stroke-width="1" x1="77.6168954808" x2="81.6168954808" y1="488.337685611" y2="486.337685611"/>
      <line stroke="#009900" stroke-width="1" x1="75.7402745769" x2="79.7402745769" y1="484.805222733" y2="482.805222733"/>
      <line stroke="#009900" stroke-width="1" x1="73.8636536731" x2="77.8636536731" y1="481.272759855" y2="479.272759855"/>
      <line stroke="#009900" stroke-width="1" x1="71.9870327692" x2="75.9870327692" y1="477.740296977" y2="475.740296977"/>
      <line stroke="#009900" stroke-width="1" x1="70.1104118654" x2="74.1104118654" y1="474.2078341" y2="472.2078341"/>
      <line stroke="#ff0000" stroke-width="1" x1="56" x2="60" y1="461" y2="461"/>
      <line stroke="#ff0000" stroke-width="1" x1="56" x2="60" y1="457" y2="457"/>
      <line stroke="#ff0000" stroke-width="1" x1="56" x2="60" y1="453" y2="453"/>
      <line stroke="#ff0000" stroke-width="1" x1="56" x2="60" y1="449" y2="449"/>
      <line stroke="#ff0000" stroke-width="1" x1="56" x2="60" y1="445" y2="445"/>
      <line stroke="#ff0000" stroke-width="1" x1="56" x2="60" y1="441" y2="441"/>
      <line stroke="#ff0000" stroke-width="1" x1="56" x2="60" y1="437" y2="437"/>
      <polyline fill="none" marker-end="url(#id491)" points="268,467 251,467" stroke="#ff0000" stroke-width="1"/>
      <polyline fill="none" marker-end="url(#id491)" points="97,488 110,488" stroke="#009900" stroke-width="1"/>
      <polygon fill="#d0efff" points="-227,610 -216,610 -216,621 -227,621" stroke="#000000" stroke-width="1"/>
      <text fill="#000000" font-family="Arial" font-size="4" stroke="none" stroke-width="0" transform="rotate(-80.0,-224,619)" x="-224" y="623.0">лифт</text>
      <polygon fill="#d0efff" points="-50,594 -39,594 -39,605 -50,605" stroke="#000000" stroke-width="1"/>
      <text fill="#000000" font-family="Arial" font-size="4" stroke="none" stroke-width="0" transform="rotate(-80.0,-47,603)" x="-47" y="607.0">лифт</text>
      <polygon fill="#d0efff" points="-31,412 -20,412 -20,423 -31,423" stroke="#000000" stroke-width="1"/>
      <text fill="#000000" font-family="Arial" font-size="4" stroke="none" stroke-width="0" transform="rotate(-80.0,-28,421)" x="-28" y="425.0">лифт</text>
      <polygon fill="#d0efff" points="-216,393 -205,393 -205,404 -216,404" stroke="#000000" stroke-width="1"/>
      <text fill="#000000" font-family="Arial" font-size="4" stroke="none" stroke-width="0" transform="rotate(-80.0,-213,402)" x="-213" y="406.0">лифт</text>
      <text fill="#00afaf" font-family="Arial" font-size="15" stroke="none" stroke-width="0" transform="rotate(-90.0,-139,677)" x="-139" y="692.0">улица Щорса</text>
      <text fill="#00afaf" font-family="Arial" font-size="15" stroke="none" stroke-width="0" x="57" y="572.0">улица 8-го марта</text>
    </g>
  </g>
</svg>
