<?xml version="1.0" encoding="utf-8" ?>
<svg baseProfile="full" height="740.0" version="1.1" width="650.0" xmlns="http://www.w3.org/2000/svg" xmlns:ev="http://www.w3.org/2001/xml-events" xmlns:xlink="http://www.w3.org/1999/xlink">
  <defs>
    <marker id="id494" markerHeight="3" markerUnits="strokeWidth" markerWidth="4" orient="auto" refX="0" refY="5" viewBox="0,0,10,10">
      <path d="M 0 0 L 10 5 L 0 10 z"/>
    </marker>
  </defs>
  <g>
    <rect fill="none" height="740.0" stroke="none" stroke-width="0" width="650.0" x="0.0" y="0.0"/>
    <g transform="rotate(75.0,325.0,370.0)">
      <polygon fill="#00861d" points="-45.0,396.0 -45.0,366.0 405.0,366.0 405.0,396.0" stroke="#000000" stroke-width="1"/>
      <polygon fill="#00861d" points="-45.0,506.0 -45.0,476.0 405.0,476.0 405.0,506.0" stroke="#000000" stroke-width="1"/>
      <text fill="#00861d" font-family="Arial" font-size="20.0" stroke="none" stroke-width="0" x="281.0" y="526.0">Чкаловская &gt;&gt;</text>
      <text fill="#00861d" font-family="Arial" font-size="20.0" stroke="none" stroke-width="0" x="-45.0" y="359.0">&lt;&lt; Площадь 1905 года</text>
      <text fill="#00861d" font-family="Arial" font-size="25.0" stroke="none" stroke-width="0" x="88.0" y="417.0">Геологическая</text>
      <line stroke="#000000" stroke-width="1" x1="131.0" x2="131.0" y1="423.0" y2="449.0"/>
      <line stroke="#000000" stroke-width="1" x1="127.0" x2="127.0" y1="423.0" y2="449.0"/>
      <line stroke="#000000" stroke-width="1" x1="123.0" x2="123.0" y1="423.0" y2="449.0"/>
      <line stroke="#000000" stroke-width="1" x1="119.0" x2="119.0" y1="423.0" y2="449.0"/>
      <line stroke="#000000" stroke-width="1" x1="115.0" x2="115.0" y1="423.0" y2="449.0"/>
      <line stroke="#000000" stroke-width="1" x1="111.0" x2="111.0" y1="423.0" y2="449.0"/>
      <line stroke="#000000" stroke-width="1" x1="107.0" x2="107.0" y1="423.0" y2="449.0"/>
      <line stroke="#000000" stroke-width="1" x1="103.0" x2="103.0" y1="423.0" y2="449.0"/>
      <line stroke="#000000" stroke-width="1" x1="99.0" x2="99.0" y1="423.0" y2="449.0"/>
      <line stroke="#000000" stroke-width="1" x1="95.0" x2="95.0" y1="423.0" y2="449.0"/>
      <line stroke="#000000" stroke-width="1" x1="91.0" x2="91.0" y1="423.0" y2="449.0"/>
      <line stroke="#000000" stroke-width="1" x1="87.0" x2="87.0" y1="423.0" y2="449.0"/>
      <line stroke="#000000" stroke-width="1" x1="83.0" x2="83.0" y1="423.0" y2="449.0"/>
      <line stroke="#000000" stroke-width="1" x1="216.0" x2="216.0" y1="449.0" y2="423.0"/>
      <line stroke="#000000" stroke-width="1" x1="220.0" x2="220.0" y1="449.0" y2="423.0"/>
      <line stroke="#000000" stroke-width="1" x1="224.0" x2="224.0" y1="449.0" y2="423.0"/>
      <line stroke="#000000" stroke-width="1" x1="228.0" x2="228.0" y1="449.0" y2="423.0"/>
      <line stroke="#000000" stroke-width="1" x1="232.0" x2="232.0" y1="449.0" y2="423.0"/>
      <line stroke="#000000" stroke-width="1" x1="236.0" x2="236.0" y1="449.0" y2="423.0"/>
      <line stroke="#000000" stroke-width="1" x1="240.0" x2="240.0" y1="449.0" y2="423.0"/>
      <line stroke="#000000" stroke-width="1" x1="244.0" x2="244.0" y1="449.0" y2="423.0"/>
      <line stroke="#000000" stroke-width="1" x1="248.0" x2="248.0" y1="449.0" y2="423.0"/>
      <line stroke="#000000" stroke-width="1" x1="252.0" x2="252.0" y1="449.0" y2="423.0"/>
      <line stroke="#000000" stroke-width="1" x1="256.0" x2="256.0" y1="449.0" y2="423.0"/>
      <line stroke="#000000" stroke-width="1" x1="260.0" x2="260.0" y1="449.0" y2="423.0"/>
      <line stroke="#000000" stroke-width="1" x1="264.0" x2="264.0" y1="449.0" y2="423.0"/>
      <polyline fill="none" points="81.0,423.0 131.0,423.0" stroke="#000000" stroke-width="1"/>
      <polyline fill="none" points="131.0,449.0 81.0,449.0" stroke="#000000" stroke-width="1"/>
      <polyline fill="none" points="266.0,449.0 216.0,449.0" stroke="#000000" stroke-width="1"/>
      <polyline fill="none" points="216.0,423.0 266.0,423.0" stroke="#000000" stroke-width="1"/>
      <polyline fill="none" points="131.0,449.0 215.0,449.0" stroke="#d0d0d0" stroke-width="1"/>
      <polyline fill="none" points="131.0,423.0 153.0,423.0 153.0,417.0" stroke="#d0d0d0" stroke-width="1"/>
      <polyline fill="none" points="216.0,423.0 194.0,423.0 194.0,417.0" stroke="#d0d0d0" stroke-width="1"/>
      <polyline fill="none" points="-45.0,396.0 -45.0,476.0" stroke="#000000" stroke-width="1"/>
      <polyline fill="none" points="405.0,396.0 405.0,408.0 424.0,408.0 424.0,412.0" stroke="#000000" stroke-width="1"/>
      <polyline fill="none" points="512.0,412.0 512.0,408.0 532.0,408.0 532.0,366.0 602.0,366.0 602.0,380.0 620.0,380.0 620.0,358.0 628.0,358.0 628.0,172.0 578.0,172.0" stroke="#000000" stroke-width="1"/>
      <polyline fill="none" points="405.0,476.0 405.0,466.0 424.0,466.0 424.0,462.0" stroke="#000000" stroke-width="1"/>
      <polyline fill="none" points="512.0,462.0 512.0,466.0 532.0,466.0 532.0,506.0 602.0,506.0 602.0,493.0 620.0,493.0 620.0,514.0 628.0,514.0 628.0,550.0 208.0,550.0" stroke="#000000" stroke-width="1"/>
      <polyline fill="none" points="578.0,154.0 697.0,154.0" stroke="#000000" stroke-width="1"/>
      <polyline fill="none" points="697.0,331.0 647.0,331.0 647.0,568.0 437.0,568.0 437.0,619.0" stroke="#000000" stroke-width="1"/>
      <polyline fill="none" points="419.0,619.0 419.0,568.0 208.0,568.0" stroke="#000000" stroke-width="1"/>
      <polyline fill="none" points="697.0,313.0 647.0,313.0 647.0,172.0 697.0,172.0" stroke="#000000" stroke-width="1"/>
      <line stroke="#000000" stroke-width="1" x1="580.0" x2="580.0" y1="172.0" y2="154.0"/>
      <line stroke="#000000" stroke-width="1" x1="584.0" x2="584.0" y1="172.0" y2="154.0"/>
      <line stroke="#000000" stroke-width="1" x1="588.0" x2="588.0" y1="172.0" y2="154.0"/>
      <line stroke="#000000" stroke-width="1" x1="592.0" x2="592.0" y1="172.0" y2="154.0"/>
      <line stroke="#000000" stroke-width="1" x1="596.0" x2="596.0" y1="172.0" y2="154.0"/>
      <line stroke="#000000" stroke-width="1" x1="600.0" x2="600.0" y1="172.0" y2="154.0"/>
      <line stroke="#000000" stroke-width="1" x1="604.0" x2="604.0" y1="172.0" y2="154.0"/>
      <line stroke="#000000" stroke-width="1" x1="608.0" x2="608.0" y1="172.0" y2="154.0"/>
      <line stroke="#000000" stroke-width="1" x1="612.0" x2="612.0" y1="172.0" y2="154.0"/>
      <line stroke="#000000" stroke-width="1" x1="616.0" x2="616.0" y1="172.0" y2="154.0"/>
      <line stroke="#000000" stroke-width="1" x1="620.0" x2="620.0" y1="172.0" y2="154.0"/>
      <line stroke="#000000" stroke-width="1" x1="624.0" x2="624.0" y1="172.0" y2="154.0"/>
      <line stroke="#000000" stroke-width="1" x1="695.0" x2="695.0" y1="172.0" y2="154.0"/>
      <line stroke="#000000" stroke-width="1" x1="691.0" x2="691.0" y1="172.0" y2="154.0"/>
      <line stroke="#000000" stroke-width="1" x1="687.0" x2="687.0" y1="172.0" y2="154.0"/>
      <line stroke="#000000" stroke-width="1" x1="683.0" x2="683.0" y1="172.0" y2="154.0"/>
      <line stroke="#000000" stroke-width="1" x1="679.0" x2="679.0" y1="172.0" y2="154.0"/>
      <line stroke="#000000" stroke-width="1" x1="675.0" x2="675.0" y1="172.0" y2="154.0"/>
      <line stroke="#000000" stroke-width="1" x1="671.0" x2="671.0" y1="172.0" y2="154.0"/>
      <line stroke="#000000" stroke-width="1" x1="667.0" x2="667.0" y1="172.0" y2="154.0"/>
      <line stroke="#000000" stroke-width="1" x1="663.0" x2="663.0" y1="172.0" y2="154.0"/>
      <line stroke="#000000" stroke-width="1" x1="659.0" x2="659.0" y1="172.0" y2="154.0"/>
      <line stroke="#000000" stroke-width="1" x1="655.0" x2="655.0" y1="172.0" y2="154.0"/>
      <line stroke="#000000" stroke-width="1" x1="651.0" x2="651.0" y1="172.0" y2="154.0"/>
      <line stroke="#000000" stroke-width="1" x1="695.0" x2="695.0" y1="331.0" y2="313.0"/>
      <line stroke="#000000" stroke-width="1" x1="691.0" x2="691.0" y1="331.0" y2="313.0"/>
      <line stroke="#000000" stroke-width="1" x1="687.0" x2="687.0" y1="331.0" y2="313.0"/>
      <line stroke="#000000" stroke-width="1" x1="683.0" x2="683.0" y1="331.0" y2="313.0"/>
      <line stroke="#000000" stroke-width="1" x1="679.0" x2="679.0" y1="331.0" y2="313.0"/>
      <line stroke="#000000" stroke-width="1" x1="675.0" x2="675.0" y1="331.0" y2="313.0"/>
      <line stroke="#000000" stroke-width="1" x1="671.0" x2="671.0" y1="331.0" y2="313.0"/>
      <line stroke="#000000" stroke-width="1" x1="667.0" x2="667.0" y1="331.0" y2="313.0"/>
      <line stroke="#000000" stroke-width="1" x1="663.0" x2="663.0" y1="331.0" y2="313.0"/>
      <line stroke="#000000" stroke-width="1" x1="659.0" x2="659.0" y1="331.0" y2="313.0"/>
      <line stroke="#000000" stroke-width="1" x1="655.0" x2="655.0" y1="331.0" y2="313.0"/>
      <line stroke="#000000" stroke-width="1" x1="651.0" x2="651.0" y1="331.0" y2="313.0"/>
      <line stroke="#000000" stroke-width="1" x1="419.0" x2="437.0" y1="617.0" y2="617.0"/>
      <line stroke="#000000" stroke-width="1" x1="419.0" x2="437.0" y1="613.0" y2="613.0"/>
      <line stroke="#000000" stroke-width="1" x1="419.0" x2="437.0" y1="609.0" y2="609.0"/>
      <line stroke="#000000" stroke-width="1" x1="419.0" x2="437.0" y1="605.0" y2="605.0"/>
      <line stroke="#000000" stroke-width="1" x1="419.0" x2="437.0" y1="601.0" y2="601.0"/>
      <line stroke="#000000" stroke-width="1" x1="419.0" x2="437.0" y1="597.0" y2="597.0"/>
      <line stroke="#000000" stroke-width="1" x1="419.0" x2="437.0" y1="593.0" y2="593.0"/>
      <line stroke="#000000" stroke-width="1" x1="419.0" x2="437.0" y1="589.0" y2="589.0"/>
      <line stroke="#000000" stroke-width="1" x1="419.0" x2="437.0" y1="585.0" y2="585.0"/>
      <line stroke="#000000" stroke-width="1" x1="419.0" x2="437.0" y1="581.0" y2="581.0"/>
      <line stroke="#000000" stroke-width="1" x1="419.0" x2="437.0" y1="577.0" y2="577.0"/>
      <line stroke="#000000" stroke-width="1" x1="419.0" x2="437.0" y1="573.0" y2="573.0"/>
      <line stroke="#000000" stroke-width="1" x1="210.0" x2="210.0" y1="568.0" y2="550.0"/>
      <line stroke="#000000" stroke-width="1" x1="214.0" x2="214.0" y1="568.0" y2="550.0"/>
      <line stroke="#000000" stroke-width="1" x1="218.0" x2="218.0" y1="568.0" y2="550.0"/>
      <line stroke="#000000" stroke-width="1" x1="222.0" x2="222.0" y1="568.0" y2="550.0"/>
      <line stroke="#000000" stroke-width="1" x1="226.0" x2="226.0" y1="568.0" y2="550.0"/>
      <line stroke="#000000" stroke-width="1" x1="230.0" x2="230.0" y1="568.0" y2="550.0"/>
      <line stroke="#000000" stroke-width="1" x1="234.0" x2="234.0" y1="568.0" y2="550.0"/>
      <line stroke="#000000" stroke-width="1" x1="238.0" x2="238.0" y1="568.0" y2="550.0"/>
      <line stroke="#000000" stroke-width="1" x1="242.0" x2="242.0" y1="568.0" y2="550.0"/>
      <line stroke="#000000" stroke-width="1" x1="246.0" x2="246.0" y1="568.0" y2="550.0"/>
      <line stroke="#000000" stroke-width="1" x1="250.0" x2="250.0" y1="568.0" y2="550.0"/>
      <line stroke="#000000" stroke-width="1" x1="254.0" x2="254.0" y1="568.0" y2="550.0"/>
      <line stroke="#000000" stroke-width="1" x1="647.0" x2="628.0" y1="357.0" y2="357.0"/>
      <line stroke="#000000" stroke-width="1" x1="647.0" x2="628.0" y1="353.0" y2="353.0"/>
      <line stroke="#000000" stroke-width="1" x1="647.0" x2="628.0" y1="349.0" y2="349.0"/>
      <line stroke="#000000" stroke-width="1" x1="647.0" x2="628.0" y1="295.0" y2="295.0"/>
      <line stroke="#000000" stroke-width="1" x1="647.0" x2="628.0" y1="291.0" y2="291.0"/>
      <line stroke="#000000" stroke-width="1" x1="647.0" x2="628.0" y1="287.0" y2="287.0"/>
      <line stroke="#000000" stroke-width="1" x1="628.0" x2="647.0" y1="514.0" y2="514.0"/>
      <line stroke="#000000" stroke-width="1" x1="628.0" x2="647.0" y1="518.0" y2="518.0"/>
      <line stroke="#000000" stroke-width="1" x1="628.0" x2="647.0" y1="522.0" y2="522.0"/>
      <line stroke="#000000" stroke-width="1" x1="460.0" x2="460.0" y1="550.0" y2="568.0"/>
      <line stroke="#000000" stroke-width="1" x1="456.0" x2="456.0" y1="550.0" y2="568.0"/>
      <line stroke="#000000" stroke-width="1" x1="452.0" x2="452.0" y1="550.0" y2="568.0"/>
      <polygon fill="#d0d0d0" points="620.0,464.0 602.0,464.0 602.0,408.0 620.0,408.0" stroke="#000000" stroke-width="1"/>
      <line stroke="#7f7f7f" stroke-width="1" x1="514.0" x2="514.0" y1="459.0" y2="415.0"/>
      <line stroke="#7f7f7f" stroke-width="1" x1="510.0" x2="510.0" y1="459.0" y2="415.0"/>
      <line stroke="#7f7f7f" stroke-width="1" x1="506.0" x2="506.0" y1="459.0" y2="415.0"/>
      <line stroke="#7f7f7f" stroke-width="1" x1="502.0" x2="502.0" y1="459.0" y2="415.0"/>
      <line stroke="#7f7f7f" stroke-width="1" x1="498.0" x2="498.0" y1="459.0" y2="415.0"/>
      <line stroke="#7f7f7f" stroke-width="1" x1="494.0" x2="494.0" y1="459.0" y2="415.0"/>
      <line stroke="#7f7f7f" stroke-width="1" x1="490.0" x2="490.0" y1="459.0" y2="415.0"/>
      <line stroke="#7f7f7f" stroke-width="1" x1="486.0" x2="486.0" y1="459.0" y2="415.0"/>
      <line stroke="#7f7f7f" stroke-width="1" x1="482.0" x2="482.0" y1="459.0" y2="415.0"/>
      <line stroke="#7f7f7f" stroke-width="1" x1="478.0" x2="478.0" y1="459.0" y2="415.0"/>
      <line stroke="#7f7f7f" stroke-width="1" x1="474.0" x2="474.0" y1="459.0" y2="415.0"/>
      <line stroke="#7f7f7f" stroke-width="1" x1="470.0" x2="470.0" y1="459.0" y2="415.0"/>
      <line stroke="#7f7f7f" stroke-width="1" x1="466.0" x2="466.0" y1="459.0" y2="415.0"/>
      <line stroke="#7f7f7f" stroke-width="1" x1="462.0" x2="462.0" y1="459.0" y2="415.0"/>
      <line stroke="#7f7f7f" stroke-width="1" x1="458.0" x2="458.0" y1="459.0" y2="415.0"/>
      <line stroke="#7f7f7f" stroke-width="1" x1="454.0" x2="454.0" y1="459.0" y2="415.0"/>
      <line stroke="#7f7f7f" stroke-width="1" x1="450.0" x2="450.0" y1="459.0" y2="415.0"/>
      <line stroke="#7f7f7f" stroke-width="1" x1="446.0" x2="446.0" y1="459.0" y2="415.0"/>
      <line stroke="#7f7f7f" stroke-width="1" x1="442.0" x2="442.0" y1="459.0" y2="415.0"/>
      <line stroke="#7f7f7f" stroke-width="1" x1="438.0" x2="438.0" y1="459.0" y2="415.0"/>
      <line stroke="#7f7f7f" stroke-width="1" x1="434.0" x2="434.0" y1="459.0" y2="415.0"/>
      <line stroke="#7f7f7f" stroke-width="1" x1="430.0" x2="430.0" y1="459.0" y2="415.0"/>
      <line stroke="#7f7f7f" stroke-width="1" x1="426.0" x2="426.0" y1="459.0" y2="415.0"/>
      <line stroke="#7f7f7f" stroke-width="1" x1="422.0" x2="422.0" y1="459.0" y2="415.0"/>
      <polygon fill="#9b5509" points="520.0,462.0 416.0,462.0 416.0,459.0 520.0,459.0" stroke="#000000" stroke-width="1"/>
      <polygon fill="#9b5509" points="520.0,451.0 416.0,451.0 416.0,447.0 520.0,447.0" stroke="#000000" stroke-width="1"/>
      <polygon fill="#9b5509" points="520.0,439.0 416.0,439.0 416.0,435.0 520.0,435.0" stroke="#000000" stroke-width="1"/>
      <polygon fill="#9b5509" points="520.0,427.0 416.0,427.0 416.0,423.0 520.0,423.0" stroke="#000000" stroke-width="1"/>
      <polygon fill="#9b5509" points="520.0,415.0 416.0,415.0 416.0,412.0 520.0,412.0" stroke="#000000" stroke-width="1"/>
      <polyline fill="none" points="553.0,366.0 553.0,358.0 583.0,358.0 583.0,366.0" stroke="#000000" stroke-width="1"/>
      <text fill="#000000" font-family="Arial" font-size="10.0" stroke="none" stroke-width="0" x="556.0" y="365.0">кассы</text>
      <polygon fill="none" points="578.0,435.0 578.0,429.0 572.0,429.0 572.0,435.0" stroke="#000000" stroke-width="1"/>
      <polyline fill="none" points="520.0,437.0 602.0,437.0" stroke="#000000" stroke-width="0.5"/>
      <polyline fill="none" points="574.0,491.0 574.0,506.0" stroke="#000000" stroke-width="0.5"/>
      <line stroke="#009900" stroke-width="1" x1="551.0" x2="547.0" y1="368.0" y2="370.0"/>
      <line stroke="#009900" stroke-width="1" x1="552.5522280002325" x2="548.5522280002325" y1="371.68654150055227" y2="373.68654150055227"/>
      <line stroke="#009900" stroke-width="1" x1="554.104456000465" x2="550.104456000465" y1="375.37308300110453" y2="377.37308300110453"/>
      <line stroke="#009900" stroke-width="1" x1="555.6566840006975" x2="551.6566840006975" y1="379.0596245016568" y2="381.0596245016568"/>
      <line stroke="#009900" stroke-width="1" x1="557.20891200093" x2="553.20891200093" y1="382.74616600220907" y2="384.74616600220907"/>
      <line stroke="#009900" stroke-width="1" x1="558.7611400011625" x2="554.7611400011625" y1="386.43270750276133" y2="388.43270750276133"/>
      <line stroke="#009900" stroke-width="1" x1="560.313368001395" x2="556.313368001395" y1="390.1192490033136" y2="392.1192490033136"/>
      <line stroke="#009900" stroke-width="1" x1="561.8655960016275" x2="557.8655960016275" y1="393.80579050386586" y2="395.80579050386586"/>
      <line stroke="#009900" stroke-width="1" x1="563.41782400186" x2="559.41782400186" y1="397.49233200441813" y2="399.49233200441813"/>
      <line stroke="#009900" stroke-width="1" x1="564.9700520020925" x2="560.9700520020925" y1="401.1788735049704" y2="403.1788735049704"/>
      <line stroke="#009900" stroke-width="1" x1="566.522280002325" x2="562.522280002325" y1="404.86541500552266" y2="406.86541500552266"/>
      <line stroke="#009900" stroke-width="1" x1="568.0745080025575" x2="564.0745080025575" y1="408.55195650607493" y2="410.55195650607493"/>
      <line stroke="#009900" stroke-width="1" x1="569.62673600279" x2="565.62673600279" y1="412.2384980066272" y2="414.2384980066272"/>
      <line stroke="#009900" stroke-width="1" x1="571.1789640030225" x2="567.1789640030225" y1="415.92503950717946" y2="417.92503950717946"/>
      <line stroke="#009900" stroke-width="1" x1="572.731192003255" x2="568.731192003255" y1="419.61158100773173" y2="421.61158100773173"/>
      <line stroke="#009900" stroke-width="1" x1="574.2834200034875" x2="570.2834200034875" y1="423.298122508284" y2="425.298122508284"/>
      <line stroke="#ff0000" stroke-width="1" x1="577.0" x2="573.0" y1="438.0" y2="438.0"/>
      <line stroke="#ff0000" stroke-width="1" x1="576.9245417322095" x2="572.9245417322095" y1="441.9992881928941" y2="441.9992881928941"/>
      <line stroke="#ff0000" stroke-width="1" x1="576.849083464419" x2="572.849083464419" y1="445.99857638578817" y2="445.99857638578817"/>
      <line stroke="#ff0000" stroke-width="1" x1="576.7736251966285" x2="572.7736251966285" y1="449.99786457868225" y2="449.99786457868225"/>
      <line stroke="#ff0000" stroke-width="1" x1="576.698166928838" x2="572.698166928838" y1="453.99715277157634" y2="453.99715277157634"/>
      <line stroke="#ff0000" stroke-width="1" x1="576.6227086610475" x2="572.6227086610475" y1="457.9964409644704" y2="457.9964409644704"/>
      <line stroke="#ff0000" stroke-width="1" x1="576.547250393257" x2="572.547250393257" y1="461.9957291573645" y2="461.9957291573645"/>
      <line stroke="#ff0000" stroke-width="1" x1="576.4717921254664" x2="572.4717921254664" y1="465.9950173502586" y2="465.9950173502586"/>
      <line stroke="#ff0000" stroke-width="1" x1="576.3963338576759" x2="572.3963338576759" y1="469.9943055431527" y2="469.9943055431527"/>
      <line stroke="#ff0000" stroke-width="1" x1="576.3208755898854" x2="572.3208755898854" y1="473.99359373604676" y2="473.99359373604676"/>
      <line stroke="#ff0000" stroke-width="1" x1="576.2454173220949" x2="572.2454173220949" y1="477.99288192894085" y2="477.99288192894085"/>
      <line stroke="#ff0000" stroke-width="1" x1="576.1699590543044" x2="572.1699590543044" y1="481.99217012183493" y2="481.99217012183493"/>
      <line stroke="#ff0000" stroke-width="1" x1="576.0945007865139" x2="572.0945007865139" y1="485.991458314729" y2="485.991458314729"/>
      <line stroke="#ff0000" stroke-width="1" x1="576.0190425187234" x2="572.0190425187234" y1="489.9907465076231" y2="489.9907465076231"/>
      <polyline fill="none" marker-end="url(#id494)" points="544.0,460.0 560.0,460.0" stroke="#ff0000" stroke-width="1"/>
      <polyline fill="none" marker-end="url(#id494)" points="598.0,395.0 582.0,401.0" stroke="#009900" stroke-width="1"/>
      <text fill="#00afaf" font-family="Arial" font-size="15.0" stroke="none" stroke-width="0" transform="rotate(-90.0,320.0,693.0)" x="320.0" y="708.0">улица Куйбышева</text>
      <text fill="#00afaf" font-family="Arial" font-size="15.0" stroke="none" stroke-width="0" x="498.0" y="257.0">улица 8-го марта</text>
    </g>
    <g fill="none" fill-opacity="0.7" stroke="#00afaf" stroke-opacity="0.7" transform="rotate(75.0,325.0,370.0)">
      <polygon fill="#ffd0d0" points="213.0,452.0 213.0,420.0 269.0,420.0 269.0,452.0" stroke="#ffd0d0" stroke-width="1"/>
      <polygon fill="#ffd0d0" points="78.0,452.0 78.0,420.0 134.0,420.0 134.0,452.0" stroke="#ffd0d0" stroke-width="1"/>
    </g>
    <g fill="#ffd0d0" fill-opacity="1.0" stroke="#ff4040" stroke-opacity="1.0" transform="rotate(75.0,325.0,370.0)">
      <text fill="#ff4040" font-family="Arial" font-size="15.0" stroke="none" stroke-width="0" x="215.0" y="442.0">Закрыто</text>
      <polyline fill="none" points="213.0,452.0 213.0,420.0 269.0,420.0 269.0,452.0 213.0,452.0" stroke="#ff4040" stroke-dasharray="5 2" stroke-width="1"/>
      <text fill="#ff4040" font-family="Arial" font-size="15.0" stroke="none" stroke-width="0" x="80.0" y="442.0">Закрыто</text>
      <polyline fill="none" points="78.0,452.0 78.0,420.0 134.0,420.0 134.0,452.0 78.0,452.0" stroke="#ff4040" stroke-dasharray="5 2" stroke-width="1"/>
    </g>
  </g>
</svg>
