<?xml version="1.0" encoding="utf-8" ?>
<svg baseProfile="full" height="1250.0" version="1.1" width="650.0" xmlns="http://www.w3.org/2000/svg" xmlns:ev="http://www.w3.org/2001/xml-events" xmlns:xlink="http://www.w3.org/1999/xlink">
  <defs>
    <marker id="id497" markerHeight="3" markerUnits="strokeWidth" markerWidth="4" orient="auto" refX="0" refY="5" viewBox="0,0,10,10">
      <path d="M 0 0 L 10 5 L 0 10 z"/>
    </marker>
  </defs>
  <g>
    <rect fill="none" height="1250.0" stroke="none" stroke-width="0" width="650.0" x="0.0" y="0.0"/>
    <g transform="rotate(-90.0,325.0,625.0)">
      <polygon fill="#00861d" points="696.0,534.0 696.0,564.0 246.0,564.0 246.0,534.0" stroke="#000000" stroke-width="1"/>
      <polygon fill="#00861d" points="696.0,644.0 696.0,674.0 246.0,674.0 246.0,644.0" stroke="#000000" stroke-width="1"/>
      <text fill="#00861d" font-family="Arial" font-size="20.0" stroke="none" stroke-width="0" x="247.0" y="530.0">&lt;&lt; Уралмаш</text>
      <text fill="#00861d" font-family="Arial" font-size="20.0" stroke="none" stroke-width="0" x="621.0" y="694.0">тупик &gt;&gt;</text>
      <text fill="#00861d" font-family="Arial" font-size="25.0" stroke="none" stroke-width="0" x="327.0" y="616.0">Проспект Космонавтов</text>
      <ellipse cx="657.0" cy="581.0" fill="#d0d0d0" rx="-6.0" ry="6.0" stroke="#000000" stroke-width="1"/>
      <ellipse cx="610.0" cy="581.0" fill="#d0d0d0" rx="-6.0" ry="6.0" stroke="#000000" stroke-width="1"/>
      <ellipse cx="563.0" cy="581.0" fill="#d0d0d0" rx="-6.0" ry="6.0" stroke="#000000" stroke-width="1"/>
      <ellipse cx="516.0" cy="581.0" fill="#d0d0d0" rx="-6.0" ry="6.0" stroke="#000000" stroke-width="1"/>
      <ellipse cx="469.0" cy="581.0" fill="#d0d0d0" rx="-6.0" ry="6.0" stroke="#000000" stroke-width="1"/>
      <ellipse cx="422.0" cy="581.0" fill="#d0d0d0" rx="-6.0" ry="6.0" stroke="#000000" stroke-width="1"/>
      <ellipse cx="375.0" cy="581.0" fill="#d0d0d0" rx="-6.0" ry="6.0" stroke="#000000" stroke-width="1"/>
      <ellipse cx="328.0" cy="581.0" fill="#d0d0d0" rx="-6.0" ry="6.0" stroke="#000000" stroke-width="1"/>
      <ellipse cx="281.0" cy="581.0" fill="#d0d0d0" rx="-6.0" ry="6.0" stroke="#000000" stroke-width="1"/>
      <ellipse cx="657.0" cy="627.0" fill="#d0d0d0" rx="-6.0" ry="6.0" stroke="#000000" stroke-width="1"/>
      <ellipse cx="610.0" cy="627.0" fill="#d0d0d0" rx="-6.0" ry="6.0" stroke="#000000" stroke-width="1"/>
      <ellipse cx="563.0" cy="627.0" fill="#d0d0d0" rx="-6.0" ry="6.0" stroke="#000000" stroke-width="1"/>
      <ellipse cx="516.0" cy="627.0" fill="#d0d0d0" rx="-6.0" ry="6.0" stroke="#000000" stroke-width="1"/>
      <ellipse cx="469.0" cy="627.0" fill="#d0d0d0" rx="-6.0" ry="6.0" stroke="#000000" stroke-width="1"/>
      <ellipse cx="422.0" cy="627.0" fill="#d0d0d0" rx="-6.0" ry="6.0" stroke="#000000" stroke-width="1"/>
      <ellipse cx="375.0" cy="627.0" fill="#d0d0d0" rx="-6.0" ry="6.0" stroke="#000000" stroke-width="1"/>
      <ellipse cx="328.0" cy="627.0" fill="#d0d0d0" rx="-6.0" ry="6.0" stroke="#000000" stroke-width="1"/>
      <ellipse cx="281.0" cy="627.0" fill="#d0d0d0" rx="-6.0" ry="6.0" stroke="#000000" stroke-width="1"/>
      <polyline fill="none" points="941.0,471.0 861.0,471.0 861.0,535.0 855.0,535.0 855.0,547.0 837.0,547.0 837.0,535.0 747.0,535.0 747.0,575.0 696.0,575.0 696.0,564.0" stroke="#000000" stroke-width="1"/>
      <polyline fill="none" points="941.0,489.0 879.0,489.0 879.0,673.0 855.0,673.0 855.0,660.0 837.0,660.0 837.0,673.0 747.0,673.0 747.0,633.0 696.0,633.0 696.0,644.0" stroke="#000000" stroke-width="1"/>
      <line stroke="#000000" stroke-width="1" x1="939.0" x2="939.0" y1="489.0" y2="471.0"/>
      <line stroke="#000000" stroke-width="1" x1="935.0" x2="935.0" y1="489.0" y2="471.0"/>
      <line stroke="#000000" stroke-width="1" x1="931.0" x2="931.0" y1="489.0" y2="471.0"/>
      <line stroke="#000000" stroke-width="1" x1="927.0" x2="927.0" y1="489.0" y2="471.0"/>
      <line stroke="#000000" stroke-width="1" x1="923.0" x2="923.0" y1="489.0" y2="471.0"/>
      <line stroke="#000000" stroke-width="1" x1="919.0" x2="919.0" y1="489.0" y2="471.0"/>
      <line stroke="#000000" stroke-width="1" x1="915.0" x2="915.0" y1="489.0" y2="471.0"/>
      <line stroke="#000000" stroke-width="1" x1="911.0" x2="911.0" y1="489.0" y2="471.0"/>
      <line stroke="#000000" stroke-width="1" x1="907.0" x2="907.0" y1="489.0" y2="471.0"/>
      <line stroke="#000000" stroke-width="1" x1="903.0" x2="903.0" y1="489.0" y2="471.0"/>
      <line stroke="#000000" stroke-width="1" x1="899.0" x2="899.0" y1="489.0" y2="471.0"/>
      <line stroke="#000000" stroke-width="1" x1="895.0" x2="895.0" y1="489.0" y2="471.0"/>
      <line stroke="#000000" stroke-width="1" x1="743.0" x2="743.0" y1="575.0" y2="633.0"/>
      <line stroke="#000000" stroke-width="1" x1="739.0" x2="739.0" y1="575.0" y2="633.0"/>
      <line stroke="#000000" stroke-width="1" x1="735.0" x2="735.0" y1="575.0" y2="633.0"/>
      <line stroke="#000000" stroke-width="1" x1="731.0" x2="731.0" y1="575.0" y2="633.0"/>
      <line stroke="#000000" stroke-width="1" x1="727.0" x2="727.0" y1="575.0" y2="633.0"/>
      <line stroke="#000000" stroke-width="1" x1="723.0" x2="723.0" y1="575.0" y2="633.0"/>
      <line stroke="#000000" stroke-width="1" x1="719.0" x2="719.0" y1="575.0" y2="633.0"/>
      <line stroke="#000000" stroke-width="1" x1="715.0" x2="715.0" y1="575.0" y2="633.0"/>
      <line stroke="#000000" stroke-width="1" x1="711.0" x2="711.0" y1="575.0" y2="633.0"/>
      <line stroke="#000000" stroke-width="1" x1="707.0" x2="707.0" y1="575.0" y2="633.0"/>
      <line stroke="#000000" stroke-width="1" x1="703.0" x2="703.0" y1="575.0" y2="633.0"/>
      <line stroke="#000000" stroke-width="1" x1="699.0" x2="699.0" y1="575.0" y2="633.0"/>
      <polygon fill="#d0d0d0" points="855.0,575.0 855.0,631.0 837.0,631.0 837.0,575.0" stroke="#000000" stroke-width="1"/>
      <polyline fill="none" points="756.0,535.0 756.0,564.0 747.0,564.0" stroke="#000000" stroke-width="1"/>
      <text fill="#000000" font-family="Arial" font-size="10.0" stroke="none" stroke-width="0" transform="rotate(90.0,757.0,537.0)" x="757.0" y="547.0">кассы</text>
      <polyline fill="none" points="747.0,574.0 774.0,574.0" stroke="#000000" stroke-width="0.5"/>
      <polygon fill="none" points="808.0,606.0 802.0,606.0 802.0,612.0 808.0,612.0" stroke="#000000" stroke-width="1"/>
      <polyline fill="none" points="805.0,612.0 805.0,617.0" stroke="#000000" stroke-width="0.5"/>
      <polyline fill="none" points="805.0,661.0 805.0,673.0" stroke="#000000" stroke-width="0.5"/>
      <line stroke="#009900" stroke-width="1" x1="776.0" x2="773.0" y1="573.0" y2="576.0"/>
      <line stroke="#009900" stroke-width="1" x1="778.8284271247462" x2="775.8284271247462" y1="575.8284271247462" y2="578.8284271247462"/>
      <line stroke="#009900" stroke-width="1" x1="781.6568542494924" x2="778.6568542494924" y1="578.6568542494924" y2="581.6568542494924"/>
      <line stroke="#009900" stroke-width="1" x1="784.4852813742386" x2="781.4852813742386" y1="581.4852813742386" y2="584.4852813742386"/>
      <line stroke="#009900" stroke-width="1" x1="787.3137084989849" x2="784.3137084989849" y1="584.3137084989849" y2="587.3137084989849"/>
      <line stroke="#009900" stroke-width="1" x1="790.1421356237311" x2="787.1421356237311" y1="587.1421356237311" y2="590.1421356237311"/>
      <line stroke="#009900" stroke-width="1" x1="792.9705627484773" x2="789.9705627484773" y1="589.9705627484773" y2="592.9705627484773"/>
      <line stroke="#009900" stroke-width="1" x1="795.7989898732235" x2="792.7989898732235" y1="592.7989898732235" y2="595.7989898732235"/>
      <line stroke="#009900" stroke-width="1" x1="798.6274169979697" x2="795.6274169979697" y1="595.6274169979697" y2="598.6274169979697"/>
      <line stroke="#009900" stroke-width="1" x1="801.4558441227159" x2="798.4558441227159" y1="598.4558441227159" y2="601.4558441227159"/>
      <line stroke="#009900" stroke-width="1" x1="804.2842712474621" x2="801.2842712474621" y1="601.2842712474621" y2="604.2842712474621"/>
      <line stroke="#ff0000" stroke-width="1" x1="807.0" x2="803.0" y1="617.0" y2="617.0"/>
      <line stroke="#ff0000" stroke-width="1" x1="807.0" x2="803.0" y1="621.0" y2="621.0"/>
      <line stroke="#ff0000" stroke-width="1" x1="807.0" x2="803.0" y1="625.0" y2="625.0"/>
      <line stroke="#ff0000" stroke-width="1" x1="807.0" x2="803.0" y1="629.0" y2="629.0"/>
      <line stroke="#ff0000" stroke-width="1" x1="807.0" x2="803.0" y1="633.0" y2="633.0"/>
      <line stroke="#ff0000" stroke-width="1" x1="807.0" x2="803.0" y1="637.0" y2="637.0"/>
      <line stroke="#ff0000" stroke-width="1" x1="807.0" x2="803.0" y1="641.0" y2="641.0"/>
      <line stroke="#ff0000" stroke-width="1" x1="807.0" x2="803.0" y1="645.0" y2="645.0"/>
      <line stroke="#ff0000" stroke-width="1" x1="807.0" x2="803.0" y1="649.0" y2="649.0"/>
      <line stroke="#ff0000" stroke-width="1" x1="807.0" x2="803.0" y1="653.0" y2="653.0"/>
      <line stroke="#ff0000" stroke-width="1" x1="807.0" x2="803.0" y1="657.0" y2="657.0"/>
      <line stroke="#ff0000" stroke-width="1" x1="807.0" x2="803.0" y1="661.0" y2="661.0"/>
      <polyline fill="none" points="157.0,454.0 -65.0,454.0" stroke="#000000" stroke-width="1"/>
      <polyline fill="none" points="155.0,816.0 -90.0,816.0" stroke="#000000" stroke-width="1"/>
      <polyline fill="none" points="-65.0,472.0 73.0,472.0 73.0,798.0 -90.0,798.0" stroke="#000000" stroke-width="1"/>
      <polyline fill="none" points="157.0,472.0 97.0,472.0 97.0,547.0 115.0,547.0 115.0,535.0 193.0,535.0 193.0,575.0 246.0,575.0 246.0,564.0" stroke="#000000" stroke-width="1"/>
      <polyline fill="none" points="155.0,798.0 90.0,798.0 90.0,673.0 97.0,673.0 97.0,660.0 115.0,660.0 115.0,673.0 193.0,673.0 193.0,633.0 246.0,633.0 246.0,644.0" stroke="#000000" stroke-width="1"/>
      <line stroke="#000000" stroke-width="1" x1="242.0" x2="242.0" y1="575.0" y2="633.0"/>
      <line stroke="#000000" stroke-width="1" x1="238.0" x2="238.0" y1="575.0" y2="633.0"/>
      <line stroke="#000000" stroke-width="1" x1="234.0" x2="234.0" y1="575.0" y2="633.0"/>
      <line stroke="#000000" stroke-width="1" x1="230.0" x2="230.0" y1="575.0" y2="633.0"/>
      <line stroke="#000000" stroke-width="1" x1="226.0" x2="226.0" y1="575.0" y2="633.0"/>
      <line stroke="#000000" stroke-width="1" x1="222.0" x2="222.0" y1="575.0" y2="633.0"/>
      <line stroke="#000000" stroke-width="1" x1="218.0" x2="218.0" y1="575.0" y2="633.0"/>
      <line stroke="#000000" stroke-width="1" x1="214.0" x2="214.0" y1="575.0" y2="633.0"/>
      <line stroke="#000000" stroke-width="1" x1="210.0" x2="210.0" y1="575.0" y2="633.0"/>
      <line stroke="#000000" stroke-width="1" x1="206.0" x2="206.0" y1="575.0" y2="633.0"/>
      <line stroke="#000000" stroke-width="1" x1="202.0" x2="202.0" y1="575.0" y2="633.0"/>
      <line stroke="#000000" stroke-width="1" x1="198.0" x2="198.0" y1="575.0" y2="633.0"/>
      <line stroke="#000000" stroke-width="1" x1="-88.0" x2="-88.0" y1="798.0" y2="816.0"/>
      <line stroke="#000000" stroke-width="1" x1="-84.0" x2="-84.0" y1="798.0" y2="816.0"/>
      <line stroke="#000000" stroke-width="1" x1="-80.0" x2="-80.0" y1="798.0" y2="816.0"/>
      <line stroke="#000000" stroke-width="1" x1="-76.0" x2="-76.0" y1="798.0" y2="816.0"/>
      <line stroke="#000000" stroke-width="1" x1="-72.0" x2="-72.0" y1="798.0" y2="816.0"/>
      <line stroke="#000000" stroke-width="1" x1="-68.0" x2="-68.0" y1="798.0" y2="816.0"/>
      <line stroke="#000000" stroke-width="1" x1="-64.0" x2="-64.0" y1="798.0" y2="816.0"/>
      <line stroke="#000000" stroke-width="1" x1="-60.0" x2="-60.0" y1="798.0" y2="816.0"/>
      <line stroke="#000000" stroke-width="1" x1="-56.0" x2="-56.0" y1="798.0" y2="816.0"/>
      <line stroke="#000000" stroke-width="1" x1="-34.0" x2="-34.0" y1="454.0" y2="472.0"/>
      <line stroke="#000000" stroke-width="1" x1="-38.0" x2="-38.0" y1="454.0" y2="472.0"/>
      <line stroke="#000000" stroke-width="1" x1="-42.0" x2="-42.0" y1="454.0" y2="472.0"/>
      <line stroke="#000000" stroke-width="1" x1="-46.0" x2="-46.0" y1="454.0" y2="472.0"/>
      <line stroke="#000000" stroke-width="1" x1="-50.0" x2="-50.0" y1="454.0" y2="472.0"/>
      <line stroke="#000000" stroke-width="1" x1="-54.0" x2="-54.0" y1="454.0" y2="472.0"/>
      <line stroke="#000000" stroke-width="1" x1="-58.0" x2="-58.0" y1="454.0" y2="472.0"/>
      <line stroke="#000000" stroke-width="1" x1="-62.0" x2="-62.0" y1="454.0" y2="472.0"/>
      <line stroke="#000000" stroke-width="1" x1="153.0" x2="153.0" y1="454.0" y2="472.0"/>
      <line stroke="#000000" stroke-width="1" x1="149.0" x2="149.0" y1="454.0" y2="472.0"/>
      <line stroke="#000000" stroke-width="1" x1="145.0" x2="145.0" y1="454.0" y2="472.0"/>
      <line stroke="#000000" stroke-width="1" x1="141.0" x2="141.0" y1="454.0" y2="472.0"/>
      <line stroke="#000000" stroke-width="1" x1="137.0" x2="137.0" y1="454.0" y2="472.0"/>
      <line stroke="#000000" stroke-width="1" x1="133.0" x2="133.0" y1="454.0" y2="472.0"/>
      <line stroke="#000000" stroke-width="1" x1="129.0" x2="129.0" y1="454.0" y2="472.0"/>
      <line stroke="#000000" stroke-width="1" x1="125.0" x2="125.0" y1="454.0" y2="472.0"/>
      <line stroke="#000000" stroke-width="1" x1="121.0" x2="121.0" y1="454.0" y2="472.0"/>
      <line stroke="#000000" stroke-width="1" x1="153.0" x2="153.0" y1="798.0" y2="816.0"/>
      <line stroke="#000000" stroke-width="1" x1="149.0" x2="149.0" y1="798.0" y2="816.0"/>
      <line stroke="#000000" stroke-width="1" x1="145.0" x2="145.0" y1="798.0" y2="816.0"/>
      <line stroke="#000000" stroke-width="1" x1="141.0" x2="141.0" y1="798.0" y2="816.0"/>
      <line stroke="#000000" stroke-width="1" x1="137.0" x2="137.0" y1="798.0" y2="816.0"/>
      <line stroke="#000000" stroke-width="1" x1="133.0" x2="133.0" y1="798.0" y2="816.0"/>
      <line stroke="#000000" stroke-width="1" x1="129.0" x2="129.0" y1="798.0" y2="816.0"/>
      <line stroke="#000000" stroke-width="1" x1="125.0" x2="125.0" y1="798.0" y2="816.0"/>
      <line stroke="#000000" stroke-width="1" x1="121.0" x2="121.0" y1="798.0" y2="816.0"/>
      <line stroke="#000000" stroke-width="1" x1="90.0" x2="73.0" y1="786.0" y2="786.0"/>
      <line stroke="#000000" stroke-width="1" x1="90.0" x2="73.0" y1="790.0" y2="790.0"/>
      <line stroke="#000000" stroke-width="1" x1="90.0" x2="73.0" y1="794.0" y2="794.0"/>
      <line stroke="#000000" stroke-width="1" x1="69.0" x2="69.0" y1="798.0" y2="816.0"/>
      <line stroke="#000000" stroke-width="1" x1="65.0" x2="65.0" y1="798.0" y2="816.0"/>
      <line stroke="#000000" stroke-width="1" x1="61.0" x2="61.0" y1="798.0" y2="816.0"/>
      <line stroke="#000000" stroke-width="1" x1="69.0" x2="69.0" y1="454.0" y2="472.0"/>
      <line stroke="#000000" stroke-width="1" x1="65.0" x2="65.0" y1="454.0" y2="472.0"/>
      <line stroke="#000000" stroke-width="1" x1="61.0" x2="61.0" y1="454.0" y2="472.0"/>
      <polygon fill="#d0d0d0" points="115.0,575.0 115.0,631.0 97.0,631.0 97.0,575.0" stroke="#000000" stroke-width="1"/>
      <polyline fill="none" points="193.0,646.0 185.0,646.0 185.0,673.0" stroke="#000000" stroke-width="1"/>
      <text fill="#000000" font-family="Arial" font-size="10.0" stroke="none" stroke-width="0" transform="rotate(90.0,195.0,648.0)" x="195.0" y="658.0">кассы</text>
      <polyline fill="none" points="193.0,643.0 178.0,643.0" stroke="#000000" stroke-width="0.5"/>
      <polygon fill="none" points="138.0,605.0 138.0,599.0 144.0,599.0 144.0,605.0" stroke="#000000" stroke-width="1"/>
      <polyline fill="none" points="141.0,599.0 141.0,585.0" stroke="#000000" stroke-width="0.5"/>
      <polyline fill="none" points="141.0,548.0 141.0,535.0" stroke="#000000" stroke-width="0.5"/>
      <line stroke="#009900" stroke-width="1" x1="176.0" x2="179.0" y1="644.0" y2="641.0"/>
      <line stroke="#009900" stroke-width="1" x1="173.25120058449568" x2="176.25120058449568" y1="641.0941263321812" y2="638.0941263321812"/>
      <line stroke="#009900" stroke-width="1" x1="170.50240116899136" x2="173.50240116899136" y1="638.1882526643624" y2="635.1882526643624"/>
      <line stroke="#009900" stroke-width="1" x1="167.75360175348703" x2="170.75360175348703" y1="635.2823789965436" y2="632.2823789965436"/>
      <line stroke="#009900" stroke-width="1" x1="165.0048023379827" x2="168.0048023379827" y1="632.3765053287248" y2="629.3765053287248"/>
      <line stroke="#009900" stroke-width="1" x1="162.2560029224784" x2="165.2560029224784" y1="629.470631660906" y2="626.470631660906"/>
      <line stroke="#009900" stroke-width="1" x1="159.50720350697407" x2="162.50720350697407" y1="626.5647579930871" y2="623.5647579930871"/>
      <line stroke="#009900" stroke-width="1" x1="156.75840409146974" x2="159.75840409146974" y1="623.6588843252683" y2="620.6588843252683"/>
      <line stroke="#009900" stroke-width="1" x1="154.00960467596542" x2="157.00960467596542" y1="620.7530106574495" y2="617.7530106574495"/>
      <line stroke="#009900" stroke-width="1" x1="151.2608052604611" x2="154.2608052604611" y1="617.8471369896307" y2="614.8471369896307"/>
      <line stroke="#009900" stroke-width="1" x1="148.51200584495678" x2="151.51200584495678" y1="614.9412633218119" y2="611.9412633218119"/>
      <line stroke="#009900" stroke-width="1" x1="145.76320642945245" x2="148.76320642945245" y1="612.0353896539931" y2="609.0353896539931"/>
      <line stroke="#009900" stroke-width="1" x1="143.01440701394813" x2="146.01440701394813" y1="609.1295159861743" y2="606.1295159861743"/>
      <line stroke="#ff0000" stroke-width="1" x1="139.0" x2="143.0" y1="585.0" y2="585.0"/>
      <line stroke="#ff0000" stroke-width="1" x1="139.0" x2="143.0" y1="581.0" y2="581.0"/>
      <line stroke="#ff0000" stroke-width="1" x1="139.0" x2="143.0" y1="577.0" y2="577.0"/>
      <line stroke="#ff0000" stroke-width="1" x1="139.0" x2="143.0" y1="573.0" y2="573.0"/>
      <line stroke="#ff0000" stroke-width="1" x1="139.0" x2="143.0" y1="569.0" y2="569.0"/>
      <line stroke="#ff0000" stroke-width="1" x1="139.0" x2="143.0" y1="565.0" y2="565.0"/>
      <line stroke="#ff0000" stroke-width="1" x1="139.0" x2="143.0" y1="561.0" y2="561.0"/>
      <line stroke="#ff0000" stroke-width="1" x1="139.0" x2="143.0" y1="557.0" y2="557.0"/>
      <line stroke="#ff0000" stroke-width="1" x1="139.0" x2="143.0" y1="553.0" y2="553.0"/>
      <line stroke="#ff0000" stroke-width="1" x1="139.0" x2="143.0" y1="549.0" y2="549.0"/>
      <polyline fill="none" marker-end="url(#id497)" points="773.0,643.0 791.0,643.0" stroke="#ff0000" stroke-width="1"/>
      <polyline fill="none" marker-end="url(#id497)" points="171.0,564.0 154.0,564.0" stroke="#ff0000" stroke-width="1"/>
      <polyline fill="none" marker-end="url(#id497)" points="122.0,645.0 138.0,639.0" stroke="#009900" stroke-width="1"/>
      <polyline fill="none" marker-end="url(#id497)" points="831.0,561.0 814.0,570.0" stroke="#009900" stroke-width="1"/>
      <ellipse cx="232.0" cy="786.0" fill="#0000ff" rx="20.0" ry="20.0" stroke="#009900" stroke-width="1"/>
      <ellipse cx="170.0" cy="329.0" fill="#0000ff" rx="20.0" ry="20.0" stroke="#009900" stroke-width="1"/>
      <ellipse cx="-185.0" cy="506.0" fill="#0000ff" rx="20.0" ry="20.0" stroke="#009900" stroke-width="1"/>
      <text fill="#ffffff" font-family="Arial" font-size="25.0" stroke="none" stroke-width="0" transform="rotate(90.0,-172.0,498.0)" x="-172.0" y="523.0">A</text>
      <text fill="#ffffff" font-family="Arial" font-size="25.0" stroke="none" stroke-width="0" transform="rotate(90.0,183.0,321.0)" x="183.0" y="346.0">A</text>
      <text fill="#ffffff" font-family="Arial" font-size="25.0" stroke="none" stroke-width="0" transform="rotate(90.0,244.0,778.0)" x="244.0" y="803.0">A</text>
      <text fill="#00afaf" font-family="Arial" font-size="15.0" stroke="none" stroke-width="0" x="-287.0" y="457.0">&quot;Троллейбусы 3</text>
      <text fill="#00afaf" font-family="Arial" font-size="15.0" stroke="none" stroke-width="0" x="-288.0" y="476.0">&quot;Автобусы 56</text>
      <polyline fill="none" marker-end="url(#id497)" points="-146.0,532.0 -232.0,532.0" stroke="#00afaf" stroke-width="1"/>
      <text fill="#00afaf" font-family="Arial" font-size="15.0" stroke="none" stroke-width="0" transform="rotate(90.0,234.0,323.0)" x="234.0" y="338.0">Троллейбус 13</text>
      <text fill="#00afaf" font-family="Arial" font-size="15.0" stroke="none" stroke-width="0" transform="rotate(90.0,216.0,309.0)" x="216.0" y="324.0">(к Коммунистической)</text>
      <polyline fill="none" marker-end="url(#id497)" points="199.0,407.0 199.0,312.0" stroke="#00afaf" stroke-width="1"/>
      <text fill="#00afaf" font-family="Arial" font-size="15.0" stroke="none" stroke-width="0" transform="rotate(90.0,279.0,735.0)" x="279.0" y="750.0">&quot;Автобусы 56</text>
      <polyline fill="none" marker-end="url(#id497)" points="251.0,729.0 327.0,729.0" stroke="#00afaf" stroke-width="1"/>
      <text fill="#00afaf" font-family="Arial" font-size="15.0" stroke="none" stroke-width="0" transform="rotate(90.0,297.0,735.0)" x="297.0" y="750.0">&quot;Троллейбусы 3</text>
      <text fill="#00afaf" font-family="Arial" font-size="15.0" stroke="none" stroke-width="0" transform="rotate(90.0,-147.0,309.0)" x="-147.0" y="324.0">Рыночный комплекс</text>
      <text fill="#00afaf" font-family="Arial" font-size="15.0" stroke="none" stroke-width="0" transform="rotate(90.0,-162.0,345.0)" x="-162.0" y="360.0">'&quot;Омега&quot;'</text>
      <text fill="#00afaf" font-family="Arial" font-size="15.0" stroke="none" stroke-width="0" x="127.0" y="719.0">Проспект Космонавтов</text>
      <text fill="#00afaf" font-family="Arial" font-size="15.0" stroke="none" stroke-width="0" x="624.0" y="934.0">Детская больница №4</text>
      <text fill="#00afaf" font-family="Arial" font-size="15.0" stroke="none" stroke-width="0" transform="rotate(90.0,60.0,568.0)" x="60.0" y="583.0">ул. Фрезеровщиков</text>
    </g>
  </g>
</svg>
