<?xml version="1.0" encoding="utf-8" ?>
<svg baseProfile="full" height="1450.0" version="1.1" width="980.0" xmlns="http://www.w3.org/2000/svg" xmlns:ev="http://www.w3.org/2001/xml-events" xmlns:xlink="http://www.w3.org/1999/xlink">
  <defs>
    <marker id="id498" markerHeight="3" markerUnits="strokeWidth" markerWidth="4" orient="auto" refX="0" refY="5" viewBox="0,0,10,10">
      <path d="M 0 0 L 10 5 L 0 10 z"/>
    </marker>
  </defs>
  <g>
    <rect fill="none" height="1450.0" stroke="none" stroke-width="0" width="980.0" x="0.0" y="0.0"/>
    <g transform="rotate(-90.0,490.0,725.0)">
      <polygon fill="#00861d" points="908.0,759.0 908.0,789.0 458.0,789.0 458.0,759.0" stroke="#000000" stroke-width="1"/>
      <polygon fill="#00861d" points="908.0,649.0 908.0,679.0 458.0,679.0 458.0,649.0" stroke="#000000" stroke-width="1"/>
      <text fill="#00861d" font-family="Arial" font-size="20.0" stroke="none" stroke-width="0" x="684.0" y="808.0">Проспект Космонавтов &gt;&gt;</text>
      <text fill="#00861d" font-family="Arial" font-size="20.0" stroke="none" stroke-width="0" x="469.0" y="639.0">&lt;&lt; Машиностроителей</text>
      <text fill="#00861d" font-family="Arial" font-size="25.0" stroke="none" stroke-width="0" x="629.0" y="727.0">Уралмаш</text>
      <polyline fill="none" points="908.0,759.0 908.0,748.0 972.0,748.0 972.0,788.0 1049.0,788.0 1049.0,775.0 1067.0,775.0 1067.0,788.0 1097.0,788.0 1097.0,588.0 1155.0,588.0" stroke="#000000" stroke-width="1"/>
      <polyline fill="none" points="1155.0,562.0 1074.0,562.0 1074.0,650.0 1067.0,650.0 1067.0,662.0 1049.0,662.0 1049.0,650.0 972.0,650.0 972.0,690.0 908.0,690.0 908.0,679.0" stroke="#000000" stroke-width="1"/>
      <line stroke="#000000" stroke-width="1" x1="964.0" x2="964.0" y1="690.0" y2="748.0"/>
      <line stroke="#000000" stroke-width="1" x1="960.0" x2="960.0" y1="690.0" y2="748.0"/>
      <line stroke="#000000" stroke-width="1" x1="956.0" x2="956.0" y1="690.0" y2="748.0"/>
      <line stroke="#000000" stroke-width="1" x1="952.0" x2="952.0" y1="690.0" y2="748.0"/>
      <line stroke="#000000" stroke-width="1" x1="948.0" x2="948.0" y1="690.0" y2="748.0"/>
      <line stroke="#000000" stroke-width="1" x1="944.0" x2="944.0" y1="690.0" y2="748.0"/>
      <line stroke="#000000" stroke-width="1" x1="940.0" x2="940.0" y1="690.0" y2="748.0"/>
      <line stroke="#000000" stroke-width="1" x1="936.0" x2="936.0" y1="690.0" y2="748.0"/>
      <line stroke="#000000" stroke-width="1" x1="932.0" x2="932.0" y1="690.0" y2="748.0"/>
      <line stroke="#000000" stroke-width="1" x1="928.0" x2="928.0" y1="690.0" y2="748.0"/>
      <line stroke="#000000" stroke-width="1" x1="924.0" x2="924.0" y1="690.0" y2="748.0"/>
      <line stroke="#000000" stroke-width="1" x1="920.0" x2="920.0" y1="690.0" y2="748.0"/>
      <line stroke="#000000" stroke-width="1" x1="1153.0" x2="1153.0" y1="562.0" y2="588.0"/>
      <line stroke="#000000" stroke-width="1" x1="1149.0" x2="1149.0" y1="562.0" y2="588.0"/>
      <line stroke="#000000" stroke-width="1" x1="1145.0" x2="1145.0" y1="562.0" y2="588.0"/>
      <line stroke="#000000" stroke-width="1" x1="1141.0" x2="1141.0" y1="562.0" y2="588.0"/>
      <line stroke="#000000" stroke-width="1" x1="1137.0" x2="1137.0" y1="562.0" y2="588.0"/>
      <line stroke="#000000" stroke-width="1" x1="1133.0" x2="1133.0" y1="562.0" y2="588.0"/>
      <line stroke="#000000" stroke-width="1" x1="1129.0" x2="1129.0" y1="562.0" y2="588.0"/>
      <line stroke="#000000" stroke-width="1" x1="1125.0" x2="1125.0" y1="562.0" y2="588.0"/>
      <line stroke="#000000" stroke-width="1" x1="1121.0" x2="1121.0" y1="562.0" y2="588.0"/>
      <line stroke="#000000" stroke-width="1" x1="1117.0" x2="1117.0" y1="562.0" y2="588.0"/>
      <line stroke="#000000" stroke-width="1" x1="1113.0" x2="1113.0" y1="562.0" y2="588.0"/>
      <line stroke="#000000" stroke-width="1" x1="1109.0" x2="1109.0" y1="562.0" y2="588.0"/>
      <polygon fill="#d0d0d0" points="1067.0,746.0 1067.0,690.0 1049.0,690.0 1049.0,746.0" stroke="#000000" stroke-width="1"/>
      <polygon fill="#d0d0d0" points="281.0,690.0 299.0,690.0 299.0,746.0 281.0,746.0" stroke="#000000" stroke-width="1"/>
      <polygon fill="#d0d0d0" points="252.0,970.0 261.0,970.0 261.0,1013.0 252.0,1013.0" stroke="#000000" stroke-width="1"/>
      <polyline fill="none" points="972.0,650.0 964.0,650.0 964.0,679.0 972.0,679.0" stroke="#000000" stroke-width="1"/>
      <text fill="#000000" font-family="Arial" font-size="10.0" stroke="none" stroke-width="0" transform="rotate(90.0,974.0,652.0)" x="974.0" y="662.0">кассы</text>
      <polyline fill="none" points="972.0,689.0 986.0,689.0" stroke="#000000" stroke-width="0.5"/>
      <polygon fill="none" points="1020.0,721.0 1014.0,721.0 1014.0,727.0 1020.0,727.0" stroke="#000000" stroke-width="1"/>
      <polyline fill="none" points="1017.0,727.0 1017.0,732.0" stroke="#000000" stroke-width="0.5"/>
      <polyline fill="none" points="1017.0,776.0 1017.0,788.0" stroke="#000000" stroke-width="0.5"/>
      <polyline fill="none" points="1020.0,727.0 1049.0,727.0" stroke="#000000" stroke-width="0.5"/>
      <line stroke="#009900" stroke-width="1" x1="988.0" x2="985.0" y1="688.0" y2="691.0"/>
      <line stroke="#009900" stroke-width="1" x1="990.8284271247462" x2="987.8284271247462" y1="690.8284271247462" y2="693.8284271247462"/>
      <line stroke="#009900" stroke-width="1" x1="993.6568542494924" x2="990.6568542494924" y1="693.6568542494924" y2="696.6568542494924"/>
      <line stroke="#009900" stroke-width="1" x1="996.4852813742386" x2="993.4852813742386" y1="696.4852813742386" y2="699.4852813742386"/>
      <line stroke="#009900" stroke-width="1" x1="999.3137084989849" x2="996.3137084989849" y1="699.3137084989849" y2="702.3137084989849"/>
      <line stroke="#009900" stroke-width="1" x1="1002.1421356237311" x2="999.1421356237311" y1="702.1421356237311" y2="705.1421356237311"/>
      <line stroke="#009900" stroke-width="1" x1="1004.9705627484773" x2="1001.9705627484773" y1="704.9705627484773" y2="707.9705627484773"/>
      <line stroke="#009900" stroke-width="1" x1="1007.7989898732235" x2="1004.7989898732235" y1="707.7989898732235" y2="710.7989898732235"/>
      <line stroke="#009900" stroke-width="1" x1="1010.6274169979697" x2="1007.6274169979697" y1="710.6274169979697" y2="713.6274169979697"/>
      <line stroke="#009900" stroke-width="1" x1="1013.4558441227159" x2="1010.4558441227159" y1="713.4558441227159" y2="716.4558441227159"/>
      <line stroke="#009900" stroke-width="1" x1="1016.2842712474621" x2="1013.2842712474621" y1="716.2842712474621" y2="719.2842712474621"/>
      <line stroke="#ff0000" stroke-width="1" x1="1019.0" x2="1015.0" y1="732.0" y2="732.0"/>
      <line stroke="#ff0000" stroke-width="1" x1="1019.0" x2="1015.0" y1="736.0" y2="736.0"/>
      <line stroke="#ff0000" stroke-width="1" x1="1019.0" x2="1015.0" y1="740.0" y2="740.0"/>
      <line stroke="#ff0000" stroke-width="1" x1="1019.0" x2="1015.0" y1="744.0" y2="744.0"/>
      <line stroke="#ff0000" stroke-width="1" x1="1019.0" x2="1015.0" y1="748.0" y2="748.0"/>
      <line stroke="#ff0000" stroke-width="1" x1="1019.0" x2="1015.0" y1="752.0" y2="752.0"/>
      <line stroke="#ff0000" stroke-width="1" x1="1019.0" x2="1015.0" y1="756.0" y2="756.0"/>
      <line stroke="#ff0000" stroke-width="1" x1="1019.0" x2="1015.0" y1="760.0" y2="760.0"/>
      <line stroke="#ff0000" stroke-width="1" x1="1019.0" x2="1015.0" y1="764.0" y2="764.0"/>
      <line stroke="#ff0000" stroke-width="1" x1="1019.0" x2="1015.0" y1="768.0" y2="768.0"/>
      <line stroke="#ff0000" stroke-width="1" x1="1019.0" x2="1015.0" y1="772.0" y2="772.0"/>
      <line stroke="#ff0000" stroke-width="1" x1="1019.0" x2="1015.0" y1="776.0" y2="776.0"/>
      <polyline fill="none" points="458.0,679.0 458.0,690.0 436.0,690.0 436.0,694.0" stroke="#000000" stroke-width="1"/>
      <polyline fill="none" points="400.0,694.0 400.0,690.0 377.0,690.0 377.0,650.0 299.0,650.0 299.0,662.0 281.0,662.0 281.0,650.0 258.0,650.0 258.0,454.0" stroke="#000000" stroke-width="1"/>
      <polyline fill="none" points="458.0,759.0 458.0,748.0 377.0,748.0 377.0,788.0 299.0,788.0 299.0,775.0 281.0,775.0 281.0,788.0 274.0,788.0 274.0,1002.0" stroke="#000000" stroke-width="1"/>
      <polyline fill="none" points="239.0,454.0 239.0,559.0 -17.0,514.0 -30.0,588.0" stroke="#000000" stroke-width="1"/>
      <polyline fill="none" points="-12.0,591.0 -3.0,541.0 239.0,583.0 239.0,1002.0" stroke="#000000" stroke-width="1"/>
      <polyline fill="none" points="290.0,946.0 290.0,1029.0 224.0,1029.0 224.0,946.0" stroke="#000000" stroke-width="1"/>
      <polyline fill="none" points="458.0,720.0 377.0,720.0" stroke="#000000" stroke-width="1"/>
      <line stroke="#000000" stroke-width="1" x1="451.0" x2="451.0" y1="720.0" y2="748.0"/>
      <line stroke="#000000" stroke-width="1" x1="447.0" x2="447.0" y1="720.0" y2="748.0"/>
      <line stroke="#000000" stroke-width="1" x1="443.0" x2="443.0" y1="720.0" y2="748.0"/>
      <line stroke="#000000" stroke-width="1" x1="439.0" x2="439.0" y1="720.0" y2="748.0"/>
      <line stroke="#000000" stroke-width="1" x1="435.0" x2="435.0" y1="720.0" y2="748.0"/>
      <line stroke="#000000" stroke-width="1" x1="431.0" x2="431.0" y1="720.0" y2="748.0"/>
      <line stroke="#000000" stroke-width="1" x1="427.0" x2="427.0" y1="720.0" y2="748.0"/>
      <line stroke="#000000" stroke-width="1" x1="423.0" x2="423.0" y1="720.0" y2="748.0"/>
      <line stroke="#000000" stroke-width="1" x1="419.0" x2="419.0" y1="720.0" y2="748.0"/>
      <line stroke="#000000" stroke-width="1" x1="415.0" x2="415.0" y1="720.0" y2="748.0"/>
      <line stroke="#000000" stroke-width="1" x1="411.0" x2="411.0" y1="720.0" y2="748.0"/>
      <line stroke="#000000" stroke-width="1" x1="407.0" x2="407.0" y1="720.0" y2="748.0"/>
      <line stroke="#000000" stroke-width="1" x1="403.0" x2="403.0" y1="720.0" y2="748.0"/>
      <line stroke="#000000" stroke-width="1" x1="399.0" x2="399.0" y1="720.0" y2="748.0"/>
      <line stroke="#000000" stroke-width="1" x1="395.0" x2="395.0" y1="720.0" y2="748.0"/>
      <line stroke="#000000" stroke-width="1" x1="391.0" x2="391.0" y1="720.0" y2="748.0"/>
      <line stroke="#000000" stroke-width="1" x1="387.0" x2="387.0" y1="720.0" y2="748.0"/>
      <line stroke="#000000" stroke-width="1" x1="383.0" x2="383.0" y1="720.0" y2="748.0"/>
      <line stroke="#000000" stroke-width="1" x1="258.0" x2="239.0" y1="456.0" y2="456.0"/>
      <line stroke="#000000" stroke-width="1" x1="258.0" x2="239.0" y1="460.0" y2="460.0"/>
      <line stroke="#000000" stroke-width="1" x1="258.0" x2="239.0" y1="464.0" y2="464.0"/>
      <line stroke="#000000" stroke-width="1" x1="258.0" x2="239.0" y1="468.0" y2="468.0"/>
      <line stroke="#000000" stroke-width="1" x1="258.0" x2="239.0" y1="472.0" y2="472.0"/>
      <line stroke="#000000" stroke-width="1" x1="258.0" x2="239.0" y1="476.0" y2="476.0"/>
      <line stroke="#000000" stroke-width="1" x1="258.0" x2="239.0" y1="480.0" y2="480.0"/>
      <line stroke="#000000" stroke-width="1" x1="258.0" x2="239.0" y1="484.0" y2="484.0"/>
      <line stroke="#000000" stroke-width="1" x1="258.0" x2="239.0" y1="488.0" y2="488.0"/>
      <line stroke="#000000" stroke-width="1" x1="258.0" x2="239.0" y1="492.0" y2="492.0"/>
      <line stroke="#000000" stroke-width="1" x1="258.0" x2="239.0" y1="496.0" y2="496.0"/>
      <line stroke="#000000" stroke-width="1" x1="258.0" x2="239.0" y1="500.0" y2="500.0"/>
      <line stroke="#000000" stroke-width="1" x1="274.0" x2="261.0" y1="980.0" y2="980.0"/>
      <line stroke="#000000" stroke-width="1" x1="274.0" x2="261.0" y1="984.0" y2="984.0"/>
      <line stroke="#000000" stroke-width="1" x1="274.0" x2="261.0" y1="988.0" y2="988.0"/>
      <line stroke="#000000" stroke-width="1" x1="274.0" x2="261.0" y1="992.0" y2="992.0"/>
      <line stroke="#000000" stroke-width="1" x1="274.0" x2="261.0" y1="996.0" y2="996.0"/>
      <line stroke="#000000" stroke-width="1" x1="274.0" x2="261.0" y1="1000.0" y2="1000.0"/>
      <line stroke="#000000" stroke-width="1" x1="-12.0" x2="-29.0" y1="589.0" y2="586.0"/>
      <line stroke="#000000" stroke-width="1" x1="-11.299866661130022" x2="-28.29986666113002" y1="585.0617499688564" y2="582.0617499688564"/>
      <line stroke="#000000" stroke-width="1" x1="-10.599733322260043" x2="-27.599733322260043" y1="581.1234999377127" y2="578.1234999377127"/>
      <line stroke="#000000" stroke-width="1" x1="-9.899599983390065" x2="-26.899599983390065" y1="577.1852499065691" y2="574.1852499065691"/>
      <line stroke="#000000" stroke-width="1" x1="-9.199466644520086" x2="-26.199466644520086" y1="573.2469998754254" y2="570.2469998754254"/>
      <line stroke="#000000" stroke-width="1" x1="-8.499333305650108" x2="-25.499333305650108" y1="569.3087498442818" y2="566.3087498442818"/>
      <line stroke="#000000" stroke-width="1" x1="-7.79919996678013" x2="-24.79919996678013" y1="565.3704998131382" y2="562.3704998131382"/>
      <line stroke="#000000" stroke-width="1" x1="-7.099066627910153" x2="-24.09906662791015" y1="561.4322497819945" y2="558.4322497819945"/>
      <line stroke="#000000" stroke-width="1" x1="-6.398933289040175" x2="-23.398933289040173" y1="557.4939997508509" y2="554.4939997508509"/>
      <line stroke="#000000" stroke-width="1" x1="-5.698799950170198" x2="-22.698799950170194" y1="553.5557497197073" y2="550.5557497197073"/>
      <line stroke="#000000" stroke-width="1" x1="-4.99866661130022" x2="-21.998666611300216" y1="549.6174996885636" y2="546.6174996885636"/>
      <line stroke="#000000" stroke-width="1" x1="-4.298533272430243" x2="-21.298533272430237" y1="545.67924965742" y2="542.67924965742"/>
      <line stroke="#000000" stroke-width="1" x1="274.0" x2="239.0" y1="946.0" y2="946.0"/>
      <line stroke="#000000" stroke-width="1" x1="274.0" x2="239.0" y1="950.0" y2="950.0"/>
      <line stroke="#000000" stroke-width="1" x1="274.0" x2="239.0" y1="954.0" y2="954.0"/>
      <line stroke="#000000" stroke-width="1" x1="274.0" x2="239.0" y1="958.0" y2="958.0"/>
      <line stroke="#000000" stroke-width="1" x1="274.0" x2="239.0" y1="962.0" y2="962.0"/>
      <line stroke="#000000" stroke-width="1" x1="274.0" x2="239.0" y1="966.0" y2="966.0"/>
      <line stroke="#000000" stroke-width="1" x1="252.0" x2="239.0" y1="980.0" y2="980.0"/>
      <line stroke="#000000" stroke-width="1" x1="252.0" x2="239.0" y1="984.0" y2="984.0"/>
      <line stroke="#000000" stroke-width="1" x1="252.0" x2="239.0" y1="988.0" y2="988.0"/>
      <line stroke="#000000" stroke-width="1" x1="252.0" x2="239.0" y1="992.0" y2="992.0"/>
      <line stroke="#000000" stroke-width="1" x1="252.0" x2="239.0" y1="996.0" y2="996.0"/>
      <line stroke="#000000" stroke-width="1" x1="252.0" x2="239.0" y1="1000.0" y2="1000.0"/>
      <line stroke="#7f7f7f" stroke-width="1" x1="394.0" x2="394.0" y1="697.0" y2="717.0"/>
      <line stroke="#7f7f7f" stroke-width="1" x1="398.0" x2="398.0" y1="697.0" y2="717.0"/>
      <line stroke="#7f7f7f" stroke-width="1" x1="402.0" x2="402.0" y1="697.0" y2="717.0"/>
      <line stroke="#7f7f7f" stroke-width="1" x1="406.0" x2="406.0" y1="697.0" y2="717.0"/>
      <line stroke="#7f7f7f" stroke-width="1" x1="410.0" x2="410.0" y1="697.0" y2="717.0"/>
      <line stroke="#7f7f7f" stroke-width="1" x1="414.0" x2="414.0" y1="697.0" y2="717.0"/>
      <line stroke="#7f7f7f" stroke-width="1" x1="418.0" x2="418.0" y1="697.0" y2="717.0"/>
      <line stroke="#7f7f7f" stroke-width="1" x1="422.0" x2="422.0" y1="697.0" y2="717.0"/>
      <line stroke="#7f7f7f" stroke-width="1" x1="426.0" x2="426.0" y1="697.0" y2="717.0"/>
      <line stroke="#7f7f7f" stroke-width="1" x1="430.0" x2="430.0" y1="697.0" y2="717.0"/>
      <line stroke="#7f7f7f" stroke-width="1" x1="434.0" x2="434.0" y1="697.0" y2="717.0"/>
      <line stroke="#7f7f7f" stroke-width="1" x1="438.0" x2="438.0" y1="697.0" y2="717.0"/>
      <polygon fill="#9b5509" points="388.0,694.0 445.0,694.0 445.0,697.0 388.0,697.0" stroke="#000000" stroke-width="1"/>
      <polygon fill="#9b5509" points="388.0,705.0 445.0,705.0 445.0,709.0 388.0,709.0" stroke="#000000" stroke-width="1"/>
      <polygon fill="#9b5509" points="388.0,717.0 445.0,717.0 445.0,720.0 388.0,720.0" stroke="#000000" stroke-width="1"/>
      <polyline fill="none" points="377.0,761.0 385.0,761.0 385.0,788.0 377.0,788.0" stroke="#000000" stroke-width="1"/>
      <text fill="#000000" font-family="Arial" font-size="10.0" stroke="none" stroke-width="0" transform="rotate(90.0,387.0,762.0)" x="387.0" y="772.0">кассы</text>
      <polyline fill="none" points="377.0,758.0 362.0,758.0" stroke="#000000" stroke-width="0.5"/>
      <polygon fill="none" points="322.0,720.0 322.0,714.0 328.0,714.0 328.0,720.0" stroke="#000000" stroke-width="1"/>
      <polyline fill="none" points="325.0,714.0 325.0,700.0" stroke="#000000" stroke-width="0.5"/>
      <polyline fill="none" points="325.0,663.0 325.0,650.0" stroke="#000000" stroke-width="0.5"/>
      <polyline fill="none" points="322.0,717.0 299.0,717.0" stroke="#000000" stroke-width="0.5"/>
      <line stroke="#009900" stroke-width="1" x1="360.0" x2="363.0" y1="759.0" y2="756.0"/>
      <line stroke="#009900" stroke-width="1" x1="357.2535058681451" x2="360.2535058681451" y1="756.0919473898007" y2="753.0919473898007"/>
      <line stroke="#009900" stroke-width="1" x1="354.5070117362902" x2="357.5070117362902" y1="753.1838947796014" y2="750.1838947796014"/>
      <line stroke="#009900" stroke-width="1" x1="351.76051760443534" x2="354.76051760443534" y1="750.275842169402" y2="747.275842169402"/>
      <line stroke="#009900" stroke-width="1" x1="349.01402347258045" x2="352.01402347258045" y1="747.3677895592027" y2="744.3677895592027"/>
      <line stroke="#009900" stroke-width="1" x1="346.26752934072556" x2="349.26752934072556" y1="744.4597369490034" y2="741.4597369490034"/>
      <line stroke="#009900" stroke-width="1" x1="343.52103520887067" x2="346.52103520887067" y1="741.5516843388041" y2="738.5516843388041"/>
      <line stroke="#009900" stroke-width="1" x1="340.7745410770158" x2="343.7745410770158" y1="738.6436317286048" y2="735.6436317286048"/>
      <line stroke="#009900" stroke-width="1" x1="338.0280469451609" x2="341.0280469451609" y1="735.7355791184054" y2="732.7355791184054"/>
      <line stroke="#009900" stroke-width="1" x1="335.281552813306" x2="338.281552813306" y1="732.8275265082061" y2="729.8275265082061"/>
      <line stroke="#009900" stroke-width="1" x1="332.5350586814511" x2="335.5350586814511" y1="729.9194738980068" y2="726.9194738980068"/>
      <line stroke="#009900" stroke-width="1" x1="329.78856454959623" x2="332.78856454959623" y1="727.0114212878075" y2="724.0114212878075"/>
      <line stroke="#009900" stroke-width="1" x1="327.04207041774134" x2="330.04207041774134" y1="724.1033686776082" y2="721.1033686776082"/>
      <line stroke="#ff0000" stroke-width="1" x1="323.0" x2="327.0" y1="700.0" y2="700.0"/>
      <line stroke="#ff0000" stroke-width="1" x1="323.0" x2="327.0" y1="696.0" y2="696.0"/>
      <line stroke="#ff0000" stroke-width="1" x1="323.0" x2="327.0" y1="692.0" y2="692.0"/>
      <line stroke="#ff0000" stroke-width="1" x1="323.0" x2="327.0" y1="688.0" y2="688.0"/>
      <line stroke="#ff0000" stroke-width="1" x1="323.0" x2="327.0" y1="684.0" y2="684.0"/>
      <line stroke="#ff0000" stroke-width="1" x1="323.0" x2="327.0" y1="680.0" y2="680.0"/>
      <line stroke="#ff0000" stroke-width="1" x1="323.0" x2="327.0" y1="676.0" y2="676.0"/>
      <line stroke="#ff0000" stroke-width="1" x1="323.0" x2="327.0" y1="672.0" y2="672.0"/>
      <line stroke="#ff0000" stroke-width="1" x1="323.0" x2="327.0" y1="668.0" y2="668.0"/>
      <line stroke="#ff0000" stroke-width="1" x1="323.0" x2="327.0" y1="664.0" y2="664.0"/>
      <polyline fill="none" marker-end="url(#id498)" points="355.0,679.0 338.0,679.0" stroke="#ff0000" stroke-width="1"/>
      <polyline fill="none" marker-end="url(#id498)" points="985.0,758.0 1003.0,758.0" stroke="#ff0000" stroke-width="1"/>
      <polyline fill="none" marker-end="url(#id498)" points="306.0,760.0 322.0,754.0" stroke="#009900" stroke-width="1"/>
      <polyline fill="none" marker-end="url(#id498)" points="1043.0,676.0 1026.0,685.0" stroke="#009900" stroke-width="1"/>
      <ellipse cx="174.0" cy="383.0" fill="#0000ff" rx="20.0" ry="20.0" stroke="#000000" stroke-width="1"/>
      <ellipse cx="374.0" cy="887.0" fill="#0000ff" rx="20.0" ry="20.0" stroke="#000000" stroke-width="1"/>
      <ellipse cx="-154.0" cy="663.0" fill="#0000ff" rx="20.0" ry="20.0" stroke="#000000" stroke-width="1"/>
      <text fill="#ffffff" font-family="Arial" font-size="25.0" stroke="none" stroke-width="0" transform="rotate(90.0,188.0,375.0)" x="188.0" y="400.0">A</text>
      <text fill="#ffffff" font-family="Arial" font-size="25.0" stroke="none" stroke-width="0" transform="rotate(90.0,388.0,879.0)" x="388.0" y="904.0">A</text>
      <text fill="#ffffff" font-family="Arial" font-size="25.0" stroke="none" stroke-width="0" transform="rotate(90.0,-141.0,655.0)" x="-141.0" y="680.0">A</text>
      <text fill="#00afaf" font-family="Arial" font-size="15.0" stroke="none" stroke-width="0" x="1074.0" y="506.0">ДК Лаврова</text>
      <polyline fill="none" marker-end="url(#id498)" points="1077.0,517.0 1150.0,517.0" stroke="#00afaf" stroke-width="1"/>
      <text fill="#00afaf" font-family="Arial" font-size="15.0" stroke="none" stroke-width="0" x="70.0" y="729.0">проспект Космонавтов</text>
      <text fill="#00afaf" font-family="Arial" font-size="15.0" stroke="none" stroke-width="0" x="1116.0" y="726.0">проспект Космонавтов</text>
      <text fill="#00afaf" font-family="Arial" font-size="15.0" stroke="none" stroke-width="0" transform="rotate(100.0,84.0,351.0)" x="84.0" y="366.0">улица Машиностроителей</text>
      <text fill="#00afaf" font-family="Arial" font-size="15.0" stroke="none" stroke-width="0" transform="rotate(84.0,110.0,1048.0)" x="110.0" y="1063.0">улица Баумана</text>
      <text fill="#00afaf" font-family="Arial" font-size="15.0" stroke="none" stroke-width="0" x="-59.0" y="1167.0">'кинотеатр &quot;Заря&quot;'</text>
      <text fill="#00afaf" font-family="Arial" font-size="15.0" stroke="none" stroke-width="0" transform="rotate(90.0,-72.0,1026.0)" x="-72.0" y="1041.0">улица Краснофлотцев</text>
      <text fill="#00afaf" font-family="Arial" font-size="15.0" stroke="none" stroke-width="0" transform="rotate(90.0,134.0,272.0)" x="134.0" y="287.0">Троллейбус 17 (в сторону Уралмаша)</text>
      <text fill="#00afaf" font-family="Arial" font-size="15.0" stroke="none" stroke-width="0" transform="rotate(90.0,151.0,272.0)" x="151.0" y="287.0">&quot;Автобусы 36</text>
      <polyline fill="none" marker-end="url(#id498)" points="100.0,398.0 100.0,301.0" stroke="#00afaf" stroke-width="1"/>
      <text fill="#00afaf" font-family="Arial" font-size="15.0" stroke="none" stroke-width="0" transform="rotate(90.0,117.0,272.0)" x="117.0" y="287.0">&quot;Трамваи 5</text>
      <text fill="#00afaf" font-family="Arial" font-size="15.0" stroke="none" stroke-width="0" transform="rotate(90.0,417.0,870.0)" x="417.0" y="885.0">&quot;Троллейбусы 3</text>
      <text fill="#00afaf" font-family="Arial" font-size="15.0" stroke="none" stroke-width="0" transform="rotate(90.0,434.0,870.0)" x="434.0" y="885.0">&quot;Автобусы 56</text>
      <polyline fill="none" marker-end="url(#id498)" points="369.0,857.0 444.0,857.0" stroke="#00afaf" stroke-width="1"/>
      <text fill="#00afaf" font-family="Arial" font-size="15.0" stroke="none" stroke-width="0" x="-222.0" y="615.0">&quot;Троллейбусы 3</text>
      <polyline fill="none" marker-end="url(#id498)" points="-116.0,639.0 -201.0,639.0" stroke="#00afaf" stroke-width="1"/>
    </g>
  </g>
</svg>
