<?xml version="1.0" encoding="utf-8" ?>
<svg baseProfile="full" height="580.0" version="1.1" width="950.0" xmlns="http://www.w3.org/2000/svg" xmlns:ev="http://www.w3.org/2001/xml-events" xmlns:xlink="http://www.w3.org/1999/xlink">
  <defs>
    <marker id="id388" markerHeight="3" markerUnits="strokeWidth" markerWidth="4" orient="auto" refX="0" refY="5" viewBox="0,0,10,10">
      <path d="M 0 0 L 10 5 L 0 10 z"/>
    </marker>
  </defs>
  <g>
    <rect fill="none" height="580.0" stroke="none" stroke-width="0" width="950.0" x="0.0" y="0.0"/>
    <g transform="rotate(25.0,475.0,290.0)">
      <polygon fill="#5d87c3" points="505.0,336.0 955.0,336.0 955.0,366.0 505.0,366.0" stroke="#000000" stroke-width="1"/>
      <polygon fill="#5d87c3" points="505.0,256.0 955.0,256.0 955.0,226.0 505.0,226.0" stroke="#000000" stroke-width="1"/>
      <text fill="#5d87c3" font-family="Arial" font-size="20.0" stroke="none" stroke-width="0" x="506.0" y="222.0">&lt;&lt; Металлургов</text>
      <text fill="#5d87c3" font-family="Arial" font-size="20.0" stroke="none" stroke-width="0" x="831.0" y="386.0">Вокзальная &gt;&gt;</text>
      <text fill="#5d87c3" font-family="Arial" font-size="25.0" stroke="none" stroke-width="0" x="645.0" y="303.0">Метростроителей</text>
      <polyline fill="none" points="955.0,336.0 955.0,256.0" stroke="#000000" stroke-width="1"/>
      <polyline fill="none" points="505.0,256.0 505.0,273.0 476.0,273.0 476.0,277.0" stroke="#000000" stroke-width="1"/>
      <polyline fill="none" points="505.0,336.0 505.0,319.0 476.0,319.0 476.0,315.0" stroke="#000000" stroke-width="1"/>
      <polyline fill="none" points="272.0,277.0 272.0,270.0 255.0,253.0 183.0,253.0 183.0,271.0 169.0,271.0 169.0,151.0 95.0,151.0" stroke="#000000" stroke-width="1"/>
      <polyline fill="none" points="95.0,169.0 145.0,169.0 145.0,398.0 89.0,398.0" stroke="#000000" stroke-width="1"/>
      <polyline fill="none" points="89.0,416.0 311.0,416.0" stroke="#000000" stroke-width="1"/>
      <polyline fill="none" points="311.0,398.0 169.0,398.0 169.0,321.0 183.0,321.0 183.0,339.0 255.0,339.0 272.0,322.0 272.0,315.0" stroke="#000000" stroke-width="1"/>
      <line stroke="#000000" stroke-width="1" x1="97.0" x2="97.0" y1="169.0" y2="151.0"/>
      <line stroke="#000000" stroke-width="1" x1="101.0" x2="101.0" y1="169.0" y2="151.0"/>
      <line stroke="#000000" stroke-width="1" x1="105.0" x2="105.0" y1="169.0" y2="151.0"/>
      <line stroke="#000000" stroke-width="1" x1="109.0" x2="109.0" y1="169.0" y2="151.0"/>
      <line stroke="#000000" stroke-width="1" x1="113.0" x2="113.0" y1="169.0" y2="151.0"/>
      <line stroke="#000000" stroke-width="1" x1="117.0" x2="117.0" y1="169.0" y2="151.0"/>
      <line stroke="#000000" stroke-width="1" x1="121.0" x2="121.0" y1="169.0" y2="151.0"/>
      <line stroke="#000000" stroke-width="1" x1="125.0" x2="125.0" y1="169.0" y2="151.0"/>
      <line stroke="#000000" stroke-width="1" x1="129.0" x2="129.0" y1="169.0" y2="151.0"/>
      <line stroke="#000000" stroke-width="1" x1="133.0" x2="133.0" y1="169.0" y2="151.0"/>
      <line stroke="#000000" stroke-width="1" x1="137.0" x2="137.0" y1="169.0" y2="151.0"/>
      <line stroke="#000000" stroke-width="1" x1="141.0" x2="141.0" y1="169.0" y2="151.0"/>
      <line stroke="#000000" stroke-width="1" x1="91.0" x2="91.0" y1="398.0" y2="416.0"/>
      <line stroke="#000000" stroke-width="1" x1="95.0" x2="95.0" y1="398.0" y2="416.0"/>
      <line stroke="#000000" stroke-width="1" x1="99.0" x2="99.0" y1="398.0" y2="416.0"/>
      <line stroke="#000000" stroke-width="1" x1="103.0" x2="103.0" y1="398.0" y2="416.0"/>
      <line stroke="#000000" stroke-width="1" x1="107.0" x2="107.0" y1="398.0" y2="416.0"/>
      <line stroke="#000000" stroke-width="1" x1="111.0" x2="111.0" y1="398.0" y2="416.0"/>
      <line stroke="#000000" stroke-width="1" x1="115.0" x2="115.0" y1="398.0" y2="416.0"/>
      <line stroke="#000000" stroke-width="1" x1="119.0" x2="119.0" y1="398.0" y2="416.0"/>
      <line stroke="#000000" stroke-width="1" x1="123.0" x2="123.0" y1="398.0" y2="416.0"/>
      <line stroke="#000000" stroke-width="1" x1="127.0" x2="127.0" y1="398.0" y2="416.0"/>
      <line stroke="#000000" stroke-width="1" x1="131.0" x2="131.0" y1="398.0" y2="416.0"/>
      <line stroke="#000000" stroke-width="1" x1="135.0" x2="135.0" y1="398.0" y2="416.0"/>
      <line stroke="#000000" stroke-width="1" x1="309.0" x2="309.0" y1="398.0" y2="416.0"/>
      <line stroke="#000000" stroke-width="1" x1="305.0" x2="305.0" y1="398.0" y2="416.0"/>
      <line stroke="#000000" stroke-width="1" x1="301.0" x2="301.0" y1="398.0" y2="416.0"/>
      <line stroke="#000000" stroke-width="1" x1="297.0" x2="297.0" y1="398.0" y2="416.0"/>
      <line stroke="#000000" stroke-width="1" x1="293.0" x2="293.0" y1="398.0" y2="416.0"/>
      <line stroke="#000000" stroke-width="1" x1="289.0" x2="289.0" y1="398.0" y2="416.0"/>
      <line stroke="#000000" stroke-width="1" x1="285.0" x2="285.0" y1="398.0" y2="416.0"/>
      <line stroke="#000000" stroke-width="1" x1="281.0" x2="281.0" y1="398.0" y2="416.0"/>
      <line stroke="#000000" stroke-width="1" x1="277.0" x2="277.0" y1="398.0" y2="416.0"/>
      <line stroke="#000000" stroke-width="1" x1="273.0" x2="273.0" y1="398.0" y2="416.0"/>
      <line stroke="#000000" stroke-width="1" x1="269.0" x2="269.0" y1="398.0" y2="416.0"/>
      <line stroke="#000000" stroke-width="1" x1="265.0" x2="265.0" y1="398.0" y2="416.0"/>
      <polygon fill="#d0d0d0" points="169.0,292.0 183.0,292.0 183.0,300.0 169.0,300.0" stroke="#000000" stroke-width="1"/>
      <line stroke="#7f7f7f" stroke-width="1" x1="270.0" x2="270.0" y1="280.0" y2="312.0"/>
      <line stroke="#7f7f7f" stroke-width="1" x1="274.0" x2="274.0" y1="280.0" y2="312.0"/>
      <line stroke="#7f7f7f" stroke-width="1" x1="278.0" x2="278.0" y1="280.0" y2="312.0"/>
      <line stroke="#7f7f7f" stroke-width="1" x1="282.0" x2="282.0" y1="280.0" y2="312.0"/>
      <line stroke="#7f7f7f" stroke-width="1" x1="286.0" x2="286.0" y1="280.0" y2="312.0"/>
      <line stroke="#7f7f7f" stroke-width="1" x1="290.0" x2="290.0" y1="280.0" y2="312.0"/>
      <line stroke="#7f7f7f" stroke-width="1" x1="294.0" x2="294.0" y1="280.0" y2="312.0"/>
      <line stroke="#7f7f7f" stroke-width="1" x1="298.0" x2="298.0" y1="280.0" y2="312.0"/>
      <line stroke="#7f7f7f" stroke-width="1" x1="302.0" x2="302.0" y1="280.0" y2="312.0"/>
      <line stroke="#7f7f7f" stroke-width="1" x1="306.0" x2="306.0" y1="280.0" y2="312.0"/>
      <line stroke="#7f7f7f" stroke-width="1" x1="310.0" x2="310.0" y1="280.0" y2="312.0"/>
      <line stroke="#7f7f7f" stroke-width="1" x1="314.0" x2="314.0" y1="280.0" y2="312.0"/>
      <line stroke="#7f7f7f" stroke-width="1" x1="318.0" x2="318.0" y1="280.0" y2="312.0"/>
      <line stroke="#7f7f7f" stroke-width="1" x1="322.0" x2="322.0" y1="280.0" y2="312.0"/>
      <line stroke="#7f7f7f" stroke-width="1" x1="326.0" x2="326.0" y1="280.0" y2="312.0"/>
      <line stroke="#7f7f7f" stroke-width="1" x1="330.0" x2="330.0" y1="280.0" y2="312.0"/>
      <line stroke="#7f7f7f" stroke-width="1" x1="334.0" x2="334.0" y1="280.0" y2="312.0"/>
      <line stroke="#7f7f7f" stroke-width="1" x1="338.0" x2="338.0" y1="280.0" y2="312.0"/>
      <line stroke="#7f7f7f" stroke-width="1" x1="342.0" x2="342.0" y1="280.0" y2="312.0"/>
      <line stroke="#7f7f7f" stroke-width="1" x1="346.0" x2="346.0" y1="280.0" y2="312.0"/>
      <line stroke="#7f7f7f" stroke-width="1" x1="350.0" x2="350.0" y1="280.0" y2="312.0"/>
      <line stroke="#7f7f7f" stroke-width="1" x1="354.0" x2="354.0" y1="280.0" y2="312.0"/>
      <line stroke="#7f7f7f" stroke-width="1" x1="358.0" x2="358.0" y1="280.0" y2="312.0"/>
      <line stroke="#7f7f7f" stroke-width="1" x1="362.0" x2="362.0" y1="280.0" y2="312.0"/>
      <line stroke="#7f7f7f" stroke-width="1" x1="366.0" x2="366.0" y1="280.0" y2="312.0"/>
      <line stroke="#7f7f7f" stroke-width="1" x1="370.0" x2="370.0" y1="280.0" y2="312.0"/>
      <line stroke="#7f7f7f" stroke-width="1" x1="374.0" x2="374.0" y1="280.0" y2="312.0"/>
      <line stroke="#7f7f7f" stroke-width="1" x1="378.0" x2="378.0" y1="280.0" y2="312.0"/>
      <line stroke="#7f7f7f" stroke-width="1" x1="382.0" x2="382.0" y1="280.0" y2="312.0"/>
      <line stroke="#7f7f7f" stroke-width="1" x1="386.0" x2="386.0" y1="280.0" y2="312.0"/>
      <line stroke="#7f7f7f" stroke-width="1" x1="390.0" x2="390.0" y1="280.0" y2="312.0"/>
      <line stroke="#7f7f7f" stroke-width="1" x1="394.0" x2="394.0" y1="280.0" y2="312.0"/>
      <line stroke="#7f7f7f" stroke-width="1" x1="398.0" x2="398.0" y1="280.0" y2="312.0"/>
      <line stroke="#7f7f7f" stroke-width="1" x1="402.0" x2="402.0" y1="280.0" y2="312.0"/>
      <line stroke="#7f7f7f" stroke-width="1" x1="406.0" x2="406.0" y1="280.0" y2="312.0"/>
      <line stroke="#7f7f7f" stroke-width="1" x1="410.0" x2="410.0" y1="280.0" y2="312.0"/>
      <line stroke="#7f7f7f" stroke-width="1" x1="414.0" x2="414.0" y1="280.0" y2="312.0"/>
      <line stroke="#7f7f7f" stroke-width="1" x1="418.0" x2="418.0" y1="280.0" y2="312.0"/>
      <line stroke="#7f7f7f" stroke-width="1" x1="422.0" x2="422.0" y1="280.0" y2="312.0"/>
      <line stroke="#7f7f7f" stroke-width="1" x1="426.0" x2="426.0" y1="280.0" y2="312.0"/>
      <line stroke="#7f7f7f" stroke-width="1" x1="430.0" x2="430.0" y1="280.0" y2="312.0"/>
      <line stroke="#7f7f7f" stroke-width="1" x1="434.0" x2="434.0" y1="280.0" y2="312.0"/>
      <line stroke="#7f7f7f" stroke-width="1" x1="438.0" x2="438.0" y1="280.0" y2="312.0"/>
      <line stroke="#7f7f7f" stroke-width="1" x1="442.0" x2="442.0" y1="280.0" y2="312.0"/>
      <line stroke="#7f7f7f" stroke-width="1" x1="446.0" x2="446.0" y1="280.0" y2="312.0"/>
      <line stroke="#7f7f7f" stroke-width="1" x1="450.0" x2="450.0" y1="280.0" y2="312.0"/>
      <line stroke="#7f7f7f" stroke-width="1" x1="454.0" x2="454.0" y1="280.0" y2="312.0"/>
      <line stroke="#7f7f7f" stroke-width="1" x1="458.0" x2="458.0" y1="280.0" y2="312.0"/>
      <line stroke="#7f7f7f" stroke-width="1" x1="462.0" x2="462.0" y1="280.0" y2="312.0"/>
      <line stroke="#7f7f7f" stroke-width="1" x1="466.0" x2="466.0" y1="280.0" y2="312.0"/>
      <line stroke="#7f7f7f" stroke-width="1" x1="470.0" x2="470.0" y1="280.0" y2="312.0"/>
      <line stroke="#7f7f7f" stroke-width="1" x1="474.0" x2="474.0" y1="280.0" y2="312.0"/>
      <line stroke="#7f7f7f" stroke-width="1" x1="478.0" x2="478.0" y1="280.0" y2="312.0"/>
      <line stroke="#7f7f7f" stroke-width="1" x1="482.0" x2="482.0" y1="280.0" y2="312.0"/>
      <polygon fill="#9b5509" points="264.0,277.0 488.0,277.0 488.0,280.0 264.0,280.0" stroke="#000000" stroke-width="1"/>
      <polygon fill="#9b5509" points="264.0,288.0 488.0,288.0 488.0,292.0 264.0,292.0" stroke="#000000" stroke-width="1"/>
      <polygon fill="#9b5509" points="264.0,300.0 488.0,300.0 488.0,304.0 264.0,304.0" stroke="#000000" stroke-width="1"/>
      <polygon fill="#9b5509" points="264.0,312.0 488.0,312.0 488.0,315.0 264.0,315.0" stroke="#000000" stroke-width="1"/>
      <text fill="#00afaf" font-family="Arial" font-size="15.0" stroke="none" stroke-width="0" x="9.0" y="295.0">проспект Калинина</text>
      <text fill="#00afaf" font-family="Arial" font-size="15.0" stroke="none" stroke-width="0" transform="rotate(-90.0,191.0,578.0)" x="191.0" y="593.0">проспект Петровского</text>
      <text fill="#000000" font-family="Arial" font-size="15.0" stroke="none" stroke-width="0" x="55.0" y="483.0">Украинский дом (ДК им. Ильича)</text>
    </g>
  </g>
</svg>
