<?xml version="1.0" encoding="utf-8" ?>
<svg baseProfile="full" height="100%" version="1.1" width="100%" xmlns="http://www.w3.org/2000/svg" xmlns:ev="http://www.w3.org/2001/xml-events" xmlns:xlink="http://www.w3.org/1999/xlink"><defs><marker id="id2" markerHeight="3" markerUnits="strokeWidth" markerWidth="4" orient="auto" refX="0" refY="5" viewBox="0,0,10,10"><path d="M 0 0 L 10 5 L 0 10 z" /></marker></defs><g transform="scale(0.5) rotate(20.0,590,435)"><rect fill="none" height="870" stroke="none" width="1180" x="0" y="0" /><polyline fill="none" points="-39,432 301,373 936,770" stroke="#F5F5F5" stroke-width="40" /><polyline fill="none" points="372,420 353,985" stroke="#F5F5F5" stroke-width="40" /><polyline fill="none" points="595,554 416,847 361,844" stroke="#F5F5F5" stroke-width="20" /><polygon fill="#F5F5F5" points="567,458 443,668 279,728 136,334 488,241" stroke="#F5F5F5" stroke-width="1" /><polygon fill="#CC3333" points="770,532 1220,532 1220,502 770,502" stroke="#000000" stroke-width="1" /><polygon fill="#CC3333" points="1220,612 770,612 770,642 1220,642" stroke="#000000" stroke-width="1" /><text fill="#CC3333" font-family="Arial" font-size="25" stroke="none" x="927" y="483.0">Арсенальная</text><text fill="#CC3333" font-family="Arial" font-size="20" stroke="none" x="774" y="498.0">&lt;&lt; Крещатик</text><text fill="#CC3333" font-family="Arial" font-size="20" stroke="none" x="1137" y="662.0">Днепр &gt;&gt;</text><polyline fill="none" points="160,271 138,189 188,176" stroke="#000000" stroke-width="1" /><polyline fill="none" points="188,176 250,115 334,136" stroke="#000000" stroke-width="1" /><polyline fill="none" points="334,136 386,122 409,208" stroke="#000000" stroke-width="1" /><polyline fill="none" points="193,202 174,207 194,281 190,282" stroke="#000000" stroke-width="1" /><polyline fill="none" points="344,162 363,157 383,231 387,230" stroke="#000000" stroke-width="1" /><polyline fill="none" points="394,151 405,148 414,181 403,184" stroke="#000000" stroke-width="1" /><polyline fill="none" points="176,286 165,289 163,282" stroke="#000000" stroke-width="1" /><polyline fill="none" points="402,226 413,223 412,219" stroke="#000000" stroke-width="1" /><polyline fill="none" points="193,202 221,239 267,253" stroke="#000000" stroke-width="1" /><polyline fill="none" points="344,162 336,210 306,243" stroke="#000000" stroke-width="1" /><polyline fill="none" points="327,477 341,513 347,535" stroke="#000000" stroke-width="1" /><polyline fill="none" points="367,467 373,505 379,527" stroke="#000000" stroke-width="1" /><polygon fill="#d0d0d0" points="352,508 360,506 366,528 358,530" stroke="#000000" stroke-width="1" /><text fill="#000000" font-family="Arial" font-size="10" stroke="none" transform="rotate(-105.0,400,180)" x="400" y="190.0">кассы</text><polygon fill="none" points="312,181 317,186 322,181 317,176" stroke="#000000" stroke-width="1" /><polyline fill="none" points="320,184 339,203" stroke="#000000" stroke-width="0.5" /><polyline fill="none" points="273,223 287,153" stroke="#000000" stroke-width="0.5" /><line stroke="#009900" stroke-width="1" x1="288" x2="291" y1="154" y2="151" /><line stroke="#009900" stroke-width="1" x1="290.767621453" x2="293.767621453" y1="156.88795282" y2="153.88795282" /><line stroke="#009900" stroke-width="1" x1="293.535242906" x2="296.535242906" y1="159.775905641" y2="156.775905641" /><line stroke="#009900" stroke-width="1" x1="296.302864359" x2="299.302864359" y1="162.663858461" y2="159.663858461" /><line stroke="#009900" stroke-width="1" x1="299.070485812" x2="302.070485812" y1="165.551811282" y2="162.551811282" /><line stroke="#009900" stroke-width="1" x1="301.838107265" x2="304.838107265" y1="168.439764102" y2="165.439764102" /><line stroke="#009900" stroke-width="1" x1="304.605728718" x2="307.605728718" y1="171.327716923" y2="168.327716923" /><line stroke="#009900" stroke-width="1" x1="307.373350171" x2="310.373350171" y1="174.215669743" y2="171.215669743" /><line stroke="#009900" stroke-width="1" x1="310.140971624" x2="313.140971624" y1="177.103622564" y2="174.103622564" /><line stroke="#7F7F7F" stroke-width="1" x1="265" x2="299" y1="233" y2="224" /><line stroke="#7F7F7F" stroke-width="1" x1="266.038729753" x2="300.038729753" y1="236.862776269" y2="227.862776269" /><line stroke="#7F7F7F" stroke-width="1" x1="267.077459506" x2="301.077459506" y1="240.725552537" y2="231.725552537" /><line stroke="#7F7F7F" stroke-width="1" x1="268.116189259" x2="302.116189259" y1="244.588328806" y2="235.588328806" /><line stroke="#7F7F7F" stroke-width="1" x1="269.154919011" x2="303.154919011" y1="248.451105074" y2="239.451105074" /><line stroke="#7F7F7F" stroke-width="1" x1="270.193648764" x2="304.193648764" y1="252.313881343" y2="243.313881343" /><line stroke="#7F7F7F" stroke-width="1" x1="271.232378517" x2="305.232378517" y1="256.176657611" y2="247.176657611" /><line stroke="#7F7F7F" stroke-width="1" x1="272.27110827" x2="306.27110827" y1="260.03943388" y2="251.03943388" /><line stroke="#7F7F7F" stroke-width="1" x1="273.309838023" x2="307.309838023" y1="263.902210148" y2="254.902210148" /><line stroke="#7F7F7F" stroke-width="1" x1="274.348567776" x2="308.348567776" y1="267.764986417" y2="258.764986417" /><line stroke="#7F7F7F" stroke-width="1" x1="275.387297529" x2="309.387297529" y1="271.627762685" y2="262.627762685" /><line stroke="#7F7F7F" stroke-width="1" x1="276.426027282" x2="310.426027282" y1="275.490538954" y2="266.490538954" /><line stroke="#7F7F7F" stroke-width="1" x1="277.464757034" x2="311.464757034" y1="279.353315222" y2="270.353315222" /><line stroke="#7F7F7F" stroke-width="1" x1="278.503486787" x2="312.503486787" y1="283.216091491" y2="274.216091491" /><line stroke="#7F7F7F" stroke-width="1" x1="279.54221654" x2="313.54221654" y1="287.078867759" y2="278.078867759" /><line stroke="#7F7F7F" stroke-width="1" x1="280.580946293" x2="314.580946293" y1="290.941644028" y2="281.941644028" /><line stroke="#7F7F7F" stroke-width="1" x1="281.619676046" x2="315.619676046" y1="294.804420296" y2="285.804420296" /><line stroke="#7F7F7F" stroke-width="1" x1="282.658405799" x2="316.658405799" y1="298.667196565" y2="289.667196565" /><line stroke="#7F7F7F" stroke-width="1" x1="283.697135552" x2="317.697135552" y1="302.529972833" y2="293.529972833" /><line stroke="#7F7F7F" stroke-width="1" x1="284.735865305" x2="318.735865305" y1="306.392749102" y2="297.392749102" /><line stroke="#7F7F7F" stroke-width="1" x1="285.774595057" x2="319.774595057" y1="310.25552537" y2="301.25552537" /><line stroke="#7F7F7F" stroke-width="1" x1="286.81332481" x2="320.81332481" y1="314.118301639" y2="305.118301639" /><line stroke="#7F7F7F" stroke-width="1" x1="287.852054563" x2="321.852054563" y1="317.981077907" y2="308.981077907" /><line stroke="#7F7F7F" stroke-width="1" x1="288.890784316" x2="322.890784316" y1="321.843854176" y2="312.843854176" /><line stroke="#7F7F7F" stroke-width="1" x1="289.929514069" x2="323.929514069" y1="325.706630444" y2="316.706630444" /><line stroke="#7F7F7F" stroke-width="1" x1="290.968243822" x2="324.968243822" y1="329.569406713" y2="320.569406713" /><line stroke="#7F7F7F" stroke-width="1" x1="292.006973575" x2="326.006973575" y1="333.432182981" y2="324.432182981" /><line stroke="#7F7F7F" stroke-width="1" x1="293.045703328" x2="327.045703328" y1="337.29495925" y2="328.29495925" /><line stroke="#7F7F7F" stroke-width="1" x1="294.08443308" x2="328.08443308" y1="341.157735518" y2="332.157735518" /><line stroke="#7F7F7F" stroke-width="1" x1="295.123162833" x2="329.123162833" y1="345.020511787" y2="336.020511787" /><line stroke="#7F7F7F" stroke-width="1" x1="296.161892586" x2="330.161892586" y1="348.883288055" y2="339.883288055" /><line stroke="#7F7F7F" stroke-width="1" x1="297.200622339" x2="331.200622339" y1="352.746064324" y2="343.746064324" /><line stroke="#7F7F7F" stroke-width="1" x1="298.239352092" x2="332.239352092" y1="356.608840592" y2="347.608840592" /><line stroke="#7F7F7F" stroke-width="1" x1="299.278081845" x2="333.278081845" y1="360.471616861" y2="351.471616861" /><line stroke="#7F7F7F" stroke-width="1" x1="300.316811598" x2="334.316811598" y1="364.334393129" y2="355.334393129" /><line stroke="#7F7F7F" stroke-width="1" x1="301.355541351" x2="335.355541351" y1="368.197169398" y2="359.197169398" /><line stroke="#7F7F7F" stroke-width="1" x1="302.394271103" x2="336.394271103" y1="372.059945666" y2="363.059945666" /><line stroke="#7F7F7F" stroke-width="1" x1="303.433000856" x2="337.433000856" y1="375.922721935" y2="366.922721935" /><line stroke="#7F7F7F" stroke-width="1" x1="304.471730609" x2="338.471730609" y1="379.785498203" y2="370.785498203" /><line stroke="#7F7F7F" stroke-width="1" x1="305.510460362" x2="339.510460362" y1="383.648274472" y2="374.648274472" /><line stroke="#7F7F7F" stroke-width="1" x1="306.549190115" x2="340.549190115" y1="387.51105074" y2="378.51105074" /><line stroke="#7F7F7F" stroke-width="1" x1="307.587919868" x2="341.587919868" y1="391.373827009" y2="382.373827009" /><line stroke="#7F7F7F" stroke-width="1" x1="308.626649621" x2="342.626649621" y1="395.236603277" y2="386.236603277" /><line stroke="#7F7F7F" stroke-width="1" x1="309.665379374" x2="343.665379374" y1="399.099379546" y2="390.099379546" /><line stroke="#7F7F7F" stroke-width="1" x1="310.704109126" x2="344.704109126" y1="402.962155814" y2="393.962155814" /><line stroke="#7F7F7F" stroke-width="1" x1="311.742838879" x2="345.742838879" y1="406.824932083" y2="397.824932083" /><line stroke="#7F7F7F" stroke-width="1" x1="312.781568632" x2="346.781568632" y1="410.687708351" y2="401.687708351" /><line stroke="#7F7F7F" stroke-width="1" x1="313.820298385" x2="347.820298385" y1="414.55048462" y2="405.55048462" /><line stroke="#7F7F7F" stroke-width="1" x1="314.859028138" x2="348.859028138" y1="418.413260888" y2="409.413260888" /><line stroke="#7F7F7F" stroke-width="1" x1="315.897757891" x2="349.897757891" y1="422.276037157" y2="413.276037157" /><line stroke="#7F7F7F" stroke-width="1" x1="316.936487644" x2="350.936487644" y1="426.138813425" y2="417.138813425" /><line stroke="#7F7F7F" stroke-width="1" x1="317.975217397" x2="351.975217397" y1="430.001589694" y2="421.001589694" /><line stroke="#7F7F7F" stroke-width="1" x1="319.013947149" x2="353.013947149" y1="433.864365962" y2="424.864365962" /><line stroke="#7F7F7F" stroke-width="1" x1="320.052676902" x2="354.052676902" y1="437.727142231" y2="428.727142231" /><line stroke="#7F7F7F" stroke-width="1" x1="321.091406655" x2="355.091406655" y1="441.589918499" y2="432.589918499" /><line stroke="#7F7F7F" stroke-width="1" x1="322.130136408" x2="356.130136408" y1="445.452694768" y2="436.452694768" /><line stroke="#7F7F7F" stroke-width="1" x1="323.168866161" x2="357.168866161" y1="449.315471036" y2="440.315471036" /><line stroke="#7F7F7F" stroke-width="1" x1="324.207595914" x2="358.207595914" y1="453.178247305" y2="444.178247305" /><line stroke="#7F7F7F" stroke-width="1" x1="325.246325667" x2="359.246325667" y1="457.041023573" y2="448.041023573" /><line stroke="#7F7F7F" stroke-width="1" x1="326.28505542" x2="360.28505542" y1="460.903799842" y2="451.903799842" /><line stroke="#7F7F7F" stroke-width="1" x1="327.323785172" x2="361.323785172" y1="464.76657611" y2="455.76657611" /><line stroke="#7F7F7F" stroke-width="1" x1="328.362514925" x2="362.362514925" y1="468.629352379" y2="459.629352379" /><polygon fill="#9B5509" points="260,228 264,227 331,476 327,477" stroke="#000000" stroke-width="1" /><polygon fill="#9B5509" points="300,218 367,467 363,468 296,219" stroke="#000000" stroke-width="1" /><polygon fill="#9B5509" points="271,225 338,474 343,473 276,224" stroke="#000000" stroke-width="1" /><polygon fill="#9B5509" points="284,222 289,221 356,470 351,471" stroke="#000000" stroke-width="1" /><line stroke="#7F7F7F" stroke-width="1" x1="411" x2="411" y1="555" y2="589" /><line stroke="#7F7F7F" stroke-width="1" x1="415" x2="415" y1="555" y2="589" /><line stroke="#7F7F7F" stroke-width="1" x1="419" x2="419" y1="555" y2="589" /><line stroke="#7F7F7F" stroke-width="1" x1="423" x2="423" y1="555" y2="589" /><line stroke="#7F7F7F" stroke-width="1" x1="427" x2="427" y1="555" y2="589" /><line stroke="#7F7F7F" stroke-width="1" x1="431" x2="431" y1="555" y2="589" /><line stroke="#7F7F7F" stroke-width="1" x1="435" x2="435" y1="555" y2="589" /><line stroke="#7F7F7F" stroke-width="1" x1="439" x2="439" y1="555" y2="589" /><line stroke="#7F7F7F" stroke-width="1" x1="443" x2="443" y1="555" y2="589" /><line stroke="#7F7F7F" stroke-width="1" x1="447" x2="447" y1="555" y2="589" /><line stroke="#7F7F7F" stroke-width="1" x1="451" x2="451" y1="555" y2="589" /><line stroke="#7F7F7F" stroke-width="1" x1="455" x2="455" y1="555" y2="589" /><line stroke="#7F7F7F" stroke-width="1" x1="459" x2="459" y1="555" y2="589" /><line stroke="#7F7F7F" stroke-width="1" x1="463" x2="463" y1="555" y2="589" /><line stroke="#7F7F7F" stroke-width="1" x1="467" x2="467" y1="555" y2="589" /><line stroke="#7F7F7F" stroke-width="1" x1="471" x2="471" y1="555" y2="589" /><line stroke="#7F7F7F" stroke-width="1" x1="475" x2="475" y1="555" y2="589" /><line stroke="#7F7F7F" stroke-width="1" x1="479" x2="479" y1="555" y2="589" /><line stroke="#7F7F7F" stroke-width="1" x1="483" x2="483" y1="555" y2="589" /><line stroke="#7F7F7F" stroke-width="1" x1="487" x2="487" y1="555" y2="589" /><line stroke="#7F7F7F" stroke-width="1" x1="491" x2="491" y1="555" y2="589" /><line stroke="#7F7F7F" stroke-width="1" x1="495" x2="495" y1="555" y2="589" /><line stroke="#7F7F7F" stroke-width="1" x1="499" x2="499" y1="555" y2="589" /><line stroke="#7F7F7F" stroke-width="1" x1="503" x2="503" y1="555" y2="589" /><line stroke="#7F7F7F" stroke-width="1" x1="507" x2="507" y1="555" y2="589" /><line stroke="#7F7F7F" stroke-width="1" x1="511" x2="511" y1="555" y2="589" /><line stroke="#7F7F7F" stroke-width="1" x1="515" x2="515" y1="555" y2="589" /><line stroke="#7F7F7F" stroke-width="1" x1="519" x2="519" y1="555" y2="589" /><line stroke="#7F7F7F" stroke-width="1" x1="523" x2="523" y1="555" y2="589" /><line stroke="#7F7F7F" stroke-width="1" x1="527" x2="527" y1="555" y2="589" /><line stroke="#7F7F7F" stroke-width="1" x1="531" x2="531" y1="555" y2="589" /><line stroke="#7F7F7F" stroke-width="1" x1="535" x2="535" y1="555" y2="589" /><line stroke="#7F7F7F" stroke-width="1" x1="539" x2="539" y1="555" y2="589" /><line stroke="#7F7F7F" stroke-width="1" x1="543" x2="543" y1="555" y2="589" /><line stroke="#7F7F7F" stroke-width="1" x1="547" x2="547" y1="555" y2="589" /><line stroke="#7F7F7F" stroke-width="1" x1="551" x2="551" y1="555" y2="589" /><line stroke="#7F7F7F" stroke-width="1" x1="555" x2="555" y1="555" y2="589" /><line stroke="#7F7F7F" stroke-width="1" x1="559" x2="559" y1="555" y2="589" /><line stroke="#7F7F7F" stroke-width="1" x1="563" x2="563" y1="555" y2="589" /><line stroke="#7F7F7F" stroke-width="1" x1="567" x2="567" y1="555" y2="589" /><line stroke="#7F7F7F" stroke-width="1" x1="571" x2="571" y1="555" y2="589" /><line stroke="#7F7F7F" stroke-width="1" x1="575" x2="575" y1="555" y2="589" /><line stroke="#7F7F7F" stroke-width="1" x1="579" x2="579" y1="555" y2="589" /><line stroke="#7F7F7F" stroke-width="1" x1="583" x2="583" y1="555" y2="589" /><line stroke="#7F7F7F" stroke-width="1" x1="587" x2="587" y1="555" y2="589" /><line stroke="#7F7F7F" stroke-width="1" x1="591" x2="591" y1="555" y2="589" /><line stroke="#7F7F7F" stroke-width="1" x1="595" x2="595" y1="555" y2="589" /><line stroke="#7F7F7F" stroke-width="1" x1="599" x2="599" y1="555" y2="589" /><line stroke="#7F7F7F" stroke-width="1" x1="603" x2="603" y1="555" y2="589" /><line stroke="#7F7F7F" stroke-width="1" x1="607" x2="607" y1="555" y2="589" /><line stroke="#7F7F7F" stroke-width="1" x1="611" x2="611" y1="555" y2="589" /><line stroke="#7F7F7F" stroke-width="1" x1="615" x2="615" y1="555" y2="589" /><line stroke="#7F7F7F" stroke-width="1" x1="619" x2="619" y1="555" y2="589" /><line stroke="#7F7F7F" stroke-width="1" x1="623" x2="623" y1="555" y2="589" /><line stroke="#7F7F7F" stroke-width="1" x1="627" x2="627" y1="555" y2="589" /><line stroke="#7F7F7F" stroke-width="1" x1="631" x2="631" y1="555" y2="589" /><line stroke="#7F7F7F" stroke-width="1" x1="635" x2="635" y1="555" y2="589" /><line stroke="#7F7F7F" stroke-width="1" x1="639" x2="639" y1="555" y2="589" /><line stroke="#7F7F7F" stroke-width="1" x1="643" x2="643" y1="555" y2="589" /><line stroke="#7F7F7F" stroke-width="1" x1="647" x2="647" y1="555" y2="589" /><line stroke="#7F7F7F" stroke-width="1" x1="651" x2="651" y1="555" y2="589" /><line stroke="#7F7F7F" stroke-width="1" x1="655" x2="655" y1="555" y2="589" /><line stroke="#7F7F7F" stroke-width="1" x1="659" x2="659" y1="555" y2="589" /><line stroke="#7F7F7F" stroke-width="1" x1="663" x2="663" y1="555" y2="589" /><line stroke="#7F7F7F" stroke-width="1" x1="667" x2="667" y1="555" y2="589" /><line stroke="#7F7F7F" stroke-width="1" x1="671" x2="671" y1="555" y2="589" /><line stroke="#7F7F7F" stroke-width="1" x1="675" x2="675" y1="555" y2="589" /><line stroke="#7F7F7F" stroke-width="1" x1="679" x2="679" y1="555" y2="589" /><line stroke="#7F7F7F" stroke-width="1" x1="683" x2="683" y1="555" y2="589" /><line stroke="#7F7F7F" stroke-width="1" x1="687" x2="687" y1="555" y2="589" /><line stroke="#7F7F7F" stroke-width="1" x1="691" x2="691" y1="555" y2="589" /><line stroke="#7F7F7F" stroke-width="1" x1="695" x2="695" y1="555" y2="589" /><line stroke="#7F7F7F" stroke-width="1" x1="699" x2="699" y1="555" y2="589" /><line stroke="#7F7F7F" stroke-width="1" x1="703" x2="703" y1="555" y2="589" /><line stroke="#7F7F7F" stroke-width="1" x1="707" x2="707" y1="555" y2="589" /><line stroke="#7F7F7F" stroke-width="1" x1="711" x2="711" y1="555" y2="589" /><polygon fill="#9B5509" points="406,552 719,552 719,555 406,555" stroke="#000000" stroke-width="1" /><polygon fill="#9B5509" points="406,563 719,563 719,568 406,568" stroke="#000000" stroke-width="1" /><polygon fill="#9B5509" points="406,576 719,576 719,581 406,581" stroke="#000000" stroke-width="1" /><polygon fill="#9B5509" points="406,589 719,589 719,592 406,592" stroke="#000000" stroke-width="1" /><polyline fill="none" marker-end="url(#id2)" points="398,245 394,230" stroke="#009900" stroke-width="1" /><polyline fill="none" marker-end="url(#id2)" points="426,209 411,213" stroke="#009900" stroke-width="1" /><polyline fill="none" marker-end="url(#id2)" points="377,548 380,559 397,559" stroke="#009900" stroke-width="1" /><polyline fill="none" marker-end="url(#id2)" points="724,560 739,560" stroke="#009900" stroke-width="1" /><polyline fill="none" marker-end="url(#id2)" points="185,286 189,301" stroke="#FF0000" stroke-width="1" /><polyline fill="none" marker-end="url(#id2)" points="161,277 146,281" stroke="#FF0000" stroke-width="1" /><polyline fill="none" marker-end="url(#id2)" points="397,585 367,585 359,555" stroke="#FF0000" stroke-width="1" /><polyline fill="none" marker-end="url(#id2)" points="739,586 724,586" stroke="#FF0000" stroke-width="1" /><polyline fill="none" points="347,535 329,564 335,598 363,618 395,614 416,592" stroke="#000000" stroke-width="1" /><polyline fill="none" points="415,552 400,535 379,527" stroke="#000000" stroke-width="1" /><polyline fill="none" points="719,552 747,552 747,558 753,558 753,552 817,552 817,541 770,541 770,532" stroke="#000000" stroke-width="1" /><polyline fill="none" points="1220,532 1220,541 1024,541 1024,603 1220,603 1220,612" stroke="#000000" stroke-width="1" /><polyline fill="none" points="770,612 770,603 817,603 817,592 753,592 753,586 747,586 747,592 719,592" stroke="#000000" stroke-width="1" /><polygon fill="#D0D0D0" points="1004,603 1004,541 914,541 914,552 925,552 925,592 915,592 915,603" stroke="#000000" stroke-width="1" /><polygon fill="#D0D0D0" points="842,603 853,603 853,592 842,592" stroke="#000000" stroke-width="1" /><polygon fill="#D0D0D0" points="878,603 878,592 889,592 889,603" stroke="#000000" stroke-width="1" /><polygon fill="#D0D0D0" points="889,541 889,552 878,552 878,541" stroke="#000000" stroke-width="1" /><polygon fill="#D0D0D0" points="853,541 853,552 842,552 842,541" stroke="#000000" stroke-width="1" /><text fill="#00AFAF" font-family="Arial" font-size="15" stroke="none" transform="rotate(-88.0,349,824)" x="349" y="839.0">Московская улица</text><text fill="#00AFAF" font-family="Arial" font-size="15" stroke="none" transform="rotate(33.0,695,609)" x="695" y="624.0">улица Ивана Мазепы</text><text fill="#00AFAF" font-family="Arial" font-size="15" stroke="none" transform="rotate(-20.0,385,404)" x="385" y="419.0">Арсенальная</text><text fill="#00AFAF" font-family="Arial" font-size="15" stroke="none" transform="rotate(-20.0,400,413)" x="400" y="428.0">площадь</text><text fill="#00AFAF" font-family="Arial" font-size="15" stroke="none" transform="rotate(-10.0,-25,420)" x="-25" y="435.0">улица Михаила Грушевского</text><text fill="#00AFAF" font-family="Arial" font-size="15" stroke="none" transform="rotate(-59.0,437,792)" x="437" y="807.0">Инженерный переулок</text></g></svg>