<svg xmlns="http://www.w3.org/2000/svg" version="1.1">
<defs>
    <marker id="arrow"
      viewBox="0 0 10 10" refX="0" refY="5"
      markerUnits="strokeWidth"
      markerWidth="4" markerHeight="3"
      orient="auto">
      <path d="M 0 0 L 10 5 L 0 10 z" />
    </marker>
  </defs>
<g stroke="#000000" fill="none" stroke-opacity="1.0" fill-opacity="1.0" transform="scale(0.5)">
<rect x="0" y="0" width="1180" height="870" stroke-width="0" fill="none" />
<g stroke="#000000" fill="none" stroke-opacity="1.0" fill-opacity="1.0" transform="scale(0.5)">
</g>
<g transform="rotate(20.0 590 435)" >
<g stroke="#000000" fill="none" stroke-opacity="1.0" fill-opacity="1.0" transform="scale(0.5)">
</g>
<g stroke="#F5F5F5" fill="#F5F5F5" stroke-opacity="1.0" fill-opacity="1.0" transform="scale(0.5)">
<polyline points="-39,432  301,373  936,770" stroke-width=" 40" fill="none"  />
<polyline points="372,420  353,985" stroke-width=" 40" fill="none"  />
<polyline points="595,554  416,847  361,844" stroke-width=" 20" fill="none"  />
<polygon points="567,458  443,668  279,728  136,334  488,241" stroke-width="1" />
</g>
<g stroke="#000000" fill="#CC3333" stroke-opacity="1.0" fill-opacity="1.0" transform="scale(0.5)">
<polygon points="770,532  1220,532  1220,502  770,502" stroke-width="1" />
<polygon points="1220,612  770,612  770,642  1220,642" stroke-width="1" />
</g>
<g stroke="#CC3333" fill="none" stroke-opacity="1.0" fill-opacity="1.0" transform="scale(0.5)">
<text x=" 927" y="483.0" font-family="Arial" font-size=" 25" fill="#CC3333" stroke-width="0">Арсенальная</text>
<text x=" 774" y="498.0" font-family="Arial" font-size=" 20" fill="#CC3333" stroke-width="0">&lt;&lt; Крещатик</text>
<text x=" 1137" y="662.0" font-family="Arial" font-size=" 20" fill="#CC3333" stroke-width="0">Днепр &gt;&gt;</text>
</g>
<g stroke="#000000" fill="none" stroke-opacity="1.0" fill-opacity="1.0" transform="scale(0.5)">
<polyline points="160,271  138,189  188,176" stroke-width="1" fill="none"  />
<polyline points="188,176  250,115  334,136" stroke-width="1" fill="none"/> <!-- spline -->
<polyline points="334,136  386,122  409,208" stroke-width="1" fill="none"  />
<polyline points="193,202  174,207  194,281  190,282" stroke-width="1" fill="none"  />
<polyline points="344,162  363,157  383,231  387,230" stroke-width="1" fill="none"  />
<polyline points="394,151  405,148  414,181  403,184" stroke-width="1" fill="none"  />
<polyline points="176,286  165,289  163,282" stroke-width="1" fill="none"  />
<polyline points="402,226  413,223  412,219" stroke-width="1" fill="none"  />
<polyline points="193,202  221,239  267,253" stroke-width="1" fill="none"/> <!-- spline -->
<polyline points="344,162  336,210  306,243" stroke-width="1" fill="none"/> <!-- spline -->
<polyline points="327,477  341,513  347,535" stroke-width="1" fill="none"  />
<polyline points="367,467  373,505  379,527" stroke-width="1" fill="none"  />
</g>
<g stroke="#000000" fill="#d0d0d0" stroke-opacity="1.0" fill-opacity="1.0" transform="scale(0.5)">
<polygon points="352,508  360,506  366,528  358,530" stroke-width="1" />
</g>
<g stroke="#000000" fill="none" stroke-opacity="1.0" fill-opacity="1.0" transform="scale(0.5)">
<text x=" 400" y="190.0" font-family="Arial" font-size=" 10" fill="#000000" transform="rotate(-105.0  400  180)" stroke-width="0">кассы</text>
<polygon points="312,181  317,186  322,181  317,176" stroke-width="1" />
<polyline points="320,184  339,203" stroke-width=" 0.5" fill="none"  />
<polyline points="273,223  287,153" stroke-width=" 0.5" fill="none"  />
</g>
<g stroke="#009900" fill="none" stroke-opacity="1.0" fill-opacity="1.0" transform="scale(0.5)">
<line x1="288" y1="154" x2="291" y2="151" stroke-width="1" />
<line x1="290.767621453" y1="156.88795282" x2="293.767621453" y2="153.88795282" stroke-width="1" />
<line x1="293.535242906" y1="159.775905641" x2="296.535242906" y2="156.775905641" stroke-width="1" />
<line x1="296.302864359" y1="162.663858461" x2="299.302864359" y2="159.663858461" stroke-width="1" />
<line x1="299.070485812" y1="165.551811282" x2="302.070485812" y2="162.551811282" stroke-width="1" />
<line x1="301.838107265" y1="168.439764102" x2="304.838107265" y2="165.439764102" stroke-width="1" />
<line x1="304.605728718" y1="171.327716923" x2="307.605728718" y2="168.327716923" stroke-width="1" />
<line x1="307.373350171" y1="174.215669743" x2="310.373350171" y2="171.215669743" stroke-width="1" />
<line x1="310.140971624" y1="177.103622564" x2="313.140971624" y2="174.103622564" stroke-width="1" />
</g>
<g stroke="#7F7F7F" fill="none" stroke-opacity="1.0" fill-opacity="1.0" transform="scale(0.5)">
<line x1="265" y1="233" x2="299" y2="224" stroke-width="1" />
<line x1="266.038729753" y1="236.862776269" x2="300.038729753" y2="227.862776269" stroke-width="1" />
<line x1="267.077459506" y1="240.725552537" x2="301.077459506" y2="231.725552537" stroke-width="1" />
<line x1="268.116189259" y1="244.588328806" x2="302.116189259" y2="235.588328806" stroke-width="1" />
<line x1="269.154919011" y1="248.451105074" x2="303.154919011" y2="239.451105074" stroke-width="1" />
<line x1="270.193648764" y1="252.313881343" x2="304.193648764" y2="243.313881343" stroke-width="1" />
<line x1="271.232378517" y1="256.176657611" x2="305.232378517" y2="247.176657611" stroke-width="1" />
<line x1="272.27110827" y1="260.03943388" x2="306.27110827" y2="251.03943388" stroke-width="1" />
<line x1="273.309838023" y1="263.902210148" x2="307.309838023" y2="254.902210148" stroke-width="1" />
<line x1="274.348567776" y1="267.764986417" x2="308.348567776" y2="258.764986417" stroke-width="1" />
<line x1="275.387297529" y1="271.627762685" x2="309.387297529" y2="262.627762685" stroke-width="1" />
<line x1="276.426027282" y1="275.490538954" x2="310.426027282" y2="266.490538954" stroke-width="1" />
<line x1="277.464757034" y1="279.353315222" x2="311.464757034" y2="270.353315222" stroke-width="1" />
<line x1="278.503486787" y1="283.216091491" x2="312.503486787" y2="274.216091491" stroke-width="1" />
<line x1="279.54221654" y1="287.078867759" x2="313.54221654" y2="278.078867759" stroke-width="1" />
<line x1="280.580946293" y1="290.941644028" x2="314.580946293" y2="281.941644028" stroke-width="1" />
<line x1="281.619676046" y1="294.804420296" x2="315.619676046" y2="285.804420296" stroke-width="1" />
<line x1="282.658405799" y1="298.667196565" x2="316.658405799" y2="289.667196565" stroke-width="1" />
<line x1="283.697135552" y1="302.529972833" x2="317.697135552" y2="293.529972833" stroke-width="1" />
<line x1="284.735865305" y1="306.392749102" x2="318.735865305" y2="297.392749102" stroke-width="1" />
<line x1="285.774595057" y1="310.25552537" x2="319.774595057" y2="301.25552537" stroke-width="1" />
<line x1="286.81332481" y1="314.118301639" x2="320.81332481" y2="305.118301639" stroke-width="1" />
<line x1="287.852054563" y1="317.981077907" x2="321.852054563" y2="308.981077907" stroke-width="1" />
<line x1="288.890784316" y1="321.843854176" x2="322.890784316" y2="312.843854176" stroke-width="1" />
<line x1="289.929514069" y1="325.706630444" x2="323.929514069" y2="316.706630444" stroke-width="1" />
<line x1="290.968243822" y1="329.569406713" x2="324.968243822" y2="320.569406713" stroke-width="1" />
<line x1="292.006973575" y1="333.432182981" x2="326.006973575" y2="324.432182981" stroke-width="1" />
<line x1="293.045703328" y1="337.29495925" x2="327.045703328" y2="328.29495925" stroke-width="1" />
<line x1="294.08443308" y1="341.157735518" x2="328.08443308" y2="332.157735518" stroke-width="1" />
<line x1="295.123162833" y1="345.020511787" x2="329.123162833" y2="336.020511787" stroke-width="1" />
<line x1="296.161892586" y1="348.883288055" x2="330.161892586" y2="339.883288055" stroke-width="1" />
<line x1="297.200622339" y1="352.746064324" x2="331.200622339" y2="343.746064324" stroke-width="1" />
<line x1="298.239352092" y1="356.608840592" x2="332.239352092" y2="347.608840592" stroke-width="1" />
<line x1="299.278081845" y1="360.471616861" x2="333.278081845" y2="351.471616861" stroke-width="1" />
<line x1="300.316811598" y1="364.334393129" x2="334.316811598" y2="355.334393129" stroke-width="1" />
<line x1="301.355541351" y1="368.197169398" x2="335.355541351" y2="359.197169398" stroke-width="1" />
<line x1="302.394271103" y1="372.059945666" x2="336.394271103" y2="363.059945666" stroke-width="1" />
<line x1="303.433000856" y1="375.922721935" x2="337.433000856" y2="366.922721935" stroke-width="1" />
<line x1="304.471730609" y1="379.785498203" x2="338.471730609" y2="370.785498203" stroke-width="1" />
<line x1="305.510460362" y1="383.648274472" x2="339.510460362" y2="374.648274472" stroke-width="1" />
<line x1="306.549190115" y1="387.51105074" x2="340.549190115" y2="378.51105074" stroke-width="1" />
<line x1="307.587919868" y1="391.373827009" x2="341.587919868" y2="382.373827009" stroke-width="1" />
<line x1="308.626649621" y1="395.236603277" x2="342.626649621" y2="386.236603277" stroke-width="1" />
<line x1="309.665379374" y1="399.099379546" x2="343.665379374" y2="390.099379546" stroke-width="1" />
<line x1="310.704109126" y1="402.962155814" x2="344.704109126" y2="393.962155814" stroke-width="1" />
<line x1="311.742838879" y1="406.824932083" x2="345.742838879" y2="397.824932083" stroke-width="1" />
<line x1="312.781568632" y1="410.687708351" x2="346.781568632" y2="401.687708351" stroke-width="1" />
<line x1="313.820298385" y1="414.55048462" x2="347.820298385" y2="405.55048462" stroke-width="1" />
<line x1="314.859028138" y1="418.413260888" x2="348.859028138" y2="409.413260888" stroke-width="1" />
<line x1="315.897757891" y1="422.276037157" x2="349.897757891" y2="413.276037157" stroke-width="1" />
<line x1="316.936487644" y1="426.138813425" x2="350.936487644" y2="417.138813425" stroke-width="1" />
<line x1="317.975217397" y1="430.001589694" x2="351.975217397" y2="421.001589694" stroke-width="1" />
<line x1="319.013947149" y1="433.864365962" x2="353.013947149" y2="424.864365962" stroke-width="1" />
<line x1="320.052676902" y1="437.727142231" x2="354.052676902" y2="428.727142231" stroke-width="1" />
<line x1="321.091406655" y1="441.589918499" x2="355.091406655" y2="432.589918499" stroke-width="1" />
<line x1="322.130136408" y1="445.452694768" x2="356.130136408" y2="436.452694768" stroke-width="1" />
<line x1="323.168866161" y1="449.315471036" x2="357.168866161" y2="440.315471036" stroke-width="1" />
<line x1="324.207595914" y1="453.178247305" x2="358.207595914" y2="444.178247305" stroke-width="1" />
<line x1="325.246325667" y1="457.041023573" x2="359.246325667" y2="448.041023573" stroke-width="1" />
<line x1="326.28505542" y1="460.903799842" x2="360.28505542" y2="451.903799842" stroke-width="1" />
<line x1="327.323785172" y1="464.76657611" x2="361.323785172" y2="455.76657611" stroke-width="1" />
<line x1="328.362514925" y1="468.629352379" x2="362.362514925" y2="459.629352379" stroke-width="1" />
</g>
<g stroke="#000000" fill="#9B5509" stroke-opacity="1.0" fill-opacity="1.0" transform="scale(0.5)">
<polygon points="260,228  264,227  331,476  327,477" stroke-width="1" />
<polygon points="300,218  367,467  363,468  296,219" stroke-width="1" />
<polygon points="271,225  338,474  343,473  276,224" stroke-width="1" />
<polygon points="284,222  289,221  356,470  351,471" stroke-width="1" />
</g>
<g stroke="#7F7F7F" fill="#9B5509" stroke-opacity="1.0" fill-opacity="1.0" transform="scale(0.5)">
<line x1="411" y1="555" x2="411" y2="589" stroke-width="1" />
<line x1="415" y1="555" x2="415" y2="589" stroke-width="1" />
<line x1="419" y1="555" x2="419" y2="589" stroke-width="1" />
<line x1="423" y1="555" x2="423" y2="589" stroke-width="1" />
<line x1="427" y1="555" x2="427" y2="589" stroke-width="1" />
<line x1="431" y1="555" x2="431" y2="589" stroke-width="1" />
<line x1="435" y1="555" x2="435" y2="589" stroke-width="1" />
<line x1="439" y1="555" x2="439" y2="589" stroke-width="1" />
<line x1="443" y1="555" x2="443" y2="589" stroke-width="1" />
<line x1="447" y1="555" x2="447" y2="589" stroke-width="1" />
<line x1="451" y1="555" x2="451" y2="589" stroke-width="1" />
<line x1="455" y1="555" x2="455" y2="589" stroke-width="1" />
<line x1="459" y1="555" x2="459" y2="589" stroke-width="1" />
<line x1="463" y1="555" x2="463" y2="589" stroke-width="1" />
<line x1="467" y1="555" x2="467" y2="589" stroke-width="1" />
<line x1="471" y1="555" x2="471" y2="589" stroke-width="1" />
<line x1="475" y1="555" x2="475" y2="589" stroke-width="1" />
<line x1="479" y1="555" x2="479" y2="589" stroke-width="1" />
<line x1="483" y1="555" x2="483" y2="589" stroke-width="1" />
<line x1="487" y1="555" x2="487" y2="589" stroke-width="1" />
<line x1="491" y1="555" x2="491" y2="589" stroke-width="1" />
<line x1="495" y1="555" x2="495" y2="589" stroke-width="1" />
<line x1="499" y1="555" x2="499" y2="589" stroke-width="1" />
<line x1="503" y1="555" x2="503" y2="589" stroke-width="1" />
<line x1="507" y1="555" x2="507" y2="589" stroke-width="1" />
<line x1="511" y1="555" x2="511" y2="589" stroke-width="1" />
<line x1="515" y1="555" x2="515" y2="589" stroke-width="1" />
<line x1="519" y1="555" x2="519" y2="589" stroke-width="1" />
<line x1="523" y1="555" x2="523" y2="589" stroke-width="1" />
<line x1="527" y1="555" x2="527" y2="589" stroke-width="1" />
<line x1="531" y1="555" x2="531" y2="589" stroke-width="1" />
<line x1="535" y1="555" x2="535" y2="589" stroke-width="1" />
<line x1="539" y1="555" x2="539" y2="589" stroke-width="1" />
<line x1="543" y1="555" x2="543" y2="589" stroke-width="1" />
<line x1="547" y1="555" x2="547" y2="589" stroke-width="1" />
<line x1="551" y1="555" x2="551" y2="589" stroke-width="1" />
<line x1="555" y1="555" x2="555" y2="589" stroke-width="1" />
<line x1="559" y1="555" x2="559" y2="589" stroke-width="1" />
<line x1="563" y1="555" x2="563" y2="589" stroke-width="1" />
<line x1="567" y1="555" x2="567" y2="589" stroke-width="1" />
<line x1="571" y1="555" x2="571" y2="589" stroke-width="1" />
<line x1="575" y1="555" x2="575" y2="589" stroke-width="1" />
<line x1="579" y1="555" x2="579" y2="589" stroke-width="1" />
<line x1="583" y1="555" x2="583" y2="589" stroke-width="1" />
<line x1="587" y1="555" x2="587" y2="589" stroke-width="1" />
<line x1="591" y1="555" x2="591" y2="589" stroke-width="1" />
<line x1="595" y1="555" x2="595" y2="589" stroke-width="1" />
<line x1="599" y1="555" x2="599" y2="589" stroke-width="1" />
<line x1="603" y1="555" x2="603" y2="589" stroke-width="1" />
<line x1="607" y1="555" x2="607" y2="589" stroke-width="1" />
<line x1="611" y1="555" x2="611" y2="589" stroke-width="1" />
<line x1="615" y1="555" x2="615" y2="589" stroke-width="1" />
<line x1="619" y1="555" x2="619" y2="589" stroke-width="1" />
<line x1="623" y1="555" x2="623" y2="589" stroke-width="1" />
<line x1="627" y1="555" x2="627" y2="589" stroke-width="1" />
<line x1="631" y1="555" x2="631" y2="589" stroke-width="1" />
<line x1="635" y1="555" x2="635" y2="589" stroke-width="1" />
<line x1="639" y1="555" x2="639" y2="589" stroke-width="1" />
<line x1="643" y1="555" x2="643" y2="589" stroke-width="1" />
<line x1="647" y1="555" x2="647" y2="589" stroke-width="1" />
<line x1="651" y1="555" x2="651" y2="589" stroke-width="1" />
<line x1="655" y1="555" x2="655" y2="589" stroke-width="1" />
<line x1="659" y1="555" x2="659" y2="589" stroke-width="1" />
<line x1="663" y1="555" x2="663" y2="589" stroke-width="1" />
<line x1="667" y1="555" x2="667" y2="589" stroke-width="1" />
<line x1="671" y1="555" x2="671" y2="589" stroke-width="1" />
<line x1="675" y1="555" x2="675" y2="589" stroke-width="1" />
<line x1="679" y1="555" x2="679" y2="589" stroke-width="1" />
<line x1="683" y1="555" x2="683" y2="589" stroke-width="1" />
<line x1="687" y1="555" x2="687" y2="589" stroke-width="1" />
<line x1="691" y1="555" x2="691" y2="589" stroke-width="1" />
<line x1="695" y1="555" x2="695" y2="589" stroke-width="1" />
<line x1="699" y1="555" x2="699" y2="589" stroke-width="1" />
<line x1="703" y1="555" x2="703" y2="589" stroke-width="1" />
<line x1="707" y1="555" x2="707" y2="589" stroke-width="1" />
<line x1="711" y1="555" x2="711" y2="589" stroke-width="1" />
</g>
<g stroke="#000000" fill="#9B5509" stroke-opacity="1.0" fill-opacity="1.0" transform="scale(0.5)">
<polygon points="406,552  719,552  719,555  406,555" stroke-width="1" />
<polygon points="406,563  719,563  719,568  406,568" stroke-width="1" />
<polygon points="406,576  719,576  719,581  406,581" stroke-width="1" />
<polygon points="406,589  719,589  719,592  406,592" stroke-width="1" />
</g>
<g stroke="#009900" fill="#9B5509" stroke-opacity="1.0" fill-opacity="1.0" transform="scale(0.5)">
<polyline points="398,245  394,230" marker-end="url(#arrow)" stroke-width="1" fill="none" />
<polyline points="426,209  411,213" marker-end="url(#arrow)" stroke-width="1" fill="none" />
<polyline points="377,548  380,559  397,559" marker-end="url(#arrow)" stroke-width="1" fill="none" />
<polyline points="724,560  739,560" marker-end="url(#arrow)" stroke-width="1" fill="none" />
</g>
<g stroke="#FF0000" fill="#9B5509" stroke-opacity="1.0" fill-opacity="1.0" transform="scale(0.5)">
<polyline points="185,286  189,301" marker-end="url(#arrow)" stroke-width="1" fill="none" />
<polyline points="161,277  146,281" marker-end="url(#arrow)" stroke-width="1" fill="none" />
<polyline points="397,585  367,585  359,555" marker-end="url(#arrow)" stroke-width="1" fill="none" />
<polyline points="739,586  724,586" marker-end="url(#arrow)" stroke-width="1" fill="none" />
</g>
<g stroke="#000000" fill="none" stroke-opacity="1.0" fill-opacity="1.0" transform="scale(0.5)">
<polyline points="347,535  329,564  335,598  363,618  395,614  416,592" stroke-width="1" fill="none"/> <!-- spline -->
<polyline points="415,552  400,535  379,527" stroke-width="1" fill="none"/> <!-- spline -->
<polyline points="719,552  747,552  747,558  753,558  753,552  817,552  817,541  770,541  770,532" stroke-width="1" fill="none"  />
<polyline points="1220,532  1220,541  1024,541  1024,603  1220,603  1220,612" stroke-width="1" fill="none"  />
<polyline points="770,612  770,603  817,603  817,592  753,592  753,586  747,586  747,592  719,592" stroke-width="1" fill="none"  />
</g>
<g stroke="#000000" fill="#D0D0D0" stroke-opacity="1.0" fill-opacity="1.0" transform="scale(0.5)">
<polygon points="1004,603  1004,541  914,541  914,552  925,552  925,592  915,592  915,603" stroke-width="1" />
<polygon points="842,603  853,603  853,592  842,592" stroke-width="1" />
<polygon points="878,603  878,592  889,592  889,603" stroke-width="1" />
<polygon points="889,541  889,552  878,552  878,541" stroke-width="1" />
<polygon points="853,541  853,552  842,552  842,541" stroke-width="1" />
</g>
<g stroke="#00AFAF" fill="none" stroke-opacity="1.0" fill-opacity="1.0" transform="scale(0.5)">
<text x=" 349" y="839.0" font-family="Arial" font-size=" 15" fill="#00AFAF" transform="rotate(-88.0  349  824)" stroke-width="0">Московская улица</text>
<text x=" 695" y="624.0" font-family="Arial" font-size=" 15" fill="#00AFAF" transform="rotate(33.0  695  609)" stroke-width="0">улица Ивана Мазепы</text>
<text x=" 385" y="419.0" font-family="Arial" font-size=" 15" fill="#00AFAF" transform="rotate(-20.0  385  404)" stroke-width="0">Арсенальная</text>
<text x=" 400" y="428.0" font-family="Arial" font-size=" 15" fill="#00AFAF" transform="rotate(-20.0  400  413)" stroke-width="0">площадь</text>
<text x=" -25" y="435.0" font-family="Arial" font-size=" 15" fill="#00AFAF" transform="rotate(-10.0  -25  420)" stroke-width="0">улица Михаила Грушевского</text>
<text x=" 437" y="807.0" font-family="Arial" font-size=" 15" fill="#00AFAF" transform="rotate(-59.0  437  792)" stroke-width="0">Инженерный переулок</text>
</g>
</g>
</g>
</svg>
