<?xml version="1.0" encoding="utf-8" ?>
<svg baseProfile="full" height="100%" version="1.1" width="100%" xmlns="http://www.w3.org/2000/svg" xmlns:ev="http://www.w3.org/2001/xml-events" xmlns:xlink="http://www.w3.org/1999/xlink">
  <defs>
    <marker id="id84" markerHeight="3" markerUnits="strokeWidth" markerWidth="4" orient="auto" refX="0" refY="5" viewBox="0,0,10,10">
      <path d="M 0 0 L 10 5 L 0 10 z"/>
    </marker>
  </defs>
  <g>
    <rect fill="none" height="470" stroke="none" stroke-width="0" width="1000" x="0" y="0"/>
    <g transform="rotate(12.0,500,235)">
      <polygon fill="#cc3333" points="462,152 462,122 12,122 12,152" stroke="#000000" stroke-width="1"/>
      <polygon fill="#cc3333" points="462,232 462,262 12,262 12,232" stroke="#000000" stroke-width="1"/>
      <text fill="#cc3333" font-family="Arial" font-size="15" stroke="none" stroke-width="0" transform="rotate(-360.0,374,262)" x="374" y="277.0">Шулявская &gt;&gt;</text>
      <text fill="#cc3333" font-family="Arial" font-size="15" stroke="none" stroke-width="0" transform="rotate(-360.0,12,104)" x="12" y="119.0">&lt;&lt; Святошин</text>
      <text fill="#cc3333" font-family="Arial" font-size="20" stroke="none" stroke-width="0" transform="rotate(-360.0,155,177)" x="155" y="197.0">Берестейская</text>
      <polyline fill="none" points="867,163 819,176 615,176 615,170 630,170 630,142 520,142 520,172 457,172 457,167 462,167 462,152 12,152 12,167 18,167 18,217 12,217 12,232 462,232 462,217 457,217 457,212 520,212 520,242 591,242 591,257 534,257" stroke="#000000" stroke-width="1"/>
      <polyline fill="none" points="668,406 620,406 620,221 828,221" stroke="#000000" stroke-width="1"/>
      <path d="M828,221 C828,221 819.666666667,220.0 828,221 C836.333333333,222.0 863.833333333,224.166666667 878,227 C892.166666667,229.833333333 904.166666667,235.0 913,238 C921.833333333,241.0 931,245 931,245 " fill="none" stroke="#000000" stroke-width="1"/>
      <polyline fill="none" points="931,245 893,257" stroke="#000000" stroke-width="1"/>
      <polyline fill="none" points="534,275 591,275 591,406 543,406" stroke="#000000" stroke-width="1"/>
      <polyline fill="none" points="668,424 543,424" stroke="#000000" stroke-width="1"/>
      <polyline fill="none" points="873,182 824,195 824,198" stroke="#000000" stroke-width="1"/>
      <path d="M824,198 C824,198 818.333333333,197.666666667 824,198 C829.666666667,198.333333333 846.0,198.5 858,200 C870.0,201.5 883.5,203.833333333 896,207 C908.5,210.166666667 916.0,212.5 933,219 C950.0,225.5 998,246 998,246 " fill="none" stroke="#000000" stroke-width="1"/>
      <polyline fill="none" points="998,246 1005,246" stroke="#000000" stroke-width="1"/>
      <line stroke="#000000" stroke-width="1" x1="464" x2="464" y1="190" y2="172"/>
      <line stroke="#000000" stroke-width="1" x1="468" x2="468" y1="190" y2="172"/>
      <line stroke="#000000" stroke-width="1" x1="472" x2="472" y1="190" y2="172"/>
      <line stroke="#000000" stroke-width="1" x1="476" x2="476" y1="190" y2="172"/>
      <line stroke="#000000" stroke-width="1" x1="480" x2="480" y1="190" y2="172"/>
      <line stroke="#000000" stroke-width="1" x1="484" x2="484" y1="190" y2="172"/>
      <line stroke="#000000" stroke-width="1" x1="496" x2="496" y1="172" y2="190"/>
      <line stroke="#000000" stroke-width="1" x1="500" x2="500" y1="172" y2="190"/>
      <line stroke="#000000" stroke-width="1" x1="504" x2="504" y1="172" y2="190"/>
      <line stroke="#000000" stroke-width="1" x1="508" x2="508" y1="172" y2="190"/>
      <line stroke="#000000" stroke-width="1" x1="512" x2="512" y1="172" y2="190"/>
      <line stroke="#000000" stroke-width="1" x1="516" x2="516" y1="172" y2="190"/>
      <line stroke="#000000" stroke-width="1" x1="545" x2="545" y1="406" y2="424"/>
      <line stroke="#000000" stroke-width="1" x1="549" x2="549" y1="406" y2="424"/>
      <line stroke="#000000" stroke-width="1" x1="553" x2="553" y1="406" y2="424"/>
      <line stroke="#000000" stroke-width="1" x1="557" x2="557" y1="406" y2="424"/>
      <line stroke="#000000" stroke-width="1" x1="561" x2="561" y1="406" y2="424"/>
      <line stroke="#000000" stroke-width="1" x1="565" x2="565" y1="406" y2="424"/>
      <line stroke="#000000" stroke-width="1" x1="569" x2="569" y1="406" y2="424"/>
      <line stroke="#000000" stroke-width="1" x1="573" x2="573" y1="406" y2="424"/>
      <line stroke="#000000" stroke-width="1" x1="577" x2="577" y1="406" y2="424"/>
      <line stroke="#000000" stroke-width="1" x1="581" x2="581" y1="406" y2="424"/>
      <line stroke="#000000" stroke-width="1" x1="585" x2="585" y1="406" y2="424"/>
      <line stroke="#000000" stroke-width="1" x1="589" x2="589" y1="406" y2="424"/>
      <line stroke="#000000" stroke-width="1" x1="666" x2="666" y1="406" y2="424"/>
      <line stroke="#000000" stroke-width="1" x1="662" x2="662" y1="406" y2="424"/>
      <line stroke="#000000" stroke-width="1" x1="658" x2="658" y1="406" y2="424"/>
      <line stroke="#000000" stroke-width="1" x1="654" x2="654" y1="406" y2="424"/>
      <line stroke="#000000" stroke-width="1" x1="650" x2="650" y1="406" y2="424"/>
      <line stroke="#000000" stroke-width="1" x1="646" x2="646" y1="406" y2="424"/>
      <line stroke="#000000" stroke-width="1" x1="642" x2="642" y1="406" y2="424"/>
      <line stroke="#000000" stroke-width="1" x1="638" x2="638" y1="406" y2="424"/>
      <line stroke="#000000" stroke-width="1" x1="634" x2="634" y1="406" y2="424"/>
      <line stroke="#000000" stroke-width="1" x1="630" x2="630" y1="406" y2="424"/>
      <line stroke="#000000" stroke-width="1" x1="626" x2="626" y1="406" y2="424"/>
      <line stroke="#000000" stroke-width="1" x1="622" x2="622" y1="406" y2="424"/>
      <line stroke="#000000" stroke-width="1" x1="828" x2="823" y1="194" y2="175"/>
      <line stroke="#000000" stroke-width="1" x1="831.859055285" x2="826.859055285" y1="192.947530377" y2="173.947530377"/>
      <line stroke="#000000" stroke-width="1" x1="835.71811057" x2="830.71811057" y1="191.895060754" y2="172.895060754"/>
      <line stroke="#000000" stroke-width="1" x1="839.577165855" x2="834.577165855" y1="190.84259113" y2="171.84259113"/>
      <line stroke="#000000" stroke-width="1" x1="843.43622114" x2="838.43622114" y1="189.790121507" y2="170.790121507"/>
      <line stroke="#000000" stroke-width="1" x1="847.295276425" x2="842.295276425" y1="188.737651884" y2="169.737651884"/>
      <line stroke="#000000" stroke-width="1" x1="851.15433171" x2="846.15433171" y1="187.685182261" y2="168.685182261"/>
      <line stroke="#000000" stroke-width="1" x1="855.013386995" x2="850.013386995" y1="186.632712638" y2="167.632712638"/>
      <line stroke="#000000" stroke-width="1" x1="858.87244228" x2="853.87244228" y1="185.580243015" y2="166.580243015"/>
      <line stroke="#000000" stroke-width="1" x1="862.731497565" x2="857.731497565" y1="184.527773391" y2="165.527773391"/>
      <line stroke="#000000" stroke-width="1" x1="866.59055285" x2="861.59055285" y1="183.475303768" y2="164.475303768"/>
      <line stroke="#000000" stroke-width="1" x1="870.449608134" x2="865.449608134" y1="182.422834145" y2="163.422834145"/>
      <line stroke="#000000" stroke-width="1" x1="536" x2="536" y1="275" y2="257"/>
      <line stroke="#000000" stroke-width="1" x1="540" x2="540" y1="275" y2="257"/>
      <line stroke="#000000" stroke-width="1" x1="544" x2="544" y1="275" y2="257"/>
      <line stroke="#000000" stroke-width="1" x1="548" x2="548" y1="275" y2="257"/>
      <line stroke="#000000" stroke-width="1" x1="552" x2="552" y1="275" y2="257"/>
      <line stroke="#000000" stroke-width="1" x1="556" x2="556" y1="275" y2="257"/>
      <line stroke="#000000" stroke-width="1" x1="560" x2="560" y1="275" y2="257"/>
      <line stroke="#000000" stroke-width="1" x1="564" x2="564" y1="275" y2="257"/>
      <line stroke="#000000" stroke-width="1" x1="568" x2="568" y1="275" y2="257"/>
      <line stroke="#000000" stroke-width="1" x1="572" x2="572" y1="275" y2="257"/>
      <line stroke="#000000" stroke-width="1" x1="576" x2="576" y1="275" y2="257"/>
      <line stroke="#000000" stroke-width="1" x1="580" x2="580" y1="275" y2="257"/>
      <line stroke="#000000" stroke-width="1" x1="647" x2="647" y1="176" y2="221"/>
      <line stroke="#000000" stroke-width="1" x1="651" x2="651" y1="176" y2="221"/>
      <line stroke="#000000" stroke-width="1" x1="655" x2="655" y1="176" y2="221"/>
      <polyline fill="none" points="620,142 620,170" stroke="#000000" stroke-width="1"/>
      <text fill="#000000" font-family="Arial" font-size="9" stroke="none" stroke-width="0" transform="rotate(-90.0,619,167)" x="619" y="176.0">кассы</text>
      <polyline fill="none" points="540,172 537,166 543,163 546,169 540,172" stroke="#000000" stroke-width="1"/>
      <polyline fill="none" points="519,192 556,201 585,217" stroke="#000000" stroke-width="0.5"/>
      <polyline fill="none" points="538,169 520,172" stroke="#000000" stroke-width="0.5"/>
      <line stroke="#009900" stroke-width="1" x1="543" x2="547" y1="175" y2="173"/>
      <line stroke="#009900" stroke-width="1" x1="544.942571725" x2="548.942571725" y1="178.496629104" y2="176.496629104"/>
      <line stroke="#009900" stroke-width="1" x1="546.885143449" x2="550.885143449" y1="181.993258209" y2="179.993258209"/>
      <line stroke="#009900" stroke-width="1" x1="548.827715174" x2="552.827715174" y1="185.489887313" y2="183.489887313"/>
      <line stroke="#009900" stroke-width="1" x1="550.770286899" x2="554.770286899" y1="188.986516418" y2="186.986516418"/>
      <line stroke="#009900" stroke-width="1" x1="552.712858624" x2="556.712858624" y1="192.483145522" y2="190.483145522"/>
      <line stroke="#009900" stroke-width="1" x1="554.655430348" x2="558.655430348" y1="195.979774627" y2="193.979774627"/>
      <line stroke="#009900" stroke-width="1" x1="556.598002073" x2="560.598002073" y1="199.476403731" y2="197.476403731"/>
      <polygon fill="#d0d0d0" points="445,217 445,212 440,212 440,217" stroke="#000000" stroke-width="1"/>
      <polygon fill="#d0d0d0" points="423,217 423,212 428,212 428,217" stroke="#000000" stroke-width="1"/>
      <polygon fill="#d0d0d0" points="406,217 406,212 411,212 411,217" stroke="#000000" stroke-width="1"/>
      <polygon fill="#d0d0d0" points="389,217 389,212 394,212 394,217" stroke="#000000" stroke-width="1"/>
      <polygon fill="#d0d0d0" points="372,217 377,217 377,212 372,212" stroke="#000000" stroke-width="1"/>
      <polygon fill="#d0d0d0" points="355,217 355,212 360,212 360,217" stroke="#000000" stroke-width="1"/>
      <polygon fill="#d0d0d0" points="338,217 338,212 343,212 343,217" stroke="#000000" stroke-width="1"/>
      <polygon fill="#d0d0d0" points="321,217 321,212 326,212 326,217" stroke="#000000" stroke-width="1"/>
      <polygon fill="#d0d0d0" points="304,217 304,212 309,212 309,217" stroke="#000000" stroke-width="1"/>
      <polygon fill="#d0d0d0" points="287,217 287,212 292,212 292,217" stroke="#000000" stroke-width="1"/>
      <polygon fill="#d0d0d0" points="270,217 270,212 275,212 275,217" stroke="#000000" stroke-width="1"/>
      <polygon fill="#d0d0d0" points="253,217 253,212 258,212 258,217" stroke="#000000" stroke-width="1"/>
      <polygon fill="#d0d0d0" points="236,217 236,212 241,212 241,217" stroke="#000000" stroke-width="1"/>
      <polygon fill="#d0d0d0" points="219,217 219,212 224,212 224,217" stroke="#000000" stroke-width="1"/>
      <polygon fill="#d0d0d0" points="202,217 202,212 207,212 207,217" stroke="#000000" stroke-width="1"/>
      <polygon fill="#d0d0d0" points="185,217 185,212 190,212 190,217" stroke="#000000" stroke-width="1"/>
      <polygon fill="#d0d0d0" points="168,217 168,212 173,212 173,217" stroke="#000000" stroke-width="1"/>
      <polygon fill="#d0d0d0" points="151,217 151,212 156,212 156,217" stroke="#000000" stroke-width="1"/>
      <polygon fill="#d0d0d0" points="134,217 134,212 139,212 139,217" stroke="#000000" stroke-width="1"/>
      <polygon fill="#d0d0d0" points="117,217 117,212 122,212 122,217" stroke="#000000" stroke-width="1"/>
      <polygon fill="#d0d0d0" points="100,217 100,212 105,212 105,217" stroke="#000000" stroke-width="1"/>
      <polygon fill="#d0d0d0" points="83,217 83,212 88,212 88,217" stroke="#000000" stroke-width="1"/>
      <polygon fill="#d0d0d0" points="66,217 66,212 71,212 71,217" stroke="#000000" stroke-width="1"/>
      <polygon fill="#d0d0d0" points="49,217 49,212 54,212 54,217" stroke="#000000" stroke-width="1"/>
      <polygon fill="#d0d0d0" points="32,217 32,212 37,212 37,217" stroke="#000000" stroke-width="1"/>
      <polygon fill="#d0d0d0" points="440,172 440,167 445,167 445,172" stroke="#000000" stroke-width="1"/>
      <polygon fill="#d0d0d0" points="423,172 423,167 428,167 428,172" stroke="#000000" stroke-width="1"/>
      <polygon fill="#d0d0d0" points="406,172 406,167 411,167 411,172" stroke="#000000" stroke-width="1"/>
      <polygon fill="#d0d0d0" points="389,172 389,167 394,167 394,172" stroke="#000000" stroke-width="1"/>
      <polygon fill="#d0d0d0" points="372,172 372,167 377,167 377,172" stroke="#000000" stroke-width="1"/>
      <polygon fill="#d0d0d0" points="355,172 355,167 360,167 360,172" stroke="#000000" stroke-width="1"/>
      <polygon fill="#d0d0d0" points="338,172 338,167 343,167 343,172" stroke="#000000" stroke-width="1"/>
      <polygon fill="#d0d0d0" points="321,172 321,167 326,167 326,172" stroke="#000000" stroke-width="1"/>
      <polygon fill="#d0d0d0" points="304,172 304,167 309,167 309,172" stroke="#000000" stroke-width="1"/>
      <polygon fill="#d0d0d0" points="287,172 287,167 292,167 292,172" stroke="#000000" stroke-width="1"/>
      <polygon fill="#d0d0d0" points="270,172 270,167 275,167 275,172" stroke="#000000" stroke-width="1"/>
      <polygon fill="#d0d0d0" points="253,172 253,167 258,167 258,172" stroke="#000000" stroke-width="1"/>
      <polygon fill="#d0d0d0" points="236,172 236,167 241,167 241,172" stroke="#000000" stroke-width="1"/>
      <polygon fill="#d0d0d0" points="219,172 219,167 224,167 224,172" stroke="#000000" stroke-width="1"/>
      <polygon fill="#d0d0d0" points="202,172 202,167 207,167 207,172" stroke="#000000" stroke-width="1"/>
      <polygon fill="#d0d0d0" points="185,172 185,167 190,167 190,172" stroke="#000000" stroke-width="1"/>
      <polygon fill="#d0d0d0" points="168,172 168,167 173,167 173,172" stroke="#000000" stroke-width="1"/>
      <polygon fill="#d0d0d0" points="151,172 151,167 156,167 156,172" stroke="#000000" stroke-width="1"/>
      <polygon fill="#d0d0d0" points="134,172 134,167 139,167 139,172" stroke="#000000" stroke-width="1"/>
      <polygon fill="#d0d0d0" points="117,172 117,167 122,167 122,172" stroke="#000000" stroke-width="1"/>
      <polygon fill="#d0d0d0" points="100,172 100,167 105,167 105,172" stroke="#000000" stroke-width="1"/>
      <polygon fill="#d0d0d0" points="83,172 83,167 88,167 88,172" stroke="#000000" stroke-width="1"/>
      <polygon fill="#d0d0d0" points="66,172 66,167 71,167 71,172" stroke="#000000" stroke-width="1"/>
      <polygon fill="#d0d0d0" points="49,172 49,167 54,167 54,172" stroke="#000000" stroke-width="1"/>
      <polygon fill="#d0d0d0" points="32,172 32,167 37,167 37,172" stroke="#000000" stroke-width="1"/>
      <polygon fill="#d0d0d0" points="586,218 591,218 591,170 586,170" stroke="#000000" stroke-width="1"/>
      <line stroke="#7f7f7f" stroke-width="1" x1="466" x2="466" y1="192" y2="210"/>
      <line stroke="#7f7f7f" stroke-width="1" x1="470" x2="470" y1="192" y2="210"/>
      <line stroke="#7f7f7f" stroke-width="1" x1="474" x2="474" y1="192" y2="210"/>
      <line stroke="#7f7f7f" stroke-width="1" x1="478" x2="478" y1="192" y2="210"/>
      <line stroke="#7f7f7f" stroke-width="1" x1="482" x2="482" y1="192" y2="210"/>
      <line stroke="#7f7f7f" stroke-width="1" x1="486" x2="486" y1="192" y2="210"/>
      <line stroke="#7f7f7f" stroke-width="1" x1="490" x2="490" y1="192" y2="210"/>
      <line stroke="#7f7f7f" stroke-width="1" x1="494" x2="494" y1="192" y2="210"/>
      <line stroke="#7f7f7f" stroke-width="1" x1="498" x2="498" y1="192" y2="210"/>
      <line stroke="#7f7f7f" stroke-width="1" x1="502" x2="502" y1="192" y2="210"/>
      <line stroke="#7f7f7f" stroke-width="1" x1="506" x2="506" y1="192" y2="210"/>
      <line stroke="#7f7f7f" stroke-width="1" x1="510" x2="510" y1="192" y2="210"/>
      <line stroke="#7f7f7f" stroke-width="1" x1="514" x2="514" y1="192" y2="210"/>
      <polygon fill="#9b5509" points="518,192 518,190 462,190 462,192" stroke="#000000" stroke-width="1"/>
      <polygon fill="#9b5509" points="518,212 518,210 462,210 462,212" stroke="#000000" stroke-width="1"/>
      <polygon fill="#9b5509" points="518,203 518,199 462,199 462,203" stroke="#000000" stroke-width="1"/>
      <polyline fill="none" marker-end="url(#id84)" points="603,182 603,166" stroke="#009900" stroke-width="1"/>
      <polyline fill="none" marker-end="url(#id84)" points="579,230 595,230" stroke="#ff0000" stroke-width="1"/>
      <polyline fill="none" marker-end="url(#id84)" points="510,206 523,206" stroke="#ff0000" stroke-width="1"/>
      <text fill="#00afaf" font-family="Arial" font-size="17" stroke="none" stroke-width="0" transform="rotate(-376.0,743,254)" x="743" y="271.0">Лагерная улица</text>
      <text fill="#00afaf" font-family="Arial" font-size="17" stroke="none" stroke-width="0" transform="rotate(-360.0,677,328)" x="677" y="345.0">проспект Победы</text>
    </g>
  </g>
</svg>
