<svg xmlns="http://www.w3.org/2000/svg" version="1.1">
<defs>
    <marker id="arrow"
      viewBox="0 0 10 10" refX="0" refY="5"
      markerUnits="strokeWidth"
      markerWidth="4" markerHeight="3"
      orient="auto">
      <path d="M 0 0 L 10 5 L 0 10 z" />
    </marker>
  </defs>
<g stroke="#000000" fill="none" stroke-opacity="1.0" fill-opacity="1.0" transform="scale(0.5)">
<rect x="0" y="0" width="500" height="510" stroke-width="0" fill="none" />
<g stroke="#000000" fill="none" stroke-opacity="1.0" fill-opacity="1.0" transform="scale(0.5)">
</g>
<g transform="rotate(-25.0 250 255)" >
<g stroke="#000000" fill="none" stroke-opacity="1.0" fill-opacity="1.0" transform="scale(0.5)">
</g>
<g stroke="#000000" fill="#CC3333" stroke-opacity="1.0" fill-opacity="1.0" transform="scale(0.5)">
<polygon points="23,218  23,188  473,188  473,218" stroke-width="1" />
<polygon points="23,328  23,298  473,298  473,328" stroke-width="1" />
</g>
<g stroke="#CC3333" fill="none" stroke-opacity="1.0" fill-opacity="1.0" transform="scale(0.5)">
<text x=" 23" y="185.0" font-family="Arial" font-size=" 20" fill="#CC3333" stroke-width="0">&lt;&lt; Дарница</text>
<text x=" 186" y="132.0" font-family="Arial" font-size=" 25" fill="#CC3333" stroke-width="0">Черниговская</text>
<text x=" 385" y="348.0" font-family="Arial" font-size=" 20" fill="#CC3333" stroke-width="0">Лесная &gt;&gt;</text>
</g>
<g stroke="#000000" fill="none" stroke-opacity="1.0" fill-opacity="1.0" transform="scale(0.5)">
<polyline points="82,275  23,275  23,298" stroke-width="1" fill="none"  />
<polyline points="23,218  23,241  82,241" stroke-width="1" fill="none"  />
<polyline points="421,241  473,241  473,218" stroke-width="1" fill="none"  />
<polyline points="473,298  473,275  421,275" stroke-width="1" fill="none"  />
<line x1="157" y1="271" x2="157" y2="245" stroke-width="1" />
<line x1="153" y1="271" x2="153" y2="245" stroke-width="1" />
<line x1="149" y1="271" x2="149" y2="245" stroke-width="1" />
<line x1="145" y1="271" x2="145" y2="245" stroke-width="1" />
<line x1="141" y1="271" x2="141" y2="245" stroke-width="1" />
<line x1="137" y1="271" x2="137" y2="245" stroke-width="1" />
<line x1="133" y1="271" x2="133" y2="245" stroke-width="1" />
<line x1="129" y1="271" x2="129" y2="245" stroke-width="1" />
<line x1="346" y1="271" x2="346" y2="245" stroke-width="1" />
<line x1="350" y1="271" x2="350" y2="245" stroke-width="1" />
<line x1="354" y1="271" x2="354" y2="245" stroke-width="1" />
<line x1="358" y1="271" x2="358" y2="245" stroke-width="1" />
<line x1="362" y1="271" x2="362" y2="245" stroke-width="1" />
<line x1="366" y1="271" x2="366" y2="245" stroke-width="1" />
<line x1="370" y1="271" x2="370" y2="245" stroke-width="1" />
<line x1="374" y1="271" x2="374" y2="245" stroke-width="1" />
</g>
<g stroke="#000000" fill="#D0D0D0" stroke-opacity="1.0" fill-opacity="1.0" transform="scale(0.5)">
<polygon points="421,241  421,245  329,245  329,241" stroke-width="1" />
<polygon points="329,275  329,271  421,271  421,275" stroke-width="1" />
<polygon points="175,275  175,271  82,271  82,275" stroke-width="1" />
<polygon points="175,241  175,245  82,245  82,241" stroke-width="1" />
</g>
<g stroke="#FFFFFF" fill="#FFFFFF" stroke-opacity="0.8" fill-opacity="0.8" transform="scale(0.5)">
<polygon points="213,208  213,184  291,184  291,208  441,208  441,308  291,308  291,332  213,332  213,308  55,308  55,208" stroke-width="1" />
</g>
<g stroke="#000000" fill="#FFFFFF" stroke-opacity="0.8" fill-opacity="0.8" transform="scale(0.5)">
<polyline points="190,214  190,208  55,208  55,308  190,308  190,302" stroke-width="1" fill="none"  />
<polyline points="190,279  190,237" stroke-width="1" fill="none"  />
<polyline points="314,303  314,308  441,308  441,208  314,208  314,214" stroke-width="1" fill="none"  />
<polyline points="314,237  314,279" stroke-width="1" fill="none"  />
<line x1="113" y1="271" x2="113" y2="245" stroke-width="1" />
<line x1="109" y1="271" x2="109" y2="245" stroke-width="1" />
<line x1="105" y1="271" x2="105" y2="245" stroke-width="1" />
<line x1="101" y1="271" x2="101" y2="245" stroke-width="1" />
<line x1="97" y1="271" x2="97" y2="245" stroke-width="1" />
<line x1="93" y1="271" x2="93" y2="245" stroke-width="1" />
<line x1="89" y1="271" x2="89" y2="245" stroke-width="1" />
<line x1="85" y1="271" x2="85" y2="245" stroke-width="1" />
<line x1="390" y1="271" x2="390" y2="245" stroke-width="1" />
<line x1="394" y1="271" x2="394" y2="245" stroke-width="1" />
<line x1="398" y1="271" x2="398" y2="245" stroke-width="1" />
<line x1="402" y1="271" x2="402" y2="245" stroke-width="1" />
<line x1="406" y1="271" x2="406" y2="245" stroke-width="1" />
<line x1="410" y1="271" x2="410" y2="245" stroke-width="1" />
<line x1="414" y1="271" x2="414" y2="245" stroke-width="1" />
<line x1="418" y1="271" x2="418" y2="245" stroke-width="1" />
</g>
<g stroke="#000000" fill="#D0D0D0" stroke-opacity="0.8" fill-opacity="0.8" transform="scale(0.5)">
<polygon points="82,245  82,241  147,241  147,275  82,275  82,271  120,271  120,245" stroke-width="1" />
<polygon points="421,275  421,271  383,271  383,245  421,245  421,241  356,241  356,275" stroke-width="1" />
</g>
<g stroke="#000000" fill="none" stroke-opacity="0.8" fill-opacity="0.8" transform="scale(0.5)">
<polyline points="314,271  322,271  322,245  314,245" stroke-width="1" fill="none"  />
<text x=" 325" y="256.0" font-family="Arial" font-size=" 10" fill="#000000" transform="rotate(90.0  325  246)" stroke-width="0">кассы</text>
<polyline points="190,271  182,271  182,245  190,245" stroke-width="1" fill="none"  />
<text x=" 193" y="256.0" font-family="Arial" font-size=" 10" fill="#000000" transform="rotate(90.0  193  246)" stroke-width="0">кассы</text>
</g>
<g stroke="#000000" fill="none" stroke-opacity="0.8" fill-opacity="0.8" transform="scale(0.5)">
<polygon points="336,255  336,261  342,261  342,255" stroke-width="1" />
<polygon points="162,255  162,261  168,261  168,255" stroke-width="1" />
</g>
<g stroke="#009900" fill="none" stroke-opacity="0.8" fill-opacity="0.8" transform="scale(0.5)">
<line x1="337" y1="266" x2="341" y2="266" stroke-width="1" />
<line x1="337" y1="270" x2="341" y2="270" stroke-width="1" />
<line x1="337" y1="274" x2="341" y2="274" stroke-width="1" />
<line x1="337" y1="278" x2="341" y2="278" stroke-width="1" />
<line x1="337" y1="282" x2="341" y2="282" stroke-width="1" />
<line x1="337" y1="286" x2="341" y2="286" stroke-width="1" />
<line x1="337" y1="290" x2="341" y2="290" stroke-width="1" />
<line x1="337" y1="294" x2="341" y2="294" stroke-width="1" />
<line x1="337" y1="298" x2="341" y2="298" stroke-width="1" />
<line x1="337" y1="302" x2="341" y2="302" stroke-width="1" />
<line x1="337" y1="306" x2="341" y2="306" stroke-width="1" />
<line x1="163" y1="251" x2="167" y2="251" stroke-width="1" />
<line x1="163" y1="247" x2="167" y2="247" stroke-width="1" />
<line x1="163" y1="243" x2="167" y2="243" stroke-width="1" />
<line x1="163" y1="239" x2="167" y2="239" stroke-width="1" />
<line x1="163" y1="235" x2="167" y2="235" stroke-width="1" />
<line x1="163" y1="231" x2="167" y2="231" stroke-width="1" />
<line x1="163" y1="227" x2="167" y2="227" stroke-width="1" />
<line x1="163" y1="223" x2="167" y2="223" stroke-width="1" />
<line x1="163" y1="219" x2="167" y2="219" stroke-width="1" />
<line x1="163" y1="215" x2="167" y2="215" stroke-width="1" />
<line x1="163" y1="211" x2="167" y2="211" stroke-width="1" />
</g>
<g stroke="#FF0000" fill="none" stroke-opacity="0.8" fill-opacity="0.8" transform="scale(0.5)">
<line x1="337" y1="251" x2="341" y2="251" stroke-width="1" />
<line x1="337" y1="247" x2="341" y2="247" stroke-width="1" />
<line x1="337" y1="243" x2="341" y2="243" stroke-width="1" />
<line x1="337" y1="239" x2="341" y2="239" stroke-width="1" />
<line x1="337" y1="235" x2="341" y2="235" stroke-width="1" />
<line x1="337" y1="231" x2="341" y2="231" stroke-width="1" />
<line x1="337" y1="227" x2="341" y2="227" stroke-width="1" />
<line x1="337" y1="223" x2="341" y2="223" stroke-width="1" />
<line x1="337" y1="219" x2="341" y2="219" stroke-width="1" />
<line x1="337" y1="215" x2="341" y2="215" stroke-width="1" />
<line x1="337" y1="211" x2="341" y2="211" stroke-width="1" />
<line x1="167" y1="265" x2="163" y2="265" stroke-width="1" />
<line x1="167" y1="269" x2="163" y2="269" stroke-width="1" />
<line x1="167" y1="273" x2="163" y2="273" stroke-width="1" />
<line x1="167" y1="277" x2="163" y2="277" stroke-width="1" />
<line x1="167" y1="281" x2="163" y2="281" stroke-width="1" />
<line x1="167" y1="285" x2="163" y2="285" stroke-width="1" />
<line x1="167" y1="289" x2="163" y2="289" stroke-width="1" />
<line x1="167" y1="293" x2="163" y2="293" stroke-width="1" />
<line x1="167" y1="297" x2="163" y2="297" stroke-width="1" />
<line x1="167" y1="301" x2="163" y2="301" stroke-width="1" />
<line x1="167" y1="305" x2="163" y2="305" stroke-width="1" />
</g>
<g stroke="#FF0000" fill="none" stroke-opacity="0.8" fill-opacity="0.8" transform="scale(0.5)">
<polyline points="323,226  304,226" marker-end="url(#arrow)" stroke-width="1" fill="none" />
<polyline points="179,290  199,290" marker-end="url(#arrow)" stroke-width="1" fill="none" />
<polyline points="99,264  79,264" marker-end="url(#arrow)" stroke-width="1" fill="none" />
<polyline points="408,252  425,252" marker-end="url(#arrow)" stroke-width="1" fill="none" />
</g>
<g stroke="#009900" fill="none" stroke-opacity="0.8" fill-opacity="0.8" transform="scale(0.5)">
<polyline points="198,226  180,226" marker-end="url(#arrow)" stroke-width="1" fill="none" />
<polyline points="304,291  323,291" marker-end="url(#arrow)" stroke-width="1" fill="none" />
<polyline points="80,252  99,252" marker-end="url(#arrow)" stroke-width="1" fill="none" />
<polyline points="425,264  408,264" marker-end="url(#arrow)" stroke-width="1" fill="none" />
</g>
<g stroke="#0" fill="#FFFFFF" stroke-opacity="1.0" fill-opacity="1.0" transform="scale(0.5)">
<polyline points="222,348  222,152" stroke-width="1" fill="none"  />
<polyline points="282,348  282,152" stroke-width="1" fill="none"  />
</g>
<g stroke="#00AFAF" fill="none" stroke-opacity="1.0" fill-opacity="1.0" transform="scale(0.5)">
<text x=" 264" y="188.0" font-family="Arial" font-size=" 15" fill="#00AFAF" transform="rotate(90.0  264  173)" stroke-width="0">Красногвардейская улица</text>
<text x=" 198" y="47.0" font-family="Arial" font-size=" 15" fill="#00AFAF" stroke-width="0">Броварский проспект</text>
</g>
<g stroke="#000000" fill="none" stroke-opacity="1.0" fill-opacity="1.0" transform="scale(0.5)">
<text x=" 61" y="219.0" font-family="Arial" font-size=" 8" fill="#000000" stroke-width="0">верхний ярус</text>
<text x=" 25" y="226.0" font-family="Arial" font-size=" 8" fill="#000000" stroke-width="0">нижний</text>
<text x=" 25" y="232.0" font-family="Arial" font-size=" 8" fill="#000000" stroke-width="0">ярус</text>
</g>
</g>
</g>
</svg>
