<?xml version="1.0" encoding="utf-8" ?>
<svg baseProfile="full" height="100%" version="1.1" width="100%" xmlns="http://www.w3.org/2000/svg" xmlns:ev="http://www.w3.org/2001/xml-events" xmlns:xlink="http://www.w3.org/1999/xlink">
  <defs>
    <marker id="id89" markerHeight="3" markerUnits="strokeWidth" markerWidth="4" orient="auto" refX="0" refY="5" viewBox="0,0,10,10">
      <path d="M 0 0 L 10 5 L 0 10 z"/>
    </marker>
  </defs>
  <g transform="scale(0.5)">
    <rect fill="none" height="550" stroke="none" stroke-width="0" width="600" x="0" y="0"/>
    <g transform="rotate(-15.0,300,275)">
      <polygon fill="#b4e3eb" points="567,63 660,87 567,434" stroke="#b4e3eb" stroke-width="1"/>
      <polygon fill="#f5f5f5" points="196,-69 397,-15 398,220 196,220" stroke="#f5f5f5" stroke-width="1"/>
      <polygon fill="#f5f5f5" points="196,351 397,351 397,591 196,537" stroke="#f5f5f5" stroke-width="1"/>
      <polyline fill="none" points="397,370 587,370" stroke="#f5f5f5" stroke-width="20"/>
      <polyline fill="none" points="398,201 632,201" stroke="#f5f5f5" stroke-width="20"/>
      <polyline fill="none" points="670,91 588,397" stroke="#ffffff" stroke-width="20"/>
      <polyline fill="none" points="73,129 122,129 122,146 73,146" stroke="#000000" stroke-width="1"/>
      <polyline fill="none" points="520,129 471,129 471,146 520,146" stroke="#000000" stroke-width="1"/>
      <polyline fill="none" points="520,425 471,425 471,442 520,442" stroke="#000000" stroke-width="1"/>
      <line stroke="#000000" stroke-width="1" x1="76" x2="76" y1="129" y2="146"/>
      <line stroke="#000000" stroke-width="1" x1="80" x2="80" y1="129" y2="146"/>
      <line stroke="#000000" stroke-width="1" x1="84" x2="84" y1="129" y2="146"/>
      <line stroke="#000000" stroke-width="1" x1="88" x2="88" y1="129" y2="146"/>
      <line stroke="#000000" stroke-width="1" x1="92" x2="92" y1="129" y2="146"/>
      <line stroke="#000000" stroke-width="1" x1="96" x2="96" y1="129" y2="146"/>
      <line stroke="#000000" stroke-width="1" x1="100" x2="100" y1="129" y2="146"/>
      <line stroke="#000000" stroke-width="1" x1="104" x2="104" y1="129" y2="146"/>
      <line stroke="#000000" stroke-width="1" x1="108" x2="108" y1="129" y2="146"/>
      <line stroke="#000000" stroke-width="1" x1="112" x2="112" y1="129" y2="146"/>
      <line stroke="#000000" stroke-width="1" x1="116" x2="116" y1="129" y2="146"/>
      <line stroke="#000000" stroke-width="1" x1="120" x2="120" y1="129" y2="146"/>
      <line stroke="#000000" stroke-width="1" x1="517" x2="517" y1="129" y2="146"/>
      <line stroke="#000000" stroke-width="1" x1="513" x2="513" y1="129" y2="146"/>
      <line stroke="#000000" stroke-width="1" x1="509" x2="509" y1="129" y2="146"/>
      <line stroke="#000000" stroke-width="1" x1="505" x2="505" y1="129" y2="146"/>
      <line stroke="#000000" stroke-width="1" x1="501" x2="501" y1="129" y2="146"/>
      <line stroke="#000000" stroke-width="1" x1="497" x2="497" y1="129" y2="146"/>
      <line stroke="#000000" stroke-width="1" x1="493" x2="493" y1="129" y2="146"/>
      <line stroke="#000000" stroke-width="1" x1="489" x2="489" y1="129" y2="146"/>
      <line stroke="#000000" stroke-width="1" x1="485" x2="485" y1="129" y2="146"/>
      <line stroke="#000000" stroke-width="1" x1="481" x2="481" y1="129" y2="146"/>
      <line stroke="#000000" stroke-width="1" x1="477" x2="477" y1="129" y2="146"/>
      <line stroke="#000000" stroke-width="1" x1="473" x2="473" y1="129" y2="146"/>
      <line stroke="#000000" stroke-width="1" x1="517" x2="517" y1="425" y2="442"/>
      <line stroke="#000000" stroke-width="1" x1="513" x2="513" y1="425" y2="442"/>
      <line stroke="#000000" stroke-width="1" x1="509" x2="509" y1="425" y2="442"/>
      <line stroke="#000000" stroke-width="1" x1="505" x2="505" y1="425" y2="442"/>
      <line stroke="#000000" stroke-width="1" x1="501" x2="501" y1="425" y2="442"/>
      <line stroke="#000000" stroke-width="1" x1="497" x2="497" y1="425" y2="442"/>
      <line stroke="#000000" stroke-width="1" x1="493" x2="493" y1="425" y2="442"/>
      <line stroke="#000000" stroke-width="1" x1="489" x2="489" y1="425" y2="442"/>
      <line stroke="#000000" stroke-width="1" x1="485" x2="485" y1="425" y2="442"/>
      <line stroke="#000000" stroke-width="1" x1="481" x2="481" y1="425" y2="442"/>
      <line stroke="#000000" stroke-width="1" x1="477" x2="477" y1="425" y2="442"/>
      <line stroke="#000000" stroke-width="1" x1="473" x2="473" y1="425" y2="442"/>
      <polyline fill="none" points="123,129 470,129" stroke="#d0d0d0" stroke-width="1"/>
      <polyline fill="none" points="123,146 448,146 448,442 470,442" stroke="#d0d0d0" stroke-width="1"/>
      <polyline fill="none" points="470,146 465,146 465,425 470,425" stroke="#d0d0d0" stroke-width="1"/>
      <text fill="#00afaf" font-family="Arial" font-size="15" stroke="none" stroke-width="0" transform="rotate(90.0,631,131)" x="631" y="146.0">Днепр</text>
      <polygon fill="#cc3333" points="99,284 99,254 549,254 549,284" stroke="#000000" stroke-width="1"/>
      <polygon fill="#cc3333" points="99,287 99,317 549,317 549,287" stroke="#000000" stroke-width="1"/>
      <polyline fill="none" points="535,180 535,220 134,220" stroke="#000000" stroke-width="1"/>
      <polyline fill="none" points="535,391 535,351 135,351" stroke="#000000" stroke-width="1"/>
      <text fill="#000000" font-family="Arial" font-size="20" stroke="none" stroke-width="0" x="156" y="272.0">&lt;&lt; Арсенальная</text>
      <text fill="#000000" font-family="Arial" font-size="20" stroke="none" stroke-width="0" x="419" y="314.0">Гидропарк &gt;&gt;</text>
      <text fill="#000000" font-family="Arial" font-size="25" stroke="none" stroke-width="0" x="312" y="293.0">Днепр</text>
      <text fill="#ffffff" font-family="Arial" font-size="20" stroke="none" stroke-width="0" x="155" y="271.0">&lt;&lt; Арсенальная</text>
      <text fill="#ffffff" font-family="Arial" font-size="20" stroke="none" stroke-width="0" x="418" y="313.0">Гидропарк &gt;&gt;</text>
      <text fill="#ffffff" font-family="Arial" font-size="25" stroke="none" stroke-width="0" x="311" y="292.0">Днепр</text>
      <polyline fill="none" points="78,198 78,215" stroke="#d0d0d0" stroke-width="1"/>
      <polyline fill="none" points="54,198 54,215" stroke="#d0d0d0" stroke-width="1"/>
      <polyline fill="none" points="78,356 78,373" stroke="#d0d0d0" stroke-width="1"/>
      <polyline fill="none" points="54,356 54,373" stroke="#d0d0d0" stroke-width="1"/>
      <polyline fill="none" points="43,253 43,247" stroke="#000000" stroke-width="1"/>
      <polyline fill="none" points="54,215 78,215" stroke="#000000" stroke-width="1"/>
      <polyline fill="none" points="54,198 78,198" stroke="#000000" stroke-width="1"/>
      <polyline fill="none" points="43,316 43,322" stroke="#000000" stroke-width="1"/>
      <polyline fill="none" points="54,356 78,356" stroke="#000000" stroke-width="1"/>
      <polyline fill="none" points="78,373 54,373" stroke="#000000" stroke-width="1"/>
      <path d="M43,253 C43,253 40.5,247.666666667 43,253 C45.5,258.333333333 58,274.5 58,285 C58,295.5 43,316 43,316 " fill="none" stroke="#000000" stroke-width="1"/>
      <path d="M43,249 C43,249 40.0,243.0 43,249 C46.0,255.0 61,273.166666667 61,285 C61,296.833333333 43,320 43,320 " fill="none" stroke="#000000" stroke-width="1"/>
      <line stroke="#000000" stroke-width="1" x1="26" x2="43" y1="221" y2="221"/>
      <line stroke="#000000" stroke-width="1" x1="26" x2="43" y1="225" y2="225"/>
      <line stroke="#000000" stroke-width="1" x1="26" x2="43" y1="229" y2="229"/>
      <line stroke="#000000" stroke-width="1" x1="26" x2="43" y1="233" y2="233"/>
      <line stroke="#000000" stroke-width="1" x1="26" x2="43" y1="237" y2="237"/>
      <line stroke="#000000" stroke-width="1" x1="26" x2="43" y1="241" y2="241"/>
      <line stroke="#000000" stroke-width="1" x1="26" x2="43" y1="245" y2="245"/>
      <line stroke="#000000" stroke-width="1" x1="26" x2="43" y1="249" y2="249"/>
      <line stroke="#000000" stroke-width="1" x1="26" x2="43" y1="348" y2="348"/>
      <line stroke="#000000" stroke-width="1" x1="26" x2="43" y1="344" y2="344"/>
      <line stroke="#000000" stroke-width="1" x1="26" x2="43" y1="340" y2="340"/>
      <line stroke="#000000" stroke-width="1" x1="26" x2="43" y1="336" y2="336"/>
      <line stroke="#000000" stroke-width="1" x1="26" x2="43" y1="332" y2="332"/>
      <line stroke="#000000" stroke-width="1" x1="26" x2="43" y1="328" y2="328"/>
      <line stroke="#000000" stroke-width="1" x1="26" x2="43" y1="324" y2="324"/>
      <line stroke="#000000" stroke-width="1" x1="26" x2="43" y1="320" y2="320"/>
      <line stroke="#000000" stroke-width="1" x1="48" x2="48" y1="198" y2="215"/>
      <line stroke="#000000" stroke-width="1" x1="52" x2="52" y1="198" y2="215"/>
      <line stroke="#000000" stroke-width="1" x1="56" x2="56" y1="198" y2="215"/>
      <line stroke="#000000" stroke-width="1" x1="60" x2="60" y1="198" y2="215"/>
      <line stroke="#000000" stroke-width="1" x1="64" x2="64" y1="198" y2="215"/>
      <line stroke="#000000" stroke-width="1" x1="68" x2="68" y1="198" y2="215"/>
      <line stroke="#000000" stroke-width="1" x1="72" x2="72" y1="198" y2="215"/>
      <line stroke="#000000" stroke-width="1" x1="76" x2="76" y1="198" y2="215"/>
      <line stroke="#000000" stroke-width="1" x1="80" x2="80" y1="198" y2="215"/>
      <line stroke="#000000" stroke-width="1" x1="84" x2="84" y1="198" y2="215"/>
      <line stroke="#000000" stroke-width="1" x1="48" x2="48" y1="373" y2="356"/>
      <line stroke="#000000" stroke-width="1" x1="52" x2="52" y1="373" y2="356"/>
      <line stroke="#000000" stroke-width="1" x1="56" x2="56" y1="373" y2="356"/>
      <line stroke="#000000" stroke-width="1" x1="60" x2="60" y1="373" y2="356"/>
      <line stroke="#000000" stroke-width="1" x1="64" x2="64" y1="373" y2="356"/>
      <line stroke="#000000" stroke-width="1" x1="68" x2="68" y1="373" y2="356"/>
      <line stroke="#000000" stroke-width="1" x1="72" x2="72" y1="373" y2="356"/>
      <line stroke="#000000" stroke-width="1" x1="76" x2="76" y1="373" y2="356"/>
      <line stroke="#000000" stroke-width="1" x1="80" x2="80" y1="373" y2="356"/>
      <line stroke="#000000" stroke-width="1" x1="84" x2="84" y1="373" y2="356"/>
      <polygon fill="#d0d0d0" points="26,373 54,373 54,378 21,378 21,193 54,193 54,198 26,198" stroke="#000000" stroke-width="1"/>
      <polygon fill="#d0d0d0" points="78,373 130,373 130,351 135,351 135,378 78,378" stroke="#000000" stroke-width="1"/>
      <polygon fill="#d0d0d0" points="43,322 48,322 48,351 54,351 54,356 43,356" stroke="#000000" stroke-width="1"/>
      <polygon fill="#d0d0d0" points="78,356 78,351 85,351 85,299 93,299 93,272 85,272 85,220 78,220 78,215 112,215 112,220 99,220 99,351 112,351 112,356" stroke="#000000" stroke-width="1"/>
      <polygon fill="#d0d0d0" points="54,215 54,220 48,220 48,247 43,247 43,215" stroke="#000000" stroke-width="1"/>
      <polygon fill="#d0d0d0" points="78,193 78,198 129,198 129,220 134,220 134,193" stroke="#000000" stroke-width="1"/>
      <polygon fill="#ffffff" points="85,272 85,299 93,299 93,272" stroke="#000000" stroke-width="1"/>
      <text fill="#000000" font-family="Arial" font-size="10" stroke="none" stroke-width="0" transform="rotate(90.0,96,273)" x="96" y="283.0">кассы</text>
      <polygon fill="none" points="43,262 49,262 49,268 43,268" stroke="#000000" stroke-width="1"/>
      <line stroke="#000000" stroke-width="1" x1="44" x2="48" y1="271" y2="271"/>
      <line stroke="#000000" stroke-width="1" x1="44" x2="48" y1="275" y2="275"/>
      <line stroke="#000000" stroke-width="1" x1="44" x2="48" y1="279" y2="279"/>
      <line stroke="#000000" stroke-width="1" x1="44" x2="48" y1="283" y2="283"/>
      <line stroke="#000000" stroke-width="1" x1="44" x2="48" y1="287" y2="287"/>
      <line stroke="#000000" stroke-width="1" x1="44" x2="48" y1="291" y2="291"/>
      <line stroke="#000000" stroke-width="1" x1="44" x2="48" y1="295" y2="295"/>
      <line stroke="#000000" stroke-width="1" x1="44" x2="48" y1="299" y2="299"/>
      <line stroke="#000000" stroke-width="1" x1="44" x2="48" y1="303" y2="303"/>
      <line stroke="#000000" stroke-width="1" x1="44" x2="48" y1="307" y2="307"/>
      <polyline fill="none" marker-end="url(#id89)" points="70,195 70,179" stroke="#ff0000" stroke-width="1"/>
      <polyline fill="none" marker-end="url(#id89)" points="62,376 62,392" stroke="#ff0000" stroke-width="1"/>
      <polyline fill="none" marker-end="url(#id89)" points="70,392 70,376" stroke="#009900" stroke-width="1"/>
      <polyline fill="none" marker-end="url(#id89)" points="62,179 62,195" stroke="#009900" stroke-width="1"/>
      <polyline fill="none" points="549,391 549,317" stroke="#000000" stroke-width="1"/>
      <polyline fill="none" points="530,391 530,415 554,415 554,391 530,391" stroke="#000000" stroke-width="1"/>
      <polyline fill="none" points="549,180 549,254" stroke="#000000" stroke-width="1"/>
      <polyline fill="none" points="530,180 530,156 554,156 554,180 530,180" stroke="#000000" stroke-width="1"/>
      <polygon fill="none" points="538,164 546,164 546,172 538,172" stroke="#000000" stroke-width="1"/>
      <polygon fill="none" points="538,399 546,399 546,407 538,407" stroke="#000000" stroke-width="1"/>
      <polyline fill="none" points="533,182 551,189" stroke="#ff0000" stroke-width="1"/>
      <polyline fill="none" points="551,182 533,189" stroke="#ff0000" stroke-width="1"/>
      <polyline fill="none" points="533,382 551,389" stroke="#ff0000" stroke-width="1"/>
      <polyline fill="none" points="551,382 533,389" stroke="#ff0000" stroke-width="1"/>
      <text fill="#00afaf" font-family="Arial" font-size="15" stroke="none" stroke-width="0" transform="rotate(90.0,299,34)" x="299" y="49.0">Набережное шоссе</text>
      <text fill="#00afaf" font-family="Arial" font-size="15" stroke="none" stroke-width="0" transform="rotate(90.0,300,406)" x="300" y="421.0">Набережное шоссе</text>
      <text fill="#00afaf" font-family="Arial" font-size="15" stroke="none" stroke-width="0" x="423" y="376.0">ул.Метромост &gt;&gt;</text>
      <text fill="#00afaf" font-family="Arial" font-size="15" stroke="none" stroke-width="0" x="434" y="207.0">&lt;&lt; ул.Метромост</text>
      <text fill="#00afaf" font-family="Arial" font-size="10" stroke="none" stroke-width="0" transform="rotate(15.0,558,165)" x="558" y="175.0">'скульптура &quot;Мир&quot;'</text>
      <text fill="#00afaf" font-family="Arial" font-size="10" stroke="none" stroke-width="0" transform="rotate(15.0,496,403)" x="496" y="413.0">'скульптура &quot;Труд&quot;'</text>
    </g>
  </g>
</svg>
