<?xml version="1.0" encoding="utf-8" ?>
<svg baseProfile="full" height="500.0" version="1.1" width="1310.0" xmlns="http://www.w3.org/2000/svg" xmlns:ev="http://www.w3.org/2001/xml-events" xmlns:xlink="http://www.w3.org/1999/xlink">
  <defs>
    <marker id="id90" markerHeight="3" markerUnits="strokeWidth" markerWidth="4" orient="auto" refX="0" refY="5" viewBox="0,0,10,10">
      <path d="M 0 0 L 10 5 L 0 10 z"/>
    </marker>
  </defs>
  <g>
    <rect fill="none" height="500.0" stroke="none" stroke-width="0" width="1310.0" x="0.0" y="0.0"/>
    <g transform="rotate(10.0,655.0,250.0)">
      <polygon fill="#339933" points="856.0,245.0 856.0,215.0 1306.0,215.0 1306.0,245.0" stroke="#000000" stroke-width="1"/>
      <polygon fill="#339933" points="856.0,325.0 856.0,355.0 1306.0,355.0 1306.0,325.0" stroke="#000000" stroke-width="1"/>
      <text fill="#339933" font-family="Arial" font-size="20.0" stroke="none" stroke-width="0" x="856.0" y="211.0">&lt;&lt; Сырец</text>
      <text fill="#339933" font-family="Arial" font-size="20.0" stroke="none" stroke-width="0" x="1162.0" y="375.0">Лукьяновская &gt;&gt;</text>
      <text fill="#339933" font-family="Arial" font-size="25.0" stroke="none" stroke-width="0" x="996.0" y="292.0">Дорогожичи</text>
      <polygon fill="#d0d0d0" points="940.0,256.0 954.0,256.0 954.0,271.0 940.0,271.0" stroke="#000000" stroke-width="1"/>
      <polygon fill="#d0d0d0" points="975.0,256.0 990.0,256.0 990.0,271.0 975.0,271.0" stroke="#000000" stroke-width="1"/>
      <polygon fill="#d0d0d0" points="1011.0,256.0 1026.0,256.0 1026.0,271.0 1011.0,271.0" stroke="#000000" stroke-width="1"/>
      <polygon fill="#d0d0d0" points="1047.0,256.0 1062.0,256.0 1062.0,271.0 1047.0,271.0" stroke="#000000" stroke-width="1"/>
      <polygon fill="#d0d0d0" points="1083.0,256.0 1098.0,256.0 1098.0,271.0 1083.0,271.0" stroke="#000000" stroke-width="1"/>
      <polygon fill="#d0d0d0" points="1119.0,256.0 1134.0,256.0 1134.0,271.0 1119.0,271.0" stroke="#000000" stroke-width="1"/>
      <polygon fill="#d0d0d0" points="1155.0,256.0 1170.0,256.0 1170.0,271.0 1155.0,271.0" stroke="#000000" stroke-width="1"/>
      <polygon fill="#d0d0d0" points="940.0,299.0 954.0,299.0 954.0,314.0 940.0,314.0" stroke="#000000" stroke-width="1"/>
      <polygon fill="#d0d0d0" points="975.0,299.0 990.0,299.0 990.0,314.0 975.0,314.0" stroke="#000000" stroke-width="1"/>
      <polygon fill="#d0d0d0" points="1011.0,299.0 1026.0,299.0 1026.0,314.0 1011.0,314.0" stroke="#000000" stroke-width="1"/>
      <polygon fill="#d0d0d0" points="1047.0,299.0 1062.0,299.0 1062.0,314.0 1047.0,314.0" stroke="#000000" stroke-width="1"/>
      <polygon fill="#d0d0d0" points="1083.0,299.0 1098.0,299.0 1098.0,314.0 1083.0,314.0" stroke="#000000" stroke-width="1"/>
      <polygon fill="#d0d0d0" points="1119.0,299.0 1134.0,299.0 1134.0,314.0 1119.0,314.0" stroke="#000000" stroke-width="1"/>
      <polygon fill="#d0d0d0" points="1155.0,299.0 1170.0,299.0 1170.0,314.0 1155.0,314.0" stroke="#000000" stroke-width="1"/>
      <polyline fill="none" points="1306.0,245.0 1306.0,256.0 1191.0,256.0 1191.0,271.0 1203.0,271.0 1203.0,299.0 1191.0,299.0 1191.0,314.0 1306.0,314.0 1306.0,325.0" stroke="#000000" stroke-width="1"/>
      <polyline fill="none" points="754.0,259.0 754.0,255.0 821.0,255.0 821.0,271.0 919.0,271.0 919.0,256.0 856.0,256.0 856.0,245.0" stroke="#000000" stroke-width="1"/>
      <polyline fill="none" points="856.0,325.0 856.0,314.0 919.0,314.0 919.0,299.0 821.0,299.0 821.0,316.0 754.0,316.0 754.0,312.0" stroke="#000000" stroke-width="1"/>
    </g>
    <g transform="rotate(15.0,655.0,250.0)">
      <polyline fill="none" points="169.0,210.0 166.0,210.0 166.0,235.0 258.0,235.0 258.0,217.0 308.0,217.0 308.0,235.0 415.0,235.0 442.0,240.0 442.0,250.0" stroke="#000000" stroke-width="1"/>
      <polyline fill="none" points="442.0,303.0 442.0,313.0 415.0,318.0 308.0,318.0 308.0,334.0 258.0,334.0 258.0,318.0 166.0,318.0 166.0,358.0 269.0,358.0 269.0,355.0" stroke="#000000" stroke-width="1"/>
      <polyline fill="none" points="269.0,384.0 269.0,381.0 133.0,381.0 133.0,514.0 195.0,514.0" stroke="#000000" stroke-width="1"/>
      <polyline fill="none" points="195.0,534.0 64.0,534.0" stroke="#000000" stroke-width="1"/>
      <polyline fill="none" points="64.0,514.0 110.0,514.0 110.0,222.0 103.0,222.0 103.0,266.0" stroke="#000000" stroke-width="1"/>
      <polyline fill="none" points="81.0,266.0 81.0,158.0" stroke="#000000" stroke-width="1"/>
      <polyline fill="none" points="103.0,158.0 103.0,199.0 110.0,199.0 110.0,166.0 107.0,166.0" stroke="#000000" stroke-width="1"/>
      <line stroke="#000000" stroke-width="1" x1="103.0" x2="81.0" y1="160.0" y2="160.0"/>
      <line stroke="#000000" stroke-width="1" x1="103.0" x2="81.0" y1="164.0" y2="164.0"/>
      <line stroke="#000000" stroke-width="1" x1="103.0" x2="81.0" y1="168.0" y2="168.0"/>
      <line stroke="#000000" stroke-width="1" x1="103.0" x2="81.0" y1="172.0" y2="172.0"/>
      <line stroke="#000000" stroke-width="1" x1="103.0" x2="81.0" y1="176.0" y2="176.0"/>
      <line stroke="#000000" stroke-width="1" x1="103.0" x2="81.0" y1="180.0" y2="180.0"/>
      <line stroke="#000000" stroke-width="1" x1="103.0" x2="81.0" y1="184.0" y2="184.0"/>
      <line stroke="#000000" stroke-width="1" x1="103.0" x2="81.0" y1="188.0" y2="188.0"/>
      <line stroke="#000000" stroke-width="1" x1="103.0" x2="81.0" y1="192.0" y2="192.0"/>
      <line stroke="#000000" stroke-width="1" x1="103.0" x2="81.0" y1="196.0" y2="196.0"/>
      <line stroke="#000000" stroke-width="1" x1="103.0" x2="81.0" y1="263.0" y2="263.0"/>
      <line stroke="#000000" stroke-width="1" x1="103.0" x2="81.0" y1="259.0" y2="259.0"/>
      <line stroke="#000000" stroke-width="1" x1="103.0" x2="81.0" y1="255.0" y2="255.0"/>
      <line stroke="#000000" stroke-width="1" x1="103.0" x2="81.0" y1="251.0" y2="251.0"/>
      <line stroke="#000000" stroke-width="1" x1="103.0" x2="81.0" y1="247.0" y2="247.0"/>
      <line stroke="#000000" stroke-width="1" x1="103.0" x2="81.0" y1="243.0" y2="243.0"/>
      <line stroke="#000000" stroke-width="1" x1="103.0" x2="81.0" y1="239.0" y2="239.0"/>
      <line stroke="#000000" stroke-width="1" x1="103.0" x2="81.0" y1="235.0" y2="235.0"/>
      <line stroke="#000000" stroke-width="1" x1="103.0" x2="81.0" y1="231.0" y2="231.0"/>
      <line stroke="#000000" stroke-width="1" x1="103.0" x2="81.0" y1="227.0" y2="227.0"/>
      <line stroke="#000000" stroke-width="1" x1="66.0" x2="66.0" y1="514.0" y2="534.0"/>
      <line stroke="#000000" stroke-width="1" x1="70.0" x2="70.0" y1="514.0" y2="534.0"/>
      <line stroke="#000000" stroke-width="1" x1="74.0" x2="74.0" y1="514.0" y2="534.0"/>
      <line stroke="#000000" stroke-width="1" x1="78.0" x2="78.0" y1="514.0" y2="534.0"/>
      <line stroke="#000000" stroke-width="1" x1="82.0" x2="82.0" y1="514.0" y2="534.0"/>
      <line stroke="#000000" stroke-width="1" x1="86.0" x2="86.0" y1="514.0" y2="534.0"/>
      <line stroke="#000000" stroke-width="1" x1="90.0" x2="90.0" y1="514.0" y2="534.0"/>
      <line stroke="#000000" stroke-width="1" x1="94.0" x2="94.0" y1="514.0" y2="534.0"/>
      <line stroke="#000000" stroke-width="1" x1="98.0" x2="98.0" y1="514.0" y2="534.0"/>
      <line stroke="#000000" stroke-width="1" x1="102.0" x2="102.0" y1="514.0" y2="534.0"/>
      <line stroke="#000000" stroke-width="1" x1="106.0" x2="106.0" y1="514.0" y2="534.0"/>
      <line stroke="#000000" stroke-width="1" x1="201.0" x2="201.0" y1="235.0" y2="250.0"/>
      <line stroke="#000000" stroke-width="1" x1="205.0" x2="205.0" y1="235.0" y2="250.0"/>
      <line stroke="#000000" stroke-width="1" x1="209.0" x2="209.0" y1="235.0" y2="250.0"/>
      <line stroke="#000000" stroke-width="1" x1="213.0" x2="213.0" y1="235.0" y2="250.0"/>
      <line stroke="#000000" stroke-width="1" x1="217.0" x2="217.0" y1="235.0" y2="250.0"/>
      <line stroke="#000000" stroke-width="1" x1="221.0" x2="221.0" y1="235.0" y2="250.0"/>
      <line stroke="#000000" stroke-width="1" x1="225.0" x2="225.0" y1="235.0" y2="250.0"/>
      <line stroke="#000000" stroke-width="1" x1="229.0" x2="229.0" y1="235.0" y2="250.0"/>
      <line stroke="#000000" stroke-width="1" x1="233.0" x2="233.0" y1="235.0" y2="250.0"/>
      <line stroke="#000000" stroke-width="1" x1="237.0" x2="237.0" y1="235.0" y2="250.0"/>
      <line stroke="#000000" stroke-width="1" x1="241.0" x2="241.0" y1="235.0" y2="250.0"/>
      <line stroke="#000000" stroke-width="1" x1="245.0" x2="245.0" y1="235.0" y2="250.0"/>
      <line stroke="#000000" stroke-width="1" x1="249.0" x2="249.0" y1="235.0" y2="250.0"/>
      <line stroke="#000000" stroke-width="1" x1="253.0" x2="253.0" y1="235.0" y2="250.0"/>
      <line stroke="#000000" stroke-width="1" x1="201.0" x2="201.0" y1="318.0" y2="303.0"/>
      <line stroke="#000000" stroke-width="1" x1="205.0" x2="205.0" y1="318.0" y2="303.0"/>
      <line stroke="#000000" stroke-width="1" x1="209.0" x2="209.0" y1="318.0" y2="303.0"/>
      <line stroke="#000000" stroke-width="1" x1="213.0" x2="213.0" y1="318.0" y2="303.0"/>
      <line stroke="#000000" stroke-width="1" x1="217.0" x2="217.0" y1="318.0" y2="303.0"/>
      <line stroke="#000000" stroke-width="1" x1="221.0" x2="221.0" y1="318.0" y2="303.0"/>
      <line stroke="#000000" stroke-width="1" x1="225.0" x2="225.0" y1="318.0" y2="303.0"/>
      <line stroke="#000000" stroke-width="1" x1="229.0" x2="229.0" y1="318.0" y2="303.0"/>
      <line stroke="#000000" stroke-width="1" x1="233.0" x2="233.0" y1="318.0" y2="303.0"/>
      <line stroke="#000000" stroke-width="1" x1="237.0" x2="237.0" y1="318.0" y2="303.0"/>
      <line stroke="#000000" stroke-width="1" x1="241.0" x2="241.0" y1="318.0" y2="303.0"/>
      <line stroke="#000000" stroke-width="1" x1="245.0" x2="245.0" y1="318.0" y2="303.0"/>
      <line stroke="#000000" stroke-width="1" x1="249.0" x2="249.0" y1="318.0" y2="303.0"/>
      <line stroke="#000000" stroke-width="1" x1="253.0" x2="253.0" y1="318.0" y2="303.0"/>
      <polygon fill="#d0d0d0" points="310.0,269.0 320.0,269.0 320.0,283.0 310.0,283.0" stroke="#000000" stroke-width="1"/>
      <polygon fill="#d0d0d0" points="166.0,258.0 166.0,295.0 170.0,295.0 170.0,258.0" stroke="#000000" stroke-width="1"/>
      <line stroke="#7f7f7f" stroke-width="1" x1="755.0" x2="755.0" y1="300.0" y2="253.0"/>
      <line stroke="#7f7f7f" stroke-width="1" x1="751.0" x2="751.0" y1="300.0" y2="253.0"/>
      <line stroke="#7f7f7f" stroke-width="1" x1="747.0" x2="747.0" y1="300.0" y2="253.0"/>
      <line stroke="#7f7f7f" stroke-width="1" x1="743.0" x2="743.0" y1="300.0" y2="253.0"/>
      <line stroke="#7f7f7f" stroke-width="1" x1="739.0" x2="739.0" y1="300.0" y2="253.0"/>
      <line stroke="#7f7f7f" stroke-width="1" x1="735.0" x2="735.0" y1="300.0" y2="253.0"/>
      <line stroke="#7f7f7f" stroke-width="1" x1="731.0" x2="731.0" y1="300.0" y2="253.0"/>
      <line stroke="#7f7f7f" stroke-width="1" x1="727.0" x2="727.0" y1="300.0" y2="253.0"/>
      <line stroke="#7f7f7f" stroke-width="1" x1="723.0" x2="723.0" y1="300.0" y2="253.0"/>
      <line stroke="#7f7f7f" stroke-width="1" x1="719.0" x2="719.0" y1="300.0" y2="253.0"/>
      <line stroke="#7f7f7f" stroke-width="1" x1="715.0" x2="715.0" y1="300.0" y2="253.0"/>
      <line stroke="#7f7f7f" stroke-width="1" x1="711.0" x2="711.0" y1="300.0" y2="253.0"/>
      <line stroke="#7f7f7f" stroke-width="1" x1="707.0" x2="707.0" y1="300.0" y2="253.0"/>
      <line stroke="#7f7f7f" stroke-width="1" x1="703.0" x2="703.0" y1="300.0" y2="253.0"/>
      <line stroke="#7f7f7f" stroke-width="1" x1="699.0" x2="699.0" y1="300.0" y2="253.0"/>
      <line stroke="#7f7f7f" stroke-width="1" x1="695.0" x2="695.0" y1="300.0" y2="253.0"/>
      <line stroke="#7f7f7f" stroke-width="1" x1="691.0" x2="691.0" y1="300.0" y2="253.0"/>
      <line stroke="#7f7f7f" stroke-width="1" x1="687.0" x2="687.0" y1="300.0" y2="253.0"/>
      <line stroke="#7f7f7f" stroke-width="1" x1="683.0" x2="683.0" y1="300.0" y2="253.0"/>
      <line stroke="#7f7f7f" stroke-width="1" x1="679.0" x2="679.0" y1="300.0" y2="253.0"/>
      <line stroke="#7f7f7f" stroke-width="1" x1="675.0" x2="675.0" y1="300.0" y2="253.0"/>
      <line stroke="#7f7f7f" stroke-width="1" x1="671.0" x2="671.0" y1="300.0" y2="253.0"/>
      <line stroke="#7f7f7f" stroke-width="1" x1="667.0" x2="667.0" y1="300.0" y2="253.0"/>
      <line stroke="#7f7f7f" stroke-width="1" x1="663.0" x2="663.0" y1="300.0" y2="253.0"/>
      <line stroke="#7f7f7f" stroke-width="1" x1="659.0" x2="659.0" y1="300.0" y2="253.0"/>
      <line stroke="#7f7f7f" stroke-width="1" x1="655.0" x2="655.0" y1="300.0" y2="253.0"/>
      <line stroke="#7f7f7f" stroke-width="1" x1="651.0" x2="651.0" y1="300.0" y2="253.0"/>
      <line stroke="#7f7f7f" stroke-width="1" x1="647.0" x2="647.0" y1="300.0" y2="253.0"/>
      <line stroke="#7f7f7f" stroke-width="1" x1="643.0" x2="643.0" y1="300.0" y2="253.0"/>
      <line stroke="#7f7f7f" stroke-width="1" x1="639.0" x2="639.0" y1="300.0" y2="253.0"/>
      <line stroke="#7f7f7f" stroke-width="1" x1="635.0" x2="635.0" y1="300.0" y2="253.0"/>
      <line stroke="#7f7f7f" stroke-width="1" x1="631.0" x2="631.0" y1="300.0" y2="253.0"/>
      <line stroke="#7f7f7f" stroke-width="1" x1="627.0" x2="627.0" y1="300.0" y2="253.0"/>
      <line stroke="#7f7f7f" stroke-width="1" x1="623.0" x2="623.0" y1="300.0" y2="253.0"/>
      <line stroke="#7f7f7f" stroke-width="1" x1="619.0" x2="619.0" y1="300.0" y2="253.0"/>
      <line stroke="#7f7f7f" stroke-width="1" x1="615.0" x2="615.0" y1="300.0" y2="253.0"/>
      <line stroke="#7f7f7f" stroke-width="1" x1="611.0" x2="611.0" y1="300.0" y2="253.0"/>
      <line stroke="#7f7f7f" stroke-width="1" x1="607.0" x2="607.0" y1="300.0" y2="253.0"/>
      <line stroke="#7f7f7f" stroke-width="1" x1="603.0" x2="603.0" y1="300.0" y2="253.0"/>
      <line stroke="#7f7f7f" stroke-width="1" x1="599.0" x2="599.0" y1="300.0" y2="253.0"/>
      <line stroke="#7f7f7f" stroke-width="1" x1="595.0" x2="595.0" y1="300.0" y2="253.0"/>
      <line stroke="#7f7f7f" stroke-width="1" x1="591.0" x2="591.0" y1="300.0" y2="253.0"/>
      <line stroke="#7f7f7f" stroke-width="1" x1="587.0" x2="587.0" y1="300.0" y2="253.0"/>
      <line stroke="#7f7f7f" stroke-width="1" x1="583.0" x2="583.0" y1="300.0" y2="253.0"/>
      <line stroke="#7f7f7f" stroke-width="1" x1="579.0" x2="579.0" y1="300.0" y2="253.0"/>
      <line stroke="#7f7f7f" stroke-width="1" x1="575.0" x2="575.0" y1="300.0" y2="253.0"/>
      <line stroke="#7f7f7f" stroke-width="1" x1="571.0" x2="571.0" y1="300.0" y2="253.0"/>
      <line stroke="#7f7f7f" stroke-width="1" x1="567.0" x2="567.0" y1="300.0" y2="253.0"/>
      <line stroke="#7f7f7f" stroke-width="1" x1="563.0" x2="563.0" y1="300.0" y2="253.0"/>
      <line stroke="#7f7f7f" stroke-width="1" x1="559.0" x2="559.0" y1="300.0" y2="253.0"/>
      <line stroke="#7f7f7f" stroke-width="1" x1="555.0" x2="555.0" y1="300.0" y2="253.0"/>
      <line stroke="#7f7f7f" stroke-width="1" x1="551.0" x2="551.0" y1="300.0" y2="253.0"/>
      <line stroke="#7f7f7f" stroke-width="1" x1="547.0" x2="547.0" y1="300.0" y2="253.0"/>
      <line stroke="#7f7f7f" stroke-width="1" x1="543.0" x2="543.0" y1="300.0" y2="253.0"/>
      <line stroke="#7f7f7f" stroke-width="1" x1="539.0" x2="539.0" y1="300.0" y2="253.0"/>
      <line stroke="#7f7f7f" stroke-width="1" x1="535.0" x2="535.0" y1="300.0" y2="253.0"/>
      <line stroke="#7f7f7f" stroke-width="1" x1="531.0" x2="531.0" y1="300.0" y2="253.0"/>
      <line stroke="#7f7f7f" stroke-width="1" x1="527.0" x2="527.0" y1="300.0" y2="253.0"/>
      <line stroke="#7f7f7f" stroke-width="1" x1="523.0" x2="523.0" y1="300.0" y2="253.0"/>
      <line stroke="#7f7f7f" stroke-width="1" x1="519.0" x2="519.0" y1="300.0" y2="253.0"/>
      <line stroke="#7f7f7f" stroke-width="1" x1="515.0" x2="515.0" y1="300.0" y2="253.0"/>
      <line stroke="#7f7f7f" stroke-width="1" x1="511.0" x2="511.0" y1="300.0" y2="253.0"/>
      <line stroke="#7f7f7f" stroke-width="1" x1="507.0" x2="507.0" y1="300.0" y2="253.0"/>
      <line stroke="#7f7f7f" stroke-width="1" x1="503.0" x2="503.0" y1="300.0" y2="253.0"/>
      <line stroke="#7f7f7f" stroke-width="1" x1="499.0" x2="499.0" y1="300.0" y2="253.0"/>
      <line stroke="#7f7f7f" stroke-width="1" x1="495.0" x2="495.0" y1="300.0" y2="253.0"/>
      <line stroke="#7f7f7f" stroke-width="1" x1="491.0" x2="491.0" y1="300.0" y2="253.0"/>
      <line stroke="#7f7f7f" stroke-width="1" x1="487.0" x2="487.0" y1="300.0" y2="253.0"/>
      <line stroke="#7f7f7f" stroke-width="1" x1="483.0" x2="483.0" y1="300.0" y2="253.0"/>
      <line stroke="#7f7f7f" stroke-width="1" x1="479.0" x2="479.0" y1="300.0" y2="253.0"/>
      <line stroke="#7f7f7f" stroke-width="1" x1="475.0" x2="475.0" y1="300.0" y2="253.0"/>
      <line stroke="#7f7f7f" stroke-width="1" x1="471.0" x2="471.0" y1="300.0" y2="253.0"/>
      <line stroke="#7f7f7f" stroke-width="1" x1="467.0" x2="467.0" y1="300.0" y2="253.0"/>
      <line stroke="#7f7f7f" stroke-width="1" x1="463.0" x2="463.0" y1="300.0" y2="253.0"/>
      <line stroke="#7f7f7f" stroke-width="1" x1="459.0" x2="459.0" y1="300.0" y2="253.0"/>
      <line stroke="#7f7f7f" stroke-width="1" x1="455.0" x2="455.0" y1="300.0" y2="253.0"/>
      <line stroke="#7f7f7f" stroke-width="1" x1="451.0" x2="451.0" y1="300.0" y2="253.0"/>
      <line stroke="#7f7f7f" stroke-width="1" x1="447.0" x2="447.0" y1="300.0" y2="253.0"/>
      <line stroke="#7f7f7f" stroke-width="1" x1="443.0" x2="443.0" y1="300.0" y2="253.0"/>
      <line stroke="#7f7f7f" stroke-width="1" x1="439.0" x2="439.0" y1="300.0" y2="253.0"/>
      <line stroke="#7f7f7f" stroke-width="1" x1="435.0" x2="435.0" y1="300.0" y2="253.0"/>
      <polygon fill="#9b5509" points="762.0,253.0 429.0,253.0 429.0,250.0 762.0,250.0" stroke="#000000" stroke-width="1"/>
      <polygon fill="#9b5509" points="762.0,261.0 762.0,266.0 429.0,266.0 429.0,261.0" stroke="#000000" stroke-width="1"/>
      <polygon fill="#9b5509" points="762.0,274.0 762.0,279.0 429.0,279.0 429.0,274.0" stroke="#000000" stroke-width="1"/>
      <polygon fill="#9b5509" points="762.0,287.0 762.0,292.0 429.0,292.0 429.0,287.0" stroke="#000000" stroke-width="1"/>
      <polygon fill="#9b5509" points="762.0,300.0 429.0,300.0 429.0,303.0 762.0,303.0" stroke="#000000" stroke-width="1"/>
      <line stroke="#7f7f7f" stroke-width="1" x1="251.0" x2="251.0" y1="300.0" y2="253.0"/>
      <line stroke="#7f7f7f" stroke-width="1" x1="247.0" x2="247.0" y1="300.0" y2="253.0"/>
      <line stroke="#7f7f7f" stroke-width="1" x1="243.0" x2="243.0" y1="300.0" y2="253.0"/>
      <line stroke="#7f7f7f" stroke-width="1" x1="239.0" x2="239.0" y1="300.0" y2="253.0"/>
      <line stroke="#7f7f7f" stroke-width="1" x1="235.0" x2="235.0" y1="300.0" y2="253.0"/>
      <line stroke="#7f7f7f" stroke-width="1" x1="231.0" x2="231.0" y1="300.0" y2="253.0"/>
      <line stroke="#7f7f7f" stroke-width="1" x1="227.0" x2="227.0" y1="300.0" y2="253.0"/>
      <line stroke="#7f7f7f" stroke-width="1" x1="223.0" x2="223.0" y1="300.0" y2="253.0"/>
      <line stroke="#7f7f7f" stroke-width="1" x1="219.0" x2="219.0" y1="300.0" y2="253.0"/>
      <line stroke="#7f7f7f" stroke-width="1" x1="215.0" x2="215.0" y1="300.0" y2="253.0"/>
      <line stroke="#7f7f7f" stroke-width="1" x1="211.0" x2="211.0" y1="300.0" y2="253.0"/>
      <line stroke="#7f7f7f" stroke-width="1" x1="207.0" x2="207.0" y1="300.0" y2="253.0"/>
      <polygon fill="#9b5509" points="258.0,253.0 200.0,253.0 200.0,250.0 258.0,250.0" stroke="#000000" stroke-width="1"/>
      <polygon fill="#9b5509" points="258.0,261.0 258.0,266.0 200.0,266.0 200.0,261.0" stroke="#000000" stroke-width="1"/>
      <polygon fill="#9b5509" points="258.0,274.0 258.0,279.0 200.0,279.0 200.0,274.0" stroke="#000000" stroke-width="1"/>
      <polygon fill="#9b5509" points="258.0,287.0 258.0,292.0 200.0,292.0 200.0,287.0" stroke="#000000" stroke-width="1"/>
      <polygon fill="#9b5509" points="258.0,300.0 200.0,300.0 200.0,303.0 258.0,303.0" stroke="#000000" stroke-width="1"/>
      <polygon fill="#ffffff" points="323.0,318.0 323.0,329.0 350.0,329.0 350.0,318.0" stroke="#000000" stroke-width="1"/>
      <text fill="#000000" font-family="Arial" font-size="10.0" stroke="none" stroke-width="0" x="325.0" y="327.0">кассы</text>
      <polyline fill="none" points="320.0,276.0 429.0,276.0" stroke="#000000" stroke-width="0.5"/>
      <polygon fill="none" points="361.0,310.0 367.0,310.0 367.0,316.0 361.0,316.0" stroke="#000000" stroke-width="1"/>
      <line stroke="#009900" stroke-width="1" x1="362.0" x2="366.0" y1="279.0" y2="279.0"/>
      <line stroke="#009900" stroke-width="1" x1="362.0" x2="366.0" y1="283.0" y2="283.0"/>
      <line stroke="#009900" stroke-width="1" x1="362.0" x2="366.0" y1="287.0" y2="287.0"/>
      <line stroke="#009900" stroke-width="1" x1="362.0" x2="366.0" y1="291.0" y2="291.0"/>
      <line stroke="#009900" stroke-width="1" x1="362.0" x2="366.0" y1="295.0" y2="295.0"/>
      <line stroke="#009900" stroke-width="1" x1="362.0" x2="366.0" y1="299.0" y2="299.0"/>
      <line stroke="#009900" stroke-width="1" x1="362.0" x2="366.0" y1="303.0" y2="303.0"/>
      <line stroke="#009900" stroke-width="1" x1="362.0" x2="366.0" y1="307.0" y2="307.0"/>
      <polyline fill="none" marker-end="url(#id90)" points="324.0,252.0 309.0,252.0" stroke="#ff0000" stroke-width="1"/>
      <polyline fill="none" marker-end="url(#id90)" points="179.0,246.0 164.0,246.0" stroke="#ff0000" stroke-width="1"/>
      <polyline fill="none" marker-end="url(#id90)" points="164.0,306.0 179.0,306.0" stroke="#009900" stroke-width="1"/>
      <polyline fill="none" marker-end="url(#id90)" points="310.0,300.0 325.0,300.0" stroke="#009900" stroke-width="1"/>
      <text fill="#00afaf" font-family="Arial" font-size="15.0" stroke="none" stroke-width="0" x="228.0" y="449.0">ул. Мельникова</text>
      <text fill="#00afaf" font-family="Arial" font-size="15.0" stroke="none" stroke-width="0" transform="rotate(-90.0,34.0,339.0)" x="34.0" y="354.0">ул. Елены Телиги</text>
    </g>
  </g>
</svg>
