<?xml version="1.0" encoding="utf-8" ?>
<svg baseProfile="full" height="100%" version="1.1" width="100%" xmlns="http://www.w3.org/2000/svg" xmlns:ev="http://www.w3.org/2001/xml-events" xmlns:xlink="http://www.w3.org/1999/xlink">
  <defs>
    <marker id="id90" markerHeight="3" markerUnits="strokeWidth" markerWidth="4" orient="auto" refX="0" refY="5" viewBox="0,0,10,10">
      <path d="M 0 0 L 10 5 L 0 10 z"/>
    </marker>
  </defs>
  <g>
    <rect fill="none" height="500" stroke="none" stroke-width="0" width="1310" x="0" y="0"/>
    <g transform="rotate(10.0,655,250)">
      <polygon fill="#339933" points="856,245 856,215 1306,215 1306,245" stroke="#000000" stroke-width="1"/>
      <polygon fill="#339933" points="856,325 856,355 1306,355 1306,325" stroke="#000000" stroke-width="1"/>
      <text fill="#339933" font-family="Arial" font-size="20" stroke="none" stroke-width="0" x="856" y="211.0">&lt;&lt; Сырец</text>
      <text fill="#339933" font-family="Arial" font-size="20" stroke="none" stroke-width="0" x="1162" y="375.0">Лукьяновская &gt;&gt;</text>
      <text fill="#339933" font-family="Arial" font-size="25" stroke="none" stroke-width="0" x="996" y="292.0">Дорогожичи</text>
      <polygon fill="#d0d0d0" points="940,256 954,256 954,271 940,271" stroke="#000000" stroke-width="1"/>
      <polygon fill="#d0d0d0" points="975,256 990,256 990,271 975,271" stroke="#000000" stroke-width="1"/>
      <polygon fill="#d0d0d0" points="1011,256 1026,256 1026,271 1011,271" stroke="#000000" stroke-width="1"/>
      <polygon fill="#d0d0d0" points="1047,256 1062,256 1062,271 1047,271" stroke="#000000" stroke-width="1"/>
      <polygon fill="#d0d0d0" points="1083,256 1098,256 1098,271 1083,271" stroke="#000000" stroke-width="1"/>
      <polygon fill="#d0d0d0" points="1119,256 1134,256 1134,271 1119,271" stroke="#000000" stroke-width="1"/>
      <polygon fill="#d0d0d0" points="1155,256 1170,256 1170,271 1155,271" stroke="#000000" stroke-width="1"/>
      <polygon fill="#d0d0d0" points="940,299 954,299 954,314 940,314" stroke="#000000" stroke-width="1"/>
      <polygon fill="#d0d0d0" points="975,299 990,299 990,314 975,314" stroke="#000000" stroke-width="1"/>
      <polygon fill="#d0d0d0" points="1011,299 1026,299 1026,314 1011,314" stroke="#000000" stroke-width="1"/>
      <polygon fill="#d0d0d0" points="1047,299 1062,299 1062,314 1047,314" stroke="#000000" stroke-width="1"/>
      <polygon fill="#d0d0d0" points="1083,299 1098,299 1098,314 1083,314" stroke="#000000" stroke-width="1"/>
      <polygon fill="#d0d0d0" points="1119,299 1134,299 1134,314 1119,314" stroke="#000000" stroke-width="1"/>
      <polygon fill="#d0d0d0" points="1155,299 1170,299 1170,314 1155,314" stroke="#000000" stroke-width="1"/>
      <polyline fill="none" points="1306,245 1306,256 1191,256 1191,271 1203,271 1203,299 1191,299 1191,314 1306,314 1306,325" stroke="#000000" stroke-width="1"/>
      <polyline fill="none" points="754,259 754,255 821,255 821,271 919,271 919,256 856,256 856,245" stroke="#000000" stroke-width="1"/>
      <polyline fill="none" points="856,325 856,314 919,314 919,299 821,299 821,316 754,316 754,312" stroke="#000000" stroke-width="1"/>
    </g>
    <g transform="rotate(15.0,655,250)">
      <polyline fill="none" points="169,210 166,210 166,235 258,235 258,217 308,217 308,235 415,235 442,240 442,250" stroke="#000000" stroke-width="1"/>
      <polyline fill="none" points="442,303 442,313 415,318 308,318 308,334 258,334 258,318 166,318 166,358 269,358 269,355" stroke="#000000" stroke-width="1"/>
      <polyline fill="none" points="269,384 269,381 133,381 133,514 195,514" stroke="#000000" stroke-width="1"/>
      <polyline fill="none" points="195,534 64,534" stroke="#000000" stroke-width="1"/>
      <polyline fill="none" points="64,514 110,514 110,222 103,222 103,266" stroke="#000000" stroke-width="1"/>
      <polyline fill="none" points="81,266 81,158" stroke="#000000" stroke-width="1"/>
      <polyline fill="none" points="103,158 103,199 110,199 110,166 107,166" stroke="#000000" stroke-width="1"/>
      <line stroke="#000000" stroke-width="1" x1="103" x2="81" y1="160" y2="160"/>
      <line stroke="#000000" stroke-width="1" x1="103" x2="81" y1="164" y2="164"/>
      <line stroke="#000000" stroke-width="1" x1="103" x2="81" y1="168" y2="168"/>
      <line stroke="#000000" stroke-width="1" x1="103" x2="81" y1="172" y2="172"/>
      <line stroke="#000000" stroke-width="1" x1="103" x2="81" y1="176" y2="176"/>
      <line stroke="#000000" stroke-width="1" x1="103" x2="81" y1="180" y2="180"/>
      <line stroke="#000000" stroke-width="1" x1="103" x2="81" y1="184" y2="184"/>
      <line stroke="#000000" stroke-width="1" x1="103" x2="81" y1="188" y2="188"/>
      <line stroke="#000000" stroke-width="1" x1="103" x2="81" y1="192" y2="192"/>
      <line stroke="#000000" stroke-width="1" x1="103" x2="81" y1="196" y2="196"/>
      <line stroke="#000000" stroke-width="1" x1="103" x2="81" y1="263" y2="263"/>
      <line stroke="#000000" stroke-width="1" x1="103" x2="81" y1="259" y2="259"/>
      <line stroke="#000000" stroke-width="1" x1="103" x2="81" y1="255" y2="255"/>
      <line stroke="#000000" stroke-width="1" x1="103" x2="81" y1="251" y2="251"/>
      <line stroke="#000000" stroke-width="1" x1="103" x2="81" y1="247" y2="247"/>
      <line stroke="#000000" stroke-width="1" x1="103" x2="81" y1="243" y2="243"/>
      <line stroke="#000000" stroke-width="1" x1="103" x2="81" y1="239" y2="239"/>
      <line stroke="#000000" stroke-width="1" x1="103" x2="81" y1="235" y2="235"/>
      <line stroke="#000000" stroke-width="1" x1="103" x2="81" y1="231" y2="231"/>
      <line stroke="#000000" stroke-width="1" x1="103" x2="81" y1="227" y2="227"/>
      <line stroke="#000000" stroke-width="1" x1="66" x2="66" y1="514" y2="534"/>
      <line stroke="#000000" stroke-width="1" x1="70" x2="70" y1="514" y2="534"/>
      <line stroke="#000000" stroke-width="1" x1="74" x2="74" y1="514" y2="534"/>
      <line stroke="#000000" stroke-width="1" x1="78" x2="78" y1="514" y2="534"/>
      <line stroke="#000000" stroke-width="1" x1="82" x2="82" y1="514" y2="534"/>
      <line stroke="#000000" stroke-width="1" x1="86" x2="86" y1="514" y2="534"/>
      <line stroke="#000000" stroke-width="1" x1="90" x2="90" y1="514" y2="534"/>
      <line stroke="#000000" stroke-width="1" x1="94" x2="94" y1="514" y2="534"/>
      <line stroke="#000000" stroke-width="1" x1="98" x2="98" y1="514" y2="534"/>
      <line stroke="#000000" stroke-width="1" x1="102" x2="102" y1="514" y2="534"/>
      <line stroke="#000000" stroke-width="1" x1="106" x2="106" y1="514" y2="534"/>
      <line stroke="#000000" stroke-width="1" x1="201" x2="201" y1="235" y2="250"/>
      <line stroke="#000000" stroke-width="1" x1="205" x2="205" y1="235" y2="250"/>
      <line stroke="#000000" stroke-width="1" x1="209" x2="209" y1="235" y2="250"/>
      <line stroke="#000000" stroke-width="1" x1="213" x2="213" y1="235" y2="250"/>
      <line stroke="#000000" stroke-width="1" x1="217" x2="217" y1="235" y2="250"/>
      <line stroke="#000000" stroke-width="1" x1="221" x2="221" y1="235" y2="250"/>
      <line stroke="#000000" stroke-width="1" x1="225" x2="225" y1="235" y2="250"/>
      <line stroke="#000000" stroke-width="1" x1="229" x2="229" y1="235" y2="250"/>
      <line stroke="#000000" stroke-width="1" x1="233" x2="233" y1="235" y2="250"/>
      <line stroke="#000000" stroke-width="1" x1="237" x2="237" y1="235" y2="250"/>
      <line stroke="#000000" stroke-width="1" x1="241" x2="241" y1="235" y2="250"/>
      <line stroke="#000000" stroke-width="1" x1="245" x2="245" y1="235" y2="250"/>
      <line stroke="#000000" stroke-width="1" x1="249" x2="249" y1="235" y2="250"/>
      <line stroke="#000000" stroke-width="1" x1="253" x2="253" y1="235" y2="250"/>
      <line stroke="#000000" stroke-width="1" x1="201" x2="201" y1="318" y2="303"/>
      <line stroke="#000000" stroke-width="1" x1="205" x2="205" y1="318" y2="303"/>
      <line stroke="#000000" stroke-width="1" x1="209" x2="209" y1="318" y2="303"/>
      <line stroke="#000000" stroke-width="1" x1="213" x2="213" y1="318" y2="303"/>
      <line stroke="#000000" stroke-width="1" x1="217" x2="217" y1="318" y2="303"/>
      <line stroke="#000000" stroke-width="1" x1="221" x2="221" y1="318" y2="303"/>
      <line stroke="#000000" stroke-width="1" x1="225" x2="225" y1="318" y2="303"/>
      <line stroke="#000000" stroke-width="1" x1="229" x2="229" y1="318" y2="303"/>
      <line stroke="#000000" stroke-width="1" x1="233" x2="233" y1="318" y2="303"/>
      <line stroke="#000000" stroke-width="1" x1="237" x2="237" y1="318" y2="303"/>
      <line stroke="#000000" stroke-width="1" x1="241" x2="241" y1="318" y2="303"/>
      <line stroke="#000000" stroke-width="1" x1="245" x2="245" y1="318" y2="303"/>
      <line stroke="#000000" stroke-width="1" x1="249" x2="249" y1="318" y2="303"/>
      <line stroke="#000000" stroke-width="1" x1="253" x2="253" y1="318" y2="303"/>
      <polygon fill="#d0d0d0" points="310,269 320,269 320,283 310,283" stroke="#000000" stroke-width="1"/>
      <polygon fill="#d0d0d0" points="166,258 166,295 170,295 170,258" stroke="#000000" stroke-width="1"/>
      <line stroke="#7f7f7f" stroke-width="1" x1="755" x2="755" y1="300" y2="253"/>
      <line stroke="#7f7f7f" stroke-width="1" x1="751" x2="751" y1="300" y2="253"/>
      <line stroke="#7f7f7f" stroke-width="1" x1="747" x2="747" y1="300" y2="253"/>
      <line stroke="#7f7f7f" stroke-width="1" x1="743" x2="743" y1="300" y2="253"/>
      <line stroke="#7f7f7f" stroke-width="1" x1="739" x2="739" y1="300" y2="253"/>
      <line stroke="#7f7f7f" stroke-width="1" x1="735" x2="735" y1="300" y2="253"/>
      <line stroke="#7f7f7f" stroke-width="1" x1="731" x2="731" y1="300" y2="253"/>
      <line stroke="#7f7f7f" stroke-width="1" x1="727" x2="727" y1="300" y2="253"/>
      <line stroke="#7f7f7f" stroke-width="1" x1="723" x2="723" y1="300" y2="253"/>
      <line stroke="#7f7f7f" stroke-width="1" x1="719" x2="719" y1="300" y2="253"/>
      <line stroke="#7f7f7f" stroke-width="1" x1="715" x2="715" y1="300" y2="253"/>
      <line stroke="#7f7f7f" stroke-width="1" x1="711" x2="711" y1="300" y2="253"/>
      <line stroke="#7f7f7f" stroke-width="1" x1="707" x2="707" y1="300" y2="253"/>
      <line stroke="#7f7f7f" stroke-width="1" x1="703" x2="703" y1="300" y2="253"/>
      <line stroke="#7f7f7f" stroke-width="1" x1="699" x2="699" y1="300" y2="253"/>
      <line stroke="#7f7f7f" stroke-width="1" x1="695" x2="695" y1="300" y2="253"/>
      <line stroke="#7f7f7f" stroke-width="1" x1="691" x2="691" y1="300" y2="253"/>
      <line stroke="#7f7f7f" stroke-width="1" x1="687" x2="687" y1="300" y2="253"/>
      <line stroke="#7f7f7f" stroke-width="1" x1="683" x2="683" y1="300" y2="253"/>
      <line stroke="#7f7f7f" stroke-width="1" x1="679" x2="679" y1="300" y2="253"/>
      <line stroke="#7f7f7f" stroke-width="1" x1="675" x2="675" y1="300" y2="253"/>
      <line stroke="#7f7f7f" stroke-width="1" x1="671" x2="671" y1="300" y2="253"/>
      <line stroke="#7f7f7f" stroke-width="1" x1="667" x2="667" y1="300" y2="253"/>
      <line stroke="#7f7f7f" stroke-width="1" x1="663" x2="663" y1="300" y2="253"/>
      <line stroke="#7f7f7f" stroke-width="1" x1="659" x2="659" y1="300" y2="253"/>
      <line stroke="#7f7f7f" stroke-width="1" x1="655" x2="655" y1="300" y2="253"/>
      <line stroke="#7f7f7f" stroke-width="1" x1="651" x2="651" y1="300" y2="253"/>
      <line stroke="#7f7f7f" stroke-width="1" x1="647" x2="647" y1="300" y2="253"/>
      <line stroke="#7f7f7f" stroke-width="1" x1="643" x2="643" y1="300" y2="253"/>
      <line stroke="#7f7f7f" stroke-width="1" x1="639" x2="639" y1="300" y2="253"/>
      <line stroke="#7f7f7f" stroke-width="1" x1="635" x2="635" y1="300" y2="253"/>
      <line stroke="#7f7f7f" stroke-width="1" x1="631" x2="631" y1="300" y2="253"/>
      <line stroke="#7f7f7f" stroke-width="1" x1="627" x2="627" y1="300" y2="253"/>
      <line stroke="#7f7f7f" stroke-width="1" x1="623" x2="623" y1="300" y2="253"/>
      <line stroke="#7f7f7f" stroke-width="1" x1="619" x2="619" y1="300" y2="253"/>
      <line stroke="#7f7f7f" stroke-width="1" x1="615" x2="615" y1="300" y2="253"/>
      <line stroke="#7f7f7f" stroke-width="1" x1="611" x2="611" y1="300" y2="253"/>
      <line stroke="#7f7f7f" stroke-width="1" x1="607" x2="607" y1="300" y2="253"/>
      <line stroke="#7f7f7f" stroke-width="1" x1="603" x2="603" y1="300" y2="253"/>
      <line stroke="#7f7f7f" stroke-width="1" x1="599" x2="599" y1="300" y2="253"/>
      <line stroke="#7f7f7f" stroke-width="1" x1="595" x2="595" y1="300" y2="253"/>
      <line stroke="#7f7f7f" stroke-width="1" x1="591" x2="591" y1="300" y2="253"/>
      <line stroke="#7f7f7f" stroke-width="1" x1="587" x2="587" y1="300" y2="253"/>
      <line stroke="#7f7f7f" stroke-width="1" x1="583" x2="583" y1="300" y2="253"/>
      <line stroke="#7f7f7f" stroke-width="1" x1="579" x2="579" y1="300" y2="253"/>
      <line stroke="#7f7f7f" stroke-width="1" x1="575" x2="575" y1="300" y2="253"/>
      <line stroke="#7f7f7f" stroke-width="1" x1="571" x2="571" y1="300" y2="253"/>
      <line stroke="#7f7f7f" stroke-width="1" x1="567" x2="567" y1="300" y2="253"/>
      <line stroke="#7f7f7f" stroke-width="1" x1="563" x2="563" y1="300" y2="253"/>
      <line stroke="#7f7f7f" stroke-width="1" x1="559" x2="559" y1="300" y2="253"/>
      <line stroke="#7f7f7f" stroke-width="1" x1="555" x2="555" y1="300" y2="253"/>
      <line stroke="#7f7f7f" stroke-width="1" x1="551" x2="551" y1="300" y2="253"/>
      <line stroke="#7f7f7f" stroke-width="1" x1="547" x2="547" y1="300" y2="253"/>
      <line stroke="#7f7f7f" stroke-width="1" x1="543" x2="543" y1="300" y2="253"/>
      <line stroke="#7f7f7f" stroke-width="1" x1="539" x2="539" y1="300" y2="253"/>
      <line stroke="#7f7f7f" stroke-width="1" x1="535" x2="535" y1="300" y2="253"/>
      <line stroke="#7f7f7f" stroke-width="1" x1="531" x2="531" y1="300" y2="253"/>
      <line stroke="#7f7f7f" stroke-width="1" x1="527" x2="527" y1="300" y2="253"/>
      <line stroke="#7f7f7f" stroke-width="1" x1="523" x2="523" y1="300" y2="253"/>
      <line stroke="#7f7f7f" stroke-width="1" x1="519" x2="519" y1="300" y2="253"/>
      <line stroke="#7f7f7f" stroke-width="1" x1="515" x2="515" y1="300" y2="253"/>
      <line stroke="#7f7f7f" stroke-width="1" x1="511" x2="511" y1="300" y2="253"/>
      <line stroke="#7f7f7f" stroke-width="1" x1="507" x2="507" y1="300" y2="253"/>
      <line stroke="#7f7f7f" stroke-width="1" x1="503" x2="503" y1="300" y2="253"/>
      <line stroke="#7f7f7f" stroke-width="1" x1="499" x2="499" y1="300" y2="253"/>
      <line stroke="#7f7f7f" stroke-width="1" x1="495" x2="495" y1="300" y2="253"/>
      <line stroke="#7f7f7f" stroke-width="1" x1="491" x2="491" y1="300" y2="253"/>
      <line stroke="#7f7f7f" stroke-width="1" x1="487" x2="487" y1="300" y2="253"/>
      <line stroke="#7f7f7f" stroke-width="1" x1="483" x2="483" y1="300" y2="253"/>
      <line stroke="#7f7f7f" stroke-width="1" x1="479" x2="479" y1="300" y2="253"/>
      <line stroke="#7f7f7f" stroke-width="1" x1="475" x2="475" y1="300" y2="253"/>
      <line stroke="#7f7f7f" stroke-width="1" x1="471" x2="471" y1="300" y2="253"/>
      <line stroke="#7f7f7f" stroke-width="1" x1="467" x2="467" y1="300" y2="253"/>
      <line stroke="#7f7f7f" stroke-width="1" x1="463" x2="463" y1="300" y2="253"/>
      <line stroke="#7f7f7f" stroke-width="1" x1="459" x2="459" y1="300" y2="253"/>
      <line stroke="#7f7f7f" stroke-width="1" x1="455" x2="455" y1="300" y2="253"/>
      <line stroke="#7f7f7f" stroke-width="1" x1="451" x2="451" y1="300" y2="253"/>
      <line stroke="#7f7f7f" stroke-width="1" x1="447" x2="447" y1="300" y2="253"/>
      <line stroke="#7f7f7f" stroke-width="1" x1="443" x2="443" y1="300" y2="253"/>
      <line stroke="#7f7f7f" stroke-width="1" x1="439" x2="439" y1="300" y2="253"/>
      <line stroke="#7f7f7f" stroke-width="1" x1="435" x2="435" y1="300" y2="253"/>
      <polygon fill="#9b5509" points="762,253 429,253 429,250 762,250" stroke="#000000" stroke-width="1"/>
      <polygon fill="#9b5509" points="762,261 762,266 429,266 429,261" stroke="#000000" stroke-width="1"/>
      <polygon fill="#9b5509" points="762,274 762,279 429,279 429,274" stroke="#000000" stroke-width="1"/>
      <polygon fill="#9b5509" points="762,287 762,292 429,292 429,287" stroke="#000000" stroke-width="1"/>
      <polygon fill="#9b5509" points="762,300 429,300 429,303 762,303" stroke="#000000" stroke-width="1"/>
      <line stroke="#7f7f7f" stroke-width="1" x1="251" x2="251" y1="300" y2="253"/>
      <line stroke="#7f7f7f" stroke-width="1" x1="247" x2="247" y1="300" y2="253"/>
      <line stroke="#7f7f7f" stroke-width="1" x1="243" x2="243" y1="300" y2="253"/>
      <line stroke="#7f7f7f" stroke-width="1" x1="239" x2="239" y1="300" y2="253"/>
      <line stroke="#7f7f7f" stroke-width="1" x1="235" x2="235" y1="300" y2="253"/>
      <line stroke="#7f7f7f" stroke-width="1" x1="231" x2="231" y1="300" y2="253"/>
      <line stroke="#7f7f7f" stroke-width="1" x1="227" x2="227" y1="300" y2="253"/>
      <line stroke="#7f7f7f" stroke-width="1" x1="223" x2="223" y1="300" y2="253"/>
      <line stroke="#7f7f7f" stroke-width="1" x1="219" x2="219" y1="300" y2="253"/>
      <line stroke="#7f7f7f" stroke-width="1" x1="215" x2="215" y1="300" y2="253"/>
      <line stroke="#7f7f7f" stroke-width="1" x1="211" x2="211" y1="300" y2="253"/>
      <line stroke="#7f7f7f" stroke-width="1" x1="207" x2="207" y1="300" y2="253"/>
      <polygon fill="#9b5509" points="258,253 200,253 200,250 258,250" stroke="#000000" stroke-width="1"/>
      <polygon fill="#9b5509" points="258,261 258,266 200,266 200,261" stroke="#000000" stroke-width="1"/>
      <polygon fill="#9b5509" points="258,274 258,279 200,279 200,274" stroke="#000000" stroke-width="1"/>
      <polygon fill="#9b5509" points="258,287 258,292 200,292 200,287" stroke="#000000" stroke-width="1"/>
      <polygon fill="#9b5509" points="258,300 200,300 200,303 258,303" stroke="#000000" stroke-width="1"/>
      <polygon fill="#ffffff" points="323,318 323,329 350,329 350,318" stroke="#000000" stroke-width="1"/>
      <text fill="#000000" font-family="Arial" font-size="10" stroke="none" stroke-width="0" x="325" y="327.0">кассы</text>
      <polyline fill="none" points="320,276 429,276" stroke="#000000" stroke-width="0.5"/>
      <polygon fill="none" points="361,310 367,310 367,316 361,316" stroke="#000000" stroke-width="1"/>
      <line stroke="#009900" stroke-width="1" x1="362" x2="366" y1="279" y2="279"/>
      <line stroke="#009900" stroke-width="1" x1="362" x2="366" y1="283" y2="283"/>
      <line stroke="#009900" stroke-width="1" x1="362" x2="366" y1="287" y2="287"/>
      <line stroke="#009900" stroke-width="1" x1="362" x2="366" y1="291" y2="291"/>
      <line stroke="#009900" stroke-width="1" x1="362" x2="366" y1="295" y2="295"/>
      <line stroke="#009900" stroke-width="1" x1="362" x2="366" y1="299" y2="299"/>
      <line stroke="#009900" stroke-width="1" x1="362" x2="366" y1="303" y2="303"/>
      <line stroke="#009900" stroke-width="1" x1="362" x2="366" y1="307" y2="307"/>
      <polyline fill="none" marker-end="url(#id90)" points="324,252 309,252" stroke="#ff0000" stroke-width="1"/>
      <polyline fill="none" marker-end="url(#id90)" points="179,246 164,246" stroke="#ff0000" stroke-width="1"/>
      <polyline fill="none" marker-end="url(#id90)" points="164,306 179,306" stroke="#009900" stroke-width="1"/>
      <polyline fill="none" marker-end="url(#id90)" points="310,300 325,300" stroke="#009900" stroke-width="1"/>
      <text fill="#00afaf" font-family="Arial" font-size="15" stroke="none" stroke-width="0" x="228" y="449.0">ул. Мельникова</text>
      <text fill="#00afaf" font-family="Arial" font-size="15" stroke="none" stroke-width="0" transform="rotate(-90.0,34,339)" x="34" y="354.0">ул. Елены Телиги</text>
    </g>
  </g>
</svg>
