<svg xmlns="http://www.w3.org/2000/svg" version="1.1">
<defs>
    <marker id="arrow"
      viewBox="0 0 10 10" refX="0" refY="5"
      markerUnits="strokeWidth"
      markerWidth="4" markerHeight="3"
      orient="auto">
      <path d="M 0 0 L 10 5 L 0 10 z" />
    </marker>
  </defs>
<g stroke="#000000" fill="none" stroke-opacity="1.0" fill-opacity="1.0" transform="scale(0.5)">
<rect x="0" y="0" width="754" height="700" stroke-width="0" fill="none" />
<g stroke="#000000" fill="none" stroke-opacity="1.0" fill-opacity="1.0" transform="scale(0.5)">
</g>
<g transform="rotate(-20.0 377 350)" >
<g stroke="#000000" fill="none" stroke-opacity="1.0" fill-opacity="1.0" transform="scale(0.5)">
</g>
<g stroke="#F5F5F5" fill="#F5F5F5" stroke-opacity="1.0" fill-opacity="1.0" transform="scale(0.5)">
<polygon points="305,326  305,-48  271,-61  271,326  -16,326  -36,380  767,380  787,326" stroke-width="1" />
</g>
<g stroke="#000000" fill="#F5F5F5" stroke-opacity="1.0" fill-opacity="1.0" transform="scale(0.5)">
<polyline points="638,577  641,577  641,381" stroke-width="1" fill="none"  />
<polyline points="617,381  617,577  620,577" stroke-width="1" fill="none"  />
<polyline points="638,272  641,272  641,325" stroke-width="1" fill="none"  />
<polyline points="617,325  617,272  620,272" stroke-width="1" fill="none"  />
</g>
<g stroke="#D0D0D0" fill="#F5F5F5" stroke-opacity="1.0" fill-opacity="1.0" transform="scale(0.5)">
<polyline points="617,327  617,379" stroke-width="1" fill="none"  />
<polyline points="641,327  641,379" stroke-width="1" fill="none"  />
</g>
<g stroke="#000000" fill="#CC3333" stroke-opacity="1.0" fill-opacity="1.0" transform="scale(0.5)">
<polygon points="63,439  63,409  513,409  513,439" stroke-width="1" />
<polygon points="63,519  63,549  513,549  513,519" stroke-width="1" />
</g>
<g stroke="#CC3333" fill="none" stroke-opacity="1.0" fill-opacity="1.0" transform="scale(0.5)">
<text x=" 63" y="405.0" font-family="Arial" font-size=" 20" fill="#CC3333" stroke-width="0">&lt;&lt; Днепр</text>
<text x=" 354" y="569.0" font-family="Arial" font-size=" 20" fill="#CC3333" stroke-width="0">Левобережная &gt;&gt;</text>
<text x=" 247" y="485.0" font-family="Arial" font-size=" 25" fill="#CC3333" stroke-width="0">Гидропарк</text>
</g>
<g stroke="#000000" fill="none" stroke-opacity="1.0" fill-opacity="1.0" transform="scale(0.5)">
<polyline points="63,439  63,452  156,452  156,457  43,457  43,381" stroke-width="1" fill="none"  />
<polyline points="1,315  -3,315  -3,325" stroke-width="1" fill="none"  />
<polyline points="-3,381  -3,577  1,577" stroke-width="1" fill="none"  />
<polyline points="43,325  43,315  39,315" stroke-width="1" fill="none"  />
<polyline points="39,577  43,577  43,501  156,501  156,506  63,506  63,519" stroke-width="1" fill="none"  />
<line x1="77" y1="501" x2="77" y2="457" stroke-width="1" />
<line x1="73" y1="501" x2="73" y2="457" stroke-width="1" />
<line x1="69" y1="501" x2="69" y2="457" stroke-width="1" />
<line x1="65" y1="501" x2="65" y2="457" stroke-width="1" />
<line x1="61" y1="501" x2="61" y2="457" stroke-width="1" />
<line x1="57" y1="501" x2="57" y2="457" stroke-width="1" />
<line x1="149" y1="457" x2="149" y2="501" stroke-width="1" />
<line x1="145" y1="457" x2="145" y2="501" stroke-width="1" />
<line x1="141" y1="457" x2="141" y2="501" stroke-width="1" />
<line x1="137" y1="457" x2="137" y2="501" stroke-width="1" />
<line x1="133" y1="457" x2="133" y2="501" stroke-width="1" />
<line x1="129" y1="457" x2="129" y2="501" stroke-width="1" />
</g>
<g stroke="#000000" fill="#D0D0D0" stroke-opacity="1.0" fill-opacity="1.0" transform="scale(0.5)">
<polygon points="43,477  52,477  52,481  43,481" stroke-width="1" />
<polygon points="81,457  81,468  113,468  113,457" stroke-width="1" />
</g>
<g stroke="#D0D0D0" fill="#D0D0D0" stroke-opacity="1.0" fill-opacity="1.0" transform="scale(0.5)">
<polyline points="-3,327  -3,379" stroke-width="1" fill="none"  />
<polyline points="43,327  43,379" stroke-width="1" fill="none"  />
</g>
<g stroke="#000000" fill="#FFFFFF" stroke-opacity="1.0" fill-opacity="1.0" transform="scale(0.5)">
<polygon points="84,460  84,468  110,468  110,460" stroke-width="1" />
</g>
<g stroke="#000000" fill="none" stroke-opacity="1.0" fill-opacity="1.0" transform="scale(0.5)">
<text x=" 85" y="467.0" font-family="Arial" font-size=" 10" fill="#000000" stroke-width="0">кассы</text>
</g>
<g stroke="#009900" fill="none" stroke-opacity="1.0" fill-opacity="1.0" transform="scale(0.5)">
<line x1="118" y1="481" x2="122" y2="481" stroke-width="1" />
<line x1="118" y1="485" x2="122" y2="485" stroke-width="1" />
<line x1="118" y1="489" x2="122" y2="489" stroke-width="1" />
<line x1="118" y1="493" x2="122" y2="493" stroke-width="1" />
<line x1="118" y1="497" x2="122" y2="497" stroke-width="1" />
</g>
<g stroke="#FF0000" fill="none" stroke-opacity="1.0" fill-opacity="1.0" transform="scale(0.5)">
<line x1="118" y1="461" x2="122" y2="461" stroke-width="1" />
<line x1="118" y1="465" x2="122" y2="465" stroke-width="1" />
<line x1="118" y1="469" x2="122" y2="469" stroke-width="1" />
<line x1="118" y1="473" x2="122" y2="473" stroke-width="1" />
<line x1="118" y1="477" x2="122" y2="477" stroke-width="1" />
</g>
<g stroke="#000000" fill="none" stroke-opacity="1.0" fill-opacity="1.0" transform="scale(0.5)">
<polyline points="513,439  513,452  421,452  421,457  529,457  529,447  580,447  580,272  460,272  460,174  538,174  566,202  612,202  612,648  587,648  587,645" stroke-width="1" fill="none"  />
<polyline points="569,645  569,648  566,648  538,676  525,676  525,673" stroke-width="1" fill="none"  />
<polyline points="507,673  507,676  504,676  484,696  460,696  460,615  394,615  394,577  580,577  580,513  529,513  529,501  421,501  421,506  513,506  513,519" stroke-width="1" fill="none"  />
<line x1="428" y1="501" x2="428" y2="457" stroke-width="1" />
<line x1="432" y1="501" x2="432" y2="457" stroke-width="1" />
<line x1="436" y1="501" x2="436" y2="457" stroke-width="1" />
<line x1="440" y1="501" x2="440" y2="457" stroke-width="1" />
<line x1="444" y1="501" x2="444" y2="457" stroke-width="1" />
<line x1="448" y1="501" x2="448" y2="457" stroke-width="1" />
<line x1="470" y1="457" x2="470" y2="501" stroke-width="1" />
<line x1="474" y1="457" x2="474" y2="501" stroke-width="1" />
<line x1="478" y1="457" x2="478" y2="501" stroke-width="1" />
<line x1="482" y1="457" x2="482" y2="501" stroke-width="1" />
<line x1="486" y1="457" x2="486" y2="501" stroke-width="1" />
<line x1="490" y1="457" x2="490" y2="501" stroke-width="1" />
</g>
<g stroke="#000000" fill="#FFFFFF" stroke-opacity="1.0" fill-opacity="1.0" transform="scale(0.5)">
<polygon points="551,513  551,521  577,521  577,513" stroke-width="1" />
</g>
<g stroke="#000000" fill="none" stroke-opacity="1.0" fill-opacity="1.0" transform="scale(0.5)">
<text x=" 552" y="520.0" font-family="Arial" font-size=" 10" fill="#000000" stroke-width="0">кассы</text>
<polyline points="536,475  536,484" stroke-width=" 0.5" fill="none"  />
</g>
<g stroke="#009900" fill="none" stroke-opacity="1.0" fill-opacity="1.0" transform="scale(0.5)">
<line x1="534" y1="485" x2="537" y2="484" stroke-width="1" />
<line x1="535.345345588" y1="488.766967646" x2="538.345345588" y2="487.766967646" stroke-width="1" />
<line x1="536.690691176" y1="492.533935293" x2="539.690691176" y2="491.533935293" stroke-width="1" />
<line x1="538.036036764" y1="496.300902939" x2="541.036036764" y2="495.300902939" stroke-width="1" />
<line x1="539.381382352" y1="500.067870586" x2="542.381382352" y2="499.067870586" stroke-width="1" />
<line x1="540.72672794" y1="503.834838232" x2="543.72672794" y2="502.834838232" stroke-width="1" />
<line x1="542.072073528" y1="507.601805878" x2="545.072073528" y2="506.601805878" stroke-width="1" />
<line x1="543.417419116" y1="511.368773525" x2="546.417419116" y2="510.368773525" stroke-width="1" />
</g>
<g stroke="#FF0000" fill="none" stroke-opacity="1.0" fill-opacity="1.0" transform="scale(0.5)">
<line x1="544" y1="448" x2="547" y2="449" stroke-width="1" />
<line x1="542.610742577" y1="451.750995043" x2="545.610742577" y2="452.750995043" stroke-width="1" />
<line x1="541.221485153" y1="455.501990086" x2="544.221485153" y2="456.501990086" stroke-width="1" />
<line x1="539.83222773" y1="459.252985129" x2="542.83222773" y2="460.252985129" stroke-width="1" />
<line x1="538.442970307" y1="463.003980172" x2="541.442970307" y2="464.003980172" stroke-width="1" />
<line x1="537.053712884" y1="466.754975214" x2="540.053712884" y2="467.754975214" stroke-width="1" />
<line x1="535.66445546" y1="470.505970257" x2="538.66445546" y2="471.505970257" stroke-width="1" />
<line x1="534.275198037" y1="474.2569653" x2="537.275198037" y2="475.2569653" stroke-width="1" />
</g>
<g stroke="#FF0000" fill="none" stroke-opacity="1.0" fill-opacity="1.0" transform="scale(0.5)">
<polyline points="579,635  579,654" marker-end="url(#arrow)" stroke-width="1" fill="none" />
</g>
<g stroke="#009900" fill="none" stroke-opacity="1.0" fill-opacity="1.0" transform="scale(0.5)">
<polyline points="516,679  516,660" marker-end="url(#arrow)" stroke-width="1" fill="none" />
</g>
<g stroke="#00AFAF" fill="none" stroke-opacity="1.0" fill-opacity="1.0" transform="scale(0.5)">
<text x=" 451" y="87.0" font-family="Arial" font-size=" 15" fill="#00AFAF" stroke-width="0">'Парк "Киев в миниатюре" &gt;&gt;'</text>
</g>
<g stroke="#FFD0D0" fill="#FFD0D0" stroke-opacity="0.7" fill-opacity="0.7" transform="scale(0.5)">
<polygon points="458,172  614,172  614,445  578,445  578,274  458,274" stroke-width="1" />
</g>
<g stroke="#FF4040" fill="none" stroke-opacity="1.0" fill-opacity="1.0" transform="scale(0.5)">
<text x=" 507" y="239.0" font-family="Arial" font-size=" 15" fill="#FF4040" stroke-width="0">закрыто</text>
<polyline points="458,172  614,172  614,445  578,445  578,274  458,274  458,172" stroke-width="1" fill="none" stroke-dasharray="5,2" />
</g>
</g>
</g>
</svg>
