<?xml version="1.0" encoding="utf-8" ?>
<svg baseProfile="full" height="100%" version="1.1" width="100%" xmlns="http://www.w3.org/2000/svg" xmlns:ev="http://www.w3.org/2001/xml-events" xmlns:xlink="http://www.w3.org/1999/xlink">
  <defs>
    <marker id="id97" markerHeight="3" markerUnits="strokeWidth" markerWidth="4" orient="auto" refX="0" refY="5" viewBox="0,0,10,10">
      <path d="M 0 0 L 10 5 L 0 10 z"/>
    </marker>
  </defs>
  <g>
    <rect fill="none" height="670" stroke="none" stroke-width="0" width="760" x="0" y="0"/>
    <g transform="rotate(-45.0,380,335)">
      <polygon fill="#333399" points="190,338 190,368 640,368 640,338" stroke="#000000" stroke-width="1"/>
      <polygon fill="#333399" points="190,258 190,228 640,228 640,258" stroke="#000000" stroke-width="1"/>
      <text fill="#333399" font-family="Arial" font-size="25" stroke="none" stroke-width="0" x="278" y="307.0">Ипподром</text>
      <text fill="#333399" font-family="Arial" font-size="20" stroke="none" stroke-width="0" x="190" y="225.0">&lt;&lt; Теремки</text>
      <text fill="#333399" font-family="Arial" font-size="20" stroke="none" stroke-width="0" x="446" y="388.0">Выставочный центр &gt;&gt;</text>
    </g>
    <g fill="none" fill-opacity="0.85" stroke="#333399" stroke-opacity="0.85" transform="rotate(-45.0,380,335)">
      <polygon fill="#ffffff" points="188,341 403,341 403,335 421,335 421,341 642,341 642,365 188,365" stroke="#ffffff" stroke-width="1"/>
    </g>
    <g fill="#ffffff" fill-opacity="1.0" stroke="#ffffff" stroke-opacity="1.0" transform="rotate(-45.0,380,335)">
      <text fill="#000000" font-family="Arial" font-size="10" stroke="none" stroke-width="0" x="267" y="358.0">балкон</text>
      <polygon fill="#d0efff" points="404,286 419,286 419,301 404,301" stroke="#000000" stroke-width="1"/>
      <text fill="#000000" font-family="Arial" font-size="6" stroke="none" stroke-width="0" transform="rotate(90.0,416,287)" x="416" y="293.0">лифт</text>
      <polyline fill="none" points="640,258 640,267 661,267 661,228 729,228 729,278 762,278 762,409 812,409" stroke="#000000" stroke-width="1"/>
      <polyline fill="none" points="640,338 640,329 661,329 661,341 421,341 421,319 475,319" stroke="#000000" stroke-width="1"/>
      <polyline fill="none" points="475,301 419,301" stroke="#000000" stroke-width="1"/>
      <polyline fill="none" points="661,365 661,368 729,368 729,317 744,317 744,427 812,427" stroke="#000000" stroke-width="1"/>
      <polyline fill="none" points="640,267 612,267" stroke="#000000" stroke-width="1"/>
      <polyline fill="none" points="640,329 612,329" stroke="#000000" stroke-width="1"/>
      <line stroke="#000000" stroke-width="1" x1="658" x2="658" y1="267" y2="329"/>
      <line stroke="#000000" stroke-width="1" x1="654" x2="654" y1="267" y2="329"/>
      <line stroke="#000000" stroke-width="1" x1="650" x2="650" y1="267" y2="329"/>
      <line stroke="#000000" stroke-width="1" x1="646" x2="646" y1="267" y2="329"/>
      <line stroke="#000000" stroke-width="1" x1="642" x2="642" y1="267" y2="329"/>
      <line stroke="#000000" stroke-width="1" x1="638" x2="638" y1="267" y2="329"/>
      <line stroke="#000000" stroke-width="1" x1="634" x2="634" y1="267" y2="329"/>
      <line stroke="#000000" stroke-width="1" x1="630" x2="630" y1="267" y2="329"/>
      <line stroke="#000000" stroke-width="1" x1="626" x2="626" y1="267" y2="329"/>
      <line stroke="#000000" stroke-width="1" x1="622" x2="622" y1="267" y2="329"/>
      <line stroke="#000000" stroke-width="1" x1="618" x2="618" y1="267" y2="329"/>
      <line stroke="#000000" stroke-width="1" x1="614" x2="614" y1="267" y2="329"/>
      <line stroke="#000000" stroke-width="1" x1="810" x2="810" y1="409" y2="427"/>
      <line stroke="#000000" stroke-width="1" x1="806" x2="806" y1="409" y2="427"/>
      <line stroke="#000000" stroke-width="1" x1="802" x2="802" y1="409" y2="427"/>
      <line stroke="#000000" stroke-width="1" x1="798" x2="798" y1="409" y2="427"/>
      <line stroke="#000000" stroke-width="1" x1="794" x2="794" y1="409" y2="427"/>
      <line stroke="#000000" stroke-width="1" x1="790" x2="790" y1="409" y2="427"/>
      <line stroke="#000000" stroke-width="1" x1="786" x2="786" y1="409" y2="427"/>
      <line stroke="#000000" stroke-width="1" x1="782" x2="782" y1="409" y2="427"/>
      <line stroke="#000000" stroke-width="1" x1="778" x2="778" y1="409" y2="427"/>
      <line stroke="#000000" stroke-width="1" x1="774" x2="774" y1="409" y2="427"/>
      <line stroke="#000000" stroke-width="1" x1="770" x2="770" y1="409" y2="427"/>
      <line stroke="#000000" stroke-width="1" x1="766" x2="766" y1="409" y2="427"/>
      <line stroke="#000000" stroke-width="1" x1="473" x2="473" y1="319" y2="301"/>
      <line stroke="#000000" stroke-width="1" x1="469" x2="469" y1="319" y2="301"/>
      <line stroke="#000000" stroke-width="1" x1="465" x2="465" y1="319" y2="301"/>
      <line stroke="#000000" stroke-width="1" x1="461" x2="461" y1="319" y2="301"/>
      <line stroke="#000000" stroke-width="1" x1="457" x2="457" y1="319" y2="301"/>
      <line stroke="#000000" stroke-width="1" x1="453" x2="453" y1="319" y2="301"/>
      <line stroke="#000000" stroke-width="1" x1="449" x2="449" y1="319" y2="301"/>
      <line stroke="#000000" stroke-width="1" x1="445" x2="445" y1="319" y2="301"/>
      <line stroke="#000000" stroke-width="1" x1="441" x2="441" y1="319" y2="301"/>
      <line stroke="#000000" stroke-width="1" x1="437" x2="437" y1="319" y2="301"/>
      <line stroke="#000000" stroke-width="1" x1="433" x2="433" y1="319" y2="301"/>
      <line stroke="#000000" stroke-width="1" x1="429" x2="429" y1="319" y2="301"/>
      <polyline fill="none" points="701,368 701,329" stroke="#000000" stroke-width="0.5"/>
      <polyline fill="none" points="700,244 700,228" stroke="#000000" stroke-width="0.5"/>
      <polygon fill="none" points="704,273 697,273 697,280 704,280" stroke="#000000" stroke-width="1"/>
      <line stroke="#009900" stroke-width="1" x1="703" x2="698" y1="329" y2="329"/>
      <line stroke="#009900" stroke-width="1" x1="703" x2="698" y1="325" y2="325"/>
      <line stroke="#009900" stroke-width="1" x1="703" x2="698" y1="321" y2="321"/>
      <line stroke="#009900" stroke-width="1" x1="703" x2="698" y1="317" y2="317"/>
      <line stroke="#009900" stroke-width="1" x1="703" x2="698" y1="313" y2="313"/>
      <line stroke="#009900" stroke-width="1" x1="703" x2="698" y1="309" y2="309"/>
      <line stroke="#009900" stroke-width="1" x1="703" x2="698" y1="305" y2="305"/>
      <line stroke="#009900" stroke-width="1" x1="703" x2="698" y1="301" y2="301"/>
      <line stroke="#009900" stroke-width="1" x1="703" x2="698" y1="297" y2="297"/>
      <line stroke="#009900" stroke-width="1" x1="703" x2="698" y1="293" y2="293"/>
      <line stroke="#009900" stroke-width="1" x1="703" x2="698" y1="289" y2="289"/>
      <line stroke="#009900" stroke-width="1" x1="703" x2="698" y1="285" y2="285"/>
      <line stroke="#ff0000" stroke-width="1" x1="703" x2="698" y1="268" y2="268"/>
      <line stroke="#ff0000" stroke-width="1" x1="703" x2="698" y1="264" y2="264"/>
      <line stroke="#ff0000" stroke-width="1" x1="703" x2="698" y1="260" y2="260"/>
      <line stroke="#ff0000" stroke-width="1" x1="703" x2="698" y1="256" y2="256"/>
      <line stroke="#ff0000" stroke-width="1" x1="703" x2="698" y1="252" y2="252"/>
      <line stroke="#ff0000" stroke-width="1" x1="703" x2="698" y1="248" y2="248"/>
      <line stroke="#ff0000" stroke-width="1" x1="703" x2="698" y1="244" y2="244"/>
      <polygon fill="#ffffff" points="729,358 737,358 737,332 729,332" stroke="#000000" stroke-width="1"/>
      <text fill="#000000" font-family="Arial" font-size="10" stroke="none" stroke-width="0" transform="rotate(90.0,740,333)" x="740" y="343.0">кассы</text>
      <polyline fill="none" marker-end="url(#id97)" points="732,299 714,299" stroke="#009900" stroke-width="1"/>
      <polyline fill="none" marker-end="url(#id97)" points="688,258 712,258" stroke="#ff0000" stroke-width="1"/>
      <polyline fill="none" points="190,338 190,329 169,329 169,341 403,341 403,301 404,301" stroke="#000000" stroke-width="1"/>
      <polyline fill="none" points="661,365 169,365 169,368 89,368 89,435 17,435" stroke="#000000" stroke-width="1"/>
      <polyline fill="none" points="190,258 190,267 169,267 169,228 86,228 86,169 18,169" stroke="#000000" stroke-width="1"/>
      <polygon fill="#d0d0d0" points="101,331 101,265 89,265 89,331" stroke="#000000" stroke-width="1"/>
      <polyline fill="none" points="190,329 218,329" stroke="#000000" stroke-width="1"/>
      <polyline fill="none" points="190,267 218,267" stroke="#000000" stroke-width="1"/>
      <line stroke="#000000" stroke-width="1" x1="172" x2="172" y1="329" y2="267"/>
      <line stroke="#000000" stroke-width="1" x1="176" x2="176" y1="329" y2="267"/>
      <line stroke="#000000" stroke-width="1" x1="180" x2="180" y1="329" y2="267"/>
      <line stroke="#000000" stroke-width="1" x1="184" x2="184" y1="329" y2="267"/>
      <line stroke="#000000" stroke-width="1" x1="188" x2="188" y1="329" y2="267"/>
      <line stroke="#000000" stroke-width="1" x1="192" x2="192" y1="329" y2="267"/>
      <line stroke="#000000" stroke-width="1" x1="196" x2="196" y1="329" y2="267"/>
      <line stroke="#000000" stroke-width="1" x1="200" x2="200" y1="329" y2="267"/>
      <line stroke="#000000" stroke-width="1" x1="204" x2="204" y1="329" y2="267"/>
      <line stroke="#000000" stroke-width="1" x1="208" x2="208" y1="329" y2="267"/>
      <line stroke="#000000" stroke-width="1" x1="212" x2="212" y1="329" y2="267"/>
      <line stroke="#000000" stroke-width="1" x1="216" x2="216" y1="329" y2="267"/>
      <polyline fill="none" points="17,417 68,417 68,184 18,184" stroke="#000000" stroke-width="1"/>
      <line stroke="#000000" stroke-width="1" x1="19" x2="19" y1="417" y2="435"/>
      <line stroke="#000000" stroke-width="1" x1="23" x2="23" y1="417" y2="435"/>
      <line stroke="#000000" stroke-width="1" x1="27" x2="27" y1="417" y2="435"/>
      <line stroke="#000000" stroke-width="1" x1="31" x2="31" y1="417" y2="435"/>
      <line stroke="#000000" stroke-width="1" x1="35" x2="35" y1="417" y2="435"/>
      <line stroke="#000000" stroke-width="1" x1="39" x2="39" y1="417" y2="435"/>
      <line stroke="#000000" stroke-width="1" x1="43" x2="43" y1="417" y2="435"/>
      <line stroke="#000000" stroke-width="1" x1="47" x2="47" y1="417" y2="435"/>
      <line stroke="#000000" stroke-width="1" x1="51" x2="51" y1="417" y2="435"/>
      <line stroke="#000000" stroke-width="1" x1="55" x2="55" y1="417" y2="435"/>
      <line stroke="#000000" stroke-width="1" x1="59" x2="59" y1="417" y2="435"/>
      <line stroke="#000000" stroke-width="1" x1="63" x2="63" y1="417" y2="435"/>
      <line stroke="#000000" stroke-width="1" x1="20" x2="20" y1="184" y2="169"/>
      <line stroke="#000000" stroke-width="1" x1="24" x2="24" y1="184" y2="169"/>
      <line stroke="#000000" stroke-width="1" x1="28" x2="28" y1="184" y2="169"/>
      <line stroke="#000000" stroke-width="1" x1="32" x2="32" y1="184" y2="169"/>
      <line stroke="#000000" stroke-width="1" x1="36" x2="36" y1="184" y2="169"/>
      <line stroke="#000000" stroke-width="1" x1="40" x2="40" y1="184" y2="169"/>
      <line stroke="#000000" stroke-width="1" x1="44" x2="44" y1="184" y2="169"/>
      <line stroke="#000000" stroke-width="1" x1="48" x2="48" y1="184" y2="169"/>
      <line stroke="#000000" stroke-width="1" x1="52" x2="52" y1="184" y2="169"/>
      <line stroke="#000000" stroke-width="1" x1="56" x2="56" y1="184" y2="169"/>
      <line stroke="#000000" stroke-width="1" x1="60" x2="60" y1="184" y2="169"/>
      <line stroke="#000000" stroke-width="1" x1="64" x2="64" y1="184" y2="169"/>
      <polyline fill="none" points="133,329 169,329" stroke="#000000" stroke-width="0.5"/>
      <polygon fill="none" points="129,276 136,276 136,269 129,269" stroke="#000000" stroke-width="1"/>
      <line stroke="#009900" stroke-width="1" x1="130" x2="135" y1="279" y2="279"/>
      <line stroke="#009900" stroke-width="1" x1="130" x2="135" y1="283" y2="283"/>
      <line stroke="#009900" stroke-width="1" x1="130" x2="135" y1="287" y2="287"/>
      <line stroke="#009900" stroke-width="1" x1="130" x2="135" y1="291" y2="291"/>
      <line stroke="#009900" stroke-width="1" x1="130" x2="135" y1="295" y2="295"/>
      <line stroke="#009900" stroke-width="1" x1="130" x2="135" y1="299" y2="299"/>
      <line stroke="#009900" stroke-width="1" x1="130" x2="135" y1="303" y2="303"/>
      <line stroke="#009900" stroke-width="1" x1="130" x2="135" y1="307" y2="307"/>
      <line stroke="#009900" stroke-width="1" x1="130" x2="135" y1="311" y2="311"/>
      <line stroke="#009900" stroke-width="1" x1="130" x2="135" y1="315" y2="315"/>
      <line stroke="#009900" stroke-width="1" x1="130" x2="135" y1="319" y2="319"/>
      <line stroke="#009900" stroke-width="1" x1="130" x2="135" y1="323" y2="323"/>
      <line stroke="#009900" stroke-width="1" x1="130" x2="135" y1="327" y2="327"/>
      <line stroke="#ff0000" stroke-width="1" x1="130" x2="135" y1="232" y2="232"/>
      <line stroke="#ff0000" stroke-width="1" x1="130" x2="135" y1="236" y2="236"/>
      <line stroke="#ff0000" stroke-width="1" x1="130" x2="135" y1="240" y2="240"/>
      <line stroke="#ff0000" stroke-width="1" x1="130" x2="135" y1="244" y2="244"/>
      <line stroke="#ff0000" stroke-width="1" x1="130" x2="135" y1="248" y2="248"/>
      <line stroke="#ff0000" stroke-width="1" x1="130" x2="135" y1="252" y2="252"/>
      <line stroke="#ff0000" stroke-width="1" x1="130" x2="135" y1="256" y2="256"/>
      <line stroke="#ff0000" stroke-width="1" x1="130" x2="135" y1="260" y2="260"/>
      <line stroke="#ff0000" stroke-width="1" x1="130" x2="135" y1="264" y2="264"/>
      <polyline fill="none" points="101,267 129,267" stroke="#000000" stroke-width="0.5"/>
      <polygon fill="#ffffff" points="101,285 93,285 93,311 101,311" stroke="#000000" stroke-width="1"/>
      <text fill="#000000" font-family="Arial" font-size="10" stroke="none" stroke-width="0" transform="rotate(90.0,104,286)" x="104" y="296.0">кассы</text>
      <polyline fill="none" marker-end="url(#id97)" points="93,350 112,337" stroke="#009900" stroke-width="1"/>
      <polyline fill="none" marker-end="url(#id97)" points="110,247 86,247" stroke="#ff0000" stroke-width="1"/>
      <text fill="#00afaf" font-family="Arial" font-size="15" stroke="none" stroke-width="0" x="304" y="158.0">проспект Академика Глушкова</text>
      <text fill="#00afaf" font-family="Arial" font-size="15" stroke="none" stroke-width="0" transform="rotate(90.0,405,-51)" x="405" y="-36.0">улица Василия Касияна</text>
    </g>
  </g>
</svg>
