<svg xmlns="http://www.w3.org/2000/svg" version="1.1">
<defs>
    <marker id="arrow"
      viewBox="0 0 10 10" refX="0" refY="5"
      markerUnits="strokeWidth"
      markerWidth="4" markerHeight="3"
      orient="auto">
      <path d="M 0 0 L 10 5 L 0 10 z" />
    </marker>
  </defs>
<g stroke="#000000" fill="none" stroke-opacity="1.0" fill-opacity="1.0" transform="scale(0.5)">
<rect x="0" y="0" width="900" height="780" stroke-width="0" fill="none" />
<g stroke="#000000" fill="none" stroke-opacity="1.0" fill-opacity="1.0" transform="scale(0.5)">
</g>
<g transform="rotate(-15.0 450 390)" >
<g stroke="#000000" fill="none" stroke-opacity="1.0" fill-opacity="1.0" transform="scale(0.5)">
</g>
<g stroke="#000000" fill="#339933" stroke-opacity="1.0" fill-opacity="1.0" transform="scale(0.5)">
<polygon points="248,475  248,505  698,505  698,475" stroke-width="1" />
<polygon points="248,395  248,365  698,365  698,395" stroke-width="1" />
</g>
<g stroke="#339933" fill="none" stroke-opacity="1.0" fill-opacity="1.0" transform="scale(0.5)">
<text x=" 250" y="361.0" font-family="Arial" font-size=" 20" fill="#339933" stroke-width="0">&lt;&lt; Позняки</text>
<text x=" 593" y="525.0" font-family="Arial" font-size=" 20" fill="#339933" stroke-width="0">Вырлица &gt;&gt;</text>
<text x=" 391" y="441.0" font-family="Arial" font-size=" 25" fill="#339933" stroke-width="0">Харьковская</text>
</g>
<g stroke="#000000" fill="none" stroke-opacity="1.0" fill-opacity="1.0" transform="scale(0.5)">
<polyline points="185,309  117,309  117,368  197,368  197,410  248,410  248,395" stroke-width="1" fill="none"  />
<polyline points="248,415  197,415" stroke-width="1" fill="none"  />
<polyline points="-50,568  52,670" stroke-width="1" fill="none"  />
<polyline points="248,475  248,460  197,460  197,503  117,503  117,519  24,612  67,655" stroke-width="1" fill="none"  />
<polyline points="-35,553  8,596  95,509  95,288  185,288" stroke-width="1" fill="none"  />
<line x1="200" y1="415" x2="200" y2="460" stroke-width="1" />
<line x1="204" y1="415" x2="204" y2="460" stroke-width="1" />
<line x1="208" y1="415" x2="208" y2="460" stroke-width="1" />
<line x1="212" y1="415" x2="212" y2="460" stroke-width="1" />
<line x1="216" y1="415" x2="216" y2="460" stroke-width="1" />
<line x1="220" y1="415" x2="220" y2="460" stroke-width="1" />
<line x1="224" y1="415" x2="224" y2="460" stroke-width="1" />
<line x1="228" y1="415" x2="228" y2="460" stroke-width="1" />
<line x1="232" y1="415" x2="232" y2="460" stroke-width="1" />
<line x1="236" y1="415" x2="236" y2="460" stroke-width="1" />
<line x1="240" y1="415" x2="240" y2="460" stroke-width="1" />
<line x1="244" y1="415" x2="244" y2="460" stroke-width="1" />
<line x1="183" y1="309" x2="183" y2="288" stroke-width="1" />
<line x1="179" y1="309" x2="179" y2="288" stroke-width="1" />
<line x1="175" y1="309" x2="175" y2="288" stroke-width="1" />
<line x1="171" y1="309" x2="171" y2="288" stroke-width="1" />
<line x1="167" y1="309" x2="167" y2="288" stroke-width="1" />
<line x1="163" y1="309" x2="163" y2="288" stroke-width="1" />
<line x1="159" y1="309" x2="159" y2="288" stroke-width="1" />
<line x1="155" y1="309" x2="155" y2="288" stroke-width="1" />
<line x1="151" y1="309" x2="151" y2="288" stroke-width="1" />
<line x1="147" y1="309" x2="147" y2="288" stroke-width="1" />
<line x1="143" y1="309" x2="143" y2="288" stroke-width="1" />
<line x1="139" y1="309" x2="139" y2="288" stroke-width="1" />
<line x1="66" y1="654" x2="51" y2="669" stroke-width="1" />
<line x1="63.1715728753" y1="651.171572875" x2="48.1715728753" y2="666.171572875" stroke-width="1" />
<line x1="60.3431457505" y1="648.343145751" x2="45.3431457505" y2="663.343145751" stroke-width="1" />
<line x1="57.5147186258" y1="645.514718626" x2="42.5147186258" y2="660.514718626" stroke-width="1" />
<line x1="54.686291501" y1="642.686291501" x2="39.686291501" y2="657.686291501" stroke-width="1" />
<line x1="51.8578643763" y1="639.857864376" x2="36.8578643763" y2="654.857864376" stroke-width="1" />
<line x1="49.0294372515" y1="637.029437252" x2="34.0294372515" y2="652.029437252" stroke-width="1" />
<line x1="46.2010101268" y1="634.201010127" x2="31.2010101268" y2="649.201010127" stroke-width="1" />
<line x1="43.372583002" y1="631.372583002" x2="28.372583002" y2="646.372583002" stroke-width="1" />
<line x1="40.5441558773" y1="628.544155877" x2="25.5441558773" y2="643.544155877" stroke-width="1" />
<line x1="37.7157287525" y1="625.715728753" x2="22.7157287525" y2="640.715728753" stroke-width="1" />
<line x1="34.8873016278" y1="622.887301628" x2="19.8873016278" y2="637.887301628" stroke-width="1" />
<line x1="-34" y1="554" x2="-49" y2="569" stroke-width="1" />
<line x1="-31.1715728753" y1="556.828427125" x2="-46.1715728753" y2="571.828427125" stroke-width="1" />
<line x1="-28.3431457505" y1="559.656854249" x2="-43.3431457505" y2="574.656854249" stroke-width="1" />
<line x1="-25.5147186258" y1="562.485281374" x2="-40.5147186258" y2="577.485281374" stroke-width="1" />
<line x1="-22.686291501" y1="565.313708499" x2="-37.686291501" y2="580.313708499" stroke-width="1" />
<line x1="-19.8578643763" y1="568.142135624" x2="-34.8578643763" y2="583.142135624" stroke-width="1" />
<line x1="-17.0294372515" y1="570.970562748" x2="-32.0294372515" y2="585.970562748" stroke-width="1" />
<line x1="-14.2010101268" y1="573.798989873" x2="-29.2010101268" y2="588.798989873" stroke-width="1" />
<line x1="-11.372583002" y1="576.627416998" x2="-26.372583002" y2="591.627416998" stroke-width="1" />
<line x1="-8.54415587728" y1="579.455844123" x2="-23.5441558773" y2="594.455844123" stroke-width="1" />
<line x1="-5.71572875254" y1="582.284271247" x2="-20.7157287525" y2="597.284271247" stroke-width="1" />
<line x1="-2.88730162779" y1="585.112698372" x2="-17.8873016278" y2="600.112698372" stroke-width="1" />
</g>
<g stroke="#000000" fill="#D0D0D0" stroke-opacity="1.0" fill-opacity="1.0" transform="scale(0.5)">
<polygon points="124,421  117,421  117,449  124,449" stroke-width="1" />
</g>
<g stroke="#000000" fill="none" stroke-opacity="1.0" fill-opacity="1.0" transform="scale(0.5)">
<polyline points="197,371  205,371  205,397  197,397" stroke-width="1" fill="none"  />
<text x=" 208" y="382.0" font-family="Arial" font-size=" 10" fill="#000000" transform="rotate(90.0  208  372)" stroke-width="0">кассы</text>
</g>
<g stroke="#000000" fill="none" stroke-opacity="1.0" fill-opacity="1.0" transform="scale(0.5)">
<polygon points="183,398  179,396  177,400  181,402" stroke-width="1" />
<polyline points="150,436  148,439  148,453" stroke-width=" 0.5" fill="none"  />
<polyline points="185,399  195,399" stroke-width=" 0.5" fill="none"  />
</g>
<g stroke="#009900" fill="none" stroke-opacity="1.0" fill-opacity="1.0" transform="scale(0.5)">
<line x1="152" y1="436" x2="149" y2="434" stroke-width="1" />
<line x1="154.579483757" y1="432.942834066" x2="151.579483757" y2="430.942834066" stroke-width="1" />
<line x1="157.158967514" y1="429.885668132" x2="154.158967514" y2="427.885668132" stroke-width="1" />
<line x1="159.738451271" y1="426.828502198" x2="156.738451271" y2="424.828502198" stroke-width="1" />
<line x1="162.317935027" y1="423.771336264" x2="159.317935027" y2="421.771336264" stroke-width="1" />
<line x1="164.897418784" y1="420.71417033" x2="161.897418784" y2="418.71417033" stroke-width="1" />
<line x1="167.476902541" y1="417.657004396" x2="164.476902541" y2="415.657004396" stroke-width="1" />
<line x1="170.056386298" y1="414.599838462" x2="167.056386298" y2="412.599838462" stroke-width="1" />
<line x1="172.635870055" y1="411.542672528" x2="169.635870055" y2="409.542672528" stroke-width="1" />
<line x1="175.215353812" y1="408.485506594" x2="172.215353812" y2="406.485506594" stroke-width="1" />
<line x1="177.794837568" y1="405.42834066" x2="174.794837568" y2="403.42834066" stroke-width="1" />
</g>
<g stroke="#FF0000" fill="none" stroke-opacity="1.0" fill-opacity="1.0" transform="scale(0.5)">
<line x1="146" y1="499" x2="150" y2="499" stroke-width="1" />
<line x1="146" y1="495" x2="150" y2="495" stroke-width="1" />
<line x1="146" y1="491" x2="150" y2="491" stroke-width="1" />
<line x1="146" y1="487" x2="150" y2="487" stroke-width="1" />
<line x1="146" y1="483" x2="150" y2="483" stroke-width="1" />
<line x1="146" y1="479" x2="150" y2="479" stroke-width="1" />
<line x1="146" y1="475" x2="150" y2="475" stroke-width="1" />
<line x1="146" y1="471" x2="150" y2="471" stroke-width="1" />
<line x1="146" y1="467" x2="150" y2="467" stroke-width="1" />
<line x1="146" y1="463" x2="150" y2="463" stroke-width="1" />
<line x1="146" y1="459" x2="150" y2="459" stroke-width="1" />
<line x1="146" y1="455" x2="150" y2="455" stroke-width="1" />
</g>
<g stroke="#FF0000" fill="none" stroke-opacity="1.0" fill-opacity="1.0" transform="scale(0.5)">
<polyline points="128,474  114,474" marker-end="url(#arrow)" stroke-width="1" fill="none" />
</g>
<g stroke="#009900" fill="none" stroke-opacity="1.0" fill-opacity="1.0" transform="scale(0.5)">
<polyline points="116,394  130,394" marker-end="url(#arrow)" stroke-width="1" fill="none" />
</g>
<g stroke="#000000" fill="none" stroke-opacity="1.0" fill-opacity="1.0" transform="scale(0.5)">
<line x1="746" y1="415" x2="746" y2="460" stroke-width="1" />
<line x1="742" y1="415" x2="742" y2="460" stroke-width="1" />
<line x1="738" y1="415" x2="738" y2="460" stroke-width="1" />
<line x1="734" y1="415" x2="734" y2="460" stroke-width="1" />
<line x1="730" y1="415" x2="730" y2="460" stroke-width="1" />
<line x1="726" y1="415" x2="726" y2="460" stroke-width="1" />
<line x1="722" y1="415" x2="722" y2="460" stroke-width="1" />
<line x1="718" y1="415" x2="718" y2="460" stroke-width="1" />
<line x1="714" y1="415" x2="714" y2="460" stroke-width="1" />
<line x1="710" y1="415" x2="710" y2="460" stroke-width="1" />
<line x1="706" y1="415" x2="706" y2="460" stroke-width="1" />
<line x1="702" y1="415" x2="702" y2="460" stroke-width="1" />
<polyline points="923,121  760,121" stroke-width="1" fill="none"  />
<polyline points="698,415  748,415" stroke-width="1" fill="none"  />
<polyline points="760,309  828,309  828,368  748,368  748,410  698,410  698,395" stroke-width="1" fill="none"  />
<polyline points="698,475  698,460  748,460  748,502  855,502  855,309  923,309" stroke-width="1" fill="none"  />
<polyline points="923,288  855,288  855,142  923,142" stroke-width="1" fill="none"  />
<polyline points="760,142  828,142  828,288  760,288" stroke-width="1" fill="none"  />
<line x1="921" y1="142" x2="921" y2="121" stroke-width="1" />
<line x1="917" y1="142" x2="917" y2="121" stroke-width="1" />
<line x1="913" y1="142" x2="913" y2="121" stroke-width="1" />
<line x1="909" y1="142" x2="909" y2="121" stroke-width="1" />
<line x1="905" y1="142" x2="905" y2="121" stroke-width="1" />
<line x1="901" y1="142" x2="901" y2="121" stroke-width="1" />
<line x1="897" y1="142" x2="897" y2="121" stroke-width="1" />
<line x1="893" y1="142" x2="893" y2="121" stroke-width="1" />
<line x1="889" y1="142" x2="889" y2="121" stroke-width="1" />
<line x1="885" y1="142" x2="885" y2="121" stroke-width="1" />
<line x1="881" y1="142" x2="881" y2="121" stroke-width="1" />
<line x1="877" y1="142" x2="877" y2="121" stroke-width="1" />
<line x1="762" y1="142" x2="762" y2="121" stroke-width="1" />
<line x1="766" y1="142" x2="766" y2="121" stroke-width="1" />
<line x1="770" y1="142" x2="770" y2="121" stroke-width="1" />
<line x1="774" y1="142" x2="774" y2="121" stroke-width="1" />
<line x1="778" y1="142" x2="778" y2="121" stroke-width="1" />
<line x1="782" y1="142" x2="782" y2="121" stroke-width="1" />
<line x1="786" y1="142" x2="786" y2="121" stroke-width="1" />
<line x1="790" y1="142" x2="790" y2="121" stroke-width="1" />
<line x1="794" y1="142" x2="794" y2="121" stroke-width="1" />
<line x1="798" y1="142" x2="798" y2="121" stroke-width="1" />
<line x1="802" y1="142" x2="802" y2="121" stroke-width="1" />
<line x1="806" y1="142" x2="806" y2="121" stroke-width="1" />
<line x1="762" y1="309" x2="762" y2="288" stroke-width="1" />
<line x1="766" y1="309" x2="766" y2="288" stroke-width="1" />
<line x1="770" y1="309" x2="770" y2="288" stroke-width="1" />
<line x1="774" y1="309" x2="774" y2="288" stroke-width="1" />
<line x1="778" y1="309" x2="778" y2="288" stroke-width="1" />
<line x1="782" y1="309" x2="782" y2="288" stroke-width="1" />
<line x1="786" y1="309" x2="786" y2="288" stroke-width="1" />
<line x1="790" y1="309" x2="790" y2="288" stroke-width="1" />
<line x1="794" y1="309" x2="794" y2="288" stroke-width="1" />
<line x1="798" y1="309" x2="798" y2="288" stroke-width="1" />
<line x1="802" y1="309" x2="802" y2="288" stroke-width="1" />
<line x1="806" y1="309" x2="806" y2="288" stroke-width="1" />
<line x1="921" y1="309" x2="921" y2="288" stroke-width="1" />
<line x1="917" y1="309" x2="917" y2="288" stroke-width="1" />
<line x1="913" y1="309" x2="913" y2="288" stroke-width="1" />
<line x1="909" y1="309" x2="909" y2="288" stroke-width="1" />
<line x1="905" y1="309" x2="905" y2="288" stroke-width="1" />
<line x1="901" y1="309" x2="901" y2="288" stroke-width="1" />
<line x1="897" y1="309" x2="897" y2="288" stroke-width="1" />
<line x1="893" y1="309" x2="893" y2="288" stroke-width="1" />
<line x1="889" y1="309" x2="889" y2="288" stroke-width="1" />
<line x1="885" y1="309" x2="885" y2="288" stroke-width="1" />
<line x1="881" y1="309" x2="881" y2="288" stroke-width="1" />
<line x1="877" y1="309" x2="877" y2="288" stroke-width="1" />
</g>
<g stroke="#000000" fill="#D0D0D0" stroke-opacity="1.0" fill-opacity="1.0" transform="scale(0.5)">
<polygon points="821,421  828,421  828,449  821,449" stroke-width="1" />
</g>
<g stroke="#000000" fill="none" stroke-opacity="1.0" fill-opacity="1.0" transform="scale(0.5)">
<polyline points="748,371  740,371  740,397  748,397" stroke-width="1" fill="none"  />
<text x=" 751" y="382.0" font-family="Arial" font-size=" 10" fill="#000000" transform="rotate(90.0  751  372)" stroke-width="0">кассы</text>
</g>
<g stroke="#000000" fill="none" stroke-opacity="1.0" fill-opacity="1.0" transform="scale(0.5)">
<polygon points="762,398  766,396  768,400  764,402" stroke-width="1" />
<polyline points="795,436  797,439  797,452" stroke-width=" 0.5" fill="none"  />
<polyline points="760,399  750,399" stroke-width=" 0.5" fill="none"  />
</g>
<g stroke="#009900" fill="none" stroke-opacity="1.0" fill-opacity="1.0" transform="scale(0.5)">
<line x1="793" y1="436" x2="796" y2="434" stroke-width="1" />
<line x1="790.420516243" y1="432.942834066" x2="793.420516243" y2="430.942834066" stroke-width="1" />
<line x1="787.841032486" y1="429.885668132" x2="790.841032486" y2="427.885668132" stroke-width="1" />
<line x1="785.261548729" y1="426.828502198" x2="788.261548729" y2="424.828502198" stroke-width="1" />
<line x1="782.682064973" y1="423.771336264" x2="785.682064973" y2="421.771336264" stroke-width="1" />
<line x1="780.102581216" y1="420.71417033" x2="783.102581216" y2="418.71417033" stroke-width="1" />
<line x1="777.523097459" y1="417.657004396" x2="780.523097459" y2="415.657004396" stroke-width="1" />
<line x1="774.943613702" y1="414.599838462" x2="777.943613702" y2="412.599838462" stroke-width="1" />
<line x1="772.364129945" y1="411.542672528" x2="775.364129945" y2="409.542672528" stroke-width="1" />
<line x1="769.784646188" y1="408.485506594" x2="772.784646188" y2="406.485506594" stroke-width="1" />
<line x1="767.205162432" y1="405.42834066" x2="770.205162432" y2="403.42834066" stroke-width="1" />
</g>
<g stroke="#FF0000" fill="none" stroke-opacity="1.0" fill-opacity="1.0" transform="scale(0.5)">
<line x1="799" y1="498" x2="795" y2="498" stroke-width="1" />
<line x1="799" y1="494" x2="795" y2="494" stroke-width="1" />
<line x1="799" y1="490" x2="795" y2="490" stroke-width="1" />
<line x1="799" y1="486" x2="795" y2="486" stroke-width="1" />
<line x1="799" y1="482" x2="795" y2="482" stroke-width="1" />
<line x1="799" y1="478" x2="795" y2="478" stroke-width="1" />
<line x1="799" y1="474" x2="795" y2="474" stroke-width="1" />
<line x1="799" y1="470" x2="795" y2="470" stroke-width="1" />
<line x1="799" y1="466" x2="795" y2="466" stroke-width="1" />
<line x1="799" y1="462" x2="795" y2="462" stroke-width="1" />
<line x1="799" y1="458" x2="795" y2="458" stroke-width="1" />
<line x1="799" y1="454" x2="795" y2="454" stroke-width="1" />
</g>
<g stroke="#FF0000" fill="none" stroke-opacity="1.0" fill-opacity="1.0" transform="scale(0.5)">
<polyline points="817,474  831,474" marker-end="url(#arrow)" stroke-width="1" fill="none" />
</g>
<g stroke="#009900" fill="none" stroke-opacity="1.0" fill-opacity="1.0" transform="scale(0.5)">
<polyline points="829,394  815,394" marker-end="url(#arrow)" stroke-width="1" fill="none" />
</g>
<g stroke="#00AFAF" fill="none" stroke-opacity="1.0" fill-opacity="1.0" transform="scale(0.5)">
<text x=" 233" y="190.0" font-family="Arial" font-size=" 15" fill="#00AFAF" stroke-width="0">проспект Николая Бажана</text>
<text x=" 513" y="97.0" font-family="Arial" font-size=" 15" fill="#00AFAF" transform="rotate(90.0  513  82)" stroke-width="0">улица Ревуцкого</text>
</g>
</g>
</g>
</svg>
