<?xml version="1.0" encoding="utf-8" ?>
<svg baseProfile="full" height="670.0" version="1.1" width="1100.0" xmlns="http://www.w3.org/2000/svg" xmlns:ev="http://www.w3.org/2001/xml-events" xmlns:xlink="http://www.w3.org/1999/xlink">
  <defs>
    <marker id="id102" markerHeight="3" markerUnits="strokeWidth" markerWidth="4" orient="auto" refX="0" refY="5" viewBox="0,0,10,10">
      <path d="M 0 0 L 10 5 L 0 10 z"/>
    </marker>
  </defs>
  <g>
    <rect fill="none" height="670.0" stroke="none" stroke-width="0" width="1100.0" x="0.0" y="0.0"/>
    <g transform="rotate(-30.0,550.0,335.0)">
      <polygon fill="#339933" points="356.0,346.0 356.0,316.0 806.0,316.0 806.0,346.0" stroke="#000000" stroke-width="1"/>
      <polygon fill="#339933" points="356.0,349.0 356.0,379.0 806.0,379.0 806.0,349.0" stroke="#000000" stroke-width="1"/>
      <polyline fill="none" points="476.0,282.0 688.0,282.0" stroke="#000000" stroke-width="1"/>
      <polyline fill="none" points="476.0,413.0 688.0,413.0" stroke="#000000" stroke-width="1"/>
      <line stroke="#000000" stroke-width="1" x1="458.0" x2="458.0" y1="282.0" y2="264.0"/>
      <line stroke="#000000" stroke-width="1" x1="454.0" x2="454.0" y1="282.0" y2="264.0"/>
      <line stroke="#000000" stroke-width="1" x1="450.0" x2="450.0" y1="282.0" y2="264.0"/>
      <line stroke="#000000" stroke-width="1" x1="446.0" x2="446.0" y1="282.0" y2="264.0"/>
      <line stroke="#000000" stroke-width="1" x1="442.0" x2="442.0" y1="282.0" y2="264.0"/>
      <line stroke="#000000" stroke-width="1" x1="438.0" x2="438.0" y1="282.0" y2="264.0"/>
      <line stroke="#000000" stroke-width="1" x1="434.0" x2="434.0" y1="282.0" y2="264.0"/>
      <line stroke="#000000" stroke-width="1" x1="430.0" x2="430.0" y1="282.0" y2="264.0"/>
      <line stroke="#000000" stroke-width="1" x1="426.0" x2="426.0" y1="282.0" y2="264.0"/>
      <line stroke="#000000" stroke-width="1" x1="422.0" x2="422.0" y1="282.0" y2="264.0"/>
      <line stroke="#000000" stroke-width="1" x1="418.0" x2="418.0" y1="282.0" y2="264.0"/>
      <line stroke="#000000" stroke-width="1" x1="414.0" x2="414.0" y1="282.0" y2="264.0"/>
      <line stroke="#000000" stroke-width="1" x1="458.0" x2="458.0" y1="413.0" y2="431.0"/>
      <line stroke="#000000" stroke-width="1" x1="454.0" x2="454.0" y1="413.0" y2="431.0"/>
      <line stroke="#000000" stroke-width="1" x1="450.0" x2="450.0" y1="413.0" y2="431.0"/>
      <line stroke="#000000" stroke-width="1" x1="446.0" x2="446.0" y1="413.0" y2="431.0"/>
      <line stroke="#000000" stroke-width="1" x1="442.0" x2="442.0" y1="413.0" y2="431.0"/>
      <line stroke="#000000" stroke-width="1" x1="438.0" x2="438.0" y1="413.0" y2="431.0"/>
      <line stroke="#000000" stroke-width="1" x1="434.0" x2="434.0" y1="413.0" y2="431.0"/>
      <line stroke="#000000" stroke-width="1" x1="430.0" x2="430.0" y1="413.0" y2="431.0"/>
      <line stroke="#000000" stroke-width="1" x1="426.0" x2="426.0" y1="413.0" y2="431.0"/>
      <line stroke="#000000" stroke-width="1" x1="422.0" x2="422.0" y1="413.0" y2="431.0"/>
      <line stroke="#000000" stroke-width="1" x1="418.0" x2="418.0" y1="413.0" y2="431.0"/>
      <line stroke="#000000" stroke-width="1" x1="414.0" x2="414.0" y1="413.0" y2="431.0"/>
      <line stroke="#000000" stroke-width="1" x1="706.0" x2="706.0" y1="282.0" y2="260.0"/>
      <line stroke="#000000" stroke-width="1" x1="710.0" x2="710.0" y1="282.0" y2="260.0"/>
      <line stroke="#000000" stroke-width="1" x1="714.0" x2="714.0" y1="282.0" y2="260.0"/>
      <line stroke="#000000" stroke-width="1" x1="718.0" x2="718.0" y1="282.0" y2="260.0"/>
      <line stroke="#000000" stroke-width="1" x1="722.0" x2="722.0" y1="282.0" y2="260.0"/>
      <line stroke="#000000" stroke-width="1" x1="726.0" x2="726.0" y1="282.0" y2="260.0"/>
      <line stroke="#000000" stroke-width="1" x1="730.0" x2="730.0" y1="282.0" y2="260.0"/>
      <line stroke="#000000" stroke-width="1" x1="734.0" x2="734.0" y1="282.0" y2="260.0"/>
      <line stroke="#000000" stroke-width="1" x1="738.0" x2="738.0" y1="282.0" y2="260.0"/>
      <line stroke="#000000" stroke-width="1" x1="742.0" x2="742.0" y1="282.0" y2="260.0"/>
      <line stroke="#000000" stroke-width="1" x1="746.0" x2="746.0" y1="282.0" y2="260.0"/>
      <line stroke="#000000" stroke-width="1" x1="750.0" x2="750.0" y1="282.0" y2="260.0"/>
      <line stroke="#000000" stroke-width="1" x1="706.0" x2="706.0" y1="417.0" y2="435.0"/>
      <line stroke="#000000" stroke-width="1" x1="710.0" x2="710.0" y1="417.0" y2="435.0"/>
      <line stroke="#000000" stroke-width="1" x1="714.0" x2="714.0" y1="417.0" y2="435.0"/>
      <line stroke="#000000" stroke-width="1" x1="718.0" x2="718.0" y1="417.0" y2="435.0"/>
      <line stroke="#000000" stroke-width="1" x1="722.0" x2="722.0" y1="417.0" y2="435.0"/>
      <line stroke="#000000" stroke-width="1" x1="726.0" x2="726.0" y1="417.0" y2="435.0"/>
      <line stroke="#000000" stroke-width="1" x1="730.0" x2="730.0" y1="417.0" y2="435.0"/>
      <line stroke="#000000" stroke-width="1" x1="734.0" x2="734.0" y1="417.0" y2="435.0"/>
      <line stroke="#000000" stroke-width="1" x1="738.0" x2="738.0" y1="417.0" y2="435.0"/>
      <line stroke="#000000" stroke-width="1" x1="742.0" x2="742.0" y1="417.0" y2="435.0"/>
      <line stroke="#000000" stroke-width="1" x1="746.0" x2="746.0" y1="417.0" y2="435.0"/>
      <line stroke="#000000" stroke-width="1" x1="750.0" x2="750.0" y1="417.0" y2="435.0"/>
      <text fill="#000000" font-family="Arial" font-size="20.0" stroke="none" stroke-width="0" x="357.0" y="332.0">&lt;&lt; Бориспольская</text>
      <text fill="#000000" font-family="Arial" font-size="20.0" stroke="none" stroke-width="0" x="732.0" y="379.0">тупик &gt;&gt;</text>
      <text fill="#000000" font-family="Arial" font-size="25.0" stroke="none" stroke-width="0" x="498.0" y="357.0">Красный хутор</text>
      <text fill="#ffffff" font-family="Arial" font-size="20.0" stroke="none" stroke-width="0" x="356.0" y="331.0">&lt;&lt; Бориспольская</text>
      <text fill="#ffffff" font-family="Arial" font-size="20.0" stroke="none" stroke-width="0" x="731.0" y="378.0">тупик &gt;&gt;</text>
      <text fill="#ffffff" font-family="Arial" font-size="25.0" stroke="none" stroke-width="0" x="497.0" y="356.0">Красный хутор</text>
      <polyline fill="none" points="247.0,499.0 247.0,501.0 324.0,501.0" stroke="#000000" stroke-width="1"/>
      <polyline fill="none" points="264.0,49.0 282.0,99.0 164.0,142.0 146.0,93.0" stroke="#000000" stroke-width="1"/>
      <polyline fill="none" points="129.0,99.0 147.0,149.0 128.0,156.0 136.0,178.0 247.0,137.0 247.0,484.0" stroke="#000000" stroke-width="1"/>
      <polyline fill="none" points="281.0,43.0 312.0,128.0 274.0,142.0 274.0,281.0 338.0,281.0 338.0,264.0 476.0,264.0 476.0,282.0" stroke="#000000" stroke-width="1"/>
      <polyline fill="none" points="476.0,413.0 476.0,431.0 338.0,431.0 338.0,415.0 274.0,415.0 274.0,483.0 324.0,483.0" stroke="#000000" stroke-width="1"/>
      <line stroke="#000000" stroke-width="1" x1="322.0" x2="322.0" y1="483.0" y2="501.0"/>
      <line stroke="#000000" stroke-width="1" x1="318.0" x2="318.0" y1="483.0" y2="501.0"/>
      <line stroke="#000000" stroke-width="1" x1="314.0" x2="314.0" y1="483.0" y2="501.0"/>
      <line stroke="#000000" stroke-width="1" x1="310.0" x2="310.0" y1="483.0" y2="501.0"/>
      <line stroke="#000000" stroke-width="1" x1="306.0" x2="306.0" y1="483.0" y2="501.0"/>
      <line stroke="#000000" stroke-width="1" x1="302.0" x2="302.0" y1="483.0" y2="501.0"/>
      <line stroke="#000000" stroke-width="1" x1="298.0" x2="298.0" y1="483.0" y2="501.0"/>
      <line stroke="#000000" stroke-width="1" x1="294.0" x2="294.0" y1="483.0" y2="501.0"/>
      <line stroke="#000000" stroke-width="1" x1="290.0" x2="290.0" y1="483.0" y2="501.0"/>
      <line stroke="#000000" stroke-width="1" x1="286.0" x2="286.0" y1="483.0" y2="501.0"/>
      <line stroke="#000000" stroke-width="1" x1="282.0" x2="282.0" y1="483.0" y2="501.0"/>
      <line stroke="#000000" stroke-width="1" x1="278.0" x2="278.0" y1="483.0" y2="501.0"/>
      <line stroke="#000000" stroke-width="1" x1="265.0" x2="282.0" y1="51.0" y2="45.0"/>
      <line stroke="#000000" stroke-width="1" x1="266.3400386706192" x2="283.3400386706192" y1="54.76885876111656" y2="48.76885876111656"/>
      <line stroke="#000000" stroke-width="1" x1="267.6800773412384" x2="284.6800773412384" y1="58.53771752223312" y2="52.53771752223312"/>
      <line stroke="#000000" stroke-width="1" x1="269.0201160118576" x2="286.0201160118576" y1="62.306576283349685" y2="56.306576283349685"/>
      <line stroke="#000000" stroke-width="1" x1="270.36015468247683" x2="287.36015468247683" y1="66.07543504446625" y2="60.075435044466246"/>
      <line stroke="#000000" stroke-width="1" x1="271.70019335309604" x2="288.70019335309604" y1="69.84429380558281" y2="63.84429380558281"/>
      <line stroke="#000000" stroke-width="1" x1="273.04023202371525" x2="290.04023202371525" y1="73.61315256669937" y2="67.61315256669937"/>
      <line stroke="#000000" stroke-width="1" x1="274.38027069433446" x2="291.38027069433446" y1="77.38201132781593" y2="71.38201132781593"/>
      <line stroke="#000000" stroke-width="1" x1="275.72030936495366" x2="292.72030936495366" y1="81.15087008893249" y2="75.15087008893249"/>
      <line stroke="#000000" stroke-width="1" x1="277.0603480355729" x2="294.0603480355729" y1="84.91972885004905" y2="78.91972885004905"/>
      <line stroke="#000000" stroke-width="1" x1="278.4003867061921" x2="295.4003867061921" y1="88.68858761116562" y2="82.68858761116562"/>
      <line stroke="#000000" stroke-width="1" x1="279.7404253768113" x2="296.7404253768113" y1="92.45744637228218" y2="86.45744637228218"/>
      <line stroke="#000000" stroke-width="1" x1="147.0" x2="130.0" y1="95.0" y2="101.0"/>
      <line stroke="#000000" stroke-width="1" x1="148.3669722523468" x2="131.3669722523468" y1="98.75917369395376" y2="104.75917369395376"/>
      <line stroke="#000000" stroke-width="1" x1="149.73394450469362" x2="132.73394450469362" y1="102.51834738790751" y2="108.51834738790751"/>
      <line stroke="#000000" stroke-width="1" x1="151.10091675704044" x2="134.10091675704044" y1="106.27752108186127" y2="112.27752108186127"/>
      <line stroke="#000000" stroke-width="1" x1="152.46788900938725" x2="135.46788900938725" y1="110.03669477581502" y2="116.03669477581502"/>
      <line stroke="#000000" stroke-width="1" x1="153.83486126173406" x2="136.83486126173406" y1="113.79586846976878" y2="119.79586846976878"/>
      <line stroke="#000000" stroke-width="1" x1="155.20183351408087" x2="138.20183351408087" y1="117.55504216372253" y2="123.55504216372253"/>
      <line stroke="#000000" stroke-width="1" x1="156.5688057664277" x2="139.5688057664277" y1="121.31421585767629" y2="127.31421585767629"/>
      <line stroke="#000000" stroke-width="1" x1="157.9357780187745" x2="140.9357780187745" y1="125.07338955163004" y2="131.07338955163004"/>
      <line stroke="#000000" stroke-width="1" x1="159.3027502711213" x2="142.3027502711213" y1="128.8325632455838" y2="134.8325632455838"/>
      <line stroke="#000000" stroke-width="1" x1="160.66972252346812" x2="143.66972252346812" y1="132.59173693953755" y2="138.59173693953755"/>
      <line stroke="#000000" stroke-width="1" x1="162.03669477581494" x2="145.03669477581494" y1="136.3509106334913" y2="142.3509106334913"/>
      <polygon fill="#d0d0d0" points="281.0,334.0 274.0,334.0 274.0,362.0 281.0,362.0" stroke="#000000" stroke-width="1"/>
      <polygon fill="#d0d0d0" points="460.0,278.0 460.0,282.0 356.0,282.0 356.0,413.0 460.0,413.0 460.0,417.0 352.0,417.0 352.0,278.0" stroke="#000000" stroke-width="1"/>
      <polygon fill="#d0efff" points="232.0,484.0 247.0,484.0 247.0,499.0 232.0,499.0" stroke="#000000" stroke-width="1"/>
      <text fill="#000000" font-family="Arial" font-size="6.0" stroke="none" stroke-width="0" transform="rotate(-270.0,244.0,485.0)" x="244.0" y="491.0">лифт</text>
      <polygon fill="#d0efff" points="296.0,134.0 310.0,129.0 315.0,143.0 301.0,148.0" stroke="#000000" stroke-width="1"/>
      <text fill="#000000" font-family="Arial" font-size="6.0" stroke="none" stroke-width="0" transform="rotate(-20.0,298.0,137.0)" x="298.0" y="143.0">лифт</text>
      <polygon fill="#d0efff" points="144.0,175.0 158.0,170.0 163.0,184.0 149.0,189.0" stroke="#000000" stroke-width="1"/>
      <text fill="#000000" font-family="Arial" font-size="6.0" stroke="none" stroke-width="0" transform="rotate(-20.0,146.0,178.0)" x="146.0" y="184.0">лифт</text>
      <polyline fill="none" points="286.0,281.0 286.0,274.0 313.0,274.0 313.0,281.0" stroke="#000000" stroke-width="1"/>
      <text fill="#000000" font-family="Arial" font-size="10.0" stroke="none" stroke-width="0" x="287.0" y="281.0">кассы</text>
      <polygon fill="none" points="321.0,341.0 315.0,341.0 315.0,347.0 321.0,347.0" stroke="#000000" stroke-width="1"/>
      <polyline fill="none" points="318.0,347.0 318.0,367.0" stroke="#000000" stroke-width="0.5"/>
      <line stroke="#009900" stroke-width="1" x1="320.0" x2="316.0" y1="337.0" y2="337.0"/>
      <line stroke="#009900" stroke-width="1" x1="320.0" x2="316.0" y1="333.0" y2="333.0"/>
      <line stroke="#009900" stroke-width="1" x1="320.0" x2="316.0" y1="329.0" y2="329.0"/>
      <line stroke="#009900" stroke-width="1" x1="320.0" x2="316.0" y1="325.0" y2="325.0"/>
      <line stroke="#009900" stroke-width="1" x1="320.0" x2="316.0" y1="321.0" y2="321.0"/>
      <line stroke="#009900" stroke-width="1" x1="320.0" x2="316.0" y1="317.0" y2="317.0"/>
      <line stroke="#009900" stroke-width="1" x1="320.0" x2="316.0" y1="313.0" y2="313.0"/>
      <line stroke="#009900" stroke-width="1" x1="320.0" x2="316.0" y1="309.0" y2="309.0"/>
      <line stroke="#009900" stroke-width="1" x1="320.0" x2="316.0" y1="305.0" y2="305.0"/>
      <line stroke="#009900" stroke-width="1" x1="320.0" x2="316.0" y1="301.0" y2="301.0"/>
      <line stroke="#009900" stroke-width="1" x1="320.0" x2="316.0" y1="297.0" y2="297.0"/>
      <line stroke="#009900" stroke-width="1" x1="320.0" x2="316.0" y1="293.0" y2="293.0"/>
      <line stroke="#009900" stroke-width="1" x1="320.0" x2="316.0" y1="289.0" y2="289.0"/>
      <line stroke="#009900" stroke-width="1" x1="320.0" x2="316.0" y1="285.0" y2="285.0"/>
      <line stroke="#ff0000" stroke-width="1" x1="316.0" x2="320.0" y1="411.0" y2="411.0"/>
      <line stroke="#ff0000" stroke-width="1" x1="316.0" x2="320.0" y1="407.0" y2="407.0"/>
      <line stroke="#ff0000" stroke-width="1" x1="316.0" x2="320.0" y1="403.0" y2="403.0"/>
      <line stroke="#ff0000" stroke-width="1" x1="316.0" x2="320.0" y1="399.0" y2="399.0"/>
      <line stroke="#ff0000" stroke-width="1" x1="316.0" x2="320.0" y1="395.0" y2="395.0"/>
      <line stroke="#ff0000" stroke-width="1" x1="316.0" x2="320.0" y1="391.0" y2="391.0"/>
      <line stroke="#ff0000" stroke-width="1" x1="316.0" x2="320.0" y1="387.0" y2="387.0"/>
      <line stroke="#ff0000" stroke-width="1" x1="316.0" x2="320.0" y1="383.0" y2="383.0"/>
      <line stroke="#ff0000" stroke-width="1" x1="316.0" x2="320.0" y1="379.0" y2="379.0"/>
      <line stroke="#ff0000" stroke-width="1" x1="316.0" x2="320.0" y1="375.0" y2="375.0"/>
      <line stroke="#ff0000" stroke-width="1" x1="316.0" x2="320.0" y1="371.0" y2="371.0"/>
      <line stroke="#ff0000" stroke-width="1" x1="316.0" x2="320.0" y1="367.0" y2="367.0"/>
      <polyline fill="none" marker-end="url(#id102)" points="285.0,387.0 271.0,387.0" stroke="#ff0000" stroke-width="1"/>
      <polyline fill="none" marker-end="url(#id102)" points="273.0,307.0 287.0,307.0" stroke="#009900" stroke-width="1"/>
      <polyline fill="none" points="688.0,282.0 688.0,260.0 828.0,260.0 828.0,282.0 899.0,282.0 899.0,215.0 849.0,215.0" stroke="#000000" stroke-width="1"/>
      <polyline fill="none" points="688.0,413.0 688.0,435.0 828.0,435.0 828.0,413.0 899.0,413.0 899.0,483.0 849.0,483.0" stroke="#000000" stroke-width="1"/>
      <polyline fill="none" points="849.0,501.0 929.0,501.0 929.0,499.0" stroke="#000000" stroke-width="1"/>
      <polyline fill="none" points="929.0,484.0 929.0,214.0" stroke="#000000" stroke-width="1"/>
      <polyline fill="none" points="929.0,199.0 929.0,197.0 849.0,197.0" stroke="#000000" stroke-width="1"/>
      <line stroke="#000000" stroke-width="1" x1="851.0" x2="851.0" y1="215.0" y2="197.0"/>
      <line stroke="#000000" stroke-width="1" x1="855.0" x2="855.0" y1="215.0" y2="197.0"/>
      <line stroke="#000000" stroke-width="1" x1="859.0" x2="859.0" y1="215.0" y2="197.0"/>
      <line stroke="#000000" stroke-width="1" x1="863.0" x2="863.0" y1="215.0" y2="197.0"/>
      <line stroke="#000000" stroke-width="1" x1="867.0" x2="867.0" y1="215.0" y2="197.0"/>
      <line stroke="#000000" stroke-width="1" x1="871.0" x2="871.0" y1="215.0" y2="197.0"/>
      <line stroke="#000000" stroke-width="1" x1="875.0" x2="875.0" y1="215.0" y2="197.0"/>
      <line stroke="#000000" stroke-width="1" x1="879.0" x2="879.0" y1="215.0" y2="197.0"/>
      <line stroke="#000000" stroke-width="1" x1="883.0" x2="883.0" y1="215.0" y2="197.0"/>
      <line stroke="#000000" stroke-width="1" x1="887.0" x2="887.0" y1="215.0" y2="197.0"/>
      <line stroke="#000000" stroke-width="1" x1="891.0" x2="891.0" y1="215.0" y2="197.0"/>
      <line stroke="#000000" stroke-width="1" x1="895.0" x2="895.0" y1="215.0" y2="197.0"/>
      <line stroke="#000000" stroke-width="1" x1="851.0" x2="851.0" y1="483.0" y2="501.0"/>
      <line stroke="#000000" stroke-width="1" x1="855.0" x2="855.0" y1="483.0" y2="501.0"/>
      <line stroke="#000000" stroke-width="1" x1="859.0" x2="859.0" y1="483.0" y2="501.0"/>
      <line stroke="#000000" stroke-width="1" x1="863.0" x2="863.0" y1="483.0" y2="501.0"/>
      <line stroke="#000000" stroke-width="1" x1="867.0" x2="867.0" y1="483.0" y2="501.0"/>
      <line stroke="#000000" stroke-width="1" x1="871.0" x2="871.0" y1="483.0" y2="501.0"/>
      <line stroke="#000000" stroke-width="1" x1="875.0" x2="875.0" y1="483.0" y2="501.0"/>
      <line stroke="#000000" stroke-width="1" x1="879.0" x2="879.0" y1="483.0" y2="501.0"/>
      <line stroke="#000000" stroke-width="1" x1="883.0" x2="883.0" y1="483.0" y2="501.0"/>
      <line stroke="#000000" stroke-width="1" x1="887.0" x2="887.0" y1="483.0" y2="501.0"/>
      <line stroke="#000000" stroke-width="1" x1="891.0" x2="891.0" y1="483.0" y2="501.0"/>
      <line stroke="#000000" stroke-width="1" x1="895.0" x2="895.0" y1="483.0" y2="501.0"/>
      <polygon fill="#d0d0d0" points="892.0,333.0 899.0,333.0 899.0,361.0 892.0,361.0" stroke="#000000" stroke-width="1"/>
      <polygon fill="#d0d0d0" points="704.0,282.0 704.0,278.0 810.0,278.0 810.0,417.0 704.0,417.0 704.0,413.0 806.0,413.0 806.0,282.0" stroke="#000000" stroke-width="1"/>
      <polyline fill="none" points="887.0,282.0 887.0,275.0 860.0,275.0 860.0,282.0" stroke="#000000" stroke-width="1"/>
      <text fill="#000000" font-family="Arial" font-size="10.0" stroke="none" stroke-width="0" x="862.0" y="282.0">кассы</text>
      <polygon fill="none" points="852.0,342.0 858.0,342.0 858.0,348.0 852.0,348.0" stroke="#000000" stroke-width="1"/>
      <polyline fill="none" points="855.0,348.0 855.0,365.0" stroke="#000000" stroke-width="0.5"/>
      <line stroke="#009900" stroke-width="1" x1="853.0" x2="857.0" y1="338.0" y2="338.0"/>
      <line stroke="#009900" stroke-width="1" x1="853.0" x2="857.0" y1="334.0" y2="334.0"/>
      <line stroke="#009900" stroke-width="1" x1="853.0" x2="857.0" y1="330.0" y2="330.0"/>
      <line stroke="#009900" stroke-width="1" x1="853.0" x2="857.0" y1="326.0" y2="326.0"/>
      <line stroke="#009900" stroke-width="1" x1="853.0" x2="857.0" y1="322.0" y2="322.0"/>
      <line stroke="#009900" stroke-width="1" x1="853.0" x2="857.0" y1="318.0" y2="318.0"/>
      <line stroke="#009900" stroke-width="1" x1="853.0" x2="857.0" y1="314.0" y2="314.0"/>
      <line stroke="#009900" stroke-width="1" x1="853.0" x2="857.0" y1="310.0" y2="310.0"/>
      <line stroke="#009900" stroke-width="1" x1="853.0" x2="857.0" y1="306.0" y2="306.0"/>
      <line stroke="#009900" stroke-width="1" x1="853.0" x2="857.0" y1="302.0" y2="302.0"/>
      <line stroke="#009900" stroke-width="1" x1="853.0" x2="857.0" y1="298.0" y2="298.0"/>
      <line stroke="#009900" stroke-width="1" x1="853.0" x2="857.0" y1="294.0" y2="294.0"/>
      <line stroke="#009900" stroke-width="1" x1="853.0" x2="857.0" y1="290.0" y2="290.0"/>
      <line stroke="#009900" stroke-width="1" x1="853.0" x2="857.0" y1="286.0" y2="286.0"/>
      <line stroke="#ff0000" stroke-width="1" x1="857.0" x2="853.0" y1="409.0" y2="409.0"/>
      <line stroke="#ff0000" stroke-width="1" x1="857.0" x2="853.0" y1="405.0" y2="405.0"/>
      <line stroke="#ff0000" stroke-width="1" x1="857.0" x2="853.0" y1="401.0" y2="401.0"/>
      <line stroke="#ff0000" stroke-width="1" x1="857.0" x2="853.0" y1="397.0" y2="397.0"/>
      <line stroke="#ff0000" stroke-width="1" x1="857.0" x2="853.0" y1="393.0" y2="393.0"/>
      <line stroke="#ff0000" stroke-width="1" x1="857.0" x2="853.0" y1="389.0" y2="389.0"/>
      <line stroke="#ff0000" stroke-width="1" x1="857.0" x2="853.0" y1="385.0" y2="385.0"/>
      <line stroke="#ff0000" stroke-width="1" x1="857.0" x2="853.0" y1="381.0" y2="381.0"/>
      <line stroke="#ff0000" stroke-width="1" x1="857.0" x2="853.0" y1="377.0" y2="377.0"/>
      <line stroke="#ff0000" stroke-width="1" x1="857.0" x2="853.0" y1="373.0" y2="373.0"/>
      <line stroke="#ff0000" stroke-width="1" x1="857.0" x2="853.0" y1="369.0" y2="369.0"/>
      <line stroke="#ff0000" stroke-width="1" x1="857.0" x2="853.0" y1="365.0" y2="365.0"/>
      <polyline fill="none" marker-end="url(#id102)" points="888.0,387.0 902.0,387.0" stroke="#ff0000" stroke-width="1"/>
      <polyline fill="none" marker-end="url(#id102)" points="900.0,308.0 886.0,308.0" stroke="#009900" stroke-width="1"/>
      <polygon fill="#d0efff" points="929.0,484.0 944.0,484.0 944.0,499.0 929.0,499.0" stroke="#000000" stroke-width="1"/>
      <text fill="#000000" font-family="Arial" font-size="6.0" stroke="none" stroke-width="0" transform="rotate(-270.0,941.0,485.0)" x="941.0" y="491.0">лифт</text>
      <polygon fill="#d0efff" points="929.0,199.0 944.0,199.0 944.0,214.0 929.0,214.0" stroke="#000000" stroke-width="1"/>
      <text fill="#000000" font-family="Arial" font-size="6.0" stroke="none" stroke-width="0" transform="rotate(-270.0,941.0,200.0)" x="941.0" y="206.0">лифт</text>
      <text fill="#00afaf" font-family="Arial" font-size="15.0" stroke="none" stroke-width="0" transform="rotate(70.0,164.0,-64.0)" x="164.0" y="-49.0">Полесская улица</text>
      <text fill="#00afaf" font-family="Arial" font-size="15.0" stroke="none" stroke-width="0" x="46.0" y="342.0">Старобориспольская улица</text>
      <text fill="#00afaf" font-family="Arial" font-size="15.0" stroke="none" stroke-width="0" x="993.0" y="327.0">Старобориспольская улица</text>
    </g>
  </g>
</svg>
