<?xml version="1.0" encoding="utf-8" ?>
<svg baseProfile="full" height="820.0" version="1.1" width="1170.0" xmlns="http://www.w3.org/2000/svg" xmlns:ev="http://www.w3.org/2001/xml-events" xmlns:xlink="http://www.w3.org/1999/xlink">
  <defs>
    <marker id="id111" markerHeight="3" markerUnits="strokeWidth" markerWidth="4" orient="auto" refX="0" refY="5" viewBox="0,0,10,10">
      <path d="M 0 0 L 10 5 L 0 10 z"/>
    </marker>
  </defs>
  <g>
    <rect fill="none" height="820.0" stroke="none" stroke-width="0" width="1170.0" x="0.0" y="0.0"/>
    <g transform="rotate(-5.0,585.0,410.0)">
      <polygon fill="#cc3333" points="308.0,449.0 308.0,419.0 758.0,419.0 758.0,449.0" stroke="#000000" stroke-width="1"/>
      <polygon fill="#cc3333" points="308.0,529.0 308.0,559.0 758.0,559.0 758.0,529.0" stroke="#000000" stroke-width="1"/>
      <text fill="#cc3333" font-family="Arial" font-size="20.0" stroke="none" stroke-width="0" x="308.0" y="416.0">&lt;&lt; Святошин</text>
      <text fill="#cc3333" font-family="Arial" font-size="20.0" stroke="none" stroke-width="0" x="615.0" y="579.0">Берестейская &gt;&gt;</text>
      <text fill="#cc3333" font-family="Arial" font-size="25.0" stroke="none" stroke-width="0" x="492.0" y="495.0">Нивки</text>
      <polyline fill="none" points="308.0,449.0 308.0,459.0 258.0,459.0 258.0,419.0 159.0,419.0 159.0,327.0 63.0,327.0" stroke="#000000" stroke-width="1"/>
      <polyline fill="none" points="63.0,346.0 129.0,346.0 129.0,745.0 79.0,745.0" stroke="#000000" stroke-width="1"/>
      <polyline fill="none" points="79.0,764.0 207.0,764.0" stroke="#000000" stroke-width="1"/>
      <polyline fill="none" points="207.0,745.0 157.0,745.0 157.0,559.0 258.0,559.0 258.0,520.0 308.0,520.0 308.0,529.0" stroke="#000000" stroke-width="1"/>
      <line stroke="#000000" stroke-width="1" x1="260.0" x2="260.0" y1="520.0" y2="459.0"/>
      <line stroke="#000000" stroke-width="1" x1="264.0" x2="264.0" y1="520.0" y2="459.0"/>
      <line stroke="#000000" stroke-width="1" x1="268.0" x2="268.0" y1="520.0" y2="459.0"/>
      <line stroke="#000000" stroke-width="1" x1="272.0" x2="272.0" y1="520.0" y2="459.0"/>
      <line stroke="#000000" stroke-width="1" x1="276.0" x2="276.0" y1="520.0" y2="459.0"/>
      <line stroke="#000000" stroke-width="1" x1="280.0" x2="280.0" y1="520.0" y2="459.0"/>
      <line stroke="#000000" stroke-width="1" x1="284.0" x2="284.0" y1="520.0" y2="459.0"/>
      <line stroke="#000000" stroke-width="1" x1="288.0" x2="288.0" y1="520.0" y2="459.0"/>
      <line stroke="#000000" stroke-width="1" x1="292.0" x2="292.0" y1="520.0" y2="459.0"/>
      <line stroke="#000000" stroke-width="1" x1="296.0" x2="296.0" y1="520.0" y2="459.0"/>
      <line stroke="#000000" stroke-width="1" x1="300.0" x2="300.0" y1="520.0" y2="459.0"/>
      <line stroke="#000000" stroke-width="1" x1="304.0" x2="304.0" y1="520.0" y2="459.0"/>
      <line stroke="#000000" stroke-width="1" x1="65.0" x2="65.0" y1="346.0" y2="327.0"/>
      <line stroke="#000000" stroke-width="1" x1="69.0" x2="69.0" y1="346.0" y2="327.0"/>
      <line stroke="#000000" stroke-width="1" x1="73.0" x2="73.0" y1="346.0" y2="327.0"/>
      <line stroke="#000000" stroke-width="1" x1="77.0" x2="77.0" y1="346.0" y2="327.0"/>
      <line stroke="#000000" stroke-width="1" x1="81.0" x2="81.0" y1="346.0" y2="327.0"/>
      <line stroke="#000000" stroke-width="1" x1="85.0" x2="85.0" y1="346.0" y2="327.0"/>
      <line stroke="#000000" stroke-width="1" x1="89.0" x2="89.0" y1="346.0" y2="327.0"/>
      <line stroke="#000000" stroke-width="1" x1="93.0" x2="93.0" y1="346.0" y2="327.0"/>
      <line stroke="#000000" stroke-width="1" x1="97.0" x2="97.0" y1="346.0" y2="327.0"/>
      <line stroke="#000000" stroke-width="1" x1="101.0" x2="101.0" y1="346.0" y2="327.0"/>
      <line stroke="#000000" stroke-width="1" x1="105.0" x2="105.0" y1="346.0" y2="327.0"/>
      <line stroke="#000000" stroke-width="1" x1="109.0" x2="109.0" y1="346.0" y2="327.0"/>
      <line stroke="#000000" stroke-width="1" x1="81.0" x2="81.0" y1="745.0" y2="764.0"/>
      <line stroke="#000000" stroke-width="1" x1="85.0" x2="85.0" y1="745.0" y2="764.0"/>
      <line stroke="#000000" stroke-width="1" x1="89.0" x2="89.0" y1="745.0" y2="764.0"/>
      <line stroke="#000000" stroke-width="1" x1="93.0" x2="93.0" y1="745.0" y2="764.0"/>
      <line stroke="#000000" stroke-width="1" x1="97.0" x2="97.0" y1="745.0" y2="764.0"/>
      <line stroke="#000000" stroke-width="1" x1="101.0" x2="101.0" y1="745.0" y2="764.0"/>
      <line stroke="#000000" stroke-width="1" x1="105.0" x2="105.0" y1="745.0" y2="764.0"/>
      <line stroke="#000000" stroke-width="1" x1="109.0" x2="109.0" y1="745.0" y2="764.0"/>
      <line stroke="#000000" stroke-width="1" x1="113.0" x2="113.0" y1="745.0" y2="764.0"/>
      <line stroke="#000000" stroke-width="1" x1="117.0" x2="117.0" y1="745.0" y2="764.0"/>
      <line stroke="#000000" stroke-width="1" x1="121.0" x2="121.0" y1="745.0" y2="764.0"/>
      <line stroke="#000000" stroke-width="1" x1="125.0" x2="125.0" y1="745.0" y2="764.0"/>
      <line stroke="#000000" stroke-width="1" x1="205.0" x2="205.0" y1="745.0" y2="764.0"/>
      <line stroke="#000000" stroke-width="1" x1="201.0" x2="201.0" y1="745.0" y2="764.0"/>
      <line stroke="#000000" stroke-width="1" x1="197.0" x2="197.0" y1="745.0" y2="764.0"/>
      <line stroke="#000000" stroke-width="1" x1="193.0" x2="193.0" y1="745.0" y2="764.0"/>
      <line stroke="#000000" stroke-width="1" x1="189.0" x2="189.0" y1="745.0" y2="764.0"/>
      <line stroke="#000000" stroke-width="1" x1="185.0" x2="185.0" y1="745.0" y2="764.0"/>
      <line stroke="#000000" stroke-width="1" x1="181.0" x2="181.0" y1="745.0" y2="764.0"/>
      <line stroke="#000000" stroke-width="1" x1="177.0" x2="177.0" y1="745.0" y2="764.0"/>
      <line stroke="#000000" stroke-width="1" x1="173.0" x2="173.0" y1="745.0" y2="764.0"/>
      <line stroke="#000000" stroke-width="1" x1="169.0" x2="169.0" y1="745.0" y2="764.0"/>
      <line stroke="#000000" stroke-width="1" x1="165.0" x2="165.0" y1="745.0" y2="764.0"/>
      <line stroke="#000000" stroke-width="1" x1="161.0" x2="161.0" y1="745.0" y2="764.0"/>
      <polyline fill="none" points="758.0,449.0 758.0,459.0 807.0,459.0 807.0,419.0 875.0,419.0 875.0,218.0 923.0,170.0" stroke="#000000" stroke-width="1"/>
      <polyline fill="none" points="937.0,184.0 901.0,220.0 901.0,230.0 1100.0,230.0 1065.0,195.0" stroke="#000000" stroke-width="1"/>
      <polyline fill="none" points="1079.0,181.0 1170.0,272.0" stroke="#000000" stroke-width="1"/>
      <polyline fill="none" points="1156.0,286.0 1121.0,251.0 901.0,251.0 901.0,419.0 920.0,419.0 920.0,559.0 807.0,559.0 807.0,520.0 758.0,520.0 758.0,529.0" stroke="#000000" stroke-width="1"/>
      <line stroke="#000000" stroke-width="1" x1="805.0" x2="805.0" y1="459.0" y2="520.0"/>
      <line stroke="#000000" stroke-width="1" x1="801.0" x2="801.0" y1="459.0" y2="520.0"/>
      <line stroke="#000000" stroke-width="1" x1="797.0" x2="797.0" y1="459.0" y2="520.0"/>
      <line stroke="#000000" stroke-width="1" x1="793.0" x2="793.0" y1="459.0" y2="520.0"/>
      <line stroke="#000000" stroke-width="1" x1="789.0" x2="789.0" y1="459.0" y2="520.0"/>
      <line stroke="#000000" stroke-width="1" x1="785.0" x2="785.0" y1="459.0" y2="520.0"/>
      <line stroke="#000000" stroke-width="1" x1="781.0" x2="781.0" y1="459.0" y2="520.0"/>
      <line stroke="#000000" stroke-width="1" x1="777.0" x2="777.0" y1="459.0" y2="520.0"/>
      <line stroke="#000000" stroke-width="1" x1="773.0" x2="773.0" y1="459.0" y2="520.0"/>
      <line stroke="#000000" stroke-width="1" x1="769.0" x2="769.0" y1="459.0" y2="520.0"/>
      <line stroke="#000000" stroke-width="1" x1="765.0" x2="765.0" y1="459.0" y2="520.0"/>
      <line stroke="#000000" stroke-width="1" x1="761.0" x2="761.0" y1="459.0" y2="520.0"/>
      <line stroke="#000000" stroke-width="1" x1="921.0" x2="935.0" y1="172.0" y2="186.0"/>
      <line stroke="#000000" stroke-width="1" x1="918.1715728752538" x2="932.1715728752538" y1="174.82842712474618" y2="188.82842712474618"/>
      <line stroke="#000000" stroke-width="1" x1="915.3431457505076" x2="929.3431457505076" y1="177.65685424949237" y2="191.65685424949237"/>
      <line stroke="#000000" stroke-width="1" x1="912.5147186257614" x2="926.5147186257614" y1="180.48528137423855" y2="194.48528137423855"/>
      <line stroke="#000000" stroke-width="1" x1="909.6862915010151" x2="923.6862915010151" y1="183.31370849898474" y2="197.31370849898474"/>
      <line stroke="#000000" stroke-width="1" x1="906.8578643762689" x2="920.8578643762689" y1="186.14213562373092" y2="200.14213562373092"/>
      <line stroke="#000000" stroke-width="1" x1="904.0294372515227" x2="918.0294372515227" y1="188.9705627484771" y2="202.9705627484771"/>
      <line stroke="#000000" stroke-width="1" x1="901.2010101267765" x2="915.2010101267765" y1="191.7989898732233" y2="205.7989898732233"/>
      <line stroke="#000000" stroke-width="1" x1="898.3725830020303" x2="912.3725830020303" y1="194.62741699796948" y2="208.62741699796948"/>
      <line stroke="#000000" stroke-width="1" x1="895.5441558772841" x2="909.5441558772841" y1="197.45584412271566" y2="211.45584412271566"/>
      <line stroke="#000000" stroke-width="1" x1="892.7157287525379" x2="906.7157287525379" y1="200.28427124746185" y2="214.28427124746185"/>
      <line stroke="#000000" stroke-width="1" x1="889.8873016277917" x2="903.8873016277917" y1="203.11269837220803" y2="217.11269837220803"/>
      <line stroke="#000000" stroke-width="1" x1="1154.0" x2="1168.0" y1="284.0" y2="270.0"/>
      <line stroke="#000000" stroke-width="1" x1="1151.1715728752538" x2="1165.1715728752538" y1="281.1715728752538" y2="267.1715728752538"/>
      <line stroke="#000000" stroke-width="1" x1="1148.3431457505076" x2="1162.3431457505076" y1="278.3431457505076" y2="264.3431457505076"/>
      <line stroke="#000000" stroke-width="1" x1="1145.5147186257614" x2="1159.5147186257614" y1="275.51471862576136" y2="261.51471862576136"/>
      <line stroke="#000000" stroke-width="1" x1="1142.6862915010151" x2="1156.6862915010151" y1="272.68629150101515" y2="258.68629150101515"/>
      <line stroke="#000000" stroke-width="1" x1="1139.857864376269" x2="1153.857864376269" y1="269.85786437626894" y2="255.85786437626896"/>
      <line stroke="#000000" stroke-width="1" x1="1137.0294372515227" x2="1151.0294372515227" y1="267.0294372515227" y2="253.02943725152278"/>
      <line stroke="#000000" stroke-width="1" x1="1134.2010101267765" x2="1148.2010101267765" y1="264.2010101267765" y2="250.2010101267766"/>
      <line stroke="#000000" stroke-width="1" x1="1131.3725830020303" x2="1145.3725830020303" y1="261.3725830020303" y2="247.3725830020304"/>
      <line stroke="#000000" stroke-width="1" x1="1128.544155877284" x2="1142.544155877284" y1="258.5441558772841" y2="244.54415587728423"/>
      <line stroke="#000000" stroke-width="1" x1="1125.7157287525379" x2="1139.7157287525379" y1="255.7157287525379" y2="241.71572875253804"/>
      <line stroke="#000000" stroke-width="1" x1="1122.8873016277917" x2="1136.8873016277917" y1="252.88730162779171" y2="238.88730162779186"/>
      <line stroke="#000000" stroke-width="1" x1="1067.0" x2="1081.0" y1="197.0" y2="183.0"/>
      <line stroke="#000000" stroke-width="1" x1="1069.8284271247462" x2="1083.8284271247462" y1="199.82842712474618" y2="185.82842712474618"/>
      <line stroke="#000000" stroke-width="1" x1="1072.6568542494924" x2="1086.6568542494924" y1="202.65685424949237" y2="188.65685424949237"/>
      <line stroke="#000000" stroke-width="1" x1="1075.4852813742386" x2="1089.4852813742386" y1="205.48528137423855" y2="191.48528137423855"/>
      <line stroke="#000000" stroke-width="1" x1="1078.3137084989849" x2="1092.3137084989849" y1="208.31370849898474" y2="194.31370849898474"/>
      <line stroke="#000000" stroke-width="1" x1="1081.142135623731" x2="1095.142135623731" y1="211.14213562373092" y2="197.14213562373092"/>
      <line stroke="#000000" stroke-width="1" x1="1083.9705627484773" x2="1097.9705627484773" y1="213.9705627484771" y2="199.9705627484771"/>
      <line stroke="#000000" stroke-width="1" x1="1086.7989898732235" x2="1100.7989898732235" y1="216.7989898732233" y2="202.7989898732233"/>
      <line stroke="#000000" stroke-width="1" x1="1089.6274169979697" x2="1103.6274169979697" y1="219.62741699796948" y2="205.62741699796948"/>
      <line stroke="#000000" stroke-width="1" x1="1092.455844122716" x2="1106.455844122716" y1="222.45584412271566" y2="208.45584412271566"/>
      <line stroke="#000000" stroke-width="1" x1="1095.2842712474621" x2="1109.2842712474621" y1="225.28427124746185" y2="211.28427124746185"/>
      <line stroke="#000000" stroke-width="1" x1="1098.1126983722083" x2="1112.1126983722083" y1="228.11269837220803" y2="214.11269837220803"/>
      <text fill="#00afaf" font-family="Arial" font-size="15.0" stroke="none" stroke-width="0" x="923.0" y="148.0">&quot;А 30</text>
      <text fill="#00afaf" font-family="Arial" font-size="15.0" stroke="none" stroke-width="0" x="917.0" y="166.0">&quot;Тр 5</text>
      <text fill="#00afaf" font-family="Arial" font-size="15.0" stroke="none" stroke-width="0" x="1056.0" y="88.0">А 47</text>
      <text fill="#00afaf" font-family="Arial" font-size="15.0" stroke="none" stroke-width="0" x="1056.0" y="118.0">&quot;Тр 5</text>
      <text fill="#00afaf" font-family="Arial" font-size="15.0" stroke="none" stroke-width="0" transform="rotate(-90.0,997.0,139.0)" x="997.0" y="154.0">ул.Щербакова</text>
      <text fill="#00afaf" font-family="Arial" font-size="15.0" stroke="none" stroke-width="0" x="979.0" y="553.0">пр. Победы</text>
      <text fill="#00afaf" font-family="Arial" font-size="15.0" stroke="none" stroke-width="0" x="20.0" y="552.0">пр. Победы</text>
      <text fill="#00afaf" font-family="Arial" font-size="15.0" stroke="none" stroke-width="0" x="17.0" y="324.0">&quot;А 13</text>
      <text fill="#00afaf" font-family="Arial" font-size="15.0" stroke="none" stroke-width="0" x="16.0" y="344.0">Тр 7к</text>
      <text fill="#00afaf" font-family="Arial" font-size="15.0" stroke="none" stroke-width="0" x="240.0" y="754.0">А 23</text>
      <text fill="#00afaf" font-family="Arial" font-size="15.0" stroke="none" stroke-width="0" x="241.0" y="772.0">Тр 7</text>
      <text fill="#00afaf" font-family="Arial" font-size="15.0" stroke="none" stroke-width="0" x="1068.0" y="168.0">'Парк &quot;Нивки&quot; &gt;&gt;'</text>
      <text fill="#ffd0d0" font-family="Arial" font-size="100.0" stroke="none" stroke-width="0" transform="rotate(5.0,182.0,443.0)" x="182.0" y="543.0">?</text>
      <text fill="#ffd0d0" font-family="Arial" font-size="100.0" stroke="none" stroke-width="0" transform="rotate(5.0,836.0,436.0)" x="836.0" y="536.0">?</text>
    </g>
  </g>
</svg>
