<?xml version="1.0" encoding="utf-8" ?>
<svg baseProfile="full" height="910.0" version="1.1" width="800.0" xmlns="http://www.w3.org/2000/svg" xmlns:ev="http://www.w3.org/2001/xml-events" xmlns:xlink="http://www.w3.org/1999/xlink">
  <defs>
    <marker id="id112" markerHeight="3" markerUnits="strokeWidth" markerWidth="4" orient="auto" refX="0" refY="5" viewBox="0,0,10,10">
      <path d="M 0 0 L 10 5 L 0 10 z"/>
    </marker>
  </defs>
  <g>
    <rect fill="none" height="910.0" stroke="none" stroke-width="0" width="800.0" x="0.0" y="0.0"/>
    <g transform="rotate(-89.5,400.0,455.0)">
      <polygon fill="#333399" points="626.0,502.0 626.0,532.0 176.0,532.0 176.0,502.0" stroke="#000000" stroke-width="1"/>
      <polygon fill="#333399" points="626.0,422.0 626.0,392.0 176.0,392.0 176.0,422.0" stroke="#000000" stroke-width="1"/>
      <text fill="#333399" font-family="Arial" font-size="20.0" stroke="none" stroke-width="0" x="525.0" y="552.0">Минская &gt;&gt;</text>
      <text fill="#333399" font-family="Arial" font-size="20.0" stroke="none" stroke-width="0" x="177.0" y="390.0">&lt;&lt; Петровка</text>
      <text fill="#333399" font-family="Arial" font-size="25.0" stroke="none" stroke-width="0" x="349.0" y="473.0">Оболонь</text>
      <polyline fill="none" points="176.0,422.0 176.0,433.0 178.0,433.0 178.0,440.0 123.0,440.0" stroke="#000000" stroke-width="1"/>
      <polyline fill="none" points="98.0,484.0 178.0,484.0 178.0,491.0 176.0,491.0 176.0,502.0" stroke="#000000" stroke-width="1"/>
      <polyline fill="none" points="123.0,440.0 123.0,406.0 42.0,406.0 42.0,272.0 97.0,272.0" stroke="#000000" stroke-width="1"/>
      <polyline fill="none" points="98.0,484.0 98.0,519.0 48.0,519.0 48.0,489.0 42.0,489.0 42.0,653.0 97.0,653.0" stroke="#000000" stroke-width="1"/>
      <polyline fill="none" points="-37.0,272.0 18.0,272.0 18.0,653.0 -37.0,653.0" stroke="#000000" stroke-width="1"/>
      <line stroke="#000000" stroke-width="1" x1="175.0" x2="175.0" y1="440.0" y2="484.0"/>
      <line stroke="#000000" stroke-width="1" x1="171.0" x2="171.0" y1="440.0" y2="484.0"/>
      <line stroke="#000000" stroke-width="1" x1="167.0" x2="167.0" y1="440.0" y2="484.0"/>
      <line stroke="#000000" stroke-width="1" x1="163.0" x2="163.0" y1="440.0" y2="484.0"/>
      <line stroke="#000000" stroke-width="1" x1="159.0" x2="159.0" y1="440.0" y2="484.0"/>
      <line stroke="#000000" stroke-width="1" x1="155.0" x2="155.0" y1="440.0" y2="484.0"/>
      <line stroke="#000000" stroke-width="1" x1="151.0" x2="151.0" y1="440.0" y2="484.0"/>
      <line stroke="#000000" stroke-width="1" x1="147.0" x2="147.0" y1="440.0" y2="484.0"/>
      <line stroke="#000000" stroke-width="1" x1="143.0" x2="143.0" y1="440.0" y2="484.0"/>
      <line stroke="#000000" stroke-width="1" x1="139.0" x2="139.0" y1="440.0" y2="484.0"/>
      <line stroke="#000000" stroke-width="1" x1="135.0" x2="135.0" y1="440.0" y2="484.0"/>
      <line stroke="#000000" stroke-width="1" x1="131.0" x2="131.0" y1="440.0" y2="484.0"/>
      <line stroke="#000000" stroke-width="1" x1="127.0" x2="127.0" y1="440.0" y2="484.0"/>
      <polyline fill="none" points="97.0,254.0 42.0,254.0 42.0,237.0" stroke="#000000" stroke-width="1"/>
      <polyline fill="none" points="18.0,237.0 18.0,254.0 -37.0,254.0" stroke="#000000" stroke-width="1"/>
      <polyline fill="none" points="97.0,670.0 -37.0,670.0" stroke="#000000" stroke-width="1"/>
      <line stroke="#000000" stroke-width="1" x1="95.0" x2="95.0" y1="254.0" y2="272.0"/>
      <line stroke="#000000" stroke-width="1" x1="91.0" x2="91.0" y1="254.0" y2="272.0"/>
      <line stroke="#000000" stroke-width="1" x1="87.0" x2="87.0" y1="254.0" y2="272.0"/>
      <line stroke="#000000" stroke-width="1" x1="83.0" x2="83.0" y1="254.0" y2="272.0"/>
      <line stroke="#000000" stroke-width="1" x1="79.0" x2="79.0" y1="254.0" y2="272.0"/>
      <line stroke="#000000" stroke-width="1" x1="75.0" x2="75.0" y1="254.0" y2="272.0"/>
      <line stroke="#000000" stroke-width="1" x1="71.0" x2="71.0" y1="254.0" y2="272.0"/>
      <line stroke="#000000" stroke-width="1" x1="67.0" x2="67.0" y1="254.0" y2="272.0"/>
      <line stroke="#000000" stroke-width="1" x1="63.0" x2="63.0" y1="254.0" y2="272.0"/>
      <line stroke="#000000" stroke-width="1" x1="59.0" x2="59.0" y1="254.0" y2="272.0"/>
      <line stroke="#000000" stroke-width="1" x1="55.0" x2="55.0" y1="254.0" y2="272.0"/>
      <line stroke="#000000" stroke-width="1" x1="51.0" x2="51.0" y1="254.0" y2="272.0"/>
      <line stroke="#000000" stroke-width="1" x1="-35.0" x2="-35.0" y1="254.0" y2="272.0"/>
      <line stroke="#000000" stroke-width="1" x1="-31.0" x2="-31.0" y1="254.0" y2="272.0"/>
      <line stroke="#000000" stroke-width="1" x1="-27.0" x2="-27.0" y1="254.0" y2="272.0"/>
      <line stroke="#000000" stroke-width="1" x1="-23.0" x2="-23.0" y1="254.0" y2="272.0"/>
      <line stroke="#000000" stroke-width="1" x1="-19.0" x2="-19.0" y1="254.0" y2="272.0"/>
      <line stroke="#000000" stroke-width="1" x1="-15.0" x2="-15.0" y1="254.0" y2="272.0"/>
      <line stroke="#000000" stroke-width="1" x1="-11.0" x2="-11.0" y1="254.0" y2="272.0"/>
      <line stroke="#000000" stroke-width="1" x1="-7.0" x2="-7.0" y1="254.0" y2="272.0"/>
      <line stroke="#000000" stroke-width="1" x1="-3.0" x2="-3.0" y1="254.0" y2="272.0"/>
      <line stroke="#000000" stroke-width="1" x1="1.0" x2="1.0" y1="254.0" y2="272.0"/>
      <line stroke="#000000" stroke-width="1" x1="5.0" x2="5.0" y1="254.0" y2="272.0"/>
      <line stroke="#000000" stroke-width="1" x1="9.0" x2="9.0" y1="254.0" y2="272.0"/>
      <line stroke="#000000" stroke-width="1" x1="95.0" x2="95.0" y1="653.0" y2="670.0"/>
      <line stroke="#000000" stroke-width="1" x1="91.0" x2="91.0" y1="653.0" y2="670.0"/>
      <line stroke="#000000" stroke-width="1" x1="87.0" x2="87.0" y1="653.0" y2="670.0"/>
      <line stroke="#000000" stroke-width="1" x1="83.0" x2="83.0" y1="653.0" y2="670.0"/>
      <line stroke="#000000" stroke-width="1" x1="79.0" x2="79.0" y1="653.0" y2="670.0"/>
      <line stroke="#000000" stroke-width="1" x1="75.0" x2="75.0" y1="653.0" y2="670.0"/>
      <line stroke="#000000" stroke-width="1" x1="71.0" x2="71.0" y1="653.0" y2="670.0"/>
      <line stroke="#000000" stroke-width="1" x1="67.0" x2="67.0" y1="653.0" y2="670.0"/>
      <line stroke="#000000" stroke-width="1" x1="63.0" x2="63.0" y1="653.0" y2="670.0"/>
      <line stroke="#000000" stroke-width="1" x1="59.0" x2="59.0" y1="653.0" y2="670.0"/>
      <line stroke="#000000" stroke-width="1" x1="55.0" x2="55.0" y1="653.0" y2="670.0"/>
      <line stroke="#000000" stroke-width="1" x1="51.0" x2="51.0" y1="653.0" y2="670.0"/>
      <line stroke="#000000" stroke-width="1" x1="-35.0" x2="-35.0" y1="653.0" y2="670.0"/>
      <line stroke="#000000" stroke-width="1" x1="-31.0" x2="-31.0" y1="653.0" y2="670.0"/>
      <line stroke="#000000" stroke-width="1" x1="-27.0" x2="-27.0" y1="653.0" y2="670.0"/>
      <line stroke="#000000" stroke-width="1" x1="-23.0" x2="-23.0" y1="653.0" y2="670.0"/>
      <line stroke="#000000" stroke-width="1" x1="-19.0" x2="-19.0" y1="653.0" y2="670.0"/>
      <line stroke="#000000" stroke-width="1" x1="-15.0" x2="-15.0" y1="653.0" y2="670.0"/>
      <line stroke="#000000" stroke-width="1" x1="-11.0" x2="-11.0" y1="653.0" y2="670.0"/>
      <line stroke="#000000" stroke-width="1" x1="-7.0" x2="-7.0" y1="653.0" y2="670.0"/>
      <line stroke="#000000" stroke-width="1" x1="-3.0" x2="-3.0" y1="653.0" y2="670.0"/>
      <line stroke="#000000" stroke-width="1" x1="1.0" x2="1.0" y1="653.0" y2="670.0"/>
      <line stroke="#000000" stroke-width="1" x1="5.0" x2="5.0" y1="653.0" y2="670.0"/>
      <line stroke="#000000" stroke-width="1" x1="9.0" x2="9.0" y1="653.0" y2="670.0"/>
      <polygon fill="#d0d0d0" points="48.0,436.0 48.0,459.0 42.0,459.0 42.0,436.0" stroke="#000000" stroke-width="1"/>
      <polyline fill="none" points="79.0,438.0 48.0,438.0" stroke="#000000" stroke-width="0.5"/>
      <polygon fill="none" points="102.0,481.0 100.0,477.0 96.0,479.0 98.0,483.0" stroke="#000000" stroke-width="1"/>
      <line stroke="#009900" stroke-width="1" x1="77.0" x2="81.0" y1="443.0" y2="441.0"/>
      <line stroke="#009900" stroke-width="1" x1="78.82939205048305" x2="82.82939205048305" y1="446.5571512092726" y2="444.5571512092726"/>
      <line stroke="#009900" stroke-width="1" x1="80.6587841009661" x2="84.6587841009661" y1="450.1143024185452" y2="448.1143024185452"/>
      <line stroke="#009900" stroke-width="1" x1="82.48817615144915" x2="86.48817615144915" y1="453.6714536278178" y2="451.6714536278178"/>
      <line stroke="#009900" stroke-width="1" x1="84.3175682019322" x2="88.3175682019322" y1="457.2286048370904" y2="455.2286048370904"/>
      <line stroke="#009900" stroke-width="1" x1="86.14696025241525" x2="90.14696025241525" y1="460.785756046363" y2="458.785756046363"/>
      <line stroke="#009900" stroke-width="1" x1="87.9763523028983" x2="91.9763523028983" y1="464.3429072556356" y2="462.3429072556356"/>
      <line stroke="#009900" stroke-width="1" x1="89.80574435338136" x2="93.80574435338136" y1="467.9000584649082" y2="465.9000584649082"/>
      <line stroke="#009900" stroke-width="1" x1="91.63513640386441" x2="95.63513640386441" y1="471.45720967418083" y2="469.45720967418083"/>
      <line stroke="#009900" stroke-width="1" x1="93.46452845434746" x2="97.46452845434746" y1="475.01436088345343" y2="473.01436088345343"/>
      <line stroke="#ff0000" stroke-width="1" x1="73.0" x2="78.0" y1="410.0" y2="410.0"/>
      <line stroke="#ff0000" stroke-width="1" x1="73.0" x2="78.0" y1="414.0" y2="414.0"/>
      <line stroke="#ff0000" stroke-width="1" x1="73.0" x2="78.0" y1="418.0" y2="418.0"/>
      <line stroke="#ff0000" stroke-width="1" x1="73.0" x2="78.0" y1="422.0" y2="422.0"/>
      <line stroke="#ff0000" stroke-width="1" x1="73.0" x2="78.0" y1="426.0" y2="426.0"/>
      <line stroke="#ff0000" stroke-width="1" x1="73.0" x2="78.0" y1="430.0" y2="430.0"/>
      <line stroke="#ff0000" stroke-width="1" x1="73.0" x2="78.0" y1="434.0" y2="434.0"/>
      <polyline fill="none" points="98.0,486.0 108.0,486.0 108.0,515.0 98.0,515.0" stroke="#000000" stroke-width="1"/>
      <text fill="#000000" font-family="Arial" font-size="10.0" stroke="none" stroke-width="0" transform="rotate(90.0,109.0,488.0)" x="109.0" y="498.0">кассы</text>
      <polyline fill="none" points="717.0,440.0 624.0,440.0 624.0,433.0 626.0,433.0 626.0,422.0" stroke="#000000" stroke-width="1"/>
      <polyline fill="none" points="626.0,502.0 626.0,491.0 624.0,491.0 624.0,484.0 679.0,484.0" stroke="#000000" stroke-width="1"/>
      <polyline fill="none" points="839.0,272.0 784.0,272.0 784.0,653.0 839.0,653.0" stroke="#000000" stroke-width="1"/>
      <polyline fill="none" points="717.0,440.0 717.0,406.0 754.0,406.0 754.0,436.0 760.0,436.0 760.0,272.0 705.0,272.0" stroke="#000000" stroke-width="1"/>
      <polyline fill="none" points="679.0,484.0 679.0,519.0 760.0,519.0 760.0,653.0 705.0,653.0" stroke="#000000" stroke-width="1"/>
      <line stroke="#000000" stroke-width="1" x1="627.0" x2="627.0" y1="440.0" y2="484.0"/>
      <line stroke="#000000" stroke-width="1" x1="631.0" x2="631.0" y1="440.0" y2="484.0"/>
      <line stroke="#000000" stroke-width="1" x1="635.0" x2="635.0" y1="440.0" y2="484.0"/>
      <line stroke="#000000" stroke-width="1" x1="639.0" x2="639.0" y1="440.0" y2="484.0"/>
      <line stroke="#000000" stroke-width="1" x1="643.0" x2="643.0" y1="440.0" y2="484.0"/>
      <line stroke="#000000" stroke-width="1" x1="647.0" x2="647.0" y1="440.0" y2="484.0"/>
      <line stroke="#000000" stroke-width="1" x1="651.0" x2="651.0" y1="440.0" y2="484.0"/>
      <line stroke="#000000" stroke-width="1" x1="655.0" x2="655.0" y1="440.0" y2="484.0"/>
      <line stroke="#000000" stroke-width="1" x1="659.0" x2="659.0" y1="440.0" y2="484.0"/>
      <line stroke="#000000" stroke-width="1" x1="663.0" x2="663.0" y1="440.0" y2="484.0"/>
      <line stroke="#000000" stroke-width="1" x1="667.0" x2="667.0" y1="440.0" y2="484.0"/>
      <line stroke="#000000" stroke-width="1" x1="671.0" x2="671.0" y1="440.0" y2="484.0"/>
      <line stroke="#000000" stroke-width="1" x1="675.0" x2="675.0" y1="440.0" y2="484.0"/>
      <polyline fill="none" points="839.0,254.0 705.0,254.0" stroke="#000000" stroke-width="1"/>
      <polyline fill="none" points="839.0,671.0 705.0,671.0" stroke="#000000" stroke-width="1"/>
      <line stroke="#000000" stroke-width="1" x1="837.0" x2="837.0" y1="254.0" y2="272.0"/>
      <line stroke="#000000" stroke-width="1" x1="833.0" x2="833.0" y1="254.0" y2="272.0"/>
      <line stroke="#000000" stroke-width="1" x1="829.0" x2="829.0" y1="254.0" y2="272.0"/>
      <line stroke="#000000" stroke-width="1" x1="825.0" x2="825.0" y1="254.0" y2="272.0"/>
      <line stroke="#000000" stroke-width="1" x1="821.0" x2="821.0" y1="254.0" y2="272.0"/>
      <line stroke="#000000" stroke-width="1" x1="817.0" x2="817.0" y1="254.0" y2="272.0"/>
      <line stroke="#000000" stroke-width="1" x1="813.0" x2="813.0" y1="254.0" y2="272.0"/>
      <line stroke="#000000" stroke-width="1" x1="809.0" x2="809.0" y1="254.0" y2="272.0"/>
      <line stroke="#000000" stroke-width="1" x1="805.0" x2="805.0" y1="254.0" y2="272.0"/>
      <line stroke="#000000" stroke-width="1" x1="801.0" x2="801.0" y1="254.0" y2="272.0"/>
      <line stroke="#000000" stroke-width="1" x1="797.0" x2="797.0" y1="254.0" y2="272.0"/>
      <line stroke="#000000" stroke-width="1" x1="793.0" x2="793.0" y1="254.0" y2="272.0"/>
      <line stroke="#000000" stroke-width="1" x1="707.0" x2="707.0" y1="254.0" y2="272.0"/>
      <line stroke="#000000" stroke-width="1" x1="711.0" x2="711.0" y1="254.0" y2="272.0"/>
      <line stroke="#000000" stroke-width="1" x1="715.0" x2="715.0" y1="254.0" y2="272.0"/>
      <line stroke="#000000" stroke-width="1" x1="719.0" x2="719.0" y1="254.0" y2="272.0"/>
      <line stroke="#000000" stroke-width="1" x1="723.0" x2="723.0" y1="254.0" y2="272.0"/>
      <line stroke="#000000" stroke-width="1" x1="727.0" x2="727.0" y1="254.0" y2="272.0"/>
      <line stroke="#000000" stroke-width="1" x1="731.0" x2="731.0" y1="254.0" y2="272.0"/>
      <line stroke="#000000" stroke-width="1" x1="735.0" x2="735.0" y1="254.0" y2="272.0"/>
      <line stroke="#000000" stroke-width="1" x1="739.0" x2="739.0" y1="254.0" y2="272.0"/>
      <line stroke="#000000" stroke-width="1" x1="743.0" x2="743.0" y1="254.0" y2="272.0"/>
      <line stroke="#000000" stroke-width="1" x1="747.0" x2="747.0" y1="254.0" y2="272.0"/>
      <line stroke="#000000" stroke-width="1" x1="751.0" x2="751.0" y1="254.0" y2="272.0"/>
      <line stroke="#000000" stroke-width="1" x1="837.0" x2="837.0" y1="671.0" y2="653.0"/>
      <line stroke="#000000" stroke-width="1" x1="833.0" x2="833.0" y1="671.0" y2="653.0"/>
      <line stroke="#000000" stroke-width="1" x1="829.0" x2="829.0" y1="671.0" y2="653.0"/>
      <line stroke="#000000" stroke-width="1" x1="825.0" x2="825.0" y1="671.0" y2="653.0"/>
      <line stroke="#000000" stroke-width="1" x1="821.0" x2="821.0" y1="671.0" y2="653.0"/>
      <line stroke="#000000" stroke-width="1" x1="817.0" x2="817.0" y1="671.0" y2="653.0"/>
      <line stroke="#000000" stroke-width="1" x1="813.0" x2="813.0" y1="671.0" y2="653.0"/>
      <line stroke="#000000" stroke-width="1" x1="809.0" x2="809.0" y1="671.0" y2="653.0"/>
      <line stroke="#000000" stroke-width="1" x1="805.0" x2="805.0" y1="671.0" y2="653.0"/>
      <line stroke="#000000" stroke-width="1" x1="801.0" x2="801.0" y1="671.0" y2="653.0"/>
      <line stroke="#000000" stroke-width="1" x1="797.0" x2="797.0" y1="671.0" y2="653.0"/>
      <line stroke="#000000" stroke-width="1" x1="793.0" x2="793.0" y1="671.0" y2="653.0"/>
      <line stroke="#000000" stroke-width="1" x1="707.0" x2="707.0" y1="671.0" y2="653.0"/>
      <line stroke="#000000" stroke-width="1" x1="711.0" x2="711.0" y1="671.0" y2="653.0"/>
      <line stroke="#000000" stroke-width="1" x1="715.0" x2="715.0" y1="671.0" y2="653.0"/>
      <line stroke="#000000" stroke-width="1" x1="719.0" x2="719.0" y1="671.0" y2="653.0"/>
      <line stroke="#000000" stroke-width="1" x1="723.0" x2="723.0" y1="671.0" y2="653.0"/>
      <line stroke="#000000" stroke-width="1" x1="727.0" x2="727.0" y1="671.0" y2="653.0"/>
      <line stroke="#000000" stroke-width="1" x1="731.0" x2="731.0" y1="671.0" y2="653.0"/>
      <line stroke="#000000" stroke-width="1" x1="735.0" x2="735.0" y1="671.0" y2="653.0"/>
      <line stroke="#000000" stroke-width="1" x1="739.0" x2="739.0" y1="671.0" y2="653.0"/>
      <line stroke="#000000" stroke-width="1" x1="743.0" x2="743.0" y1="671.0" y2="653.0"/>
      <line stroke="#000000" stroke-width="1" x1="747.0" x2="747.0" y1="671.0" y2="653.0"/>
      <line stroke="#000000" stroke-width="1" x1="751.0" x2="751.0" y1="671.0" y2="653.0"/>
      <polygon fill="#d0d0d0" points="754.0,466.0 754.0,489.0 760.0,489.0 760.0,466.0" stroke="#000000" stroke-width="1"/>
      <polyline fill="none" points="753.0,486.0 722.0,486.0" stroke="#000000" stroke-width="0.5"/>
      <polygon fill="none" points="703.0,440.0 698.0,440.0 698.0,435.0 703.0,435.0" stroke="#000000" stroke-width="1"/>
      <line stroke="#009900" stroke-width="1" x1="701.0" x2="706.0" y1="446.0" y2="443.0"/>
      <line stroke="#009900" stroke-width="1" x1="702.8629857313305" x2="707.8629857313305" y1="449.53967288952794" y2="446.53967288952794"/>
      <line stroke="#009900" stroke-width="1" x1="704.7259714626609" x2="709.7259714626609" y1="453.07934577905587" y2="450.07934577905587"/>
      <line stroke="#009900" stroke-width="1" x1="706.5889571939914" x2="711.5889571939914" y1="456.6190186685838" y2="453.6190186685838"/>
      <line stroke="#009900" stroke-width="1" x1="708.4519429253219" x2="713.4519429253219" y1="460.15869155811174" y2="457.15869155811174"/>
      <line stroke="#009900" stroke-width="1" x1="710.3149286566523" x2="715.3149286566523" y1="463.6983644476397" y2="460.6983644476397"/>
      <line stroke="#009900" stroke-width="1" x1="712.1779143879828" x2="717.1779143879828" y1="467.2380373371676" y2="464.2380373371676"/>
      <line stroke="#009900" stroke-width="1" x1="714.0409001193133" x2="719.0409001193133" y1="470.77771022669555" y2="467.77771022669555"/>
      <line stroke="#009900" stroke-width="1" x1="715.9038858506437" x2="720.9038858506437" y1="474.3173831162235" y2="471.3173831162235"/>
      <line stroke="#009900" stroke-width="1" x1="717.7668715819742" x2="722.7668715819742" y1="477.8570560057514" y2="474.8570560057514"/>
      <line stroke="#009900" stroke-width="1" x1="719.6298573133047" x2="724.6298573133047" y1="481.39672889527935" y2="478.39672889527935"/>
      <line stroke="#ff0000" stroke-width="1" x1="723.0" x2="729.0" y1="490.0" y2="490.0"/>
      <line stroke="#ff0000" stroke-width="1" x1="723.0" x2="729.0" y1="494.0" y2="494.0"/>
      <line stroke="#ff0000" stroke-width="1" x1="723.0" x2="729.0" y1="498.0" y2="498.0"/>
      <line stroke="#ff0000" stroke-width="1" x1="723.0" x2="729.0" y1="502.0" y2="502.0"/>
      <line stroke="#ff0000" stroke-width="1" x1="723.0" x2="729.0" y1="506.0" y2="506.0"/>
      <line stroke="#ff0000" stroke-width="1" x1="723.0" x2="729.0" y1="510.0" y2="510.0"/>
      <line stroke="#ff0000" stroke-width="1" x1="723.0" x2="729.0" y1="514.0" y2="514.0"/>
      <polyline fill="none" points="717.0,408.0 707.0,408.0 707.0,437.0 717.0,437.0" stroke="#000000" stroke-width="1"/>
      <text fill="#000000" font-family="Arial" font-size="10.0" stroke="none" stroke-width="0" transform="rotate(90.0,718.0,410.0)" x="718.0" y="420.0">кассы</text>
      <polygon fill="#d0d0d0" points="607.0,433.0 607.0,440.0 600.0,440.0 600.0,433.0" stroke="#000000" stroke-width="1"/>
      <polygon fill="#d0d0d0" points="580.0,433.0 580.0,440.0 573.0,440.0 573.0,433.0" stroke="#000000" stroke-width="1"/>
      <polygon fill="#d0d0d0" points="553.0,433.0 553.0,440.0 546.0,440.0 546.0,433.0" stroke="#000000" stroke-width="1"/>
      <polygon fill="#d0d0d0" points="526.0,433.0 526.0,440.0 519.0,440.0 519.0,433.0" stroke="#000000" stroke-width="1"/>
      <polygon fill="#d0d0d0" points="499.0,433.0 499.0,440.0 492.0,440.0 492.0,433.0" stroke="#000000" stroke-width="1"/>
      <polygon fill="#d0d0d0" points="472.0,433.0 472.0,440.0 465.0,440.0 465.0,433.0" stroke="#000000" stroke-width="1"/>
      <polygon fill="#d0d0d0" points="445.0,433.0 445.0,440.0 438.0,440.0 438.0,433.0" stroke="#000000" stroke-width="1"/>
      <polygon fill="#d0d0d0" points="418.0,433.0 418.0,440.0 411.0,440.0 411.0,433.0" stroke="#000000" stroke-width="1"/>
      <polygon fill="#d0d0d0" points="391.0,433.0 391.0,440.0 384.0,440.0 384.0,433.0" stroke="#000000" stroke-width="1"/>
      <polygon fill="#d0d0d0" points="364.0,433.0 364.0,440.0 357.0,440.0 357.0,433.0" stroke="#000000" stroke-width="1"/>
      <polygon fill="#d0d0d0" points="337.0,433.0 337.0,440.0 330.0,440.0 330.0,433.0" stroke="#000000" stroke-width="1"/>
      <polygon fill="#d0d0d0" points="310.0,433.0 310.0,440.0 303.0,440.0 303.0,433.0" stroke="#000000" stroke-width="1"/>
      <polygon fill="#d0d0d0" points="283.0,433.0 283.0,440.0 276.0,440.0 276.0,433.0" stroke="#000000" stroke-width="1"/>
      <polygon fill="#d0d0d0" points="256.0,433.0 256.0,440.0 249.0,440.0 249.0,433.0" stroke="#000000" stroke-width="1"/>
      <polygon fill="#d0d0d0" points="229.0,433.0 229.0,440.0 222.0,440.0 222.0,433.0" stroke="#000000" stroke-width="1"/>
      <polygon fill="#d0d0d0" points="202.0,433.0 202.0,440.0 195.0,440.0 195.0,433.0" stroke="#000000" stroke-width="1"/>
      <polygon fill="#d0d0d0" points="607.0,484.0 607.0,491.0 600.0,491.0 600.0,484.0" stroke="#000000" stroke-width="1"/>
      <polygon fill="#d0d0d0" points="580.0,484.0 580.0,491.0 573.0,491.0 573.0,484.0" stroke="#000000" stroke-width="1"/>
      <polygon fill="#d0d0d0" points="553.0,484.0 553.0,491.0 546.0,491.0 546.0,484.0" stroke="#000000" stroke-width="1"/>
      <polygon fill="#d0d0d0" points="526.0,484.0 526.0,491.0 519.0,491.0 519.0,484.0" stroke="#000000" stroke-width="1"/>
      <polygon fill="#d0d0d0" points="499.0,484.0 499.0,491.0 492.0,491.0 492.0,484.0" stroke="#000000" stroke-width="1"/>
      <polygon fill="#d0d0d0" points="472.0,484.0 472.0,491.0 465.0,491.0 465.0,484.0" stroke="#000000" stroke-width="1"/>
      <polygon fill="#d0d0d0" points="445.0,484.0 445.0,491.0 438.0,491.0 438.0,484.0" stroke="#000000" stroke-width="1"/>
      <polygon fill="#d0d0d0" points="418.0,484.0 418.0,491.0 411.0,491.0 411.0,484.0" stroke="#000000" stroke-width="1"/>
      <polygon fill="#d0d0d0" points="391.0,484.0 391.0,491.0 384.0,491.0 384.0,484.0" stroke="#000000" stroke-width="1"/>
      <polygon fill="#d0d0d0" points="364.0,484.0 364.0,491.0 357.0,491.0 357.0,484.0" stroke="#000000" stroke-width="1"/>
      <polygon fill="#d0d0d0" points="337.0,484.0 337.0,491.0 330.0,491.0 330.0,484.0" stroke="#000000" stroke-width="1"/>
      <polygon fill="#d0d0d0" points="310.0,484.0 310.0,491.0 303.0,491.0 303.0,484.0" stroke="#000000" stroke-width="1"/>
      <polygon fill="#d0d0d0" points="283.0,484.0 283.0,491.0 276.0,491.0 276.0,484.0" stroke="#000000" stroke-width="1"/>
      <polygon fill="#d0d0d0" points="256.0,484.0 256.0,491.0 249.0,491.0 249.0,484.0" stroke="#000000" stroke-width="1"/>
      <polygon fill="#d0d0d0" points="229.0,484.0 229.0,491.0 222.0,491.0 222.0,484.0" stroke="#000000" stroke-width="1"/>
      <polygon fill="#d0d0d0" points="202.0,484.0 202.0,491.0 195.0,491.0 195.0,484.0" stroke="#000000" stroke-width="1"/>
      <polyline fill="none" marker-end="url(#id112)" points="41.0,474.0 59.0,474.0" stroke="#009900" stroke-width="1"/>
      <polyline fill="none" marker-end="url(#id112)" points="760.0,451.0 743.0,451.0" stroke="#009900" stroke-width="1"/>
      <polyline fill="none" marker-end="url(#id112)" points="59.0,421.0 41.0,421.0" stroke="#ff0000" stroke-width="1"/>
      <polyline fill="none" marker-end="url(#id112)" points="743.0,503.0 760.0,503.0" stroke="#ff0000" stroke-width="1"/>
      <text fill="#00afaf" font-family="Arial" font-size="15.0" stroke="none" stroke-width="0" x="99.0" y="335.0">Оболонский проспект &gt;&gt;</text>
      <text fill="#00afaf" font-family="Arial" font-size="15.0" stroke="none" stroke-width="0" x="99.0" y="604.0">&lt;&lt; Оболонский проспект</text>
      <text fill="#00afaf" font-family="Arial" font-size="15.0" stroke="none" stroke-width="0" transform="rotate(360.0,526.0,589.0)" x="526.0" y="604.0">&lt;&lt; Оболонский проспект</text>
      <text fill="#00afaf" font-family="Arial" font-size="15.0" stroke="none" stroke-width="0" transform="rotate(360.0,526.0,320.0)" x="526.0" y="335.0">Оболонский проспект &gt;&gt;</text>
      <text fill="#00afaf" font-family="Arial" font-size="15.0" stroke="none" stroke-width="0" x="-20.0" y="225.0">'ТЦ &quot;Метрополис&quot;'</text>
      <text fill="#00afaf" font-family="Arial" font-size="15.0" stroke="none" stroke-width="0" transform="rotate(90.0,421.0,68.0)" x="421.0" y="83.0">улица Маршала Малиновского</text>
      <text fill="#00afaf" font-family="Arial" font-size="15.0" stroke="none" stroke-width="0" transform="rotate(90.0,421.0,668.0)" x="421.0" y="683.0">улица Маршала Малиновского</text>
    </g>
  </g>
</svg>
