<?xml version="1.0" encoding="utf-8" ?>
<svg baseProfile="full" height="280.0" version="1.1" width="760.0" xmlns="http://www.w3.org/2000/svg" xmlns:ev="http://www.w3.org/2001/xml-events" xmlns:xlink="http://www.w3.org/1999/xlink">
  <defs>
    <marker id="id128" markerHeight="3" markerUnits="strokeWidth" markerWidth="4" orient="auto" refX="0" refY="5" viewBox="0,0,10,10">
      <path d="M 0 0 L 10 5 L 0 10 z"/>
    </marker>
  </defs>
  <g>
    <rect fill="none" height="280.0" stroke="none" stroke-width="0" width="760.0" x="0.0" y="0.0"/>
    <g transform="rotate(5.0,380.0,140.0)">
      <polygon fill="#339933" points="739.0,194.0 739.0,224.0 289.0,224.0 289.0,194.0" stroke="#000000" stroke-width="1"/>
      <polygon fill="#339933" points="739.0,114.0 739.0,84.0 289.0,84.0 289.0,114.0" stroke="#000000" stroke-width="1"/>
      <text fill="#339933" font-family="Arial" font-size="20.0" stroke="none" stroke-width="0" x="290.0" y="80.0">&lt;&lt; Выдубичи</text>
      <text fill="#339933" font-family="Arial" font-size="20.0" stroke="none" stroke-width="0" x="632.0" y="244.0">Осокорки &gt;&gt;</text>
      <text fill="#339933" font-family="Arial" font-size="25.0" stroke="none" stroke-width="0" x="444.0" y="163.0">Славутич</text>
      <polyline fill="none" points="739.0,194.0 739.0,179.0 730.0,179.0 730.0,129.0 739.0,129.0 739.0,114.0 289.0,114.0 289.0,129.0 234.0,129.0" stroke="#000000" stroke-width="1"/>
      <polyline fill="none" points="209.0,178.0 289.0,178.0 289.0,194.0 739.0,194.0" stroke="#000000" stroke-width="1"/>
      <polyline fill="none" points="234.0,129.0 234.0,97.0 153.0,97.0 153.0,32.0 159.0,30.0" stroke="#000000" stroke-width="1"/>
      <polyline fill="none" points="209.0,178.0 209.0,210.0 159.0,210.0 159.0,180.0 153.0,180.0 153.0,275.0 159.0,277.0" stroke="#000000" stroke-width="1"/>
      <polygon fill="#d0d0d0" points="159.0,127.0 159.0,150.0 153.0,150.0 153.0,127.0" stroke="#000000" stroke-width="1"/>
      <polyline fill="none" points="123.0,30.0 129.0,32.0 129.0,275.0 123.0,277.0" stroke="#000000" stroke-width="1"/>
      <line stroke="#000000" stroke-width="1" x1="286.0" x2="286.0" y1="129.0" y2="178.0"/>
      <line stroke="#000000" stroke-width="1" x1="282.0" x2="282.0" y1="129.0" y2="178.0"/>
      <line stroke="#000000" stroke-width="1" x1="278.0" x2="278.0" y1="129.0" y2="178.0"/>
      <line stroke="#000000" stroke-width="1" x1="274.0" x2="274.0" y1="129.0" y2="178.0"/>
      <line stroke="#000000" stroke-width="1" x1="270.0" x2="270.0" y1="129.0" y2="178.0"/>
      <line stroke="#000000" stroke-width="1" x1="266.0" x2="266.0" y1="129.0" y2="178.0"/>
      <line stroke="#000000" stroke-width="1" x1="262.0" x2="262.0" y1="129.0" y2="178.0"/>
      <line stroke="#000000" stroke-width="1" x1="258.0" x2="258.0" y1="129.0" y2="178.0"/>
      <line stroke="#000000" stroke-width="1" x1="254.0" x2="254.0" y1="129.0" y2="178.0"/>
      <line stroke="#000000" stroke-width="1" x1="250.0" x2="250.0" y1="129.0" y2="178.0"/>
      <line stroke="#000000" stroke-width="1" x1="246.0" x2="246.0" y1="129.0" y2="178.0"/>
      <line stroke="#000000" stroke-width="1" x1="242.0" x2="242.0" y1="129.0" y2="178.0"/>
      <line stroke="#000000" stroke-width="1" x1="238.0" x2="238.0" y1="129.0" y2="178.0"/>
      <polyline fill="none" points="191.0,130.0 160.0,130.0" stroke="#000000" stroke-width="0.5"/>
      <polygon fill="none" points="213.0,175.0 211.0,171.0 207.0,173.0 209.0,177.0" stroke="#000000" stroke-width="1"/>
      <line stroke="#009900" stroke-width="1" x1="187.0" x2="192.0" y1="135.0" y2="132.0"/>
      <line stroke="#009900" stroke-width="1" x1="188.78885438199984" x2="193.78885438199984" y1="138.57770876399965" y2="135.57770876399965"/>
      <line stroke="#009900" stroke-width="1" x1="190.57770876399968" x2="195.57770876399968" y1="142.1554175279993" y2="139.1554175279993"/>
      <line stroke="#009900" stroke-width="1" x1="192.36656314599952" x2="197.36656314599952" y1="145.73312629199896" y2="142.73312629199896"/>
      <line stroke="#009900" stroke-width="1" x1="194.15541752799936" x2="199.15541752799936" y1="149.3108350559986" y2="146.3108350559986"/>
      <line stroke="#009900" stroke-width="1" x1="195.9442719099992" x2="200.9442719099992" y1="152.88854381999826" y2="149.88854381999826"/>
      <line stroke="#009900" stroke-width="1" x1="197.73312629199904" x2="202.73312629199904" y1="156.4662525839979" y2="153.4662525839979"/>
      <line stroke="#009900" stroke-width="1" x1="199.52198067399888" x2="204.52198067399888" y1="160.04396134799757" y2="157.04396134799757"/>
      <line stroke="#009900" stroke-width="1" x1="201.31083505599872" x2="206.31083505599872" y1="163.62167011199722" y2="160.62167011199722"/>
      <line stroke="#009900" stroke-width="1" x1="203.09968943799856" x2="208.09968943799856" y1="167.19937887599687" y2="164.19937887599687"/>
      <line stroke="#009900" stroke-width="1" x1="204.8885438199984" x2="209.8885438199984" y1="170.77708763999652" y2="167.77708763999652"/>
      <line stroke="#ff0000" stroke-width="1" x1="184.0" x2="190.0" y1="101.0" y2="101.0"/>
      <line stroke="#ff0000" stroke-width="1" x1="184.0" x2="190.0" y1="105.0" y2="105.0"/>
      <line stroke="#ff0000" stroke-width="1" x1="184.0" x2="190.0" y1="109.0" y2="109.0"/>
      <line stroke="#ff0000" stroke-width="1" x1="184.0" x2="190.0" y1="113.0" y2="113.0"/>
      <line stroke="#ff0000" stroke-width="1" x1="184.0" x2="190.0" y1="117.0" y2="117.0"/>
      <line stroke="#ff0000" stroke-width="1" x1="184.0" x2="190.0" y1="121.0" y2="121.0"/>
      <line stroke="#ff0000" stroke-width="1" x1="184.0" x2="190.0" y1="125.0" y2="125.0"/>
      <polyline fill="none" points="209.0,180.0 219.0,180.0 219.0,209.0 209.0,209.0" stroke="#000000" stroke-width="1"/>
      <text fill="#000000" font-family="Arial" font-size="10.0" stroke="none" stroke-width="0" transform="rotate(-90.0,207.0,207.0)" x="207.0" y="217.0">кассы</text>
      <polygon fill="#d0d0d0" points="715.0,129.0 715.0,136.0 708.0,136.0 708.0,129.0" stroke="#000000" stroke-width="1"/>
      <polygon fill="#d0d0d0" points="688.0,129.0 688.0,136.0 681.0,136.0 681.0,129.0" stroke="#000000" stroke-width="1"/>
      <polygon fill="#d0d0d0" points="661.0,129.0 661.0,136.0 654.0,136.0 654.0,129.0" stroke="#000000" stroke-width="1"/>
      <polygon fill="#d0d0d0" points="634.0,129.0 634.0,136.0 627.0,136.0 627.0,129.0" stroke="#000000" stroke-width="1"/>
      <polygon fill="#d0d0d0" points="607.0,129.0 607.0,136.0 600.0,136.0 600.0,129.0" stroke="#000000" stroke-width="1"/>
      <polygon fill="#d0d0d0" points="580.0,129.0 580.0,136.0 573.0,136.0 573.0,129.0" stroke="#000000" stroke-width="1"/>
      <polygon fill="#d0d0d0" points="553.0,129.0 553.0,136.0 546.0,136.0 546.0,129.0" stroke="#000000" stroke-width="1"/>
      <polygon fill="#d0d0d0" points="526.0,129.0 526.0,136.0 519.0,136.0 519.0,129.0" stroke="#000000" stroke-width="1"/>
      <polygon fill="#d0d0d0" points="499.0,129.0 499.0,136.0 492.0,136.0 492.0,129.0" stroke="#000000" stroke-width="1"/>
      <polygon fill="#d0d0d0" points="472.0,129.0 472.0,136.0 465.0,136.0 465.0,129.0" stroke="#000000" stroke-width="1"/>
      <polygon fill="#d0d0d0" points="445.0,129.0 445.0,136.0 438.0,136.0 438.0,129.0" stroke="#000000" stroke-width="1"/>
      <polygon fill="#d0d0d0" points="418.0,129.0 418.0,136.0 411.0,136.0 411.0,129.0" stroke="#000000" stroke-width="1"/>
      <polygon fill="#d0d0d0" points="391.0,129.0 391.0,136.0 384.0,136.0 384.0,129.0" stroke="#000000" stroke-width="1"/>
      <polygon fill="#d0d0d0" points="364.0,129.0 364.0,136.0 357.0,136.0 357.0,129.0" stroke="#000000" stroke-width="1"/>
      <polygon fill="#d0d0d0" points="337.0,129.0 337.0,136.0 330.0,136.0 330.0,129.0" stroke="#000000" stroke-width="1"/>
      <polygon fill="#d0d0d0" points="310.0,129.0 310.0,136.0 303.0,136.0 303.0,129.0" stroke="#000000" stroke-width="1"/>
      <polygon fill="#d0d0d0" points="715.0,172.0 715.0,179.0 708.0,179.0 708.0,172.0" stroke="#000000" stroke-width="1"/>
      <polygon fill="#d0d0d0" points="688.0,172.0 688.0,179.0 681.0,179.0 681.0,172.0" stroke="#000000" stroke-width="1"/>
      <polygon fill="#d0d0d0" points="661.0,172.0 661.0,179.0 654.0,179.0 654.0,172.0" stroke="#000000" stroke-width="1"/>
      <polygon fill="#d0d0d0" points="634.0,172.0 634.0,179.0 627.0,179.0 627.0,172.0" stroke="#000000" stroke-width="1"/>
      <polygon fill="#d0d0d0" points="607.0,172.0 607.0,179.0 600.0,179.0 600.0,172.0" stroke="#000000" stroke-width="1"/>
      <polygon fill="#d0d0d0" points="580.0,172.0 580.0,179.0 573.0,179.0 573.0,172.0" stroke="#000000" stroke-width="1"/>
      <polygon fill="#d0d0d0" points="553.0,172.0 553.0,179.0 546.0,179.0 546.0,172.0" stroke="#000000" stroke-width="1"/>
      <polygon fill="#d0d0d0" points="526.0,172.0 526.0,179.0 519.0,179.0 519.0,172.0" stroke="#000000" stroke-width="1"/>
      <polygon fill="#d0d0d0" points="499.0,172.0 499.0,179.0 492.0,179.0 492.0,172.0" stroke="#000000" stroke-width="1"/>
      <polygon fill="#d0d0d0" points="472.0,172.0 472.0,179.0 465.0,179.0 465.0,172.0" stroke="#000000" stroke-width="1"/>
      <polygon fill="#d0d0d0" points="445.0,172.0 445.0,179.0 438.0,179.0 438.0,172.0" stroke="#000000" stroke-width="1"/>
      <polygon fill="#d0d0d0" points="418.0,172.0 418.0,179.0 411.0,179.0 411.0,172.0" stroke="#000000" stroke-width="1"/>
      <polygon fill="#d0d0d0" points="391.0,172.0 391.0,179.0 384.0,179.0 384.0,172.0" stroke="#000000" stroke-width="1"/>
      <polygon fill="#d0d0d0" points="364.0,172.0 364.0,179.0 357.0,179.0 357.0,172.0" stroke="#000000" stroke-width="1"/>
      <polygon fill="#d0d0d0" points="337.0,172.0 337.0,179.0 330.0,179.0 330.0,172.0" stroke="#000000" stroke-width="1"/>
      <polygon fill="#d0d0d0" points="310.0,172.0 310.0,179.0 303.0,179.0 303.0,172.0" stroke="#000000" stroke-width="1"/>
      <polyline fill="none" marker-end="url(#id128)" points="152.0,165.0 170.0,165.0" stroke="#009900" stroke-width="1"/>
      <polyline fill="none" marker-end="url(#id128)" points="170.0,112.0 152.0,112.0" stroke="#ff0000" stroke-width="1"/>
      <text fill="#00afaf" font-family="Arial" font-size="15.0" stroke="none" stroke-width="0" transform="rotate(-5.0,31.0,143.0)" x="31.0" y="158.0">проспект</text>
      <text fill="#00afaf" font-family="Arial" font-size="15.0" stroke="none" stroke-width="0" transform="rotate(-5.0,9.0,157.0)" x="9.0" y="172.0">Миколы Бажана</text>
    </g>
  </g>
</svg>
