<?xml version="1.0" encoding="utf-8" ?>
<svg baseProfile="full" height="100%" version="1.1" width="100%" xmlns="http://www.w3.org/2000/svg" xmlns:ev="http://www.w3.org/2001/xml-events" xmlns:xlink="http://www.w3.org/1999/xlink">
  <defs>
    <marker id="id136" markerHeight="3" markerUnits="strokeWidth" markerWidth="4" orient="auto" refX="0" refY="5" viewBox="0,0,10,10">
      <path d="M 0 0 L 10 5 L 0 10 z"/>
    </marker>
  </defs>
  <g transform="scale(0.5)">
    <rect fill="none" height="500" stroke="none" stroke-width="0" width="980" x="0" y="0"/>
    <g transform="rotate(-14.0,490,250)">
      <polygon fill="#333399" points="253,295 253,325 703,325 703,295" stroke="#000000" stroke-width="1"/>
      <polygon fill="#333399" points="253,215 253,185 703,185 703,215" stroke="#000000" stroke-width="1"/>
      <text fill="#333399" font-family="Arial" font-size="25" stroke="none" stroke-width="0" x="373" y="262.0">Васильковская</text>
      <text fill="#333399" font-family="Arial" font-size="20" stroke="none" stroke-width="0" x="253" y="182.0">&lt;&lt; Выставочный центр</text>
      <text fill="#333399" font-family="Arial" font-size="20" stroke="none" stroke-width="0" x="556" y="345.0">Голосеевская &gt;&gt;</text>
      <polyline fill="none" points="703,295 703,286 724,286 724,325 799,325 799,394 947,394" stroke="#000000" stroke-width="1"/>
      <polyline fill="none" points="703,215 703,224 724,224 724,185 799,185 799,104 730,104" stroke="#000000" stroke-width="1"/>
      <polygon fill="#d0d0d0" points="792,288 792,222 799,222 799,288" stroke="#000000" stroke-width="1"/>
      <polyline fill="none" points="703,286 655,286" stroke="#000000" stroke-width="1"/>
      <polyline fill="none" points="703,224 655,224" stroke="#000000" stroke-width="1"/>
      <polyline fill="none" points="703,263 655,263" stroke="#000000" stroke-width="1"/>
      <polyline fill="none" points="703,247 655,247" stroke="#000000" stroke-width="1"/>
      <line stroke="#000000" stroke-width="1" x1="701" x2="701" y1="286" y2="263"/>
      <line stroke="#000000" stroke-width="1" x1="697" x2="697" y1="286" y2="263"/>
      <line stroke="#000000" stroke-width="1" x1="693" x2="693" y1="286" y2="263"/>
      <line stroke="#000000" stroke-width="1" x1="689" x2="689" y1="286" y2="263"/>
      <line stroke="#000000" stroke-width="1" x1="685" x2="685" y1="286" y2="263"/>
      <line stroke="#000000" stroke-width="1" x1="681" x2="681" y1="286" y2="263"/>
      <line stroke="#000000" stroke-width="1" x1="677" x2="677" y1="286" y2="263"/>
      <line stroke="#000000" stroke-width="1" x1="673" x2="673" y1="286" y2="263"/>
      <line stroke="#000000" stroke-width="1" x1="669" x2="669" y1="286" y2="263"/>
      <line stroke="#000000" stroke-width="1" x1="665" x2="665" y1="286" y2="263"/>
      <line stroke="#000000" stroke-width="1" x1="661" x2="661" y1="286" y2="263"/>
      <line stroke="#000000" stroke-width="1" x1="657" x2="657" y1="286" y2="263"/>
      <line stroke="#000000" stroke-width="1" x1="701" x2="701" y1="224" y2="247"/>
      <line stroke="#000000" stroke-width="1" x1="697" x2="697" y1="224" y2="247"/>
      <line stroke="#000000" stroke-width="1" x1="693" x2="693" y1="224" y2="247"/>
      <line stroke="#000000" stroke-width="1" x1="689" x2="689" y1="224" y2="247"/>
      <line stroke="#000000" stroke-width="1" x1="685" x2="685" y1="224" y2="247"/>
      <line stroke="#000000" stroke-width="1" x1="681" x2="681" y1="224" y2="247"/>
      <line stroke="#000000" stroke-width="1" x1="677" x2="677" y1="224" y2="247"/>
      <line stroke="#000000" stroke-width="1" x1="673" x2="673" y1="224" y2="247"/>
      <line stroke="#000000" stroke-width="1" x1="669" x2="669" y1="224" y2="247"/>
      <line stroke="#000000" stroke-width="1" x1="665" x2="665" y1="224" y2="247"/>
      <line stroke="#000000" stroke-width="1" x1="661" x2="661" y1="224" y2="247"/>
      <line stroke="#000000" stroke-width="1" x1="657" x2="657" y1="224" y2="247"/>
      <polyline fill="none" points="730,85 819,85 819,375 947,375" stroke="#000000" stroke-width="1"/>
      <line stroke="#000000" stroke-width="1" x1="945" x2="945" y1="394" y2="375"/>
      <line stroke="#000000" stroke-width="1" x1="941" x2="941" y1="394" y2="375"/>
      <line stroke="#000000" stroke-width="1" x1="937" x2="937" y1="394" y2="375"/>
      <line stroke="#000000" stroke-width="1" x1="933" x2="933" y1="394" y2="375"/>
      <line stroke="#000000" stroke-width="1" x1="929" x2="929" y1="394" y2="375"/>
      <line stroke="#000000" stroke-width="1" x1="925" x2="925" y1="394" y2="375"/>
      <line stroke="#000000" stroke-width="1" x1="921" x2="921" y1="394" y2="375"/>
      <line stroke="#000000" stroke-width="1" x1="917" x2="917" y1="394" y2="375"/>
      <line stroke="#000000" stroke-width="1" x1="913" x2="913" y1="394" y2="375"/>
      <line stroke="#000000" stroke-width="1" x1="909" x2="909" y1="394" y2="375"/>
      <line stroke="#000000" stroke-width="1" x1="905" x2="905" y1="394" y2="375"/>
      <line stroke="#000000" stroke-width="1" x1="901" x2="901" y1="394" y2="375"/>
      <line stroke="#000000" stroke-width="1" x1="732" x2="732" y1="104" y2="85"/>
      <line stroke="#000000" stroke-width="1" x1="736" x2="736" y1="104" y2="85"/>
      <line stroke="#000000" stroke-width="1" x1="740" x2="740" y1="104" y2="85"/>
      <line stroke="#000000" stroke-width="1" x1="744" x2="744" y1="104" y2="85"/>
      <line stroke="#000000" stroke-width="1" x1="748" x2="748" y1="104" y2="85"/>
      <line stroke="#000000" stroke-width="1" x1="752" x2="752" y1="104" y2="85"/>
      <line stroke="#000000" stroke-width="1" x1="756" x2="756" y1="104" y2="85"/>
      <line stroke="#000000" stroke-width="1" x1="760" x2="760" y1="104" y2="85"/>
      <line stroke="#000000" stroke-width="1" x1="764" x2="764" y1="104" y2="85"/>
      <line stroke="#000000" stroke-width="1" x1="768" x2="768" y1="104" y2="85"/>
      <line stroke="#000000" stroke-width="1" x1="772" x2="772" y1="104" y2="85"/>
      <line stroke="#000000" stroke-width="1" x1="776" x2="776" y1="104" y2="85"/>
      <polygon fill="none" points="768,234 763,231 766,226 771,229" stroke="#000000" stroke-width="1"/>
      <line stroke="#009900" stroke-width="1" x1="761" x2="766" y1="235" y2="238"/>
      <line stroke="#009900" stroke-width="1" x1="758.894581542" x2="763.894581542" y1="238.401060587" y2="241.401060587"/>
      <line stroke="#009900" stroke-width="1" x1="756.789163083" x2="761.789163083" y1="241.802121174" y2="244.802121174"/>
      <line stroke="#009900" stroke-width="1" x1="754.683744625" x2="759.683744625" y1="245.20318176" y2="248.20318176"/>
      <line stroke="#009900" stroke-width="1" x1="752.578326166" x2="757.578326166" y1="248.604242347" y2="251.604242347"/>
      <line stroke="#009900" stroke-width="1" x1="750.472907708" x2="755.472907708" y1="252.005302934" y2="255.005302934"/>
      <line stroke="#009900" stroke-width="1" x1="748.367489249" x2="753.367489249" y1="255.406363521" y2="258.406363521"/>
      <line stroke="#009900" stroke-width="1" x1="746.262070791" x2="751.262070791" y1="258.807424107" y2="261.807424107"/>
      <line stroke="#009900" stroke-width="1" x1="744.156652332" x2="749.156652332" y1="262.208484694" y2="265.208484694"/>
      <line stroke="#009900" stroke-width="1" x1="742.051233874" x2="747.051233874" y1="265.609545281" y2="268.609545281"/>
      <line stroke="#009900" stroke-width="1" x1="739.945815415" x2="744.945815415" y1="269.010605868" y2="272.010605868"/>
      <line stroke="#009900" stroke-width="1" x1="737.840396957" x2="742.840396957" y1="272.411666454" y2="275.411666454"/>
      <line stroke="#009900" stroke-width="1" x1="735.734978498" x2="740.734978498" y1="275.812727041" y2="278.812727041"/>
      <line stroke="#ff0000" stroke-width="1" x1="758" x2="764" y1="189" y2="189"/>
      <line stroke="#ff0000" stroke-width="1" x1="758" x2="764" y1="193" y2="193"/>
      <line stroke="#ff0000" stroke-width="1" x1="758" x2="764" y1="197" y2="197"/>
      <line stroke="#ff0000" stroke-width="1" x1="758" x2="764" y1="201" y2="201"/>
      <line stroke="#ff0000" stroke-width="1" x1="758" x2="764" y1="205" y2="205"/>
      <line stroke="#ff0000" stroke-width="1" x1="758" x2="764" y1="209" y2="209"/>
      <line stroke="#ff0000" stroke-width="1" x1="758" x2="764" y1="213" y2="213"/>
      <line stroke="#ff0000" stroke-width="1" x1="758" x2="764" y1="217" y2="217"/>
      <line stroke="#ff0000" stroke-width="1" x1="758" x2="764" y1="221" y2="221"/>
      <polyline fill="none" points="771,224 758,224" stroke="#000000" stroke-width="0.5"/>
      <polyline fill="none" points="738,278 724,290" stroke="#000000" stroke-width="0.5"/>
      <polyline fill="none" points="724,322 712,322 712,290 724,290" stroke="#000000" stroke-width="1"/>
      <text fill="#000000" font-family="Arial" font-size="10" stroke="none" stroke-width="0" transform="rotate(-270.0,725,293)" x="725" y="303.0">кассы</text>
      <polyline fill="none" points="253,295 253,286 232,286 232,325 157,325 157,392 66,392" stroke="#000000" stroke-width="1"/>
      <polyline fill="none" points="253,215 253,224 232,224 232,185 154,185 154,126 29,126" stroke="#000000" stroke-width="1"/>
      <polygon fill="#d0d0d0" points="164,288 164,222 157,222 157,288" stroke="#000000" stroke-width="1"/>
      <polyline fill="none" points="253,286 301,286" stroke="#000000" stroke-width="1"/>
      <polyline fill="none" points="253,224 301,224" stroke="#000000" stroke-width="1"/>
      <polyline fill="none" points="253,263 301,263" stroke="#000000" stroke-width="1"/>
      <polyline fill="none" points="253,247 301,247" stroke="#000000" stroke-width="1"/>
      <line stroke="#000000" stroke-width="1" x1="255" x2="255" y1="286" y2="263"/>
      <line stroke="#000000" stroke-width="1" x1="259" x2="259" y1="286" y2="263"/>
      <line stroke="#000000" stroke-width="1" x1="263" x2="263" y1="286" y2="263"/>
      <line stroke="#000000" stroke-width="1" x1="267" x2="267" y1="286" y2="263"/>
      <line stroke="#000000" stroke-width="1" x1="271" x2="271" y1="286" y2="263"/>
      <line stroke="#000000" stroke-width="1" x1="275" x2="275" y1="286" y2="263"/>
      <line stroke="#000000" stroke-width="1" x1="279" x2="279" y1="286" y2="263"/>
      <line stroke="#000000" stroke-width="1" x1="283" x2="283" y1="286" y2="263"/>
      <line stroke="#000000" stroke-width="1" x1="287" x2="287" y1="286" y2="263"/>
      <line stroke="#000000" stroke-width="1" x1="291" x2="291" y1="286" y2="263"/>
      <line stroke="#000000" stroke-width="1" x1="295" x2="295" y1="286" y2="263"/>
      <line stroke="#000000" stroke-width="1" x1="299" x2="299" y1="286" y2="263"/>
      <line stroke="#000000" stroke-width="1" x1="255" x2="255" y1="224" y2="247"/>
      <line stroke="#000000" stroke-width="1" x1="259" x2="259" y1="224" y2="247"/>
      <line stroke="#000000" stroke-width="1" x1="263" x2="263" y1="224" y2="247"/>
      <line stroke="#000000" stroke-width="1" x1="267" x2="267" y1="224" y2="247"/>
      <line stroke="#000000" stroke-width="1" x1="271" x2="271" y1="224" y2="247"/>
      <line stroke="#000000" stroke-width="1" x1="275" x2="275" y1="224" y2="247"/>
      <line stroke="#000000" stroke-width="1" x1="279" x2="279" y1="224" y2="247"/>
      <line stroke="#000000" stroke-width="1" x1="283" x2="283" y1="224" y2="247"/>
      <line stroke="#000000" stroke-width="1" x1="287" x2="287" y1="224" y2="247"/>
      <line stroke="#000000" stroke-width="1" x1="291" x2="291" y1="224" y2="247"/>
      <line stroke="#000000" stroke-width="1" x1="295" x2="295" y1="224" y2="247"/>
      <line stroke="#000000" stroke-width="1" x1="299" x2="299" y1="224" y2="247"/>
      <polyline fill="none" points="66,373 137,373 137,141 29,141" stroke="#000000" stroke-width="1"/>
      <polyline fill="none" points="137,385 150,385 150,359" stroke="#000000" stroke-width="1"/>
      <line stroke="#000000" stroke-width="1" x1="68" x2="68" y1="392" y2="373"/>
      <line stroke="#000000" stroke-width="1" x1="72" x2="72" y1="392" y2="373"/>
      <line stroke="#000000" stroke-width="1" x1="76" x2="76" y1="392" y2="373"/>
      <line stroke="#000000" stroke-width="1" x1="80" x2="80" y1="392" y2="373"/>
      <line stroke="#000000" stroke-width="1" x1="84" x2="84" y1="392" y2="373"/>
      <line stroke="#000000" stroke-width="1" x1="88" x2="88" y1="392" y2="373"/>
      <line stroke="#000000" stroke-width="1" x1="92" x2="92" y1="392" y2="373"/>
      <line stroke="#000000" stroke-width="1" x1="96" x2="96" y1="392" y2="373"/>
      <line stroke="#000000" stroke-width="1" x1="100" x2="100" y1="392" y2="373"/>
      <line stroke="#000000" stroke-width="1" x1="104" x2="104" y1="392" y2="373"/>
      <line stroke="#000000" stroke-width="1" x1="108" x2="108" y1="392" y2="373"/>
      <line stroke="#000000" stroke-width="1" x1="112" x2="112" y1="392" y2="373"/>
      <line stroke="#000000" stroke-width="1" x1="137" x2="150" y1="372" y2="372"/>
      <line stroke="#000000" stroke-width="1" x1="137" x2="150" y1="368" y2="368"/>
      <line stroke="#000000" stroke-width="1" x1="137" x2="150" y1="364" y2="364"/>
      <line stroke="#000000" stroke-width="1" x1="137" x2="150" y1="360" y2="360"/>
      <line stroke="#000000" stroke-width="1" x1="31" x2="31" y1="141" y2="126"/>
      <line stroke="#000000" stroke-width="1" x1="35" x2="35" y1="141" y2="126"/>
      <line stroke="#000000" stroke-width="1" x1="39" x2="39" y1="141" y2="126"/>
      <line stroke="#000000" stroke-width="1" x1="43" x2="43" y1="141" y2="126"/>
      <line stroke="#000000" stroke-width="1" x1="47" x2="47" y1="141" y2="126"/>
      <line stroke="#000000" stroke-width="1" x1="51" x2="51" y1="141" y2="126"/>
      <line stroke="#000000" stroke-width="1" x1="55" x2="55" y1="141" y2="126"/>
      <line stroke="#000000" stroke-width="1" x1="59" x2="59" y1="141" y2="126"/>
      <line stroke="#000000" stroke-width="1" x1="63" x2="63" y1="141" y2="126"/>
      <line stroke="#000000" stroke-width="1" x1="67" x2="67" y1="141" y2="126"/>
      <line stroke="#000000" stroke-width="1" x1="71" x2="71" y1="141" y2="126"/>
      <line stroke="#000000" stroke-width="1" x1="75" x2="75" y1="141" y2="126"/>
      <polygon fill="none" points="189,233 194,230 191,225 186,228" stroke="#000000" stroke-width="1"/>
      <line stroke="#009900" stroke-width="1" x1="191" x2="196" y1="237" y2="234"/>
      <line stroke="#009900" stroke-width="1" x1="193.045935439" x2="198.045935439" y1="240.437171538" y2="237.437171538"/>
      <line stroke="#009900" stroke-width="1" x1="195.091870878" x2="200.091870878" y1="243.874343075" y2="240.874343075"/>
      <line stroke="#009900" stroke-width="1" x1="197.137806317" x2="202.137806317" y1="247.311514613" y2="244.311514613"/>
      <line stroke="#009900" stroke-width="1" x1="199.183741756" x2="204.183741756" y1="250.748686151" y2="247.748686151"/>
      <line stroke="#009900" stroke-width="1" x1="201.229677195" x2="206.229677195" y1="254.185857688" y2="251.185857688"/>
      <line stroke="#009900" stroke-width="1" x1="203.275612634" x2="208.275612634" y1="257.623029226" y2="254.623029226"/>
      <line stroke="#009900" stroke-width="1" x1="205.321548073" x2="210.321548073" y1="261.060200763" y2="258.060200763"/>
      <line stroke="#009900" stroke-width="1" x1="207.367483513" x2="212.367483513" y1="264.497372301" y2="261.497372301"/>
      <line stroke="#009900" stroke-width="1" x1="209.413418952" x2="214.413418952" y1="267.934543839" y2="264.934543839"/>
      <line stroke="#009900" stroke-width="1" x1="211.459354391" x2="216.459354391" y1="271.371715376" y2="268.371715376"/>
      <line stroke="#009900" stroke-width="1" x1="213.50528983" x2="218.50528983" y1="274.808886914" y2="271.808886914"/>
      <line stroke="#009900" stroke-width="1" x1="215.551225269" x2="220.551225269" y1="278.246058452" y2="275.246058452"/>
      <line stroke="#ff0000" stroke-width="1" x1="193" x2="198" y1="189" y2="189"/>
      <line stroke="#ff0000" stroke-width="1" x1="193" x2="198" y1="193" y2="193"/>
      <line stroke="#ff0000" stroke-width="1" x1="193" x2="198" y1="197" y2="197"/>
      <line stroke="#ff0000" stroke-width="1" x1="193" x2="198" y1="201" y2="201"/>
      <line stroke="#ff0000" stroke-width="1" x1="193" x2="198" y1="205" y2="205"/>
      <line stroke="#ff0000" stroke-width="1" x1="193" x2="198" y1="209" y2="209"/>
      <line stroke="#ff0000" stroke-width="1" x1="193" x2="198" y1="213" y2="213"/>
      <line stroke="#ff0000" stroke-width="1" x1="193" x2="198" y1="217" y2="217"/>
      <line stroke="#ff0000" stroke-width="1" x1="193" x2="198" y1="221" y2="221"/>
      <polyline fill="none" points="186,224 199,224" stroke="#000000" stroke-width="0.5"/>
      <polyline fill="none" points="219,278 232,286" stroke="#000000" stroke-width="0.5"/>
      <polyline fill="none" points="232,322 244,322 244,290 232,290" stroke="#000000" stroke-width="1"/>
      <text fill="#000000" font-family="Arial" font-size="10" stroke="none" stroke-width="0" transform="rotate(-270.0,245,293)" x="245" y="303.0">кассы</text>
      <polygon fill="#d0efff" points="671,247 687,247 687,263 671,263" stroke="#000000" stroke-width="1"/>
      <polygon fill="#d0efff" points="783,132 799,132 799,116 783,116" stroke="#000000" stroke-width="1"/>
      <polygon fill="#d0efff" points="859,375 875,375 875,359 859,359" stroke="#000000" stroke-width="1"/>
      <text fill="#000000" font-family="Arial" font-size="6.5" stroke="none" stroke-width="0" x="672" y="257.5">лифт</text>
      <text fill="#000000" font-family="Arial" font-size="6.5" stroke="none" stroke-width="0" x="784" y="126.5">лифт</text>
      <text fill="#000000" font-family="Arial" font-size="6.5" stroke="none" stroke-width="0" x="860" y="369.5">лифт</text>
      <polygon fill="#d0efff" points="269,247 285,247 285,263 269,263" stroke="#000000" stroke-width="1"/>
      <text fill="#000000" font-family="Arial" font-size="6.5" stroke="none" stroke-width="0" x="270" y="257.5">лифт</text>
      <polyline fill="none" marker-end="url(#id136)" points="802,303 783,303" stroke="#009900" stroke-width="1"/>
      <polyline fill="none" marker-end="url(#id136)" points="155,307 174,307" stroke="#009900" stroke-width="1"/>
      <polyline fill="none" marker-end="url(#id136)" points="783,204 802,204" stroke="#ff0000" stroke-width="1"/>
      <polyline fill="none" marker-end="url(#id136)" points="173,204 154,204" stroke="#ff0000" stroke-width="1"/>
      <text fill="#00afaf" font-family="Arial" font-size="15" stroke="none" stroke-width="0" x="10" y="253.0">Васильковская</text>
      <text fill="#00afaf" font-family="Arial" font-size="15" stroke="none" stroke-width="0" x="46" y="270.0">улица</text>
      <text fill="#00afaf" font-family="Arial" font-size="15" stroke="none" stroke-width="0" x="842" y="252.0">Васильковская</text>
      <text fill="#00afaf" font-family="Arial" font-size="15" stroke="none" stroke-width="0" x="877" y="270.0">улица</text>
    </g>
  </g>
</svg>
