<svg xmlns="http://www.w3.org/2000/svg" version="1.1">
<defs>
    <marker id="arrow"
      viewBox="0 0 10 10" refX="0" refY="5"
      markerUnits="strokeWidth"
      markerWidth="4" markerHeight="3"
      orient="auto">
      <path d="M 0 0 L 10 5 L 0 10 z" />
    </marker>
  </defs>
<g stroke="#000000" fill="none" stroke-opacity="1.0" fill-opacity="1.0" transform="scale(0.5)">
<rect x="0" y="0" width="1190" height="1050" stroke-width="0" fill="none" />
<g stroke="#000000" fill="none" stroke-opacity="1.0" fill-opacity="1.0" transform="scale(0.5)">
</g>
<g transform="rotate(40.0 595 525)" >
<g stroke="#000000" fill="none" stroke-opacity="1.0" fill-opacity="1.0" transform="scale(0.5)">
</g>
<g stroke="#000000" fill="#339933" stroke-opacity="1.0" fill-opacity="1.0" transform="scale(0.5)">
<polygon points="218,526  218,496  668,496  668,526" stroke-width="1" />
<polygon points="218,606  218,636  668,636  668,606" stroke-width="1" />
</g>
<g stroke="#339933" fill="none" stroke-opacity="1.0" fill-opacity="1.0" transform="scale(0.5)">
<text x=" 218" y="492.0" font-family="Arial" font-size=" 20" fill="#339933" transform="rotate(-360.0  218  472)" stroke-width="0">&lt;&lt; Дружбы народов</text>
<text x=" 564" y="656.0" font-family="Arial" font-size=" 20" fill="#339933" transform="rotate(-360.0  564  636)" stroke-width="0">Славутич &gt;&gt;</text>
<text x=" 375" y="572.0" font-family="Arial" font-size=" 25" fill="#339933" transform="rotate(-360.0  375  547)" stroke-width="0">Выдубичи</text>
</g>
<g stroke="#000000" fill="none" stroke-opacity="1.0" fill-opacity="1.0" transform="scale(0.5)">
<polyline points="218,526  218,534  220,534  220,541  143,541" stroke-width="1" fill="none"  />
<polyline points="168,590  220,590  220,597  218,597  218,606" stroke-width="1" fill="none"  />
<polyline points="668,606  668,597  666,597  666,590  717,590" stroke-width="1" fill="none"  />
<polyline points="742,541  666,541  666,534  668,534  668,526" stroke-width="1" fill="none"  />
</g>
<g stroke="#000000" fill="#D0D0D0" stroke-opacity="1.0" fill-opacity="1.0" transform="scale(0.5)">
<polyline points="717,590  717,622  798,622  798,774  816,862  999,856  999,781" stroke-width="1" fill="none"  />
<polyline points="742,541  742,509  792,509  792,539  798,539  798,509  798,468  636,468  624,435  663,389" stroke-width="1" fill="none"  />
<line x1="669" y1="590" x2="669" y2="541" stroke-width="1" />
<line x1="673" y1="590" x2="673" y2="541" stroke-width="1" />
<line x1="677" y1="590" x2="677" y2="541" stroke-width="1" />
<line x1="681" y1="590" x2="681" y2="541" stroke-width="1" />
<line x1="685" y1="590" x2="685" y2="541" stroke-width="1" />
<line x1="689" y1="590" x2="689" y2="541" stroke-width="1" />
<line x1="693" y1="590" x2="693" y2="541" stroke-width="1" />
<line x1="697" y1="590" x2="697" y2="541" stroke-width="1" />
<line x1="701" y1="590" x2="701" y2="541" stroke-width="1" />
<line x1="705" y1="590" x2="705" y2="541" stroke-width="1" />
<line x1="709" y1="590" x2="709" y2="541" stroke-width="1" />
<line x1="713" y1="590" x2="713" y2="541" stroke-width="1" />
<polygon points="792,592  792,569  798,569  798,592" stroke-width="1" />
<polyline points="976,781  976,833  835,838  822,769  822,468  976,381  976,437" stroke-width="1" fill="none"  />
<polyline points="680,403  649,439  651,445  817,445  1060,306  1060,256" stroke-width="1" fill="none"  />
<polyline points="996,437  996,370  1080,322  1080,256" stroke-width="1" fill="none"  />
<line x1="634" y1="424" x2="650" y2="438" stroke-width="1" />
<line x1="636.552071459" y1="420.919913756" x2="652.552071459" y2="434.919913756" stroke-width="1" />
<line x1="639.104142918" y1="417.839827513" x2="655.104142918" y2="431.839827513" stroke-width="1" />
<line x1="641.656214377" y1="414.759741269" x2="657.656214377" y2="428.759741269" stroke-width="1" />
<line x1="644.208285836" y1="411.679655026" x2="660.208285836" y2="425.679655026" stroke-width="1" />
<line x1="646.760357295" y1="408.599568782" x2="662.760357295" y2="422.599568782" stroke-width="1" />
<line x1="649.312428754" y1="405.519482538" x2="665.312428754" y2="419.519482538" stroke-width="1" />
<line x1="651.864500213" y1="402.439396295" x2="667.864500213" y2="416.439396295" stroke-width="1" />
<line x1="654.416571672" y1="399.359310051" x2="670.416571672" y2="413.359310051" stroke-width="1" />
<line x1="656.968643131" y1="396.279223807" x2="672.968643131" y2="410.279223807" stroke-width="1" />
<line x1="659.52071459" y1="393.199137564" x2="675.52071459" y2="407.199137564" stroke-width="1" />
<line x1="662.072786049" y1="390.11905132" x2="678.072786049" y2="404.11905132" stroke-width="1" />
<line x1="976" y1="435" x2="996" y2="435" stroke-width="1" />
<line x1="976" y1="431" x2="996" y2="431" stroke-width="1" />
<line x1="976" y1="427" x2="996" y2="427" stroke-width="1" />
<line x1="976" y1="423" x2="996" y2="423" stroke-width="1" />
<line x1="976" y1="419" x2="996" y2="419" stroke-width="1" />
<line x1="976" y1="415" x2="996" y2="415" stroke-width="1" />
<line x1="976" y1="411" x2="996" y2="411" stroke-width="1" />
<line x1="976" y1="407" x2="996" y2="407" stroke-width="1" />
<line x1="976" y1="403" x2="996" y2="403" stroke-width="1" />
<line x1="976" y1="399" x2="996" y2="399" stroke-width="1" />
<line x1="976" y1="395" x2="996" y2="395" stroke-width="1" />
<line x1="976" y1="391" x2="996" y2="391" stroke-width="1" />
<line x1="1060" y1="302" x2="1080" y2="302" stroke-width="1" />
<line x1="1060" y1="298" x2="1080" y2="298" stroke-width="1" />
<line x1="1060" y1="294" x2="1080" y2="294" stroke-width="1" />
<line x1="1060" y1="290" x2="1080" y2="290" stroke-width="1" />
<line x1="1060" y1="286" x2="1080" y2="286" stroke-width="1" />
<line x1="1060" y1="282" x2="1080" y2="282" stroke-width="1" />
<line x1="1060" y1="278" x2="1080" y2="278" stroke-width="1" />
<line x1="1060" y1="274" x2="1080" y2="274" stroke-width="1" />
<line x1="1060" y1="270" x2="1080" y2="270" stroke-width="1" />
<line x1="1060" y1="266" x2="1080" y2="266" stroke-width="1" />
<line x1="1060" y1="262" x2="1080" y2="262" stroke-width="1" />
<line x1="1060" y1="258" x2="1080" y2="258" stroke-width="1" />
<line x1="976" y1="827" x2="999" y2="827" stroke-width="1" />
<line x1="976" y1="823" x2="999" y2="823" stroke-width="1" />
<line x1="976" y1="819" x2="999" y2="819" stroke-width="1" />
<line x1="976" y1="815" x2="999" y2="815" stroke-width="1" />
<line x1="976" y1="811" x2="999" y2="811" stroke-width="1" />
<line x1="976" y1="807" x2="999" y2="807" stroke-width="1" />
<line x1="976" y1="803" x2="999" y2="803" stroke-width="1" />
<line x1="976" y1="799" x2="999" y2="799" stroke-width="1" />
<line x1="976" y1="795" x2="999" y2="795" stroke-width="1" />
<line x1="976" y1="791" x2="999" y2="791" stroke-width="1" />
<line x1="976" y1="787" x2="999" y2="787" stroke-width="1" />
<line x1="976" y1="783" x2="999" y2="783" stroke-width="1" />
</g>
<g stroke="#000000" fill="none" stroke-opacity="1.0" fill-opacity="1.0" transform="scale(0.5)">
<polyline points="760,590  792,590" stroke-width=" 0.5" fill="none"  />
<polygon points="738,544  740,548  744,546  742,542" stroke-width="1" />
</g>
<g stroke="#009900" fill="none" stroke-opacity="1.0" fill-opacity="1.0" transform="scale(0.5)">
<line x1="741" y1="551" x2="746" y2="548" stroke-width="1" />
<line x1="742.670000686" y1="554.634707376" x2="747.670000686" y2="551.634707376" stroke-width="1" />
<line x1="744.340001372" y1="558.269414752" x2="749.340001372" y2="555.269414752" stroke-width="1" />
<line x1="746.010002059" y1="561.904122128" x2="751.010002059" y2="558.904122128" stroke-width="1" />
<line x1="747.680002745" y1="565.538829503" x2="752.680002745" y2="562.538829503" stroke-width="1" />
<line x1="749.350003431" y1="569.173536879" x2="754.350003431" y2="566.173536879" stroke-width="1" />
<line x1="751.020004117" y1="572.808244255" x2="756.020004117" y2="569.808244255" stroke-width="1" />
<line x1="752.690004803" y1="576.442951631" x2="757.690004803" y2="573.442951631" stroke-width="1" />
<line x1="754.36000549" y1="580.077659007" x2="759.36000549" y2="577.077659007" stroke-width="1" />
<line x1="756.030006176" y1="583.712366383" x2="761.030006176" y2="580.712366383" stroke-width="1" />
<line x1="757.700006862" y1="587.347073759" x2="762.700006862" y2="584.347073759" stroke-width="1" />
</g>
<g stroke="#FF0000" fill="none" stroke-opacity="1.0" fill-opacity="1.0" transform="scale(0.5)">
<line x1="761" y1="594" x2="767" y2="594" stroke-width="1" />
<line x1="761" y1="598" x2="767" y2="598" stroke-width="1" />
<line x1="761" y1="602" x2="767" y2="602" stroke-width="1" />
<line x1="761" y1="606" x2="767" y2="606" stroke-width="1" />
<line x1="761" y1="610" x2="767" y2="610" stroke-width="1" />
<line x1="761" y1="614" x2="767" y2="614" stroke-width="1" />
<line x1="761" y1="618" x2="767" y2="618" stroke-width="1" />
</g>
<g stroke="#000000" fill="none" stroke-opacity="1.0" fill-opacity="1.0" transform="scale(0.5)">
<polyline points="742,539  732,539  732,510  742,510" stroke-width="1" fill="none"  />
<text x=" 730" y="547.0" font-family="Arial" font-size=" 10" fill="#000000" transform="rotate(-90.0  730  537)" stroke-width="0">кассы</text>
</g>
<g stroke="#000000" fill="#D0D0D0" stroke-opacity="1.0" fill-opacity="1.0" transform="scale(0.5)">
<polyline points="168,590  168,622  67,622  67,459" stroke-width="1" fill="none"  />
<polyline points="143,541  143,509  93,509  93,539  87,539  87,459" stroke-width="1" fill="none"  />
<line x1="216" y1="590" x2="216" y2="541" stroke-width="1" />
<line x1="212" y1="590" x2="212" y2="541" stroke-width="1" />
<line x1="208" y1="590" x2="208" y2="541" stroke-width="1" />
<line x1="204" y1="590" x2="204" y2="541" stroke-width="1" />
<line x1="200" y1="590" x2="200" y2="541" stroke-width="1" />
<line x1="196" y1="590" x2="196" y2="541" stroke-width="1" />
<line x1="192" y1="590" x2="192" y2="541" stroke-width="1" />
<line x1="188" y1="590" x2="188" y2="541" stroke-width="1" />
<line x1="184" y1="590" x2="184" y2="541" stroke-width="1" />
<line x1="180" y1="590" x2="180" y2="541" stroke-width="1" />
<line x1="176" y1="590" x2="176" y2="541" stroke-width="1" />
<line x1="172" y1="590" x2="172" y2="541" stroke-width="1" />
<polygon points="93,592  93,569  87,569  87,592" stroke-width="1" />
<line x1="67" y1="461" x2="87" y2="461" stroke-width="1" />
<line x1="67" y1="465" x2="87" y2="465" stroke-width="1" />
<line x1="67" y1="469" x2="87" y2="469" stroke-width="1" />
<line x1="67" y1="473" x2="87" y2="473" stroke-width="1" />
<line x1="67" y1="477" x2="87" y2="477" stroke-width="1" />
<line x1="67" y1="481" x2="87" y2="481" stroke-width="1" />
<line x1="67" y1="485" x2="87" y2="485" stroke-width="1" />
<line x1="67" y1="489" x2="87" y2="489" stroke-width="1" />
<line x1="67" y1="493" x2="87" y2="493" stroke-width="1" />
<line x1="67" y1="497" x2="87" y2="497" stroke-width="1" />
<line x1="67" y1="501" x2="87" y2="501" stroke-width="1" />
<line x1="67" y1="505" x2="87" y2="505" stroke-width="1" />
</g>
<g stroke="#000000" fill="none" stroke-opacity="1.0" fill-opacity="1.0" transform="scale(0.5)">
<polyline points="93,590  125,590" stroke-width=" 0.5" fill="none"  />
<polygon points="141,546  145,548  147,544  143,542" stroke-width="1" />
</g>
<g stroke="#009900" fill="none" stroke-opacity="1.0" fill-opacity="1.0" transform="scale(0.5)">
<line x1="138" y1="549" x2="143" y2="552" stroke-width="1" />
<line x1="136.211145618" y1="552.577708764" x2="141.211145618" y2="555.577708764" stroke-width="1" />
<line x1="134.422291236" y1="556.155417528" x2="139.422291236" y2="559.155417528" stroke-width="1" />
<line x1="132.633436854" y1="559.733126292" x2="137.633436854" y2="562.733126292" stroke-width="1" />
<line x1="130.844582472" y1="563.310835056" x2="135.844582472" y2="566.310835056" stroke-width="1" />
<line x1="129.05572809" y1="566.88854382" x2="134.05572809" y2="569.88854382" stroke-width="1" />
<line x1="127.266873708" y1="570.466252584" x2="132.266873708" y2="573.466252584" stroke-width="1" />
<line x1="125.478019326" y1="574.043961348" x2="130.478019326" y2="577.043961348" stroke-width="1" />
<line x1="123.689164944" y1="577.621670112" x2="128.689164944" y2="580.621670112" stroke-width="1" />
<line x1="121.900310562" y1="581.199378876" x2="126.900310562" y2="584.199378876" stroke-width="1" />
<line x1="120.11145618" y1="584.77708764" x2="125.11145618" y2="587.77708764" stroke-width="1" />
</g>
<g stroke="#FF0000" fill="none" stroke-opacity="1.0" fill-opacity="1.0" transform="scale(0.5)">
<line x1="118" y1="594" x2="124" y2="594" stroke-width="1" />
<line x1="118" y1="598" x2="124" y2="598" stroke-width="1" />
<line x1="118" y1="602" x2="124" y2="602" stroke-width="1" />
<line x1="118" y1="606" x2="124" y2="606" stroke-width="1" />
<line x1="118" y1="610" x2="124" y2="610" stroke-width="1" />
<line x1="118" y1="614" x2="124" y2="614" stroke-width="1" />
<line x1="118" y1="618" x2="124" y2="618" stroke-width="1" />
</g>
<g stroke="#000000" fill="none" stroke-opacity="1.0" fill-opacity="1.0" transform="scale(0.5)">
<polyline points="143,539  153,539  153,510  143,510" stroke-width="1" fill="none"  />
<text x=" 141" y="547.0" font-family="Arial" font-size=" 10" fill="#000000" transform="rotate(-90.0  141  537)" stroke-width="0">кассы</text>
</g>
<g stroke="#000000" fill="#D0D0D0" stroke-opacity="1.0" fill-opacity="1.0" transform="scale(0.5)">
<polygon points="238,597  238,590  245,590  245,597" stroke-width="1" />
<polygon points="265,597  265,590  272,590  272,597" stroke-width="1" />
<polygon points="292,597  292,590  299,590  299,597" stroke-width="1" />
<polygon points="319,597  319,590  326,590  326,597" stroke-width="1" />
<polygon points="346,597  346,590  353,590  353,597" stroke-width="1" />
<polygon points="373,597  373,590  380,590  380,597" stroke-width="1" />
<polygon points="400,597  400,590  407,590  407,597" stroke-width="1" />
<polygon points="427,597  427,590  434,590  434,597" stroke-width="1" />
<polygon points="454,597  454,590  461,590  461,597" stroke-width="1" />
<polygon points="481,597  481,590  488,590  488,597" stroke-width="1" />
<polygon points="508,597  508,590  515,590  515,597" stroke-width="1" />
<polygon points="535,597  535,590  542,590  542,597" stroke-width="1" />
<polygon points="562,597  562,590  569,590  569,597" stroke-width="1" />
<polygon points="589,597  589,590  596,590  596,597" stroke-width="1" />
<polygon points="616,597  616,590  623,590  623,597" stroke-width="1" />
<polygon points="643,597  643,590  650,590  650,597" stroke-width="1" />
<polygon points="238,541  238,534  245,534  245,541" stroke-width="1" />
<polygon points="265,541  265,534  272,534  272,541" stroke-width="1" />
<polygon points="292,541  292,534  299,534  299,541" stroke-width="1" />
<polygon points="319,541  319,534  326,534  326,541" stroke-width="1" />
<polygon points="346,541  346,534  353,534  353,541" stroke-width="1" />
<polygon points="373,541  373,534  380,534  380,541" stroke-width="1" />
<polygon points="400,541  400,534  407,534  407,541" stroke-width="1" />
<polygon points="427,541  427,534  434,534  434,541" stroke-width="1" />
<polygon points="454,541  454,534  461,534  461,541" stroke-width="1" />
<polygon points="481,541  481,534  488,534  488,541" stroke-width="1" />
<polygon points="508,541  508,534  515,534  515,541" stroke-width="1" />
<polygon points="535,541  535,534  542,534  542,541" stroke-width="1" />
<polygon points="562,541  562,534  569,534  569,541" stroke-width="1" />
<polygon points="589,541  589,534  596,534  596,541" stroke-width="1" />
<polygon points="616,541  616,534  623,534  623,541" stroke-width="1" />
<polygon points="643,541  643,534  650,534  650,541" stroke-width="1" />
</g>
<g stroke="#009900" fill="#D0D0D0" stroke-opacity="1.0" fill-opacity="1.0" transform="scale(0.5)">
<polyline points="799,554  781,554" marker-end="url(#arrow)" stroke-width="1" fill="none" />
<polyline points="86,554  104,554" marker-end="url(#arrow)" stroke-width="1" fill="none" />
</g>
<g stroke="#FF0000" fill="#D0D0D0" stroke-opacity="1.0" fill-opacity="1.0" transform="scale(0.5)">
<polyline points="781,607  799,607" marker-end="url(#arrow)" stroke-width="1" fill="none" />
<polyline points="104,607  86,607" marker-end="url(#arrow)" stroke-width="1" fill="none" />
</g>
<g stroke="#00AFAF" fill="none" stroke-opacity="1.0" fill-opacity="1.0" transform="scale(0.5)">
<text x=" -160" y="538.0" font-family="Arial" font-size=" 15" fill="#00AFAF" transform="rotate(-50.0  -160  523)" stroke-width="0">'ж/д платформа "Выдубичи"'</text>
<text x=" 889" y="684.0" font-family="Arial" font-size=" 15" fill="#00AFAF" transform="rotate(-90.0  889  669)" stroke-width="0">Надднепрянское шоссе</text>
<text x=" 889" y="344.0" font-family="Arial" font-size=" 15" fill="#00AFAF" transform="rotate(-90.0  889  329)" stroke-width="0">Надднепрянское шоссе</text>
<text x=" 1011" y="303.0" font-family="Arial" font-size=" 15" fill="#00AFAF" transform="rotate(-90.0  1011  288)" stroke-width="0">Камышинская улица</text>
</g>
</g>
</g>
</svg>
