<?xml version="1.0" encoding="utf-8" ?>
<svg baseProfile="full" height="440.0" version="1.1" width="740.0" xmlns="http://www.w3.org/2000/svg" xmlns:ev="http://www.w3.org/2001/xml-events" xmlns:xlink="http://www.w3.org/1999/xlink">
  <defs>
    <marker id="id139" markerHeight="3" markerUnits="strokeWidth" markerWidth="4" orient="auto" refX="0" refY="5" viewBox="0,0,10,10">
      <path d="M 0 0 L 10 5 L 0 10 z"/>
    </marker>
  </defs>
  <g>
    <rect fill="none" height="440.0" stroke="none" stroke-width="0" width="740.0" x="0.0" y="0.0"/>
    <g transform="rotate(-5.0,370.0,220.0)">
      <polygon fill="#d0d0d0" points="249.0,290.0 245.0,266.0 238.0,242.0 318.0,242.0 321.0,244.0 322.0,250.0 289.0,248.0 254.0,249.0 254.0,380.0 285.0,380.0 322.0,381.0 321.0,386.0 318.0,388.0 238.0,388.0 245.0,366.0 250.0,336.0 251.0,315.0" stroke="#d0d0d0" stroke-width="1"/>
      <polygon fill="#339933" points="703.0,319.0 700.0,349.0 477.0,325.0 420.0,319.0 367.0,316.0 315.0,313.0 254.0,313.0 254.0,283.0 315.0,284.0 369.0,286.0 422.0,290.0 480.0,295.0" stroke="#339933" stroke-width="1"/>
      <polygon fill="#339933" points="697.0,382.0 474.0,358.0 417.0,352.0 366.0,349.0 313.0,346.0 254.0,346.0 254.0,316.0 315.0,317.0 367.0,319.0 420.0,323.0 477.0,328.0 700.0,352.0" stroke="#339933" stroke-width="1"/>
      <path d="M254.0,346.0 C254.0,346.0 235.33333333333334,345.5 254.0,346.0 C272.6666666666667,346.5 329.3333333333333,347.0 366.0,349.0 C402.6666666666667,351.0 474.0,358.0 474.0,358.0 " fill="none" stroke="#000000" stroke-width="1"/>
      <path d="M254.0,316.0 C254.0,316.0 235.16666666666666,315.5 254.0,316.0 C272.8333333333333,316.5 329.8333333333333,317.0 367.0,319.0 C404.1666666666667,321.0 477.0,328.0 477.0,328.0 " fill="none" stroke="#000000" stroke-width="1"/>
      <path d="M254.0,313.0 C254.0,313.0 235.16666666666666,312.5 254.0,313.0 C272.8333333333333,313.5 329.8333333333333,314.0 367.0,316.0 C404.1666666666667,318.0 477.0,325.0 477.0,325.0 " fill="none" stroke="#000000" stroke-width="1"/>
      <path d="M254.0,283.0 C254.0,283.0 234.83333333333334,282.5 254.0,283.0 C273.1666666666667,283.5 331.3333333333333,284.0 369.0,286.0 C406.6666666666667,288.0 480.0,295.0 480.0,295.0 " fill="none" stroke="#000000" stroke-width="1"/>
      <polyline fill="none" points="254.0,283.0 254.0,313.0" stroke="#000000" stroke-width="1"/>
      <polyline fill="none" points="254.0,316.0 254.0,346.0" stroke="#000000" stroke-width="1"/>
      <polyline fill="none" points="480.0,295.0 703.0,319.0 700.0,349.0 477.0,325.0" stroke="#000000" stroke-width="1"/>
      <polyline fill="none" points="477.0,328.0 700.0,352.0 697.0,382.0 474.0,358.0" stroke="#000000" stroke-width="1"/>
      <polyline fill="none" points="703.0,319.0 707.0,286.0 484.0,262.0" stroke="#000000" stroke-width="1"/>
      <path d="M484.0,262.0 C484.0,262.0 494.1666666666667,263.0 484.0,262.0 C473.8333333333333,261.0 446.5,257.8333333333333 423.0,256.0 C399.5,254.16666666666666 343.0,251.0 343.0,251.0 " fill="none" stroke="#000000" stroke-width="1"/>
      <path d="M322.0,250.0 C322.0,250.0 327.5,250.16666666666666 322.0,250.0 C316.5,249.83333333333334 300.3333333333333,249.16666666666666 289.0,249.0 C277.6666666666667,248.83333333333334 254.0,249.0 254.0,249.0 " fill="none" stroke="#000000" stroke-width="1"/>
      <polyline fill="none" points="254.0,249.0 254.0,283.0" stroke="#000000" stroke-width="1"/>
      <polyline fill="none" points="697.0,382.0 693.0,416.0 470.0,392.0" stroke="#000000" stroke-width="1"/>
      <path d="M470.0,392.0 C470.0,392.0 478.5,392.8333333333333 470.0,392.0 C461.5,391.1666666666667 440.1666666666667,388.6666666666667 419.0,387.0 C397.8333333333333,385.3333333333333 343.0,382.0 343.0,382.0 " fill="none" stroke="#000000" stroke-width="1"/>
      <path d="M322.0,381.0 C322.0,381.0 328.8333333333333,381.1666666666667 322.0,381.0 C315.1666666666667,380.8333333333333 292.3333333333333,380.1666666666667 281.0,380.0 C269.6666666666667,379.8333333333333 254.0,380.0 254.0,380.0 " fill="none" stroke="#000000" stroke-width="1"/>
      <text fill="#000000" font-family="Arial" font-size="20.0" stroke="none" stroke-width="0" transform="rotate(2.0,257.0,279.0)" x="257.0" y="299.0">&lt;&lt; Харьковская</text>
      <text fill="#000000" font-family="Arial" font-size="20.0" stroke="none" stroke-width="0" transform="rotate(6.0,543.0,342.0)" x="543.0" y="362.0">Бориспольская &gt;&gt;</text>
      <text fill="#000000" font-family="Arial" font-size="25.0" stroke="none" stroke-width="0" transform="rotate(6.0,422.0,304.0)" x="422.0" y="329.0">Вырлица</text>
      <text fill="#ffffff" font-family="Arial" font-size="20.0" stroke="none" stroke-width="0" transform="rotate(2.0,256.0,278.0)" x="256.0" y="298.0">&lt;&lt; Харьковская</text>
      <text fill="#ffffff" font-family="Arial" font-size="20.0" stroke="none" stroke-width="0" transform="rotate(6.0,542.0,341.0)" x="542.0" y="361.0">Бориспольская &gt;&gt;</text>
      <text fill="#ffffff" font-family="Arial" font-size="25.0" stroke="none" stroke-width="0" transform="rotate(6.0,421.0,303.0)" x="421.0" y="328.0">Вырлица</text>
      <polyline fill="none" points="254.0,346.0 254.0,380.0" stroke="#000000" stroke-width="1"/>
      <polyline fill="none" points="343.0,382.0 343.0,396.0" stroke="#000000" stroke-width="1"/>
      <polyline fill="none" points="322.0,381.0 322.0,384.0" stroke="#000000" stroke-width="1"/>
      <line stroke="#000000" stroke-width="1" x1="255.0" x2="255.0" y1="388.0" y2="413.0"/>
      <line stroke="#000000" stroke-width="1" x1="259.0" x2="259.0" y1="388.0" y2="413.0"/>
      <line stroke="#000000" stroke-width="1" x1="263.0" x2="263.0" y1="388.0" y2="413.0"/>
      <line stroke="#000000" stroke-width="1" x1="267.0" x2="267.0" y1="388.0" y2="413.0"/>
      <line stroke="#000000" stroke-width="1" x1="271.0" x2="271.0" y1="388.0" y2="413.0"/>
      <line stroke="#000000" stroke-width="1" x1="275.0" x2="275.0" y1="388.0" y2="413.0"/>
      <line stroke="#000000" stroke-width="1" x1="279.0" x2="279.0" y1="388.0" y2="413.0"/>
      <line stroke="#000000" stroke-width="1" x1="283.0" x2="283.0" y1="388.0" y2="413.0"/>
      <line stroke="#000000" stroke-width="1" x1="287.0" x2="287.0" y1="388.0" y2="413.0"/>
      <line stroke="#000000" stroke-width="1" x1="291.0" x2="291.0" y1="388.0" y2="413.0"/>
      <line stroke="#000000" stroke-width="1" x1="295.0" x2="295.0" y1="388.0" y2="413.0"/>
      <line stroke="#000000" stroke-width="1" x1="299.0" x2="299.0" y1="388.0" y2="413.0"/>
      <path d="M343.0,396.0 C343.0,396.0 344.1666666666667,394.0 343.0,396.0 C341.8333333333333,398.0 339.6666666666667,405.1666666666667 336.0,408.0 C332.3333333333333,410.8333333333333 321.0,413.0 321.0,413.0 " fill="none" stroke="#000000" stroke-width="1"/>
      <path d="M322.0,384.0 C322.0,384.0 322.1666666666667,383.5 322.0,384.0 C321.8333333333333,384.5 321.6666666666667,386.3333333333333 321.0,387.0 C320.3333333333333,387.6666666666667 318.0,388.0 318.0,388.0 " fill="none" stroke="#000000" stroke-width="1"/>
      <path d="M324.0,218.0 C324.0,218.0 321.6666666666667,216.83333333333334 324.0,218.0 C326.3333333333333,219.16666666666666 334.8333333333333,221.5 338.0,225.0 C341.1666666666667,228.5 343.0,239.0 343.0,239.0 " fill="none" stroke="#000000" stroke-width="1"/>
      <path d="M318.0,242.0 C318.0,242.0 317.5,241.83333333333334 318.0,242.0 C318.5,242.16666666666666 320.3333333333333,242.33333333333334 321.0,243.0 C321.6666666666667,243.66666666666666 322.0,246.0 322.0,246.0 " fill="none" stroke="#000000" stroke-width="1"/>
      <polyline fill="none" points="322.0,250.0 322.0,246.0" stroke="#000000" stroke-width="1"/>
      <polyline fill="none" points="318.0,242.0 238.0,242.0" stroke="#000000" stroke-width="1"/>
      <path d="M238.0,388.0 C238.0,388.0 236.0,400.1666666666667 238.0,388.0 C240.0,375.8333333333333 250.0,339.3333333333333 250.0,315.0 C250.0,290.6666666666667 238.0,242.0 238.0,242.0 " fill="none" stroke="#000000" stroke-width="1"/>
      <polyline fill="none" points="238.0,388.0 318.0,388.0" stroke="#000000" stroke-width="1"/>
      <polyline fill="none" points="343.0,251.0 343.0,239.0" stroke="#000000" stroke-width="1"/>
      <line stroke="#000000" stroke-width="1" x1="255.0" x2="255.0" y1="218.0" y2="242.0"/>
      <line stroke="#000000" stroke-width="1" x1="259.0" x2="259.0" y1="218.0" y2="242.0"/>
      <line stroke="#000000" stroke-width="1" x1="263.0" x2="263.0" y1="218.0" y2="242.0"/>
      <line stroke="#000000" stroke-width="1" x1="267.0" x2="267.0" y1="218.0" y2="242.0"/>
      <line stroke="#000000" stroke-width="1" x1="271.0" x2="271.0" y1="218.0" y2="242.0"/>
      <line stroke="#000000" stroke-width="1" x1="275.0" x2="275.0" y1="218.0" y2="242.0"/>
      <line stroke="#000000" stroke-width="1" x1="279.0" x2="279.0" y1="218.0" y2="242.0"/>
      <line stroke="#000000" stroke-width="1" x1="283.0" x2="283.0" y1="218.0" y2="242.0"/>
      <line stroke="#000000" stroke-width="1" x1="287.0" x2="287.0" y1="218.0" y2="242.0"/>
      <line stroke="#000000" stroke-width="1" x1="291.0" x2="291.0" y1="218.0" y2="242.0"/>
      <line stroke="#000000" stroke-width="1" x1="295.0" x2="295.0" y1="218.0" y2="242.0"/>
      <line stroke="#000000" stroke-width="1" x1="299.0" x2="299.0" y1="218.0" y2="242.0"/>
      <polyline fill="none" points="35.0,1.0 198.0,1.0" stroke="#000000" stroke-width="1"/>
      <polyline fill="none" points="198.0,189.0 130.0,189.0 130.0,248.0 210.0,248.0 210.0,218.0 324.0,218.0" stroke="#000000" stroke-width="1"/>
      <polyline fill="none" points="321.0,413.0 210.0,413.0 210.0,382.0 103.0,382.0 103.0,189.0 35.0,189.0" stroke="#000000" stroke-width="1"/>
      <polyline fill="none" points="35.0,168.0 103.0,168.0 103.0,22.0 35.0,22.0" stroke="#000000" stroke-width="1"/>
      <polyline fill="none" points="198.0,22.0 130.0,22.0 130.0,168.0 198.0,168.0" stroke="#000000" stroke-width="1"/>
      <line stroke="#000000" stroke-width="1" x1="37.0" x2="37.0" y1="22.0" y2="1.0"/>
      <line stroke="#000000" stroke-width="1" x1="41.0" x2="41.0" y1="22.0" y2="1.0"/>
      <line stroke="#000000" stroke-width="1" x1="45.0" x2="45.0" y1="22.0" y2="1.0"/>
      <line stroke="#000000" stroke-width="1" x1="49.0" x2="49.0" y1="22.0" y2="1.0"/>
      <line stroke="#000000" stroke-width="1" x1="53.0" x2="53.0" y1="22.0" y2="1.0"/>
      <line stroke="#000000" stroke-width="1" x1="57.0" x2="57.0" y1="22.0" y2="1.0"/>
      <line stroke="#000000" stroke-width="1" x1="61.0" x2="61.0" y1="22.0" y2="1.0"/>
      <line stroke="#000000" stroke-width="1" x1="65.0" x2="65.0" y1="22.0" y2="1.0"/>
      <line stroke="#000000" stroke-width="1" x1="69.0" x2="69.0" y1="22.0" y2="1.0"/>
      <line stroke="#000000" stroke-width="1" x1="73.0" x2="73.0" y1="22.0" y2="1.0"/>
      <line stroke="#000000" stroke-width="1" x1="77.0" x2="77.0" y1="22.0" y2="1.0"/>
      <line stroke="#000000" stroke-width="1" x1="81.0" x2="81.0" y1="22.0" y2="1.0"/>
      <line stroke="#000000" stroke-width="1" x1="196.0" x2="196.0" y1="22.0" y2="1.0"/>
      <line stroke="#000000" stroke-width="1" x1="192.0" x2="192.0" y1="22.0" y2="1.0"/>
      <line stroke="#000000" stroke-width="1" x1="188.0" x2="188.0" y1="22.0" y2="1.0"/>
      <line stroke="#000000" stroke-width="1" x1="184.0" x2="184.0" y1="22.0" y2="1.0"/>
      <line stroke="#000000" stroke-width="1" x1="180.0" x2="180.0" y1="22.0" y2="1.0"/>
      <line stroke="#000000" stroke-width="1" x1="176.0" x2="176.0" y1="22.0" y2="1.0"/>
      <line stroke="#000000" stroke-width="1" x1="172.0" x2="172.0" y1="22.0" y2="1.0"/>
      <line stroke="#000000" stroke-width="1" x1="168.0" x2="168.0" y1="22.0" y2="1.0"/>
      <line stroke="#000000" stroke-width="1" x1="164.0" x2="164.0" y1="22.0" y2="1.0"/>
      <line stroke="#000000" stroke-width="1" x1="160.0" x2="160.0" y1="22.0" y2="1.0"/>
      <line stroke="#000000" stroke-width="1" x1="156.0" x2="156.0" y1="22.0" y2="1.0"/>
      <line stroke="#000000" stroke-width="1" x1="152.0" x2="152.0" y1="22.0" y2="1.0"/>
      <line stroke="#000000" stroke-width="1" x1="196.0" x2="196.0" y1="189.0" y2="168.0"/>
      <line stroke="#000000" stroke-width="1" x1="192.0" x2="192.0" y1="189.0" y2="168.0"/>
      <line stroke="#000000" stroke-width="1" x1="188.0" x2="188.0" y1="189.0" y2="168.0"/>
      <line stroke="#000000" stroke-width="1" x1="184.0" x2="184.0" y1="189.0" y2="168.0"/>
      <line stroke="#000000" stroke-width="1" x1="180.0" x2="180.0" y1="189.0" y2="168.0"/>
      <line stroke="#000000" stroke-width="1" x1="176.0" x2="176.0" y1="189.0" y2="168.0"/>
      <line stroke="#000000" stroke-width="1" x1="172.0" x2="172.0" y1="189.0" y2="168.0"/>
      <line stroke="#000000" stroke-width="1" x1="168.0" x2="168.0" y1="189.0" y2="168.0"/>
      <line stroke="#000000" stroke-width="1" x1="164.0" x2="164.0" y1="189.0" y2="168.0"/>
      <line stroke="#000000" stroke-width="1" x1="160.0" x2="160.0" y1="189.0" y2="168.0"/>
      <line stroke="#000000" stroke-width="1" x1="156.0" x2="156.0" y1="189.0" y2="168.0"/>
      <line stroke="#000000" stroke-width="1" x1="152.0" x2="152.0" y1="189.0" y2="168.0"/>
      <line stroke="#000000" stroke-width="1" x1="37.0" x2="37.0" y1="189.0" y2="168.0"/>
      <line stroke="#000000" stroke-width="1" x1="41.0" x2="41.0" y1="189.0" y2="168.0"/>
      <line stroke="#000000" stroke-width="1" x1="45.0" x2="45.0" y1="189.0" y2="168.0"/>
      <line stroke="#000000" stroke-width="1" x1="49.0" x2="49.0" y1="189.0" y2="168.0"/>
      <line stroke="#000000" stroke-width="1" x1="53.0" x2="53.0" y1="189.0" y2="168.0"/>
      <line stroke="#000000" stroke-width="1" x1="57.0" x2="57.0" y1="189.0" y2="168.0"/>
      <line stroke="#000000" stroke-width="1" x1="61.0" x2="61.0" y1="189.0" y2="168.0"/>
      <line stroke="#000000" stroke-width="1" x1="65.0" x2="65.0" y1="189.0" y2="168.0"/>
      <line stroke="#000000" stroke-width="1" x1="69.0" x2="69.0" y1="189.0" y2="168.0"/>
      <line stroke="#000000" stroke-width="1" x1="73.0" x2="73.0" y1="189.0" y2="168.0"/>
      <line stroke="#000000" stroke-width="1" x1="77.0" x2="77.0" y1="189.0" y2="168.0"/>
      <line stroke="#000000" stroke-width="1" x1="81.0" x2="81.0" y1="189.0" y2="168.0"/>
      <polygon fill="#d0d0d0" points="137.0,301.0 130.0,301.0 130.0,329.0 137.0,329.0" stroke="#000000" stroke-width="1"/>
      <polyline fill="none" points="142.0,248.0 142.0,241.0 169.0,241.0 169.0,248.0" stroke="#000000" stroke-width="1"/>
      <text fill="#000000" font-family="Arial" font-size="10.0" stroke="none" stroke-width="0" x="143.0" y="248.0">кассы</text>
      <polygon fill="none" points="177.0,308.0 171.0,308.0 171.0,314.0 177.0,314.0" stroke="#000000" stroke-width="1"/>
      <polyline fill="none" points="174.0,314.0 174.0,334.0" stroke="#000000" stroke-width="0.5"/>
      <line stroke="#009900" stroke-width="1" x1="176.0" x2="172.0" y1="304.0" y2="304.0"/>
      <line stroke="#009900" stroke-width="1" x1="176.0" x2="172.0" y1="300.0" y2="300.0"/>
      <line stroke="#009900" stroke-width="1" x1="176.0" x2="172.0" y1="296.0" y2="296.0"/>
      <line stroke="#009900" stroke-width="1" x1="176.0" x2="172.0" y1="292.0" y2="292.0"/>
      <line stroke="#009900" stroke-width="1" x1="176.0" x2="172.0" y1="288.0" y2="288.0"/>
      <line stroke="#009900" stroke-width="1" x1="176.0" x2="172.0" y1="284.0" y2="284.0"/>
      <line stroke="#009900" stroke-width="1" x1="176.0" x2="172.0" y1="280.0" y2="280.0"/>
      <line stroke="#009900" stroke-width="1" x1="176.0" x2="172.0" y1="276.0" y2="276.0"/>
      <line stroke="#009900" stroke-width="1" x1="176.0" x2="172.0" y1="272.0" y2="272.0"/>
      <line stroke="#009900" stroke-width="1" x1="176.0" x2="172.0" y1="268.0" y2="268.0"/>
      <line stroke="#009900" stroke-width="1" x1="176.0" x2="172.0" y1="264.0" y2="264.0"/>
      <line stroke="#009900" stroke-width="1" x1="176.0" x2="172.0" y1="260.0" y2="260.0"/>
      <line stroke="#009900" stroke-width="1" x1="176.0" x2="172.0" y1="256.0" y2="256.0"/>
      <line stroke="#009900" stroke-width="1" x1="176.0" x2="172.0" y1="252.0" y2="252.0"/>
      <line stroke="#ff0000" stroke-width="1" x1="172.0" x2="176.0" y1="378.0" y2="378.0"/>
      <line stroke="#ff0000" stroke-width="1" x1="172.0" x2="176.0" y1="374.0" y2="374.0"/>
      <line stroke="#ff0000" stroke-width="1" x1="172.0" x2="176.0" y1="370.0" y2="370.0"/>
      <line stroke="#ff0000" stroke-width="1" x1="172.0" x2="176.0" y1="366.0" y2="366.0"/>
      <line stroke="#ff0000" stroke-width="1" x1="172.0" x2="176.0" y1="362.0" y2="362.0"/>
      <line stroke="#ff0000" stroke-width="1" x1="172.0" x2="176.0" y1="358.0" y2="358.0"/>
      <line stroke="#ff0000" stroke-width="1" x1="172.0" x2="176.0" y1="354.0" y2="354.0"/>
      <line stroke="#ff0000" stroke-width="1" x1="172.0" x2="176.0" y1="350.0" y2="350.0"/>
      <line stroke="#ff0000" stroke-width="1" x1="172.0" x2="176.0" y1="346.0" y2="346.0"/>
      <line stroke="#ff0000" stroke-width="1" x1="172.0" x2="176.0" y1="342.0" y2="342.0"/>
      <line stroke="#ff0000" stroke-width="1" x1="172.0" x2="176.0" y1="338.0" y2="338.0"/>
      <line stroke="#ff0000" stroke-width="1" x1="172.0" x2="176.0" y1="334.0" y2="334.0"/>
      <polyline fill="none" marker-end="url(#id139)" points="141.0,354.0 127.0,354.0" stroke="#ff0000" stroke-width="1"/>
      <polyline fill="none" marker-end="url(#id139)" points="129.0,274.0 143.0,274.0" stroke="#009900" stroke-width="1"/>
      <text fill="#00afaf" font-family="Arial" font-size="15.0" stroke="none" stroke-width="0" x="249.0" y="92.0">проспект Николая Бажана</text>
    </g>
  </g>
</svg>
