<?xml version="1.0" encoding="utf-8" ?>
<svg baseProfile="full" height="100%" version="1.1" width="100%" xmlns="http://www.w3.org/2000/svg" xmlns:ev="http://www.w3.org/2001/xml-events" xmlns:xlink="http://www.w3.org/1999/xlink">
  <defs>
    <marker id="id167" markerHeight="3" markerUnits="strokeWidth" markerWidth="4" orient="auto" refX="0" refY="5" viewBox="0,0,10,10">
      <path d="M 0 0 L 10 5 L 0 10 z"/>
    </marker>
  </defs>
  <g>
    <rect fill="none" height="760" stroke="none" stroke-width="0" width="1050" x="0" y="0"/>
    <g transform="rotate(38.0,525,380)">
      <polygon fill="#046434" points="350,352 350,322 800,322 800,352" stroke="#000000" stroke-width="1"/>
      <polygon fill="#046434" points="350,432 800,432 800,462 350,462" stroke="#000000" stroke-width="1"/>
      <text fill="#046434" font-family="Arial" font-size="20" stroke="none" stroke-width="0" x="353" y="319.0">&lt;&lt; Сокол</text>
      <text fill="#046434" font-family="Arial" font-size="20" stroke="none" stroke-width="0" x="711" y="482.0">Динамо &gt;&gt;</text>
      <text fill="#046434" font-family="Arial" font-size="25" stroke="none" stroke-width="0" x="454" y="402.0">Аэропорт</text>
      <polygon fill="#34349c" points="575,395 575,391 576,391 576,395" stroke="#34349c" stroke-width="1"/>
      <polygon fill="#ff0000" points="575,399 575,395 576,395 576,399" stroke="#ff0000" stroke-width="1"/>
      <polyline fill="none" points="259,308 255,308 255,243 336,243 336,308 332,308" stroke="#000000" stroke-width="1"/>
      <polyline fill="none" points="69,611 126,611 126,223" stroke="#000000" stroke-width="1"/>
      <polyline fill="none" points="69,631 157,631 157,609 153,609 153,606 212,606" stroke="#000000" stroke-width="1"/>
      <polyline fill="none" points="212,594 153,594 153,579 212,579" stroke="#000000" stroke-width="1"/>
      <polyline fill="none" points="212,567 153,567 153,510 162,510 162,507 309,507 309,455 305,455 305,451 321,451 321,409" stroke="#000000" stroke-width="1"/>
      <polyline fill="none" points="153,223 153,469 162,469 162,473 282,473 282,455 286,455 286,451 216,451 216,335 286,335 286,331 282,331 282,266 276,266 276,308 272,308" stroke="#000000" stroke-width="1"/>
      <polyline fill="none" points="321,376 321,335 305,335 305,331 309,331 309,266 315,266 315,308 319,308" stroke="#000000" stroke-width="1"/>
      <polyline fill="none" points="350,352 350,376 312,376" stroke="#000000" stroke-width="1"/>
      <polyline fill="none" points="350,432 350,409 312,409" stroke="#000000" stroke-width="1"/>
      <line stroke="#000000" stroke-width="1" x1="312" x2="312" y1="409" y2="376"/>
      <line stroke="#000000" stroke-width="1" x1="316" x2="316" y1="409" y2="376"/>
      <line stroke="#000000" stroke-width="1" x1="320" x2="320" y1="409" y2="376"/>
      <line stroke="#000000" stroke-width="1" x1="324" x2="324" y1="409" y2="376"/>
      <line stroke="#000000" stroke-width="1" x1="328" x2="328" y1="409" y2="376"/>
      <line stroke="#000000" stroke-width="1" x1="332" x2="332" y1="409" y2="376"/>
      <line stroke="#000000" stroke-width="1" x1="336" x2="336" y1="409" y2="376"/>
      <line stroke="#000000" stroke-width="1" x1="340" x2="340" y1="409" y2="376"/>
      <line stroke="#000000" stroke-width="1" x1="344" x2="344" y1="409" y2="376"/>
      <line stroke="#000000" stroke-width="1" x1="348" x2="348" y1="409" y2="376"/>
      <line stroke="#000000" stroke-width="1" x1="336" x2="315" y1="271" y2="271"/>
      <line stroke="#000000" stroke-width="1" x1="336" x2="315" y1="275" y2="275"/>
      <line stroke="#000000" stroke-width="1" x1="336" x2="315" y1="279" y2="279"/>
      <line stroke="#000000" stroke-width="1" x1="336" x2="315" y1="283" y2="283"/>
      <line stroke="#000000" stroke-width="1" x1="336" x2="315" y1="287" y2="287"/>
      <line stroke="#000000" stroke-width="1" x1="309" x2="282" y1="269" y2="269"/>
      <line stroke="#000000" stroke-width="1" x1="309" x2="282" y1="273" y2="273"/>
      <line stroke="#000000" stroke-width="1" x1="309" x2="282" y1="277" y2="277"/>
      <line stroke="#000000" stroke-width="1" x1="309" x2="282" y1="281" y2="281"/>
      <line stroke="#000000" stroke-width="1" x1="309" x2="282" y1="285" y2="285"/>
      <line stroke="#000000" stroke-width="1" x1="309" x2="282" y1="289" y2="289"/>
      <line stroke="#000000" stroke-width="1" x1="276" x2="255" y1="271" y2="271"/>
      <line stroke="#000000" stroke-width="1" x1="276" x2="255" y1="275" y2="275"/>
      <line stroke="#000000" stroke-width="1" x1="276" x2="255" y1="279" y2="279"/>
      <line stroke="#000000" stroke-width="1" x1="276" x2="255" y1="283" y2="283"/>
      <line stroke="#000000" stroke-width="1" x1="276" x2="255" y1="287" y2="287"/>
      <line stroke="#000000" stroke-width="1" x1="267" x2="267" y1="485" y2="473"/>
      <line stroke="#000000" stroke-width="1" x1="263" x2="263" y1="485" y2="473"/>
      <line stroke="#000000" stroke-width="1" x1="259" x2="259" y1="485" y2="473"/>
      <line stroke="#000000" stroke-width="1" x1="255" x2="255" y1="485" y2="473"/>
      <line stroke="#000000" stroke-width="1" x1="251" x2="251" y1="485" y2="473"/>
      <line stroke="#000000" stroke-width="1" x1="247" x2="247" y1="485" y2="473"/>
      <line stroke="#000000" stroke-width="1" x1="243" x2="243" y1="485" y2="473"/>
      <line stroke="#000000" stroke-width="1" x1="239" x2="239" y1="485" y2="473"/>
      <line stroke="#000000" stroke-width="1" x1="235" x2="235" y1="485" y2="473"/>
      <line stroke="#000000" stroke-width="1" x1="231" x2="231" y1="485" y2="473"/>
      <line stroke="#000000" stroke-width="1" x1="227" x2="227" y1="485" y2="473"/>
      <line stroke="#000000" stroke-width="1" x1="208" x2="208" y1="579" y2="567"/>
      <line stroke="#000000" stroke-width="1" x1="204" x2="204" y1="579" y2="567"/>
      <line stroke="#000000" stroke-width="1" x1="200" x2="200" y1="579" y2="567"/>
      <line stroke="#000000" stroke-width="1" x1="196" x2="196" y1="579" y2="567"/>
      <line stroke="#000000" stroke-width="1" x1="192" x2="192" y1="579" y2="567"/>
      <line stroke="#000000" stroke-width="1" x1="188" x2="188" y1="579" y2="567"/>
      <line stroke="#000000" stroke-width="1" x1="184" x2="184" y1="579" y2="567"/>
      <line stroke="#000000" stroke-width="1" x1="180" x2="180" y1="579" y2="567"/>
      <line stroke="#000000" stroke-width="1" x1="176" x2="176" y1="579" y2="567"/>
      <line stroke="#000000" stroke-width="1" x1="208" x2="208" y1="606" y2="594"/>
      <line stroke="#000000" stroke-width="1" x1="204" x2="204" y1="606" y2="594"/>
      <line stroke="#000000" stroke-width="1" x1="200" x2="200" y1="606" y2="594"/>
      <line stroke="#000000" stroke-width="1" x1="196" x2="196" y1="606" y2="594"/>
      <line stroke="#000000" stroke-width="1" x1="192" x2="192" y1="606" y2="594"/>
      <line stroke="#000000" stroke-width="1" x1="188" x2="188" y1="606" y2="594"/>
      <line stroke="#000000" stroke-width="1" x1="184" x2="184" y1="606" y2="594"/>
      <line stroke="#000000" stroke-width="1" x1="180" x2="180" y1="606" y2="594"/>
      <line stroke="#000000" stroke-width="1" x1="176" x2="176" y1="606" y2="594"/>
      <line stroke="#000000" stroke-width="1" x1="72" x2="72" y1="631" y2="611"/>
      <line stroke="#000000" stroke-width="1" x1="76" x2="76" y1="631" y2="611"/>
      <line stroke="#000000" stroke-width="1" x1="80" x2="80" y1="631" y2="611"/>
      <line stroke="#000000" stroke-width="1" x1="84" x2="84" y1="631" y2="611"/>
      <line stroke="#000000" stroke-width="1" x1="88" x2="88" y1="631" y2="611"/>
      <line stroke="#000000" stroke-width="1" x1="92" x2="92" y1="631" y2="611"/>
      <line stroke="#000000" stroke-width="1" x1="96" x2="96" y1="631" y2="611"/>
      <line stroke="#000000" stroke-width="1" x1="100" x2="100" y1="631" y2="611"/>
      <line stroke="#000000" stroke-width="1" x1="104" x2="104" y1="631" y2="611"/>
      <line stroke="#000000" stroke-width="1" x1="108" x2="108" y1="631" y2="611"/>
      <line stroke="#000000" stroke-width="1" x1="126" x2="153" y1="263" y2="263"/>
      <line stroke="#000000" stroke-width="1" x1="126" x2="153" y1="259" y2="259"/>
      <line stroke="#000000" stroke-width="1" x1="126" x2="153" y1="255" y2="255"/>
      <line stroke="#000000" stroke-width="1" x1="126" x2="153" y1="251" y2="251"/>
      <line stroke="#000000" stroke-width="1" x1="126" x2="153" y1="247" y2="247"/>
      <line stroke="#000000" stroke-width="1" x1="126" x2="153" y1="243" y2="243"/>
      <line stroke="#000000" stroke-width="1" x1="126" x2="153" y1="239" y2="239"/>
      <line stroke="#000000" stroke-width="1" x1="126" x2="153" y1="235" y2="235"/>
      <line stroke="#000000" stroke-width="1" x1="126" x2="153" y1="231" y2="231"/>
      <line stroke="#000000" stroke-width="1" x1="126" x2="153" y1="227" y2="227"/>
      <polygon fill="#d0d0d0" points="162,487 173,487 173,493 162,493" stroke="#000000" stroke-width="1"/>
      <line stroke="#7f7f7f" stroke-width="1" x1="265" x2="265" y1="504" y2="488"/>
      <line stroke="#7f7f7f" stroke-width="1" x1="261" x2="261" y1="504" y2="488"/>
      <line stroke="#7f7f7f" stroke-width="1" x1="257" x2="257" y1="504" y2="488"/>
      <line stroke="#7f7f7f" stroke-width="1" x1="253" x2="253" y1="504" y2="488"/>
      <line stroke="#7f7f7f" stroke-width="1" x1="249" x2="249" y1="504" y2="488"/>
      <line stroke="#7f7f7f" stroke-width="1" x1="245" x2="245" y1="504" y2="488"/>
      <line stroke="#7f7f7f" stroke-width="1" x1="241" x2="241" y1="504" y2="488"/>
      <line stroke="#7f7f7f" stroke-width="1" x1="237" x2="237" y1="504" y2="488"/>
      <line stroke="#7f7f7f" stroke-width="1" x1="233" x2="233" y1="504" y2="488"/>
      <line stroke="#7f7f7f" stroke-width="1" x1="229" x2="229" y1="504" y2="488"/>
      <polygon fill="#9b5509" points="271,488 223,488 223,485 271,485" stroke="#000000" stroke-width="1"/>
      <polygon fill="#9b5509" points="271,494 271,498 223,498 223,494" stroke="#000000" stroke-width="1"/>
      <polygon fill="#9b5509" points="271,504 223,504 223,507 271,507" stroke="#000000" stroke-width="1"/>
      <polyline fill="none" points="216,378 207,378 207,407 216,407" stroke="#000000" stroke-width="1"/>
      <text fill="#000000" font-family="Arial" font-size="10" stroke="none" stroke-width="0" transform="rotate(-90.0,205,405)" x="205" y="415.0">кассы</text>
      <polyline fill="none" points="296,289 296,348" stroke="#000000" stroke-width="0.5"/>
      <polygon fill="none" points="273,366 279,366 279,372 273,372" stroke="#000000" stroke-width="1"/>
      <polyline fill="none" points="296,430 296,487 271,487" stroke="#000000" stroke-width="0.5"/>
      <line stroke="#009900" stroke-width="1" x1="294" x2="297" y1="347" y2="350"/>
      <line stroke="#009900" stroke-width="1" x1="291.171572875" x2="294.171572875" y1="349.828427125" y2="352.828427125"/>
      <line stroke="#009900" stroke-width="1" x1="288.343145751" x2="291.343145751" y1="352.656854249" y2="355.656854249"/>
      <line stroke="#009900" stroke-width="1" x1="285.514718626" x2="288.514718626" y1="355.485281374" y2="358.485281374"/>
      <line stroke="#009900" stroke-width="1" x1="282.686291501" x2="285.686291501" y1="358.313708499" y2="361.313708499"/>
      <line stroke="#009900" stroke-width="1" x1="279.857864376" x2="282.857864376" y1="361.142135624" y2="364.142135624"/>
      <line stroke="#009900" stroke-width="1" x1="274" x2="278" y1="377" y2="377"/>
      <line stroke="#009900" stroke-width="1" x1="274" x2="278" y1="381" y2="381"/>
      <line stroke="#009900" stroke-width="1" x1="274" x2="278" y1="385" y2="385"/>
      <line stroke="#009900" stroke-width="1" x1="274" x2="278" y1="389" y2="389"/>
      <line stroke="#009900" stroke-width="1" x1="274" x2="278" y1="393" y2="393"/>
      <line stroke="#009900" stroke-width="1" x1="274" x2="278" y1="397" y2="397"/>
      <line stroke="#009900" stroke-width="1" x1="274" x2="278" y1="401" y2="401"/>
      <line stroke="#009900" stroke-width="1" x1="274" x2="278" y1="405" y2="405"/>
      <line stroke="#009900" stroke-width="1" x1="274" x2="278" y1="409" y2="409"/>
      <line stroke="#009900" stroke-width="1" x1="276" x2="279" y1="415" y2="412"/>
      <line stroke="#009900" stroke-width="1" x1="278.828427125" x2="281.828427125" y1="417.828427125" y2="414.828427125"/>
      <line stroke="#009900" stroke-width="1" x1="281.656854249" x2="284.656854249" y1="420.656854249" y2="417.656854249"/>
      <line stroke="#009900" stroke-width="1" x1="284.485281374" x2="287.485281374" y1="423.485281374" y2="420.485281374"/>
      <line stroke="#009900" stroke-width="1" x1="287.313708499" x2="290.313708499" y1="426.313708499" y2="423.313708499"/>
      <line stroke="#009900" stroke-width="1" x1="290.142135624" x2="293.142135624" y1="429.142135624" y2="426.142135624"/>
      <line stroke="#009900" stroke-width="1" x1="292.970562748" x2="295.970562748" y1="431.970562748" y2="428.970562748"/>
      <polyline fill="none" marker-end="url(#id167)" points="326,299 326,315" stroke="#ff0000" stroke-width="1"/>
      <polyline fill="none" marker-end="url(#id167)" points="303,321 303,304" stroke="#ff0000" stroke-width="1"/>
      <polyline fill="none" marker-end="url(#id167)" points="293,495 280,495" stroke="#ff0000" stroke-width="1"/>
      <polyline fill="none" marker-end="url(#id167)" points="266,315 266,299" stroke="#009900" stroke-width="1"/>
      <polyline fill="none" marker-end="url(#id167)" points="289,304 289,322" stroke="#009900" stroke-width="1"/>
      <polyline fill="none" marker-end="url(#id167)" points="273,479 287,479" stroke="#009900" stroke-width="1"/>
      <polygon fill="#34349c" points="219,366 219,362 220,362 220,366" stroke="#34349c" stroke-width="1"/>
      <polygon fill="#ff0000" points="219,370 219,366 220,366 220,370" stroke="#ff0000" stroke-width="1"/>
      <polyline fill="none" points="800,352 800,376 839,376" stroke="#000000" stroke-width="1"/>
      <polyline fill="none" points="800,432 800,409 839,409" stroke="#000000" stroke-width="1"/>
      <polyline fill="none" points="833,376 833,335 866,335 866,331 862,331 862,274 857,274 857,316 854,316" stroke="#000000" stroke-width="1"/>
      <polyline fill="none" points="833,409 833,450 931,450 931,335 887,335 887,331 891,331 891,274 896,274 896,316 899,316" stroke="#000000" stroke-width="1"/>
      <polyline fill="none" points="838,316 835,316 835,254 917,254 917,316 914,316" stroke="#000000" stroke-width="1"/>
      <line stroke="#000000" stroke-width="1" x1="917" x2="896" y1="297" y2="297"/>
      <line stroke="#000000" stroke-width="1" x1="917" x2="896" y1="293" y2="293"/>
      <line stroke="#000000" stroke-width="1" x1="917" x2="896" y1="289" y2="289"/>
      <line stroke="#000000" stroke-width="1" x1="917" x2="896" y1="285" y2="285"/>
      <line stroke="#000000" stroke-width="1" x1="917" x2="896" y1="281" y2="281"/>
      <line stroke="#000000" stroke-width="1" x1="891" x2="862" y1="295" y2="295"/>
      <line stroke="#000000" stroke-width="1" x1="891" x2="862" y1="291" y2="291"/>
      <line stroke="#000000" stroke-width="1" x1="891" x2="862" y1="287" y2="287"/>
      <line stroke="#000000" stroke-width="1" x1="891" x2="862" y1="283" y2="283"/>
      <line stroke="#000000" stroke-width="1" x1="891" x2="862" y1="279" y2="279"/>
      <line stroke="#000000" stroke-width="1" x1="857" x2="835" y1="297" y2="297"/>
      <line stroke="#000000" stroke-width="1" x1="857" x2="835" y1="293" y2="293"/>
      <line stroke="#000000" stroke-width="1" x1="857" x2="835" y1="289" y2="289"/>
      <line stroke="#000000" stroke-width="1" x1="857" x2="835" y1="285" y2="285"/>
      <line stroke="#000000" stroke-width="1" x1="857" x2="835" y1="281" y2="281"/>
      <line stroke="#000000" stroke-width="1" x1="839" x2="839" y1="409" y2="376"/>
      <line stroke="#000000" stroke-width="1" x1="835" x2="835" y1="409" y2="376"/>
      <line stroke="#000000" stroke-width="1" x1="831" x2="831" y1="409" y2="376"/>
      <line stroke="#000000" stroke-width="1" x1="827" x2="827" y1="409" y2="376"/>
      <line stroke="#000000" stroke-width="1" x1="823" x2="823" y1="409" y2="376"/>
      <line stroke="#000000" stroke-width="1" x1="819" x2="819" y1="409" y2="376"/>
      <line stroke="#000000" stroke-width="1" x1="815" x2="815" y1="409" y2="376"/>
      <line stroke="#000000" stroke-width="1" x1="811" x2="811" y1="409" y2="376"/>
      <line stroke="#000000" stroke-width="1" x1="807" x2="807" y1="409" y2="376"/>
      <line stroke="#000000" stroke-width="1" x1="803" x2="803" y1="409" y2="376"/>
      <polyline fill="none" points="862,254 862,245 891,245 891,254" stroke="#000000" stroke-width="1"/>
      <text fill="#000000" font-family="Arial" font-size="10" stroke="none" stroke-width="0" x="864" y="253.0">кассы</text>
      <polyline fill="none" points="877,295 877,373" stroke="#000000" stroke-width="0.5"/>
      <polygon fill="none" points="874,373 880,373 880,379 874,379" stroke="#000000" stroke-width="1"/>
      <polyline fill="none" points="906,405 906,450" stroke="#000000" stroke-width="0.5"/>
      <line stroke="#009900" stroke-width="1" x1="884" x2="881" y1="381" y2="384"/>
      <line stroke="#009900" stroke-width="1" x1="886.828427125" x2="883.828427125" y1="383.828427125" y2="386.828427125"/>
      <line stroke="#009900" stroke-width="1" x1="889.656854249" x2="886.656854249" y1="386.656854249" y2="389.656854249"/>
      <line stroke="#009900" stroke-width="1" x1="892.485281374" x2="889.485281374" y1="389.485281374" y2="392.485281374"/>
      <line stroke="#009900" stroke-width="1" x1="895.313708499" x2="892.313708499" y1="392.313708499" y2="395.313708499"/>
      <line stroke="#009900" stroke-width="1" x1="898.142135624" x2="895.142135624" y1="395.142135624" y2="398.142135624"/>
      <line stroke="#009900" stroke-width="1" x1="900.970562748" x2="897.970562748" y1="397.970562748" y2="400.970562748"/>
      <line stroke="#009900" stroke-width="1" x1="903.798989873" x2="900.798989873" y1="400.798989873" y2="403.798989873"/>
      <line stroke="#009900" stroke-width="1" x1="906.627416998" x2="903.627416998" y1="403.627416998" y2="406.627416998"/>
      <polyline fill="none" marker-end="url(#id167)" points="846,306 846,319" stroke="#ff0000" stroke-width="1"/>
      <polyline fill="none" marker-end="url(#id167)" points="870,319 870,306" stroke="#ff0000" stroke-width="1"/>
      <polyline fill="none" marker-end="url(#id167)" points="906,319 906,306" stroke="#009900" stroke-width="1"/>
      <polyline fill="none" marker-end="url(#id167)" points="884,306 884,319" stroke="#009900" stroke-width="1"/>
      <polyline fill="none" marker-end="url(#id167)" points="907,377 899,385" stroke="#009900" stroke-width="1"/>
      <polygon fill="#34349c" points="853,414 849,414 849,415 853,415" stroke="#34349c" stroke-width="1"/>
      <polygon fill="#ff0000" points="857,414 853,414 853,415 857,415" stroke="#ff0000" stroke-width="1"/>
      <text fill="#00afaf" font-family="Arial" font-size="15" stroke="none" stroke-width="0" x="-33" y="404.0">Ленинградский проспект</text>
      <text fill="#00afaf" font-family="Arial" font-size="15" stroke="none" stroke-width="0" x="945" y="396.0">Ленинградский проспект</text>
      <text fill="#00afaf" font-family="Arial" font-size="15" stroke="none" stroke-width="0" transform="rotate(-90.0,177,330)" x="177" y="345.0">улица Черняховского</text>
      <text fill="#00afaf" font-family="Arial" font-size="15" stroke="none" stroke-width="0" transform="rotate(-90.0,969,306)" x="969" y="321.0">1-я Аэропортовская улица</text>
    </g>
    <g fill="none" fill-opacity="0.7" stroke="#00afaf" stroke-opacity="0.7" transform="rotate(38.0,525,380)">
      <polygon fill="#ffd0d0" points="151,565 214,565 214,608 151,608" stroke="#ffd0d0" stroke-width="1"/>
    </g>
    <g fill="#ffd0d0" fill-opacity="1.0" stroke="#ff4040" stroke-opacity="1.0" transform="rotate(38.0,525,380)">
      <text fill="#ff4040" font-family="Arial" font-size="15" stroke="none" stroke-width="0" x="159" y="588.0">закрыто</text>
      <polyline fill="none" points="151,565 214,565 214,608 151,608 151,565" stroke="#ff4040" stroke-dasharray="5 2" stroke-width="1"/>
    </g>
    <g>
      <rect fill="#615f56" height="30" stroke="none" stroke-width="0" width="30" x="453" y="170"/>
      <rect fill="#615f56" height="30" stroke="none" stroke-width="0" width="30" x="260" y="1"/>
      <rect fill="#615f56" height="30" stroke="none" stroke-width="0" width="30" x="30" y="248"/>
      <rect fill="#615f56" height="30" stroke="none" stroke-width="0" width="30" x="803" y="454"/>
      <text fill="#ffd900" font-family="Arial" font-size="25" stroke="none" stroke-width="0" x="461" y="196.0">1</text>
      <text fill="#ffd900" font-family="Arial" font-size="25" stroke="none" stroke-width="0" x="268" y="27.0">2</text>
      <text fill="#ffd900" font-family="Arial" font-size="25" stroke="none" stroke-width="0" x="38" y="274.0">3</text>
      <text fill="#ffd900" font-family="Arial" font-size="25" stroke="none" stroke-width="0" x="811" y="480.0">4</text>
    </g>
  </g>
</svg>
