<?xml version="1.0" encoding="utf-8" ?>
<svg baseProfile="full" height="1.0" version="1.1" width="1.0" xmlns="http://www.w3.org/2000/svg" xmlns:ev="http://www.w3.org/2001/xml-events" xmlns:xlink="http://www.w3.org/1999/xlink">
  <defs>
    <marker id="id171" markerHeight="3" markerUnits="strokeWidth" markerWidth="4" orient="auto" refX="0" refY="5" viewBox="0,0,10,10">
      <path d="M 0 0 L 10 5 L 0 10 z"/>
    </marker>
  </defs>
  <g>
    <rect fill="none" height="1170.0" stroke="none" stroke-width="0" width="560.0" x="0.0" y="0.0"/>
    <g transform="rotate(-90.0,280.0,585.0)">
      <polygon fill="#9ca4a4" points="41.0,655.0 41.0,625.0 491.0,625.0 491.0,655.0" stroke="#000000" stroke-width="1"/>
      <polygon fill="#9ca4a4" points="491.0,545.0 491.0,515.0 41.0,515.0 41.0,545.0" stroke="#000000" stroke-width="1"/>
      <text fill="#4c4c4c" font-family="Arial" font-size="25.0" stroke="none" stroke-width="0" x="200.0" y="580.0">Алтуфьево</text>
      <text fill="#4c4c4c" font-family="Arial" font-size="20.0" stroke="none" stroke-width="0" x="44.0" y="512.0">&lt;&lt; Бибирево</text>
      <text fill="#4c4c4c" font-family="Arial" font-size="20.0" stroke="none" stroke-width="0" x="360.0" y="675.0">посадки нет &gt;&gt;</text>
      <polyline fill="none" points="-70.0,496.0 -106.0,496.0 -106.0,523.0 -9.0,523.0 -9.0,555.0 41.0,555.0 41.0,545.0" stroke="#000000" stroke-width="1"/>
      <polyline fill="none" points="-70.0,703.0 -106.0,703.0 -106.0,646.0 -9.0,646.0 -9.0,615.0 41.0,615.0 41.0,625.0" stroke="#000000" stroke-width="1"/>
      <polyline fill="none" points="-172.0,496.0 -136.0,496.0 -136.0,703.0 -172.0,703.0" stroke="#000000" stroke-width="1"/>
      <polyline fill="none" points="-70.0,727.0 -172.0,727.0" stroke="#000000" stroke-width="1"/>
      <polyline fill="none" points="-70.0,473.0 -172.0,473.0" stroke="#000000" stroke-width="1"/>
      <line stroke="#000000" stroke-width="1" x1="-138.0" x2="-138.0" y1="473.0" y2="496.0"/>
      <line stroke="#000000" stroke-width="1" x1="-142.0" x2="-142.0" y1="473.0" y2="496.0"/>
      <line stroke="#000000" stroke-width="1" x1="-146.0" x2="-146.0" y1="473.0" y2="496.0"/>
      <line stroke="#000000" stroke-width="1" x1="-150.0" x2="-150.0" y1="473.0" y2="496.0"/>
      <line stroke="#000000" stroke-width="1" x1="-154.0" x2="-154.0" y1="473.0" y2="496.0"/>
      <line stroke="#000000" stroke-width="1" x1="-158.0" x2="-158.0" y1="473.0" y2="496.0"/>
      <line stroke="#000000" stroke-width="1" x1="-162.0" x2="-162.0" y1="473.0" y2="496.0"/>
      <line stroke="#000000" stroke-width="1" x1="-166.0" x2="-166.0" y1="473.0" y2="496.0"/>
      <line stroke="#000000" stroke-width="1" x1="-170.0" x2="-170.0" y1="473.0" y2="496.0"/>
      <line stroke="#000000" stroke-width="1" x1="-104.0" x2="-104.0" y1="727.0" y2="703.0"/>
      <line stroke="#000000" stroke-width="1" x1="-100.0" x2="-100.0" y1="727.0" y2="703.0"/>
      <line stroke="#000000" stroke-width="1" x1="-96.0" x2="-96.0" y1="727.0" y2="703.0"/>
      <line stroke="#000000" stroke-width="1" x1="-92.0" x2="-92.0" y1="727.0" y2="703.0"/>
      <line stroke="#000000" stroke-width="1" x1="-88.0" x2="-88.0" y1="727.0" y2="703.0"/>
      <line stroke="#000000" stroke-width="1" x1="-84.0" x2="-84.0" y1="727.0" y2="703.0"/>
      <line stroke="#000000" stroke-width="1" x1="-80.0" x2="-80.0" y1="727.0" y2="703.0"/>
      <line stroke="#000000" stroke-width="1" x1="-76.0" x2="-76.0" y1="727.0" y2="703.0"/>
      <line stroke="#000000" stroke-width="1" x1="-72.0" x2="-72.0" y1="727.0" y2="703.0"/>
      <line stroke="#000000" stroke-width="1" x1="-6.0" x2="-6.0" y1="555.0" y2="615.0"/>
      <line stroke="#000000" stroke-width="1" x1="-2.0" x2="-2.0" y1="555.0" y2="615.0"/>
      <line stroke="#000000" stroke-width="1" x1="2.0" x2="2.0" y1="555.0" y2="615.0"/>
      <line stroke="#000000" stroke-width="1" x1="6.0" x2="6.0" y1="555.0" y2="615.0"/>
      <line stroke="#000000" stroke-width="1" x1="10.0" x2="10.0" y1="555.0" y2="615.0"/>
      <line stroke="#000000" stroke-width="1" x1="14.0" x2="14.0" y1="555.0" y2="615.0"/>
      <line stroke="#000000" stroke-width="1" x1="18.0" x2="18.0" y1="555.0" y2="615.0"/>
      <line stroke="#000000" stroke-width="1" x1="22.0" x2="22.0" y1="555.0" y2="615.0"/>
      <line stroke="#000000" stroke-width="1" x1="26.0" x2="26.0" y1="555.0" y2="615.0"/>
      <line stroke="#000000" stroke-width="1" x1="30.0" x2="30.0" y1="555.0" y2="615.0"/>
      <line stroke="#000000" stroke-width="1" x1="34.0" x2="34.0" y1="555.0" y2="615.0"/>
      <line stroke="#000000" stroke-width="1" x1="38.0" x2="38.0" y1="555.0" y2="615.0"/>
      <line stroke="#000000" stroke-width="1" x1="-72.0" x2="-72.0" y1="473.0" y2="496.0"/>
      <line stroke="#000000" stroke-width="1" x1="-76.0" x2="-76.0" y1="473.0" y2="496.0"/>
      <line stroke="#000000" stroke-width="1" x1="-80.0" x2="-80.0" y1="473.0" y2="496.0"/>
      <line stroke="#000000" stroke-width="1" x1="-84.0" x2="-84.0" y1="473.0" y2="496.0"/>
      <line stroke="#000000" stroke-width="1" x1="-88.0" x2="-88.0" y1="473.0" y2="496.0"/>
      <line stroke="#000000" stroke-width="1" x1="-92.0" x2="-92.0" y1="473.0" y2="496.0"/>
      <line stroke="#000000" stroke-width="1" x1="-96.0" x2="-96.0" y1="473.0" y2="496.0"/>
      <line stroke="#000000" stroke-width="1" x1="-100.0" x2="-100.0" y1="473.0" y2="496.0"/>
      <line stroke="#000000" stroke-width="1" x1="-104.0" x2="-104.0" y1="473.0" y2="496.0"/>
      <line stroke="#000000" stroke-width="1" x1="-170.0" x2="-170.0" y1="703.0" y2="727.0"/>
      <line stroke="#000000" stroke-width="1" x1="-166.0" x2="-166.0" y1="703.0" y2="727.0"/>
      <line stroke="#000000" stroke-width="1" x1="-162.0" x2="-162.0" y1="703.0" y2="727.0"/>
      <line stroke="#000000" stroke-width="1" x1="-158.0" x2="-158.0" y1="703.0" y2="727.0"/>
      <line stroke="#000000" stroke-width="1" x1="-154.0" x2="-154.0" y1="703.0" y2="727.0"/>
      <line stroke="#000000" stroke-width="1" x1="-150.0" x2="-150.0" y1="703.0" y2="727.0"/>
      <line stroke="#000000" stroke-width="1" x1="-146.0" x2="-146.0" y1="703.0" y2="727.0"/>
      <line stroke="#000000" stroke-width="1" x1="-142.0" x2="-142.0" y1="703.0" y2="727.0"/>
      <line stroke="#000000" stroke-width="1" x1="-138.0" x2="-138.0" y1="703.0" y2="727.0"/>
      <polygon fill="#d0d0d0" points="-98.0,556.0 -106.0,556.0 -106.0,613.0 -98.0,613.0" stroke="#000000" stroke-width="1"/>
      <polyline fill="none" points="-9.0,525.0 4.0,525.0 4.0,553.0 -9.0,553.0" stroke="#000000" stroke-width="1"/>
      <text fill="#000000" font-family="Arial" font-size="10.0" stroke="none" stroke-width="0" transform="rotate(90.0,4.0,527.0)" x="4.0" y="537.0">кассы</text>
      <polyline fill="none" points="-9.0,554.0 -41.0,554.0" stroke="#000000" stroke-width="0.5"/>
      <polyline fill="none" points="-63.0,613.0 -98.0,613.0" stroke="#000000" stroke-width="0.5"/>
      <polygon fill="none" points="-68.0,611.0 -66.0,606.0 -61.0,608.0 -63.0,613.0" stroke="#000000" stroke-width="1"/>
      <line stroke="#009900" stroke-width="1" x1="-64.0" x2="-59.0" y1="603.0" y2="605.0"/>
      <line stroke="#009900" stroke-width="1" x1="-62.36163838866464" x2="-57.36163838866464" y1="599.3509218656621" y2="601.3509218656621"/>
      <line stroke="#009900" stroke-width="1" x1="-60.723276777329275" x2="-55.723276777329275" y1="595.7018437313243" y2="597.7018437313243"/>
      <line stroke="#009900" stroke-width="1" x1="-59.08491516599391" x2="-54.08491516599391" y1="592.0527655969864" y2="594.0527655969864"/>
      <line stroke="#009900" stroke-width="1" x1="-57.44655355465855" x2="-52.44655355465855" y1="588.4036874626486" y2="590.4036874626486"/>
      <line stroke="#009900" stroke-width="1" x1="-55.80819194332319" x2="-50.80819194332319" y1="584.7546093283107" y2="586.7546093283107"/>
      <line stroke="#009900" stroke-width="1" x1="-54.169830331987825" x2="-49.169830331987825" y1="581.1055311939729" y2="583.1055311939729"/>
      <line stroke="#009900" stroke-width="1" x1="-52.53146872065246" x2="-47.53146872065246" y1="577.456453059635" y2="579.456453059635"/>
      <line stroke="#009900" stroke-width="1" x1="-50.8931071093171" x2="-45.8931071093171" y1="573.8073749252972" y2="575.8073749252972"/>
      <line stroke="#009900" stroke-width="1" x1="-49.25474549798174" x2="-44.25474549798174" y1="570.1582967909593" y2="572.1582967909593"/>
      <line stroke="#009900" stroke-width="1" x1="-47.616383886646375" x2="-42.616383886646375" y1="566.5092186566214" y2="568.5092186566214"/>
      <line stroke="#009900" stroke-width="1" x1="-45.97802227531101" x2="-40.97802227531101" y1="562.8601405222836" y2="564.8601405222836"/>
      <line stroke="#009900" stroke-width="1" x1="-44.33966066397565" x2="-39.33966066397565" y1="559.2110623879457" y2="561.2110623879457"/>
      <line stroke="#009900" stroke-width="1" x1="-42.70129905264029" x2="-37.70129905264029" y1="555.5619842536079" y2="557.5619842536079"/>
      <line stroke="#ff0000" stroke-width="1" x1="-63.0" x2="-69.0" y1="618.0" y2="618.0"/>
      <line stroke="#ff0000" stroke-width="1" x1="-63.0" x2="-69.0" y1="622.0" y2="622.0"/>
      <line stroke="#ff0000" stroke-width="1" x1="-63.0" x2="-69.0" y1="626.0" y2="626.0"/>
      <line stroke="#ff0000" stroke-width="1" x1="-63.0" x2="-69.0" y1="630.0" y2="630.0"/>
      <line stroke="#ff0000" stroke-width="1" x1="-63.0" x2="-69.0" y1="634.0" y2="634.0"/>
      <line stroke="#ff0000" stroke-width="1" x1="-63.0" x2="-69.0" y1="638.0" y2="638.0"/>
      <line stroke="#ff0000" stroke-width="1" x1="-63.0" x2="-69.0" y1="642.0" y2="642.0"/>
      <polyline fill="none" points="603.0,472.0 639.0,472.0 639.0,523.0 540.0,523.0 540.0,555.0 491.0,555.0 491.0,545.0" stroke="#000000" stroke-width="1"/>
      <polyline fill="none" points="603.0,703.0 639.0,703.0 639.0,646.0 540.0,646.0 540.0,615.0 491.0,615.0 491.0,625.0" stroke="#000000" stroke-width="1"/>
      <polyline fill="none" points="603.0,448.0 706.0,448.0" stroke="#000000" stroke-width="1"/>
      <polyline fill="none" points="706.0,472.0 670.0,472.0 670.0,703.0 706.0,703.0" stroke="#000000" stroke-width="1"/>
      <polyline fill="none" points="603.0,727.0 706.0,727.0" stroke="#000000" stroke-width="1"/>
      <line stroke="#000000" stroke-width="1" x1="493.0" x2="493.0" y1="555.0" y2="615.0"/>
      <line stroke="#000000" stroke-width="1" x1="497.0" x2="497.0" y1="555.0" y2="615.0"/>
      <line stroke="#000000" stroke-width="1" x1="501.0" x2="501.0" y1="555.0" y2="615.0"/>
      <line stroke="#000000" stroke-width="1" x1="505.0" x2="505.0" y1="555.0" y2="615.0"/>
      <line stroke="#000000" stroke-width="1" x1="509.0" x2="509.0" y1="555.0" y2="615.0"/>
      <line stroke="#000000" stroke-width="1" x1="513.0" x2="513.0" y1="555.0" y2="615.0"/>
      <line stroke="#000000" stroke-width="1" x1="517.0" x2="517.0" y1="555.0" y2="615.0"/>
      <line stroke="#000000" stroke-width="1" x1="521.0" x2="521.0" y1="555.0" y2="615.0"/>
      <line stroke="#000000" stroke-width="1" x1="525.0" x2="525.0" y1="555.0" y2="615.0"/>
      <line stroke="#000000" stroke-width="1" x1="529.0" x2="529.0" y1="555.0" y2="615.0"/>
      <line stroke="#000000" stroke-width="1" x1="533.0" x2="533.0" y1="555.0" y2="615.0"/>
      <line stroke="#000000" stroke-width="1" x1="537.0" x2="537.0" y1="555.0" y2="615.0"/>
      <line stroke="#000000" stroke-width="1" x1="605.0" x2="605.0" y1="472.0" y2="448.0"/>
      <line stroke="#000000" stroke-width="1" x1="609.0" x2="609.0" y1="472.0" y2="448.0"/>
      <line stroke="#000000" stroke-width="1" x1="613.0" x2="613.0" y1="472.0" y2="448.0"/>
      <line stroke="#000000" stroke-width="1" x1="617.0" x2="617.0" y1="472.0" y2="448.0"/>
      <line stroke="#000000" stroke-width="1" x1="621.0" x2="621.0" y1="472.0" y2="448.0"/>
      <line stroke="#000000" stroke-width="1" x1="625.0" x2="625.0" y1="472.0" y2="448.0"/>
      <line stroke="#000000" stroke-width="1" x1="629.0" x2="629.0" y1="472.0" y2="448.0"/>
      <line stroke="#000000" stroke-width="1" x1="633.0" x2="633.0" y1="472.0" y2="448.0"/>
      <line stroke="#000000" stroke-width="1" x1="637.0" x2="637.0" y1="472.0" y2="448.0"/>
      <line stroke="#000000" stroke-width="1" x1="605.0" x2="605.0" y1="727.0" y2="703.0"/>
      <line stroke="#000000" stroke-width="1" x1="609.0" x2="609.0" y1="727.0" y2="703.0"/>
      <line stroke="#000000" stroke-width="1" x1="613.0" x2="613.0" y1="727.0" y2="703.0"/>
      <line stroke="#000000" stroke-width="1" x1="617.0" x2="617.0" y1="727.0" y2="703.0"/>
      <line stroke="#000000" stroke-width="1" x1="621.0" x2="621.0" y1="727.0" y2="703.0"/>
      <line stroke="#000000" stroke-width="1" x1="625.0" x2="625.0" y1="727.0" y2="703.0"/>
      <line stroke="#000000" stroke-width="1" x1="629.0" x2="629.0" y1="727.0" y2="703.0"/>
      <line stroke="#000000" stroke-width="1" x1="633.0" x2="633.0" y1="727.0" y2="703.0"/>
      <line stroke="#000000" stroke-width="1" x1="637.0" x2="637.0" y1="727.0" y2="703.0"/>
      <line stroke="#000000" stroke-width="1" x1="672.0" x2="672.0" y1="472.0" y2="448.0"/>
      <line stroke="#000000" stroke-width="1" x1="676.0" x2="676.0" y1="472.0" y2="448.0"/>
      <line stroke="#000000" stroke-width="1" x1="680.0" x2="680.0" y1="472.0" y2="448.0"/>
      <line stroke="#000000" stroke-width="1" x1="684.0" x2="684.0" y1="472.0" y2="448.0"/>
      <line stroke="#000000" stroke-width="1" x1="688.0" x2="688.0" y1="472.0" y2="448.0"/>
      <line stroke="#000000" stroke-width="1" x1="692.0" x2="692.0" y1="472.0" y2="448.0"/>
      <line stroke="#000000" stroke-width="1" x1="696.0" x2="696.0" y1="472.0" y2="448.0"/>
      <line stroke="#000000" stroke-width="1" x1="700.0" x2="700.0" y1="472.0" y2="448.0"/>
      <line stroke="#000000" stroke-width="1" x1="704.0" x2="704.0" y1="472.0" y2="448.0"/>
      <line stroke="#000000" stroke-width="1" x1="672.0" x2="672.0" y1="727.0" y2="703.0"/>
      <line stroke="#000000" stroke-width="1" x1="676.0" x2="676.0" y1="727.0" y2="703.0"/>
      <line stroke="#000000" stroke-width="1" x1="680.0" x2="680.0" y1="727.0" y2="703.0"/>
      <line stroke="#000000" stroke-width="1" x1="684.0" x2="684.0" y1="727.0" y2="703.0"/>
      <line stroke="#000000" stroke-width="1" x1="688.0" x2="688.0" y1="727.0" y2="703.0"/>
      <line stroke="#000000" stroke-width="1" x1="692.0" x2="692.0" y1="727.0" y2="703.0"/>
      <line stroke="#000000" stroke-width="1" x1="696.0" x2="696.0" y1="727.0" y2="703.0"/>
      <line stroke="#000000" stroke-width="1" x1="700.0" x2="700.0" y1="727.0" y2="703.0"/>
      <line stroke="#000000" stroke-width="1" x1="704.0" x2="704.0" y1="727.0" y2="703.0"/>
      <polygon fill="#d0d0d0" points="639.0,556.0 631.0,556.0 631.0,613.0 639.0,613.0" stroke="#000000" stroke-width="1"/>
      <polyline fill="none" points="540.0,554.0 571.0,554.0" stroke="#000000" stroke-width="0.5"/>
      <polygon fill="none" points="601.0,611.0 599.0,606.0 594.0,608.0 596.0,613.0" stroke="#000000" stroke-width="1"/>
      <polyline fill="none" points="596.0,613.0 631.0,613.0" stroke="#000000" stroke-width="0.5"/>
      <line stroke="#009900" stroke-width="1" x1="593.0" x2="598.0" y1="604.0" y2="602.0"/>
      <line stroke="#009900" stroke-width="1" x1="591.4884120102936" x2="596.4884120102936" y1="600.2966094252192" y2="598.2966094252192"/>
      <line stroke="#009900" stroke-width="1" x1="589.9768240205872" x2="594.9768240205872" y1="596.5932188504385" y2="594.5932188504385"/>
      <line stroke="#009900" stroke-width="1" x1="588.4652360308808" x2="593.4652360308808" y1="592.8898282756577" y2="590.8898282756577"/>
      <line stroke="#009900" stroke-width="1" x1="586.9536480411743" x2="591.9536480411743" y1="589.1864377008769" y2="587.1864377008769"/>
      <line stroke="#009900" stroke-width="1" x1="585.4420600514679" x2="590.4420600514679" y1="585.4830471260962" y2="583.4830471260962"/>
      <line stroke="#009900" stroke-width="1" x1="583.9304720617615" x2="588.9304720617615" y1="581.7796565513154" y2="579.7796565513154"/>
      <line stroke="#009900" stroke-width="1" x1="582.4188840720551" x2="587.4188840720551" y1="578.0762659765346" y2="576.0762659765346"/>
      <line stroke="#009900" stroke-width="1" x1="580.9072960823487" x2="585.9072960823487" y1="574.3728754017538" y2="572.3728754017538"/>
      <line stroke="#009900" stroke-width="1" x1="579.3957080926423" x2="584.3957080926423" y1="570.6694848269731" y2="568.6694848269731"/>
      <line stroke="#009900" stroke-width="1" x1="577.8841201029359" x2="582.8841201029359" y1="566.9660942521923" y2="564.9660942521923"/>
      <line stroke="#009900" stroke-width="1" x1="576.3725321132295" x2="581.3725321132295" y1="563.2627036774115" y2="561.2627036774115"/>
      <line stroke="#009900" stroke-width="1" x1="574.860944123523" x2="579.860944123523" y1="559.5593131026308" y2="557.5593131026308"/>
      <line stroke="#009900" stroke-width="1" x1="573.3493561338166" x2="578.3493561338166" y1="555.85592252785" y2="553.85592252785"/>
      <line stroke="#ff0000" stroke-width="1" x1="601.0" x2="595.0" y1="617.0" y2="617.0"/>
      <line stroke="#ff0000" stroke-width="1" x1="601.0" x2="595.0" y1="621.0" y2="621.0"/>
      <line stroke="#ff0000" stroke-width="1" x1="601.0" x2="595.0" y1="625.0" y2="625.0"/>
      <line stroke="#ff0000" stroke-width="1" x1="601.0" x2="595.0" y1="629.0" y2="629.0"/>
      <line stroke="#ff0000" stroke-width="1" x1="601.0" x2="595.0" y1="633.0" y2="633.0"/>
      <line stroke="#ff0000" stroke-width="1" x1="601.0" x2="595.0" y1="637.0" y2="637.0"/>
      <line stroke="#ff0000" stroke-width="1" x1="601.0" x2="595.0" y1="641.0" y2="641.0"/>
      <polyline fill="none" points="540.0,525.0 527.0,525.0 527.0,553.0 540.0,553.0" stroke="#000000" stroke-width="1"/>
      <text fill="#000000" font-family="Arial" font-size="10.0" stroke="none" stroke-width="0" transform="rotate(90.0,540.0,528.0)" x="540.0" y="538.0">кассы</text>
      <polyline fill="none" marker-end="url(#id171)" points="622.0,629.0 635.0,629.0" stroke="#ff0000" stroke-width="1"/>
      <polyline fill="none" marker-end="url(#id171)" points="-89.0,630.0 -103.0,630.0" stroke="#ff0000" stroke-width="1"/>
      <polyline fill="none" marker-end="url(#id171)" points="608.0,548.0 596.0,553.0" stroke="#009900" stroke-width="1"/>
      <polyline fill="none" marker-end="url(#id171)" points="-73.0,561.0 -61.0,566.0" stroke="#009900" stroke-width="1"/>
      <polygon fill="#34349c" points="561.0,558.0 566.0,558.0 566.0,556.0 561.0,556.0" stroke="#34349c" stroke-width="1"/>
      <polygon fill="#34349c" points="251.0,588.0 251.0,583.0 249.0,583.0 249.0,588.0" stroke="#34349c" stroke-width="1"/>
      <polygon fill="#34349c" points="-27.0,558.0 -22.0,558.0 -22.0,556.0 -27.0,556.0" stroke="#34349c" stroke-width="1"/>
      <polygon fill="#ff0000" points="556.0,558.0 561.0,558.0 561.0,556.0 556.0,556.0" stroke="#ff0000" stroke-width="1"/>
      <polygon fill="#ff0000" points="251.0,593.0 251.0,588.0 249.0,588.0 249.0,593.0" stroke="#ff0000" stroke-width="1"/>
      <polygon fill="#ff0000" points="-32.0,558.0 -27.0,558.0 -27.0,556.0 -32.0,556.0" stroke="#ff0000" stroke-width="1"/>
      <text fill="#00afaf" font-family="Arial" font-size="15.0" stroke="none" stroke-width="0" x="704.0" y="602.0">Алтуфьевское шоссе</text>
      <text fill="#00afaf" font-family="Arial" font-size="15.0" stroke="none" stroke-width="0" x="-298.0" y="602.0">Алтуфьевское шоссе</text>
      <text fill="#00afaf" font-family="Arial" font-size="15.0" stroke="none" stroke-width="0" transform="rotate(90.0,450.0,319.0)" x="450.0" y="334.0">Череповецкая улица</text>
      <text fill="#00afaf" font-family="Arial" font-size="15.0" stroke="none" stroke-width="0" transform="rotate(90.0,450.0,759.0)" x="450.0" y="774.0">улица Лескова</text>
      <text fill="#00afaf" font-family="Arial" font-size="15.0" stroke="none" stroke-width="0" transform="rotate(90.0,400.0,759.0)" x="400.0" y="774.0">Макдональдс</text>
      <rect fill="none" height="1.0" stroke="none" stroke-width="0" width="1.0" x="0.0" y="0.0"/>
    </g>
    <g>
      <rect fill="#615f56" height="30.0" stroke="none" stroke-width="0" width="30.0" x="107.0" y="236.0"/>
      <rect fill="#615f56" height="30.0" stroke="none" stroke-width="0" width="30.0" x="107.0" y="157.0"/>
      <rect fill="#615f56" height="30.0" stroke="none" stroke-width="0" width="30.0" x="428.0" y="157.0"/>
      <rect fill="#615f56" height="30.0" stroke="none" stroke-width="0" width="30.0" x="427.0" y="231.0"/>
      <rect fill="#615f56" height="30.0" stroke="none" stroke-width="0" width="30.0" x="427.0" y="938.0"/>
      <rect fill="#615f56" height="30.0" stroke="none" stroke-width="0" width="30.0" x="427.0" y="1004.0"/>
      <rect fill="#615f56" height="30.0" stroke="none" stroke-width="0" width="30.0" x="133.0" y="1006.0"/>
      <rect fill="#615f56" height="30.0" stroke="none" stroke-width="0" width="30.0" x="133.0" y="936.0"/>
      <rect fill="#615f56" height="30.0" stroke="none" stroke-width="0" width="30.0" x="10.0" y="400.0"/>
      <rect fill="#615f56" height="30.0" stroke="none" stroke-width="0" width="30.0" x="10.0" y="450.0"/>
      <rect fill="#615f56" height="30.0" stroke="none" stroke-width="0" width="30.0" x="10.0" y="500.0"/>
      <rect fill="#615f56" height="30.0" stroke="none" stroke-width="0" width="30.0" x="10.0" y="550.0"/>
      <rect fill="#615f56" height="30.0" stroke="none" stroke-width="0" width="30.0" x="10.0" y="600.0"/>
      <rect fill="#615f56" height="30.0" stroke="none" stroke-width="0" width="30.0" x="10.0" y="650.0"/>
      <text fill="#ffd900" font-family="Arial" font-size="25.0" stroke="none" stroke-width="0" x="115.0" y="262.0">1</text>
      <text fill="#ffd900" font-family="Arial" font-size="25.0" stroke="none" stroke-width="0" x="115.0" y="183.0">2</text>
      <text fill="#ffd900" font-family="Arial" font-size="25.0" stroke="none" stroke-width="0" x="436.0" y="183.0">3</text>
      <text fill="#ffd900" font-family="Arial" font-size="25.0" stroke="none" stroke-width="0" x="435.0" y="257.0">4</text>
      <text fill="#ffd900" font-family="Arial" font-size="25.0" stroke="none" stroke-width="0" x="435.0" y="964.0">5</text>
      <text fill="#ffd900" font-family="Arial" font-size="25.0" stroke="none" stroke-width="0" x="435.0" y="1030.0">6</text>
      <text fill="#ffd900" font-family="Arial" font-size="25.0" stroke="none" stroke-width="0" x="141.0" y="1032.0">7</text>
      <text fill="#ffd900" font-family="Arial" font-size="25.0" stroke="none" stroke-width="0" x="141.0" y="962.0">8</text>
      <text fill="#ffd900" font-family="Arial" font-size="25.0" stroke="none" stroke-width="0" x="18.0" y="426.0">9</text>
      <text fill="#ffd900" font-family="Arial" font-size="25.0" stroke="none" stroke-width="0" x="12.0" y="476.0">10</text>
      <text fill="#ffd900" font-family="Arial" font-size="25.0" stroke="none" stroke-width="0" x="12.0" y="526.0">11</text>
      <text fill="#ffd900" font-family="Arial" font-size="25.0" stroke="none" stroke-width="0" x="12.0" y="576.0">12</text>
      <text fill="#ffd900" font-family="Arial" font-size="25.0" stroke="none" stroke-width="0" x="12.0" y="626.0">13</text>
      <text fill="#ffd900" font-family="Arial" font-size="25.0" stroke="none" stroke-width="0" x="12.0" y="676.0">14</text>
    </g>
  </g>
</svg>
