<?xml version="1.0" encoding="utf-8" ?>
<svg baseProfile="full" height="100%" version="1.1" width="100%" xmlns="http://www.w3.org/2000/svg" xmlns:ev="http://www.w3.org/2001/xml-events" xmlns:xlink="http://www.w3.org/1999/xlink"><defs><marker id="id330" markerHeight="3" markerUnits="strokeWidth" markerWidth="4" orient="auto" refX="0" refY="5" viewBox="0,0,10,10"><path d="M 0 0 L 10 5 L 0 10 z" /></marker></defs><g transform="scale(0.5) rotate(29.0,450,300)"><rect fill="none" height="600" stroke="none" width="900" x="0" y="0" /><text fill="#000000" font-family="Arial" font-size="15" stroke="none" x="145" y="317.0">&lt;&lt; Нахабино</text><text fill="#000000" font-family="Arial" font-size="15" stroke="none" x="855" y="379.0">Опалиха &gt;&gt;</text><line stroke="#000000" stroke-width="1" x1="493" x2="502" y1="373" y2="373" /><line stroke="#000000" stroke-width="1" x1="493" x2="502" y1="377" y2="377" /><line stroke="#000000" stroke-width="1" x1="493" x2="502" y1="381" y2="381" /><line stroke="#000000" stroke-width="1" x1="493" x2="502" y1="385" y2="385" /><polyline fill="none" points="493,373 493,387" stroke="#000000" stroke-width="1" /><polyline fill="none" points="502,373 502,387" stroke="#000000" stroke-width="1" /><line stroke="#000000" stroke-width="1" x1="147" x2="147" y1="322" y2="329" /><line stroke="#000000" stroke-width="1" x1="143" x2="143" y1="322" y2="329" /><line stroke="#000000" stroke-width="1" x1="139" x2="139" y1="322" y2="329" /><line stroke="#000000" stroke-width="1" x1="135" x2="135" y1="322" y2="329" /><polyline fill="none" points="147,322 135,322 135,310" stroke="#000000" stroke-width="1" /><polyline fill="none" points="147,329 130,329 133,356 147,356" stroke="#000000" stroke-width="1" /><polyline fill="none" points="147,363 133,363 133,416 239,761" stroke="#000000" stroke-width="1" /><line stroke="#000000" stroke-width="1" x1="147" x2="147" y1="356" y2="363" /><line stroke="#000000" stroke-width="1" x1="143" x2="143" y1="356" y2="363" /><line stroke="#000000" stroke-width="1" x1="139" x2="139" y1="356" y2="363" /><line stroke="#000000" stroke-width="1" x1="135" x2="135" y1="356" y2="363" /><polyline fill="none" points="221,771 40,182" stroke="#000000" stroke-width="1" /><polyline fill="none" points="135,310 112,255 90,198 79,160" stroke="#000000" stroke-width="1" /><polyline fill="none" points="71,165 83,201 106,258 128,310 128,322 121,322 126,356 126,396 59,171" stroke="#000000" stroke-width="1" /><line stroke="#000000" stroke-width="1" x1="135" x2="128" y1="320" y2="320" /><line stroke="#000000" stroke-width="1" x1="135" x2="128" y1="316" y2="316" /><line stroke="#000000" stroke-width="1" x1="135" x2="128" y1="312" y2="312" /><polyline fill="none" points="89,382 89,358 71,358 71,382 89,382" stroke="#000000" stroke-width="1" /><polygon fill="#84AC60" points="214,780 93,393 60,393 60,361 -38,361 199,788" stroke="#000000" stroke-width="1" /><polygon fill="#84AC60" points="193,544 143,377 394,377 415,398 507,398 526,382 941,382 645,546" stroke="#000000" stroke-width="1" /><polygon fill="#84AC60" points="125,239 89,149 531,-96 670,154 782,239" stroke="#000000" stroke-width="1" /><polygon fill="#84AC60" points="21,187 42,256 -103,256" stroke="#000000" stroke-width="1" /><line stroke="#000000" stroke-width="1" x1="-47" x2="988" y1="335" y2="335" /><line stroke="#000000" stroke-width="1" x1="-47" x2="988" y1="339" y2="339" /><line stroke="#000000" stroke-width="1" x1="-44" x2="-44" y1="334.0" y2="340.0" /><line stroke="#000000" stroke-width="1" x1="-38" x2="-38" y1="334.0" y2="340.0" /><line stroke="#000000" stroke-width="1" x1="-32" x2="-32" y1="334.0" y2="340.0" /><line stroke="#000000" stroke-width="1" x1="-26" x2="-26" y1="334.0" y2="340.0" /><line stroke="#000000" stroke-width="1" x1="-20" x2="-20" y1="334.0" y2="340.0" /><line stroke="#000000" stroke-width="1" x1="-14" x2="-14" y1="334.0" y2="340.0" /><line stroke="#000000" stroke-width="1" x1="-8" x2="-8" y1="334.0" y2="340.0" /><line stroke="#000000" stroke-width="1" x1="-2" x2="-2" y1="334.0" y2="340.0" /><line stroke="#000000" stroke-width="1" x1="4" x2="4" y1="334.0" y2="340.0" /><line stroke="#000000" stroke-width="1" x1="10" x2="10" y1="334.0" y2="340.0" /><line stroke="#000000" stroke-width="1" x1="16" x2="16" y1="334.0" y2="340.0" /><line stroke="#000000" stroke-width="1" x1="22" x2="22" y1="334.0" y2="340.0" /><line stroke="#000000" stroke-width="1" x1="28" x2="28" y1="334.0" y2="340.0" /><line stroke="#000000" stroke-width="1" x1="34" x2="34" y1="334.0" y2="340.0" /><line stroke="#000000" stroke-width="1" x1="40" x2="40" y1="334.0" y2="340.0" /><line stroke="#000000" stroke-width="1" x1="46" x2="46" y1="334.0" y2="340.0" /><line stroke="#000000" stroke-width="1" x1="52" x2="52" y1="334.0" y2="340.0" /><line stroke="#000000" stroke-width="1" x1="58" x2="58" y1="334.0" y2="340.0" /><line stroke="#000000" stroke-width="1" x1="64" x2="64" y1="334.0" y2="340.0" /><line stroke="#000000" stroke-width="1" x1="70" x2="70" y1="334.0" y2="340.0" /><line stroke="#000000" stroke-width="1" x1="76" x2="76" y1="334.0" y2="340.0" /><line stroke="#000000" stroke-width="1" x1="82" x2="82" y1="334.0" y2="340.0" /><line stroke="#000000" stroke-width="1" x1="88" x2="88" y1="334.0" y2="340.0" /><line stroke="#000000" stroke-width="1" x1="94" x2="94" y1="334.0" y2="340.0" /><line stroke="#000000" stroke-width="1" x1="100" x2="100" y1="334.0" y2="340.0" /><line stroke="#000000" stroke-width="1" x1="106" x2="106" y1="334.0" y2="340.0" /><line stroke="#000000" stroke-width="1" x1="112" x2="112" y1="334.0" y2="340.0" /><line stroke="#000000" stroke-width="1" x1="118" x2="118" y1="334.0" y2="340.0" /><line stroke="#000000" stroke-width="1" x1="124" x2="124" y1="334.0" y2="340.0" /><line stroke="#000000" stroke-width="1" x1="130" x2="130" y1="334.0" y2="340.0" /><line stroke="#000000" stroke-width="1" x1="136" x2="136" y1="334.0" y2="340.0" /><line stroke="#000000" stroke-width="1" x1="142" x2="142" y1="334.0" y2="340.0" /><line stroke="#000000" stroke-width="1" x1="148" x2="148" y1="334.0" y2="340.0" /><line stroke="#000000" stroke-width="1" x1="154" x2="154" y1="334.0" y2="340.0" /><line stroke="#000000" stroke-width="1" x1="160" x2="160" y1="334.0" y2="340.0" /><line stroke="#000000" stroke-width="1" x1="166" x2="166" y1="334.0" y2="340.0" /><line stroke="#000000" stroke-width="1" x1="172" x2="172" y1="334.0" y2="340.0" /><line stroke="#000000" stroke-width="1" x1="178" x2="178" y1="334.0" y2="340.0" /><line stroke="#000000" stroke-width="1" x1="184" x2="184" y1="334.0" y2="340.0" /><line stroke="#000000" stroke-width="1" x1="190" x2="190" y1="334.0" y2="340.0" /><line stroke="#000000" stroke-width="1" x1="196" x2="196" y1="334.0" y2="340.0" /><line stroke="#000000" stroke-width="1" x1="202" x2="202" y1="334.0" y2="340.0" /><line stroke="#000000" stroke-width="1" x1="208" x2="208" y1="334.0" y2="340.0" /><line stroke="#000000" stroke-width="1" x1="214" x2="214" y1="334.0" y2="340.0" /><line stroke="#000000" stroke-width="1" x1="220" x2="220" y1="334.0" y2="340.0" /><line stroke="#000000" stroke-width="1" x1="226" x2="226" y1="334.0" y2="340.0" /><line stroke="#000000" stroke-width="1" x1="232" x2="232" y1="334.0" y2="340.0" /><line stroke="#000000" stroke-width="1" x1="238" x2="238" y1="334.0" y2="340.0" /><line stroke="#000000" stroke-width="1" x1="244" x2="244" y1="334.0" y2="340.0" /><line stroke="#000000" stroke-width="1" x1="250" x2="250" y1="334.0" y2="340.0" /><line stroke="#000000" stroke-width="1" x1="256" x2="256" y1="334.0" y2="340.0" /><line stroke="#000000" stroke-width="1" x1="262" x2="262" y1="334.0" y2="340.0" /><line stroke="#000000" stroke-width="1" x1="268" x2="268" y1="334.0" y2="340.0" /><line stroke="#000000" stroke-width="1" x1="274" x2="274" y1="334.0" y2="340.0" /><line stroke="#000000" stroke-width="1" x1="280" x2="280" y1="334.0" y2="340.0" /><line stroke="#000000" stroke-width="1" x1="286" x2="286" y1="334.0" y2="340.0" /><line stroke="#000000" stroke-width="1" x1="292" x2="292" y1="334.0" y2="340.0" /><line stroke="#000000" stroke-width="1" x1="298" x2="298" y1="334.0" y2="340.0" /><line stroke="#000000" stroke-width="1" x1="304" x2="304" y1="334.0" y2="340.0" /><line stroke="#000000" stroke-width="1" x1="310" x2="310" y1="334.0" y2="340.0" /><line stroke="#000000" stroke-width="1" x1="316" x2="316" y1="334.0" y2="340.0" /><line stroke="#000000" stroke-width="1" x1="322" x2="322" y1="334.0" y2="340.0" /><line stroke="#000000" stroke-width="1" x1="328" x2="328" y1="334.0" y2="340.0" /><line stroke="#000000" stroke-width="1" x1="334" x2="334" y1="334.0" y2="340.0" /><line stroke="#000000" stroke-width="1" x1="340" x2="340" y1="334.0" y2="340.0" /><line stroke="#000000" stroke-width="1" x1="346" x2="346" y1="334.0" y2="340.0" /><line stroke="#000000" stroke-width="1" x1="352" x2="352" y1="334.0" y2="340.0" /><line stroke="#000000" stroke-width="1" x1="358" x2="358" y1="334.0" y2="340.0" /><line stroke="#000000" stroke-width="1" x1="364" x2="364" y1="334.0" y2="340.0" /><line stroke="#000000" stroke-width="1" x1="370" x2="370" y1="334.0" y2="340.0" /><line stroke="#000000" stroke-width="1" x1="376" x2="376" y1="334.0" y2="340.0" /><line stroke="#000000" stroke-width="1" x1="382" x2="382" y1="334.0" y2="340.0" /><line stroke="#000000" stroke-width="1" x1="388" x2="388" y1="334.0" y2="340.0" /><line stroke="#000000" stroke-width="1" x1="394" x2="394" y1="334.0" y2="340.0" /><line stroke="#000000" stroke-width="1" x1="400" x2="400" y1="334.0" y2="340.0" /><line stroke="#000000" stroke-width="1" x1="406" x2="406" y1="334.0" y2="340.0" /><line stroke="#000000" stroke-width="1" x1="412" x2="412" y1="334.0" y2="340.0" /><line stroke="#000000" stroke-width="1" x1="418" x2="418" y1="334.0" y2="340.0" /><line stroke="#000000" stroke-width="1" x1="424" x2="424" y1="334.0" y2="340.0" /><line stroke="#000000" stroke-width="1" x1="430" x2="430" y1="334.0" y2="340.0" /><line stroke="#000000" stroke-width="1" x1="436" x2="436" y1="334.0" y2="340.0" /><line stroke="#000000" stroke-width="1" x1="442" x2="442" y1="334.0" y2="340.0" /><line stroke="#000000" stroke-width="1" x1="448" x2="448" y1="334.0" y2="340.0" /><line stroke="#000000" stroke-width="1" x1="454" x2="454" y1="334.0" y2="340.0" /><line stroke="#000000" stroke-width="1" x1="460" x2="460" y1="334.0" y2="340.0" /><line stroke="#000000" stroke-width="1" x1="466" x2="466" y1="334.0" y2="340.0" /><line stroke="#000000" stroke-width="1" x1="472" x2="472" y1="334.0" y2="340.0" /><line stroke="#000000" stroke-width="1" x1="478" x2="478" y1="334.0" y2="340.0" /><line stroke="#000000" stroke-width="1" x1="484" x2="484" y1="334.0" y2="340.0" /><line stroke="#000000" stroke-width="1" x1="490" x2="490" y1="334.0" y2="340.0" /><line stroke="#000000" stroke-width="1" x1="496" x2="496" y1="334.0" y2="340.0" /><line stroke="#000000" stroke-width="1" x1="502" x2="502" y1="334.0" y2="340.0" /><line stroke="#000000" stroke-width="1" x1="508" x2="508" y1="334.0" y2="340.0" /><line stroke="#000000" stroke-width="1" x1="514" x2="514" y1="334.0" y2="340.0" /><line stroke="#000000" stroke-width="1" x1="520" x2="520" y1="334.0" y2="340.0" /><line stroke="#000000" stroke-width="1" x1="526" x2="526" y1="334.0" y2="340.0" /><line stroke="#000000" stroke-width="1" x1="532" x2="532" y1="334.0" y2="340.0" /><line stroke="#000000" stroke-width="1" x1="538" x2="538" y1="334.0" y2="340.0" /><line stroke="#000000" stroke-width="1" x1="544" x2="544" y1="334.0" y2="340.0" /><line stroke="#000000" stroke-width="1" x1="550" x2="550" y1="334.0" y2="340.0" /><line stroke="#000000" stroke-width="1" x1="556" x2="556" y1="334.0" y2="340.0" /><line stroke="#000000" stroke-width="1" x1="562" x2="562" y1="334.0" y2="340.0" /><line stroke="#000000" stroke-width="1" x1="568" x2="568" y1="334.0" y2="340.0" /><line stroke="#000000" stroke-width="1" x1="574" x2="574" y1="334.0" y2="340.0" /><line stroke="#000000" stroke-width="1" x1="580" x2="580" y1="334.0" y2="340.0" /><line stroke="#000000" stroke-width="1" x1="586" x2="586" y1="334.0" y2="340.0" /><line stroke="#000000" stroke-width="1" x1="592" x2="592" y1="334.0" y2="340.0" /><line stroke="#000000" stroke-width="1" x1="598" x2="598" y1="334.0" y2="340.0" /><line stroke="#000000" stroke-width="1" x1="604" x2="604" y1="334.0" y2="340.0" /><line stroke="#000000" stroke-width="1" x1="610" x2="610" y1="334.0" y2="340.0" /><line stroke="#000000" stroke-width="1" x1="616" x2="616" y1="334.0" y2="340.0" /><line stroke="#000000" stroke-width="1" x1="622" x2="622" y1="334.0" y2="340.0" /><line stroke="#000000" stroke-width="1" x1="628" x2="628" y1="334.0" y2="340.0" /><line stroke="#000000" stroke-width="1" x1="634" x2="634" y1="334.0" y2="340.0" /><line stroke="#000000" stroke-width="1" x1="640" x2="640" y1="334.0" y2="340.0" /><line stroke="#000000" stroke-width="1" x1="646" x2="646" y1="334.0" y2="340.0" /><line stroke="#000000" stroke-width="1" x1="652" x2="652" y1="334.0" y2="340.0" /><line stroke="#000000" stroke-width="1" x1="658" x2="658" y1="334.0" y2="340.0" /><line stroke="#000000" stroke-width="1" x1="664" x2="664" y1="334.0" y2="340.0" /><line stroke="#000000" stroke-width="1" x1="670" x2="670" y1="334.0" y2="340.0" /><line stroke="#000000" stroke-width="1" x1="676" x2="676" y1="334.0" y2="340.0" /><line stroke="#000000" stroke-width="1" x1="682" x2="682" y1="334.0" y2="340.0" /><line stroke="#000000" stroke-width="1" x1="688" x2="688" y1="334.0" y2="340.0" /><line stroke="#000000" stroke-width="1" x1="694" x2="694" y1="334.0" y2="340.0" /><line stroke="#000000" stroke-width="1" x1="700" x2="700" y1="334.0" y2="340.0" /><line stroke="#000000" stroke-width="1" x1="706" x2="706" y1="334.0" y2="340.0" /><line stroke="#000000" stroke-width="1" x1="712" x2="712" y1="334.0" y2="340.0" /><line stroke="#000000" stroke-width="1" x1="718" x2="718" y1="334.0" y2="340.0" /><line stroke="#000000" stroke-width="1" x1="724" x2="724" y1="334.0" y2="340.0" /><line stroke="#000000" stroke-width="1" x1="730" x2="730" y1="334.0" y2="340.0" /><line stroke="#000000" stroke-width="1" x1="736" x2="736" y1="334.0" y2="340.0" /><line stroke="#000000" stroke-width="1" x1="742" x2="742" y1="334.0" y2="340.0" /><line stroke="#000000" stroke-width="1" x1="748" x2="748" y1="334.0" y2="340.0" /><line stroke="#000000" stroke-width="1" x1="754" x2="754" y1="334.0" y2="340.0" /><line stroke="#000000" stroke-width="1" x1="760" x2="760" y1="334.0" y2="340.0" /><line stroke="#000000" stroke-width="1" x1="766" x2="766" y1="334.0" y2="340.0" /><line stroke="#000000" stroke-width="1" x1="772" x2="772" y1="334.0" y2="340.0" /><line stroke="#000000" stroke-width="1" x1="778" x2="778" y1="334.0" y2="340.0" /><line stroke="#000000" stroke-width="1" x1="784" x2="784" y1="334.0" y2="340.0" /><line stroke="#000000" stroke-width="1" x1="790" x2="790" y1="334.0" y2="340.0" /><line stroke="#000000" stroke-width="1" x1="796" x2="796" y1="334.0" y2="340.0" /><line stroke="#000000" stroke-width="1" x1="802" x2="802" y1="334.0" y2="340.0" /><line stroke="#000000" stroke-width="1" x1="808" x2="808" y1="334.0" y2="340.0" /><line stroke="#000000" stroke-width="1" x1="814" x2="814" y1="334.0" y2="340.0" /><line stroke="#000000" stroke-width="1" x1="820" x2="820" y1="334.0" y2="340.0" /><line stroke="#000000" stroke-width="1" x1="826" x2="826" y1="334.0" y2="340.0" /><line stroke="#000000" stroke-width="1" x1="832" x2="832" y1="334.0" y2="340.0" /><line stroke="#000000" stroke-width="1" x1="838" x2="838" y1="334.0" y2="340.0" /><line stroke="#000000" stroke-width="1" x1="844" x2="844" y1="334.0" y2="340.0" /><line stroke="#000000" stroke-width="1" x1="850" x2="850" y1="334.0" y2="340.0" /><line stroke="#000000" stroke-width="1" x1="856" x2="856" y1="334.0" y2="340.0" /><line stroke="#000000" stroke-width="1" x1="862" x2="862" y1="334.0" y2="340.0" /><line stroke="#000000" stroke-width="1" x1="868" x2="868" y1="334.0" y2="340.0" /><line stroke="#000000" stroke-width="1" x1="874" x2="874" y1="334.0" y2="340.0" /><line stroke="#000000" stroke-width="1" x1="880" x2="880" y1="334.0" y2="340.0" /><line stroke="#000000" stroke-width="1" x1="886" x2="886" y1="334.0" y2="340.0" /><line stroke="#000000" stroke-width="1" x1="892" x2="892" y1="334.0" y2="340.0" /><line stroke="#000000" stroke-width="1" x1="898" x2="898" y1="334.0" y2="340.0" /><line stroke="#000000" stroke-width="1" x1="904" x2="904" y1="334.0" y2="340.0" /><line stroke="#000000" stroke-width="1" x1="910" x2="910" y1="334.0" y2="340.0" /><line stroke="#000000" stroke-width="1" x1="916" x2="916" y1="334.0" y2="340.0" /><line stroke="#000000" stroke-width="1" x1="922" x2="922" y1="334.0" y2="340.0" /><line stroke="#000000" stroke-width="1" x1="928" x2="928" y1="334.0" y2="340.0" /><line stroke="#000000" stroke-width="1" x1="934" x2="934" y1="334.0" y2="340.0" /><line stroke="#000000" stroke-width="1" x1="940" x2="940" y1="334.0" y2="340.0" /><line stroke="#000000" stroke-width="1" x1="946" x2="946" y1="334.0" y2="340.0" /><line stroke="#000000" stroke-width="1" x1="952" x2="952" y1="334.0" y2="340.0" /><line stroke="#000000" stroke-width="1" x1="958" x2="958" y1="334.0" y2="340.0" /><line stroke="#000000" stroke-width="1" x1="964" x2="964" y1="334.0" y2="340.0" /><line stroke="#000000" stroke-width="1" x1="970" x2="970" y1="334.0" y2="340.0" /><line stroke="#000000" stroke-width="1" x1="976" x2="976" y1="334.0" y2="340.0" /><line stroke="#000000" stroke-width="1" x1="982" x2="982" y1="334.0" y2="340.0" /><line stroke="#000000" stroke-width="1" x1="988" x2="988" y1="334.0" y2="340.0" /><line stroke="#000000" stroke-width="1" x1="-47" x2="994" y1="346" y2="346" /><line stroke="#000000" stroke-width="1" x1="-47" x2="994" y1="350" y2="350" /><line stroke="#000000" stroke-width="1" x1="-44" x2="-44" y1="345.0" y2="351.0" /><line stroke="#000000" stroke-width="1" x1="-38" x2="-38" y1="345.0" y2="351.0" /><line stroke="#000000" stroke-width="1" x1="-32" x2="-32" y1="345.0" y2="351.0" /><line stroke="#000000" stroke-width="1" x1="-26" x2="-26" y1="345.0" y2="351.0" /><line stroke="#000000" stroke-width="1" x1="-20" x2="-20" y1="345.0" y2="351.0" /><line stroke="#000000" stroke-width="1" x1="-14" x2="-14" y1="345.0" y2="351.0" /><line stroke="#000000" stroke-width="1" x1="-8" x2="-8" y1="345.0" y2="351.0" /><line stroke="#000000" stroke-width="1" x1="-2" x2="-2" y1="345.0" y2="351.0" /><line stroke="#000000" stroke-width="1" x1="4" x2="4" y1="345.0" y2="351.0" /><line stroke="#000000" stroke-width="1" x1="10" x2="10" y1="345.0" y2="351.0" /><line stroke="#000000" stroke-width="1" x1="16" x2="16" y1="345.0" y2="351.0" /><line stroke="#000000" stroke-width="1" x1="22" x2="22" y1="345.0" y2="351.0" /><line stroke="#000000" stroke-width="1" x1="28" x2="28" y1="345.0" y2="351.0" /><line stroke="#000000" stroke-width="1" x1="34" x2="34" y1="345.0" y2="351.0" /><line stroke="#000000" stroke-width="1" x1="40" x2="40" y1="345.0" y2="351.0" /><line stroke="#000000" stroke-width="1" x1="46" x2="46" y1="345.0" y2="351.0" /><line stroke="#000000" stroke-width="1" x1="52" x2="52" y1="345.0" y2="351.0" /><line stroke="#000000" stroke-width="1" x1="58" x2="58" y1="345.0" y2="351.0" /><line stroke="#000000" stroke-width="1" x1="64" x2="64" y1="345.0" y2="351.0" /><line stroke="#000000" stroke-width="1" x1="70" x2="70" y1="345.0" y2="351.0" /><line stroke="#000000" stroke-width="1" x1="76" x2="76" y1="345.0" y2="351.0" /><line stroke="#000000" stroke-width="1" x1="82" x2="82" y1="345.0" y2="351.0" /><line stroke="#000000" stroke-width="1" x1="88" x2="88" y1="345.0" y2="351.0" /><line stroke="#000000" stroke-width="1" x1="94" x2="94" y1="345.0" y2="351.0" /><line stroke="#000000" stroke-width="1" x1="100" x2="100" y1="345.0" y2="351.0" /><line stroke="#000000" stroke-width="1" x1="106" x2="106" y1="345.0" y2="351.0" /><line stroke="#000000" stroke-width="1" x1="112" x2="112" y1="345.0" y2="351.0" /><line stroke="#000000" stroke-width="1" x1="118" x2="118" y1="345.0" y2="351.0" /><line stroke="#000000" stroke-width="1" x1="124" x2="124" y1="345.0" y2="351.0" /><line stroke="#000000" stroke-width="1" x1="130" x2="130" y1="345.0" y2="351.0" /><line stroke="#000000" stroke-width="1" x1="136" x2="136" y1="345.0" y2="351.0" /><line stroke="#000000" stroke-width="1" x1="142" x2="142" y1="345.0" y2="351.0" /><line stroke="#000000" stroke-width="1" x1="148" x2="148" y1="345.0" y2="351.0" /><line stroke="#000000" stroke-width="1" x1="154" x2="154" y1="345.0" y2="351.0" /><line stroke="#000000" stroke-width="1" x1="160" x2="160" y1="345.0" y2="351.0" /><line stroke="#000000" stroke-width="1" x1="166" x2="166" y1="345.0" y2="351.0" /><line stroke="#000000" stroke-width="1" x1="172" x2="172" y1="345.0" y2="351.0" /><line stroke="#000000" stroke-width="1" x1="178" x2="178" y1="345.0" y2="351.0" /><line stroke="#000000" stroke-width="1" x1="184" x2="184" y1="345.0" y2="351.0" /><line stroke="#000000" stroke-width="1" x1="190" x2="190" y1="345.0" y2="351.0" /><line stroke="#000000" stroke-width="1" x1="196" x2="196" y1="345.0" y2="351.0" /><line stroke="#000000" stroke-width="1" x1="202" x2="202" y1="345.0" y2="351.0" /><line stroke="#000000" stroke-width="1" x1="208" x2="208" y1="345.0" y2="351.0" /><line stroke="#000000" stroke-width="1" x1="214" x2="214" y1="345.0" y2="351.0" /><line stroke="#000000" stroke-width="1" x1="220" x2="220" y1="345.0" y2="351.0" /><line stroke="#000000" stroke-width="1" x1="226" x2="226" y1="345.0" y2="351.0" /><line stroke="#000000" stroke-width="1" x1="232" x2="232" y1="345.0" y2="351.0" /><line stroke="#000000" stroke-width="1" x1="238" x2="238" y1="345.0" y2="351.0" /><line stroke="#000000" stroke-width="1" x1="244" x2="244" y1="345.0" y2="351.0" /><line stroke="#000000" stroke-width="1" x1="250" x2="250" y1="345.0" y2="351.0" /><line stroke="#000000" stroke-width="1" x1="256" x2="256" y1="345.0" y2="351.0" /><line stroke="#000000" stroke-width="1" x1="262" x2="262" y1="345.0" y2="351.0" /><line stroke="#000000" stroke-width="1" x1="268" x2="268" y1="345.0" y2="351.0" /><line stroke="#000000" stroke-width="1" x1="274" x2="274" y1="345.0" y2="351.0" /><line stroke="#000000" stroke-width="1" x1="280" x2="280" y1="345.0" y2="351.0" /><line stroke="#000000" stroke-width="1" x1="286" x2="286" y1="345.0" y2="351.0" /><line stroke="#000000" stroke-width="1" x1="292" x2="292" y1="345.0" y2="351.0" /><line stroke="#000000" stroke-width="1" x1="298" x2="298" y1="345.0" y2="351.0" /><line stroke="#000000" stroke-width="1" x1="304" x2="304" y1="345.0" y2="351.0" /><line stroke="#000000" stroke-width="1" x1="310" x2="310" y1="345.0" y2="351.0" /><line stroke="#000000" stroke-width="1" x1="316" x2="316" y1="345.0" y2="351.0" /><line stroke="#000000" stroke-width="1" x1="322" x2="322" y1="345.0" y2="351.0" /><line stroke="#000000" stroke-width="1" x1="328" x2="328" y1="345.0" y2="351.0" /><line stroke="#000000" stroke-width="1" x1="334" x2="334" y1="345.0" y2="351.0" /><line stroke="#000000" stroke-width="1" x1="340" x2="340" y1="345.0" y2="351.0" /><line stroke="#000000" stroke-width="1" x1="346" x2="346" y1="345.0" y2="351.0" /><line stroke="#000000" stroke-width="1" x1="352" x2="352" y1="345.0" y2="351.0" /><line stroke="#000000" stroke-width="1" x1="358" x2="358" y1="345.0" y2="351.0" /><line stroke="#000000" stroke-width="1" x1="364" x2="364" y1="345.0" y2="351.0" /><line stroke="#000000" stroke-width="1" x1="370" x2="370" y1="345.0" y2="351.0" /><line stroke="#000000" stroke-width="1" x1="376" x2="376" y1="345.0" y2="351.0" /><line stroke="#000000" stroke-width="1" x1="382" x2="382" y1="345.0" y2="351.0" /><line stroke="#000000" stroke-width="1" x1="388" x2="388" y1="345.0" y2="351.0" /><line stroke="#000000" stroke-width="1" x1="394" x2="394" y1="345.0" y2="351.0" /><line stroke="#000000" stroke-width="1" x1="400" x2="400" y1="345.0" y2="351.0" /><line stroke="#000000" stroke-width="1" x1="406" x2="406" y1="345.0" y2="351.0" /><line stroke="#000000" stroke-width="1" x1="412" x2="412" y1="345.0" y2="351.0" /><line stroke="#000000" stroke-width="1" x1="418" x2="418" y1="345.0" y2="351.0" /><line stroke="#000000" stroke-width="1" x1="424" x2="424" y1="345.0" y2="351.0" /><line stroke="#000000" stroke-width="1" x1="430" x2="430" y1="345.0" y2="351.0" /><line stroke="#000000" stroke-width="1" x1="436" x2="436" y1="345.0" y2="351.0" /><line stroke="#000000" stroke-width="1" x1="442" x2="442" y1="345.0" y2="351.0" /><line stroke="#000000" stroke-width="1" x1="448" x2="448" y1="345.0" y2="351.0" /><line stroke="#000000" stroke-width="1" x1="454" x2="454" y1="345.0" y2="351.0" /><line stroke="#000000" stroke-width="1" x1="460" x2="460" y1="345.0" y2="351.0" /><line stroke="#000000" stroke-width="1" x1="466" x2="466" y1="345.0" y2="351.0" /><line stroke="#000000" stroke-width="1" x1="472" x2="472" y1="345.0" y2="351.0" /><line stroke="#000000" stroke-width="1" x1="478" x2="478" y1="345.0" y2="351.0" /><line stroke="#000000" stroke-width="1" x1="484" x2="484" y1="345.0" y2="351.0" /><line stroke="#000000" stroke-width="1" x1="490" x2="490" y1="345.0" y2="351.0" /><line stroke="#000000" stroke-width="1" x1="496" x2="496" y1="345.0" y2="351.0" /><line stroke="#000000" stroke-width="1" x1="502" x2="502" y1="345.0" y2="351.0" /><line stroke="#000000" stroke-width="1" x1="508" x2="508" y1="345.0" y2="351.0" /><line stroke="#000000" stroke-width="1" x1="514" x2="514" y1="345.0" y2="351.0" /><line stroke="#000000" stroke-width="1" x1="520" x2="520" y1="345.0" y2="351.0" /><line stroke="#000000" stroke-width="1" x1="526" x2="526" y1="345.0" y2="351.0" /><line stroke="#000000" stroke-width="1" x1="532" x2="532" y1="345.0" y2="351.0" /><line stroke="#000000" stroke-width="1" x1="538" x2="538" y1="345.0" y2="351.0" /><line stroke="#000000" stroke-width="1" x1="544" x2="544" y1="345.0" y2="351.0" /><line stroke="#000000" stroke-width="1" x1="550" x2="550" y1="345.0" y2="351.0" /><line stroke="#000000" stroke-width="1" x1="556" x2="556" y1="345.0" y2="351.0" /><line stroke="#000000" stroke-width="1" x1="562" x2="562" y1="345.0" y2="351.0" /><line stroke="#000000" stroke-width="1" x1="568" x2="568" y1="345.0" y2="351.0" /><line stroke="#000000" stroke-width="1" x1="574" x2="574" y1="345.0" y2="351.0" /><line stroke="#000000" stroke-width="1" x1="580" x2="580" y1="345.0" y2="351.0" /><line stroke="#000000" stroke-width="1" x1="586" x2="586" y1="345.0" y2="351.0" /><line stroke="#000000" stroke-width="1" x1="592" x2="592" y1="345.0" y2="351.0" /><line stroke="#000000" stroke-width="1" x1="598" x2="598" y1="345.0" y2="351.0" /><line stroke="#000000" stroke-width="1" x1="604" x2="604" y1="345.0" y2="351.0" /><line stroke="#000000" stroke-width="1" x1="610" x2="610" y1="345.0" y2="351.0" /><line stroke="#000000" stroke-width="1" x1="616" x2="616" y1="345.0" y2="351.0" /><line stroke="#000000" stroke-width="1" x1="622" x2="622" y1="345.0" y2="351.0" /><line stroke="#000000" stroke-width="1" x1="628" x2="628" y1="345.0" y2="351.0" /><line stroke="#000000" stroke-width="1" x1="634" x2="634" y1="345.0" y2="351.0" /><line stroke="#000000" stroke-width="1" x1="640" x2="640" y1="345.0" y2="351.0" /><line stroke="#000000" stroke-width="1" x1="646" x2="646" y1="345.0" y2="351.0" /><line stroke="#000000" stroke-width="1" x1="652" x2="652" y1="345.0" y2="351.0" /><line stroke="#000000" stroke-width="1" x1="658" x2="658" y1="345.0" y2="351.0" /><line stroke="#000000" stroke-width="1" x1="664" x2="664" y1="345.0" y2="351.0" /><line stroke="#000000" stroke-width="1" x1="670" x2="670" y1="345.0" y2="351.0" /><line stroke="#000000" stroke-width="1" x1="676" x2="676" y1="345.0" y2="351.0" /><line stroke="#000000" stroke-width="1" x1="682" x2="682" y1="345.0" y2="351.0" /><line stroke="#000000" stroke-width="1" x1="688" x2="688" y1="345.0" y2="351.0" /><line stroke="#000000" stroke-width="1" x1="694" x2="694" y1="345.0" y2="351.0" /><line stroke="#000000" stroke-width="1" x1="700" x2="700" y1="345.0" y2="351.0" /><line stroke="#000000" stroke-width="1" x1="706" x2="706" y1="345.0" y2="351.0" /><line stroke="#000000" stroke-width="1" x1="712" x2="712" y1="345.0" y2="351.0" /><line stroke="#000000" stroke-width="1" x1="718" x2="718" y1="345.0" y2="351.0" /><line stroke="#000000" stroke-width="1" x1="724" x2="724" y1="345.0" y2="351.0" /><line stroke="#000000" stroke-width="1" x1="730" x2="730" y1="345.0" y2="351.0" /><line stroke="#000000" stroke-width="1" x1="736" x2="736" y1="345.0" y2="351.0" /><line stroke="#000000" stroke-width="1" x1="742" x2="742" y1="345.0" y2="351.0" /><line stroke="#000000" stroke-width="1" x1="748" x2="748" y1="345.0" y2="351.0" /><line stroke="#000000" stroke-width="1" x1="754" x2="754" y1="345.0" y2="351.0" /><line stroke="#000000" stroke-width="1" x1="760" x2="760" y1="345.0" y2="351.0" /><line stroke="#000000" stroke-width="1" x1="766" x2="766" y1="345.0" y2="351.0" /><line stroke="#000000" stroke-width="1" x1="772" x2="772" y1="345.0" y2="351.0" /><line stroke="#000000" stroke-width="1" x1="778" x2="778" y1="345.0" y2="351.0" /><line stroke="#000000" stroke-width="1" x1="784" x2="784" y1="345.0" y2="351.0" /><line stroke="#000000" stroke-width="1" x1="790" x2="790" y1="345.0" y2="351.0" /><line stroke="#000000" stroke-width="1" x1="796" x2="796" y1="345.0" y2="351.0" /><line stroke="#000000" stroke-width="1" x1="802" x2="802" y1="345.0" y2="351.0" /><line stroke="#000000" stroke-width="1" x1="808" x2="808" y1="345.0" y2="351.0" /><line stroke="#000000" stroke-width="1" x1="814" x2="814" y1="345.0" y2="351.0" /><line stroke="#000000" stroke-width="1" x1="820" x2="820" y1="345.0" y2="351.0" /><line stroke="#000000" stroke-width="1" x1="826" x2="826" y1="345.0" y2="351.0" /><line stroke="#000000" stroke-width="1" x1="832" x2="832" y1="345.0" y2="351.0" /><line stroke="#000000" stroke-width="1" x1="838" x2="838" y1="345.0" y2="351.0" /><line stroke="#000000" stroke-width="1" x1="844" x2="844" y1="345.0" y2="351.0" /><line stroke="#000000" stroke-width="1" x1="850" x2="850" y1="345.0" y2="351.0" /><line stroke="#000000" stroke-width="1" x1="856" x2="856" y1="345.0" y2="351.0" /><line stroke="#000000" stroke-width="1" x1="862" x2="862" y1="345.0" y2="351.0" /><line stroke="#000000" stroke-width="1" x1="868" x2="868" y1="345.0" y2="351.0" /><line stroke="#000000" stroke-width="1" x1="874" x2="874" y1="345.0" y2="351.0" /><line stroke="#000000" stroke-width="1" x1="880" x2="880" y1="345.0" y2="351.0" /><line stroke="#000000" stroke-width="1" x1="886" x2="886" y1="345.0" y2="351.0" /><line stroke="#000000" stroke-width="1" x1="892" x2="892" y1="345.0" y2="351.0" /><line stroke="#000000" stroke-width="1" x1="898" x2="898" y1="345.0" y2="351.0" /><line stroke="#000000" stroke-width="1" x1="904" x2="904" y1="345.0" y2="351.0" /><line stroke="#000000" stroke-width="1" x1="910" x2="910" y1="345.0" y2="351.0" /><line stroke="#000000" stroke-width="1" x1="916" x2="916" y1="345.0" y2="351.0" /><line stroke="#000000" stroke-width="1" x1="922" x2="922" y1="345.0" y2="351.0" /><line stroke="#000000" stroke-width="1" x1="928" x2="928" y1="345.0" y2="351.0" /><line stroke="#000000" stroke-width="1" x1="934" x2="934" y1="345.0" y2="351.0" /><line stroke="#000000" stroke-width="1" x1="940" x2="940" y1="345.0" y2="351.0" /><line stroke="#000000" stroke-width="1" x1="946" x2="946" y1="345.0" y2="351.0" /><line stroke="#000000" stroke-width="1" x1="952" x2="952" y1="345.0" y2="351.0" /><line stroke="#000000" stroke-width="1" x1="958" x2="958" y1="345.0" y2="351.0" /><line stroke="#000000" stroke-width="1" x1="964" x2="964" y1="345.0" y2="351.0" /><line stroke="#000000" stroke-width="1" x1="970" x2="970" y1="345.0" y2="351.0" /><line stroke="#000000" stroke-width="1" x1="976" x2="976" y1="345.0" y2="351.0" /><line stroke="#000000" stroke-width="1" x1="982" x2="982" y1="345.0" y2="351.0" /><line stroke="#000000" stroke-width="1" x1="988" x2="988" y1="345.0" y2="351.0" /><line stroke="#000000" stroke-width="1" x1="994" x2="994" y1="345.0" y2="351.0" /><polygon fill="#909090" points="147,320 927,320 927,331 147,331" stroke="#000000" stroke-width="1" /><polygon fill="#909090" points="147,354 927,354 927,365 514,365 514,374 482,374 482,370 428,370 428,374 409,374 409,365 147,365" stroke="#000000" stroke-width="1" /><polygon fill="#505050" points="428,387 428,370 482,370 482,387" stroke="#000000" stroke-width="1" /><polygon fill="#505050" points="71,358 89,358 89,382 71,382" stroke="#000000" stroke-width="1" /><text fill="#000000" font-family="Arial" font-size="15" stroke="none" transform="rotate(-29.0,113,162)" x="113" y="177.0">Волоколамское ш. 0.9 км</text><polyline fill="none" marker-end="url(#id330)" points="116,183 106,153" stroke="#000000" stroke-width="1" /></g></svg>