<?xml version="1.0" encoding="utf-8" ?>
<svg baseProfile="full" height="100%" version="1.1" width="100%" xmlns="http://www.w3.org/2000/svg" xmlns:ev="http://www.w3.org/2001/xml-events" xmlns:xlink="http://www.w3.org/1999/xlink">
  <defs>
    <marker id="id174" markerHeight="3" markerUnits="strokeWidth" markerWidth="4" orient="auto" refX="0" refY="5" viewBox="0,0,10,10">
      <path d="M 0 0 L 10 5 L 0 10 z"/>
    </marker>
  </defs>
  <g transform="scale(0.5)">
    <rect fill="none" height="760" stroke="none" stroke-width="0" width="860" x="0" y="0"/>
    <g transform="rotate(-20.0,430,380)">
      <polygon fill="#fcdc04" points="460,160 910,160 910,190 460,190" stroke="#000000" stroke-width="1"/>
      <polygon fill="#fcdc04" points="460,270 910,270 910,300 460,300" stroke="#000000" stroke-width="1"/>
      <text fill="#000000" font-family="Arial" font-size="20" stroke="none" stroke-width="0" x="466" y="156.0">&lt;&lt; Площадь Ильича</text>
      <text fill="#000000" font-family="Arial" font-size="20" stroke="none" stroke-width="0" x="713" y="321.0">Шоссе Энтузиастов &gt;&gt;</text>
      <text fill="#000000" font-family="Arial" font-size="25" stroke="none" stroke-width="0" x="590" y="228.0">Авиамоторная</text>
      <text fill="#fcdc04" font-family="Arial" font-size="20" stroke="none" stroke-width="0" x="465" y="155.0">&lt;&lt; Площадь Ильича</text>
      <text fill="#fcdc04" font-family="Arial" font-size="20" stroke="none" stroke-width="0" x="712" y="320.0">Шоссе Энтузиастов &gt;&gt;</text>
      <text fill="#fcdc04" font-family="Arial" font-size="25" stroke="none" stroke-width="0" x="588" y="226.0">Авиамоторная</text>
      <polygon fill="#34349c" points="683,234 683,238 684,238 684,234" stroke="#34349c" stroke-width="1"/>
      <polygon fill="#ff0000" points="683,230 683,234 684,234 684,230" stroke="#ff0000" stroke-width="1"/>
      <polyline fill="none" points="396,200 396,181 371,181 354,164 354,160 251,160 251,154 204,154 204,82" stroke="#000000" stroke-width="1"/>
      <polyline fill="none" points="181,82 181,153 167,153 167,282 111,282 111,240" stroke="#000000" stroke-width="1"/>
      <polyline fill="none" points="93,240 93,282 15,282" stroke="#000000" stroke-width="1"/>
      <polyline fill="none" points="15,301 57,301 57,348 15,348" stroke="#000000" stroke-width="1"/>
      <polyline fill="none" points="15,365 57,365 57,440 15,440" stroke="#000000" stroke-width="1"/>
      <polyline fill="none" points="15,457 57,457 57,463 88,463 103,478 103,564" stroke="#000000" stroke-width="1"/>
      <polyline fill="none" points="125,564 125,522 177,522 177,564" stroke="#000000" stroke-width="1"/>
      <polyline fill="none" points="198,564 198,522 240,522" stroke="#000000" stroke-width="1"/>
      <polyline fill="none" points="240,500 125,500 125,472 96,443 75,443 75,305 135,305 135,339 158,339 158,332 200,332" stroke="#000000" stroke-width="1"/>
      <polyline fill="none" points="200,313 158,313 158,305 251,305 251,299 353,299 353,295 371,277 395,277 395,259" stroke="#000000" stroke-width="1"/>
      <polyline fill="none" points="460,190 460,195 514,195 514,200 491,200" stroke="#000000" stroke-width="1"/>
      <polyline fill="none" points="460,270 460,265 514,265 514,259 491,259" stroke="#000000" stroke-width="1"/>
      <line stroke="#000000" stroke-width="1" x1="198" x2="198" y1="332" y2="313"/>
      <line stroke="#000000" stroke-width="1" x1="194" x2="194" y1="332" y2="313"/>
      <line stroke="#000000" stroke-width="1" x1="190" x2="190" y1="332" y2="313"/>
      <line stroke="#000000" stroke-width="1" x1="186" x2="186" y1="332" y2="313"/>
      <line stroke="#000000" stroke-width="1" x1="182" x2="182" y1="332" y2="313"/>
      <line stroke="#000000" stroke-width="1" x1="178" x2="178" y1="332" y2="313"/>
      <line stroke="#000000" stroke-width="1" x1="174" x2="174" y1="332" y2="313"/>
      <line stroke="#000000" stroke-width="1" x1="170" x2="170" y1="332" y2="313"/>
      <line stroke="#000000" stroke-width="1" x1="166" x2="166" y1="332" y2="313"/>
      <line stroke="#000000" stroke-width="1" x1="162" x2="162" y1="332" y2="313"/>
      <line stroke="#000000" stroke-width="1" x1="238" x2="238" y1="522" y2="500"/>
      <line stroke="#000000" stroke-width="1" x1="234" x2="234" y1="522" y2="500"/>
      <line stroke="#000000" stroke-width="1" x1="230" x2="230" y1="522" y2="500"/>
      <line stroke="#000000" stroke-width="1" x1="226" x2="226" y1="522" y2="500"/>
      <line stroke="#000000" stroke-width="1" x1="222" x2="222" y1="522" y2="500"/>
      <line stroke="#000000" stroke-width="1" x1="218" x2="218" y1="522" y2="500"/>
      <line stroke="#000000" stroke-width="1" x1="214" x2="214" y1="522" y2="500"/>
      <line stroke="#000000" stroke-width="1" x1="210" x2="210" y1="522" y2="500"/>
      <line stroke="#000000" stroke-width="1" x1="206" x2="206" y1="522" y2="500"/>
      <line stroke="#000000" stroke-width="1" x1="202" x2="202" y1="522" y2="500"/>
      <line stroke="#000000" stroke-width="1" x1="177" x2="198" y1="562" y2="562"/>
      <line stroke="#000000" stroke-width="1" x1="177" x2="198" y1="558" y2="558"/>
      <line stroke="#000000" stroke-width="1" x1="177" x2="198" y1="554" y2="554"/>
      <line stroke="#000000" stroke-width="1" x1="177" x2="198" y1="550" y2="550"/>
      <line stroke="#000000" stroke-width="1" x1="177" x2="198" y1="546" y2="546"/>
      <line stroke="#000000" stroke-width="1" x1="177" x2="198" y1="542" y2="542"/>
      <line stroke="#000000" stroke-width="1" x1="177" x2="198" y1="538" y2="538"/>
      <line stroke="#000000" stroke-width="1" x1="177" x2="198" y1="534" y2="534"/>
      <line stroke="#000000" stroke-width="1" x1="177" x2="198" y1="530" y2="530"/>
      <line stroke="#000000" stroke-width="1" x1="177" x2="198" y1="526" y2="526"/>
      <line stroke="#000000" stroke-width="1" x1="125" x2="103" y1="562" y2="562"/>
      <line stroke="#000000" stroke-width="1" x1="125" x2="103" y1="558" y2="558"/>
      <line stroke="#000000" stroke-width="1" x1="125" x2="103" y1="554" y2="554"/>
      <line stroke="#000000" stroke-width="1" x1="125" x2="103" y1="550" y2="550"/>
      <line stroke="#000000" stroke-width="1" x1="125" x2="103" y1="546" y2="546"/>
      <line stroke="#000000" stroke-width="1" x1="125" x2="103" y1="542" y2="542"/>
      <line stroke="#000000" stroke-width="1" x1="125" x2="103" y1="538" y2="538"/>
      <line stroke="#000000" stroke-width="1" x1="125" x2="103" y1="534" y2="534"/>
      <line stroke="#000000" stroke-width="1" x1="125" x2="103" y1="530" y2="530"/>
      <line stroke="#000000" stroke-width="1" x1="125" x2="103" y1="526" y2="526"/>
      <line stroke="#000000" stroke-width="1" x1="17" x2="17" y1="457" y2="440"/>
      <line stroke="#000000" stroke-width="1" x1="21" x2="21" y1="457" y2="440"/>
      <line stroke="#000000" stroke-width="1" x1="25" x2="25" y1="457" y2="440"/>
      <line stroke="#000000" stroke-width="1" x1="29" x2="29" y1="457" y2="440"/>
      <line stroke="#000000" stroke-width="1" x1="33" x2="33" y1="457" y2="440"/>
      <line stroke="#000000" stroke-width="1" x1="37" x2="37" y1="457" y2="440"/>
      <line stroke="#000000" stroke-width="1" x1="41" x2="41" y1="457" y2="440"/>
      <line stroke="#000000" stroke-width="1" x1="45" x2="45" y1="457" y2="440"/>
      <line stroke="#000000" stroke-width="1" x1="49" x2="49" y1="457" y2="440"/>
      <line stroke="#000000" stroke-width="1" x1="53" x2="53" y1="457" y2="440"/>
      <line stroke="#000000" stroke-width="1" x1="17" x2="17" y1="348" y2="365"/>
      <line stroke="#000000" stroke-width="1" x1="21" x2="21" y1="348" y2="365"/>
      <line stroke="#000000" stroke-width="1" x1="25" x2="25" y1="348" y2="365"/>
      <line stroke="#000000" stroke-width="1" x1="29" x2="29" y1="348" y2="365"/>
      <line stroke="#000000" stroke-width="1" x1="33" x2="33" y1="348" y2="365"/>
      <line stroke="#000000" stroke-width="1" x1="37" x2="37" y1="348" y2="365"/>
      <line stroke="#000000" stroke-width="1" x1="41" x2="41" y1="348" y2="365"/>
      <line stroke="#000000" stroke-width="1" x1="45" x2="45" y1="348" y2="365"/>
      <line stroke="#000000" stroke-width="1" x1="49" x2="49" y1="348" y2="365"/>
      <line stroke="#000000" stroke-width="1" x1="53" x2="53" y1="348" y2="365"/>
      <line stroke="#000000" stroke-width="1" x1="17" x2="17" y1="301" y2="282"/>
      <line stroke="#000000" stroke-width="1" x1="21" x2="21" y1="301" y2="282"/>
      <line stroke="#000000" stroke-width="1" x1="25" x2="25" y1="301" y2="282"/>
      <line stroke="#000000" stroke-width="1" x1="29" x2="29" y1="301" y2="282"/>
      <line stroke="#000000" stroke-width="1" x1="33" x2="33" y1="301" y2="282"/>
      <line stroke="#000000" stroke-width="1" x1="37" x2="37" y1="301" y2="282"/>
      <line stroke="#000000" stroke-width="1" x1="41" x2="41" y1="301" y2="282"/>
      <line stroke="#000000" stroke-width="1" x1="45" x2="45" y1="301" y2="282"/>
      <line stroke="#000000" stroke-width="1" x1="49" x2="49" y1="301" y2="282"/>
      <line stroke="#000000" stroke-width="1" x1="53" x2="53" y1="301" y2="282"/>
      <line stroke="#000000" stroke-width="1" x1="93" x2="111" y1="242" y2="242"/>
      <line stroke="#000000" stroke-width="1" x1="93" x2="111" y1="246" y2="246"/>
      <line stroke="#000000" stroke-width="1" x1="93" x2="111" y1="250" y2="250"/>
      <line stroke="#000000" stroke-width="1" x1="93" x2="111" y1="254" y2="254"/>
      <line stroke="#000000" stroke-width="1" x1="93" x2="111" y1="258" y2="258"/>
      <line stroke="#000000" stroke-width="1" x1="93" x2="111" y1="262" y2="262"/>
      <line stroke="#000000" stroke-width="1" x1="93" x2="111" y1="266" y2="266"/>
      <line stroke="#000000" stroke-width="1" x1="93" x2="111" y1="270" y2="270"/>
      <line stroke="#000000" stroke-width="1" x1="93" x2="111" y1="274" y2="274"/>
      <line stroke="#000000" stroke-width="1" x1="93" x2="111" y1="278" y2="278"/>
      <line stroke="#000000" stroke-width="1" x1="181" x2="204" y1="84" y2="84"/>
      <line stroke="#000000" stroke-width="1" x1="181" x2="204" y1="88" y2="88"/>
      <line stroke="#000000" stroke-width="1" x1="181" x2="204" y1="92" y2="92"/>
      <line stroke="#000000" stroke-width="1" x1="181" x2="204" y1="96" y2="96"/>
      <line stroke="#000000" stroke-width="1" x1="181" x2="204" y1="100" y2="100"/>
      <line stroke="#000000" stroke-width="1" x1="181" x2="204" y1="104" y2="104"/>
      <line stroke="#000000" stroke-width="1" x1="181" x2="204" y1="108" y2="108"/>
      <line stroke="#000000" stroke-width="1" x1="181" x2="204" y1="112" y2="112"/>
      <line stroke="#000000" stroke-width="1" x1="181" x2="204" y1="116" y2="116"/>
      <line stroke="#000000" stroke-width="1" x1="181" x2="204" y1="120" y2="120"/>
      <line stroke="#000000" stroke-width="1" x1="212" x2="212" y1="154" y2="305"/>
      <line stroke="#000000" stroke-width="1" x1="216" x2="216" y1="154" y2="305"/>
      <line stroke="#000000" stroke-width="1" x1="128" x2="128" y1="282" y2="305"/>
      <line stroke="#000000" stroke-width="1" x1="124" x2="124" y1="282" y2="305"/>
      <line stroke="#000000" stroke-width="1" x1="120" x2="120" y1="282" y2="305"/>
      <line stroke="#000000" stroke-width="1" x1="116" x2="116" y1="282" y2="305"/>
      <polygon fill="#d0d0d0" points="251,181 251,274 272,274 272,181" stroke="#000000" stroke-width="1"/>
      <polygon fill="#ffffff" points="258,204 272,204 272,250 258,250" stroke="#000000" stroke-width="1"/>
      <text fill="#000000" font-family="Arial" font-size="10" stroke="none" stroke-width="0" transform="rotate(90.0,272,213)" x="272" y="223.0">кассы</text>
      <polyline fill="none" points="369,179 355,193" stroke="#000000" stroke-width="0.5"/>
      <polygon fill="none" points="294,247 300,247 300,253 294,253" stroke="#000000" stroke-width="1"/>
      <polyline fill="none" points="297,289 297,299" stroke="#000000" stroke-width="0.5"/>
      <polyline fill="none" points="294,253 272,253" stroke="#000000" stroke-width="0.5"/>
      <line stroke="#009900" stroke-width="1" x1="353" x2="356" y1="192" y2="195"/>
      <line stroke="#009900" stroke-width="1" x1="350.198637319" x2="353.198637319" y1="194.85523504" y2="197.85523504"/>
      <line stroke="#009900" stroke-width="1" x1="347.397274639" x2="350.397274639" y1="197.71047008" y2="200.71047008"/>
      <line stroke="#009900" stroke-width="1" x1="344.595911958" x2="347.595911958" y1="200.565705119" y2="203.565705119"/>
      <line stroke="#009900" stroke-width="1" x1="341.794549278" x2="344.794549278" y1="203.420940159" y2="206.420940159"/>
      <line stroke="#009900" stroke-width="1" x1="338.993186597" x2="341.993186597" y1="206.276175199" y2="209.276175199"/>
      <line stroke="#009900" stroke-width="1" x1="336.191823917" x2="339.191823917" y1="209.131410239" y2="212.131410239"/>
      <line stroke="#009900" stroke-width="1" x1="333.390461236" x2="336.390461236" y1="211.986645278" y2="214.986645278"/>
      <line stroke="#009900" stroke-width="1" x1="330.589098556" x2="333.589098556" y1="214.841880318" y2="217.841880318"/>
      <line stroke="#009900" stroke-width="1" x1="327.787735875" x2="330.787735875" y1="217.697115358" y2="220.697115358"/>
      <line stroke="#009900" stroke-width="1" x1="324.986373195" x2="327.986373195" y1="220.552350398" y2="223.552350398"/>
      <line stroke="#009900" stroke-width="1" x1="322.185010514" x2="325.185010514" y1="223.407585437" y2="226.407585437"/>
      <line stroke="#009900" stroke-width="1" x1="319.383647834" x2="322.383647834" y1="226.262820477" y2="229.262820477"/>
      <line stroke="#009900" stroke-width="1" x1="316.582285153" x2="319.582285153" y1="229.118055517" y2="232.118055517"/>
      <line stroke="#009900" stroke-width="1" x1="313.780922473" x2="316.780922473" y1="231.973290557" y2="234.973290557"/>
      <line stroke="#009900" stroke-width="1" x1="310.979559792" x2="313.979559792" y1="234.828525596" y2="237.828525596"/>
      <line stroke="#009900" stroke-width="1" x1="308.178197112" x2="311.178197112" y1="237.683760636" y2="240.683760636"/>
      <line stroke="#009900" stroke-width="1" x1="305.376834431" x2="308.376834431" y1="240.538995676" y2="243.538995676"/>
      <line stroke="#009900" stroke-width="1" x1="302.575471751" x2="305.575471751" y1="243.394230716" y2="246.394230716"/>
      <line stroke="#ff0000" stroke-width="1" x1="299" x2="295" y1="257" y2="257"/>
      <line stroke="#ff0000" stroke-width="1" x1="299" x2="295" y1="261" y2="261"/>
      <line stroke="#ff0000" stroke-width="1" x1="299" x2="295" y1="265" y2="265"/>
      <line stroke="#ff0000" stroke-width="1" x1="299" x2="295" y1="269" y2="269"/>
      <line stroke="#ff0000" stroke-width="1" x1="299" x2="295" y1="273" y2="273"/>
      <line stroke="#ff0000" stroke-width="1" x1="299" x2="295" y1="277" y2="277"/>
      <line stroke="#ff0000" stroke-width="1" x1="299" x2="295" y1="281" y2="281"/>
      <line stroke="#ff0000" stroke-width="1" x1="299" x2="295" y1="285" y2="285"/>
      <line stroke="#ff0000" stroke-width="1" x1="299" x2="295" y1="289" y2="289"/>
      <line stroke="#7f7f7f" stroke-width="1" x1="395" x2="395" y1="204" y2="255"/>
      <line stroke="#7f7f7f" stroke-width="1" x1="399" x2="399" y1="204" y2="255"/>
      <line stroke="#7f7f7f" stroke-width="1" x1="403" x2="403" y1="204" y2="255"/>
      <line stroke="#7f7f7f" stroke-width="1" x1="407" x2="407" y1="204" y2="255"/>
      <line stroke="#7f7f7f" stroke-width="1" x1="411" x2="411" y1="204" y2="255"/>
      <line stroke="#7f7f7f" stroke-width="1" x1="415" x2="415" y1="204" y2="255"/>
      <line stroke="#7f7f7f" stroke-width="1" x1="419" x2="419" y1="204" y2="255"/>
      <line stroke="#7f7f7f" stroke-width="1" x1="423" x2="423" y1="204" y2="255"/>
      <line stroke="#7f7f7f" stroke-width="1" x1="427" x2="427" y1="204" y2="255"/>
      <line stroke="#7f7f7f" stroke-width="1" x1="431" x2="431" y1="204" y2="255"/>
      <line stroke="#7f7f7f" stroke-width="1" x1="435" x2="435" y1="204" y2="255"/>
      <line stroke="#7f7f7f" stroke-width="1" x1="439" x2="439" y1="204" y2="255"/>
      <line stroke="#7f7f7f" stroke-width="1" x1="443" x2="443" y1="204" y2="255"/>
      <line stroke="#7f7f7f" stroke-width="1" x1="447" x2="447" y1="204" y2="255"/>
      <line stroke="#7f7f7f" stroke-width="1" x1="451" x2="451" y1="204" y2="255"/>
      <line stroke="#7f7f7f" stroke-width="1" x1="455" x2="455" y1="204" y2="255"/>
      <line stroke="#7f7f7f" stroke-width="1" x1="459" x2="459" y1="204" y2="255"/>
      <line stroke="#7f7f7f" stroke-width="1" x1="463" x2="463" y1="204" y2="255"/>
      <line stroke="#7f7f7f" stroke-width="1" x1="467" x2="467" y1="204" y2="255"/>
      <line stroke="#7f7f7f" stroke-width="1" x1="471" x2="471" y1="204" y2="255"/>
      <line stroke="#7f7f7f" stroke-width="1" x1="475" x2="475" y1="204" y2="255"/>
      <line stroke="#7f7f7f" stroke-width="1" x1="479" x2="479" y1="204" y2="255"/>
      <line stroke="#7f7f7f" stroke-width="1" x1="483" x2="483" y1="204" y2="255"/>
      <polygon fill="#9b5509" points="388,200 491,200 491,204 388,204" stroke="#000000" stroke-width="1"/>
      <polygon fill="#9b5509" points="388,213 491,213 491,218 388,218" stroke="#000000" stroke-width="1"/>
      <polygon fill="#9b5509" points="388,227 491,227 491,232 388,232" stroke="#000000" stroke-width="1"/>
      <polygon fill="#9b5509" points="388,241 491,241 491,246 388,246" stroke="#000000" stroke-width="1"/>
      <polygon fill="#9b5509" points="388,255 491,255 491,259 388,259" stroke="#000000" stroke-width="1"/>
      <polygon fill="#34349c" points="342,276 338,276 338,277 342,277" stroke="#34349c" stroke-width="1"/>
      <polygon fill="#ff0000" points="346,276 342,276 342,277 346,277" stroke="#ff0000" stroke-width="1"/>
      <polyline fill="none" points="910,270 910,258 889,258 889,252 833,252 833,258 821,258 821,202 833,202 833,208 886,208 886,202 910,202 910,189" stroke="#000000" stroke-width="1"/>
      <text fill="#00afaf" font-family="Arial" font-size="15" stroke="none" stroke-width="0" x="271" y="535.0">'ж/д платформа &quot;Новая&quot; &gt;&gt;'</text>
      <text fill="#00afaf" font-family="Arial" font-size="15" stroke="none" stroke-width="0" x="116" y="408.0">Шоссе Энтузиастов</text>
      <text fill="#00afaf" font-family="Arial" font-size="15" stroke="none" stroke-width="0" transform="rotate(-270.0,153,104)" x="153" y="119.0">ул.Авиамоторная</text>
      <text fill="#00afaf" font-family="Arial" font-size="15" stroke="none" stroke-width="0" transform="rotate(-270.0,160,549)" x="160" y="564.0">ул.Авиамоторная</text>
      <rect fill="none" height="15" stroke="none" stroke-width="0" width="150" x="461" y="521"/>
      <text fill="#040464" font-family="Arial" font-size="12" stroke="none" stroke-width="0" x="461" y="533.0">'Схема перехода к пл.&quot;Новая&quot;'</text>
      <polyline fill="none" marker-end="url(#id174)" points="326,267 311,267" stroke="#ff0000" stroke-width="1"/>
      <polyline fill="none" marker-end="url(#id174)" points="301,190 314,203" stroke="#009900" stroke-width="1"/>
    </g>
    <g>
      <rect fill="#615f56" height="30" stroke="none" stroke-width="0" width="30" x="134" y="169"/>
      <rect fill="#615f56" height="30" stroke="none" stroke-width="0" width="30" x="176" y="428"/>
      <rect fill="#615f56" height="30" stroke="none" stroke-width="0" width="30" x="32" y="372"/>
      <rect fill="#615f56" height="30" stroke="none" stroke-width="0" width="30" x="-2" y="390"/>
      <rect fill="#615f56" height="30" stroke="none" stroke-width="0" width="30" x="42" y="510"/>
      <rect fill="#615f56" height="30" stroke="none" stroke-width="0" width="30" x="76" y="597"/>
      <rect fill="#615f56" height="30" stroke="none" stroke-width="0" width="30" x="142" y="642"/>
      <rect fill="#615f56" height="30" stroke="none" stroke-width="0" width="30" x="282" y="609"/>
      <rect fill="#615f56" height="30" stroke="none" stroke-width="0" width="30" x="256" y="523"/>
      <text fill="#ffd900" font-family="Arial" font-size="25" stroke="none" stroke-width="0" x="142" y="195.0">1</text>
      <text fill="#ffd900" font-family="Arial" font-size="25" stroke="none" stroke-width="0" x="184" y="454.0">2</text>
      <text fill="#ffd900" font-family="Arial" font-size="25" stroke="none" stroke-width="0" x="40" y="398.0">3</text>
      <text fill="#ffd900" font-family="Arial" font-size="25" stroke="none" stroke-width="0" x="6" y="416.0">4</text>
      <text fill="#ffd900" font-family="Arial" font-size="25" stroke="none" stroke-width="0" x="50" y="536.0">5</text>
      <text fill="#ffd900" font-family="Arial" font-size="25" stroke="none" stroke-width="0" x="84" y="623.0">6</text>
      <text fill="#ffd900" font-family="Arial" font-size="25" stroke="none" stroke-width="0" x="150" y="668.0">7</text>
      <text fill="#ffd900" font-family="Arial" font-size="25" stroke="none" stroke-width="0" x="290" y="635.0">8</text>
      <text fill="#ffd900" font-family="Arial" font-size="25" stroke="none" stroke-width="0" x="264" y="549.0">9</text>
    </g>
  </g>
</svg>
