<?xml version="1.0" encoding="utf-8" ?>
<svg baseProfile="full" height="730.0" version="1.1" width="1150.0" xmlns="http://www.w3.org/2000/svg" xmlns:ev="http://www.w3.org/2001/xml-events" xmlns:xlink="http://www.w3.org/1999/xlink">
  <defs>
    <marker id="id178" markerHeight="3" markerUnits="strokeWidth" markerWidth="4" orient="auto" refX="0" refY="5" viewBox="0,0,10,10">
      <path d="M 0 0 L 10 5 L 0 10 z"/>
    </marker>
  </defs>
  <g>
    <rect fill="none" height="730.0" stroke="none" stroke-width="0" width="1150.0" x="0.0" y="0.0"/>
    <g transform="rotate(20.0,575.0,365.0)">
      <ellipse cx="255.5" cy="722.5" fill="#fefbf1" rx="126.5" ry="126.5" stroke="#dfdfdf" stroke-width="1"/>
      <polygon fill="#fefbf1" points="969.0,246.0 969.0,119.0 1080.0,119.0 1080.0,246.0" stroke="#dfdfdf" stroke-width="1"/>
      <polygon fill="#9b5509" points="219.0,583.0 189.0,583.0 189.0,133.0 219.0,133.0" stroke="#000000" stroke-width="1"/>
      <polygon fill="#9b5509" points="329.0,583.0 299.0,583.0 299.0,133.0 329.0,133.0" stroke="#000000" stroke-width="1"/>
      <text fill="#9b5509" font-family="Arial" font-size="15.0" stroke="none" stroke-width="0" transform="rotate(-90.0,171.0,581.0)" x="171.0" y="596.0">&lt;&lt; Киевская</text>
      <text fill="#9b5509" font-family="Arial" font-size="15.0" stroke="none" stroke-width="0" transform="rotate(-90.0,329.0,316.0)" x="329.0" y="331.0">Белорусская &gt;&gt;</text>
      <text fill="#9b5509" font-family="Arial" font-size="25.0" stroke="none" stroke-width="0" transform="rotate(-90.0,247.0,493.0)" x="247.0" y="518.0">Краснопресненская</text>
      <polyline fill="none" points="299.0,133.0 279.0,133.0 279.0,201.0" stroke="#000000" stroke-width="1"/>
      <polyline fill="none" points="274.0,152.0 240.0,152.0 240.0,245.0 244.0,245.0 244.0,250.0 235.0,250.0 235.0,133.0 219.0,133.0" stroke="#000000" stroke-width="1"/>
      <polygon fill="#34349c" points="252.0,358.0 256.0,358.0 256.0,356.0 252.0,356.0" stroke="#34349c" stroke-width="1"/>
      <polygon fill="#ff0000" points="248.0,358.0 252.0,358.0 252.0,356.0 248.0,356.0" stroke="#ff0000" stroke-width="1"/>
      <polyline fill="none" points="299.0,583.0 287.0,583.0 287.0,512.0 276.0,512.0 276.0,548.0" stroke="#000000" stroke-width="1"/>
      <polyline fill="none" points="219.0,583.0 228.0,583.0 228.0,512.0 236.0,512.0 236.0,548.0" stroke="#000000" stroke-width="1"/>
      <polyline fill="none" points="267.0,790.0 267.0,795.0" stroke="#000000" stroke-width="1"/>
      <path d="M246.0,795.0 C246.0,795.0 244.16666666666666,794.8333333333334 246.0,795.0 C247.83333333333334,795.1666666666666 253.5,796.0 257.0,796.0 C260.5,796.0 267.0,795.0 267.0,795.0 " fill="none" stroke="#000000" stroke-width="1"/>
      <polyline fill="none" points="246.0,795.0 246.0,790.0" stroke="#000000" stroke-width="1"/>
      <path d="M216.0,784.0 C216.0,784.0 220.33333333333334,789.1666666666666 216.0,784.0 C211.66666666666666,778.8333333333334 195.33333333333334,764.8333333333334 190.0,753.0 C184.66666666666666,741.1666666666666 182.16666666666666,726.1666666666666 184.0,713.0 C185.83333333333334,699.8333333333334 192.16666666666666,684.1666666666666 201.0,674.0 C209.83333333333334,663.8333333333334 237.0,652.0 237.0,652.0 " fill="none" stroke="#000000" stroke-width="1"/>
      <path d="M275.0,651.0 C275.0,651.0 268.8333333333333,647.1666666666666 275.0,651.0 C281.1666666666667,654.8333333333334 303.0,663.6666666666666 312.0,674.0 C321.0,684.3333333333334 327.1666666666667,699.8333333333334 329.0,713.0 C330.8333333333333,726.1666666666666 328.5,741.1666666666666 323.0,753.0 C317.5,764.8333333333334 296.0,784.0 296.0,784.0 " fill="none" stroke="#000000" stroke-width="1"/>
      <polyline fill="none" points="216.0,784.0 216.0,778.0" stroke="#000000" stroke-width="1"/>
      <polyline fill="none" points="296.0,784.0 296.0,778.0" stroke="#000000" stroke-width="1"/>
      <path d="M373.0,678.0 C373.0,678.0 371.8333333333333,668.0 373.0,678.0 C374.1666666666667,688.0 382.5,718.6666666666666 380.0,738.0 C377.5,757.3333333333334 369.0,778.1666666666666 358.0,794.0 C347.0,809.8333333333334 330.8333333333333,824.0 314.0,833.0 C297.1666666666667,842.0 276.6666666666667,848.0 257.0,848.0 C237.33333333333334,848.0 213.5,842.0 196.0,833.0 C178.5,824.0 163.0,809.8333333333334 152.0,794.0 C141.0,778.1666666666666 132.5,757.3333333333334 130.0,738.0 C127.5,718.6666666666666 137.0,678.0 137.0,678.0 " fill="none" stroke="#000000" stroke-width="1"/>
      <polyline fill="none" points="373.0,678.0 357.0,684.0 358.0,687.0" stroke="#000000" stroke-width="1"/>
      <polyline fill="none" points="340.0,694.0 339.0,691.0 325.0,696.0" stroke="#000000" stroke-width="1"/>
      <polyline fill="none" points="188.0,696.0 174.0,691.0 173.0,694.0" stroke="#000000" stroke-width="1"/>
      <polyline fill="none" points="152.0,687.0 153.0,684.0 137.0,678.0" stroke="#000000" stroke-width="1"/>
      <line stroke="#7f7f7f" stroke-width="1" x1="239.0" x2="273.0" y1="682.0" y2="682.0"/>
      <line stroke="#7f7f7f" stroke-width="1" x1="239.0" x2="273.0" y1="678.0" y2="678.0"/>
      <line stroke="#7f7f7f" stroke-width="1" x1="239.0" x2="273.0" y1="674.0" y2="674.0"/>
      <line stroke="#7f7f7f" stroke-width="1" x1="239.0" x2="273.0" y1="670.0" y2="670.0"/>
      <line stroke="#7f7f7f" stroke-width="1" x1="239.0" x2="273.0" y1="666.0" y2="666.0"/>
      <line stroke="#7f7f7f" stroke-width="1" x1="239.0" x2="273.0" y1="662.0" y2="662.0"/>
      <line stroke="#7f7f7f" stroke-width="1" x1="239.0" x2="273.0" y1="658.0" y2="658.0"/>
      <line stroke="#7f7f7f" stroke-width="1" x1="239.0" x2="273.0" y1="654.0" y2="654.0"/>
      <line stroke="#7f7f7f" stroke-width="1" x1="239.0" x2="273.0" y1="650.0" y2="650.0"/>
      <line stroke="#7f7f7f" stroke-width="1" x1="239.0" x2="273.0" y1="646.0" y2="646.0"/>
      <line stroke="#7f7f7f" stroke-width="1" x1="239.0" x2="273.0" y1="642.0" y2="642.0"/>
      <line stroke="#7f7f7f" stroke-width="1" x1="239.0" x2="273.0" y1="638.0" y2="638.0"/>
      <line stroke="#7f7f7f" stroke-width="1" x1="239.0" x2="273.0" y1="634.0" y2="634.0"/>
      <line stroke="#7f7f7f" stroke-width="1" x1="239.0" x2="273.0" y1="630.0" y2="630.0"/>
      <line stroke="#7f7f7f" stroke-width="1" x1="239.0" x2="273.0" y1="626.0" y2="626.0"/>
      <line stroke="#7f7f7f" stroke-width="1" x1="239.0" x2="273.0" y1="622.0" y2="622.0"/>
      <line stroke="#7f7f7f" stroke-width="1" x1="239.0" x2="273.0" y1="618.0" y2="618.0"/>
      <line stroke="#7f7f7f" stroke-width="1" x1="239.0" x2="273.0" y1="614.0" y2="614.0"/>
      <line stroke="#7f7f7f" stroke-width="1" x1="239.0" x2="273.0" y1="610.0" y2="610.0"/>
      <line stroke="#7f7f7f" stroke-width="1" x1="239.0" x2="273.0" y1="606.0" y2="606.0"/>
      <line stroke="#7f7f7f" stroke-width="1" x1="239.0" x2="273.0" y1="602.0" y2="602.0"/>
      <line stroke="#7f7f7f" stroke-width="1" x1="239.0" x2="273.0" y1="598.0" y2="598.0"/>
      <line stroke="#7f7f7f" stroke-width="1" x1="239.0" x2="273.0" y1="594.0" y2="594.0"/>
      <line stroke="#7f7f7f" stroke-width="1" x1="239.0" x2="273.0" y1="590.0" y2="590.0"/>
      <line stroke="#7f7f7f" stroke-width="1" x1="239.0" x2="273.0" y1="586.0" y2="586.0"/>
      <line stroke="#7f7f7f" stroke-width="1" x1="239.0" x2="273.0" y1="582.0" y2="582.0"/>
      <line stroke="#7f7f7f" stroke-width="1" x1="239.0" x2="273.0" y1="578.0" y2="578.0"/>
      <line stroke="#7f7f7f" stroke-width="1" x1="239.0" x2="273.0" y1="574.0" y2="574.0"/>
      <line stroke="#7f7f7f" stroke-width="1" x1="239.0" x2="273.0" y1="570.0" y2="570.0"/>
      <line stroke="#7f7f7f" stroke-width="1" x1="239.0" x2="273.0" y1="566.0" y2="566.0"/>
      <line stroke="#7f7f7f" stroke-width="1" x1="239.0" x2="273.0" y1="562.0" y2="562.0"/>
      <line stroke="#7f7f7f" stroke-width="1" x1="239.0" x2="273.0" y1="558.0" y2="558.0"/>
      <line stroke="#7f7f7f" stroke-width="1" x1="239.0" x2="273.0" y1="554.0" y2="554.0"/>
      <polygon fill="#9b5509" points="236.0,688.0 236.0,548.0 239.0,548.0 239.0,688.0" stroke="#000000" stroke-width="1"/>
      <polygon fill="#9b5509" points="247.0,688.0 247.0,548.0 252.0,548.0 252.0,688.0" stroke="#000000" stroke-width="1"/>
      <polygon fill="#9b5509" points="260.0,688.0 260.0,548.0 265.0,548.0 265.0,688.0" stroke="#000000" stroke-width="1"/>
      <polygon fill="#9b5509" points="273.0,688.0 273.0,548.0 276.0,548.0 276.0,688.0" stroke="#000000" stroke-width="1"/>
      <polyline fill="none" points="130.0,708.0 121.0,708.0 121.0,737.0 130.0,737.0" stroke="#000000" stroke-width="1"/>
      <text fill="#000000" font-family="Arial" font-size="10.0" stroke="none" stroke-width="0" transform="rotate(-90.0,118.0,735.0)" x="118.0" y="745.0">кассы</text>
      <polyline fill="none" points="260.0,688.0 260.0,796.0" stroke="#000000" stroke-width="0.5"/>
      <polygon fill="none" points="187.0,721.0 187.0,728.0 194.0,728.0 194.0,721.0" stroke="#000000" stroke-width="1"/>
      <line stroke="#009900" stroke-width="1" x1="199.0" x2="199.0" y1="722.0" y2="727.0"/>
      <line stroke="#009900" stroke-width="1" x1="203.0" x2="203.0" y1="722.0" y2="727.0"/>
      <line stroke="#009900" stroke-width="1" x1="207.0" x2="207.0" y1="722.0" y2="727.0"/>
      <line stroke="#009900" stroke-width="1" x1="211.0" x2="211.0" y1="722.0" y2="727.0"/>
      <line stroke="#009900" stroke-width="1" x1="215.0" x2="215.0" y1="722.0" y2="727.0"/>
      <line stroke="#009900" stroke-width="1" x1="219.0" x2="219.0" y1="722.0" y2="727.0"/>
      <line stroke="#009900" stroke-width="1" x1="223.0" x2="223.0" y1="722.0" y2="727.0"/>
      <line stroke="#009900" stroke-width="1" x1="227.0" x2="227.0" y1="722.0" y2="727.0"/>
      <line stroke="#009900" stroke-width="1" x1="231.0" x2="231.0" y1="722.0" y2="727.0"/>
      <line stroke="#009900" stroke-width="1" x1="235.0" x2="235.0" y1="722.0" y2="727.0"/>
      <line stroke="#009900" stroke-width="1" x1="239.0" x2="239.0" y1="722.0" y2="727.0"/>
      <line stroke="#009900" stroke-width="1" x1="243.0" x2="243.0" y1="722.0" y2="727.0"/>
      <line stroke="#009900" stroke-width="1" x1="247.0" x2="247.0" y1="722.0" y2="727.0"/>
      <line stroke="#009900" stroke-width="1" x1="251.0" x2="251.0" y1="722.0" y2="727.0"/>
      <line stroke="#009900" stroke-width="1" x1="255.0" x2="255.0" y1="722.0" y2="727.0"/>
      <line stroke="#009900" stroke-width="1" x1="259.0" x2="259.0" y1="722.0" y2="727.0"/>
      <polyline fill="none" marker-end="url(#id178)" points="265.0,519.0 265.0,541.0" stroke="#ff0000" stroke-width="1"/>
      <polyline fill="none" marker-end="url(#id178)" points="352.0,698.0 346.0,681.0" stroke="#ff0000" stroke-width="1"/>
      <polyline fill="none" marker-end="url(#id178)" points="278.0,770.0 278.0,801.0" stroke="#ff0000" stroke-width="1"/>
      <polyline fill="none" marker-end="url(#id178)" points="246.0,541.0 246.0,519.0" stroke="#009900" stroke-width="1"/>
      <polyline fill="none" marker-end="url(#id178)" points="166.0,681.0 160.0,698.0" stroke="#009900" stroke-width="1"/>
      <polyline fill="none" marker-end="url(#id178)" points="235.0,801.0 235.0,771.0" stroke="#009900" stroke-width="1"/>
    </g>
    <g fill="none" fill-opacity="0.8" stroke="#009900" stroke-opacity="0.8" transform="rotate(20.0,575.0,365.0)">
      <polygon fill="#ffffff" points="278.0,159.0 330.0,159.0 330.0,176.0 278.0,176.0" stroke="#ffffff" stroke-width="1"/>
      <polygon fill="#ffffff" points="278.0,184.0 330.0,184.0 330.0,201.0 278.0,201.0" stroke="#ffffff" stroke-width="1"/>
    </g>
    <g fill="#ffffff" fill-opacity="1.0" stroke="#ffffff" stroke-opacity="1.0" transform="rotate(20.0,575.0,365.0)">
      <polyline fill="none" points="371.0,154.0 371.0,151.0 335.0,151.0 335.0,159.0 274.0,159.0 274.0,152.0" stroke="#000000" stroke-width="1"/>
      <polyline fill="none" points="274.0,184.0 274.0,176.0 335.0,176.0 335.0,184.0 274.0,184.0" stroke="#000000" stroke-width="1"/>
      <polyline fill="none" points="371.0,207.0 371.0,210.0 335.0,210.0 335.0,201.0 274.0,201.0 274.0,245.0 270.0,245.0 270.0,250.0 279.0,250.0 279.0,201.0" stroke="#000000" stroke-width="1"/>
      <line stroke="#000000" stroke-width="1" x1="240.0" x2="274.0" y1="239.0" y2="239.0"/>
      <line stroke="#000000" stroke-width="1" x1="240.0" x2="274.0" y1="235.0" y2="235.0"/>
      <line stroke="#000000" stroke-width="1" x1="240.0" x2="274.0" y1="231.0" y2="231.0"/>
      <line stroke="#000000" stroke-width="1" x1="240.0" x2="274.0" y1="227.0" y2="227.0"/>
      <line stroke="#000000" stroke-width="1" x1="240.0" x2="274.0" y1="223.0" y2="223.0"/>
      <line stroke="#000000" stroke-width="1" x1="240.0" x2="274.0" y1="219.0" y2="219.0"/>
      <line stroke="#000000" stroke-width="1" x1="240.0" x2="274.0" y1="215.0" y2="215.0"/>
      <line stroke="#000000" stroke-width="1" x1="240.0" x2="274.0" y1="211.0" y2="211.0"/>
      <line stroke="#000000" stroke-width="1" x1="240.0" x2="274.0" y1="207.0" y2="207.0"/>
      <line stroke="#000000" stroke-width="1" x1="240.0" x2="274.0" y1="203.0" y2="203.0"/>
      <line stroke="#000000" stroke-width="1" x1="277.0" x2="277.0" y1="201.0" y2="184.0"/>
      <line stroke="#000000" stroke-width="1" x1="281.0" x2="281.0" y1="201.0" y2="184.0"/>
      <line stroke="#000000" stroke-width="1" x1="285.0" x2="285.0" y1="201.0" y2="184.0"/>
      <line stroke="#000000" stroke-width="1" x1="289.0" x2="289.0" y1="201.0" y2="184.0"/>
      <line stroke="#000000" stroke-width="1" x1="293.0" x2="293.0" y1="201.0" y2="184.0"/>
      <line stroke="#000000" stroke-width="1" x1="277.0" x2="277.0" y1="176.0" y2="159.0"/>
      <line stroke="#000000" stroke-width="1" x1="281.0" x2="281.0" y1="176.0" y2="159.0"/>
      <line stroke="#000000" stroke-width="1" x1="285.0" x2="285.0" y1="176.0" y2="159.0"/>
      <line stroke="#000000" stroke-width="1" x1="289.0" x2="289.0" y1="176.0" y2="159.0"/>
      <line stroke="#000000" stroke-width="1" x1="293.0" x2="293.0" y1="176.0" y2="159.0"/>
      <polyline fill="none" points="335.0,180.0 362.0,180.0" stroke="#000000" stroke-width="0.5"/>
      <polyline fill="none" marker-end="url(#id178)" points="335.0,192.0 318.0,192.0" stroke="#000000" stroke-width="1"/>
      <polyline fill="none" marker-end="url(#id178)" points="318.0,168.0 335.0,168.0" stroke="#000000" stroke-width="1"/>
      <line stroke="#7f7f7f" stroke-width="1" x1="445.0" x2="445.0" y1="204.0" y2="157.0"/>
      <line stroke="#7f7f7f" stroke-width="1" x1="441.0" x2="441.0" y1="204.0" y2="157.0"/>
      <line stroke="#7f7f7f" stroke-width="1" x1="437.0" x2="437.0" y1="204.0" y2="157.0"/>
      <line stroke="#7f7f7f" stroke-width="1" x1="433.0" x2="433.0" y1="204.0" y2="157.0"/>
      <line stroke="#7f7f7f" stroke-width="1" x1="429.0" x2="429.0" y1="204.0" y2="157.0"/>
      <line stroke="#7f7f7f" stroke-width="1" x1="425.0" x2="425.0" y1="204.0" y2="157.0"/>
      <line stroke="#7f7f7f" stroke-width="1" x1="421.0" x2="421.0" y1="204.0" y2="157.0"/>
      <line stroke="#7f7f7f" stroke-width="1" x1="417.0" x2="417.0" y1="204.0" y2="157.0"/>
      <line stroke="#7f7f7f" stroke-width="1" x1="413.0" x2="413.0" y1="204.0" y2="157.0"/>
      <line stroke="#7f7f7f" stroke-width="1" x1="409.0" x2="409.0" y1="204.0" y2="157.0"/>
      <line stroke="#7f7f7f" stroke-width="1" x1="405.0" x2="405.0" y1="204.0" y2="157.0"/>
      <line stroke="#7f7f7f" stroke-width="1" x1="401.0" x2="401.0" y1="204.0" y2="157.0"/>
      <line stroke="#7f7f7f" stroke-width="1" x1="397.0" x2="397.0" y1="204.0" y2="157.0"/>
      <line stroke="#7f7f7f" stroke-width="1" x1="393.0" x2="393.0" y1="204.0" y2="157.0"/>
      <line stroke="#7f7f7f" stroke-width="1" x1="389.0" x2="389.0" y1="204.0" y2="157.0"/>
      <line stroke="#7f7f7f" stroke-width="1" x1="385.0" x2="385.0" y1="204.0" y2="157.0"/>
      <line stroke="#7f7f7f" stroke-width="1" x1="381.0" x2="381.0" y1="204.0" y2="157.0"/>
      <line stroke="#7f7f7f" stroke-width="1" x1="377.0" x2="377.0" y1="204.0" y2="157.0"/>
      <line stroke="#7f7f7f" stroke-width="1" x1="373.0" x2="373.0" y1="204.0" y2="157.0"/>
      <line stroke="#7f7f7f" stroke-width="1" x1="369.0" x2="369.0" y1="204.0" y2="157.0"/>
      <polygon fill="#9b5509" points="452.0,157.0 362.0,157.0 362.0,154.0 452.0,154.0" stroke="#000000" stroke-width="1"/>
      <polygon fill="#9b5509" points="452.0,165.0 452.0,170.0 362.0,170.0 362.0,165.0" stroke="#000000" stroke-width="1"/>
      <polygon fill="#9b5509" points="452.0,178.0 452.0,183.0 362.0,183.0 362.0,178.0" stroke="#000000" stroke-width="1"/>
      <polygon fill="#9b5509" points="452.0,191.0 452.0,196.0 362.0,196.0 362.0,191.0" stroke="#000000" stroke-width="1"/>
      <polygon fill="#9b5509" points="452.0,204.0 362.0,204.0 362.0,207.0 452.0,207.0" stroke="#000000" stroke-width="1"/>
      <polygon fill="#ac1cac" points="434.0,140.0 434.0,110.0 884.0,110.0 884.0,140.0" stroke="#000000" stroke-width="1"/>
      <polygon fill="#ac1cac" points="434.0,250.0 434.0,220.0 884.0,220.0 884.0,250.0" stroke="#000000" stroke-width="1"/>
      <text fill="#ac1cac" font-family="Arial" font-size="15.0" stroke="none" stroke-width="0" x="436.0" y="105.0">&lt;&lt; Улица 1905 года</text>
      <text fill="#ac1cac" font-family="Arial" font-size="15.0" stroke="none" stroke-width="0" x="788.0" y="265.0">Пушкинская &gt;&gt;</text>
      <text fill="#ac1cac" font-family="Arial" font-size="25.0" stroke="none" stroke-width="0" x="576.0" y="199.0">Баррикадная</text>
      <polyline fill="none" points="434.0,220.0 434.0,215.0 498.0,215.0 498.0,210.0 443.0,210.0 443.0,207.0" stroke="#000000" stroke-width="1"/>
      <polyline fill="none" points="434.0,140.0 434.0,146.0 498.0,146.0 498.0,151.0 443.0,151.0 443.0,154.0" stroke="#000000" stroke-width="1"/>
      <polyline fill="none" points="884.0,220.0 884.0,212.0 823.0,212.0 823.0,198.0 843.0,198.0 843.0,204.0 875.0,204.0 875.0,201.0" stroke="#000000" stroke-width="1"/>
      <polyline fill="none" points="875.0,161.0 875.0,158.0 843.0,158.0 843.0,164.0 823.0,164.0 823.0,150.0 884.0,150.0 884.0,140.0" stroke="#000000" stroke-width="1"/>
      <polygon fill="#34349c" points="656.0,175.0 656.0,171.0 655.0,171.0 655.0,175.0" stroke="#34349c" stroke-width="1"/>
      <polygon fill="#ff0000" points="656.0,179.0 656.0,175.0 655.0,175.0 655.0,179.0" stroke="#ff0000" stroke-width="1"/>
      <polyline fill="none" points="969.0,161.0 969.0,119.0 1080.0,119.0 1080.0,153.0 1071.0,153.0" stroke="#000000" stroke-width="1"/>
      <polyline fill="none" points="969.0,201.0 969.0,237.0 1027.0,237.0 1027.0,246.0" stroke="#000000" stroke-width="1"/>
      <polyline fill="none" points="1054.0,246.0 1054.0,237.0 1080.0,237.0 1080.0,179.0 1070.0,179.0" stroke="#000000" stroke-width="1"/>
      <line stroke="#7f7f7f" stroke-width="1" x1="1013.0" x2="1013.0" y1="198.0" y2="164.0"/>
      <line stroke="#7f7f7f" stroke-width="1" x1="1009.0" x2="1009.0" y1="198.0" y2="164.0"/>
      <line stroke="#7f7f7f" stroke-width="1" x1="1005.0" x2="1005.0" y1="198.0" y2="164.0"/>
      <line stroke="#7f7f7f" stroke-width="1" x1="1001.0" x2="1001.0" y1="198.0" y2="164.0"/>
      <line stroke="#7f7f7f" stroke-width="1" x1="997.0" x2="997.0" y1="198.0" y2="164.0"/>
      <line stroke="#7f7f7f" stroke-width="1" x1="993.0" x2="993.0" y1="198.0" y2="164.0"/>
      <line stroke="#7f7f7f" stroke-width="1" x1="989.0" x2="989.0" y1="198.0" y2="164.0"/>
      <line stroke="#7f7f7f" stroke-width="1" x1="985.0" x2="985.0" y1="198.0" y2="164.0"/>
      <line stroke="#7f7f7f" stroke-width="1" x1="981.0" x2="981.0" y1="198.0" y2="164.0"/>
      <line stroke="#7f7f7f" stroke-width="1" x1="977.0" x2="977.0" y1="198.0" y2="164.0"/>
      <line stroke="#7f7f7f" stroke-width="1" x1="973.0" x2="973.0" y1="198.0" y2="164.0"/>
      <line stroke="#7f7f7f" stroke-width="1" x1="969.0" x2="969.0" y1="198.0" y2="164.0"/>
      <line stroke="#7f7f7f" stroke-width="1" x1="965.0" x2="965.0" y1="198.0" y2="164.0"/>
      <line stroke="#7f7f7f" stroke-width="1" x1="961.0" x2="961.0" y1="198.0" y2="164.0"/>
      <line stroke="#7f7f7f" stroke-width="1" x1="957.0" x2="957.0" y1="198.0" y2="164.0"/>
      <line stroke="#7f7f7f" stroke-width="1" x1="953.0" x2="953.0" y1="198.0" y2="164.0"/>
      <line stroke="#7f7f7f" stroke-width="1" x1="949.0" x2="949.0" y1="198.0" y2="164.0"/>
      <line stroke="#7f7f7f" stroke-width="1" x1="945.0" x2="945.0" y1="198.0" y2="164.0"/>
      <line stroke="#7f7f7f" stroke-width="1" x1="941.0" x2="941.0" y1="198.0" y2="164.0"/>
      <line stroke="#7f7f7f" stroke-width="1" x1="937.0" x2="937.0" y1="198.0" y2="164.0"/>
      <line stroke="#7f7f7f" stroke-width="1" x1="933.0" x2="933.0" y1="198.0" y2="164.0"/>
      <line stroke="#7f7f7f" stroke-width="1" x1="929.0" x2="929.0" y1="198.0" y2="164.0"/>
      <line stroke="#7f7f7f" stroke-width="1" x1="925.0" x2="925.0" y1="198.0" y2="164.0"/>
      <line stroke="#7f7f7f" stroke-width="1" x1="921.0" x2="921.0" y1="198.0" y2="164.0"/>
      <line stroke="#7f7f7f" stroke-width="1" x1="917.0" x2="917.0" y1="198.0" y2="164.0"/>
      <line stroke="#7f7f7f" stroke-width="1" x1="913.0" x2="913.0" y1="198.0" y2="164.0"/>
      <line stroke="#7f7f7f" stroke-width="1" x1="909.0" x2="909.0" y1="198.0" y2="164.0"/>
      <line stroke="#7f7f7f" stroke-width="1" x1="905.0" x2="905.0" y1="198.0" y2="164.0"/>
      <line stroke="#7f7f7f" stroke-width="1" x1="901.0" x2="901.0" y1="198.0" y2="164.0"/>
      <line stroke="#7f7f7f" stroke-width="1" x1="897.0" x2="897.0" y1="198.0" y2="164.0"/>
      <line stroke="#7f7f7f" stroke-width="1" x1="893.0" x2="893.0" y1="198.0" y2="164.0"/>
      <line stroke="#7f7f7f" stroke-width="1" x1="889.0" x2="889.0" y1="198.0" y2="164.0"/>
      <line stroke="#7f7f7f" stroke-width="1" x1="885.0" x2="885.0" y1="198.0" y2="164.0"/>
      <line stroke="#7f7f7f" stroke-width="1" x1="881.0" x2="881.0" y1="198.0" y2="164.0"/>
      <line stroke="#7f7f7f" stroke-width="1" x1="877.0" x2="877.0" y1="198.0" y2="164.0"/>
      <line stroke="#7f7f7f" stroke-width="1" x1="873.0" x2="873.0" y1="198.0" y2="164.0"/>
      <polygon fill="#9b5509" points="1020.0,164.0 868.0,164.0 868.0,161.0 1020.0,161.0" stroke="#000000" stroke-width="1"/>
      <polygon fill="#9b5509" points="1020.0,172.0 1020.0,177.0 868.0,177.0 868.0,172.0" stroke="#000000" stroke-width="1"/>
      <polygon fill="#9b5509" points="1020.0,185.0 1020.0,190.0 868.0,190.0 868.0,185.0" stroke="#000000" stroke-width="1"/>
      <polygon fill="#9b5509" points="1020.0,198.0 868.0,198.0 868.0,201.0 1020.0,201.0" stroke="#000000" stroke-width="1"/>
      <polyline fill="none" points="1005.0,237.0 1005.0,246.0 977.0,246.0 977.0,237.0" stroke="#000000" stroke-width="1"/>
      <text fill="#000000" font-family="Arial" font-size="10.0" stroke="none" stroke-width="0" x="979.0" y="244.0">кассы</text>
      <polyline fill="none" points="1020.0,187.0 1080.0,187.0" stroke="#000000" stroke-width="0.5"/>
      <polygon fill="none" points="1070.0,208.0 1070.0,201.0 1077.0,201.0 1077.0,208.0" stroke="#000000" stroke-width="1"/>
      <line stroke="#009900" stroke-width="1" x1="1066.0" x2="1066.0" y1="202.0" y2="207.0"/>
      <line stroke="#009900" stroke-width="1" x1="1062.0" x2="1062.0" y1="202.0" y2="207.0"/>
      <line stroke="#009900" stroke-width="1" x1="1058.0" x2="1058.0" y1="202.0" y2="207.0"/>
      <line stroke="#009900" stroke-width="1" x1="1054.0" x2="1054.0" y1="202.0" y2="207.0"/>
      <line stroke="#009900" stroke-width="1" x1="1050.0" x2="1050.0" y1="202.0" y2="207.0"/>
      <line stroke="#009900" stroke-width="1" x1="1046.0" x2="1046.0" y1="202.0" y2="207.0"/>
      <line stroke="#009900" stroke-width="1" x1="1042.0" x2="1042.0" y1="202.0" y2="207.0"/>
      <line stroke="#009900" stroke-width="1" x1="1038.0" x2="1038.0" y1="202.0" y2="207.0"/>
      <line stroke="#009900" stroke-width="1" x1="1034.0" x2="1034.0" y1="202.0" y2="207.0"/>
      <line stroke="#009900" stroke-width="1" x1="1030.0" x2="1030.0" y1="202.0" y2="207.0"/>
      <line stroke="#009900" stroke-width="1" x1="1026.0" x2="1026.0" y1="202.0" y2="207.0"/>
      <line stroke="#009900" stroke-width="1" x1="1022.0" x2="1022.0" y1="202.0" y2="207.0"/>
      <polyline fill="none" marker-end="url(#id178)" points="1050.0,166.0 1087.0,166.0" stroke="#ff0000" stroke-width="1"/>
      <polyline fill="none" marker-end="url(#id178)" points="1041.0,258.0 1041.0,221.0" stroke="#009900" stroke-width="1"/>
      <polygon fill="#34349c" points="1059.0,185.0 1055.0,185.0 1055.0,184.0 1059.0,184.0" stroke="#34349c" stroke-width="1"/>
      <polygon fill="#ff0000" points="1063.0,185.0 1059.0,185.0 1059.0,184.0 1063.0,184.0" stroke="#ff0000" stroke-width="1"/>
      <text fill="#00afaf" font-family="Arial" font-size="15.0" stroke="none" stroke-width="0" transform="rotate(-10.0,15.0,438.0)" x="15.0" y="453.0">улица Красная Пресня</text>
      <text fill="#00afaf" font-family="Arial" font-size="15.0" stroke="none" stroke-width="0" transform="rotate(-110.0,534.0,653.0)" x="534.0" y="668.0">Конюшковская улица</text>
      <text fill="#00afaf" font-family="Arial" font-size="15.0" stroke="none" stroke-width="0" transform="rotate(-105.0,445.0,408.0)" x="445.0" y="423.0">улица Большая Грузинская</text>
      <text fill="#00afaf" font-family="Arial" font-size="15.0" stroke="none" stroke-width="0" transform="rotate(20.0,919.0,456.0)" x="919.0" y="471.0">Баррикадная улица</text>
    </g>
    <g>
      <rect fill="#615f56" height="30.0" stroke="none" stroke-width="0" width="30.0" x="128.0" y="697.0"/>
      <rect fill="#615f56" height="30.0" stroke="none" stroke-width="0" width="30.0" x="1125.0" y="375.0"/>
      <text fill="#ffd900" font-family="Arial" font-size="25.0" stroke="none" stroke-width="0" x="136.0" y="723.0">1</text>
      <text fill="#ffd900" font-family="Arial" font-size="25.0" stroke="none" stroke-width="0" x="1133.0" y="401.0">2</text>
    </g>
  </g>
</svg>
