<?xml version="1.0" encoding="utf-8" ?>
<svg baseProfile="full" height="100%" version="1.1" width="100%" xmlns="http://www.w3.org/2000/svg" xmlns:ev="http://www.w3.org/2001/xml-events" xmlns:xlink="http://www.w3.org/1999/xlink"><defs><marker id="id167" markerHeight="3" markerUnits="strokeWidth" markerWidth="4" orient="auto" refX="0" refY="5" viewBox="0,0,10,10"><path d="M 0 0 L 10 5 L 0 10 z" /></marker></defs><g transform="scale(0.5) rotate(-30.0,415,265)"><rect fill="none" height="530" stroke="none" width="830" x="0" y="0" /><polygon fill="#34349C" points="376,239 376,209 826,209 826,239" stroke="#000000" stroke-width="1" /><polygon fill="#34349C" points="376,349 376,319 826,319 826,349" stroke="#000000" stroke-width="1" /><text fill="#34349C" font-family="Arial" font-size="20" stroke="none" x="378" y="205.0">&lt;&lt; Курская</text><text fill="#34349C" font-family="Arial" font-size="20" stroke="none" x="646" y="369.0">Электрозаводская &gt;&gt;</text><text fill="#34349C" font-family="Arial" font-size="25" stroke="none" x="567" y="288.0">Бауманская</text><polyline fill="none" points="376,239 376,250 510,250 510,260 454,260" stroke="#000000" stroke-width="1" /><polyline fill="none" points="454,300 510,300 510,310 376,310 376,319" stroke="#000000" stroke-width="1" /><polyline fill="none" points="376,319 376,310" stroke="#000000" stroke-width="1" /><polyline fill="none" points="376,250 376,239" stroke="#000000" stroke-width="1" /><polyline fill="none" points="254,350 254,353 271,353 271,309 297,309 297,300" stroke="#000000" stroke-width="1" /><polyline fill="none" points="201,350 201,353 184,353 184,326 156,326 156,359" stroke="#000000" stroke-width="1" /><polyline fill="none" points="70,344 68,349 13,329 29,285 23,283 28,269 33,271" stroke="#000000" stroke-width="1" /><polyline fill="none" points="49,229 44,227 48,215 54,217 70,172 125,192 123,198 145,206 158,206 158,239 184,239 184,209 271,209 271,251 297,251 297,260" stroke="#000000" stroke-width="1" /><polyline fill="none" points="39,256 34,254 39,241 44,243" stroke="#000000" stroke-width="1" /><path d="M156,359 C156,359 163.333333333,359.666666667 156,359 C148.666666667,358.333333333 126.333333333,357.5 112,355 C97.6666666667,352.5 70,344 70,344 " fill="none" stroke="#000000" stroke-width="1" /><polyline fill="none" points="218,350 218,353 237,353 237,350" stroke="#000000" stroke-width="1" /><line stroke="#7F7F7F" stroke-width="1" x1="447" x2="447" y1="297" y2="263" /><line stroke="#7F7F7F" stroke-width="1" x1="443" x2="443" y1="297" y2="263" /><line stroke="#7F7F7F" stroke-width="1" x1="439" x2="439" y1="297" y2="263" /><line stroke="#7F7F7F" stroke-width="1" x1="435" x2="435" y1="297" y2="263" /><line stroke="#7F7F7F" stroke-width="1" x1="431" x2="431" y1="297" y2="263" /><line stroke="#7F7F7F" stroke-width="1" x1="427" x2="427" y1="297" y2="263" /><line stroke="#7F7F7F" stroke-width="1" x1="423" x2="423" y1="297" y2="263" /><line stroke="#7F7F7F" stroke-width="1" x1="419" x2="419" y1="297" y2="263" /><line stroke="#7F7F7F" stroke-width="1" x1="415" x2="415" y1="297" y2="263" /><line stroke="#7F7F7F" stroke-width="1" x1="411" x2="411" y1="297" y2="263" /><line stroke="#7F7F7F" stroke-width="1" x1="407" x2="407" y1="297" y2="263" /><line stroke="#7F7F7F" stroke-width="1" x1="403" x2="403" y1="297" y2="263" /><line stroke="#7F7F7F" stroke-width="1" x1="399" x2="399" y1="297" y2="263" /><line stroke="#7F7F7F" stroke-width="1" x1="395" x2="395" y1="297" y2="263" /><line stroke="#7F7F7F" stroke-width="1" x1="391" x2="391" y1="297" y2="263" /><line stroke="#7F7F7F" stroke-width="1" x1="387" x2="387" y1="297" y2="263" /><line stroke="#7F7F7F" stroke-width="1" x1="383" x2="383" y1="297" y2="263" /><line stroke="#7F7F7F" stroke-width="1" x1="379" x2="379" y1="297" y2="263" /><line stroke="#7F7F7F" stroke-width="1" x1="375" x2="375" y1="297" y2="263" /><line stroke="#7F7F7F" stroke-width="1" x1="371" x2="371" y1="297" y2="263" /><line stroke="#7F7F7F" stroke-width="1" x1="367" x2="367" y1="297" y2="263" /><line stroke="#7F7F7F" stroke-width="1" x1="363" x2="363" y1="297" y2="263" /><line stroke="#7F7F7F" stroke-width="1" x1="359" x2="359" y1="297" y2="263" /><line stroke="#7F7F7F" stroke-width="1" x1="355" x2="355" y1="297" y2="263" /><line stroke="#7F7F7F" stroke-width="1" x1="351" x2="351" y1="297" y2="263" /><line stroke="#7F7F7F" stroke-width="1" x1="347" x2="347" y1="297" y2="263" /><line stroke="#7F7F7F" stroke-width="1" x1="343" x2="343" y1="297" y2="263" /><line stroke="#7F7F7F" stroke-width="1" x1="339" x2="339" y1="297" y2="263" /><line stroke="#7F7F7F" stroke-width="1" x1="335" x2="335" y1="297" y2="263" /><line stroke="#7F7F7F" stroke-width="1" x1="331" x2="331" y1="297" y2="263" /><line stroke="#7F7F7F" stroke-width="1" x1="327" x2="327" y1="297" y2="263" /><line stroke="#7F7F7F" stroke-width="1" x1="323" x2="323" y1="297" y2="263" /><line stroke="#7F7F7F" stroke-width="1" x1="319" x2="319" y1="297" y2="263" /><line stroke="#7F7F7F" stroke-width="1" x1="315" x2="315" y1="297" y2="263" /><line stroke="#7F7F7F" stroke-width="1" x1="311" x2="311" y1="297" y2="263" /><line stroke="#7F7F7F" stroke-width="1" x1="307" x2="307" y1="297" y2="263" /><line stroke="#7F7F7F" stroke-width="1" x1="303" x2="303" y1="297" y2="263" /><line stroke="#7F7F7F" stroke-width="1" x1="299" x2="299" y1="297" y2="263" /><line stroke="#7F7F7F" stroke-width="1" x1="295" x2="295" y1="297" y2="263" /><polygon fill="#9B5509" points="454,263 289,263 289,260 454,260" stroke="#000000" stroke-width="1" /><polygon fill="#9B5509" points="454,271 454,276 289,276 289,271" stroke="#000000" stroke-width="1" /><polygon fill="#9B5509" points="454,284 454,289 289,289 289,284" stroke="#000000" stroke-width="1" /><polygon fill="#9B5509" points="454,297 289,297 289,300 454,300" stroke="#000000" stroke-width="1" /><polyline fill="none" points="213,209 213,201 245,201 245,208" stroke="#000000" stroke-width="1" /><text fill="#000000" font-family="Arial" font-size="10" stroke="none" x="217" y="208.0">кассы</text><polyline fill="none" points="269,251 220,251" stroke="#000000" stroke-width="0.5" /><polyline fill="none" points="215,326 186,326" stroke="#000000" stroke-width="0.5" /><polygon fill="none" points="217,320 223,320 223,326 217,326" stroke="#000000" stroke-width="1" /><line stroke="#009900" stroke-width="1" x1="218" x2="222" y1="316" y2="316" /><line stroke="#009900" stroke-width="1" x1="218" x2="222" y1="312" y2="312" /><line stroke="#009900" stroke-width="1" x1="218" x2="222" y1="308" y2="308" /><line stroke="#009900" stroke-width="1" x1="218" x2="222" y1="304" y2="304" /><line stroke="#009900" stroke-width="1" x1="218" x2="222" y1="300" y2="300" /><line stroke="#009900" stroke-width="1" x1="218" x2="222" y1="296" y2="296" /><line stroke="#009900" stroke-width="1" x1="218" x2="222" y1="292" y2="292" /><line stroke="#009900" stroke-width="1" x1="218" x2="222" y1="288" y2="288" /><line stroke="#009900" stroke-width="1" x1="218" x2="222" y1="284" y2="284" /><line stroke="#009900" stroke-width="1" x1="218" x2="222" y1="280" y2="280" /><line stroke="#009900" stroke-width="1" x1="218" x2="222" y1="276" y2="276" /><line stroke="#009900" stroke-width="1" x1="218" x2="222" y1="272" y2="272" /><line stroke="#009900" stroke-width="1" x1="218" x2="222" y1="268" y2="268" /><line stroke="#009900" stroke-width="1" x1="218" x2="222" y1="264" y2="264" /><line stroke="#009900" stroke-width="1" x1="218" x2="222" y1="260" y2="260" /><line stroke="#009900" stroke-width="1" x1="218" x2="222" y1="256" y2="256" /><line stroke="#009900" stroke-width="1" x1="218" x2="222" y1="252" y2="252" /><polyline fill="none" marker-end="url(#id167)" points="280,293 253,293 253,310" stroke="#FF0000" stroke-width="1" /><polyline fill="none" marker-end="url(#id167)" points="246,344 246,354" stroke="#FF0000" stroke-width="1" /><polyline fill="none" marker-end="url(#id167)" points="210,344 210,354" stroke="#FF0000" stroke-width="1" /><polyline fill="none" marker-end="url(#id167)" points="228,270 248,270" stroke="#009900" stroke-width="1" /><polyline fill="none" marker-end="url(#id167)" points="36,231 58,239" stroke="#009900" stroke-width="1" /><polyline fill="none" points="826,239 826,249 756,249 756,256 764,256 764,302 756,302 756,310 826,310 826,319" stroke="#000000" stroke-width="1" /><text fill="#00AFAF" font-family="Arial" font-size="15" stroke="none" transform="rotate(110.0,31,152)" x="31" y="167.0">ул.Бауманская</text></g></svg>