<svg xmlns="http://www.w3.org/2000/svg" version="1.1">
<defs>
    <marker id="arrow"
      viewBox="0 0 10 10" refX="0" refY="5"
      markerUnits="strokeWidth"
      markerWidth="4" markerHeight="3"
      orient="auto">
      <path d="M 0 0 L 10 5 L 0 10 z" />
    </marker>
  </defs>
<g stroke="#000000" fill="none" stroke-opacity="1.0" fill-opacity="1.0" transform="scale(0.5)">
<rect x="0" y="0" width="830" height="530" stroke-width="0" fill="none" />
<g stroke="#000000" fill="none" stroke-opacity="1.0" fill-opacity="1.0" transform="scale(0.5)">
</g>
<g transform="rotate(-30.0 415 265)" >
<g stroke="#000000" fill="none" stroke-opacity="1.0" fill-opacity="1.0" transform="scale(0.5)">
</g>
<g stroke="#000000" fill="#34349C" stroke-opacity="1.0" fill-opacity="1.0" transform="scale(0.5)">
<polygon points="376,239  376,209  826,209  826,239" stroke-width="1" />
<polygon points="376,349  376,319  826,319  826,349" stroke-width="1" />
</g>
<g stroke="#34349C" fill="none" stroke-opacity="1.0" fill-opacity="1.0" transform="scale(0.5)">
<text x=" 378" y="205.0" font-family="Arial" font-size=" 20" fill="#34349C" stroke-width="0">&lt;&lt; Курская</text>
<text x=" 646" y="369.0" font-family="Arial" font-size=" 20" fill="#34349C" stroke-width="0">Электрозаводская &gt;&gt;</text>
<text x=" 567" y="288.0" font-family="Arial" font-size=" 25" fill="#34349C" stroke-width="0">Бауманская</text>
</g>
<g stroke="#000000" fill="none" stroke-opacity="1.0" fill-opacity="1.0" transform="scale(0.5)">
<polyline points="376,239  376,250  510,250  510,260  454,260" stroke-width="1" fill="none"  />
<polyline points="454,300  510,300  510,310  376,310  376,319" stroke-width="1" fill="none"  />
<polyline points="376,319  376,310" stroke-width="1" fill="none"  />
<polyline points="376,250  376,239" stroke-width="1" fill="none"  />
<polyline points="254,350  254,353  271,353  271,309  297,309  297,300" stroke-width="1" fill="none"  />
<polyline points="201,350  201,353  184,353  184,326  156,326  156,359" stroke-width="1" fill="none"  />
<polyline points="70,344  68,349  13,329  29,285  23,283  28,269  33,271" stroke-width="1" fill="none"  />
<polyline points="49,229  44,227  48,215  54,217  70,172  125,192  123,198  145,206  158,206  158,239  184,239  184,209  271,209  271,251  297,251  297,260" stroke-width="1" fill="none"  />
<polyline points="39,256  34,254  39,241  44,243" stroke-width="1" fill="none"  />
<polyline points="156,359  112,355  70,344" stroke-width="1" fill="none"/> <!-- spline -->
<polyline points="218,350  218,353  237,353  237,350" stroke-width="1" fill="none"  />
</g>
<g stroke="#7F7F7F" fill="none" stroke-opacity="1.0" fill-opacity="1.0" transform="scale(0.5)">
<line x1="447" y1="297" x2="447" y2="263" stroke-width="1" />
<line x1="443" y1="297" x2="443" y2="263" stroke-width="1" />
<line x1="439" y1="297" x2="439" y2="263" stroke-width="1" />
<line x1="435" y1="297" x2="435" y2="263" stroke-width="1" />
<line x1="431" y1="297" x2="431" y2="263" stroke-width="1" />
<line x1="427" y1="297" x2="427" y2="263" stroke-width="1" />
<line x1="423" y1="297" x2="423" y2="263" stroke-width="1" />
<line x1="419" y1="297" x2="419" y2="263" stroke-width="1" />
<line x1="415" y1="297" x2="415" y2="263" stroke-width="1" />
<line x1="411" y1="297" x2="411" y2="263" stroke-width="1" />
<line x1="407" y1="297" x2="407" y2="263" stroke-width="1" />
<line x1="403" y1="297" x2="403" y2="263" stroke-width="1" />
<line x1="399" y1="297" x2="399" y2="263" stroke-width="1" />
<line x1="395" y1="297" x2="395" y2="263" stroke-width="1" />
<line x1="391" y1="297" x2="391" y2="263" stroke-width="1" />
<line x1="387" y1="297" x2="387" y2="263" stroke-width="1" />
<line x1="383" y1="297" x2="383" y2="263" stroke-width="1" />
<line x1="379" y1="297" x2="379" y2="263" stroke-width="1" />
<line x1="375" y1="297" x2="375" y2="263" stroke-width="1" />
<line x1="371" y1="297" x2="371" y2="263" stroke-width="1" />
<line x1="367" y1="297" x2="367" y2="263" stroke-width="1" />
<line x1="363" y1="297" x2="363" y2="263" stroke-width="1" />
<line x1="359" y1="297" x2="359" y2="263" stroke-width="1" />
<line x1="355" y1="297" x2="355" y2="263" stroke-width="1" />
<line x1="351" y1="297" x2="351" y2="263" stroke-width="1" />
<line x1="347" y1="297" x2="347" y2="263" stroke-width="1" />
<line x1="343" y1="297" x2="343" y2="263" stroke-width="1" />
<line x1="339" y1="297" x2="339" y2="263" stroke-width="1" />
<line x1="335" y1="297" x2="335" y2="263" stroke-width="1" />
<line x1="331" y1="297" x2="331" y2="263" stroke-width="1" />
<line x1="327" y1="297" x2="327" y2="263" stroke-width="1" />
<line x1="323" y1="297" x2="323" y2="263" stroke-width="1" />
<line x1="319" y1="297" x2="319" y2="263" stroke-width="1" />
<line x1="315" y1="297" x2="315" y2="263" stroke-width="1" />
<line x1="311" y1="297" x2="311" y2="263" stroke-width="1" />
<line x1="307" y1="297" x2="307" y2="263" stroke-width="1" />
<line x1="303" y1="297" x2="303" y2="263" stroke-width="1" />
<line x1="299" y1="297" x2="299" y2="263" stroke-width="1" />
<line x1="295" y1="297" x2="295" y2="263" stroke-width="1" />
</g>
<g stroke="#000000" fill="#9B5509" stroke-opacity="1.0" fill-opacity="1.0" transform="scale(0.5)">
<polygon points="454,263  289,263  289,260  454,260" stroke-width="1" />
<polygon points="454,271  454,276  289,276  289,271" stroke-width="1" />
<polygon points="454,284  454,289  289,289  289,284" stroke-width="1" />
<polygon points="454,297  289,297  289,300  454,300" stroke-width="1" />
</g>
<g stroke="#000000" fill="none" stroke-opacity="1.0" fill-opacity="1.0" transform="scale(0.5)">
<polyline points="213,209  213,201  245,201  245,208" stroke-width="1" fill="none"  />
<text x=" 217" y="208.0" font-family="Arial" font-size=" 10" fill="#000000" stroke-width="0">кассы</text>
</g>
<g stroke="#000000" fill="none" stroke-opacity="1.0" fill-opacity="1.0" transform="scale(0.5)">
<polyline points="269,251  220,251" stroke-width=" 0.5" fill="none"  />
<polyline points="215,326  186,326" stroke-width=" 0.5" fill="none"  />
<polygon points="217,320  223,320  223,326  217,326" stroke-width="1" />
</g>
<g stroke="#009900" fill="none" stroke-opacity="1.0" fill-opacity="1.0" transform="scale(0.5)">
<line x1="218" y1="316" x2="222" y2="316" stroke-width="1" />
<line x1="218" y1="312" x2="222" y2="312" stroke-width="1" />
<line x1="218" y1="308" x2="222" y2="308" stroke-width="1" />
<line x1="218" y1="304" x2="222" y2="304" stroke-width="1" />
<line x1="218" y1="300" x2="222" y2="300" stroke-width="1" />
<line x1="218" y1="296" x2="222" y2="296" stroke-width="1" />
<line x1="218" y1="292" x2="222" y2="292" stroke-width="1" />
<line x1="218" y1="288" x2="222" y2="288" stroke-width="1" />
<line x1="218" y1="284" x2="222" y2="284" stroke-width="1" />
<line x1="218" y1="280" x2="222" y2="280" stroke-width="1" />
<line x1="218" y1="276" x2="222" y2="276" stroke-width="1" />
<line x1="218" y1="272" x2="222" y2="272" stroke-width="1" />
<line x1="218" y1="268" x2="222" y2="268" stroke-width="1" />
<line x1="218" y1="264" x2="222" y2="264" stroke-width="1" />
<line x1="218" y1="260" x2="222" y2="260" stroke-width="1" />
<line x1="218" y1="256" x2="222" y2="256" stroke-width="1" />
<line x1="218" y1="252" x2="222" y2="252" stroke-width="1" />
</g>
<g stroke="#FF0000" fill="none" stroke-opacity="1.0" fill-opacity="1.0" transform="scale(0.5)">
<polyline points="280,293  253,293  253,310" marker-end="url(#arrow)" stroke-width="1" fill="none" />
<polyline points="246,344  246,354" marker-end="url(#arrow)" stroke-width="1" fill="none" />
<polyline points="210,344  210,354" marker-end="url(#arrow)" stroke-width="1" fill="none" />
</g>
<g stroke="#009900" fill="none" stroke-opacity="1.0" fill-opacity="1.0" transform="scale(0.5)">
<polyline points="228,270  248,270" marker-end="url(#arrow)" stroke-width="1" fill="none" />
<polyline points="36,231  58,239" marker-end="url(#arrow)" stroke-width="1" fill="none" />
</g>
<g stroke="#000000" fill="none" stroke-opacity="1.0" fill-opacity="1.0" transform="scale(0.5)">
<polyline points="826,239  826,249  756,249  756,256  764,256  764,302  756,302  756,310  826,310  826,319" stroke-width="1" fill="none"  />
</g>
<g stroke="#00AFAF" fill="none" stroke-opacity="1.0" fill-opacity="1.0" transform="scale(0.5)">
<text x=" 31" y="167.0" font-family="Arial" font-size=" 15" fill="#00AFAF" transform="rotate(110.0  31  152)" stroke-width="0">ул.Бауманская</text>
</g>
</g>
</g>
</svg>
