<?xml version="1.0" encoding="utf-8" ?>
<svg baseProfile="full" height="100%" version="1.1" width="100%" xmlns="http://www.w3.org/2000/svg" xmlns:ev="http://www.w3.org/2001/xml-events" xmlns:xlink="http://www.w3.org/1999/xlink"><defs><marker id="id170" markerHeight="3" markerUnits="strokeWidth" markerWidth="4" orient="auto" refX="0" refY="5" viewBox="0,0,10,10"><path d="M 0 0 L 10 5 L 0 10 z" /></marker></defs><g transform="scale(0.5) rotate(-70.0,310,470)"><rect fill="none" height="940" stroke="none" width="620" x="0" y="0" /><polygon fill="#FC9C54" points="87,442 87,412 537,412 537,442" stroke="#000000" stroke-width="1" /><polygon fill="#FC9C54" points="537,332 537,302 87,302 87,332" stroke="#000000" stroke-width="1" /><text fill="#F7782E" font-family="Arial" font-size="25" stroke="none" x="253" y="376.0">Беляево</text><text fill="#F7782E" font-family="Arial" font-size="20" stroke="none" x="90" y="299.0">&lt;&lt; Коньково</text><text fill="#F7782E" font-family="Arial" font-size="20" stroke="none" x="425" y="462.0">Калужская &gt;&gt;</text><polyline fill="none" points="-130,460 -94,460 -94,310 38,310 38,342 87,342 87,332" stroke="#000000" stroke-width="1" /><polyline fill="none" points="-25,460 -61,460 -61,433 38,433 38,402 87,402 87,412" stroke="#000000" stroke-width="1" /><polyline fill="none" points="-25,483 -61,483 -61,581 -25,581" stroke="#000000" stroke-width="1" /><polyline fill="none" points="-25,604 -130,604" stroke="#000000" stroke-width="1" /><polyline fill="none" points="-130,581 -94,581 -94,483 -130,483" stroke="#000000" stroke-width="1" /><line stroke="#000000" stroke-width="1" x1="41" x2="41" y1="342" y2="402" /><line stroke="#000000" stroke-width="1" x1="45" x2="45" y1="342" y2="402" /><line stroke="#000000" stroke-width="1" x1="49" x2="49" y1="342" y2="402" /><line stroke="#000000" stroke-width="1" x1="53" x2="53" y1="342" y2="402" /><line stroke="#000000" stroke-width="1" x1="57" x2="57" y1="342" y2="402" /><line stroke="#000000" stroke-width="1" x1="61" x2="61" y1="342" y2="402" /><line stroke="#000000" stroke-width="1" x1="65" x2="65" y1="342" y2="402" /><line stroke="#000000" stroke-width="1" x1="69" x2="69" y1="342" y2="402" /><line stroke="#000000" stroke-width="1" x1="73" x2="73" y1="342" y2="402" /><line stroke="#000000" stroke-width="1" x1="77" x2="77" y1="342" y2="402" /><line stroke="#000000" stroke-width="1" x1="81" x2="81" y1="342" y2="402" /><line stroke="#000000" stroke-width="1" x1="85" x2="85" y1="342" y2="402" /><line stroke="#000000" stroke-width="1" x1="-59" x2="-59" y1="460" y2="483" /><line stroke="#000000" stroke-width="1" x1="-55" x2="-55" y1="460" y2="483" /><line stroke="#000000" stroke-width="1" x1="-51" x2="-51" y1="460" y2="483" /><line stroke="#000000" stroke-width="1" x1="-47" x2="-47" y1="460" y2="483" /><line stroke="#000000" stroke-width="1" x1="-43" x2="-43" y1="460" y2="483" /><line stroke="#000000" stroke-width="1" x1="-39" x2="-39" y1="460" y2="483" /><line stroke="#000000" stroke-width="1" x1="-35" x2="-35" y1="460" y2="483" /><line stroke="#000000" stroke-width="1" x1="-31" x2="-31" y1="460" y2="483" /><line stroke="#000000" stroke-width="1" x1="-27" x2="-27" y1="460" y2="483" /><line stroke="#000000" stroke-width="1" x1="-128" x2="-128" y1="460" y2="483" /><line stroke="#000000" stroke-width="1" x1="-124" x2="-124" y1="460" y2="483" /><line stroke="#000000" stroke-width="1" x1="-120" x2="-120" y1="460" y2="483" /><line stroke="#000000" stroke-width="1" x1="-116" x2="-116" y1="460" y2="483" /><line stroke="#000000" stroke-width="1" x1="-112" x2="-112" y1="460" y2="483" /><line stroke="#000000" stroke-width="1" x1="-108" x2="-108" y1="460" y2="483" /><line stroke="#000000" stroke-width="1" x1="-104" x2="-104" y1="460" y2="483" /><line stroke="#000000" stroke-width="1" x1="-100" x2="-100" y1="460" y2="483" /><line stroke="#000000" stroke-width="1" x1="-96" x2="-96" y1="460" y2="483" /><line stroke="#000000" stroke-width="1" x1="-59" x2="-59" y1="581" y2="604" /><line stroke="#000000" stroke-width="1" x1="-55" x2="-55" y1="581" y2="604" /><line stroke="#000000" stroke-width="1" x1="-51" x2="-51" y1="581" y2="604" /><line stroke="#000000" stroke-width="1" x1="-47" x2="-47" y1="581" y2="604" /><line stroke="#000000" stroke-width="1" x1="-43" x2="-43" y1="581" y2="604" /><line stroke="#000000" stroke-width="1" x1="-39" x2="-39" y1="581" y2="604" /><line stroke="#000000" stroke-width="1" x1="-35" x2="-35" y1="581" y2="604" /><line stroke="#000000" stroke-width="1" x1="-31" x2="-31" y1="581" y2="604" /><line stroke="#000000" stroke-width="1" x1="-27" x2="-27" y1="581" y2="604" /><line stroke="#000000" stroke-width="1" x1="-128" x2="-128" y1="581" y2="604" /><line stroke="#000000" stroke-width="1" x1="-124" x2="-124" y1="581" y2="604" /><line stroke="#000000" stroke-width="1" x1="-120" x2="-120" y1="581" y2="604" /><line stroke="#000000" stroke-width="1" x1="-116" x2="-116" y1="581" y2="604" /><line stroke="#000000" stroke-width="1" x1="-112" x2="-112" y1="581" y2="604" /><line stroke="#000000" stroke-width="1" x1="-108" x2="-108" y1="581" y2="604" /><line stroke="#000000" stroke-width="1" x1="-104" x2="-104" y1="581" y2="604" /><line stroke="#000000" stroke-width="1" x1="-100" x2="-100" y1="581" y2="604" /><line stroke="#000000" stroke-width="1" x1="-96" x2="-96" y1="581" y2="604" /><line stroke="#000000" stroke-width="1" x1="672" x2="672" y1="483" y2="460" /><line stroke="#000000" stroke-width="1" x1="676" x2="676" y1="483" y2="460" /><line stroke="#000000" stroke-width="1" x1="680" x2="680" y1="483" y2="460" /><line stroke="#000000" stroke-width="1" x1="684" x2="684" y1="483" y2="460" /><line stroke="#000000" stroke-width="1" x1="688" x2="688" y1="483" y2="460" /><line stroke="#000000" stroke-width="1" x1="692" x2="692" y1="483" y2="460" /><line stroke="#000000" stroke-width="1" x1="696" x2="696" y1="483" y2="460" /><line stroke="#000000" stroke-width="1" x1="700" x2="700" y1="483" y2="460" /><line stroke="#000000" stroke-width="1" x1="704" x2="704" y1="483" y2="460" /><polygon fill="#D0D0D0" points="-51,343 -59,343 -59,400 -51,400" stroke="#000000" stroke-width="1" /><polyline fill="none" points="38,404 51,404 51,431 38,431" stroke="#000000" stroke-width="1" /><text fill="#000000" font-family="Arial" font-size="10" stroke="none" transform="rotate(90.0,51,405)" x="51" y="415.0">кассы</text><polyline fill="none" points="-2,402 38,402" stroke="#000000" stroke-width="0.5" /><polygon fill="none" points="0,400 -5,400 -5,395 0,395" stroke="#000000" stroke-width="1" /><polyline fill="none" points="-51,343 1,343" stroke="#000000" stroke-width="0.5" /><line stroke="#009900" stroke-width="1" x1="0" x2="-4" y1="391" y2="391" /><line stroke="#009900" stroke-width="1" x1="0" x2="-4" y1="387" y2="387" /><line stroke="#009900" stroke-width="1" x1="0" x2="-4" y1="383" y2="383" /><line stroke="#009900" stroke-width="1" x1="0" x2="-4" y1="379" y2="379" /><line stroke="#009900" stroke-width="1" x1="0" x2="-4" y1="375" y2="375" /><line stroke="#009900" stroke-width="1" x1="0" x2="-4" y1="371" y2="371" /><line stroke="#009900" stroke-width="1" x1="0" x2="-4" y1="367" y2="367" /><line stroke="#009900" stroke-width="1" x1="0" x2="-4" y1="363" y2="363" /><line stroke="#009900" stroke-width="1" x1="0" x2="-4" y1="359" y2="359" /><line stroke="#009900" stroke-width="1" x1="0" x2="-4" y1="355" y2="355" /><line stroke="#009900" stroke-width="1" x1="0" x2="-4" y1="351" y2="351" /><line stroke="#009900" stroke-width="1" x1="0" x2="-4" y1="347" y2="347" /><line stroke="#FF0000" stroke-width="1" x1="0" x2="-4" y1="313" y2="313" /><line stroke="#FF0000" stroke-width="1" x1="0" x2="-4" y1="317" y2="317" /><line stroke="#FF0000" stroke-width="1" x1="0" x2="-4" y1="321" y2="321" /><line stroke="#FF0000" stroke-width="1" x1="0" x2="-4" y1="325" y2="325" /><line stroke="#FF0000" stroke-width="1" x1="0" x2="-4" y1="329" y2="329" /><line stroke="#FF0000" stroke-width="1" x1="0" x2="-4" y1="333" y2="333" /><line stroke="#FF0000" stroke-width="1" x1="0" x2="-4" y1="337" y2="337" /><line stroke="#FF0000" stroke-width="1" x1="0" x2="-4" y1="341" y2="341" /><polyline fill="none" points="775,460 739,460 739,310 607,310 607,349 537,349 537,332" stroke="#000000" stroke-width="1" /><polyline fill="none" points="775,483 739,483 739,581 775,581" stroke="#000000" stroke-width="1" /><polyline fill="none" points="670,460 706,460 706,433 607,433 607,395 537,395 537,412" stroke="#000000" stroke-width="1" /><polyline fill="none" points="670,483 706,483 706,581 670,581" stroke="#000000" stroke-width="1" /><polyline fill="none" points="775,604 670,604" stroke="#000000" stroke-width="1" /><line stroke="#000000" stroke-width="1" x1="672" x2="672" y1="581" y2="604" /><line stroke="#000000" stroke-width="1" x1="676" x2="676" y1="581" y2="604" /><line stroke="#000000" stroke-width="1" x1="680" x2="680" y1="581" y2="604" /><line stroke="#000000" stroke-width="1" x1="684" x2="684" y1="581" y2="604" /><line stroke="#000000" stroke-width="1" x1="688" x2="688" y1="581" y2="604" /><line stroke="#000000" stroke-width="1" x1="692" x2="692" y1="581" y2="604" /><line stroke="#000000" stroke-width="1" x1="696" x2="696" y1="581" y2="604" /><line stroke="#000000" stroke-width="1" x1="700" x2="700" y1="581" y2="604" /><line stroke="#000000" stroke-width="1" x1="704" x2="704" y1="581" y2="604" /><line stroke="#000000" stroke-width="1" x1="741" x2="741" y1="604" y2="581" /><line stroke="#000000" stroke-width="1" x1="745" x2="745" y1="604" y2="581" /><line stroke="#000000" stroke-width="1" x1="749" x2="749" y1="604" y2="581" /><line stroke="#000000" stroke-width="1" x1="753" x2="753" y1="604" y2="581" /><line stroke="#000000" stroke-width="1" x1="757" x2="757" y1="604" y2="581" /><line stroke="#000000" stroke-width="1" x1="761" x2="761" y1="604" y2="581" /><line stroke="#000000" stroke-width="1" x1="765" x2="765" y1="604" y2="581" /><line stroke="#000000" stroke-width="1" x1="769" x2="769" y1="604" y2="581" /><line stroke="#000000" stroke-width="1" x1="773" x2="773" y1="604" y2="581" /><line stroke="#000000" stroke-width="1" x1="741" x2="741" y1="460" y2="483" /><line stroke="#000000" stroke-width="1" x1="745" x2="745" y1="460" y2="483" /><line stroke="#000000" stroke-width="1" x1="749" x2="749" y1="460" y2="483" /><line stroke="#000000" stroke-width="1" x1="753" x2="753" y1="460" y2="483" /><line stroke="#000000" stroke-width="1" x1="757" x2="757" y1="460" y2="483" /><line stroke="#000000" stroke-width="1" x1="761" x2="761" y1="460" y2="483" /><line stroke="#000000" stroke-width="1" x1="765" x2="765" y1="460" y2="483" /><line stroke="#000000" stroke-width="1" x1="769" x2="769" y1="460" y2="483" /><line stroke="#000000" stroke-width="1" x1="773" x2="773" y1="460" y2="483" /><polygon fill="#D0D0D0" points="706,343 704,343 704,400 706,400" stroke="#000000" stroke-width="1" /><line stroke="#7F7F7F" stroke-width="1" x1="602" x2="602" y1="351" y2="393" /><line stroke="#7F7F7F" stroke-width="1" x1="598.00052019" x2="598.00052019" y1="351.064507739" y2="393.064507739" /><line stroke="#7F7F7F" stroke-width="1" x1="594.00104038" x2="594.00104038" y1="351.129015478" y2="393.129015478" /><line stroke="#7F7F7F" stroke-width="1" x1="590.00156057" x2="590.00156057" y1="351.193523217" y2="393.193523217" /><line stroke="#7F7F7F" stroke-width="1" x1="586.002080759" x2="586.002080759" y1="351.258030955" y2="393.258030955" /><line stroke="#7F7F7F" stroke-width="1" x1="582.002600949" x2="582.002600949" y1="351.322538694" y2="393.322538694" /><line stroke="#7F7F7F" stroke-width="1" x1="578.003121139" x2="578.003121139" y1="351.387046433" y2="393.387046433" /><line stroke="#7F7F7F" stroke-width="1" x1="574.003641329" x2="574.003641329" y1="351.451554172" y2="393.451554172" /><line stroke="#7F7F7F" stroke-width="1" x1="570.004161519" x2="570.004161519" y1="351.516061911" y2="393.516061911" /><line stroke="#7F7F7F" stroke-width="1" x1="566.004681709" x2="566.004681709" y1="351.58056965" y2="393.58056965" /><line stroke="#7F7F7F" stroke-width="1" x1="562.005201899" x2="562.005201899" y1="351.645077389" y2="393.645077389" /><line stroke="#7F7F7F" stroke-width="1" x1="558.005722089" x2="558.005722089" y1="351.709585128" y2="393.709585128" /><line stroke="#7F7F7F" stroke-width="1" x1="554.006242278" x2="554.006242278" y1="351.774092866" y2="393.774092866" /><line stroke="#7F7F7F" stroke-width="1" x1="550.006762468" x2="550.006762468" y1="351.838600605" y2="393.838600605" /><line stroke="#7F7F7F" stroke-width="1" x1="546.007282658" x2="546.007282658" y1="351.903108344" y2="393.903108344" /><line stroke="#7F7F7F" stroke-width="1" x1="542.007802848" x2="542.007802848" y1="351.967616083" y2="393.967616083" /><polygon fill="#9B5509" points="538,362 605,362 605,367 538,367" stroke="#000000" stroke-width="1" /><polygon fill="#9B5509" points="538,377 605,377 605,382 538,382" stroke="#000000" stroke-width="1" /><polygon fill="#9B5509" points="538,349 605,349 605,352 538,352" stroke="#000000" stroke-width="1" /><polygon fill="#9B5509" points="538,392 605,392 605,395 538,395" stroke="#000000" stroke-width="1" /><polyline fill="none" points="704,343 695,343 695,400 704,400" stroke="#000000" stroke-width="1" /><text fill="#000000" font-family="Arial" font-size="10" stroke="none" transform="rotate(90.0,706,360)" x="706" y="370.0">кассы</text><polyline fill="none" points="609,395 657,395" stroke="#000000" stroke-width="0.5" /><polygon fill="none" points="657,401 652,401 652,396 657,396" stroke="#000000" stroke-width="1" /><polyline fill="none" points="650,343 704,343" stroke="#000000" stroke-width="0.5" /><polyline fill="none" points="606,380 650,343" stroke="#000000" stroke-width="0.5" /><line stroke="#009900" stroke-width="1" x1="652" x2="656" y1="347" y2="347" /><line stroke="#009900" stroke-width="1" x1="652" x2="656" y1="351" y2="351" /><line stroke="#009900" stroke-width="1" x1="652" x2="656" y1="355" y2="355" /><line stroke="#009900" stroke-width="1" x1="652" x2="656" y1="359" y2="359" /><line stroke="#009900" stroke-width="1" x1="652" x2="656" y1="363" y2="363" /><line stroke="#009900" stroke-width="1" x1="652" x2="656" y1="367" y2="367" /><line stroke="#009900" stroke-width="1" x1="652" x2="656" y1="371" y2="371" /><line stroke="#009900" stroke-width="1" x1="652" x2="656" y1="375" y2="375" /><line stroke="#009900" stroke-width="1" x1="652" x2="656" y1="379" y2="379" /><line stroke="#009900" stroke-width="1" x1="652" x2="656" y1="383" y2="383" /><line stroke="#009900" stroke-width="1" x1="652" x2="656" y1="387" y2="387" /><line stroke="#009900" stroke-width="1" x1="652" x2="656" y1="391" y2="391" /><line stroke="#FF0000" stroke-width="1" x1="656" x2="652" y1="314" y2="314" /><line stroke="#FF0000" stroke-width="1" x1="656" x2="652" y1="318" y2="318" /><line stroke="#FF0000" stroke-width="1" x1="656" x2="652" y1="322" y2="322" /><line stroke="#FF0000" stroke-width="1" x1="656" x2="652" y1="326" y2="326" /><line stroke="#FF0000" stroke-width="1" x1="656" x2="652" y1="330" y2="330" /><line stroke="#FF0000" stroke-width="1" x1="656" x2="652" y1="334" y2="334" /><line stroke="#FF0000" stroke-width="1" x1="656" x2="652" y1="338" y2="338" /><polyline fill="none" marker-end="url(#id170)" points="685,328 697,328" stroke="#FF0000" stroke-width="1" /><polyline fill="none" marker-end="url(#id170)" points="-44,326 -57,326" stroke="#FF0000" stroke-width="1" /><polyline fill="none" marker-end="url(#id170)" points="594,357 605,357" stroke="#FF0000" stroke-width="1" /><polyline fill="none" marker-end="url(#id170)" points="698,416 686,416" stroke="#009900" stroke-width="1" /><polyline fill="none" marker-end="url(#id170)" points="-56,417 -43,417" stroke="#009900" stroke-width="1" /><polyline fill="none" marker-end="url(#id170)" points="605,387 594,387" stroke="#009900" stroke-width="1" /><polygon fill="#34349C" points="687,399 692,399 692,397 687,397" stroke="#34349C" stroke-width="1" /><polygon fill="#34349C" points="297,383 297,388 295,388 295,383" stroke="#34349C" stroke-width="1" /><polygon fill="#34349C" points="-37,398 -32,398 -32,400 -37,400" stroke="#34349C" stroke-width="1" /><polygon fill="#FF0000" points="682,399 687,399 687,397 682,397" stroke="#FF0000" stroke-width="1" /><polygon fill="#FF0000" points="297,378 297,383 295,383 295,378" stroke="#FF0000" stroke-width="1" /><polygon fill="#FF0000" points="-42,398 -37,398 -37,400 -42,400" stroke="#FF0000" stroke-width="1" /><text fill="#00AFAF" font-family="Arial" font-size="15" stroke="none" x="243" y="543.0">Профсоюзная улица</text><text fill="#00AFAF" font-family="Arial" font-size="15" stroke="none" transform="rotate(90.0,319,578)" x="319" y="593.0">улица Миклухо-Маклая</text></g></svg>