<?xml version="1.0" encoding="utf-8" ?>
<svg baseProfile="full" height="840.0" version="1.1" width="540.0" xmlns="http://www.w3.org/2000/svg" xmlns:ev="http://www.w3.org/2001/xml-events" xmlns:xlink="http://www.w3.org/1999/xlink">
  <defs>
    <marker id="id184" markerHeight="3" markerUnits="strokeWidth" markerWidth="4" orient="auto" refX="0" refY="5" viewBox="0,0,10,10">
      <path d="M 0 0 L 10 5 L 0 10 z"/>
    </marker>
  </defs>
  <g>
    <rect fill="none" height="840.0" stroke="none" stroke-width="0" width="540.0" x="0.0" y="0.0"/>
    <g transform="rotate(-65.0,270.0,420.0)">
      <polygon fill="#84bc54" points="66.0,454.0 66.0,424.0 516.0,424.0 516.0,454.0" stroke="#000000" stroke-width="1"/>
      <polygon fill="#84bc54" points="516.0,344.0 516.0,314.0 66.0,314.0 66.0,344.0" stroke="#000000" stroke-width="1"/>
      <text fill="#5c9f2e" font-family="Arial" font-size="25.0" stroke="none" stroke-width="0" x="208.0" y="378.0">Борисово</text>
      <text fill="#5c9f2e" font-family="Arial" font-size="20.0" stroke="none" stroke-width="0" x="408.0" y="474.0">Марьино &gt;&gt;</text>
      <text fill="#5c9f2e" font-family="Arial" font-size="20.0" stroke="none" stroke-width="0" x="66.0" y="309.0">&lt;&lt; Шипиловская</text>
      <polygon fill="#34349c" points="291.0,380.0 290.0,380.0 290.0,384.0 291.0,384.0" stroke="#34349c" stroke-width="1"/>
      <polygon fill="#ff0000" points="291.0,384.0 290.0,384.0 290.0,388.0 291.0,388.0" stroke="#ff0000" stroke-width="1"/>
      <line stroke="#7f7f7f" stroke-width="1" x1="-55.0" x2="-55.0" y1="361.0" y2="405.0"/>
      <line stroke="#7f7f7f" stroke-width="1" x1="-51.0005554398416" x2="-51.0005554398416" y1="361.06665740933596" y2="405.06665740933596"/>
      <line stroke="#7f7f7f" stroke-width="1" x1="-47.001110879683196" x2="-47.001110879683196" y1="361.1333148186719" y2="405.1333148186719"/>
      <line stroke="#7f7f7f" stroke-width="1" x1="-43.001666319524794" x2="-43.001666319524794" y1="361.1999722280079" y2="405.1999722280079"/>
      <line stroke="#7f7f7f" stroke-width="1" x1="-39.00222175936639" x2="-39.00222175936639" y1="361.26662963734384" y2="405.26662963734384"/>
      <line stroke="#7f7f7f" stroke-width="1" x1="-35.00277719920799" x2="-35.00277719920799" y1="361.3332870466798" y2="405.3332870466798"/>
      <line stroke="#7f7f7f" stroke-width="1" x1="-31.003332639049592" x2="-31.003332639049592" y1="361.39994445601576" y2="405.39994445601576"/>
      <line stroke="#7f7f7f" stroke-width="1" x1="-27.003888078891194" x2="-27.003888078891194" y1="361.4666018653517" y2="405.4666018653517"/>
      <line stroke="#7f7f7f" stroke-width="1" x1="-23.004443518732796" x2="-23.004443518732796" y1="361.5332592746877" y2="405.5332592746877"/>
      <line stroke="#7f7f7f" stroke-width="1" x1="-19.004998958574397" x2="-19.004998958574397" y1="361.59991668402364" y2="405.59991668402364"/>
      <line stroke="#7f7f7f" stroke-width="1" x1="-15.005554398415997" x2="-15.005554398415997" y1="361.6665740933596" y2="405.6665740933596"/>
      <line stroke="#7f7f7f" stroke-width="1" x1="-11.006109838257597" x2="-11.006109838257597" y1="361.73323150269556" y2="405.73323150269556"/>
      <line stroke="#7f7f7f" stroke-width="1" x1="-7.006665278099197" x2="-7.006665278099197" y1="361.7998889120315" y2="405.7998889120315"/>
      <line stroke="#7f7f7f" stroke-width="1" x1="-3.0072207179407973" x2="-3.0072207179407973" y1="361.8665463213675" y2="405.8665463213675"/>
      <line stroke="#7f7f7f" stroke-width="1" x1="0.9922238422176024" x2="0.9922238422176024" y1="361.93320373070344" y2="405.93320373070344"/>
      <line stroke="#7f7f7f" stroke-width="1" x1="4.991668402376002" x2="4.991668402376002" y1="361.9998611400394" y2="405.9998611400394"/>
      <line stroke="#7f7f7f" stroke-width="1" x1="8.991112962534402" x2="8.991112962534402" y1="362.06651854937536" y2="406.06651854937536"/>
      <line stroke="#7f7f7f" stroke-width="1" x1="12.990557522692802" x2="12.990557522692802" y1="362.1331759587113" y2="406.1331759587113"/>
      <line stroke="#7f7f7f" stroke-width="1" x1="16.990002082851202" x2="16.990002082851202" y1="362.1998333680473" y2="406.1998333680473"/>
      <line stroke="#7f7f7f" stroke-width="1" x1="20.9894466430096" x2="20.9894466430096" y1="362.26649077738324" y2="406.26649077738324"/>
      <line stroke="#7f7f7f" stroke-width="1" x1="24.988891203168" x2="24.988891203168" y1="362.3331481867192" y2="406.3331481867192"/>
      <line stroke="#7f7f7f" stroke-width="1" x1="28.988335763326397" x2="28.988335763326397" y1="362.39980559605516" y2="406.39980559605516"/>
      <line stroke="#7f7f7f" stroke-width="1" x1="32.9877803234848" x2="32.9877803234848" y1="362.4664630053911" y2="406.4664630053911"/>
      <line stroke="#7f7f7f" stroke-width="1" x1="36.9872248836432" x2="36.9872248836432" y1="362.5331204147271" y2="406.5331204147271"/>
      <line stroke="#7f7f7f" stroke-width="1" x1="40.9866694438016" x2="40.9866694438016" y1="362.59977782406304" y2="406.59977782406304"/>
      <line stroke="#7f7f7f" stroke-width="1" x1="44.986114003960004" x2="44.986114003960004" y1="362.666435233399" y2="406.666435233399"/>
      <line stroke="#7f7f7f" stroke-width="1" x1="48.985558564118406" x2="48.985558564118406" y1="362.73309264273496" y2="406.73309264273496"/>
      <line stroke="#7f7f7f" stroke-width="1" x1="52.98500312427681" x2="52.98500312427681" y1="362.7997500520709" y2="406.7997500520709"/>
      <line stroke="#7f7f7f" stroke-width="1" x1="56.98444768443521" x2="56.98444768443521" y1="362.8664074614069" y2="406.8664074614069"/>
      <line stroke="#7f7f7f" stroke-width="1" x1="60.98389224459361" x2="60.98389224459361" y1="362.93306487074284" y2="406.93306487074284"/>
      <line stroke="#7f7f7f" stroke-width="1" x1="64.98333680475201" x2="64.98333680475201" y1="362.9997222800788" y2="406.9997222800788"/>
      <polygon fill="#9b5509" points="66.0,374.0 -57.0,374.0 -57.0,379.0 66.0,379.0" stroke="#000000" stroke-width="1"/>
      <polygon fill="#9b5509" points="66.0,389.0 -57.0,389.0 -57.0,394.0 66.0,394.0" stroke="#000000" stroke-width="1"/>
      <polygon fill="#9b5509" points="66.0,360.0 -57.0,360.0 -57.0,364.0 66.0,364.0" stroke="#000000" stroke-width="1"/>
      <polygon fill="#9b5509" points="66.0,404.0 -57.0,404.0 -57.0,408.0 66.0,408.0" stroke="#000000" stroke-width="1"/>
    </g>
    <g fill="#9b5509" fill-opacity="0.85" stroke="#000000" stroke-opacity="0.85" transform="rotate(-65.0,270.0,420.0)">
      <polygon fill="#ffffff" points="-32.0,359.0 41.0,359.0 41.0,409.0 -32.0,409.0 -27.0,401.0 -24.0,394.0 -22.0,384.0 -24.0,374.0 -27.0,367.0" stroke="#ffffff" stroke-width="1"/>
    </g>
    <g fill="#ffffff" fill-opacity="1.0" stroke="#ffffff" stroke-opacity="1.0" transform="rotate(-65.0,270.0,420.0)">
      <path d="M-32.0,360.0 C-32.0,360.0 -33.5,356.0 -32.0,360.0 C-30.5,364.0 -23.0,376.0 -23.0,384.0 C-23.0,392.0 -32.0,408.0 -32.0,408.0 " fill="none" stroke="#000000" stroke-width="1"/>
      <polyline fill="none" points="66.0,360.0 66.0,344.0" stroke="#000000" stroke-width="1"/>
      <polyline fill="none" points="-12.0,537.0 12.0,513.0 12.0,455.0 18.0,455.0 35.0,438.0 41.0,438.0 41.0,330.0 35.0,330.0 18.0,313.0 -18.0,313.0 -30.0,325.0 -30.0,330.0 -101.0,330.0 -101.0,438.0 -30.0,438.0 -30.0,443.0 -18.0,455.0 -12.0,455.0 -12.0,501.0 -30.0,519.0" stroke="#000000" stroke-width="1"/>
      <line stroke="#000000" stroke-width="1" x1="-10.0" x2="-28.0" y1="535.0" y2="517.0"/>
      <line stroke="#000000" stroke-width="1" x1="-7.17157287525381" x2="-25.17157287525381" y1="532.1715728752538" y2="514.1715728752538"/>
      <line stroke="#000000" stroke-width="1" x1="-4.34314575050762" x2="-22.343145750507617" y1="529.3431457505076" y2="511.3431457505076"/>
      <line stroke="#000000" stroke-width="1" x1="-1.51471862576143" x2="-19.514718625761425" y1="526.5147186257614" y2="508.51471862576136"/>
      <line stroke="#000000" stroke-width="1" x1="1.3137084989847603" x2="-16.686291501015234" y1="523.6862915010151" y2="505.68629150101515"/>
      <line stroke="#000000" stroke-width="1" x1="4.142135623730951" x2="-13.857864376269044" y1="520.8578643762689" y2="502.85786437626894"/>
      <polyline fill="none" points="66.0,408.0 66.0,424.0" stroke="#000000" stroke-width="1"/>
      <polygon fill="#ffffff" points="41.0,371.0 49.0,371.0 49.0,398.0 41.0,398.0" stroke="#000000" stroke-width="1"/>
      <text fill="#000000" font-family="Arial" font-size="10.0" stroke="none" stroke-width="0" transform="rotate(90.0,51.0,372.0)" x="51.0" y="382.0">кассы</text>
      <polyline fill="none" points="-86.0,330.0 -86.0,353.0" stroke="#000000" stroke-width="0.5"/>
      <polyline fill="none" points="-83.0,359.0 -57.0,376.0" stroke="#000000" stroke-width="0.5"/>
      <polyline fill="none" points="-57.0,408.0 -64.0,408.0" stroke="#000000" stroke-width="0.5"/>
      <polygon fill="none" points="-86.0,353.0 -83.0,359.0 -89.0,362.0 -92.0,356.0" stroke="#000000" stroke-width="1"/>
      <line stroke="#009900" stroke-width="1" x1="-82.0" x2="-86.0" y1="363.0" y2="365.0"/>
      <line stroke="#009900" stroke-width="1" x1="-80.17809678274405" x2="-84.17809678274405" y1="366.5609926519094" y2="368.5609926519094"/>
      <line stroke="#009900" stroke-width="1" x1="-78.3561935654881" x2="-82.3561935654881" y1="370.12198530381875" y2="372.12198530381875"/>
      <line stroke="#009900" stroke-width="1" x1="-76.53429034823215" x2="-80.53429034823215" y1="373.6829779557281" y2="375.6829779557281"/>
      <line stroke="#009900" stroke-width="1" x1="-74.7123871309762" x2="-78.7123871309762" y1="377.2439706076375" y2="379.2439706076375"/>
      <line stroke="#009900" stroke-width="1" x1="-72.89048391372025" x2="-76.89048391372025" y1="380.80496325954687" y2="382.80496325954687"/>
      <line stroke="#009900" stroke-width="1" x1="-71.0685806964643" x2="-75.0685806964643" y1="384.36595591145624" y2="386.36595591145624"/>
      <line stroke="#009900" stroke-width="1" x1="-69.24667747920834" x2="-73.24667747920834" y1="387.9269485633656" y2="389.9269485633656"/>
      <line stroke="#009900" stroke-width="1" x1="-67.4247742619524" x2="-71.4247742619524" y1="391.487941215275" y2="393.487941215275"/>
      <line stroke="#009900" stroke-width="1" x1="-65.60287104469644" x2="-69.60287104469644" y1="395.04893386718436" y2="397.04893386718436"/>
      <line stroke="#009900" stroke-width="1" x1="-63.78096782744049" x2="-67.78096782744049" y1="398.60992651909373" y2="400.60992651909373"/>
      <line stroke="#009900" stroke-width="1" x1="-61.95906461018454" x2="-65.95906461018454" y1="402.1709191710031" y2="404.1709191710031"/>
      <line stroke="#009900" stroke-width="1" x1="-60.13716139292859" x2="-64.13716139292859" y1="405.7319118229125" y2="407.7319118229125"/>
      <line stroke="#ff0000" stroke-width="1" x1="-53.0" x2="-57.0" y1="357.0" y2="357.0"/>
      <line stroke="#ff0000" stroke-width="1" x1="-53.0" x2="-57.0" y1="353.0" y2="353.0"/>
      <line stroke="#ff0000" stroke-width="1" x1="-53.0" x2="-57.0" y1="349.0" y2="349.0"/>
      <line stroke="#ff0000" stroke-width="1" x1="-53.0" x2="-57.0" y1="345.0" y2="345.0"/>
      <line stroke="#ff0000" stroke-width="1" x1="-53.0" x2="-57.0" y1="341.0" y2="341.0"/>
      <line stroke="#ff0000" stroke-width="1" x1="-53.0" x2="-57.0" y1="337.0" y2="337.0"/>
      <line stroke="#ff0000" stroke-width="1" x1="-53.0" x2="-57.0" y1="333.0" y2="333.0"/>
      <polyline fill="none" marker-end="url(#id184)" points="-48.0,345.0 -34.0,345.0" stroke="#ff0000" stroke-width="1"/>
      <polyline fill="none" marker-end="url(#id184)" points="-34.0,423.0 -48.0,423.0" stroke="#009900" stroke-width="1"/>
      <polygon fill="#34349c" points="-97.0,379.0 -98.0,379.0 -98.0,383.0 -97.0,383.0" stroke="#34349c" stroke-width="1"/>
      <polygon fill="#ff0000" points="-97.0,383.0 -98.0,383.0 -98.0,387.0 -97.0,387.0" stroke="#ff0000" stroke-width="1"/>
      <line stroke="#7f7f7f" stroke-width="1" x1="643.0" x2="643.0" y1="361.0" y2="405.0"/>
      <line stroke="#7f7f7f" stroke-width="1" x1="639.0004881918612" x2="639.0004881918612" y1="361.06249237200217" y2="405.06249237200217"/>
      <line stroke="#7f7f7f" stroke-width="1" x1="635.0009763837224" x2="635.0009763837224" y1="361.12498474400434" y2="405.12498474400434"/>
      <line stroke="#7f7f7f" stroke-width="1" x1="631.0014645755837" x2="631.0014645755837" y1="361.1874771160065" y2="405.1874771160065"/>
      <line stroke="#7f7f7f" stroke-width="1" x1="627.0019527674449" x2="627.0019527674449" y1="361.2499694880087" y2="405.2499694880087"/>
      <line stroke="#7f7f7f" stroke-width="1" x1="623.0024409593061" x2="623.0024409593061" y1="361.31246186001084" y2="405.31246186001084"/>
      <line stroke="#7f7f7f" stroke-width="1" x1="619.0029291511673" x2="619.0029291511673" y1="361.374954232013" y2="405.374954232013"/>
      <line stroke="#7f7f7f" stroke-width="1" x1="615.0034173430286" x2="615.0034173430286" y1="361.4374466040152" y2="405.4374466040152"/>
      <line stroke="#7f7f7f" stroke-width="1" x1="611.0039055348898" x2="611.0039055348898" y1="361.49993897601735" y2="405.49993897601735"/>
      <line stroke="#7f7f7f" stroke-width="1" x1="607.004393726751" x2="607.004393726751" y1="361.5624313480195" y2="405.5624313480195"/>
      <line stroke="#7f7f7f" stroke-width="1" x1="603.0048819186122" x2="603.0048819186122" y1="361.6249237200217" y2="405.6249237200217"/>
      <line stroke="#7f7f7f" stroke-width="1" x1="599.0053701104735" x2="599.0053701104735" y1="361.68741609202385" y2="405.68741609202385"/>
      <line stroke="#7f7f7f" stroke-width="1" x1="595.0058583023347" x2="595.0058583023347" y1="361.749908464026" y2="405.749908464026"/>
      <line stroke="#7f7f7f" stroke-width="1" x1="591.0063464941959" x2="591.0063464941959" y1="361.8124008360282" y2="405.8124008360282"/>
      <line stroke="#7f7f7f" stroke-width="1" x1="587.0068346860571" x2="587.0068346860571" y1="361.87489320803036" y2="405.87489320803036"/>
      <line stroke="#7f7f7f" stroke-width="1" x1="583.0073228779183" x2="583.0073228779183" y1="361.9373855800325" y2="405.9373855800325"/>
      <line stroke="#7f7f7f" stroke-width="1" x1="579.0078110697796" x2="579.0078110697796" y1="361.9998779520347" y2="405.9998779520347"/>
      <line stroke="#7f7f7f" stroke-width="1" x1="575.0082992616408" x2="575.0082992616408" y1="362.06237032403686" y2="406.06237032403686"/>
      <line stroke="#7f7f7f" stroke-width="1" x1="571.008787453502" x2="571.008787453502" y1="362.12486269603903" y2="406.12486269603903"/>
      <line stroke="#7f7f7f" stroke-width="1" x1="567.0092756453632" x2="567.0092756453632" y1="362.1873550680412" y2="406.1873550680412"/>
      <line stroke="#7f7f7f" stroke-width="1" x1="563.0097638372245" x2="563.0097638372245" y1="362.24984744004337" y2="406.24984744004337"/>
      <line stroke="#7f7f7f" stroke-width="1" x1="559.0102520290857" x2="559.0102520290857" y1="362.31233981204554" y2="406.31233981204554"/>
      <line stroke="#7f7f7f" stroke-width="1" x1="555.0107402209469" x2="555.0107402209469" y1="362.3748321840477" y2="406.3748321840477"/>
      <line stroke="#7f7f7f" stroke-width="1" x1="551.0112284128081" x2="551.0112284128081" y1="362.4373245560499" y2="406.4373245560499"/>
      <line stroke="#7f7f7f" stroke-width="1" x1="547.0117166046693" x2="547.0117166046693" y1="362.49981692805204" y2="406.49981692805204"/>
      <line stroke="#7f7f7f" stroke-width="1" x1="543.0122047965306" x2="543.0122047965306" y1="362.5623093000542" y2="406.5623093000542"/>
      <line stroke="#7f7f7f" stroke-width="1" x1="539.0126929883918" x2="539.0126929883918" y1="362.6248016720564" y2="406.6248016720564"/>
      <line stroke="#7f7f7f" stroke-width="1" x1="535.013181180253" x2="535.013181180253" y1="362.68729404405855" y2="406.68729404405855"/>
      <line stroke="#7f7f7f" stroke-width="1" x1="531.0136693721142" x2="531.0136693721142" y1="362.7497864160607" y2="406.7497864160607"/>
      <line stroke="#7f7f7f" stroke-width="1" x1="527.0141575639755" x2="527.0141575639755" y1="362.8122787880629" y2="406.8122787880629"/>
      <line stroke="#7f7f7f" stroke-width="1" x1="523.0146457558367" x2="523.0146457558367" y1="362.87477116006505" y2="406.87477116006505"/>
      <line stroke="#7f7f7f" stroke-width="1" x1="519.0151339476979" x2="519.0151339476979" y1="362.9372635320672" y2="406.9372635320672"/>
      <line stroke="#7f7f7f" stroke-width="1" x1="515.0156221395591" x2="515.0156221395591" y1="362.9997559040694" y2="406.9997559040694"/>
      <polygon fill="#9b5509" points="516.0,374.0 645.0,374.0 645.0,379.0 516.0,379.0" stroke="#000000" stroke-width="1"/>
      <polygon fill="#9b5509" points="516.0,389.0 645.0,389.0 645.0,394.0 516.0,394.0" stroke="#000000" stroke-width="1"/>
      <polygon fill="#9b5509" points="516.0,360.0 645.0,360.0 645.0,364.0 516.0,364.0" stroke="#000000" stroke-width="1"/>
      <polygon fill="#9b5509" points="516.0,404.0 645.0,404.0 645.0,408.0 516.0,408.0" stroke="#000000" stroke-width="1"/>
      <polyline fill="none" points="516.0,360.0 516.0,344.0" stroke="#000000" stroke-width="1"/>
      <polyline fill="none" points="521.0,563.0 518.0,560.0 531.0,547.0 514.0,530.0 570.0,474.0 570.0,462.0 563.0,462.0 563.0,455.0 546.0,438.0 542.0,438.0 542.0,359.0 530.0,359.0" stroke="#000000" stroke-width="1"/>
      <polyline fill="none" points="530.0,345.0 542.0,345.0 542.0,330.0 552.0,330.0 569.0,313.0 605.0,313.0 617.0,325.0 617.0,330.0 688.0,330.0 688.0,438.0 617.0,438.0 617.0,447.0 602.0,462.0 595.0,462.0 595.0,485.0 544.0,536.0 547.0,539.0 563.0,523.0" stroke="#000000" stroke-width="1"/>
      <polyline fill="none" points="574.0,534.0 543.0,565.0 541.0,563.0" stroke="#000000" stroke-width="1"/>
      <line stroke="#000000" stroke-width="1" x1="572.0" x2="561.0" y1="536.0" y2="525.0"/>
      <line stroke="#000000" stroke-width="1" x1="569.1715728752538" x2="558.1715728752538" y1="538.8284271247462" y2="527.8284271247462"/>
      <line stroke="#000000" stroke-width="1" x1="566.3431457505076" x2="555.3431457505076" y1="541.6568542494924" y2="530.6568542494924"/>
      <line stroke="#000000" stroke-width="1" x1="563.5147186257614" x2="552.5147186257614" y1="544.4852813742386" y2="533.4852813742386"/>
      <line stroke="#000000" stroke-width="1" x1="560.6862915010151" x2="549.6862915010151" y1="547.3137084989849" y2="536.3137084989849"/>
      <polyline fill="none" points="516.0,408.0 516.0,424.0" stroke="#000000" stroke-width="1"/>
      <polygon fill="#ffffff" points="534.0,371.0 542.0,371.0 542.0,398.0 534.0,398.0" stroke="#000000" stroke-width="1"/>
      <text fill="#000000" font-family="Arial" font-size="10.0" stroke="none" stroke-width="0" transform="rotate(90.0,544.0,372.0)" x="544.0" y="382.0">кассы</text>
      <polyline fill="none" points="669.0,330.0 669.0,359.0 688.0,359.0" stroke="#000000" stroke-width="0.5"/>
      <polyline fill="none" points="645.0,376.0 654.0,376.0 666.0,368.0" stroke="#000000" stroke-width="0.5"/>
      <polyline fill="none" points="645.0,408.0 653.0,408.0" stroke="#000000" stroke-width="0.5"/>
      <polyline fill="none" points="688.0,396.0 660.0,438.0" stroke="#000000" stroke-width="0.5"/>
      <polygon fill="none" points="666.0,368.0 669.0,362.0 675.0,365.0 672.0,371.0" stroke="#000000" stroke-width="1"/>
      <line stroke="#000000" stroke-width="1" x1="534.0" x2="539.0" y1="348.0" y2="348.0"/>
      <line stroke="#000000" stroke-width="1" x1="534.0" x2="539.0" y1="352.0" y2="352.0"/>
      <line stroke="#000000" stroke-width="1" x1="534.0" x2="539.0" y1="356.0" y2="356.0"/>
      <line stroke="#009900" stroke-width="1" x1="669.0" x2="665.0" y1="375.0" y2="373.0"/>
      <line stroke="#009900" stroke-width="1" x1="667.353653110294" x2="663.353653110294" y1="378.6454823986347" y2="376.6454823986347"/>
      <line stroke="#009900" stroke-width="1" x1="665.707306220588" x2="661.707306220588" y1="382.29096479726945" y2="380.29096479726945"/>
      <line stroke="#009900" stroke-width="1" x1="664.0609593308819" x2="660.0609593308819" y1="385.9364471959042" y2="383.9364471959042"/>
      <line stroke="#009900" stroke-width="1" x1="662.4146124411759" x2="658.4146124411759" y1="389.5819295945389" y2="387.5819295945389"/>
      <line stroke="#009900" stroke-width="1" x1="660.7682655514699" x2="656.7682655514699" y1="393.22741199317363" y2="391.22741199317363"/>
      <line stroke="#009900" stroke-width="1" x1="659.1219186617639" x2="655.1219186617639" y1="396.87289439180836" y2="394.87289439180836"/>
      <line stroke="#009900" stroke-width="1" x1="657.4755717720578" x2="653.4755717720578" y1="400.5183767904431" y2="398.5183767904431"/>
      <line stroke="#009900" stroke-width="1" x1="655.8292248823518" x2="651.8292248823518" y1="404.1638591890778" y2="402.1638591890778"/>
      <line stroke="#ff0000" stroke-width="1" x1="638.0" x2="643.0" y1="356.0" y2="356.0"/>
      <line stroke="#ff0000" stroke-width="1" x1="638.0" x2="643.0" y1="352.0" y2="352.0"/>
      <line stroke="#ff0000" stroke-width="1" x1="638.0" x2="643.0" y1="348.0" y2="348.0"/>
      <line stroke="#ff0000" stroke-width="1" x1="638.0" x2="643.0" y1="344.0" y2="344.0"/>
      <line stroke="#ff0000" stroke-width="1" x1="638.0" x2="643.0" y1="340.0" y2="340.0"/>
      <line stroke="#ff0000" stroke-width="1" x1="638.0" x2="643.0" y1="336.0" y2="336.0"/>
      <line stroke="#ff0000" stroke-width="1" x1="638.0" x2="643.0" y1="332.0" y2="332.0"/>
      <polyline fill="none" marker-end="url(#id184)" points="633.0,346.0 621.0,346.0" stroke="#ff0000" stroke-width="1"/>
      <polyline fill="none" marker-end="url(#id184)" points="621.0,423.0 633.0,423.0" stroke="#009900" stroke-width="1"/>
      <polygon fill="#d0efff" points="521.0,563.0 531.0,553.0 541.0,563.0 531.0,573.0" stroke="#000000" stroke-width="1"/>
      <text fill="#000000" font-family="Arial" font-size="6.0" stroke="none" stroke-width="0" transform="rotate(90.0,535.0,556.0)" x="535.0" y="562.0">лифт</text>
      <polygon fill="#d0efff" points="516.0,345.0 530.0,345.0 530.0,359.0 516.0,359.0" stroke="#000000" stroke-width="1"/>
      <text fill="#000000" font-family="Arial" font-size="6.0" stroke="none" stroke-width="0" transform="rotate(90.0,526.0,346.0)" x="526.0" y="352.0">лифт</text>
      <polygon fill="#34349c" points="685.0,386.0 684.0,386.0 684.0,382.0 685.0,382.0" stroke="#34349c" stroke-width="1"/>
      <polygon fill="#ff0000" points="685.0,382.0 684.0,382.0 684.0,378.0 685.0,378.0" stroke="#ff0000" stroke-width="1"/>
    </g>
    <g fill="#ff0000" fill-opacity="0.85" stroke="#ff0000" stroke-opacity="0.85" transform="rotate(-65.0,270.0,420.0)">
      <polygon fill="#ffffff" points="615.0,402.0 612.0,394.0 610.0,384.0 612.0,374.0 615.0,366.0 619.0,358.0 543.0,358.0 543.0,410.0 619.0,410.0" stroke="#ffffff" stroke-width="1"/>
    </g>
    <g fill="#ffffff" fill-opacity="1.0" stroke="#ffffff" stroke-opacity="1.0" transform="rotate(-65.0,270.0,420.0)">
      <path d="M619.0,360.0 C619.0,360.0 620.3333333333334,356.0 619.0,360.0 C617.6666666666666,364.0 611.0,376.0 611.0,384.0 C611.0,392.0 619.0,408.0 619.0,408.0 " fill="none" stroke="#000000" stroke-width="1"/>
      <text fill="#00afaf" font-family="Arial" font-size="15.0" stroke="none" stroke-width="0" transform="rotate(59.0,-141.0,507.0)" x="-141.0" y="522.0">Братеевский проезд</text>
    </g>
    <g>
      <rect fill="#615f56" height="30.0" stroke="none" stroke-width="0" width="30.0" x="192.0" y="716.0"/>
      <rect fill="#615f56" height="30.0" stroke="none" stroke-width="0" width="30.0" x="508.0" y="166.0"/>
      <text fill="#ffd900" font-family="Arial" font-size="25.0" stroke="none" stroke-width="0" x="200.0" y="742.0">1</text>
      <text fill="#ffd900" font-family="Arial" font-size="25.0" stroke="none" stroke-width="0" x="516.0" y="192.0">2</text>
    </g>
  </g>
</svg>
