<?xml version="1.0" encoding="utf-8" ?>
<svg baseProfile="full" height="1100.0" version="1.1" width="920.0" xmlns="http://www.w3.org/2000/svg" xmlns:ev="http://www.w3.org/2001/xml-events" xmlns:xlink="http://www.w3.org/1999/xlink">
  <defs>
    <marker id="id187" markerHeight="3" markerUnits="strokeWidth" markerWidth="4" orient="auto" refX="0" refY="5" viewBox="0,0,10,10">
      <path d="M 0 0 L 10 5 L 0 10 z"/>
    </marker>
  </defs>
  <g>
    <rect fill="none" height="1100.0" stroke="none" stroke-width="0" width="920.0" x="0.0" y="0.0"/>
    <g transform="rotate(-60.0,460.0,550.0)">
      <polygon fill="#9ca4a4" points="232.0,723.0 232.0,693.0 682.0,693.0 682.0,723.0" stroke="#000000" stroke-width="1"/>
      <polygon fill="#9ca4a4" points="232.0,583.0 232.0,613.0 682.0,613.0 682.0,583.0" stroke="#000000" stroke-width="1"/>
      <text fill="#4c4c4c" font-family="Arial" font-size="20.0" stroke="none" stroke-width="0" x="588.0" y="743.0">Аннино &gt;&gt;</text>
      <text fill="#4c4c4c" font-family="Arial" font-size="20.0" stroke="none" stroke-width="0" x="586.0" y="579.0">Аннино &gt;&gt;</text>
      <text fill="#4c4c4c" font-family="Arial" font-size="25.0" stroke="none" stroke-width="0" x="316.0" y="685.0">Бульвар Дмитрия Донского</text>
      <polygon fill="#34349c" points="415.0,653.0 415.0,657.0 414.0,657.0 414.0,653.0" stroke="#34349c" stroke-width="1"/>
      <polygon fill="#ff0000" points="415.0,649.0 415.0,653.0 414.0,653.0 414.0,649.0" stroke="#ff0000" stroke-width="1"/>
      <polyline fill="none" points="540.0,536.0 792.0,536.0 792.0,453.0 742.0,453.0" stroke="#000000" stroke-width="1"/>
      <polyline fill="none" points="742.0,435.0 792.0,435.0 792.0,302.0 724.0,302.0" stroke="#000000" stroke-width="1"/>
      <polyline fill="none" points="724.0,284.0 866.0,284.0" stroke="#000000" stroke-width="1"/>
      <polyline fill="none" points="866.0,302.0 816.0,302.0 816.0,536.0 821.0,536.0 821.0,765.0 816.0,765.0 816.0,788.0 821.0,788.0 821.0,810.0 871.0,810.0" stroke="#000000" stroke-width="1"/>
      <polyline fill="none" points="871.0,828.0 737.0,828.0" stroke="#000000" stroke-width="1"/>
      <polyline fill="none" points="737.0,810.0 787.0,810.0 787.0,788.0 792.0,788.0 792.0,765.0 540.0,765.0" stroke="#000000" stroke-width="1"/>
      <line stroke="#000000" stroke-width="1" x1="739.0" x2="739.0" y1="810.0" y2="828.0"/>
      <line stroke="#000000" stroke-width="1" x1="743.0" x2="743.0" y1="810.0" y2="828.0"/>
      <line stroke="#000000" stroke-width="1" x1="747.0" x2="747.0" y1="810.0" y2="828.0"/>
      <line stroke="#000000" stroke-width="1" x1="751.0" x2="751.0" y1="810.0" y2="828.0"/>
      <line stroke="#000000" stroke-width="1" x1="755.0" x2="755.0" y1="810.0" y2="828.0"/>
      <line stroke="#000000" stroke-width="1" x1="759.0" x2="759.0" y1="810.0" y2="828.0"/>
      <line stroke="#000000" stroke-width="1" x1="763.0" x2="763.0" y1="810.0" y2="828.0"/>
      <line stroke="#000000" stroke-width="1" x1="767.0" x2="767.0" y1="810.0" y2="828.0"/>
      <line stroke="#000000" stroke-width="1" x1="771.0" x2="771.0" y1="810.0" y2="828.0"/>
      <line stroke="#000000" stroke-width="1" x1="775.0" x2="775.0" y1="810.0" y2="828.0"/>
      <line stroke="#000000" stroke-width="1" x1="779.0" x2="779.0" y1="810.0" y2="828.0"/>
      <line stroke="#000000" stroke-width="1" x1="783.0" x2="783.0" y1="810.0" y2="828.0"/>
      <line stroke="#000000" stroke-width="1" x1="869.0" x2="869.0" y1="810.0" y2="828.0"/>
      <line stroke="#000000" stroke-width="1" x1="865.0" x2="865.0" y1="810.0" y2="828.0"/>
      <line stroke="#000000" stroke-width="1" x1="861.0" x2="861.0" y1="810.0" y2="828.0"/>
      <line stroke="#000000" stroke-width="1" x1="857.0" x2="857.0" y1="810.0" y2="828.0"/>
      <line stroke="#000000" stroke-width="1" x1="853.0" x2="853.0" y1="810.0" y2="828.0"/>
      <line stroke="#000000" stroke-width="1" x1="849.0" x2="849.0" y1="810.0" y2="828.0"/>
      <line stroke="#000000" stroke-width="1" x1="845.0" x2="845.0" y1="810.0" y2="828.0"/>
      <line stroke="#000000" stroke-width="1" x1="841.0" x2="841.0" y1="810.0" y2="828.0"/>
      <line stroke="#000000" stroke-width="1" x1="837.0" x2="837.0" y1="810.0" y2="828.0"/>
      <line stroke="#000000" stroke-width="1" x1="833.0" x2="833.0" y1="810.0" y2="828.0"/>
      <line stroke="#000000" stroke-width="1" x1="829.0" x2="829.0" y1="810.0" y2="828.0"/>
      <line stroke="#000000" stroke-width="1" x1="825.0" x2="825.0" y1="810.0" y2="828.0"/>
      <line stroke="#000000" stroke-width="1" x1="744.0" x2="744.0" y1="453.0" y2="435.0"/>
      <line stroke="#000000" stroke-width="1" x1="748.0" x2="748.0" y1="453.0" y2="435.0"/>
      <line stroke="#000000" stroke-width="1" x1="752.0" x2="752.0" y1="453.0" y2="435.0"/>
      <line stroke="#000000" stroke-width="1" x1="756.0" x2="756.0" y1="453.0" y2="435.0"/>
      <line stroke="#000000" stroke-width="1" x1="760.0" x2="760.0" y1="453.0" y2="435.0"/>
      <line stroke="#000000" stroke-width="1" x1="764.0" x2="764.0" y1="453.0" y2="435.0"/>
      <line stroke="#000000" stroke-width="1" x1="768.0" x2="768.0" y1="453.0" y2="435.0"/>
      <line stroke="#000000" stroke-width="1" x1="772.0" x2="772.0" y1="453.0" y2="435.0"/>
      <line stroke="#000000" stroke-width="1" x1="776.0" x2="776.0" y1="453.0" y2="435.0"/>
      <line stroke="#000000" stroke-width="1" x1="780.0" x2="780.0" y1="453.0" y2="435.0"/>
      <line stroke="#000000" stroke-width="1" x1="784.0" x2="784.0" y1="453.0" y2="435.0"/>
      <line stroke="#000000" stroke-width="1" x1="788.0" x2="788.0" y1="453.0" y2="435.0"/>
      <line stroke="#000000" stroke-width="1" x1="726.0" x2="726.0" y1="302.0" y2="284.0"/>
      <line stroke="#000000" stroke-width="1" x1="730.0" x2="730.0" y1="302.0" y2="284.0"/>
      <line stroke="#000000" stroke-width="1" x1="734.0" x2="734.0" y1="302.0" y2="284.0"/>
      <line stroke="#000000" stroke-width="1" x1="738.0" x2="738.0" y1="302.0" y2="284.0"/>
      <line stroke="#000000" stroke-width="1" x1="742.0" x2="742.0" y1="302.0" y2="284.0"/>
      <line stroke="#000000" stroke-width="1" x1="746.0" x2="746.0" y1="302.0" y2="284.0"/>
      <line stroke="#000000" stroke-width="1" x1="750.0" x2="750.0" y1="302.0" y2="284.0"/>
      <line stroke="#000000" stroke-width="1" x1="754.0" x2="754.0" y1="302.0" y2="284.0"/>
      <line stroke="#000000" stroke-width="1" x1="758.0" x2="758.0" y1="302.0" y2="284.0"/>
      <line stroke="#000000" stroke-width="1" x1="762.0" x2="762.0" y1="302.0" y2="284.0"/>
      <line stroke="#000000" stroke-width="1" x1="766.0" x2="766.0" y1="302.0" y2="284.0"/>
      <line stroke="#000000" stroke-width="1" x1="770.0" x2="770.0" y1="302.0" y2="284.0"/>
      <line stroke="#000000" stroke-width="1" x1="864.0" x2="864.0" y1="302.0" y2="284.0"/>
      <line stroke="#000000" stroke-width="1" x1="860.0" x2="860.0" y1="302.0" y2="284.0"/>
      <line stroke="#000000" stroke-width="1" x1="856.0" x2="856.0" y1="302.0" y2="284.0"/>
      <line stroke="#000000" stroke-width="1" x1="852.0" x2="852.0" y1="302.0" y2="284.0"/>
      <line stroke="#000000" stroke-width="1" x1="848.0" x2="848.0" y1="302.0" y2="284.0"/>
      <line stroke="#000000" stroke-width="1" x1="844.0" x2="844.0" y1="302.0" y2="284.0"/>
      <line stroke="#000000" stroke-width="1" x1="840.0" x2="840.0" y1="302.0" y2="284.0"/>
      <line stroke="#000000" stroke-width="1" x1="836.0" x2="836.0" y1="302.0" y2="284.0"/>
      <line stroke="#000000" stroke-width="1" x1="832.0" x2="832.0" y1="302.0" y2="284.0"/>
      <line stroke="#000000" stroke-width="1" x1="828.0" x2="828.0" y1="302.0" y2="284.0"/>
      <line stroke="#000000" stroke-width="1" x1="824.0" x2="824.0" y1="302.0" y2="284.0"/>
      <line stroke="#000000" stroke-width="1" x1="820.0" x2="820.0" y1="302.0" y2="284.0"/>
      <polygon fill="#d0d0d0" points="755.0,635.0 755.0,670.0 769.0,670.0 769.0,673.0 787.0,673.0 787.0,632.0 770.0,632.0 770.0,635.0" stroke="#000000" stroke-width="1"/>
      <polyline fill="none" points="742.0,635.0 755.0,635.0" stroke="#000000" stroke-width="0.5"/>
      <polygon fill="#ffffff" points="742.0,635.0 742.0,642.0 735.0,642.0 735.0,635.0" stroke="#000000" stroke-width="1"/>
      <line stroke="#009900" stroke-width="1" x1="741.0" x2="736.0" y1="646.0" y2="646.0"/>
      <line stroke="#009900" stroke-width="1" x1="741.0" x2="736.0" y1="650.0" y2="650.0"/>
      <line stroke="#009900" stroke-width="1" x1="741.0" x2="736.0" y1="654.0" y2="654.0"/>
      <line stroke="#009900" stroke-width="1" x1="741.0" x2="736.0" y1="658.0" y2="658.0"/>
      <line stroke="#009900" stroke-width="1" x1="741.0" x2="736.0" y1="662.0" y2="662.0"/>
      <line stroke="#009900" stroke-width="1" x1="741.0" x2="736.0" y1="666.0" y2="666.0"/>
      <line stroke="#009900" stroke-width="1" x1="741.0" x2="736.0" y1="670.0" y2="670.0"/>
      <line stroke="#009900" stroke-width="1" x1="741.0" x2="736.0" y1="674.0" y2="674.0"/>
      <line stroke="#009900" stroke-width="1" x1="741.0" x2="736.0" y1="678.0" y2="678.0"/>
      <line stroke="#009900" stroke-width="1" x1="741.0" x2="736.0" y1="682.0" y2="682.0"/>
      <line stroke="#009900" stroke-width="1" x1="741.0" x2="736.0" y1="686.0" y2="686.0"/>
      <line stroke="#009900" stroke-width="1" x1="741.0" x2="736.0" y1="690.0" y2="690.0"/>
      <line stroke="#009900" stroke-width="1" x1="741.0" x2="736.0" y1="694.0" y2="694.0"/>
      <line stroke="#009900" stroke-width="1" x1="741.0" x2="736.0" y1="698.0" y2="698.0"/>
      <line stroke="#009900" stroke-width="1" x1="741.0" x2="736.0" y1="702.0" y2="702.0"/>
      <line stroke="#009900" stroke-width="1" x1="741.0" x2="736.0" y1="706.0" y2="706.0"/>
      <line stroke="#009900" stroke-width="1" x1="741.0" x2="736.0" y1="710.0" y2="710.0"/>
      <line stroke="#009900" stroke-width="1" x1="741.0" x2="736.0" y1="714.0" y2="714.0"/>
      <line stroke="#009900" stroke-width="1" x1="741.0" x2="736.0" y1="718.0" y2="718.0"/>
      <line stroke="#009900" stroke-width="1" x1="741.0" x2="736.0" y1="722.0" y2="722.0"/>
      <line stroke="#009900" stroke-width="1" x1="741.0" x2="736.0" y1="726.0" y2="726.0"/>
      <line stroke="#009900" stroke-width="1" x1="741.0" x2="736.0" y1="730.0" y2="730.0"/>
      <line stroke="#009900" stroke-width="1" x1="741.0" x2="736.0" y1="734.0" y2="734.0"/>
      <line stroke="#009900" stroke-width="1" x1="741.0" x2="736.0" y1="738.0" y2="738.0"/>
      <line stroke="#009900" stroke-width="1" x1="741.0" x2="736.0" y1="742.0" y2="742.0"/>
      <line stroke="#009900" stroke-width="1" x1="741.0" x2="736.0" y1="746.0" y2="746.0"/>
      <line stroke="#009900" stroke-width="1" x1="741.0" x2="736.0" y1="750.0" y2="750.0"/>
      <line stroke="#009900" stroke-width="1" x1="741.0" x2="736.0" y1="754.0" y2="754.0"/>
      <line stroke="#009900" stroke-width="1" x1="741.0" x2="736.0" y1="758.0" y2="758.0"/>
      <line stroke="#009900" stroke-width="1" x1="741.0" x2="736.0" y1="762.0" y2="762.0"/>
      <line stroke="#ff0000" stroke-width="1" x1="741.0" x2="736.0" y1="631.0" y2="631.0"/>
      <line stroke="#ff0000" stroke-width="1" x1="741.0" x2="736.0" y1="627.0" y2="627.0"/>
      <line stroke="#ff0000" stroke-width="1" x1="741.0" x2="736.0" y1="623.0" y2="623.0"/>
      <line stroke="#ff0000" stroke-width="1" x1="741.0" x2="736.0" y1="619.0" y2="619.0"/>
      <line stroke="#ff0000" stroke-width="1" x1="741.0" x2="736.0" y1="615.0" y2="615.0"/>
      <line stroke="#ff0000" stroke-width="1" x1="741.0" x2="736.0" y1="611.0" y2="611.0"/>
      <line stroke="#ff0000" stroke-width="1" x1="741.0" x2="736.0" y1="607.0" y2="607.0"/>
      <line stroke="#ff0000" stroke-width="1" x1="741.0" x2="736.0" y1="603.0" y2="603.0"/>
      <line stroke="#ff0000" stroke-width="1" x1="741.0" x2="736.0" y1="599.0" y2="599.0"/>
      <line stroke="#ff0000" stroke-width="1" x1="741.0" x2="736.0" y1="595.0" y2="595.0"/>
      <line stroke="#ff0000" stroke-width="1" x1="741.0" x2="736.0" y1="591.0" y2="591.0"/>
      <line stroke="#ff0000" stroke-width="1" x1="741.0" x2="736.0" y1="587.0" y2="587.0"/>
      <line stroke="#ff0000" stroke-width="1" x1="741.0" x2="736.0" y1="583.0" y2="583.0"/>
      <line stroke="#ff0000" stroke-width="1" x1="741.0" x2="736.0" y1="579.0" y2="579.0"/>
      <line stroke="#ff0000" stroke-width="1" x1="741.0" x2="736.0" y1="575.0" y2="575.0"/>
      <line stroke="#ff0000" stroke-width="1" x1="741.0" x2="736.0" y1="571.0" y2="571.0"/>
      <line stroke="#ff0000" stroke-width="1" x1="741.0" x2="736.0" y1="567.0" y2="567.0"/>
      <line stroke="#ff0000" stroke-width="1" x1="741.0" x2="736.0" y1="563.0" y2="563.0"/>
      <line stroke="#ff0000" stroke-width="1" x1="741.0" x2="736.0" y1="559.0" y2="559.0"/>
      <line stroke="#ff0000" stroke-width="1" x1="741.0" x2="736.0" y1="555.0" y2="555.0"/>
      <line stroke="#ff0000" stroke-width="1" x1="741.0" x2="736.0" y1="551.0" y2="551.0"/>
      <line stroke="#ff0000" stroke-width="1" x1="741.0" x2="736.0" y1="547.0" y2="547.0"/>
      <line stroke="#ff0000" stroke-width="1" x1="741.0" x2="736.0" y1="543.0" y2="543.0"/>
      <line stroke="#ff0000" stroke-width="1" x1="741.0" x2="736.0" y1="539.0" y2="539.0"/>
      <polygon fill="#ffffff" points="755.0,637.0 763.0,637.0 763.0,668.0 755.0,668.0" stroke="#000000" stroke-width="1"/>
      <text fill="#000000" font-family="Arial" font-size="10.0" stroke="none" stroke-width="0" transform="rotate(90.0,766.0,640.0)" x="766.0" y="650.0">кассы</text>
      <polyline fill="none" marker-end="url(#id187)" points="772.0,587.0 786.0,587.0" stroke="#ff0000" stroke-width="1"/>
      <polyline fill="none" marker-end="url(#id187)" points="786.0,719.0 772.0,719.0" stroke="#009900" stroke-width="1"/>
      <polygon fill="#34349c" points="724.0,540.0 728.0,540.0 728.0,541.0 724.0,541.0" stroke="#34349c" stroke-width="1"/>
      <polygon fill="#ff0000" points="720.0,540.0 724.0,540.0 724.0,541.0 720.0,541.0" stroke="#ff0000" stroke-width="1"/>
      <polyline fill="none" points="225.0,794.0 202.0,794.0 202.0,801.0 104.0,801.0 104.0,869.0 154.0,869.0" stroke="#000000" stroke-width="1"/>
      <polyline fill="none" points="154.0,887.0 30.0,887.0" stroke="#000000" stroke-width="1"/>
      <polyline fill="none" points="30.0,869.0 80.0,869.0 80.0,801.0 74.0,801.0 74.0,502.0 80.0,502.0 80.0,302.0 30.0,302.0" stroke="#000000" stroke-width="1"/>
      <polyline fill="none" points="30.0,284.0 177.0,284.0" stroke="#000000" stroke-width="1"/>
      <polyline fill="none" points="177.0,302.0 104.0,302.0 104.0,438.0 176.0,438.0" stroke="#000000" stroke-width="1"/>
      <polyline fill="none" points="176.0,456.0 104.0,456.0 104.0,502.0 110.0,502.0" stroke="#000000" stroke-width="1"/>
      <polyline fill="none" points="135.0,502.0 203.0,502.0 203.0,507.0 225.0,507.0" stroke="#000000" stroke-width="1"/>
      <line stroke="#000000" stroke-width="1" x1="80.0" x2="104.0" y1="803.0" y2="803.0"/>
      <line stroke="#000000" stroke-width="1" x1="80.0" x2="104.0" y1="807.0" y2="807.0"/>
      <line stroke="#000000" stroke-width="1" x1="80.0" x2="104.0" y1="811.0" y2="811.0"/>
      <line stroke="#000000" stroke-width="1" x1="80.0" x2="104.0" y1="815.0" y2="815.0"/>
      <line stroke="#000000" stroke-width="1" x1="152.0" x2="152.0" y1="869.0" y2="887.0"/>
      <line stroke="#000000" stroke-width="1" x1="148.0" x2="148.0" y1="869.0" y2="887.0"/>
      <line stroke="#000000" stroke-width="1" x1="144.0" x2="144.0" y1="869.0" y2="887.0"/>
      <line stroke="#000000" stroke-width="1" x1="140.0" x2="140.0" y1="869.0" y2="887.0"/>
      <line stroke="#000000" stroke-width="1" x1="136.0" x2="136.0" y1="869.0" y2="887.0"/>
      <line stroke="#000000" stroke-width="1" x1="132.0" x2="132.0" y1="869.0" y2="887.0"/>
      <line stroke="#000000" stroke-width="1" x1="128.0" x2="128.0" y1="869.0" y2="887.0"/>
      <line stroke="#000000" stroke-width="1" x1="124.0" x2="124.0" y1="869.0" y2="887.0"/>
      <line stroke="#000000" stroke-width="1" x1="120.0" x2="120.0" y1="869.0" y2="887.0"/>
      <line stroke="#000000" stroke-width="1" x1="116.0" x2="116.0" y1="869.0" y2="887.0"/>
      <line stroke="#000000" stroke-width="1" x1="112.0" x2="112.0" y1="869.0" y2="887.0"/>
      <line stroke="#000000" stroke-width="1" x1="108.0" x2="108.0" y1="869.0" y2="887.0"/>
      <line stroke="#000000" stroke-width="1" x1="32.0" x2="32.0" y1="869.0" y2="887.0"/>
      <line stroke="#000000" stroke-width="1" x1="36.0" x2="36.0" y1="869.0" y2="887.0"/>
      <line stroke="#000000" stroke-width="1" x1="40.0" x2="40.0" y1="869.0" y2="887.0"/>
      <line stroke="#000000" stroke-width="1" x1="44.0" x2="44.0" y1="869.0" y2="887.0"/>
      <line stroke="#000000" stroke-width="1" x1="48.0" x2="48.0" y1="869.0" y2="887.0"/>
      <line stroke="#000000" stroke-width="1" x1="52.0" x2="52.0" y1="869.0" y2="887.0"/>
      <line stroke="#000000" stroke-width="1" x1="56.0" x2="56.0" y1="869.0" y2="887.0"/>
      <line stroke="#000000" stroke-width="1" x1="60.0" x2="60.0" y1="869.0" y2="887.0"/>
      <line stroke="#000000" stroke-width="1" x1="64.0" x2="64.0" y1="869.0" y2="887.0"/>
      <line stroke="#000000" stroke-width="1" x1="68.0" x2="68.0" y1="869.0" y2="887.0"/>
      <line stroke="#000000" stroke-width="1" x1="72.0" x2="72.0" y1="869.0" y2="887.0"/>
      <line stroke="#000000" stroke-width="1" x1="76.0" x2="76.0" y1="869.0" y2="887.0"/>
      <line stroke="#000000" stroke-width="1" x1="174.0" x2="174.0" y1="456.0" y2="438.0"/>
      <line stroke="#000000" stroke-width="1" x1="170.0" x2="170.0" y1="456.0" y2="438.0"/>
      <line stroke="#000000" stroke-width="1" x1="166.0" x2="166.0" y1="456.0" y2="438.0"/>
      <line stroke="#000000" stroke-width="1" x1="162.0" x2="162.0" y1="456.0" y2="438.0"/>
      <line stroke="#000000" stroke-width="1" x1="158.0" x2="158.0" y1="456.0" y2="438.0"/>
      <line stroke="#000000" stroke-width="1" x1="154.0" x2="154.0" y1="456.0" y2="438.0"/>
      <line stroke="#000000" stroke-width="1" x1="150.0" x2="150.0" y1="456.0" y2="438.0"/>
      <line stroke="#000000" stroke-width="1" x1="146.0" x2="146.0" y1="456.0" y2="438.0"/>
      <line stroke="#000000" stroke-width="1" x1="142.0" x2="142.0" y1="456.0" y2="438.0"/>
      <line stroke="#000000" stroke-width="1" x1="138.0" x2="138.0" y1="456.0" y2="438.0"/>
      <line stroke="#000000" stroke-width="1" x1="134.0" x2="134.0" y1="456.0" y2="438.0"/>
      <line stroke="#000000" stroke-width="1" x1="130.0" x2="130.0" y1="456.0" y2="438.0"/>
      <line stroke="#000000" stroke-width="1" x1="32.0" x2="32.0" y1="302.0" y2="284.0"/>
      <line stroke="#000000" stroke-width="1" x1="36.0" x2="36.0" y1="302.0" y2="284.0"/>
      <line stroke="#000000" stroke-width="1" x1="40.0" x2="40.0" y1="302.0" y2="284.0"/>
      <line stroke="#000000" stroke-width="1" x1="44.0" x2="44.0" y1="302.0" y2="284.0"/>
      <line stroke="#000000" stroke-width="1" x1="48.0" x2="48.0" y1="302.0" y2="284.0"/>
      <line stroke="#000000" stroke-width="1" x1="52.0" x2="52.0" y1="302.0" y2="284.0"/>
      <line stroke="#000000" stroke-width="1" x1="56.0" x2="56.0" y1="302.0" y2="284.0"/>
      <line stroke="#000000" stroke-width="1" x1="60.0" x2="60.0" y1="302.0" y2="284.0"/>
      <line stroke="#000000" stroke-width="1" x1="64.0" x2="64.0" y1="302.0" y2="284.0"/>
      <line stroke="#000000" stroke-width="1" x1="68.0" x2="68.0" y1="302.0" y2="284.0"/>
      <line stroke="#000000" stroke-width="1" x1="72.0" x2="72.0" y1="302.0" y2="284.0"/>
      <line stroke="#000000" stroke-width="1" x1="76.0" x2="76.0" y1="302.0" y2="284.0"/>
      <line stroke="#000000" stroke-width="1" x1="175.0" x2="175.0" y1="302.0" y2="284.0"/>
      <line stroke="#000000" stroke-width="1" x1="171.0" x2="171.0" y1="302.0" y2="284.0"/>
      <line stroke="#000000" stroke-width="1" x1="167.0" x2="167.0" y1="302.0" y2="284.0"/>
      <line stroke="#000000" stroke-width="1" x1="163.0" x2="163.0" y1="302.0" y2="284.0"/>
      <line stroke="#000000" stroke-width="1" x1="159.0" x2="159.0" y1="302.0" y2="284.0"/>
      <line stroke="#000000" stroke-width="1" x1="155.0" x2="155.0" y1="302.0" y2="284.0"/>
      <line stroke="#000000" stroke-width="1" x1="151.0" x2="151.0" y1="302.0" y2="284.0"/>
      <line stroke="#000000" stroke-width="1" x1="147.0" x2="147.0" y1="302.0" y2="284.0"/>
      <line stroke="#000000" stroke-width="1" x1="143.0" x2="143.0" y1="302.0" y2="284.0"/>
      <line stroke="#000000" stroke-width="1" x1="139.0" x2="139.0" y1="302.0" y2="284.0"/>
      <line stroke="#000000" stroke-width="1" x1="135.0" x2="135.0" y1="302.0" y2="284.0"/>
      <line stroke="#000000" stroke-width="1" x1="131.0" x2="131.0" y1="302.0" y2="284.0"/>
      <polygon fill="#d0d0d0" points="110.0,801.0 110.0,753.0 124.0,753.0 128.0,757.0 128.0,794.0 135.0,801.0" stroke="#000000" stroke-width="1"/>
      <polygon fill="#d0d0d0" points="110.0,502.0 110.0,553.0 124.0,553.0 128.0,549.0 128.0,509.0 135.0,502.0" stroke="#000000" stroke-width="1"/>
      <polygon fill="#d0d0d0" points="110.0,565.0 128.0,565.0 128.0,613.0 110.0,613.0" stroke="#000000" stroke-width="1"/>
      <polygon fill="#d0d0d0" points="110.0,625.0 128.0,625.0 128.0,683.0 110.0,683.0" stroke="#000000" stroke-width="1"/>
      <polygon fill="#d0d0d0" points="128.0,695.0 128.0,741.0 110.0,741.0 110.0,695.0" stroke="#000000" stroke-width="1"/>
      <polygon fill="#d0d0d0" points="682.0,669.0 712.0,669.0 712.0,731.0 540.0,731.0 540.0,723.0 682.0,723.0" stroke="#000000" stroke-width="1"/>
      <polygon fill="#d0d0d0" points="712.0,636.0 682.0,636.0 682.0,583.0 540.0,583.0 540.0,575.0 712.0,575.0" stroke="#000000" stroke-width="1"/>
      <polygon fill="#d0d0d0" points="490.0,723.0 490.0,731.0 202.0,731.0 202.0,664.0 232.0,664.0 232.0,723.0" stroke="#000000" stroke-width="1"/>
      <polygon fill="#d0d0d0" points="490.0,575.0 490.0,583.0 232.0,583.0 232.0,641.0 202.0,641.0 202.0,575.0" stroke="#000000" stroke-width="1"/>
      <polygon fill="#d0d0d0" points="490.0,527.0 490.0,536.0 203.0,536.0 203.0,527.0" stroke="#000000" stroke-width="1"/>
      <polygon fill="#d0d0d0" points="490.0,765.0 490.0,774.0 202.0,774.0 202.0,765.0" stroke="#000000" stroke-width="1"/>
      <polygon fill="#ffffff" points="165.0,600.0 165.0,607.0 158.0,607.0 158.0,600.0" stroke="#000000" stroke-width="1"/>
      <line stroke="#009900" stroke-width="1" x1="164.0" x2="159.0" y1="611.0" y2="611.0"/>
      <line stroke="#009900" stroke-width="1" x1="164.0" x2="159.0" y1="615.0" y2="615.0"/>
      <line stroke="#009900" stroke-width="1" x1="164.0" x2="159.0" y1="619.0" y2="619.0"/>
      <line stroke="#009900" stroke-width="1" x1="164.0" x2="159.0" y1="623.0" y2="623.0"/>
      <line stroke="#009900" stroke-width="1" x1="164.0" x2="159.0" y1="627.0" y2="627.0"/>
      <line stroke="#009900" stroke-width="1" x1="164.0" x2="159.0" y1="631.0" y2="631.0"/>
      <line stroke="#009900" stroke-width="1" x1="164.0" x2="159.0" y1="635.0" y2="635.0"/>
      <line stroke="#009900" stroke-width="1" x1="164.0" x2="159.0" y1="639.0" y2="639.0"/>
      <line stroke="#009900" stroke-width="1" x1="164.0" x2="159.0" y1="643.0" y2="643.0"/>
      <line stroke="#009900" stroke-width="1" x1="164.0" x2="159.0" y1="647.0" y2="647.0"/>
      <line stroke="#009900" stroke-width="1" x1="164.0" x2="159.0" y1="651.0" y2="651.0"/>
      <line stroke="#009900" stroke-width="1" x1="164.0" x2="159.0" y1="655.0" y2="655.0"/>
      <line stroke="#009900" stroke-width="1" x1="164.0" x2="159.0" y1="659.0" y2="659.0"/>
      <line stroke="#009900" stroke-width="1" x1="164.0" x2="159.0" y1="663.0" y2="663.0"/>
      <line stroke="#009900" stroke-width="1" x1="164.0" x2="159.0" y1="667.0" y2="667.0"/>
      <line stroke="#009900" stroke-width="1" x1="164.0" x2="159.0" y1="671.0" y2="671.0"/>
      <line stroke="#009900" stroke-width="1" x1="164.0" x2="159.0" y1="675.0" y2="675.0"/>
      <line stroke="#009900" stroke-width="1" x1="164.0" x2="159.0" y1="679.0" y2="679.0"/>
      <line stroke="#009900" stroke-width="1" x1="164.0" x2="159.0" y1="683.0" y2="683.0"/>
      <line stroke="#009900" stroke-width="1" x1="164.0" x2="159.0" y1="687.0" y2="687.0"/>
      <line stroke="#009900" stroke-width="1" x1="164.0" x2="159.0" y1="691.0" y2="691.0"/>
      <line stroke="#009900" stroke-width="1" x1="164.0" x2="159.0" y1="695.0" y2="695.0"/>
      <line stroke="#009900" stroke-width="1" x1="164.0" x2="159.0" y1="699.0" y2="699.0"/>
      <line stroke="#009900" stroke-width="1" x1="164.0" x2="159.0" y1="703.0" y2="703.0"/>
      <line stroke="#009900" stroke-width="1" x1="164.0" x2="159.0" y1="707.0" y2="707.0"/>
      <line stroke="#009900" stroke-width="1" x1="164.0" x2="159.0" y1="711.0" y2="711.0"/>
      <line stroke="#ff0000" stroke-width="1" x1="164.0" x2="159.0" y1="596.0" y2="596.0"/>
      <line stroke="#ff0000" stroke-width="1" x1="164.0" x2="159.0" y1="592.0" y2="592.0"/>
      <line stroke="#ff0000" stroke-width="1" x1="164.0" x2="159.0" y1="588.0" y2="588.0"/>
      <line stroke="#ff0000" stroke-width="1" x1="164.0" x2="159.0" y1="584.0" y2="584.0"/>
      <line stroke="#ff0000" stroke-width="1" x1="164.0" x2="159.0" y1="580.0" y2="580.0"/>
      <line stroke="#ff0000" stroke-width="1" x1="164.0" x2="159.0" y1="576.0" y2="576.0"/>
      <line stroke="#ff0000" stroke-width="1" x1="164.0" x2="159.0" y1="572.0" y2="572.0"/>
      <line stroke="#ff0000" stroke-width="1" x1="164.0" x2="159.0" y1="568.0" y2="568.0"/>
      <line stroke="#ff0000" stroke-width="1" x1="164.0" x2="159.0" y1="564.0" y2="564.0"/>
      <line stroke="#ff0000" stroke-width="1" x1="164.0" x2="159.0" y1="560.0" y2="560.0"/>
      <line stroke="#ff0000" stroke-width="1" x1="164.0" x2="159.0" y1="556.0" y2="556.0"/>
      <line stroke="#ff0000" stroke-width="1" x1="164.0" x2="159.0" y1="552.0" y2="552.0"/>
      <line stroke="#ff0000" stroke-width="1" x1="164.0" x2="159.0" y1="548.0" y2="548.0"/>
      <line stroke="#ff0000" stroke-width="1" x1="164.0" x2="159.0" y1="544.0" y2="544.0"/>
      <line stroke="#ff0000" stroke-width="1" x1="164.0" x2="159.0" y1="540.0" y2="540.0"/>
      <line stroke="#ff0000" stroke-width="1" x1="164.0" x2="159.0" y1="536.0" y2="536.0"/>
      <line stroke="#ff0000" stroke-width="1" x1="164.0" x2="159.0" y1="532.0" y2="532.0"/>
      <line stroke="#ff0000" stroke-width="1" x1="164.0" x2="159.0" y1="528.0" y2="528.0"/>
      <line stroke="#ff0000" stroke-width="1" x1="164.0" x2="159.0" y1="524.0" y2="524.0"/>
      <line stroke="#ff0000" stroke-width="1" x1="164.0" x2="159.0" y1="520.0" y2="520.0"/>
      <line stroke="#ff0000" stroke-width="1" x1="164.0" x2="159.0" y1="516.0" y2="516.0"/>
      <line stroke="#ff0000" stroke-width="1" x1="164.0" x2="159.0" y1="512.0" y2="512.0"/>
      <line stroke="#ff0000" stroke-width="1" x1="164.0" x2="159.0" y1="508.0" y2="508.0"/>
      <line stroke="#ff0000" stroke-width="1" x1="164.0" x2="159.0" y1="504.0" y2="504.0"/>
      <line stroke="#ff0000" stroke-width="1" x1="164.0" x2="159.0" y1="715.0" y2="715.0"/>
      <line stroke="#ff0000" stroke-width="1" x1="164.0" x2="159.0" y1="719.0" y2="719.0"/>
      <line stroke="#ff0000" stroke-width="1" x1="164.0" x2="159.0" y1="723.0" y2="723.0"/>
      <line stroke="#ff0000" stroke-width="1" x1="164.0" x2="159.0" y1="727.0" y2="727.0"/>
      <line stroke="#ff0000" stroke-width="1" x1="164.0" x2="159.0" y1="731.0" y2="731.0"/>
      <line stroke="#ff0000" stroke-width="1" x1="164.0" x2="159.0" y1="735.0" y2="735.0"/>
      <line stroke="#ff0000" stroke-width="1" x1="164.0" x2="159.0" y1="739.0" y2="739.0"/>
      <line stroke="#ff0000" stroke-width="1" x1="164.0" x2="159.0" y1="743.0" y2="743.0"/>
      <line stroke="#ff0000" stroke-width="1" x1="164.0" x2="159.0" y1="747.0" y2="747.0"/>
      <line stroke="#ff0000" stroke-width="1" x1="164.0" x2="159.0" y1="751.0" y2="751.0"/>
      <line stroke="#ff0000" stroke-width="1" x1="164.0" x2="159.0" y1="755.0" y2="755.0"/>
      <line stroke="#ff0000" stroke-width="1" x1="164.0" x2="159.0" y1="759.0" y2="759.0"/>
      <line stroke="#ff0000" stroke-width="1" x1="164.0" x2="159.0" y1="763.0" y2="763.0"/>
      <line stroke="#ff0000" stroke-width="1" x1="164.0" x2="159.0" y1="767.0" y2="767.0"/>
      <line stroke="#ff0000" stroke-width="1" x1="164.0" x2="159.0" y1="771.0" y2="771.0"/>
      <line stroke="#ff0000" stroke-width="1" x1="164.0" x2="159.0" y1="775.0" y2="775.0"/>
      <line stroke="#ff0000" stroke-width="1" x1="164.0" x2="159.0" y1="779.0" y2="779.0"/>
      <line stroke="#ff0000" stroke-width="1" x1="164.0" x2="159.0" y1="783.0" y2="783.0"/>
      <line stroke="#ff0000" stroke-width="1" x1="164.0" x2="159.0" y1="787.0" y2="787.0"/>
      <line stroke="#ff0000" stroke-width="1" x1="164.0" x2="159.0" y1="791.0" y2="791.0"/>
      <line stroke="#ff0000" stroke-width="1" x1="164.0" x2="159.0" y1="795.0" y2="795.0"/>
      <line stroke="#ff0000" stroke-width="1" x1="164.0" x2="159.0" y1="799.0" y2="799.0"/>
      <polygon fill="#ffffff" points="128.0,638.0 120.0,638.0 120.0,669.0 128.0,669.0" stroke="#000000" stroke-width="1"/>
      <text fill="#000000" font-family="Arial" font-size="10.0" stroke="none" stroke-width="0" transform="rotate(90.0,131.0,641.0)" x="131.0" y="651.0">кассы</text>
      <polyline fill="none" marker-end="url(#id187)" points="112.0,747.0 92.0,747.0" stroke="#ff0000" stroke-width="1"/>
      <polyline fill="none" marker-end="url(#id187)" points="112.0,559.0 92.0,559.0" stroke="#ff0000" stroke-width="1"/>
      <polyline fill="none" marker-end="url(#id187)" points="92.0,689.0 112.0,689.0" stroke="#009900" stroke-width="1"/>
      <polyline fill="none" marker-end="url(#id187)" points="92.0,619.0 112.0,619.0" stroke="#009900" stroke-width="1"/>
      <polygon fill="#34349c" points="195.0,729.0 191.0,729.0 191.0,730.0 195.0,730.0" stroke="#34349c" stroke-width="1"/>
      <polygon fill="#ff0000" points="199.0,729.0 195.0,729.0 195.0,730.0 199.0,730.0" stroke="#ff0000" stroke-width="1"/>
      <polygon fill="#8cbcfc" points="490.0,794.0 490.0,824.0 225.0,824.0 225.0,794.0" stroke="#000000" stroke-width="1"/>
      <polygon fill="#8cbcfc" points="490.0,477.0 490.0,507.0 225.0,507.0 225.0,477.0" stroke="#000000" stroke-width="1"/>
      <text fill="#2d69fc" font-family="Arial" font-size="25.0" stroke="none" stroke-width="0" x="224.0" y="421.0">Улица Старокачаловская</text>
      <text fill="#2d69fc" font-family="Arial" font-size="20.0" stroke="none" stroke-width="0" x="227.0" y="474.0">&lt;&lt; Улица Скобелевская</text>
      <text fill="#2d69fc" font-family="Arial" font-size="20.0" stroke="none" stroke-width="0" x="342.0" y="844.0">Лесопарковая &gt;&gt;</text>
    </g>
    <g fill="none" fill-opacity="0.8" stroke="#2d69fc" stroke-opacity="0.8" transform="rotate(-60.0,460.0,550.0)">
      <polygon fill="#ffffff" points="540.0,582.0 540.0,614.0 490.0,614.0 490.0,582.0" stroke="#ffffff" stroke-width="1"/>
      <polygon fill="#ffffff" points="540.0,692.0 540.0,724.0 490.0,724.0 490.0,692.0" stroke="#ffffff" stroke-width="1"/>
    </g>
    <g fill="#ffffff" fill-opacity="1.0" stroke="#ffffff" stroke-opacity="1.0" transform="rotate(-60.0,460.0,550.0)">
      <polyline fill="none" points="490.0,794.0 490.0,790.0 460.0,790.0" stroke="#000000" stroke-width="1"/>
      <polyline fill="none" points="490.0,507.0 490.0,511.0 460.0,511.0" stroke="#000000" stroke-width="1"/>
      <polyline fill="none" points="203.0,507.0 203.0,511.0 233.0,511.0" stroke="#000000" stroke-width="1"/>
      <polyline fill="none" points="202.0,794.0 202.0,790.0 232.0,790.0" stroke="#000000" stroke-width="1"/>
      <polyline fill="none" points="490.0,477.0 577.0,477.0 577.0,527.0 540.0,527.0 540.0,536.0" stroke="#000000" stroke-width="1"/>
      <polyline fill="none" points="540.0,765.0 540.0,774.0 577.0,774.0 577.0,824.0 490.0,824.0" stroke="#000000" stroke-width="1"/>
      <polyline fill="none" points="682.0,693.0 682.0,669.0 712.0,669.0 712.0,731.0 540.0,731.0 540.0,662.0 570.0,662.0" stroke="#000000" stroke-width="1"/>
      <polyline fill="none" points="682.0,613.0 682.0,636.0 712.0,636.0 712.0,575.0 540.0,575.0 540.0,643.0 570.0,643.0" stroke="#000000" stroke-width="1"/>
      <polyline fill="none" points="490.0,765.0 490.0,774.0 202.0,774.0 202.0,765.0 490.0,765.0" stroke="#000000" stroke-width="1"/>
      <polyline fill="none" points="490.0,527.0 490.0,536.0 203.0,536.0 203.0,527.0 490.0,527.0" stroke="#000000" stroke-width="1"/>
      <polyline fill="none" points="232.0,613.0 232.0,641.0 202.0,641.0 202.0,575.0 490.0,575.0 490.0,643.0 461.0,643.0" stroke="#000000" stroke-width="1"/>
      <polyline fill="none" points="461.0,662.0 490.0,662.0 490.0,731.0 202.0,731.0 202.0,664.0 232.0,664.0 232.0,693.0" stroke="#000000" stroke-width="1"/>
      <line stroke="#000000" stroke-width="1" x1="710.0" x2="710.0" y1="669.0" y2="636.0"/>
      <line stroke="#000000" stroke-width="1" x1="706.0" x2="706.0" y1="669.0" y2="636.0"/>
      <line stroke="#000000" stroke-width="1" x1="702.0" x2="702.0" y1="669.0" y2="636.0"/>
      <line stroke="#000000" stroke-width="1" x1="698.0" x2="698.0" y1="669.0" y2="636.0"/>
      <line stroke="#000000" stroke-width="1" x1="694.0" x2="694.0" y1="669.0" y2="636.0"/>
      <line stroke="#000000" stroke-width="1" x1="690.0" x2="690.0" y1="669.0" y2="636.0"/>
      <line stroke="#000000" stroke-width="1" x1="686.0" x2="686.0" y1="669.0" y2="636.0"/>
      <line stroke="#000000" stroke-width="1" x1="568.0" x2="568.0" y1="662.0" y2="643.0"/>
      <line stroke="#000000" stroke-width="1" x1="564.0" x2="564.0" y1="662.0" y2="643.0"/>
      <line stroke="#000000" stroke-width="1" x1="560.0" x2="560.0" y1="662.0" y2="643.0"/>
      <line stroke="#000000" stroke-width="1" x1="556.0" x2="556.0" y1="662.0" y2="643.0"/>
      <line stroke="#000000" stroke-width="1" x1="552.0" x2="552.0" y1="662.0" y2="643.0"/>
      <line stroke="#000000" stroke-width="1" x1="548.0" x2="548.0" y1="662.0" y2="643.0"/>
      <line stroke="#000000" stroke-width="1" x1="544.0" x2="544.0" y1="662.0" y2="643.0"/>
      <line stroke="#000000" stroke-width="1" x1="462.0" x2="462.0" y1="511.0" y2="527.0"/>
      <line stroke="#000000" stroke-width="1" x1="466.0" x2="466.0" y1="511.0" y2="527.0"/>
      <line stroke="#000000" stroke-width="1" x1="470.0" x2="470.0" y1="511.0" y2="527.0"/>
      <line stroke="#000000" stroke-width="1" x1="474.0" x2="474.0" y1="511.0" y2="527.0"/>
      <line stroke="#000000" stroke-width="1" x1="478.0" x2="478.0" y1="511.0" y2="527.0"/>
      <line stroke="#000000" stroke-width="1" x1="482.0" x2="482.0" y1="511.0" y2="527.0"/>
      <line stroke="#000000" stroke-width="1" x1="486.0" x2="486.0" y1="511.0" y2="527.0"/>
      <line stroke="#000000" stroke-width="1" x1="463.0" x2="463.0" y1="643.0" y2="662.0"/>
      <line stroke="#000000" stroke-width="1" x1="467.0" x2="467.0" y1="643.0" y2="662.0"/>
      <line stroke="#000000" stroke-width="1" x1="471.0" x2="471.0" y1="643.0" y2="662.0"/>
      <line stroke="#000000" stroke-width="1" x1="475.0" x2="475.0" y1="643.0" y2="662.0"/>
      <line stroke="#000000" stroke-width="1" x1="479.0" x2="479.0" y1="643.0" y2="662.0"/>
      <line stroke="#000000" stroke-width="1" x1="483.0" x2="483.0" y1="643.0" y2="662.0"/>
      <line stroke="#000000" stroke-width="1" x1="487.0" x2="487.0" y1="643.0" y2="662.0"/>
      <line stroke="#000000" stroke-width="1" x1="462.0" x2="462.0" y1="790.0" y2="774.0"/>
      <line stroke="#000000" stroke-width="1" x1="466.0" x2="466.0" y1="790.0" y2="774.0"/>
      <line stroke="#000000" stroke-width="1" x1="470.0" x2="470.0" y1="790.0" y2="774.0"/>
      <line stroke="#000000" stroke-width="1" x1="474.0" x2="474.0" y1="790.0" y2="774.0"/>
      <line stroke="#000000" stroke-width="1" x1="478.0" x2="478.0" y1="790.0" y2="774.0"/>
      <line stroke="#000000" stroke-width="1" x1="482.0" x2="482.0" y1="790.0" y2="774.0"/>
      <line stroke="#000000" stroke-width="1" x1="486.0" x2="486.0" y1="790.0" y2="774.0"/>
      <line stroke="#000000" stroke-width="1" x1="230.0" x2="230.0" y1="790.0" y2="774.0"/>
      <line stroke="#000000" stroke-width="1" x1="226.0" x2="226.0" y1="790.0" y2="774.0"/>
      <line stroke="#000000" stroke-width="1" x1="222.0" x2="222.0" y1="790.0" y2="774.0"/>
      <line stroke="#000000" stroke-width="1" x1="218.0" x2="218.0" y1="790.0" y2="774.0"/>
      <line stroke="#000000" stroke-width="1" x1="214.0" x2="214.0" y1="790.0" y2="774.0"/>
      <line stroke="#000000" stroke-width="1" x1="210.0" x2="210.0" y1="790.0" y2="774.0"/>
      <line stroke="#000000" stroke-width="1" x1="206.0" x2="206.0" y1="790.0" y2="774.0"/>
      <line stroke="#000000" stroke-width="1" x1="231.0" x2="231.0" y1="511.0" y2="527.0"/>
      <line stroke="#000000" stroke-width="1" x1="227.0" x2="227.0" y1="511.0" y2="527.0"/>
      <line stroke="#000000" stroke-width="1" x1="223.0" x2="223.0" y1="511.0" y2="527.0"/>
      <line stroke="#000000" stroke-width="1" x1="219.0" x2="219.0" y1="511.0" y2="527.0"/>
      <line stroke="#000000" stroke-width="1" x1="215.0" x2="215.0" y1="511.0" y2="527.0"/>
      <line stroke="#000000" stroke-width="1" x1="211.0" x2="211.0" y1="511.0" y2="527.0"/>
      <line stroke="#000000" stroke-width="1" x1="207.0" x2="207.0" y1="511.0" y2="527.0"/>
      <line stroke="#000000" stroke-width="1" x1="230.0" x2="230.0" y1="664.0" y2="641.0"/>
      <line stroke="#000000" stroke-width="1" x1="226.0" x2="226.0" y1="664.0" y2="641.0"/>
      <line stroke="#000000" stroke-width="1" x1="222.0" x2="222.0" y1="664.0" y2="641.0"/>
      <line stroke="#000000" stroke-width="1" x1="218.0" x2="218.0" y1="664.0" y2="641.0"/>
      <line stroke="#000000" stroke-width="1" x1="214.0" x2="214.0" y1="664.0" y2="641.0"/>
      <line stroke="#000000" stroke-width="1" x1="210.0" x2="210.0" y1="664.0" y2="641.0"/>
      <line stroke="#000000" stroke-width="1" x1="206.0" x2="206.0" y1="664.0" y2="641.0"/>
      <polygon fill="#d0d0d0" points="509.0,636.0 509.0,670.0 522.0,670.0 522.0,636.0" stroke="#000000" stroke-width="1"/>
      <polygon fill="#d0d0d0" points="550.0,824.0 550.0,814.0 546.0,814.0 546.0,810.0 540.0,804.0 520.0,824.0" stroke="#000000" stroke-width="1"/>
      <polygon fill="#d0d0d0" points="551.0,477.0 551.0,485.0 547.0,485.0 547.0,489.0 541.0,495.0 523.0,477.0" stroke="#000000" stroke-width="1"/>
      <polyline fill="none" marker-end="url(#id187)" points="503.0,766.0 503.0,788.0" stroke="#000000" stroke-width="1"/>
      <polyline fill="none" marker-end="url(#id187)" points="527.0,787.0 527.0,766.0" stroke="#000000" stroke-width="1"/>
      <polyline fill="none" marker-end="url(#id187)" points="528.0,560.0 528.0,580.0" stroke="#000000" stroke-width="1"/>
      <polyline fill="none" marker-end="url(#id187)" points="503.0,580.0 503.0,560.0" stroke="#000000" stroke-width="1"/>
      <polygon fill="#34349c" points="410.0,523.0 406.0,523.0 406.0,524.0 410.0,524.0" stroke="#34349c" stroke-width="1"/>
      <polygon fill="#ff0000" points="414.0,523.0 410.0,523.0 410.0,524.0 414.0,524.0" stroke="#ff0000" stroke-width="1"/>
      <polygon fill="#34349c" points="404.0,777.0 408.0,777.0 408.0,778.0 404.0,778.0" stroke="#34349c" stroke-width="1"/>
      <polygon fill="#ff0000" points="400.0,777.0 404.0,777.0 404.0,778.0 400.0,778.0" stroke="#ff0000" stroke-width="1"/>
      <text fill="#00afaf" font-family="Arial" font-size="15.0" stroke="none" stroke-width="0" transform="rotate(90.0,918.0,234.0)" x="918.0" y="249.0">ул. Знаменские Садки</text>
      <text fill="#00afaf" font-family="Arial" font-size="15.0" stroke="none" stroke-width="0" transform="rotate(90.0,917.0,671.0)" x="917.0" y="686.0">ул. Старокачаловская</text>
      <text fill="#00afaf" font-family="Arial" font-size="15.0" stroke="none" stroke-width="0" transform="rotate(90.0,-146.0,500.0)" x="-146.0" y="515.0">ул. Грина</text>
      <text fill="#00afaf" font-family="Arial" font-size="15.0" stroke="none" stroke-width="0" x="591.0" y="375.0">Бульвар Дмитрия Донского</text>
      <text fill="#00afaf" font-family="Arial" font-size="15.0" stroke="none" stroke-width="0" x="-107.0" y="379.0">Бульвар Дмитрия Донского</text>
      <polyline fill="none" points="634.0,589.0 607.0,589.0" stroke="#ffffff" stroke-width="1"/>
      <path d="M607.0,589.0 C607.0,589.0 608.1666666666666,588.3333333333334 607.0,589.0 C605.8333333333334,589.6666666666666 601.1666666666666,590.8333333333334 600.0,593.0 C598.8333333333334,595.1666666666666 598.8333333333334,599.8333333333334 600.0,602.0 C601.1666666666666,604.1666666666666 607.0,606.0 607.0,606.0 " fill="none" stroke="#ffffff" stroke-width="1"/>
      <polyline fill="none" marker-end="url(#id187)" points="607.0,606.0 634.0,606.0" stroke="#ffffff" stroke-width="1"/>
      <polyline fill="none" points="635.0,700.0 608.0,700.0" stroke="#ffffff" stroke-width="1"/>
      <path d="M608.0,700.0 C608.0,700.0 609.1666666666666,699.3333333333334 608.0,700.0 C606.8333333333334,700.6666666666666 602.1666666666666,701.8333333333334 601.0,704.0 C599.8333333333334,706.1666666666666 599.8333333333334,710.8333333333334 601.0,713.0 C602.1666666666666,715.1666666666666 608.0,717.0 608.0,717.0 " fill="none" stroke="#ffffff" stroke-width="1"/>
      <polyline fill="none" marker-end="url(#id187)" points="608.0,717.0 635.0,717.0" stroke="#ffffff" stroke-width="1"/>
    </g>
    <g>
      <rect fill="#615f56" height="30.0" stroke="none" stroke-width="0" width="30.0" x="603.0" y="995.0"/>
      <rect fill="#615f56" height="30.0" stroke="none" stroke-width="0" width="30.0" x="559.0" y="1068.0"/>
      <rect fill="#615f56" height="30.0" stroke="none" stroke-width="0" width="30.0" x="173.0" y="726.0"/>
      <rect fill="#615f56" height="30.0" stroke="none" stroke-width="0" width="30.0" x="37.0" y="655.0"/>
      <rect fill="#615f56" height="30.0" stroke="none" stroke-width="0" width="30.0" x="50.0" y="776.0"/>
      <rect fill="#615f56" height="30.0" stroke="none" stroke-width="0" width="30.0" x="535.0" y="240.0"/>
      <rect fill="#615f56" height="30.0" stroke="none" stroke-width="0" width="30.0" x="329.0" y="146.0"/>
      <rect fill="#615f56" height="30.0" stroke="none" stroke-width="0" width="30.0" x="384.0" y="56.0"/>
      <rect fill="#615f56" height="30.0" stroke="none" stroke-width="0" width="30.0" x="901.0" y="353.0"/>
      <rect fill="#615f56" height="30.0" stroke="none" stroke-width="0" width="30.0" x="861.0" y="430.0"/>
      <text fill="#ffd900" font-family="Arial" font-size="25.0" stroke="none" stroke-width="0" x="611.0" y="1021.0">1</text>
      <text fill="#ffd900" font-family="Arial" font-size="25.0" stroke="none" stroke-width="0" x="567.0" y="1094.0">2</text>
      <text fill="#ffd900" font-family="Arial" font-size="25.0" stroke="none" stroke-width="0" x="181.0" y="752.0">3</text>
      <text fill="#ffd900" font-family="Arial" font-size="25.0" stroke="none" stroke-width="0" x="45.0" y="681.0">4</text>
      <text fill="#ffd900" font-family="Arial" font-size="25.0" stroke="none" stroke-width="0" x="58.0" y="802.0">5</text>
      <text fill="#ffd900" font-family="Arial" font-size="25.0" stroke="none" stroke-width="0" x="543.0" y="266.0">6</text>
      <text fill="#ffd900" font-family="Arial" font-size="25.0" stroke="none" stroke-width="0" x="337.0" y="172.0">7</text>
      <text fill="#ffd900" font-family="Arial" font-size="25.0" stroke="none" stroke-width="0" x="392.0" y="82.0">8</text>
      <text fill="#ffd900" font-family="Arial" font-size="25.0" stroke="none" stroke-width="0" x="909.0" y="379.0">9</text>
      <text fill="#ffd900" font-family="Arial" font-size="25.0" stroke="none" stroke-width="0" x="863.0" y="456.0">10</text>
    </g>
  </g>
</svg>
