<?xml version="1.0" encoding="utf-8" ?>
<svg baseProfile="full" height="670.0" version="1.1" width="1010.0" xmlns="http://www.w3.org/2000/svg" xmlns:ev="http://www.w3.org/2001/xml-events" xmlns:xlink="http://www.w3.org/1999/xlink">
  <defs>
    <marker id="id189" markerHeight="3" markerUnits="strokeWidth" markerWidth="4" orient="auto" refX="0" refY="5" viewBox="0,0,10,10">
      <path d="M 0 0 L 10 5 L 0 10 z"/>
    </marker>
  </defs>
  <g>
    <rect fill="none" height="670.0" stroke="none" stroke-width="0" width="1010.0" x="0.0" y="0.0"/>
    <g transform="rotate(-30.0,505.0,335.0)">
      <polygon fill="#8cbcfc" points="244.0,254.0 244.0,224.0 695.0,224.0 695.0,254.0" stroke="#000000" stroke-width="1"/>
      <polygon fill="#8cbcfc" points="244.0,364.0 244.0,334.0 695.0,334.0 695.0,364.0" stroke="#000000" stroke-width="1"/>
      <text fill="#2d69fc" font-family="Arial" font-size="25.0" stroke="none" stroke-width="0" x="309.0" y="299.0">Бульвар адмирала Ушакова</text>
      <text fill="#2d69fc" font-family="Arial" font-size="20.0" stroke="none" stroke-width="0" x="493.0" y="384.0">Улица Скобелевская &gt;&gt;</text>
      <text fill="#2d69fc" font-family="Arial" font-size="20.0" stroke="none" stroke-width="0" x="245.0" y="218.0">&lt;&lt; Улица Горчакова</text>
      <text fill="#000000" font-family="Arial" font-size="15.0" stroke="none" stroke-width="0" x="19.0" y="387.0">кассы</text>
      <polyline fill="none" points="695.0,254.0 695.0,334.0" stroke="#000000" stroke-width="1"/>
      <polyline fill="none" points="244.0,254.0 244.0,261.0 171.0,261.0 171.0,239.0 145.0,239.0 145.0,219.0 105.0,219.0" stroke="#000000" stroke-width="1"/>
      <path d="M105.0,219.0 C105.0,219.0 106.16666666666667,219.5 105.0,219.0 C103.83333333333333,218.5 99.66666666666667,217.66666666666666 98.0,216.0 C96.33333333333333,214.33333333333334 95.0,209.0 95.0,209.0 " fill="none" stroke="#000000" stroke-width="1"/>
      <polyline fill="none" points="95.0,209.0 15.0,209.0 15.0,220.0" stroke="#000000" stroke-width="1"/>
      <polyline fill="none" points="244.0,334.0 244.0,326.0 171.0,326.0 171.0,345.0 89.0,345.0" stroke="#000000" stroke-width="1"/>
      <path d="M89.0,345.0 C89.0,345.0 92.16666666666667,343.6666666666667 89.0,345.0 C85.83333333333333,346.3333333333333 74.5,348.5 70.0,353.0 C65.5,357.5 62.0,372.0 62.0,372.0 " fill="none" stroke="#000000" stroke-width="1"/>
      <polyline fill="none" points="62.0,372.0 15.0,372.0 15.0,320.0" stroke="#000000" stroke-width="1"/>
      <polyline fill="none" points="57.0,372.0 57.0,388.0 17.0,388.0 17.0,372.0" stroke="#000000" stroke-width="1"/>
      <polygon fill="#d0d0d0" points="15.0,257.0 93.0,257.0 99.0,258.0 103.0,261.0 106.0,265.0 107.0,270.0 106.0,275.0 103.0,279.0 99.0,282.0 93.0,283.0 15.0,283.0" stroke="#d0d0d0" stroke-width="1"/>
      <polyline fill="none" points="93.0,283.0 15.0,283.0 15.0,257.0 93.0,257.0" stroke="#000000" stroke-width="1"/>
      <path d="M93.0,257.0 C93.0,257.0 92.0,256.8333333333333 93.0,257.0 C94.0,257.1666666666667 97.33333333333333,257.3333333333333 99.0,258.0 C100.66666666666667,258.6666666666667 101.83333333333333,259.8333333333333 103.0,261.0 C104.16666666666667,262.1666666666667 105.33333333333333,263.5 106.0,265.0 C106.66666666666667,266.5 107.0,268.3333333333333 107.0,270.0 C107.0,271.6666666666667 106.66666666666667,273.5 106.0,275.0 C105.33333333333333,276.5 104.16666666666667,277.8333333333333 103.0,279.0 C101.83333333333333,280.1666666666667 100.66666666666667,281.3333333333333 99.0,282.0 C97.33333333333333,282.6666666666667 93.0,283.0 93.0,283.0 " fill="none" stroke="#000000" stroke-width="1"/>
      <line stroke="#7f7f7f" stroke-width="1" x1="172.0" x2="172.0" y1="265.0" y2="322.0"/>
      <line stroke="#7f7f7f" stroke-width="1" x1="176.0" x2="176.0" y1="265.0" y2="322.0"/>
      <line stroke="#7f7f7f" stroke-width="1" x1="180.0" x2="180.0" y1="265.0" y2="322.0"/>
      <line stroke="#7f7f7f" stroke-width="1" x1="184.0" x2="184.0" y1="265.0" y2="322.0"/>
      <line stroke="#7f7f7f" stroke-width="1" x1="188.0" x2="188.0" y1="265.0" y2="322.0"/>
      <line stroke="#7f7f7f" stroke-width="1" x1="192.0" x2="192.0" y1="265.0" y2="322.0"/>
      <line stroke="#7f7f7f" stroke-width="1" x1="196.0" x2="196.0" y1="265.0" y2="322.0"/>
      <line stroke="#7f7f7f" stroke-width="1" x1="200.0" x2="200.0" y1="265.0" y2="322.0"/>
      <line stroke="#7f7f7f" stroke-width="1" x1="204.0" x2="204.0" y1="265.0" y2="322.0"/>
      <line stroke="#7f7f7f" stroke-width="1" x1="208.0" x2="208.0" y1="265.0" y2="322.0"/>
      <line stroke="#7f7f7f" stroke-width="1" x1="212.0" x2="212.0" y1="265.0" y2="322.0"/>
      <line stroke="#7f7f7f" stroke-width="1" x1="216.0" x2="216.0" y1="265.0" y2="322.0"/>
      <line stroke="#7f7f7f" stroke-width="1" x1="220.0" x2="220.0" y1="265.0" y2="322.0"/>
      <line stroke="#7f7f7f" stroke-width="1" x1="224.0" x2="224.0" y1="265.0" y2="322.0"/>
      <line stroke="#7f7f7f" stroke-width="1" x1="228.0" x2="228.0" y1="265.0" y2="322.0"/>
      <line stroke="#7f7f7f" stroke-width="1" x1="232.0" x2="232.0" y1="265.0" y2="322.0"/>
      <line stroke="#7f7f7f" stroke-width="1" x1="236.0" x2="236.0" y1="265.0" y2="322.0"/>
      <polygon fill="#9b5509" points="241.0,279.0 168.0,279.0 168.0,286.0 241.0,286.0" stroke="#000000" stroke-width="1"/>
      <polygon fill="#9b5509" points="241.0,301.0 168.0,301.0 168.0,308.0 241.0,308.0" stroke="#000000" stroke-width="1"/>
      <polygon fill="#9b5509" points="241.0,261.0 168.0,261.0 168.0,265.0 241.0,265.0" stroke="#000000" stroke-width="1"/>
      <polygon fill="#9b5509" points="241.0,322.0 168.0,322.0 168.0,326.0 241.0,326.0" stroke="#000000" stroke-width="1"/>
      <line stroke="#009900" stroke-width="1" x1="89.0" x2="94.0" y1="340.0" y2="340.0"/>
      <line stroke="#009900" stroke-width="1" x1="89.0" x2="94.0" y1="336.0" y2="336.0"/>
      <line stroke="#009900" stroke-width="1" x1="89.0" x2="94.0" y1="332.0" y2="332.0"/>
      <line stroke="#009900" stroke-width="1" x1="89.0" x2="94.0" y1="328.0" y2="328.0"/>
      <line stroke="#009900" stroke-width="1" x1="89.0" x2="94.0" y1="324.0" y2="324.0"/>
      <line stroke="#009900" stroke-width="1" x1="89.0" x2="94.0" y1="320.0" y2="320.0"/>
      <line stroke="#009900" stroke-width="1" x1="89.0" x2="94.0" y1="316.0" y2="316.0"/>
      <line stroke="#009900" stroke-width="1" x1="89.0" x2="94.0" y1="312.0" y2="312.0"/>
      <line stroke="#009900" stroke-width="1" x1="89.0" x2="94.0" y1="308.0" y2="308.0"/>
      <line stroke="#009900" stroke-width="1" x1="89.0" x2="94.0" y1="304.0" y2="304.0"/>
      <line stroke="#009900" stroke-width="1" x1="89.0" x2="94.0" y1="300.0" y2="300.0"/>
      <line stroke="#009900" stroke-width="1" x1="89.0" x2="94.0" y1="296.0" y2="296.0"/>
      <line stroke="#009900" stroke-width="1" x1="89.0" x2="94.0" y1="292.0" y2="292.0"/>
      <line stroke="#009900" stroke-width="1" x1="89.0" x2="94.0" y1="288.0" y2="288.0"/>
      <line stroke="#ff0000" stroke-width="1" x1="137.0" x2="140.0" y1="222.0" y2="225.0"/>
      <line stroke="#ff0000" stroke-width="1" x1="134.212857262947" x2="137.212857262947" y1="224.8691175234369" y2="227.8691175234369"/>
      <line stroke="#ff0000" stroke-width="1" x1="131.42571452589402" x2="134.42571452589402" y1="227.7382350468738" y2="230.7382350468738"/>
      <line stroke="#ff0000" stroke-width="1" x1="128.63857178884103" x2="131.63857178884103" y1="230.6073525703107" y2="233.6073525703107"/>
      <line stroke="#ff0000" stroke-width="1" x1="125.85142905178803" x2="128.85142905178805" y1="233.4764700937476" y2="236.4764700937476"/>
      <line stroke="#ff0000" stroke-width="1" x1="123.06428631473503" x2="126.06428631473504" y1="236.3455876171845" y2="239.3455876171845"/>
      <line stroke="#ff0000" stroke-width="1" x1="120.27714357768203" x2="123.27714357768204" y1="239.2147051406214" y2="242.2147051406214"/>
      <line stroke="#ff0000" stroke-width="1" x1="117.49000084062902" x2="120.49000084062904" y1="242.0838226640583" y2="245.0838226640583"/>
      <line stroke="#ff0000" stroke-width="1" x1="114.70285810357602" x2="117.70285810357603" y1="244.9529401874952" y2="247.9529401874952"/>
      <line stroke="#ff0000" stroke-width="1" x1="111.91571536652302" x2="114.91571536652303" y1="247.82205771093209" y2="250.82205771093209"/>
      <line stroke="#ff0000" stroke-width="1" x1="109.12857262947001" x2="112.12857262947003" y1="250.69117523436898" y2="253.69117523436898"/>
      <line stroke="#ff0000" stroke-width="1" x1="106.34142989241701" x2="109.34142989241703" y1="253.56029275780588" y2="256.5602927578059"/>
      <line stroke="#ff0000" stroke-width="1" x1="103.55428715536401" x2="106.55428715536402" y1="256.4294102812428" y2="259.4294102812428"/>
      <polyline fill="none" marker-end="url(#id189)" points="76.0,236.0 62.0,236.0" stroke="#ff0000" stroke-width="1"/>
      <polyline fill="none" marker-end="url(#id189)" points="183.0,272.0 168.0,272.0" stroke="#ff0000" stroke-width="1"/>
      <polyline fill="none" marker-end="url(#id189)" points="62.0,314.0 76.0,314.0" stroke="#009900" stroke-width="1"/>
      <polyline fill="none" marker-end="url(#id189)" points="168.0,315.0 183.0,315.0" stroke="#009900" stroke-width="1"/>
      <polygon fill="#d0efff" points="695.0,265.0 722.0,265.0 722.0,322.0 695.0,322.0" stroke="#000000" stroke-width="1"/>
      <text fill="#000000" font-family="Arial" font-size="15.0" stroke="none" stroke-width="0" transform="rotate(90.0,718.0,274.0)" x="718.0" y="289.0">лифты</text>
      <polygon fill="#34349c" points="123.0,342.0 123.0,340.0 128.0,340.0 128.0,342.0" stroke="#34349c" stroke-width="1"/>
      <polygon fill="#ff0000" points="128.0,342.0 128.0,340.0 133.0,340.0 133.0,342.0" stroke="#ff0000" stroke-width="1"/>
      <text fill="#00afaf" font-family="Arial" font-size="15.0" stroke="none" stroke-width="0" x="172.0" y="71.0">улица адмирала Лазарева</text>
      <text fill="#00afaf" font-family="Arial" font-size="15.0" stroke="none" stroke-width="0" x="172.0" y="520.0">Южнобутовская улица</text>
      <text fill="#00afaf" font-family="Arial" font-size="15.0" stroke="none" stroke-width="0" x="902.0" y="301.0">Бульвар адмирала Ушакова</text>
      <text fill="#00afaf" font-family="Arial" font-size="15.0" stroke="none" stroke-width="0" transform="rotate(90.0,846.0,240.0)" x="846.0" y="255.0">Веневская улица</text>
    </g>
    <g>
      <rect fill="#615f56" height="30.0" stroke="none" stroke-width="0" width="30.0" x="18.0" y="536.0"/>
      <text fill="#ffd900" font-family="Arial" font-size="25.0" stroke="none" stroke-width="0" x="26.0" y="562.0">1</text>
    </g>
  </g>
</svg>
