<?xml version="1.0" encoding="utf-8" ?>
<svg baseProfile="full" height="100%" version="1.1" width="100%" xmlns="http://www.w3.org/2000/svg" xmlns:ev="http://www.w3.org/2001/xml-events" xmlns:xlink="http://www.w3.org/1999/xlink">
  <defs>
    <marker id="id190" markerHeight="3" markerUnits="strokeWidth" markerWidth="4" orient="auto" refX="0" refY="5" viewBox="0,0,10,10">
      <path d="M 0 0 L 10 5 L 0 10 z"/>
    </marker>
  </defs>
  <g transform="scale(0.5)">
    <rect fill="none" height="980" stroke="none" stroke-width="0" width="1040" x="0" y="0"/>
    <g transform="rotate(22.0,520,490)">
      <polygon fill="#e41c0c" points="790,446 340,446 340,416 790,416" stroke="#000000" stroke-width="1"/>
      <polygon fill="#e41c0c" points="790,336 340,336 340,306 790,306" stroke="#000000" stroke-width="1"/>
      <text fill="#e41c0c" font-family="Arial" font-size="20" stroke="none" stroke-width="0" x="645" y="466.0">Черкизовская &gt;&gt;</text>
      <text fill="#e41c0c" font-family="Arial" font-size="20" stroke="none" stroke-width="0" x="343" y="301.0">&lt;&lt; тупик</text>
      <text fill="#e41c0c" font-family="Arial" font-size="25" stroke="none" stroke-width="0" x="453" y="388.0">Бульвар</text>
      <text fill="#e41c0c" font-family="Arial" font-size="25" stroke="none" stroke-width="0" x="570" y="388.0">Рокоссовского</text>
      <polygon fill="#34349c" points="562,379 562,383 563,383 563,379" stroke="#34349c" stroke-width="1"/>
      <polygon fill="#ff0000" points="562,375 562,379 563,379 563,375" stroke="#ff0000" stroke-width="1"/>
      <polyline fill="none" points="340,336 340,351 290,351 290,317 205,317 205,149 225,149" stroke="#000000" stroke-width="1"/>
      <polyline fill="none" points="225,125 156,125 156,171 176,171 176,317 164,317 164,357 157,357 157,399 164,399 164,434 174,434 174,524 132,524" stroke="#000000" stroke-width="1"/>
      <polyline fill="none" points="132,548 205,548 205,434 290,434 290,402 340,402 340,416" stroke="#000000" stroke-width="1"/>
      <polyline fill="none" points="132,543 174,543" stroke="#000000" stroke-width="1"/>
      <polyline fill="none" points="205,149 185,149" stroke="#000000" stroke-width="1"/>
      <polyline fill="none" points="185,144 225,144" stroke="#000000" stroke-width="1"/>
      <line stroke="#000000" stroke-width="1" x1="338" x2="338" y1="351" y2="402"/>
      <line stroke="#000000" stroke-width="1" x1="334" x2="334" y1="351" y2="402"/>
      <line stroke="#000000" stroke-width="1" x1="330" x2="330" y1="351" y2="402"/>
      <line stroke="#000000" stroke-width="1" x1="326" x2="326" y1="351" y2="402"/>
      <line stroke="#000000" stroke-width="1" x1="322" x2="322" y1="351" y2="402"/>
      <line stroke="#000000" stroke-width="1" x1="318" x2="318" y1="351" y2="402"/>
      <line stroke="#000000" stroke-width="1" x1="314" x2="314" y1="351" y2="402"/>
      <line stroke="#000000" stroke-width="1" x1="310" x2="310" y1="351" y2="402"/>
      <line stroke="#000000" stroke-width="1" x1="306" x2="306" y1="351" y2="402"/>
      <line stroke="#000000" stroke-width="1" x1="302" x2="302" y1="351" y2="402"/>
      <line stroke="#000000" stroke-width="1" x1="298" x2="298" y1="351" y2="402"/>
      <line stroke="#000000" stroke-width="1" x1="294" x2="294" y1="351" y2="402"/>
      <line stroke="#000000" stroke-width="1" x1="223" x2="223" y1="144" y2="125"/>
      <line stroke="#000000" stroke-width="1" x1="219" x2="219" y1="144" y2="125"/>
      <line stroke="#000000" stroke-width="1" x1="215" x2="215" y1="144" y2="125"/>
      <line stroke="#000000" stroke-width="1" x1="211" x2="211" y1="144" y2="125"/>
      <line stroke="#000000" stroke-width="1" x1="207" x2="207" y1="144" y2="125"/>
      <line stroke="#000000" stroke-width="1" x1="203" x2="203" y1="144" y2="125"/>
      <line stroke="#000000" stroke-width="1" x1="199" x2="199" y1="144" y2="125"/>
      <line stroke="#000000" stroke-width="1" x1="195" x2="195" y1="144" y2="125"/>
      <line stroke="#000000" stroke-width="1" x1="191" x2="191" y1="144" y2="125"/>
      <line stroke="#000000" stroke-width="1" x1="187" x2="187" y1="144" y2="125"/>
      <line stroke="#000000" stroke-width="1" x1="134" x2="134" y1="543" y2="524"/>
      <line stroke="#000000" stroke-width="1" x1="138" x2="138" y1="543" y2="524"/>
      <line stroke="#000000" stroke-width="1" x1="142" x2="142" y1="543" y2="524"/>
      <line stroke="#000000" stroke-width="1" x1="146" x2="146" y1="543" y2="524"/>
      <line stroke="#000000" stroke-width="1" x1="150" x2="150" y1="543" y2="524"/>
      <line stroke="#000000" stroke-width="1" x1="154" x2="154" y1="543" y2="524"/>
      <line stroke="#000000" stroke-width="1" x1="158" x2="158" y1="543" y2="524"/>
      <line stroke="#000000" stroke-width="1" x1="162" x2="162" y1="543" y2="524"/>
      <line stroke="#000000" stroke-width="1" x1="166" x2="166" y1="543" y2="524"/>
      <line stroke="#000000" stroke-width="1" x1="170" x2="170" y1="543" y2="524"/>
      <line stroke="#000000" stroke-width="1" x1="174" x2="205" y1="480" y2="480"/>
      <line stroke="#000000" stroke-width="1" x1="174" x2="205" y1="476" y2="476"/>
      <line stroke="#000000" stroke-width="1" x1="174" x2="205" y1="472" y2="472"/>
      <line stroke="#000000" stroke-width="1" x1="176" x2="205" y1="194" y2="194"/>
      <line stroke="#000000" stroke-width="1" x1="176" x2="205" y1="190" y2="190"/>
      <line stroke="#000000" stroke-width="1" x1="176" x2="205" y1="186" y2="186"/>
      <polygon fill="#d0d0d0" points="214,408 205,408 205,346 214,346" stroke="#000000" stroke-width="1"/>
      <polyline fill="none" points="290,402 282,402 282,434" stroke="#000000" stroke-width="1"/>
      <text fill="#000000" font-family="Arial" font-size="10" stroke="none" stroke-width="0" transform="rotate(-90.0,279,430)" x="279" y="440.0">кассы</text>
      <polyline fill="none" points="282,402 267,402" stroke="#000000" stroke-width="0.5"/>
      <polygon fill="none" points="233,372 237,368 233,364 229,368" stroke="#000000" stroke-width="1"/>
      <polyline fill="none" points="233,324 233,317" stroke="#000000" stroke-width="0.5"/>
      <polyline fill="none" points="229,368 214,368" stroke="#000000" stroke-width="0.5"/>
      <line stroke="#009900" stroke-width="1" x1="265" x2="268" y1="403" y2="400"/>
      <line stroke="#009900" stroke-width="1" x1="262.171572875" x2="265.171572875" y1="400.171572875" y2="397.171572875"/>
      <line stroke="#009900" stroke-width="1" x1="259.343145751" x2="262.343145751" y1="397.343145751" y2="394.343145751"/>
      <line stroke="#009900" stroke-width="1" x1="256.514718626" x2="259.514718626" y1="394.514718626" y2="391.514718626"/>
      <line stroke="#009900" stroke-width="1" x1="253.686291501" x2="256.686291501" y1="391.686291501" y2="388.686291501"/>
      <line stroke="#009900" stroke-width="1" x1="250.857864376" x2="253.857864376" y1="388.857864376" y2="385.857864376"/>
      <line stroke="#009900" stroke-width="1" x1="248.029437252" x2="251.029437252" y1="386.029437252" y2="383.029437252"/>
      <line stroke="#009900" stroke-width="1" x1="245.201010127" x2="248.201010127" y1="383.201010127" y2="380.201010127"/>
      <line stroke="#009900" stroke-width="1" x1="242.372583002" x2="245.372583002" y1="380.372583002" y2="377.372583002"/>
      <line stroke="#009900" stroke-width="1" x1="239.544155877" x2="242.544155877" y1="377.544155877" y2="374.544155877"/>
      <line stroke="#009900" stroke-width="1" x1="236.715728753" x2="239.715728753" y1="374.715728753" y2="371.715728753"/>
      <line stroke="#ff0000" stroke-width="1" x1="231" x2="235" y1="360" y2="360"/>
      <line stroke="#ff0000" stroke-width="1" x1="231" x2="235" y1="356" y2="356"/>
      <line stroke="#ff0000" stroke-width="1" x1="231" x2="235" y1="352" y2="352"/>
      <line stroke="#ff0000" stroke-width="1" x1="231" x2="235" y1="348" y2="348"/>
      <line stroke="#ff0000" stroke-width="1" x1="231" x2="235" y1="344" y2="344"/>
      <line stroke="#ff0000" stroke-width="1" x1="231" x2="235" y1="340" y2="340"/>
      <line stroke="#ff0000" stroke-width="1" x1="231" x2="235" y1="336" y2="336"/>
      <line stroke="#ff0000" stroke-width="1" x1="231" x2="235" y1="332" y2="332"/>
      <line stroke="#ff0000" stroke-width="1" x1="231" x2="235" y1="328" y2="328"/>
      <line stroke="#ff0000" stroke-width="1" x1="231" x2="235" y1="324" y2="324"/>
      <polyline fill="none" marker-end="url(#id190)" points="256,338 244,338" stroke="#ff0000" stroke-width="1"/>
      <polyline fill="none" marker-end="url(#id190)" points="229,408 238,399" stroke="#009900" stroke-width="1"/>
      <polygon fill="#34349c" points="265,355 269,355 269,356 265,356" stroke="#34349c" stroke-width="1"/>
      <polygon fill="#ff0000" points="261,355 265,355 265,356 261,356" stroke="#ff0000" stroke-width="1"/>
      <polyline fill="none" points="790,416 790,400 798,400 798,397 851,397 851,400 862,400 862,434 946,434 946,480 933,480 875,461" stroke="#000000" stroke-width="1"/>
      <polyline fill="none" points="869,479 931,499 946,499 946,702 941,702 897,688" stroke="#000000" stroke-width="1"/>
      <polyline fill="none" points="888,710 956,732 940,782" stroke="#000000" stroke-width="1"/>
      <polyline fill="none" points="966,791 985,732 985,317 862,317 862,351 851,351 851,353" stroke="#000000" stroke-width="1"/>
      <polyline fill="none" points="800,353 800,351 790,351 790,336" stroke="#000000" stroke-width="1"/>
      <polyline fill="none" points="959,788 972,748" stroke="#000000" stroke-width="1"/>
      <polyline fill="none" points="891,706 931,719" stroke="#000000" stroke-width="1"/>
      <line stroke="#000000" stroke-width="1" x1="894" x2="900" y1="707" y2="689"/>
      <line stroke="#000000" stroke-width="1" x1="897.804891276" x2="903.804891276" y1="708.234018792" y2="690.234018792"/>
      <line stroke="#000000" stroke-width="1" x1="901.609782552" x2="907.609782552" y1="709.468037584" y2="691.468037584"/>
      <line stroke="#000000" stroke-width="1" x1="905.414673827" x2="911.414673827" y1="710.702056376" y2="692.702056376"/>
      <line stroke="#000000" stroke-width="1" x1="909.219565103" x2="915.219565103" y1="711.936075169" y2="693.936075169"/>
      <line stroke="#000000" stroke-width="1" x1="913.024456379" x2="919.024456379" y1="713.170093961" y2="695.170093961"/>
      <line stroke="#000000" stroke-width="1" x1="916.829347655" x2="922.829347655" y1="714.404112753" y2="696.404112753"/>
      <line stroke="#000000" stroke-width="1" x1="920.634238931" x2="926.634238931" y1="715.638131545" y2="697.638131545"/>
      <line stroke="#000000" stroke-width="1" x1="924.439130206" x2="930.439130206" y1="716.872150337" y2="698.872150337"/>
      <line stroke="#000000" stroke-width="1" x1="928.244021482" x2="934.244021482" y1="718.106169129" y2="700.106169129"/>
      <line stroke="#000000" stroke-width="1" x1="960" x2="941" y1="785" y2="779"/>
      <line stroke="#000000" stroke-width="1" x1="961.234018792" x2="942.234018792" y1="781.195108724" y2="775.195108724"/>
      <line stroke="#000000" stroke-width="1" x1="962.468037584" x2="943.468037584" y1="777.390217448" y2="771.390217448"/>
      <line stroke="#000000" stroke-width="1" x1="963.702056376" x2="944.702056376" y1="773.585326173" y2="767.585326173"/>
      <line stroke="#000000" stroke-width="1" x1="964.936075169" x2="945.936075169" y1="769.780434897" y2="763.780434897"/>
      <line stroke="#000000" stroke-width="1" x1="966.170093961" x2="947.170093961" y1="765.975543621" y2="759.975543621"/>
      <line stroke="#000000" stroke-width="1" x1="967.404112753" x2="948.404112753" y1="762.170652345" y2="756.170652345"/>
      <line stroke="#000000" stroke-width="1" x1="968.638131545" x2="949.638131545" y1="758.365761069" y2="752.365761069"/>
      <line stroke="#000000" stroke-width="1" x1="969.872150337" x2="950.872150337" y1="754.560869794" y2="748.560869794"/>
      <line stroke="#000000" stroke-width="1" x1="971.106169129" x2="952.106169129" y1="750.755978518" y2="744.755978518"/>
      <line stroke="#000000" stroke-width="1" x1="803" x2="803" y1="378" y2="397"/>
      <line stroke="#000000" stroke-width="1" x1="807" x2="807" y1="378" y2="397"/>
      <line stroke="#000000" stroke-width="1" x1="811" x2="811" y1="378" y2="397"/>
      <line stroke="#000000" stroke-width="1" x1="815" x2="815" y1="378" y2="397"/>
      <line stroke="#000000" stroke-width="1" x1="819" x2="819" y1="378" y2="397"/>
      <line stroke="#000000" stroke-width="1" x1="823" x2="823" y1="378" y2="397"/>
      <line stroke="#000000" stroke-width="1" x1="827" x2="827" y1="378" y2="397"/>
      <line stroke="#000000" stroke-width="1" x1="831" x2="831" y1="378" y2="397"/>
      <line stroke="#000000" stroke-width="1" x1="835" x2="835" y1="378" y2="397"/>
      <line stroke="#000000" stroke-width="1" x1="839" x2="839" y1="378" y2="397"/>
      <line stroke="#000000" stroke-width="1" x1="843" x2="843" y1="378" y2="397"/>
      <line stroke="#000000" stroke-width="1" x1="847" x2="847" y1="378" y2="397"/>
      <line stroke="#000000" stroke-width="1" x1="872" x2="878" y1="480" y2="462"/>
      <line stroke="#000000" stroke-width="1" x1="875.804891276" x2="881.804891276" y1="481.234018792" y2="463.234018792"/>
      <line stroke="#000000" stroke-width="1" x1="879.609782552" x2="885.609782552" y1="482.468037584" y2="464.468037584"/>
      <line stroke="#000000" stroke-width="1" x1="883.414673827" x2="889.414673827" y1="483.702056376" y2="465.702056376"/>
      <line stroke="#000000" stroke-width="1" x1="887.219565103" x2="893.219565103" y1="484.936075169" y2="466.936075169"/>
      <line stroke="#000000" stroke-width="1" x1="891.024456379" x2="897.024456379" y1="486.170093961" y2="468.170093961"/>
      <line stroke="#000000" stroke-width="1" x1="894.829347655" x2="900.829347655" y1="487.404112753" y2="469.404112753"/>
      <line stroke="#000000" stroke-width="1" x1="898.634238931" x2="904.634238931" y1="488.638131545" y2="470.638131545"/>
      <line stroke="#000000" stroke-width="1" x1="902.439130206" x2="908.439130206" y1="489.872150337" y2="471.872150337"/>
      <line stroke="#000000" stroke-width="1" x1="906.244021482" x2="912.244021482" y1="491.106169129" y2="473.106169129"/>
      <polygon fill="#d0d0d0" points="946,406 938,406 938,346 946,346" stroke="#000000" stroke-width="1"/>
      <line stroke="#7f7f7f" stroke-width="1" x1="849" x2="849" y1="375" y2="356"/>
      <line stroke="#7f7f7f" stroke-width="1" x1="845" x2="845" y1="375" y2="356"/>
      <line stroke="#7f7f7f" stroke-width="1" x1="841" x2="841" y1="375" y2="356"/>
      <line stroke="#7f7f7f" stroke-width="1" x1="837" x2="837" y1="375" y2="356"/>
      <line stroke="#7f7f7f" stroke-width="1" x1="833" x2="833" y1="375" y2="356"/>
      <line stroke="#7f7f7f" stroke-width="1" x1="829" x2="829" y1="375" y2="356"/>
      <line stroke="#7f7f7f" stroke-width="1" x1="825" x2="825" y1="375" y2="356"/>
      <line stroke="#7f7f7f" stroke-width="1" x1="821" x2="821" y1="375" y2="356"/>
      <line stroke="#7f7f7f" stroke-width="1" x1="817" x2="817" y1="375" y2="356"/>
      <line stroke="#7f7f7f" stroke-width="1" x1="813" x2="813" y1="375" y2="356"/>
      <line stroke="#7f7f7f" stroke-width="1" x1="809" x2="809" y1="375" y2="356"/>
      <line stroke="#7f7f7f" stroke-width="1" x1="805" x2="805" y1="375" y2="356"/>
      <line stroke="#7f7f7f" stroke-width="1" x1="801" x2="801" y1="375" y2="356"/>
      <polygon fill="#9b5509" points="854,356 798,356 798,353 854,353" stroke="#000000" stroke-width="1"/>
      <polygon fill="#9b5509" points="854,363 854,368 798,368 798,363" stroke="#000000" stroke-width="1"/>
      <polygon fill="#9b5509" points="854,375 798,375 798,378 854,378" stroke="#000000" stroke-width="1"/>
      <polyline fill="none" points="862,400 870,400 870,434" stroke="#000000" stroke-width="1"/>
      <text fill="#000000" font-family="Arial" font-size="10" stroke="none" stroke-width="0" transform="rotate(-90.0,859,430)" x="859" y="440.0">кассы</text>
      <polyline fill="none" points="870,400 885,400" stroke="#000000" stroke-width="0.5"/>
      <polygon fill="none" points="919,370 915,366 919,362 923,366" stroke="#000000" stroke-width="1"/>
      <polyline fill="none" points="919,326 919,317" stroke="#000000" stroke-width="0.5"/>
      <polyline fill="none" points="923,366 938,366" stroke="#000000" stroke-width="0.5"/>
      <line stroke="#009900" stroke-width="1" x1="887" x2="884" y1="401" y2="398"/>
      <line stroke="#009900" stroke-width="1" x1="889.828427125" x2="886.828427125" y1="398.171572875" y2="395.171572875"/>
      <line stroke="#009900" stroke-width="1" x1="892.656854249" x2="889.656854249" y1="395.343145751" y2="392.343145751"/>
      <line stroke="#009900" stroke-width="1" x1="895.485281374" x2="892.485281374" y1="392.514718626" y2="389.514718626"/>
      <line stroke="#009900" stroke-width="1" x1="898.313708499" x2="895.313708499" y1="389.686291501" y2="386.686291501"/>
      <line stroke="#009900" stroke-width="1" x1="901.142135624" x2="898.142135624" y1="386.857864376" y2="383.857864376"/>
      <line stroke="#009900" stroke-width="1" x1="903.970562748" x2="900.970562748" y1="384.029437252" y2="381.029437252"/>
      <line stroke="#009900" stroke-width="1" x1="906.798989873" x2="903.798989873" y1="381.201010127" y2="378.201010127"/>
      <line stroke="#009900" stroke-width="1" x1="909.627416998" x2="906.627416998" y1="378.372583002" y2="375.372583002"/>
      <line stroke="#009900" stroke-width="1" x1="912.455844123" x2="909.455844123" y1="375.544155877" y2="372.544155877"/>
      <line stroke="#009900" stroke-width="1" x1="915.284271247" x2="912.284271247" y1="372.715728753" y2="369.715728753"/>
      <line stroke="#ff0000" stroke-width="1" x1="921" x2="917" y1="358" y2="358"/>
      <line stroke="#ff0000" stroke-width="1" x1="921" x2="917" y1="354" y2="354"/>
      <line stroke="#ff0000" stroke-width="1" x1="921" x2="917" y1="350" y2="350"/>
      <line stroke="#ff0000" stroke-width="1" x1="921" x2="917" y1="346" y2="346"/>
      <line stroke="#ff0000" stroke-width="1" x1="921" x2="917" y1="342" y2="342"/>
      <line stroke="#ff0000" stroke-width="1" x1="921" x2="917" y1="338" y2="338"/>
      <line stroke="#ff0000" stroke-width="1" x1="921" x2="917" y1="334" y2="334"/>
      <line stroke="#ff0000" stroke-width="1" x1="921" x2="917" y1="330" y2="330"/>
      <line stroke="#ff0000" stroke-width="1" x1="921" x2="917" y1="326" y2="326"/>
      <polyline fill="none" marker-end="url(#id190)" points="895,340 908,340" stroke="#ff0000" stroke-width="1"/>
      <polyline fill="none" marker-end="url(#id190)" points="921,409 911,399" stroke="#009900" stroke-width="1"/>
      <polygon fill="#34349c" points="890,350 894,350 894,351 890,351" stroke="#34349c" stroke-width="1"/>
      <polygon fill="#ff0000" points="886,350 890,350 890,351 886,351" stroke="#ff0000" stroke-width="1"/>
      <text fill="#00afaf" font-family="Arial" font-size="15" stroke="none" stroke-width="0" transform="rotate(-72.0,988,803)" x="988" y="818.0">Открытое шоссе</text>
      <text fill="#00afaf" font-family="Arial" font-size="15" stroke="none" stroke-width="0" transform="rotate(-90.0,33,649)" x="33" y="664.0">ул. Подбельского</text>
      <text fill="#00afaf" font-family="Arial" font-size="15" stroke="none" stroke-width="0" x="23" y="391.0">Ивантеевская ул.</text>
      <text fill="#00afaf" font-family="Arial" font-size="15" stroke="none" stroke-width="0" transform="rotate(18.0,838,570)" x="838" y="585.0">Ивантеевская ул.</text>
    </g>
    <g>
      <rect fill="#615f56" height="30" stroke="none" stroke-width="0" width="30" x="142" y="417"/>
      <rect fill="#615f56" height="30" stroke="none" stroke-width="0" width="30" x="375" y="1"/>
      <rect fill="#615f56" height="30" stroke="none" stroke-width="0" width="30" x="823" y="632"/>
      <rect fill="#615f56" height="30" stroke="none" stroke-width="0" width="30" x="803" y="780"/>
      <rect fill="#615f56" height="30" stroke="none" stroke-width="0" width="30" x="757" y="889"/>
      <text fill="#ffd900" font-family="Arial" font-size="25" stroke="none" stroke-width="0" x="150" y="443.0">1</text>
      <text fill="#ffd900" font-family="Arial" font-size="25" stroke="none" stroke-width="0" x="383" y="27.0">2</text>
      <text fill="#ffd900" font-family="Arial" font-size="25" stroke="none" stroke-width="0" x="831" y="658.0">3</text>
      <text fill="#ffd900" font-family="Arial" font-size="25" stroke="none" stroke-width="0" x="811" y="806.0">4</text>
      <text fill="#ffd900" font-family="Arial" font-size="25" stroke="none" stroke-width="0" x="765" y="915.0">5</text>
    </g>
  </g>
</svg>
