<?xml version="1.0" encoding="utf-8" ?>
<svg baseProfile="full" height="1490.0" version="1.1" width="976.0" xmlns="http://www.w3.org/2000/svg" xmlns:ev="http://www.w3.org/2001/xml-events" xmlns:xlink="http://www.w3.org/1999/xlink">
  <defs>
    <marker id="id195" markerHeight="3" markerUnits="strokeWidth" markerWidth="4" orient="auto" refX="0" refY="5" viewBox="0,0,10,10">
      <path d="M 0 0 L 10 5 L 0 10 z"/>
    </marker>
  </defs>
  <g>
    <rect fill="none" height="1490.0" stroke="none" stroke-width="0" width="976.0" x="0.0" y="0.0"/>
    <g transform="rotate(15.0,488.0,745.0)">
      <polygon fill="#9ca4a4" points="13.0,650.0 -17.0,650.0 -17.0,200.0 13.0,200.0" stroke="#000000" stroke-width="1"/>
      <polygon fill="#9ca4a4" points="123.0,650.0 93.0,650.0 93.0,200.0 123.0,200.0" stroke="#000000" stroke-width="1"/>
      <text fill="#4c4c4c" font-family="Arial" font-size="20.0" stroke="none" stroke-width="0" transform="rotate(-90.0,123.0,445.0)" x="123.0" y="465.0">Менделеевская &gt;&gt;</text>
      <text fill="#4c4c4c" font-family="Arial" font-size="20.0" stroke="none" stroke-width="0" transform="rotate(-90.0,-38.0,648.0)" x="-38.0" y="668.0">&lt;&lt; Чеховская</text>
      <text fill="#4c4c4c" font-family="Arial" font-size="25.0" stroke="none" stroke-width="0" transform="rotate(-90.0,48.0,554.0)" x="48.0" y="579.0">Цветной бульвар</text>
      <polygon fill="#34349c" points="48.0,433.0 44.0,433.0 44.0,434.0 48.0,434.0" stroke="#34349c" stroke-width="1"/>
      <polygon fill="#ff0000" points="52.0,433.0 48.0,433.0 48.0,434.0 52.0,434.0" stroke="#ff0000" stroke-width="1"/>
      <polygon fill="#7cbc54" points="745.0,1051.0 730.0,1076.0 340.0,851.0 355.0,825.0" stroke="#000000" stroke-width="1"/>
      <polygon fill="#7cbc54" points="300.0,921.0 285.0,947.0 676.0,1172.0 691.0,1146.0" stroke="#000000" stroke-width="1"/>
      <text fill="#5c9f2e" font-family="Arial" font-size="20.0" stroke="none" stroke-width="0" transform="rotate(30.0,368.0,804.0)" x="368.0" y="824.0">&lt;&lt; Достоевская</text>
      <text fill="#5c9f2e" font-family="Arial" font-size="20.0" stroke="none" stroke-width="0" transform="rotate(30.0,495.0,1068.0)" x="495.0" y="1088.0">Сретенский бульвар &gt;&gt;</text>
      <text fill="#5c9f2e" font-family="Arial" font-size="25.0" stroke="none" stroke-width="0" transform="rotate(30.0,479.0,966.0)" x="479.0" y="991.0">Трубная</text>
      <polygon fill="#34349c" points="514.0,987.0 516.0,984.0 517.0,985.0 515.0,988.0" stroke="#34349c" stroke-width="1"/>
      <polygon fill="#ff0000" points="512.0,990.0 514.0,987.0 515.0,988.0 513.0,991.0" stroke="#ff0000" stroke-width="1"/>
      <polyline fill="none" points="13.0,650.0 24.0,650.0 24.0,566.0 31.0,566.0 31.0,785.0 96.0,785.0 118.0,798.0 115.0,803.0 177.0,839.0 181.0,832.0" stroke="#000000" stroke-width="1"/>
      <polyline fill="none" points="93.0,650.0 79.0,650.0 79.0,566.0 69.0,566.0 69.0,737.0 111.0,737.0 143.0,755.0 146.0,749.0 208.0,785.0 204.0,792.0" stroke="#000000" stroke-width="1"/>
      <polyline fill="none" points="288.0,839.0 345.0,872.0 349.0,865.0 336.0,858.0 340.0,851.0" stroke="#000000" stroke-width="1"/>
      <polyline fill="none" points="264.0,881.0 322.0,915.0 318.0,922.0 304.0,914.0 300.0,921.0" stroke="#000000" stroke-width="1"/>
      <line stroke="#000000" stroke-width="1" x1="31.0" x2="69.0" y1="666.0" y2="666.0"/>
      <line stroke="#000000" stroke-width="1" x1="31.0" x2="69.0" y1="670.0" y2="670.0"/>
      <line stroke="#000000" stroke-width="1" x1="31.0" x2="69.0" y1="674.0" y2="674.0"/>
      <line stroke="#000000" stroke-width="1" x1="31.0" x2="69.0" y1="678.0" y2="678.0"/>
      <line stroke="#000000" stroke-width="1" x1="31.0" x2="69.0" y1="682.0" y2="682.0"/>
      <line stroke="#000000" stroke-width="1" x1="31.0" x2="69.0" y1="695.0" y2="695.0"/>
      <line stroke="#000000" stroke-width="1" x1="31.0" x2="69.0" y1="699.0" y2="699.0"/>
      <line stroke="#000000" stroke-width="1" x1="31.0" x2="69.0" y1="703.0" y2="703.0"/>
      <line stroke="#000000" stroke-width="1" x1="31.0" x2="69.0" y1="707.0" y2="707.0"/>
      <line stroke="#000000" stroke-width="1" x1="31.0" x2="69.0" y1="711.0" y2="711.0"/>
      <polygon fill="#d0d0d0" points="83.0,748.0 107.0,748.0 131.0,762.0 128.0,767.0 105.0,754.0 83.0,754.0" stroke="#000000" stroke-width="1"/>
      <polygon fill="#d0d0d0" points="83.0,767.0 101.0,767.0 121.0,779.0 118.0,784.0 99.0,773.0 83.0,773.0" stroke="#000000" stroke-width="1"/>
      <line stroke="#7f7f7f" stroke-width="1" x1="257.0" x2="280.0" y1="876.0" y2="836.0"/>
      <line stroke="#7f7f7f" stroke-width="1" x1="253.54920811960937" x2="276.5492081196094" y1="873.9771220011503" y2="833.9771220011503"/>
      <line stroke="#7f7f7f" stroke-width="1" x1="250.09841623921875" x2="273.09841623921875" y1="871.9542440023006" y2="831.9542440023006"/>
      <line stroke="#7f7f7f" stroke-width="1" x1="246.64762435882812" x2="269.6476243588281" y1="869.9313660034509" y2="829.9313660034509"/>
      <line stroke="#7f7f7f" stroke-width="1" x1="243.1968324784375" x2="266.1968324784375" y1="867.9084880046012" y2="827.9084880046012"/>
      <line stroke="#7f7f7f" stroke-width="1" x1="239.74604059804687" x2="262.7460405980469" y1="865.8856100057515" y2="825.8856100057515"/>
      <line stroke="#7f7f7f" stroke-width="1" x1="236.29524871765625" x2="259.29524871765625" y1="863.8627320069018" y2="823.8627320069018"/>
      <line stroke="#7f7f7f" stroke-width="1" x1="232.84445683726562" x2="255.84445683726562" y1="861.839854008052" y2="821.839854008052"/>
      <line stroke="#7f7f7f" stroke-width="1" x1="229.393664956875" x2="252.393664956875" y1="859.8169760092023" y2="819.8169760092023"/>
      <line stroke="#7f7f7f" stroke-width="1" x1="225.94287307648437" x2="248.94287307648437" y1="857.7940980103526" y2="817.7940980103526"/>
      <line stroke="#7f7f7f" stroke-width="1" x1="222.49208119609375" x2="245.49208119609375" y1="855.7712200115029" y2="815.7712200115029"/>
      <line stroke="#7f7f7f" stroke-width="1" x1="219.04128931570312" x2="242.04128931570312" y1="853.7483420126532" y2="813.7483420126532"/>
      <line stroke="#7f7f7f" stroke-width="1" x1="215.5904974353125" x2="238.5904974353125" y1="851.7254640138035" y2="811.7254640138035"/>
      <line stroke="#7f7f7f" stroke-width="1" x1="212.13970555492187" x2="235.13970555492187" y1="849.7025860149538" y2="809.7025860149538"/>
      <line stroke="#7f7f7f" stroke-width="1" x1="208.68891367453125" x2="231.68891367453125" y1="847.6797080161041" y2="807.6797080161041"/>
      <line stroke="#7f7f7f" stroke-width="1" x1="205.23812179414062" x2="228.23812179414062" y1="845.6568300172544" y2="805.6568300172544"/>
      <line stroke="#7f7f7f" stroke-width="1" x1="201.78732991375" x2="224.78732991375" y1="843.6339520184047" y2="803.6339520184047"/>
      <line stroke="#7f7f7f" stroke-width="1" x1="198.33653803335937" x2="221.33653803335937" y1="841.611074019555" y2="801.611074019555"/>
      <line stroke="#7f7f7f" stroke-width="1" x1="194.88574615296875" x2="217.88574615296875" y1="839.5881960207053" y2="799.5881960207053"/>
      <line stroke="#7f7f7f" stroke-width="1" x1="191.43495427257812" x2="214.43495427257812" y1="837.5653180218555" y2="797.5653180218555"/>
      <line stroke="#7f7f7f" stroke-width="1" x1="187.9841623921875" x2="210.9841623921875" y1="835.5424400230058" y2="795.5424400230058"/>
      <line stroke="#7f7f7f" stroke-width="1" x1="184.53337051179687" x2="207.53337051179687" y1="833.5195620241561" y2="793.5195620241561"/>
      <line stroke="#7f7f7f" stroke-width="1" x1="181.08257863140625" x2="204.08257863140625" y1="831.4966840253064" y2="791.4966840253064"/>
      <line stroke="#7f7f7f" stroke-width="1" x1="177.63178675101562" x2="200.63178675101562" y1="829.4738060264567" y2="789.4738060264567"/>
      <line stroke="#7f7f7f" stroke-width="1" x1="174.180994870625" x2="197.180994870625" y1="827.450928027607" y2="787.450928027607"/>
      <line stroke="#7f7f7f" stroke-width="1" x1="170.73020299023437" x2="193.73020299023437" y1="825.4280500287573" y2="785.4280500287573"/>
      <polygon fill="#9b5509" points="264.0,881.0 165.0,824.0 166.0,822.0 265.0,879.0" stroke="#000000" stroke-width="1"/>
      <polygon fill="#9b5509" points="269.0,872.0 170.0,815.0 172.0,812.0 271.0,869.0" stroke="#000000" stroke-width="1"/>
      <polygon fill="#9b5509" points="275.0,862.0 176.0,805.0 178.0,802.0 277.0,859.0" stroke="#000000" stroke-width="1"/>
      <polygon fill="#9b5509" points="281.0,851.0 182.0,794.0 184.0,791.0 283.0,848.0" stroke="#000000" stroke-width="1"/>
      <polygon fill="#9b5509" points="287.0,841.0 188.0,784.0 189.0,782.0 288.0,839.0" stroke="#000000" stroke-width="1"/>
      <polygon fill="#34349c" points="164.0,767.0 166.0,764.0 167.0,765.0 165.0,768.0" stroke="#34349c" stroke-width="1"/>
      <polygon fill="#ff0000" points="162.0,770.0 164.0,767.0 165.0,768.0 163.0,771.0" stroke="#ff0000" stroke-width="1"/>
      <polygon fill="#fefbf1" points="273.0,41.0 426.0,0.0 464.0,144.0 311.0,185.0" stroke="#dddddd" stroke-width="1"/>
      <polyline fill="none" points="13.0,200.0 24.0,200.0 24.0,335.0 32.0,335.0 32.0,218.0 73.0,218.0 73.0,232.0" stroke="#000000" stroke-width="1"/>
      <polyline fill="none" points="73.0,280.0 73.0,335.0 81.0,335.0 81.0,200.0 93.0,200.0" stroke="#000000" stroke-width="1"/>
      <line stroke="#000000" stroke-width="1" x1="73.0" x2="32.0" y1="332.0" y2="332.0"/>
      <line stroke="#000000" stroke-width="1" x1="73.0" x2="32.0" y1="328.0" y2="328.0"/>
      <line stroke="#000000" stroke-width="1" x1="73.0" x2="32.0" y1="324.0" y2="324.0"/>
      <line stroke="#000000" stroke-width="1" x1="73.0" x2="32.0" y1="320.0" y2="320.0"/>
      <line stroke="#000000" stroke-width="1" x1="73.0" x2="32.0" y1="316.0" y2="316.0"/>
      <line stroke="#000000" stroke-width="1" x1="32.0" x2="73.0" y1="303.0" y2="303.0"/>
      <line stroke="#000000" stroke-width="1" x1="32.0" x2="73.0" y1="299.0" y2="299.0"/>
      <line stroke="#000000" stroke-width="1" x1="32.0" x2="73.0" y1="295.0" y2="295.0"/>
      <line stroke="#000000" stroke-width="1" x1="32.0" x2="73.0" y1="291.0" y2="291.0"/>
      <line stroke="#000000" stroke-width="1" x1="32.0" x2="73.0" y1="287.0" y2="287.0"/>
    </g>
    <g fill="#fefbf1" fill-opacity="0.8" stroke="#000000" stroke-opacity="0.8" transform="rotate(15.0,488.0,745.0)">
      <polygon fill="#ffffff" points="71.0,280.0 71.0,232.0 96.0,232.0 124.0,213.0 124.0,272.0 114.0,280.0" stroke="#ffffff" stroke-width="1"/>
    </g>
    <g fill="#ffffff" fill-opacity="1.0" stroke="#ffffff" stroke-opacity="1.0" transform="rotate(15.0,488.0,745.0)">
      <polyline fill="none" points="233.0,193.0 239.0,201.0 208.0,222.0 204.0,217.0 114.0,280.0 73.0,280.0" stroke="#000000" stroke-width="1"/>
      <polyline fill="none" points="73.0,232.0 96.0,232.0 176.0,176.0 172.0,170.0 202.0,149.0 206.0,155.0" stroke="#000000" stroke-width="1"/>
      <polygon fill="#d0d0d0" points="108.0,262.0 73.0,262.0 73.0,251.0 104.0,251.0 111.0,246.0 118.0,255.0" stroke="#000000" stroke-width="1"/>
      <polygon fill="#d0d0d0" points="420.0,98.0 411.0,64.0 441.0,56.0 450.0,90.0" stroke="#000000" stroke-width="1"/>
      <polygon fill="#d0d0d0" points="436.0,37.0 426.0,0.0 273.0,41.0 288.0,98.0 300.0,89.0 329.0,81.0 322.0,56.0 400.0,35.0 403.0,46.0 410.0,44.0 404.0,22.0 419.0,18.0 425.0,40.0" stroke="#000000" stroke-width="1"/>
      <polygon fill="#d0d0d0" points="454.0,107.0 464.0,144.0 311.0,185.0 300.0,144.0 325.0,127.0 340.0,123.0 346.0,145.0 423.0,124.0 421.0,116.0 428.0,114.0 432.0,129.0 447.0,125.0 443.0,110.0" stroke="#000000" stroke-width="1"/>
      <line stroke="#7f7f7f" stroke-width="1" x1="206.0" x2="229.0" y1="159.0" y2="192.0"/>
      <line stroke="#7f7f7f" stroke-width="1" x1="209.27692768207615" x2="232.27692768207615" y1="156.7061506225467" y2="189.7061506225467"/>
      <line stroke="#7f7f7f" stroke-width="1" x1="212.5538553641523" x2="235.5538553641523" y1="154.41230124509337" y2="187.41230124509337"/>
      <line stroke="#7f7f7f" stroke-width="1" x1="215.83078304622845" x2="238.83078304622845" y1="152.11845186764006" y2="185.11845186764006"/>
      <line stroke="#7f7f7f" stroke-width="1" x1="219.1077107283046" x2="242.1077107283046" y1="149.82460249018675" y2="182.82460249018675"/>
      <line stroke="#7f7f7f" stroke-width="1" x1="222.38463841038075" x2="245.38463841038075" y1="147.53075311273344" y2="180.53075311273344"/>
      <line stroke="#7f7f7f" stroke-width="1" x1="225.6615660924569" x2="248.6615660924569" y1="145.23690373528012" y2="178.23690373528012"/>
      <line stroke="#7f7f7f" stroke-width="1" x1="228.93849377453304" x2="251.93849377453304" y1="142.9430543578268" y2="175.9430543578268"/>
      <line stroke="#7f7f7f" stroke-width="1" x1="232.2154214566092" x2="255.2154214566092" y1="140.6492049803735" y2="173.6492049803735"/>
      <line stroke="#7f7f7f" stroke-width="1" x1="235.49234913868534" x2="258.49234913868537" y1="138.35535560292018" y2="171.35535560292018"/>
      <line stroke="#7f7f7f" stroke-width="1" x1="238.7692768207615" x2="261.76927682076155" y1="136.06150622546687" y2="169.06150622546687"/>
      <line stroke="#7f7f7f" stroke-width="1" x1="242.04620450283764" x2="265.0462045028377" y1="133.76765684801356" y2="166.76765684801356"/>
      <line stroke="#7f7f7f" stroke-width="1" x1="245.3231321849138" x2="268.3231321849139" y1="131.47380747056025" y2="164.47380747056025"/>
      <line stroke="#7f7f7f" stroke-width="1" x1="248.60005986698994" x2="271.6000598669901" y1="129.17995809310693" y2="162.17995809310693"/>
      <line stroke="#7f7f7f" stroke-width="1" x1="251.8769875490661" x2="274.87698754906626" y1="126.88610871565362" y2="159.88610871565362"/>
      <line stroke="#7f7f7f" stroke-width="1" x1="255.15391523114224" x2="278.15391523114243" y1="124.59225933820031" y2="157.5922593382003"/>
      <line stroke="#7f7f7f" stroke-width="1" x1="258.4308429132184" x2="281.4308429132186" y1="122.298409960747" y2="155.298409960747"/>
      <line stroke="#7f7f7f" stroke-width="1" x1="261.70777059529456" x2="284.7077705952948" y1="120.00456058329368" y2="153.00456058329368"/>
      <line stroke="#7f7f7f" stroke-width="1" x1="264.98469827737074" x2="287.98469827737097" y1="117.71071120584037" y2="150.71071120584037"/>
      <line stroke="#7f7f7f" stroke-width="1" x1="268.2616259594469" x2="291.26162595944714" y1="115.41686182838706" y2="148.41686182838706"/>
      <line stroke="#7f7f7f" stroke-width="1" x1="271.5385536415231" x2="294.5385536415233" y1="113.12301245093374" y2="146.12301245093374"/>
      <line stroke="#7f7f7f" stroke-width="1" x1="274.8154813235993" x2="297.8154813235995" y1="110.82916307348043" y2="143.82916307348043"/>
      <line stroke="#7f7f7f" stroke-width="1" x1="278.09240900567545" x2="301.0924090056757" y1="108.53531369602712" y2="141.53531369602712"/>
      <line stroke="#7f7f7f" stroke-width="1" x1="281.3693366877516" x2="304.36933668775185" y1="106.2414643185738" y2="139.2414643185738"/>
      <line stroke="#7f7f7f" stroke-width="1" x1="284.6462643698278" x2="307.64626436982803" y1="103.94761494112049" y2="136.9476149411205"/>
      <line stroke="#7f7f7f" stroke-width="1" x1="287.923192051904" x2="310.9231920519042" y1="101.65376556366718" y2="134.65376556366718"/>
      <line stroke="#7f7f7f" stroke-width="1" x1="291.20011973398016" x2="314.2001197339804" y1="99.35991618621387" y2="132.35991618621387"/>
      <line stroke="#7f7f7f" stroke-width="1" x1="294.47704741605634" x2="317.47704741605656" y1="97.06606680876055" y2="130.06606680876055"/>
      <polygon fill="#9b5509" points="198.0,160.0 300.0,89.0 302.0,92.0 200.0,163.0" stroke="#000000" stroke-width="1"/>
      <polygon fill="#9b5509" points="204.0,169.0 306.0,98.0 308.0,101.0 206.0,172.0" stroke="#000000" stroke-width="1"/>
      <polygon fill="#9b5509" points="210.0,178.0 312.0,107.0 314.0,110.0 212.0,181.0" stroke="#000000" stroke-width="1"/>
      <polygon fill="#9b5509" points="216.0,187.0 318.0,116.0 320.0,119.0 218.0,190.0" stroke="#000000" stroke-width="1"/>
      <polygon fill="#9b5509" points="222.0,196.0 324.0,125.0 326.0,128.0 224.0,199.0" stroke="#000000" stroke-width="1"/>
      <polygon fill="#ffffff" points="367.0,44.0 365.0,37.0 395.0,29.0 397.0,36.0" stroke="#000000" stroke-width="1"/>
      <text fill="#000000" font-family="Arial" font-size="10.0" stroke="none" stroke-width="0" transform="rotate(-15.0,367.0,34.0)" x="367.0" y="44.0">кассы</text>
      <polyline fill="none" points="326.0,55.0 337.0,60.0" stroke="#000000" stroke-width="0.5"/>
      <polygon fill="none" points="374.0,77.0 368.0,79.0 370.0,85.0 376.0,83.0" stroke="#000000" stroke-width="1"/>
      <polyline fill="none" points="385.0,130.0 386.0,134.0" stroke="#000000" stroke-width="0.5"/>
      <line stroke="#009900" stroke-width="1" x1="338.0" x2="336.0" y1="58.0" y2="62.0"/>
      <line stroke="#009900" stroke-width="1" x1="341.55448262821943" x2="339.55448262821943" y1="59.83457167908101" y2="63.83457167908101"/>
      <line stroke="#009900" stroke-width="1" x1="345.10896525643886" x2="343.10896525643886" y1="61.66914335816202" y2="65.66914335816202"/>
      <line stroke="#009900" stroke-width="1" x1="348.6634478846583" x2="346.6634478846583" y1="63.503715037243026" y2="67.50371503724303"/>
      <line stroke="#009900" stroke-width="1" x1="352.21793051287773" x2="350.21793051287773" y1="65.33828671632403" y2="69.33828671632403"/>
      <line stroke="#009900" stroke-width="1" x1="355.77241314109716" x2="353.77241314109716" y1="67.17285839540504" y2="71.17285839540504"/>
      <line stroke="#009900" stroke-width="1" x1="359.3268957693166" x2="357.3268957693166" y1="69.00743007448605" y2="73.00743007448605"/>
      <line stroke="#009900" stroke-width="1" x1="362.881378397536" x2="360.881378397536" y1="70.84200175356706" y2="74.84200175356706"/>
      <line stroke="#009900" stroke-width="1" x1="366.43586102575546" x2="364.43586102575546" y1="72.67657343264807" y2="76.67657343264807"/>
      <line stroke="#ff0000" stroke-width="1" x1="376.0" x2="372.0" y1="87.0" y2="88.0"/>
      <line stroke="#ff0000" stroke-width="1" x1="376.99133299993053" x2="372.99133299993053" y1="90.87521081791026" y2="91.87521081791026"/>
      <line stroke="#ff0000" stroke-width="1" x1="377.98266599986107" x2="373.98266599986107" y1="94.75042163582052" y2="95.75042163582052"/>
      <line stroke="#ff0000" stroke-width="1" x1="378.9739989997916" x2="374.9739989997916" y1="98.62563245373077" y2="99.62563245373077"/>
      <line stroke="#ff0000" stroke-width="1" x1="379.96533199972214" x2="375.96533199972214" y1="102.50084327164103" y2="103.50084327164103"/>
      <line stroke="#ff0000" stroke-width="1" x1="380.9566649996527" x2="376.9566649996527" y1="106.37605408955129" y2="107.37605408955129"/>
      <line stroke="#ff0000" stroke-width="1" x1="381.9479979995832" x2="377.9479979995832" y1="110.25126490746155" y2="111.25126490746155"/>
      <line stroke="#ff0000" stroke-width="1" x1="382.93933099951374" x2="378.93933099951374" y1="114.1264757253718" y2="115.1264757253718"/>
      <line stroke="#ff0000" stroke-width="1" x1="383.9306639994443" x2="379.9306639994443" y1="118.00168654328206" y2="119.00168654328206"/>
      <line stroke="#ff0000" stroke-width="1" x1="384.9219969993748" x2="380.9219969993748" y1="121.87689736119232" y2="122.87689736119232"/>
      <line stroke="#ff0000" stroke-width="1" x1="385.91332999930535" x2="381.91332999930535" y1="125.75210817910258" y2="126.75210817910258"/>
      <line stroke="#ff0000" stroke-width="1" x1="386.9046629992359" x2="382.9046629992359" y1="129.62731899701285" y2="130.62731899701285"/>
      <polygon fill="#34349c" points="332.0,67.0 336.0,66.0 336.0,67.0 332.0,68.0" stroke="#34349c" stroke-width="1"/>
      <polygon fill="#ff0000" points="328.0,68.0 332.0,67.0 332.0,68.0 328.0,69.0" stroke="#ff0000" stroke-width="1"/>
      <polyline fill="none" points="730.0,1076.0 726.0,1083.0 702.0,1069.0 698.0,1076.0 702.0,1079.0" stroke="#000000" stroke-width="1"/>
      <polyline fill="none" points="691.0,1146.0 695.0,1139.0 670.0,1125.0 674.0,1118.0 678.0,1120.0" stroke="#000000" stroke-width="1"/>
      <polyline fill="none" points="905.0,1197.0 908.0,1192.0 933.0,1206.0 945.0,1185.0 1030.0,1234.0 1046.0,1206.0 1030.0,1197.0 1016.0,1179.0 1004.0,1134.0 974.0,1142.0" stroke="#000000" stroke-width="1"/>
      <polyline fill="none" points="881.0,1238.0 877.0,1245.0 903.0,1261.0 890.0,1284.0 1014.0,1355.0" stroke="#000000" stroke-width="1"/>
      <path d="M1014.0,1355.0 C1014.0,1355.0 1009.3333333333334,1354.5 1014.0,1355.0 C1018.6666666666666,1355.5 1033.6666666666667,1360.8333333333333 1042.0,1358.0 C1050.3333333333333,1355.1666666666667 1057.0,1347.0 1064.0,1338.0 C1071.0,1329.0 1079.5,1314.5 1084.0,1304.0 C1088.5,1293.5 1092.6666666666667,1283.6666666666667 1091.0,1275.0 C1089.3333333333333,1266.3333333333333 1074.0,1252.0 1074.0,1252.0 " fill="none" stroke="#000000" stroke-width="1"/>
      <polyline fill="none" points="1074.0,1252.0 1102.0,1204.0 1045.0,1171.0 1040.0,1165.0 1030.0,1127.0 1060.0,1119.0" stroke="#000000" stroke-width="1"/>
      <polyline fill="none" points="1053.0,1097.0 968.0,1120.0" stroke="#000000" stroke-width="1"/>
      <polygon fill="#d0d0d0" points="1013.0,1255.0 990.0,1241.0 962.0,1288.0 985.0,1302.0" stroke="#000000" stroke-width="1"/>
      <line stroke="#000000" stroke-width="1" x1="961.0" x2="977.0" y1="1325.0" y2="1297.0"/>
      <line stroke="#000000" stroke-width="1" x1="964.5777087639997" x2="980.5777087639997" y1="1326.7888543819997" y2="1298.7888543819997"/>
      <line stroke="#000000" stroke-width="1" x1="968.1554175279994" x2="984.1554175279994" y1="1328.5777087639995" y2="1300.5777087639995"/>
      <line stroke="#000000" stroke-width="1" x1="1018.0" x2="1005.0" y1="1227.0" y2="1249.0"/>
      <line stroke="#000000" stroke-width="1" x1="1021.3919932160203" x2="1008.3919932160203" y1="1229.1199957600127" y2="1251.1199957600127"/>
      <line stroke="#000000" stroke-width="1" x1="1024.7839864320406" x2="1011.7839864320406" y1="1231.2399915200253" y2="1253.2399915200253"/>
      <line stroke="#000000" stroke-width="1" x1="1045.0" x2="1030.0" y1="1171.0" y2="1197.0"/>
      <line stroke="#000000" stroke-width="1" x1="1048.4729725684979" x2="1033.4729725684979" y1="1172.9845557534272" y2="1198.9845557534272"/>
      <line stroke="#000000" stroke-width="1" x1="1051.9459451369958" x2="1036.9459451369958" y1="1174.9691115068545" y2="1200.9691115068545"/>
      <line stroke="#000000" stroke-width="1" x1="1055.4189177054936" x2="1040.4189177054936" y1="1176.9536672602817" y2="1202.9536672602817"/>
      <line stroke="#000000" stroke-width="1" x1="1058.8918902739915" x2="1043.8918902739915" y1="1178.938223013709" y2="1204.938223013709"/>
      <line stroke="#000000" stroke-width="1" x1="1034.0" x2="1008.0" y1="1142.0" y2="1149.0"/>
      <line stroke="#000000" stroke-width="1" x1="1032.9475303768315" x2="1006.9475303768315" y1="1138.140944715049" y2="1145.140944715049"/>
      <line stroke="#000000" stroke-width="1" x1="1031.895060753663" x2="1005.8950607536631" y1="1134.281889430098" y2="1141.281889430098"/>
      <line stroke="#000000" stroke-width="1" x1="1033.0" x2="1027.0" y1="1126.0" y2="1104.0"/>
      <line stroke="#000000" stroke-width="1" x1="1036.8719875926631" x2="1030.8719875926631" y1="1124.996151364865" y2="1102.996151364865"/>
      <line stroke="#000000" stroke-width="1" x1="1040.7439751853262" x2="1034.7439751853262" y1="1123.99230272973" y2="1101.99230272973"/>
      <line stroke="#000000" stroke-width="1" x1="1044.6159627779894" x2="1038.6159627779894" y1="1122.988454094595" y2="1100.988454094595"/>
      <line stroke="#000000" stroke-width="1" x1="1048.4879503706525" x2="1042.4879503706525" y1="1121.98460545946" y2="1099.98460545946"/>
      <line stroke="#000000" stroke-width="1" x1="1052.3599379633156" x2="1046.3599379633156" y1="1120.980756824325" y2="1098.980756824325"/>
      <line stroke="#000000" stroke-width="1" x1="1056.2319255559787" x2="1050.2319255559787" y1="1119.97690818919" y2="1097.97690818919"/>
      <line stroke="#000000" stroke-width="1" x1="1000.0" x2="994.0" y1="1135.0" y2="1113.0"/>
      <line stroke="#000000" stroke-width="1" x1="996.1375369659173" x2="990.1375369659173" y1="1136.0398938937915" y2="1114.0398938937915"/>
      <line stroke="#000000" stroke-width="1" x1="992.2750739318346" x2="986.2750739318346" y1="1137.079787787583" y2="1115.079787787583"/>
      <line stroke="#000000" stroke-width="1" x1="988.412610897752" x2="982.412610897752" y1="1138.1196816813745" y2="1116.1196816813745"/>
      <line stroke="#000000" stroke-width="1" x1="984.5501478636693" x2="978.5501478636693" y1="1139.159575575166" y2="1117.159575575166"/>
      <line stroke="#000000" stroke-width="1" x1="980.6876848295866" x2="974.6876848295866" y1="1140.1994694689574" y2="1118.1994694689574"/>
      <line stroke="#000000" stroke-width="1" x1="976.8252217955039" x2="970.8252217955039" y1="1141.239363362749" y2="1119.239363362749"/>
      <line stroke="#7f7f7f" stroke-width="1" x1="882.0" x2="904.0" y1="1236.0" y2="1198.0"/>
      <line stroke="#7f7f7f" stroke-width="1" x1="878.547391546757" x2="900.547391546757" y1="1233.980224054853" y2="1195.980224054853"/>
      <line stroke="#7f7f7f" stroke-width="1" x1="875.094783093514" x2="897.094783093514" y1="1231.9604481097058" y2="1193.9604481097058"/>
      <line stroke="#7f7f7f" stroke-width="1" x1="871.642174640271" x2="893.642174640271" y1="1229.9406721645587" y2="1191.9406721645587"/>
      <line stroke="#7f7f7f" stroke-width="1" x1="868.189566187028" x2="890.189566187028" y1="1227.9208962194116" y2="1189.9208962194116"/>
      <line stroke="#7f7f7f" stroke-width="1" x1="864.7369577337851" x2="886.7369577337851" y1="1225.9011202742645" y2="1187.9011202742645"/>
      <line stroke="#7f7f7f" stroke-width="1" x1="861.2843492805421" x2="883.2843492805421" y1="1223.8813443291174" y2="1185.8813443291174"/>
      <line stroke="#7f7f7f" stroke-width="1" x1="857.8317408272991" x2="879.8317408272991" y1="1221.8615683839703" y2="1183.8615683839703"/>
      <line stroke="#7f7f7f" stroke-width="1" x1="854.3791323740561" x2="876.3791323740561" y1="1219.8417924388232" y2="1181.8417924388232"/>
      <line stroke="#7f7f7f" stroke-width="1" x1="850.9265239208131" x2="872.9265239208131" y1="1217.822016493676" y2="1179.822016493676"/>
      <line stroke="#7f7f7f" stroke-width="1" x1="847.4739154675701" x2="869.4739154675701" y1="1215.802240548529" y2="1177.802240548529"/>
      <line stroke="#7f7f7f" stroke-width="1" x1="844.0213070143271" x2="866.0213070143271" y1="1213.7824646033819" y2="1175.7824646033819"/>
      <line stroke="#7f7f7f" stroke-width="1" x1="840.5686985610841" x2="862.5686985610841" y1="1211.7626886582348" y2="1173.7626886582348"/>
      <line stroke="#7f7f7f" stroke-width="1" x1="837.1160901078412" x2="859.1160901078412" y1="1209.7429127130877" y2="1171.7429127130877"/>
      <line stroke="#7f7f7f" stroke-width="1" x1="833.6634816545982" x2="855.6634816545982" y1="1207.7231367679406" y2="1169.7231367679406"/>
      <line stroke="#7f7f7f" stroke-width="1" x1="830.2108732013552" x2="852.2108732013552" y1="1205.7033608227935" y2="1167.7033608227935"/>
      <line stroke="#7f7f7f" stroke-width="1" x1="826.7582647481122" x2="848.7582647481122" y1="1203.6835848776464" y2="1165.6835848776464"/>
      <line stroke="#7f7f7f" stroke-width="1" x1="823.3056562948692" x2="845.3056562948692" y1="1201.6638089324993" y2="1163.6638089324993"/>
      <line stroke="#7f7f7f" stroke-width="1" x1="819.8530478416262" x2="841.8530478416262" y1="1199.6440329873521" y2="1161.6440329873521"/>
      <line stroke="#7f7f7f" stroke-width="1" x1="816.4004393883832" x2="838.4004393883832" y1="1197.624257042205" y2="1159.624257042205"/>
      <line stroke="#7f7f7f" stroke-width="1" x1="812.9478309351402" x2="834.9478309351402" y1="1195.604481097058" y2="1157.604481097058"/>
      <line stroke="#7f7f7f" stroke-width="1" x1="809.4952224818973" x2="831.4952224818973" y1="1193.5847051519108" y2="1155.5847051519108"/>
      <line stroke="#7f7f7f" stroke-width="1" x1="806.0426140286543" x2="828.0426140286543" y1="1191.5649292067637" y2="1153.5649292067637"/>
      <line stroke="#7f7f7f" stroke-width="1" x1="802.5900055754113" x2="824.5900055754113" y1="1189.5451532616166" y2="1151.5451532616166"/>
      <line stroke="#7f7f7f" stroke-width="1" x1="799.1373971221683" x2="821.1373971221683" y1="1187.5253773164695" y2="1149.5253773164695"/>
      <line stroke="#7f7f7f" stroke-width="1" x1="795.6847886689253" x2="817.6847886689253" y1="1185.5056013713224" y2="1147.5056013713224"/>
      <line stroke="#7f7f7f" stroke-width="1" x1="792.2321802156823" x2="814.2321802156823" y1="1183.4858254261753" y2="1145.4858254261753"/>
      <line stroke="#7f7f7f" stroke-width="1" x1="788.7795717624393" x2="810.7795717624393" y1="1181.4660494810282" y2="1143.4660494810282"/>
      <line stroke="#7f7f7f" stroke-width="1" x1="785.3269633091963" x2="807.3269633091963" y1="1179.4462735358811" y2="1141.4462735358811"/>
      <line stroke="#7f7f7f" stroke-width="1" x1="781.8743548559534" x2="803.8743548559534" y1="1177.426497590734" y2="1139.426497590734"/>
      <line stroke="#7f7f7f" stroke-width="1" x1="778.4217464027104" x2="800.4217464027104" y1="1175.406721645587" y2="1137.406721645587"/>
      <line stroke="#7f7f7f" stroke-width="1" x1="774.9691379494674" x2="796.9691379494674" y1="1173.3869457004398" y2="1135.3869457004398"/>
      <line stroke="#7f7f7f" stroke-width="1" x1="771.5165294962244" x2="793.5165294962244" y1="1171.3671697552927" y2="1133.3671697552927"/>
      <line stroke="#7f7f7f" stroke-width="1" x1="768.0639210429814" x2="790.0639210429814" y1="1169.3473938101456" y2="1131.3473938101456"/>
      <line stroke="#7f7f7f" stroke-width="1" x1="764.6113125897384" x2="786.6113125897384" y1="1167.3276178649985" y2="1129.3276178649985"/>
      <line stroke="#7f7f7f" stroke-width="1" x1="761.1587041364954" x2="783.1587041364954" y1="1165.3078419198514" y2="1127.3078419198514"/>
      <line stroke="#7f7f7f" stroke-width="1" x1="757.7060956832524" x2="779.7060956832524" y1="1163.2880659747043" y2="1125.2880659747043"/>
      <line stroke="#7f7f7f" stroke-width="1" x1="754.2534872300095" x2="776.2534872300095" y1="1161.2682900295572" y2="1123.2682900295572"/>
      <line stroke="#7f7f7f" stroke-width="1" x1="750.8008787767665" x2="772.8008787767665" y1="1159.24851408441" y2="1121.24851408441"/>
      <line stroke="#7f7f7f" stroke-width="1" x1="747.3482703235235" x2="769.3482703235235" y1="1157.228738139263" y2="1119.228738139263"/>
      <line stroke="#7f7f7f" stroke-width="1" x1="743.8956618702805" x2="765.8956618702805" y1="1155.2089621941159" y2="1117.2089621941159"/>
      <line stroke="#7f7f7f" stroke-width="1" x1="740.4430534170375" x2="762.4430534170375" y1="1153.1891862489688" y2="1115.1891862489688"/>
      <line stroke="#7f7f7f" stroke-width="1" x1="736.9904449637945" x2="758.9904449637945" y1="1151.1694103038217" y2="1113.1694103038217"/>
      <line stroke="#7f7f7f" stroke-width="1" x1="733.5378365105515" x2="755.5378365105515" y1="1149.1496343586746" y2="1111.1496343586746"/>
      <line stroke="#7f7f7f" stroke-width="1" x1="730.0852280573085" x2="752.0852280573085" y1="1147.1298584135275" y2="1109.1298584135275"/>
      <line stroke="#7f7f7f" stroke-width="1" x1="726.6326196040656" x2="748.6326196040656" y1="1145.1100824683804" y2="1107.1100824683804"/>
      <line stroke="#7f7f7f" stroke-width="1" x1="723.1800111508226" x2="745.1800111508226" y1="1143.0903065232333" y2="1105.0903065232333"/>
      <line stroke="#7f7f7f" stroke-width="1" x1="719.7274026975796" x2="741.7274026975796" y1="1141.0705305780862" y2="1103.0705305780862"/>
      <line stroke="#7f7f7f" stroke-width="1" x1="716.2747942443366" x2="738.2747942443366" y1="1139.050754632939" y2="1101.050754632939"/>
      <line stroke="#7f7f7f" stroke-width="1" x1="712.8221857910936" x2="734.8221857910936" y1="1137.030978687792" y2="1099.030978687792"/>
      <line stroke="#7f7f7f" stroke-width="1" x1="709.3695773378506" x2="731.3695773378506" y1="1135.0112027426449" y2="1097.0112027426449"/>
      <line stroke="#7f7f7f" stroke-width="1" x1="705.9169688846076" x2="727.9169688846076" y1="1132.9914267974978" y2="1094.9914267974978"/>
      <line stroke="#7f7f7f" stroke-width="1" x1="702.4643604313646" x2="724.4643604313646" y1="1130.9716508523506" y2="1092.9716508523506"/>
      <line stroke="#7f7f7f" stroke-width="1" x1="699.0117519781217" x2="721.0117519781217" y1="1128.9518749072035" y2="1090.9518749072035"/>
      <line stroke="#7f7f7f" stroke-width="1" x1="695.5591435248787" x2="717.5591435248787" y1="1126.9320989620564" y2="1088.9320989620564"/>
      <line stroke="#7f7f7f" stroke-width="1" x1="692.1065350716357" x2="714.1065350716357" y1="1124.9123230169093" y2="1086.9123230169093"/>
      <line stroke="#7f7f7f" stroke-width="1" x1="688.6539266183927" x2="710.6539266183927" y1="1122.8925470717622" y2="1084.8925470717622"/>
      <line stroke="#7f7f7f" stroke-width="1" x1="685.2013181651497" x2="707.2013181651497" y1="1120.8727711266151" y2="1082.8727711266151"/>
      <polygon fill="#9b5509" points="886.0,1240.0 678.0,1120.0 679.0,1118.0 887.0,1238.0" stroke="#000000" stroke-width="1"/>
      <polygon fill="#9b5509" points="891.0,1231.0 683.0,1111.0 685.0,1108.0 893.0,1228.0" stroke="#000000" stroke-width="1"/>
      <polygon fill="#9b5509" points="897.0,1221.0 689.0,1101.0 691.0,1098.0 899.0,1218.0" stroke="#000000" stroke-width="1"/>
      <polygon fill="#9b5509" points="903.0,1211.0 695.0,1091.0 697.0,1088.0 905.0,1208.0" stroke="#000000" stroke-width="1"/>
      <polygon fill="#9b5509" points="909.0,1201.0 701.0,1081.0 702.0,1079.0 910.0,1199.0" stroke="#000000" stroke-width="1"/>
      <path d="M985.0,1302.0 C985.0,1302.0 982.6666666666666,1301.6666666666667 985.0,1302.0 C987.3333333333334,1302.3333333333333 994.8333333333334,1305.0 999.0,1304.0 C1003.1666666666666,1303.0 1006.5,1300.1666666666667 1010.0,1296.0 C1013.5,1291.8333333333333 1018.0,1284.1666666666667 1020.0,1279.0 C1022.0,1273.8333333333333 1023.1666666666666,1269.0 1022.0,1265.0 C1020.8333333333334,1261.0 1013.0,1255.0 1013.0,1255.0 " fill="none" stroke="#000000" stroke-width="1"/>
      <text fill="#000000" font-family="Arial" font-size="12.0" stroke="none" stroke-width="0" transform="rotate(-60.0,992.0,1290.0)" x="992.0" y="1302.0">кассы</text>
      <polyline fill="none" points="981.0,1256.0 963.0,1246.0" stroke="#000000" stroke-width="1"/>
      <polyline fill="none" points="903.0,1261.0 915.0,1258.0" stroke="#000000" stroke-width="1"/>
      <polygon fill="none" points="956.0,1247.0 960.0,1249.0 963.0,1245.0 958.0,1242.0" stroke="#000000" stroke-width="1"/>
      <polyline fill="none" points="978.0,1211.0 981.0,1206.0" stroke="#000000" stroke-width="1"/>
      <line stroke="#009900" stroke-width="1" x1="916.0" x2="915.0" y1="1259.0" y2="1256.0"/>
      <line stroke="#009900" stroke-width="1" x1="919.8568215712152" x2="918.8568215712152" y1="1257.9393740679159" y2="1254.9393740679159"/>
      <line stroke="#009900" stroke-width="1" x1="923.7136431424303" x2="922.7136431424303" y1="1256.8787481358318" y2="1253.8787481358318"/>
      <line stroke="#009900" stroke-width="1" x1="927.5704647136455" x2="926.5704647136455" y1="1255.8181222037476" y2="1252.8181222037476"/>
      <line stroke="#009900" stroke-width="1" x1="931.4272862848607" x2="930.4272862848607" y1="1254.7574962716635" y2="1251.7574962716635"/>
      <line stroke="#009900" stroke-width="1" x1="935.2841078560758" x2="934.2841078560758" y1="1253.6968703395794" y2="1250.6968703395794"/>
      <line stroke="#009900" stroke-width="1" x1="939.140929427291" x2="938.140929427291" y1="1252.6362444074953" y2="1249.6362444074953"/>
      <line stroke="#009900" stroke-width="1" x1="942.9977509985061" x2="941.9977509985061" y1="1251.5756184754111" y2="1248.5756184754111"/>
      <line stroke="#009900" stroke-width="1" x1="946.8545725697213" x2="945.8545725697213" y1="1250.514992543327" y2="1247.514992543327"/>
      <line stroke="#009900" stroke-width="1" x1="950.7113941409365" x2="949.7113941409365" y1="1249.454366611243" y2="1246.454366611243"/>
      <line stroke="#009900" stroke-width="1" x1="954.5682157121516" x2="953.5682157121516" y1="1248.3937406791588" y2="1245.3937406791588"/>
      <line stroke="#ff0000" stroke-width="1" x1="964.0" x2="961.0" y1="1240.0" y2="1238.0"/>
      <line stroke="#ff0000" stroke-width="1" x1="965.9323093716454" x2="962.9323093716454" y1="1236.4976892638929" y2="1234.4976892638929"/>
      <line stroke="#ff0000" stroke-width="1" x1="967.8646187432907" x2="964.8646187432907" y1="1232.9953785277858" y2="1230.9953785277858"/>
      <line stroke="#ff0000" stroke-width="1" x1="969.7969281149361" x2="966.7969281149361" y1="1229.4930677916786" y2="1227.4930677916786"/>
      <line stroke="#ff0000" stroke-width="1" x1="971.7292374865815" x2="968.7292374865815" y1="1225.9907570555715" y2="1223.9907570555715"/>
      <line stroke="#ff0000" stroke-width="1" x1="973.6615468582269" x2="970.6615468582269" y1="1222.4884463194644" y2="1220.4884463194644"/>
      <line stroke="#ff0000" stroke-width="1" x1="975.5938562298722" x2="972.5938562298722" y1="1218.9861355833573" y2="1216.9861355833573"/>
      <line stroke="#ff0000" stroke-width="1" x1="977.5261656015176" x2="974.5261656015176" y1="1215.4838248472502" y2="1213.4838248472502"/>
      <line stroke="#ff0000" stroke-width="1" x1="979.458474973163" x2="976.458474973163" y1="1211.981514111143" y2="1209.981514111143"/>
      <polygon fill="#34349c" points="959.0,1196.0 962.0,1198.0 961.0,1199.0 958.0,1197.0" stroke="#34349c" stroke-width="1"/>
      <polygon fill="#ff0000" points="956.0,1194.0 959.0,1196.0 958.0,1197.0 955.0,1195.0" stroke="#ff0000" stroke-width="1"/>
      <text fill="#00afaf" font-family="Arial" font-size="15.0" stroke="none" stroke-width="0" transform="rotate(-105.0,661.0,459.0)" x="661.0" y="474.0">Цветной бульвар</text>
      <text fill="#00afaf" font-family="Arial" font-size="15.0" stroke="none" stroke-width="0" transform="rotate(-105.0,490.0,239.0)" x="490.0" y="254.0">&lt;&lt; Цирк</text>
      <polyline fill="none" marker-end="url(#id195)" points="107.0,784.0 126.0,795.0" stroke="#000000" stroke-width="1"/>
      <polyline fill="none" marker-end="url(#id195)" points="97.0,743.0 79.0,743.0" stroke="#000000" stroke-width="1"/>
      <polyline fill="none" marker-end="url(#id195)" points="157.0,234.0 180.0,218.0" stroke="#ff0000" stroke-width="1"/>
      <polyline fill="none" marker-end="url(#id195)" points="352.0,113.0 367.0,109.0" stroke="#ff0000" stroke-width="1"/>
      <polyline fill="none" marker-end="url(#id195)" points="947.0,1213.0 960.0,1221.0" stroke="#ff0000" stroke-width="1"/>
      <polyline fill="none" marker-end="url(#id195)" points="165.0,198.0 142.0,214.0" stroke="#009900" stroke-width="1"/>
      <polyline fill="none" marker-end="url(#id195)" points="369.0,53.0 362.0,68.0" stroke="#009900" stroke-width="1"/>
      <polyline fill="none" marker-end="url(#id195)" points="945.0,1280.0 940.0,1263.0" stroke="#009900" stroke-width="1"/>
    </g>
    <g>
      <rect fill="#615f56" height="30.0" stroke="none" stroke-width="0" width="30.0" x="647.0" y="70.0"/>
      <rect fill="#615f56" height="30.0" stroke="none" stroke-width="0" width="30.0" x="882.0" y="1190.0"/>
      <text fill="#ffd900" font-family="Arial" font-size="25.0" stroke="none" stroke-width="0" x="655.0" y="96.0">1</text>
      <text fill="#ffd900" font-family="Arial" font-size="25.0" stroke="none" stroke-width="0" x="890.0" y="1216.0">2</text>
    </g>
  </g>
</svg>
