<svg xmlns="http://www.w3.org/2000/svg" version="1.1">
<defs>
    <marker id="arrow"
      viewBox="0 0 10 10" refX="0" refY="5"
      markerUnits="strokeWidth"
      markerWidth="4" markerHeight="3"
      orient="auto">
      <path d="M 0 0 L 10 5 L 0 10 z" />
    </marker>
  </defs>
<g stroke="#000000" fill="none" stroke-opacity="1.0" fill-opacity="1.0" transform="scale(0.5)">
<rect x="0" y="0" width="840" height="720" stroke-width="0" fill="none" />
<g stroke="#000000" fill="none" stroke-opacity="1.0" fill-opacity="1.0" transform="scale(0.5)">
</g>
<g transform="rotate(38.0 420 360)" >
<g stroke="#000000" fill="none" stroke-opacity="1.0" fill-opacity="1.0" transform="scale(0.5)">
</g>
<g stroke="#000000" fill="#046434" stroke-opacity="1.0" fill-opacity="1.0" transform="scale(0.5)">
<polygon points="243,298  693,298  693,328  243,328" stroke-width="1" />
<polygon points="243,408  693,408  693,438  243,438" stroke-width="1" />
</g>
<g stroke="#046434" fill="none" stroke-opacity="1.0" fill-opacity="1.0" transform="scale(0.5)">
<text x=" 244" y="294.0" font-family="Arial" font-size=" 20" fill="#046434" stroke-width="0">&lt;&lt; Аэропорт</text>
<text x=" 558" y="458.0" font-family="Arial" font-size=" 20" fill="#046434" stroke-width="0">Белорусская &gt;&gt;</text>
<text x=" 424" y="378.0" font-family="Arial" font-size=" 25" fill="#046434" stroke-width="0">Динамо</text>
</g>
<g stroke="#34349C" fill="#34349C" stroke-opacity="1.0" fill-opacity="1.0" transform="scale(0.5)">
<polygon points="319,341  319,337  320,337  320,341" stroke-width="1" />
</g>
<g stroke="#FF0000" fill="#FF0000" stroke-opacity="1.0" fill-opacity="1.0" transform="scale(0.5)">
<polygon points="319,345  319,341  320,341  320,345" stroke-width="1" />
</g>
<g stroke="#CCCCCC" fill="#FEFBF1" stroke-opacity="1.0" fill-opacity="1.0" transform="scale(0.5)">
<polygon points="10,302  116,302  116,345  148,345  148,391  116,391  116,434  10,434" stroke-width="1" />
</g>
<g stroke="#000000" fill="#FEFBF1" stroke-opacity="1.0" fill-opacity="1.0" transform="scale(0.5)">
<polyline points="243,328  243,337  315,337  315,345  240,345  240,348" stroke-width="1" fill="none"  />
<polyline points="128,348  116,348  116,302  107,302  107,310  96,310  96,313" stroke-width="1" fill="none"  />
<polyline points="78,310  82,310" stroke-width="1" fill="none"  />
<polyline points="62,313  62,310  18,310  18,349  21,349" stroke-width="1" fill="none"  />
<polyline points="18,360  18,363" stroke-width="1" fill="none"  />
<polyline points="18,374  18,377" stroke-width="1" fill="none"  />
<polyline points="21,390  18,390  18,426  107,426  107,434  116,434  116,388  128,388" stroke-width="1" fill="none"  />
<polyline points="240,388  240,391  315,391  315,400  243,400  243,408" stroke-width="1" fill="none"  />
</g>
<g stroke="#7F7F7F" fill="#FEFBF1" stroke-opacity="1.0" fill-opacity="1.0" transform="scale(0.5)">
<line x1="242" y1="385" x2="242" y2="351" stroke-width="1" />
<line x1="238" y1="385" x2="238" y2="351" stroke-width="1" />
<line x1="234" y1="385" x2="234" y2="351" stroke-width="1" />
<line x1="230" y1="385" x2="230" y2="351" stroke-width="1" />
<line x1="226" y1="385" x2="226" y2="351" stroke-width="1" />
<line x1="222" y1="385" x2="222" y2="351" stroke-width="1" />
<line x1="218" y1="385" x2="218" y2="351" stroke-width="1" />
<line x1="214" y1="385" x2="214" y2="351" stroke-width="1" />
<line x1="210" y1="385" x2="210" y2="351" stroke-width="1" />
<line x1="206" y1="385" x2="206" y2="351" stroke-width="1" />
<line x1="202" y1="385" x2="202" y2="351" stroke-width="1" />
<line x1="198" y1="385" x2="198" y2="351" stroke-width="1" />
<line x1="194" y1="385" x2="194" y2="351" stroke-width="1" />
<line x1="190" y1="385" x2="190" y2="351" stroke-width="1" />
<line x1="186" y1="385" x2="186" y2="351" stroke-width="1" />
<line x1="182" y1="385" x2="182" y2="351" stroke-width="1" />
<line x1="178" y1="385" x2="178" y2="351" stroke-width="1" />
<line x1="174" y1="385" x2="174" y2="351" stroke-width="1" />
<line x1="170" y1="385" x2="170" y2="351" stroke-width="1" />
<line x1="166" y1="385" x2="166" y2="351" stroke-width="1" />
<line x1="162" y1="385" x2="162" y2="351" stroke-width="1" />
<line x1="158" y1="385" x2="158" y2="351" stroke-width="1" />
<line x1="154" y1="385" x2="154" y2="351" stroke-width="1" />
<line x1="150" y1="385" x2="150" y2="351" stroke-width="1" />
<line x1="146" y1="385" x2="146" y2="351" stroke-width="1" />
<line x1="142" y1="385" x2="142" y2="351" stroke-width="1" />
<line x1="138" y1="385" x2="138" y2="351" stroke-width="1" />
<line x1="134" y1="385" x2="134" y2="351" stroke-width="1" />
</g>
<g stroke="#000000" fill="#9B5509" stroke-opacity="1.0" fill-opacity="1.0" transform="scale(0.5)">
<polygon points="249,351  128,351  128,348  249,348" stroke-width="1" />
<polygon points="249,359  249,364  128,364  128,359" stroke-width="1" />
<polygon points="249,372  249,377  128,377  128,372" stroke-width="1" />
<polygon points="249,385  128,385  128,388  249,388" stroke-width="1" />
</g>
<g stroke="#000000" fill="none" stroke-opacity="1.0" fill-opacity="1.0" transform="scale(0.5)">
<polyline points="27,426  27,399  18,399" stroke-width="1" fill="none"  />
<text x=" 16" y="435.0" font-family="Arial" font-size=" 10" fill="#000000" transform="rotate(-90.0  16  425)" stroke-width="0">кассы</text>
</g>
<g stroke="#000000" fill="none" stroke-opacity="1.0" fill-opacity="1.0" transform="scale(0.5)">
<polygon points="57,417  63,417  63,423  57,423" stroke-width="1" />
<polyline points="128,361  68,361  57,350  57,310" stroke-width=" 0.5" fill="none"  />
</g>
<g stroke="#009900" fill="none" stroke-opacity="1.0" fill-opacity="1.0" transform="scale(0.5)">
<line x1="58" y1="412" x2="62" y2="412" stroke-width="1" />
<line x1="58" y1="408" x2="62" y2="408" stroke-width="1" />
<line x1="58" y1="404" x2="62" y2="404" stroke-width="1" />
<line x1="58" y1="400" x2="62" y2="400" stroke-width="1" />
<line x1="58" y1="396" x2="62" y2="396" stroke-width="1" />
<line x1="58" y1="392" x2="62" y2="392" stroke-width="1" />
<line x1="58" y1="388" x2="62" y2="388" stroke-width="1" />
<line x1="58" y1="384" x2="62" y2="384" stroke-width="1" />
<line x1="58" y1="380" x2="62" y2="380" stroke-width="1" />
<line x1="58" y1="376" x2="62" y2="376" stroke-width="1" />
<line x1="58" y1="372" x2="62" y2="372" stroke-width="1" />
<line x1="58" y1="368" x2="62" y2="368" stroke-width="1" />
<line x1="58" y1="364" x2="62" y2="364" stroke-width="1" />
<line x1="58" y1="360" x2="62" y2="360" stroke-width="1" />
<line x1="58" y1="356" x2="62" y2="356" stroke-width="1" />
</g>
<g stroke="#FF0000" fill="none" stroke-opacity="1.0" fill-opacity="1.0" transform="scale(0.5)">
<polyline points="79,332  79,321" marker-end="url(#arrow)" stroke-width="1" fill="none" />
<polyline points="297,358  275,358" marker-end="url(#arrow)" stroke-width="1" fill="none" />
</g>
<g stroke="#009900" fill="none" stroke-opacity="1.0" fill-opacity="1.0" transform="scale(0.5)">
<polyline points="70,378  84,378" marker-end="url(#arrow)" stroke-width="1" fill="none" />
<polyline points="275,377  297,377" marker-end="url(#arrow)" stroke-width="1" fill="none" />
</g>
<g stroke="#34349C" fill="#34349C" stroke-opacity="1.0" fill-opacity="1.0" transform="scale(0.5)">
<polygon points="44,421  40,421  40,422  44,422" stroke-width="1" />
</g>
<g stroke="#FF0000" fill="#FF0000" stroke-opacity="1.0" fill-opacity="1.0" transform="scale(0.5)">
<polygon points="48,421  44,421  44,422  48,422" stroke-width="1" />
</g>
<g stroke="#CCCCCC" fill="#FEFBF1" stroke-opacity="1.0" fill-opacity="1.0" transform="scale(0.5)">
<polygon points="783,302  893,302  893,434  783,434  783,396  751,396  751,346  783,346" stroke-width="1" />
</g>
<g stroke="#000000" fill="#FEFBF1" stroke-opacity="1.0" fill-opacity="1.0" transform="scale(0.5)">
<polyline points="693,328  693,338  621,338  621,347  663,347  663,350" stroke-width="1" fill="none"  />
<polyline points="772,350  791,350  791,302  800,302  800,310  885,310  885,349  882,349" stroke-width="1" fill="none"  />
<polyline points="885,363  885,360" stroke-width="1" fill="none"  />
<polyline points="885,376  885,373" stroke-width="1" fill="none"  />
<polyline points="882,390  885,390  885,426  840,426  840,422" stroke-width="1" fill="none"  />
<polyline points="825,426  820,426" stroke-width="1" fill="none"  />
<polyline points="804,422  804,426  799,426  799,434  791,434  791,390  772,390" stroke-width="1" fill="none"  />
<polyline points="663,390  663,393  621,393  621,400  693,400  693,408" stroke-width="1" fill="none"  />
</g>
<g stroke="#7F7F7F" fill="#FEFBF1" stroke-opacity="1.0" fill-opacity="1.0" transform="scale(0.5)">
<line x1="765" y1="387" x2="765" y2="353" stroke-width="1" />
<line x1="761" y1="387" x2="761" y2="353" stroke-width="1" />
<line x1="757" y1="387" x2="757" y2="353" stroke-width="1" />
<line x1="753" y1="387" x2="753" y2="353" stroke-width="1" />
<line x1="749" y1="387" x2="749" y2="353" stroke-width="1" />
<line x1="745" y1="387" x2="745" y2="353" stroke-width="1" />
<line x1="741" y1="387" x2="741" y2="353" stroke-width="1" />
<line x1="737" y1="387" x2="737" y2="353" stroke-width="1" />
<line x1="733" y1="387" x2="733" y2="353" stroke-width="1" />
<line x1="729" y1="387" x2="729" y2="353" stroke-width="1" />
<line x1="725" y1="387" x2="725" y2="353" stroke-width="1" />
<line x1="721" y1="387" x2="721" y2="353" stroke-width="1" />
<line x1="717" y1="387" x2="717" y2="353" stroke-width="1" />
<line x1="713" y1="387" x2="713" y2="353" stroke-width="1" />
<line x1="709" y1="387" x2="709" y2="353" stroke-width="1" />
<line x1="705" y1="387" x2="705" y2="353" stroke-width="1" />
<line x1="701" y1="387" x2="701" y2="353" stroke-width="1" />
<line x1="697" y1="387" x2="697" y2="353" stroke-width="1" />
<line x1="693" y1="387" x2="693" y2="353" stroke-width="1" />
<line x1="689" y1="387" x2="689" y2="353" stroke-width="1" />
<line x1="685" y1="387" x2="685" y2="353" stroke-width="1" />
<line x1="681" y1="387" x2="681" y2="353" stroke-width="1" />
<line x1="677" y1="387" x2="677" y2="353" stroke-width="1" />
<line x1="673" y1="387" x2="673" y2="353" stroke-width="1" />
<line x1="669" y1="387" x2="669" y2="353" stroke-width="1" />
<line x1="665" y1="387" x2="665" y2="353" stroke-width="1" />
<line x1="661" y1="387" x2="661" y2="353" stroke-width="1" />
</g>
<g stroke="#000000" fill="#9B5509" stroke-opacity="1.0" fill-opacity="1.0" transform="scale(0.5)">
<polygon points="772,353  653,353  653,350  772,350" stroke-width="1" />
<polygon points="772,361  772,366  653,366  653,361" stroke-width="1" />
<polygon points="772,374  772,379  653,379  653,374" stroke-width="1" />
<polygon points="772,387  653,387  653,390  772,390" stroke-width="1" />
</g>
<g stroke="#000000" fill="none" stroke-opacity="1.0" fill-opacity="1.0" transform="scale(0.5)">
<polyline points="876,310  876,337  885,337" stroke-width="1" fill="none"  />
<text x=" 874" y="346.0" font-family="Arial" font-size=" 10" fill="#000000" transform="rotate(-90.0  874  336)" stroke-width="0">кассы</text>
</g>
<g stroke="#000000" fill="none" stroke-opacity="1.0" fill-opacity="1.0" transform="scale(0.5)">
<polygon points="846,319  840,319  840,313  846,313" stroke-width="1" />
<polyline points="772,375  835,375  846,386  846,426" stroke-width=" 0.5" fill="none"  />
</g>
<g stroke="#009900" fill="none" stroke-opacity="1.0" fill-opacity="1.0" transform="scale(0.5)">
<line x1="845" y1="324" x2="841" y2="324" stroke-width="1" />
<line x1="845" y1="328" x2="841" y2="328" stroke-width="1" />
<line x1="845" y1="332" x2="841" y2="332" stroke-width="1" />
<line x1="845" y1="336" x2="841" y2="336" stroke-width="1" />
<line x1="845" y1="340" x2="841" y2="340" stroke-width="1" />
<line x1="845" y1="344" x2="841" y2="344" stroke-width="1" />
<line x1="845" y1="348" x2="841" y2="348" stroke-width="1" />
<line x1="845" y1="352" x2="841" y2="352" stroke-width="1" />
<line x1="845" y1="356" x2="841" y2="356" stroke-width="1" />
<line x1="845" y1="360" x2="841" y2="360" stroke-width="1" />
<line x1="845" y1="364" x2="841" y2="364" stroke-width="1" />
<line x1="845" y1="368" x2="841" y2="368" stroke-width="1" />
<line x1="845" y1="372" x2="841" y2="372" stroke-width="1" />
<line x1="845" y1="376" x2="841" y2="376" stroke-width="1" />
<line x1="845" y1="380" x2="841" y2="380" stroke-width="1" />
</g>
<g stroke="#FF0000" fill="none" stroke-opacity="1.0" fill-opacity="1.0" transform="scale(0.5)">
<polyline points="816,390  816,402" marker-end="url(#arrow)" stroke-width="1" fill="none" />
<polyline points="624,381  639,381" marker-end="url(#arrow)" stroke-width="1" fill="none" />
</g>
<g stroke="#009900" fill="none" stroke-opacity="1.0" fill-opacity="1.0" transform="scale(0.5)">
<polyline points="832,354  816,354" marker-end="url(#arrow)" stroke-width="1" fill="none" />
<polyline points="639,359  624,359" marker-end="url(#arrow)" stroke-width="1" fill="none" />
</g>
<g stroke="#34349C" fill="#34349C" stroke-opacity="1.0" fill-opacity="1.0" transform="scale(0.5)">
<polygon points="876,344  876,348  877,348  877,344" stroke-width="1" />
</g>
<g stroke="#FF0000" fill="#FF0000" stroke-opacity="1.0" fill-opacity="1.0" transform="scale(0.5)">
<polygon points="876,340  876,344  877,344  877,340" stroke-width="1" />
</g>
<g stroke="#00AFAF" fill="none" stroke-opacity="1.0" fill-opacity="1.0" transform="scale(0.5)">
<text x=" 348" y="564.0" font-family="Arial" font-size=" 15" fill="#00AFAF" stroke-width="0">Ленинградский проспект</text>
<text x=" 384" y="229.0" font-family="Arial" font-size=" 15" fill="#00AFAF" stroke-width="0">Московская аллея</text>
<text x=" -34" y="450.0" font-family="Arial" font-size=" 15" fill="#00AFAF" transform="rotate(-90.0  -34  435)" stroke-width="0">Театральная аллея</text>
<text x=" 184" y="141.0" font-family="Arial" font-size=" 15" fill="#00AFAF" stroke-width="0">'Стадион "Динамо"'</text>
<text x=" -32" y="282.0" font-family="Arial" font-size=" 15" fill="#00AFAF" stroke-width="0">&lt;&lt; Петровский парк</text>
</g>
</g>
</g>
</svg>
