<?xml version="1.0" encoding="utf-8" ?>
<svg baseProfile="full" height="100%" version="1.1" width="100%" xmlns="http://www.w3.org/2000/svg" xmlns:ev="http://www.w3.org/2001/xml-events" xmlns:xlink="http://www.w3.org/1999/xlink"><defs><marker id="id52" markerHeight="3" markerUnits="strokeWidth" markerWidth="4" orient="auto" refX="0" refY="5" viewBox="0,0,10,10"><path d="M 0 0 L 10 5 L 0 10 z" /></marker></defs><g transform="rotate(70.0,355,495) rotate(-70.0,355,495)"><rect fill="none" height="990" stroke="none" stroke-width="0" width="710" x="0" y="0" /><polygon fill="#9CA4A4" points="792,448 342,448 342,418 792,418" stroke="#000000" stroke-width="1" /><polygon fill="#9CA4A4" points="792,338 342,338 342,308 792,308" stroke="#000000" stroke-width="1" /><text fill="#4C4C4C" font-family="Arial" font-size="20" stroke="none" stroke-width="0" transform="rotate(-360.0,351,283)" x="351" y="303.0">&lt;&lt; Тимирязевская</text><text fill="#4C4C4C" font-family="Arial" font-size="20" stroke="none" stroke-width="0" transform="rotate(-360.0,651,448)" x="651" y="468.0">Савеловская &gt;&gt;</text><text fill="#4C4C4C" font-family="Arial" font-size="25" stroke="none" stroke-width="0" transform="rotate(-360.0,502,355)" x="502" y="380.0">Дмитровская</text><polygon fill="#34349C" points="569,388 569,392 570,392 570,388" stroke="#34349C" stroke-width="1" /><polygon fill="#FF0000" points="569,384 569,388 570,388 570,384" stroke="#FF0000" stroke-width="1" /><polyline fill="none" points="238,398 238,416 170,416 170,458 106,458 106,453 80,453 80,458 58,458 58,531 110,531" stroke="#000000" stroke-width="1" /><polyline fill="none" points="110,552 58,552 58,594" stroke="#000000" stroke-width="1" /><polyline fill="none" points="36,594 36,458 18,458 18,299 35,299 35,255 30,255 30,281" stroke="#000000" stroke-width="1" /><polyline fill="none" points="11,281 11,197" stroke="#000000" stroke-width="1" /><polyline fill="none" points="31,197 31,223 57,223 57,299 81,299 81,305 106,305 106,299 170,299 170,340 238,340 238,358" stroke="#000000" stroke-width="1" /><polyline fill="none" points="351,398 398,398 398,394 409,394 409,408 342,408 342,418" stroke="#000000" stroke-width="1" /><polyline fill="none" points="351,358 398,358 398,362 409,362 409,348 342,348 342,338" stroke="#000000" stroke-width="1" /><line stroke="#000000" stroke-width="1" x1="108" x2="108" y1="552" y2="531" /><line stroke="#000000" stroke-width="1" x1="104" x2="104" y1="552" y2="531" /><line stroke="#000000" stroke-width="1" x1="100" x2="100" y1="552" y2="531" /><line stroke="#000000" stroke-width="1" x1="96" x2="96" y1="552" y2="531" /><line stroke="#000000" stroke-width="1" x1="92" x2="92" y1="552" y2="531" /><line stroke="#000000" stroke-width="1" x1="88" x2="88" y1="552" y2="531" /><line stroke="#000000" stroke-width="1" x1="84" x2="84" y1="552" y2="531" /><line stroke="#000000" stroke-width="1" x1="80" x2="80" y1="552" y2="531" /><line stroke="#000000" stroke-width="1" x1="76" x2="76" y1="552" y2="531" /><line stroke="#000000" stroke-width="1" x1="72" x2="72" y1="552" y2="531" /><line stroke="#000000" stroke-width="1" x1="58" x2="36" y1="592" y2="592" /><line stroke="#000000" stroke-width="1" x1="58" x2="36" y1="588" y2="588" /><line stroke="#000000" stroke-width="1" x1="58" x2="36" y1="584" y2="584" /><line stroke="#000000" stroke-width="1" x1="58" x2="36" y1="580" y2="580" /><line stroke="#000000" stroke-width="1" x1="58" x2="36" y1="576" y2="576" /><line stroke="#000000" stroke-width="1" x1="58" x2="36" y1="572" y2="572" /><line stroke="#000000" stroke-width="1" x1="58" x2="36" y1="568" y2="568" /><line stroke="#000000" stroke-width="1" x1="58" x2="36" y1="564" y2="564" /><line stroke="#000000" stroke-width="1" x1="58" x2="36" y1="560" y2="560" /><line stroke="#000000" stroke-width="1" x1="58" x2="36" y1="556" y2="556" /><line stroke="#000000" stroke-width="1" x1="30" x2="11" y1="279" y2="279" /><line stroke="#000000" stroke-width="1" x1="30" x2="11" y1="275" y2="275" /><line stroke="#000000" stroke-width="1" x1="30" x2="11" y1="271" y2="271" /><line stroke="#000000" stroke-width="1" x1="30" x2="11" y1="267" y2="267" /><line stroke="#000000" stroke-width="1" x1="30" x2="11" y1="263" y2="263" /><line stroke="#000000" stroke-width="1" x1="30" x2="11" y1="259" y2="259" /><line stroke="#000000" stroke-width="1" x1="31" x2="11" y1="199" y2="199" /><line stroke="#000000" stroke-width="1" x1="31" x2="11" y1="203" y2="203" /><line stroke="#000000" stroke-width="1" x1="31" x2="11" y1="207" y2="207" /><line stroke="#000000" stroke-width="1" x1="31" x2="11" y1="211" y2="211" /><line stroke="#000000" stroke-width="1" x1="31" x2="11" y1="215" y2="215" /><line stroke="#000000" stroke-width="1" x1="31" x2="11" y1="219" y2="219" /><line stroke="#000000" stroke-width="1" x1="57" x2="35" y1="296" y2="296" /><line stroke="#000000" stroke-width="1" x1="57" x2="35" y1="292" y2="292" /><line stroke="#000000" stroke-width="1" x1="57" x2="35" y1="288" y2="288" /><line stroke="#000000" stroke-width="1" x1="61" x2="61" y1="299" y2="458" /><line stroke="#000000" stroke-width="1" x1="65" x2="65" y1="299" y2="458" /><line stroke="#000000" stroke-width="1" x1="69" x2="69" y1="299" y2="458" /><polygon fill="#D0D0D0" points="100,427 79,427 79,330 100,330" stroke="#000000" stroke-width="1" /><line stroke="#7F7F7F" stroke-width="1" x1="344" x2="344" y1="395" y2="361" /><line stroke="#7F7F7F" stroke-width="1" x1="340" x2="340" y1="395" y2="361" /><line stroke="#7F7F7F" stroke-width="1" x1="336" x2="336" y1="395" y2="361" /><line stroke="#7F7F7F" stroke-width="1" x1="332" x2="332" y1="395" y2="361" /><line stroke="#7F7F7F" stroke-width="1" x1="328" x2="328" y1="395" y2="361" /><line stroke="#7F7F7F" stroke-width="1" x1="324" x2="324" y1="395" y2="361" /><line stroke="#7F7F7F" stroke-width="1" x1="320" x2="320" y1="395" y2="361" /><line stroke="#7F7F7F" stroke-width="1" x1="316" x2="316" y1="395" y2="361" /><line stroke="#7F7F7F" stroke-width="1" x1="312" x2="312" y1="395" y2="361" /><line stroke="#7F7F7F" stroke-width="1" x1="308" x2="308" y1="395" y2="361" /><line stroke="#7F7F7F" stroke-width="1" x1="304" x2="304" y1="395" y2="361" /><line stroke="#7F7F7F" stroke-width="1" x1="300" x2="300" y1="395" y2="361" /><line stroke="#7F7F7F" stroke-width="1" x1="296" x2="296" y1="395" y2="361" /><line stroke="#7F7F7F" stroke-width="1" x1="292" x2="292" y1="395" y2="361" /><line stroke="#7F7F7F" stroke-width="1" x1="288" x2="288" y1="395" y2="361" /><line stroke="#7F7F7F" stroke-width="1" x1="284" x2="284" y1="395" y2="361" /><line stroke="#7F7F7F" stroke-width="1" x1="280" x2="280" y1="395" y2="361" /><line stroke="#7F7F7F" stroke-width="1" x1="276" x2="276" y1="395" y2="361" /><line stroke="#7F7F7F" stroke-width="1" x1="272" x2="272" y1="395" y2="361" /><line stroke="#7F7F7F" stroke-width="1" x1="268" x2="268" y1="395" y2="361" /><line stroke="#7F7F7F" stroke-width="1" x1="264" x2="264" y1="395" y2="361" /><line stroke="#7F7F7F" stroke-width="1" x1="260" x2="260" y1="395" y2="361" /><line stroke="#7F7F7F" stroke-width="1" x1="256" x2="256" y1="395" y2="361" /><line stroke="#7F7F7F" stroke-width="1" x1="252" x2="252" y1="395" y2="361" /><line stroke="#7F7F7F" stroke-width="1" x1="248" x2="248" y1="395" y2="361" /><line stroke="#7F7F7F" stroke-width="1" x1="244" x2="244" y1="395" y2="361" /><line stroke="#7F7F7F" stroke-width="1" x1="240" x2="240" y1="395" y2="361" /><line stroke="#7F7F7F" stroke-width="1" x1="236" x2="236" y1="395" y2="361" /><line stroke="#7F7F7F" stroke-width="1" x1="232" x2="232" y1="395" y2="361" /><line stroke="#7F7F7F" stroke-width="1" x1="228" x2="228" y1="395" y2="361" /><line stroke="#7F7F7F" stroke-width="1" x1="224" x2="224" y1="395" y2="361" /><line stroke="#7F7F7F" stroke-width="1" x1="220" x2="220" y1="395" y2="361" /><line stroke="#7F7F7F" stroke-width="1" x1="216" x2="216" y1="395" y2="361" /><line stroke="#7F7F7F" stroke-width="1" x1="212" x2="212" y1="395" y2="361" /><line stroke="#7F7F7F" stroke-width="1" x1="208" x2="208" y1="395" y2="361" /><line stroke="#7F7F7F" stroke-width="1" x1="204" x2="204" y1="395" y2="361" /><polygon fill="#9B5509" points="351,361 198,361 198,358 351,358" stroke="#000000" stroke-width="1" /><polygon fill="#9B5509" points="351,369 351,374 198,374 198,369" stroke="#000000" stroke-width="1" /><polygon fill="#9B5509" points="351,382 351,387 198,387 198,382" stroke="#000000" stroke-width="1" /><polygon fill="#9B5509" points="351,395 198,395 198,398 351,398" stroke="#000000" stroke-width="1" /><polyline fill="none" points="170,421 179,421 179,449 170,449" stroke="#000000" stroke-width="1" /><text fill="#000000" font-family="Arial" font-size="10" stroke="none" stroke-width="0" transform="rotate(-90.0,168,447)" x="168" y="457.0">кассы</text><polyline fill="none" points="126,351 126,368" stroke="#000000" stroke-width="0.5" /><polygon fill="none" points="126,368 130,372 126,376 122,372" stroke="#000000" stroke-width="1" /><line stroke="#009900" stroke-width="1" x1="130" x2="133" y1="379" y2="376" /><line stroke="#009900" stroke-width="1" x1="132.828427125" x2="135.828427125" y1="381.828427125" y2="378.828427125" /><line stroke="#009900" stroke-width="1" x1="135.656854249" x2="138.656854249" y1="384.656854249" y2="381.656854249" /><line stroke="#009900" stroke-width="1" x1="138.485281374" x2="141.485281374" y1="387.485281374" y2="384.485281374" /><line stroke="#009900" stroke-width="1" x1="141.313708499" x2="144.313708499" y1="390.313708499" y2="387.313708499" /><line stroke="#009900" stroke-width="1" x1="144.142135624" x2="147.142135624" y1="393.142135624" y2="390.142135624" /><line stroke="#009900" stroke-width="1" x1="146.970562748" x2="149.970562748" y1="395.970562748" y2="392.970562748" /><line stroke="#009900" stroke-width="1" x1="149.798989873" x2="152.798989873" y1="398.798989873" y2="395.798989873" /><line stroke="#009900" stroke-width="1" x1="152.627416998" x2="155.627416998" y1="401.627416998" y2="398.627416998" /><line stroke="#009900" stroke-width="1" x1="155.455844123" x2="158.455844123" y1="404.455844123" y2="401.455844123" /><line stroke="#009900" stroke-width="1" x1="158.284271247" x2="161.284271247" y1="407.284271247" y2="404.284271247" /><line stroke="#009900" stroke-width="1" x1="161.112698372" x2="164.112698372" y1="410.112698372" y2="407.112698372" /><line stroke="#009900" stroke-width="1" x1="163.941125497" x2="166.941125497" y1="412.941125497" y2="409.941125497" /><line stroke="#009900" stroke-width="1" x1="166.769552622" x2="169.769552622" y1="415.769552622" y2="412.769552622" /><line stroke="#FF0000" stroke-width="1" x1="124" x2="128" y1="351" y2="351" /><line stroke="#FF0000" stroke-width="1" x1="124" x2="128" y1="347" y2="347" /><line stroke="#FF0000" stroke-width="1" x1="124" x2="128" y1="343" y2="343" /><line stroke="#FF0000" stroke-width="1" x1="124" x2="128" y1="339" y2="339" /><line stroke="#FF0000" stroke-width="1" x1="124" x2="128" y1="335" y2="335" /><line stroke="#FF0000" stroke-width="1" x1="124" x2="128" y1="331" y2="331" /><line stroke="#FF0000" stroke-width="1" x1="124" x2="128" y1="327" y2="327" /><line stroke="#FF0000" stroke-width="1" x1="124" x2="128" y1="323" y2="323" /><line stroke="#FF0000" stroke-width="1" x1="124" x2="128" y1="319" y2="319" /><line stroke="#FF0000" stroke-width="1" x1="124" x2="128" y1="315" y2="315" /><line stroke="#FF0000" stroke-width="1" x1="124" x2="128" y1="311" y2="311" /><line stroke="#FF0000" stroke-width="1" x1="124" x2="128" y1="307" y2="307" /><line stroke="#FF0000" stroke-width="1" x1="124" x2="128" y1="303" y2="303" /><polyline fill="none" marker-end="url(#id52)" points="386,365 369,365" stroke="#FF0000" stroke-width="1" /><polyline fill="none" marker-end="url(#id52)" points="102,318 83,318" stroke="#FF0000" stroke-width="1" /><polyline fill="none" marker-end="url(#id52)" points="369,390 386,390" stroke="#009900" stroke-width="1" /><polyline fill="none" marker-end="url(#id52)" points="83,440 103,440" stroke="#009900" stroke-width="1" /><polygon fill="#34349C" points="158,337 162,337 162,338 158,338" stroke="#34349C" stroke-width="1" /><polygon fill="#FF0000" points="154,337 158,337 158,338 154,338" stroke="#FF0000" stroke-width="1" /><polyline fill="none" points="792,418 792,410 785,410 785,347 792,347 792,338" stroke="#000000" stroke-width="1" /><text fill="#00AFAF" font-family="Arial" font-size="15" stroke="none" stroke-width="0" transform="rotate(-360.0,-119,389)" x="-119" y="404.0">Дмитровское шоссе</text><text fill="#00AFAF" font-family="Arial" font-size="15" stroke="none" stroke-width="0" transform="rotate(-360.0,796,371)" x="796" y="386.0">Бутырская улица</text><text fill="#00AFAF" font-family="Arial" font-size="15" stroke="none" stroke-width="0" transform="rotate(-90.0,-29,721)" x="-29" y="736.0">'платформа "Дмитровская"'</text><text fill="#040464" font-family="Arial" font-size="12" stroke="none" stroke-width="0" x="10" y="143.0">'Схема перехода к пл."Дмитровская"'</text></g></svg>