<?xml version="1.0" encoding="utf-8" ?>
<svg baseProfile="full" height="100%" version="1.1" width="100%" xmlns="http://www.w3.org/2000/svg" xmlns:ev="http://www.w3.org/2001/xml-events" xmlns:xlink="http://www.w3.org/1999/xlink"><defs><marker id="id56" markerHeight="3" markerUnits="strokeWidth" markerWidth="4" orient="auto" refX="0" refY="5" viewBox="0,0,10,10"><path d="M 0 0 L 10 5 L 0 10 z" /></marker></defs><g transform="rotate(-25.0,325,385)"><rect fill="none" height="770" stroke="none" stroke-width="0" width="650" x="0" y="0" /><polygon fill="#34349C" points="11,373 11,343 461,343 461,373" stroke="#000000" stroke-width="1" /><polygon fill="#34349C" points="11,483 11,453 461,453 461,483" stroke="#000000" stroke-width="1" /><text fill="#34349C" font-family="Arial" font-size="20" stroke="none" stroke-width="0" x="14" y="338.0">&lt;&lt; Бауманская</text><text fill="#34349C" font-family="Arial" font-size="20" stroke="none" stroke-width="0" x="322" y="502.0">Семёновская &gt;&gt;</text><text fill="#34349C" font-family="Arial" font-size="25" stroke="none" stroke-width="0" x="131" y="425.0">Электрозаводская</text><polyline fill="none" points="11,373 11,386 54,386 54,381 106,381 106,390 96,390 96,436 106,436 106,445 54,445 54,440 11,440 11,453" stroke="#000000" stroke-width="1" /><ellipse cx="562" cy="413" fill="none" rx="62.0" ry="62.0" stroke="#F7F7F7" stroke-width="1" /><polyline fill="none" points="461,373 461,386 385,386 385,381 337,381 337,393 379,393" stroke="#000000" stroke-width="1" /><polyline fill="none" points="379,433 337,433 337,445 385,445 385,440 461,440 461,453" stroke="#000000" stroke-width="1" /><polyline fill="none" points="499,433 491,433 491,452 515,466 517,462" stroke="#000000" stroke-width="1" /><polyline fill="none" points="545,478 543,482 562,493 631,453 631,429 626,429" stroke="#000000" stroke-width="1" /><polyline fill="none" points="626,394 631,394 631,372 562,332 491,373 491,393" stroke="#000000" stroke-width="1" /><line stroke="#7F7F7F" stroke-width="1" x1="493" x2="493" y1="430" y2="396" /><line stroke="#7F7F7F" stroke-width="1" x1="489" x2="489" y1="430" y2="396" /><line stroke="#7F7F7F" stroke-width="1" x1="485" x2="485" y1="430" y2="396" /><line stroke="#7F7F7F" stroke-width="1" x1="481" x2="481" y1="430" y2="396" /><line stroke="#7F7F7F" stroke-width="1" x1="477" x2="477" y1="430" y2="396" /><line stroke="#7F7F7F" stroke-width="1" x1="473" x2="473" y1="430" y2="396" /><line stroke="#7F7F7F" stroke-width="1" x1="469" x2="469" y1="430" y2="396" /><line stroke="#7F7F7F" stroke-width="1" x1="465" x2="465" y1="430" y2="396" /><line stroke="#7F7F7F" stroke-width="1" x1="461" x2="461" y1="430" y2="396" /><line stroke="#7F7F7F" stroke-width="1" x1="457" x2="457" y1="430" y2="396" /><line stroke="#7F7F7F" stroke-width="1" x1="453" x2="453" y1="430" y2="396" /><line stroke="#7F7F7F" stroke-width="1" x1="449" x2="449" y1="430" y2="396" /><line stroke="#7F7F7F" stroke-width="1" x1="445" x2="445" y1="430" y2="396" /><line stroke="#7F7F7F" stroke-width="1" x1="441" x2="441" y1="430" y2="396" /><line stroke="#7F7F7F" stroke-width="1" x1="437" x2="437" y1="430" y2="396" /><line stroke="#7F7F7F" stroke-width="1" x1="433" x2="433" y1="430" y2="396" /><line stroke="#7F7F7F" stroke-width="1" x1="429" x2="429" y1="430" y2="396" /><line stroke="#7F7F7F" stroke-width="1" x1="425" x2="425" y1="430" y2="396" /><line stroke="#7F7F7F" stroke-width="1" x1="421" x2="421" y1="430" y2="396" /><line stroke="#7F7F7F" stroke-width="1" x1="417" x2="417" y1="430" y2="396" /><line stroke="#7F7F7F" stroke-width="1" x1="413" x2="413" y1="430" y2="396" /><line stroke="#7F7F7F" stroke-width="1" x1="409" x2="409" y1="430" y2="396" /><line stroke="#7F7F7F" stroke-width="1" x1="405" x2="405" y1="430" y2="396" /><line stroke="#7F7F7F" stroke-width="1" x1="401" x2="401" y1="430" y2="396" /><line stroke="#7F7F7F" stroke-width="1" x1="397" x2="397" y1="430" y2="396" /><line stroke="#7F7F7F" stroke-width="1" x1="393" x2="393" y1="430" y2="396" /><line stroke="#7F7F7F" stroke-width="1" x1="389" x2="389" y1="430" y2="396" /><line stroke="#7F7F7F" stroke-width="1" x1="385" x2="385" y1="430" y2="396" /><polygon fill="#9B5509" points="499,396 379,396 379,393 499,393" stroke="#000000" stroke-width="1" /><polygon fill="#9B5509" points="499,404 499,409 379,409 379,404" stroke="#000000" stroke-width="1" /><polygon fill="#9B5509" points="499,417 499,422 379,422 379,417" stroke="#000000" stroke-width="1" /><polygon fill="#9B5509" points="499,430 379,430 379,433 499,433" stroke="#000000" stroke-width="1" /><polyline fill="none" points="609,359 613,352 589,338 585,345" stroke="#000000" stroke-width="1" /><text fill="#000000" font-family="Arial" font-size="10" stroke="none" stroke-width="0" transform="rotate(30.0,592,336)" x="592" y="346.0">кассы</text><polyline fill="none" points="499,419 508,419 549,442 562,442 562,493" stroke="#000000" stroke-width="0.5" /><polygon fill="none" points="566,413 566,407 560,407 560,413" stroke="#000000" stroke-width="1" /><line stroke="#009900" stroke-width="1" x1="565" x2="561" y1="402" y2="402" /><line stroke="#009900" stroke-width="1" x1="564.939400895" x2="560.939400895" y1="398.000459058" y2="398.000459058" /><line stroke="#009900" stroke-width="1" x1="564.87880179" x2="560.87880179" y1="394.000918116" y2="394.000918116" /><line stroke="#009900" stroke-width="1" x1="564.818202684" x2="560.818202684" y1="390.001377173" y2="390.001377173" /><line stroke="#009900" stroke-width="1" x1="564.757603579" x2="560.757603579" y1="386.001836231" y2="386.001836231" /><line stroke="#009900" stroke-width="1" x1="564.697004474" x2="560.697004474" y1="382.002295289" y2="382.002295289" /><line stroke="#009900" stroke-width="1" x1="564.636405369" x2="560.636405369" y1="378.002754347" y2="378.002754347" /><line stroke="#009900" stroke-width="1" x1="564.575806264" x2="560.575806264" y1="374.003213404" y2="374.003213404" /><line stroke="#009900" stroke-width="1" x1="564.515207159" x2="560.515207159" y1="370.003672462" y2="370.003672462" /><line stroke="#009900" stroke-width="1" x1="564.454608053" x2="560.454608053" y1="366.00413152" y2="366.00413152" /><line stroke="#009900" stroke-width="1" x1="564.394008948" x2="560.394008948" y1="362.004590578" y2="362.004590578" /><line stroke="#009900" stroke-width="1" x1="564.333409843" x2="560.333409843" y1="358.005049636" y2="358.005049636" /><line stroke="#009900" stroke-width="1" x1="564.272810738" x2="560.272810738" y1="354.005508693" y2="354.005508693" /><line stroke="#009900" stroke-width="1" x1="564.212211633" x2="560.212211633" y1="350.005967751" y2="350.005967751" /><line stroke="#009900" stroke-width="1" x1="564.151612527" x2="560.151612527" y1="346.006426809" y2="346.006426809" /><line stroke="#009900" stroke-width="1" x1="564.091013422" x2="560.091013422" y1="342.006885867" y2="342.006885867" /><line stroke="#009900" stroke-width="1" x1="564.030414317" x2="560.030414317" y1="338.007344925" y2="338.007344925" /><line stroke="#009900" stroke-width="1" x1="565" x2="561" y1="441" y2="441" /><line stroke="#009900" stroke-width="1" x1="565" x2="561" y1="437" y2="437" /><line stroke="#009900" stroke-width="1" x1="565" x2="561" y1="433" y2="433" /><line stroke="#009900" stroke-width="1" x1="565" x2="561" y1="429" y2="429" /><line stroke="#009900" stroke-width="1" x1="565" x2="561" y1="425" y2="425" /><line stroke="#009900" stroke-width="1" x1="565" x2="561" y1="421" y2="421" /><line stroke="#009900" stroke-width="1" x1="565" x2="561" y1="417" y2="417" /><polyline fill="none" marker-end="url(#id56)" points="525,450 536,462 526,480" stroke="#FF0000" stroke-width="1" /><polyline fill="none" marker-end="url(#id56)" points="534,399 518,399" stroke="#009900" stroke-width="1" /><polyline fill="none" marker-end="url(#id56)" points="631,410 611,410" stroke="#009900" stroke-width="1" /><text fill="#00AFAF" font-family="Arial" font-size="15" stroke="none" stroke-width="0" transform="rotate(35.0,495,42)" x="495" y="57.0">улица Большая Сёменовская</text><text fill="#00AFAF" font-family="Arial" font-size="15" stroke="none" stroke-width="0" transform="rotate(50.0,225,584)" x="225" y="599.0">платформа Электрозаводская</text><text fill="#00AFAF" font-family="Arial" font-size="15" stroke="none" stroke-width="0" transform="rotate(50.0,215,595)" x="215" y="610.0">Казанского направления ж/д</text><text fill="#040464" font-family="Arial" font-size="15" stroke="none" stroke-width="0" x="243" y="763.0">'Схема ж/д пл. "Электрозаводская"'</text></g></svg>