<svg xmlns="http://www.w3.org/2000/svg" version="1.1">
<defs>
    <marker id="arrow"
      viewBox="0 0 10 10" refX="0" refY="5"
      markerUnits="strokeWidth"
      markerWidth="4" markerHeight="3"
      orient="auto">
      <path d="M 0 0 L 10 5 L 0 10 z" />
    </marker>
  </defs>
<g stroke="#000000" fill="none" stroke-opacity="1.0" fill-opacity="1.0" transform="scale(0.5)">
<rect x="0" y="0" width="650" height="770" stroke-width="0" fill="none" />
<g stroke="#000000" fill="none" stroke-opacity="1.0" fill-opacity="1.0" transform="scale(0.5)">
</g>
<g transform="rotate(-25.0 325 385)" >
<g stroke="#000000" fill="none" stroke-opacity="1.0" fill-opacity="1.0" transform="scale(0.5)">
</g>
<g stroke="#000000" fill="#34349C" stroke-opacity="1.0" fill-opacity="1.0" transform="scale(0.5)">
<polygon points="11,373  11,343  461,343  461,373" stroke-width="1" />
<polygon points="11,483  11,453  461,453  461,483" stroke-width="1" />
</g>
<g stroke="#34349C" fill="none" stroke-opacity="1.0" fill-opacity="1.0" transform="scale(0.5)">
<text x=" 14" y="338.0" font-family="Arial" font-size=" 20" fill="#34349C" stroke-width="0">&lt;&lt; Бауманская</text>
<text x=" 322" y="502.0" font-family="Arial" font-size=" 20" fill="#34349C" stroke-width="0">Семёновская &gt;&gt;</text>
<text x=" 131" y="425.0" font-family="Arial" font-size=" 25" fill="#34349C" stroke-width="0">Электрозаводская</text>
</g>
<g stroke="#000000" fill="none" stroke-opacity="1.0" fill-opacity="1.0" transform="scale(0.5)">
<polyline points="11,373  11,386  54,386  54,381  106,381  106,390  96,390  96,436  106,436  106,445  54,445  54,440  11,440  11,453" stroke-width="1" fill="none"  />
</g>
<g stroke="#F7F7F7" fill="none" stroke-opacity="1.0" fill-opacity="1.0" transform="scale(0.5)">
<ellipse cx="562" cy="413" rx="62.0" ry="62.0" />
</g>
<g stroke="#000000" fill="none" stroke-opacity="1.0" fill-opacity="1.0" transform="scale(0.5)">
<polyline points="461,373  461,386  385,386  385,381  337,381  337,393  379,393" stroke-width="1" fill="none"  />
<polyline points="379,433  337,433  337,445  385,445  385,440  461,440  461,453" stroke-width="1" fill="none"  />
<polyline points="499,433  491,433  491,452  515,466  517,462" stroke-width="1" fill="none"  />
<polyline points="545,478  543,482  562,493  631,453  631,429  626,429" stroke-width="1" fill="none"  />
<polyline points="626,394  631,394  631,372  562,332  491,373  491,393" stroke-width="1" fill="none"  />
</g>
<g stroke="#7F7F7F" fill="none" stroke-opacity="1.0" fill-opacity="1.0" transform="scale(0.5)">
<line x1="493" y1="430" x2="493" y2="396" stroke-width="1" />
<line x1="489" y1="430" x2="489" y2="396" stroke-width="1" />
<line x1="485" y1="430" x2="485" y2="396" stroke-width="1" />
<line x1="481" y1="430" x2="481" y2="396" stroke-width="1" />
<line x1="477" y1="430" x2="477" y2="396" stroke-width="1" />
<line x1="473" y1="430" x2="473" y2="396" stroke-width="1" />
<line x1="469" y1="430" x2="469" y2="396" stroke-width="1" />
<line x1="465" y1="430" x2="465" y2="396" stroke-width="1" />
<line x1="461" y1="430" x2="461" y2="396" stroke-width="1" />
<line x1="457" y1="430" x2="457" y2="396" stroke-width="1" />
<line x1="453" y1="430" x2="453" y2="396" stroke-width="1" />
<line x1="449" y1="430" x2="449" y2="396" stroke-width="1" />
<line x1="445" y1="430" x2="445" y2="396" stroke-width="1" />
<line x1="441" y1="430" x2="441" y2="396" stroke-width="1" />
<line x1="437" y1="430" x2="437" y2="396" stroke-width="1" />
<line x1="433" y1="430" x2="433" y2="396" stroke-width="1" />
<line x1="429" y1="430" x2="429" y2="396" stroke-width="1" />
<line x1="425" y1="430" x2="425" y2="396" stroke-width="1" />
<line x1="421" y1="430" x2="421" y2="396" stroke-width="1" />
<line x1="417" y1="430" x2="417" y2="396" stroke-width="1" />
<line x1="413" y1="430" x2="413" y2="396" stroke-width="1" />
<line x1="409" y1="430" x2="409" y2="396" stroke-width="1" />
<line x1="405" y1="430" x2="405" y2="396" stroke-width="1" />
<line x1="401" y1="430" x2="401" y2="396" stroke-width="1" />
<line x1="397" y1="430" x2="397" y2="396" stroke-width="1" />
<line x1="393" y1="430" x2="393" y2="396" stroke-width="1" />
<line x1="389" y1="430" x2="389" y2="396" stroke-width="1" />
<line x1="385" y1="430" x2="385" y2="396" stroke-width="1" />
</g>
<g stroke="#000000" fill="#9B5509" stroke-opacity="1.0" fill-opacity="1.0" transform="scale(0.5)">
<polygon points="499,396  379,396  379,393  499,393" stroke-width="1" />
<polygon points="499,404  499,409  379,409  379,404" stroke-width="1" />
<polygon points="499,417  499,422  379,422  379,417" stroke-width="1" />
<polygon points="499,430  379,430  379,433  499,433" stroke-width="1" />
</g>
<g stroke="#000000" fill="none" stroke-opacity="1.0" fill-opacity="1.0" transform="scale(0.5)">
<polyline points="609,359  613,352  589,338  585,345" stroke-width="1" fill="none"  />
<text x=" 592" y="346.0" font-family="Arial" font-size=" 10" fill="#000000" transform="rotate(30.0  592  336)" stroke-width="0">кассы</text>
</g>
<g stroke="#000000" fill="none" stroke-opacity="1.0" fill-opacity="1.0" transform="scale(0.5)">
<polyline points="499,419  508,419  549,442  562,442  562,493" stroke-width=" 0.5" fill="none"  />
<polygon points="566,413  566,407  560,407  560,413" stroke-width="1" />
</g>
<g stroke="#009900" fill="none" stroke-opacity="1.0" fill-opacity="1.0" transform="scale(0.5)">
<line x1="565" y1="402" x2="561" y2="402" stroke-width="1" />
<line x1="564.939400895" y1="398.000459058" x2="560.939400895" y2="398.000459058" stroke-width="1" />
<line x1="564.87880179" y1="394.000918116" x2="560.87880179" y2="394.000918116" stroke-width="1" />
<line x1="564.818202684" y1="390.001377173" x2="560.818202684" y2="390.001377173" stroke-width="1" />
<line x1="564.757603579" y1="386.001836231" x2="560.757603579" y2="386.001836231" stroke-width="1" />
<line x1="564.697004474" y1="382.002295289" x2="560.697004474" y2="382.002295289" stroke-width="1" />
<line x1="564.636405369" y1="378.002754347" x2="560.636405369" y2="378.002754347" stroke-width="1" />
<line x1="564.575806264" y1="374.003213404" x2="560.575806264" y2="374.003213404" stroke-width="1" />
<line x1="564.515207159" y1="370.003672462" x2="560.515207159" y2="370.003672462" stroke-width="1" />
<line x1="564.454608053" y1="366.00413152" x2="560.454608053" y2="366.00413152" stroke-width="1" />
<line x1="564.394008948" y1="362.004590578" x2="560.394008948" y2="362.004590578" stroke-width="1" />
<line x1="564.333409843" y1="358.005049636" x2="560.333409843" y2="358.005049636" stroke-width="1" />
<line x1="564.272810738" y1="354.005508693" x2="560.272810738" y2="354.005508693" stroke-width="1" />
<line x1="564.212211633" y1="350.005967751" x2="560.212211633" y2="350.005967751" stroke-width="1" />
<line x1="564.151612527" y1="346.006426809" x2="560.151612527" y2="346.006426809" stroke-width="1" />
<line x1="564.091013422" y1="342.006885867" x2="560.091013422" y2="342.006885867" stroke-width="1" />
<line x1="564.030414317" y1="338.007344925" x2="560.030414317" y2="338.007344925" stroke-width="1" />
<line x1="565" y1="441" x2="561" y2="441" stroke-width="1" />
<line x1="565" y1="437" x2="561" y2="437" stroke-width="1" />
<line x1="565" y1="433" x2="561" y2="433" stroke-width="1" />
<line x1="565" y1="429" x2="561" y2="429" stroke-width="1" />
<line x1="565" y1="425" x2="561" y2="425" stroke-width="1" />
<line x1="565" y1="421" x2="561" y2="421" stroke-width="1" />
<line x1="565" y1="417" x2="561" y2="417" stroke-width="1" />
</g>
<g stroke="#FF0000" fill="none" stroke-opacity="1.0" fill-opacity="1.0" transform="scale(0.5)">
<polyline points="525,450  536,462  526,480" marker-end="url(#arrow)" stroke-width="1" fill="none" />
</g>
<g stroke="#009900" fill="none" stroke-opacity="1.0" fill-opacity="1.0" transform="scale(0.5)">
<polyline points="534,399  518,399" marker-end="url(#arrow)" stroke-width="1" fill="none" />
<polyline points="631,410  611,410" marker-end="url(#arrow)" stroke-width="1" fill="none" />
</g>
<g stroke="#00AFAF" fill="none" stroke-opacity="1.0" fill-opacity="1.0" transform="scale(0.5)">
<text x=" 495" y="57.0" font-family="Arial" font-size=" 15" fill="#00AFAF" transform="rotate(35.0  495  42)" stroke-width="0">улица Большая Сёменовская</text>
<text x=" 225" y="599.0" font-family="Arial" font-size=" 15" fill="#00AFAF" transform="rotate(50.0  225  584)" stroke-width="0">платформа Электрозаводская</text>
<text x=" 215" y="610.0" font-family="Arial" font-size=" 15" fill="#00AFAF" transform="rotate(50.0  215  595)" stroke-width="0">Казанского направления ж/д</text>
</g>
<g stroke="#040464" fill="none" stroke-opacity="1.0" fill-opacity="1.0" transform="scale(0.5)">
<text x=" 243" y="763.0" font-family="Arial" font-size=" 15" fill="#040464" stroke-width="0">'Схема ж/д пл. "Электрозаводская"'</text>
</g>
</g>
</g>
</svg>
