<?xml version="1.0" encoding="utf-8" ?>
<svg baseProfile="full" height="380.0" version="1.1" width="500.0" xmlns="http://www.w3.org/2000/svg" xmlns:ev="http://www.w3.org/2001/xml-events" xmlns:xlink="http://www.w3.org/1999/xlink">
  <defs>
    <marker id="id202" markerHeight="3" markerUnits="strokeWidth" markerWidth="4" orient="auto" refX="0" refY="5" viewBox="0,0,10,10">
      <path d="M 0 0 L 10 5 L 0 10 z"/>
    </marker>
  </defs>
  <g>
    <rect fill="none" height="380.0" stroke="none" stroke-width="0" width="500.0" x="0.0" y="0.0"/>
    <g transform="rotate(-25.0,250.0,190.0)">
      <polygon fill="#2c7cac" points="20.0,149.0 20.0,119.0 470.0,119.0 470.0,149.0" stroke="#000000" stroke-width="1"/>
      <polygon fill="#2c7cac" points="20.0,259.0 20.0,229.0 470.0,229.0 470.0,259.0" stroke="#000000" stroke-width="1"/>
      <text fill="#2c7cac" font-family="Arial" font-size="20.0" stroke="none" stroke-width="0" x="23.0" y="117.0">&lt;&lt; Пионерская</text>
      <text fill="#2c7cac" font-family="Arial" font-size="25.0" stroke="none" stroke-width="0" x="173.0" y="303.0">Филёвский парк</text>
      <text fill="#2c7cac" font-family="Arial" font-size="20.0" stroke="none" stroke-width="0" x="311.0" y="279.0">Багратионовская &gt;&gt;</text>
      <polyline fill="none" points="470.0,149.0 470.0,229.0" stroke="#000000" stroke-width="1"/>
      <polyline fill="none" points="20.0,229.0 20.0,149.0" stroke="#000000" stroke-width="1"/>
      <polyline fill="none" points="122.0,206.0 67.0,206.0 67.0,172.0 122.0,172.0" stroke="#000000" stroke-width="1"/>
      <polyline fill="none" points="375.0,172.0 432.0,172.0 432.0,206.0 375.0,206.0" stroke="#000000" stroke-width="1"/>
      <line stroke="#000000" stroke-width="1" x1="158.0" x2="158.0" y1="202.0" y2="176.0"/>
      <line stroke="#000000" stroke-width="1" x1="154.0" x2="154.0" y1="202.0" y2="176.0"/>
      <line stroke="#000000" stroke-width="1" x1="150.0" x2="150.0" y1="202.0" y2="176.0"/>
      <line stroke="#000000" stroke-width="1" x1="146.0" x2="146.0" y1="202.0" y2="176.0"/>
      <line stroke="#000000" stroke-width="1" x1="142.0" x2="142.0" y1="202.0" y2="176.0"/>
      <line stroke="#000000" stroke-width="1" x1="138.0" x2="138.0" y1="202.0" y2="176.0"/>
      <line stroke="#000000" stroke-width="1" x1="134.0" x2="134.0" y1="202.0" y2="176.0"/>
      <line stroke="#000000" stroke-width="1" x1="130.0" x2="130.0" y1="202.0" y2="176.0"/>
      <line stroke="#000000" stroke-width="1" x1="126.0" x2="126.0" y1="202.0" y2="176.0"/>
      <line stroke="#000000" stroke-width="1" x1="343.0" x2="343.0" y1="202.0" y2="176.0"/>
      <line stroke="#000000" stroke-width="1" x1="347.0" x2="347.0" y1="202.0" y2="176.0"/>
      <line stroke="#000000" stroke-width="1" x1="351.0" x2="351.0" y1="202.0" y2="176.0"/>
      <line stroke="#000000" stroke-width="1" x1="355.0" x2="355.0" y1="202.0" y2="176.0"/>
      <line stroke="#000000" stroke-width="1" x1="359.0" x2="359.0" y1="202.0" y2="176.0"/>
      <line stroke="#000000" stroke-width="1" x1="363.0" x2="363.0" y1="202.0" y2="176.0"/>
      <line stroke="#000000" stroke-width="1" x1="367.0" x2="367.0" y1="202.0" y2="176.0"/>
      <line stroke="#000000" stroke-width="1" x1="371.0" x2="371.0" y1="202.0" y2="176.0"/>
      <polygon fill="#d0d0d0" points="375.0,172.0 375.0,176.0 311.0,176.0 311.0,172.0" stroke="#000000" stroke-width="1"/>
      <polygon fill="#d0d0d0" points="311.0,206.0 311.0,202.0 375.0,202.0 375.0,206.0" stroke="#000000" stroke-width="1"/>
      <polygon fill="#d0d0d0" points="187.0,206.0 187.0,202.0 122.0,202.0 122.0,206.0" stroke="#000000" stroke-width="1"/>
      <polygon fill="#d0d0d0" points="187.0,172.0 187.0,176.0 122.0,176.0 122.0,172.0" stroke="#000000" stroke-width="1"/>
    </g>
    <g fill="#d0d0d0" fill-opacity="0.8" stroke="#000000" stroke-opacity="0.8" transform="rotate(-25.0,250.0,190.0)">
      <polygon fill="#ffffff" points="210.0,140.0 210.0,115.0 288.0,115.0 288.0,140.0 432.0,140.0 432.0,239.0 288.0,239.0 288.0,263.0 210.0,263.0 210.0,239.0 67.0,239.0 67.0,140.0" stroke="#ffffff" stroke-width="1"/>
      <polyline fill="none" points="187.0,145.0 187.0,140.0 67.0,140.0 67.0,239.0 187.0,239.0 187.0,233.0" stroke="#000000" stroke-width="1"/>
      <polyline fill="none" points="187.0,210.0 187.0,168.0" stroke="#000000" stroke-width="1"/>
      <polyline fill="none" points="311.0,234.0 311.0,239.0 432.0,239.0 432.0,140.0 311.0,140.0 311.0,145.0" stroke="#000000" stroke-width="1"/>
      <polyline fill="none" points="311.0,168.0 311.0,210.0" stroke="#000000" stroke-width="1"/>
      <polyline fill="none" points="122.0,172.0 130.0,172.0 135.0,177.0 161.0,177.0 166.0,172.0 170.0,172.0 170.0,206.0 122.0,206.0" stroke="#000000" stroke-width="1"/>
      <polyline fill="none" points="375.0,172.0 327.0,172.0 327.0,206.0 331.0,206.0 336.0,201.0 362.0,201.0 367.0,206.0 375.0,206.0" stroke="#000000" stroke-width="1"/>
      <line stroke="#000000" stroke-width="1" x1="110.0" x2="110.0" y1="202.0" y2="176.0"/>
      <line stroke="#000000" stroke-width="1" x1="106.0" x2="106.0" y1="202.0" y2="176.0"/>
      <line stroke="#000000" stroke-width="1" x1="102.0" x2="102.0" y1="202.0" y2="176.0"/>
      <line stroke="#000000" stroke-width="1" x1="98.0" x2="98.0" y1="202.0" y2="176.0"/>
      <line stroke="#000000" stroke-width="1" x1="94.0" x2="94.0" y1="202.0" y2="176.0"/>
      <line stroke="#000000" stroke-width="1" x1="90.0" x2="90.0" y1="202.0" y2="176.0"/>
      <line stroke="#000000" stroke-width="1" x1="86.0" x2="86.0" y1="202.0" y2="176.0"/>
      <line stroke="#000000" stroke-width="1" x1="82.0" x2="82.0" y1="202.0" y2="176.0"/>
      <line stroke="#000000" stroke-width="1" x1="387.0" x2="387.0" y1="201.0" y2="176.0"/>
      <line stroke="#000000" stroke-width="1" x1="391.0" x2="391.0" y1="201.0" y2="176.0"/>
      <line stroke="#000000" stroke-width="1" x1="395.0" x2="395.0" y1="201.0" y2="176.0"/>
      <line stroke="#000000" stroke-width="1" x1="399.0" x2="399.0" y1="201.0" y2="176.0"/>
      <line stroke="#000000" stroke-width="1" x1="403.0" x2="403.0" y1="201.0" y2="176.0"/>
      <line stroke="#000000" stroke-width="1" x1="407.0" x2="407.0" y1="201.0" y2="176.0"/>
      <line stroke="#000000" stroke-width="1" x1="411.0" x2="411.0" y1="201.0" y2="176.0"/>
      <line stroke="#000000" stroke-width="1" x1="415.0" x2="415.0" y1="201.0" y2="176.0"/>
      <polygon fill="#d0d0d0" points="80.0,176.0 80.0,172.0 122.0,172.0 122.0,206.0 79.0,206.0 79.0,202.0 117.0,202.0 117.0,176.0" stroke="#000000" stroke-width="1"/>
      <polygon fill="#d0d0d0" points="418.0,206.0 418.0,201.0 380.0,201.0 380.0,176.0 418.0,176.0 418.0,172.0 375.0,172.0 375.0,206.0" stroke="#000000" stroke-width="1"/>
      <polyline fill="none" points="336.0,201.0 336.0,192.0 362.0,192.0 362.0,201.0" stroke="#000000" stroke-width="1"/>
      <text fill="#000000" font-family="Arial" font-size="10.0" stroke="none" stroke-width="0" x="337.0" y="200.0">кассы</text>
      <polyline fill="none" points="135.0,177.0 135.0,185.0 161.0,185.0 161.0,177.0" stroke="#000000" stroke-width="1"/>
      <text fill="#000000" font-family="Arial" font-size="10.0" stroke="none" stroke-width="0" x="136.0" y="184.0">кассы</text>
      <polygon fill="none" points="370.0,207.0 367.0,210.0 370.0,213.0 373.0,210.0" stroke="#000000" stroke-width="1"/>
      <polygon fill="none" points="128.0,166.0 125.0,169.0 128.0,172.0 131.0,169.0" stroke="#000000" stroke-width="1"/>
      <line stroke="#009900" stroke-width="1" x1="370.0" x2="374.0" y1="217.0" y2="217.0"/>
      <line stroke="#009900" stroke-width="1" x1="370.0" x2="374.0" y1="221.0" y2="221.0"/>
      <line stroke="#009900" stroke-width="1" x1="370.0" x2="374.0" y1="225.0" y2="225.0"/>
      <line stroke="#009900" stroke-width="1" x1="370.0" x2="374.0" y1="229.0" y2="229.0"/>
      <line stroke="#009900" stroke-width="1" x1="370.0" x2="374.0" y1="233.0" y2="233.0"/>
      <line stroke="#009900" stroke-width="1" x1="370.0" x2="374.0" y1="237.0" y2="237.0"/>
      <line stroke="#009900" stroke-width="1" x1="126.0" x2="130.0" y1="144.0" y2="144.0"/>
      <line stroke="#009900" stroke-width="1" x1="126.0" x2="130.0" y1="148.0" y2="148.0"/>
      <line stroke="#009900" stroke-width="1" x1="126.0" x2="130.0" y1="152.0" y2="152.0"/>
      <line stroke="#009900" stroke-width="1" x1="126.0" x2="130.0" y1="156.0" y2="156.0"/>
      <line stroke="#009900" stroke-width="1" x1="126.0" x2="130.0" y1="160.0" y2="160.0"/>
      <line stroke="#009900" stroke-width="1" x1="126.0" x2="130.0" y1="164.0" y2="164.0"/>
      <line stroke="#ff0000" stroke-width="1" x1="370.0" x2="374.0" y1="168.0" y2="168.0"/>
      <line stroke="#ff0000" stroke-width="1" x1="370.0" x2="374.0" y1="164.0" y2="164.0"/>
      <line stroke="#ff0000" stroke-width="1" x1="370.0" x2="374.0" y1="160.0" y2="160.0"/>
      <line stroke="#ff0000" stroke-width="1" x1="370.0" x2="374.0" y1="156.0" y2="156.0"/>
      <line stroke="#ff0000" stroke-width="1" x1="370.0" x2="374.0" y1="152.0" y2="152.0"/>
      <line stroke="#ff0000" stroke-width="1" x1="370.0" x2="374.0" y1="148.0" y2="148.0"/>
      <line stroke="#ff0000" stroke-width="1" x1="370.0" x2="374.0" y1="144.0" y2="144.0"/>
      <line stroke="#ff0000" stroke-width="1" x1="130.0" x2="126.0" y1="210.0" y2="210.0"/>
      <line stroke="#ff0000" stroke-width="1" x1="130.0" x2="126.0" y1="214.0" y2="214.0"/>
      <line stroke="#ff0000" stroke-width="1" x1="130.0" x2="126.0" y1="218.0" y2="218.0"/>
      <line stroke="#ff0000" stroke-width="1" x1="130.0" x2="126.0" y1="222.0" y2="222.0"/>
      <line stroke="#ff0000" stroke-width="1" x1="130.0" x2="126.0" y1="226.0" y2="226.0"/>
      <line stroke="#ff0000" stroke-width="1" x1="130.0" x2="126.0" y1="230.0" y2="230.0"/>
      <line stroke="#ff0000" stroke-width="1" x1="130.0" x2="126.0" y1="234.0" y2="234.0"/>
      <polygon fill="#34349c" points="75.0,236.0 71.0,236.0 71.0,237.0 75.0,237.0" stroke="#34349c" stroke-width="1"/>
      <polygon fill="#ff0000" points="79.0,236.0 75.0,236.0 75.0,237.0 79.0,237.0" stroke="#ff0000" stroke-width="1"/>
      <polygon fill="#34349c" points="313.0,189.0 313.0,185.0 314.0,185.0 314.0,189.0" stroke="#34349c" stroke-width="1"/>
      <polygon fill="#ff0000" points="313.0,193.0 313.0,189.0 314.0,189.0 314.0,193.0" stroke="#ff0000" stroke-width="1"/>
      <polyline fill="none" marker-end="url(#id202)" points="320.0,161.0 301.0,161.0" stroke="#ff0000" stroke-width="1"/>
      <polyline fill="none" marker-end="url(#id202)" points="176.0,225.0 196.0,225.0" stroke="#ff0000" stroke-width="1"/>
      <polyline fill="none" marker-end="url(#id202)" points="96.0,195.0 76.0,195.0" stroke="#ff0000" stroke-width="1"/>
      <polyline fill="none" marker-end="url(#id202)" points="405.0,183.0 422.0,183.0" stroke="#ff0000" stroke-width="1"/>
      <polyline fill="none" marker-end="url(#id202)" points="195.0,161.0 177.0,161.0" stroke="#009900" stroke-width="1"/>
      <polyline fill="none" marker-end="url(#id202)" points="301.0,226.0 320.0,226.0" stroke="#009900" stroke-width="1"/>
      <polyline fill="none" marker-end="url(#id202)" points="77.0,183.0 96.0,183.0" stroke="#009900" stroke-width="1"/>
      <polyline fill="none" marker-end="url(#id202)" points="422.0,195.0 405.0,195.0" stroke="#009900" stroke-width="1"/>
    </g>
    <g fill="#ffffff" fill-opacity="1.0" stroke="#009900" stroke-opacity="1.0" transform="rotate(-25.0,250.0,190.0)">
      <polyline fill="none" points="219.0,277.0 219.0,81.0 157.0,81.0" stroke="#000000" stroke-width="1"/>
      <polyline fill="none" points="279.0,277.0 279.0,81.0 341.0,81.0" stroke="#000000" stroke-width="1"/>
      <text fill="#00afaf" font-family="Arial" font-size="15.0" stroke="none" stroke-width="0" transform="rotate(90.0,257.0,130.0)" x="257.0" y="145.0">Минская улица</text>
      <text fill="#00afaf" font-family="Arial" font-size="15.0" stroke="none" stroke-width="0" x="293.0" y="75.0">Сеславинская улица</text>
      <text fill="#000000" font-family="Arial" font-size="8.0" stroke="none" stroke-width="0" x="73.0" y="151.0">верхний ярус</text>
      <text fill="#000000" font-family="Arial" font-size="8.0" stroke="none" stroke-width="0" x="21.0" y="157.0">нижний ярус</text>
    </g>
    <g>
      <rect fill="#615f56" height="30.0" stroke="none" stroke-width="0" width="30.0" x="270.0" y="155.0"/>
      <rect fill="#615f56" height="30.0" stroke="none" stroke-width="0" width="30.0" x="196.0" y="192.0"/>
      <text fill="#ffd900" font-family="Arial" font-size="25.0" stroke="none" stroke-width="0" x="278.0" y="181.0">1</text>
      <text fill="#ffd900" font-family="Arial" font-size="25.0" stroke="none" stroke-width="0" x="204.0" y="218.0">2</text>
    </g>
  </g>
</svg>
