<?xml version="1.0" encoding="utf-8" ?>
<svg baseProfile="full" height="100%" version="1.1" width="100%" xmlns="http://www.w3.org/2000/svg" xmlns:ev="http://www.w3.org/2001/xml-events" xmlns:xlink="http://www.w3.org/1999/xlink">
  <defs>
    <marker id="id203" markerHeight="3" markerUnits="strokeWidth" markerWidth="4" orient="auto" refX="0" refY="5" viewBox="0,0,10,10">
      <path d="M 0 0 L 10 5 L 0 10 z"/>
    </marker>
  </defs>
  <g>
    <rect fill="none" height="770" stroke="none" stroke-width="0" width="650" x="0" y="0"/>
    <g transform="rotate(55.0,325,385)">
      <polygon fill="#2c7cac" points="552,346 552,376 102,376 102,346" stroke="#000000" stroke-width="1"/>
      <polygon fill="#2c7cac" points="552,379 552,409 102,409 102,379" stroke="#000000" stroke-width="1"/>
      <text fill="#000000" font-family="Arial" font-size="20" stroke="none" stroke-width="0" x="107" y="365.0">&lt;&lt; Багратионовская</text>
      <text fill="#000000" font-family="Arial" font-size="30" stroke="none" stroke-width="0" x="292" y="391.0">Фили</text>
      <text fill="#000000" font-family="Arial" font-size="20" stroke="none" stroke-width="0" x="411" y="407.0">Кутузовская &gt;&gt;</text>
      <text fill="#ffffff" font-family="Arial" font-size="20" stroke="none" stroke-width="0" x="106" y="364.0">&lt;&lt; Багратионовская</text>
      <text fill="#ffffff" font-family="Arial" font-size="30" stroke="none" stroke-width="0" x="290" y="390.0">Фили</text>
      <text fill="#ffffff" font-family="Arial" font-size="20" stroke="none" stroke-width="0" x="411" y="406.0">Кутузовская &gt;&gt;</text>
      <polygon fill="#fefbf1" points="-60,282 -60,473 -26,473 -26,427 62,427 62,327 -26,327 -26,282" stroke="#dfdfdf" stroke-width="1"/>
      <polygon fill="#fefbf1" points="558,282 723,282 723,472 558,472" stroke="#dfdfdf" stroke-width="1"/>
      <polyline fill="none" points="-45,282 108,282 137,292 137,296 406,296 406,292 435,282 593,282" stroke="#000000" stroke-width="1"/>
      <polyline fill="none" points="593,472 435,472 407,462 407,458 138,458 138,462 108,473 -45,473" stroke="#000000" stroke-width="1"/>
      <polyline fill="none" points="58,366 62,366 62,327 41,327" stroke="#000000" stroke-width="1"/>
      <polyline fill="none" points="58,387 62,387 62,427 41,427" stroke="#000000" stroke-width="1"/>
      <polyline fill="none" points="-23,327 -26,327 -26,315 160,315 160,321 102,321 102,346" stroke="#000000" stroke-width="1"/>
      <polyline fill="none" points="-25,427 -26,427 -26,438 159,438 159,432 102,432 102,409" stroke="#000000" stroke-width="1"/>
      <polyline fill="none" points="-56,473 -60,473 -60,282 -56,282" stroke="#000000" stroke-width="1"/>
      <line stroke="#000000" stroke-width="1" x1="-23" x2="-23" y1="282" y2="315"/>
      <line stroke="#000000" stroke-width="1" x1="-19" x2="-19" y1="282" y2="315"/>
      <line stroke="#000000" stroke-width="1" x1="-15" x2="-15" y1="282" y2="315"/>
      <line stroke="#000000" stroke-width="1" x1="-11" x2="-11" y1="282" y2="315"/>
      <line stroke="#000000" stroke-width="1" x1="-7" x2="-7" y1="282" y2="315"/>
      <line stroke="#000000" stroke-width="1" x1="-3" x2="-3" y1="282" y2="315"/>
      <line stroke="#000000" stroke-width="1" x1="1" x2="1" y1="282" y2="315"/>
      <line stroke="#000000" stroke-width="1" x1="5" x2="5" y1="282" y2="315"/>
      <line stroke="#000000" stroke-width="1" x1="9" x2="9" y1="282" y2="315"/>
      <line stroke="#000000" stroke-width="1" x1="13" x2="13" y1="282" y2="315"/>
      <line stroke="#000000" stroke-width="1" x1="17" x2="17" y1="282" y2="315"/>
      <line stroke="#000000" stroke-width="1" x1="21" x2="21" y1="282" y2="315"/>
      <line stroke="#000000" stroke-width="1" x1="-23" x2="-23" y1="473" y2="438"/>
      <line stroke="#000000" stroke-width="1" x1="-19" x2="-19" y1="473" y2="438"/>
      <line stroke="#000000" stroke-width="1" x1="-15" x2="-15" y1="473" y2="438"/>
      <line stroke="#000000" stroke-width="1" x1="-11" x2="-11" y1="473" y2="438"/>
      <line stroke="#000000" stroke-width="1" x1="-7" x2="-7" y1="473" y2="438"/>
      <line stroke="#000000" stroke-width="1" x1="-3" x2="-3" y1="473" y2="438"/>
      <line stroke="#000000" stroke-width="1" x1="1" x2="1" y1="473" y2="438"/>
      <line stroke="#000000" stroke-width="1" x1="5" x2="5" y1="473" y2="438"/>
      <line stroke="#000000" stroke-width="1" x1="9" x2="9" y1="473" y2="438"/>
      <line stroke="#000000" stroke-width="1" x1="13" x2="13" y1="473" y2="438"/>
      <line stroke="#000000" stroke-width="1" x1="17" x2="17" y1="473" y2="438"/>
      <line stroke="#000000" stroke-width="1" x1="21" x2="21" y1="473" y2="438"/>
      <polygon fill="#d0d0d0" points="-9,405 25,405 32,398 40,396 49,399 55,408 54,417 49,424 41,427 -25,427 -33,424 -38,417 -38,407 -32,398 -23,396 -15,398" stroke="#d0d0d0" stroke-width="1"/>
      <polygon fill="#d0d0d0" points="-8,349 26,349 33,356 41,358 50,355 56,346 55,336 50,330 41,327 -23,327 -32,330 -37,338 -37,347 -32,355 -23,358 -14,356" stroke="#d0d0d0" stroke-width="1"/>
      <polyline fill="none" points="-9,405 25,405" stroke="#000000" stroke-width="1"/>
      <path d="M25,405 C25,405 23.8333333333,406.166666667 25,405 C26.1666666667,403.833333333 29.5,399.5 32,398 C34.5,396.5 37.1666666667,395.833333333 40,396 C42.8333333333,396.166666667 46.5,397.0 49,399 C51.5,401.0 54.1666666667,405.0 55,408 C55.8333333333,411.0 55.0,414.333333333 54,417 C53.0,419.666666667 51.1666666667,422.333333333 49,424 C46.8333333333,425.666666667 41,427 41,427 " fill="none" stroke="#000000" stroke-width="1"/>
      <polyline fill="none" points="41,427 -25,427" stroke="#000000" stroke-width="1"/>
      <path d="M-25,427 C-25,427 -23.6666666667,427.5 -25,427 C-26.3333333333,426.5 -30.8333333333,425.666666667 -33,424 C-35.1666666667,422.333333333 -37.1666666667,419.833333333 -38,417 C-38.8333333333,414.166666667 -39.0,410.166666667 -38,407 C-37.0,403.833333333 -34.5,399.833333333 -32,398 C-29.5,396.166666667 -25.8333333333,396 -23,396 C-20.1666666667,396 -17.3333333333,396.5 -15,398 C-12.6666666667,399.5 -9,405 -9,405 " fill="none" stroke="#000000" stroke-width="1"/>
      <polyline fill="none" points="-8,349 26,349" stroke="#000000" stroke-width="1"/>
      <path d="M26,349 C26,349 24.8333333333,347.833333333 26,349 C27.1666666667,350.166666667 30.5,354.5 33,356 C35.5,357.5 38.1666666667,358.166666667 41,358 C43.8333333333,357.833333333 47.5,357.0 50,355 C52.5,353.0 55.1666666667,349.166666667 56,346 C56.8333333333,342.833333333 56.0,338.666666667 55,336 C54.0,333.333333333 52.3333333333,331.5 50,330 C47.6666666667,328.5 41,327 41,327 " fill="none" stroke="#000000" stroke-width="1"/>
      <polyline fill="none" points="41,327 -23,327" stroke="#000000" stroke-width="1"/>
      <path d="M-23,327 C-23,327 -21.5,326.5 -23,327 C-24.5,327.5 -29.6666666667,328.166666667 -32,330 C-34.3333333333,331.833333333 -36.1666666667,335.166666667 -37,338 C-37.8333333333,340.833333333 -37.8333333333,344.166666667 -37,347 C-36.1666666667,349.833333333 -34.3333333333,353.166666667 -32,355 C-29.6666666667,356.833333333 -26.0,357.833333333 -23,358 C-20.0,358.166666667 -16.5,357.5 -14,356 C-11.5,354.5 -8,349 -8,349 " fill="none" stroke="#000000" stroke-width="1"/>
      <polygon fill="#ffffff" points="-8,349 -8,341 26,341 26,349" stroke="#000000" stroke-width="1"/>
      <text fill="#000000" font-family="Arial" font-size="10" stroke="none" stroke-width="0" x="-3" y="349.0">кассы</text>
      <polygon fill="none" points="-27,393 -20,393 -20,386 -27,386" stroke="#000000" stroke-width="1"/>
      <line stroke="#009900" stroke-width="1" x1="-21" x2="-26" y1="382" y2="382"/>
      <line stroke="#009900" stroke-width="1" x1="-21" x2="-26" y1="378" y2="378"/>
      <line stroke="#009900" stroke-width="1" x1="-21" x2="-26" y1="374" y2="374"/>
      <line stroke="#009900" stroke-width="1" x1="-21" x2="-26" y1="370" y2="370"/>
      <line stroke="#009900" stroke-width="1" x1="-21" x2="-26" y1="366" y2="366"/>
      <line stroke="#009900" stroke-width="1" x1="-21" x2="-26" y1="362" y2="362"/>
      <line stroke="#ff0000" stroke-width="1" x1="-55" x2="-58" y1="304" y2="301"/>
      <line stroke="#ff0000" stroke-width="1" x1="-52.1715728753" x2="-55.1715728753" y1="301.171572875" y2="298.171572875"/>
      <line stroke="#ff0000" stroke-width="1" x1="-49.3431457505" x2="-52.3431457505" y1="298.343145751" y2="295.343145751"/>
      <line stroke="#ff0000" stroke-width="1" x1="-46.5147186258" x2="-49.5147186258" y1="295.514718626" y2="292.514718626"/>
      <line stroke="#ff0000" stroke-width="1" x1="-43.686291501" x2="-46.686291501" y1="292.686291501" y2="289.686291501"/>
      <line stroke="#ff0000" stroke-width="1" x1="-40.8578643763" x2="-43.8578643763" y1="289.857864376" y2="286.857864376"/>
      <line stroke="#ff0000" stroke-width="1" x1="-38.0294372515" x2="-41.0294372515" y1="287.029437252" y2="284.029437252"/>
      <line stroke="#ff0000" stroke-width="1" x1="-55" x2="-58" y1="451" y2="454"/>
      <line stroke="#ff0000" stroke-width="1" x1="-52.2490214084" x2="-55.2490214084" y1="453.903810736" y2="456.903810736"/>
      <line stroke="#ff0000" stroke-width="1" x1="-49.4980428167" x2="-52.4980428167" y1="456.807621471" y2="459.807621471"/>
      <line stroke="#ff0000" stroke-width="1" x1="-46.7470642251" x2="-49.7470642251" y1="459.711432207" y2="462.711432207"/>
      <line stroke="#ff0000" stroke-width="1" x1="-43.9960856334" x2="-46.9960856334" y1="462.615242942" y2="465.615242942"/>
      <line stroke="#ff0000" stroke-width="1" x1="-41.2451070418" x2="-44.2451070418" y1="465.519053678" y2="468.519053678"/>
      <line stroke="#ff0000" stroke-width="1" x1="-38.4941284501" x2="-41.4941284501" y1="468.422864414" y2="471.422864414"/>
      <polyline fill="none" marker-end="url(#id203)" points="90,292 69,292" stroke="#ff0000" stroke-width="1"/>
      <polyline fill="none" marker-end="url(#id203)" points="-43,296 -51,288 -51,274" stroke="#ff0000" stroke-width="1"/>
      <polyline fill="none" marker-end="url(#id203)" points="90,463 69,463" stroke="#ff0000" stroke-width="1"/>
      <polyline fill="none" marker-end="url(#id203)" points="-39,460 -51,472 -51,484" stroke="#ff0000" stroke-width="1"/>
      <polyline fill="none" marker-end="url(#id203)" points="69,305 90,305" stroke="#009900" stroke-width="1"/>
      <polyline fill="none" marker-end="url(#id203)" points="-48,348 -48,330" stroke="#009900" stroke-width="1"/>
      <polyline fill="none" marker-end="url(#id203)" points="-48,407 -48,423" stroke="#009900" stroke-width="1"/>
      <polyline fill="none" marker-end="url(#id203)" points="69,449 90,449" stroke="#009900" stroke-width="1"/>
      <polyline fill="none" marker-end="url(#id203)" points="55,377 40,377" stroke="#009900" stroke-width="1"/>
      <text fill="#000000" font-family="Arial" font-size="10" stroke="none" stroke-width="0" transform="rotate(-90.0,61,387)" x="61" y="397.0">вход</text>
      <polygon fill="#34349c" points="-57,323 -57,319 -56,319 -56,323" stroke="#34349c" stroke-width="1"/>
      <polygon fill="#ff0000" points="-57,327 -57,323 -56,323 -56,327" stroke="#ff0000" stroke-width="1"/>
      <polyline fill="none" points="611,282 723,282 723,289" stroke="#000000" stroke-width="1"/>
      <polyline fill="none" points="723,306 723,366" stroke="#000000" stroke-width="1"/>
      <polyline fill="none" points="723,387 723,448" stroke="#000000" stroke-width="1"/>
      <polyline fill="none" points="723,466 723,472 611,472" stroke="#000000" stroke-width="1"/>
      <polyline fill="none" points="704,408 723,408" stroke="#000000" stroke-width="1"/>
      <polyline fill="none" points="702,346 723,346" stroke="#000000" stroke-width="1"/>
      <polyline fill="none" points="708,408 708,387" stroke="#000000" stroke-width="1"/>
      <polyline fill="none" points="708,366 708,346" stroke="#000000" stroke-width="1"/>
      <line stroke="#000000" stroke-width="1" x1="504" x2="504" y1="315" y2="282"/>
      <line stroke="#000000" stroke-width="1" x1="508" x2="508" y1="315" y2="282"/>
      <line stroke="#000000" stroke-width="1" x1="512" x2="512" y1="315" y2="282"/>
      <line stroke="#000000" stroke-width="1" x1="516" x2="516" y1="315" y2="282"/>
      <line stroke="#000000" stroke-width="1" x1="520" x2="520" y1="315" y2="282"/>
      <line stroke="#000000" stroke-width="1" x1="524" x2="524" y1="315" y2="282"/>
      <line stroke="#000000" stroke-width="1" x1="528" x2="528" y1="315" y2="282"/>
      <line stroke="#000000" stroke-width="1" x1="532" x2="532" y1="315" y2="282"/>
      <line stroke="#000000" stroke-width="1" x1="536" x2="536" y1="315" y2="282"/>
      <line stroke="#000000" stroke-width="1" x1="540" x2="540" y1="315" y2="282"/>
      <line stroke="#000000" stroke-width="1" x1="544" x2="544" y1="315" y2="282"/>
      <line stroke="#000000" stroke-width="1" x1="548" x2="548" y1="315" y2="282"/>
      <line stroke="#000000" stroke-width="1" x1="504" x2="504" y1="472" y2="438"/>
      <line stroke="#000000" stroke-width="1" x1="508" x2="508" y1="472" y2="438"/>
      <line stroke="#000000" stroke-width="1" x1="512" x2="512" y1="472" y2="438"/>
      <line stroke="#000000" stroke-width="1" x1="516" x2="516" y1="472" y2="438"/>
      <line stroke="#000000" stroke-width="1" x1="520" x2="520" y1="472" y2="438"/>
      <line stroke="#000000" stroke-width="1" x1="524" x2="524" y1="472" y2="438"/>
      <line stroke="#000000" stroke-width="1" x1="528" x2="528" y1="472" y2="438"/>
      <line stroke="#000000" stroke-width="1" x1="532" x2="532" y1="472" y2="438"/>
      <line stroke="#000000" stroke-width="1" x1="536" x2="536" y1="472" y2="438"/>
      <line stroke="#000000" stroke-width="1" x1="540" x2="540" y1="472" y2="438"/>
      <line stroke="#000000" stroke-width="1" x1="544" x2="544" y1="472" y2="438"/>
      <line stroke="#000000" stroke-width="1" x1="548" x2="548" y1="472" y2="438"/>
      <polygon fill="#d0d0d0" points="552,346 552,321 440,321 440,315 558,315 558,438 440,438 440,433 552,433 552,409" stroke="#000000" stroke-width="1"/>
      <polygon fill="#d0d0d0" points="641,405 674,405 679,399 688,396 698,399 704,408 703,417 698,424 691,427 626,427 617,424 612,417 611,408 616,400 626,396 635,398" stroke="#d0d0d0" stroke-width="1"/>
      <polygon fill="#d0d0d0" points="640,350 674,350 681,356 689,357 697,354 702,346 702,337 697,329 688,326 627,326 617,330 612,339 613,348 619,355 627,357 635,355" stroke="#d0d0d0" stroke-width="1"/>
      <polyline fill="none" points="641,405 674,405" stroke="#000000" stroke-width="1"/>
      <path d="M674,405 C674,405 673.166666667,406.0 674,405 C674.833333333,404.0 676.666666667,400.5 679,399 C681.333333333,397.5 684.833333333,396 688,396 C691.166666667,396 695.333333333,397.0 698,399 C700.666666667,401.0 703.166666667,405.0 704,408 C704.833333333,411.0 704.0,414.333333333 703,417 C702.0,419.666666667 700.0,422.333333333 698,424 C696.0,425.666666667 691,427 691,427 " fill="none" stroke="#000000" stroke-width="1"/>
      <polyline fill="none" points="691,427 626,427" stroke="#000000" stroke-width="1"/>
      <path d="M626,427 C626,427 627.5,427.5 626,427 C624.5,426.5 619.333333333,425.666666667 617,424 C614.666666667,422.333333333 613.0,419.666666667 612,417 C611.0,414.333333333 610.333333333,410.833333333 611,408 C611.666666667,405.166666667 613.5,402.0 616,400 C618.5,398.0 622.833333333,396.333333333 626,396 C629.166666667,395.666666667 632.5,396.5 635,398 C637.5,399.5 641,405 641,405 " fill="none" stroke="#000000" stroke-width="1"/>
      <polyline fill="none" points="640,350 674,350" stroke="#000000" stroke-width="1"/>
      <path d="M674,350 C674,350 672.833333333,349.0 674,350 C675.166666667,351.0 678.5,354.833333333 681,356 C683.5,357.166666667 686.333333333,357.333333333 689,357 C691.666666667,356.666666667 694.833333333,355.833333333 697,354 C699.166666667,352.166666667 701.166666667,348.833333333 702,346 C702.833333333,343.166666667 702.833333333,339.833333333 702,337 C701.166666667,334.166666667 699.333333333,330.833333333 697,329 C694.666666667,327.166666667 688,326 688,326 " fill="none" stroke="#000000" stroke-width="1"/>
      <polyline fill="none" points="688,326 627,326" stroke="#000000" stroke-width="1"/>
      <path d="M627,326 C627,326 628.666666667,325.333333333 627,326 C625.333333333,326.666666667 619.5,327.833333333 617,330 C614.5,332.166666667 612.666666667,336.0 612,339 C611.333333333,342.0 611.833333333,345.333333333 613,348 C614.166666667,350.666666667 616.666666667,353.5 619,355 C621.333333333,356.5 624.333333333,357 627,357 C629.666666667,357 632.833333333,356.166666667 635,355 C637.166666667,353.833333333 640,350 640,350 " fill="none" stroke="#000000" stroke-width="1"/>
      <polygon fill="#ffffff" points="640,350 640,342 674,342 674,350" stroke="#000000" stroke-width="1"/>
      <text fill="#000000" font-family="Arial" font-size="10" stroke="none" stroke-width="0" x="645" y="350.0">кассы</text>
      <polygon fill="none" points="624,360 630,360 630,366 624,366" stroke="#000000" stroke-width="1"/>
      <line stroke="#009900" stroke-width="1" x1="629" x2="625" y1="370" y2="370"/>
      <line stroke="#009900" stroke-width="1" x1="629" x2="625" y1="374" y2="374"/>
      <line stroke="#009900" stroke-width="1" x1="629" x2="625" y1="378" y2="378"/>
      <line stroke="#009900" stroke-width="1" x1="629" x2="625" y1="382" y2="382"/>
      <line stroke="#009900" stroke-width="1" x1="629" x2="625" y1="386" y2="386"/>
      <line stroke="#009900" stroke-width="1" x1="629" x2="625" y1="390" y2="390"/>
      <line stroke="#009900" stroke-width="1" x1="629" x2="625" y1="394" y2="394"/>
      <line stroke="#ff0000" stroke-width="1" x1="618" x2="615" y1="431" y2="428"/>
      <line stroke="#ff0000" stroke-width="1" x1="615.171572875" x2="612.171572875" y1="433.828427125" y2="430.828427125"/>
      <line stroke="#ff0000" stroke-width="1" x1="612.343145751" x2="609.343145751" y1="436.656854249" y2="433.656854249"/>
      <line stroke="#ff0000" stroke-width="1" x1="609.514718626" x2="606.514718626" y1="439.485281374" y2="436.485281374"/>
      <line stroke="#ff0000" stroke-width="1" x1="606.686291501" x2="603.686291501" y1="442.313708499" y2="439.313708499"/>
      <line stroke="#ff0000" stroke-width="1" x1="603.857864376" x2="600.857864376" y1="445.142135624" y2="442.142135624"/>
      <line stroke="#ff0000" stroke-width="1" x1="601.029437252" x2="598.029437252" y1="447.970562748" y2="444.970562748"/>
      <line stroke="#ff0000" stroke-width="1" x1="598.201010127" x2="595.201010127" y1="450.798989873" y2="447.798989873"/>
      <line stroke="#ff0000" stroke-width="1" x1="595.372583002" x2="592.372583002" y1="453.627416998" y2="450.627416998"/>
      <line stroke="#ff0000" stroke-width="1" x1="592.544155877" x2="589.544155877" y1="456.455844123" y2="453.455844123"/>
      <line stroke="#ff0000" stroke-width="1" x1="589.715728753" x2="586.715728753" y1="459.284271247" y2="456.284271247"/>
      <line stroke="#ff0000" stroke-width="1" x1="586.887301628" x2="583.887301628" y1="462.112698372" y2="459.112698372"/>
      <line stroke="#ff0000" stroke-width="1" x1="584.058874503" x2="581.058874503" y1="464.941125497" y2="461.941125497"/>
      <line stroke="#ff0000" stroke-width="1" x1="581.230447378" x2="578.230447378" y1="467.769552622" y2="464.769552622"/>
      <line stroke="#ff0000" stroke-width="1" x1="578.402020254" x2="575.402020254" y1="470.597979746" y2="467.597979746"/>
      <line stroke="#ff0000" stroke-width="1" x1="618" x2="615" y1="323" y2="326"/>
      <line stroke="#ff0000" stroke-width="1" x1="615.171572875" x2="612.171572875" y1="320.171572875" y2="323.171572875"/>
      <line stroke="#ff0000" stroke-width="1" x1="612.343145751" x2="609.343145751" y1="317.343145751" y2="320.343145751"/>
      <line stroke="#ff0000" stroke-width="1" x1="609.514718626" x2="606.514718626" y1="314.514718626" y2="317.514718626"/>
      <line stroke="#ff0000" stroke-width="1" x1="606.686291501" x2="603.686291501" y1="311.686291501" y2="314.686291501"/>
      <line stroke="#ff0000" stroke-width="1" x1="603.857864376" x2="600.857864376" y1="308.857864376" y2="311.857864376"/>
      <line stroke="#ff0000" stroke-width="1" x1="601.029437252" x2="598.029437252" y1="306.029437252" y2="309.029437252"/>
      <line stroke="#ff0000" stroke-width="1" x1="598.201010127" x2="595.201010127" y1="303.201010127" y2="306.201010127"/>
      <line stroke="#ff0000" stroke-width="1" x1="595.372583002" x2="592.372583002" y1="300.372583002" y2="303.372583002"/>
      <line stroke="#ff0000" stroke-width="1" x1="592.544155877" x2="589.544155877" y1="297.544155877" y2="300.544155877"/>
      <line stroke="#ff0000" stroke-width="1" x1="589.715728753" x2="586.715728753" y1="294.715728753" y2="297.715728753"/>
      <line stroke="#ff0000" stroke-width="1" x1="586.887301628" x2="583.887301628" y1="291.887301628" y2="294.887301628"/>
      <line stroke="#ff0000" stroke-width="1" x1="584.058874503" x2="581.058874503" y1="289.058874503" y2="292.058874503"/>
      <line stroke="#ff0000" stroke-width="1" x1="581.230447378" x2="578.230447378" y1="286.230447378" y2="289.230447378"/>
      <line stroke="#ff0000" stroke-width="1" x1="578.402020254" x2="575.402020254" y1="283.402020254" y2="286.402020254"/>
      <polyline fill="none" marker-end="url(#id203)" points="433,292 450,292" stroke="#ff0000" stroke-width="1"/>
      <polyline fill="none" marker-end="url(#id203)" points="433,463 450,463" stroke="#ff0000" stroke-width="1"/>
      <polyline fill="none" marker-end="url(#id203)" points="584,451 602,469 602,489" stroke="#ff0000" stroke-width="1"/>
      <polyline fill="none" marker-end="url(#id203)" points="589,304 601,292 601,269" stroke="#ff0000" stroke-width="1"/>
      <polyline fill="none" marker-end="url(#id203)" points="712,297 735,297" stroke="#ff0000" stroke-width="1"/>
      <polyline fill="none" marker-end="url(#id203)" points="712,456 735,456" stroke="#ff0000" stroke-width="1"/>
      <polyline fill="none" marker-end="url(#id203)" points="450,307 433,307" stroke="#009900" stroke-width="1"/>
      <polyline fill="none" marker-end="url(#id203)" points="450,447 434,447" stroke="#009900" stroke-width="1"/>
      <polyline fill="none" marker-end="url(#id203)" points="598,402 573,427" stroke="#009900" stroke-width="1"/>
      <polyline fill="none" marker-end="url(#id203)" points="598,353 573,328" stroke="#009900" stroke-width="1"/>
      <polyline fill="none" marker-end="url(#id203)" points="733,377 695,377" stroke="#009900" stroke-width="1"/>
      <polygon fill="#34349c" points="714,342 710,342 710,343 714,343" stroke="#34349c" stroke-width="1"/>
      <polygon fill="#ff0000" points="718,342 714,342 714,343 718,343" stroke="#ff0000" stroke-width="1"/>
      <text fill="#00afaf" font-family="Arial" font-size="15" stroke="none" stroke-width="0" transform="rotate(-90.0,134,631)" x="134" y="646.0">Багратионовский проезд</text>
      <text fill="#00afaf" font-family="Arial" font-size="15" stroke="none" stroke-width="0" x="530" y="229.0">улица 1812 года</text>
      <text fill="#00afaf" font-family="Arial" font-size="15" stroke="none" stroke-width="0" x="-5" y="249.0">Новозаводская улица</text>
      <text fill="#00afaf" font-family="Arial" font-size="15" stroke="none" stroke-width="0" transform="rotate(-90.0,558,653)" x="558" y="668.0">'&lt;&lt; ж/д платформа &quot;Фили&quot;'</text>
    </g>
    <g>
      <text fill="#040464" font-family="Arial" font-size="15" stroke="none" stroke-width="0" x="89" y="765.0">'Схема перехода к ж/д платформе &quot;Фили&quot;'</text>
      <rect fill="none" height="15" stroke="none" stroke-width="0" width="250" x="89" y="750"/>
      <rect fill="#615f56" height="30" stroke="none" stroke-width="0" width="30" x="8" y="139"/>
      <rect fill="#615f56" height="30" stroke="none" stroke-width="0" width="30" x="210" y="4"/>
      <rect fill="#615f56" height="30" stroke="none" stroke-width="0" width="40" x="353" y="670"/>
      <rect fill="#615f56" height="30" stroke="none" stroke-width="0" width="40" x="563" y="511"/>
      <rect fill="#615f56" height="30" stroke="none" stroke-width="0" width="30" x="574" y="707"/>
      <text fill="#ffd900" font-family="Arial" font-size="25" stroke="none" stroke-width="0" x="16" y="165.0">1</text>
      <text fill="#ffd900" font-family="Arial" font-size="25" stroke="none" stroke-width="0" x="218" y="30.0">2</text>
      <text fill="#ffd900" font-family="Arial" font-size="25" stroke="none" stroke-width="0" x="361" y="696.0">3.1</text>
      <text fill="#ffd900" font-family="Arial" font-size="25" stroke="none" stroke-width="0" x="571" y="537.0">3.2</text>
      <text fill="#ffd900" font-family="Arial" font-size="25" stroke="none" stroke-width="0" x="582" y="733.0">3</text>
    </g>
  </g>
</svg>
