<?xml version="1.0" encoding="utf-8" ?>
<svg baseProfile="full" height="1300.0" version="1.1" width="1470.0" xmlns="http://www.w3.org/2000/svg" xmlns:ev="http://www.w3.org/2001/xml-events" xmlns:xlink="http://www.w3.org/1999/xlink">
  <defs>
    <marker id="id213" markerHeight="3" markerUnits="strokeWidth" markerWidth="4" orient="auto" refX="0" refY="5" viewBox="0,0,10,10">
      <path d="M 0 0 L 10 5 L 0 10 z"/>
    </marker>
  </defs>
  <g>
    <rect fill="none" height="1300.0" stroke="none" stroke-width="0" width="1470.0" x="0.0" y="0.0"/>
    <g transform="rotate(60.0,735.0,650.0)">
      <polygon fill="#fc9c54" points="518.0,550.0 518.0,520.0 968.0,520.0 968.0,550.0" stroke="#000000" stroke-width="1"/>
      <polygon fill="#fc9c54" points="518.0,398.0 518.0,368.0 968.0,368.0 968.0,398.0" stroke="#000000" stroke-width="1"/>
      <polygon fill="#ac1cac" points="968.0,508.0 518.0,508.0 518.0,478.0 968.0,478.0" stroke="#000000" stroke-width="1"/>
      <polygon fill="#ac1cac" points="968.0,660.0 518.0,660.0 518.0,630.0 968.0,630.0" stroke="#000000" stroke-width="1"/>
      <text fill="#ac24ac" font-family="Arial" font-size="20.0" stroke="none" stroke-width="0" x="856.0" y="681.0">Таганская &gt;&gt;</text>
      <text fill="#ac24ac" font-family="Arial" font-size="25.0" stroke="none" stroke-width="0" x="690.0" y="314.0">Китай-город</text>
      <text fill="#f7782e" font-family="Arial" font-size="20.0" stroke="none" stroke-width="0" x="524.0" y="362.0">&lt;&lt; Тургеневская</text>
      <text fill="#f7782e" font-family="Arial" font-size="25.0" stroke="none" stroke-width="0" x="688.0" y="312.0">Китай-город</text>
      <text fill="#000000" font-family="Arial" font-size="20.0" stroke="none" stroke-width="0" x="525.0" y="506.0">&lt;&lt; Кузнецкий мост</text>
      <text fill="#000000" font-family="Arial" font-size="20.0" stroke="none" stroke-width="0" x="817.0" y="542.0">Третьяковская &gt;&gt;</text>
      <text fill="#ffffff" font-family="Arial" font-size="20.0" stroke="none" stroke-width="0" x="523.0" y="505.0">&lt;&lt; Кузнецкий мост</text>
      <text fill="#ffffff" font-family="Arial" font-size="20.0" stroke="none" stroke-width="0" x="815.0" y="541.0">Третьяковская &gt;&gt;</text>
      <polygon fill="#34349c" points="806.0,592.0 806.0,588.0 807.0,588.0 807.0,592.0" stroke="#34349c" stroke-width="1"/>
      <polygon fill="#ff0000" points="806.0,596.0 806.0,592.0 807.0,592.0 807.0,596.0" stroke="#ff0000" stroke-width="1"/>
      <polygon fill="#34349c" points="809.0,438.0 809.0,434.0 810.0,434.0 810.0,438.0" stroke="#34349c" stroke-width="1"/>
      <polygon fill="#ff0000" points="809.0,442.0 809.0,438.0 810.0,438.0 810.0,442.0" stroke="#ff0000" stroke-width="1"/>
      <polyline fill="none" points="518.0,630.0 518.0,619.0 464.0,619.0 464.0,697.0 411.0,750.0 407.0,746.0" stroke="#000000" stroke-width="1"/>
      <polyline fill="none" points="518.0,550.0 518.0,561.0 466.0,561.0 466.0,467.0 518.0,467.0 518.0,478.0" stroke="#000000" stroke-width="1"/>
      <polyline fill="none" points="518.0,398.0 518.0,407.0 406.0,407.0 406.0,681.0 374.0,713.0 378.0,717.0" stroke="#000000" stroke-width="1"/>
      <path d="M380.0,773.0 C380.0,773.0 378.1666666666667,769.5 380.0,773.0 C381.8333333333333,776.5 389.0,786.5 391.0,794.0 C393.0,801.5 393.3333333333333,810.1666666666666 392.0,818.0 C390.6666666666667,825.8333333333334 387.8333333333333,834.1666666666666 383.0,841.0 C378.1666666666667,847.8333333333334 370.8333333333333,854.8333333333334 363.0,859.0 C355.1666666666667,863.1666666666666 336.0,866.0 336.0,866.0 " fill="none" stroke="#000000" stroke-width="1"/>
      <polyline fill="none" points="336.0,866.0 265.0,866.0 265.0,839.0 293.0,839.0 293.0,827.0 209.0,827.0 209.0,984.0 219.0,994.0 272.0,994.0" stroke="#000000" stroke-width="1"/>
      <polyline fill="none" points="272.0,1016.0 108.0,1016.0" stroke="#000000" stroke-width="1"/>
      <polyline fill="none" points="108.0,994.0 160.0,994.0 170.0,984.0 170.0,699.0 120.0,699.0 120.0,731.0" stroke="#000000" stroke-width="1"/>
      <polyline fill="none" points="99.0,731.0 99.0,678.0 170.0,678.0 170.0,563.0 113.0,563.0 101.0,551.0 101.0,517.0" stroke="#000000" stroke-width="1"/>
      <polyline fill="none" points="122.0,517.0 122.0,544.0 183.0,544.0 243.0,484.0 243.0,414.0 221.0,414.0" stroke="#000000" stroke-width="1"/>
      <polyline fill="none" points="221.0,391.0 267.0,391.0 267.0,501.0 373.0,501.0 373.0,529.0" stroke="#000000" stroke-width="1"/>
      <polyline fill="none" points="349.0,529.0 349.0,522.0 249.0,522.0 211.0,560.0 211.0,612.0 249.0,612.0 249.0,680.0 265.0,680.0 265.0,648.0" stroke="#000000" stroke-width="1"/>
      <polyline fill="none" points="282.0,648.0 282.0,740.0" stroke="#000000" stroke-width="1"/>
      <polyline fill="none" points="265.0,740.0 265.0,708.0 249.0,708.0 249.0,791.0 293.0,791.0 293.0,779.0 265.0,779.0 265.0,752.0 343.0,752.0" stroke="#000000" stroke-width="1"/>
      <line stroke="#000000" stroke-width="1" x1="514.0" x2="514.0" y1="619.0" y2="561.0"/>
      <line stroke="#000000" stroke-width="1" x1="510.0" x2="510.0" y1="619.0" y2="561.0"/>
      <line stroke="#000000" stroke-width="1" x1="506.0" x2="506.0" y1="619.0" y2="561.0"/>
      <line stroke="#000000" stroke-width="1" x1="502.0" x2="502.0" y1="619.0" y2="561.0"/>
      <line stroke="#000000" stroke-width="1" x1="498.0" x2="498.0" y1="619.0" y2="561.0"/>
      <line stroke="#000000" stroke-width="1" x1="494.0" x2="494.0" y1="619.0" y2="561.0"/>
      <line stroke="#000000" stroke-width="1" x1="490.0" x2="490.0" y1="619.0" y2="561.0"/>
      <line stroke="#000000" stroke-width="1" x1="486.0" x2="486.0" y1="619.0" y2="561.0"/>
      <line stroke="#000000" stroke-width="1" x1="482.0" x2="482.0" y1="619.0" y2="561.0"/>
      <line stroke="#000000" stroke-width="1" x1="478.0" x2="478.0" y1="619.0" y2="561.0"/>
      <line stroke="#000000" stroke-width="1" x1="474.0" x2="474.0" y1="619.0" y2="561.0"/>
      <line stroke="#000000" stroke-width="1" x1="470.0" x2="470.0" y1="619.0" y2="561.0"/>
      <line stroke="#000000" stroke-width="1" x1="514.0" x2="514.0" y1="467.0" y2="407.0"/>
      <line stroke="#000000" stroke-width="1" x1="510.0" x2="510.0" y1="467.0" y2="407.0"/>
      <line stroke="#000000" stroke-width="1" x1="506.0" x2="506.0" y1="467.0" y2="407.0"/>
      <line stroke="#000000" stroke-width="1" x1="502.0" x2="502.0" y1="467.0" y2="407.0"/>
      <line stroke="#000000" stroke-width="1" x1="498.0" x2="498.0" y1="467.0" y2="407.0"/>
      <line stroke="#000000" stroke-width="1" x1="494.0" x2="494.0" y1="467.0" y2="407.0"/>
      <line stroke="#000000" stroke-width="1" x1="490.0" x2="490.0" y1="467.0" y2="407.0"/>
      <line stroke="#000000" stroke-width="1" x1="486.0" x2="486.0" y1="467.0" y2="407.0"/>
      <line stroke="#000000" stroke-width="1" x1="482.0" x2="482.0" y1="467.0" y2="407.0"/>
      <line stroke="#000000" stroke-width="1" x1="478.0" x2="478.0" y1="467.0" y2="407.0"/>
      <line stroke="#000000" stroke-width="1" x1="474.0" x2="474.0" y1="467.0" y2="407.0"/>
      <line stroke="#000000" stroke-width="1" x1="470.0" x2="470.0" y1="467.0" y2="407.0"/>
      <line stroke="#000000" stroke-width="1" x1="110.0" x2="110.0" y1="994.0" y2="1016.0"/>
      <line stroke="#000000" stroke-width="1" x1="114.0" x2="114.0" y1="994.0" y2="1016.0"/>
      <line stroke="#000000" stroke-width="1" x1="118.0" x2="118.0" y1="994.0" y2="1016.0"/>
      <line stroke="#000000" stroke-width="1" x1="122.0" x2="122.0" y1="994.0" y2="1016.0"/>
      <line stroke="#000000" stroke-width="1" x1="126.0" x2="126.0" y1="994.0" y2="1016.0"/>
      <line stroke="#000000" stroke-width="1" x1="130.0" x2="130.0" y1="994.0" y2="1016.0"/>
      <line stroke="#000000" stroke-width="1" x1="134.0" x2="134.0" y1="994.0" y2="1016.0"/>
      <line stroke="#000000" stroke-width="1" x1="138.0" x2="138.0" y1="994.0" y2="1016.0"/>
      <line stroke="#000000" stroke-width="1" x1="142.0" x2="142.0" y1="994.0" y2="1016.0"/>
      <line stroke="#000000" stroke-width="1" x1="146.0" x2="146.0" y1="994.0" y2="1016.0"/>
      <line stroke="#000000" stroke-width="1" x1="269.0" x2="269.0" y1="994.0" y2="1016.0"/>
      <line stroke="#000000" stroke-width="1" x1="265.0" x2="265.0" y1="994.0" y2="1016.0"/>
      <line stroke="#000000" stroke-width="1" x1="261.0" x2="261.0" y1="994.0" y2="1016.0"/>
      <line stroke="#000000" stroke-width="1" x1="257.0" x2="257.0" y1="994.0" y2="1016.0"/>
      <line stroke="#000000" stroke-width="1" x1="253.0" x2="253.0" y1="994.0" y2="1016.0"/>
      <line stroke="#000000" stroke-width="1" x1="249.0" x2="249.0" y1="994.0" y2="1016.0"/>
      <line stroke="#000000" stroke-width="1" x1="245.0" x2="245.0" y1="994.0" y2="1016.0"/>
      <line stroke="#000000" stroke-width="1" x1="241.0" x2="241.0" y1="994.0" y2="1016.0"/>
      <line stroke="#000000" stroke-width="1" x1="237.0" x2="237.0" y1="994.0" y2="1016.0"/>
      <line stroke="#000000" stroke-width="1" x1="233.0" x2="233.0" y1="994.0" y2="1016.0"/>
      <line stroke="#000000" stroke-width="1" x1="99.0" x2="120.0" y1="729.0" y2="729.0"/>
      <line stroke="#000000" stroke-width="1" x1="99.0" x2="120.0" y1="725.0" y2="725.0"/>
      <line stroke="#000000" stroke-width="1" x1="99.0" x2="120.0" y1="721.0" y2="721.0"/>
      <line stroke="#000000" stroke-width="1" x1="99.0" x2="120.0" y1="717.0" y2="717.0"/>
      <line stroke="#000000" stroke-width="1" x1="99.0" x2="120.0" y1="713.0" y2="713.0"/>
      <line stroke="#000000" stroke-width="1" x1="146.0" x2="146.0" y1="699.0" y2="678.0"/>
      <line stroke="#000000" stroke-width="1" x1="150.0" x2="150.0" y1="699.0" y2="678.0"/>
      <line stroke="#000000" stroke-width="1" x1="154.0" x2="154.0" y1="699.0" y2="678.0"/>
      <line stroke="#000000" stroke-width="1" x1="158.0" x2="158.0" y1="699.0" y2="678.0"/>
      <line stroke="#000000" stroke-width="1" x1="162.0" x2="162.0" y1="699.0" y2="678.0"/>
      <line stroke="#000000" stroke-width="1" x1="122.0" x2="101.0" y1="519.0" y2="519.0"/>
      <line stroke="#000000" stroke-width="1" x1="122.0" x2="101.0" y1="523.0" y2="523.0"/>
      <line stroke="#000000" stroke-width="1" x1="122.0" x2="101.0" y1="527.0" y2="527.0"/>
      <line stroke="#000000" stroke-width="1" x1="122.0" x2="101.0" y1="531.0" y2="531.0"/>
      <line stroke="#000000" stroke-width="1" x1="122.0" x2="101.0" y1="535.0" y2="535.0"/>
      <line stroke="#000000" stroke-width="1" x1="142.0" x2="142.0" y1="544.0" y2="563.0"/>
      <line stroke="#000000" stroke-width="1" x1="146.0" x2="146.0" y1="544.0" y2="563.0"/>
      <line stroke="#000000" stroke-width="1" x1="150.0" x2="150.0" y1="544.0" y2="563.0"/>
      <line stroke="#000000" stroke-width="1" x1="154.0" x2="154.0" y1="544.0" y2="563.0"/>
      <line stroke="#000000" stroke-width="1" x1="158.0" x2="158.0" y1="544.0" y2="563.0"/>
      <line stroke="#000000" stroke-width="1" x1="162.0" x2="162.0" y1="544.0" y2="563.0"/>
      <line stroke="#000000" stroke-width="1" x1="267.0" x2="243.0" y1="421.0" y2="421.0"/>
      <line stroke="#000000" stroke-width="1" x1="267.0" x2="243.0" y1="425.0" y2="425.0"/>
      <line stroke="#000000" stroke-width="1" x1="267.0" x2="243.0" y1="429.0" y2="429.0"/>
      <line stroke="#000000" stroke-width="1" x1="267.0" x2="243.0" y1="433.0" y2="433.0"/>
      <line stroke="#000000" stroke-width="1" x1="267.0" x2="243.0" y1="437.0" y2="437.0"/>
      <line stroke="#000000" stroke-width="1" x1="267.0" x2="243.0" y1="441.0" y2="441.0"/>
      <line stroke="#000000" stroke-width="1" x1="267.0" x2="243.0" y1="445.0" y2="445.0"/>
      <line stroke="#000000" stroke-width="1" x1="267.0" x2="243.0" y1="449.0" y2="449.0"/>
      <line stroke="#000000" stroke-width="1" x1="267.0" x2="243.0" y1="453.0" y2="453.0"/>
      <line stroke="#000000" stroke-width="1" x1="267.0" x2="243.0" y1="457.0" y2="457.0"/>
      <line stroke="#000000" stroke-width="1" x1="301.0" x2="301.0" y1="501.0" y2="522.0"/>
      <line stroke="#000000" stroke-width="1" x1="305.0" x2="305.0" y1="501.0" y2="522.0"/>
      <line stroke="#000000" stroke-width="1" x1="309.0" x2="309.0" y1="501.0" y2="522.0"/>
      <line stroke="#000000" stroke-width="1" x1="313.0" x2="313.0" y1="501.0" y2="522.0"/>
      <line stroke="#000000" stroke-width="1" x1="317.0" x2="317.0" y1="501.0" y2="522.0"/>
      <line stroke="#000000" stroke-width="1" x1="321.0" x2="321.0" y1="501.0" y2="522.0"/>
      <line stroke="#000000" stroke-width="1" x1="325.0" x2="325.0" y1="501.0" y2="522.0"/>
      <line stroke="#000000" stroke-width="1" x1="329.0" x2="329.0" y1="501.0" y2="522.0"/>
      <line stroke="#000000" stroke-width="1" x1="282.0" x2="265.0" y1="650.0" y2="650.0"/>
      <line stroke="#000000" stroke-width="1" x1="282.0" x2="265.0" y1="654.0" y2="654.0"/>
      <line stroke="#000000" stroke-width="1" x1="282.0" x2="265.0" y1="658.0" y2="658.0"/>
      <line stroke="#000000" stroke-width="1" x1="282.0" x2="265.0" y1="662.0" y2="662.0"/>
      <line stroke="#000000" stroke-width="1" x1="282.0" x2="265.0" y1="666.0" y2="666.0"/>
      <line stroke="#000000" stroke-width="1" x1="282.0" x2="265.0" y1="738.0" y2="738.0"/>
      <line stroke="#000000" stroke-width="1" x1="282.0" x2="265.0" y1="734.0" y2="734.0"/>
      <line stroke="#000000" stroke-width="1" x1="282.0" x2="265.0" y1="730.0" y2="730.0"/>
      <line stroke="#000000" stroke-width="1" x1="282.0" x2="265.0" y1="726.0" y2="726.0"/>
      <line stroke="#000000" stroke-width="1" x1="282.0" x2="265.0" y1="722.0" y2="722.0"/>
      <line stroke="#000000" stroke-width="1" x1="261.0" x2="261.0" y1="708.0" y2="680.0"/>
      <line stroke="#000000" stroke-width="1" x1="257.0" x2="257.0" y1="708.0" y2="680.0"/>
      <line stroke="#000000" stroke-width="1" x1="253.0" x2="253.0" y1="708.0" y2="680.0"/>
      <line stroke="#000000" stroke-width="1" x1="281.0" x2="281.0" y1="827.0" y2="791.0"/>
      <line stroke="#000000" stroke-width="1" x1="277.0" x2="277.0" y1="827.0" y2="791.0"/>
      <line stroke="#000000" stroke-width="1" x1="273.0" x2="273.0" y1="827.0" y2="791.0"/>
      <line stroke="#000000" stroke-width="1" x1="269.0" x2="269.0" y1="827.0" y2="791.0"/>
      <line stroke="#000000" stroke-width="1" x1="265.0" x2="265.0" y1="827.0" y2="791.0"/>
      <line stroke="#000000" stroke-width="1" x1="261.0" x2="261.0" y1="827.0" y2="791.0"/>
      <line stroke="#000000" stroke-width="1" x1="257.0" x2="257.0" y1="827.0" y2="791.0"/>
      <line stroke="#000000" stroke-width="1" x1="253.0" x2="253.0" y1="827.0" y2="791.0"/>
      <line stroke="#000000" stroke-width="1" x1="227.0" x2="227.0" y1="414.0" y2="391.0"/>
      <line stroke="#000000" stroke-width="1" x1="231.0" x2="231.0" y1="414.0" y2="391.0"/>
      <line stroke="#000000" stroke-width="1" x1="235.0" x2="235.0" y1="414.0" y2="391.0"/>
      <line stroke="#7f7f7f" stroke-width="1" x1="336.0" x2="361.0" y1="763.0" y2="788.0"/>
      <line stroke="#7f7f7f" stroke-width="1" x1="338.8284271247462" x2="363.8284271247462" y1="760.1715728752538" y2="785.1715728752538"/>
      <line stroke="#7f7f7f" stroke-width="1" x1="341.6568542494924" x2="366.6568542494924" y1="757.3431457505076" y2="782.3431457505076"/>
      <line stroke="#7f7f7f" stroke-width="1" x1="344.48528137423864" x2="369.48528137423864" y1="754.5147186257614" y2="779.5147186257614"/>
      <line stroke="#7f7f7f" stroke-width="1" x1="347.31370849898485" x2="372.31370849898485" y1="751.6862915010151" y2="776.6862915010151"/>
      <line stroke="#7f7f7f" stroke-width="1" x1="350.14213562373106" x2="375.14213562373106" y1="748.8578643762689" y2="773.8578643762689"/>
      <line stroke="#7f7f7f" stroke-width="1" x1="352.9705627484773" x2="377.9705627484773" y1="746.0294372515227" y2="771.0294372515227"/>
      <line stroke="#7f7f7f" stroke-width="1" x1="355.7989898732235" x2="380.7989898732235" y1="743.2010101267765" y2="768.2010101267765"/>
      <line stroke="#7f7f7f" stroke-width="1" x1="358.6274169979697" x2="383.6274169979697" y1="740.3725830020303" y2="765.3725830020303"/>
      <line stroke="#7f7f7f" stroke-width="1" x1="361.4558441227159" x2="386.4558441227159" y1="737.5441558772841" y2="762.5441558772841"/>
      <line stroke="#7f7f7f" stroke-width="1" x1="364.28427124746213" x2="389.28427124746213" y1="734.7157287525379" y2="759.7157287525379"/>
      <line stroke="#7f7f7f" stroke-width="1" x1="367.11269837220834" x2="392.11269837220834" y1="731.8873016277917" y2="756.8873016277917"/>
      <line stroke="#7f7f7f" stroke-width="1" x1="369.94112549695456" x2="394.94112549695456" y1="729.0588745030454" y2="754.0588745030454"/>
      <line stroke="#7f7f7f" stroke-width="1" x1="372.76955262170077" x2="397.76955262170077" y1="726.2304473782992" y2="751.2304473782992"/>
      <line stroke="#7f7f7f" stroke-width="1" x1="375.597979746447" x2="400.597979746447" y1="723.402020253553" y2="748.402020253553"/>
      <polygon fill="#9b5509" points="330.0,765.0 378.0,717.0 380.0,719.0 332.0,767.0" stroke="#000000" stroke-width="1"/>
      <polygon fill="#9b5509" points="336.0,771.0 384.0,723.0 387.0,726.0 339.0,774.0" stroke="#000000" stroke-width="1"/>
      <polygon fill="#9b5509" points="343.0,778.0 391.0,730.0 394.0,733.0 346.0,781.0" stroke="#000000" stroke-width="1"/>
      <polygon fill="#9b5509" points="350.0,785.0 398.0,737.0 401.0,740.0 353.0,788.0" stroke="#000000" stroke-width="1"/>
      <polygon fill="#9b5509" points="357.0,792.0 405.0,744.0 407.0,746.0 359.0,794.0" stroke="#000000" stroke-width="1"/>
      <polyline fill="none" points="276.0,839.0 276.0,866.0" stroke="#000000" stroke-width="1"/>
      <text fill="#000000" font-family="Arial" font-size="10.0" stroke="none" stroke-width="0" transform="rotate(-90.0,263.0,865.0)" x="263.0" y="875.0">кассы</text>
      <polyline fill="none" points="344.0,780.0 322.0,802.0" stroke="#000000" stroke-width="1"/>
      <polygon fill="none" points="325.0,802.0 321.0,806.0 325.0,810.0 329.0,806.0" stroke="#000000" stroke-width="1"/>
      <line stroke="#009900" stroke-width="1" x1="328.0" x2="331.0" y1="812.0" y2="809.0"/>
      <line stroke="#009900" stroke-width="1" x1="330.8284271247462" x2="333.8284271247462" y1="814.8284271247462" y2="811.8284271247462"/>
      <line stroke="#009900" stroke-width="1" x1="333.6568542494924" x2="336.6568542494924" y1="817.6568542494924" y2="814.6568542494924"/>
      <line stroke="#009900" stroke-width="1" x1="336.48528137423864" x2="339.48528137423864" y1="820.4852813742386" y2="817.4852813742386"/>
      <line stroke="#009900" stroke-width="1" x1="339.31370849898485" x2="342.31370849898485" y1="823.3137084989849" y2="820.3137084989849"/>
      <line stroke="#009900" stroke-width="1" x1="342.14213562373106" x2="345.14213562373106" y1="826.1421356237311" y2="823.1421356237311"/>
      <line stroke="#009900" stroke-width="1" x1="344.9705627484773" x2="347.9705627484773" y1="828.9705627484773" y2="825.9705627484773"/>
      <line stroke="#009900" stroke-width="1" x1="347.7989898732235" x2="350.7989898732235" y1="831.7989898732235" y2="828.7989898732235"/>
      <line stroke="#009900" stroke-width="1" x1="350.6274169979697" x2="353.6274169979697" y1="834.6274169979697" y2="831.6274169979697"/>
      <line stroke="#009900" stroke-width="1" x1="353.4558441227159" x2="356.4558441227159" y1="837.4558441227159" y2="834.4558441227159"/>
      <line stroke="#009900" stroke-width="1" x1="356.28427124746213" x2="359.28427124746213" y1="840.2842712474621" y2="837.2842712474621"/>
      <line stroke="#009900" stroke-width="1" x1="359.11269837220834" x2="362.11269837220834" y1="843.1126983722083" y2="840.1126983722083"/>
      <line stroke="#009900" stroke-width="1" x1="361.94112549695456" x2="364.94112549695456" y1="845.9411254969546" y2="842.9411254969546"/>
      <line stroke="#009900" stroke-width="1" x1="364.76955262170077" x2="367.76955262170077" y1="848.7695526217008" y2="845.7695526217008"/>
      <line stroke="#009900" stroke-width="1" x1="367.597979746447" x2="370.597979746447" y1="851.597979746447" y2="848.597979746447"/>
      <polyline fill="none" marker-end="url(#id213)" points="402.0,701.0 389.0,714.0" stroke="#ff0000" stroke-width="1"/>
      <polyline fill="none" marker-end="url(#id213)" points="410.0,735.0 423.0,722.0" stroke="#009900" stroke-width="1"/>
      <polygon fill="#34349c" points="305.0,755.0 309.0,755.0 309.0,756.0 305.0,756.0" stroke="#34349c" stroke-width="1"/>
      <polygon fill="#ff0000" points="301.0,755.0 305.0,755.0 305.0,756.0 301.0,756.0" stroke="#ff0000" stroke-width="1"/>
      <polyline fill="none" points="968.0,630.0 968.0,619.0 918.0,619.0 918.0,609.0 986.0,609.0 986.0,602.0" stroke="#000000" stroke-width="1"/>
      <polyline fill="none" points="986.0,573.0 986.0,567.0 918.0,567.0 918.0,557.0 968.0,557.0 968.0,550.0" stroke="#000000" stroke-width="1"/>
      <polyline fill="none" points="968.0,478.0 968.0,469.0 916.0,469.0 916.0,459.0 986.0,459.0 986.0,453.0" stroke="#000000" stroke-width="1"/>
      <polyline fill="none" points="986.0,424.0 986.0,417.0 918.0,417.0 918.0,407.0 968.0,407.0 968.0,398.0" stroke="#000000" stroke-width="1"/>
      <polyline fill="none" points="1364.0,291.0 1390.0,291.0 1390.0,297.0 1342.0,297.0 1293.0,346.0 1204.0,346.0" stroke="#000000" stroke-width="1"/>
      <polyline fill="none" points="1204.0,369.0 1256.0,369.0 1212.0,413.0 1042.0,413.0 1042.0,424.0" stroke="#000000" stroke-width="1"/>
      <polyline fill="none" points="1042.0,453.0 1042.0,573.0" stroke="#000000" stroke-width="1"/>
      <polyline fill="none" points="1042.0,602.0 1042.0,612.0 1191.0,612.0 1298.0,702.0 1243.0,768.0" stroke="#000000" stroke-width="1"/>
      <polyline fill="none" points="1256.0,779.0 1282.0,748.0 1313.0,774.0" stroke="#000000" stroke-width="1"/>
      <polyline fill="none" points="1324.0,761.0 1293.0,735.0 1353.0,663.0 1384.0,689.0" stroke="#000000" stroke-width="1"/>
      <polyline fill="none" points="1395.0,676.0 1320.0,613.0" stroke="#000000" stroke-width="1"/>
      <polyline fill="none" points="1309.0,626.0 1340.0,652.0 1319.0,677.0 1203.0,579.0 1190.0,579.0 1190.0,526.0 1232.0,526.0 1246.0,512.0 1246.0,459.0" stroke="#000000" stroke-width="1"/>
      <polyline fill="none" points="1224.0,459.0 1224.0,505.0 1190.0,505.0 1190.0,453.0 1230.0,453.0 1361.0,322.0 1411.0,322.0 1411.0,267.0 1364.0,267.0" stroke="#000000" stroke-width="1"/>
      <line stroke="#000000" stroke-width="1" x1="1368.0" x2="1368.0" y1="267.0" y2="291.0"/>
      <line stroke="#000000" stroke-width="1" x1="1372.0" x2="1372.0" y1="267.0" y2="291.0"/>
      <line stroke="#000000" stroke-width="1" x1="1376.0" x2="1376.0" y1="267.0" y2="291.0"/>
      <line stroke="#000000" stroke-width="1" x1="1380.0" x2="1380.0" y1="267.0" y2="291.0"/>
      <line stroke="#000000" stroke-width="1" x1="1384.0" x2="1384.0" y1="267.0" y2="291.0"/>
      <line stroke="#000000" stroke-width="1" x1="1368.0" x2="1368.0" y1="322.0" y2="297.0"/>
      <line stroke="#000000" stroke-width="1" x1="1372.0" x2="1372.0" y1="322.0" y2="297.0"/>
      <line stroke="#000000" stroke-width="1" x1="1376.0" x2="1376.0" y1="322.0" y2="297.0"/>
      <line stroke="#000000" stroke-width="1" x1="1380.0" x2="1380.0" y1="322.0" y2="297.0"/>
      <line stroke="#000000" stroke-width="1" x1="1384.0" x2="1384.0" y1="322.0" y2="297.0"/>
      <line stroke="#000000" stroke-width="1" x1="1242.0" x2="1242.0" y1="369.0" y2="346.0"/>
      <line stroke="#000000" stroke-width="1" x1="1238.0" x2="1238.0" y1="369.0" y2="346.0"/>
      <line stroke="#000000" stroke-width="1" x1="1234.0" x2="1234.0" y1="369.0" y2="346.0"/>
      <line stroke="#000000" stroke-width="1" x1="1230.0" x2="1230.0" y1="369.0" y2="346.0"/>
      <line stroke="#000000" stroke-width="1" x1="1226.0" x2="1226.0" y1="369.0" y2="346.0"/>
      <line stroke="#000000" stroke-width="1" x1="1222.0" x2="1222.0" y1="369.0" y2="346.0"/>
      <line stroke="#000000" stroke-width="1" x1="1218.0" x2="1218.0" y1="369.0" y2="346.0"/>
      <line stroke="#000000" stroke-width="1" x1="1214.0" x2="1214.0" y1="369.0" y2="346.0"/>
      <line stroke="#000000" stroke-width="1" x1="1210.0" x2="1210.0" y1="369.0" y2="346.0"/>
      <line stroke="#000000" stroke-width="1" x1="1206.0" x2="1206.0" y1="369.0" y2="346.0"/>
      <line stroke="#000000" stroke-width="1" x1="1224.0" x2="1246.0" y1="461.0" y2="461.0"/>
      <line stroke="#000000" stroke-width="1" x1="1224.0" x2="1246.0" y1="465.0" y2="465.0"/>
      <line stroke="#000000" stroke-width="1" x1="1224.0" x2="1246.0" y1="469.0" y2="469.0"/>
      <line stroke="#000000" stroke-width="1" x1="1224.0" x2="1246.0" y1="473.0" y2="473.0"/>
      <line stroke="#000000" stroke-width="1" x1="1224.0" x2="1246.0" y1="477.0" y2="477.0"/>
      <line stroke="#000000" stroke-width="1" x1="1224.0" x2="1246.0" y1="481.0" y2="481.0"/>
      <line stroke="#000000" stroke-width="1" x1="1224.0" x2="1246.0" y1="485.0" y2="485.0"/>
      <line stroke="#000000" stroke-width="1" x1="1224.0" x2="1246.0" y1="489.0" y2="489.0"/>
      <line stroke="#000000" stroke-width="1" x1="1224.0" x2="1246.0" y1="493.0" y2="493.0"/>
      <line stroke="#000000" stroke-width="1" x1="1224.0" x2="1246.0" y1="497.0" y2="497.0"/>
      <line stroke="#000000" stroke-width="1" x1="1216.0" x2="1216.0" y1="505.0" y2="526.0"/>
      <line stroke="#000000" stroke-width="1" x1="1212.0" x2="1212.0" y1="505.0" y2="526.0"/>
      <line stroke="#000000" stroke-width="1" x1="1208.0" x2="1208.0" y1="505.0" y2="526.0"/>
      <line stroke="#000000" stroke-width="1" x1="1321.0" x2="1310.0" y1="614.0" y2="627.0"/>
      <line stroke="#000000" stroke-width="1" x1="1324.0815772844987" x2="1313.0815772844987" y1="616.5502708561369" y2="629.5502708561369"/>
      <line stroke="#000000" stroke-width="1" x1="1327.1631545689975" x2="1316.1631545689975" y1="619.1005417122738" y2="632.1005417122738"/>
      <line stroke="#000000" stroke-width="1" x1="1330.2447318534962" x2="1319.2447318534962" y1="621.6508125684106" y2="634.6508125684106"/>
      <line stroke="#000000" stroke-width="1" x1="1333.326309137995" x2="1322.326309137995" y1="624.2010834245475" y2="637.2010834245475"/>
      <line stroke="#000000" stroke-width="1" x1="1336.4078864224937" x2="1325.4078864224937" y1="626.7513542806844" y2="639.7513542806844"/>
      <line stroke="#000000" stroke-width="1" x1="1339.4894637069924" x2="1328.4894637069924" y1="629.3016251368213" y2="642.3016251368213"/>
      <line stroke="#000000" stroke-width="1" x1="1342.5710409914911" x2="1331.5710409914911" y1="631.8518959929581" y2="644.8518959929581"/>
      <line stroke="#000000" stroke-width="1" x1="1345.6526182759899" x2="1334.6526182759899" y1="634.402166849095" y2="647.402166849095"/>
      <line stroke="#000000" stroke-width="1" x1="1348.7341955604886" x2="1337.7341955604886" y1="636.9524377052319" y2="649.9524377052319"/>
      <line stroke="#000000" stroke-width="1" x1="1394.0" x2="1383.0" y1="675.0" y2="688.0"/>
      <line stroke="#000000" stroke-width="1" x1="1390.9184227155013" x2="1379.9184227155013" y1="672.4497291438631" y2="685.4497291438631"/>
      <line stroke="#000000" stroke-width="1" x1="1387.8368454310025" x2="1376.8368454310025" y1="669.8994582877262" y2="682.8994582877262"/>
      <line stroke="#000000" stroke-width="1" x1="1384.7552681465038" x2="1373.7552681465038" y1="667.3491874315894" y2="680.3491874315894"/>
      <line stroke="#000000" stroke-width="1" x1="1381.673690862005" x2="1370.673690862005" y1="664.7989165754525" y2="677.7989165754525"/>
      <line stroke="#000000" stroke-width="1" x1="1378.5921135775063" x2="1367.5921135775063" y1="662.2486457193156" y2="675.2486457193156"/>
      <line stroke="#000000" stroke-width="1" x1="1375.5105362930076" x2="1364.5105362930076" y1="659.6983748631787" y2="672.6983748631787"/>
      <line stroke="#000000" stroke-width="1" x1="1372.4289590085089" x2="1361.4289590085089" y1="657.1481040070419" y2="670.1481040070419"/>
      <line stroke="#000000" stroke-width="1" x1="1369.3473817240101" x2="1358.3473817240101" y1="654.597833150905" y2="667.597833150905"/>
      <line stroke="#000000" stroke-width="1" x1="1366.2658044395114" x2="1355.2658044395114" y1="652.0475622947681" y2="665.0475622947681"/>
      <line stroke="#000000" stroke-width="1" x1="1323.0" x2="1312.0" y1="760.0" y2="773.0"/>
      <line stroke="#000000" stroke-width="1" x1="1319.9184227155013" x2="1308.9184227155013" y1="757.4497291438631" y2="770.4497291438631"/>
      <line stroke="#000000" stroke-width="1" x1="1316.8368454310025" x2="1305.8368454310025" y1="754.8994582877262" y2="767.8994582877262"/>
      <line stroke="#000000" stroke-width="1" x1="1313.7552681465038" x2="1302.7552681465038" y1="752.3491874315894" y2="765.3491874315894"/>
      <line stroke="#000000" stroke-width="1" x1="1310.673690862005" x2="1299.673690862005" y1="749.7989165754525" y2="762.7989165754525"/>
      <line stroke="#000000" stroke-width="1" x1="1307.5921135775063" x2="1296.5921135775063" y1="747.2486457193156" y2="760.2486457193156"/>
      <line stroke="#000000" stroke-width="1" x1="1304.5105362930076" x2="1293.5105362930076" y1="744.6983748631787" y2="757.6983748631787"/>
      <line stroke="#000000" stroke-width="1" x1="1301.4289590085089" x2="1290.4289590085089" y1="742.1481040070419" y2="755.1481040070419"/>
      <line stroke="#000000" stroke-width="1" x1="1298.3473817240101" x2="1287.3473817240101" y1="739.597833150905" y2="752.597833150905"/>
      <line stroke="#000000" stroke-width="1" x1="1295.2658044395114" x2="1284.2658044395114" y1="737.0475622947681" y2="750.0475622947681"/>
      <line stroke="#000000" stroke-width="1" x1="1280.0" x2="1267.0" y1="750.0" y2="739.0"/>
      <line stroke="#000000" stroke-width="1" x1="1277.4497291438631" x2="1264.4497291438631" y1="753.0815772844987" y2="742.0815772844987"/>
      <line stroke="#000000" stroke-width="1" x1="1274.8994582877262" x2="1261.8994582877262" y1="756.1631545689975" y2="745.1631545689975"/>
      <line stroke="#000000" stroke-width="1" x1="1272.3491874315894" x2="1259.3491874315894" y1="759.2447318534962" y2="748.2447318534962"/>
      <line stroke="#000000" stroke-width="1" x1="1269.7989165754525" x2="1256.7989165754525" y1="762.3263091379949" y2="751.3263091379949"/>
      <line stroke="#000000" stroke-width="1" x1="1267.2486457193156" x2="1254.2486457193156" y1="765.4078864224937" y2="754.4078864224937"/>
      <line stroke="#000000" stroke-width="1" x1="1264.6983748631787" x2="1251.6983748631787" y1="768.4894637069924" y2="757.4894637069924"/>
      <line stroke="#000000" stroke-width="1" x1="1262.1481040070419" x2="1249.1481040070419" y1="771.5710409914911" y2="760.5710409914911"/>
      <line stroke="#000000" stroke-width="1" x1="1259.597833150905" x2="1246.597833150905" y1="774.6526182759899" y2="763.6526182759899"/>
      <line stroke="#000000" stroke-width="1" x1="1257.047562294768" x2="1244.047562294768" y1="777.7341955604886" y2="766.7341955604886"/>
      <polygon fill="#d0d0d0" points="1133.0,459.0 1145.0,459.0 1145.0,496.0 1133.0,496.0" stroke="#000000" stroke-width="1"/>
      <polygon fill="#d0d0d0" points="1133.0,536.0 1145.0,536.0 1145.0,573.0 1133.0,573.0" stroke="#000000" stroke-width="1"/>
      <line stroke="#7f7f7f" stroke-width="1" x1="1044.0" x2="1044.0" y1="450.0" y2="427.0"/>
      <line stroke="#7f7f7f" stroke-width="1" x1="1040.0" x2="1040.0" y1="450.0" y2="427.0"/>
      <line stroke="#7f7f7f" stroke-width="1" x1="1036.0" x2="1036.0" y1="450.0" y2="427.0"/>
      <line stroke="#7f7f7f" stroke-width="1" x1="1032.0" x2="1032.0" y1="450.0" y2="427.0"/>
      <line stroke="#7f7f7f" stroke-width="1" x1="1028.0" x2="1028.0" y1="450.0" y2="427.0"/>
      <line stroke="#7f7f7f" stroke-width="1" x1="1024.0" x2="1024.0" y1="450.0" y2="427.0"/>
      <line stroke="#7f7f7f" stroke-width="1" x1="1020.0" x2="1020.0" y1="450.0" y2="427.0"/>
      <line stroke="#7f7f7f" stroke-width="1" x1="1016.0" x2="1016.0" y1="450.0" y2="427.0"/>
      <line stroke="#7f7f7f" stroke-width="1" x1="1012.0" x2="1012.0" y1="450.0" y2="427.0"/>
      <line stroke="#7f7f7f" stroke-width="1" x1="1008.0" x2="1008.0" y1="450.0" y2="427.0"/>
      <line stroke="#7f7f7f" stroke-width="1" x1="1004.0" x2="1004.0" y1="450.0" y2="427.0"/>
      <line stroke="#7f7f7f" stroke-width="1" x1="1000.0" x2="1000.0" y1="450.0" y2="427.0"/>
      <line stroke="#7f7f7f" stroke-width="1" x1="996.0" x2="996.0" y1="450.0" y2="427.0"/>
      <line stroke="#7f7f7f" stroke-width="1" x1="992.0" x2="992.0" y1="450.0" y2="427.0"/>
      <line stroke="#7f7f7f" stroke-width="1" x1="988.0" x2="988.0" y1="450.0" y2="427.0"/>
      <polygon fill="#9b5509" points="1051.0,427.0 980.0,427.0 980.0,424.0 1051.0,424.0" stroke="#000000" stroke-width="1"/>
      <polygon fill="#9b5509" points="1051.0,432.0 1051.0,436.0 980.0,436.0 980.0,432.0" stroke="#000000" stroke-width="1"/>
      <polygon fill="#9b5509" points="1051.0,441.0 1051.0,445.0 980.0,445.0 980.0,441.0" stroke="#000000" stroke-width="1"/>
      <polygon fill="#9b5509" points="1051.0,450.0 980.0,450.0 980.0,453.0 1051.0,453.0" stroke="#000000" stroke-width="1"/>
      <line stroke="#7f7f7f" stroke-width="1" x1="1044.0" x2="1044.0" y1="599.0" y2="576.0"/>
      <line stroke="#7f7f7f" stroke-width="1" x1="1040.0" x2="1040.0" y1="599.0" y2="576.0"/>
      <line stroke="#7f7f7f" stroke-width="1" x1="1036.0" x2="1036.0" y1="599.0" y2="576.0"/>
      <line stroke="#7f7f7f" stroke-width="1" x1="1032.0" x2="1032.0" y1="599.0" y2="576.0"/>
      <line stroke="#7f7f7f" stroke-width="1" x1="1028.0" x2="1028.0" y1="599.0" y2="576.0"/>
      <line stroke="#7f7f7f" stroke-width="1" x1="1024.0" x2="1024.0" y1="599.0" y2="576.0"/>
      <line stroke="#7f7f7f" stroke-width="1" x1="1020.0" x2="1020.0" y1="599.0" y2="576.0"/>
      <line stroke="#7f7f7f" stroke-width="1" x1="1016.0" x2="1016.0" y1="599.0" y2="576.0"/>
      <line stroke="#7f7f7f" stroke-width="1" x1="1012.0" x2="1012.0" y1="599.0" y2="576.0"/>
      <line stroke="#7f7f7f" stroke-width="1" x1="1008.0" x2="1008.0" y1="599.0" y2="576.0"/>
      <line stroke="#7f7f7f" stroke-width="1" x1="1004.0" x2="1004.0" y1="599.0" y2="576.0"/>
      <line stroke="#7f7f7f" stroke-width="1" x1="1000.0" x2="1000.0" y1="599.0" y2="576.0"/>
      <line stroke="#7f7f7f" stroke-width="1" x1="996.0" x2="996.0" y1="599.0" y2="576.0"/>
      <line stroke="#7f7f7f" stroke-width="1" x1="992.0" x2="992.0" y1="599.0" y2="576.0"/>
      <line stroke="#7f7f7f" stroke-width="1" x1="988.0" x2="988.0" y1="599.0" y2="576.0"/>
      <polygon fill="#9b5509" points="1051.0,576.0 980.0,576.0 980.0,573.0 1051.0,573.0" stroke="#000000" stroke-width="1"/>
      <polygon fill="#9b5509" points="1051.0,581.0 1051.0,585.0 980.0,585.0 980.0,581.0" stroke="#000000" stroke-width="1"/>
      <polygon fill="#9b5509" points="1051.0,590.0 1051.0,594.0 980.0,594.0 980.0,590.0" stroke="#000000" stroke-width="1"/>
      <polygon fill="#9b5509" points="1051.0,599.0 980.0,599.0 980.0,602.0 1051.0,602.0" stroke="#000000" stroke-width="1"/>
      <polyline fill="none" points="1042.0,473.0 1028.0,473.0 1028.0,551.0 1042.0,551.0" stroke="#000000" stroke-width="1"/>
      <text fill="#000000" font-family="Arial" font-size="10.0" stroke="none" stroke-width="0" transform="rotate(-90.0,1028.0,521.0)" x="1028.0" y="531.0">кассы</text>
      <polyline fill="none" points="1051.0,434.0 1101.0,434.0" stroke="#000000" stroke-width="0.5"/>
      <polyline fill="none" points="1042.0,463.0 1073.0,463.0" stroke="#000000" stroke-width="0.5"/>
      <polyline fill="none" points="1042.0,563.0 1073.0,563.0" stroke="#000000" stroke-width="0.5"/>
      <polyline fill="none" points="1051.0,592.0 1101.0,592.0" stroke="#000000" stroke-width="0.5"/>
      <polygon fill="none" points="1072.0,460.0 1076.0,464.0 1080.0,460.0 1076.0,456.0" stroke="#000000" stroke-width="1"/>
      <polygon fill="none" points="1072.0,566.0 1076.0,562.0 1080.0,566.0 1076.0,570.0" stroke="#000000" stroke-width="1"/>
      <line stroke="#009900" stroke-width="1" x1="1082.0" x2="1079.0" y1="457.0" y2="454.0"/>
      <line stroke="#009900" stroke-width="1" x1="1084.8284271247462" x2="1081.8284271247462" y1="454.1715728752538" y2="451.1715728752538"/>
      <line stroke="#009900" stroke-width="1" x1="1087.6568542494924" x2="1084.6568542494924" y1="451.3431457505076" y2="448.3431457505076"/>
      <line stroke="#009900" stroke-width="1" x1="1090.4852813742386" x2="1087.4852813742386" y1="448.51471862576136" y2="445.51471862576136"/>
      <line stroke="#009900" stroke-width="1" x1="1093.3137084989849" x2="1090.3137084989849" y1="445.68629150101515" y2="442.68629150101515"/>
      <line stroke="#009900" stroke-width="1" x1="1096.142135623731" x2="1093.142135623731" y1="442.85786437626894" y2="439.85786437626894"/>
      <line stroke="#009900" stroke-width="1" x1="1098.9705627484773" x2="1095.9705627484773" y1="440.0294372515227" y2="437.0294372515227"/>
      <line stroke="#009900" stroke-width="1" x1="1101.7989898732235" x2="1098.7989898732235" y1="437.2010101267765" y2="434.2010101267765"/>
      <line stroke="#009900" stroke-width="1" x1="1082.0" x2="1079.0" y1="569.0" y2="572.0"/>
      <line stroke="#009900" stroke-width="1" x1="1084.8284271247462" x2="1081.8284271247462" y1="571.8284271247462" y2="574.8284271247462"/>
      <line stroke="#009900" stroke-width="1" x1="1087.6568542494924" x2="1084.6568542494924" y1="574.6568542494924" y2="577.6568542494924"/>
      <line stroke="#009900" stroke-width="1" x1="1090.4852813742386" x2="1087.4852813742386" y1="577.4852813742386" y2="580.4852813742386"/>
      <line stroke="#009900" stroke-width="1" x1="1093.3137084989849" x2="1090.3137084989849" y1="580.3137084989849" y2="583.3137084989849"/>
      <line stroke="#009900" stroke-width="1" x1="1096.142135623731" x2="1093.142135623731" y1="583.1421356237311" y2="586.1421356237311"/>
      <line stroke="#009900" stroke-width="1" x1="1098.9705627484773" x2="1095.9705627484773" y1="585.9705627484773" y2="588.9705627484773"/>
      <line stroke="#009900" stroke-width="1" x1="1101.7989898732235" x2="1098.7989898732235" y1="588.7989898732235" y2="591.7989898732235"/>
      <polyline fill="none" marker-end="url(#id213)" points="1133.0,435.0 1170.0,435.0" stroke="#ff0000" stroke-width="1"/>
      <polyline fill="none" marker-end="url(#id213)" points="1133.0,593.0 1170.0,593.0" stroke="#ff0000" stroke-width="1"/>
      <polyline fill="none" marker-end="url(#id213)" points="1156.0,516.0 1119.0,516.0" stroke="#009900" stroke-width="1"/>
      <text fill="#00afaf" font-family="Arial" font-size="15.0" stroke="none" stroke-width="0" x="36.0" y="625.0">Лубянский проезд</text>
      <text fill="#00afaf" font-family="Arial" font-size="15.0" stroke="none" stroke-width="0" x="556.0" y="855.0">Старая площадь</text>
      <text fill="#00afaf" font-family="Arial" font-size="15.0" stroke="none" stroke-width="0" x="-46.0" y="857.0">Новая площадь</text>
      <text fill="#00afaf" font-family="Arial" font-size="15.0" stroke="none" stroke-width="0" transform="rotate(-90.0,167.0,462.0)" x="167.0" y="477.0">улица Маросейка</text>
      <text fill="#00afaf" font-family="Arial" font-size="15.0" stroke="none" stroke-width="0" transform="rotate(-90.0,1266.0,555.0)" x="1266.0" y="570.0">Славянская площадь</text>
      <text fill="#00afaf" font-family="Arial" font-size="15.0" stroke="none" stroke-width="0" x="1334.0" y="235.0">Солянский тупик</text>
      <text fill="#00afaf" font-family="Arial" font-size="15.0" stroke="none" stroke-width="0" transform="rotate(-80.0,1190.0,833.0)" x="1190.0" y="848.0">улица Варварка</text>
      <text fill="#00afaf" font-family="Arial" font-size="15.0" stroke="none" stroke-width="0" transform="rotate(-140.0,1397.0,785.0)" x="1397.0" y="800.0">Китайгородский</text>
      <text fill="#00afaf" font-family="Arial" font-size="15.0" stroke="none" stroke-width="0" transform="rotate(-140.0,1404.0,773.0)" x="1404.0" y="788.0">проезд</text>
      <text fill="#00afaf" font-family="Arial" font-size="15.0" stroke="none" stroke-width="0" transform="rotate(-90.0,172.0,1152.0)" x="172.0" y="1167.0">улица Ильинка</text>
    </g>
    <g fill="none" fill-opacity="0.8" stroke="#000000" stroke-opacity="0.8" transform="rotate(60.0,735.0,650.0)">
      <polygon fill="#ffffff" points="726.0,477.0 762.0,477.0 762.0,551.0 726.0,551.0" stroke="#ffffff" stroke-width="1"/>
      <polyline fill="none" points="762.0,571.0 762.0,456.0" stroke="#000000" stroke-width="1"/>
      <polyline fill="none" points="726.0,571.0 726.0,456.0" stroke="#000000" stroke-width="1"/>
      <line stroke="#000000" stroke-width="1" x1="762.0" x2="726.0" y1="459.0" y2="459.0"/>
      <line stroke="#000000" stroke-width="1" x1="762.0" x2="726.0" y1="463.0" y2="463.0"/>
      <line stroke="#000000" stroke-width="1" x1="762.0" x2="726.0" y1="467.0" y2="467.0"/>
      <line stroke="#000000" stroke-width="1" x1="762.0" x2="726.0" y1="471.0" y2="471.0"/>
      <line stroke="#000000" stroke-width="1" x1="762.0" x2="726.0" y1="475.0" y2="475.0"/>
      <line stroke="#000000" stroke-width="1" x1="762.0" x2="726.0" y1="479.0" y2="479.0"/>
      <line stroke="#000000" stroke-width="1" x1="762.0" x2="726.0" y1="483.0" y2="483.0"/>
      <line stroke="#000000" stroke-width="1" x1="762.0" x2="726.0" y1="545.0" y2="545.0"/>
      <line stroke="#000000" stroke-width="1" x1="762.0" x2="726.0" y1="549.0" y2="549.0"/>
      <line stroke="#000000" stroke-width="1" x1="762.0" x2="726.0" y1="553.0" y2="553.0"/>
      <line stroke="#000000" stroke-width="1" x1="762.0" x2="726.0" y1="557.0" y2="557.0"/>
      <line stroke="#000000" stroke-width="1" x1="762.0" x2="726.0" y1="561.0" y2="561.0"/>
      <line stroke="#000000" stroke-width="1" x1="762.0" x2="726.0" y1="565.0" y2="565.0"/>
      <line stroke="#000000" stroke-width="1" x1="762.0" x2="726.0" y1="569.0" y2="569.0"/>
    </g>
    <g fill="#ffffff" fill-opacity="1.0" stroke="#000000" stroke-opacity="1.0" transform="rotate(60.0,735.0,650.0)"/>
    <g>
      <rect fill="#615f56" height="30.0" stroke="none" stroke-width="0" width="30.0" x="135.0" y="407.0"/>
      <rect fill="#615f56" height="30.0" stroke="none" stroke-width="0" width="30.0" x="79.0" y="304.0"/>
      <rect fill="#615f56" height="30.0" stroke="none" stroke-width="0" width="30.0" x="334.0" y="92.0"/>
      <rect fill="#615f56" height="30.0" stroke="none" stroke-width="0" width="30.0" x="489.0" y="4.0"/>
      <rect fill="#615f56" height="30.0" stroke="none" stroke-width="0" width="30.0" x="717.0" y="63.0"/>
      <rect fill="#615f56" height="30.0" stroke="none" stroke-width="0" width="30.0" x="685.0" y="224.0"/>
      <rect fill="#615f56" height="30.0" stroke="none" stroke-width="0" width="30.0" x="1390.0" y="1061.0"/>
      <rect fill="#615f56" height="30.0" stroke="none" stroke-width="0" width="30.0" x="1251.0" y="891.0"/>
      <rect fill="#615f56" height="30.0" stroke="none" stroke-width="0" width="30.0" x="1148.0" y="1024.0"/>
      <rect fill="#615f56" height="30.0" stroke="none" stroke-width="0" width="30.0" x="1070.0" y="1139.0"/>
      <rect fill="#615f56" height="30.0" stroke="none" stroke-width="0" width="30.0" x="1057.0" y="1199.0"/>
      <rect fill="#615f56" height="30.0" stroke="none" stroke-width="0" width="30.0" x="914.0" y="1229.0"/>
      <rect fill="#615f56" height="30.0" stroke="none" stroke-width="0" width="30.0" x="450.0" y="302.0"/>
      <rect fill="#615f56" height="30.0" stroke="none" stroke-width="0" width="30.0" x="841.0" y="1152.0"/>
      <rect fill="#615f56" height="30.0" stroke="none" stroke-width="0" width="30.0" x="511.0" y="265.0"/>
      <text fill="#ffd900" font-family="Arial" font-size="25.0" stroke="none" stroke-width="0" x="143.0" y="433.0">1</text>
      <text fill="#ffd900" font-family="Arial" font-size="25.0" stroke="none" stroke-width="0" x="87.0" y="330.0">2</text>
      <text fill="#ffd900" font-family="Arial" font-size="25.0" stroke="none" stroke-width="0" x="342.0" y="118.0">3</text>
      <text fill="#ffd900" font-family="Arial" font-size="25.0" stroke="none" stroke-width="0" x="497.0" y="30.0">5</text>
      <text fill="#ffd900" font-family="Arial" font-size="25.0" stroke="none" stroke-width="0" x="725.0" y="89.0">6</text>
      <text fill="#ffd900" font-family="Arial" font-size="25.0" stroke="none" stroke-width="0" x="693.0" y="250.0">7</text>
      <text fill="#ffd900" font-family="Arial" font-size="25.0" stroke="none" stroke-width="0" x="1398.0" y="1087.0">8</text>
      <text fill="#ffd900" font-family="Arial" font-size="25.0" stroke="none" stroke-width="0" x="1259.0" y="917.0">9</text>
      <text fill="#ffd900" font-family="Arial" font-size="25.0" stroke="none" stroke-width="0" x="1150.0" y="1050.0">10</text>
      <text fill="#ffd900" font-family="Arial" font-size="25.0" stroke="none" stroke-width="0" x="1072.0" y="1165.0">11</text>
      <text fill="#ffd900" font-family="Arial" font-size="25.0" stroke="none" stroke-width="0" x="1059.0" y="1225.0">12</text>
      <text fill="#ffd900" font-family="Arial" font-size="25.0" stroke="none" stroke-width="0" x="916.0" y="1255.0">13</text>
      <text fill="#ffd900" font-family="Arial" font-size="25.0" stroke="none" stroke-width="0" x="843.0" y="1178.0">14</text>
      <text fill="#ffd900" font-family="Arial" font-size="25.0" stroke="none" stroke-width="0" x="452.0" y="328.0">4.1</text>
      <text fill="#ffd900" font-family="Arial" font-size="25.0" stroke="none" stroke-width="0" x="513.0" y="291.0">4.2</text>
    </g>
  </g>
</svg>
