<?xml version="1.0" encoding="utf-8" ?>
<svg baseProfile="full" height="100%" version="1.1" width="100%" xmlns="http://www.w3.org/2000/svg" xmlns:ev="http://www.w3.org/2001/xml-events" xmlns:xlink="http://www.w3.org/1999/xlink">
  <defs>
    <marker id="id216" markerHeight="3" markerUnits="strokeWidth" markerWidth="4" orient="auto" refX="0" refY="5" viewBox="0,0,10,10">
      <path d="M 0 0 L 10 5 L 0 10 z"/>
    </marker>
  </defs>
  <g>
    <rect fill="none" height="1050" stroke="none" stroke-width="0" width="670" x="0" y="0"/>
    <g transform="rotate(-68.0,335,525)">
      <polygon fill="#fc9c54" points="68,559 68,529 518,529 518,559" stroke="#000000" stroke-width="1"/>
      <polygon fill="#fc9c54" points="518,449 518,419 68,419 68,449" stroke="#000000" stroke-width="1"/>
      <text fill="#f7782e" font-family="Arial" font-size="25" stroke="none" stroke-width="0" x="227" y="487.0">Коньково</text>
      <text fill="#f7782e" font-family="Arial" font-size="20" stroke="none" stroke-width="0" x="71" y="416.0">&lt;&lt; Тёплый стан</text>
      <text fill="#f7782e" font-family="Arial" font-size="20" stroke="none" stroke-width="0" x="417" y="579.0">Беляево &gt;&gt;</text>
      <polyline fill="none" points="-45,401 -81,401 -81,427 18,427 18,459 68,459 68,449" stroke="#000000" stroke-width="1"/>
      <polyline fill="none" points="-46,697 -81,697 -81,550 18,550 18,519 68,519 68,529" stroke="#000000" stroke-width="1"/>
      <polyline fill="none" points="-45,377 -146,377" stroke="#000000" stroke-width="1"/>
      <polyline fill="none" points="-46,721 -146,721" stroke="#000000" stroke-width="1"/>
      <polyline fill="none" points="-146,697 -110,697 -110,401 -146,401" stroke="#000000" stroke-width="1"/>
      <line stroke="#000000" stroke-width="1" x1="21" x2="21" y1="459" y2="519"/>
      <line stroke="#000000" stroke-width="1" x1="25" x2="25" y1="459" y2="519"/>
      <line stroke="#000000" stroke-width="1" x1="29" x2="29" y1="459" y2="519"/>
      <line stroke="#000000" stroke-width="1" x1="33" x2="33" y1="459" y2="519"/>
      <line stroke="#000000" stroke-width="1" x1="37" x2="37" y1="459" y2="519"/>
      <line stroke="#000000" stroke-width="1" x1="41" x2="41" y1="459" y2="519"/>
      <line stroke="#000000" stroke-width="1" x1="45" x2="45" y1="459" y2="519"/>
      <line stroke="#000000" stroke-width="1" x1="49" x2="49" y1="459" y2="519"/>
      <line stroke="#000000" stroke-width="1" x1="53" x2="53" y1="459" y2="519"/>
      <line stroke="#000000" stroke-width="1" x1="57" x2="57" y1="459" y2="519"/>
      <line stroke="#000000" stroke-width="1" x1="61" x2="61" y1="459" y2="519"/>
      <line stroke="#000000" stroke-width="1" x1="65" x2="65" y1="459" y2="519"/>
      <line stroke="#000000" stroke-width="1" x1="-79" x2="-79" y1="377" y2="401"/>
      <line stroke="#000000" stroke-width="1" x1="-75" x2="-75" y1="377" y2="401"/>
      <line stroke="#000000" stroke-width="1" x1="-71" x2="-71" y1="377" y2="401"/>
      <line stroke="#000000" stroke-width="1" x1="-67" x2="-67" y1="377" y2="401"/>
      <line stroke="#000000" stroke-width="1" x1="-63" x2="-63" y1="377" y2="401"/>
      <line stroke="#000000" stroke-width="1" x1="-59" x2="-59" y1="377" y2="401"/>
      <line stroke="#000000" stroke-width="1" x1="-55" x2="-55" y1="377" y2="401"/>
      <line stroke="#000000" stroke-width="1" x1="-51" x2="-51" y1="377" y2="401"/>
      <line stroke="#000000" stroke-width="1" x1="-47" x2="-47" y1="377" y2="401"/>
      <line stroke="#000000" stroke-width="1" x1="-144" x2="-144" y1="377" y2="401"/>
      <line stroke="#000000" stroke-width="1" x1="-140" x2="-140" y1="377" y2="401"/>
      <line stroke="#000000" stroke-width="1" x1="-136" x2="-136" y1="377" y2="401"/>
      <line stroke="#000000" stroke-width="1" x1="-132" x2="-132" y1="377" y2="401"/>
      <line stroke="#000000" stroke-width="1" x1="-128" x2="-128" y1="377" y2="401"/>
      <line stroke="#000000" stroke-width="1" x1="-124" x2="-124" y1="377" y2="401"/>
      <line stroke="#000000" stroke-width="1" x1="-120" x2="-120" y1="377" y2="401"/>
      <line stroke="#000000" stroke-width="1" x1="-116" x2="-116" y1="377" y2="401"/>
      <line stroke="#000000" stroke-width="1" x1="-112" x2="-112" y1="377" y2="401"/>
      <line stroke="#000000" stroke-width="1" x1="-80" x2="-80" y1="697" y2="721"/>
      <line stroke="#000000" stroke-width="1" x1="-76" x2="-76" y1="697" y2="721"/>
      <line stroke="#000000" stroke-width="1" x1="-72" x2="-72" y1="697" y2="721"/>
      <line stroke="#000000" stroke-width="1" x1="-68" x2="-68" y1="697" y2="721"/>
      <line stroke="#000000" stroke-width="1" x1="-64" x2="-64" y1="697" y2="721"/>
      <line stroke="#000000" stroke-width="1" x1="-60" x2="-60" y1="697" y2="721"/>
      <line stroke="#000000" stroke-width="1" x1="-56" x2="-56" y1="697" y2="721"/>
      <line stroke="#000000" stroke-width="1" x1="-52" x2="-52" y1="697" y2="721"/>
      <line stroke="#000000" stroke-width="1" x1="-48" x2="-48" y1="697" y2="721"/>
      <line stroke="#000000" stroke-width="1" x1="-144" x2="-144" y1="697" y2="721"/>
      <line stroke="#000000" stroke-width="1" x1="-140" x2="-140" y1="697" y2="721"/>
      <line stroke="#000000" stroke-width="1" x1="-136" x2="-136" y1="697" y2="721"/>
      <line stroke="#000000" stroke-width="1" x1="-132" x2="-132" y1="697" y2="721"/>
      <line stroke="#000000" stroke-width="1" x1="-128" x2="-128" y1="697" y2="721"/>
      <line stroke="#000000" stroke-width="1" x1="-124" x2="-124" y1="697" y2="721"/>
      <line stroke="#000000" stroke-width="1" x1="-120" x2="-120" y1="697" y2="721"/>
      <line stroke="#000000" stroke-width="1" x1="-116" x2="-116" y1="697" y2="721"/>
      <line stroke="#000000" stroke-width="1" x1="-112" x2="-112" y1="697" y2="721"/>
      <polygon fill="#d0d0d0" points="-71,460 -79,460 -79,517 -71,517" stroke="#000000" stroke-width="1"/>
      <polyline fill="none" points="18,521 31,521 31,548 18,548" stroke="#000000" stroke-width="1"/>
      <text fill="#000000" font-family="Arial" font-size="10" stroke="none" stroke-width="0" transform="rotate(90.0,31,522)" x="31" y="532.0">кассы</text>
      <polygon fill="none" points="-29,473 -33,477 -37,473 -33,469" stroke="#000000" stroke-width="1"/>
      <line stroke="#009900" stroke-width="1" x1="-27" x2="-30" y1="476" y2="479"/>
      <line stroke="#009900" stroke-width="1" x1="-24.1715728753" x2="-27.1715728753" y1="478.828427125" y2="481.828427125"/>
      <line stroke="#009900" stroke-width="1" x1="-21.3431457505" x2="-24.3431457505" y1="481.656854249" y2="484.656854249"/>
      <line stroke="#009900" stroke-width="1" x1="-18.5147186258" x2="-21.5147186258" y1="484.485281374" y2="487.485281374"/>
      <line stroke="#009900" stroke-width="1" x1="-15.686291501" x2="-18.686291501" y1="487.313708499" y2="490.313708499"/>
      <line stroke="#009900" stroke-width="1" x1="-12.8578643763" x2="-15.8578643763" y1="490.142135624" y2="493.142135624"/>
      <line stroke="#009900" stroke-width="1" x1="-10.0294372515" x2="-13.0294372515" y1="492.970562748" y2="495.970562748"/>
      <line stroke="#009900" stroke-width="1" x1="-7.20101012678" x2="-10.2010101268" y1="495.798989873" y2="498.798989873"/>
      <line stroke="#009900" stroke-width="1" x1="-4.37258300203" x2="-7.37258300203" y1="498.627416998" y2="501.627416998"/>
      <line stroke="#009900" stroke-width="1" x1="-1.54415587728" x2="-4.54415587728" y1="501.455844123" y2="504.455844123"/>
      <line stroke="#009900" stroke-width="1" x1="1.28427124746" x2="-1.71572875254" y1="504.284271247" y2="507.284271247"/>
      <line stroke="#009900" stroke-width="1" x1="4.11269837221" x2="1.11269837221" y1="507.112698372" y2="510.112698372"/>
      <line stroke="#009900" stroke-width="1" x1="6.94112549695" x2="3.94112549695" y1="509.941125497" y2="512.941125497"/>
      <line stroke="#009900" stroke-width="1" x1="9.7695526217" x2="6.7695526217" y1="512.769552622" y2="515.769552622"/>
      <line stroke="#009900" stroke-width="1" x1="12.5979797464" x2="9.59797974645" y1="515.597979746" y2="518.597979746"/>
      <line stroke="#009900" stroke-width="1" x1="15.4264068712" x2="12.4264068712" y1="518.426406871" y2="521.426406871"/>
      <line stroke="#ff0000" stroke-width="1" x1="-33" x2="-37" y1="431" y2="431"/>
      <line stroke="#ff0000" stroke-width="1" x1="-33" x2="-37" y1="435" y2="435"/>
      <line stroke="#ff0000" stroke-width="1" x1="-33" x2="-37" y1="439" y2="439"/>
      <line stroke="#ff0000" stroke-width="1" x1="-33" x2="-37" y1="443" y2="443"/>
      <line stroke="#ff0000" stroke-width="1" x1="-33" x2="-37" y1="447" y2="447"/>
      <line stroke="#ff0000" stroke-width="1" x1="-33" x2="-37" y1="451" y2="451"/>
      <line stroke="#ff0000" stroke-width="1" x1="-33" x2="-37" y1="455" y2="455"/>
      <line stroke="#ff0000" stroke-width="1" x1="-33" x2="-37" y1="459" y2="459"/>
      <line stroke="#ff0000" stroke-width="1" x1="-33" x2="-37" y1="463" y2="463"/>
      <line stroke="#ff0000" stroke-width="1" x1="-33" x2="-37" y1="467" y2="467"/>
      <polyline fill="none" points="630,401 667,401 667,427 568,427 568,459 518,459 518,449" stroke="#000000" stroke-width="1"/>
      <polyline fill="none" points="693,340 693,377 782,377 782,340" stroke="#000000" stroke-width="1"/>
      <polyline fill="none" points="629,585 667,585 667,550 568,550 568,519 518,519 518,529" stroke="#000000" stroke-width="1"/>
      <polyline fill="none" points="808,438 808,340" stroke="#000000" stroke-width="1"/>
      <polyline fill="none" points="630,377 667,377 667,340" stroke="#000000" stroke-width="1"/>
      <polyline fill="none" points="630,721 696,721 696,401 782,401 782,438" stroke="#000000" stroke-width="1"/>
      <polyline fill="none" points="630,697 667,697 667,607 629,607" stroke="#000000" stroke-width="1"/>
      <line stroke="#000000" stroke-width="1" x1="667" x2="693" y1="343" y2="343"/>
      <line stroke="#000000" stroke-width="1" x1="667" x2="693" y1="347" y2="347"/>
      <line stroke="#000000" stroke-width="1" x1="667" x2="693" y1="351" y2="351"/>
      <line stroke="#000000" stroke-width="1" x1="667" x2="693" y1="355" y2="355"/>
      <line stroke="#000000" stroke-width="1" x1="667" x2="693" y1="359" y2="359"/>
      <line stroke="#000000" stroke-width="1" x1="667" x2="693" y1="363" y2="363"/>
      <line stroke="#000000" stroke-width="1" x1="667" x2="693" y1="367" y2="367"/>
      <line stroke="#000000" stroke-width="1" x1="667" x2="693" y1="371" y2="371"/>
      <line stroke="#000000" stroke-width="1" x1="667" x2="693" y1="375" y2="375"/>
      <line stroke="#000000" stroke-width="1" x1="632" x2="632" y1="377" y2="401"/>
      <line stroke="#000000" stroke-width="1" x1="636" x2="636" y1="377" y2="401"/>
      <line stroke="#000000" stroke-width="1" x1="640" x2="640" y1="377" y2="401"/>
      <line stroke="#000000" stroke-width="1" x1="644" x2="644" y1="377" y2="401"/>
      <line stroke="#000000" stroke-width="1" x1="648" x2="648" y1="377" y2="401"/>
      <line stroke="#000000" stroke-width="1" x1="652" x2="652" y1="377" y2="401"/>
      <line stroke="#000000" stroke-width="1" x1="656" x2="656" y1="377" y2="401"/>
      <line stroke="#000000" stroke-width="1" x1="660" x2="660" y1="377" y2="401"/>
      <line stroke="#000000" stroke-width="1" x1="664" x2="664" y1="377" y2="401"/>
      <line stroke="#000000" stroke-width="1" x1="782" x2="808" y1="403" y2="403"/>
      <line stroke="#000000" stroke-width="1" x1="782" x2="808" y1="407" y2="407"/>
      <line stroke="#000000" stroke-width="1" x1="782" x2="808" y1="411" y2="411"/>
      <line stroke="#000000" stroke-width="1" x1="782" x2="808" y1="415" y2="415"/>
      <line stroke="#000000" stroke-width="1" x1="782" x2="808" y1="419" y2="419"/>
      <line stroke="#000000" stroke-width="1" x1="782" x2="808" y1="423" y2="423"/>
      <line stroke="#000000" stroke-width="1" x1="782" x2="808" y1="427" y2="427"/>
      <line stroke="#000000" stroke-width="1" x1="782" x2="808" y1="431" y2="431"/>
      <line stroke="#000000" stroke-width="1" x1="782" x2="808" y1="435" y2="435"/>
      <line stroke="#000000" stroke-width="1" x1="808" x2="782" y1="343" y2="343"/>
      <line stroke="#000000" stroke-width="1" x1="808" x2="782" y1="347" y2="347"/>
      <line stroke="#000000" stroke-width="1" x1="808" x2="782" y1="351" y2="351"/>
      <line stroke="#000000" stroke-width="1" x1="808" x2="782" y1="355" y2="355"/>
      <line stroke="#000000" stroke-width="1" x1="808" x2="782" y1="359" y2="359"/>
      <line stroke="#000000" stroke-width="1" x1="808" x2="782" y1="363" y2="363"/>
      <line stroke="#000000" stroke-width="1" x1="808" x2="782" y1="367" y2="367"/>
      <line stroke="#000000" stroke-width="1" x1="808" x2="782" y1="371" y2="371"/>
      <line stroke="#000000" stroke-width="1" x1="808" x2="782" y1="375" y2="375"/>
      <line stroke="#000000" stroke-width="1" x1="633" x2="633" y1="721" y2="697"/>
      <line stroke="#000000" stroke-width="1" x1="637" x2="637" y1="721" y2="697"/>
      <line stroke="#000000" stroke-width="1" x1="641" x2="641" y1="721" y2="697"/>
      <line stroke="#000000" stroke-width="1" x1="645" x2="645" y1="721" y2="697"/>
      <line stroke="#000000" stroke-width="1" x1="649" x2="649" y1="721" y2="697"/>
      <line stroke="#000000" stroke-width="1" x1="653" x2="653" y1="721" y2="697"/>
      <line stroke="#000000" stroke-width="1" x1="657" x2="657" y1="721" y2="697"/>
      <line stroke="#000000" stroke-width="1" x1="661" x2="661" y1="721" y2="697"/>
      <line stroke="#000000" stroke-width="1" x1="665" x2="665" y1="721" y2="697"/>
      <line stroke="#000000" stroke-width="1" x1="632" x2="632" y1="585" y2="607"/>
      <line stroke="#000000" stroke-width="1" x1="636" x2="636" y1="585" y2="607"/>
      <line stroke="#000000" stroke-width="1" x1="640" x2="640" y1="585" y2="607"/>
      <line stroke="#000000" stroke-width="1" x1="644" x2="644" y1="585" y2="607"/>
      <line stroke="#000000" stroke-width="1" x1="648" x2="648" y1="585" y2="607"/>
      <line stroke="#000000" stroke-width="1" x1="652" x2="652" y1="585" y2="607"/>
      <line stroke="#000000" stroke-width="1" x1="656" x2="656" y1="585" y2="607"/>
      <line stroke="#000000" stroke-width="1" x1="660" x2="660" y1="585" y2="607"/>
      <line stroke="#000000" stroke-width="1" x1="664" x2="664" y1="585" y2="607"/>
      <line stroke="#000000" stroke-width="1" x1="565" x2="565" y1="459" y2="519"/>
      <line stroke="#000000" stroke-width="1" x1="561" x2="561" y1="459" y2="519"/>
      <line stroke="#000000" stroke-width="1" x1="557" x2="557" y1="459" y2="519"/>
      <line stroke="#000000" stroke-width="1" x1="553" x2="553" y1="459" y2="519"/>
      <line stroke="#000000" stroke-width="1" x1="549" x2="549" y1="459" y2="519"/>
      <line stroke="#000000" stroke-width="1" x1="545" x2="545" y1="459" y2="519"/>
      <line stroke="#000000" stroke-width="1" x1="541" x2="541" y1="459" y2="519"/>
      <line stroke="#000000" stroke-width="1" x1="537" x2="537" y1="459" y2="519"/>
      <line stroke="#000000" stroke-width="1" x1="533" x2="533" y1="459" y2="519"/>
      <line stroke="#000000" stroke-width="1" x1="529" x2="529" y1="459" y2="519"/>
      <line stroke="#000000" stroke-width="1" x1="525" x2="525" y1="459" y2="519"/>
      <line stroke="#000000" stroke-width="1" x1="521" x2="521" y1="459" y2="519"/>
      <polygon fill="#d0d0d0" points="667,460 659,460 659,517 667,517" stroke="#000000" stroke-width="1"/>
      <polygon fill="none" points="626,468 622,472 618,468 622,464" stroke="#000000" stroke-width="1"/>
      <line stroke="#009900" stroke-width="1" x1="615" x2="618" y1="471" y2="474"/>
      <line stroke="#009900" stroke-width="1" x1="612.264235484" x2="615.264235484" y1="473.918148817" y2="476.918148817"/>
      <line stroke="#009900" stroke-width="1" x1="609.528470969" x2="612.528470969" y1="476.836297633" y2="479.836297633"/>
      <line stroke="#009900" stroke-width="1" x1="606.792706453" x2="609.792706453" y1="479.75444645" y2="482.75444645"/>
      <line stroke="#009900" stroke-width="1" x1="604.056941938" x2="607.056941938" y1="482.672595266" y2="485.672595266"/>
      <line stroke="#009900" stroke-width="1" x1="601.321177422" x2="604.321177422" y1="485.590744083" y2="488.590744083"/>
      <line stroke="#009900" stroke-width="1" x1="598.585412907" x2="601.585412907" y1="488.508892899" y2="491.508892899"/>
      <line stroke="#009900" stroke-width="1" x1="595.849648391" x2="598.849648391" y1="491.427041716" y2="494.427041716"/>
      <line stroke="#009900" stroke-width="1" x1="593.113883876" x2="596.113883876" y1="494.345190532" y2="497.345190532"/>
      <line stroke="#009900" stroke-width="1" x1="590.37811936" x2="593.37811936" y1="497.263339349" y2="500.263339349"/>
      <line stroke="#009900" stroke-width="1" x1="587.642354845" x2="590.642354845" y1="500.181488166" y2="503.181488166"/>
      <line stroke="#009900" stroke-width="1" x1="584.906590329" x2="587.906590329" y1="503.099636982" y2="506.099636982"/>
      <line stroke="#009900" stroke-width="1" x1="582.170825814" x2="585.170825814" y1="506.017785799" y2="509.017785799"/>
      <line stroke="#009900" stroke-width="1" x1="579.435061298" x2="582.435061298" y1="508.935934615" y2="511.935934615"/>
      <line stroke="#009900" stroke-width="1" x1="576.699296783" x2="579.699296783" y1="511.854083432" y2="514.854083432"/>
      <line stroke="#009900" stroke-width="1" x1="573.963532267" x2="576.963532267" y1="514.772232248" y2="517.772232248"/>
      <line stroke="#009900" stroke-width="1" x1="571.227767752" x2="574.227767752" y1="517.690381065" y2="520.690381065"/>
      <line stroke="#ff0000" stroke-width="1" x1="625" x2="620" y1="431" y2="431"/>
      <line stroke="#ff0000" stroke-width="1" x1="625" x2="620" y1="435" y2="435"/>
      <line stroke="#ff0000" stroke-width="1" x1="625" x2="620" y1="439" y2="439"/>
      <line stroke="#ff0000" stroke-width="1" x1="625" x2="620" y1="443" y2="443"/>
      <line stroke="#ff0000" stroke-width="1" x1="625" x2="620" y1="447" y2="447"/>
      <line stroke="#ff0000" stroke-width="1" x1="625" x2="620" y1="451" y2="451"/>
      <line stroke="#ff0000" stroke-width="1" x1="625" x2="620" y1="455" y2="455"/>
      <line stroke="#ff0000" stroke-width="1" x1="625" x2="620" y1="459" y2="459"/>
      <line stroke="#ff0000" stroke-width="1" x1="625" x2="620" y1="463" y2="463"/>
      <polyline fill="none" points="568,521 555,521 555,548 568,548" stroke="#000000" stroke-width="1"/>
      <text fill="#000000" font-family="Arial" font-size="10" stroke="none" stroke-width="0" transform="rotate(90.0,568,523)" x="568" y="533.0">кассы</text>
      <polyline fill="none" marker-end="url(#id216)" points="645,443 659,443" stroke="#ff0000" stroke-width="1"/>
      <polyline fill="none" marker-end="url(#id216)" points="-56,443 -68,443" stroke="#ff0000" stroke-width="1"/>
      <polyline fill="none" marker-end="url(#id216)" points="647,532 638,523" stroke="#009900" stroke-width="1"/>
      <polyline fill="none" marker-end="url(#id216)" points="-50,527 -41,518" stroke="#009900" stroke-width="1"/>
      <polygon fill="#34349c" points="592,461 597,461 597,459 592,459" stroke="#34349c" stroke-width="1"/>
      <polygon fill="#34349c" points="278,501 278,491 276,491 276,501" stroke="#34349c" stroke-width="1"/>
      <polygon fill="#34349c" points="-68,470 -68,465 -66,465 -66,470" stroke="#34349c" stroke-width="1"/>
      <polygon fill="#ff0000" points="587,461 592,461 592,459 587,459" stroke="#ff0000" stroke-width="1"/>
      <polygon fill="#ff0000" points="278,496 278,501 276,501 276,496" stroke="#ff0000" stroke-width="1"/>
      <polygon fill="#ff0000" points="-68,475 -68,470 -66,470 -66,475" stroke="#ff0000" stroke-width="1"/>
      <text fill="#00afaf" font-family="Arial" font-size="20" stroke="none" stroke-width="0" x="474" y="664.0">Профсоюзная улица</text>
      <text fill="#00afaf" font-family="Arial" font-size="20" stroke="none" stroke-width="0" x="-58" y="664.0">Профсоюзная улица</text>
      <text fill="#00afaf" font-family="Arial" font-size="20" stroke="none" stroke-width="0" transform="rotate(90.0,749,170)" x="749" y="190.0">улица Островитянова</text>
    </g>
    <g>
      <rect fill="#615f56" height="30" stroke="none" stroke-width="0" width="30" x="380" y="952"/>
      <rect fill="#615f56" height="30" stroke="none" stroke-width="0" width="30" x="357" y="1015"/>
      <rect fill="#615f56" height="30" stroke="none" stroke-width="0" width="30" x="52" y="912"/>
      <rect fill="#615f56" height="30" stroke="none" stroke-width="0" width="30" x="10" y="816"/>
      <rect fill="#615f56" height="30" stroke="none" stroke-width="0" width="30" x="267" y="186"/>
      <rect fill="#615f56" height="30" stroke="none" stroke-width="0" width="30" x="256" y="151"/>
      <rect fill="#615f56" height="30" stroke="none" stroke-width="0" width="30" x="324" y="52"/>
      <rect fill="#615f56" height="30" stroke="none" stroke-width="0" width="30" x="390" y="79"/>
      <rect fill="#615f56" height="30" stroke="none" stroke-width="0" width="30" x="532" y="263"/>
      <rect fill="#615f56" height="30" stroke="none" stroke-width="0" width="30" x="637" y="307"/>
      <text fill="#ffd900" font-family="Arial" font-size="25" stroke="none" stroke-width="0" x="388" y="978.0">1</text>
      <text fill="#ffd900" font-family="Arial" font-size="25" stroke="none" stroke-width="0" x="365" y="1041.0">2</text>
      <text fill="#ffd900" font-family="Arial" font-size="25" stroke="none" stroke-width="0" x="60" y="938.0">3</text>
      <text fill="#ffd900" font-family="Arial" font-size="25" stroke="none" stroke-width="0" x="18" y="842.0">4</text>
      <text fill="#ffd900" font-family="Arial" font-size="25" stroke="none" stroke-width="0" x="275" y="212.0">5</text>
      <text fill="#ffd900" font-family="Arial" font-size="25" stroke="none" stroke-width="0" x="264" y="177.0">6</text>
      <text fill="#ffd900" font-family="Arial" font-size="25" stroke="none" stroke-width="0" x="332" y="78.0">7</text>
      <text fill="#ffd900" font-family="Arial" font-size="25" stroke="none" stroke-width="0" x="398" y="105.0">8</text>
      <text fill="#ffd900" font-family="Arial" font-size="25" stroke="none" stroke-width="0" x="540" y="289.0">9</text>
      <text fill="#ffd900" font-family="Arial" font-size="25" stroke="none" stroke-width="0" x="639" y="333.0">10</text>
    </g>
  </g>
</svg>
