<?xml version="1.0" encoding="utf-8" ?>
<svg baseProfile="full" height="100%" version="1.1" width="100%" xmlns="http://www.w3.org/2000/svg" xmlns:ev="http://www.w3.org/2001/xml-events" xmlns:xlink="http://www.w3.org/1999/xlink"><defs><marker id="id70" markerHeight="3" markerUnits="strokeWidth" markerWidth="4" orient="auto" refX="0" refY="5" viewBox="0,0,10,10"><path d="M 0 0 L 10 5 L 0 10 z" /></marker></defs><g transform="rotate(40.0,390,560)"><rect fill="none" height="1120" stroke="none" stroke-width="0" width="780" x="0" y="0" /><polyline fill="none" points="-222,455 1341,455" stroke="#F5F5F5" stroke-width="80" /><polygon fill="#AC24AC" points="834,640 384,640 384,670 834,670" stroke="#000000" stroke-width="1" /><polygon fill="#AC24AC" points="834,750 384,750 384,780 834,780" stroke="#000000" stroke-width="1" /><text fill="#AC24AC" font-family="Arial" font-size="20" stroke="none" stroke-width="0" x="707" y="800.0">посадки нет &gt;&gt;</text><text fill="#AC24AC" font-family="Arial" font-size="20" stroke="none" stroke-width="0" x="384" y="635.0">&lt;&lt; Жулебино</text><text fill="#AC24AC" font-family="Arial" font-size="25" stroke="none" stroke-width="0" x="545" y="716.0">Котельники</text><polyline fill="none" points="384,670 384,687 370,687 370,690" stroke="#000000" stroke-width="1" /><polyline fill="none" points="330,672 347,672 347,640 210,640 119,510 119,417 53,323 61,317 91,360" stroke="#000000" stroke-width="1" /><polyline fill="none" points="330,687 330,690" stroke="#000000" stroke-width="1" /><polyline fill="none" points="105,350 65,292 36,312 -14,241 -14,190" stroke="#000000" stroke-width="1" /><polyline fill="none" points="-32,190 -32,247 93,426 93,518 164,620 70,620 70,697" stroke="#000000" stroke-width="1" /><polyline fill="none" points="88,697 88,640 176,640 176,675 166,675 166,781 182,781 182,813 132,813" stroke="#000000" stroke-width="1" /><polyline fill="none" points="132,831 261,831" stroke="#000000" stroke-width="1" /><polyline fill="none" points="261,813 210,813 210,781 347,781 347,746 316,746 316,734 330,734 330,731" stroke="#000000" stroke-width="1" /><polyline fill="none" points="370,731 370,734 384,734 384,750" stroke="#000000" stroke-width="1" /><line stroke="#000000" stroke-width="1" x1="-14" x2="-32" y1="192" y2="192" /><line stroke="#000000" stroke-width="1" x1="-14" x2="-32" y1="196" y2="196" /><line stroke="#000000" stroke-width="1" x1="-14" x2="-32" y1="200" y2="200" /><line stroke="#000000" stroke-width="1" x1="-14" x2="-32" y1="204" y2="204" /><line stroke="#000000" stroke-width="1" x1="-14" x2="-32" y1="208" y2="208" /><line stroke="#000000" stroke-width="1" x1="-14" x2="-32" y1="212" y2="212" /><line stroke="#000000" stroke-width="1" x1="-14" x2="-32" y1="216" y2="216" /><line stroke="#000000" stroke-width="1" x1="-14" x2="-32" y1="220" y2="220" /><line stroke="#000000" stroke-width="1" x1="-14" x2="-32" y1="224" y2="224" /><line stroke="#000000" stroke-width="1" x1="-14" x2="-32" y1="228" y2="228" /><line stroke="#000000" stroke-width="1" x1="-14" x2="-32" y1="232" y2="232" /><line stroke="#000000" stroke-width="1" x1="-14" x2="-32" y1="236" y2="236" /><line stroke="#000000" stroke-width="1" x1="88" x2="70" y1="695" y2="695" /><line stroke="#000000" stroke-width="1" x1="88" x2="70" y1="691" y2="691" /><line stroke="#000000" stroke-width="1" x1="88" x2="70" y1="687" y2="687" /><line stroke="#000000" stroke-width="1" x1="88" x2="70" y1="683" y2="683" /><line stroke="#000000" stroke-width="1" x1="88" x2="70" y1="679" y2="679" /><line stroke="#000000" stroke-width="1" x1="88" x2="70" y1="675" y2="675" /><line stroke="#000000" stroke-width="1" x1="88" x2="70" y1="671" y2="671" /><line stroke="#000000" stroke-width="1" x1="88" x2="70" y1="667" y2="667" /><line stroke="#000000" stroke-width="1" x1="88" x2="70" y1="663" y2="663" /><line stroke="#000000" stroke-width="1" x1="88" x2="70" y1="659" y2="659" /><line stroke="#000000" stroke-width="1" x1="88" x2="70" y1="655" y2="655" /><line stroke="#000000" stroke-width="1" x1="88" x2="70" y1="651" y2="651" /><line stroke="#000000" stroke-width="1" x1="134" x2="134" y1="813" y2="831" /><line stroke="#000000" stroke-width="1" x1="138" x2="138" y1="813" y2="831" /><line stroke="#000000" stroke-width="1" x1="142" x2="142" y1="813" y2="831" /><line stroke="#000000" stroke-width="1" x1="146" x2="146" y1="813" y2="831" /><line stroke="#000000" stroke-width="1" x1="150" x2="150" y1="813" y2="831" /><line stroke="#000000" stroke-width="1" x1="154" x2="154" y1="813" y2="831" /><line stroke="#000000" stroke-width="1" x1="158" x2="158" y1="813" y2="831" /><line stroke="#000000" stroke-width="1" x1="162" x2="162" y1="813" y2="831" /><line stroke="#000000" stroke-width="1" x1="166" x2="166" y1="813" y2="831" /><line stroke="#000000" stroke-width="1" x1="170" x2="170" y1="813" y2="831" /><line stroke="#000000" stroke-width="1" x1="174" x2="174" y1="813" y2="831" /><line stroke="#000000" stroke-width="1" x1="178" x2="178" y1="813" y2="831" /><line stroke="#000000" stroke-width="1" x1="259" x2="259" y1="813" y2="831" /><line stroke="#000000" stroke-width="1" x1="255" x2="255" y1="813" y2="831" /><line stroke="#000000" stroke-width="1" x1="251" x2="251" y1="813" y2="831" /><line stroke="#000000" stroke-width="1" x1="247" x2="247" y1="813" y2="831" /><line stroke="#000000" stroke-width="1" x1="243" x2="243" y1="813" y2="831" /><line stroke="#000000" stroke-width="1" x1="239" x2="239" y1="813" y2="831" /><line stroke="#000000" stroke-width="1" x1="235" x2="235" y1="813" y2="831" /><line stroke="#000000" stroke-width="1" x1="231" x2="231" y1="813" y2="831" /><line stroke="#000000" stroke-width="1" x1="227" x2="227" y1="813" y2="831" /><line stroke="#000000" stroke-width="1" x1="223" x2="223" y1="813" y2="831" /><line stroke="#000000" stroke-width="1" x1="219" x2="219" y1="813" y2="831" /><line stroke="#000000" stroke-width="1" x1="215" x2="215" y1="813" y2="831" /><line stroke="#000000" stroke-width="1" x1="89" x2="103" y1="357" y2="347" /><line stroke="#000000" stroke-width="1" x1="86.7002179331" x2="100.700217933" y1="353.727233213" y2="343.727233213" /><line stroke="#000000" stroke-width="1" x1="84.4004358663" x2="98.4004358663" y1="350.454466425" y2="340.454466425" /><line stroke="#000000" stroke-width="1" x1="82.1006537994" x2="96.1006537994" y1="347.181699638" y2="337.181699638" /><line stroke="#000000" stroke-width="1" x1="79.8008717326" x2="93.8008717326" y1="343.90893285" y2="333.90893285" /><line stroke="#000000" stroke-width="1" x1="77.5010896657" x2="91.5010896657" y1="340.636166063" y2="330.636166063" /><line stroke="#000000" stroke-width="1" x1="75.2013075989" x2="89.2013075989" y1="337.363399275" y2="327.363399275" /><line stroke="#000000" stroke-width="1" x1="72.901525532" x2="86.901525532" y1="334.090632488" y2="324.090632488" /><line stroke="#000000" stroke-width="1" x1="70.6017434652" x2="84.6017434652" y1="330.8178657" y2="320.8178657" /><line stroke="#000000" stroke-width="1" x1="68.3019613983" x2="82.3019613983" y1="327.545098913" y2="317.545098913" /><line stroke="#000000" stroke-width="1" x1="66.0021793315" x2="80.0021793315" y1="324.272332126" y2="314.272332126" /><line stroke="#000000" stroke-width="1" x1="63.7023972646" x2="77.7023972646" y1="320.999565338" y2="310.999565338" /><polygon fill="#D0D0D0" points="234,746 234,675 210,675 210,746" stroke="#000000" stroke-width="1" /><line stroke="#7F7F7F" stroke-width="1" x1="372" x2="372" y1="728" y2="693" /><line stroke="#7F7F7F" stroke-width="1" x1="368" x2="368" y1="728" y2="693" /><line stroke="#7F7F7F" stroke-width="1" x1="364" x2="364" y1="728" y2="693" /><line stroke="#7F7F7F" stroke-width="1" x1="360" x2="360" y1="728" y2="693" /><line stroke="#7F7F7F" stroke-width="1" x1="356" x2="356" y1="728" y2="693" /><line stroke="#7F7F7F" stroke-width="1" x1="352" x2="352" y1="728" y2="693" /><line stroke="#7F7F7F" stroke-width="1" x1="348" x2="348" y1="728" y2="693" /><line stroke="#7F7F7F" stroke-width="1" x1="344" x2="344" y1="728" y2="693" /><line stroke="#7F7F7F" stroke-width="1" x1="340" x2="340" y1="728" y2="693" /><line stroke="#7F7F7F" stroke-width="1" x1="336" x2="336" y1="728" y2="693" /><line stroke="#7F7F7F" stroke-width="1" x1="332" x2="332" y1="728" y2="693" /><line stroke="#7F7F7F" stroke-width="1" x1="328" x2="328" y1="728" y2="693" /><polygon fill="#9B5509" points="379,693 321,693 321,690 379,690" stroke="#000000" stroke-width="1" /><polygon fill="#9B5509" points="379,701 379,706 321,706 321,701" stroke="#000000" stroke-width="1" /><polygon fill="#9B5509" points="379,715 379,720 321,720 321,715" stroke="#000000" stroke-width="1" /><polygon fill="#9B5509" points="379,728 321,728 321,731 379,731" stroke="#000000" stroke-width="1" /><polygon fill="#D0EFFF" points="315,687 315,672 330,672 330,687" stroke="#000000" stroke-width="1" /><polygon fill="#D0EFFF" points="72,620 72,605 87,605 87,620" stroke="#000000" stroke-width="1" /><polygon fill="#D0EFFF" points="41,289 54,280 63,293 50,302" stroke="#000000" stroke-width="1" /><polygon fill="#D0EFFF" points="-38,266 -25,257 -16,270 -29,279" stroke="#000000" stroke-width="1" /><text fill="#000000" font-family="Arial" font-size="6" stroke="none" stroke-width="0" transform="rotate(-90.0,318,686)" x="318" y="692.0">лифт</text><text fill="#000000" font-family="Arial" font-size="6" stroke="none" stroke-width="0" transform="rotate(-90.0,75,619)" x="75" y="625.0">лифт</text><text fill="#000000" font-family="Arial" font-size="6" stroke="none" stroke-width="0" transform="rotate(-90.0,48,297)" x="48" y="303.0">лифт</text><text fill="#000000" font-family="Arial" font-size="6" stroke="none" stroke-width="0" transform="rotate(-90.0,-31,274)" x="-31" y="280.0">лифт</text><polyline fill="none" marker-end="url(#id70)" points="234,763 210,763" stroke="#FF0000" stroke-width="1" /><polyline fill="none" marker-end="url(#id70)" points="210,657 234,657" stroke="#009900" stroke-width="1" /><polyline fill="none" points="834,670 834,682 846,682 846,684" stroke="#000000" stroke-width="1" /><polyline fill="none" points="846,737 846,739 834,739 834,750" stroke="#000000" stroke-width="1" /><polyline fill="none" points="890,682 890,684" stroke="#000000" stroke-width="1" /><polyline fill="none" points="890,739 890,737" stroke="#000000" stroke-width="1" /><line stroke="#7F7F7F" stroke-width="1" x1="892" x2="892" y1="734" y2="687" /><line stroke="#7F7F7F" stroke-width="1" x1="888" x2="888" y1="734" y2="687" /><line stroke="#7F7F7F" stroke-width="1" x1="884" x2="884" y1="734" y2="687" /><line stroke="#7F7F7F" stroke-width="1" x1="880" x2="880" y1="734" y2="687" /><line stroke="#7F7F7F" stroke-width="1" x1="876" x2="876" y1="734" y2="687" /><line stroke="#7F7F7F" stroke-width="1" x1="872" x2="872" y1="734" y2="687" /><line stroke="#7F7F7F" stroke-width="1" x1="868" x2="868" y1="734" y2="687" /><line stroke="#7F7F7F" stroke-width="1" x1="864" x2="864" y1="734" y2="687" /><line stroke="#7F7F7F" stroke-width="1" x1="860" x2="860" y1="734" y2="687" /><line stroke="#7F7F7F" stroke-width="1" x1="856" x2="856" y1="734" y2="687" /><line stroke="#7F7F7F" stroke-width="1" x1="852" x2="852" y1="734" y2="687" /><line stroke="#7F7F7F" stroke-width="1" x1="848" x2="848" y1="734" y2="687" /><line stroke="#7F7F7F" stroke-width="1" x1="844" x2="844" y1="734" y2="687" /><polygon fill="#9B5509" points="899,687 837,687 837,684 899,684" stroke="#000000" stroke-width="1" /><polygon fill="#9B5509" points="899,695 899,700 837,700 837,695" stroke="#000000" stroke-width="1" /><polygon fill="#9B5509" points="899,708 899,713 837,713 837,708" stroke="#000000" stroke-width="1" /><polygon fill="#9B5509" points="899,721 899,726 837,726 837,721" stroke="#000000" stroke-width="1" /><polygon fill="#9B5509" points="899,734 837,734 837,737 899,737" stroke="#000000" stroke-width="1" /><g fill="#9B5509" fill-opacity="0.8" stroke="#000000" stroke-opacity="0.8"><polygon fill="#FFFFFF" points="873,680 849,680 849,741 873,741" stroke="#FFFFFF" stroke-width="1" /></g><g fill="#FFFFFF" fill-opacity="1.0" stroke="#FFFFFF" stroke-opacity="1.0"><polyline fill="none" points="798,813 849,813 849,640 943,640 943,771 928,771 928,781 873,781 873,813 924,813" stroke="#000000" stroke-width="1" /><polyline fill="none" points="798,831 924,831" stroke="#000000" stroke-width="1" /><line stroke="#000000" stroke-width="1" x1="922" x2="922" y1="813" y2="831" /><line stroke="#000000" stroke-width="1" x1="918" x2="918" y1="813" y2="831" /><line stroke="#000000" stroke-width="1" x1="914" x2="914" y1="813" y2="831" /><line stroke="#000000" stroke-width="1" x1="910" x2="910" y1="813" y2="831" /><line stroke="#000000" stroke-width="1" x1="906" x2="906" y1="813" y2="831" /><line stroke="#000000" stroke-width="1" x1="902" x2="902" y1="813" y2="831" /><line stroke="#000000" stroke-width="1" x1="898" x2="898" y1="813" y2="831" /><line stroke="#000000" stroke-width="1" x1="894" x2="894" y1="813" y2="831" /><line stroke="#000000" stroke-width="1" x1="890" x2="890" y1="813" y2="831" /><line stroke="#000000" stroke-width="1" x1="886" x2="886" y1="813" y2="831" /><line stroke="#000000" stroke-width="1" x1="882" x2="882" y1="813" y2="831" /><line stroke="#000000" stroke-width="1" x1="878" x2="878" y1="813" y2="831" /><line stroke="#000000" stroke-width="1" x1="800" x2="800" y1="813" y2="831" /><line stroke="#000000" stroke-width="1" x1="804" x2="804" y1="813" y2="831" /><line stroke="#000000" stroke-width="1" x1="808" x2="808" y1="813" y2="831" /><line stroke="#000000" stroke-width="1" x1="812" x2="812" y1="813" y2="831" /><line stroke="#000000" stroke-width="1" x1="816" x2="816" y1="813" y2="831" /><line stroke="#000000" stroke-width="1" x1="820" x2="820" y1="813" y2="831" /><line stroke="#000000" stroke-width="1" x1="824" x2="824" y1="813" y2="831" /><line stroke="#000000" stroke-width="1" x1="828" x2="828" y1="813" y2="831" /><line stroke="#000000" stroke-width="1" x1="832" x2="832" y1="813" y2="831" /><line stroke="#000000" stroke-width="1" x1="836" x2="836" y1="813" y2="831" /><line stroke="#000000" stroke-width="1" x1="840" x2="840" y1="813" y2="831" /><line stroke="#000000" stroke-width="1" x1="844" x2="844" y1="813" y2="831" /><polygon fill="#D0D0D0" points="901,747 901,739 884,739 884,682 901,682 901,674 873,674 873,747" stroke="#000000" stroke-width="1" /><polygon fill="#D0D0D0" points="928,742 928,771 943,771 943,742" stroke="#000000" stroke-width="1" /><text fill="#000000" font-family="Arial" font-size="6" stroke="none" stroke-width="0" transform="rotate(-90.0,932,767)" x="932" y="773.0">полиция</text><text fill="#00AFAF" font-family="Arial" font-size="15" stroke="none" stroke-width="0" x="283" y="469.0">Новорязанское шоссе</text></g></g></svg>