<?xml version="1.0" encoding="utf-8" ?>
<svg baseProfile="full" height="100%" version="1.1" width="100%" xmlns="http://www.w3.org/2000/svg" xmlns:ev="http://www.w3.org/2001/xml-events" xmlns:xlink="http://www.w3.org/1999/xlink"><defs><marker id="id71" markerHeight="3" markerUnits="strokeWidth" markerWidth="4" orient="auto" refX="0" refY="5" viewBox="0,0,10,10"><path d="M 0 0 L 10 5 L 0 10 z" /></marker></defs><g transform="rotate(70.0,225,460)"><rect fill="none" height="920" stroke="none" stroke-width="0" width="450" x="0" y="0" /><polygon fill="#84BC54" points="-229,385 221,385 221,415 -229,415" stroke="#000000" stroke-width="1" /><polygon fill="#84BC54" points="-229,495 221,495 221,525 -229,525" stroke="#000000" stroke-width="1" /><text fill="#7CBC54" font-family="Arial" font-size="20" stroke="none" stroke-width="0" x="-227" y="381.0">&lt;&lt; Дубровка</text><text fill="#7CBC54" font-family="Arial" font-size="20" stroke="none" stroke-width="0" x="104" y="545.0">Печатники &gt;&gt;</text><text fill="#7CBC54" font-family="Arial" font-size="25" stroke="none" stroke-width="0" x="-63" y="454.0">Кожуховская</text><polygon fill="#34349C" points="-5,461 -5,457 -4,457 -4,461" stroke="#34349C" stroke-width="1" /><polygon fill="#FF0000" points="-5,465 -5,461 -4,461 -4,465" stroke="#FF0000" stroke-width="1" /><polygon fill="#FEFBF1" points="659,599 659,549 634,549 634,541 560,541 560,583 601,583 601,599" stroke="#BBBBBB" stroke-width="1" /><polyline fill="none" points="221,415 221,427 271,427" stroke="#000000" stroke-width="1" /><polyline fill="none" points="221,495 221,483 271,483" stroke="#000000" stroke-width="1" /><polyline fill="none" points="253,427 253,370 335,370 335,341 374,341 374,371 379,371 379,495 494,495" stroke="#000000" stroke-width="1" /><polyline fill="none" points="253,483 253,541 335,541 335,583 421,583 421,575 454,575 454,583 484,583 484,578" stroke="#000000" stroke-width="1" /><polyline fill="none" points="560,578 560,583 601,583 601,599 608,599" stroke="#000000" stroke-width="1" /><polyline fill="none" points="494,517 421,517 421,548 454,548 454,541 484,541 484,546" stroke="#000000" stroke-width="1" /><polyline fill="none" points="560,546 560,541 634,541 634,549 659,549 659,599 651,599" stroke="#000000" stroke-width="1" /><polyline fill="none" points="627,599 633,599" stroke="#000000" stroke-width="1" /><line stroke="#000000" stroke-width="1" x1="492" x2="492" y1="495" y2="517" /><line stroke="#000000" stroke-width="1" x1="488" x2="488" y1="495" y2="517" /><line stroke="#000000" stroke-width="1" x1="484" x2="484" y1="495" y2="517" /><line stroke="#000000" stroke-width="1" x1="480" x2="480" y1="495" y2="517" /><line stroke="#000000" stroke-width="1" x1="476" x2="476" y1="495" y2="517" /><line stroke="#000000" stroke-width="1" x1="472" x2="472" y1="495" y2="517" /><line stroke="#000000" stroke-width="1" x1="468" x2="468" y1="495" y2="517" /><line stroke="#000000" stroke-width="1" x1="464" x2="464" y1="495" y2="517" /><line stroke="#000000" stroke-width="1" x1="460" x2="460" y1="495" y2="517" /><line stroke="#000000" stroke-width="1" x1="456" x2="456" y1="495" y2="517" /><line stroke="#000000" stroke-width="1" x1="269" x2="269" y1="427" y2="483" /><line stroke="#000000" stroke-width="1" x1="265" x2="265" y1="427" y2="483" /><line stroke="#000000" stroke-width="1" x1="261" x2="261" y1="427" y2="483" /><line stroke="#000000" stroke-width="1" x1="257" x2="257" y1="427" y2="483" /><line stroke="#000000" stroke-width="1" x1="253" x2="253" y1="427" y2="483" /><line stroke="#000000" stroke-width="1" x1="249" x2="249" y1="427" y2="483" /><line stroke="#000000" stroke-width="1" x1="245" x2="245" y1="427" y2="483" /><line stroke="#000000" stroke-width="1" x1="241" x2="241" y1="427" y2="483" /><line stroke="#000000" stroke-width="1" x1="237" x2="237" y1="427" y2="483" /><line stroke="#000000" stroke-width="1" x1="233" x2="233" y1="427" y2="483" /><line stroke="#000000" stroke-width="1" x1="229" x2="229" y1="427" y2="483" /><line stroke="#000000" stroke-width="1" x1="225" x2="225" y1="427" y2="483" /><polygon fill="#D0D0D0" points="331,494 331,502 314,502 314,486 322,486 322,494 331,494" stroke="#000000" stroke-width="1" /><polyline fill="none" points="331,494 335,494 335,416 331,416" stroke="#000000" stroke-width="1" /><polygon fill="#D0D0D0" points="331,416 321,416 321,424 314,424 314,408 331,408 331,416" stroke="#000000" stroke-width="1" /><line stroke="#7F7F7F" stroke-width="1" x1="562" x2="562" y1="575" y2="549" /><line stroke="#7F7F7F" stroke-width="1" x1="558" x2="558" y1="575" y2="549" /><line stroke="#7F7F7F" stroke-width="1" x1="554" x2="554" y1="575" y2="549" /><line stroke="#7F7F7F" stroke-width="1" x1="550" x2="550" y1="575" y2="549" /><line stroke="#7F7F7F" stroke-width="1" x1="546" x2="546" y1="575" y2="549" /><line stroke="#7F7F7F" stroke-width="1" x1="542" x2="542" y1="575" y2="549" /><line stroke="#7F7F7F" stroke-width="1" x1="538" x2="538" y1="575" y2="549" /><line stroke="#7F7F7F" stroke-width="1" x1="534" x2="534" y1="575" y2="549" /><line stroke="#7F7F7F" stroke-width="1" x1="530" x2="530" y1="575" y2="549" /><line stroke="#7F7F7F" stroke-width="1" x1="526" x2="526" y1="575" y2="549" /><line stroke="#7F7F7F" stroke-width="1" x1="522" x2="522" y1="575" y2="549" /><line stroke="#7F7F7F" stroke-width="1" x1="518" x2="518" y1="575" y2="549" /><line stroke="#7F7F7F" stroke-width="1" x1="514" x2="514" y1="575" y2="549" /><line stroke="#7F7F7F" stroke-width="1" x1="510" x2="510" y1="575" y2="549" /><line stroke="#7F7F7F" stroke-width="1" x1="506" x2="506" y1="575" y2="549" /><line stroke="#7F7F7F" stroke-width="1" x1="502" x2="502" y1="575" y2="549" /><line stroke="#7F7F7F" stroke-width="1" x1="498" x2="498" y1="575" y2="549" /><line stroke="#7F7F7F" stroke-width="1" x1="494" x2="494" y1="575" y2="549" /><line stroke="#7F7F7F" stroke-width="1" x1="490" x2="490" y1="575" y2="549" /><line stroke="#7F7F7F" stroke-width="1" x1="486" x2="486" y1="575" y2="549" /><line stroke="#7F7F7F" stroke-width="1" x1="482" x2="482" y1="575" y2="549" /><polygon fill="#9B5509" points="569,549 476,549 476,546 569,546" stroke="#000000" stroke-width="1" /><polygon fill="#9B5509" points="569,555 569,559 476,559 476,555" stroke="#000000" stroke-width="1" /><polygon fill="#9B5509" points="569,565 569,569 476,569 476,565" stroke="#000000" stroke-width="1" /><polygon fill="#9B5509" points="569,575 476,575 476,578 569,578" stroke="#000000" stroke-width="1" /><polyline fill="none" points="262,370 262,397 253,397" stroke="#000000" stroke-width="1" /><text fill="#000000" font-family="Arial" font-size="10" stroke="none" stroke-width="0" transform="rotate(-90.0,251,396)" x="251" y="406.0">кассы</text><polyline fill="none" points="253,412 265,412" stroke="#000000" stroke-width="1" /><polygon fill="none" points="305,415 305,409 311,409 311,415" stroke="#000000" stroke-width="1" /><polyline fill="none" points="314,496 308,496" stroke="#000000" stroke-width="1" /><polyline fill="none" points="272,496 253,496" stroke="#000000" stroke-width="1" /><line stroke="#009900" stroke-width="1" x1="265" x2="265" y1="410" y2="414" /><line stroke="#009900" stroke-width="1" x1="269" x2="269" y1="410" y2="414" /><line stroke="#009900" stroke-width="1" x1="273" x2="273" y1="410" y2="414" /><line stroke="#009900" stroke-width="1" x1="277" x2="277" y1="410" y2="414" /><line stroke="#009900" stroke-width="1" x1="281" x2="281" y1="410" y2="414" /><line stroke="#009900" stroke-width="1" x1="285" x2="285" y1="410" y2="414" /><line stroke="#009900" stroke-width="1" x1="289" x2="289" y1="410" y2="414" /><line stroke="#009900" stroke-width="1" x1="293" x2="293" y1="410" y2="414" /><line stroke="#009900" stroke-width="1" x1="297" x2="297" y1="410" y2="414" /><line stroke="#009900" stroke-width="1" x1="301" x2="301" y1="410" y2="414" /><line stroke="#FF0000" stroke-width="1" x1="308" x2="308" y1="498" y2="494" /><line stroke="#FF0000" stroke-width="1" x1="304" x2="304" y1="498" y2="494" /><line stroke="#FF0000" stroke-width="1" x1="300" x2="300" y1="498" y2="494" /><line stroke="#FF0000" stroke-width="1" x1="296" x2="296" y1="498" y2="494" /><line stroke="#FF0000" stroke-width="1" x1="292" x2="292" y1="498" y2="494" /><line stroke="#FF0000" stroke-width="1" x1="288" x2="288" y1="498" y2="494" /><line stroke="#FF0000" stroke-width="1" x1="284" x2="284" y1="498" y2="494" /><line stroke="#FF0000" stroke-width="1" x1="280" x2="280" y1="498" y2="494" /><line stroke="#FF0000" stroke-width="1" x1="276" x2="276" y1="498" y2="494" /><line stroke="#FF0000" stroke-width="1" x1="272" x2="272" y1="498" y2="494" /><polygon fill="#34349C" points="331,454 331,458 332,458 332,454" stroke="#34349C" stroke-width="1" /><polygon fill="#FF0000" points="331,450 331,454 332,454 332,450" stroke="#FF0000" stroke-width="1" /><polyline fill="none" points="-229,415 -229,426" stroke="#000000" stroke-width="1" /><polyline fill="none" points="-229,495 -229,483" stroke="#000000" stroke-width="1" /><polyline fill="none" points="-238,426 -202,426" stroke="#000000" stroke-width="1" /><polyline fill="none" points="-238,483 -202,483" stroke="#000000" stroke-width="1" /><line stroke="#000000" stroke-width="1" x1="-236" x2="-236" y1="426" y2="483" /><line stroke="#000000" stroke-width="1" x1="-232" x2="-232" y1="426" y2="483" /><line stroke="#000000" stroke-width="1" x1="-228" x2="-228" y1="426" y2="483" /><line stroke="#000000" stroke-width="1" x1="-224" x2="-224" y1="426" y2="483" /><line stroke="#000000" stroke-width="1" x1="-220" x2="-220" y1="426" y2="483" /><line stroke="#000000" stroke-width="1" x1="-216" x2="-216" y1="426" y2="483" /><line stroke="#000000" stroke-width="1" x1="-212" x2="-212" y1="426" y2="483" /><line stroke="#000000" stroke-width="1" x1="-208" x2="-208" y1="426" y2="483" /><line stroke="#000000" stroke-width="1" x1="-204" x2="-204" y1="426" y2="483" /><text fill="#00AFAF" font-family="Arial" font-size="15" stroke="none" stroke-width="0" x="381" y="335.0">Южнопортовая ул.</text><polyline fill="none" marker-end="url(#id71)" points="422,567 447,567" stroke="#FF0000" stroke-width="1" /><polyline fill="none" marker-end="url(#id71)" points="617,593 617,610" stroke="#FF0000" stroke-width="1" /><polyline fill="none" marker-end="url(#id71)" points="307,516 340,516" stroke="#FF0000" stroke-width="1" /><polyline fill="none" marker-end="url(#id71)" points="213,472 246,472" stroke="#FF0000" stroke-width="1" /><polyline fill="none" marker-end="url(#id71)" points="446,556 422,556" stroke="#009900" stroke-width="1" /><polyline fill="none" marker-end="url(#id71)" points="642,604 642,589" stroke="#009900" stroke-width="1" /><polyline fill="none" marker-end="url(#id71)" points="340,394 306,394" stroke="#009900" stroke-width="1" /><polyline fill="none" marker-end="url(#id71)" points="246,438 213,438" stroke="#009900" stroke-width="1" /><polyline fill="none" points="-198,426 -194,483" stroke="#FF0000" stroke-width="1" /><polyline fill="none" points="-194,426 -198,483" stroke="#FF0000" stroke-width="1" /></g></svg>