<?xml version="1.0" encoding="utf-8" ?>
<svg baseProfile="full" height="100%" version="1.1" width="100%" xmlns="http://www.w3.org/2000/svg" xmlns:ev="http://www.w3.org/2001/xml-events" xmlns:xlink="http://www.w3.org/1999/xlink"><defs><marker id="id204" markerHeight="3" markerUnits="strokeWidth" markerWidth="4" orient="auto" refX="0" refY="5" viewBox="0,0,10,10"><path d="M 0 0 L 10 5 L 0 10 z" /></marker></defs><g transform="scale(0.5) rotate(-40.0,450,485)"><rect fill="none" height="970" stroke="none" width="900" x="0" y="0" /><polygon fill="#E41C0C" points="548,565 548,535 98,535 98,565" stroke="#000000" stroke-width="1" /><polygon fill="#E41C0C" points="548,455 548,425 98,425 98,455" stroke="#000000" stroke-width="1" /><text fill="#E41C0C" font-family="Arial" font-size="20" stroke="none" x="98" y="421.0">&lt;&lt; Чистые пруды</text><text fill="#E41C0C" font-family="Arial" font-size="20" stroke="none" x="386" y="585.0">Комсомольская &gt;&gt;</text><text fill="#E41C0C" font-family="Arial" font-size="25" stroke="none" x="230" y="515.0">Красные ворота</text><polygon fill="#34349C" points="320,494 320,490 321,490 321,494" stroke="#34349C" stroke-width="1" /><polygon fill="#FF0000" points="320,498 320,494 321,494 321,498" stroke="#FF0000" stroke-width="1" /><polygon fill="#FEFBF1" points="18,629 127,629 157,619 157,629 127,639 127,708 157,718 157,728 127,718 18,718" stroke="#BBBBBB" stroke-width="1" /><polygon fill="#FEFBF1" points="811,382 962,295 997,356 846,443" stroke="#BBBBBB" stroke-width="1" /><polygon fill="#D0D0D0" points="913,404 903,387 929,372 939,389" stroke="#000000" stroke-width="1" /><polygon fill="#D0D0D0" points="886,359 877,344 903,329 912,344" stroke="#000000" stroke-width="1" /><polygon fill="#D0D0D0" points="955,380 945,363 950,360 960,377" stroke="#000000" stroke-width="1" /><polygon fill="#D0D0D0" points="976,368 966,351 971,348 981,365" stroke="#000000" stroke-width="1" /><polyline fill="none" points="46,706 95,706 95,683 89,683" stroke="#FFAAAA" stroke-width="1" /><polyline fill="none" points="89,665 95,665 95,643 44,643" stroke="#AADDAA" stroke-width="1" /><polyline fill="none" points="127,659 118,659 118,632 127,632" stroke="#D0D0D0" stroke-width="1" /><polyline fill="none" points="127,639 127,629" stroke="#D0D0D0" stroke-width="1" /><text fill="#D0D0D0" font-family="Arial" font-size="10" stroke="none" transform="rotate(90.0,129,633)" x="129" y="643.0">кассы</text><polyline fill="none" points="98,535 98,520 171,520 171,509 128,509" stroke="#000000" stroke-width="1" /><polyline fill="none" points="23,509 23,512 9,512 9,534 -28,534 -28,634" stroke="#000000" stroke-width="1" /><path d="M-7,655 C-7,655 -4.5,655.833333333 -7,655 C-9.5,654.166666667 -18.5,653.5 -22,650 C-25.5,646.5 -28,634 -28,634 " fill="none" stroke="#000000" stroke-width="1" /><polyline fill="none" points="-7,655 18,655 18,629 127,629 157,619 157,629 127,639 127,660 124,660" stroke="#000000" stroke-width="1" /><polyline fill="none" points="124,688 127,688 127,708 157,718 157,728 127,718 18,718 18,692 -7,692" stroke="#000000" stroke-width="1" /><path d="M-7,692 C-7,692 0.166666666667,694.333333333 -7,692 C-14.1666666667,689.666666667 -40.3333333333,687.666666667 -50,678 C-59.6666666667,668.333333333 -65,634 -65,634 " fill="none" stroke="#000000" stroke-width="1" /><polyline fill="none" points="-65,634 -65,534 -90,534 -90,455 9,455 9,476 23,476 23,479" stroke="#000000" stroke-width="1" /><polyline fill="none" points="128,479 171,479 171,469 98,469 98,455" stroke="#000000" stroke-width="1" /><polyline fill="none" points="88,660 88,688" stroke="#000000" stroke-width="1" /><line stroke="#000000" stroke-width="1" x1="57" x2="57" y1="629" y2="718" /><line stroke="#000000" stroke-width="1" x1="61" x2="61" y1="629" y2="718" /><line stroke="#000000" stroke-width="1" x1="65" x2="65" y1="629" y2="718" /><line stroke="#000000" stroke-width="1" x1="69" x2="69" y1="629" y2="718" /><line stroke="#000000" stroke-width="1" x1="73" x2="73" y1="629" y2="718" /><line stroke="#000000" stroke-width="1" x1="77" x2="77" y1="629" y2="718" /><line stroke="#000000" stroke-width="1" x1="81" x2="81" y1="629" y2="718" /><line stroke="#000000" stroke-width="1" x1="85" x2="85" y1="629" y2="718" /><polygon fill="#d0d0d0" points="54,655 54,660 88,660 88,655" stroke="#000000" stroke-width="1" /><polygon fill="#d0d0d0" points="54,693 54,688 88,688 88,693" stroke="#000000" stroke-width="1" /><line stroke="#7F7F7F" stroke-width="1" x1="121" x2="121" y1="507" y2="481" /><line stroke="#7F7F7F" stroke-width="1" x1="117" x2="117" y1="507" y2="481" /><line stroke="#7F7F7F" stroke-width="1" x1="113" x2="113" y1="507" y2="481" /><line stroke="#7F7F7F" stroke-width="1" x1="109" x2="109" y1="507" y2="481" /><line stroke="#7F7F7F" stroke-width="1" x1="105" x2="105" y1="507" y2="481" /><line stroke="#7F7F7F" stroke-width="1" x1="101" x2="101" y1="507" y2="481" /><line stroke="#7F7F7F" stroke-width="1" x1="97" x2="97" y1="507" y2="481" /><line stroke="#7F7F7F" stroke-width="1" x1="93" x2="93" y1="507" y2="481" /><line stroke="#7F7F7F" stroke-width="1" x1="89" x2="89" y1="507" y2="481" /><line stroke="#7F7F7F" stroke-width="1" x1="85" x2="85" y1="507" y2="481" /><line stroke="#7F7F7F" stroke-width="1" x1="81" x2="81" y1="507" y2="481" /><line stroke="#7F7F7F" stroke-width="1" x1="77" x2="77" y1="507" y2="481" /><line stroke="#7F7F7F" stroke-width="1" x1="73" x2="73" y1="507" y2="481" /><line stroke="#7F7F7F" stroke-width="1" x1="69" x2="69" y1="507" y2="481" /><line stroke="#7F7F7F" stroke-width="1" x1="65" x2="65" y1="507" y2="481" /><line stroke="#7F7F7F" stroke-width="1" x1="61" x2="61" y1="507" y2="481" /><line stroke="#7F7F7F" stroke-width="1" x1="57" x2="57" y1="507" y2="481" /><line stroke="#7F7F7F" stroke-width="1" x1="53" x2="53" y1="507" y2="481" /><line stroke="#7F7F7F" stroke-width="1" x1="49" x2="49" y1="507" y2="481" /><line stroke="#7F7F7F" stroke-width="1" x1="45" x2="45" y1="507" y2="481" /><line stroke="#7F7F7F" stroke-width="1" x1="41" x2="41" y1="507" y2="481" /><line stroke="#7F7F7F" stroke-width="1" x1="37" x2="37" y1="507" y2="481" /><line stroke="#7F7F7F" stroke-width="1" x1="33" x2="33" y1="507" y2="481" /><line stroke="#7F7F7F" stroke-width="1" x1="29" x2="29" y1="507" y2="481" /><line stroke="#7F7F7F" stroke-width="1" x1="25" x2="25" y1="507" y2="481" /><line stroke="#7F7F7F" stroke-width="1" x1="21" x2="21" y1="507" y2="481" /><polygon fill="#9B5509" points="128,481 14,481 14,479 128,479" stroke="#000000" stroke-width="1" /><polygon fill="#9B5509" points="128,487 128,491 14,491 14,487" stroke="#000000" stroke-width="1" /><polygon fill="#9B5509" points="128,497 128,501 14,501 14,497" stroke="#000000" stroke-width="1" /><polygon fill="#9B5509" points="128,507 14,507 14,509 128,509" stroke="#000000" stroke-width="1" /><polyline fill="none" points="14,489 -23,489" stroke="#000000" stroke-width="0.5" /><polygon fill="none" points="-29,486 -23,486 -23,492 -29,492" stroke="#000000" stroke-width="1" /><polyline fill="none" points="-26,528 -26,534" stroke="#000000" stroke-width="0.5" /><line stroke="#009900" stroke-width="1" x1="-28" x2="-24" y1="496" y2="496" /><line stroke="#009900" stroke-width="1" x1="-28" x2="-24" y1="500" y2="500" /><line stroke="#009900" stroke-width="1" x1="-28" x2="-24" y1="504" y2="504" /><line stroke="#009900" stroke-width="1" x1="-28" x2="-24" y1="508" y2="508" /><line stroke="#009900" stroke-width="1" x1="-28" x2="-24" y1="512" y2="512" /><line stroke="#009900" stroke-width="1" x1="-28" x2="-24" y1="516" y2="516" /><line stroke="#009900" stroke-width="1" x1="-28" x2="-24" y1="520" y2="520" /><line stroke="#009900" stroke-width="1" x1="-28" x2="-24" y1="524" y2="524" /><line stroke="#009900" stroke-width="1" x1="-28" x2="-24" y1="528" y2="528" /><polyline fill="none" points="22,688 40,706 46,706" stroke="#FF0000" stroke-width="1" /><polyline fill="none" marker-end="url(#id204)" points="87,683 47,683 47,700 104,700 119,685" stroke="#FF0000" stroke-width="1" /><polyline fill="none" marker-end="url(#id204)" points="-16,472 -30,472" stroke="#FF0000" stroke-width="1" /><polyline fill="none" points="119,664 104,649 47,649 47,665 87,665" stroke="#009900" stroke-width="1" /><polyline fill="none" marker-end="url(#id204)" points="44,643 40,643 22,661" stroke="#009900" stroke-width="1" /><polyline fill="none" marker-end="url(#id204)" points="-45,510 -34,510" stroke="#009900" stroke-width="1" /><polygon fill="#9997C6" points="124,666 124,670 125,670 125,666" stroke="#9997C6" stroke-width="1" /><polygon fill="#FE7D78" points="124,662 124,666 125,666 125,662" stroke="#FE7D78" stroke-width="1" /><polyline fill="none" points="881,420 882,422 894,415 893,413" stroke="#000000" stroke-width="1" /><polyline fill="none" points="905,406 906,408 941,388 940,385" stroke="#000000" stroke-width="1" /><polyline fill="none" points="951,380 952,382 955,380 945,363 950,360 960,377 963,375 962,373" stroke="#000000" stroke-width="1" /><polyline fill="none" points="972,368 973,370 976,368 966,351 971,348 981,365 984,363 983,361" stroke="#000000" stroke-width="1" /><polyline fill="none" points="835,424 846,443 870,429 869,427" stroke="#000000" stroke-width="1" /><polyline fill="none" points="993,356 994,358 997,356 962,295 811,382 819,396" stroke="#000000" stroke-width="1" /><line stroke="#000000" stroke-width="1" x1="936" x2="952" y1="384" y2="375" /><line stroke="#000000" stroke-width="1" x1="934.057428275" x2="950.057428275" y1="380.503370896" y2="371.503370896" /><line stroke="#000000" stroke-width="1" x1="932.114856551" x2="948.114856551" y1="377.006741791" y2="368.006741791" /><line stroke="#000000" stroke-width="1" x1="957" x2="973" y1="372" y2="363" /><line stroke="#000000" stroke-width="1" x1="955.057428275" x2="971.057428275" y1="368.503370896" y2="359.503370896" /><line stroke="#000000" stroke-width="1" x1="953.114856551" x2="969.114856551" y1="365.006741791" y2="356.006741791" /><line stroke="#000000" stroke-width="1" x1="994" x2="978" y1="351" y2="360" /><line stroke="#000000" stroke-width="1" x1="992.057428275" x2="976.057428275" y1="347.503370896" y2="356.503370896" /><line stroke="#000000" stroke-width="1" x1="990.114856551" x2="974.114856551" y1="344.006741791" y2="353.006741791" /><polyline fill="none" points="514,480 463,480 463,468 548,468 548,455" stroke="#000000" stroke-width="1" /><polyline fill="none" points="514,510 463,510 463,522 548,522 548,535" stroke="#000000" stroke-width="1" /><path d="M633,480 C633,480 630.666666667,483.666666667 633,480 C635.333333333,476.333333333 640.666666667,463.666666667 647,458 C653.333333333,452.333333333 663.0,447.833333333 671,446 C679.0,444.166666667 687.666666667,445.0 695,447 C702.333333333,449.0 715,458 715,458 " fill="none" stroke="#000000" stroke-width="1" /><path d="M633,510 C633,510 630.666666667,506.333333333 633,510 C635.333333333,513.666666667 640.666666667,526.333333333 647,532 C653.333333333,537.666666667 663.0,542.166666667 671,544 C679.0,545.833333333 687.666666667,545.166666667 695,543 C702.333333333,540.833333333 709.5,536.333333333 715,531 C720.5,525.666666667 725.5,518.833333333 728,511 C730.5,503.166666667 730,484 730,484 " fill="none" stroke="#000000" stroke-width="1" /><line stroke="#7F7F7F" stroke-width="1" x1="642" x2="642" y1="508" y2="482" /><line stroke="#7F7F7F" stroke-width="1" x1="638" x2="638" y1="508" y2="482" /><line stroke="#7F7F7F" stroke-width="1" x1="634" x2="634" y1="508" y2="482" /><line stroke="#7F7F7F" stroke-width="1" x1="630" x2="630" y1="508" y2="482" /><line stroke="#7F7F7F" stroke-width="1" x1="626" x2="626" y1="508" y2="482" /><line stroke="#7F7F7F" stroke-width="1" x1="622" x2="622" y1="508" y2="482" /><line stroke="#7F7F7F" stroke-width="1" x1="618" x2="618" y1="508" y2="482" /><line stroke="#7F7F7F" stroke-width="1" x1="614" x2="614" y1="508" y2="482" /><line stroke="#7F7F7F" stroke-width="1" x1="610" x2="610" y1="508" y2="482" /><line stroke="#7F7F7F" stroke-width="1" x1="606" x2="606" y1="508" y2="482" /><line stroke="#7F7F7F" stroke-width="1" x1="602" x2="602" y1="508" y2="482" /><line stroke="#7F7F7F" stroke-width="1" x1="598" x2="598" y1="508" y2="482" /><line stroke="#7F7F7F" stroke-width="1" x1="594" x2="594" y1="508" y2="482" /><line stroke="#7F7F7F" stroke-width="1" x1="590" x2="590" y1="508" y2="482" /><line stroke="#7F7F7F" stroke-width="1" x1="586" x2="586" y1="508" y2="482" /><line stroke="#7F7F7F" stroke-width="1" x1="582" x2="582" y1="508" y2="482" /><line stroke="#7F7F7F" stroke-width="1" x1="578" x2="578" y1="508" y2="482" /><line stroke="#7F7F7F" stroke-width="1" x1="574" x2="574" y1="508" y2="482" /><line stroke="#7F7F7F" stroke-width="1" x1="570" x2="570" y1="508" y2="482" /><line stroke="#7F7F7F" stroke-width="1" x1="566" x2="566" y1="508" y2="482" /><line stroke="#7F7F7F" stroke-width="1" x1="562" x2="562" y1="508" y2="482" /><line stroke="#7F7F7F" stroke-width="1" x1="558" x2="558" y1="508" y2="482" /><line stroke="#7F7F7F" stroke-width="1" x1="554" x2="554" y1="508" y2="482" /><line stroke="#7F7F7F" stroke-width="1" x1="550" x2="550" y1="508" y2="482" /><line stroke="#7F7F7F" stroke-width="1" x1="546" x2="546" y1="508" y2="482" /><line stroke="#7F7F7F" stroke-width="1" x1="542" x2="542" y1="508" y2="482" /><line stroke="#7F7F7F" stroke-width="1" x1="538" x2="538" y1="508" y2="482" /><line stroke="#7F7F7F" stroke-width="1" x1="534" x2="534" y1="508" y2="482" /><line stroke="#7F7F7F" stroke-width="1" x1="530" x2="530" y1="508" y2="482" /><line stroke="#7F7F7F" stroke-width="1" x1="526" x2="526" y1="508" y2="482" /><line stroke="#7F7F7F" stroke-width="1" x1="522" x2="522" y1="508" y2="482" /><polygon fill="#9B5509" points="649,482 514,482 514,480 649,480" stroke="#000000" stroke-width="1" /><polygon fill="#9B5509" points="649,488 649,492 514,492 514,488" stroke="#000000" stroke-width="1" /><polygon fill="#9B5509" points="649,498 649,502 514,502 514,498" stroke="#000000" stroke-width="1" /><polygon fill="#9B5509" points="649,508 514,508 514,510 649,510" stroke="#000000" stroke-width="1" /><line stroke="#7F7F7F" stroke-width="1" x1="835" x2="821" y1="421" y2="397" /><line stroke="#7F7F7F" stroke-width="1" x1="831.532706321" x2="817.532706321" y1="422.994460966" y2="398.994460966" /><line stroke="#7F7F7F" stroke-width="1" x1="828.065412642" x2="814.065412642" y1="424.988921932" y2="400.988921932" /><line stroke="#7F7F7F" stroke-width="1" x1="824.598118963" x2="810.598118963" y1="426.983382897" y2="402.983382897" /><line stroke="#7F7F7F" stroke-width="1" x1="821.130825284" x2="807.130825284" y1="428.977843863" y2="404.977843863" /><line stroke="#7F7F7F" stroke-width="1" x1="817.663531605" x2="803.663531605" y1="430.972304829" y2="406.972304829" /><line stroke="#7F7F7F" stroke-width="1" x1="814.196237926" x2="800.196237926" y1="432.966765795" y2="408.966765795" /><line stroke="#7F7F7F" stroke-width="1" x1="810.728944247" x2="796.728944247" y1="434.96122676" y2="410.96122676" /><line stroke="#7F7F7F" stroke-width="1" x1="807.261650568" x2="793.261650568" y1="436.955687726" y2="412.955687726" /><line stroke="#7F7F7F" stroke-width="1" x1="803.79435689" x2="789.79435689" y1="438.950148692" y2="414.950148692" /><line stroke="#7F7F7F" stroke-width="1" x1="800.327063211" x2="786.327063211" y1="440.944609658" y2="416.944609658" /><line stroke="#7F7F7F" stroke-width="1" x1="796.859769532" x2="782.859769532" y1="442.939070623" y2="418.939070623" /><line stroke="#7F7F7F" stroke-width="1" x1="793.392475853" x2="779.392475853" y1="444.933531589" y2="420.933531589" /><line stroke="#7F7F7F" stroke-width="1" x1="789.925182174" x2="775.925182174" y1="446.927992555" y2="422.927992555" /><line stroke="#7F7F7F" stroke-width="1" x1="786.457888495" x2="772.457888495" y1="448.922453521" y2="424.922453521" /><line stroke="#7F7F7F" stroke-width="1" x1="782.990594816" x2="768.990594816" y1="450.916914486" y2="426.916914486" /><line stroke="#7F7F7F" stroke-width="1" x1="779.523301137" x2="765.523301137" y1="452.911375452" y2="428.911375452" /><line stroke="#7F7F7F" stroke-width="1" x1="776.056007458" x2="762.056007458" y1="454.905836418" y2="430.905836418" /><line stroke="#7F7F7F" stroke-width="1" x1="772.588713779" x2="758.588713779" y1="456.900297384" y2="432.900297384" /><line stroke="#7F7F7F" stroke-width="1" x1="769.1214201" x2="755.1214201" y1="458.89475835" y2="434.89475835" /><line stroke="#7F7F7F" stroke-width="1" x1="765.654126421" x2="751.654126421" y1="460.889219315" y2="436.889219315" /><line stroke="#7F7F7F" stroke-width="1" x1="762.186832742" x2="748.186832742" y1="462.883680281" y2="438.883680281" /><line stroke="#7F7F7F" stroke-width="1" x1="758.719539063" x2="744.719539063" y1="464.878141247" y2="440.878141247" /><line stroke="#7F7F7F" stroke-width="1" x1="755.252245384" x2="741.252245384" y1="466.872602213" y2="442.872602213" /><line stroke="#7F7F7F" stroke-width="1" x1="751.784951705" x2="737.784951705" y1="468.867063178" y2="444.867063178" /><line stroke="#7F7F7F" stroke-width="1" x1="748.317658026" x2="734.317658026" y1="470.861524144" y2="446.861524144" /><line stroke="#7F7F7F" stroke-width="1" x1="744.850364347" x2="730.850364347" y1="472.85598511" y2="448.85598511" /><line stroke="#7F7F7F" stroke-width="1" x1="741.383070669" x2="727.383070669" y1="474.850446076" y2="450.850446076" /><line stroke="#7F7F7F" stroke-width="1" x1="737.91577699" x2="723.91577699" y1="476.844907041" y2="452.844907041" /><line stroke="#7F7F7F" stroke-width="1" x1="734.448483311" x2="720.448483311" y1="478.839368007" y2="454.839368007" /><line stroke="#7F7F7F" stroke-width="1" x1="730.981189632" x2="716.981189632" y1="480.833828973" y2="456.833828973" /><line stroke="#7F7F7F" stroke-width="1" x1="727.513895953" x2="713.513895953" y1="482.828289939" y2="458.828289939" /><line stroke="#7F7F7F" stroke-width="1" x1="724.046602274" x2="710.046602274" y1="484.822750904" y2="460.822750904" /><polygon fill="#9B5509" points="827,395 704,466 703,464 826,393" stroke="#000000" stroke-width="1" /><polygon fill="#9B5509" points="830,400 832,404 709,475 707,471" stroke="#000000" stroke-width="1" /><polygon fill="#9B5509" points="835,409 837,413 714,484 712,480" stroke="#000000" stroke-width="1" /><polygon fill="#9B5509" points="840,418 717,489 718,491 841,420" stroke="#000000" stroke-width="1" /><polyline fill="none" points="908,336 932,322 928,315" stroke="#000000" stroke-width="1" /><text fill="#000000" font-family="Arial" font-size="10" stroke="none" transform="rotate(-30.0,903,326)" x="903" y="336.0">кассы</text><polyline fill="none" points="836,411 878,387 903,387" stroke="#000000" stroke-width="0.5" /><polygon fill="none" points="886,361 892,358 895,364 889,367" stroke="#000000" stroke-width="1" /><line stroke="#009900" stroke-width="1" x1="896" x2="892" y1="368" y2="370" /><line stroke="#009900" stroke-width="1" x1="897.788854382" x2="893.788854382" y1="371.577708764" y2="373.577708764" /><line stroke="#009900" stroke-width="1" x1="899.577708764" x2="895.577708764" y1="375.155417528" y2="377.155417528" /><line stroke="#009900" stroke-width="1" x1="901.366563146" x2="897.366563146" y1="378.733126292" y2="380.733126292" /><line stroke="#009900" stroke-width="1" x1="903.155417528" x2="899.155417528" y1="382.310835056" y2="384.310835056" /><polyline fill="none" marker-end="url(#id204)" points="877,427 884,439" stroke="#FF0000" stroke-width="1" /><polyline fill="none" marker-end="url(#id204)" points="901,413 908,425" stroke="#FF0000" stroke-width="1" /><polyline fill="none" marker-end="url(#id204)" points="673,503 691,498" stroke="#FF0000" stroke-width="1" /><polyline fill="none" marker-end="url(#id204)" points="920,363 906,370" stroke="#009900" stroke-width="1" /><polyline fill="none" marker-end="url(#id204)" points="997,374 990,362" stroke="#009900" stroke-width="1" /><polyline fill="none" marker-end="url(#id204)" points="976,386 969,374" stroke="#009900" stroke-width="1" /><polyline fill="none" marker-end="url(#id204)" points="955,398 948,386" stroke="#009900" stroke-width="1" /><polyline fill="none" marker-end="url(#id204)" points="686,477 669,482" stroke="#009900" stroke-width="1" /><polygon fill="#34349C" points="852,362 856,360 857,361 853,363" stroke="#34349C" stroke-width="1" /><polygon fill="#FF0000" points="848,364 852,362 853,363 849,365" stroke="#FF0000" stroke-width="1" /><text fill="#00AFAF" font-family="Arial" font-size="15" stroke="none" transform="rotate(65.0,251,202)" x="251" y="217.0">Садовая-Спасская улица</text><text fill="#00AFAF" font-family="Arial" font-size="15" stroke="none" transform="rotate(90.0,353,646)" x="353" y="661.0">Садовая-Черногрязская улица</text><text fill="#00AFAF" font-family="Arial" font-size="15" stroke="none" transform="rotate(-30.0,884,523)" x="884" y="538.0">площадь Красные Ворота</text></g></svg>