<?xml version="1.0" encoding="utf-8" ?>
<svg baseProfile="full" height="100%" version="1.1" width="100%" xmlns="http://www.w3.org/2000/svg" xmlns:ev="http://www.w3.org/2001/xml-events" xmlns:xlink="http://www.w3.org/1999/xlink"><defs><marker id="id210" markerHeight="3" markerUnits="strokeWidth" markerWidth="4" orient="auto" refX="0" refY="5" viewBox="0,0,10,10"><path d="M 0 0 L 10 5 L 0 10 z" /></marker></defs><g transform="scale(0.5) rotate(12.0,500,305)"><rect fill="none" height="610" stroke="none" width="1000" x="0" y="0" /><polygon fill="#AC24AC" points="294,202 744,202 744,232 294,232" stroke="#000000" stroke-width="1" /><polygon fill="#AC24AC" points="294,312 744,312 744,342 294,342" stroke="#000000" stroke-width="1" /><text fill="#AC24AC" font-family="Arial" font-size="20" stroke="none" x="296" y="200.0">&lt;&lt; Текстильщики</text><text fill="#AC24AC" font-family="Arial" font-size="20" stroke="none" x="546" y="363.0">Рязанский проспект &gt;&gt;</text><text fill="#AC24AC" font-family="Arial" font-size="25" stroke="none" x="456" y="272.0">Кузьминки</text><polygon fill="#34349C" points="540,277 540,273 541,273 541,277" stroke="#34349C" stroke-width="1" /><polygon fill="#FF0000" points="540,281 540,277 541,277 541,281" stroke="#FF0000" stroke-width="1" /><polygon fill="#34349C" points="714,241 718,241 718,242 714,242" stroke="#34349C" stroke-width="1" /><polygon fill="#FF0000" points="710,241 714,241 714,242 710,242" stroke="#FF0000" stroke-width="1" /><polyline fill="none" points="294,312 294,300 241,300 241,336 152,336 152,481 188,481" stroke="#000000" stroke-width="1" /><polyline fill="none" points="294,232 294,244 241,244 241,209 159,209 159,244 152,244 152,163 188,163" stroke="#000000" stroke-width="1" /><polyline fill="none" points="188,142 83,142" stroke="#000000" stroke-width="1" /><polyline fill="none" points="83,163 119,163 119,481 83,481" stroke="#000000" stroke-width="1" /><polyline fill="none" points="188,502 83,502" stroke="#000000" stroke-width="1" /><line stroke="#000000" stroke-width="1" x1="85" x2="85" y1="142" y2="163" /><line stroke="#000000" stroke-width="1" x1="89" x2="89" y1="142" y2="163" /><line stroke="#000000" stroke-width="1" x1="93" x2="93" y1="142" y2="163" /><line stroke="#000000" stroke-width="1" x1="97" x2="97" y1="142" y2="163" /><line stroke="#000000" stroke-width="1" x1="101" x2="101" y1="142" y2="163" /><line stroke="#000000" stroke-width="1" x1="105" x2="105" y1="142" y2="163" /><line stroke="#000000" stroke-width="1" x1="109" x2="109" y1="142" y2="163" /><line stroke="#000000" stroke-width="1" x1="113" x2="113" y1="142" y2="163" /><line stroke="#000000" stroke-width="1" x1="117" x2="117" y1="142" y2="163" /><line stroke="#000000" stroke-width="1" x1="186" x2="186" y1="163" y2="142" /><line stroke="#000000" stroke-width="1" x1="182" x2="182" y1="163" y2="142" /><line stroke="#000000" stroke-width="1" x1="178" x2="178" y1="163" y2="142" /><line stroke="#000000" stroke-width="1" x1="174" x2="174" y1="163" y2="142" /><line stroke="#000000" stroke-width="1" x1="170" x2="170" y1="163" y2="142" /><line stroke="#000000" stroke-width="1" x1="166" x2="166" y1="163" y2="142" /><line stroke="#000000" stroke-width="1" x1="162" x2="162" y1="163" y2="142" /><line stroke="#000000" stroke-width="1" x1="158" x2="158" y1="163" y2="142" /><line stroke="#000000" stroke-width="1" x1="154" x2="154" y1="163" y2="142" /><line stroke="#000000" stroke-width="1" x1="186" x2="186" y1="481" y2="502" /><line stroke="#000000" stroke-width="1" x1="182" x2="182" y1="481" y2="502" /><line stroke="#000000" stroke-width="1" x1="178" x2="178" y1="481" y2="502" /><line stroke="#000000" stroke-width="1" x1="174" x2="174" y1="481" y2="502" /><line stroke="#000000" stroke-width="1" x1="170" x2="170" y1="481" y2="502" /><line stroke="#000000" stroke-width="1" x1="166" x2="166" y1="481" y2="502" /><line stroke="#000000" stroke-width="1" x1="162" x2="162" y1="481" y2="502" /><line stroke="#000000" stroke-width="1" x1="158" x2="158" y1="481" y2="502" /><line stroke="#000000" stroke-width="1" x1="154" x2="154" y1="481" y2="502" /><line stroke="#000000" stroke-width="1" x1="85" x2="85" y1="502" y2="481" /><line stroke="#000000" stroke-width="1" x1="89" x2="89" y1="502" y2="481" /><line stroke="#000000" stroke-width="1" x1="93" x2="93" y1="502" y2="481" /><line stroke="#000000" stroke-width="1" x1="97" x2="97" y1="502" y2="481" /><line stroke="#000000" stroke-width="1" x1="101" x2="101" y1="502" y2="481" /><line stroke="#000000" stroke-width="1" x1="105" x2="105" y1="502" y2="481" /><line stroke="#000000" stroke-width="1" x1="109" x2="109" y1="502" y2="481" /><line stroke="#000000" stroke-width="1" x1="113" x2="113" y1="502" y2="481" /><line stroke="#000000" stroke-width="1" x1="117" x2="117" y1="502" y2="481" /><line stroke="#000000" stroke-width="1" x1="241" x2="241" y1="300" y2="244" /><line stroke="#000000" stroke-width="1" x1="245" x2="245" y1="300" y2="244" /><line stroke="#000000" stroke-width="1" x1="249" x2="249" y1="300" y2="244" /><line stroke="#000000" stroke-width="1" x1="253" x2="253" y1="300" y2="244" /><line stroke="#000000" stroke-width="1" x1="257" x2="257" y1="300" y2="244" /><line stroke="#000000" stroke-width="1" x1="261" x2="261" y1="300" y2="244" /><line stroke="#000000" stroke-width="1" x1="265" x2="265" y1="300" y2="244" /><line stroke="#000000" stroke-width="1" x1="269" x2="269" y1="300" y2="244" /><line stroke="#000000" stroke-width="1" x1="273" x2="273" y1="300" y2="244" /><line stroke="#000000" stroke-width="1" x1="277" x2="277" y1="300" y2="244" /><line stroke="#000000" stroke-width="1" x1="281" x2="281" y1="300" y2="244" /><line stroke="#000000" stroke-width="1" x1="285" x2="285" y1="300" y2="244" /><line stroke="#000000" stroke-width="1" x1="289" x2="289" y1="300" y2="244" /><line stroke="#000000" stroke-width="1" x1="293" x2="293" y1="300" y2="244" /><polyline fill="none" points="241,212 253,212 253,241 241,241" stroke="#000000" stroke-width="1" /><text fill="#000000" font-family="Arial" font-size="10" stroke="none" transform="rotate(-90.0,240,240)" x="240" y="250.0">кассы</text><polyline fill="none" points="199,244 199,242 241,242" stroke="#000000" stroke-width="0.5" /><polyline fill="none" points="157,301 199,301 199,298" stroke="#000000" stroke-width="0.5" /><polygon fill="none" points="196,244 196,251 203,251 203,244" stroke="#000000" stroke-width="1" /><line stroke="#009900" stroke-width="1" x1="197" x2="202" y1="254" y2="254" /><line stroke="#009900" stroke-width="1" x1="197" x2="202" y1="258" y2="258" /><line stroke="#009900" stroke-width="1" x1="197" x2="202" y1="262" y2="262" /><line stroke="#009900" stroke-width="1" x1="197" x2="202" y1="266" y2="266" /><line stroke="#009900" stroke-width="1" x1="197" x2="202" y1="270" y2="270" /><line stroke="#009900" stroke-width="1" x1="197" x2="202" y1="274" y2="274" /><line stroke="#009900" stroke-width="1" x1="197" x2="202" y1="278" y2="278" /><line stroke="#009900" stroke-width="1" x1="197" x2="202" y1="282" y2="282" /><line stroke="#009900" stroke-width="1" x1="197" x2="202" y1="286" y2="286" /><line stroke="#009900" stroke-width="1" x1="197" x2="202" y1="290" y2="290" /><line stroke="#009900" stroke-width="1" x1="197" x2="202" y1="294" y2="294" /><line stroke="#009900" stroke-width="1" x1="197" x2="202" y1="298" y2="298" /><polyline fill="none" marker-end="url(#id210)" points="177,318 157,318" stroke="#FF0000" stroke-width="1" /><polyline fill="none" marker-end="url(#id210)" points="164,276 181,276" stroke="#009900" stroke-width="1" /><polygon fill="#34349C" points="228,300 224,300 224,301 228,301" stroke="#34349C" stroke-width="1" /><polygon fill="#FF0000" points="232,300 228,300 228,301 232,301" stroke="#FF0000" stroke-width="1" /><polyline fill="none" points="744,312 744,301 797,301 797,336 886,336 886,481 850,481" stroke="#000000" stroke-width="1" /><polyline fill="none" points="744,232 744,245 797,245 797,209 886,209 886,163 850,163" stroke="#000000" stroke-width="1" /><polyline fill="none" points="850,142 955,142" stroke="#000000" stroke-width="1" /><polyline fill="none" points="955,163 919,163 919,481 955,481" stroke="#000000" stroke-width="1" /><polyline fill="none" points="850,502 955,502" stroke="#000000" stroke-width="1" /><line stroke="#000000" stroke-width="1" x1="852" x2="852" y1="163" y2="142" /><line stroke="#000000" stroke-width="1" x1="856" x2="856" y1="163" y2="142" /><line stroke="#000000" stroke-width="1" x1="860" x2="860" y1="163" y2="142" /><line stroke="#000000" stroke-width="1" x1="864" x2="864" y1="163" y2="142" /><line stroke="#000000" stroke-width="1" x1="868" x2="868" y1="163" y2="142" /><line stroke="#000000" stroke-width="1" x1="872" x2="872" y1="163" y2="142" /><line stroke="#000000" stroke-width="1" x1="876" x2="876" y1="163" y2="142" /><line stroke="#000000" stroke-width="1" x1="880" x2="880" y1="163" y2="142" /><line stroke="#000000" stroke-width="1" x1="884" x2="884" y1="163" y2="142" /><line stroke="#000000" stroke-width="1" x1="953" x2="953" y1="142" y2="163" /><line stroke="#000000" stroke-width="1" x1="949" x2="949" y1="142" y2="163" /><line stroke="#000000" stroke-width="1" x1="945" x2="945" y1="142" y2="163" /><line stroke="#000000" stroke-width="1" x1="941" x2="941" y1="142" y2="163" /><line stroke="#000000" stroke-width="1" x1="937" x2="937" y1="142" y2="163" /><line stroke="#000000" stroke-width="1" x1="933" x2="933" y1="142" y2="163" /><line stroke="#000000" stroke-width="1" x1="929" x2="929" y1="142" y2="163" /><line stroke="#000000" stroke-width="1" x1="925" x2="925" y1="142" y2="163" /><line stroke="#000000" stroke-width="1" x1="921" x2="921" y1="142" y2="163" /><line stroke="#000000" stroke-width="1" x1="852" x2="852" y1="481" y2="502" /><line stroke="#000000" stroke-width="1" x1="856" x2="856" y1="481" y2="502" /><line stroke="#000000" stroke-width="1" x1="860" x2="860" y1="481" y2="502" /><line stroke="#000000" stroke-width="1" x1="864" x2="864" y1="481" y2="502" /><line stroke="#000000" stroke-width="1" x1="868" x2="868" y1="481" y2="502" /><line stroke="#000000" stroke-width="1" x1="872" x2="872" y1="481" y2="502" /><line stroke="#000000" stroke-width="1" x1="876" x2="876" y1="481" y2="502" /><line stroke="#000000" stroke-width="1" x1="880" x2="880" y1="481" y2="502" /><line stroke="#000000" stroke-width="1" x1="884" x2="884" y1="481" y2="502" /><line stroke="#000000" stroke-width="1" x1="953" x2="953" y1="502" y2="481" /><line stroke="#000000" stroke-width="1" x1="949" x2="949" y1="502" y2="481" /><line stroke="#000000" stroke-width="1" x1="945" x2="945" y1="502" y2="481" /><line stroke="#000000" stroke-width="1" x1="941" x2="941" y1="502" y2="481" /><line stroke="#000000" stroke-width="1" x1="937" x2="937" y1="502" y2="481" /><line stroke="#000000" stroke-width="1" x1="933" x2="933" y1="502" y2="481" /><line stroke="#000000" stroke-width="1" x1="929" x2="929" y1="502" y2="481" /><line stroke="#000000" stroke-width="1" x1="925" x2="925" y1="502" y2="481" /><line stroke="#000000" stroke-width="1" x1="921" x2="921" y1="502" y2="481" /><line stroke="#000000" stroke-width="1" x1="744" x2="744" y1="245" y2="273" /><line stroke="#000000" stroke-width="1" x1="748" x2="748" y1="245" y2="273" /><line stroke="#000000" stroke-width="1" x1="752" x2="752" y1="245" y2="273" /><line stroke="#000000" stroke-width="1" x1="756" x2="756" y1="245" y2="273" /><line stroke="#000000" stroke-width="1" x1="760" x2="760" y1="245" y2="273" /><line stroke="#000000" stroke-width="1" x1="764" x2="764" y1="245" y2="273" /><line stroke="#000000" stroke-width="1" x1="768" x2="768" y1="245" y2="273" /><line stroke="#000000" stroke-width="1" x1="772" x2="772" y1="245" y2="273" /><line stroke="#000000" stroke-width="1" x1="776" x2="776" y1="245" y2="273" /><line stroke="#000000" stroke-width="1" x1="780" x2="780" y1="245" y2="273" /><line stroke="#000000" stroke-width="1" x1="784" x2="784" y1="245" y2="273" /><line stroke="#000000" stroke-width="1" x1="788" x2="788" y1="245" y2="273" /><line stroke="#000000" stroke-width="1" x1="792" x2="792" y1="245" y2="273" /><line stroke="#000000" stroke-width="1" x1="796" x2="796" y1="245" y2="273" /><polygon fill="#D0D0D0" points="886,232 879,232 879,313 886,313" stroke="#000000" stroke-width="1" /><polyline fill="none" points="797,212 785,212 785,241 797,241" stroke="#000000" stroke-width="1" /><text fill="#000000" font-family="Arial" font-size="10" stroke="none" transform="rotate(-90.0,784,240)" x="784" y="250.0">кассы</text><line stroke="#7F7F7F" stroke-width="1" x1="750" x2="750" y1="276" y2="298" /><line stroke="#7F7F7F" stroke-width="1" x1="754" x2="754" y1="276" y2="298" /><line stroke="#7F7F7F" stroke-width="1" x1="758" x2="758" y1="276" y2="298" /><line stroke="#7F7F7F" stroke-width="1" x1="762" x2="762" y1="276" y2="298" /><line stroke="#7F7F7F" stroke-width="1" x1="766" x2="766" y1="276" y2="298" /><line stroke="#7F7F7F" stroke-width="1" x1="770" x2="770" y1="276" y2="298" /><line stroke="#7F7F7F" stroke-width="1" x1="774" x2="774" y1="276" y2="298" /><line stroke="#7F7F7F" stroke-width="1" x1="778" x2="778" y1="276" y2="298" /><line stroke="#7F7F7F" stroke-width="1" x1="782" x2="782" y1="276" y2="298" /><line stroke="#7F7F7F" stroke-width="1" x1="786" x2="786" y1="276" y2="298" /><line stroke="#7F7F7F" stroke-width="1" x1="790" x2="790" y1="276" y2="298" /><polygon fill="#9B5509" points="797,285 744,285 744,289 797,289" stroke="#000000" stroke-width="1" /><polygon fill="#9B5509" points="797,298 744,298 744,301 797,301" stroke="#000000" stroke-width="1" /><polygon fill="#9B5509" points="797,273 744,273 744,276 797,276" stroke="#000000" stroke-width="1" /><polyline fill="none" points="797,242 833,242 833,244" stroke="#000000" stroke-width="0.5" /><polyline fill="none" points="879,306 843,306" stroke="#000000" stroke-width="0.5" /><polyline fill="none" points="843,302 843,308" stroke="#000000" stroke-width="0.5" /><polygon fill="none" points="831,251 837,250 836,244 830,245" stroke="#000000" stroke-width="1" /><line stroke="#009900" stroke-width="1" x1="833" x2="838" y1="255" y2="254" /><line stroke="#009900" stroke-width="1" x1="833.631962004" x2="838.631962004" y1="258.949762528" y2="257.949762528" /><line stroke="#009900" stroke-width="1" x1="834.263924009" x2="839.263924009" y1="262.899525055" y2="261.899525055" /><line stroke="#009900" stroke-width="1" x1="834.895886013" x2="839.895886013" y1="266.849287583" y2="265.849287583" /><line stroke="#009900" stroke-width="1" x1="835.527848018" x2="840.527848018" y1="270.799050111" y2="269.799050111" /><line stroke="#009900" stroke-width="1" x1="836.159810022" x2="841.159810022" y1="274.748812638" y2="273.748812638" /><line stroke="#009900" stroke-width="1" x1="836.791772027" x2="841.791772027" y1="278.698575166" y2="277.698575166" /><line stroke="#009900" stroke-width="1" x1="837.423734031" x2="842.423734031" y1="282.648337694" y2="281.648337694" /><line stroke="#009900" stroke-width="1" x1="838.055696035" x2="843.055696035" y1="286.598100221" y2="285.598100221" /><line stroke="#009900" stroke-width="1" x1="838.68765804" x2="843.68765804" y1="290.547862749" y2="289.547862749" /><line stroke="#009900" stroke-width="1" x1="839.319620044" x2="844.319620044" y1="294.497625277" y2="293.497625277" /><line stroke="#009900" stroke-width="1" x1="839.951582049" x2="844.951582049" y1="298.447387804" y2="297.447387804" /><line stroke="#009900" stroke-width="1" x1="840.583544053" x2="845.583544053" y1="302.397150332" y2="301.397150332" /><line stroke="#FF0000" stroke-width="1" x1="841" x2="846" y1="308" y2="308" /><line stroke="#FF0000" stroke-width="1" x1="841" x2="846" y1="312" y2="312" /><line stroke="#FF0000" stroke-width="1" x1="841" x2="846" y1="316" y2="316" /><line stroke="#FF0000" stroke-width="1" x1="841" x2="846" y1="320" y2="320" /><line stroke="#FF0000" stroke-width="1" x1="841" x2="846" y1="324" y2="324" /><line stroke="#FF0000" stroke-width="1" x1="841" x2="846" y1="328" y2="328" /><line stroke="#FF0000" stroke-width="1" x1="841" x2="846" y1="332" y2="332" /><polyline fill="none" marker-end="url(#id210)" points="809,289 818,299" stroke="#FF0000" stroke-width="1" /><polyline fill="none" marker-end="url(#id210)" points="864,249 850,252" stroke="#009900" stroke-width="1" /><polyline fill="none" marker-end="url(#id210)" points="811,259 799,259" stroke="#009900" stroke-width="1" /><text fill="#00AFAF" font-family="Arial" font-size="15" stroke="none" x="929" y="393.0">Волгоградский</text><text fill="#00AFAF" font-family="Arial" font-size="15" stroke="none" x="947" y="405.0">проспект</text><text fill="#00AFAF" font-family="Arial" font-size="15" stroke="none" x="13" y="394.0">Волгоградский</text><text fill="#00AFAF" font-family="Arial" font-size="15" stroke="none" x="28" y="406.0">проспект</text><text fill="#00AFAF" font-family="Arial" font-size="15" stroke="none" transform="rotate(-90.0,281,174)" x="281" y="189.0">Жигулёвская улица</text><text fill="#00AFAF" font-family="Arial" font-size="15" stroke="none" transform="rotate(-90.0,749,186)" x="749" y="201.0">Зеленодольская улица</text><text fill="#00AFAF" font-family="Arial" font-size="15" stroke="none" transform="rotate(-90.0,748,514)" x="748" y="529.0">Зеленодольская улица</text><text fill="#00AFAF" font-family="Arial" font-size="15" stroke="none" x="474" y="16.0">площадь Славы</text><text fill="#00AFAF" font-family="Arial" font-size="15" stroke="none" transform="rotate(-90.0,281,516)" x="281" y="531.0">улица Маршала Чуйкова</text><polygon fill="#FEFBF1" points="682,-22 724,-22 724,60 682,60" stroke="#BBBBBB" stroke-width="1" /><text fill="#888888" font-family="Arial" font-size="12" stroke="none" transform="rotate(-90.0,696,54)" x="696" y="66.0">Макдональдс</text></g></svg>