<?xml version="1.0" encoding="utf-8" ?>
<svg baseProfile="full" height="100%" version="1.1" width="100%" xmlns="http://www.w3.org/2000/svg" xmlns:ev="http://www.w3.org/2001/xml-events" xmlns:xlink="http://www.w3.org/1999/xlink">
  <defs>
    <marker id="id228" markerHeight="3" markerUnits="strokeWidth" markerWidth="4" orient="auto" refX="0" refY="5" viewBox="0,0,10,10">
      <path d="M 0 0 L 10 5 L 0 10 z"/>
    </marker>
  </defs>
  <g>
    <rect fill="none" height="710" stroke="none" stroke-width="0" width="700" x="0" y="0"/>
    <g transform="rotate(-45.0,350,355)">
      <polygon fill="#fc9c54" points="609,311 609,281 159,281 159,311" stroke="#000000" stroke-width="1"/>
      <polygon fill="#fc9c54" points="159,421 159,391 609,391 609,421" stroke="#000000" stroke-width="1"/>
      <text fill="#000000" font-family="Arial" font-size="25" stroke="none" stroke-width="0" x="157" y="345.0">Ленинский проспект</text>
      <text fill="#f7782e" font-family="Arial" font-size="25" stroke="none" stroke-width="0" x="156" y="344.0">Ленинский проспект</text>
      <text fill="#f7782e" font-family="Arial" font-size="20" stroke="none" stroke-width="0" x="161" y="278.0">&lt;&lt; Академическая</text>
      <text fill="#f7782e" font-family="Arial" font-size="20" stroke="none" stroke-width="0" x="471" y="443.0">Шаболовская &gt;&gt;</text>
      <polygon fill="#fefbf1" points="74,290 -17,290 -17,300 -79,300 -79,412 74,412" stroke="#dfdfdf" stroke-width="1"/>
      <polyline fill="none" points="74,313 74,316 9,316 9,324 34,324 34,327 159,327 159,311" stroke="#000000" stroke-width="1"/>
      <polyline fill="none" points="74,389 74,386 9,386 9,385 -19,385 -19,379 9,379 9,378 34,378 34,375 159,375 159,391" stroke="#000000" stroke-width="1"/>
      <polyline fill="none" points="74,409 74,412 -49,412 -49,378 -66,378 -66,324 -20,324 -20,300 -17,300 -17,290 74,290 74,293" stroke="#000000" stroke-width="1"/>
      <line stroke="#7f7f7f" stroke-width="1" x1="39" x2="39" y1="329" y2="373"/>
      <line stroke="#7f7f7f" stroke-width="1" x1="43" x2="43" y1="329" y2="373"/>
      <line stroke="#7f7f7f" stroke-width="1" x1="47" x2="47" y1="329" y2="373"/>
      <line stroke="#7f7f7f" stroke-width="1" x1="51" x2="51" y1="329" y2="373"/>
      <line stroke="#7f7f7f" stroke-width="1" x1="55" x2="55" y1="329" y2="373"/>
      <line stroke="#7f7f7f" stroke-width="1" x1="59" x2="59" y1="329" y2="373"/>
      <line stroke="#7f7f7f" stroke-width="1" x1="63" x2="63" y1="329" y2="373"/>
      <line stroke="#7f7f7f" stroke-width="1" x1="67" x2="67" y1="329" y2="373"/>
      <line stroke="#7f7f7f" stroke-width="1" x1="71" x2="71" y1="329" y2="373"/>
      <line stroke="#7f7f7f" stroke-width="1" x1="75" x2="75" y1="329" y2="373"/>
      <line stroke="#7f7f7f" stroke-width="1" x1="79" x2="79" y1="329" y2="373"/>
      <line stroke="#7f7f7f" stroke-width="1" x1="83" x2="83" y1="329" y2="373"/>
      <line stroke="#7f7f7f" stroke-width="1" x1="87" x2="87" y1="329" y2="373"/>
      <line stroke="#7f7f7f" stroke-width="1" x1="91" x2="91" y1="329" y2="373"/>
      <line stroke="#7f7f7f" stroke-width="1" x1="95" x2="95" y1="329" y2="373"/>
      <line stroke="#7f7f7f" stroke-width="1" x1="99" x2="99" y1="329" y2="373"/>
      <line stroke="#7f7f7f" stroke-width="1" x1="103" x2="103" y1="329" y2="373"/>
      <line stroke="#7f7f7f" stroke-width="1" x1="107" x2="107" y1="329" y2="373"/>
      <line stroke="#7f7f7f" stroke-width="1" x1="111" x2="111" y1="329" y2="373"/>
      <line stroke="#7f7f7f" stroke-width="1" x1="115" x2="115" y1="329" y2="373"/>
      <line stroke="#7f7f7f" stroke-width="1" x1="119" x2="119" y1="329" y2="373"/>
      <line stroke="#7f7f7f" stroke-width="1" x1="123" x2="123" y1="329" y2="373"/>
      <line stroke="#7f7f7f" stroke-width="1" x1="127" x2="127" y1="329" y2="373"/>
      <line stroke="#7f7f7f" stroke-width="1" x1="131" x2="131" y1="329" y2="373"/>
      <line stroke="#7f7f7f" stroke-width="1" x1="135" x2="135" y1="329" y2="373"/>
      <polygon fill="#9b5509" points="139,341 36,341 36,346 139,346" stroke="#000000" stroke-width="1"/>
      <polygon fill="#9b5509" points="139,356 36,356 36,361 139,361" stroke="#000000" stroke-width="1"/>
      <polygon fill="#9b5509" points="139,327 36,327 36,331 139,331" stroke="#000000" stroke-width="1"/>
      <polygon fill="#9b5509" points="140,371 36,371 36,375 140,375" stroke="#000000" stroke-width="1"/>
      <polyline fill="none" points="-66,350 -79,350 -79,376 -66,376" stroke="#000000" stroke-width="1"/>
      <text fill="#000000" font-family="Arial" font-size="10" stroke="none" stroke-width="0" transform="rotate(90.0,-66,351)" x="-66" y="361.0">кассы</text>
      <polyline fill="none" points="35,357 -35,336" stroke="#000000" stroke-width="0.5"/>
      <polygon fill="none" points="-35,337 -39,341 -43,337 -39,333" stroke="#000000" stroke-width="1"/>
      <line stroke="#009900" stroke-width="1" x1="-33" x2="-37" y1="339" y2="343"/>
      <line stroke="#009900" stroke-width="1" x1="-30.0941263322" x2="-34.0941263322" y1="341.748799416" y2="345.748799416"/>
      <line stroke="#009900" stroke-width="1" x1="-27.1882526644" x2="-31.1882526644" y1="344.497598831" y2="348.497598831"/>
      <line stroke="#009900" stroke-width="1" x1="-24.2823789965" x2="-28.2823789965" y1="347.246398247" y2="351.246398247"/>
      <line stroke="#009900" stroke-width="1" x1="-21.3765053287" x2="-25.3765053287" y1="349.995197662" y2="353.995197662"/>
      <line stroke="#009900" stroke-width="1" x1="-18.4706316609" x2="-22.4706316609" y1="352.743997078" y2="356.743997078"/>
      <line stroke="#009900" stroke-width="1" x1="-15.5647579931" x2="-19.5647579931" y1="355.492796493" y2="359.492796493"/>
      <line stroke="#009900" stroke-width="1" x1="-12.6588843253" x2="-16.6588843253" y1="358.241595909" y2="362.241595909"/>
      <line stroke="#009900" stroke-width="1" x1="-9.75301065745" x2="-13.7530106574" y1="360.990395324" y2="364.990395324"/>
      <line stroke="#009900" stroke-width="1" x1="-6.84713698963" x2="-10.8471369896" y1="363.73919474" y2="367.73919474"/>
      <line stroke="#009900" stroke-width="1" x1="-3.94126332181" x2="-7.94126332181" y1="366.487994155" y2="370.487994155"/>
      <line stroke="#009900" stroke-width="1" x1="-1.03538965399" x2="-5.03538965399" y1="369.236793571" y2="373.236793571"/>
      <line stroke="#009900" stroke-width="1" x1="1.87048401383" x2="-2.12951598617" y1="371.985592986" y2="375.985592986"/>
      <polyline fill="none" points="804,317 691,317 691,328 609,328 609,311" stroke="#000000" stroke-width="1"/>
      <polyline fill="none" points="804,385 691,385 691,374 609,374 609,391" stroke="#000000" stroke-width="1"/>
      <polygon fill="#d0d0d0" points="788,336 804,336 804,366 788,366 788,363 793,363 793,339 788,339" stroke="#000000" stroke-width="1"/>
      <line stroke="#7f7f7f" stroke-width="1" x1="633" x2="633" y1="330" y2="371"/>
      <line stroke="#7f7f7f" stroke-width="1" x1="637" x2="637" y1="330" y2="371"/>
      <line stroke="#7f7f7f" stroke-width="1" x1="641" x2="641" y1="330" y2="371"/>
      <line stroke="#7f7f7f" stroke-width="1" x1="645" x2="645" y1="330" y2="371"/>
      <line stroke="#7f7f7f" stroke-width="1" x1="649" x2="649" y1="330" y2="371"/>
      <line stroke="#7f7f7f" stroke-width="1" x1="653" x2="653" y1="330" y2="371"/>
      <line stroke="#7f7f7f" stroke-width="1" x1="657" x2="657" y1="330" y2="371"/>
      <line stroke="#7f7f7f" stroke-width="1" x1="661" x2="661" y1="330" y2="371"/>
      <line stroke="#7f7f7f" stroke-width="1" x1="665" x2="665" y1="330" y2="371"/>
      <line stroke="#7f7f7f" stroke-width="1" x1="669" x2="669" y1="330" y2="371"/>
      <line stroke="#7f7f7f" stroke-width="1" x1="673" x2="673" y1="330" y2="371"/>
      <line stroke="#7f7f7f" stroke-width="1" x1="677" x2="677" y1="330" y2="371"/>
      <line stroke="#7f7f7f" stroke-width="1" x1="681" x2="681" y1="330" y2="371"/>
      <line stroke="#7f7f7f" stroke-width="1" x1="685" x2="685" y1="330" y2="371"/>
      <line stroke="#7f7f7f" stroke-width="1" x1="689" x2="689" y1="330" y2="371"/>
      <line stroke="#7f7f7f" stroke-width="1" x1="693" x2="693" y1="330" y2="371"/>
      <line stroke="#7f7f7f" stroke-width="1" x1="697" x2="697" y1="330" y2="371"/>
      <line stroke="#7f7f7f" stroke-width="1" x1="701" x2="701" y1="330" y2="371"/>
      <line stroke="#7f7f7f" stroke-width="1" x1="705" x2="705" y1="330" y2="371"/>
      <line stroke="#7f7f7f" stroke-width="1" x1="709" x2="709" y1="330" y2="371"/>
      <line stroke="#7f7f7f" stroke-width="1" x1="713" x2="713" y1="330" y2="371"/>
      <line stroke="#7f7f7f" stroke-width="1" x1="717" x2="717" y1="330" y2="371"/>
      <line stroke="#7f7f7f" stroke-width="1" x1="721" x2="721" y1="330" y2="371"/>
      <line stroke="#7f7f7f" stroke-width="1" x1="725" x2="725" y1="330" y2="371"/>
      <polygon fill="#9b5509" points="629,341 732,341 732,346 629,346" stroke="#000000" stroke-width="1"/>
      <polygon fill="#9b5509" points="629,356 732,356 732,361 629,361" stroke="#000000" stroke-width="1"/>
      <polygon fill="#9b5509" points="629,328 732,328 732,331 629,331" stroke="#000000" stroke-width="1"/>
      <polygon fill="#9b5509" points="629,371 732,371 732,374 629,374" stroke="#000000" stroke-width="1"/>
      <polygon fill="none" points="763,343 762,348 757,347 758,342" stroke="#000000" stroke-width="1"/>
      <polyline fill="none" points="733,344 759,339 771,339" stroke="#000000" stroke-width="0.5"/>
      <line stroke="#009900" stroke-width="1" x1="756" x2="761" y1="350" y2="351"/>
      <line stroke="#009900" stroke-width="1" x1="755.145212485" x2="760.145212485" y1="353.90760007" y2="354.90760007"/>
      <line stroke="#009900" stroke-width="1" x1="754.29042497" x2="759.29042497" y1="357.815200139" y2="358.815200139"/>
      <line stroke="#009900" stroke-width="1" x1="753.435637454" x2="758.435637454" y1="361.722800209" y2="362.722800209"/>
      <line stroke="#009900" stroke-width="1" x1="752.580849939" x2="757.580849939" y1="365.630400278" y2="366.630400278"/>
      <line stroke="#009900" stroke-width="1" x1="751.726062424" x2="756.726062424" y1="369.538000348" y2="370.538000348"/>
      <line stroke="#009900" stroke-width="1" x1="750.871274909" x2="755.871274909" y1="373.445600418" y2="374.445600418"/>
      <line stroke="#009900" stroke-width="1" x1="750.016487393" x2="755.016487393" y1="377.353200487" y2="378.353200487"/>
      <line stroke="#009900" stroke-width="1" x1="749.161699878" x2="754.161699878" y1="381.260800557" y2="382.260800557"/>
      <polygon fill="none" points="783,339 783,363 793,363 793,339" stroke="#000000" stroke-width="1"/>
      <text fill="#000000" font-family="Arial" font-size="9" stroke="none" stroke-width="0" transform="rotate(90.0,794,341)" x="794" y="350.0">касса</text>
      <polyline fill="none" marker-end="url(#id228)" points="793,326 808,326" stroke="#ff0000" stroke-width="1"/>
      <polyline fill="none" marker-end="url(#id228)" points="719,336 732,336" stroke="#ff0000" stroke-width="1"/>
      <polyline fill="none" marker-end="url(#id228)" points="59,303 79,303" stroke="#ff0000" stroke-width="1"/>
      <polyline fill="none" marker-end="url(#id228)" points="51,336 36,336" stroke="#ff0000" stroke-width="1"/>
      <polyline fill="none" marker-end="url(#id228)" points="732,366 719,366" stroke="#009900" stroke-width="1"/>
      <polyline fill="none" marker-end="url(#id228)" points="808,376 793,376" stroke="#009900" stroke-width="1"/>
      <polyline fill="none" marker-end="url(#id228)" points="79,399 56,399" stroke="#009900" stroke-width="1"/>
      <polyline fill="none" marker-end="url(#id228)" points="36,366 51,366" stroke="#009900" stroke-width="1"/>
      <polyline fill="none" marker-end="url(#id228)" points="-36,373 -27,364" stroke="#009900" stroke-width="1"/>
      <polygon fill="#34349c" points="765,337 760,337 760,335 765,335" stroke="#34349c" stroke-width="1"/>
      <polygon fill="#34349c" points="299,355 299,360 301,360 301,355" stroke="#34349c" stroke-width="1"/>
      <polygon fill="#34349c" points="-51,326 -46,326 -46,328 -51,328" stroke="#34349c" stroke-width="1"/>
      <polygon fill="#ff0000" points="770,337 765,337 765,335 770,335" stroke="#ff0000" stroke-width="1"/>
      <polygon fill="#ff0000" points="299,350 299,355 301,355 301,350" stroke="#ff0000" stroke-width="1"/>
      <polygon fill="#ff0000" points="-56,326 -51,326 -51,328 -56,328" stroke="#ff0000" stroke-width="1"/>
      <text fill="#00afaf" font-family="Arial" font-size="15" stroke="none" stroke-width="0" transform="rotate(90.0,392,128)" x="392" y="143.0">площадь Гагарина</text>
      <text fill="#00afaf" font-family="Arial" font-size="15" stroke="none" stroke-width="0" x="327" y="50.0">Ленинский проспект</text>
      <text fill="#00afaf" font-family="Arial" font-size="15" stroke="none" stroke-width="0" x="303" y="743.0">улица Вавилова</text>
      <text fill="#000000" font-family="Arial" font-size="15" stroke="none" stroke-width="0" transform="rotate(90.0,454,368)" x="454" y="383.0">'К станции &quot;Площадь Гагарина&quot; -&gt;'</text>
      <polyline fill="none" points="495,334 394,334" stroke="#000000" stroke-width="1"/>
      <polyline fill="none" points="495,368 459,368 459,481 426,481 426,368 394,368" stroke="#000000" stroke-width="1"/>
      <line stroke="#000000" stroke-width="1" x1="463" x2="463" y1="368" y2="334"/>
      <line stroke="#000000" stroke-width="1" x1="467" x2="467" y1="368" y2="334"/>
      <line stroke="#000000" stroke-width="1" x1="471" x2="471" y1="368" y2="334"/>
      <line stroke="#000000" stroke-width="1" x1="475" x2="475" y1="368" y2="334"/>
      <line stroke="#000000" stroke-width="1" x1="479" x2="479" y1="368" y2="334"/>
      <line stroke="#000000" stroke-width="1" x1="483" x2="483" y1="368" y2="334"/>
      <line stroke="#000000" stroke-width="1" x1="487" x2="487" y1="368" y2="334"/>
      <line stroke="#000000" stroke-width="1" x1="491" x2="491" y1="368" y2="334"/>
      <line stroke="#000000" stroke-width="1" x1="495" x2="495" y1="368" y2="334"/>
      <line stroke="#000000" stroke-width="1" x1="422" x2="422" y1="368" y2="334"/>
      <line stroke="#000000" stroke-width="1" x1="418" x2="418" y1="368" y2="334"/>
      <line stroke="#000000" stroke-width="1" x1="414" x2="414" y1="368" y2="334"/>
      <line stroke="#000000" stroke-width="1" x1="410" x2="410" y1="368" y2="334"/>
      <line stroke="#000000" stroke-width="1" x1="406" x2="406" y1="368" y2="334"/>
      <line stroke="#000000" stroke-width="1" x1="402" x2="402" y1="368" y2="334"/>
      <line stroke="#000000" stroke-width="1" x1="398" x2="398" y1="368" y2="334"/>
      <line stroke="#000000" stroke-width="1" x1="394" x2="394" y1="368" y2="334"/>
    </g>
    <g>
      <rect fill="#615f56" height="30" stroke="none" stroke-width="0" width="30" x="12" y="676"/>
      <rect fill="#615f56" height="30" stroke="none" stroke-width="0" width="30" x="663" y="100"/>
      <text fill="#ffd900" font-family="Arial" font-size="25" stroke="none" stroke-width="0" x="20" y="702.0">1</text>
      <text fill="#ffd900" font-family="Arial" font-size="25" stroke="none" stroke-width="0" x="671" y="126.0">2</text>
    </g>
  </g>
</svg>
