<?xml version="1.0" encoding="utf-8" ?>
<svg baseProfile="full" height="540.0" version="1.1" width="900.0" xmlns="http://www.w3.org/2000/svg" xmlns:ev="http://www.w3.org/2001/xml-events" xmlns:xlink="http://www.w3.org/1999/xlink">
  <defs>
    <marker id="id230" markerHeight="3" markerUnits="strokeWidth" markerWidth="4" orient="auto" refX="0" refY="5" viewBox="0,0,10,10">
      <path d="M 0 0 L 10 5 L 0 10 z"/>
    </marker>
  </defs>
  <g>
    <rect fill="none" height="540.0" stroke="none" stroke-width="0" width="900.0" x="0.0" y="0.0"/>
    <g transform="rotate(22.0,450.0,270.0)">
      <polygon fill="#8cbcfc" points="310.0,203.0 310.0,173.0 761.0,173.0 761.0,203.0" stroke="#000000" stroke-width="1"/>
      <polygon fill="#8cbcfc" points="310.0,313.0 310.0,283.0 761.0,283.0 761.0,313.0" stroke="#000000" stroke-width="1"/>
      <text fill="#2d69fc" font-family="Arial" font-size="25.0" stroke="none" stroke-width="0" x="458.0" y="249.0">Лесопарковая</text>
      <text fill="#2d69fc" font-family="Arial" font-size="20.0" stroke="none" stroke-width="0" x="517.0" y="333.0">Улица Старокачаловская &gt;&gt;</text>
      <text fill="#2d69fc" font-family="Arial" font-size="20.0" stroke="none" stroke-width="0" x="311.0" y="169.0">&lt;&lt; Битцевский парк</text>
      <polyline fill="none" points="310.0,283.0 310.0,273.0 257.0,273.0" stroke="#000000" stroke-width="1"/>
      <polyline fill="none" points="73.0,173.0 97.0,173.0 97.0,179.0 111.0,179.0 111.0,173.0 243.0,173.0" stroke="#000000" stroke-width="1"/>
      <polyline fill="none" points="257.0,213.0 310.0,213.0 310.0,203.0" stroke="#000000" stroke-width="1"/>
      <polyline fill="none" points="73.0,313.0 73.0,406.0 147.0,406.0" stroke="#000000" stroke-width="1"/>
      <polyline fill="none" points="147.0,388.0 97.0,388.0 97.0,307.0 111.0,307.0 111.0,313.0 243.0,313.0" stroke="#000000" stroke-width="1"/>
      <path d="M73.0,313.0 C73.0,313.0 75.83333333333334,325.0 73.0,313.0 C70.16666666666666,301.0 56.0,264.3333333333333 56.0,241.0 C56.0,217.66666666666666 73.0,173.0 73.0,173.0 " fill="none" stroke="#000000" stroke-width="1"/>
      <path d="M243.0,173.0 C243.0,173.0 241.66666666666666,169.83333333333334 243.0,173.0 C244.33333333333334,176.16666666666666 248.66666666666666,185.33333333333334 251.0,192.0 C253.33333333333334,198.66666666666666 257.0,213.0 257.0,213.0 " fill="none" stroke="#000000" stroke-width="1"/>
      <path d="M257.0,273.0 C257.0,273.0 258.0,269.5 257.0,273.0 C256.0,276.5 253.33333333333334,287.3333333333333 251.0,294.0 C248.66666666666666,300.6666666666667 243.0,313.0 243.0,313.0 " fill="none" stroke="#000000" stroke-width="1"/>
      <line stroke="#000000" stroke-width="1" x1="260.0" x2="260.0" y1="213.0" y2="273.0"/>
      <line stroke="#000000" stroke-width="1" x1="264.0" x2="264.0" y1="213.0" y2="273.0"/>
      <line stroke="#000000" stroke-width="1" x1="268.0" x2="268.0" y1="213.0" y2="273.0"/>
      <line stroke="#000000" stroke-width="1" x1="272.0" x2="272.0" y1="213.0" y2="273.0"/>
      <line stroke="#000000" stroke-width="1" x1="276.0" x2="276.0" y1="213.0" y2="273.0"/>
      <line stroke="#000000" stroke-width="1" x1="280.0" x2="280.0" y1="213.0" y2="273.0"/>
      <line stroke="#000000" stroke-width="1" x1="284.0" x2="284.0" y1="213.0" y2="273.0"/>
      <line stroke="#000000" stroke-width="1" x1="288.0" x2="288.0" y1="213.0" y2="273.0"/>
      <line stroke="#000000" stroke-width="1" x1="292.0" x2="292.0" y1="213.0" y2="273.0"/>
      <line stroke="#000000" stroke-width="1" x1="296.0" x2="296.0" y1="213.0" y2="273.0"/>
      <line stroke="#000000" stroke-width="1" x1="300.0" x2="300.0" y1="213.0" y2="273.0"/>
      <line stroke="#000000" stroke-width="1" x1="304.0" x2="304.0" y1="213.0" y2="273.0"/>
      <polygon fill="#d0d0d0" points="97.0,203.0 111.0,203.0 111.0,283.0 97.0,283.0" stroke="#000000" stroke-width="1"/>
      <polygon fill="none" points="184.0,251.0 191.0,251.0 191.0,258.0 184.0,258.0" stroke="#000000" stroke-width="1"/>
      <polyline fill="none" points="188.0,260.0 156.0,260.0" stroke="#000000" stroke-width="0.5"/>
      <line stroke="#009900" stroke-width="1" x1="185.0" x2="190.0" y1="247.0" y2="247.0"/>
      <line stroke="#009900" stroke-width="1" x1="185.0" x2="190.0" y1="243.0" y2="243.0"/>
      <line stroke="#009900" stroke-width="1" x1="185.0" x2="190.0" y1="239.0" y2="239.0"/>
      <line stroke="#009900" stroke-width="1" x1="185.0" x2="190.0" y1="235.0" y2="235.0"/>
      <line stroke="#009900" stroke-width="1" x1="185.0" x2="190.0" y1="231.0" y2="231.0"/>
      <line stroke="#009900" stroke-width="1" x1="185.0" x2="190.0" y1="227.0" y2="227.0"/>
      <line stroke="#009900" stroke-width="1" x1="185.0" x2="190.0" y1="223.0" y2="223.0"/>
      <line stroke="#009900" stroke-width="1" x1="185.0" x2="190.0" y1="219.0" y2="219.0"/>
      <line stroke="#009900" stroke-width="1" x1="185.0" x2="190.0" y1="215.0" y2="215.0"/>
      <line stroke="#009900" stroke-width="1" x1="185.0" x2="190.0" y1="211.0" y2="211.0"/>
      <line stroke="#009900" stroke-width="1" x1="185.0" x2="190.0" y1="207.0" y2="207.0"/>
      <line stroke="#009900" stroke-width="1" x1="185.0" x2="190.0" y1="203.0" y2="203.0"/>
      <line stroke="#009900" stroke-width="1" x1="185.0" x2="190.0" y1="199.0" y2="199.0"/>
      <line stroke="#009900" stroke-width="1" x1="185.0" x2="190.0" y1="195.0" y2="195.0"/>
      <line stroke="#009900" stroke-width="1" x1="185.0" x2="190.0" y1="191.0" y2="191.0"/>
      <line stroke="#009900" stroke-width="1" x1="185.0" x2="190.0" y1="187.0" y2="187.0"/>
      <line stroke="#009900" stroke-width="1" x1="185.0" x2="190.0" y1="183.0" y2="183.0"/>
      <line stroke="#009900" stroke-width="1" x1="185.0" x2="190.0" y1="179.0" y2="179.0"/>
      <line stroke="#009900" stroke-width="1" x1="185.0" x2="190.0" y1="175.0" y2="175.0"/>
      <line stroke="#ff0000" stroke-width="1" x1="154.0" x2="159.0" y1="263.0" y2="263.0"/>
      <line stroke="#ff0000" stroke-width="1" x1="154.0" x2="159.0" y1="267.0" y2="267.0"/>
      <line stroke="#ff0000" stroke-width="1" x1="154.0" x2="159.0" y1="271.0" y2="271.0"/>
      <line stroke="#ff0000" stroke-width="1" x1="154.0" x2="159.0" y1="275.0" y2="275.0"/>
      <line stroke="#ff0000" stroke-width="1" x1="154.0" x2="159.0" y1="279.0" y2="279.0"/>
      <line stroke="#ff0000" stroke-width="1" x1="154.0" x2="159.0" y1="283.0" y2="283.0"/>
      <line stroke="#ff0000" stroke-width="1" x1="154.0" x2="159.0" y1="287.0" y2="287.0"/>
      <line stroke="#ff0000" stroke-width="1" x1="154.0" x2="159.0" y1="291.0" y2="291.0"/>
      <line stroke="#ff0000" stroke-width="1" x1="154.0" x2="159.0" y1="295.0" y2="295.0"/>
      <line stroke="#ff0000" stroke-width="1" x1="154.0" x2="159.0" y1="299.0" y2="299.0"/>
      <line stroke="#ff0000" stroke-width="1" x1="154.0" x2="159.0" y1="303.0" y2="303.0"/>
      <line stroke="#ff0000" stroke-width="1" x1="154.0" x2="159.0" y1="307.0" y2="307.0"/>
      <line stroke="#ff0000" stroke-width="1" x1="154.0" x2="159.0" y1="311.0" y2="311.0"/>
      <polyline fill="none" points="129.0,173.0 129.0,161.0 171.0,161.0 171.0,173.0" stroke="#000000" stroke-width="1"/>
      <text fill="#000000" font-family="Arial" font-size="10.0" stroke="none" stroke-width="0" x="137.0" y="170.0">кассы</text>
      <polyline fill="none" marker-end="url(#id230)" points="150.0,293.0 136.0,293.0" stroke="#ff0000" stroke-width="1"/>
      <polyline fill="none" marker-end="url(#id230)" points="139.0,207.0 153.0,207.0" stroke="#009900" stroke-width="1"/>
      <polyline fill="none" points="761.0,203.0 761.0,213.0 817.0,213.0 817.0,203.0 774.0,203.0 774.0,185.0 890.0,185.0" stroke="#000000" stroke-width="1"/>
      <polyline fill="none" points="840.0,319.0 850.0,319.0 850.0,305.0 773.0,305.0 773.0,283.0 813.0,283.0 813.0,273.0 761.0,273.0 761.0,283.0" stroke="#000000" stroke-width="1"/>
      <path d="M890.0,185.0 C890.0,185.0 888.0,175.0 890.0,185.0 C892.0,195.0 902.0,225.0 902.0,245.0 C902.0,265.0 890.0,305.0 890.0,305.0 " fill="none" stroke="#000000" stroke-width="1"/>
      <polyline fill="none" points="890.0,305.0 868.0,305.0 868.0,348.0 918.0,348.0" stroke="#000000" stroke-width="1"/>
      <polyline fill="none" points="918.0,366.0 850.0,366.0 850.0,334.0 840.0,334.0" stroke="#000000" stroke-width="1"/>
      <line stroke="#000000" stroke-width="1" x1="810.0" x2="810.0" y1="213.0" y2="273.0"/>
      <line stroke="#000000" stroke-width="1" x1="806.0" x2="806.0" y1="213.0" y2="273.0"/>
      <line stroke="#000000" stroke-width="1" x1="802.0" x2="802.0" y1="213.0" y2="273.0"/>
      <line stroke="#000000" stroke-width="1" x1="798.0" x2="798.0" y1="213.0" y2="273.0"/>
      <line stroke="#000000" stroke-width="1" x1="794.0" x2="794.0" y1="213.0" y2="273.0"/>
      <line stroke="#000000" stroke-width="1" x1="790.0" x2="790.0" y1="213.0" y2="273.0"/>
      <line stroke="#000000" stroke-width="1" x1="786.0" x2="786.0" y1="213.0" y2="273.0"/>
      <line stroke="#000000" stroke-width="1" x1="782.0" x2="782.0" y1="213.0" y2="273.0"/>
      <line stroke="#000000" stroke-width="1" x1="778.0" x2="778.0" y1="213.0" y2="273.0"/>
      <line stroke="#000000" stroke-width="1" x1="774.0" x2="774.0" y1="213.0" y2="273.0"/>
      <line stroke="#000000" stroke-width="1" x1="770.0" x2="770.0" y1="213.0" y2="273.0"/>
      <line stroke="#000000" stroke-width="1" x1="766.0" x2="766.0" y1="213.0" y2="273.0"/>
      <line stroke="#000000" stroke-width="1" x1="145.0" x2="145.0" y1="388.0" y2="406.0"/>
      <line stroke="#000000" stroke-width="1" x1="141.0" x2="141.0" y1="388.0" y2="406.0"/>
      <line stroke="#000000" stroke-width="1" x1="137.0" x2="137.0" y1="388.0" y2="406.0"/>
      <line stroke="#000000" stroke-width="1" x1="133.0" x2="133.0" y1="388.0" y2="406.0"/>
      <line stroke="#000000" stroke-width="1" x1="129.0" x2="129.0" y1="388.0" y2="406.0"/>
      <line stroke="#000000" stroke-width="1" x1="125.0" x2="125.0" y1="388.0" y2="406.0"/>
      <line stroke="#000000" stroke-width="1" x1="121.0" x2="121.0" y1="388.0" y2="406.0"/>
      <line stroke="#000000" stroke-width="1" x1="117.0" x2="117.0" y1="388.0" y2="406.0"/>
      <line stroke="#000000" stroke-width="1" x1="113.0" x2="113.0" y1="388.0" y2="406.0"/>
      <line stroke="#000000" stroke-width="1" x1="109.0" x2="109.0" y1="388.0" y2="406.0"/>
      <line stroke="#000000" stroke-width="1" x1="105.0" x2="105.0" y1="388.0" y2="406.0"/>
      <line stroke="#000000" stroke-width="1" x1="101.0" x2="101.0" y1="388.0" y2="406.0"/>
      <line stroke="#000000" stroke-width="1" x1="916.0" x2="916.0" y1="348.0" y2="366.0"/>
      <line stroke="#000000" stroke-width="1" x1="912.0" x2="912.0" y1="348.0" y2="366.0"/>
      <line stroke="#000000" stroke-width="1" x1="908.0" x2="908.0" y1="348.0" y2="366.0"/>
      <line stroke="#000000" stroke-width="1" x1="904.0" x2="904.0" y1="348.0" y2="366.0"/>
      <line stroke="#000000" stroke-width="1" x1="900.0" x2="900.0" y1="348.0" y2="366.0"/>
      <line stroke="#000000" stroke-width="1" x1="896.0" x2="896.0" y1="348.0" y2="366.0"/>
      <line stroke="#000000" stroke-width="1" x1="892.0" x2="892.0" y1="348.0" y2="366.0"/>
      <line stroke="#000000" stroke-width="1" x1="888.0" x2="888.0" y1="348.0" y2="366.0"/>
      <line stroke="#000000" stroke-width="1" x1="884.0" x2="884.0" y1="348.0" y2="366.0"/>
      <line stroke="#000000" stroke-width="1" x1="880.0" x2="880.0" y1="348.0" y2="366.0"/>
      <line stroke="#000000" stroke-width="1" x1="876.0" x2="876.0" y1="348.0" y2="366.0"/>
      <line stroke="#000000" stroke-width="1" x1="872.0" x2="872.0" y1="348.0" y2="366.0"/>
      <line stroke="#000000" stroke-width="1" x1="868.0" x2="850.0" y1="336.0" y2="336.0"/>
      <line stroke="#000000" stroke-width="1" x1="868.0" x2="850.0" y1="340.0" y2="340.0"/>
      <line stroke="#000000" stroke-width="1" x1="868.0" x2="850.0" y1="344.0" y2="344.0"/>
      <polyline fill="none" points="817.0,213.0 843.0,213.0" stroke="#000000" stroke-width="0.5"/>
      <polygon fill="none" points="840.0,264.0 847.0,264.0 847.0,271.0 840.0,271.0" stroke="#000000" stroke-width="1"/>
      <line stroke="#009900" stroke-width="1" x1="845.0" x2="841.0" y1="214.0" y2="214.0"/>
      <line stroke="#009900" stroke-width="1" x1="845.0" x2="841.0" y1="218.0" y2="218.0"/>
      <line stroke="#009900" stroke-width="1" x1="845.0" x2="841.0" y1="222.0" y2="222.0"/>
      <line stroke="#009900" stroke-width="1" x1="845.0" x2="841.0" y1="226.0" y2="226.0"/>
      <line stroke="#009900" stroke-width="1" x1="845.0" x2="841.0" y1="230.0" y2="230.0"/>
      <line stroke="#009900" stroke-width="1" x1="845.0" x2="841.0" y1="234.0" y2="234.0"/>
      <line stroke="#009900" stroke-width="1" x1="845.0" x2="841.0" y1="238.0" y2="238.0"/>
      <line stroke="#009900" stroke-width="1" x1="845.0" x2="841.0" y1="242.0" y2="242.0"/>
      <line stroke="#009900" stroke-width="1" x1="845.0" x2="841.0" y1="246.0" y2="246.0"/>
      <line stroke="#009900" stroke-width="1" x1="845.0" x2="841.0" y1="250.0" y2="250.0"/>
      <line stroke="#009900" stroke-width="1" x1="845.0" x2="841.0" y1="254.0" y2="254.0"/>
      <line stroke="#009900" stroke-width="1" x1="845.0" x2="841.0" y1="258.0" y2="258.0"/>
      <line stroke="#ff0000" stroke-width="1" x1="817.0" x2="814.0" y1="303.0" y2="300.0"/>
      <line stroke="#ff0000" stroke-width="1" x1="819.8284271247462" x2="816.8284271247462" y1="300.1715728752538" y2="297.1715728752538"/>
      <line stroke="#ff0000" stroke-width="1" x1="822.6568542494924" x2="819.6568542494924" y1="297.3431457505076" y2="294.3431457505076"/>
      <line stroke="#ff0000" stroke-width="1" x1="825.4852813742386" x2="822.4852813742386" y1="294.51471862576136" y2="291.51471862576136"/>
      <line stroke="#ff0000" stroke-width="1" x1="828.3137084989849" x2="825.3137084989849" y1="291.68629150101515" y2="288.68629150101515"/>
      <line stroke="#ff0000" stroke-width="1" x1="831.1421356237311" x2="828.1421356237311" y1="288.85786437626894" y2="285.85786437626894"/>
      <line stroke="#ff0000" stroke-width="1" x1="833.9705627484773" x2="830.9705627484773" y1="286.0294372515227" y2="283.0294372515227"/>
      <line stroke="#ff0000" stroke-width="1" x1="836.7989898732235" x2="833.7989898732235" y1="283.2010101267765" y2="280.2010101267765"/>
      <line stroke="#ff0000" stroke-width="1" x1="839.6274169979697" x2="836.6274169979697" y1="280.3725830020303" y2="277.3725830020303"/>
      <line stroke="#ff0000" stroke-width="1" x1="842.4558441227159" x2="839.4558441227159" y1="277.5441558772841" y2="274.5441558772841"/>
      <polyline fill="none" points="902.0,232.0 908.0,231.0 903.0,204.0 897.0,205.0" stroke="#000000" stroke-width="1"/>
      <text fill="#000000" font-family="Arial" font-size="8.0" stroke="none" stroke-width="0" transform="rotate(-100.0,899.0,229.0)" x="899.0" y="237.0">кассы</text>
      <polygon fill="#d0efff" points="825.0,319.0 840.0,319.0 840.0,334.0 825.0,334.0" stroke="#000000" stroke-width="1"/>
      <text fill="#000000" font-family="Arial" font-size="6.0" stroke="none" stroke-width="0" x="826.0" y="329.0">лифт</text>
      <polyline fill="none" marker-end="url(#id230)" points="817.0,266.0 827.0,276.0" stroke="#ff0000" stroke-width="1"/>
      <polyline fill="none" marker-end="url(#id230)" points="868.0,236.0 856.0,236.0" stroke="#009900" stroke-width="1"/>
    </g>
    <g fill="none" fill-opacity="0.7" stroke="#00afaf" stroke-opacity="0.7" transform="rotate(22.0,450.0,270.0)">
      <polygon fill="#ffd0d0" points="28.0,156.0 28.0,409.0 304.0,409.0 304.0,156.0" stroke="#ffd0d0" stroke-width="1"/>
    </g>
    <g fill="#ffd0d0" fill-opacity="1.0" stroke="#ff4040" stroke-opacity="1.0" transform="rotate(22.0,450.0,270.0)">
      <text fill="#ff4040" font-family="Arial" font-size="15.0" stroke="none" stroke-width="0" x="137.0" y="287.0">Недостроено</text>
      <polyline fill="none" points="28.0,156.0 28.0,409.0 304.0,409.0 304.0,156.0 28.0,156.0" stroke="#ff4040" stroke-dasharray="5 2" stroke-width="1"/>
    </g>
    <g>
      <rect fill="#615f56" height="30.0" stroke="none" stroke-width="0" width="30.0" x="846.0" y="480.0"/>
      <text fill="#ffd900" font-family="Arial" font-size="25.0" stroke="none" stroke-width="0" x="854.0" y="506.0">1</text>
    </g>
  </g>
</svg>
