<?xml version="1.0" encoding="utf-8" ?>
<svg baseProfile="full" height="1060.0" version="1.1" width="1290.0" xmlns="http://www.w3.org/2000/svg" xmlns:ev="http://www.w3.org/2001/xml-events" xmlns:xlink="http://www.w3.org/1999/xlink">
  <defs>
    <marker id="id231" markerHeight="3" markerUnits="strokeWidth" markerWidth="4" orient="auto" refX="0" refY="5" viewBox="0,0,10,10">
      <path d="M 0 0 L 10 5 L 0 10 z"/>
    </marker>
  </defs>
  <g>
    <rect fill="none" height="1060.0" stroke="none" stroke-width="0" width="1290.0" x="0.0" y="0.0"/>
    <g transform="rotate(-35.0,645.0,530.0)">
      <polygon fill="#fcdc04" points="1134.0,449.0 684.0,449.0 684.0,419.0 1134.0,419.0" stroke="#000000" stroke-width="1"/>
      <polygon fill="#fcdc04" points="684.0,559.0 684.0,529.0 1134.0,529.0 1134.0,559.0" stroke="#000000" stroke-width="1"/>
      <text fill="#000000" font-family="Arial" font-size="20.0" stroke="none" stroke-width="0" x="689.0" y="415.0">&lt;&lt; Раменки</text>
      <text fill="#000000" font-family="Arial" font-size="20.0" stroke="none" stroke-width="0" x="1038.0" y="580.0">Минская &gt;&gt;</text>
      <text fill="#000000" font-family="Arial" font-size="25.0" stroke="none" stroke-width="0" x="781.0" y="510.0">Ломоносовский проспект</text>
      <text fill="#fcdc04" font-family="Arial" font-size="20.0" stroke="none" stroke-width="0" x="688.0" y="414.0">&lt;&lt; Раменки</text>
      <text fill="#fcdc04" font-family="Arial" font-size="20.0" stroke="none" stroke-width="0" x="1037.0" y="579.0">Минская &gt;&gt;</text>
      <text fill="#fcdc04" font-family="Arial" font-size="25.0" stroke="none" stroke-width="0" x="779.0" y="508.0">Ломоносовский проспект</text>
      <polygon fill="#34349c" points="908.0,479.0 908.0,475.0 909.0,475.0 909.0,479.0" stroke="#34349c" stroke-width="1"/>
      <polygon fill="#ff0000" points="908.0,483.0 908.0,479.0 909.0,479.0 909.0,483.0" stroke="#ff0000" stroke-width="1"/>
      <polyline fill="none" points="1134.0,529.0 1134.0,512.0 1156.0,512.0" stroke="#000000" stroke-width="1"/>
      <polyline fill="none" points="1134.0,449.0 1134.0,452.0 1218.0,452.0" stroke="#000000" stroke-width="1"/>
      <polyline fill="none" points="1156.0,467.0 1134.0,467.0" stroke="#000000" stroke-width="1"/>
      <line stroke="#7f7f7f" stroke-width="1" x1="1238.0" x2="1238.0" y1="508.0" y2="471.0"/>
      <line stroke="#7f7f7f" stroke-width="1" x1="1234.0" x2="1234.0" y1="508.0" y2="471.0"/>
      <line stroke="#7f7f7f" stroke-width="1" x1="1230.0" x2="1230.0" y1="508.0" y2="471.0"/>
      <line stroke="#7f7f7f" stroke-width="1" x1="1226.0" x2="1226.0" y1="508.0" y2="471.0"/>
      <line stroke="#7f7f7f" stroke-width="1" x1="1222.0" x2="1222.0" y1="508.0" y2="471.0"/>
      <line stroke="#7f7f7f" stroke-width="1" x1="1218.0" x2="1218.0" y1="508.0" y2="471.0"/>
      <line stroke="#7f7f7f" stroke-width="1" x1="1214.0" x2="1214.0" y1="508.0" y2="471.0"/>
      <line stroke="#7f7f7f" stroke-width="1" x1="1210.0" x2="1210.0" y1="508.0" y2="471.0"/>
      <line stroke="#7f7f7f" stroke-width="1" x1="1206.0" x2="1206.0" y1="508.0" y2="471.0"/>
      <line stroke="#7f7f7f" stroke-width="1" x1="1202.0" x2="1202.0" y1="508.0" y2="471.0"/>
      <line stroke="#7f7f7f" stroke-width="1" x1="1198.0" x2="1198.0" y1="508.0" y2="471.0"/>
      <line stroke="#7f7f7f" stroke-width="1" x1="1194.0" x2="1194.0" y1="508.0" y2="471.0"/>
      <line stroke="#7f7f7f" stroke-width="1" x1="1190.0" x2="1190.0" y1="508.0" y2="471.0"/>
      <line stroke="#7f7f7f" stroke-width="1" x1="1186.0" x2="1186.0" y1="508.0" y2="471.0"/>
      <line stroke="#7f7f7f" stroke-width="1" x1="1182.0" x2="1182.0" y1="508.0" y2="471.0"/>
      <line stroke="#7f7f7f" stroke-width="1" x1="1178.0" x2="1178.0" y1="508.0" y2="471.0"/>
      <line stroke="#7f7f7f" stroke-width="1" x1="1174.0" x2="1174.0" y1="508.0" y2="471.0"/>
      <line stroke="#7f7f7f" stroke-width="1" x1="1170.0" x2="1170.0" y1="508.0" y2="471.0"/>
      <line stroke="#7f7f7f" stroke-width="1" x1="1166.0" x2="1166.0" y1="508.0" y2="471.0"/>
      <line stroke="#7f7f7f" stroke-width="1" x1="1162.0" x2="1162.0" y1="508.0" y2="471.0"/>
      <polygon fill="#9b5509" points="1245.0,471.0 1156.0,471.0 1156.0,467.0 1245.0,467.0" stroke="#000000" stroke-width="1"/>
      <polygon fill="#9b5509" points="1245.0,480.0 1245.0,485.0 1156.0,485.0 1156.0,480.0" stroke="#000000" stroke-width="1"/>
      <polygon fill="#9b5509" points="1245.0,494.0 1245.0,499.0 1156.0,499.0 1156.0,494.0" stroke="#000000" stroke-width="1"/>
      <polygon fill="#9b5509" points="1245.0,508.0 1156.0,508.0 1156.0,512.0 1245.0,512.0" stroke="#000000" stroke-width="1"/>
    </g>
    <g fill="#9b5509" fill-opacity="0.8" stroke="#000000" stroke-opacity="0.8" transform="rotate(-35.0,645.0,530.0)">
      <polygon fill="#ffffff" points="1185.0,419.0 1258.0,419.0 1258.0,467.0 1209.0,467.0 1215.0,505.0 1218.0,510.0 1223.0,513.0 1228.0,512.0 1258.0,512.0 1258.0,542.0 1179.0,542.0 1167.0,470.0 1167.0,463.0" stroke="#ffffff" stroke-width="1"/>
    </g>
    <g fill="#ffffff" fill-opacity="1.0" stroke="#ffffff" stroke-opacity="1.0" transform="rotate(-35.0,645.0,530.0)">
      <polygon fill="#d0d0d0" points="1142.0,419.0 1185.0,419.0 1168.0,458.0 1167.0,462.0 1167.0,470.0 1168.0,474.0 1179.0,542.0 1179.0,559.0 1142.0,559.0" stroke="#d0d0d0" stroke-width="1"/>
      <polygon fill="#d0d0d0" points="1312.0,419.0 1391.0,419.0 1391.0,559.0 1213.0,559.0 1213.0,542.0 1322.0,542.0 1333.0,541.0 1341.0,536.0 1360.0,512.0 1363.0,503.0 1363.0,494.0 1362.0,485.0 1360.0,476.0 1329.0,428.0 1324.0,423.0" stroke="#d0d0d0" stroke-width="1"/>
      <polygon fill="#ffffff" points="1156.0,484.0 1169.0,482.0 1175.0,518.0 1162.0,520.0" stroke="#000000" stroke-width="1"/>
      <text fill="#000000" font-family="Arial" font-size="10.0" stroke="none" stroke-width="0" transform="rotate(80.0,1171.0,488.0)" x="1171.0" y="498.0">кассы</text>
      <polyline fill="none" points="1185.0,419.0 1142.0,419.0 1142.0,559.0 1179.0,559.0" stroke="#000000" stroke-width="1"/>
      <path d="M1168.0,458.0 C1168.0,458.0 1168.1666666666667,456.8333333333333 1168.0,458.0 C1167.8333333333333,459.1666666666667 1167.0,462.3333333333333 1167.0,465.0 C1167.0,467.6666666666667 1168.0,474.0 1168.0,474.0 " fill="none" stroke="#000000" stroke-width="1"/>
      <polyline fill="none" points="1302.0,419.0 1185.0,419.0 1168.0,458.0" stroke="#000000" stroke-width="1"/>
      <path d="M1302.0,419.0 C1302.0,419.0 1299.3333333333333,418.6666666666667 1302.0,419.0 C1304.6666666666667,419.3333333333333 1313.5,419.5 1318.0,421.0 C1322.5,422.5 1329.0,428.0 1329.0,428.0 " fill="none" stroke="#000000" stroke-width="1"/>
      <polyline fill="none" points="1329.0,428.0 1360.0,476.0" stroke="#000000" stroke-width="1"/>
      <path d="M1360.0,476.0 C1360.0,476.0 1359.5,472.8333333333333 1360.0,476.0 C1360.5,479.1666666666667 1363.0,489.0 1363.0,495.0 C1363.0,501.0 1360.0,512.0 1360.0,512.0 " fill="none" stroke="#000000" stroke-width="1"/>
      <polyline fill="none" points="1258.0,467.0 1209.0,467.0 1215.0,505.0" stroke="#000000" stroke-width="1"/>
      <path d="M1215.0,505.0 C1215.0,505.0 1214.0,504.0 1215.0,505.0 C1216.0,506.0 1218.8333333333333,509.8333333333333 1221.0,511.0 C1223.1666666666667,512.1666666666666 1228.0,512.0 1228.0,512.0 " fill="none" stroke="#000000" stroke-width="1"/>
      <polyline fill="none" points="1228.0,512.0 1258.0,512.0" stroke="#000000" stroke-width="1"/>
      <polyline fill="none" points="1168.0,474.0 1179.0,542.0 1179.0,580.0 1162.0,623.0 1066.0,623.0" stroke="#000000" stroke-width="1"/>
      <polyline fill="none" points="1066.0,655.0 1323.0,655.0" stroke="#000000" stroke-width="1"/>
      <polyline fill="none" points="1323.0,623.0 1229.0,623.0 1213.0,580.0 1213.0,542.0 1314.0,542.0" stroke="#000000" stroke-width="1"/>
      <polyline fill="none" points="1341.0,536.0 1360.0,512.0" stroke="#000000" stroke-width="1"/>
      <path d="M1341.0,536.0 C1341.0,536.0 1342.8333333333333,535.1666666666666 1341.0,536.0 C1339.1666666666667,536.8333333333334 1334.5,540.0 1330.0,541.0 C1325.5,542.0 1314.0,542.0 1314.0,542.0 " fill="none" stroke="#000000" stroke-width="1"/>
      <polyline fill="none" points="1302.0,419.0 1391.0,419.0 1391.0,559.0 1213.0,559.0" stroke="#000000" stroke-width="1"/>
      <line stroke="#000000" stroke-width="1" x1="1321.0" x2="1321.0" y1="655.0" y2="623.0"/>
      <line stroke="#000000" stroke-width="1" x1="1317.0" x2="1317.0" y1="655.0" y2="623.0"/>
      <line stroke="#000000" stroke-width="1" x1="1313.0" x2="1313.0" y1="655.0" y2="623.0"/>
      <line stroke="#000000" stroke-width="1" x1="1309.0" x2="1309.0" y1="655.0" y2="623.0"/>
      <line stroke="#000000" stroke-width="1" x1="1305.0" x2="1305.0" y1="655.0" y2="623.0"/>
      <line stroke="#000000" stroke-width="1" x1="1301.0" x2="1301.0" y1="655.0" y2="623.0"/>
      <line stroke="#000000" stroke-width="1" x1="1290.0" x2="1290.0" y1="655.0" y2="623.0"/>
      <line stroke="#000000" stroke-width="1" x1="1286.0" x2="1286.0" y1="655.0" y2="623.0"/>
      <line stroke="#000000" stroke-width="1" x1="1282.0" x2="1282.0" y1="655.0" y2="623.0"/>
      <line stroke="#000000" stroke-width="1" x1="1278.0" x2="1278.0" y1="655.0" y2="623.0"/>
      <line stroke="#000000" stroke-width="1" x1="1274.0" x2="1274.0" y1="655.0" y2="623.0"/>
      <line stroke="#000000" stroke-width="1" x1="1270.0" x2="1270.0" y1="655.0" y2="623.0"/>
      <line stroke="#000000" stroke-width="1" x1="1259.0" x2="1259.0" y1="655.0" y2="623.0"/>
      <line stroke="#000000" stroke-width="1" x1="1255.0" x2="1255.0" y1="655.0" y2="623.0"/>
      <line stroke="#000000" stroke-width="1" x1="1251.0" x2="1251.0" y1="655.0" y2="623.0"/>
      <line stroke="#000000" stroke-width="1" x1="1247.0" x2="1247.0" y1="655.0" y2="623.0"/>
      <line stroke="#000000" stroke-width="1" x1="1243.0" x2="1243.0" y1="655.0" y2="623.0"/>
      <line stroke="#000000" stroke-width="1" x1="1239.0" x2="1239.0" y1="655.0" y2="623.0"/>
      <line stroke="#000000" stroke-width="1" x1="1151.0" x2="1151.0" y1="655.0" y2="623.0"/>
      <line stroke="#000000" stroke-width="1" x1="1147.0" x2="1147.0" y1="655.0" y2="623.0"/>
      <line stroke="#000000" stroke-width="1" x1="1143.0" x2="1143.0" y1="655.0" y2="623.0"/>
      <line stroke="#000000" stroke-width="1" x1="1139.0" x2="1139.0" y1="655.0" y2="623.0"/>
      <line stroke="#000000" stroke-width="1" x1="1135.0" x2="1135.0" y1="655.0" y2="623.0"/>
      <line stroke="#000000" stroke-width="1" x1="1131.0" x2="1131.0" y1="655.0" y2="623.0"/>
      <line stroke="#000000" stroke-width="1" x1="1120.0" x2="1120.0" y1="655.0" y2="623.0"/>
      <line stroke="#000000" stroke-width="1" x1="1116.0" x2="1116.0" y1="655.0" y2="623.0"/>
      <line stroke="#000000" stroke-width="1" x1="1112.0" x2="1112.0" y1="655.0" y2="623.0"/>
      <line stroke="#000000" stroke-width="1" x1="1108.0" x2="1108.0" y1="655.0" y2="623.0"/>
      <line stroke="#000000" stroke-width="1" x1="1104.0" x2="1104.0" y1="655.0" y2="623.0"/>
      <line stroke="#000000" stroke-width="1" x1="1100.0" x2="1100.0" y1="655.0" y2="623.0"/>
      <line stroke="#000000" stroke-width="1" x1="1089.0" x2="1089.0" y1="655.0" y2="623.0"/>
      <line stroke="#000000" stroke-width="1" x1="1085.0" x2="1085.0" y1="655.0" y2="623.0"/>
      <line stroke="#000000" stroke-width="1" x1="1081.0" x2="1081.0" y1="655.0" y2="623.0"/>
      <line stroke="#000000" stroke-width="1" x1="1077.0" x2="1077.0" y1="655.0" y2="623.0"/>
      <line stroke="#000000" stroke-width="1" x1="1073.0" x2="1073.0" y1="655.0" y2="623.0"/>
      <line stroke="#000000" stroke-width="1" x1="1069.0" x2="1069.0" y1="655.0" y2="623.0"/>
      <polygon fill="none" points="1180.0,437.0 1186.0,440.0 1183.0,446.0 1177.0,443.0" stroke="#000000" stroke-width="1"/>
      <line stroke="#009900" stroke-width="1" x1="1188.0" x2="1186.0" y1="443.0" y2="447.0"/>
      <line stroke="#009900" stroke-width="1" x1="1191.6280358709937" x2="1189.6280358709937" y1="444.68444522581854" y2="448.68444522581854"/>
      <line stroke="#009900" stroke-width="1" x1="1195.2560717419874" x2="1193.2560717419874" y1="446.36889045163707" y2="450.36889045163707"/>
      <line stroke="#009900" stroke-width="1" x1="1198.884107612981" x2="1196.884107612981" y1="448.0533356774556" y2="452.0533356774556"/>
      <line stroke="#009900" stroke-width="1" x1="1202.5121434839748" x2="1200.5121434839748" y1="449.73778090327414" y2="453.73778090327414"/>
      <line stroke="#009900" stroke-width="1" x1="1206.1401793549685" x2="1204.1401793549685" y1="451.4222261290927" y2="455.4222261290927"/>
      <line stroke="#009900" stroke-width="1" x1="1209.7682152259622" x2="1207.7682152259622" y1="453.1066713549112" y2="457.1066713549112"/>
      <line stroke="#009900" stroke-width="1" x1="1213.396251096956" x2="1211.396251096956" y1="454.79111658072975" y2="458.79111658072975"/>
      <line stroke="#ff0000" stroke-width="1" x1="1258.0" x2="1253.0" y1="514.0" y2="514.0"/>
      <line stroke="#ff0000" stroke-width="1" x1="1258.0" x2="1253.0" y1="518.0" y2="518.0"/>
      <line stroke="#ff0000" stroke-width="1" x1="1258.0" x2="1253.0" y1="522.0" y2="522.0"/>
      <line stroke="#ff0000" stroke-width="1" x1="1258.0" x2="1253.0" y1="526.0" y2="526.0"/>
      <line stroke="#ff0000" stroke-width="1" x1="1258.0" x2="1253.0" y1="530.0" y2="530.0"/>
      <line stroke="#ff0000" stroke-width="1" x1="1258.0" x2="1253.0" y1="534.0" y2="534.0"/>
      <line stroke="#ff0000" stroke-width="1" x1="1258.0" x2="1253.0" y1="538.0" y2="538.0"/>
      <polyline fill="none" marker-end="url(#id231)" points="1293.0,526.0 1270.0,526.0" stroke="#ff0000" stroke-width="1"/>
      <polyline fill="none" marker-end="url(#id231)" points="1190.0,478.0 1197.0,463.0" stroke="#009900" stroke-width="1"/>
      <polygon fill="#34349c" points="1216.0,515.0 1212.0,515.0 1212.0,516.0 1216.0,516.0" stroke="#34349c" stroke-width="1"/>
      <polygon fill="#ff0000" points="1220.0,515.0 1216.0,515.0 1216.0,516.0 1220.0,516.0" stroke="#ff0000" stroke-width="1"/>
      <polygon fill="#d0efff" points="1218.0,452.0 1233.0,452.0 1233.0,467.0 1218.0,467.0" stroke="#000000" stroke-width="1"/>
      <polygon fill="#d0efff" points="1188.0,623.0 1203.0,623.0 1203.0,638.0 1188.0,638.0" stroke="#000000" stroke-width="1"/>
      <text fill="#000000" font-family="Arial" font-size="6.0" stroke="none" stroke-width="0" x="1219.0" y="462.0">лифт</text>
      <text fill="#000000" font-family="Arial" font-size="6.0" stroke="none" stroke-width="0" x="1189.0" y="633.0">лифт</text>
      <polygon fill="#d0d0d0" points="395.0,515.0 373.0,515.0 375.0,527.0 396.0,523.0" stroke="#000000" stroke-width="1"/>
      <polygon fill="#d0d0d0" points="373.0,467.0 395.0,467.0 396.0,459.0 375.0,455.0" stroke="#000000" stroke-width="1"/>
      <polygon fill="#d0d0d0" points="452.0,515.0 423.0,479.0 421.0,472.0 422.0,466.0 427.0,461.0 436.0,458.0 447.0,456.0 462.0,454.0 475.0,454.0 489.0,455.0 513.0,460.0 526.0,465.0 535.0,470.0 540.0,477.0 541.0,482.0 540.0,487.0 537.0,491.0 529.0,497.0 481.0,515.0 473.0,518.0 466.0,519.0 459.0,518.0" stroke="#d0d0d0" stroke-width="1"/>
      <polygon fill="#ffffff" points="427.0,484.0 437.0,476.0 458.0,502.0 448.0,510.0" stroke="#000000" stroke-width="1"/>
      <text fill="#000000" font-family="Arial" font-size="10.0" stroke="none" stroke-width="0" transform="rotate(50.0,440.0,479.0)" x="440.0" y="489.0">кассы</text>
      <polyline fill="none" points="684.0,449.0 684.0,468.0 613.0,468.0" stroke="#000000" stroke-width="1"/>
      <polyline fill="none" points="613.0,513.0 684.0,513.0" stroke="#000000" stroke-width="1"/>
      <path d="M589.0,454.0 C589.0,454.0 587.1666666666666,452.3333333333333 589.0,454.0 C590.8333333333334,455.6666666666667 596.0,461.6666666666667 600.0,464.0 C604.0,466.3333333333333 613.0,468.0 613.0,468.0 " fill="none" stroke="#000000" stroke-width="1"/>
      <polyline fill="none" points="589.0,454.0 576.0,419.0 373.0,419.0 373.0,323.0 485.0,323.0" stroke="#000000" stroke-width="1"/>
      <polyline fill="none" points="684.0,529.0 648.0,529.0 623.0,532.0" stroke="#000000" stroke-width="1"/>
      <path d="M623.0,532.0 C623.0,532.0 625.5,531.5 623.0,532.0 C620.5,532.5 613.0,533.6666666666666 608.0,535.0 C603.0,536.3333333333334 593.0,540.0 593.0,540.0 " fill="none" stroke="#000000" stroke-width="1"/>
      <polyline fill="none" points="593.0,540.0 550.0,560.0 373.0,560.0 373.0,655.0 468.0,655.0" stroke="#000000" stroke-width="1"/>
      <polyline fill="none" points="433.0,276.0 339.0,276.0 339.0,419.0 327.0,419.0 327.0,560.0 339.0,560.0 339.0,595.0 215.0,595.0 181.0,307.0 136.0,312.0 122.0,298.0 82.0,303.0" stroke="#000000" stroke-width="1"/>
      <polyline fill="none" points="110.0,316.0 21.0,327.0" stroke="#000000" stroke-width="1"/>
      <polyline fill="none" points="25.0,359.0 150.0,344.0 195.0,708.0 72.0,723.0" stroke="#000000" stroke-width="1"/>
      <polyline fill="none" points="76.0,755.0 164.0,744.0" stroke="#000000" stroke-width="1"/>
      <polyline fill="none" points="140.0,762.0 179.0,757.0 187.0,741.0 233.0,735.0 220.0,629.0 323.0,629.0 323.0,687.0 468.0,687.0" stroke="#000000" stroke-width="1"/>
      <polyline fill="none" points="423.0,479.0 452.0,515.0" stroke="#000000" stroke-width="1"/>
      <path d="M481.0,515.0 C481.0,515.0 483.5,514.3333333333334 481.0,515.0 C478.5,515.6666666666666 470.8333333333333,519.0 466.0,519.0 C461.1666666666667,519.0 452.0,515.0 452.0,515.0 " fill="none" stroke="#000000" stroke-width="1"/>
      <polyline fill="none" points="481.0,515.0 529.0,497.0" stroke="#000000" stroke-width="1"/>
      <path d="M529.0,497.0 C529.0,497.0 527.1666666666666,498.6666666666667 529.0,497.0 C530.8333333333334,495.3333333333333 538.3333333333334,490.6666666666667 540.0,487.0 C541.6666666666666,483.3333333333333 542.0,479.0 539.0,475.0 C536.0,471.0 531.3333333333334,466.5 522.0,463.0 C512.6666666666666,459.5 495.5,455.1666666666667 483.0,454.0 C470.5,452.8333333333333 456.8333333333333,454.5 447.0,456.0 C437.1666666666667,457.5 428.0,459.1666666666667 424.0,463.0 C420.0,466.8333333333333 423.0,479.0 423.0,479.0 " fill="none" stroke="#000000" stroke-width="1"/>
      <polyline fill="none" points="485.0,291.0 383.0,291.0" stroke="#000000" stroke-width="1"/>
      <polyline fill="none" points="373.0,467.0 373.0,515.0" stroke="#000000" stroke-width="1"/>
      <line stroke="#000000" stroke-width="1" x1="482.0" x2="482.0" y1="323.0" y2="291.0"/>
      <line stroke="#000000" stroke-width="1" x1="478.0" x2="478.0" y1="323.0" y2="291.0"/>
      <line stroke="#000000" stroke-width="1" x1="474.0" x2="474.0" y1="323.0" y2="291.0"/>
      <line stroke="#000000" stroke-width="1" x1="470.0" x2="470.0" y1="323.0" y2="291.0"/>
      <line stroke="#000000" stroke-width="1" x1="466.0" x2="466.0" y1="323.0" y2="291.0"/>
      <line stroke="#000000" stroke-width="1" x1="462.0" x2="462.0" y1="323.0" y2="291.0"/>
      <line stroke="#000000" stroke-width="1" x1="451.0" x2="451.0" y1="323.0" y2="291.0"/>
      <line stroke="#000000" stroke-width="1" x1="447.0" x2="447.0" y1="323.0" y2="291.0"/>
      <line stroke="#000000" stroke-width="1" x1="443.0" x2="443.0" y1="323.0" y2="291.0"/>
      <line stroke="#000000" stroke-width="1" x1="439.0" x2="439.0" y1="323.0" y2="291.0"/>
      <line stroke="#000000" stroke-width="1" x1="435.0" x2="435.0" y1="323.0" y2="291.0"/>
      <line stroke="#000000" stroke-width="1" x1="431.0" x2="431.0" y1="323.0" y2="291.0"/>
      <line stroke="#000000" stroke-width="1" x1="420.0" x2="420.0" y1="323.0" y2="291.0"/>
      <line stroke="#000000" stroke-width="1" x1="416.0" x2="416.0" y1="323.0" y2="291.0"/>
      <line stroke="#000000" stroke-width="1" x1="412.0" x2="412.0" y1="323.0" y2="291.0"/>
      <line stroke="#000000" stroke-width="1" x1="408.0" x2="408.0" y1="323.0" y2="291.0"/>
      <line stroke="#000000" stroke-width="1" x1="404.0" x2="404.0" y1="323.0" y2="291.0"/>
      <line stroke="#000000" stroke-width="1" x1="400.0" x2="400.0" y1="323.0" y2="291.0"/>
      <line stroke="#000000" stroke-width="1" x1="110.0" x2="106.0" y1="348.0" y2="317.0"/>
      <line stroke="#000000" stroke-width="1" x1="106.03359835525511" x2="102.03359835525511" y1="348.5173567362711" y2="317.5173567362711"/>
      <line stroke="#000000" stroke-width="1" x1="102.06719671051022" x2="98.06719671051022" y1="349.0347134725422" y2="318.0347134725422"/>
      <line stroke="#000000" stroke-width="1" x1="98.10079506576533" x2="94.10079506576533" y1="349.5520702088133" y2="318.5520702088133"/>
      <line stroke="#000000" stroke-width="1" x1="94.13439342102043" x2="90.13439342102043" y1="350.0694269450844" y2="319.0694269450844"/>
      <line stroke="#000000" stroke-width="1" x1="90.16799177627554" x2="86.16799177627554" y1="350.5867836813555" y2="319.5867836813555"/>
      <line stroke="#000000" stroke-width="1" x1="79.0" x2="75.0" y1="352.0" y2="321.0"/>
      <line stroke="#000000" stroke-width="1" x1="75.03359835525511" x2="71.03359835525511" y1="352.5173567362711" y2="321.5173567362711"/>
      <line stroke="#000000" stroke-width="1" x1="71.06719671051022" x2="67.06719671051022" y1="353.0347134725422" y2="322.0347134725422"/>
      <line stroke="#000000" stroke-width="1" x1="67.10079506576533" x2="63.10079506576533" y1="353.5520702088133" y2="322.5520702088133"/>
      <line stroke="#000000" stroke-width="1" x1="63.13439342102044" x2="59.13439342102045" y1="354.0694269450844" y2="323.0694269450844"/>
      <line stroke="#000000" stroke-width="1" x1="59.16799177627556" x2="55.167991776275564" y1="354.5867836813555" y2="323.5867836813555"/>
      <line stroke="#000000" stroke-width="1" x1="49.0" x2="45.0" y1="356.0" y2="324.0"/>
      <line stroke="#000000" stroke-width="1" x1="45.040202025355335" x2="41.040202025355335" y1="356.56568542494927" y2="324.56568542494927"/>
      <line stroke="#000000" stroke-width="1" x1="41.08040405071067" x2="37.08040405071067" y1="357.13137084989853" y2="325.13137084989853"/>
      <line stroke="#000000" stroke-width="1" x1="37.120606076066004" x2="33.120606076066004" y1="357.6970562748478" y2="325.6970562748478"/>
      <line stroke="#000000" stroke-width="1" x1="33.16080810142134" x2="29.16080810142134" y1="358.26274169979706" y2="326.26274169979706"/>
      <line stroke="#000000" stroke-width="1" x1="29.201010126776673" x2="25.201010126776673" y1="358.8284271247463" y2="326.8284271247463"/>
      <line stroke="#000000" stroke-width="1" x1="160.0" x2="156.0" y1="744.0" y2="713.0"/>
      <line stroke="#000000" stroke-width="1" x1="156.03359835525512" x2="152.03359835525512" y1="744.517356736271" y2="713.517356736271"/>
      <line stroke="#000000" stroke-width="1" x1="152.06719671051025" x2="148.06719671051025" y1="745.0347134725421" y2="714.0347134725421"/>
      <line stroke="#000000" stroke-width="1" x1="148.10079506576537" x2="144.10079506576537" y1="745.5520702088131" y2="714.5520702088131"/>
      <line stroke="#000000" stroke-width="1" x1="144.1343934210205" x2="140.1343934210205" y1="746.0694269450842" y2="715.0694269450842"/>
      <line stroke="#000000" stroke-width="1" x1="140.1679917762756" x2="136.1679917762756" y1="746.5867836813552" y2="715.5867836813552"/>
      <line stroke="#000000" stroke-width="1" x1="129.0" x2="125.0" y1="748.0" y2="717.0"/>
      <line stroke="#000000" stroke-width="1" x1="125.03359835525511" x2="121.03359835525511" y1="748.517356736271" y2="717.517356736271"/>
      <line stroke="#000000" stroke-width="1" x1="121.06719671051022" x2="117.06719671051022" y1="749.0347134725421" y2="718.0347134725421"/>
      <line stroke="#000000" stroke-width="1" x1="117.10079506576533" x2="113.10079506576533" y1="749.5520702088131" y2="718.5520702088131"/>
      <line stroke="#000000" stroke-width="1" x1="113.13439342102043" x2="109.13439342102043" y1="750.0694269450842" y2="719.0694269450842"/>
      <line stroke="#000000" stroke-width="1" x1="109.16799177627554" x2="105.16799177627554" y1="750.5867836813552" y2="719.5867836813552"/>
      <line stroke="#000000" stroke-width="1" x1="99.0" x2="95.0" y1="752.0" y2="720.0"/>
      <line stroke="#000000" stroke-width="1" x1="95.03667932782281" x2="91.03667932782281" y1="752.5404528189332" y2="720.5404528189332"/>
      <line stroke="#000000" stroke-width="1" x1="91.07335865564562" x2="87.07335865564562" y1="753.0809056378664" y2="721.0809056378664"/>
      <line stroke="#000000" stroke-width="1" x1="87.11003798346843" x2="83.11003798346843" y1="753.6213584567996" y2="721.6213584567996"/>
      <line stroke="#000000" stroke-width="1" x1="83.14671731129124" x2="79.14671731129124" y1="754.1618112757328" y2="722.1618112757328"/>
      <line stroke="#000000" stroke-width="1" x1="79.18339663911405" x2="75.18339663911405" y1="754.702264094666" y2="722.702264094666"/>
      <line stroke="#000000" stroke-width="1" x1="465.0" x2="465.0" y1="687.0" y2="655.0"/>
      <line stroke="#000000" stroke-width="1" x1="461.0" x2="461.0" y1="687.0" y2="655.0"/>
      <line stroke="#000000" stroke-width="1" x1="457.0" x2="457.0" y1="687.0" y2="655.0"/>
      <line stroke="#000000" stroke-width="1" x1="453.0" x2="453.0" y1="687.0" y2="655.0"/>
      <line stroke="#000000" stroke-width="1" x1="449.0" x2="449.0" y1="687.0" y2="655.0"/>
      <line stroke="#000000" stroke-width="1" x1="445.0" x2="445.0" y1="687.0" y2="655.0"/>
      <line stroke="#000000" stroke-width="1" x1="434.0" x2="434.0" y1="687.0" y2="655.0"/>
      <line stroke="#000000" stroke-width="1" x1="430.0" x2="430.0" y1="687.0" y2="655.0"/>
      <line stroke="#000000" stroke-width="1" x1="426.0" x2="426.0" y1="687.0" y2="655.0"/>
      <line stroke="#000000" stroke-width="1" x1="422.0" x2="422.0" y1="687.0" y2="655.0"/>
      <line stroke="#000000" stroke-width="1" x1="418.0" x2="418.0" y1="687.0" y2="655.0"/>
      <line stroke="#000000" stroke-width="1" x1="414.0" x2="414.0" y1="687.0" y2="655.0"/>
      <line stroke="#000000" stroke-width="1" x1="403.0" x2="403.0" y1="687.0" y2="655.0"/>
      <line stroke="#000000" stroke-width="1" x1="399.0" x2="399.0" y1="687.0" y2="655.0"/>
      <line stroke="#000000" stroke-width="1" x1="395.0" x2="395.0" y1="687.0" y2="655.0"/>
      <line stroke="#000000" stroke-width="1" x1="391.0" x2="391.0" y1="687.0" y2="655.0"/>
      <line stroke="#000000" stroke-width="1" x1="387.0" x2="387.0" y1="687.0" y2="655.0"/>
      <line stroke="#000000" stroke-width="1" x1="383.0" x2="383.0" y1="687.0" y2="655.0"/>
      <line stroke="#000000" stroke-width="1" x1="613.0" x2="613.0" y1="468.0" y2="513.0"/>
      <line stroke="#000000" stroke-width="1" x1="617.0" x2="617.0" y1="468.0" y2="513.0"/>
      <line stroke="#000000" stroke-width="1" x1="621.0" x2="621.0" y1="468.0" y2="513.0"/>
      <line stroke="#000000" stroke-width="1" x1="625.0" x2="625.0" y1="468.0" y2="513.0"/>
      <line stroke="#000000" stroke-width="1" x1="629.0" x2="629.0" y1="468.0" y2="513.0"/>
      <line stroke="#000000" stroke-width="1" x1="633.0" x2="633.0" y1="468.0" y2="513.0"/>
      <line stroke="#000000" stroke-width="1" x1="637.0" x2="637.0" y1="468.0" y2="513.0"/>
      <line stroke="#000000" stroke-width="1" x1="648.0" x2="648.0" y1="468.0" y2="513.0"/>
      <line stroke="#000000" stroke-width="1" x1="652.0" x2="652.0" y1="468.0" y2="513.0"/>
      <line stroke="#000000" stroke-width="1" x1="656.0" x2="656.0" y1="468.0" y2="513.0"/>
      <line stroke="#000000" stroke-width="1" x1="660.0" x2="660.0" y1="468.0" y2="513.0"/>
      <line stroke="#000000" stroke-width="1" x1="664.0" x2="664.0" y1="468.0" y2="513.0"/>
      <line stroke="#000000" stroke-width="1" x1="668.0" x2="668.0" y1="468.0" y2="513.0"/>
      <line stroke="#000000" stroke-width="1" x1="672.0" x2="672.0" y1="468.0" y2="513.0"/>
      <polygon fill="none" points="553.0,546.0 556.0,552.0 550.0,555.0 547.0,549.0" stroke="#000000" stroke-width="1"/>
      <line stroke="#009900" stroke-width="1" x1="529.0" x2="525.0" y1="502.0" y2="504.0"/>
      <line stroke="#009900" stroke-width="1" x1="530.8593355959597" x2="526.8593355959597" y1="505.54159161135175" y2="507.54159161135175"/>
      <line stroke="#009900" stroke-width="1" x1="532.7186711919194" x2="528.7186711919194" y1="509.0831832227035" y2="511.0831832227035"/>
      <line stroke="#009900" stroke-width="1" x1="534.5780067878791" x2="530.5780067878791" y1="512.6247748340553" y2="514.6247748340553"/>
      <line stroke="#009900" stroke-width="1" x1="536.4373423838388" x2="532.4373423838388" y1="516.1663664454071" y2="518.1663664454071"/>
      <line stroke="#009900" stroke-width="1" x1="538.2966779797985" x2="534.2966779797985" y1="519.7079580567589" y2="521.7079580567589"/>
      <line stroke="#009900" stroke-width="1" x1="540.1560135757582" x2="536.1560135757582" y1="523.2495496681107" y2="525.2495496681107"/>
      <line stroke="#009900" stroke-width="1" x1="542.0153491717178" x2="538.0153491717178" y1="526.7911412794625" y2="528.7911412794625"/>
      <line stroke="#009900" stroke-width="1" x1="543.8746847676775" x2="539.8746847676775" y1="530.3327328908143" y2="532.3327328908143"/>
      <line stroke="#009900" stroke-width="1" x1="545.7340203636372" x2="541.7340203636372" y1="533.8743245021661" y2="535.8743245021661"/>
      <line stroke="#009900" stroke-width="1" x1="547.5933559595969" x2="543.5933559595969" y1="537.4159161135179" y2="539.4159161135179"/>
      <line stroke="#009900" stroke-width="1" x1="549.4526915555566" x2="545.4526915555566" y1="540.9575077248697" y2="542.9575077248697"/>
      <line stroke="#ff0000" stroke-width="1" x1="545.0" x2="540.0" y1="426.0" y2="424.0"/>
      <line stroke="#ff0000" stroke-width="1" x1="543.4770007789829" x2="538.4770007789829" y1="429.69871239389886" y2="427.69871239389886"/>
      <line stroke="#ff0000" stroke-width="1" x1="541.9540015579657" x2="536.9540015579657" y1="433.3974247877977" y2="431.3974247877977"/>
      <line stroke="#ff0000" stroke-width="1" x1="540.4310023369486" x2="535.4310023369486" y1="437.0961371816966" y2="435.0961371816966"/>
      <line stroke="#ff0000" stroke-width="1" x1="538.9080031159315" x2="533.9080031159315" y1="440.79484957559544" y2="438.79484957559544"/>
      <line stroke="#ff0000" stroke-width="1" x1="537.3850038949143" x2="532.3850038949143" y1="444.4935619694943" y2="442.4935619694943"/>
      <line stroke="#ff0000" stroke-width="1" x1="535.8620046738972" x2="530.8620046738972" y1="448.19227436339315" y2="446.19227436339315"/>
      <line stroke="#ff0000" stroke-width="1" x1="534.3390054528801" x2="529.3390054528801" y1="451.890986757292" y2="449.890986757292"/>
      <line stroke="#ff0000" stroke-width="1" x1="532.816006231863" x2="527.816006231863" y1="455.58969915119087" y2="453.58969915119087"/>
      <line stroke="#ff0000" stroke-width="1" x1="531.2930070108458" x2="526.2930070108458" y1="459.28841154508973" y2="457.28841154508973"/>
      <polyline fill="none" marker-end="url(#id231)" points="570.0,463.0 553.0,453.0" stroke="#ff0000" stroke-width="1"/>
      <polyline fill="none" marker-end="url(#id231)" points="510.0,535.0 527.0,529.0" stroke="#009900" stroke-width="1"/>
      <polygon fill="#34349c" points="566.0,476.0 562.0,476.0 562.0,477.0 566.0,477.0" stroke="#34349c" stroke-width="1"/>
      <polygon fill="#ff0000" points="570.0,476.0 566.0,476.0 566.0,477.0 570.0,477.0" stroke="#ff0000" stroke-width="1"/>
      <polygon fill="#d0efff" points="648.0,513.0 663.0,513.0 663.0,529.0 648.0,529.0" stroke="#000000" stroke-width="1"/>
      <polygon fill="#d0efff" points="418.0,276.0 433.0,276.0 433.0,291.0 418.0,291.0" stroke="#000000" stroke-width="1"/>
      <polygon fill="#d0efff" points="308.0,662.0 323.0,662.0 323.0,677.0 308.0,677.0" stroke="#000000" stroke-width="1"/>
      <polygon fill="#d0efff" points="123.0,749.0 138.0,747.0 140.0,762.0 125.0,764.0" stroke="#000000" stroke-width="1"/>
      <polygon fill="#d0efff" points="67.0,305.0 82.0,303.0 84.0,319.0 69.0,321.0" stroke="#000000" stroke-width="1"/>
      <text fill="#000000" font-family="Arial" font-size="6.0" stroke="none" stroke-width="0" x="649.0" y="523.0">лифт</text>
      <text fill="#000000" font-family="Arial" font-size="6.0" stroke="none" stroke-width="0" x="419.0" y="286.0">лифт</text>
      <text fill="#000000" font-family="Arial" font-size="6.0" stroke="none" stroke-width="0" x="309.0" y="672.0">лифт</text>
      <text fill="#000000" font-family="Arial" font-size="6.0" stroke="none" stroke-width="0" transform="rotate(-7.0,125.0,753.0)" x="125.0" y="759.0">лифт</text>
      <text fill="#000000" font-family="Arial" font-size="6.0" stroke="none" stroke-width="0" transform="rotate(-7.0,69.0,309.0)" x="69.0" y="315.0">лифт</text>
      <text fill="#00afaf" font-family="Arial" font-size="15.0" stroke="none" stroke-width="0" x="613.0" y="598.0">Мичуринский проспект</text>
      <text fill="#00afaf" font-family="Arial" font-size="15.0" stroke="none" stroke-width="0" x="1073.0" y="379.0">Мичуринский проспект</text>
      <text fill="#00afaf" font-family="Arial" font-size="15.0" stroke="none" stroke-width="0" transform="rotate(84.0,258.0,398.0)" x="258.0" y="413.0">Ломоносовский проспект</text>
    </g>
    <g>
      <rect fill="#615f56" height="30.0" stroke="none" stroke-width="0" width="30.0" x="531.0" y="703.0"/>
      <rect fill="#615f56" height="30.0" stroke="none" stroke-width="0" width="30.0" x="266.0" y="964.0"/>
      <rect fill="#615f56" height="30.0" stroke="none" stroke-width="0" width="30.0" x="59.0" y="738.0"/>
      <rect fill="#615f56" height="30.0" stroke="none" stroke-width="0" width="30.0" x="379.0" y="470.0"/>
      <rect fill="#615f56" height="30.0" stroke="none" stroke-width="0" width="30.0" x="1246.0" y="271.0"/>
      <rect fill="#615f56" height="30.0" stroke="none" stroke-width="0" width="30.0" x="1095.0" y="380.0"/>
      <text fill="#ffd900" font-family="Arial" font-size="25.0" stroke="none" stroke-width="0" x="539.0" y="729.0">1</text>
      <text fill="#ffd900" font-family="Arial" font-size="25.0" stroke="none" stroke-width="0" x="274.0" y="990.0">2</text>
      <text fill="#ffd900" font-family="Arial" font-size="25.0" stroke="none" stroke-width="0" x="67.0" y="764.0">3</text>
      <text fill="#ffd900" font-family="Arial" font-size="25.0" stroke="none" stroke-width="0" x="387.0" y="496.0">4</text>
      <text fill="#ffd900" font-family="Arial" font-size="25.0" stroke="none" stroke-width="0" x="1254.0" y="297.0">5</text>
      <text fill="#ffd900" font-family="Arial" font-size="25.0" stroke="none" stroke-width="0" x="1103.0" y="406.0">6</text>
    </g>
  </g>
</svg>
