<?xml version="1.0" encoding="utf-8" ?>
<svg baseProfile="full" height="100%" version="1.1" width="100%" xmlns="http://www.w3.org/2000/svg" xmlns:ev="http://www.w3.org/2001/xml-events" xmlns:xlink="http://www.w3.org/1999/xlink"><defs><marker id="id84" markerHeight="3" markerUnits="strokeWidth" markerWidth="4" orient="auto" refX="0" refY="5" viewBox="0,0,10,10"><path d="M 0 0 L 10 5 L 0 10 z" /></marker></defs><g transform="rotate(-70.0,535,560)"><rect fill="none" height="1120" stroke="none" stroke-width="0" width="1070" x="0" y="0" /><polygon fill="#7CBC54" points="236,450 236,420 686,420 686,450" stroke="#000000" stroke-width="1" /><polygon fill="#7CBC54" points="686,340 686,310 236,310 236,340" stroke="#000000" stroke-width="1" /><text fill="#5C9F2E" font-family="Arial" font-size="25" stroke="none" stroke-width="0" x="404" y="400.0">Люблино</text><text fill="#5C9F2E" font-family="Arial" font-size="20" stroke="none" stroke-width="0" x="236" y="307.0">&lt;&lt; Братиславская</text><text fill="#5C9F2E" font-family="Arial" font-size="20" stroke="none" stroke-width="0" x="580" y="470.0">Волжская &gt;&gt;</text><polygon fill="#34349C" points="459,378 459,374 460,374 460,378" stroke="#34349C" stroke-width="1" /><polygon fill="#FF0000" points="459,382 459,378 460,378 460,382" stroke="#FF0000" stroke-width="1" /><polyline fill="none" points="912,569 912,527 829,527 829,502 843,502 843,441 736,441 736,401 686,401 686,420" stroke="#000000" stroke-width="1" /><polyline fill="none" points="938,569 938,527 980,527" stroke="#000000" stroke-width="1" /><polyline fill="none" points="980,502 938,502 938,473 876,473" stroke="#000000" stroke-width="1" /><polyline fill="none" points="876,493 876,274 973,274" stroke="#000000" stroke-width="1" /><polyline fill="none" points="973,249 933,249 933,209" stroke="#000000" stroke-width="1" /><polyline fill="none" points="907,209 907,249 788,249 788,209" stroke="#000000" stroke-width="1" /><polyline fill="none" points="762,209 762,273 843,273 843,318 736,318 736,359 686,359 686,340" stroke="#000000" stroke-width="1" /><line stroke="#000000" stroke-width="1" x1="912" x2="938" y1="567" y2="567" /><line stroke="#000000" stroke-width="1" x1="912" x2="938" y1="563" y2="563" /><line stroke="#000000" stroke-width="1" x1="912" x2="938" y1="559" y2="559" /><line stroke="#000000" stroke-width="1" x1="912" x2="938" y1="555" y2="555" /><line stroke="#000000" stroke-width="1" x1="912" x2="938" y1="551" y2="551" /><line stroke="#000000" stroke-width="1" x1="912" x2="938" y1="547" y2="547" /><line stroke="#000000" stroke-width="1" x1="912" x2="938" y1="543" y2="543" /><line stroke="#000000" stroke-width="1" x1="912" x2="938" y1="539" y2="539" /><line stroke="#000000" stroke-width="1" x1="912" x2="938" y1="535" y2="535" /><line stroke="#000000" stroke-width="1" x1="912" x2="938" y1="531" y2="531" /><line stroke="#000000" stroke-width="1" x1="978" x2="978" y1="502" y2="527" /><line stroke="#000000" stroke-width="1" x1="974" x2="974" y1="502" y2="527" /><line stroke="#000000" stroke-width="1" x1="970" x2="970" y1="502" y2="527" /><line stroke="#000000" stroke-width="1" x1="966" x2="966" y1="502" y2="527" /><line stroke="#000000" stroke-width="1" x1="962" x2="962" y1="502" y2="527" /><line stroke="#000000" stroke-width="1" x1="958" x2="958" y1="502" y2="527" /><line stroke="#000000" stroke-width="1" x1="954" x2="954" y1="502" y2="527" /><line stroke="#000000" stroke-width="1" x1="950" x2="950" y1="502" y2="527" /><line stroke="#000000" stroke-width="1" x1="946" x2="946" y1="502" y2="527" /><line stroke="#000000" stroke-width="1" x1="942" x2="942" y1="502" y2="527" /><line stroke="#000000" stroke-width="1" x1="971" x2="971" y1="274" y2="249" /><line stroke="#000000" stroke-width="1" x1="967" x2="967" y1="274" y2="249" /><line stroke="#000000" stroke-width="1" x1="963" x2="963" y1="274" y2="249" /><line stroke="#000000" stroke-width="1" x1="959" x2="959" y1="274" y2="249" /><line stroke="#000000" stroke-width="1" x1="955" x2="955" y1="274" y2="249" /><line stroke="#000000" stroke-width="1" x1="951" x2="951" y1="274" y2="249" /><line stroke="#000000" stroke-width="1" x1="947" x2="947" y1="274" y2="249" /><line stroke="#000000" stroke-width="1" x1="943" x2="943" y1="274" y2="249" /><line stroke="#000000" stroke-width="1" x1="939" x2="939" y1="274" y2="249" /><line stroke="#000000" stroke-width="1" x1="935" x2="935" y1="274" y2="249" /><line stroke="#000000" stroke-width="1" x1="933" x2="907" y1="211" y2="211" /><line stroke="#000000" stroke-width="1" x1="933" x2="907" y1="215" y2="215" /><line stroke="#000000" stroke-width="1" x1="933" x2="907" y1="219" y2="219" /><line stroke="#000000" stroke-width="1" x1="933" x2="907" y1="223" y2="223" /><line stroke="#000000" stroke-width="1" x1="933" x2="907" y1="227" y2="227" /><line stroke="#000000" stroke-width="1" x1="933" x2="907" y1="231" y2="231" /><line stroke="#000000" stroke-width="1" x1="933" x2="907" y1="235" y2="235" /><line stroke="#000000" stroke-width="1" x1="933" x2="907" y1="239" y2="239" /><line stroke="#000000" stroke-width="1" x1="933" x2="907" y1="243" y2="243" /><line stroke="#000000" stroke-width="1" x1="933" x2="907" y1="247" y2="247" /><line stroke="#000000" stroke-width="1" x1="900" x2="900" y1="249" y2="274" /><line stroke="#000000" stroke-width="1" x1="896" x2="896" y1="249" y2="274" /><line stroke="#000000" stroke-width="1" x1="795" x2="795" y1="249" y2="273" /><line stroke="#000000" stroke-width="1" x1="799" x2="799" y1="249" y2="273" /><line stroke="#000000" stroke-width="1" x1="788" x2="762" y1="211" y2="211" /><line stroke="#000000" stroke-width="1" x1="788" x2="762" y1="215" y2="215" /><line stroke="#000000" stroke-width="1" x1="788" x2="762" y1="219" y2="219" /><line stroke="#000000" stroke-width="1" x1="788" x2="762" y1="223" y2="223" /><line stroke="#000000" stroke-width="1" x1="788" x2="762" y1="227" y2="227" /><line stroke="#000000" stroke-width="1" x1="788" x2="762" y1="231" y2="231" /><line stroke="#000000" stroke-width="1" x1="788" x2="762" y1="235" y2="235" /><line stroke="#000000" stroke-width="1" x1="788" x2="762" y1="239" y2="239" /><line stroke="#000000" stroke-width="1" x1="788" x2="762" y1="243" y2="243" /><line stroke="#000000" stroke-width="1" x1="788" x2="762" y1="247" y2="247" /><line stroke="#000000" stroke-width="1" x1="734" x2="734" y1="359" y2="401" /><line stroke="#000000" stroke-width="1" x1="730" x2="730" y1="359" y2="401" /><line stroke="#000000" stroke-width="1" x1="726" x2="726" y1="359" y2="401" /><line stroke="#000000" stroke-width="1" x1="722" x2="722" y1="359" y2="401" /><line stroke="#000000" stroke-width="1" x1="718" x2="718" y1="359" y2="401" /><line stroke="#000000" stroke-width="1" x1="714" x2="714" y1="359" y2="401" /><line stroke="#000000" stroke-width="1" x1="710" x2="710" y1="359" y2="401" /><line stroke="#000000" stroke-width="1" x1="706" x2="706" y1="359" y2="401" /><line stroke="#000000" stroke-width="1" x1="702" x2="702" y1="359" y2="401" /><line stroke="#000000" stroke-width="1" x1="698" x2="698" y1="359" y2="401" /><line stroke="#000000" stroke-width="1" x1="694" x2="694" y1="359" y2="401" /><line stroke="#000000" stroke-width="1" x1="690" x2="690" y1="359" y2="401" /><polygon fill="#D0D0D0" points="843,407 833,407 833,353 843,353" stroke="#000000" stroke-width="1" /><polyline fill="none" points="736,405 746,405 746,441" stroke="#000000" stroke-width="1" /><text fill="#000000" font-family="Arial" font-size="10" stroke="none" stroke-width="0" transform="rotate(90.0,748,409)" x="748" y="419.0">кассы</text><polyline fill="none" points="746,405 756,405" stroke="#000000" stroke-width="1" /><polygon fill="none" points="782,359 788,359 788,353 782,353" stroke="#000000" stroke-width="1" /><polyline fill="none" points="788,353 833,353" stroke="#000000" stroke-width="1" /><polyline fill="none" points="785,325 785,318" stroke="#000000" stroke-width="1" /><line stroke="#009900" stroke-width="1" x1="758" x2="755" y1="405" y2="403" /><line stroke="#009900" stroke-width="1" x1="760.069677356" x2="757.069677356" y1="401.577072066" y2="399.577072066" /><line stroke="#009900" stroke-width="1" x1="762.139354711" x2="759.139354711" y1="398.154144131" y2="396.154144131" /><line stroke="#009900" stroke-width="1" x1="764.209032067" x2="761.209032067" y1="394.731216197" y2="392.731216197" /><line stroke="#009900" stroke-width="1" x1="766.278709423" x2="763.278709423" y1="391.308288263" y2="389.308288263" /><line stroke="#009900" stroke-width="1" x1="768.348386778" x2="765.348386778" y1="387.885360328" y2="385.885360328" /><line stroke="#009900" stroke-width="1" x1="770.418064134" x2="767.418064134" y1="384.462432394" y2="382.462432394" /><line stroke="#009900" stroke-width="1" x1="772.487741489" x2="769.487741489" y1="381.03950446" y2="379.03950446" /><line stroke="#009900" stroke-width="1" x1="774.557418845" x2="771.557418845" y1="377.616576525" y2="375.616576525" /><line stroke="#009900" stroke-width="1" x1="776.627096201" x2="773.627096201" y1="374.193648591" y2="372.193648591" /><line stroke="#009900" stroke-width="1" x1="778.696773556" x2="775.696773556" y1="370.770720657" y2="368.770720657" /><line stroke="#009900" stroke-width="1" x1="780.766450912" x2="777.766450912" y1="367.347792722" y2="365.347792722" /><line stroke="#009900" stroke-width="1" x1="782.836128268" x2="779.836128268" y1="363.924864788" y2="361.924864788" /><line stroke="#FF0000" stroke-width="1" x1="783" x2="787" y1="349" y2="349" /><line stroke="#FF0000" stroke-width="1" x1="783" x2="787" y1="345" y2="345" /><line stroke="#FF0000" stroke-width="1" x1="783" x2="787" y1="341" y2="341" /><line stroke="#FF0000" stroke-width="1" x1="783" x2="787" y1="337" y2="337" /><line stroke="#FF0000" stroke-width="1" x1="783" x2="787" y1="333" y2="333" /><line stroke="#FF0000" stroke-width="1" x1="783" x2="787" y1="329" y2="329" /><line stroke="#FF0000" stroke-width="1" x1="783" x2="787" y1="325" y2="325" /><polygon fill="#34349C" points="756,408 760,408 760,409 756,409" stroke="#34349C" stroke-width="1" /><polygon fill="#FF0000" points="752,408 756,408 756,409 752,409" stroke="#FF0000" stroke-width="1" /><polyline fill="none" points="-69,240 34,240 34,311 79,311 79,318 186,318 186,358 236,358 236,340" stroke="#000000" stroke-width="1" /><polyline fill="none" points="-69,266 -27,266 -27,292 4,292" stroke="#000000" stroke-width="1" /><polyline fill="none" points="4,276 4,348 46,348 46,441 186,441 186,401 236,401 236,420" stroke="#000000" stroke-width="1" /><line stroke="#000000" stroke-width="1" x1="188" x2="188" y1="358" y2="401" /><line stroke="#000000" stroke-width="1" x1="192" x2="192" y1="358" y2="401" /><line stroke="#000000" stroke-width="1" x1="196" x2="196" y1="358" y2="401" /><line stroke="#000000" stroke-width="1" x1="200" x2="200" y1="358" y2="401" /><line stroke="#000000" stroke-width="1" x1="204" x2="204" y1="358" y2="401" /><line stroke="#000000" stroke-width="1" x1="208" x2="208" y1="358" y2="401" /><line stroke="#000000" stroke-width="1" x1="212" x2="212" y1="358" y2="401" /><line stroke="#000000" stroke-width="1" x1="216" x2="216" y1="358" y2="401" /><line stroke="#000000" stroke-width="1" x1="220" x2="220" y1="358" y2="401" /><line stroke="#000000" stroke-width="1" x1="224" x2="224" y1="358" y2="401" /><line stroke="#000000" stroke-width="1" x1="228" x2="228" y1="358" y2="401" /><line stroke="#000000" stroke-width="1" x1="232" x2="232" y1="358" y2="401" /><line stroke="#000000" stroke-width="1" x1="-67" x2="-67" y1="266" y2="240" /><line stroke="#000000" stroke-width="1" x1="-63" x2="-63" y1="266" y2="240" /><line stroke="#000000" stroke-width="1" x1="-59" x2="-59" y1="266" y2="240" /><line stroke="#000000" stroke-width="1" x1="-55" x2="-55" y1="266" y2="240" /><line stroke="#000000" stroke-width="1" x1="-51" x2="-51" y1="266" y2="240" /><line stroke="#000000" stroke-width="1" x1="-47" x2="-47" y1="266" y2="240" /><line stroke="#000000" stroke-width="1" x1="-43" x2="-43" y1="266" y2="240" /><line stroke="#000000" stroke-width="1" x1="-39" x2="-39" y1="266" y2="240" /><line stroke="#000000" stroke-width="1" x1="-35" x2="-35" y1="266" y2="240" /><line stroke="#000000" stroke-width="1" x1="-31" x2="-31" y1="266" y2="240" /><polygon fill="#D0D0D0" points="87,407 79,407 79,353 87,353" stroke="#000000" stroke-width="1" /><polyline fill="none" points="186,351 177,351 177,318" stroke="#000000" stroke-width="1" /><text fill="#000000" font-family="Arial" font-size="10" stroke="none" stroke-width="0" transform="rotate(90.0,188,322)" x="188" y="332.0">кассы</text><polyline fill="none" points="177,351 167,351" stroke="#000000" stroke-width="1" /><polygon fill="none" points="130,401 136,401 136,407 130,407" stroke="#000000" stroke-width="1" /><polyline fill="none" points="130,407 87,407" stroke="#000000" stroke-width="1" /><polyline fill="none" points="133,438 133,441" stroke="#000000" stroke-width="1" /><line stroke="#009900" stroke-width="1" x1="165" x2="168" y1="351" y2="353" /><line stroke="#009900" stroke-width="1" x1="162.847858188" x2="165.847858188" y1="354.371688838" y2="356.371688838" /><line stroke="#009900" stroke-width="1" x1="160.695716377" x2="163.695716377" y1="357.743377677" y2="359.743377677" /><line stroke="#009900" stroke-width="1" x1="158.543574565" x2="161.543574565" y1="361.115066515" y2="363.115066515" /><line stroke="#009900" stroke-width="1" x1="156.391432753" x2="159.391432753" y1="364.486755353" y2="366.486755353" /><line stroke="#009900" stroke-width="1" x1="154.239290942" x2="157.239290942" y1="367.858444192" y2="369.858444192" /><line stroke="#009900" stroke-width="1" x1="152.08714913" x2="155.08714913" y1="371.23013303" y2="373.23013303" /><line stroke="#009900" stroke-width="1" x1="149.935007318" x2="152.935007318" y1="374.601821868" y2="376.601821868" /><line stroke="#009900" stroke-width="1" x1="147.782865507" x2="150.782865507" y1="377.973510706" y2="379.973510706" /><line stroke="#009900" stroke-width="1" x1="145.630723695" x2="148.630723695" y1="381.345199545" y2="383.345199545" /><line stroke="#009900" stroke-width="1" x1="143.478581883" x2="146.478581883" y1="384.716888383" y2="386.716888383" /><line stroke="#009900" stroke-width="1" x1="141.326440071" x2="144.326440071" y1="388.088577221" y2="390.088577221" /><line stroke="#009900" stroke-width="1" x1="139.17429826" x2="142.17429826" y1="391.46026606" y2="393.46026606" /><line stroke="#009900" stroke-width="1" x1="137.022156448" x2="140.022156448" y1="394.831954898" y2="396.831954898" /><line stroke="#FF0000" stroke-width="1" x1="135" x2="131" y1="411" y2="411" /><line stroke="#FF0000" stroke-width="1" x1="135" x2="131" y1="415" y2="415" /><line stroke="#FF0000" stroke-width="1" x1="135" x2="131" y1="419" y2="419" /><line stroke="#FF0000" stroke-width="1" x1="135" x2="131" y1="423" y2="423" /><line stroke="#FF0000" stroke-width="1" x1="135" x2="131" y1="427" y2="427" /><line stroke="#FF0000" stroke-width="1" x1="135" x2="131" y1="431" y2="431" /><line stroke="#FF0000" stroke-width="1" x1="135" x2="131" y1="435" y2="435" /><line stroke="#FF0000" stroke-width="1" x1="135" x2="131" y1="439" y2="439" /><polygon fill="#34349C" points="168,347 164,347 164,348 168,348" stroke="#34349C" stroke-width="1" /><polygon fill="#FF0000" points="172,347 168,347 168,348 172,348" stroke="#FF0000" stroke-width="1" /><text fill="#00AFAF" font-family="Arial" font-size="15" stroke="none" stroke-width="0" x="742" y="67.0">ул.Новороссийская.</text><text fill="#00AFAF" font-family="Arial" font-size="15" stroke="none" stroke-width="0" x="-82" y="396.0">ул.Совхозная</text><text fill="#00AFAF" font-family="Arial" font-size="15" stroke="none" stroke-width="0" transform="rotate(90.0,932,606)" x="932" y="621.0">Продуктовый рынок</text><text fill="#00AFAF" font-family="Arial" font-size="15" stroke="none" stroke-width="0" x="704" y="913.0">ул.Белореченская</text><text fill="#00AFAF" font-family="Arial" font-size="15" stroke="none" stroke-width="0" transform="rotate(90.0,963,654)" x="963" y="669.0">'ТЦ "Москва" &gt;&gt;'</text><text fill="#00AFAF" font-family="Arial" font-size="15" stroke="none" stroke-width="0" transform="rotate(90.0,986,654)" x="986" y="669.0">'строительный рынок "Люблинское поле" &gt;&gt;'</text><text fill="#00AFAF" font-family="Arial" font-size="15" stroke="none" stroke-width="0" x="903" y="380.0">ул.Совхозная</text><text fill="#00AFAF" font-family="Arial" font-size="15" stroke="none" stroke-width="0" transform="rotate(90.0,858,85)" x="858" y="100.0">ул.Краснодарская</text><text fill="#00AFAF" font-family="Arial" font-size="15" stroke="none" stroke-width="0" transform="rotate(90.0,859,575)" x="859" y="590.0">ул.Краснодарская</text><polyline fill="none" marker-end="url(#id84)" points="759,339 775,339" stroke="#FF0000" stroke-width="1" /><polyline fill="none" marker-end="url(#id84)" points="159,421 143,421" stroke="#FF0000" stroke-width="1" /><polyline fill="none" marker-end="url(#id84)" points="792,397 779,388" stroke="#009900" stroke-width="1" /><polyline fill="none" marker-end="url(#id84)" points="130,354 142,362" stroke="#009900" stroke-width="1" /><polyline fill="none" points="1096,608 1064,520" stroke="#000000" stroke-width="1" /><polyline fill="none" marker-end="url(#id84)" points="1064,520 1023,495" stroke="#000000" stroke-width="1" /><text fill="#000000" font-family="Arial" font-size="12" stroke="none" stroke-width="0" transform="rotate(70.0,1079,525)" x="1079" y="537.0">нажмите мышью</text><text fill="#FFFFFF" font-family="Arial" font-size="20" stroke="none" stroke-width="0" transform="rotate(70.0,902,162)" x="902" y="182.0">A</text><text fill="#FFFFFF" font-family="Arial" font-size="20" stroke="none" stroke-width="0" transform="rotate(70.0,734,258)" x="734" y="278.0">A</text><text fill="#FFFFFF" font-family="Arial" font-size="20" stroke="none" stroke-width="0" transform="rotate(70.0,-91,275)" x="-91" y="295.0">A</text><text fill="#FFFFFF" font-family="Arial" font-size="20" stroke="none" stroke-width="0" transform="rotate(70.0,806,580)" x="806" y="600.0">A</text><text fill="#FFFFFF" font-family="Arial" font-size="20" stroke="none" stroke-width="0" transform="rotate(70.0,1014,475)" x="1014" y="495.0">A</text><text fill="#FFFFFF" font-family="Arial" font-size="20" stroke="none" stroke-width="0" transform="rotate(70.0,954,280)" x="954" y="300.0">A</text></g></svg>