<svg xmlns="http://www.w3.org/2000/svg" version="1.1">
<defs>
    <marker id="arrow"
      viewBox="0 0 10 10" refX="0" refY="5"
      markerUnits="strokeWidth"
      markerWidth="4" markerHeight="3"
      orient="auto">
      <path d="M 0 0 L 10 5 L 0 10 z" />
    </marker>
  </defs>
<g stroke="#000000" fill="none" stroke-opacity="1.0" fill-opacity="1.0" transform="scale(0.5)">
<rect x="0" y="0" width="320" height="880" stroke-width="0" fill="none" />
<g stroke="#000000" fill="none" stroke-opacity="1.0" fill-opacity="1.0" transform="scale(0.5)">
</g>
<g transform="rotate(-90.0 160 440)" >
<g stroke="#000000" fill="none" stroke-opacity="1.0" fill-opacity="1.0" transform="scale(0.5)">
</g>
<g stroke="#000000" fill="#FC9C54" stroke-opacity="1.0" fill-opacity="1.0" transform="scale(0.5)">
<polygon points="-90,461  -90,431  360,431  360,461" stroke-width="1" />
<polygon points="360,351  360,321  -90,321  -90,351" stroke-width="1" />
</g>
<g stroke="#F7782E" fill="none" stroke-opacity="1.0" fill-opacity="1.0" transform="scale(0.5)">
<text x=" 58" y="392.0" font-family="Arial" font-size=" 25" fill="#F7782E" stroke-width="0">Медведково</text>
<text x=" -87" y="318.0" font-family="Arial" font-size=" 20" fill="#F7782E" stroke-width="0">&lt;&lt; Бабушкинская</text>
<text x=" 237" y="481.0" font-family="Arial" font-size=" 20" fill="#F7782E" stroke-width="0">посадки нет &gt;&gt;</text>
</g>
<g stroke="#000000" fill="none" stroke-opacity="1.0" fill-opacity="1.0" transform="scale(0.5)">
<polyline points="-255,331  -259,331  -259,294  -124,294  -124,361" stroke-width="1" fill="none"  />
<polyline points="-140,361  -90,361  -90,351" stroke-width="1" fill="none"  />
<polyline points="-255,419  -259,419  -259,449  -124,449  -124,421" stroke-width="1" fill="none"  />
<polyline points="-140,421  -90,421  -90,431" stroke-width="1" fill="none"  />
<polyline points="-255,391  -259,391  -259,359  -255,359" stroke-width="1" fill="none"  />
<line x1="-138" y1="361" x2="-138" y2="421" stroke-width="1" />
<line x1="-134" y1="361" x2="-134" y2="421" stroke-width="1" />
<line x1="-130" y1="361" x2="-130" y2="421" stroke-width="1" />
<line x1="-126" y1="361" x2="-126" y2="421" stroke-width="1" />
<line x1="-122" y1="361" x2="-122" y2="421" stroke-width="1" />
<line x1="-118" y1="361" x2="-118" y2="421" stroke-width="1" />
<line x1="-114" y1="361" x2="-114" y2="421" stroke-width="1" />
<line x1="-110" y1="361" x2="-110" y2="421" stroke-width="1" />
<line x1="-106" y1="361" x2="-106" y2="421" stroke-width="1" />
<line x1="-102" y1="361" x2="-102" y2="421" stroke-width="1" />
<line x1="-98" y1="361" x2="-98" y2="421" stroke-width="1" />
<line x1="-94" y1="361" x2="-94" y2="421" stroke-width="1" />
</g>
<g stroke="#000000" fill="none" stroke-opacity="1.0" fill-opacity="1.0" transform="scale(0.5)">
<polyline points="-124,304  -109,304  -109,336  -124,336" stroke-width="1" fill="none"  />
<text x=" -110" y="318.0" font-family="Arial" font-size=" 10" fill="#000000" transform="rotate(90.0  -110  308)" stroke-width="0">кассы</text>
<polyline points="-229,420  -253,420" stroke-width=" 0.5" fill="none"  />
<polygon points="-229,376  -227,381  -222,379  -224,374" stroke-width="1" />
<polyline points="-124,359  -163,359" stroke-width=" 0.5" fill="none"  />
</g>
<g stroke="#009900" fill="none" stroke-opacity="1.0" fill-opacity="1.0" transform="scale(0.5)">
<line x1="-219" y1="378" x2="-220" y2="373" stroke-width="1" />
<line x1="-215.148846441" y1="376.918974439" x2="-216.148846441" y2="371.918974439" stroke-width="1" />
<line x1="-211.297692881" y1="375.837948879" x2="-212.297692881" y2="370.837948879" stroke-width="1" />
<line x1="-207.446539322" y1="374.756923318" x2="-208.446539322" y2="369.756923318" stroke-width="1" />
<line x1="-203.595385763" y1="373.675897758" x2="-204.595385763" y2="368.675897758" stroke-width="1" />
<line x1="-199.744232203" y1="372.594872197" x2="-200.744232203" y2="367.594872197" stroke-width="1" />
<line x1="-195.893078644" y1="371.513846637" x2="-196.893078644" y2="366.513846637" stroke-width="1" />
<line x1="-192.041925085" y1="370.432821076" x2="-193.041925085" y2="365.432821076" stroke-width="1" />
<line x1="-188.190771525" y1="369.351795516" x2="-189.190771525" y2="364.351795516" stroke-width="1" />
<line x1="-184.339617966" y1="368.270769955" x2="-185.339617966" y2="363.270769955" stroke-width="1" />
<line x1="-180.488464407" y1="367.189744395" x2="-181.488464407" y2="362.189744395" stroke-width="1" />
<line x1="-176.637310847" y1="366.108718834" x2="-177.637310847" y2="361.108718834" stroke-width="1" />
<line x1="-172.786157288" y1="365.027693274" x2="-173.786157288" y2="360.027693274" stroke-width="1" />
<line x1="-168.935003729" y1="363.946667713" x2="-169.935003729" y2="358.946667713" stroke-width="1" />
<line x1="-165.083850169" y1="362.865642153" x2="-166.083850169" y2="357.865642153" stroke-width="1" />
</g>
<g stroke="#FF0000" fill="none" stroke-opacity="1.0" fill-opacity="1.0" transform="scale(0.5)">
<line x1="-227" y1="384" x2="-232" y2="384" stroke-width="1" />
<line x1="-227" y1="388" x2="-232" y2="388" stroke-width="1" />
<line x1="-227" y1="392" x2="-232" y2="392" stroke-width="1" />
<line x1="-227" y1="396" x2="-232" y2="396" stroke-width="1" />
<line x1="-227" y1="400" x2="-232" y2="400" stroke-width="1" />
<line x1="-227" y1="404" x2="-232" y2="404" stroke-width="1" />
<line x1="-227" y1="408" x2="-232" y2="408" stroke-width="1" />
<line x1="-227" y1="412" x2="-232" y2="412" stroke-width="1" />
<line x1="-227" y1="416" x2="-232" y2="416" stroke-width="1" />
</g>
<g stroke="#000000" fill="none" stroke-opacity="1.0" fill-opacity="1.0" transform="scale(0.5)">
<polyline points="433,355  429,355  429,368  360,368  360,351" stroke-width="1" fill="none"  />
<polyline points="433,327  429,327  429,321  571,321  571,452  519,452  519,447" stroke-width="1" fill="none"  />
<polyline points="489,448  489,452  429,452  429,414  360,414  360,431" stroke-width="1" fill="none"  />
</g>
<g stroke="#7F7F7F" fill="none" stroke-opacity="1.0" fill-opacity="1.0" transform="scale(0.5)">
<line x1="440" y1="371" x2="440" y2="412" stroke-width="1" />
<line x1="436" y1="371" x2="436" y2="412" stroke-width="1" />
<line x1="432" y1="371" x2="432" y2="412" stroke-width="1" />
<line x1="428" y1="371" x2="428" y2="412" stroke-width="1" />
<line x1="424" y1="371" x2="424" y2="412" stroke-width="1" />
<line x1="420" y1="371" x2="420" y2="412" stroke-width="1" />
<line x1="416" y1="371" x2="416" y2="412" stroke-width="1" />
<line x1="412" y1="371" x2="412" y2="412" stroke-width="1" />
<line x1="408" y1="371" x2="408" y2="412" stroke-width="1" />
<line x1="404" y1="371" x2="404" y2="412" stroke-width="1" />
<line x1="400" y1="371" x2="400" y2="412" stroke-width="1" />
<line x1="396" y1="371" x2="396" y2="412" stroke-width="1" />
<line x1="392" y1="371" x2="392" y2="412" stroke-width="1" />
<line x1="388" y1="371" x2="388" y2="412" stroke-width="1" />
<line x1="384" y1="371" x2="384" y2="412" stroke-width="1" />
<line x1="380" y1="371" x2="380" y2="412" stroke-width="1" />
<line x1="376" y1="371" x2="376" y2="412" stroke-width="1" />
<line x1="372" y1="371" x2="372" y2="412" stroke-width="1" />
<line x1="368" y1="371" x2="368" y2="412" stroke-width="1" />
<line x1="364" y1="371" x2="364" y2="412" stroke-width="1" />
</g>
<g stroke="#000000" fill="#9B5509" stroke-opacity="1.0" fill-opacity="1.0" transform="scale(0.5)">
<polygon points="361,381  443,381  443,386  361,386" stroke-width="1" />
<polygon points="361,396  443,396  443,401  361,401" stroke-width="1" />
<polygon points="361,368  443,368  443,371  361,371" stroke-width="1" />
<polygon points="361,411  443,411  443,414  361,414" stroke-width="1" />
</g>
<g stroke="#000000" fill="none" stroke-opacity="1.0" fill-opacity="1.0" transform="scale(0.5)">
<polyline points="571,327  586,327  586,363  571,363" stroke-width="1" fill="none"  />
<text x=" 584" y="343.0" font-family="Arial" font-size=" 10" fill="#000000" transform="rotate(90.0  584  333)" stroke-width="0">кассы</text>
</g>
<g stroke="#000000" fill="none" stroke-opacity="1.0" fill-opacity="1.0" transform="scale(0.5)">
<polyline points="444,366  466,366" stroke-width=" 0.5" fill="none"  />
<polygon points="473,371  468,370  469,365  474,366" stroke-width="1" />
<polyline points="526,397  530,377" stroke-width=" 0.5" fill="none"  />
<polyline points="445,397  526,397" stroke-width=" 0.5" fill="none"  />
</g>
<g stroke="#009900" fill="none" stroke-opacity="1.0" fill-opacity="1.0" transform="scale(0.5)">
<line x1="529" y1="374" x2="528" y2="379" stroke-width="1" />
<line x1="525.044803653" y1="373.402989231" x2="524.044803653" y2="378.402989231" stroke-width="1" />
<line x1="521.089607307" y1="372.805978461" x2="520.089607307" y2="377.805978461" stroke-width="1" />
<line x1="517.13441096" y1="372.208967692" x2="516.13441096" y2="377.208967692" stroke-width="1" />
<line x1="513.179214613" y1="371.611956923" x2="512.179214613" y2="376.611956923" stroke-width="1" />
<line x1="509.224018266" y1="371.014946153" x2="508.224018266" y2="376.014946153" stroke-width="1" />
<line x1="505.26882192" y1="370.417935384" x2="504.26882192" y2="375.417935384" stroke-width="1" />
<line x1="501.313625573" y1="369.820924615" x2="500.313625573" y2="374.820924615" stroke-width="1" />
<line x1="497.358429226" y1="369.223913845" x2="496.358429226" y2="374.223913845" stroke-width="1" />
<line x1="493.403232879" y1="368.626903076" x2="492.403232879" y2="373.626903076" stroke-width="1" />
<line x1="489.448036533" y1="368.029892307" x2="488.448036533" y2="373.029892307" stroke-width="1" />
<line x1="485.492840186" y1="367.432881537" x2="484.492840186" y2="372.432881537" stroke-width="1" />
<line x1="481.537643839" y1="366.835870768" x2="480.537643839" y2="371.835870768" stroke-width="1" />
<line x1="477.582447492" y1="366.238859999" x2="476.582447492" y2="371.238859999" stroke-width="1" />
</g>
<g stroke="#FF0000" fill="none" stroke-opacity="1.0" fill-opacity="1.0" transform="scale(0.5)">
<polyline points="504,438  504,454" marker-end="url(#arrow)" stroke-width="1" fill="none" />
<polyline points="-201,406  -213,406" marker-end="url(#arrow)" stroke-width="1" fill="none" />
<polyline points="431,406  442,406" marker-end="url(#arrow)" stroke-width="1" fill="none" />
</g>
<g stroke="#009900" fill="none" stroke-opacity="1.0" fill-opacity="1.0" transform="scale(0.5)">
<polyline points="425,341  440,341" marker-end="url(#arrow)" stroke-width="1" fill="none" />
<polyline points="-200,344  -197,357" marker-end="url(#arrow)" stroke-width="1" fill="none" />
<polyline points="443,376  431,376" marker-end="url(#arrow)" stroke-width="1" fill="none" />
<polyline points="504,349  501,363" marker-end="url(#arrow)" stroke-width="1" fill="none" />
<polyline points="-263,345  -249,345" marker-end="url(#arrow)" stroke-width="1" fill="none" />
</g>
<g stroke="#34349C" fill="#34349C" stroke-opacity="1.0" fill-opacity="1.0" transform="scale(0.5)">
<polygon points="566,385  566,390  568,390  568,385" stroke-width="1" />
<polygon points="120,402  120,397  118,397  118,402" stroke-width="1" />
<polygon points="-199,444  -204,444  -204,446  -199,446" stroke-width="1" />
</g>
<g stroke="#FF0000" fill="#FF0000" stroke-opacity="1.0" fill-opacity="1.0" transform="scale(0.5)">
<polygon points="566,380  566,385  568,385  568,380" stroke-width="1" />
<polygon points="120,407  120,402  118,402  118,407" stroke-width="1" />
<polygon points="-194,444  -199,444  -199,446  -194,446" stroke-width="1" />
</g>
<g stroke="#00AFAF" fill="none" stroke-opacity="1.0" fill-opacity="1.0" transform="scale(0.5)">
<text x=" 67" y="536.0" font-family="Arial" font-size=" 15" fill="#00AFAF" stroke-width="0">улица Грекова</text>
<text x=" 294" y="511.0" font-family="Arial" font-size=" 15" fill="#00AFAF" transform="rotate(90.0  294  496)" stroke-width="0">Широкая улица</text>
</g>
</g>
</g>
</svg>
