<?xml version="1.0" encoding="utf-8" ?>
<svg baseProfile="full" height="100%" version="1.1" width="100%" xmlns="http://www.w3.org/2000/svg" xmlns:ev="http://www.w3.org/2001/xml-events" xmlns:xlink="http://www.w3.org/1999/xlink"><defs><marker id="id134" markerHeight="3" markerUnits="strokeWidth" markerWidth="4" orient="auto" refX="0" refY="5" viewBox="0,0,10,10"><path d="M 0 0 L 10 5 L 0 10 z" /></marker></defs><g transform="scale(0.5)"><rect fill="none" height="1220" stroke="none" width="1050" x="0" y="0" /><polyline fill="none" points="677,678 696,649 712,638 741,635 787,628 817,621 852,601 864,588 866,580 862,559 850,542 827,522 816,494 814,458 823,432 830,419 827,400 817,391 798,380 788,368 789,350 791,331 783,308 771,296 753,281 746,267 738,246 719,227 690,215 665,203 654,185 659,170 679,157 698,146 713,133 730,114 739,95" stroke="#B4E3EB" stroke-width="5" /><polyline fill="none" points="921,987 871,987 820,993 779,1001 750,987 750,958 774,941 780,916 768,893 740,888 697,894 667,905 645,907 630,900 621,881 623,860 645,841 683,827 703,809 715,785 718,746 702,708 680,679 641,647 611,630 578,620 554,621 534,626 514,636 494,651 466,683 448,711 419,753 398,779 371,802 341,819 303,821 274,792 275,759 289,741 322,713 355,685 369,663 377,634 371,610 353,597 307,599 271,601 249,595 233,569 236,535 233,518 215,505 190,499 172,484 158,451 150,410 136,383 109,362 84,358 57,358 17,361" stroke="#B4E3EB" stroke-width="20" /><polyline fill="none" points="707,798 706,767 693,739 667,704 639,679 604,659 564,651 534,652 503,660 480,672" stroke="#B4E3EB" stroke-width="13" /><text fill="#040464" font-family="Arial" font-size="34" stroke="none" x="126" y="33.0">СХЕМА ЛИНИЙ СКОРОСТНОГО ТРАНСПОРТА МОСКВЫ</text><text fill="#040464" font-family="Arial" font-size="13" stroke="none" x="45" y="963.0">ЛИНИИ МОСКОВСКОГО МЕТРОПОЛИТЕНА</text><text fill="#E41C0C" font-family="Arial" font-size="16" stroke="none" x="99" y="983.0">Сокольническая</text><text fill="#046434" font-family="Arial" font-size="16" stroke="none" x="99" y="1001.0">Замоскворецкая</text><text fill="#34349C" font-family="Arial" font-size="16" stroke="none" x="99" y="1019.0">Арбатско-Покровская</text><text fill="#1C54BC" font-family="Arial" font-size="16" stroke="none" x="99" y="1037.0">Филевская</text><text fill="#543C04" font-family="Arial" font-size="16" stroke="none" x="99" y="1055.0">Кольцевая</text><text fill="#F7782E" font-family="Arial" font-size="16" stroke="none" x="99" y="1073.0">Калужско-Рижская</text><text fill="#AC24AC" font-family="Arial" font-size="16" stroke="none" x="99" y="1091.0">Таганско-Краснопресненская</text><text fill="#F49E01" font-family="Arial" font-size="16" stroke="none" x="99" y="1109.0">Калининская</text><text fill="#4C4C4C" font-family="Arial" font-size="16" stroke="none" x="99" y="1127.0">Серпуховско-Тимирязевская</text><text fill="#5C9F2E" font-family="Arial" font-size="16" stroke="none" x="99" y="1145.0">Люблинско-Дмитровская</text><text fill="#34649C" font-family="Arial" font-size="16" stroke="none" x="99" y="1163.0">Каховская</text><text fill="#2D69FC" font-family="Arial" font-size="16" stroke="none" x="99" y="1181.0">Бутовская</text><text fill="#84ACBC" font-family="Arial" font-size="16" stroke="none" x="99" y="1207.0">Монорельс</text><text fill="#040464" font-family="Arial" font-size="15" stroke="none" x="827" y="52.0">Схема движения электропоездов</text><text fill="#040464" font-family="Arial" font-size="15" stroke="none" x="827" y="77.0">Схема движения речных трамваев</text><text fill="#505050" font-family="Arial" font-size="20" stroke="none" x="802" y="248.0">1</text><text fill="#505050" font-family="Arial" font-size="20" stroke="none" x="191" y="936.0">1</text><text fill="#505050" font-family="Arial" font-size="20" stroke="none" x="324" y="183.0">2</text><text fill="#505050" font-family="Arial" font-size="20" stroke="none" x="835" y="1125.0">2</text><text fill="#505050" font-family="Arial" font-size="20" stroke="none" x="920" y="380.0">3</text><text fill="#505050" font-family="Arial" font-size="20" stroke="none" x="97" y="230.0">3</text><text fill="#505050" font-family="Arial" font-size="20" stroke="none" x="504" y="573.0">4</text><text fill="#505050" font-family="Arial" font-size="20" stroke="none" x="279" y="555.0">4</text><text fill="#505050" font-family="Arial" font-size="20" stroke="none" x="124" y="541.0">4</text><text fill="#505050" font-family="Arial" font-size="20" stroke="none" x="772" y="499.0">5</text><text fill="#505050" font-family="Arial" font-size="20" stroke="none" x="333" y="449.0">5</text><text fill="#505050" font-family="Arial" font-size="20" stroke="none" x="436" y="774.0">5</text><text fill="#505050" font-family="Arial" font-size="20" stroke="none" x="710" y="110.0">6</text><text fill="#505050" font-family="Arial" font-size="20" stroke="none" x="401" y="1075.0">6</text><text fill="#505050" font-family="Arial" font-size="20" stroke="none" x="992" y="952.0">7</text><text fill="#505050" font-family="Arial" font-size="20" stroke="none" x="226" y="203.0">7</text><text fill="#505050" font-family="Arial" font-size="20" stroke="none" x="1001" y="608.0">8</text><text fill="#505050" font-family="Arial" font-size="20" stroke="none" x="466" y="92.0">9</text><text fill="#505050" font-family="Arial" font-size="20" stroke="none" x="535" y="1151.0">9</text><text fill="#505050" font-family="Arial" font-size="20" stroke="none" x="819" y="1081.0">10</text><text fill="#505050" font-family="Arial" font-size="20" stroke="none" x="572" y="265.0">10</text><text fill="#505050" font-family="Arial" font-size="20" stroke="none" x="673" y="979.0">11</text><text fill="#505050" font-family="Arial" font-size="20" stroke="none" x="529" y="1188.0">Л1</text><text fill="#505050" font-family="Arial" font-size="20" stroke="none" x="723" y="248.0">М1</text><text fill="#505050" font-family="Arial" font-size="20" stroke="none" x="481" y="265.0">М1</text></g></svg>