<?xml version="1.0" encoding="utf-8" ?>
<svg baseProfile="full" height="1060.0" version="1.1" width="1200.0" xmlns="http://www.w3.org/2000/svg" xmlns:ev="http://www.w3.org/2001/xml-events" xmlns:xlink="http://www.w3.org/1999/xlink">
  <defs>
    <marker id="id240" markerHeight="3" markerUnits="strokeWidth" markerWidth="4" orient="auto" refX="0" refY="5" viewBox="0,0,10,10">
      <path d="M 0 0 L 10 5 L 0 10 z"/>
    </marker>
  </defs>
  <g>
    <rect fill="none" height="1060.0" stroke="none" stroke-width="0" width="1200.0" x="0.0" y="0.0"/>
    <g transform="rotate(36.0,600.0,530.0)">
      <polygon fill="#34349c" points="522.0,459.0 522.0,429.0 972.0,429.0 972.0,459.0" stroke="#000000" stroke-width="1"/>
      <polygon fill="#34349c" points="522.0,569.0 522.0,539.0 972.0,539.0 972.0,569.0" stroke="#000000" stroke-width="1"/>
      <text fill="#34349c" font-family="Arial" font-size="20.0" stroke="none" stroke-width="0" x="526.0" y="426.0">&lt;&lt; Пятницкое шоссе</text>
      <text fill="#34349c" font-family="Arial" font-size="20.0" stroke="none" stroke-width="0" x="810.0" y="590.0">Волоколамская &gt;&gt;</text>
      <text fill="#34349c" font-family="Arial" font-size="25.0" stroke="none" stroke-width="0" x="714.0" y="500.0">Митино</text>
      <polyline fill="none" points="522.0,459.0 522.0,472.0 556.0,472.0 556.0,475.0 506.0,475.0" stroke="#000000" stroke-width="1"/>
      <polyline fill="none" points="522.0,539.0 522.0,521.0 556.0,521.0 556.0,518.0 507.0,518.0" stroke="#000000" stroke-width="1"/>
      <polyline fill="none" points="515.0,475.0 515.0,436.0 392.0,436.0 392.0,431.0 437.0,431.0" stroke="#000000" stroke-width="1"/>
      <polyline fill="none" points="437.0,414.0 435.0,414.0 435.0,408.0 476.0,408.0" stroke="#000000" stroke-width="1"/>
      <polyline fill="none" points="476.0,377.0 429.0,377.0 429.0,297.0" stroke="#000000" stroke-width="1"/>
      <polyline fill="none" points="383.0,313.0 383.0,240.0" stroke="#000000" stroke-width="1"/>
      <polyline fill="none" points="354.0,240.0 354.0,276.0 66.0,276.0" stroke="#000000" stroke-width="1"/>
      <polyline fill="none" points="411.0,297.0 411.0,305.0 383.0,305.0" stroke="#000000" stroke-width="1"/>
      <polyline fill="none" points="66.0,299.0 354.0,299.0 354.0,436.0" stroke="#000000" stroke-width="1"/>
      <path d="M354.0,436.0 C354.0,436.0 358.5,429.5 354.0,436.0 C349.5,442.5 331.5,460.1666666666667 327.0,475.0 C322.5,489.8333333333333 322.5,510.1666666666667 327.0,525.0 C331.5,539.8333333333334 354.0,564.0 354.0,564.0 " fill="none" stroke="#000000" stroke-width="1"/>
      <polyline fill="none" points="354.0,564.0 339.0,681.0 282.0,681.0 282.0,745.0 60.0,745.0" stroke="#000000" stroke-width="1"/>
      <polyline fill="none" points="60.0,772.0 107.0,772.0 107.0,819.0" stroke="#000000" stroke-width="1"/>
      <polyline fill="none" points="134.0,819.0 134.0,772.0 282.0,772.0 282.0,820.0" stroke="#000000" stroke-width="1"/>
      <polyline fill="none" points="313.0,820.0 313.0,772.0 410.0,772.0" stroke="#000000" stroke-width="1"/>
      <polyline fill="none" points="410.0,745.0 368.0,745.0 394.0,565.0 515.0,565.0 515.0,537.0" stroke="#000000" stroke-width="1"/>
      <line stroke="#000000" stroke-width="1" x1="354.0" x2="383.0" y1="242.0" y2="242.0"/>
      <line stroke="#000000" stroke-width="1" x1="354.0" x2="383.0" y1="246.0" y2="246.0"/>
      <line stroke="#000000" stroke-width="1" x1="354.0" x2="383.0" y1="250.0" y2="250.0"/>
      <line stroke="#000000" stroke-width="1" x1="354.0" x2="383.0" y1="254.0" y2="254.0"/>
      <line stroke="#000000" stroke-width="1" x1="354.0" x2="383.0" y1="258.0" y2="258.0"/>
      <line stroke="#000000" stroke-width="1" x1="354.0" x2="383.0" y1="262.0" y2="262.0"/>
      <line stroke="#000000" stroke-width="1" x1="354.0" x2="383.0" y1="266.0" y2="266.0"/>
      <line stroke="#000000" stroke-width="1" x1="354.0" x2="383.0" y1="270.0" y2="270.0"/>
      <line stroke="#000000" stroke-width="1" x1="354.0" x2="383.0" y1="274.0" y2="274.0"/>
      <line stroke="#000000" stroke-width="1" x1="68.0" x2="68.0" y1="276.0" y2="299.0"/>
      <line stroke="#000000" stroke-width="1" x1="72.0" x2="72.0" y1="276.0" y2="299.0"/>
      <line stroke="#000000" stroke-width="1" x1="76.0" x2="76.0" y1="276.0" y2="299.0"/>
      <line stroke="#000000" stroke-width="1" x1="80.0" x2="80.0" y1="276.0" y2="299.0"/>
      <line stroke="#000000" stroke-width="1" x1="84.0" x2="84.0" y1="276.0" y2="299.0"/>
      <line stroke="#000000" stroke-width="1" x1="88.0" x2="88.0" y1="276.0" y2="299.0"/>
      <line stroke="#000000" stroke-width="1" x1="92.0" x2="92.0" y1="276.0" y2="299.0"/>
      <line stroke="#000000" stroke-width="1" x1="96.0" x2="96.0" y1="276.0" y2="299.0"/>
      <line stroke="#000000" stroke-width="1" x1="100.0" x2="100.0" y1="276.0" y2="299.0"/>
      <line stroke="#000000" stroke-width="1" x1="62.0" x2="62.0" y1="745.0" y2="772.0"/>
      <line stroke="#000000" stroke-width="1" x1="66.0" x2="66.0" y1="745.0" y2="772.0"/>
      <line stroke="#000000" stroke-width="1" x1="70.0" x2="70.0" y1="745.0" y2="772.0"/>
      <line stroke="#000000" stroke-width="1" x1="74.0" x2="74.0" y1="745.0" y2="772.0"/>
      <line stroke="#000000" stroke-width="1" x1="78.0" x2="78.0" y1="745.0" y2="772.0"/>
      <line stroke="#000000" stroke-width="1" x1="82.0" x2="82.0" y1="745.0" y2="772.0"/>
      <line stroke="#000000" stroke-width="1" x1="86.0" x2="86.0" y1="745.0" y2="772.0"/>
      <line stroke="#000000" stroke-width="1" x1="90.0" x2="90.0" y1="745.0" y2="772.0"/>
      <line stroke="#000000" stroke-width="1" x1="94.0" x2="94.0" y1="745.0" y2="772.0"/>
      <line stroke="#000000" stroke-width="1" x1="107.0" x2="134.0" y1="817.0" y2="817.0"/>
      <line stroke="#000000" stroke-width="1" x1="107.0" x2="134.0" y1="813.0" y2="813.0"/>
      <line stroke="#000000" stroke-width="1" x1="107.0" x2="134.0" y1="809.0" y2="809.0"/>
      <line stroke="#000000" stroke-width="1" x1="107.0" x2="134.0" y1="805.0" y2="805.0"/>
      <line stroke="#000000" stroke-width="1" x1="107.0" x2="134.0" y1="801.0" y2="801.0"/>
      <line stroke="#000000" stroke-width="1" x1="107.0" x2="134.0" y1="797.0" y2="797.0"/>
      <line stroke="#000000" stroke-width="1" x1="107.0" x2="134.0" y1="793.0" y2="793.0"/>
      <line stroke="#000000" stroke-width="1" x1="107.0" x2="134.0" y1="789.0" y2="789.0"/>
      <line stroke="#000000" stroke-width="1" x1="107.0" x2="134.0" y1="785.0" y2="785.0"/>
      <line stroke="#000000" stroke-width="1" x1="282.0" x2="313.0" y1="817.0" y2="817.0"/>
      <line stroke="#000000" stroke-width="1" x1="282.0" x2="313.0" y1="813.0" y2="813.0"/>
      <line stroke="#000000" stroke-width="1" x1="282.0" x2="313.0" y1="809.0" y2="809.0"/>
      <line stroke="#000000" stroke-width="1" x1="282.0" x2="313.0" y1="805.0" y2="805.0"/>
      <line stroke="#000000" stroke-width="1" x1="282.0" x2="313.0" y1="801.0" y2="801.0"/>
      <line stroke="#000000" stroke-width="1" x1="282.0" x2="313.0" y1="797.0" y2="797.0"/>
      <line stroke="#000000" stroke-width="1" x1="282.0" x2="313.0" y1="793.0" y2="793.0"/>
      <line stroke="#000000" stroke-width="1" x1="282.0" x2="313.0" y1="789.0" y2="789.0"/>
      <line stroke="#000000" stroke-width="1" x1="282.0" x2="313.0" y1="785.0" y2="785.0"/>
      <line stroke="#000000" stroke-width="1" x1="408.0" x2="408.0" y1="772.0" y2="745.0"/>
      <line stroke="#000000" stroke-width="1" x1="404.0" x2="404.0" y1="772.0" y2="745.0"/>
      <line stroke="#000000" stroke-width="1" x1="400.0" x2="400.0" y1="772.0" y2="745.0"/>
      <line stroke="#000000" stroke-width="1" x1="396.0" x2="396.0" y1="772.0" y2="745.0"/>
      <line stroke="#000000" stroke-width="1" x1="392.0" x2="392.0" y1="772.0" y2="745.0"/>
      <line stroke="#000000" stroke-width="1" x1="388.0" x2="388.0" y1="772.0" y2="745.0"/>
      <line stroke="#000000" stroke-width="1" x1="384.0" x2="384.0" y1="772.0" y2="745.0"/>
      <line stroke="#000000" stroke-width="1" x1="380.0" x2="380.0" y1="772.0" y2="745.0"/>
      <line stroke="#000000" stroke-width="1" x1="376.0" x2="376.0" y1="772.0" y2="745.0"/>
      <line stroke="#000000" stroke-width="1" x1="383.0" x2="354.0" y1="299.0" y2="299.0"/>
      <line stroke="#000000" stroke-width="1" x1="383.0" x2="354.0" y1="303.0" y2="303.0"/>
      <line stroke="#000000" stroke-width="1" x1="383.0" x2="354.0" y1="307.0" y2="307.0"/>
      <line stroke="#000000" stroke-width="1" x1="383.0" x2="354.0" y1="311.0" y2="311.0"/>
      <line stroke="#000000" stroke-width="1" x1="553.0" x2="553.0" y1="518.0" y2="475.0"/>
      <line stroke="#000000" stroke-width="1" x1="549.0" x2="549.0" y1="518.0" y2="475.0"/>
      <line stroke="#000000" stroke-width="1" x1="545.0" x2="545.0" y1="518.0" y2="475.0"/>
      <line stroke="#000000" stroke-width="1" x1="541.0" x2="541.0" y1="518.0" y2="475.0"/>
      <line stroke="#000000" stroke-width="1" x1="537.0" x2="537.0" y1="518.0" y2="475.0"/>
      <line stroke="#000000" stroke-width="1" x1="533.0" x2="533.0" y1="518.0" y2="475.0"/>
      <line stroke="#000000" stroke-width="1" x1="529.0" x2="529.0" y1="518.0" y2="475.0"/>
      <line stroke="#000000" stroke-width="1" x1="525.0" x2="525.0" y1="518.0" y2="475.0"/>
      <line stroke="#000000" stroke-width="1" x1="521.0" x2="521.0" y1="518.0" y2="475.0"/>
      <line stroke="#000000" stroke-width="1" x1="517.0" x2="517.0" y1="518.0" y2="475.0"/>
      <line stroke="#000000" stroke-width="1" x1="513.0" x2="513.0" y1="518.0" y2="475.0"/>
      <line stroke="#000000" stroke-width="1" x1="509.0" x2="509.0" y1="518.0" y2="475.0"/>
      <line stroke="#000000" stroke-width="1" x1="474.0" x2="474.0" y1="408.0" y2="377.0"/>
      <line stroke="#000000" stroke-width="1" x1="470.0" x2="470.0" y1="408.0" y2="377.0"/>
      <line stroke="#000000" stroke-width="1" x1="466.0" x2="466.0" y1="408.0" y2="377.0"/>
      <line stroke="#000000" stroke-width="1" x1="462.0" x2="462.0" y1="408.0" y2="377.0"/>
      <line stroke="#000000" stroke-width="1" x1="458.0" x2="458.0" y1="408.0" y2="377.0"/>
      <line stroke="#000000" stroke-width="1" x1="454.0" x2="454.0" y1="408.0" y2="377.0"/>
      <line stroke="#000000" stroke-width="1" x1="450.0" x2="450.0" y1="408.0" y2="377.0"/>
      <line stroke="#000000" stroke-width="1" x1="446.0" x2="446.0" y1="408.0" y2="377.0"/>
      <line stroke="#000000" stroke-width="1" x1="442.0" x2="442.0" y1="408.0" y2="377.0"/>
      <polygon fill="#d0d0d0" points="408.0,525.0 408.0,475.0 414.0,475.0 414.0,525.0" stroke="#000000" stroke-width="1"/>
      <polygon fill="#d0efff" points="411.0,280.0 429.0,280.0 429.0,297.0 411.0,297.0" stroke="#000000" stroke-width="1"/>
      <polygon fill="#d0efff" points="437.0,414.0 454.0,414.0 454.0,431.0 437.0,431.0" stroke="#000000" stroke-width="1"/>
      <polygon fill="#d0efff" points="334.0,754.0 315.0,754.0 315.0,772.0 334.0,772.0" stroke="#000000" stroke-width="1"/>
      <polygon fill="#d0efff" points="515.0,520.0 515.0,537.0 533.0,537.0 533.0,520.0" stroke="#000000" stroke-width="1"/>
      <text fill="#000000" font-family="Arial" font-size="7.0" stroke="none" stroke-width="0" transform="rotate(-90.0,416.0,296.0)" x="416.0" y="303.0">лифт</text>
      <text fill="#000000" font-family="Arial" font-size="7.0" stroke="none" stroke-width="0" transform="rotate(-90.0,320.0,770.0)" x="320.0" y="777.0">лифт</text>
      <text fill="#000000" font-family="Arial" font-size="7.0" stroke="none" stroke-width="0" transform="rotate(-90.0,520.0,536.0)" x="520.0" y="543.0">лифт</text>
      <text fill="#000000" font-family="Arial" font-size="7.0" stroke="none" stroke-width="0" transform="rotate(-90.0,441.0,430.0)" x="441.0" y="437.0">лифт</text>
      <polyline fill="none" points="408.0,525.0 394.0,525.0" stroke="#000000" stroke-width="1"/>
      <polyline fill="none" points="408.0,475.0 394.0,475.0" stroke="#000000" stroke-width="1"/>
      <path d="M394.0,475.0 C394.0,475.0 393.5,472.3333333333333 394.0,475.0 C394.5,477.6666666666667 396.5,485.3333333333333 397.0,491.0 C397.5,496.6666666666667 397.5,503.3333333333333 397.0,509.0 C396.5,514.6666666666666 394.0,525.0 394.0,525.0 " fill="none" stroke="#000000" stroke-width="1"/>
      <text fill="#000000" font-family="Arial" font-size="10.0" stroke="none" stroke-width="0" transform="rotate(-90.0,396.0,514.0)" x="396.0" y="524.0">кассы</text>
      <polygon fill="none" points="450.0,481.0 443.0,481.0 443.0,488.0 450.0,488.0" stroke="#000000" stroke-width="1"/>
      <line stroke="#009900" stroke-width="1" x1="449.0" x2="444.0" y1="561.0" y2="561.0"/>
      <line stroke="#009900" stroke-width="1" x1="449.0" x2="444.0" y1="557.0" y2="557.0"/>
      <line stroke="#009900" stroke-width="1" x1="449.0" x2="444.0" y1="553.0" y2="553.0"/>
      <line stroke="#009900" stroke-width="1" x1="449.0" x2="444.0" y1="549.0" y2="549.0"/>
      <line stroke="#009900" stroke-width="1" x1="449.0" x2="444.0" y1="545.0" y2="545.0"/>
      <line stroke="#009900" stroke-width="1" x1="449.0" x2="444.0" y1="541.0" y2="541.0"/>
      <line stroke="#009900" stroke-width="1" x1="449.0" x2="444.0" y1="537.0" y2="537.0"/>
      <line stroke="#009900" stroke-width="1" x1="449.0" x2="444.0" y1="533.0" y2="533.0"/>
      <line stroke="#009900" stroke-width="1" x1="449.0" x2="444.0" y1="529.0" y2="529.0"/>
      <line stroke="#009900" stroke-width="1" x1="449.0" x2="444.0" y1="525.0" y2="525.0"/>
      <line stroke="#009900" stroke-width="1" x1="449.0" x2="444.0" y1="521.0" y2="521.0"/>
      <line stroke="#009900" stroke-width="1" x1="449.0" x2="444.0" y1="517.0" y2="517.0"/>
      <line stroke="#009900" stroke-width="1" x1="449.0" x2="444.0" y1="513.0" y2="513.0"/>
      <line stroke="#009900" stroke-width="1" x1="449.0" x2="444.0" y1="509.0" y2="509.0"/>
      <line stroke="#009900" stroke-width="1" x1="449.0" x2="444.0" y1="505.0" y2="505.0"/>
      <line stroke="#009900" stroke-width="1" x1="449.0" x2="444.0" y1="501.0" y2="501.0"/>
      <line stroke="#009900" stroke-width="1" x1="449.0" x2="444.0" y1="497.0" y2="497.0"/>
      <line stroke="#009900" stroke-width="1" x1="449.0" x2="444.0" y1="493.0" y2="493.0"/>
      <line stroke="#ff0000" stroke-width="1" x1="449.0" x2="444.0" y1="440.0" y2="440.0"/>
      <line stroke="#ff0000" stroke-width="1" x1="449.0" x2="444.0" y1="444.0" y2="444.0"/>
      <line stroke="#ff0000" stroke-width="1" x1="449.0" x2="444.0" y1="448.0" y2="448.0"/>
      <line stroke="#ff0000" stroke-width="1" x1="449.0" x2="444.0" y1="452.0" y2="452.0"/>
      <line stroke="#ff0000" stroke-width="1" x1="449.0" x2="444.0" y1="456.0" y2="456.0"/>
      <line stroke="#ff0000" stroke-width="1" x1="449.0" x2="444.0" y1="460.0" y2="460.0"/>
      <line stroke="#ff0000" stroke-width="1" x1="449.0" x2="444.0" y1="464.0" y2="464.0"/>
      <line stroke="#ff0000" stroke-width="1" x1="449.0" x2="444.0" y1="468.0" y2="468.0"/>
      <line stroke="#ff0000" stroke-width="1" x1="449.0" x2="444.0" y1="472.0" y2="472.0"/>
      <line stroke="#ff0000" stroke-width="1" x1="449.0" x2="444.0" y1="476.0" y2="476.0"/>
      <polyline fill="none" marker-end="url(#id240)" points="418.0,456.0 401.0,456.0" stroke="#ff0000" stroke-width="1"/>
      <polyline fill="none" marker-end="url(#id240)" points="402.0,543.0 418.0,543.0" stroke="#009900" stroke-width="1"/>
      <polyline fill="none" marker-end="url(#id240)" points="420.0,311.0 420.0,300.0" stroke="#000000" stroke-width="1"/>
      <polyline fill="none" marker-end="url(#id240)" points="347.0,763.0 336.0,763.0" stroke="#000000" stroke-width="1"/>
      <polyline fill="none" points="972.0,539.0 972.0,523.0 939.0,523.0 939.0,520.0 987.0,520.0" stroke="#000000" stroke-width="1"/>
      <polyline fill="none" points="972.0,459.0 972.0,476.0 939.0,476.0 939.0,479.0 987.0,479.0" stroke="#000000" stroke-width="1"/>
      <polyline fill="none" points="979.0,479.0 979.0,436.0 1095.0,436.0 1095.0,298.0 873.0,298.0" stroke="#000000" stroke-width="1"/>
      <polyline fill="none" points="873.0,273.0 1125.0,273.0 1125.0,436.0 1147.0,436.0 1147.0,565.0 1125.0,565.0 1125.0,731.0 1162.0,731.0" stroke="#000000" stroke-width="1"/>
      <polyline fill="none" points="1162.0,753.0 1059.0,753.0" stroke="#000000" stroke-width="1"/>
      <polyline fill="none" points="1059.0,731.0 1095.0,731.0 1095.0,706.0 1076.0,706.0 1076.0,595.0 1095.0,595.0 1095.0,565.0 979.0,565.0 979.0,520.0" stroke="#000000" stroke-width="1"/>
      <line stroke="#000000" stroke-width="1" x1="941.0" x2="941.0" y1="520.0" y2="479.0"/>
      <line stroke="#000000" stroke-width="1" x1="945.0" x2="945.0" y1="520.0" y2="479.0"/>
      <line stroke="#000000" stroke-width="1" x1="949.0" x2="949.0" y1="520.0" y2="479.0"/>
      <line stroke="#000000" stroke-width="1" x1="953.0" x2="953.0" y1="520.0" y2="479.0"/>
      <line stroke="#000000" stroke-width="1" x1="957.0" x2="957.0" y1="520.0" y2="479.0"/>
      <line stroke="#000000" stroke-width="1" x1="961.0" x2="961.0" y1="520.0" y2="479.0"/>
      <line stroke="#000000" stroke-width="1" x1="965.0" x2="965.0" y1="520.0" y2="479.0"/>
      <line stroke="#000000" stroke-width="1" x1="969.0" x2="969.0" y1="520.0" y2="479.0"/>
      <line stroke="#000000" stroke-width="1" x1="973.0" x2="973.0" y1="520.0" y2="479.0"/>
      <line stroke="#000000" stroke-width="1" x1="977.0" x2="977.0" y1="520.0" y2="479.0"/>
      <line stroke="#000000" stroke-width="1" x1="981.0" x2="981.0" y1="520.0" y2="479.0"/>
      <line stroke="#000000" stroke-width="1" x1="985.0" x2="985.0" y1="520.0" y2="479.0"/>
      <line stroke="#000000" stroke-width="1" x1="875.0" x2="875.0" y1="273.0" y2="298.0"/>
      <line stroke="#000000" stroke-width="1" x1="879.0" x2="879.0" y1="273.0" y2="298.0"/>
      <line stroke="#000000" stroke-width="1" x1="883.0" x2="883.0" y1="273.0" y2="298.0"/>
      <line stroke="#000000" stroke-width="1" x1="887.0" x2="887.0" y1="273.0" y2="298.0"/>
      <line stroke="#000000" stroke-width="1" x1="891.0" x2="891.0" y1="273.0" y2="298.0"/>
      <line stroke="#000000" stroke-width="1" x1="895.0" x2="895.0" y1="273.0" y2="298.0"/>
      <line stroke="#000000" stroke-width="1" x1="899.0" x2="899.0" y1="273.0" y2="298.0"/>
      <line stroke="#000000" stroke-width="1" x1="903.0" x2="903.0" y1="273.0" y2="298.0"/>
      <line stroke="#000000" stroke-width="1" x1="907.0" x2="907.0" y1="273.0" y2="298.0"/>
      <line stroke="#000000" stroke-width="1" x1="1095.0" x2="1125.0" y1="314.0" y2="314.0"/>
      <line stroke="#000000" stroke-width="1" x1="1095.0" x2="1125.0" y1="318.0" y2="318.0"/>
      <line stroke="#000000" stroke-width="1" x1="1095.0" x2="1125.0" y1="322.0" y2="322.0"/>
      <line stroke="#000000" stroke-width="1" x1="1095.0" x2="1125.0" y1="326.0" y2="326.0"/>
      <line stroke="#000000" stroke-width="1" x1="1160.0" x2="1160.0" y1="753.0" y2="731.0"/>
      <line stroke="#000000" stroke-width="1" x1="1156.0" x2="1156.0" y1="753.0" y2="731.0"/>
      <line stroke="#000000" stroke-width="1" x1="1152.0" x2="1152.0" y1="753.0" y2="731.0"/>
      <line stroke="#000000" stroke-width="1" x1="1148.0" x2="1148.0" y1="753.0" y2="731.0"/>
      <line stroke="#000000" stroke-width="1" x1="1144.0" x2="1144.0" y1="753.0" y2="731.0"/>
      <line stroke="#000000" stroke-width="1" x1="1140.0" x2="1140.0" y1="753.0" y2="731.0"/>
      <line stroke="#000000" stroke-width="1" x1="1136.0" x2="1136.0" y1="753.0" y2="731.0"/>
      <line stroke="#000000" stroke-width="1" x1="1132.0" x2="1132.0" y1="753.0" y2="731.0"/>
      <line stroke="#000000" stroke-width="1" x1="1128.0" x2="1128.0" y1="753.0" y2="731.0"/>
      <line stroke="#000000" stroke-width="1" x1="1061.0" x2="1061.0" y1="731.0" y2="753.0"/>
      <line stroke="#000000" stroke-width="1" x1="1065.0" x2="1065.0" y1="731.0" y2="753.0"/>
      <line stroke="#000000" stroke-width="1" x1="1069.0" x2="1069.0" y1="731.0" y2="753.0"/>
      <line stroke="#000000" stroke-width="1" x1="1073.0" x2="1073.0" y1="731.0" y2="753.0"/>
      <line stroke="#000000" stroke-width="1" x1="1077.0" x2="1077.0" y1="731.0" y2="753.0"/>
      <line stroke="#000000" stroke-width="1" x1="1081.0" x2="1081.0" y1="731.0" y2="753.0"/>
      <line stroke="#000000" stroke-width="1" x1="1085.0" x2="1085.0" y1="731.0" y2="753.0"/>
      <line stroke="#000000" stroke-width="1" x1="1089.0" x2="1089.0" y1="731.0" y2="753.0"/>
      <line stroke="#000000" stroke-width="1" x1="1093.0" x2="1093.0" y1="731.0" y2="753.0"/>
      <polygon fill="#d0d0d0" points="1090.0,475.0 1090.0,525.0 1084.0,525.0 1084.0,475.0" stroke="#000000" stroke-width="1"/>
      <polyline fill="none" points="1111.0,495.0 1111.0,475.0 1090.0,475.0 1090.0,525.0 1098.0,525.0" stroke="#000000" stroke-width="1"/>
      <path d="M1111.0,495.0 C1111.0,495.0 1112.6666666666667,492.8333333333333 1111.0,495.0 C1109.3333333333333,497.1666666666667 1103.1666666666667,503.0 1101.0,508.0 C1098.8333333333333,513.0 1098.0,525.0 1098.0,525.0 " fill="none" stroke="#000000" stroke-width="1"/>
      <text fill="#000000" font-family="Arial" font-size="10.0" stroke="none" stroke-width="0" transform="rotate(-70.0,1087.0,513.0)" x="1087.0" y="523.0">кассы</text>
      <polygon fill="none" points="1052.0,480.0 1045.0,480.0 1045.0,487.0 1052.0,487.0" stroke="#000000" stroke-width="1"/>
      <line stroke="#009900" stroke-width="1" x1="1051.0" x2="1046.0" y1="560.0" y2="560.0"/>
      <line stroke="#009900" stroke-width="1" x1="1051.0" x2="1046.0" y1="556.0" y2="556.0"/>
      <line stroke="#009900" stroke-width="1" x1="1051.0" x2="1046.0" y1="552.0" y2="552.0"/>
      <line stroke="#009900" stroke-width="1" x1="1051.0" x2="1046.0" y1="548.0" y2="548.0"/>
      <line stroke="#009900" stroke-width="1" x1="1051.0" x2="1046.0" y1="544.0" y2="544.0"/>
      <line stroke="#009900" stroke-width="1" x1="1051.0" x2="1046.0" y1="540.0" y2="540.0"/>
      <line stroke="#009900" stroke-width="1" x1="1051.0" x2="1046.0" y1="536.0" y2="536.0"/>
      <line stroke="#009900" stroke-width="1" x1="1051.0" x2="1046.0" y1="532.0" y2="532.0"/>
      <line stroke="#009900" stroke-width="1" x1="1051.0" x2="1046.0" y1="528.0" y2="528.0"/>
      <line stroke="#009900" stroke-width="1" x1="1051.0" x2="1046.0" y1="524.0" y2="524.0"/>
      <line stroke="#009900" stroke-width="1" x1="1051.0" x2="1046.0" y1="520.0" y2="520.0"/>
      <line stroke="#009900" stroke-width="1" x1="1051.0" x2="1046.0" y1="516.0" y2="516.0"/>
      <line stroke="#009900" stroke-width="1" x1="1051.0" x2="1046.0" y1="512.0" y2="512.0"/>
      <line stroke="#009900" stroke-width="1" x1="1051.0" x2="1046.0" y1="508.0" y2="508.0"/>
      <line stroke="#009900" stroke-width="1" x1="1051.0" x2="1046.0" y1="504.0" y2="504.0"/>
      <line stroke="#009900" stroke-width="1" x1="1051.0" x2="1046.0" y1="500.0" y2="500.0"/>
      <line stroke="#009900" stroke-width="1" x1="1051.0" x2="1046.0" y1="496.0" y2="496.0"/>
      <line stroke="#009900" stroke-width="1" x1="1051.0" x2="1046.0" y1="492.0" y2="492.0"/>
      <line stroke="#ff0000" stroke-width="1" x1="1051.0" x2="1046.0" y1="440.0" y2="440.0"/>
      <line stroke="#ff0000" stroke-width="1" x1="1051.0" x2="1046.0" y1="444.0" y2="444.0"/>
      <line stroke="#ff0000" stroke-width="1" x1="1051.0" x2="1046.0" y1="448.0" y2="448.0"/>
      <line stroke="#ff0000" stroke-width="1" x1="1051.0" x2="1046.0" y1="452.0" y2="452.0"/>
      <line stroke="#ff0000" stroke-width="1" x1="1051.0" x2="1046.0" y1="456.0" y2="456.0"/>
      <line stroke="#ff0000" stroke-width="1" x1="1051.0" x2="1046.0" y1="460.0" y2="460.0"/>
      <line stroke="#ff0000" stroke-width="1" x1="1051.0" x2="1046.0" y1="464.0" y2="464.0"/>
      <line stroke="#ff0000" stroke-width="1" x1="1051.0" x2="1046.0" y1="468.0" y2="468.0"/>
      <line stroke="#ff0000" stroke-width="1" x1="1051.0" x2="1046.0" y1="472.0" y2="472.0"/>
      <line stroke="#ff0000" stroke-width="1" x1="1051.0" x2="1046.0" y1="476.0" y2="476.0"/>
      <polyline fill="none" marker-end="url(#id240)" points="1071.0,456.0 1086.0,456.0" stroke="#ff0000" stroke-width="1"/>
      <polyline fill="none" marker-end="url(#id240)" points="1086.0,544.0 1071.0,544.0" stroke="#009900" stroke-width="1"/>
      <polygon fill="#34349c" points="494.0,440.0 499.0,440.0 499.0,442.0 494.0,442.0" stroke="#34349c" stroke-width="1"/>
      <polygon fill="#34349c" points="751.0,503.0 756.0,503.0 756.0,505.0 751.0,505.0" stroke="#34349c" stroke-width="1"/>
      <polygon fill="#34349c" points="1013.0,442.0 1018.0,442.0 1018.0,444.0 1013.0,444.0" stroke="#34349c" stroke-width="1"/>
      <polygon fill="#ff0000" points="489.0,440.0 494.0,440.0 494.0,442.0 489.0,442.0" stroke="#ff0000" stroke-width="1"/>
      <polygon fill="#ff0000" points="746.0,503.0 751.0,503.0 751.0,505.0 746.0,505.0" stroke="#ff0000" stroke-width="1"/>
      <polygon fill="#ff0000" points="1013.0,442.0 1013.0,444.0 1008.0,444.0 1008.0,442.0" stroke="#ff0000" stroke-width="1"/>
      <text fill="#00afaf" font-family="Arial" font-size="15.0" stroke="none" stroke-width="0" x="644.0" y="362.0">Митинская улица</text>
      <text fill="#00afaf" font-family="Arial" font-size="15.0" stroke="none" stroke-width="0" transform="rotate(-90.0,216.0,624.0)" x="216.0" y="639.0">улица Дубравная</text>
    </g>
    <g>
      <rect fill="#615f56" height="30.0" stroke="none" stroke-width="0" width="30.0" x="265.0" y="611.0"/>
      <rect fill="#615f56" height="30.0" stroke="none" stroke-width="0" width="30.0" x="211.0" y="582.0"/>
      <rect fill="#615f56" height="30.0" stroke="none" stroke-width="0" width="30.0" x="68.0" y="475.0"/>
      <rect fill="#615f56" height="30.0" stroke="none" stroke-width="0" width="30.0" x="54.0" y="364.0"/>
      <rect fill="#615f56" height="30.0" stroke="none" stroke-width="0" width="30.0" x="580.0" y="295.0"/>
      <rect fill="#615f56" height="30.0" stroke="none" stroke-width="0" width="30.0" x="532.0" y="129.0"/>
      <rect fill="#615f56" height="30.0" stroke="none" stroke-width="0" width="30.0" x="295.0" y="48.0"/>
      <rect fill="#615f56" height="30.0" stroke="none" stroke-width="0" width="30.0" x="944.0" y="518.0"/>
      <rect fill="#615f56" height="30.0" stroke="none" stroke-width="0" width="30.0" x="884.0" y="1036.0"/>
      <rect fill="#615f56" height="30.0" stroke="none" stroke-width="0" width="30.0" x="830.0" y="998.0"/>
      <text fill="#ffd900" font-family="Arial" font-size="25.0" stroke="none" stroke-width="0" x="273.0" y="637.0">1</text>
      <text fill="#ffd900" font-family="Arial" font-size="25.0" stroke="none" stroke-width="0" x="219.0" y="608.0">2</text>
      <text fill="#ffd900" font-family="Arial" font-size="25.0" stroke="none" stroke-width="0" x="76.0" y="501.0">3</text>
      <text fill="#ffd900" font-family="Arial" font-size="25.0" stroke="none" stroke-width="0" x="62.0" y="390.0">4</text>
      <text fill="#ffd900" font-family="Arial" font-size="25.0" stroke="none" stroke-width="0" x="588.0" y="321.0">5</text>
      <text fill="#ffd900" font-family="Arial" font-size="25.0" stroke="none" stroke-width="0" x="540.0" y="155.0">6</text>
      <text fill="#ffd900" font-family="Arial" font-size="25.0" stroke="none" stroke-width="0" x="303.0" y="74.0">7</text>
      <text fill="#ffd900" font-family="Arial" font-size="25.0" stroke="none" stroke-width="0" x="952.0" y="544.0">8</text>
      <text fill="#ffd900" font-family="Arial" font-size="25.0" stroke="none" stroke-width="0" x="892.0" y="1062.0">9</text>
      <text fill="#ffd900" font-family="Arial" font-size="25.0" stroke="none" stroke-width="0" x="832.0" y="1024.0">10</text>
    </g>
  </g>
</svg>
