<?xml version="1.0" encoding="utf-8" ?>
<svg baseProfile="full" height="100%" version="1.1" width="100%" xmlns="http://www.w3.org/2000/svg" xmlns:ev="http://www.w3.org/2001/xml-events" xmlns:xlink="http://www.w3.org/1999/xlink"><defs><marker id="id223" markerHeight="3" markerUnits="strokeWidth" markerWidth="4" orient="auto" refX="0" refY="5" viewBox="0,0,10,10"><path d="M 0 0 L 10 5 L 0 10 z" /></marker></defs><g transform="scale(0.5) rotate(-90.0,220,470)"><rect fill="none" height="940" stroke="none" width="440" x="0" y="0" /><polygon fill="#34349C" points="54,343 54,313 504,313 504,343" stroke="#000000" stroke-width="1" /><polygon fill="#34349C" points="54,376 54,346 504,346 504,376" stroke="#000000" stroke-width="1" /><text fill="#34349C" font-family="Arial" font-size="20" stroke="none" x="96" y="310.0">&lt;&lt; Строгино</text><text fill="#34349C" font-family="Arial" font-size="20" stroke="none" x="337" y="396.0">Волоколамская &gt;&gt;</text><text fill="#000000" font-family="Arial" font-size="25" stroke="none" x="146" y="340.0">Мякинино</text><text fill="#FFFFFF" font-family="Arial" font-size="25" stroke="none" x="145" y="339.0">Мякинино</text><polyline fill="none" points="-113,276 569,276 569,413 288,413 276,481" stroke="#000000" stroke-width="1" /><polyline fill="none" points="258,481 270,413 -113,413" stroke="#000000" stroke-width="1" /><polyline fill="none" points="54,343 54,346" stroke="#000000" stroke-width="1" /><polyline fill="none" points="504,343 504,346" stroke="#000000" stroke-width="1" /><g fill="none" fill-opacity="0.85" stroke="#000000" stroke-opacity="0.85"><polygon fill="#FFFFFF" points="269,309 272,327 273,345 272,363 269,380 292,380 289,363 288,345 289,327 292,309" stroke="#FFFFFF" stroke-width="1" /></g><g fill="#FFFFFF" fill-opacity="1.0" stroke="#FFFFFF" stroke-opacity="1.0"><polyline fill="none" points="221,289 256,289" stroke="#000000" stroke-width="1" /><polyline fill="none" points="340,289 305,289" stroke="#000000" stroke-width="1" /><polyline fill="none" points="340,400 305,400" stroke="#000000" stroke-width="1" /><polyline fill="none" points="221,400 256,400" stroke="#000000" stroke-width="1" /><polyline fill="none" points="256,289 268,307 272,345 268,382 256,400" stroke="#000000" stroke-width="1" /><polyline fill="none" points="305,289 293,307 289,345 293,382 305,400" stroke="#000000" stroke-width="1" /><line stroke="#000000" stroke-width="1" x1="338" x2="338" y1="276" y2="289" /><line stroke="#000000" stroke-width="1" x1="334" x2="334" y1="276" y2="289" /><line stroke="#000000" stroke-width="1" x1="330" x2="330" y1="276" y2="289" /><line stroke="#000000" stroke-width="1" x1="326" x2="326" y1="276" y2="289" /><line stroke="#000000" stroke-width="1" x1="322" x2="322" y1="276" y2="289" /><line stroke="#000000" stroke-width="1" x1="318" x2="318" y1="276" y2="289" /><line stroke="#000000" stroke-width="1" x1="314" x2="314" y1="276" y2="289" /><line stroke="#000000" stroke-width="1" x1="310" x2="310" y1="276" y2="289" /><line stroke="#000000" stroke-width="1" x1="306" x2="306" y1="276" y2="289" /><line stroke="#000000" stroke-width="1" x1="223" x2="223" y1="276" y2="289" /><line stroke="#000000" stroke-width="1" x1="227" x2="227" y1="276" y2="289" /><line stroke="#000000" stroke-width="1" x1="231" x2="231" y1="276" y2="289" /><line stroke="#000000" stroke-width="1" x1="235" x2="235" y1="276" y2="289" /><line stroke="#000000" stroke-width="1" x1="239" x2="239" y1="276" y2="289" /><line stroke="#000000" stroke-width="1" x1="243" x2="243" y1="276" y2="289" /><line stroke="#000000" stroke-width="1" x1="247" x2="247" y1="276" y2="289" /><line stroke="#000000" stroke-width="1" x1="251" x2="251" y1="276" y2="289" /><line stroke="#000000" stroke-width="1" x1="255" x2="255" y1="276" y2="289" /><line stroke="#000000" stroke-width="1" x1="338" x2="338" y1="413" y2="400" /><line stroke="#000000" stroke-width="1" x1="334" x2="334" y1="413" y2="400" /><line stroke="#000000" stroke-width="1" x1="330" x2="330" y1="413" y2="400" /><line stroke="#000000" stroke-width="1" x1="326" x2="326" y1="413" y2="400" /><line stroke="#000000" stroke-width="1" x1="322" x2="322" y1="413" y2="400" /><line stroke="#000000" stroke-width="1" x1="318" x2="318" y1="413" y2="400" /><line stroke="#000000" stroke-width="1" x1="314" x2="314" y1="413" y2="400" /><line stroke="#000000" stroke-width="1" x1="310" x2="310" y1="413" y2="400" /><line stroke="#000000" stroke-width="1" x1="306" x2="306" y1="413" y2="400" /><line stroke="#000000" stroke-width="1" x1="223" x2="223" y1="413" y2="400" /><line stroke="#000000" stroke-width="1" x1="227" x2="227" y1="413" y2="400" /><line stroke="#000000" stroke-width="1" x1="231" x2="231" y1="413" y2="400" /><line stroke="#000000" stroke-width="1" x1="235" x2="235" y1="413" y2="400" /><line stroke="#000000" stroke-width="1" x1="239" x2="239" y1="413" y2="400" /><line stroke="#000000" stroke-width="1" x1="243" x2="243" y1="413" y2="400" /><line stroke="#000000" stroke-width="1" x1="247" x2="247" y1="413" y2="400" /><line stroke="#000000" stroke-width="1" x1="251" x2="251" y1="413" y2="400" /><line stroke="#000000" stroke-width="1" x1="255" x2="255" y1="413" y2="400" /></g><g fill="#FFFFFF" fill-opacity="0.8" stroke="#000000" stroke-opacity="0.8"><polygon fill="#FFFFFF" points="453,378 486,378 486,414 504,414 504,377 505,377 505,312 504,312 501,312 497,312 493,312 453,311 445,323 440,334 438,347 441,359 446,369" stroke="#FFFFFF" stroke-width="1" /></g><g fill="#FFFFFF" fill-opacity="1.0" stroke="#FFFFFF" stroke-opacity="1.0"><polyline fill="none" points="453,378 486,378 486,413 424,520 417,597 480,602" stroke="#000000" stroke-width="1" /><polyline fill="none" points="453,378 438,345 453,311" stroke="#000000" stroke-width="1" /><polyline fill="none" points="487,311 501,345 486,378" stroke="#000000" stroke-width="1" /><text fill="#000000" font-family="Arial" font-size="10" stroke="none" transform="rotate(90.0,494,332)" x="494" y="342.0">кассы</text><polyline fill="none" points="681,441 681,396 660,396" stroke="#000000" stroke-width="1" /><polyline fill="none" points="641,390 641,418 532,418 496,431 504,417 504,395 540,395" stroke="#000000" stroke-width="1" /><polyline fill="none" points="663,441 663,414 660,414" stroke="#000000" stroke-width="1" /><polyline fill="none" points="640,414 580,414 580,372 659,372 659,436 534,436 482,456 442,525 437,581 481,585" stroke="#000000" stroke-width="1" /><line stroke="#000000" stroke-width="1" x1="538" x2="538" y1="395" y2="413" /><line stroke="#000000" stroke-width="1" x1="534" x2="534" y1="395" y2="413" /><line stroke="#000000" stroke-width="1" x1="530" x2="530" y1="395" y2="413" /><line stroke="#000000" stroke-width="1" x1="526" x2="526" y1="395" y2="413" /><line stroke="#000000" stroke-width="1" x1="522" x2="522" y1="395" y2="413" /><line stroke="#000000" stroke-width="1" x1="518" x2="518" y1="395" y2="413" /><line stroke="#000000" stroke-width="1" x1="514" x2="514" y1="395" y2="413" /><line stroke="#000000" stroke-width="1" x1="510" x2="510" y1="395" y2="413" /><line stroke="#000000" stroke-width="1" x1="506" x2="506" y1="395" y2="413" /><polyline fill="none" points="453,311 487,311 487,294 540,294" stroke="#000000" stroke-width="1" /><line stroke="#000000" stroke-width="1" x1="538" x2="538" y1="294" y2="276" /><line stroke="#000000" stroke-width="1" x1="534" x2="534" y1="294" y2="276" /><line stroke="#000000" stroke-width="1" x1="530" x2="530" y1="294" y2="276" /><line stroke="#000000" stroke-width="1" x1="526" x2="526" y1="294" y2="276" /><line stroke="#000000" stroke-width="1" x1="522" x2="522" y1="294" y2="276" /><line stroke="#000000" stroke-width="1" x1="518" x2="518" y1="294" y2="276" /><line stroke="#000000" stroke-width="1" x1="514" x2="514" y1="294" y2="276" /><line stroke="#000000" stroke-width="1" x1="510" x2="510" y1="294" y2="276" /><line stroke="#000000" stroke-width="1" x1="506" x2="506" y1="294" y2="276" /><line stroke="#000000" stroke-width="1" x1="478" x2="479" y1="602" y2="585" /><line stroke="#000000" stroke-width="1" x1="474.013816967" x2="475.013816967" y1="601.667818081" y2="584.667818081" /><line stroke="#000000" stroke-width="1" x1="470.027633934" x2="471.027633934" y1="601.335636161" y2="584.335636161" /><line stroke="#000000" stroke-width="1" x1="466.041450901" x2="467.041450901" y1="601.003454242" y2="584.003454242" /><line stroke="#000000" stroke-width="1" x1="462.055267868" x2="463.055267868" y1="600.671272322" y2="583.671272322" /><line stroke="#000000" stroke-width="1" x1="458.069084835" x2="459.069084835" y1="600.339090403" y2="583.339090403" /><line stroke="#000000" stroke-width="1" x1="454.082901802" x2="455.082901802" y1="600.006908484" y2="583.006908484" /><line stroke="#000000" stroke-width="1" x1="450.096718769" x2="451.096718769" y1="599.674726564" y2="582.674726564" /><line stroke="#000000" stroke-width="1" x1="446.110535736" x2="447.110535736" y1="599.342544645" y2="582.342544645" /><line stroke="#000000" stroke-width="1" x1="442.124352703" x2="443.124352703" y1="599.010362725" y2="582.010362725" /><line stroke="#000000" stroke-width="1" x1="639" x2="639" y1="414" y2="396" /><line stroke="#000000" stroke-width="1" x1="635" x2="635" y1="414" y2="396" /><line stroke="#000000" stroke-width="1" x1="631" x2="631" y1="414" y2="396" /><line stroke="#000000" stroke-width="1" x1="627" x2="627" y1="414" y2="396" /><line stroke="#000000" stroke-width="1" x1="623" x2="623" y1="414" y2="396" /><line stroke="#000000" stroke-width="1" x1="619" x2="619" y1="414" y2="396" /><line stroke="#000000" stroke-width="1" x1="615" x2="615" y1="414" y2="396" /><line stroke="#000000" stroke-width="1" x1="611" x2="611" y1="414" y2="396" /><line stroke="#000000" stroke-width="1" x1="607" x2="607" y1="414" y2="396" /><line stroke="#000000" stroke-width="1" x1="603" x2="603" y1="414" y2="396" /><line stroke="#000000" stroke-width="1" x1="636" x2="636" y1="372" y2="390" /><line stroke="#000000" stroke-width="1" x1="632" x2="632" y1="372" y2="390" /><line stroke="#000000" stroke-width="1" x1="628" x2="628" y1="372" y2="390" /><line stroke="#000000" stroke-width="1" x1="624" x2="624" y1="372" y2="390" /><line stroke="#000000" stroke-width="1" x1="620" x2="620" y1="372" y2="390" /><line stroke="#000000" stroke-width="1" x1="616" x2="616" y1="372" y2="390" /><line stroke="#000000" stroke-width="1" x1="612" x2="612" y1="372" y2="390" /><line stroke="#000000" stroke-width="1" x1="608" x2="608" y1="372" y2="390" /><line stroke="#000000" stroke-width="1" x1="604" x2="604" y1="372" y2="390" /><line stroke="#000000" stroke-width="1" x1="600" x2="600" y1="372" y2="390" /><polygon fill="#D0D0D0" points="598,390 641,390 641,396 598,396" stroke="#000000" stroke-width="1" /><line stroke="#FF0000" stroke-width="1" x1="535" x2="540" y1="390" y2="390" /><line stroke="#FF0000" stroke-width="1" x1="535" x2="540" y1="386" y2="386" /><line stroke="#FF0000" stroke-width="1" x1="535" x2="540" y1="382" y2="382" /><line stroke="#FF0000" stroke-width="1" x1="535" x2="540" y1="378" y2="378" /><line stroke="#FF0000" stroke-width="1" x1="535" x2="540" y1="374" y2="374" /><line stroke="#FF0000" stroke-width="1" x1="535" x2="540" y1="298" y2="298" /><line stroke="#FF0000" stroke-width="1" x1="535" x2="540" y1="302" y2="302" /><line stroke="#FF0000" stroke-width="1" x1="535" x2="540" y1="306" y2="306" /><line stroke="#FF0000" stroke-width="1" x1="535" x2="540" y1="310" y2="310" /><line stroke="#FF0000" stroke-width="1" x1="535" x2="540" y1="314" y2="314" /><line stroke="#009900" stroke-width="1" x1="551" x2="546" y1="366" y2="366" /><line stroke="#009900" stroke-width="1" x1="551" x2="546" y1="362" y2="362" /><line stroke="#009900" stroke-width="1" x1="551" x2="546" y1="358" y2="358" /><line stroke="#009900" stroke-width="1" x1="551" x2="546" y1="354" y2="354" /><line stroke="#009900" stroke-width="1" x1="551" x2="546" y1="350" y2="350" /><line stroke="#009900" stroke-width="1" x1="551" x2="546" y1="346" y2="346" /><line stroke="#009900" stroke-width="1" x1="551" x2="546" y1="342" y2="342" /><line stroke="#009900" stroke-width="1" x1="551" x2="546" y1="338" y2="338" /><line stroke="#009900" stroke-width="1" x1="551" x2="546" y1="334" y2="334" /><line stroke="#009900" stroke-width="1" x1="551" x2="546" y1="330" y2="330" /><ellipse cx="549" cy="323" fill="none" rx="4.0" ry="4.0" stroke="#000000" stroke-width="1" /><polyline fill="none" points="551,370 531,370" stroke="#000000" stroke-width="0.5" /><polyline fill="none" points="531,318 549,318" stroke="#000000" stroke-width="0.5" /><polyline fill="none" marker-end="url(#id223)" points="543,400 551,400 551,384 543,384" stroke="#FF0000" stroke-width="1" /><polyline fill="none" marker-end="url(#id223)" points="543,289 551,289 551,304 543,304" stroke="#FF0000" stroke-width="1" /><polyline fill="none" marker-end="url(#id223)" points="563,296 563,283 549,283" stroke="#009900" stroke-width="1" /><polyline fill="none" marker-end="url(#id223)" points="563,393 563,406 549,406" stroke="#009900" stroke-width="1" /></g><g fill="none" fill-opacity="0.8" stroke="#009900" stroke-opacity="0.8"><polygon fill="none" points="54,311 53,311 53,378 54,378 63,365 67,355 69,342 66,330 61,320" stroke="#FFFFFF" stroke-width="1" /></g><g fill="none" fill-opacity="1.0" stroke="#FFFFFF" stroke-opacity="1.0"><polyline fill="none" points="54,311 21,311" stroke="#000000" stroke-width="1" /><polyline fill="none" points="54,378 21,378" stroke="#000000" stroke-width="1" /><polyline fill="none" points="21,311 6,344 21,378" stroke="#000000" stroke-width="1" /><polyline fill="none" points="54,311 69,344 54,378" stroke="#000000" stroke-width="1" /><polyline fill="none" points="49,311 49,294 85,294" stroke="#000000" stroke-width="1" /><line stroke="#000000" stroke-width="1" x1="83" x2="83" y1="294" y2="276" /><line stroke="#000000" stroke-width="1" x1="79" x2="79" y1="294" y2="276" /><line stroke="#000000" stroke-width="1" x1="75" x2="75" y1="294" y2="276" /><line stroke="#000000" stroke-width="1" x1="71" x2="71" y1="294" y2="276" /><line stroke="#000000" stroke-width="1" x1="67" x2="67" y1="294" y2="276" /><line stroke="#000000" stroke-width="1" x1="63" x2="63" y1="294" y2="276" /><line stroke="#000000" stroke-width="1" x1="59" x2="59" y1="294" y2="276" /><line stroke="#000000" stroke-width="1" x1="55" x2="55" y1="294" y2="276" /><line stroke="#000000" stroke-width="1" x1="51" x2="51" y1="294" y2="276" /><polyline fill="none" points="49,378 49,395 85,395" stroke="#000000" stroke-width="1" /><line stroke="#000000" stroke-width="1" x1="83" x2="83" y1="395" y2="413" /><line stroke="#000000" stroke-width="1" x1="79" x2="79" y1="395" y2="413" /><line stroke="#000000" stroke-width="1" x1="75" x2="75" y1="395" y2="413" /><line stroke="#000000" stroke-width="1" x1="71" x2="71" y1="395" y2="413" /><line stroke="#000000" stroke-width="1" x1="67" x2="67" y1="395" y2="413" /><line stroke="#000000" stroke-width="1" x1="63" x2="63" y1="395" y2="413" /><line stroke="#000000" stroke-width="1" x1="59" x2="59" y1="395" y2="413" /><line stroke="#000000" stroke-width="1" x1="55" x2="55" y1="395" y2="413" /><line stroke="#000000" stroke-width="1" x1="51" x2="51" y1="395" y2="413" /><polyline fill="none" points="-113,276 -144,294 -157,332" stroke="#000000" stroke-width="1" /><polyline fill="none" points="-113,413 -144,396 -157,356" stroke="#000000" stroke-width="1" /><polyline fill="none" points="-157,332 -229,332 -229,334" stroke="#000000" stroke-width="1" /><polyline fill="none" points="-157,356 -229,356 -229,354" stroke="#000000" stroke-width="1" /><polygon fill="#D0D0D0" points="-58,316 -64,311 -92,311 -104,323 -104,366 -92,378 -64,378 -58,373 -68,365 -83,365 -83,324 -68,324" stroke="#000000" stroke-width="1" /><polyline fill="none" points="-68,365 -68,324" stroke="#000000" stroke-width="1" /><line stroke="#FF0000" stroke-width="1" x1="-25" x2="-20" y1="409" y2="409" /><line stroke="#FF0000" stroke-width="1" x1="-25" x2="-20" y1="405" y2="405" /><line stroke="#FF0000" stroke-width="1" x1="-25" x2="-20" y1="401" y2="401" /><line stroke="#FF0000" stroke-width="1" x1="-25" x2="-20" y1="397" y2="397" /><line stroke="#FF0000" stroke-width="1" x1="-25" x2="-20" y1="393" y2="393" /><line stroke="#FF0000" stroke-width="1" x1="-25" x2="-20" y1="389" y2="389" /><line stroke="#FF0000" stroke-width="1" x1="-25" x2="-20" y1="385" y2="385" /><line stroke="#FF0000" stroke-width="1" x1="-25" x2="-20" y1="280" y2="280" /><line stroke="#FF0000" stroke-width="1" x1="-25" x2="-20" y1="284" y2="284" /><line stroke="#FF0000" stroke-width="1" x1="-25" x2="-20" y1="288" y2="288" /><line stroke="#FF0000" stroke-width="1" x1="-25" x2="-20" y1="292" y2="292" /><line stroke="#FF0000" stroke-width="1" x1="-25" x2="-20" y1="296" y2="296" /><line stroke="#FF0000" stroke-width="1" x1="-25" x2="-20" y1="300" y2="300" /><line stroke="#FF0000" stroke-width="1" x1="-25" x2="-20" y1="304" y2="304" /><line stroke="#009900" stroke-width="1" x1="-20" x2="-25" y1="313" y2="313" /><line stroke="#009900" stroke-width="1" x1="-20" x2="-25" y1="317" y2="317" /><line stroke="#009900" stroke-width="1" x1="-20" x2="-25" y1="321" y2="321" /><line stroke="#009900" stroke-width="1" x1="-20" x2="-25" y1="325" y2="325" /><line stroke="#009900" stroke-width="1" x1="-20" x2="-25" y1="329" y2="329" /><line stroke="#009900" stroke-width="1" x1="-20" x2="-25" y1="333" y2="333" /><line stroke="#009900" stroke-width="1" x1="-20" x2="-25" y1="337" y2="337" /><line stroke="#009900" stroke-width="1" x1="-20" x2="-25" y1="376" y2="376" /><line stroke="#009900" stroke-width="1" x1="-20" x2="-25" y1="372" y2="372" /><line stroke="#009900" stroke-width="1" x1="-20" x2="-25" y1="368" y2="368" /><line stroke="#009900" stroke-width="1" x1="-20" x2="-25" y1="364" y2="364" /><line stroke="#009900" stroke-width="1" x1="-20" x2="-25" y1="360" y2="360" /><line stroke="#009900" stroke-width="1" x1="-20" x2="-25" y1="356" y2="356" /><line stroke="#009900" stroke-width="1" x1="-20" x2="-25" y1="352" y2="352" /><polygon fill="none" points="-19,341 -26,341 -26,348 -19,348" stroke="#000000" stroke-width="1" /><polyline fill="none" points="-22,376 -22,385" stroke="#000000" stroke-width="0.5" /><polyline fill="none" points="-22,304 -22,313" stroke="#000000" stroke-width="0.5" /><polyline fill="none" marker-end="url(#id223)" points="-17,399 -32,399" stroke="#FF0000" stroke-width="1" /><polyline fill="none" marker-end="url(#id223)" points="-17,290 -32,290" stroke="#FF0000" stroke-width="1" /><polyline fill="none" marker-end="url(#id223)" points="-27,362 -13,362" stroke="#009900" stroke-width="1" /><polyline fill="none" marker-end="url(#id223)" points="-27,327 -13,327" stroke="#009900" stroke-width="1" /><text fill="#000000" font-family="Arial" font-size="10" stroke="none" transform="rotate(90.0,-69,331)" x="-69" y="341.0">кассы</text><text fill="#000000" font-family="Arial" font-size="10" stroke="none" transform="rotate(90.0,25,325)" x="25" y="335.0">полиция</text><text fill="#00AFAF" font-family="Arial" font-size="15" stroke="none" x="-230" y="439.0">&lt;&lt; бульвар Строителей</text><text fill="#00AFAF" font-family="Arial" font-size="15" stroke="none" transform="rotate(10.0,-234,505)" x="-234" y="520.0">'Выставочный комплекс "Крокус-сити"'</text><text fill="#00AFAF" font-family="Arial" font-size="15" stroke="none" transform="rotate(10.0,-241,655)" x="-241" y="670.0">МКАД</text><polygon fill="#34349C" points="-54,407 -49,407 -49,409 -54,409" stroke="#34349C" stroke-width="1" /><polygon fill="#FF0000" points="-59,407 -54,407 -54,409 -59,409" stroke="#FF0000" stroke-width="1" /></g><g fill="#FF0000" fill-opacity="0.7" stroke="#FF0000" stroke-opacity="0.7"><polygon fill="#FFD0D0" points="267,410 254,485 278,485 291,410" stroke="#FFD0D0" stroke-width="1" /></g><g fill="#FFD0D0" fill-opacity="1.0" stroke="#FF4040" stroke-opacity="1.0"><text fill="#FF4040" font-family="Arial" font-size="15" stroke="none" transform="rotate(100.0,288,417)" x="288" y="432.0">Строится</text><polyline fill="none" points="267,410 254,485 278,485 291,410 267,410" stroke="#FF4040" stroke-dasharray="5 2" stroke-width="1" /></g></g></svg>