<?xml version="1.0" encoding="utf-8" ?>
<svg baseProfile="full" height="100%" version="1.1" width="100%" xmlns="http://www.w3.org/2000/svg" xmlns:ev="http://www.w3.org/2001/xml-events" xmlns:xlink="http://www.w3.org/1999/xlink">
  <defs>
    <marker id="id244" markerHeight="3" markerUnits="strokeWidth" markerWidth="4" orient="auto" refX="0" refY="5" viewBox="0,0,10,10">
      <path d="M 0 0 L 10 5 L 0 10 z"/>
    </marker>
  </defs>
  <g transform="scale(0.5)">
    <rect fill="none" height="850" stroke="none" stroke-width="0" width="810" x="0" y="0"/>
    <g transform="rotate(-70.0,405,425)">
      <polygon fill="#9ca4a4" points="79,578 79,548 529,548 529,578" stroke="#000000" stroke-width="1"/>
      <polygon fill="#9ca4a4" points="529,468 529,438 79,438 79,468" stroke="#000000" stroke-width="1"/>
      <text fill="#4c4c4c" font-family="Arial" font-size="25" stroke="none" stroke-width="0" x="246" y="504.0">Нагорная</text>
      <text fill="#4c4c4c" font-family="Arial" font-size="20" stroke="none" stroke-width="0" x="82" y="435.0">&lt;&lt; Нахимовский проспект</text>
      <text fill="#4c4c4c" font-family="Arial" font-size="20" stroke="none" stroke-width="0" x="393" y="598.0">Нагатинская &gt;&gt;</text>
      <polyline fill="none" points="79,468 79,548" stroke="#000000" stroke-width="1"/>
      <polyline fill="none" points="659,381 668,356 698,367 698,446 599,446 599,478 529,478 529,468" stroke="#000000" stroke-width="1"/>
      <polyline fill="none" points="640,374 657,326 728,352 728,643 759,661" stroke="#000000" stroke-width="1"/>
      <polyline fill="none" points="667,608 698,626 698,569 599,569 599,538 529,538 529,548" stroke="#000000" stroke-width="1"/>
      <polyline fill="none" points="655,627 747,680" stroke="#000000" stroke-width="1"/>
      <polygon fill="#d0d0d0" points="698,479 690,479 690,536 698,536" stroke="#000000" stroke-width="1"/>
      <line stroke="#000000" stroke-width="1" x1="719" x2="730" y1="663" y2="644"/>
      <line stroke="#000000" stroke-width="1" x1="722.419150061" x2="733.419150061" y1="665.075912537" y2="646.075912537"/>
      <line stroke="#000000" stroke-width="1" x1="725.838300122" x2="736.838300122" y1="667.151825074" y2="648.151825074"/>
      <line stroke="#000000" stroke-width="1" x1="729.257450183" x2="740.257450183" y1="669.227737611" y2="650.227737611"/>
      <line stroke="#000000" stroke-width="1" x1="732.676600244" x2="743.676600244" y1="671.303650148" y2="652.303650148"/>
      <line stroke="#000000" stroke-width="1" x1="736.095750304" x2="747.095750304" y1="673.379562685" y2="654.379562685"/>
      <line stroke="#000000" stroke-width="1" x1="739.514900365" x2="750.514900365" y1="675.455475222" y2="656.455475222"/>
      <line stroke="#000000" stroke-width="1" x1="742.934050426" x2="753.934050426" y1="677.531387759" y2="658.531387759"/>
      <line stroke="#000000" stroke-width="1" x1="746.353200487" x2="757.353200487" y1="679.607300296" y2="660.607300296"/>
      <line stroke="#000000" stroke-width="1" x1="668" x2="657" y1="609" y2="628"/>
      <line stroke="#000000" stroke-width="1" x1="671.45079188" x2="660.45079188" y1="611.022877999" y2="630.022877999"/>
      <line stroke="#000000" stroke-width="1" x1="674.901583761" x2="663.901583761" y1="613.045755998" y2="632.045755998"/>
      <line stroke="#000000" stroke-width="1" x1="678.352375641" x2="667.352375641" y1="615.068633997" y2="634.068633997"/>
      <line stroke="#000000" stroke-width="1" x1="681.803167522" x2="670.803167522" y1="617.091511995" y2="636.091511995"/>
      <line stroke="#000000" stroke-width="1" x1="685.253959402" x2="674.253959402" y1="619.114389994" y2="638.114389994"/>
      <line stroke="#000000" stroke-width="1" x1="688.704751282" x2="677.704751282" y1="621.137267993" y2="640.137267993"/>
      <line stroke="#000000" stroke-width="1" x1="692.155543163" x2="681.155543163" y1="623.160145992" y2="642.160145992"/>
      <line stroke="#000000" stroke-width="1" x1="695.606335043" x2="684.606335043" y1="625.183023991" y2="644.183023991"/>
      <line stroke="#000000" stroke-width="1" x1="671" x2="679" y1="356" y2="334"/>
      <line stroke="#000000" stroke-width="1" x1="674.713906764" x2="682.713906764" y1="357.485562705" y2="335.485562705"/>
      <line stroke="#000000" stroke-width="1" x1="678.427813527" x2="686.427813527" y1="358.971125411" y2="336.971125411"/>
      <line stroke="#000000" stroke-width="1" x1="682.141720291" x2="690.141720291" y1="360.456688116" y2="338.456688116"/>
      <line stroke="#000000" stroke-width="1" x1="685.855627054" x2="693.855627054" y1="361.942250822" y2="339.942250822"/>
      <line stroke="#000000" stroke-width="1" x1="689.569533818" x2="697.569533818" y1="363.427813527" y2="341.427813527"/>
      <line stroke="#000000" stroke-width="1" x1="693.283440581" x2="701.283440581" y1="364.913376232" y2="342.913376232"/>
      <line stroke="#000000" stroke-width="1" x1="648" x2="667" y1="352" y2="359"/>
      <line stroke="#000000" stroke-width="1" x1="646.678598301" x2="665.678598301" y1="355.775433425" y2="362.775433425"/>
      <line stroke="#000000" stroke-width="1" x1="645.357196602" x2="664.357196602" y1="359.550866851" y2="366.550866851"/>
      <line stroke="#000000" stroke-width="1" x1="644.035794903" x2="663.035794903" y1="363.326300276" y2="370.326300276"/>
      <line stroke="#000000" stroke-width="1" x1="642.714393204" x2="661.714393204" y1="367.101733702" y2="374.101733702"/>
      <line stroke="#000000" stroke-width="1" x1="641.392991505" x2="660.392991505" y1="370.877167127" y2="377.877167127"/>
      <line stroke="#000000" stroke-width="1" x1="596" x2="596" y1="478" y2="538"/>
      <line stroke="#000000" stroke-width="1" x1="592" x2="592" y1="478" y2="538"/>
      <line stroke="#000000" stroke-width="1" x1="588" x2="588" y1="478" y2="538"/>
      <line stroke="#000000" stroke-width="1" x1="584" x2="584" y1="478" y2="538"/>
      <line stroke="#000000" stroke-width="1" x1="580" x2="580" y1="478" y2="538"/>
      <line stroke="#000000" stroke-width="1" x1="576" x2="576" y1="478" y2="538"/>
      <line stroke="#000000" stroke-width="1" x1="572" x2="572" y1="478" y2="538"/>
      <line stroke="#000000" stroke-width="1" x1="568" x2="568" y1="478" y2="538"/>
      <line stroke="#000000" stroke-width="1" x1="564" x2="564" y1="478" y2="538"/>
      <line stroke="#000000" stroke-width="1" x1="560" x2="560" y1="478" y2="538"/>
      <line stroke="#000000" stroke-width="1" x1="556" x2="556" y1="478" y2="538"/>
      <line stroke="#000000" stroke-width="1" x1="552" x2="552" y1="478" y2="538"/>
      <line stroke="#000000" stroke-width="1" x1="548" x2="548" y1="478" y2="538"/>
      <line stroke="#000000" stroke-width="1" x1="544" x2="544" y1="478" y2="538"/>
      <line stroke="#000000" stroke-width="1" x1="540" x2="540" y1="478" y2="538"/>
      <line stroke="#000000" stroke-width="1" x1="536" x2="536" y1="478" y2="538"/>
      <line stroke="#000000" stroke-width="1" x1="532" x2="532" y1="478" y2="538"/>
      <polyline fill="none" points="599,539 629,539" stroke="#000000" stroke-width="0.5"/>
      <polygon fill="none" points="660,481 658,486 653,484 655,479" stroke="#000000" stroke-width="1"/>
      <line stroke="#009900" stroke-width="1" x1="651" x2="656" y1="488" y2="490"/>
      <line stroke="#009900" stroke-width="1" x1="649.300371452" x2="654.300371452" y1="491.620947776" y2="493.620947776"/>
      <line stroke="#009900" stroke-width="1" x1="647.600742904" x2="652.600742904" y1="495.241895553" y2="497.241895553"/>
      <line stroke="#009900" stroke-width="1" x1="645.901114356" x2="650.901114356" y1="498.862843329" y2="500.862843329"/>
      <line stroke="#009900" stroke-width="1" x1="644.201485808" x2="649.201485808" y1="502.483791105" y2="504.483791105"/>
      <line stroke="#009900" stroke-width="1" x1="642.50185726" x2="647.50185726" y1="506.104738881" y2="508.104738881"/>
      <line stroke="#009900" stroke-width="1" x1="640.802228712" x2="645.802228712" y1="509.725686658" y2="511.725686658"/>
      <line stroke="#009900" stroke-width="1" x1="639.102600164" x2="644.102600164" y1="513.346634434" y2="515.346634434"/>
      <line stroke="#009900" stroke-width="1" x1="637.402971616" x2="642.402971616" y1="516.96758221" y2="518.96758221"/>
      <line stroke="#009900" stroke-width="1" x1="635.703343068" x2="640.703343068" y1="520.588529987" y2="522.588529987"/>
      <line stroke="#009900" stroke-width="1" x1="634.003714519" x2="639.003714519" y1="524.209477763" y2="526.209477763"/>
      <line stroke="#009900" stroke-width="1" x1="632.304085971" x2="637.304085971" y1="527.830425539" y2="529.830425539"/>
      <line stroke="#009900" stroke-width="1" x1="630.604457423" x2="635.604457423" y1="531.451373316" y2="533.451373316"/>
      <line stroke="#009900" stroke-width="1" x1="628.904828875" x2="633.904828875" y1="535.072321092" y2="537.072321092"/>
      <line stroke="#ff0000" stroke-width="1" x1="660" x2="655" y1="450" y2="450"/>
      <line stroke="#ff0000" stroke-width="1" x1="660" x2="655" y1="454" y2="454"/>
      <line stroke="#ff0000" stroke-width="1" x1="660" x2="655" y1="458" y2="458"/>
      <line stroke="#ff0000" stroke-width="1" x1="660" x2="655" y1="462" y2="462"/>
      <line stroke="#ff0000" stroke-width="1" x1="660" x2="655" y1="466" y2="466"/>
      <line stroke="#ff0000" stroke-width="1" x1="660" x2="655" y1="470" y2="470"/>
      <line stroke="#ff0000" stroke-width="1" x1="660" x2="655" y1="474" y2="474"/>
      <polyline fill="none" points="599,540 590,540 590,567 599,567" stroke="#000000" stroke-width="1"/>
      <text fill="#000000" font-family="Arial" font-size="10" stroke="none" stroke-width="0" transform="rotate(90.0,602,541)" x="602" y="551.0">кассы</text>
      <polyline fill="none" marker-end="url(#id244)" points="680,463 693,463" stroke="#ff0000" stroke-width="1"/>
      <polyline fill="none" marker-end="url(#id244)" points="668,541 654,535" stroke="#009900" stroke-width="1"/>
      <polygon fill="#34349c" points="621,480 626,480 626,478 621,478" stroke="#34349c" stroke-width="1"/>
      <polygon fill="#34349c" points="289,511 289,506 287,506 287,511" stroke="#34349c" stroke-width="1"/>
      <polygon fill="#ff0000" points="616,480 621,480 621,478 616,478" stroke="#ff0000" stroke-width="1"/>
      <polygon fill="#ff0000" points="289,516 289,511 287,511 287,516" stroke="#ff0000" stroke-width="1"/>
      <text fill="#00afaf" font-family="Arial" font-size="20" stroke="none" stroke-width="0" transform="rotate(30.0,754,535)" x="754" y="555.0">Электролитный проезд</text>
      <text fill="#00afaf" font-family="Arial" font-size="20" stroke="none" stroke-width="0" transform="rotate(30.0,248,242)" x="248" y="262.0">Электролитный проезд</text>
      <text fill="#00afaf" font-family="Arial" font-size="20" stroke="none" stroke-width="0" transform="rotate(120.0,270,66)" x="270" y="86.0">улица Ремизова</text>
      <text fill="#00afaf" font-family="Arial" font-size="20" stroke="none" stroke-width="0" transform="rotate(150.0,106,282)" x="106" y="302.0">Криворожская улица</text>
    </g>
    <g>
      <rect fill="#615f56" height="30" stroke="none" stroke-width="0" width="30" x="400" y="188"/>
      <rect fill="#615f56" height="30" stroke="none" stroke-width="0" width="30" x="710" y="142"/>
      <rect fill="#615f56" height="30" stroke="none" stroke-width="0" width="30" x="695" y="256"/>
      <text fill="#ffd900" font-family="Arial" font-size="25" stroke="none" stroke-width="0" x="408" y="214.0">1</text>
      <text fill="#ffd900" font-family="Arial" font-size="25" stroke="none" stroke-width="0" x="718" y="168.0">2</text>
      <text fill="#ffd900" font-family="Arial" font-size="25" stroke="none" stroke-width="0" x="703" y="282.0">3</text>
    </g>
  </g>
</svg>
