<svg xmlns="http://www.w3.org/2000/svg" version="1.1">
<defs>
    <marker id="arrow"
      viewBox="0 0 10 10" refX="0" refY="5"
      markerUnits="strokeWidth"
      markerWidth="4" markerHeight="3"
      orient="auto">
      <path d="M 0 0 L 10 5 L 0 10 z" />
    </marker>
  </defs>
<g stroke="#000000" fill="none" stroke-opacity="1.0" fill-opacity="1.0" transform="scale(0.5)">
<rect x="0" y="0" width="1070" height="1240" stroke-width="0" fill="none" />
<g stroke="#000000" fill="none" stroke-opacity="1.0" fill-opacity="1.0" transform="scale(0.5)">
</g>
<g transform="rotate(-20.0 535 620)" >
<g stroke="#000000" fill="none" stroke-opacity="1.0" fill-opacity="1.0" transform="scale(0.5)">
</g>
<g stroke="#000000" fill="#9CA4A4" stroke-opacity="1.0" fill-opacity="1.0" transform="scale(0.5)">
<polygon points="604,322  629,305  887,674  862,691" stroke-width="1" />
<polygon points="514,385  539,368  797,737  772,754" stroke-width="1" />
</g>
<g stroke="#4C4C4C" fill="none" stroke-opacity="1.0" fill-opacity="1.0" transform="scale(0.5)">
<text x=" 535" y="430.0" font-family="Arial" font-size=" 15" fill="#4C4C4C" transform="rotate(55.0  535  415)" stroke-width="0">Цветной бульвар &gt;&gt;</text>
<text x=" 644" y="309.0" font-family="Arial" font-size=" 15" fill="#4C4C4C" transform="rotate(55.0  644  294)" stroke-width="0">&lt;&lt; Савеловская</text>
<text x=" 666" y="471.0" font-family="Arial" font-size=" 25" fill="#4C4C4C" transform="rotate(55.0  666  446)" stroke-width="0">Менделеевская</text>
</g>
<g stroke="#34349C" fill="#34349C" stroke-opacity="1.0" fill-opacity="1.0" transform="scale(0.5)">
<polygon points="625,420  622,422  623,423  626,421" stroke-width="1" />
</g>
<g stroke="#FF0000" fill="#FF0000" stroke-opacity="1.0" fill-opacity="1.0" transform="scale(0.5)">
<polygon points="628,418  625,420  626,421  629,419" stroke-width="1" />
</g>
<g stroke="#000000" fill="#FF0000" stroke-opacity="1.0" fill-opacity="1.0" transform="scale(0.5)">
<polyline points="522,241  536,231  520,209  548,189  485,100  540,62  524,-26  448,-19" stroke-width="1" fill="none"  />
<polyline points="450,11  494,7  500,44  345,153  349,159  325,176  184,151  192,108" stroke-width="1" fill="none"  />
<polyline points="171,104  149,231" stroke-width="1" fill="none"  />
<polyline points="170,235  177,191  319,216  367,183  429,272  462,249  478,272  491,263" stroke-width="1" fill="none"  />
<polyline points="539,368  547,362  585,416  594,410  563,366" stroke-width="1" fill="none"  />
<polyline points="595,345  625,388  634,382  596,327  604,322" stroke-width="1" fill="none"  />
<line x1="170" y1="232" x2="149" y2="228" stroke-width="1" />
<line x1="170.724649718" y1="228.066187246" x2="149.724649718" y2="224.066187246" stroke-width="1" />
<line x1="171.449299436" y1="224.132374491" x2="150.449299436" y2="220.132374491" stroke-width="1" />
<line x1="172.173949154" y1="220.198561737" x2="151.173949154" y2="216.198561737" stroke-width="1" />
<line x1="172.898598872" y1="216.264748983" x2="151.898598872" y2="212.264748983" stroke-width="1" />
<line x1="173.62324859" y1="212.330936228" x2="152.62324859" y2="208.330936228" stroke-width="1" />
<line x1="174.347898307" y1="208.397123474" x2="153.347898307" y2="204.397123474" stroke-width="1" />
<line x1="175.072548025" y1="204.46331072" x2="154.072548025" y2="200.46331072" stroke-width="1" />
<line x1="175.797197743" y1="200.529497965" x2="154.797197743" y2="196.529497965" stroke-width="1" />
<line x1="176.521847461" y1="196.595685211" x2="155.521847461" y2="192.595685211" stroke-width="1" />
<line x1="191" y1="111" x2="170" y2="107" stroke-width="1" />
<line x1="190.359715366" y1="114.948421911" x2="169.359715366" y2="110.948421911" stroke-width="1" />
<line x1="189.719430732" y1="118.896843822" x2="168.719430732" y2="114.896843822" stroke-width="1" />
<line x1="189.079146097" y1="122.845265733" x2="168.079146097" y2="118.845265733" stroke-width="1" />
<line x1="188.438861463" y1="126.793687644" x2="167.438861463" y2="122.793687644" stroke-width="1" />
<line x1="187.798576829" y1="130.742109555" x2="166.798576829" y2="126.742109555" stroke-width="1" />
<line x1="187.158292195" y1="134.690531466" x2="166.158292195" y2="130.690531466" stroke-width="1" />
<line x1="186.51800756" y1="138.638953377" x2="165.51800756" y2="134.638953377" stroke-width="1" />
<line x1="185.877722926" y1="142.587375288" x2="164.877722926" y2="138.587375288" stroke-width="1" />
<line x1="185.237438292" y1="146.535797199" x2="164.237438292" y2="142.535797199" stroke-width="1" />
<line x1="367" y1="183" x2="485" y2="100" stroke-width="1" />
<line x1="369.276839915" y1="186.288768767" x2="487.276839915" y2="103.288768767" stroke-width="1" />
<line x1="371.553679831" y1="189.577537533" x2="489.553679831" y2="106.577537533" stroke-width="1" />
<line x1="373.830519746" y1="192.8663063" x2="491.830519746" y2="109.8663063" stroke-width="1" />
<line x1="452" y1="11" x2="450" y2="-19" stroke-width="1" />
<line x1="455.978021812" y1="10.5812608619" x2="453.978021812" y2="-19.4187391381" stroke-width="1" />
<line x1="459.956043623" y1="10.1625217239" x2="457.956043623" y2="-19.8374782761" stroke-width="1" />
<line x1="463.934065435" y1="9.74378258578" x2="461.934065435" y2="-20.2562174142" stroke-width="1" />
<line x1="467.912087247" y1="9.32504344771" x2="465.912087247" y2="-20.6749565523" stroke-width="1" />
<line x1="471.890109058" y1="8.90630430964" x2="469.890109058" y2="-21.0936956904" stroke-width="1" />
<line x1="475.86813087" y1="8.48756517157" x2="473.86813087" y2="-21.5124348284" stroke-width="1" />
<line x1="479.846152682" y1="8.06882603349" x2="477.846152682" y2="-21.9311739665" stroke-width="1" />
<line x1="483.824174493" y1="7.65008689542" x2="481.824174493" y2="-22.3499131046" stroke-width="1" />
<line x1="487.802196305" y1="7.23134775735" x2="485.802196305" y2="-22.7686522426" stroke-width="1" />
<line x1="500" y1="44" x2="522" y2="75" stroke-width="1" />
<line x1="496.745066115" y1="46.3249527749" x2="518.745066115" y2="77.3249527749" stroke-width="1" />
<line x1="493.49013223" y1="48.6499055498" x2="515.49013223" y2="79.6499055498" stroke-width="1" />
<line x1="490.235198346" y1="50.9748583246" x2="512.235198346" y2="81.9748583246" stroke-width="1" />
<line x1="486.980264461" y1="53.2998110995" x2="508.980264461" y2="84.2998110995" stroke-width="1" />
</g>
<g stroke="#000000" fill="#D0D0D0" stroke-opacity="1.0" fill-opacity="1.0" transform="scale(0.5)">
<polygon points="413,175  421,188  472,152  463,140" stroke-width="1" />
</g>
<g stroke="#7F7F7F" fill="#D0D0D0" stroke-opacity="1.0" fill-opacity="1.0" transform="scale(0.5)">
<line x1="562" y1="360" x2="589" y2="341" stroke-width="1" />
<line x1="559.688732302" y1="356.735334377" x2="586.688732302" y2="337.735334377" stroke-width="1" />
<line x1="557.377464605" y1="353.470668754" x2="584.377464605" y2="334.470668754" stroke-width="1" />
<line x1="555.066196907" y1="350.206003131" x2="582.066196907" y2="331.206003131" stroke-width="1" />
<line x1="552.754929209" y1="346.941337508" x2="579.754929209" y2="327.941337508" stroke-width="1" />
<line x1="550.443661512" y1="343.676671885" x2="577.443661512" y2="324.676671885" stroke-width="1" />
<line x1="548.132393814" y1="340.412006262" x2="575.132393814" y2="321.412006262" stroke-width="1" />
<line x1="545.821126116" y1="337.147340639" x2="572.821126116" y2="318.147340639" stroke-width="1" />
<line x1="543.509858419" y1="333.882675016" x2="570.509858419" y2="314.882675016" stroke-width="1" />
<line x1="541.198590721" y1="330.618009393" x2="568.198590721" y2="311.618009393" stroke-width="1" />
<line x1="538.887323023" y1="327.35334377" x2="565.887323023" y2="308.35334377" stroke-width="1" />
<line x1="536.576055326" y1="324.088678147" x2="563.576055326" y2="305.088678147" stroke-width="1" />
<line x1="534.264787628" y1="320.824012525" x2="561.264787628" y2="301.824012525" stroke-width="1" />
<line x1="531.95351993" y1="317.559346902" x2="558.95351993" y2="298.559346902" stroke-width="1" />
<line x1="529.642252233" y1="314.294681279" x2="556.642252233" y2="295.294681279" stroke-width="1" />
<line x1="527.330984535" y1="311.030015656" x2="554.330984535" y2="292.030015656" stroke-width="1" />
<line x1="525.019716837" y1="307.765350033" x2="552.019716837" y2="288.765350033" stroke-width="1" />
<line x1="522.70844914" y1="304.50068441" x2="549.70844914" y2="285.50068441" stroke-width="1" />
<line x1="520.397181442" y1="301.236018787" x2="547.397181442" y2="282.236018787" stroke-width="1" />
<line x1="518.085913744" y1="297.971353164" x2="545.085913744" y2="278.971353164" stroke-width="1" />
<line x1="515.774646047" y1="294.706687541" x2="542.774646047" y2="275.706687541" stroke-width="1" />
<line x1="513.463378349" y1="291.442021918" x2="540.463378349" y2="272.442021918" stroke-width="1" />
<line x1="511.152110651" y1="288.177356295" x2="538.152110651" y2="269.177356295" stroke-width="1" />
<line x1="508.840842954" y1="284.912690672" x2="535.840842954" y2="265.912690672" stroke-width="1" />
<line x1="506.529575256" y1="281.648025049" x2="533.529575256" y2="262.648025049" stroke-width="1" />
<line x1="504.218307558" y1="278.383359426" x2="531.218307558" y2="259.383359426" stroke-width="1" />
<line x1="501.907039861" y1="275.118693803" x2="528.907039861" y2="256.118693803" stroke-width="1" />
<line x1="499.595772163" y1="271.85402818" x2="526.595772163" y2="252.85402818" stroke-width="1" />
<line x1="497.284504465" y1="268.589362557" x2="524.284504465" y2="249.589362557" stroke-width="1" />
<line x1="494.973236768" y1="265.324696934" x2="521.973236768" y2="246.324696934" stroke-width="1" />
<line x1="492.66196907" y1="262.060031311" x2="519.66196907" y2="243.060031311" stroke-width="1" />
<line x1="490.350701372" y1="258.795365688" x2="517.350701372" y2="239.795365688" stroke-width="1" />
<line x1="488.039433675" y1="255.530700065" x2="515.039433675" y2="236.530700065" stroke-width="1" />
<line x1="485.728165977" y1="252.266034442" x2="512.728165977" y2="233.266034442" stroke-width="1" />
<line x1="483.416898279" y1="249.001368819" x2="510.416898279" y2="230.001368819" stroke-width="1" />
</g>
<g stroke="#000000" fill="#9B5509" stroke-opacity="1.0" fill-opacity="1.0" transform="scale(0.5)">
<polygon points="563,366  478,245  480,244  565,365" stroke-width="1" />
<polygon points="570,362  484,240  487,238  573,360" stroke-width="1" />
<polygon points="578,356  492,234  495,232  581,354" stroke-width="1" />
<polygon points="586,351  500,229  503,227  589,349" stroke-width="1" />
<polygon points="593,346  507,224  509,223  595,345" stroke-width="1" />
</g>
<g stroke="#000000" fill="#FFFFFF" stroke-opacity="1.0" fill-opacity="1.0" transform="scale(0.5)">
<polyline points="456,254  461,261  438,277  433,270" stroke-width="1" fill="none"  />
</g>
<g stroke="#000000" fill="none" stroke-opacity="1.0" fill-opacity="1.0" transform="scale(0.5)">
<text x=" 434" y="277.0" font-family="Arial" font-size=" 10" fill="#000000" transform="rotate(-35.0  434  267)" stroke-width="0">кассы</text>
</g>
<g stroke="#000000" fill="none" stroke-opacity="1.0" fill-opacity="1.0" transform="scale(0.5)">
<polyline points="465,157  481,180" stroke-width=" 0.5" fill="none"  />
<polyline points="486,177  472,187" stroke-width=" 0.5" fill="none"  />
<polygon points="473,189  469,192  466,188  470,185" stroke-width="1" />
</g>
<g stroke="#009900" fill="none" stroke-opacity="1.0" fill-opacity="1.0" transform="scale(0.5)">
<line x1="466" y1="196" x2="470" y2="197" stroke-width="1" />
<line x1="465.476246523" y1="199.96556204" x2="469.476246523" y2="200.96556204" stroke-width="1" />
<line x1="464.952493046" y1="203.931124081" x2="468.952493046" y2="204.931124081" stroke-width="1" />
<line x1="464.428739569" y1="207.896686121" x2="468.428739569" y2="208.896686121" stroke-width="1" />
<line x1="463.904986092" y1="211.862248161" x2="467.904986092" y2="212.862248161" stroke-width="1" />
<line x1="463.381232615" y1="215.827810201" x2="467.381232615" y2="216.827810201" stroke-width="1" />
<line x1="462.857479138" y1="219.793372242" x2="466.857479138" y2="220.793372242" stroke-width="1" />
<line x1="462.333725661" y1="223.758934282" x2="466.333725661" y2="224.758934282" stroke-width="1" />
<line x1="461.809972184" y1="227.724496322" x2="465.809972184" y2="228.724496322" stroke-width="1" />
<line x1="461.286218707" y1="231.690058363" x2="465.286218707" y2="232.690058363" stroke-width="1" />
<line x1="460.76246523" y1="235.655620403" x2="464.76246523" y2="236.655620403" stroke-width="1" />
<line x1="460.238711753" y1="239.621182443" x2="464.238711753" y2="240.621182443" stroke-width="1" />
<line x1="459.714958276" y1="243.586744483" x2="463.714958276" y2="244.586744483" stroke-width="1" />
<line x1="459.191204799" y1="247.552306524" x2="463.191204799" y2="248.552306524" stroke-width="1" />
</g>
<g stroke="#FF0000" fill="none" stroke-opacity="1.0" fill-opacity="1.0" transform="scale(0.5)">
<line x1="485" y1="176" x2="487" y2="179" stroke-width="1" />
<line x1="488.267871453" y1="173.69326721" x2="490.267871453" y2="176.69326721" stroke-width="1" />
<line x1="491.535742906" y1="171.386534419" x2="493.535742906" y2="174.386534419" stroke-width="1" />
<line x1="494.803614359" y1="169.079801629" x2="496.803614359" y2="172.079801629" stroke-width="1" />
<line x1="498.071485812" y1="166.773068838" x2="500.071485812" y2="169.773068838" stroke-width="1" />
<line x1="501.339357265" y1="164.466336048" x2="503.339357265" y2="167.466336048" stroke-width="1" />
<line x1="504.607228718" y1="162.159603258" x2="506.607228718" y2="165.159603258" stroke-width="1" />
<line x1="507.875100171" y1="159.852870467" x2="509.875100171" y2="162.852870467" stroke-width="1" />
<line x1="511.142971624" y1="157.546137677" x2="513.142971624" y2="160.546137677" stroke-width="1" />
<line x1="514.410843078" y1="155.239404886" x2="516.410843078" y2="158.239404886" stroke-width="1" />
<line x1="517.678714531" y1="152.932672096" x2="519.678714531" y2="155.932672096" stroke-width="1" />
</g>
<g stroke="#34349C" fill="#34349C" stroke-opacity="1.0" fill-opacity="1.0" transform="scale(0.5)">
<polygon points="513,199  515,202  516,201  514,198" stroke-width="1" />
</g>
<g stroke="#FF0000" fill="#FF0000" stroke-opacity="1.0" fill-opacity="1.0" transform="scale(0.5)">
<polygon points="511,196  513,199  514,198  512,195" stroke-width="1" />
</g>
<g stroke="#FF0000" fill="#FF0000" stroke-opacity="1.0" fill-opacity="1.0" transform="scale(0.5)">
<polyline points="490,142  481,129" marker-end="url(#arrow)" stroke-width="1" fill="none" />
</g>
<g stroke="#009900" fill="#FF0000" stroke-opacity="1.0" fill-opacity="1.0" transform="scale(0.5)">
<polyline points="397,188  406,202" marker-end="url(#arrow)" stroke-width="1" fill="none" />
</g>
<g stroke="#000000" fill="#FF0000" stroke-opacity="1.0" fill-opacity="1.0" transform="scale(0.5)">
<polyline points="797,737  862,691" stroke-width="1" fill="none"  />
</g>
<g stroke="#000000" fill="#9B5509" stroke-opacity="1.0" fill-opacity="1.0" transform="scale(0.5)">
<polygon points="912,1043  912,1073  462,1073  462,1043" stroke-width="1" />
<polygon points="912,963  912,933  462,933  462,963" stroke-width="1" />
</g>
<g stroke="#543C04" fill="none" stroke-opacity="1.0" fill-opacity="1.0" transform="scale(0.5)">
<text x=" 469" y="929.0" font-family="Arial" font-size=" 15" fill="#543C04" stroke-width="0">&lt;&lt; Белорусская</text>
<text x=" 789" y="1088.0" font-family="Arial" font-size=" 15" fill="#543C04" stroke-width="0">Проспект Мира &gt;&gt;</text>
<text x=" 590" y="1015.0" font-family="Arial" font-size=" 25" fill="#543C04" stroke-width="0">Новослободская</text>
</g>
<g stroke="#34349C" fill="#34349C" stroke-opacity="1.0" fill-opacity="1.0" transform="scale(0.5)">
<polygon points="509,1023  505,1023  505,1024  509,1024" stroke-width="1" />
</g>
<g stroke="#FF0000" fill="#FF0000" stroke-opacity="1.0" fill-opacity="1.0" transform="scale(0.5)">
<polygon points="513,1023  509,1023  509,1024  513,1024" stroke-width="1" />
</g>
<g stroke="#000000" fill="#FF0000" stroke-opacity="1.0" fill-opacity="1.0" transform="scale(0.5)">
<polyline points="912,963  912,971  873,971  873,981  886,981  886,1025  873,1025  873,1036  912,1036  912,1043" stroke-width="1" fill="none"  />
</g>
<g stroke="#000000" fill="#FF0000" stroke-opacity="1.0" fill-opacity="1.0" transform="scale(0.5)">
<polyline points="462,963  462,971  517,971  517,979  480,979  480,983" stroke-width="1" fill="none"  />
<polyline points="480,1023  480,1027  518,1027  518,1035  462,1035  462,1043" stroke-width="1" fill="none"  />
<polyline points="300,934  289,906" stroke-width="1" fill="none"  />
<polyline points="203,1057  178,1071" stroke-width="1" fill="none"  />
<polyline points="289,1100  300,1072" stroke-width="1" fill="none"  />
<polyline points="327,1138  327,1107" stroke-width="1" fill="none"  />
<polyline points="327,899  327,868" stroke-width="1" fill="none"  />
<polyline points="196,969  146,969  146,991  133,991" stroke-width="1" fill="none"  />
<polyline points="147,1086  133,1086" stroke-width="1" fill="none"  />
<polyline points="300,1072  334,1077  365,1066  387,1045  397,1023" stroke-width="1" fill="none"/> <!-- spline -->
<polyline points="397,983  387,961  365,940  334,929  300,934" stroke-width="1" fill="none"/> <!-- spline -->
<polyline points="327,868  291,873  259,886  232,907  211,934  196,969" stroke-width="1" fill="none"/> <!-- spline -->
<polyline points="203,1057  230,1097  259,1119  291,1133  327,1138" stroke-width="1" fill="none"/> <!-- spline -->
<polyline points="327,899  307,901  289,906" stroke-width="1" fill="none"/> <!-- spline -->
<polyline points="327,1107  307,1105  289,1100" stroke-width="1" fill="none"/> <!-- spline -->
</g>
<g stroke="#D0D0D0" fill="#D0D0D0" stroke-opacity="1.0" fill-opacity="1.0" transform="scale(0.5)">
<polygon points="253,929  275,951  268,959  263,966  260,973  256,983  254,994  253,1003  255,1015  256,1022  260,1032  263,1040  268,1048  275,1056  253,1078  244,1066  237,1055  231,1042  227,1030  224,1015  223,1003  224,990  227,975  231,963  237,951  245,939" stroke-width="1" />
</g>
<g stroke="#000000" fill="#D0D0D0" stroke-opacity="1.0" fill-opacity="1.0" transform="scale(0.5)">
<polyline points="253,929  275,951" stroke-width="1" fill="none"  />
<polyline points="275,1056  253,1078" stroke-width="1" fill="none"  />
<polyline points="275,1056  264,1040  257,1022  254,1003  257,983  264,966  275,951" stroke-width="1" fill="none"/> <!-- spline -->
<polyline points="253,1078  237,1055  227,1030  223,1003  227,975  237,951  253,929" stroke-width="1" fill="none"/> <!-- spline -->
<polygon points="133,1012  144,1012  144,1029  133,1029" stroke-width="1" />
<polygon points="133,1047  144,1047  144,1064  133,1064" stroke-width="1" />
</g>
<g stroke="#7F7F7F" fill="#D0D0D0" stroke-opacity="1.0" fill-opacity="1.0" transform="scale(0.5)">
<line x1="482" y1="1020" x2="482" y2="986" stroke-width="1" />
<line x1="478" y1="1020" x2="478" y2="986" stroke-width="1" />
<line x1="474" y1="1020" x2="474" y2="986" stroke-width="1" />
<line x1="470" y1="1020" x2="470" y2="986" stroke-width="1" />
<line x1="466" y1="1020" x2="466" y2="986" stroke-width="1" />
<line x1="462" y1="1020" x2="462" y2="986" stroke-width="1" />
<line x1="458" y1="1020" x2="458" y2="986" stroke-width="1" />
<line x1="454" y1="1020" x2="454" y2="986" stroke-width="1" />
<line x1="450" y1="1020" x2="450" y2="986" stroke-width="1" />
<line x1="446" y1="1020" x2="446" y2="986" stroke-width="1" />
<line x1="442" y1="1020" x2="442" y2="986" stroke-width="1" />
<line x1="438" y1="1020" x2="438" y2="986" stroke-width="1" />
<line x1="434" y1="1020" x2="434" y2="986" stroke-width="1" />
<line x1="430" y1="1020" x2="430" y2="986" stroke-width="1" />
<line x1="426" y1="1020" x2="426" y2="986" stroke-width="1" />
<line x1="422" y1="1020" x2="422" y2="986" stroke-width="1" />
<line x1="418" y1="1020" x2="418" y2="986" stroke-width="1" />
<line x1="414" y1="1020" x2="414" y2="986" stroke-width="1" />
<line x1="410" y1="1020" x2="410" y2="986" stroke-width="1" />
<line x1="406" y1="1020" x2="406" y2="986" stroke-width="1" />
<line x1="402" y1="1020" x2="402" y2="986" stroke-width="1" />
<line x1="398" y1="1020" x2="398" y2="986" stroke-width="1" />
<line x1="394" y1="1020" x2="394" y2="986" stroke-width="1" />
<line x1="390" y1="1020" x2="390" y2="986" stroke-width="1" />
</g>
<g stroke="#000000" fill="#9B5509" stroke-opacity="1.0" fill-opacity="1.0" transform="scale(0.5)">
<polygon points="489,986  380,986  380,983  489,983" stroke-width="1" />
<polygon points="489,994  489,999  380,999  380,994" stroke-width="1" />
<polygon points="489,1007  489,1012  380,1012  380,1007" stroke-width="1" />
<polygon points="489,1020  380,1020  380,1023  489,1023" stroke-width="1" />
</g>
<g stroke="#000000" fill="#FFFFFF" stroke-opacity="1.0" fill-opacity="1.0" transform="scale(0.5)">
<polyline points="159,969  159,961  188,961  188,969" stroke-width="1" fill="none"  />
</g>
<g stroke="#000000" fill="none" stroke-opacity="1.0" fill-opacity="1.0" transform="scale(0.5)">
<text x=" 161" y="968.0" font-family="Arial" font-size=" 10" fill="#000000" stroke-width="0">кассы</text>
</g>
<g stroke="#000000" fill="none" stroke-opacity="1.0" fill-opacity="1.0" transform="scale(0.5)">
<polyline points="272,1051  322,1009  380,1009" stroke-width=" 0.5" fill="none"  />
<polygon points="265,995  269,999  265,1003  261,999" stroke-width="1" />
</g>
<g stroke="#009900" fill="none" stroke-opacity="1.0" fill-opacity="1.0" transform="scale(0.5)">
<line x1="269" y1="992" x2="272" y2="995" stroke-width="1" />
<line x1="271.828427125" y1="989.171572875" x2="274.828427125" y2="992.171572875" stroke-width="1" />
<line x1="274.656854249" y1="986.343145751" x2="277.656854249" y2="989.343145751" stroke-width="1" />
<line x1="277.485281374" y1="983.514718626" x2="280.485281374" y2="986.514718626" stroke-width="1" />
<line x1="280.313708499" y1="980.686291501" x2="283.313708499" y2="983.686291501" stroke-width="1" />
<line x1="283.142135624" y1="977.857864376" x2="286.142135624" y2="980.857864376" stroke-width="1" />
<line x1="285.970562748" y1="975.029437252" x2="288.970562748" y2="978.029437252" stroke-width="1" />
<line x1="288.798989873" y1="972.201010127" x2="291.798989873" y2="975.201010127" stroke-width="1" />
<line x1="291.627416998" y1="969.372583002" x2="294.627416998" y2="972.372583002" stroke-width="1" />
<line x1="294.455844123" y1="966.544155877" x2="297.455844123" y2="969.544155877" stroke-width="1" />
<line x1="297.284271247" y1="963.715728753" x2="300.284271247" y2="966.715728753" stroke-width="1" />
<line x1="300.112698372" y1="960.887301628" x2="303.112698372" y2="963.887301628" stroke-width="1" />
<line x1="302.941125497" y1="958.058874503" x2="305.941125497" y2="961.058874503" stroke-width="1" />
<line x1="305.769552622" y1="955.230447378" x2="308.769552622" y2="958.230447378" stroke-width="1" />
<line x1="308.597979746" y1="952.402020254" x2="311.597979746" y2="955.402020254" stroke-width="1" />
<line x1="311.426406871" y1="949.573593129" x2="314.426406871" y2="952.573593129" stroke-width="1" />
<line x1="314.254833996" y1="946.745166004" x2="317.254833996" y2="949.745166004" stroke-width="1" />
<line x1="317.083261121" y1="943.916738879" x2="320.083261121" y2="946.916738879" stroke-width="1" />
<line x1="319.911688245" y1="941.088311755" x2="322.911688245" y2="944.088311755" stroke-width="1" />
<line x1="322.74011537" y1="938.25988463" x2="325.74011537" y2="941.25988463" stroke-width="1" />
<line x1="325.568542495" y1="935.431457505" x2="328.568542495" y2="938.431457505" stroke-width="1" />
<line x1="328.39696962" y1="932.60303038" x2="331.39696962" y2="935.60303038" stroke-width="1" />
<line x1="331.225396744" y1="929.774603256" x2="334.225396744" y2="932.774603256" stroke-width="1" />
</g>
<g stroke="#FF0000" fill="none" stroke-opacity="1.0" fill-opacity="1.0" transform="scale(0.5)">
<polyline points="287,1065  270,1091" marker-end="url(#arrow)" stroke-width="1" fill="none" />
<polyline points="156,1074  133,1074" marker-end="url(#arrow)" stroke-width="1" fill="none" />
<polyline points="161,1078  161,1100" marker-end="url(#arrow)" stroke-width="1" fill="none" />
</g>
<g stroke="#009900" fill="none" stroke-opacity="1.0" fill-opacity="1.0" transform="scale(0.5)">
<polyline points="270,916  287,941" marker-end="url(#arrow)" stroke-width="1" fill="none" />
<polyline points="133,1038  154,1038" marker-end="url(#arrow)" stroke-width="1" fill="none" />
<polyline points="133,1002  154,1002" marker-end="url(#arrow)" stroke-width="1" fill="none" />
</g>
<g stroke="#34349C" fill="#34349C" stroke-opacity="1.0" fill-opacity="1.0" transform="scale(0.5)">
<polygon points="258,1007  258,1003  259,1003  259,1007" stroke-width="1" />
</g>
<g stroke="#FF0000" fill="#FF0000" stroke-opacity="1.0" fill-opacity="1.0" transform="scale(0.5)">
<polygon points="258,1011  258,1007  259,1007  259,1011" stroke-width="1" />
</g>
<g stroke="#FFFFFF" fill="#FFFFFF" stroke-opacity="0.8" fill-opacity="0.8" transform="scale(0.5)">
<polygon points="760,932  775,932  775,964  760,964" stroke-width="1" />
<polygon points="788,932  802,932  802,964  788,964" stroke-width="1" />
<polygon points="816,932  831,932  831,964  816,964" stroke-width="1" />
<polygon points="624,545  651,526  661,542  635,560" stroke-width="1" />
<polygon points="641,568  668,549  679,565  651,584" stroke-width="1" />
<polygon points="689,639  717,620  729,636  702,655" stroke-width="1" />
<polygon points="706,663  733,644  745,660  718,679" stroke-width="1" />
</g>
<g stroke="#000000" fill="#FFFFFF" stroke-opacity="1.0" fill-opacity="1.0" transform="scale(0.5)">
<polyline points="737,814  731,818  760,859  760,983" stroke-width="1" fill="none"  />
<polyline points="775,983  775,898  788,898  788,983" stroke-width="1" fill="none"  />
<polyline points="802,983  802,898  816,898  816,983" stroke-width="1" fill="none"  />
<polyline points="831,983  831,857  780,784  774,788" stroke-width="1" fill="none"  />
<polyline points="663,517  611,553  608,549  570,576  672,722  666,726  698,772  704,768" stroke-width="1" fill="none"  />
<polyline points="741,741  749,736  717,691  711,695  706,688  757,652" stroke-width="1" fill="none"  />
<polyline points="745,635  694,671  689,664  741,628" stroke-width="1" fill="none"  />
<polyline points="729,611  677,647  639,593  691,557" stroke-width="1" fill="none"  />
<polyline points="679,541  628,576  623,569  674,533" stroke-width="1" fill="none"  />
<line x1="641" y1="556" x2="630" y2="540" stroke-width="1" />
<line x1="644.262028579" y1="553.685011976" x2="633.262028579" y2="537.685011976" stroke-width="1" />
<line x1="647.524057158" y1="551.370023952" x2="636.524057158" y2="535.370023952" stroke-width="1" />
<line x1="650.786085737" y1="549.055035929" x2="639.786085737" y2="533.055035929" stroke-width="1" />
<line x1="654.048114316" y1="546.740047905" x2="643.048114316" y2="530.740047905" stroke-width="1" />
<line x1="657.310142895" y1="544.425059881" x2="646.310142895" y2="528.425059881" stroke-width="1" />
<line x1="660.572171474" y1="542.110071857" x2="649.572171474" y2="526.110071857" stroke-width="1" />
<line x1="663.834200053" y1="539.795083834" x2="652.834200053" y2="523.795083834" stroke-width="1" />
<line x1="667.096228632" y1="537.48009581" x2="656.096228632" y2="521.48009581" stroke-width="1" />
<line x1="670.35825721" y1="535.165107786" x2="659.35825721" y2="519.165107786" stroke-width="1" />
<line x1="658" y1="580" x2="647" y2="564" stroke-width="1" />
<line x1="661.262028579" y1="577.685011976" x2="650.262028579" y2="561.685011976" stroke-width="1" />
<line x1="664.524057158" y1="575.370023952" x2="653.524057158" y2="559.370023952" stroke-width="1" />
<line x1="667.786085737" y1="573.055035929" x2="656.786085737" y2="557.055035929" stroke-width="1" />
<line x1="671.048114316" y1="570.740047905" x2="660.048114316" y2="554.740047905" stroke-width="1" />
<line x1="674.310142895" y1="568.425059881" x2="663.310142895" y2="552.425059881" stroke-width="1" />
<line x1="677.572171474" y1="566.110071857" x2="666.572171474" y2="550.110071857" stroke-width="1" />
<line x1="680.834200053" y1="563.795083834" x2="669.834200053" y2="547.795083834" stroke-width="1" />
<line x1="684.096228632" y1="561.48009581" x2="673.096228632" y2="545.48009581" stroke-width="1" />
<line x1="687.35825721" y1="559.165107786" x2="676.35825721" y2="543.165107786" stroke-width="1" />
<line x1="708" y1="651" x2="696" y2="634" stroke-width="1" />
<line x1="711.262028579" y1="648.685011976" x2="699.262028579" y2="631.685011976" stroke-width="1" />
<line x1="714.524057158" y1="646.370023952" x2="702.524057158" y2="629.370023952" stroke-width="1" />
<line x1="717.786085737" y1="644.055035929" x2="705.786085737" y2="627.055035929" stroke-width="1" />
<line x1="721.048114316" y1="641.740047905" x2="709.048114316" y2="624.740047905" stroke-width="1" />
<line x1="724.310142895" y1="639.425059881" x2="712.310142895" y2="622.425059881" stroke-width="1" />
<line x1="727.572171474" y1="637.110071857" x2="715.572171474" y2="620.110071857" stroke-width="1" />
<line x1="730.834200053" y1="634.795083834" x2="718.834200053" y2="617.795083834" stroke-width="1" />
<line x1="734.096228632" y1="632.48009581" x2="722.096228632" y2="615.48009581" stroke-width="1" />
<line x1="737.35825721" y1="630.165107786" x2="725.35825721" y2="613.165107786" stroke-width="1" />
<line x1="724" y1="675" x2="712" y2="658" stroke-width="1" />
<line x1="727.296167697" y1="672.733884708" x2="715.296167697" y2="655.733884708" stroke-width="1" />
<line x1="730.592335394" y1="670.467769417" x2="718.592335394" y2="653.467769417" stroke-width="1" />
<line x1="733.88850309" y1="668.201654125" x2="721.88850309" y2="651.201654125" stroke-width="1" />
<line x1="737.184670787" y1="665.935538834" x2="725.184670787" y2="648.935538834" stroke-width="1" />
<line x1="740.480838484" y1="663.669423542" x2="728.480838484" y2="646.669423542" stroke-width="1" />
<line x1="743.777006181" y1="661.403308251" x2="731.777006181" y2="644.403308251" stroke-width="1" />
<line x1="747.073173878" y1="659.137192959" x2="735.073173878" y2="642.137192959" stroke-width="1" />
<line x1="750.369341574" y1="656.871077668" x2="738.369341574" y2="639.871077668" stroke-width="1" />
<line x1="753.665509271" y1="654.604962376" x2="741.665509271" y2="637.604962376" stroke-width="1" />
<line x1="760" y1="943" x2="775" y2="943" stroke-width="1" />
<line x1="760" y1="947" x2="775" y2="947" stroke-width="1" />
<line x1="760" y1="951" x2="775" y2="951" stroke-width="1" />
<line x1="760" y1="955" x2="775" y2="955" stroke-width="1" />
<line x1="760" y1="959" x2="775" y2="959" stroke-width="1" />
<line x1="760" y1="963" x2="775" y2="963" stroke-width="1" />
<line x1="760" y1="967" x2="775" y2="967" stroke-width="1" />
<line x1="760" y1="971" x2="775" y2="971" stroke-width="1" />
<line x1="760" y1="975" x2="775" y2="975" stroke-width="1" />
<line x1="760" y1="979" x2="775" y2="979" stroke-width="1" />
<line x1="788" y1="943" x2="802" y2="943" stroke-width="1" />
<line x1="788" y1="947" x2="802" y2="947" stroke-width="1" />
<line x1="788" y1="951" x2="802" y2="951" stroke-width="1" />
<line x1="788" y1="955" x2="802" y2="955" stroke-width="1" />
<line x1="788" y1="959" x2="802" y2="959" stroke-width="1" />
<line x1="788" y1="963" x2="802" y2="963" stroke-width="1" />
<line x1="788" y1="967" x2="802" y2="967" stroke-width="1" />
<line x1="788" y1="971" x2="802" y2="971" stroke-width="1" />
<line x1="788" y1="975" x2="802" y2="975" stroke-width="1" />
<line x1="788" y1="979" x2="802" y2="979" stroke-width="1" />
<line x1="816" y1="943" x2="831" y2="943" stroke-width="1" />
<line x1="816" y1="947" x2="831" y2="947" stroke-width="1" />
<line x1="816" y1="951" x2="831" y2="951" stroke-width="1" />
<line x1="816" y1="955" x2="831" y2="955" stroke-width="1" />
<line x1="816" y1="959" x2="831" y2="959" stroke-width="1" />
<line x1="816" y1="963" x2="831" y2="963" stroke-width="1" />
<line x1="816" y1="967" x2="831" y2="967" stroke-width="1" />
<line x1="816" y1="971" x2="831" y2="971" stroke-width="1" />
<line x1="816" y1="975" x2="831" y2="975" stroke-width="1" />
<line x1="816" y1="979" x2="831" y2="979" stroke-width="1" />
</g>
<g stroke="#7F7F7F" fill="#FFFFFF" stroke-opacity="1.0" fill-opacity="1.0" transform="scale(0.5)">
<line x1="741" y1="814" x2="773" y2="792" stroke-width="1" />
<line x1="738.739074239" y1="810.700270511" x2="770.739074239" y2="788.700270511" stroke-width="1" />
<line x1="736.478148478" y1="807.400541021" x2="768.478148478" y2="785.400541021" stroke-width="1" />
<line x1="734.217222716" y1="804.100811532" x2="766.217222716" y2="782.100811532" stroke-width="1" />
<line x1="731.956296955" y1="800.801082043" x2="763.956296955" y2="778.801082043" stroke-width="1" />
<line x1="729.695371194" y1="797.501352554" x2="761.695371194" y2="775.501352554" stroke-width="1" />
<line x1="727.434445433" y1="794.201623064" x2="759.434445433" y2="772.201623064" stroke-width="1" />
<line x1="725.173519672" y1="790.901893575" x2="757.173519672" y2="768.901893575" stroke-width="1" />
<line x1="722.912593911" y1="787.602164086" x2="754.912593911" y2="765.602164086" stroke-width="1" />
<line x1="720.651668149" y1="784.302434596" x2="752.651668149" y2="762.302434596" stroke-width="1" />
<line x1="718.390742388" y1="781.002705107" x2="750.390742388" y2="759.002705107" stroke-width="1" />
<line x1="716.129816627" y1="777.702975618" x2="748.129816627" y2="755.702975618" stroke-width="1" />
<line x1="713.868890866" y1="774.403246129" x2="745.868890866" y2="752.403246129" stroke-width="1" />
<line x1="711.607965105" y1="771.103516639" x2="743.607965105" y2="749.103516639" stroke-width="1" />
<line x1="709.347039344" y1="767.80378715" x2="741.347039344" y2="745.80378715" stroke-width="1" />
<line x1="707.086113582" y1="764.504057661" x2="739.086113582" y2="742.504057661" stroke-width="1" />
<line x1="704.825187821" y1="761.204328171" x2="736.825187821" y2="739.204328171" stroke-width="1" />
</g>
<g stroke="#000000" fill="#9B5509" stroke-opacity="1.0" fill-opacity="1.0" transform="scale(0.5)">
<polygon points="742,821  698,759  701,757  745,819" stroke-width="1" />
<polygon points="750,816  706,754  710,751  754,813" stroke-width="1" />
<polygon points="759,810  715,747  719,744  763,807" stroke-width="1" />
<polygon points="768,803  724,741  728,738  772,800" stroke-width="1" />
<polygon points="777,797  733,735  736,733  780,795" stroke-width="1" />
<polyline points="796,859  761,809" stroke-width=" 0.5" fill="none"  />
<polyline points="717,745  656,658" stroke-width=" 0.5" fill="none"  />
<polyline points="824,918  824,902" marker-end="url(#arrow)" stroke-width="1" fill="none" />
<polyline points="767,902  767,918" marker-end="url(#arrow)" stroke-width="1" fill="none" />
<polyline points="690,686  703,677" marker-end="url(#arrow)" stroke-width="1" fill="none" />
<polyline points="674,663  687,654" marker-end="url(#arrow)" stroke-width="1" fill="none" />
<polyline points="637,583  624,592" marker-end="url(#arrow)" stroke-width="1" fill="none" />
<polyline points="620,559  607,568" marker-end="url(#arrow)" stroke-width="1" fill="none" />
</g>
<g stroke="#00AFAF" fill="none" stroke-opacity="1.0" fill-opacity="1.0" transform="scale(0.5)">
<text x=" 372" y="1210.0" font-family="Arial" font-size=" 15" fill="#00AFAF" stroke-width="0">Селезневская улица</text>
<text x=" 243" y="450.0" font-family="Arial" font-size=" 15" fill="#00AFAF" transform="rotate(100.0  243  435)" stroke-width="0">Новослободская улица</text>
</g>
</g>
</g>
</svg>
