<?xml version="1.0" encoding="utf-8" ?>
<svg baseProfile="full" height="100%" version="1.1" width="100%" xmlns="http://www.w3.org/2000/svg" xmlns:ev="http://www.w3.org/2001/xml-events" xmlns:xlink="http://www.w3.org/1999/xlink"><defs><marker id="id97" markerHeight="3" markerUnits="strokeWidth" markerWidth="4" orient="auto" refX="0" refY="5" viewBox="0,0,10,10"><path d="M 0 0 L 10 5 L 0 10 z" /></marker></defs><g transform="rotate(15.0,550,335)"><rect fill="none" height="670" stroke="none" stroke-width="0" width="1100" x="0" y="0" /><polygon fill="#FCDC04" points="778,241 328,241 328,211 778,211" stroke="#000000" stroke-width="1" /><polygon fill="#FCDC04" points="328,361 328,331 778,331 778,361" stroke="#000000" stroke-width="1" /><text fill="#000000" font-family="Arial" font-size="20" stroke="none" stroke-width="0" x="330" y="208.0">&lt;&lt; Перово</text><text fill="#000000" font-family="Arial" font-size="20" stroke="none" stroke-width="0" x="644" y="381.0">Новокосино &gt;&gt;</text><text fill="#000000" font-family="Arial" font-size="25" stroke="none" stroke-width="0" x="484" y="308.0">Новогиреево</text><text fill="#FCDC04" font-family="Arial" font-size="20" stroke="none" stroke-width="0" x="329" y="207.0">&lt;&lt; Перово</text><text fill="#FCDC04" font-family="Arial" font-size="20" stroke="none" stroke-width="0" x="643" y="380.0">Новокосино &gt;&gt;</text><text fill="#FCDC04" font-family="Arial" font-size="25" stroke="none" stroke-width="0" x="482" y="306.0">Новогиреево</text><polygon fill="#34349C" points="555,287 559,287 559,288 555,288" stroke="#34349C" stroke-width="1" /><polygon fill="#FF0000" points="551,287 555,287 555,288 551,288" stroke="#FF0000" stroke-width="1" /><polyline fill="none" points="778,331 778,323 828,323 828,365 939,365 939,414 897,414" stroke="#000000" stroke-width="1" /><polyline fill="none" points="897,436 1003,436" stroke="#000000" stroke-width="1" /><polyline fill="none" points="1003,414 961,414 961,159 1003,159" stroke="#000000" stroke-width="1" /><polyline fill="none" points="1003,137 896,137" stroke="#000000" stroke-width="1" /><polyline fill="none" points="896,159 938,159 938,207 828,207 828,248 778,248 778,241" stroke="#000000" stroke-width="1" /><line stroke="#000000" stroke-width="1" x1="899" x2="899" y1="414" y2="436" /><line stroke="#000000" stroke-width="1" x1="903" x2="903" y1="414" y2="436" /><line stroke="#000000" stroke-width="1" x1="907" x2="907" y1="414" y2="436" /><line stroke="#000000" stroke-width="1" x1="911" x2="911" y1="414" y2="436" /><line stroke="#000000" stroke-width="1" x1="915" x2="915" y1="414" y2="436" /><line stroke="#000000" stroke-width="1" x1="919" x2="919" y1="414" y2="436" /><line stroke="#000000" stroke-width="1" x1="923" x2="923" y1="414" y2="436" /><line stroke="#000000" stroke-width="1" x1="927" x2="927" y1="414" y2="436" /><line stroke="#000000" stroke-width="1" x1="931" x2="931" y1="414" y2="436" /><line stroke="#000000" stroke-width="1" x1="935" x2="935" y1="414" y2="436" /><line stroke="#000000" stroke-width="1" x1="1001" x2="1001" y1="414" y2="436" /><line stroke="#000000" stroke-width="1" x1="997" x2="997" y1="414" y2="436" /><line stroke="#000000" stroke-width="1" x1="993" x2="993" y1="414" y2="436" /><line stroke="#000000" stroke-width="1" x1="989" x2="989" y1="414" y2="436" /><line stroke="#000000" stroke-width="1" x1="985" x2="985" y1="414" y2="436" /><line stroke="#000000" stroke-width="1" x1="981" x2="981" y1="414" y2="436" /><line stroke="#000000" stroke-width="1" x1="977" x2="977" y1="414" y2="436" /><line stroke="#000000" stroke-width="1" x1="973" x2="973" y1="414" y2="436" /><line stroke="#000000" stroke-width="1" x1="969" x2="969" y1="414" y2="436" /><line stroke="#000000" stroke-width="1" x1="965" x2="965" y1="414" y2="436" /><line stroke="#000000" stroke-width="1" x1="1001" x2="1001" y1="159" y2="137" /><line stroke="#000000" stroke-width="1" x1="997" x2="997" y1="159" y2="137" /><line stroke="#000000" stroke-width="1" x1="993" x2="993" y1="159" y2="137" /><line stroke="#000000" stroke-width="1" x1="989" x2="989" y1="159" y2="137" /><line stroke="#000000" stroke-width="1" x1="985" x2="985" y1="159" y2="137" /><line stroke="#000000" stroke-width="1" x1="981" x2="981" y1="159" y2="137" /><line stroke="#000000" stroke-width="1" x1="977" x2="977" y1="159" y2="137" /><line stroke="#000000" stroke-width="1" x1="973" x2="973" y1="159" y2="137" /><line stroke="#000000" stroke-width="1" x1="969" x2="969" y1="159" y2="137" /><line stroke="#000000" stroke-width="1" x1="965" x2="965" y1="159" y2="137" /><line stroke="#000000" stroke-width="1" x1="898" x2="898" y1="159" y2="137" /><line stroke="#000000" stroke-width="1" x1="902" x2="902" y1="159" y2="137" /><line stroke="#000000" stroke-width="1" x1="906" x2="906" y1="159" y2="137" /><line stroke="#000000" stroke-width="1" x1="910" x2="910" y1="159" y2="137" /><line stroke="#000000" stroke-width="1" x1="914" x2="914" y1="159" y2="137" /><line stroke="#000000" stroke-width="1" x1="918" x2="918" y1="159" y2="137" /><line stroke="#000000" stroke-width="1" x1="922" x2="922" y1="159" y2="137" /><line stroke="#000000" stroke-width="1" x1="926" x2="926" y1="159" y2="137" /><line stroke="#000000" stroke-width="1" x1="930" x2="930" y1="159" y2="137" /><line stroke="#000000" stroke-width="1" x1="934" x2="934" y1="159" y2="137" /><line stroke="#000000" stroke-width="1" x1="780" x2="780" y1="248" y2="323" /><line stroke="#000000" stroke-width="1" x1="784" x2="784" y1="248" y2="323" /><line stroke="#000000" stroke-width="1" x1="788" x2="788" y1="248" y2="323" /><line stroke="#000000" stroke-width="1" x1="792" x2="792" y1="248" y2="323" /><line stroke="#000000" stroke-width="1" x1="796" x2="796" y1="248" y2="323" /><line stroke="#000000" stroke-width="1" x1="800" x2="800" y1="248" y2="323" /><line stroke="#000000" stroke-width="1" x1="804" x2="804" y1="248" y2="323" /><line stroke="#000000" stroke-width="1" x1="808" x2="808" y1="248" y2="323" /><line stroke="#000000" stroke-width="1" x1="812" x2="812" y1="248" y2="323" /><line stroke="#000000" stroke-width="1" x1="816" x2="816" y1="248" y2="323" /><line stroke="#000000" stroke-width="1" x1="820" x2="820" y1="248" y2="323" /><line stroke="#000000" stroke-width="1" x1="824" x2="824" y1="248" y2="323" /><polygon fill="#D0D0D0" points="924,238 938,238 938,335 924,335" stroke="#000000" stroke-width="1" /><polyline fill="none" points="839,207 839,234 828,234" stroke="#000000" stroke-width="1" /><text fill="#000000" font-family="Arial" font-size="10" stroke="none" stroke-width="0" transform="rotate(-90.0,827,233)" x="827" y="243.0">кассы</text><polyline fill="none" points="839,234 856,234" stroke="#000000" stroke-width="1" /><polygon fill="none" points="856,231 856,237 862,237 862,231" stroke="#000000" stroke-width="1" /><polyline fill="none" points="896,271 904,279 904,307" stroke="#000000" stroke-width="1" /><polyline fill="none" points="904,355 904,365" stroke="#000000" stroke-width="1" /><line stroke="#009900" stroke-width="1" x1="866" x2="864" y1="239" y2="241" /><line stroke="#009900" stroke-width="1" x1="868.828427125" x2="866.828427125" y1="241.828427125" y2="243.828427125" /><line stroke="#009900" stroke-width="1" x1="871.656854249" x2="869.656854249" y1="244.656854249" y2="246.656854249" /><line stroke="#009900" stroke-width="1" x1="874.485281374" x2="872.485281374" y1="247.485281374" y2="249.485281374" /><line stroke="#009900" stroke-width="1" x1="877.313708499" x2="875.313708499" y1="250.313708499" y2="252.313708499" /><line stroke="#009900" stroke-width="1" x1="880.142135624" x2="878.142135624" y1="253.142135624" y2="255.142135624" /><line stroke="#009900" stroke-width="1" x1="882.970562748" x2="880.970562748" y1="255.970562748" y2="257.970562748" /><line stroke="#009900" stroke-width="1" x1="885.798989873" x2="883.798989873" y1="258.798989873" y2="260.798989873" /><line stroke="#009900" stroke-width="1" x1="888.627416998" x2="886.627416998" y1="261.627416998" y2="263.627416998" /><line stroke="#009900" stroke-width="1" x1="891.455844123" x2="889.455844123" y1="264.455844123" y2="266.455844123" /><line stroke="#009900" stroke-width="1" x1="894.284271247" x2="892.284271247" y1="267.284271247" y2="269.284271247" /><line stroke="#009900" stroke-width="1" x1="897.112698372" x2="895.112698372" y1="270.112698372" y2="272.112698372" /><line stroke="#FF0000" stroke-width="1" x1="906" x2="902" y1="307" y2="307" /><line stroke="#FF0000" stroke-width="1" x1="906" x2="902" y1="311" y2="311" /><line stroke="#FF0000" stroke-width="1" x1="906" x2="902" y1="315" y2="315" /><line stroke="#FF0000" stroke-width="1" x1="906" x2="902" y1="319" y2="319" /><line stroke="#FF0000" stroke-width="1" x1="906" x2="902" y1="323" y2="323" /><line stroke="#FF0000" stroke-width="1" x1="906" x2="902" y1="327" y2="327" /><line stroke="#FF0000" stroke-width="1" x1="906" x2="902" y1="331" y2="331" /><line stroke="#FF0000" stroke-width="1" x1="906" x2="902" y1="335" y2="335" /><line stroke="#FF0000" stroke-width="1" x1="906" x2="902" y1="339" y2="339" /><line stroke="#FF0000" stroke-width="1" x1="906" x2="902" y1="343" y2="343" /><line stroke="#FF0000" stroke-width="1" x1="906" x2="902" y1="347" y2="347" /><line stroke="#FF0000" stroke-width="1" x1="906" x2="902" y1="351" y2="351" /><line stroke="#FF0000" stroke-width="1" x1="906" x2="902" y1="355" y2="355" /><polygon fill="#34349C" points="919,252 919,256 920,256 920,252" stroke="#34349C" stroke-width="1" /><polygon fill="#FF0000" points="919,248 919,252 920,252 920,248" stroke="#FF0000" stroke-width="1" /><polyline fill="none" points="41,137 172,137" stroke="#000000" stroke-width="1" /><polyline fill="none" points="41,159 107,159 107,414 65,414" stroke="#000000" stroke-width="1" /><polyline fill="none" points="65,436 172,436" stroke="#000000" stroke-width="1" /><polyline fill="none" points="172,414 130,414 130,365 242,365 242,318 247,318" stroke="#000000" stroke-width="1" /><polyline fill="none" points="319,318 328,318 328,331" stroke="#000000" stroke-width="1" /><polyline fill="none" points="328,241 328,254 243,254 243,207 130,207 130,159 172,159" stroke="#000000" stroke-width="1" /><line stroke="#000000" stroke-width="1" x1="43" x2="43" y1="159" y2="137" /><line stroke="#000000" stroke-width="1" x1="47" x2="47" y1="159" y2="137" /><line stroke="#000000" stroke-width="1" x1="51" x2="51" y1="159" y2="137" /><line stroke="#000000" stroke-width="1" x1="55" x2="55" y1="159" y2="137" /><line stroke="#000000" stroke-width="1" x1="59" x2="59" y1="159" y2="137" /><line stroke="#000000" stroke-width="1" x1="63" x2="63" y1="159" y2="137" /><line stroke="#000000" stroke-width="1" x1="67" x2="67" y1="159" y2="137" /><line stroke="#000000" stroke-width="1" x1="71" x2="71" y1="159" y2="137" /><line stroke="#000000" stroke-width="1" x1="75" x2="75" y1="159" y2="137" /><line stroke="#000000" stroke-width="1" x1="79" x2="79" y1="159" y2="137" /><line stroke="#000000" stroke-width="1" x1="170" x2="170" y1="159" y2="137" /><line stroke="#000000" stroke-width="1" x1="166" x2="166" y1="159" y2="137" /><line stroke="#000000" stroke-width="1" x1="162" x2="162" y1="159" y2="137" /><line stroke="#000000" stroke-width="1" x1="158" x2="158" y1="159" y2="137" /><line stroke="#000000" stroke-width="1" x1="154" x2="154" y1="159" y2="137" /><line stroke="#000000" stroke-width="1" x1="150" x2="150" y1="159" y2="137" /><line stroke="#000000" stroke-width="1" x1="146" x2="146" y1="159" y2="137" /><line stroke="#000000" stroke-width="1" x1="142" x2="142" y1="159" y2="137" /><line stroke="#000000" stroke-width="1" x1="138" x2="138" y1="159" y2="137" /><line stroke="#000000" stroke-width="1" x1="134" x2="134" y1="159" y2="137" /><line stroke="#000000" stroke-width="1" x1="67" x2="67" y1="414" y2="436" /><line stroke="#000000" stroke-width="1" x1="71" x2="71" y1="414" y2="436" /><line stroke="#000000" stroke-width="1" x1="75" x2="75" y1="414" y2="436" /><line stroke="#000000" stroke-width="1" x1="79" x2="79" y1="414" y2="436" /><line stroke="#000000" stroke-width="1" x1="83" x2="83" y1="414" y2="436" /><line stroke="#000000" stroke-width="1" x1="87" x2="87" y1="414" y2="436" /><line stroke="#000000" stroke-width="1" x1="91" x2="91" y1="414" y2="436" /><line stroke="#000000" stroke-width="1" x1="95" x2="95" y1="414" y2="436" /><line stroke="#000000" stroke-width="1" x1="99" x2="99" y1="414" y2="436" /><line stroke="#000000" stroke-width="1" x1="103" x2="103" y1="414" y2="436" /><line stroke="#000000" stroke-width="1" x1="170" x2="170" y1="414" y2="436" /><line stroke="#000000" stroke-width="1" x1="166" x2="166" y1="414" y2="436" /><line stroke="#000000" stroke-width="1" x1="162" x2="162" y1="414" y2="436" /><line stroke="#000000" stroke-width="1" x1="158" x2="158" y1="414" y2="436" /><line stroke="#000000" stroke-width="1" x1="154" x2="154" y1="414" y2="436" /><line stroke="#000000" stroke-width="1" x1="150" x2="150" y1="414" y2="436" /><line stroke="#000000" stroke-width="1" x1="146" x2="146" y1="414" y2="436" /><line stroke="#000000" stroke-width="1" x1="142" x2="142" y1="414" y2="436" /><line stroke="#000000" stroke-width="1" x1="138" x2="138" y1="414" y2="436" /><line stroke="#000000" stroke-width="1" x1="134" x2="134" y1="414" y2="436" /><line stroke="#000000" stroke-width="1" x1="263" x2="263" y1="299" y2="254" /><line stroke="#000000" stroke-width="1" x1="267" x2="267" y1="299" y2="254" /><line stroke="#000000" stroke-width="1" x1="271" x2="271" y1="299" y2="254" /><line stroke="#000000" stroke-width="1" x1="275" x2="275" y1="299" y2="254" /><line stroke="#000000" stroke-width="1" x1="279" x2="279" y1="299" y2="254" /><line stroke="#000000" stroke-width="1" x1="283" x2="283" y1="299" y2="254" /><line stroke="#000000" stroke-width="1" x1="287" x2="287" y1="299" y2="254" /><line stroke="#000000" stroke-width="1" x1="291" x2="291" y1="299" y2="254" /><line stroke="#000000" stroke-width="1" x1="295" x2="295" y1="299" y2="254" /><line stroke="#000000" stroke-width="1" x1="299" x2="299" y1="299" y2="254" /><line stroke="#000000" stroke-width="1" x1="303" x2="303" y1="299" y2="254" /><line stroke="#000000" stroke-width="1" x1="307" x2="307" y1="299" y2="254" /><polygon fill="#D0D0D0" points="130,237 144,237 144,335 130,335" stroke="#000000" stroke-width="1" /><polyline fill="none" points="233,207 233,235 243,235" stroke="#000000" stroke-width="1" /><text fill="#000000" font-family="Arial" font-size="10" stroke="none" stroke-width="0" transform="rotate(-90.0,232,234)" x="232" y="244.0">кассы</text><polyline fill="none" points="233,235 216,235" stroke="#000000" stroke-width="1" /><polygon fill="none" points="216,232 216,238 210,238 210,232" stroke="#000000" stroke-width="1" /><polyline fill="none" points="178,269 171,276 171,307" stroke="#000000" stroke-width="1" /><polyline fill="none" points="171,355 171,365" stroke="#000000" stroke-width="1" /><line stroke="#009900" stroke-width="1" x1="206" x2="208" y1="239" y2="241" /><line stroke="#009900" stroke-width="1" x1="203.171572875" x2="205.171572875" y1="241.828427125" y2="243.828427125" /><line stroke="#009900" stroke-width="1" x1="200.343145751" x2="202.343145751" y1="244.656854249" y2="246.656854249" /><line stroke="#009900" stroke-width="1" x1="197.514718626" x2="199.514718626" y1="247.485281374" y2="249.485281374" /><line stroke="#009900" stroke-width="1" x1="194.686291501" x2="196.686291501" y1="250.313708499" y2="252.313708499" /><line stroke="#009900" stroke-width="1" x1="191.857864376" x2="193.857864376" y1="253.142135624" y2="255.142135624" /><line stroke="#009900" stroke-width="1" x1="189.029437252" x2="191.029437252" y1="255.970562748" y2="257.970562748" /><line stroke="#009900" stroke-width="1" x1="186.201010127" x2="188.201010127" y1="258.798989873" y2="260.798989873" /><line stroke="#009900" stroke-width="1" x1="183.372583002" x2="185.372583002" y1="261.627416998" y2="263.627416998" /><line stroke="#009900" stroke-width="1" x1="180.544155877" x2="182.544155877" y1="264.455844123" y2="266.455844123" /><line stroke="#009900" stroke-width="1" x1="177.715728753" x2="179.715728753" y1="267.284271247" y2="269.284271247" /><line stroke="#FF0000" stroke-width="1" x1="169" x2="173" y1="307" y2="307" /><line stroke="#FF0000" stroke-width="1" x1="169" x2="173" y1="311" y2="311" /><line stroke="#FF0000" stroke-width="1" x1="169" x2="173" y1="315" y2="315" /><line stroke="#FF0000" stroke-width="1" x1="169" x2="173" y1="319" y2="319" /><line stroke="#FF0000" stroke-width="1" x1="169" x2="173" y1="323" y2="323" /><line stroke="#FF0000" stroke-width="1" x1="169" x2="173" y1="327" y2="327" /><line stroke="#FF0000" stroke-width="1" x1="169" x2="173" y1="331" y2="331" /><line stroke="#FF0000" stroke-width="1" x1="169" x2="173" y1="335" y2="335" /><line stroke="#FF0000" stroke-width="1" x1="169" x2="173" y1="339" y2="339" /><line stroke="#FF0000" stroke-width="1" x1="169" x2="173" y1="343" y2="343" /><line stroke="#FF0000" stroke-width="1" x1="169" x2="173" y1="347" y2="347" /><line stroke="#FF0000" stroke-width="1" x1="169" x2="173" y1="351" y2="351" /><line stroke="#FF0000" stroke-width="1" x1="169" x2="173" y1="355" y2="355" /><line stroke="#7F7F7F" stroke-width="1" x1="253" x2="253" y1="303" y2="314" /><line stroke="#7F7F7F" stroke-width="1" x1="257" x2="257" y1="303" y2="314" /><line stroke="#7F7F7F" stroke-width="1" x1="261" x2="261" y1="303" y2="314" /><line stroke="#7F7F7F" stroke-width="1" x1="265" x2="265" y1="303" y2="314" /><line stroke="#7F7F7F" stroke-width="1" x1="269" x2="269" y1="303" y2="314" /><line stroke="#7F7F7F" stroke-width="1" x1="273" x2="273" y1="303" y2="314" /><line stroke="#7F7F7F" stroke-width="1" x1="277" x2="277" y1="303" y2="314" /><line stroke="#7F7F7F" stroke-width="1" x1="281" x2="281" y1="303" y2="314" /><line stroke="#7F7F7F" stroke-width="1" x1="285" x2="285" y1="303" y2="314" /><line stroke="#7F7F7F" stroke-width="1" x1="289" x2="289" y1="303" y2="314" /><line stroke="#7F7F7F" stroke-width="1" x1="293" x2="293" y1="303" y2="314" /><line stroke="#7F7F7F" stroke-width="1" x1="297" x2="297" y1="303" y2="314" /><line stroke="#7F7F7F" stroke-width="1" x1="301" x2="301" y1="303" y2="314" /><line stroke="#7F7F7F" stroke-width="1" x1="305" x2="305" y1="303" y2="314" /><line stroke="#7F7F7F" stroke-width="1" x1="309" x2="309" y1="303" y2="314" /><line stroke="#7F7F7F" stroke-width="1" x1="313" x2="313" y1="303" y2="314" /><polygon fill="#9B5509" points="247,299 319,299 319,303 247,303" stroke="#000000" stroke-width="1" /><polygon fill="#9B5509" points="247,314 319,314 319,318 247,318" stroke="#000000" stroke-width="1" /><text fill="#00AFAF" font-family="Arial" font-size="15" stroke="none" stroke-width="0" x="-26" y="287.0">Зеленый проспект</text><text fill="#00AFAF" font-family="Arial" font-size="15" stroke="none" stroke-width="0" transform="rotate(-90.0,813,92)" x="813" y="107.0">Свободный проспект</text><text fill="#00AFAF" font-family="Arial" font-size="15" stroke="none" stroke-width="0" transform="rotate(-90.0,107,577)" x="107" y="592.0">5-й проспект</text><text fill="#00AFAF" font-family="Arial" font-size="15" stroke="none" stroke-width="0" x="981" y="295.0">Зеленый проспект</text><text fill="#00AFAF" font-family="Arial" font-size="15" stroke="none" stroke-width="0" transform="rotate(-90.0,1058,533)" x="1058" y="548.0">3-й проспект</text><polygon fill="#34349C" points="148,325 148,321 149,321 149,325" stroke="#34349C" stroke-width="1" /><polygon fill="#FF0000" points="148,329 148,325 149,325 149,329" stroke="#FF0000" stroke-width="1" /><polyline fill="none" marker-end="url(#id97)" points="205,339 187,339" stroke="#FF0000" stroke-width="1" /><polyline fill="none" marker-end="url(#id97)" points="866,342 880,342" stroke="#FF0000" stroke-width="1" /><polyline fill="none" marker-end="url(#id97)" points="161,234 173,246" stroke="#009900" stroke-width="1" /><polyline fill="none" marker-end="url(#id97)" points="904,233 894,243" stroke="#009900" stroke-width="1" /></g></svg>