<svg xmlns="http://www.w3.org/2000/svg" version="1.1">
<defs>
    <marker id="arrow"
      viewBox="0 0 10 10" refX="0" refY="5"
      markerUnits="strokeWidth"
      markerWidth="4" markerHeight="3"
      orient="auto">
      <path d="M 0 0 L 10 5 L 0 10 z" />
    </marker>
  </defs>
<g stroke="#000000" fill="none" stroke-opacity="1.0" fill-opacity="1.0" transform="scale(0.5)">
<rect x="0" y="0" width="1410" height="900" stroke-width="0" fill="none" />
<g stroke="#000000" fill="none" stroke-opacity="1.0" fill-opacity="1.0" transform="scale(0.5)">
</g>
<g transform="rotate(20.0 705 450)" >
<g stroke="#000000" fill="none" stroke-opacity="1.0" fill-opacity="1.0" transform="scale(0.5)">
</g>
<g stroke="#FEFBF1" fill="#FEFBF1" stroke-opacity="1.0" fill-opacity="1.0" transform="scale(0.5)">
<polygon points="800,431  800,568  688,568  688,580  640,580  640,531  626,527  615,517  611,501  615,485  626,476  640,472  640,418  773,418  773,431" stroke-width="1" />
</g>
<g stroke="#DDDDDD" fill="#FEFBF1" stroke-opacity="1.0" fill-opacity="1.0" transform="scale(0.5)">
<polyline points="615,485  611,501  615,517" stroke-width="1" fill="none"/> <!-- spline -->
<polyline points="688,418  730,418" stroke-width="1" fill="none"  />
<polyline points="640,539  640,566" stroke-width="1" fill="none"  />
<polyline points="800,471  800,522" stroke-width="1" fill="none"  />
</g>
<g stroke="#000000" fill="#FC310B" stroke-opacity="1.0" fill-opacity="1.0" transform="scale(0.5)">
<polygon points="1011,529  981,529  981,80  1011,80" stroke-width="1" />
<polygon points="1121,529  1091,529  1091,80  1121,80" stroke-width="1" />
</g>
<g stroke="#E41C0C" fill="none" stroke-opacity="1.0" fill-opacity="1.0" transform="scale(0.5)">
<text x=" 953" y="419.0" font-family="Arial" font-size=" 20" fill="#E41C0C" transform="rotate(-90.0  953  399)" stroke-width="0">&lt;&lt; Фрунзенская</text>
<text x=" 1121" y="381.0" font-family="Arial" font-size=" 20" fill="#E41C0C" transform="rotate(-90.0  1121  361)" stroke-width="0">Кропоткинская &gt;&gt;</text>
<text x=" 910" y="382.0" font-family="Arial" font-size=" 25" fill="#E41C0C" transform="rotate(-90.0  910  357)" stroke-width="0">Парк Культуры</text>
</g>
<g stroke="#34349C" fill="#34349C" stroke-opacity="1.0" fill-opacity="1.0" transform="scale(0.5)">
<polygon points="1052,310  1048,310  1048,311  1052,311" stroke-width="1" />
</g>
<g stroke="#FF0000" fill="#FF0000" stroke-opacity="1.0" fill-opacity="1.0" transform="scale(0.5)">
<polygon points="1056,310  1052,310  1052,311  1056,311" stroke-width="1" />
</g>
<g stroke="#FEFBF1" fill="#FEFBF1" stroke-opacity="1.0" fill-opacity="1.0" transform="scale(0.5)">
<ellipse cx="1248" cy="41" rx="37.0" ry="37.0" />
</g>
<g stroke="#DDDDDD" fill="#FEFBF1" stroke-opacity="1.0" fill-opacity="1.0" transform="scale(0.5)">
<polyline points="1218,19  1213,29  1211,41  1213,53  1218,63" stroke-width="1" fill="none"/> <!-- spline -->
</g>
<g stroke="#D0D0D0" fill="#D0D0D0" stroke-opacity="1.0" fill-opacity="1.0" transform="scale(0.5)">
<polygon points="1230,26  1267,26  1257,19  1252,17  1247,17  1242,18  1237,20" stroke-width="1" />
<polygon points="1230,56  1267,56  1257,63  1252,65  1247,65  1242,64  1237,62" stroke-width="1" />
</g>
<g stroke="#FFFFFF" fill="#FFFFFF" stroke-opacity="0.8" fill-opacity="0.8" transform="scale(0.5)">
<polygon points="1090,171  1122,171  1122,208  1090,208" stroke-width="1" />
<polygon points="981,171  1012,171  1012,208  981,208" stroke-width="1" />
<polygon points="1090,408  1121,408  1121,440  1090,440" stroke-width="1" />
<polygon points="980,408  1011,408  1011,440  980,440" stroke-width="1" />
</g>
<g stroke="#000000" fill="#FFFFFF" stroke-opacity="1.0" fill-opacity="1.0" transform="scale(0.5)">
<polyline points="1211,39  1211,43" stroke-width="1" fill="none"  />
<polyline points="1213,29  1214,26  1267,26" stroke-width="1" fill="none"  />
<polyline points="1213,53  1214,56  1267,56" stroke-width="1" fill="none"  />
<polyline points="1218,63  1233,75  1252,78  1268,72  1281,58  1285,41  1281,24  1268,10  1252,4  1233,7  1218,19" stroke-width="1" fill="none"/> <!-- spline -->
<polyline points="1218,19  1138,19  1138,44  1092,44  1092,-15  1011,-15  1011,44  981,44  981,74  1138,74" stroke-width="1" fill="none"  />
<polyline points="1230,56  1242,64  1255,64  1267,56" stroke-width="1" fill="none"/> <!-- spline -->
<polyline points="1267,26  1255,18  1242,18  1230,26" stroke-width="1" fill="none"/> <!-- spline -->
<polyline points="1064,41  1037,41" stroke-width="1" fill="none"  />
<polyline points="1037,76  1037,80  1011,80" stroke-width="1" fill="none"  />
<polyline points="1064,76  1064,80  1091,80" stroke-width="1" fill="none"  />
<line x1="1034" y1="37" x2="1011" y2="37" stroke-width="1" />
<line x1="1034" y1="33" x2="1011" y2="33" stroke-width="1" />
<line x1="1034" y1="29" x2="1011" y2="29" stroke-width="1" />
<line x1="1034" y1="25" x2="1011" y2="25" stroke-width="1" />
<line x1="1034" y1="21" x2="1011" y2="21" stroke-width="1" />
<line x1="1034" y1="17" x2="1011" y2="17" stroke-width="1" />
<line x1="1064" y1="35" x2="1037" y2="35" stroke-width="1" />
<line x1="1064" y1="31" x2="1037" y2="31" stroke-width="1" />
<line x1="1064" y1="27" x2="1037" y2="27" stroke-width="1" />
<line x1="1064" y1="23" x2="1037" y2="23" stroke-width="1" />
<line x1="1064" y1="19" x2="1037" y2="19" stroke-width="1" />
<line x1="1064" y1="15" x2="1037" y2="15" stroke-width="1" />
<line x1="1092" y1="37" x2="1067" y2="37" stroke-width="1" />
<line x1="1092" y1="33" x2="1067" y2="33" stroke-width="1" />
<line x1="1092" y1="29" x2="1067" y2="29" stroke-width="1" />
<line x1="1092" y1="25" x2="1067" y2="25" stroke-width="1" />
<line x1="1092" y1="21" x2="1067" y2="21" stroke-width="1" />
<line x1="1092" y1="17" x2="1067" y2="17" stroke-width="1" />
<line x1="1177" y1="63" x2="1177" y2="19" stroke-width="1" />
<line x1="1181" y1="63" x2="1181" y2="19" stroke-width="1" />
<line x1="1185" y1="63" x2="1185" y2="19" stroke-width="1" />
<line x1="1189" y1="63" x2="1189" y2="19" stroke-width="1" />
<line x1="1193" y1="63" x2="1193" y2="19" stroke-width="1" />
<line x1="1197" y1="63" x2="1197" y2="19" stroke-width="1" />
<line x1="1201" y1="63" x2="1201" y2="19" stroke-width="1" />
</g>
<g stroke="#EEEEEE" fill="#FFFFFF" stroke-opacity="1.0" fill-opacity="1.0" transform="scale(0.5)">
<polyline points="1064,73  1064,41" stroke-width="1" fill="none"  />
<polyline points="1037,73  1037,41" stroke-width="1" fill="none"  />
</g>
<g stroke="#000000" fill="#D0D0D0" stroke-opacity="1.0" fill-opacity="1.0" transform="scale(0.5)">
<polygon points="1034,41  1037,41  1037,12  1034,12" stroke-width="1" />
<polygon points="1067,12  1064,12  1064,41  1067,41" stroke-width="1" />
<polyline points="1264,26  1264,56" stroke-width="1" fill="none"  />
<polyline points="1259,26  1259,56" stroke-width="1" fill="none"  />
<polyline points="1254,26  1254,56" stroke-width="1" fill="none"  />
<polyline points="1249,26  1249,56" stroke-width="1" fill="none"  />
<polyline points="1244,26  1244,56" stroke-width="1" fill="none"  />
<polyline points="1239,26  1239,56" stroke-width="1" fill="none"  />
<polyline points="1234,26  1234,56" stroke-width="1" fill="none"  />
<polyline points="1257,5  1257,19" stroke-width="1" fill="none"  />
<polyline points="1252,4  1252,17" stroke-width="1" fill="none"  />
<polyline points="1247,4  1247,17" stroke-width="1" fill="none"  />
<polyline points="1242,5  1242,18" stroke-width="1" fill="none"  />
<polyline points="1237,6  1237,20" stroke-width="1" fill="none"  />
<polyline points="1257,63  1257,77" stroke-width="1" fill="none"  />
<polyline points="1252,65  1252,78" stroke-width="1" fill="none"  />
<polyline points="1247,65  1247,78" stroke-width="1" fill="none"  />
<polyline points="1242,64  1242,77" stroke-width="1" fill="none"  />
<polyline points="1237,62  1237,76" stroke-width="1" fill="none"  />
</g>
<g stroke="#000000" fill="none" stroke-opacity="1.0" fill-opacity="1.0" transform="scale(0.5)">
<polyline points="1168,19  1168,11  1141,11  1141,19" stroke-width="1" fill="none"  />
<text x=" 1142" y="18.0" font-family="Arial" font-size=" 10" fill="#000000" stroke-width="0">кассы</text>
</g>
<g stroke="#000000" fill="none" stroke-opacity="1.0" fill-opacity="1.0" transform="scale(0.5)">
<polygon points="1132,72  1137,72  1137,67  1132,67" stroke-width="1" />
</g>
<g stroke="#009900" fill="none" stroke-opacity="1.0" fill-opacity="1.0" transform="scale(0.5)">
<line x1="1136" y1="64" x2="1133" y2="64" stroke-width="1" />
<line x1="1136" y1="60" x2="1133" y2="60" stroke-width="1" />
<line x1="1136" y1="56" x2="1133" y2="56" stroke-width="1" />
<line x1="1136" y1="52" x2="1133" y2="52" stroke-width="1" />
<line x1="1136" y1="48" x2="1133" y2="48" stroke-width="1" />
</g>
<g stroke="#FF0000" fill="none" stroke-opacity="1.0" fill-opacity="1.0" transform="scale(0.5)">
<line x1="1142" y1="80" x2="1142" y2="77" stroke-width="1" />
<line x1="1146" y1="80" x2="1146" y2="77" stroke-width="1" />
<line x1="1150" y1="80" x2="1150" y2="77" stroke-width="1" />
<line x1="1154" y1="80" x2="1154" y2="77" stroke-width="1" />
</g>
<g stroke="#FF0000" fill="none" stroke-opacity="1.0" fill-opacity="1.0" transform="scale(0.5)">
<polyline points="1175,56  1191,56" marker-end="url(#arrow)" stroke-width="1" fill="none" />
<polyline points="1230,48  1218,48" marker-end="url(#arrow)" stroke-width="1" fill="none" />
<polyline points="1265,67  1274,57" marker-end="url(#arrow)" stroke-width="1" fill="none" />
</g>
<g stroke="#009900" fill="none" stroke-opacity="1.0" fill-opacity="1.0" transform="scale(0.5)">
<polyline points="1274,25  1264,15" marker-end="url(#arrow)" stroke-width="1" fill="none" />
<polyline points="1218,34  1230,34" marker-end="url(#arrow)" stroke-width="1" fill="none" />
<polyline points="1203,27  1186,27" marker-end="url(#arrow)" stroke-width="1" fill="none" />
<polyline points="1124,58  1108,58" marker-end="url(#arrow)" stroke-width="1" fill="none" />
<polyline points="1019,44  1019,27" marker-end="url(#arrow)" stroke-width="1" fill="none" />
<polyline points="1081,45  1081,27" marker-end="url(#arrow)" stroke-width="1" fill="none" />
<polyline points="1050,1  1050,21" marker-end="url(#arrow)" stroke-width="1" fill="none" />
</g>
<g stroke="#34349C" fill="#34349C" stroke-opacity="1.0" fill-opacity="1.0" transform="scale(0.5)">
<polygon points="1078,204  1074,204  1074,205  1078,205" stroke-width="1" />
</g>
<g stroke="#FF0000" fill="#FF0000" stroke-opacity="1.0" fill-opacity="1.0" transform="scale(0.5)">
<polygon points="1082,204  1078,204  1078,205  1082,205" stroke-width="1" />
</g>
<g stroke="#000000" fill="#FF0000" stroke-opacity="1.0" fill-opacity="1.0" transform="scale(0.5)">
<polyline points="884,459  884,511  913,511" stroke-width="1" fill="none"  />
<polyline points="922,514  953,532" stroke-width="1" fill="none"  />
<polyline points="963,535  1122,535  1122,556  1092,556  1092,619  1011,619  1011,555  954,555" stroke-width="1" fill="none"  />
<polyline points="944,552  917,537" stroke-width="1" fill="none"  />
<polyline points="907,534  844,534  815,563" stroke-width="1" fill="none"  />
<polyline points="844,459  855,459  855,511  835,511  804,542" stroke-width="1" fill="none"  />
<polyline points="1037,556  1064,556" stroke-width="1" fill="none"  />
<polyline points="1011,529  1037,529  1037,533" stroke-width="1" fill="none"  />
<polyline points="1064,533  1064,529  1091,529" stroke-width="1" fill="none"  />
<polyline points="907,437  912,436  917,434" stroke-width="1" fill="none"/> <!-- spline -->
<polyline points="944,419  949,417  954,416" stroke-width="1" fill="none"/> <!-- spline -->
<polyline points="963,435  958,436  953,438" stroke-width="1" fill="none"/> <!-- spline -->
<polyline points="922,456  918,458  913,459" stroke-width="1" fill="none"/> <!-- spline -->
<polyline points="913,511  918,512  922,514" stroke-width="1" fill="none"/> <!-- spline -->
<polyline points="907,534  912,535  917,537" stroke-width="1" fill="none"/> <!-- spline -->
<polyline points="953,532  958,534  963,535" stroke-width="1" fill="none"/> <!-- spline -->
<polyline points="944,552  949,554  954,555" stroke-width="1" fill="none"/> <!-- spline -->
<line x1="1034" y1="580" x2="1011" y2="580" stroke-width="1" />
<line x1="1034" y1="576" x2="1011" y2="576" stroke-width="1" />
<line x1="1034" y1="572" x2="1011" y2="572" stroke-width="1" />
<line x1="1034" y1="568" x2="1011" y2="568" stroke-width="1" />
<line x1="1034" y1="564" x2="1011" y2="564" stroke-width="1" />
<line x1="1034" y1="560" x2="1011" y2="560" stroke-width="1" />
<line x1="1064" y1="582" x2="1037" y2="582" stroke-width="1" />
<line x1="1064" y1="578" x2="1037" y2="578" stroke-width="1" />
<line x1="1064" y1="574" x2="1037" y2="574" stroke-width="1" />
<line x1="1064" y1="570" x2="1037" y2="570" stroke-width="1" />
<line x1="1064" y1="566" x2="1037" y2="566" stroke-width="1" />
<line x1="1064" y1="562" x2="1037" y2="562" stroke-width="1" />
<line x1="1092" y1="580" x2="1067" y2="580" stroke-width="1" />
<line x1="1092" y1="576" x2="1067" y2="576" stroke-width="1" />
<line x1="1092" y1="572" x2="1067" y2="572" stroke-width="1" />
<line x1="1092" y1="568" x2="1067" y2="568" stroke-width="1" />
<line x1="1092" y1="564" x2="1067" y2="564" stroke-width="1" />
<line x1="1092" y1="560" x2="1067" y2="560" stroke-width="1" />
</g>
<g stroke="#EEEEEE" fill="#FF0000" stroke-opacity="1.0" fill-opacity="1.0" transform="scale(0.5)">
<polyline points="1064,536  1064,556" stroke-width="1" fill="none"  />
<polyline points="1037,536  1037,556" stroke-width="1" fill="none"  />
</g>
<g stroke="#000000" fill="#FF0000" stroke-opacity="1.0" fill-opacity="1.0" transform="scale(0.5)">
<polyline points="884,475  855,475" stroke-width=" 0.5" fill="none"  />
</g>
<g stroke="#000000" fill="#D0D0D0" stroke-opacity="1.0" fill-opacity="1.0" transform="scale(0.5)">
<polygon points="1034,556  1037,556  1037,592  1034,592" stroke-width="1" />
<polygon points="1067,556  1064,556  1064,592  1067,592" stroke-width="1" />
</g>
<g stroke="#000000" fill="none" stroke-opacity="1.0" fill-opacity="1.0" transform="scale(0.5)">
<polyline points="1115,535  1115,556" stroke-width="1" fill="none"  />
<text x=" 1115" y="560.0" font-family="Arial" font-size=" 5" fill="#000000" transform="rotate(-90.0  1115  555)" stroke-width="0">полиция</text>
</g>
<g stroke="#FF0000" fill="none" stroke-opacity="1.0" fill-opacity="1.0" transform="scale(0.5)">
<polyline points="1023,425  993,425" marker-end="url(#arrow)" stroke-width="1" fill="none" />
</g>
<g stroke="#009900" fill="none" stroke-opacity="1.0" fill-opacity="1.0" transform="scale(0.5)">
<polyline points="1019,551  1019,570" marker-end="url(#arrow)" stroke-width="1" fill="none" />
<polyline points="1081,551  1081,570" marker-end="url(#arrow)" stroke-width="1" fill="none" />
<polyline points="1055,596  1055,574" marker-end="url(#arrow)" stroke-width="1" fill="none" />
</g>
<g stroke="#34349C" fill="#34349C" stroke-opacity="1.0" fill-opacity="1.0" transform="scale(0.5)">
<polygon points="870,439  874,439  874,440  870,440" stroke-width="1" />
</g>
<g stroke="#FF0000" fill="#FF0000" stroke-opacity="1.0" fill-opacity="1.0" transform="scale(0.5)">
<polygon points="866,439  870,439  870,440  866,440" stroke-width="1" />
</g>
<g stroke="#000000" fill="#FF0000" stroke-opacity="1.0" fill-opacity="1.0" transform="scale(0.5)">
<polyline points="1037,130  1037,171  981,171  981,208  1037,208  1037,249" stroke-width="1" fill="none"  />
<polyline points="1064,249  1064,208  1121,208" stroke-width="1" fill="none"  />
<polyline points="1121,208  1121,199  1158,199  1158,63  1218,63" stroke-width="1" fill="none"  />
<polyline points="1064,130  1064,171  1121,171" stroke-width="1" fill="none"  />
<polyline points="1121,171  1121,180  1138,180  1138,74" stroke-width="1" fill="none"  />
<line x1="1064" y1="245" x2="1037" y2="245" stroke-width="1" />
<line x1="1064" y1="241" x2="1037" y2="241" stroke-width="1" />
<line x1="1064" y1="237" x2="1037" y2="237" stroke-width="1" />
<line x1="1064" y1="233" x2="1037" y2="233" stroke-width="1" />
<line x1="1064" y1="229" x2="1037" y2="229" stroke-width="1" />
<line x1="1064" y1="225" x2="1037" y2="225" stroke-width="1" />
<line x1="1064" y1="221" x2="1037" y2="221" stroke-width="1" />
<line x1="1037" y1="134" x2="1064" y2="134" stroke-width="1" />
<line x1="1037" y1="138" x2="1064" y2="138" stroke-width="1" />
<line x1="1037" y1="142" x2="1064" y2="142" stroke-width="1" />
<line x1="1037" y1="146" x2="1064" y2="146" stroke-width="1" />
<line x1="1037" y1="150" x2="1064" y2="150" stroke-width="1" />
<line x1="1037" y1="154" x2="1064" y2="154" stroke-width="1" />
<line x1="1037" y1="158" x2="1064" y2="158" stroke-width="1" />
</g>
<g stroke="#FF0000" fill="#FF0000" stroke-opacity="1.0" fill-opacity="1.0" transform="scale(0.5)">
<polyline points="1148,100  1148,87" marker-end="url(#arrow)" stroke-width="1" fill="none" />
<polyline points="1093,190  1121,190" marker-end="url(#arrow)" stroke-width="1" fill="none" />
</g>
<g stroke="#EEEEEE" fill="#FF0000" stroke-opacity="1.0" fill-opacity="1.0" transform="scale(0.5)">
<polyline points="1064,408  1064,412  1037,412  1037,408" stroke-width="1" fill="none"  />
<polyline points="1064,440  1064,436  1037,436  1037,440" stroke-width="1" fill="none"  />
</g>
<g stroke="#000000" fill="#FF0000" stroke-opacity="1.0" fill-opacity="1.0" transform="scale(0.5)">
<polyline points="1064,367  1064,408  1121,408  1121,440  1064,440  1064,481" stroke-width="1" fill="none"  />
<polyline points="1037,481  1037,440  981,440" stroke-width="1" fill="none"  />
<polyline points="981,440  981,435  963,435" stroke-width="1" fill="none"  />
<polyline points="953,438  922,456" stroke-width="1" fill="none"  />
<polyline points="913,459  884,459" stroke-width="1" fill="none"  />
<polyline points="1037,367  1037,408  981,408" stroke-width="1" fill="none"  />
<polyline points="981,408  981,416  954,416" stroke-width="1" fill="none"  />
<polyline points="944,419  917,434" stroke-width="1" fill="none"  />
<polyline points="907,437  844,437" stroke-width="1" fill="none"  />
<line x1="1064" y1="477" x2="1037" y2="477" stroke-width="1" />
<line x1="1064" y1="473" x2="1037" y2="473" stroke-width="1" />
<line x1="1064" y1="469" x2="1037" y2="469" stroke-width="1" />
<line x1="1064" y1="465" x2="1037" y2="465" stroke-width="1" />
<line x1="1064" y1="461" x2="1037" y2="461" stroke-width="1" />
<line x1="1064" y1="457" x2="1037" y2="457" stroke-width="1" />
<line x1="1064" y1="453" x2="1037" y2="453" stroke-width="1" />
<line x1="1064" y1="371" x2="1037" y2="371" stroke-width="1" />
<line x1="1064" y1="375" x2="1037" y2="375" stroke-width="1" />
<line x1="1064" y1="379" x2="1037" y2="379" stroke-width="1" />
<line x1="1064" y1="383" x2="1037" y2="383" stroke-width="1" />
<line x1="1064" y1="387" x2="1037" y2="387" stroke-width="1" />
<line x1="1064" y1="391" x2="1037" y2="391" stroke-width="1" />
<line x1="1064" y1="395" x2="1037" y2="395" stroke-width="1" />
</g>
<g stroke="#7F7F7F" fill="#FF0000" stroke-opacity="1.0" fill-opacity="1.0" transform="scale(0.5)">
<line x1="837" y1="456" x2="837" y2="440" stroke-width="1" />
<line x1="833" y1="456" x2="833" y2="440" stroke-width="1" />
<line x1="829" y1="456" x2="829" y2="440" stroke-width="1" />
<line x1="825" y1="456" x2="825" y2="440" stroke-width="1" />
<line x1="821" y1="456" x2="821" y2="440" stroke-width="1" />
<line x1="817" y1="456" x2="817" y2="440" stroke-width="1" />
<line x1="813" y1="456" x2="813" y2="440" stroke-width="1" />
<line x1="809" y1="456" x2="809" y2="440" stroke-width="1" />
<line x1="805" y1="456" x2="805" y2="440" stroke-width="1" />
<line x1="801" y1="456" x2="801" y2="440" stroke-width="1" />
<line x1="797" y1="456" x2="797" y2="440" stroke-width="1" />
<line x1="793" y1="456" x2="793" y2="440" stroke-width="1" />
<line x1="789" y1="456" x2="789" y2="440" stroke-width="1" />
<line x1="785" y1="456" x2="785" y2="440" stroke-width="1" />
<line x1="781" y1="456" x2="781" y2="440" stroke-width="1" />
<line x1="777" y1="456" x2="777" y2="440" stroke-width="1" />
<line x1="773" y1="456" x2="773" y2="440" stroke-width="1" />
<line x1="769" y1="456" x2="769" y2="440" stroke-width="1" />
<line x1="765" y1="456" x2="765" y2="440" stroke-width="1" />
<line x1="761" y1="456" x2="761" y2="440" stroke-width="1" />
</g>
<g stroke="#000000" fill="#9B5509" stroke-opacity="1.0" fill-opacity="1.0" transform="scale(0.5)">
<polygon points="844,440  754,440  754,437  844,437" stroke-width="1" />
<polygon points="844,446  844,450  754,450  754,446" stroke-width="1" />
<polygon points="844,456  754,456  754,459  844,459" stroke-width="1" />
</g>
<g stroke="#000000" fill="#9B5509" stroke-opacity="1.0" fill-opacity="1.0" transform="scale(0.5)">
<polygon points="500,461  500,431  50,431  50,461" stroke-width="1" />
<polygon points="500,541  500,571  50,571  50,541" stroke-width="1" />
</g>
<g stroke="#543C04" fill="none" stroke-opacity="1.0" fill-opacity="1.0" transform="scale(0.5)">
<text x=" 54" y="429.0" font-family="Arial" font-size=" 20" fill="#543C04" stroke-width="0">&lt;&lt; Киевская</text>
<text x=" 368" y="593.0" font-family="Arial" font-size=" 20" fill="#543C04" stroke-width="0">Октябрьская &gt;&gt;</text>
<text x=" 184" y="520.0" font-family="Arial" font-size=" 25" fill="#543C04" stroke-width="0">Парк Культуры</text>
</g>
<g stroke="#34349C" fill="#34349C" stroke-opacity="1.0" fill-opacity="1.0" transform="scale(0.5)">
<polygon points="271,498  271,494  272,494  272,498" stroke-width="1" />
</g>
<g stroke="#FF0000" fill="#FF0000" stroke-opacity="1.0" fill-opacity="1.0" transform="scale(0.5)">
<polygon points="271,502  271,498  272,498  272,502" stroke-width="1" />
</g>
<g stroke="#000000" fill="#FF0000" stroke-opacity="1.0" fill-opacity="1.0" transform="scale(0.5)">
<polyline points="50,541  50,526  135,526  135,517  129,517  129,482  135,482  135,473  50,473  50,461" stroke-width="1" fill="none"  />
</g>
<g stroke="#000000" fill="#FF0000" stroke-opacity="1.0" fill-opacity="1.0" transform="scale(0.5)">
<polyline points="500,461  500,474  394,474  394,483  452,483" stroke-width="1" fill="none"  />
<polyline points="500,541  500,528  394,528  394,519  452,519" stroke-width="1" fill="none"  />
<polyline points="451,506  429,501  400,501" stroke-width=" 0.5" fill="none"  />
</g>
<g stroke="#7F7F7F" fill="#FF0000" stroke-opacity="1.0" fill-opacity="1.0" transform="scale(0.5)">
<line x1="659" y1="514" x2="659" y2="488" stroke-width="1" />
<line x1="655" y1="514" x2="655" y2="488" stroke-width="1" />
<line x1="651" y1="514" x2="651" y2="488" stroke-width="1" />
<line x1="647" y1="514" x2="647" y2="488" stroke-width="1" />
<line x1="643" y1="514" x2="643" y2="488" stroke-width="1" />
<line x1="639" y1="514" x2="639" y2="488" stroke-width="1" />
<line x1="635" y1="514" x2="635" y2="488" stroke-width="1" />
<line x1="631" y1="514" x2="631" y2="488" stroke-width="1" />
<line x1="627" y1="514" x2="627" y2="488" stroke-width="1" />
<line x1="623" y1="514" x2="623" y2="488" stroke-width="1" />
<line x1="619" y1="514" x2="619" y2="488" stroke-width="1" />
<line x1="615" y1="514" x2="615" y2="488" stroke-width="1" />
<line x1="611" y1="514" x2="611" y2="488" stroke-width="1" />
<line x1="607" y1="514" x2="607" y2="488" stroke-width="1" />
<line x1="603" y1="514" x2="603" y2="488" stroke-width="1" />
<line x1="599" y1="514" x2="599" y2="488" stroke-width="1" />
<line x1="595" y1="514" x2="595" y2="488" stroke-width="1" />
<line x1="591" y1="514" x2="591" y2="488" stroke-width="1" />
<line x1="587" y1="514" x2="587" y2="488" stroke-width="1" />
<line x1="583" y1="514" x2="583" y2="488" stroke-width="1" />
<line x1="579" y1="514" x2="579" y2="488" stroke-width="1" />
<line x1="575" y1="514" x2="575" y2="488" stroke-width="1" />
<line x1="571" y1="514" x2="571" y2="488" stroke-width="1" />
<line x1="567" y1="514" x2="567" y2="488" stroke-width="1" />
<line x1="563" y1="514" x2="563" y2="488" stroke-width="1" />
<line x1="559" y1="514" x2="559" y2="488" stroke-width="1" />
<line x1="555" y1="514" x2="555" y2="488" stroke-width="1" />
<line x1="551" y1="514" x2="551" y2="488" stroke-width="1" />
<line x1="547" y1="514" x2="547" y2="488" stroke-width="1" />
<line x1="543" y1="514" x2="543" y2="488" stroke-width="1" />
<line x1="539" y1="514" x2="539" y2="488" stroke-width="1" />
<line x1="535" y1="514" x2="535" y2="488" stroke-width="1" />
<line x1="531" y1="514" x2="531" y2="488" stroke-width="1" />
<line x1="527" y1="514" x2="527" y2="488" stroke-width="1" />
<line x1="523" y1="514" x2="523" y2="488" stroke-width="1" />
<line x1="519" y1="514" x2="519" y2="488" stroke-width="1" />
<line x1="515" y1="514" x2="515" y2="488" stroke-width="1" />
<line x1="511" y1="514" x2="511" y2="488" stroke-width="1" />
<line x1="507" y1="514" x2="507" y2="488" stroke-width="1" />
<line x1="503" y1="514" x2="503" y2="488" stroke-width="1" />
<line x1="499" y1="514" x2="499" y2="488" stroke-width="1" />
<line x1="495" y1="514" x2="495" y2="488" stroke-width="1" />
<line x1="491" y1="514" x2="491" y2="488" stroke-width="1" />
<line x1="487" y1="514" x2="487" y2="488" stroke-width="1" />
<line x1="483" y1="514" x2="483" y2="488" stroke-width="1" />
<line x1="479" y1="514" x2="479" y2="488" stroke-width="1" />
<line x1="475" y1="514" x2="475" y2="488" stroke-width="1" />
<line x1="471" y1="514" x2="471" y2="488" stroke-width="1" />
<line x1="467" y1="514" x2="467" y2="488" stroke-width="1" />
<line x1="463" y1="514" x2="463" y2="488" stroke-width="1" />
<line x1="459" y1="514" x2="459" y2="488" stroke-width="1" />
</g>
<g stroke="#000000" fill="#9B5509" stroke-opacity="1.0" fill-opacity="1.0" transform="scale(0.5)">
<polygon points="666,488  452,488  452,485  666,485" stroke-width="1" />
<polygon points="666,494  666,498  452,498  452,494" stroke-width="1" />
<polygon points="666,504  666,508  452,508  452,504" stroke-width="1" />
<polygon points="666,514  452,514  452,517  666,517" stroke-width="1" />
<polyline points="800,563  815,563" stroke-width="1" fill="none"  />
<polyline points="800,542  804,542" stroke-width="1" fill="none"  />
<polyline points="800,492  800,501" stroke-width="1" fill="none"  />
<polyline points="719,418  714,418" stroke-width="1" fill="none"  />
<polyline points="703,418  698,418" stroke-width="1" fill="none"  />
<polyline points="640,566  640,539" stroke-width="1" fill="none"  />
<polyline points="643,539  643,566" stroke-width="1" fill="none"  />
<line x1="785" y1="542" x2="785" y2="563" stroke-width="1" />
<line x1="789" y1="542" x2="789" y2="563" stroke-width="1" />
<line x1="793" y1="542" x2="793" y2="563" stroke-width="1" />
<line x1="797" y1="542" x2="797" y2="563" stroke-width="1" />
<line x1="806" y1="540" x2="822" y2="556" stroke-width="1" />
<line x1="808.828427125" y1="537.171572875" x2="824.828427125" y2="553.171572875" stroke-width="1" />
<line x1="811.656854249" y1="534.343145751" x2="827.656854249" y2="550.343145751" stroke-width="1" />
<line x1="814.485281374" y1="531.514718626" x2="830.485281374" y2="547.514718626" stroke-width="1" />
<line x1="817.313708499" y1="528.686291501" x2="833.313708499" y2="544.686291501" stroke-width="1" />
<line x1="820.142135624" y1="525.857864376" x2="836.142135624" y2="541.857864376" stroke-width="1" />
<line x1="822.970562748" y1="523.029437252" x2="838.970562748" y2="539.029437252" stroke-width="1" />
<line x1="825.798989873" y1="520.201010127" x2="841.798989873" y2="536.201010127" stroke-width="1" />
</g>
<g stroke="#000000" fill="#D0D0D0" stroke-opacity="1.0" fill-opacity="1.0" transform="scale(0.5)">
<polygon points="800,459  800,471  744,471  744,459" stroke-width="1" />
<polygon points="792,527  792,522  800,522  800,542  744,542  744,527" stroke-width="1" />
<polygon points="800,437  800,431  773,431  773,418  730,418  730,429  744,429  744,437" stroke-width="1" />
<polygon points="800,568  800,563  682,563  682,566  640,566  640,580  688,580  688,568" stroke-width="1" />
</g>
<g stroke="#D0D0D0" fill="#D0D0D0" stroke-opacity="1.0" fill-opacity="1.0" transform="scale(0.5)">
<polygon points="666,517  666,519  688,519  688,539  640,539  640,531  626,527  615,517" stroke-width="1" />
<polygon points="615,485  626,476  640,472  640,418  688,418  688,432  669,432  669,466  688,466  688,483  666,483  666,485" stroke-width="1" />
</g>
<g stroke="#000000" fill="#D0D0D0" stroke-opacity="1.0" fill-opacity="1.0" transform="scale(0.5)">
<polyline points="640,472  640,418  688,418  688,432  669,432  669,466  688,466  688,483  666,483  666,485  615,485" stroke-width="1" fill="none"  />
<polyline points="615,517  666,517  666,519  688,519  688,539  640,539  640,531" stroke-width="1" fill="none"  />
<polyline points="640,472  626,476  615,485" stroke-width="1" fill="none"/> <!-- spline -->
<polyline points="640,531  626,527  615,517" stroke-width="1" fill="none"/> <!-- spline -->
</g>
<g stroke="#000000" fill="#FFFFFF" stroke-opacity="1.0" fill-opacity="1.0" transform="scale(0.5)">
<polygon points="782,527  782,536  752,536  752,527" stroke-width="1" />
</g>
<g stroke="#000000" fill="none" stroke-opacity="1.0" fill-opacity="1.0" transform="scale(0.5)">
<text x=" 755" y="535.0" font-family="Arial" font-size=" 10" fill="#000000" stroke-width="0">кассы</text>
</g>
<g stroke="#000000" fill="none" stroke-opacity="1.0" fill-opacity="1.0" transform="scale(0.5)">
<polygon points="743,525  749,525  749,519  743,519" stroke-width="1" />
<polyline points="699,450  688,432" stroke-width=" 0.5" fill="none"  />
</g>
<g stroke="#009900" fill="none" stroke-opacity="1.0" fill-opacity="1.0" transform="scale(0.5)">
<line x1="748" y1="515" x2="744" y2="515" stroke-width="1" />
<line x1="748" y1="511" x2="744" y2="511" stroke-width="1" />
<line x1="748" y1="507" x2="744" y2="507" stroke-width="1" />
<line x1="748" y1="503" x2="744" y2="503" stroke-width="1" />
<line x1="748" y1="499" x2="744" y2="499" stroke-width="1" />
<line x1="748" y1="495" x2="744" y2="495" stroke-width="1" />
<line x1="748" y1="491" x2="744" y2="491" stroke-width="1" />
<line x1="748" y1="487" x2="744" y2="487" stroke-width="1" />
<line x1="748" y1="483" x2="744" y2="483" stroke-width="1" />
<line x1="748" y1="479" x2="744" y2="479" stroke-width="1" />
<line x1="748" y1="475" x2="744" y2="475" stroke-width="1" />
</g>
<g stroke="#FF0000" fill="none" stroke-opacity="1.0" fill-opacity="1.0" transform="scale(0.5)">
<line x1="701" y1="451" x2="699" y2="448" stroke-width="1" />
<line x1="704.309903098" y1="448.753994327" x2="702.309903098" y2="445.753994327" stroke-width="1" />
<line x1="707.619806195" y1="446.507988653" x2="705.619806195" y2="443.507988653" stroke-width="1" />
<line x1="710.929709293" y1="444.26198298" x2="708.929709293" y2="441.26198298" stroke-width="1" />
<line x1="714.23961239" y1="442.015977307" x2="712.23961239" y2="439.015977307" stroke-width="1" />
<line x1="717.549515488" y1="439.769971633" x2="715.549515488" y2="436.769971633" stroke-width="1" />
<line x1="720.859418585" y1="437.52396596" x2="718.859418585" y2="434.52396596" stroke-width="1" />
<line x1="724.169321683" y1="435.277960287" x2="722.169321683" y2="432.277960287" stroke-width="1" />
<line x1="727.479224781" y1="433.031954613" x2="725.479224781" y2="430.031954613" stroke-width="1" />
</g>
<g stroke="#FF0000" fill="none" stroke-opacity="1.0" fill-opacity="1.0" transform="scale(0.5)">
<polyline points="710,435  710,420" marker-end="url(#arrow)" stroke-width="1" fill="none" />
<polyline points="748,449  733,449" marker-end="url(#arrow)" stroke-width="1" fill="none" />
</g>
<g stroke="#009900" fill="none" stroke-opacity="1.0" fill-opacity="1.0" transform="scale(0.5)">
<polyline points="747,552  767,552" marker-end="url(#arrow)" stroke-width="1" fill="none" />
<polyline points="750,497  733,497" marker-end="url(#arrow)" stroke-width="1" fill="none" />
</g>
<g stroke="#00AFAF" fill="none" stroke-opacity="1.0" fill-opacity="1.0" transform="scale(0.5)">
<text x=" 1036" y="810.0" font-family="Arial" font-size=" 15" fill="#00AFAF" transform="rotate(-90.0  1036  795)" stroke-width="0">Комсомольский проспект</text>
<text x=" 1069" y="-21.0" font-family="Arial" font-size=" 15" fill="#00AFAF" transform="rotate(-90.0  1069  -36)" stroke-width="0">улица Остоженка</text>
<text x=" 387" y="309.0" font-family="Arial" font-size=" 15" fill="#00AFAF" stroke-width="0">Зубовский бульвар (Садовое кольцо)</text>
<text x=" 891" y="760.0" font-family="Arial" font-size=" 15" fill="#00AFAF" transform="rotate(-90.0  891  745)" stroke-width="0">Крымская площадь</text>
<text x=" 727" y="396.0" font-family="Arial" font-size=" 15" fill="#00AFAF" stroke-width="0">ЦПКиО &gt;&gt;</text>
<text x=" 1251" y="404.0" font-family="Arial" font-size=" 15" fill="#00AFAF" stroke-width="0">ЦПКиО &gt;&gt;</text>
</g>
<g stroke="#000000" fill="none" stroke-opacity="1.0" fill-opacity="1.0" transform="scale(0.5)">
<text x=" 780" y="499.0" font-family="Arial" font-size=" 8" fill="#000000" stroke-width="0">вход</text>
<text x=" 1215" y="44.0" font-family="Arial" font-size=" 8" fill="#000000" stroke-width="0">вход</text>
<text x=" 1215" y="91.0" font-family="Arial" font-size=" 8" fill="#000000" stroke-width="0">вестибюль работает</text>
<text x=" 1220" y="101.0" font-family="Arial" font-size=" 8" fill="#000000" stroke-width="0">с 6-30 до 22-30</text>
</g>
</g>
</g>
</svg>
