<?xml version="1.0" encoding="utf-8" ?>
<svg baseProfile="full" height="1080.0" version="1.1" width="980.0" xmlns="http://www.w3.org/2000/svg" xmlns:ev="http://www.w3.org/2001/xml-events" xmlns:xlink="http://www.w3.org/1999/xlink">
  <defs>
    <marker id="id258" markerHeight="3" markerUnits="strokeWidth" markerWidth="4" orient="auto" refX="0" refY="5" viewBox="0,0,10,10">
      <path d="M 0 0 L 10 5 L 0 10 z"/>
    </marker>
  </defs>
  <g>
    <rect fill="none" height="1080.0" stroke="none" stroke-width="0" width="980.0" x="0.0" y="0.0"/>
    <g transform="rotate(-30.0,490.0,540.0)">
      <polygon fill="#f5f5f5" points="1087.0,261.0 1147.0,296.0 784.0,499.0 187.0,500.0 187.0,634.0 178.0,649.0 789.0,1002.0 769.0,1036.0 158.0,684.0 32.0,900.0 -2.0,880.0 147.0,623.0 147.0,500.0 -53.0,500.0 -18.0,440.0 103.0,441.0 103.0,230.0 143.0,161.0 142.0,440.0 768.0,440.0" stroke="#f5f5f5" stroke-width="1"/>
      <polyline fill="none" points="657.0,260.0 657.0,352.0 413.0,605.0 316.0,605.0" stroke="#000000" stroke-width="1"/>
      <polyline fill="none" points="316.0,651.0 443.0,651.0 706.0,374.0 706.0,260.0" stroke="#000000" stroke-width="1"/>
      <polyline fill="none" points="657.0,242.0 706.0,242.0" stroke="#000000" stroke-width="1"/>
      <polyline fill="none" points="298.0,605.0 298.0,651.0" stroke="#000000" stroke-width="1"/>
      <line stroke="#000000" stroke-width="1" x1="709.0" x2="709.0" y1="260.0" y2="242.0"/>
      <line stroke="#000000" stroke-width="1" x1="713.0" x2="713.0" y1="260.0" y2="242.0"/>
      <line stroke="#000000" stroke-width="1" x1="717.0" x2="717.0" y1="260.0" y2="242.0"/>
      <line stroke="#000000" stroke-width="1" x1="721.0" x2="721.0" y1="260.0" y2="242.0"/>
      <line stroke="#000000" stroke-width="1" x1="725.0" x2="725.0" y1="260.0" y2="242.0"/>
      <line stroke="#000000" stroke-width="1" x1="729.0" x2="729.0" y1="260.0" y2="242.0"/>
      <line stroke="#000000" stroke-width="1" x1="733.0" x2="733.0" y1="260.0" y2="242.0"/>
      <line stroke="#000000" stroke-width="1" x1="737.0" x2="737.0" y1="260.0" y2="242.0"/>
      <line stroke="#000000" stroke-width="1" x1="654.0" x2="654.0" y1="260.0" y2="242.0"/>
      <line stroke="#000000" stroke-width="1" x1="650.0" x2="650.0" y1="260.0" y2="242.0"/>
      <line stroke="#000000" stroke-width="1" x1="646.0" x2="646.0" y1="260.0" y2="242.0"/>
      <line stroke="#000000" stroke-width="1" x1="642.0" x2="642.0" y1="260.0" y2="242.0"/>
      <line stroke="#000000" stroke-width="1" x1="638.0" x2="638.0" y1="260.0" y2="242.0"/>
      <line stroke="#000000" stroke-width="1" x1="634.0" x2="634.0" y1="260.0" y2="242.0"/>
      <line stroke="#000000" stroke-width="1" x1="630.0" x2="630.0" y1="260.0" y2="242.0"/>
      <line stroke="#000000" stroke-width="1" x1="626.0" x2="626.0" y1="260.0" y2="242.0"/>
      <line stroke="#000000" stroke-width="1" x1="298.0" x2="316.0" y1="602.0" y2="602.0"/>
      <line stroke="#000000" stroke-width="1" x1="298.0" x2="316.0" y1="598.0" y2="598.0"/>
      <line stroke="#000000" stroke-width="1" x1="298.0" x2="316.0" y1="594.0" y2="594.0"/>
      <line stroke="#000000" stroke-width="1" x1="298.0" x2="316.0" y1="590.0" y2="590.0"/>
      <line stroke="#000000" stroke-width="1" x1="298.0" x2="316.0" y1="586.0" y2="586.0"/>
      <line stroke="#000000" stroke-width="1" x1="298.0" x2="316.0" y1="582.0" y2="582.0"/>
      <line stroke="#000000" stroke-width="1" x1="298.0" x2="316.0" y1="578.0" y2="578.0"/>
      <line stroke="#000000" stroke-width="1" x1="298.0" x2="316.0" y1="574.0" y2="574.0"/>
      <line stroke="#000000" stroke-width="1" x1="298.0" x2="316.0" y1="654.0" y2="654.0"/>
      <line stroke="#000000" stroke-width="1" x1="298.0" x2="316.0" y1="658.0" y2="658.0"/>
      <line stroke="#000000" stroke-width="1" x1="298.0" x2="316.0" y1="662.0" y2="662.0"/>
      <line stroke="#000000" stroke-width="1" x1="298.0" x2="316.0" y1="666.0" y2="666.0"/>
      <line stroke="#000000" stroke-width="1" x1="298.0" x2="316.0" y1="670.0" y2="670.0"/>
      <line stroke="#000000" stroke-width="1" x1="298.0" x2="316.0" y1="674.0" y2="674.0"/>
      <line stroke="#000000" stroke-width="1" x1="298.0" x2="316.0" y1="678.0" y2="678.0"/>
      <line stroke="#000000" stroke-width="1" x1="298.0" x2="316.0" y1="682.0" y2="682.0"/>
      <line stroke="#000000" stroke-width="1" x1="298.0" x2="316.0" y1="686.0" y2="686.0"/>
      <polygon fill="#d0d0d0" points="688.0,260.0 688.0,366.0 675.0,360.0 675.0,260.0" stroke="#000000" stroke-width="1"/>
      <polygon fill="#d0d0d0" points="316.0,620.0 422.0,620.0 432.0,635.0 316.0,635.0" stroke="#000000" stroke-width="1"/>
      <polyline fill="none" marker-end="url(#id258)" points="551.0,518.0 576.0,491.0" stroke="#000000" stroke-width="1"/>
      <polyline fill="none" marker-end="url(#id258)" points="751.0,250.0 778.0,250.0" stroke="#000000" stroke-width="1"/>
      <polyline fill="none" marker-end="url(#id258)" points="307.0,727.0 307.0,701.0" stroke="#000000" stroke-width="1"/>
      <polyline fill="none" marker-end="url(#id258)" points="581.0,250.0 608.0,250.0" stroke="#000000" stroke-width="1"/>
      <polyline fill="none" marker-end="url(#id258)" points="307.0,559.0 307.0,532.0" stroke="#000000" stroke-width="1"/>
      <polyline fill="none" marker-end="url(#id258)" points="556.0,475.0 530.0,502.0" stroke="#000000" stroke-width="1"/>
    </g>
    <g fill="#d0d0d0" fill-opacity="0.8" stroke="#000000" stroke-opacity="0.8" transform="rotate(-30.0,490.0,540.0)">
      <polygon fill="#ffffff" points="656.0,290.0 707.0,290.0 707.0,241.0 656.0,241.0" stroke="#ffffff" stroke-width="1"/>
      <polygon fill="#ffffff" points="345.0,652.0 297.0,652.0 297.0,604.0 345.0,604.0" stroke="#ffffff" stroke-width="1"/>
    </g>
    <g fill="#ffffff" fill-opacity="1.0" stroke="#ffffff" stroke-opacity="1.0" transform="rotate(-30.0,490.0,540.0)">
      <polyline fill="none" points="740.0,242.0 706.0,242.0 706.0,260.0 740.0,260.0" stroke="#000000" stroke-width="1"/>
      <polyline fill="none" points="623.0,242.0 657.0,242.0 657.0,260.0 623.0,260.0" stroke="#000000" stroke-width="1"/>
      <polyline fill="none" points="316.0,571.0 316.0,605.0 298.0,605.0 298.0,571.0" stroke="#000000" stroke-width="1"/>
      <polyline fill="none" points="316.0,689.0 316.0,651.0 298.0,651.0 298.0,689.0" stroke="#000000" stroke-width="1"/>
      <polygon fill="#fefbf1" points="730.0,1082.0 156.0,751.0 96.0,855.0 231.0,933.0 206.0,976.0 645.0,1229.0" stroke="#cccccc" stroke-width="1"/>
      <text fill="#000000" font-family="Arial" font-size="15.0" stroke="none" stroke-width="0" transform="rotate(30.0,475.0,1017.0)" x="475.0" y="1032.0">Павелецкий вокзал</text>
      <polyline fill="none" points="345.0,862.0 336.0,862.0 336.0,810.0 328.0,810.0 328.0,840.0 325.0,840.0" stroke="#000000" stroke-width="1"/>
      <polyline fill="none" points="265.0,862.0 274.0,862.0 274.0,810.0 282.0,810.0 282.0,840.0 285.0,840.0" stroke="#000000" stroke-width="1"/>
      <polyline fill="none" points="285.0,908.0 273.0,901.0 234.0,968.0 386.0,1056.0" stroke="#000000" stroke-width="1"/>
      <polyline fill="none" points="368.0,943.0 362.0,953.0 324.0,931.0" stroke="#000000" stroke-width="1"/>
      <polyline fill="none" points="393.0,957.0 387.0,967.0 425.0,989.0" stroke="#000000" stroke-width="1"/>
      <polyline fill="none" points="379.0,1052.0 375.0,1059.0 351.0,1045.0 355.0,1038.0" stroke="#000000" stroke-width="1"/>
      <polyline fill="none" points="285.0,908.0 324.0,931.0" stroke="#c0c0c0" stroke-width="1"/>
      <line stroke="#7f7f7f" stroke-width="1" x1="322.0" x2="288.0" y1="838.0" y2="838.0"/>
      <line stroke="#7f7f7f" stroke-width="1" x1="322.0" x2="288.0" y1="842.0" y2="842.0"/>
      <line stroke="#7f7f7f" stroke-width="1" x1="322.0" x2="288.0" y1="846.0" y2="846.0"/>
      <line stroke="#7f7f7f" stroke-width="1" x1="322.0" x2="288.0" y1="850.0" y2="850.0"/>
      <line stroke="#7f7f7f" stroke-width="1" x1="322.0" x2="288.0" y1="854.0" y2="854.0"/>
      <line stroke="#7f7f7f" stroke-width="1" x1="322.0" x2="288.0" y1="858.0" y2="858.0"/>
      <line stroke="#7f7f7f" stroke-width="1" x1="322.0" x2="288.0" y1="862.0" y2="862.0"/>
      <line stroke="#7f7f7f" stroke-width="1" x1="322.0" x2="288.0" y1="866.0" y2="866.0"/>
      <line stroke="#7f7f7f" stroke-width="1" x1="322.0" x2="288.0" y1="870.0" y2="870.0"/>
      <line stroke="#7f7f7f" stroke-width="1" x1="322.0" x2="288.0" y1="874.0" y2="874.0"/>
      <line stroke="#7f7f7f" stroke-width="1" x1="322.0" x2="288.0" y1="878.0" y2="878.0"/>
      <line stroke="#7f7f7f" stroke-width="1" x1="322.0" x2="288.0" y1="882.0" y2="882.0"/>
      <line stroke="#7f7f7f" stroke-width="1" x1="322.0" x2="288.0" y1="886.0" y2="886.0"/>
      <line stroke="#7f7f7f" stroke-width="1" x1="322.0" x2="288.0" y1="890.0" y2="890.0"/>
      <line stroke="#7f7f7f" stroke-width="1" x1="322.0" x2="288.0" y1="894.0" y2="894.0"/>
      <line stroke="#7f7f7f" stroke-width="1" x1="322.0" x2="288.0" y1="898.0" y2="898.0"/>
      <line stroke="#7f7f7f" stroke-width="1" x1="322.0" x2="288.0" y1="902.0" y2="902.0"/>
      <line stroke="#7f7f7f" stroke-width="1" x1="322.0" x2="288.0" y1="906.0" y2="906.0"/>
      <line stroke="#7f7f7f" stroke-width="1" x1="322.0" x2="288.0" y1="910.0" y2="910.0"/>
      <line stroke="#7f7f7f" stroke-width="1" x1="322.0" x2="288.0" y1="914.0" y2="914.0"/>
      <line stroke="#7f7f7f" stroke-width="1" x1="322.0" x2="288.0" y1="918.0" y2="918.0"/>
      <line stroke="#7f7f7f" stroke-width="1" x1="322.0" x2="288.0" y1="922.0" y2="922.0"/>
      <line stroke="#7f7f7f" stroke-width="1" x1="322.0" x2="288.0" y1="926.0" y2="926.0"/>
      <line stroke="#7f7f7f" stroke-width="1" x1="322.0" x2="288.0" y1="930.0" y2="930.0"/>
      <polygon fill="#9b5509" points="288.0,831.0 288.0,939.0 285.0,939.0 285.0,831.0" stroke="#000000" stroke-width="1"/>
      <polygon fill="#9b5509" points="296.0,831.0 301.0,831.0 301.0,939.0 296.0,939.0" stroke="#000000" stroke-width="1"/>
      <polygon fill="#9b5509" points="309.0,831.0 314.0,831.0 314.0,939.0 309.0,939.0" stroke="#000000" stroke-width="1"/>
      <polygon fill="#9b5509" points="322.0,831.0 322.0,939.0 325.0,939.0 325.0,831.0" stroke="#000000" stroke-width="1"/>
      <text fill="#000000" font-family="Arial" font-size="10.0" stroke="none" stroke-width="0" transform="rotate(30.0,357.0,1037.0)" x="357.0" y="1047.0">кассы</text>
      <polygon fill="none" points="374.0,1003.0 369.0,1000.0 366.0,1005.0 371.0,1008.0" stroke="#000000" stroke-width="1"/>
      <line stroke="#009900" stroke-width="1" x1="369.0" x2="365.0" y1="1011.0" y2="1009.0"/>
      <line stroke="#009900" stroke-width="1" x1="366.94201697828987" x2="362.94201697828987" y1="1014.4299717028501" y2="1012.4299717028501"/>
      <line stroke="#009900" stroke-width="1" x1="364.88403395657974" x2="360.88403395657974" y1="1017.8599434057003" y2="1015.8599434057003"/>
      <line stroke="#009900" stroke-width="1" x1="362.8260509348696" x2="358.8260509348696" y1="1021.2899151085504" y2="1019.2899151085504"/>
      <line stroke="#009900" stroke-width="1" x1="360.7680679131595" x2="356.7680679131595" y1="1024.7198868114006" y2="1022.7198868114006"/>
      <line stroke="#009900" stroke-width="1" x1="358.71008489144936" x2="354.71008489144936" y1="1028.1498585142508" y2="1026.1498585142508"/>
      <line stroke="#009900" stroke-width="1" x1="356.6521018697392" x2="352.6521018697392" y1="1031.579830217101" y2="1029.579830217101"/>
      <line stroke="#009900" stroke-width="1" x1="354.5941188480291" x2="350.5941188480291" y1="1035.0098019199513" y2="1033.0098019199513"/>
      <line stroke="#ff0000" stroke-width="1" x1="390.0" x2="386.0" y1="973.0" y2="971.0"/>
      <line stroke="#ff0000" stroke-width="1" x1="388.00111018604167" x2="384.00111018604167" y1="976.4647423441944" y2="974.4647423441944"/>
      <line stroke="#ff0000" stroke-width="1" x1="386.00222037208334" x2="382.00222037208334" y1="979.9294846883888" y2="977.9294846883888"/>
      <line stroke="#ff0000" stroke-width="1" x1="384.003330558125" x2="380.003330558125" y1="983.3942270325832" y2="981.3942270325832"/>
      <line stroke="#ff0000" stroke-width="1" x1="382.0044407441667" x2="378.0044407441667" y1="986.8589693767776" y2="984.8589693767776"/>
      <line stroke="#ff0000" stroke-width="1" x1="380.00555093020836" x2="376.00555093020836" y1="990.323711720972" y2="988.323711720972"/>
      <line stroke="#ff0000" stroke-width="1" x1="378.00666111625003" x2="374.00666111625003" y1="993.7884540651664" y2="991.7884540651664"/>
      <line stroke="#ff0000" stroke-width="1" x1="376.0077713022917" x2="372.0077713022917" y1="997.2531964093608" y2="995.2531964093608"/>
      <line stroke="#ff0000" stroke-width="1" x1="367.0" x2="369.0" y1="953.0" y2="950.0"/>
      <line stroke="#ff0000" stroke-width="1" x1="370.41312733460785" x2="372.41312733460785" y1="955.0858000378159" y2="952.0858000378159"/>
      <line stroke="#ff0000" stroke-width="1" x1="373.8262546692157" x2="375.8262546692157" y1="957.1716000756319" y2="954.1716000756319"/>
      <line stroke="#ff0000" stroke-width="1" x1="377.23938200382355" x2="379.23938200382355" y1="959.2574001134478" y2="956.2574001134478"/>
      <line stroke="#ff0000" stroke-width="1" x1="380.6525093384314" x2="382.6525093384314" y1="961.3432001512638" y2="958.3432001512638"/>
      <line stroke="#ff0000" stroke-width="1" x1="384.06563667303925" x2="386.06563667303925" y1="963.4290001890797" y2="960.4290001890797"/>
      <polyline fill="none" marker-end="url(#id258)" points="318.0,801.0 318.0,821.0" stroke="#ff0000" stroke-width="1"/>
      <polyline fill="none" marker-end="url(#id258)" points="377.0,982.0 390.0,989.0" stroke="#ff0000" stroke-width="1"/>
      <polyline fill="none" marker-end="url(#id258)" points="374.0,961.0 382.0,948.0" stroke="#ff0000" stroke-width="1"/>
      <polyline fill="none" marker-end="url(#id258)" points="364.0,1024.0 350.0,1017.0" stroke="#009900" stroke-width="1"/>
      <polyline fill="none" marker-end="url(#id258)" points="292.0,957.0 292.0,945.0" stroke="#009900" stroke-width="1"/>
      <polygon fill="#34349c" points="333.0,943.0 337.0,943.0 337.0,944.0 333.0,944.0" stroke="#34349c" stroke-width="1"/>
      <polygon fill="#ff0000" points="329.0,943.0 333.0,943.0 333.0,944.0 329.0,944.0" stroke="#ff0000" stroke-width="1"/>
      <polygon fill="#047c54" points="265.0,862.0 235.0,862.0 235.0,412.0 265.0,412.0" stroke="#000000" stroke-width="1"/>
      <polygon fill="#047c54" points="345.0,862.0 345.0,412.0 375.0,412.0 375.0,862.0" stroke="#000000" stroke-width="1"/>
      <text fill="#047c54" font-family="Arial" font-size="20.0" stroke="none" stroke-width="0" transform="rotate(90.0,235.0,684.0)" x="235.0" y="704.0">Автозаводская &gt;&gt;</text>
      <text fill="#047c54" font-family="Arial" font-size="20.0" stroke="none" stroke-width="0" transform="rotate(90.0,399.0,412.0)" x="399.0" y="432.0">&lt;&lt; Новокузнецкая</text>
      <text fill="#047c54" font-family="Arial" font-size="25.0" stroke="none" stroke-width="0" transform="rotate(90.0,296.0,555.0)" x="296.0" y="580.0">Павелецкая</text>
      <polygon fill="#34349c" points="306.0,627.0 302.0,627.0 302.0,628.0 306.0,628.0" stroke="#34349c" stroke-width="1"/>
      <polygon fill="#ff0000" points="310.0,627.0 306.0,627.0 306.0,628.0 310.0,628.0" stroke="#ff0000" stroke-width="1"/>
      <polyline fill="none" points="265.0,412.0 275.0,412.0 275.0,473.0 282.0,473.0 282.0,439.0 285.0,439.0" stroke="#000000" stroke-width="1"/>
      <polyline fill="none" points="345.0,412.0 335.0,412.0 335.0,473.0 328.0,473.0 328.0,439.0 325.0,439.0" stroke="#000000" stroke-width="1"/>
      <line stroke="#7f7f7f" stroke-width="1" x1="322.0" x2="288.0" y1="313.0" y2="313.0"/>
      <line stroke="#7f7f7f" stroke-width="1" x1="322.0" x2="288.0" y1="317.0" y2="317.0"/>
      <line stroke="#7f7f7f" stroke-width="1" x1="322.0" x2="288.0" y1="321.0" y2="321.0"/>
      <line stroke="#7f7f7f" stroke-width="1" x1="322.0" x2="288.0" y1="325.0" y2="325.0"/>
      <line stroke="#7f7f7f" stroke-width="1" x1="322.0" x2="288.0" y1="329.0" y2="329.0"/>
      <line stroke="#7f7f7f" stroke-width="1" x1="322.0" x2="288.0" y1="333.0" y2="333.0"/>
      <line stroke="#7f7f7f" stroke-width="1" x1="322.0" x2="288.0" y1="337.0" y2="337.0"/>
      <line stroke="#7f7f7f" stroke-width="1" x1="322.0" x2="288.0" y1="341.0" y2="341.0"/>
      <line stroke="#7f7f7f" stroke-width="1" x1="322.0" x2="288.0" y1="345.0" y2="345.0"/>
      <line stroke="#7f7f7f" stroke-width="1" x1="322.0" x2="288.0" y1="349.0" y2="349.0"/>
      <line stroke="#7f7f7f" stroke-width="1" x1="322.0" x2="288.0" y1="353.0" y2="353.0"/>
      <line stroke="#7f7f7f" stroke-width="1" x1="322.0" x2="288.0" y1="357.0" y2="357.0"/>
      <line stroke="#7f7f7f" stroke-width="1" x1="322.0" x2="288.0" y1="361.0" y2="361.0"/>
      <line stroke="#7f7f7f" stroke-width="1" x1="322.0" x2="288.0" y1="365.0" y2="365.0"/>
      <line stroke="#7f7f7f" stroke-width="1" x1="322.0" x2="288.0" y1="369.0" y2="369.0"/>
      <line stroke="#7f7f7f" stroke-width="1" x1="322.0" x2="288.0" y1="373.0" y2="373.0"/>
      <line stroke="#7f7f7f" stroke-width="1" x1="322.0" x2="288.0" y1="377.0" y2="377.0"/>
      <line stroke="#7f7f7f" stroke-width="1" x1="322.0" x2="288.0" y1="381.0" y2="381.0"/>
      <line stroke="#7f7f7f" stroke-width="1" x1="322.0" x2="288.0" y1="385.0" y2="385.0"/>
      <line stroke="#7f7f7f" stroke-width="1" x1="322.0" x2="288.0" y1="389.0" y2="389.0"/>
      <line stroke="#7f7f7f" stroke-width="1" x1="322.0" x2="288.0" y1="393.0" y2="393.0"/>
      <line stroke="#7f7f7f" stroke-width="1" x1="322.0" x2="288.0" y1="397.0" y2="397.0"/>
      <line stroke="#7f7f7f" stroke-width="1" x1="322.0" x2="288.0" y1="401.0" y2="401.0"/>
      <line stroke="#7f7f7f" stroke-width="1" x1="322.0" x2="288.0" y1="405.0" y2="405.0"/>
      <line stroke="#7f7f7f" stroke-width="1" x1="322.0" x2="288.0" y1="409.0" y2="409.0"/>
      <line stroke="#7f7f7f" stroke-width="1" x1="322.0" x2="288.0" y1="413.0" y2="413.0"/>
      <line stroke="#7f7f7f" stroke-width="1" x1="322.0" x2="288.0" y1="417.0" y2="417.0"/>
      <line stroke="#7f7f7f" stroke-width="1" x1="322.0" x2="288.0" y1="421.0" y2="421.0"/>
      <line stroke="#7f7f7f" stroke-width="1" x1="322.0" x2="288.0" y1="425.0" y2="425.0"/>
      <line stroke="#7f7f7f" stroke-width="1" x1="322.0" x2="288.0" y1="429.0" y2="429.0"/>
      <line stroke="#7f7f7f" stroke-width="1" x1="322.0" x2="288.0" y1="433.0" y2="433.0"/>
      <line stroke="#7f7f7f" stroke-width="1" x1="322.0" x2="288.0" y1="437.0" y2="437.0"/>
      <line stroke="#7f7f7f" stroke-width="1" x1="322.0" x2="288.0" y1="441.0" y2="441.0"/>
      <polygon fill="#9b5509" points="288.0,306.0 288.0,448.0 285.0,448.0 285.0,306.0" stroke="#000000" stroke-width="1"/>
      <polygon fill="#9b5509" points="296.0,306.0 301.0,306.0 301.0,448.0 296.0,448.0" stroke="#000000" stroke-width="1"/>
      <polygon fill="#9b5509" points="309.0,306.0 314.0,306.0 314.0,448.0 309.0,448.0" stroke="#000000" stroke-width="1"/>
      <polygon fill="#9b5509" points="322.0,306.0 322.0,448.0 325.0,448.0 325.0,306.0" stroke="#000000" stroke-width="1"/>
      <polyline fill="none" marker-end="url(#id258)" points="318.0,481.0 318.0,456.0" stroke="#ff0000" stroke-width="1"/>
      <polyline fill="none" marker-end="url(#id258)" points="292.0,289.0 292.0,303.0" stroke="#009900" stroke-width="1"/>
      <polygon fill="#9b5509" points="457.0,180.0 907.0,180.0 907.0,210.0 457.0,210.0" stroke="#000000" stroke-width="1"/>
      <polygon fill="#9b5509" points="457.0,290.0 907.0,290.0 907.0,320.0 457.0,320.0" stroke="#000000" stroke-width="1"/>
      <text fill="#543c04" font-family="Arial" font-size="20.0" stroke="none" stroke-width="0" x="458.0" y="175.0">&lt;&lt; Добрынинская</text>
      <text fill="#543c04" font-family="Arial" font-size="20.0" stroke="none" stroke-width="0" x="795.0" y="340.0">Таганская &gt;&gt;</text>
      <text fill="#543c04" font-family="Arial" font-size="25.0" stroke="none" stroke-width="0" x="619.0" y="238.0">Павелецкая</text>
      <polygon fill="#34349c" points="681.0,250.0 681.0,254.0 682.0,254.0 682.0,250.0" stroke="#34349c" stroke-width="1"/>
      <polygon fill="#ff0000" points="681.0,246.0 681.0,250.0 682.0,250.0 682.0,246.0" stroke="#ff0000" stroke-width="1"/>
      <polyline fill="none" points="491.0,230.0 491.0,227.0 526.0,227.0 526.0,220.0 457.0,220.0 457.0,210.0" stroke="#000000" stroke-width="1"/>
      <polyline fill="none" points="457.0,290.0 457.0,280.0 526.0,280.0 526.0,273.0 491.0,273.0 491.0,270.0" stroke="#000000" stroke-width="1"/>
      <polyline fill="none" points="357.0,273.0 367.0,273.0 367.0,270.0" stroke="#000000" stroke-width="1"/>
      <polyline fill="none" points="367.0,230.0 367.0,227.0 345.0,227.0" stroke="#000000" stroke-width="1"/>
      <line stroke="#7f7f7f" stroke-width="1" x1="497.0" x2="497.0" y1="267.0" y2="233.0"/>
      <line stroke="#7f7f7f" stroke-width="1" x1="493.0" x2="493.0" y1="267.0" y2="233.0"/>
      <line stroke="#7f7f7f" stroke-width="1" x1="489.0" x2="489.0" y1="267.0" y2="233.0"/>
      <line stroke="#7f7f7f" stroke-width="1" x1="485.0" x2="485.0" y1="267.0" y2="233.0"/>
      <line stroke="#7f7f7f" stroke-width="1" x1="481.0" x2="481.0" y1="267.0" y2="233.0"/>
      <line stroke="#7f7f7f" stroke-width="1" x1="477.0" x2="477.0" y1="267.0" y2="233.0"/>
      <line stroke="#7f7f7f" stroke-width="1" x1="473.0" x2="473.0" y1="267.0" y2="233.0"/>
      <line stroke="#7f7f7f" stroke-width="1" x1="469.0" x2="469.0" y1="267.0" y2="233.0"/>
      <line stroke="#7f7f7f" stroke-width="1" x1="465.0" x2="465.0" y1="267.0" y2="233.0"/>
      <line stroke="#7f7f7f" stroke-width="1" x1="461.0" x2="461.0" y1="267.0" y2="233.0"/>
      <line stroke="#7f7f7f" stroke-width="1" x1="457.0" x2="457.0" y1="267.0" y2="233.0"/>
      <line stroke="#7f7f7f" stroke-width="1" x1="453.0" x2="453.0" y1="267.0" y2="233.0"/>
      <line stroke="#7f7f7f" stroke-width="1" x1="449.0" x2="449.0" y1="267.0" y2="233.0"/>
      <line stroke="#7f7f7f" stroke-width="1" x1="445.0" x2="445.0" y1="267.0" y2="233.0"/>
      <line stroke="#7f7f7f" stroke-width="1" x1="441.0" x2="441.0" y1="267.0" y2="233.0"/>
      <line stroke="#7f7f7f" stroke-width="1" x1="437.0" x2="437.0" y1="267.0" y2="233.0"/>
      <line stroke="#7f7f7f" stroke-width="1" x1="433.0" x2="433.0" y1="267.0" y2="233.0"/>
      <line stroke="#7f7f7f" stroke-width="1" x1="429.0" x2="429.0" y1="267.0" y2="233.0"/>
      <line stroke="#7f7f7f" stroke-width="1" x1="425.0" x2="425.0" y1="267.0" y2="233.0"/>
      <line stroke="#7f7f7f" stroke-width="1" x1="421.0" x2="421.0" y1="267.0" y2="233.0"/>
      <line stroke="#7f7f7f" stroke-width="1" x1="417.0" x2="417.0" y1="267.0" y2="233.0"/>
      <line stroke="#7f7f7f" stroke-width="1" x1="413.0" x2="413.0" y1="267.0" y2="233.0"/>
      <line stroke="#7f7f7f" stroke-width="1" x1="409.0" x2="409.0" y1="267.0" y2="233.0"/>
      <line stroke="#7f7f7f" stroke-width="1" x1="405.0" x2="405.0" y1="267.0" y2="233.0"/>
      <line stroke="#7f7f7f" stroke-width="1" x1="401.0" x2="401.0" y1="267.0" y2="233.0"/>
      <line stroke="#7f7f7f" stroke-width="1" x1="397.0" x2="397.0" y1="267.0" y2="233.0"/>
      <line stroke="#7f7f7f" stroke-width="1" x1="393.0" x2="393.0" y1="267.0" y2="233.0"/>
      <line stroke="#7f7f7f" stroke-width="1" x1="389.0" x2="389.0" y1="267.0" y2="233.0"/>
      <line stroke="#7f7f7f" stroke-width="1" x1="385.0" x2="385.0" y1="267.0" y2="233.0"/>
      <line stroke="#7f7f7f" stroke-width="1" x1="381.0" x2="381.0" y1="267.0" y2="233.0"/>
      <line stroke="#7f7f7f" stroke-width="1" x1="377.0" x2="377.0" y1="267.0" y2="233.0"/>
      <line stroke="#7f7f7f" stroke-width="1" x1="373.0" x2="373.0" y1="267.0" y2="233.0"/>
      <line stroke="#7f7f7f" stroke-width="1" x1="369.0" x2="369.0" y1="267.0" y2="233.0"/>
      <line stroke="#7f7f7f" stroke-width="1" x1="365.0" x2="365.0" y1="267.0" y2="233.0"/>
      <polygon fill="#9b5509" points="504.0,233.0 357.0,233.0 357.0,230.0 504.0,230.0" stroke="#000000" stroke-width="1"/>
      <polygon fill="#9b5509" points="504.0,241.0 504.0,246.0 357.0,246.0 357.0,241.0" stroke="#000000" stroke-width="1"/>
      <polygon fill="#9b5509" points="504.0,254.0 504.0,259.0 357.0,259.0 357.0,254.0" stroke="#000000" stroke-width="1"/>
      <polygon fill="#9b5509" points="504.0,267.0 357.0,267.0 357.0,270.0 504.0,270.0" stroke="#000000" stroke-width="1"/>
      <polyline fill="none" marker-end="url(#id258)" points="527.0,236.0 510.0,236.0" stroke="#ff0000" stroke-width="1"/>
      <polyline fill="none" marker-end="url(#id258)" points="337.0,263.0 352.0,263.0" stroke="#009900" stroke-width="1"/>
      <polyline fill="none" points="907.0,210.0 907.0,220.0 868.0,220.0 868.0,228.0 874.0,228.0 874.0,271.0 868.0,271.0 868.0,280.0 907.0,280.0 907.0,290.0" stroke="#000000" stroke-width="1"/>
      <polyline fill="none" points="226.0,343.0 222.0,343.0 222.0,269.0 210.0,269.0 210.0,265.0" stroke="#000000" stroke-width="1"/>
      <polyline fill="none" points="210.0,241.0 210.0,237.0 222.0,237.0 222.0,211.0 210.0,211.0 210.0,207.0" stroke="#000000" stroke-width="1"/>
      <polyline fill="none" points="210.0,189.0 210.0,185.0 263.0,185.0 297.0,200.0" stroke="#000000" stroke-width="1"/>
      <polyline fill="none" points="249.0,343.0 253.0,343.0 253.0,306.0 285.0,306.0" stroke="#000000" stroke-width="1"/>
      <polyline fill="none" points="325.0,306.0 335.0,306.0 355.0,326.0 355.0,343.0 359.0,343.0" stroke="#000000" stroke-width="1"/>
      <polyline fill="none" points="379.0,343.0 383.0,343.0 383.0,311.0 357.0,285.0 357.0,273.0" stroke="#000000" stroke-width="1"/>
      <path d="M345.0,227.0 C345.0,227.0 346.6666666666667,229.66666666666666 345.0,227.0 C343.3333333333333,224.33333333333334 339.1666666666667,215.16666666666666 335.0,211.0 C330.8333333333333,206.83333333333334 326.3333333333333,203.83333333333334 320.0,202.0 C313.6666666666667,200.16666666666666 297.0,200.0 297.0,200.0 " fill="none" stroke="#000000" stroke-width="1"/>
      <polygon fill="#d0d0d0" points="253.0,283.0 253.0,263.0 260.0,263.0 260.0,283.0" stroke="#000000" stroke-width="1"/>
      <polygon fill="#d0d0d0" points="253.0,215.0 253.0,237.0 260.0,237.0 260.0,215.0" stroke="#000000" stroke-width="1"/>
      <polyline fill="none" points="222.0,280.0 213.0,280.0 213.0,306.0 222.0,306.0" stroke="#000000" stroke-width="1"/>
      <text fill="#000000" font-family="Arial" font-size="10.0" stroke="none" stroke-width="0" transform="rotate(90.0,225.0,281.0)" x="225.0" y="291.0">кассы</text>
      <polygon fill="none" points="262.0,228.0 263.0,234.0 269.0,233.0 268.0,227.0" stroke="#000000" stroke-width="1"/>
      <line stroke="#009900" stroke-width="1" x1="265.0" x2="269.0" y1="239.0" y2="238.0"/>
      <line stroke="#009900" stroke-width="1" x1="266.1065744900239" x2="270.1065744900239" y1="242.84389033376712" y2="241.84389033376712"/>
      <line stroke="#009900" stroke-width="1" x1="267.2131489800478" x2="271.2131489800478" y1="246.68778066753424" y2="245.68778066753424"/>
      <line stroke="#009900" stroke-width="1" x1="268.31972347007166" x2="272.31972347007166" y1="250.53167100130136" y2="249.53167100130136"/>
      <line stroke="#009900" stroke-width="1" x1="269.42629796009555" x2="273.42629796009555" y1="254.37556133506848" y2="253.37556133506848"/>
      <line stroke="#009900" stroke-width="1" x1="270.53287245011944" x2="274.53287245011944" y1="258.21945166883563" y2="257.21945166883563"/>
      <line stroke="#009900" stroke-width="1" x1="271.63944694014333" x2="275.63944694014333" y1="262.0633420026028" y2="261.0633420026028"/>
      <line stroke="#009900" stroke-width="1" x1="272.7460214301672" x2="276.7460214301672" y1="265.90723233636993" y2="264.90723233636993"/>
      <line stroke="#009900" stroke-width="1" x1="273.8525959201911" x2="277.8525959201911" y1="269.7511226701371" y2="268.7511226701371"/>
      <line stroke="#009900" stroke-width="1" x1="274.959170410215" x2="278.959170410215" y1="273.5950130039042" y2="272.5950130039042"/>
      <line stroke="#009900" stroke-width="1" x1="276.0657449002389" x2="280.0657449002389" y1="277.4389033376714" y2="276.4389033376714"/>
      <line stroke="#009900" stroke-width="1" x1="277.17231939026277" x2="281.17231939026277" y1="281.2827936714385" y2="280.2827936714385"/>
      <line stroke="#009900" stroke-width="1" x1="278.27889388028666" x2="282.27889388028666" y1="285.1266840052057" y2="284.1266840052057"/>
      <line stroke="#009900" stroke-width="1" x1="279.38546837031055" x2="283.38546837031055" y1="288.9705743389728" y2="287.9705743389728"/>
      <line stroke="#009900" stroke-width="1" x1="280.49204286033444" x2="284.49204286033444" y1="292.81446467274" y2="291.81446467274"/>
      <line stroke="#009900" stroke-width="1" x1="281.5986173503583" x2="285.5986173503583" y1="296.6583550065071" y2="295.6583550065071"/>
      <line stroke="#009900" stroke-width="1" x1="282.7051918403822" x2="286.7051918403822" y1="300.50224534027427" y2="299.50224534027427"/>
      <line stroke="#009900" stroke-width="1" x1="283.8117663304061" x2="287.8117663304061" y1="304.3461356740414" y2="303.3461356740414"/>
      <line stroke="#ff0000" stroke-width="1" x1="266.0" x2="270.0" y1="221.0" y2="222.0"/>
      <line stroke="#ff0000" stroke-width="1" x1="266.97014250014536" x2="270.97014250014536" y1="217.11942999941868" y2="218.11942999941868"/>
      <line stroke="#ff0000" stroke-width="1" x1="267.9402850002907" x2="271.9402850002907" y1="213.23885999883737" y2="214.23885999883737"/>
      <line stroke="#ff0000" stroke-width="1" x1="268.91042750043607" x2="272.91042750043607" y1="209.35828999825605" y2="210.35828999825605"/>
      <line stroke="#ff0000" stroke-width="1" x1="269.88057000058143" x2="273.88057000058143" y1="205.47771999767474" y2="206.47771999767474"/>
      <line stroke="#ff0000" stroke-width="1" x1="270.8507125007268" x2="274.8507125007268" y1="201.59714999709342" y2="202.59714999709342"/>
      <line stroke="#ff0000" stroke-width="1" x1="271.82085500087214" x2="275.82085500087214" y1="197.7165799965121" y2="198.7165799965121"/>
      <line stroke="#ff0000" stroke-width="1" x1="272.7909975010175" x2="276.7909975010175" y1="193.8360099959308" y2="194.8360099959308"/>
      <line stroke="#ff0000" stroke-width="1" x1="338.0" x2="341.0" y1="305.0" y2="308.0"/>
      <line stroke="#ff0000" stroke-width="1" x1="340.8284271247462" x2="343.8284271247462" y1="302.1715728752538" y2="305.1715728752538"/>
      <line stroke="#ff0000" stroke-width="1" x1="343.6568542494924" x2="346.6568542494924" y1="299.3431457505076" y2="302.3431457505076"/>
      <line stroke="#ff0000" stroke-width="1" x1="346.48528137423864" x2="349.48528137423864" y1="296.51471862576136" y2="299.51471862576136"/>
      <line stroke="#ff0000" stroke-width="1" x1="349.31370849898485" x2="352.31370849898485" y1="293.68629150101515" y2="296.68629150101515"/>
      <line stroke="#ff0000" stroke-width="1" x1="352.14213562373106" x2="355.14213562373106" y1="290.85786437626894" y2="293.85786437626894"/>
      <line stroke="#ff0000" stroke-width="1" x1="354.9705627484773" x2="357.9705627484773" y1="288.0294372515227" y2="291.0294372515227"/>
      <polyline fill="none" marker-end="url(#id258)" points="346.0,293.0 357.0,304.0" stroke="#ff0000" stroke-width="1"/>
      <polyline fill="none" marker-end="url(#id258)" points="264.0,200.0 251.0,200.0" stroke="#ff0000" stroke-width="1"/>
      <polyline fill="none" marker-end="url(#id258)" points="238.0,346.0 238.0,329.0" stroke="#009900" stroke-width="1"/>
      <polyline fill="none" marker-end="url(#id258)" points="207.0,252.0 224.0,252.0" stroke="#009900" stroke-width="1"/>
      <polyline fill="none" marker-end="url(#id258)" points="254.0,295.0 268.0,295.0" stroke="#009900" stroke-width="1"/>
      <polygon fill="#34349c" points="329.0,302.0 325.0,302.0 325.0,303.0 329.0,303.0" stroke="#34349c" stroke-width="1"/>
      <polygon fill="#ff0000" points="333.0,302.0 329.0,302.0 329.0,303.0 333.0,303.0" stroke="#ff0000" stroke-width="1"/>
      <text fill="#00afaf" font-family="Arial" font-size="15.0" stroke="none" stroke-width="0" transform="rotate(90.0,131.0,245.0)" x="131.0" y="260.0">Новокузнецкая улица</text>
      <text fill="#00afaf" font-family="Arial" font-size="15.0" stroke="none" stroke-width="0" transform="rotate(90.0,176.0,507.0)" x="176.0" y="522.0">Дубининская улица</text>
      <text fill="#00afaf" font-family="Arial" font-size="15.0" stroke="none" stroke-width="0" x="641.0" y="465.0">улица Зацепский вал</text>
      <text fill="#00afaf" font-family="Arial" font-size="15.0" stroke="none" stroke-width="0" x="641.0" y="480.0">(Садовое кольцо)</text>
      <text fill="#00afaf" font-family="Arial" font-size="15.0" stroke="none" stroke-width="0" transform="rotate(30.0,477.0,836.0)" x="477.0" y="851.0">Павелецкая площадь</text>
    </g>
    <g>
      <rect fill="#615f56" height="30.0" stroke="none" stroke-width="0" width="30.0" x="28.0" y="371.0"/>
      <rect fill="#615f56" height="30.0" stroke="none" stroke-width="0" width="30.0" x="270.0" y="445.0"/>
      <rect fill="#615f56" height="30.0" stroke="none" stroke-width="0" width="30.0" x="665.0" y="992.0"/>
      <rect fill="#615f56" height="30.0" stroke="none" stroke-width="0" width="30.0" x="587.0" y="909.0"/>
      <text fill="#ffd900" font-family="Arial" font-size="25.0" stroke="none" stroke-width="0" x="36.0" y="397.0">1</text>
      <text fill="#ffd900" font-family="Arial" font-size="25.0" stroke="none" stroke-width="0" x="278.0" y="471.0">2</text>
      <text fill="#ffd900" font-family="Arial" font-size="25.0" stroke="none" stroke-width="0" x="665.0" y="1018.0">3.1</text>
      <text fill="#ffd900" font-family="Arial" font-size="25.0" stroke="none" stroke-width="0" x="587.0" y="935.0">3.2</text>
    </g>
  </g>
</svg>
