<svg xmlns="http://www.w3.org/2000/svg" version="1.1">
<defs>
    <marker id="arrow"
      viewBox="0 0 10 10" refX="0" refY="5"
      markerUnits="strokeWidth"
      markerWidth="4" markerHeight="3"
      orient="auto">
      <path d="M 0 0 L 10 5 L 0 10 z" />
    </marker>
  </defs>
<g stroke="#000000" fill="none" stroke-opacity="1.0" fill-opacity="1.0" transform="scale(0.5)">
<rect x="0" y="0" width="1140" height="600" stroke-width="0" fill="none" />
<g stroke="#000000" fill="none" stroke-opacity="1.0" fill-opacity="1.0" transform="scale(0.5)">
</g>
<g transform="rotate(-10.0 570 300)" >
<g stroke="#000000" fill="none" stroke-opacity="1.0" fill-opacity="1.0" transform="scale(0.5)">
</g>
<g stroke="#000000" fill="#AC24AC" stroke-opacity="1.0" fill-opacity="1.0" transform="scale(0.5)">
<polygon points="332,183  782,183  782,213  332,213" stroke-width="1" />
<polygon points="332,293  782,293  782,323  332,323" stroke-width="1" />
</g>
<g stroke="#000000" fill="#B0B0B0" stroke-opacity="1.0" fill-opacity="1.0" transform="scale(0.5)">
<polygon points="332,403  783,403  783,433  332,433" stroke-width="1" />
</g>
<g stroke="#AC24AC" fill="none" stroke-opacity="1.0" fill-opacity="1.0" transform="scale(0.5)">
<text x=" 334" y="180.0" font-family="Arial" font-size=" 20" fill="#AC24AC" stroke-width="0">&lt;&lt; Октябрьское поле</text>
<text x=" 684" y="343.0" font-family="Arial" font-size=" 20" fill="#AC24AC" stroke-width="0">Беговая &gt;&gt;</text>
<text x=" 464" y="253.0" font-family="Arial" font-size=" 25" fill="#AC24AC" stroke-width="0">Полежаевская</text>
</g>
<g stroke="#34349C" fill="#34349C" stroke-opacity="1.0" fill-opacity="1.0" transform="scale(0.5)">
<polygon points="564,261  564,257  563,257  563,261" stroke-width="1" />
</g>
<g stroke="#FF0000" fill="#FF0000" stroke-opacity="1.0" fill-opacity="1.0" transform="scale(0.5)">
<polygon points="564,265  564,261  563,261  563,265" stroke-width="1" />
</g>
<g stroke="#000000" fill="#FF0000" stroke-opacity="1.0" fill-opacity="1.0" transform="scale(0.5)">
<polyline points="332,403  332,395  271,395  271,433  191,433  191,430" stroke-width="1" fill="none"  />
<polyline points="171,430  165,430  165,500  86,500" stroke-width="1" fill="none"  />
<polyline points="86,479  139,479  139,331  127,331  127,283  139,283  139,149  105,115  75,145" stroke-width="1" fill="none"  />
<polyline points="61,131  91,101  91,44" stroke-width="1" fill="none"  />
<polyline points="113,44  113,89  149,125  174,125  174,80" stroke-width="1" fill="none"  />
<polyline points="196,80  196,147  165,147  165,183  271,183  271,221  332,221  332,213" stroke-width="1" fill="none"  />
<line x1="88" y1="479" x2="88" y2="500" stroke-width="1" />
<line x1="92" y1="479" x2="92" y2="500" stroke-width="1" />
<line x1="96" y1="479" x2="96" y2="500" stroke-width="1" />
<line x1="100" y1="479" x2="100" y2="500" stroke-width="1" />
<line x1="104" y1="479" x2="104" y2="500" stroke-width="1" />
<line x1="108" y1="479" x2="108" y2="500" stroke-width="1" />
<line x1="112" y1="479" x2="112" y2="500" stroke-width="1" />
<line x1="116" y1="479" x2="116" y2="500" stroke-width="1" />
<line x1="120" y1="479" x2="120" y2="500" stroke-width="1" />
<line x1="124" y1="479" x2="124" y2="500" stroke-width="1" />
<line x1="273" y1="221" x2="273" y2="277" stroke-width="1" />
<line x1="277" y1="221" x2="277" y2="277" stroke-width="1" />
<line x1="281" y1="221" x2="281" y2="277" stroke-width="1" />
<line x1="285" y1="221" x2="285" y2="277" stroke-width="1" />
<line x1="289" y1="221" x2="289" y2="277" stroke-width="1" />
<line x1="293" y1="221" x2="293" y2="277" stroke-width="1" />
<line x1="297" y1="221" x2="297" y2="277" stroke-width="1" />
<line x1="301" y1="221" x2="301" y2="277" stroke-width="1" />
<line x1="305" y1="221" x2="305" y2="277" stroke-width="1" />
<line x1="309" y1="221" x2="309" y2="277" stroke-width="1" />
<line x1="313" y1="221" x2="313" y2="277" stroke-width="1" />
<line x1="317" y1="221" x2="317" y2="277" stroke-width="1" />
<line x1="321" y1="221" x2="321" y2="277" stroke-width="1" />
<line x1="325" y1="221" x2="325" y2="277" stroke-width="1" />
<line x1="329" y1="221" x2="329" y2="277" stroke-width="1" />
<line x1="275" y1="339" x2="275" y2="395" stroke-width="1" />
<line x1="279" y1="339" x2="279" y2="395" stroke-width="1" />
<line x1="283" y1="339" x2="283" y2="395" stroke-width="1" />
<line x1="287" y1="339" x2="287" y2="395" stroke-width="1" />
<line x1="291" y1="339" x2="291" y2="395" stroke-width="1" />
<line x1="295" y1="339" x2="295" y2="395" stroke-width="1" />
<line x1="299" y1="339" x2="299" y2="395" stroke-width="1" />
<line x1="303" y1="339" x2="303" y2="395" stroke-width="1" />
<line x1="307" y1="339" x2="307" y2="395" stroke-width="1" />
<line x1="311" y1="339" x2="311" y2="395" stroke-width="1" />
<line x1="315" y1="339" x2="315" y2="395" stroke-width="1" />
<line x1="319" y1="339" x2="319" y2="395" stroke-width="1" />
<line x1="323" y1="339" x2="323" y2="395" stroke-width="1" />
<line x1="327" y1="339" x2="327" y2="395" stroke-width="1" />
<line x1="91" y1="84" x2="113" y2="84" stroke-width="1" />
<line x1="91" y1="80" x2="113" y2="80" stroke-width="1" />
<line x1="91" y1="76" x2="113" y2="76" stroke-width="1" />
<line x1="91" y1="72" x2="113" y2="72" stroke-width="1" />
<line x1="91" y1="68" x2="113" y2="68" stroke-width="1" />
<line x1="91" y1="64" x2="113" y2="64" stroke-width="1" />
<line x1="91" y1="60" x2="113" y2="60" stroke-width="1" />
<line x1="91" y1="56" x2="113" y2="56" stroke-width="1" />
<line x1="91" y1="52" x2="113" y2="52" stroke-width="1" />
<line x1="91" y1="48" x2="113" y2="48" stroke-width="1" />
<line x1="103" y1="117" x2="89" y2="103" stroke-width="1" />
<line x1="100.171572875" y1="119.828427125" x2="86.1715728753" y2="105.828427125" stroke-width="1" />
<line x1="97.3431457505" y1="122.656854249" x2="83.3431457505" y2="108.656854249" stroke-width="1" />
<line x1="94.5147186258" y1="125.485281374" x2="80.5147186258" y2="111.485281374" stroke-width="1" />
<line x1="91.686291501" y1="128.313708499" x2="77.686291501" y2="114.313708499" stroke-width="1" />
<line x1="88.8578643763" y1="131.142135624" x2="74.8578643763" y2="117.142135624" stroke-width="1" />
<line x1="86.0294372515" y1="133.970562748" x2="72.0294372515" y2="119.970562748" stroke-width="1" />
<line x1="83.2010101268" y1="136.798989873" x2="69.2010101268" y2="122.798989873" stroke-width="1" />
<line x1="80.372583002" y1="139.627416998" x2="66.372583002" y2="125.627416998" stroke-width="1" />
<line x1="77.5441558773" y1="142.455844123" x2="63.5441558773" y2="128.455844123" stroke-width="1" />
</g>
<g stroke="#000000" fill="#D0D0D0" stroke-opacity="1.0" fill-opacity="1.0" transform="scale(0.5)">
<polygon points="271,277  332,277  332,339  271,339" stroke-width="1" />
<polygon points="170,210  191,210  191,216  233,216  233,252  187,252  187,282  194,282  194,290  170,290" stroke-width="1" />
<polygon points="187,364  233,364  233,400  191,400  191,430  171,430  171,326  194,326  194,334  187,334" stroke-width="1" />
</g>
<g stroke="#009900" fill="#D0D0D0" stroke-opacity="1.0" fill-opacity="1.0" transform="scale(0.5)">
<line x1="233" y1="360" x2="238" y2="360" stroke-width="1" />
<line x1="233" y1="356" x2="238" y2="356" stroke-width="1" />
<line x1="233" y1="352" x2="238" y2="352" stroke-width="1" />
<line x1="233" y1="348" x2="238" y2="348" stroke-width="1" />
<line x1="233" y1="344" x2="238" y2="344" stroke-width="1" />
<line x1="233" y1="340" x2="238" y2="340" stroke-width="1" />
<line x1="233" y1="336" x2="238" y2="336" stroke-width="1" />
<line x1="233" y1="332" x2="238" y2="332" stroke-width="1" />
<line x1="233" y1="328" x2="238" y2="328" stroke-width="1" />
<line x1="233" y1="324" x2="238" y2="324" stroke-width="1" />
<line x1="233" y1="320" x2="238" y2="320" stroke-width="1" />
<line x1="233" y1="316" x2="238" y2="316" stroke-width="1" />
<line x1="233" y1="312" x2="238" y2="312" stroke-width="1" />
<line x1="233" y1="308" x2="238" y2="308" stroke-width="1" />
<line x1="233" y1="304" x2="238" y2="304" stroke-width="1" />
<line x1="233" y1="300" x2="238" y2="300" stroke-width="1" />
<line x1="233" y1="296" x2="238" y2="296" stroke-width="1" />
<line x1="233" y1="292" x2="238" y2="292" stroke-width="1" />
<line x1="233" y1="288" x2="238" y2="288" stroke-width="1" />
<line x1="233" y1="284" x2="238" y2="284" stroke-width="1" />
<line x1="233" y1="280" x2="238" y2="280" stroke-width="1" />
<line x1="233" y1="276" x2="238" y2="276" stroke-width="1" />
<line x1="233" y1="272" x2="238" y2="272" stroke-width="1" />
<line x1="233" y1="268" x2="238" y2="268" stroke-width="1" />
<line x1="233" y1="264" x2="238" y2="264" stroke-width="1" />
<line x1="233" y1="260" x2="238" y2="260" stroke-width="1" />
<line x1="233" y1="256" x2="238" y2="256" stroke-width="1" />
</g>
<g stroke="#FF0000" fill="#D0D0D0" stroke-opacity="1.0" fill-opacity="1.0" transform="scale(0.5)">
<line x1="233" y1="212" x2="238" y2="212" stroke-width="1" />
<line x1="233" y1="208" x2="238" y2="208" stroke-width="1" />
<line x1="233" y1="204" x2="238" y2="204" stroke-width="1" />
<line x1="233" y1="200" x2="238" y2="200" stroke-width="1" />
<line x1="233" y1="196" x2="238" y2="196" stroke-width="1" />
<line x1="233" y1="192" x2="238" y2="192" stroke-width="1" />
<line x1="233" y1="188" x2="238" y2="188" stroke-width="1" />
</g>
<g stroke="#000000" fill="#FFFFFF" stroke-opacity="1.0" fill-opacity="1.0" transform="scale(0.5)">
<polygon points="229,364  229,374  190,374  190,364" stroke-width="1" />
</g>
<g stroke="#000000" fill="none" stroke-opacity="1.0" fill-opacity="1.0" transform="scale(0.5)">
<text x=" 197" y="372.0" font-family="Arial" font-size=" 10" fill="#000000" stroke-width="0">кассы</text>
</g>
<g stroke="#FF0000" fill="none" stroke-opacity="1.0" fill-opacity="1.0" transform="scale(0.5)">
<polyline points="193,196  165,196" marker-end="url(#arrow)" stroke-width="1" fill="none" />
</g>
<g stroke="#009900" fill="none" stroke-opacity="1.0" fill-opacity="1.0" transform="scale(0.5)">
<polyline points="164,308  196,308" marker-end="url(#arrow)" stroke-width="1" fill="none" />
</g>
<g stroke="#34349C" fill="#34349C" stroke-opacity="1.0" fill-opacity="1.0" transform="scale(0.5)">
<polygon points="255,187  259,187  259,188  255,188" stroke-width="1" />
</g>
<g stroke="#FF0000" fill="#FF0000" stroke-opacity="1.0" fill-opacity="1.0" transform="scale(0.5)">
<polygon points="251,187  255,187  255,188  251,188" stroke-width="1" />
</g>
<g stroke="#000000" fill="#FF0000" stroke-opacity="1.0" fill-opacity="1.0" transform="scale(0.5)">
<polyline points="862,234  862,231  886,231  886,183  978,183  978,188  1003,188  1003,139  967,139" stroke-width="1" fill="none"  />
<polyline points="782,213  782,231  799,231  799,234" stroke-width="1" fill="none"  />
<polyline points="967,117  1066,117" stroke-width="1" fill="none"  />
<polyline points="1066,139  1025,139  1025,274  1036,274  1036,341  1025,341  1025,460  1069,460" stroke-width="1" fill="none"  />
<polyline points="1069,482  959,482" stroke-width="1" fill="none"  />
<polyline points="959,460  1004,460  1004,428  997,428" stroke-width="1" fill="none"  />
<polyline points="863,382  863,385  886,385  886,433  981,433  981,428" stroke-width="1" fill="none"  />
<polyline points="796,382  796,385  783,385  783,403" stroke-width="1" fill="none"  />
<line x1="1063" y1="117" x2="1063" y2="139" stroke-width="1" />
<line x1="1059" y1="117" x2="1059" y2="139" stroke-width="1" />
<line x1="1055" y1="117" x2="1055" y2="139" stroke-width="1" />
<line x1="1051" y1="117" x2="1051" y2="139" stroke-width="1" />
<line x1="1047" y1="117" x2="1047" y2="139" stroke-width="1" />
<line x1="1043" y1="117" x2="1043" y2="139" stroke-width="1" />
<line x1="1039" y1="117" x2="1039" y2="139" stroke-width="1" />
<line x1="1035" y1="117" x2="1035" y2="139" stroke-width="1" />
<line x1="971" y1="117" x2="971" y2="139" stroke-width="1" />
<line x1="975" y1="117" x2="975" y2="139" stroke-width="1" />
<line x1="979" y1="117" x2="979" y2="139" stroke-width="1" />
<line x1="983" y1="117" x2="983" y2="139" stroke-width="1" />
<line x1="987" y1="117" x2="987" y2="139" stroke-width="1" />
<line x1="991" y1="117" x2="991" y2="139" stroke-width="1" />
<line x1="995" y1="117" x2="995" y2="139" stroke-width="1" />
<line x1="999" y1="117" x2="999" y2="139" stroke-width="1" />
<line x1="1003" y1="152" x2="1025" y2="152" stroke-width="1" />
<line x1="1003" y1="156" x2="1025" y2="156" stroke-width="1" />
<line x1="1003" y1="160" x2="1025" y2="160" stroke-width="1" />
<line x1="1003" y1="164" x2="1025" y2="164" stroke-width="1" />
<line x1="963" y1="460" x2="963" y2="482" stroke-width="1" />
<line x1="967" y1="460" x2="967" y2="482" stroke-width="1" />
<line x1="971" y1="460" x2="971" y2="482" stroke-width="1" />
<line x1="975" y1="460" x2="975" y2="482" stroke-width="1" />
<line x1="979" y1="460" x2="979" y2="482" stroke-width="1" />
<line x1="983" y1="460" x2="983" y2="482" stroke-width="1" />
<line x1="987" y1="460" x2="987" y2="482" stroke-width="1" />
<line x1="991" y1="460" x2="991" y2="482" stroke-width="1" />
<line x1="995" y1="460" x2="995" y2="482" stroke-width="1" />
<line x1="999" y1="460" x2="999" y2="482" stroke-width="1" />
<line x1="1028" y1="460" x2="1028" y2="482" stroke-width="1" />
<line x1="1032" y1="460" x2="1032" y2="482" stroke-width="1" />
<line x1="1036" y1="460" x2="1036" y2="482" stroke-width="1" />
<line x1="1040" y1="460" x2="1040" y2="482" stroke-width="1" />
<line x1="1044" y1="460" x2="1044" y2="482" stroke-width="1" />
<line x1="1048" y1="460" x2="1048" y2="482" stroke-width="1" />
<line x1="1052" y1="460" x2="1052" y2="482" stroke-width="1" />
<line x1="1056" y1="460" x2="1056" y2="482" stroke-width="1" />
<line x1="1060" y1="460" x2="1060" y2="482" stroke-width="1" />
<line x1="1064" y1="460" x2="1064" y2="482" stroke-width="1" />
<line x1="799" y1="251" x2="799" y2="279" stroke-width="1" />
<line x1="803" y1="251" x2="803" y2="279" stroke-width="1" />
<line x1="807" y1="251" x2="807" y2="279" stroke-width="1" />
<line x1="811" y1="251" x2="811" y2="279" stroke-width="1" />
<line x1="815" y1="251" x2="815" y2="279" stroke-width="1" />
<line x1="819" y1="251" x2="819" y2="279" stroke-width="1" />
<line x1="823" y1="251" x2="823" y2="279" stroke-width="1" />
<line x1="827" y1="251" x2="827" y2="279" stroke-width="1" />
<line x1="831" y1="251" x2="831" y2="279" stroke-width="1" />
<line x1="835" y1="251" x2="835" y2="279" stroke-width="1" />
<line x1="839" y1="251" x2="839" y2="279" stroke-width="1" />
<line x1="843" y1="251" x2="843" y2="279" stroke-width="1" />
<line x1="847" y1="251" x2="847" y2="279" stroke-width="1" />
<line x1="851" y1="251" x2="851" y2="279" stroke-width="1" />
<line x1="855" y1="251" x2="855" y2="279" stroke-width="1" />
<line x1="859" y1="251" x2="859" y2="279" stroke-width="1" />
<line x1="863" y1="251" x2="863" y2="279" stroke-width="1" />
<line x1="799" y1="337" x2="799" y2="365" stroke-width="1" />
<line x1="803" y1="337" x2="803" y2="365" stroke-width="1" />
<line x1="807" y1="337" x2="807" y2="365" stroke-width="1" />
<line x1="811" y1="337" x2="811" y2="365" stroke-width="1" />
<line x1="815" y1="337" x2="815" y2="365" stroke-width="1" />
<line x1="819" y1="337" x2="819" y2="365" stroke-width="1" />
<line x1="823" y1="337" x2="823" y2="365" stroke-width="1" />
<line x1="827" y1="337" x2="827" y2="365" stroke-width="1" />
<line x1="831" y1="337" x2="831" y2="365" stroke-width="1" />
<line x1="835" y1="337" x2="835" y2="365" stroke-width="1" />
<line x1="839" y1="337" x2="839" y2="365" stroke-width="1" />
<line x1="843" y1="337" x2="843" y2="365" stroke-width="1" />
<line x1="847" y1="337" x2="847" y2="365" stroke-width="1" />
<line x1="851" y1="337" x2="851" y2="365" stroke-width="1" />
<line x1="855" y1="337" x2="855" y2="365" stroke-width="1" />
<line x1="859" y1="337" x2="859" y2="365" stroke-width="1" />
<line x1="863" y1="337" x2="863" y2="365" stroke-width="1" />
<line x1="174" y1="120" x2="196" y2="120" stroke-width="1" />
<line x1="174" y1="116" x2="196" y2="116" stroke-width="1" />
<line x1="174" y1="112" x2="196" y2="112" stroke-width="1" />
<line x1="174" y1="108" x2="196" y2="108" stroke-width="1" />
<line x1="174" y1="104" x2="196" y2="104" stroke-width="1" />
<line x1="174" y1="100" x2="196" y2="100" stroke-width="1" />
<line x1="174" y1="96" x2="196" y2="96" stroke-width="1" />
<line x1="174" y1="92" x2="196" y2="92" stroke-width="1" />
<line x1="174" y1="88" x2="196" y2="88" stroke-width="1" />
<line x1="174" y1="84" x2="196" y2="84" stroke-width="1" />
</g>
<g stroke="#000000" fill="#D0D0D0" stroke-opacity="1.0" fill-opacity="1.0" transform="scale(0.5)">
<polygon points="782,279  888,279  888,337  782,337" stroke-width="1" />
<polygon points="934,210  997,210  997,274  976,274  976,255  934,255" stroke-width="1" />
<polygon points="934,361  976,361  976,342  997,342  997,428  981,428  981,406  934,406" stroke-width="1" />
</g>
<g stroke="#7F7F7F" fill="#D0D0D0" stroke-opacity="1.0" fill-opacity="1.0" transform="scale(0.5)">
<line x1="865" y1="247" x2="865" y2="238" stroke-width="1" />
<line x1="861" y1="247" x2="861" y2="238" stroke-width="1" />
<line x1="857" y1="247" x2="857" y2="238" stroke-width="1" />
<line x1="853" y1="247" x2="853" y2="238" stroke-width="1" />
<line x1="849" y1="247" x2="849" y2="238" stroke-width="1" />
<line x1="845" y1="247" x2="845" y2="238" stroke-width="1" />
<line x1="841" y1="247" x2="841" y2="238" stroke-width="1" />
<line x1="837" y1="247" x2="837" y2="238" stroke-width="1" />
<line x1="833" y1="247" x2="833" y2="238" stroke-width="1" />
<line x1="829" y1="247" x2="829" y2="238" stroke-width="1" />
<line x1="825" y1="247" x2="825" y2="238" stroke-width="1" />
<line x1="821" y1="247" x2="821" y2="238" stroke-width="1" />
<line x1="817" y1="247" x2="817" y2="238" stroke-width="1" />
<line x1="813" y1="247" x2="813" y2="238" stroke-width="1" />
<line x1="809" y1="247" x2="809" y2="238" stroke-width="1" />
<line x1="805" y1="247" x2="805" y2="238" stroke-width="1" />
<line x1="801" y1="247" x2="801" y2="238" stroke-width="1" />
<line x1="797" y1="247" x2="797" y2="238" stroke-width="1" />
</g>
<g stroke="#000000" fill="#9B5509" stroke-opacity="1.0" fill-opacity="1.0" transform="scale(0.5)">
<polygon points="872,238  789,238  789,234  872,234" stroke-width="1" />
<polygon points="872,247  789,247  789,251  872,251" stroke-width="1" />
</g>
<g stroke="#7F7F7F" fill="#9B5509" stroke-opacity="1.0" fill-opacity="1.0" transform="scale(0.5)">
<line x1="865" y1="378" x2="865" y2="369" stroke-width="1" />
<line x1="861" y1="378" x2="861" y2="369" stroke-width="1" />
<line x1="857" y1="378" x2="857" y2="369" stroke-width="1" />
<line x1="853" y1="378" x2="853" y2="369" stroke-width="1" />
<line x1="849" y1="378" x2="849" y2="369" stroke-width="1" />
<line x1="845" y1="378" x2="845" y2="369" stroke-width="1" />
<line x1="841" y1="378" x2="841" y2="369" stroke-width="1" />
<line x1="837" y1="378" x2="837" y2="369" stroke-width="1" />
<line x1="833" y1="378" x2="833" y2="369" stroke-width="1" />
<line x1="829" y1="378" x2="829" y2="369" stroke-width="1" />
<line x1="825" y1="378" x2="825" y2="369" stroke-width="1" />
<line x1="821" y1="378" x2="821" y2="369" stroke-width="1" />
<line x1="817" y1="378" x2="817" y2="369" stroke-width="1" />
<line x1="813" y1="378" x2="813" y2="369" stroke-width="1" />
<line x1="809" y1="378" x2="809" y2="369" stroke-width="1" />
<line x1="805" y1="378" x2="805" y2="369" stroke-width="1" />
<line x1="801" y1="378" x2="801" y2="369" stroke-width="1" />
<line x1="797" y1="378" x2="797" y2="369" stroke-width="1" />
<line x1="793" y1="378" x2="793" y2="369" stroke-width="1" />
</g>
<g stroke="#000000" fill="#9B5509" stroke-opacity="1.0" fill-opacity="1.0" transform="scale(0.5)">
<polygon points="872,369  787,369  787,365  872,365" stroke-width="1" />
<polygon points="872,378  787,378  787,382  872,382" stroke-width="1" />
</g>
<g stroke="#009900" fill="#9B5509" stroke-opacity="1.0" fill-opacity="1.0" transform="scale(0.5)">
<line x1="934" y1="260" x2="929" y2="260" stroke-width="1" />
<line x1="934" y1="264" x2="929" y2="264" stroke-width="1" />
<line x1="934" y1="268" x2="929" y2="268" stroke-width="1" />
<line x1="934" y1="272" x2="929" y2="272" stroke-width="1" />
<line x1="934" y1="276" x2="929" y2="276" stroke-width="1" />
<line x1="934" y1="280" x2="929" y2="280" stroke-width="1" />
<line x1="934" y1="284" x2="929" y2="284" stroke-width="1" />
<line x1="934" y1="288" x2="929" y2="288" stroke-width="1" />
<line x1="934" y1="292" x2="929" y2="292" stroke-width="1" />
<line x1="934" y1="296" x2="929" y2="296" stroke-width="1" />
<line x1="934" y1="300" x2="929" y2="300" stroke-width="1" />
<line x1="934" y1="304" x2="929" y2="304" stroke-width="1" />
<line x1="934" y1="308" x2="929" y2="308" stroke-width="1" />
<line x1="934" y1="312" x2="929" y2="312" stroke-width="1" />
<line x1="934" y1="316" x2="929" y2="316" stroke-width="1" />
<line x1="934" y1="320" x2="929" y2="320" stroke-width="1" />
<line x1="934" y1="324" x2="929" y2="324" stroke-width="1" />
<line x1="934" y1="328" x2="929" y2="328" stroke-width="1" />
<line x1="934" y1="332" x2="929" y2="332" stroke-width="1" />
<line x1="934" y1="336" x2="929" y2="336" stroke-width="1" />
<line x1="934" y1="340" x2="929" y2="340" stroke-width="1" />
<line x1="934" y1="344" x2="929" y2="344" stroke-width="1" />
<line x1="934" y1="348" x2="929" y2="348" stroke-width="1" />
<line x1="934" y1="352" x2="929" y2="352" stroke-width="1" />
<line x1="934" y1="356" x2="929" y2="356" stroke-width="1" />
</g>
<g stroke="#FF0000" fill="#9B5509" stroke-opacity="1.0" fill-opacity="1.0" transform="scale(0.5)">
<line x1="934" y1="207" x2="929" y2="207" stroke-width="1" />
<line x1="934" y1="203" x2="929" y2="203" stroke-width="1" />
<line x1="934" y1="199" x2="929" y2="199" stroke-width="1" />
<line x1="934" y1="195" x2="929" y2="195" stroke-width="1" />
<line x1="934" y1="191" x2="929" y2="191" stroke-width="1" />
<line x1="934" y1="187" x2="929" y2="187" stroke-width="1" />
</g>
<g stroke="#000000" fill="#FFFFFF" stroke-opacity="1.0" fill-opacity="1.0" transform="scale(0.5)">
<polygon points="939,255  939,246  971,246  971,255" stroke-width="1" />
</g>
<g stroke="#000000" fill="none" stroke-opacity="1.0" fill-opacity="1.0" transform="scale(0.5)">
<text x=" 943" y="254.0" font-family="Arial" font-size=" 10" fill="#000000" stroke-width="0">кассы</text>
</g>
<g stroke="#FF0000" fill="none" stroke-opacity="1.0" fill-opacity="1.0" transform="scale(0.5)">
<polyline points="975,199  1003,199" marker-end="url(#arrow)" stroke-width="1" fill="none" />
<polyline points="883,243  910,243" marker-end="url(#arrow)" stroke-width="1" fill="none" />
</g>
<g stroke="#009900" fill="none" stroke-opacity="1.0" fill-opacity="1.0" transform="scale(0.5)">
<polyline points="999,305  971,305" marker-end="url(#arrow)" stroke-width="1" fill="none" />
<polyline points="810,265  780,265" marker-end="url(#arrow)" stroke-width="1" fill="none" />
</g>
<g stroke="#34349C" fill="#34349C" stroke-opacity="1.0" fill-opacity="1.0" transform="scale(0.5)">
<polygon points="914,356  910,356  910,357  914,357" stroke-width="1" />
</g>
<g stroke="#FF0000" fill="#FF0000" stroke-opacity="1.0" fill-opacity="1.0" transform="scale(0.5)">
<polygon points="918,356  914,356  914,357  918,357" stroke-width="1" />
</g>
<g stroke="#00AFAF" fill="none" stroke-opacity="1.0" fill-opacity="1.0" transform="scale(0.5)">
<text x=" 29" y="258.0" font-family="Arial" font-size=" 15" fill="#00AFAF" transform="rotate(15.0  29  243)" stroke-width="0">Хорошевское</text>
<text x=" 23" y="271.0" font-family="Arial" font-size=" 15" fill="#00AFAF" transform="rotate(15.0  23  256)" stroke-width="0">шоссе</text>
<text x=" 1052" y="302.0" font-family="Arial" font-size=" 15" fill="#00AFAF" stroke-width="0">Хорошевское</text>
<text x=" 1052" y="316.0" font-family="Arial" font-size=" 15" fill="#00AFAF" stroke-width="0">шоссе</text>
<text x=" 158" y="-38.0" font-family="Arial" font-size=" 15" fill="#00AFAF" transform="rotate(90.0  158  -53)" stroke-width="0">улица Куусинена</text>
</g>
<g stroke="#FFD0D0" fill="#FFD0D0" stroke-opacity="0.7" fill-opacity="0.7" transform="scale(0.5)">
<polygon points="268,326  888,328  888,441  268,441" stroke-width="1" />
</g>
<g stroke="#FF4040" fill="none" stroke-opacity="1.0" fill-opacity="1.0" transform="scale(0.5)">
<text x=" 341" y="366.0" font-family="Arial" font-size=" 15" fill="#FF4040" stroke-width="0">прохода нет</text>
<text x=" 804" y="353.0" font-family="Arial" font-size=" 15" fill="#FF4040" stroke-width="0">прохода нет</text>
<polyline points="268,326  888,328  888,441  268,441  268,326" stroke-width="1" fill="none" stroke-dasharray="5,2" />
</g>
</g>
</g>
</svg>
