<?xml version="1.0" encoding="utf-8" ?>
<svg baseProfile="full" height="600.0" version="1.1" width="1140.0" xmlns="http://www.w3.org/2000/svg" xmlns:ev="http://www.w3.org/2001/xml-events" xmlns:xlink="http://www.w3.org/1999/xlink">
  <defs>
    <marker id="id265" markerHeight="3" markerUnits="strokeWidth" markerWidth="4" orient="auto" refX="0" refY="5" viewBox="0,0,10,10">
      <path d="M 0 0 L 10 5 L 0 10 z"/>
    </marker>
  </defs>
  <g>
    <rect fill="none" height="600.0" stroke="none" stroke-width="0" width="1140.0" x="0.0" y="0.0"/>
    <g transform="rotate(-10.0,570.0,300.0)">
      <polygon fill="#ac24ac" points="332.0,183.0 782.0,183.0 782.0,213.0 332.0,213.0" stroke="#000000" stroke-width="1"/>
      <polygon fill="#ac24ac" points="332.0,293.0 782.0,293.0 782.0,323.0 332.0,323.0" stroke="#000000" stroke-width="1"/>
      <polygon fill="#b0b0b0" points="332.0,403.0 783.0,403.0 783.0,433.0 332.0,433.0" stroke="#000000" stroke-width="1"/>
      <text fill="#ac24ac" font-family="Arial" font-size="20.0" stroke="none" stroke-width="0" x="334.0" y="180.0">&lt;&lt; Октябрьское поле</text>
      <text fill="#ac24ac" font-family="Arial" font-size="20.0" stroke="none" stroke-width="0" x="684.0" y="343.0">Беговая &gt;&gt;</text>
      <text fill="#ac24ac" font-family="Arial" font-size="25.0" stroke="none" stroke-width="0" x="464.0" y="253.0">Полежаевская</text>
      <polygon fill="#34349c" points="564.0,261.0 564.0,257.0 563.0,257.0 563.0,261.0" stroke="#34349c" stroke-width="1"/>
      <polygon fill="#ff0000" points="564.0,265.0 564.0,261.0 563.0,261.0 563.0,265.0" stroke="#ff0000" stroke-width="1"/>
      <polyline fill="none" points="332.0,403.0 332.0,395.0 271.0,395.0 271.0,433.0 191.0,433.0 191.0,430.0" stroke="#000000" stroke-width="1"/>
      <polyline fill="none" points="171.0,430.0 165.0,430.0 165.0,500.0 86.0,500.0" stroke="#000000" stroke-width="1"/>
      <polyline fill="none" points="86.0,479.0 139.0,479.0 139.0,331.0 127.0,331.0 127.0,283.0 139.0,283.0 139.0,149.0 105.0,115.0 75.0,145.0" stroke="#000000" stroke-width="1"/>
      <polyline fill="none" points="61.0,131.0 91.0,101.0 91.0,44.0" stroke="#000000" stroke-width="1"/>
      <polyline fill="none" points="113.0,44.0 113.0,89.0 149.0,125.0 174.0,125.0 174.0,80.0" stroke="#000000" stroke-width="1"/>
      <polyline fill="none" points="196.0,80.0 196.0,147.0 165.0,147.0 165.0,183.0 271.0,183.0 271.0,221.0 332.0,221.0 332.0,213.0" stroke="#000000" stroke-width="1"/>
      <line stroke="#000000" stroke-width="1" x1="88.0" x2="88.0" y1="479.0" y2="500.0"/>
      <line stroke="#000000" stroke-width="1" x1="92.0" x2="92.0" y1="479.0" y2="500.0"/>
      <line stroke="#000000" stroke-width="1" x1="96.0" x2="96.0" y1="479.0" y2="500.0"/>
      <line stroke="#000000" stroke-width="1" x1="100.0" x2="100.0" y1="479.0" y2="500.0"/>
      <line stroke="#000000" stroke-width="1" x1="104.0" x2="104.0" y1="479.0" y2="500.0"/>
      <line stroke="#000000" stroke-width="1" x1="108.0" x2="108.0" y1="479.0" y2="500.0"/>
      <line stroke="#000000" stroke-width="1" x1="112.0" x2="112.0" y1="479.0" y2="500.0"/>
      <line stroke="#000000" stroke-width="1" x1="116.0" x2="116.0" y1="479.0" y2="500.0"/>
      <line stroke="#000000" stroke-width="1" x1="120.0" x2="120.0" y1="479.0" y2="500.0"/>
      <line stroke="#000000" stroke-width="1" x1="124.0" x2="124.0" y1="479.0" y2="500.0"/>
      <line stroke="#000000" stroke-width="1" x1="273.0" x2="273.0" y1="221.0" y2="277.0"/>
      <line stroke="#000000" stroke-width="1" x1="277.0" x2="277.0" y1="221.0" y2="277.0"/>
      <line stroke="#000000" stroke-width="1" x1="281.0" x2="281.0" y1="221.0" y2="277.0"/>
      <line stroke="#000000" stroke-width="1" x1="285.0" x2="285.0" y1="221.0" y2="277.0"/>
      <line stroke="#000000" stroke-width="1" x1="289.0" x2="289.0" y1="221.0" y2="277.0"/>
      <line stroke="#000000" stroke-width="1" x1="293.0" x2="293.0" y1="221.0" y2="277.0"/>
      <line stroke="#000000" stroke-width="1" x1="297.0" x2="297.0" y1="221.0" y2="277.0"/>
      <line stroke="#000000" stroke-width="1" x1="301.0" x2="301.0" y1="221.0" y2="277.0"/>
      <line stroke="#000000" stroke-width="1" x1="305.0" x2="305.0" y1="221.0" y2="277.0"/>
      <line stroke="#000000" stroke-width="1" x1="309.0" x2="309.0" y1="221.0" y2="277.0"/>
      <line stroke="#000000" stroke-width="1" x1="313.0" x2="313.0" y1="221.0" y2="277.0"/>
      <line stroke="#000000" stroke-width="1" x1="317.0" x2="317.0" y1="221.0" y2="277.0"/>
      <line stroke="#000000" stroke-width="1" x1="321.0" x2="321.0" y1="221.0" y2="277.0"/>
      <line stroke="#000000" stroke-width="1" x1="325.0" x2="325.0" y1="221.0" y2="277.0"/>
      <line stroke="#000000" stroke-width="1" x1="329.0" x2="329.0" y1="221.0" y2="277.0"/>
      <line stroke="#000000" stroke-width="1" x1="275.0" x2="275.0" y1="339.0" y2="395.0"/>
      <line stroke="#000000" stroke-width="1" x1="279.0" x2="279.0" y1="339.0" y2="395.0"/>
      <line stroke="#000000" stroke-width="1" x1="283.0" x2="283.0" y1="339.0" y2="395.0"/>
      <line stroke="#000000" stroke-width="1" x1="287.0" x2="287.0" y1="339.0" y2="395.0"/>
      <line stroke="#000000" stroke-width="1" x1="291.0" x2="291.0" y1="339.0" y2="395.0"/>
      <line stroke="#000000" stroke-width="1" x1="295.0" x2="295.0" y1="339.0" y2="395.0"/>
      <line stroke="#000000" stroke-width="1" x1="299.0" x2="299.0" y1="339.0" y2="395.0"/>
      <line stroke="#000000" stroke-width="1" x1="303.0" x2="303.0" y1="339.0" y2="395.0"/>
      <line stroke="#000000" stroke-width="1" x1="307.0" x2="307.0" y1="339.0" y2="395.0"/>
      <line stroke="#000000" stroke-width="1" x1="311.0" x2="311.0" y1="339.0" y2="395.0"/>
      <line stroke="#000000" stroke-width="1" x1="315.0" x2="315.0" y1="339.0" y2="395.0"/>
      <line stroke="#000000" stroke-width="1" x1="319.0" x2="319.0" y1="339.0" y2="395.0"/>
      <line stroke="#000000" stroke-width="1" x1="323.0" x2="323.0" y1="339.0" y2="395.0"/>
      <line stroke="#000000" stroke-width="1" x1="327.0" x2="327.0" y1="339.0" y2="395.0"/>
      <line stroke="#000000" stroke-width="1" x1="91.0" x2="113.0" y1="84.0" y2="84.0"/>
      <line stroke="#000000" stroke-width="1" x1="91.0" x2="113.0" y1="80.0" y2="80.0"/>
      <line stroke="#000000" stroke-width="1" x1="91.0" x2="113.0" y1="76.0" y2="76.0"/>
      <line stroke="#000000" stroke-width="1" x1="91.0" x2="113.0" y1="72.0" y2="72.0"/>
      <line stroke="#000000" stroke-width="1" x1="91.0" x2="113.0" y1="68.0" y2="68.0"/>
      <line stroke="#000000" stroke-width="1" x1="91.0" x2="113.0" y1="64.0" y2="64.0"/>
      <line stroke="#000000" stroke-width="1" x1="91.0" x2="113.0" y1="60.0" y2="60.0"/>
      <line stroke="#000000" stroke-width="1" x1="91.0" x2="113.0" y1="56.0" y2="56.0"/>
      <line stroke="#000000" stroke-width="1" x1="91.0" x2="113.0" y1="52.0" y2="52.0"/>
      <line stroke="#000000" stroke-width="1" x1="91.0" x2="113.0" y1="48.0" y2="48.0"/>
      <line stroke="#000000" stroke-width="1" x1="103.0" x2="89.0" y1="117.0" y2="103.0"/>
      <line stroke="#000000" stroke-width="1" x1="100.17157287525382" x2="86.17157287525382" y1="119.82842712474618" y2="105.82842712474618"/>
      <line stroke="#000000" stroke-width="1" x1="97.34314575050763" x2="83.34314575050763" y1="122.65685424949237" y2="108.65685424949237"/>
      <line stroke="#000000" stroke-width="1" x1="94.51471862576145" x2="80.51471862576145" y1="125.48528137423855" y2="111.48528137423855"/>
      <line stroke="#000000" stroke-width="1" x1="91.68629150101526" x2="77.68629150101526" y1="128.31370849898474" y2="114.31370849898474"/>
      <line stroke="#000000" stroke-width="1" x1="88.85786437626908" x2="74.85786437626908" y1="131.14213562373092" y2="117.14213562373092"/>
      <line stroke="#000000" stroke-width="1" x1="86.02943725152289" x2="72.02943725152289" y1="133.9705627484771" y2="119.97056274847711"/>
      <line stroke="#000000" stroke-width="1" x1="83.20101012677671" x2="69.20101012677671" y1="136.7989898732233" y2="122.79898987322329"/>
      <line stroke="#000000" stroke-width="1" x1="80.37258300203052" x2="66.37258300203052" y1="139.62741699796948" y2="125.62741699796948"/>
      <line stroke="#000000" stroke-width="1" x1="77.54415587728434" x2="63.54415587728433" y1="142.45584412271566" y2="128.45584412271566"/>
      <polygon fill="#d0d0d0" points="271.0,277.0 332.0,277.0 332.0,339.0 271.0,339.0" stroke="#000000" stroke-width="1"/>
      <polygon fill="#d0d0d0" points="170.0,210.0 191.0,210.0 191.0,216.0 233.0,216.0 233.0,252.0 187.0,252.0 187.0,282.0 194.0,282.0 194.0,290.0 170.0,290.0" stroke="#000000" stroke-width="1"/>
      <polygon fill="#d0d0d0" points="187.0,364.0 233.0,364.0 233.0,400.0 191.0,400.0 191.0,430.0 171.0,430.0 171.0,326.0 194.0,326.0 194.0,334.0 187.0,334.0" stroke="#000000" stroke-width="1"/>
      <line stroke="#009900" stroke-width="1" x1="233.0" x2="238.0" y1="360.0" y2="360.0"/>
      <line stroke="#009900" stroke-width="1" x1="233.0" x2="238.0" y1="356.0" y2="356.0"/>
      <line stroke="#009900" stroke-width="1" x1="233.0" x2="238.0" y1="352.0" y2="352.0"/>
      <line stroke="#009900" stroke-width="1" x1="233.0" x2="238.0" y1="348.0" y2="348.0"/>
      <line stroke="#009900" stroke-width="1" x1="233.0" x2="238.0" y1="344.0" y2="344.0"/>
      <line stroke="#009900" stroke-width="1" x1="233.0" x2="238.0" y1="340.0" y2="340.0"/>
      <line stroke="#009900" stroke-width="1" x1="233.0" x2="238.0" y1="336.0" y2="336.0"/>
      <line stroke="#009900" stroke-width="1" x1="233.0" x2="238.0" y1="332.0" y2="332.0"/>
      <line stroke="#009900" stroke-width="1" x1="233.0" x2="238.0" y1="328.0" y2="328.0"/>
      <line stroke="#009900" stroke-width="1" x1="233.0" x2="238.0" y1="324.0" y2="324.0"/>
      <line stroke="#009900" stroke-width="1" x1="233.0" x2="238.0" y1="320.0" y2="320.0"/>
      <line stroke="#009900" stroke-width="1" x1="233.0" x2="238.0" y1="316.0" y2="316.0"/>
      <line stroke="#009900" stroke-width="1" x1="233.0" x2="238.0" y1="312.0" y2="312.0"/>
      <line stroke="#009900" stroke-width="1" x1="233.0" x2="238.0" y1="308.0" y2="308.0"/>
      <line stroke="#009900" stroke-width="1" x1="233.0" x2="238.0" y1="304.0" y2="304.0"/>
      <line stroke="#009900" stroke-width="1" x1="233.0" x2="238.0" y1="300.0" y2="300.0"/>
      <line stroke="#009900" stroke-width="1" x1="233.0" x2="238.0" y1="296.0" y2="296.0"/>
      <line stroke="#009900" stroke-width="1" x1="233.0" x2="238.0" y1="292.0" y2="292.0"/>
      <line stroke="#009900" stroke-width="1" x1="233.0" x2="238.0" y1="288.0" y2="288.0"/>
      <line stroke="#009900" stroke-width="1" x1="233.0" x2="238.0" y1="284.0" y2="284.0"/>
      <line stroke="#009900" stroke-width="1" x1="233.0" x2="238.0" y1="280.0" y2="280.0"/>
      <line stroke="#009900" stroke-width="1" x1="233.0" x2="238.0" y1="276.0" y2="276.0"/>
      <line stroke="#009900" stroke-width="1" x1="233.0" x2="238.0" y1="272.0" y2="272.0"/>
      <line stroke="#009900" stroke-width="1" x1="233.0" x2="238.0" y1="268.0" y2="268.0"/>
      <line stroke="#009900" stroke-width="1" x1="233.0" x2="238.0" y1="264.0" y2="264.0"/>
      <line stroke="#009900" stroke-width="1" x1="233.0" x2="238.0" y1="260.0" y2="260.0"/>
      <line stroke="#009900" stroke-width="1" x1="233.0" x2="238.0" y1="256.0" y2="256.0"/>
      <line stroke="#ff0000" stroke-width="1" x1="233.0" x2="238.0" y1="212.0" y2="212.0"/>
      <line stroke="#ff0000" stroke-width="1" x1="233.0" x2="238.0" y1="208.0" y2="208.0"/>
      <line stroke="#ff0000" stroke-width="1" x1="233.0" x2="238.0" y1="204.0" y2="204.0"/>
      <line stroke="#ff0000" stroke-width="1" x1="233.0" x2="238.0" y1="200.0" y2="200.0"/>
      <line stroke="#ff0000" stroke-width="1" x1="233.0" x2="238.0" y1="196.0" y2="196.0"/>
      <line stroke="#ff0000" stroke-width="1" x1="233.0" x2="238.0" y1="192.0" y2="192.0"/>
      <line stroke="#ff0000" stroke-width="1" x1="233.0" x2="238.0" y1="188.0" y2="188.0"/>
      <polygon fill="#ffffff" points="229.0,364.0 229.0,374.0 190.0,374.0 190.0,364.0" stroke="#000000" stroke-width="1"/>
      <text fill="#000000" font-family="Arial" font-size="10.0" stroke="none" stroke-width="0" x="197.0" y="372.0">кассы</text>
      <polyline fill="none" marker-end="url(#id265)" points="193.0,196.0 165.0,196.0" stroke="#ff0000" stroke-width="1"/>
      <polyline fill="none" marker-end="url(#id265)" points="164.0,308.0 196.0,308.0" stroke="#009900" stroke-width="1"/>
      <polygon fill="#34349c" points="255.0,187.0 259.0,187.0 259.0,188.0 255.0,188.0" stroke="#34349c" stroke-width="1"/>
      <polygon fill="#ff0000" points="251.0,187.0 255.0,187.0 255.0,188.0 251.0,188.0" stroke="#ff0000" stroke-width="1"/>
      <polyline fill="none" points="862.0,234.0 862.0,231.0 886.0,231.0 886.0,183.0 978.0,183.0 978.0,188.0 1003.0,188.0 1003.0,139.0 967.0,139.0" stroke="#000000" stroke-width="1"/>
      <polyline fill="none" points="782.0,213.0 782.0,231.0 799.0,231.0 799.0,234.0" stroke="#000000" stroke-width="1"/>
      <polyline fill="none" points="967.0,117.0 1066.0,117.0" stroke="#000000" stroke-width="1"/>
      <polyline fill="none" points="1066.0,139.0 1025.0,139.0 1025.0,274.0 1036.0,274.0 1036.0,341.0 1025.0,341.0 1025.0,460.0 1069.0,460.0" stroke="#000000" stroke-width="1"/>
      <polyline fill="none" points="1069.0,482.0 1004.0,482.0 1004.0,428.0 997.0,428.0" stroke="#000000" stroke-width="1"/>
      <polyline fill="none" points="863.0,382.0 863.0,385.0 886.0,385.0 886.0,433.0 981.0,433.0 981.0,428.0" stroke="#000000" stroke-width="1"/>
      <polyline fill="none" points="796.0,382.0 796.0,385.0 783.0,385.0 783.0,403.0" stroke="#000000" stroke-width="1"/>
      <line stroke="#000000" stroke-width="1" x1="1063.0" x2="1063.0" y1="117.0" y2="139.0"/>
      <line stroke="#000000" stroke-width="1" x1="1059.0" x2="1059.0" y1="117.0" y2="139.0"/>
      <line stroke="#000000" stroke-width="1" x1="1055.0" x2="1055.0" y1="117.0" y2="139.0"/>
      <line stroke="#000000" stroke-width="1" x1="1051.0" x2="1051.0" y1="117.0" y2="139.0"/>
      <line stroke="#000000" stroke-width="1" x1="1047.0" x2="1047.0" y1="117.0" y2="139.0"/>
      <line stroke="#000000" stroke-width="1" x1="1043.0" x2="1043.0" y1="117.0" y2="139.0"/>
      <line stroke="#000000" stroke-width="1" x1="1039.0" x2="1039.0" y1="117.0" y2="139.0"/>
      <line stroke="#000000" stroke-width="1" x1="1035.0" x2="1035.0" y1="117.0" y2="139.0"/>
      <line stroke="#000000" stroke-width="1" x1="971.0" x2="971.0" y1="117.0" y2="139.0"/>
      <line stroke="#000000" stroke-width="1" x1="975.0" x2="975.0" y1="117.0" y2="139.0"/>
      <line stroke="#000000" stroke-width="1" x1="979.0" x2="979.0" y1="117.0" y2="139.0"/>
      <line stroke="#000000" stroke-width="1" x1="983.0" x2="983.0" y1="117.0" y2="139.0"/>
      <line stroke="#000000" stroke-width="1" x1="987.0" x2="987.0" y1="117.0" y2="139.0"/>
      <line stroke="#000000" stroke-width="1" x1="991.0" x2="991.0" y1="117.0" y2="139.0"/>
      <line stroke="#000000" stroke-width="1" x1="995.0" x2="995.0" y1="117.0" y2="139.0"/>
      <line stroke="#000000" stroke-width="1" x1="999.0" x2="999.0" y1="117.0" y2="139.0"/>
      <line stroke="#000000" stroke-width="1" x1="1003.0" x2="1025.0" y1="152.0" y2="152.0"/>
      <line stroke="#000000" stroke-width="1" x1="1003.0" x2="1025.0" y1="156.0" y2="156.0"/>
      <line stroke="#000000" stroke-width="1" x1="1003.0" x2="1025.0" y1="160.0" y2="160.0"/>
      <line stroke="#000000" stroke-width="1" x1="1003.0" x2="1025.0" y1="164.0" y2="164.0"/>
      <line stroke="#000000" stroke-width="1" x1="1028.0" x2="1028.0" y1="460.0" y2="482.0"/>
      <line stroke="#000000" stroke-width="1" x1="1032.0" x2="1032.0" y1="460.0" y2="482.0"/>
      <line stroke="#000000" stroke-width="1" x1="1036.0" x2="1036.0" y1="460.0" y2="482.0"/>
      <line stroke="#000000" stroke-width="1" x1="1040.0" x2="1040.0" y1="460.0" y2="482.0"/>
      <line stroke="#000000" stroke-width="1" x1="1044.0" x2="1044.0" y1="460.0" y2="482.0"/>
      <line stroke="#000000" stroke-width="1" x1="1048.0" x2="1048.0" y1="460.0" y2="482.0"/>
      <line stroke="#000000" stroke-width="1" x1="1052.0" x2="1052.0" y1="460.0" y2="482.0"/>
      <line stroke="#000000" stroke-width="1" x1="1056.0" x2="1056.0" y1="460.0" y2="482.0"/>
      <line stroke="#000000" stroke-width="1" x1="1060.0" x2="1060.0" y1="460.0" y2="482.0"/>
      <line stroke="#000000" stroke-width="1" x1="1064.0" x2="1064.0" y1="460.0" y2="482.0"/>
      <line stroke="#000000" stroke-width="1" x1="799.0" x2="799.0" y1="251.0" y2="279.0"/>
      <line stroke="#000000" stroke-width="1" x1="803.0" x2="803.0" y1="251.0" y2="279.0"/>
      <line stroke="#000000" stroke-width="1" x1="807.0" x2="807.0" y1="251.0" y2="279.0"/>
      <line stroke="#000000" stroke-width="1" x1="811.0" x2="811.0" y1="251.0" y2="279.0"/>
      <line stroke="#000000" stroke-width="1" x1="815.0" x2="815.0" y1="251.0" y2="279.0"/>
      <line stroke="#000000" stroke-width="1" x1="819.0" x2="819.0" y1="251.0" y2="279.0"/>
      <line stroke="#000000" stroke-width="1" x1="823.0" x2="823.0" y1="251.0" y2="279.0"/>
      <line stroke="#000000" stroke-width="1" x1="827.0" x2="827.0" y1="251.0" y2="279.0"/>
      <line stroke="#000000" stroke-width="1" x1="831.0" x2="831.0" y1="251.0" y2="279.0"/>
      <line stroke="#000000" stroke-width="1" x1="835.0" x2="835.0" y1="251.0" y2="279.0"/>
      <line stroke="#000000" stroke-width="1" x1="839.0" x2="839.0" y1="251.0" y2="279.0"/>
      <line stroke="#000000" stroke-width="1" x1="843.0" x2="843.0" y1="251.0" y2="279.0"/>
      <line stroke="#000000" stroke-width="1" x1="847.0" x2="847.0" y1="251.0" y2="279.0"/>
      <line stroke="#000000" stroke-width="1" x1="851.0" x2="851.0" y1="251.0" y2="279.0"/>
      <line stroke="#000000" stroke-width="1" x1="855.0" x2="855.0" y1="251.0" y2="279.0"/>
      <line stroke="#000000" stroke-width="1" x1="859.0" x2="859.0" y1="251.0" y2="279.0"/>
      <line stroke="#000000" stroke-width="1" x1="863.0" x2="863.0" y1="251.0" y2="279.0"/>
      <line stroke="#000000" stroke-width="1" x1="799.0" x2="799.0" y1="337.0" y2="365.0"/>
      <line stroke="#000000" stroke-width="1" x1="803.0" x2="803.0" y1="337.0" y2="365.0"/>
      <line stroke="#000000" stroke-width="1" x1="807.0" x2="807.0" y1="337.0" y2="365.0"/>
      <line stroke="#000000" stroke-width="1" x1="811.0" x2="811.0" y1="337.0" y2="365.0"/>
      <line stroke="#000000" stroke-width="1" x1="815.0" x2="815.0" y1="337.0" y2="365.0"/>
      <line stroke="#000000" stroke-width="1" x1="819.0" x2="819.0" y1="337.0" y2="365.0"/>
      <line stroke="#000000" stroke-width="1" x1="823.0" x2="823.0" y1="337.0" y2="365.0"/>
      <line stroke="#000000" stroke-width="1" x1="827.0" x2="827.0" y1="337.0" y2="365.0"/>
      <line stroke="#000000" stroke-width="1" x1="831.0" x2="831.0" y1="337.0" y2="365.0"/>
      <line stroke="#000000" stroke-width="1" x1="835.0" x2="835.0" y1="337.0" y2="365.0"/>
      <line stroke="#000000" stroke-width="1" x1="839.0" x2="839.0" y1="337.0" y2="365.0"/>
      <line stroke="#000000" stroke-width="1" x1="843.0" x2="843.0" y1="337.0" y2="365.0"/>
      <line stroke="#000000" stroke-width="1" x1="847.0" x2="847.0" y1="337.0" y2="365.0"/>
      <line stroke="#000000" stroke-width="1" x1="851.0" x2="851.0" y1="337.0" y2="365.0"/>
      <line stroke="#000000" stroke-width="1" x1="855.0" x2="855.0" y1="337.0" y2="365.0"/>
      <line stroke="#000000" stroke-width="1" x1="859.0" x2="859.0" y1="337.0" y2="365.0"/>
      <line stroke="#000000" stroke-width="1" x1="863.0" x2="863.0" y1="337.0" y2="365.0"/>
      <line stroke="#000000" stroke-width="1" x1="174.0" x2="196.0" y1="120.0" y2="120.0"/>
      <line stroke="#000000" stroke-width="1" x1="174.0" x2="196.0" y1="116.0" y2="116.0"/>
      <line stroke="#000000" stroke-width="1" x1="174.0" x2="196.0" y1="112.0" y2="112.0"/>
      <line stroke="#000000" stroke-width="1" x1="174.0" x2="196.0" y1="108.0" y2="108.0"/>
      <line stroke="#000000" stroke-width="1" x1="174.0" x2="196.0" y1="104.0" y2="104.0"/>
      <line stroke="#000000" stroke-width="1" x1="174.0" x2="196.0" y1="100.0" y2="100.0"/>
      <line stroke="#000000" stroke-width="1" x1="174.0" x2="196.0" y1="96.0" y2="96.0"/>
      <line stroke="#000000" stroke-width="1" x1="174.0" x2="196.0" y1="92.0" y2="92.0"/>
      <line stroke="#000000" stroke-width="1" x1="174.0" x2="196.0" y1="88.0" y2="88.0"/>
      <line stroke="#000000" stroke-width="1" x1="174.0" x2="196.0" y1="84.0" y2="84.0"/>
      <polygon fill="#d0d0d0" points="782.0,279.0 888.0,279.0 888.0,337.0 782.0,337.0" stroke="#000000" stroke-width="1"/>
      <polygon fill="#d0d0d0" points="934.0,210.0 997.0,210.0 997.0,274.0 976.0,274.0 976.0,255.0 934.0,255.0" stroke="#000000" stroke-width="1"/>
      <polygon fill="#d0d0d0" points="934.0,361.0 976.0,361.0 976.0,342.0 997.0,342.0 997.0,428.0 981.0,428.0 981.0,406.0 934.0,406.0" stroke="#000000" stroke-width="1"/>
      <line stroke="#7f7f7f" stroke-width="1" x1="865.0" x2="865.0" y1="247.0" y2="238.0"/>
      <line stroke="#7f7f7f" stroke-width="1" x1="861.0" x2="861.0" y1="247.0" y2="238.0"/>
      <line stroke="#7f7f7f" stroke-width="1" x1="857.0" x2="857.0" y1="247.0" y2="238.0"/>
      <line stroke="#7f7f7f" stroke-width="1" x1="853.0" x2="853.0" y1="247.0" y2="238.0"/>
      <line stroke="#7f7f7f" stroke-width="1" x1="849.0" x2="849.0" y1="247.0" y2="238.0"/>
      <line stroke="#7f7f7f" stroke-width="1" x1="845.0" x2="845.0" y1="247.0" y2="238.0"/>
      <line stroke="#7f7f7f" stroke-width="1" x1="841.0" x2="841.0" y1="247.0" y2="238.0"/>
      <line stroke="#7f7f7f" stroke-width="1" x1="837.0" x2="837.0" y1="247.0" y2="238.0"/>
      <line stroke="#7f7f7f" stroke-width="1" x1="833.0" x2="833.0" y1="247.0" y2="238.0"/>
      <line stroke="#7f7f7f" stroke-width="1" x1="829.0" x2="829.0" y1="247.0" y2="238.0"/>
      <line stroke="#7f7f7f" stroke-width="1" x1="825.0" x2="825.0" y1="247.0" y2="238.0"/>
      <line stroke="#7f7f7f" stroke-width="1" x1="821.0" x2="821.0" y1="247.0" y2="238.0"/>
      <line stroke="#7f7f7f" stroke-width="1" x1="817.0" x2="817.0" y1="247.0" y2="238.0"/>
      <line stroke="#7f7f7f" stroke-width="1" x1="813.0" x2="813.0" y1="247.0" y2="238.0"/>
      <line stroke="#7f7f7f" stroke-width="1" x1="809.0" x2="809.0" y1="247.0" y2="238.0"/>
      <line stroke="#7f7f7f" stroke-width="1" x1="805.0" x2="805.0" y1="247.0" y2="238.0"/>
      <line stroke="#7f7f7f" stroke-width="1" x1="801.0" x2="801.0" y1="247.0" y2="238.0"/>
      <line stroke="#7f7f7f" stroke-width="1" x1="797.0" x2="797.0" y1="247.0" y2="238.0"/>
      <polygon fill="#9b5509" points="872.0,238.0 789.0,238.0 789.0,234.0 872.0,234.0" stroke="#000000" stroke-width="1"/>
      <polygon fill="#9b5509" points="872.0,247.0 789.0,247.0 789.0,251.0 872.0,251.0" stroke="#000000" stroke-width="1"/>
      <line stroke="#7f7f7f" stroke-width="1" x1="865.0" x2="865.0" y1="378.0" y2="369.0"/>
      <line stroke="#7f7f7f" stroke-width="1" x1="861.0" x2="861.0" y1="378.0" y2="369.0"/>
      <line stroke="#7f7f7f" stroke-width="1" x1="857.0" x2="857.0" y1="378.0" y2="369.0"/>
      <line stroke="#7f7f7f" stroke-width="1" x1="853.0" x2="853.0" y1="378.0" y2="369.0"/>
      <line stroke="#7f7f7f" stroke-width="1" x1="849.0" x2="849.0" y1="378.0" y2="369.0"/>
      <line stroke="#7f7f7f" stroke-width="1" x1="845.0" x2="845.0" y1="378.0" y2="369.0"/>
      <line stroke="#7f7f7f" stroke-width="1" x1="841.0" x2="841.0" y1="378.0" y2="369.0"/>
      <line stroke="#7f7f7f" stroke-width="1" x1="837.0" x2="837.0" y1="378.0" y2="369.0"/>
      <line stroke="#7f7f7f" stroke-width="1" x1="833.0" x2="833.0" y1="378.0" y2="369.0"/>
      <line stroke="#7f7f7f" stroke-width="1" x1="829.0" x2="829.0" y1="378.0" y2="369.0"/>
      <line stroke="#7f7f7f" stroke-width="1" x1="825.0" x2="825.0" y1="378.0" y2="369.0"/>
      <line stroke="#7f7f7f" stroke-width="1" x1="821.0" x2="821.0" y1="378.0" y2="369.0"/>
      <line stroke="#7f7f7f" stroke-width="1" x1="817.0" x2="817.0" y1="378.0" y2="369.0"/>
      <line stroke="#7f7f7f" stroke-width="1" x1="813.0" x2="813.0" y1="378.0" y2="369.0"/>
      <line stroke="#7f7f7f" stroke-width="1" x1="809.0" x2="809.0" y1="378.0" y2="369.0"/>
      <line stroke="#7f7f7f" stroke-width="1" x1="805.0" x2="805.0" y1="378.0" y2="369.0"/>
      <line stroke="#7f7f7f" stroke-width="1" x1="801.0" x2="801.0" y1="378.0" y2="369.0"/>
      <line stroke="#7f7f7f" stroke-width="1" x1="797.0" x2="797.0" y1="378.0" y2="369.0"/>
      <line stroke="#7f7f7f" stroke-width="1" x1="793.0" x2="793.0" y1="378.0" y2="369.0"/>
      <polygon fill="#9b5509" points="872.0,369.0 787.0,369.0 787.0,365.0 872.0,365.0" stroke="#000000" stroke-width="1"/>
      <polygon fill="#9b5509" points="872.0,378.0 787.0,378.0 787.0,382.0 872.0,382.0" stroke="#000000" stroke-width="1"/>
      <line stroke="#009900" stroke-width="1" x1="934.0" x2="929.0" y1="260.0" y2="260.0"/>
      <line stroke="#009900" stroke-width="1" x1="934.0" x2="929.0" y1="264.0" y2="264.0"/>
      <line stroke="#009900" stroke-width="1" x1="934.0" x2="929.0" y1="268.0" y2="268.0"/>
      <line stroke="#009900" stroke-width="1" x1="934.0" x2="929.0" y1="272.0" y2="272.0"/>
      <line stroke="#009900" stroke-width="1" x1="934.0" x2="929.0" y1="276.0" y2="276.0"/>
      <line stroke="#009900" stroke-width="1" x1="934.0" x2="929.0" y1="280.0" y2="280.0"/>
      <line stroke="#009900" stroke-width="1" x1="934.0" x2="929.0" y1="284.0" y2="284.0"/>
      <line stroke="#009900" stroke-width="1" x1="934.0" x2="929.0" y1="288.0" y2="288.0"/>
      <line stroke="#009900" stroke-width="1" x1="934.0" x2="929.0" y1="292.0" y2="292.0"/>
      <line stroke="#009900" stroke-width="1" x1="934.0" x2="929.0" y1="296.0" y2="296.0"/>
      <line stroke="#009900" stroke-width="1" x1="934.0" x2="929.0" y1="300.0" y2="300.0"/>
      <line stroke="#009900" stroke-width="1" x1="934.0" x2="929.0" y1="304.0" y2="304.0"/>
      <line stroke="#009900" stroke-width="1" x1="934.0" x2="929.0" y1="308.0" y2="308.0"/>
      <line stroke="#009900" stroke-width="1" x1="934.0" x2="929.0" y1="312.0" y2="312.0"/>
      <line stroke="#009900" stroke-width="1" x1="934.0" x2="929.0" y1="316.0" y2="316.0"/>
      <line stroke="#009900" stroke-width="1" x1="934.0" x2="929.0" y1="320.0" y2="320.0"/>
      <line stroke="#009900" stroke-width="1" x1="934.0" x2="929.0" y1="324.0" y2="324.0"/>
      <line stroke="#009900" stroke-width="1" x1="934.0" x2="929.0" y1="328.0" y2="328.0"/>
      <line stroke="#009900" stroke-width="1" x1="934.0" x2="929.0" y1="332.0" y2="332.0"/>
      <line stroke="#009900" stroke-width="1" x1="934.0" x2="929.0" y1="336.0" y2="336.0"/>
      <line stroke="#009900" stroke-width="1" x1="934.0" x2="929.0" y1="340.0" y2="340.0"/>
      <line stroke="#009900" stroke-width="1" x1="934.0" x2="929.0" y1="344.0" y2="344.0"/>
      <line stroke="#009900" stroke-width="1" x1="934.0" x2="929.0" y1="348.0" y2="348.0"/>
      <line stroke="#009900" stroke-width="1" x1="934.0" x2="929.0" y1="352.0" y2="352.0"/>
      <line stroke="#009900" stroke-width="1" x1="934.0" x2="929.0" y1="356.0" y2="356.0"/>
      <line stroke="#ff0000" stroke-width="1" x1="934.0" x2="929.0" y1="207.0" y2="207.0"/>
      <line stroke="#ff0000" stroke-width="1" x1="934.0" x2="929.0" y1="203.0" y2="203.0"/>
      <line stroke="#ff0000" stroke-width="1" x1="934.0" x2="929.0" y1="199.0" y2="199.0"/>
      <line stroke="#ff0000" stroke-width="1" x1="934.0" x2="929.0" y1="195.0" y2="195.0"/>
      <line stroke="#ff0000" stroke-width="1" x1="934.0" x2="929.0" y1="191.0" y2="191.0"/>
      <line stroke="#ff0000" stroke-width="1" x1="934.0" x2="929.0" y1="187.0" y2="187.0"/>
      <polygon fill="#ffffff" points="939.0,255.0 939.0,246.0 971.0,246.0 971.0,255.0" stroke="#000000" stroke-width="1"/>
      <text fill="#000000" font-family="Arial" font-size="10.0" stroke="none" stroke-width="0" x="943.0" y="254.0">кассы</text>
      <polyline fill="none" marker-end="url(#id265)" points="975.0,199.0 1003.0,199.0" stroke="#ff0000" stroke-width="1"/>
      <polyline fill="none" marker-end="url(#id265)" points="883.0,243.0 910.0,243.0" stroke="#ff0000" stroke-width="1"/>
      <polyline fill="none" marker-end="url(#id265)" points="999.0,305.0 971.0,305.0" stroke="#009900" stroke-width="1"/>
      <polyline fill="none" marker-end="url(#id265)" points="810.0,265.0 780.0,265.0" stroke="#009900" stroke-width="1"/>
      <polygon fill="#34349c" points="914.0,356.0 910.0,356.0 910.0,357.0 914.0,357.0" stroke="#34349c" stroke-width="1"/>
      <polygon fill="#ff0000" points="918.0,356.0 914.0,356.0 914.0,357.0 918.0,357.0" stroke="#ff0000" stroke-width="1"/>
      <text fill="#00afaf" font-family="Arial" font-size="15.0" stroke="none" stroke-width="0" transform="rotate(15.0,29.0,243.0)" x="29.0" y="258.0">Хорошевское</text>
      <text fill="#00afaf" font-family="Arial" font-size="15.0" stroke="none" stroke-width="0" transform="rotate(15.0,23.0,256.0)" x="23.0" y="271.0">шоссе</text>
      <text fill="#00afaf" font-family="Arial" font-size="15.0" stroke="none" stroke-width="0" x="1052.0" y="302.0">Хорошевское</text>
      <text fill="#00afaf" font-family="Arial" font-size="15.0" stroke="none" stroke-width="0" x="1052.0" y="316.0">шоссе</text>
      <text fill="#00afaf" font-family="Arial" font-size="15.0" stroke="none" stroke-width="0" transform="rotate(90.0,158.0,-53.0)" x="158.0" y="-38.0">улица Куусинена</text>
    </g>
    <g fill="none" fill-opacity="0.7" stroke="#000000" stroke-opacity="0.7" transform="rotate(-10.0,570.0,300.0)">
      <polygon fill="#ffd0d0" points="268.0,326.0 888.0,328.0 888.0,441.0 268.0,441.0" stroke="#ffd0d0" stroke-width="1"/>
    </g>
    <g fill="#ffd0d0" fill-opacity="1.0" stroke="#ff4040" stroke-opacity="1.0" transform="rotate(-10.0,570.0,300.0)">
      <text fill="#ff4040" font-family="Arial" font-size="15.0" stroke="none" stroke-width="0" x="341.0" y="366.0">прохода нет</text>
      <text fill="#ff4040" font-family="Arial" font-size="15.0" stroke="none" stroke-width="0" x="804.0" y="353.0">прохода нет</text>
      <polyline fill="none" points="268.0,326.0 888.0,328.0 888.0,441.0 268.0,441.0 268.0,326.0" stroke="#ff4040" stroke-dasharray="5 2" stroke-width="1"/>
    </g>
    <g>
      <rect fill="#615f56" height="30.0" stroke="none" stroke-width="0" width="30.0" x="116.0" y="520.0"/>
      <rect fill="#615f56" height="30.0" stroke="none" stroke-width="0" width="30.0" x="58.0" y="243.0"/>
      <rect fill="#615f56" height="30.0" stroke="none" stroke-width="0" width="30.0" x="19.0" y="125.0"/>
      <rect fill="#615f56" height="30.0" stroke="none" stroke-width="0" width="30.0" x="171.0" y="142.0"/>
      <rect fill="#615f56" height="30.0" stroke="none" stroke-width="0" width="30.0" x="901.0" y="10.0"/>
      <rect fill="#615f56" height="30.0" stroke="none" stroke-width="0" width="30.0" x="1049.0" y="32.0"/>
      <rect fill="#615f56" height="30.0" stroke="none" stroke-width="0" width="30.0" x="1090.0" y="409.0"/>
      <rect fill="#615f56" height="30.0" stroke="none" stroke-width="0" width="30.0" x="1076.0" y="539.0"/>
      <text fill="#ffd900" font-family="Arial" font-size="25.0" stroke="none" stroke-width="0" x="124.0" y="546.0">1</text>
      <text fill="#ffd900" font-family="Arial" font-size="25.0" stroke="none" stroke-width="0" x="66.0" y="269.0">2</text>
      <text fill="#ffd900" font-family="Arial" font-size="25.0" stroke="none" stroke-width="0" x="27.0" y="151.0">3</text>
      <text fill="#ffd900" font-family="Arial" font-size="25.0" stroke="none" stroke-width="0" x="179.0" y="168.0">4</text>
      <text fill="#ffd900" font-family="Arial" font-size="25.0" stroke="none" stroke-width="0" x="909.0" y="36.0">5</text>
      <text fill="#ffd900" font-family="Arial" font-size="25.0" stroke="none" stroke-width="0" x="1057.0" y="58.0">6</text>
      <text fill="#ffd900" font-family="Arial" font-size="25.0" stroke="none" stroke-width="0" x="1098.0" y="435.0">7</text>
      <text fill="#ffd900" font-family="Arial" font-size="25.0" stroke="none" stroke-width="0" x="1084.0" y="565.0">8</text>
    </g>
  </g>
</svg>
