<?xml version="1.0" encoding="utf-8" ?>
<svg baseProfile="full" height="950.0" version="1.1" width="560.0" xmlns="http://www.w3.org/2000/svg" xmlns:ev="http://www.w3.org/2001/xml-events" xmlns:xlink="http://www.w3.org/1999/xlink">
  <defs>
    <marker id="id266" markerHeight="3" markerUnits="strokeWidth" markerWidth="4" orient="auto" refX="0" refY="5" viewBox="0,0,10,10">
      <path d="M 0 0 L 10 5 L 0 10 z"/>
    </marker>
  </defs>
  <g>
    <rect fill="none" height="950.0" stroke="none" stroke-width="0" width="560.0" x="0.0" y="0.0"/>
    <g transform="rotate(70.0,280.0,475.0)">
      <polygon fill="#9ca4a4" points="-197.0,434.0 253.0,434.0 253.0,464.0 -197.0,464.0" stroke="#000000" stroke-width="1"/>
      <polygon fill="#9ca4a4" points="-197.0,544.0 253.0,544.0 253.0,574.0 -197.0,574.0" stroke="#000000" stroke-width="1"/>
      <text fill="#4c4c4c" font-family="Arial" font-size="25.0" stroke="none" stroke-width="0" x="-11.0" y="500.0">Полянка</text>
      <text fill="#4c4c4c" font-family="Arial" font-size="20.0" stroke="none" stroke-width="0" x="-194.0" y="429.0">&lt;&lt; Боровицкая</text>
      <text fill="#4c4c4c" font-family="Arial" font-size="20.0" stroke="none" stroke-width="0" x="105.0" y="594.0">Серпуховская &gt;&gt;</text>
      <polyline fill="none" points="676.0,550.0 676.0,617.0 582.0,617.0 582.0,576.0 407.0,576.0 407.0,540.0 361.0,540.0 361.0,527.0" stroke="#000000" stroke-width="1"/>
      <polyline fill="none" points="647.0,550.0 647.0,586.0 616.0,586.0 616.0,434.0 407.0,434.0 407.0,470.0 361.0,470.0 361.0,482.0" stroke="#000000" stroke-width="1"/>
      <polyline fill="none" points="253.0,474.0 253.0,464.0" stroke="#000000" stroke-width="1"/>
      <polyline fill="none" points="253.0,464.0 253.0,474.0 170.0,474.0 170.0,485.0 180.0,485.0 180.0,482.0 229.0,482.0" stroke="#000000" stroke-width="1"/>
      <polyline fill="none" points="253.0,544.0 253.0,535.0 170.0,535.0 170.0,524.0 178.0,524.0 178.0,527.0 229.0,527.0" stroke="#000000" stroke-width="1"/>
      <line stroke="#000000" stroke-width="1" x1="647.0" x2="676.0" y1="552.0" y2="552.0"/>
      <line stroke="#000000" stroke-width="1" x1="647.0" x2="676.0" y1="556.0" y2="556.0"/>
      <line stroke="#000000" stroke-width="1" x1="647.0" x2="676.0" y1="560.0" y2="560.0"/>
      <line stroke="#000000" stroke-width="1" x1="647.0" x2="676.0" y1="564.0" y2="564.0"/>
      <line stroke="#000000" stroke-width="1" x1="647.0" x2="676.0" y1="568.0" y2="568.0"/>
      <line stroke="#000000" stroke-width="1" x1="647.0" x2="676.0" y1="572.0" y2="572.0"/>
      <line stroke="#000000" stroke-width="1" x1="647.0" x2="676.0" y1="576.0" y2="576.0"/>
      <line stroke="#000000" stroke-width="1" x1="647.0" x2="676.0" y1="580.0" y2="580.0"/>
      <line stroke="#000000" stroke-width="1" x1="647.0" x2="676.0" y1="584.0" y2="584.0"/>
      <line stroke="#000000" stroke-width="1" x1="638.0" x2="638.0" y1="617.0" y2="586.0"/>
      <line stroke="#000000" stroke-width="1" x1="634.0" x2="634.0" y1="617.0" y2="586.0"/>
      <line stroke="#000000" stroke-width="1" x1="630.0" x2="630.0" y1="617.0" y2="586.0"/>
      <line stroke="#000000" stroke-width="1" x1="626.0" x2="626.0" y1="617.0" y2="586.0"/>
      <line stroke="#000000" stroke-width="1" x1="622.0" x2="622.0" y1="617.0" y2="586.0"/>
      <line stroke="#000000" stroke-width="1" x1="556.0" x2="556.0" y1="576.0" y2="434.0"/>
      <line stroke="#000000" stroke-width="1" x1="560.0" x2="560.0" y1="576.0" y2="434.0"/>
      <line stroke="#000000" stroke-width="1" x1="564.0" x2="564.0" y1="576.0" y2="434.0"/>
      <line stroke="#000000" stroke-width="1" x1="568.0" x2="568.0" y1="576.0" y2="434.0"/>
      <line stroke="#000000" stroke-width="1" x1="572.0" x2="572.0" y1="576.0" y2="434.0"/>
      <line stroke="#000000" stroke-width="1" x1="576.0" x2="576.0" y1="576.0" y2="434.0"/>
      <line stroke="#000000" stroke-width="1" x1="580.0" x2="580.0" y1="576.0" y2="434.0"/>
      <polygon fill="#d0d0d0" points="525.0,536.0 515.0,536.0 515.0,474.0 525.0,474.0" stroke="#000000" stroke-width="1"/>
      <polyline fill="none" points="515.0,482.0 504.0,482.0 504.0,528.0 515.0,528.0" stroke="#000000" stroke-width="1"/>
      <text fill="#000000" font-family="Arial" font-size="10.0" stroke="none" stroke-width="0" transform="rotate(-90.0,503.0,516.0)" x="503.0" y="526.0">кассы</text>
      <polygon fill="none" points="467.0,478.0 473.0,481.0 470.0,487.0 464.0,484.0" stroke="#000000" stroke-width="1"/>
      <polyline fill="none" points="467.0,475.0 514.0,475.0" stroke="#000000" stroke-width="0.5"/>
      <polyline fill="none" points="408.0,540.0 444.0,540.0" stroke="#000000" stroke-width="0.5"/>
      <line stroke="#009900" stroke-width="1" x1="468.0" x2="462.0" y1="491.0" y2="488.0"/>
      <line stroke="#009900" stroke-width="1" x1="466.3283775670714" x2="460.3283775670714" y1="494.6339618107143" y2="491.6339618107143"/>
      <line stroke="#009900" stroke-width="1" x1="464.6567551341428" x2="458.6567551341428" y1="498.2679236214286" y2="495.2679236214286"/>
      <line stroke="#009900" stroke-width="1" x1="462.98513270121424" x2="456.98513270121424" y1="501.90188543214293" y2="498.90188543214293"/>
      <line stroke="#009900" stroke-width="1" x1="461.31351026828565" x2="455.31351026828565" y1="505.53584724285724" y2="502.53584724285724"/>
      <line stroke="#009900" stroke-width="1" x1="459.64188783535707" x2="453.64188783535707" y1="509.16980905357156" y2="506.16980905357156"/>
      <line stroke="#009900" stroke-width="1" x1="457.9702654024285" x2="451.9702654024285" y1="512.8037708642859" y2="509.80377086428587"/>
      <line stroke="#009900" stroke-width="1" x1="456.2986429694999" x2="450.2986429694999" y1="516.4377326750001" y2="513.4377326750001"/>
      <line stroke="#009900" stroke-width="1" x1="454.6270205365713" x2="448.6270205365713" y1="520.0716944857144" y2="517.0716944857144"/>
      <line stroke="#009900" stroke-width="1" x1="452.9553981036427" x2="446.9553981036427" y1="523.7056562964286" y2="520.7056562964286"/>
      <line stroke="#009900" stroke-width="1" x1="451.28377567071414" x2="445.28377567071414" y1="527.3396181071429" y2="524.3396181071429"/>
      <line stroke="#009900" stroke-width="1" x1="449.61215323778555" x2="443.61215323778555" y1="530.9735799178571" y2="527.9735799178571"/>
      <line stroke="#009900" stroke-width="1" x1="447.94053080485696" x2="441.94053080485696" y1="534.6075417285714" y2="531.6075417285714"/>
      <line stroke="#009900" stroke-width="1" x1="446.2689083719284" x2="440.2689083719284" y1="538.2415035392856" y2="535.2415035392856"/>
      <line stroke="#ff0000" stroke-width="1" x1="474.0" x2="468.0" y1="436.0" y2="436.0"/>
      <line stroke="#ff0000" stroke-width="1" x1="474.0" x2="468.0" y1="440.0" y2="440.0"/>
      <line stroke="#ff0000" stroke-width="1" x1="474.0" x2="468.0" y1="444.0" y2="444.0"/>
      <line stroke="#ff0000" stroke-width="1" x1="474.0" x2="468.0" y1="448.0" y2="448.0"/>
      <line stroke="#ff0000" stroke-width="1" x1="474.0" x2="468.0" y1="452.0" y2="452.0"/>
      <line stroke="#ff0000" stroke-width="1" x1="474.0" x2="468.0" y1="456.0" y2="456.0"/>
      <line stroke="#ff0000" stroke-width="1" x1="474.0" x2="468.0" y1="460.0" y2="460.0"/>
      <line stroke="#ff0000" stroke-width="1" x1="474.0" x2="468.0" y1="464.0" y2="464.0"/>
      <line stroke="#ff0000" stroke-width="1" x1="474.0" x2="468.0" y1="468.0" y2="468.0"/>
      <line stroke="#ff0000" stroke-width="1" x1="474.0" x2="468.0" y1="472.0" y2="472.0"/>
      <line stroke="#7f7f7f" stroke-width="1" x1="234.0" x2="234.0" y1="484.0" y2="524.0"/>
      <line stroke="#7f7f7f" stroke-width="1" x1="238.0" x2="238.0" y1="484.0" y2="524.0"/>
      <line stroke="#7f7f7f" stroke-width="1" x1="242.0" x2="242.0" y1="484.0" y2="524.0"/>
      <line stroke="#7f7f7f" stroke-width="1" x1="246.0" x2="246.0" y1="484.0" y2="524.0"/>
      <line stroke="#7f7f7f" stroke-width="1" x1="250.0" x2="250.0" y1="484.0" y2="524.0"/>
      <line stroke="#7f7f7f" stroke-width="1" x1="254.0" x2="254.0" y1="484.0" y2="524.0"/>
      <line stroke="#7f7f7f" stroke-width="1" x1="258.0" x2="258.0" y1="484.0" y2="524.0"/>
      <line stroke="#7f7f7f" stroke-width="1" x1="262.0" x2="262.0" y1="484.0" y2="524.0"/>
      <line stroke="#7f7f7f" stroke-width="1" x1="266.0" x2="266.0" y1="484.0" y2="524.0"/>
      <line stroke="#7f7f7f" stroke-width="1" x1="270.0" x2="270.0" y1="484.0" y2="524.0"/>
      <line stroke="#7f7f7f" stroke-width="1" x1="274.0" x2="274.0" y1="484.0" y2="524.0"/>
      <line stroke="#7f7f7f" stroke-width="1" x1="278.0" x2="278.0" y1="484.0" y2="524.0"/>
      <line stroke="#7f7f7f" stroke-width="1" x1="282.0" x2="282.0" y1="484.0" y2="524.0"/>
      <line stroke="#7f7f7f" stroke-width="1" x1="286.0" x2="286.0" y1="484.0" y2="524.0"/>
      <line stroke="#7f7f7f" stroke-width="1" x1="290.0" x2="290.0" y1="484.0" y2="524.0"/>
      <line stroke="#7f7f7f" stroke-width="1" x1="294.0" x2="294.0" y1="484.0" y2="524.0"/>
      <line stroke="#7f7f7f" stroke-width="1" x1="298.0" x2="298.0" y1="484.0" y2="524.0"/>
      <line stroke="#7f7f7f" stroke-width="1" x1="302.0" x2="302.0" y1="484.0" y2="524.0"/>
      <line stroke="#7f7f7f" stroke-width="1" x1="306.0" x2="306.0" y1="484.0" y2="524.0"/>
      <line stroke="#7f7f7f" stroke-width="1" x1="310.0" x2="310.0" y1="484.0" y2="524.0"/>
      <line stroke="#7f7f7f" stroke-width="1" x1="314.0" x2="314.0" y1="484.0" y2="524.0"/>
      <line stroke="#7f7f7f" stroke-width="1" x1="318.0" x2="318.0" y1="484.0" y2="524.0"/>
      <line stroke="#7f7f7f" stroke-width="1" x1="322.0" x2="322.0" y1="484.0" y2="524.0"/>
      <line stroke="#7f7f7f" stroke-width="1" x1="326.0" x2="326.0" y1="484.0" y2="524.0"/>
      <line stroke="#7f7f7f" stroke-width="1" x1="330.0" x2="330.0" y1="484.0" y2="524.0"/>
      <line stroke="#7f7f7f" stroke-width="1" x1="334.0" x2="334.0" y1="484.0" y2="524.0"/>
      <line stroke="#7f7f7f" stroke-width="1" x1="338.0" x2="338.0" y1="484.0" y2="524.0"/>
      <line stroke="#7f7f7f" stroke-width="1" x1="342.0" x2="342.0" y1="484.0" y2="524.0"/>
      <line stroke="#7f7f7f" stroke-width="1" x1="346.0" x2="346.0" y1="484.0" y2="524.0"/>
      <line stroke="#7f7f7f" stroke-width="1" x1="350.0" x2="350.0" y1="484.0" y2="524.0"/>
      <line stroke="#7f7f7f" stroke-width="1" x1="354.0" x2="354.0" y1="484.0" y2="524.0"/>
      <line stroke="#7f7f7f" stroke-width="1" x1="358.0" x2="358.0" y1="484.0" y2="524.0"/>
      <line stroke="#7f7f7f" stroke-width="1" x1="362.0" x2="362.0" y1="484.0" y2="524.0"/>
      <line stroke="#7f7f7f" stroke-width="1" x1="366.0" x2="366.0" y1="484.0" y2="524.0"/>
      <polygon fill="#9b5509" points="229.0,482.0 371.0,482.0 371.0,486.0 229.0,486.0" stroke="#000000" stroke-width="1"/>
      <polygon fill="#9b5509" points="229.0,495.0 371.0,495.0 371.0,500.0 229.0,500.0" stroke="#000000" stroke-width="1"/>
      <polygon fill="#9b5509" points="229.0,509.0 371.0,509.0 371.0,514.0 229.0,514.0" stroke="#000000" stroke-width="1"/>
      <polygon fill="#9b5509" points="229.0,523.0 371.0,523.0 371.0,527.0 229.0,527.0" stroke="#000000" stroke-width="1"/>
      <polyline fill="none" points="-197.0,464.0 -197.0,474.0 -127.0,474.0 -127.0,482.0 -136.0,482.0 -136.0,527.0 -127.0,527.0 -127.0,535.0 -197.0,535.0 -197.0,544.0" stroke="#000000" stroke-width="1"/>
      <polyline fill="none" marker-end="url(#id266)" points="194.0,493.0 214.0,493.0" stroke="#ff0000" stroke-width="1"/>
      <polyline fill="none" marker-end="url(#id266)" points="379.0,491.0 396.0,491.0" stroke="#ff0000" stroke-width="1"/>
      <polyline fill="none" marker-end="url(#id266)" points="510.0,454.0 523.0,454.0" stroke="#ff0000" stroke-width="1"/>
      <polyline fill="none" marker-end="url(#id266)" points="214.0,517.0 194.0,517.0" stroke="#009900" stroke-width="1"/>
      <polyline fill="none" marker-end="url(#id266)" points="396.0,518.0 379.0,518.0" stroke="#009900" stroke-width="1"/>
      <polyline fill="none" marker-end="url(#id266)" points="477.0,535.0 465.0,529.0" stroke="#009900" stroke-width="1"/>
      <polygon fill="#34349c" points="426.0,475.0 431.0,475.0 431.0,473.0 426.0,473.0" stroke="#34349c" stroke-width="1"/>
      <polygon fill="#34349c" points="34.0,505.0 34.0,500.0 32.0,500.0 32.0,505.0" stroke="#34349c" stroke-width="1"/>
      <polygon fill="#ff0000" points="421.0,475.0 426.0,475.0 426.0,473.0 421.0,473.0" stroke="#ff0000" stroke-width="1"/>
      <polygon fill="#ff0000" points="34.0,510.0 34.0,505.0 32.0,505.0 32.0,510.0" stroke="#ff0000" stroke-width="1"/>
      <text fill="#00afaf" font-family="Arial" font-size="15.0" stroke="none" stroke-width="0" x="544.0" y="358.0">улица Большая Полянка</text>
      <text fill="#00afaf" font-family="Arial" font-size="15.0" stroke="none" stroke-width="0" transform="rotate(-90.0,718.0,607.0)" x="718.0" y="622.0">2-й Полянский переулок</text>
      <text fill="#00afaf" font-family="Arial" font-size="15.0" stroke="none" stroke-width="0" transform="rotate(25.0,503.0,807.0)" x="503.0" y="822.0">улица Малая Полянка</text>
    </g>
    <g>
      <rect fill="#615f56" height="30.0" stroke="none" stroke-width="0" width="30.0" x="330.0" y="883.0"/>
      <text fill="#ffd900" font-family="Arial" font-size="25.0" stroke="none" stroke-width="0" x="338.0" y="909.0">1</text>
    </g>
  </g>
</svg>
