<?xml version="1.0" encoding="utf-8" ?>
<svg baseProfile="full" height="950.0" version="1.1" width="620.0" xmlns="http://www.w3.org/2000/svg" xmlns:ev="http://www.w3.org/2001/xml-events" xmlns:xlink="http://www.w3.org/1999/xlink">
  <defs>
    <marker id="id269" markerHeight="3" markerUnits="strokeWidth" markerWidth="4" orient="auto" refX="0" refY="5" viewBox="0,0,10,10">
      <path d="M 0 0 L 10 5 L 0 10 z"/>
    </marker>
  </defs>
  <g>
    <rect fill="none" height="950.0" stroke="none" stroke-width="0" width="620.0" x="0.0" y="0.0"/>
    <g transform="rotate(-62.0,310.0,475.0)">
      <polygon fill="#fc9c54" points="86.0,539.0 86.0,509.0 536.0,509.0 536.0,539.0" stroke="#000000" stroke-width="1"/>
      <polygon fill="#fc9c54" points="536.0,429.0 536.0,399.0 86.0,399.0 86.0,429.0" stroke="#000000" stroke-width="1"/>
      <text fill="#f7782e" font-family="Arial" font-size="25.0" stroke="none" stroke-width="0" x="217.0" y="466.0">Профсоюзная</text>
      <text fill="#f7782e" font-family="Arial" font-size="20.0" stroke="none" stroke-width="0" x="89.0" y="394.0">&lt;&lt; Новые Черёмушки</text>
      <text fill="#f7782e" font-family="Arial" font-size="20.0" stroke="none" stroke-width="0" x="386.0" y="559.0">Академическая &gt;&gt;</text>
      <polyline fill="none" points="-4.0,382.0 -41.0,382.0 -41.0,440.0 -37.0,440.0 -37.0,424.0 35.0,424.0 35.0,443.0 86.0,443.0 86.0,429.0" stroke="#000000" stroke-width="1"/>
      <polyline fill="none" points="-4.0,561.0 -41.0,561.0 -41.0,499.0 -37.0,499.0 -37.0,514.0 35.0,514.0 35.0,495.0 86.0,495.0 86.0,509.0" stroke="#000000" stroke-width="1"/>
      <polyline fill="none" points="-4.0,360.0 -105.0,360.0" stroke="#000000" stroke-width="1"/>
      <polyline fill="none" points="-4.0,583.0 -105.0,583.0" stroke="#000000" stroke-width="1"/>
      <polyline fill="none" points="-105.0,561.0 -69.0,561.0 -69.0,382.0 -105.0,382.0" stroke="#000000" stroke-width="1"/>
      <line stroke="#000000" stroke-width="1" x1="38.0" x2="38.0" y1="443.0" y2="495.0"/>
      <line stroke="#000000" stroke-width="1" x1="42.0" x2="42.0" y1="443.0" y2="495.0"/>
      <line stroke="#000000" stroke-width="1" x1="46.0" x2="46.0" y1="443.0" y2="495.0"/>
      <line stroke="#000000" stroke-width="1" x1="50.0" x2="50.0" y1="443.0" y2="495.0"/>
      <line stroke="#000000" stroke-width="1" x1="54.0" x2="54.0" y1="443.0" y2="495.0"/>
      <line stroke="#000000" stroke-width="1" x1="58.0" x2="58.0" y1="443.0" y2="495.0"/>
      <line stroke="#000000" stroke-width="1" x1="62.0" x2="62.0" y1="443.0" y2="495.0"/>
      <line stroke="#000000" stroke-width="1" x1="66.0" x2="66.0" y1="443.0" y2="495.0"/>
      <line stroke="#000000" stroke-width="1" x1="70.0" x2="70.0" y1="443.0" y2="495.0"/>
      <line stroke="#000000" stroke-width="1" x1="74.0" x2="74.0" y1="443.0" y2="495.0"/>
      <line stroke="#000000" stroke-width="1" x1="78.0" x2="78.0" y1="443.0" y2="495.0"/>
      <line stroke="#000000" stroke-width="1" x1="82.0" x2="82.0" y1="443.0" y2="495.0"/>
      <line stroke="#000000" stroke-width="1" x1="-38.0" x2="-38.0" y1="360.0" y2="382.0"/>
      <line stroke="#000000" stroke-width="1" x1="-34.0" x2="-34.0" y1="360.0" y2="382.0"/>
      <line stroke="#000000" stroke-width="1" x1="-30.0" x2="-30.0" y1="360.0" y2="382.0"/>
      <line stroke="#000000" stroke-width="1" x1="-26.0" x2="-26.0" y1="360.0" y2="382.0"/>
      <line stroke="#000000" stroke-width="1" x1="-22.0" x2="-22.0" y1="360.0" y2="382.0"/>
      <line stroke="#000000" stroke-width="1" x1="-18.0" x2="-18.0" y1="360.0" y2="382.0"/>
      <line stroke="#000000" stroke-width="1" x1="-14.0" x2="-14.0" y1="360.0" y2="382.0"/>
      <line stroke="#000000" stroke-width="1" x1="-10.0" x2="-10.0" y1="360.0" y2="382.0"/>
      <line stroke="#000000" stroke-width="1" x1="-6.0" x2="-6.0" y1="360.0" y2="382.0"/>
      <line stroke="#000000" stroke-width="1" x1="-103.0" x2="-103.0" y1="360.0" y2="382.0"/>
      <line stroke="#000000" stroke-width="1" x1="-99.0" x2="-99.0" y1="360.0" y2="382.0"/>
      <line stroke="#000000" stroke-width="1" x1="-95.0" x2="-95.0" y1="360.0" y2="382.0"/>
      <line stroke="#000000" stroke-width="1" x1="-91.0" x2="-91.0" y1="360.0" y2="382.0"/>
      <line stroke="#000000" stroke-width="1" x1="-87.0" x2="-87.0" y1="360.0" y2="382.0"/>
      <line stroke="#000000" stroke-width="1" x1="-83.0" x2="-83.0" y1="360.0" y2="382.0"/>
      <line stroke="#000000" stroke-width="1" x1="-79.0" x2="-79.0" y1="360.0" y2="382.0"/>
      <line stroke="#000000" stroke-width="1" x1="-75.0" x2="-75.0" y1="360.0" y2="382.0"/>
      <line stroke="#000000" stroke-width="1" x1="-71.0" x2="-71.0" y1="360.0" y2="382.0"/>
      <line stroke="#000000" stroke-width="1" x1="-38.0" x2="-38.0" y1="561.0" y2="583.0"/>
      <line stroke="#000000" stroke-width="1" x1="-34.0" x2="-34.0" y1="561.0" y2="583.0"/>
      <line stroke="#000000" stroke-width="1" x1="-30.0" x2="-30.0" y1="561.0" y2="583.0"/>
      <line stroke="#000000" stroke-width="1" x1="-26.0" x2="-26.0" y1="561.0" y2="583.0"/>
      <line stroke="#000000" stroke-width="1" x1="-22.0" x2="-22.0" y1="561.0" y2="583.0"/>
      <line stroke="#000000" stroke-width="1" x1="-18.0" x2="-18.0" y1="561.0" y2="583.0"/>
      <line stroke="#000000" stroke-width="1" x1="-14.0" x2="-14.0" y1="561.0" y2="583.0"/>
      <line stroke="#000000" stroke-width="1" x1="-10.0" x2="-10.0" y1="561.0" y2="583.0"/>
      <line stroke="#000000" stroke-width="1" x1="-6.0" x2="-6.0" y1="561.0" y2="583.0"/>
      <line stroke="#000000" stroke-width="1" x1="-104.0" x2="-104.0" y1="561.0" y2="583.0"/>
      <line stroke="#000000" stroke-width="1" x1="-100.0" x2="-100.0" y1="561.0" y2="583.0"/>
      <line stroke="#000000" stroke-width="1" x1="-96.0" x2="-96.0" y1="561.0" y2="583.0"/>
      <line stroke="#000000" stroke-width="1" x1="-92.0" x2="-92.0" y1="561.0" y2="583.0"/>
      <line stroke="#000000" stroke-width="1" x1="-88.0" x2="-88.0" y1="561.0" y2="583.0"/>
      <line stroke="#000000" stroke-width="1" x1="-84.0" x2="-84.0" y1="561.0" y2="583.0"/>
      <line stroke="#000000" stroke-width="1" x1="-80.0" x2="-80.0" y1="561.0" y2="583.0"/>
      <line stroke="#000000" stroke-width="1" x1="-76.0" x2="-76.0" y1="561.0" y2="583.0"/>
      <line stroke="#000000" stroke-width="1" x1="-72.0" x2="-72.0" y1="561.0" y2="583.0"/>
      <polygon fill="#d0d0d0" points="-36.0,467.0 -41.0,467.0 -41.0,472.0 -36.0,472.0" stroke="#000000" stroke-width="1"/>
      <polyline fill="none" points="-17.0,424.0 -17.0,413.0 11.0,413.0 11.0,424.0" stroke="#000000" stroke-width="1"/>
      <text fill="#000000" font-family="Arial" font-size="10.0" stroke="none" stroke-width="0" x="-15.0" y="422.0">кассы</text>
      <polygon fill="none" points="28.0,444.0 24.0,440.0 28.0,436.0 32.0,440.0" stroke="#000000" stroke-width="1"/>
      <polyline fill="none" points="-36.0,470.0 -4.0,470.0" stroke="#000000" stroke-width="0.5"/>
      <line stroke="#009900" stroke-width="1" x1="25.0" x2="22.0" y1="446.0" y2="443.0"/>
      <line stroke="#009900" stroke-width="1" x1="22.068826033494805" x2="19.068826033494805" y1="448.7218043974691" y2="445.7218043974691"/>
      <line stroke="#009900" stroke-width="1" x1="19.13765206698961" x2="16.13765206698961" y1="451.4436087949382" y2="448.4436087949382"/>
      <line stroke="#009900" stroke-width="1" x1="16.206478100484414" x2="13.206478100484413" y1="454.1654131924073" y2="451.1654131924073"/>
      <line stroke="#009900" stroke-width="1" x1="13.275304133979217" x2="10.275304133979215" y1="456.8872175898764" y2="453.8872175898764"/>
      <line stroke="#009900" stroke-width="1" x1="10.34413016747402" x2="7.3441301674740185" y1="459.6090219873455" y2="456.6090219873455"/>
      <line stroke="#009900" stroke-width="1" x1="7.412956200968823" x2="4.4129562009688215" y1="462.3308263848146" y2="459.3308263848146"/>
      <line stroke="#009900" stroke-width="1" x1="4.481782234463626" x2="1.481782234463625" y1="465.0526307822837" y2="462.0526307822837"/>
      <line stroke="#009900" stroke-width="1" x1="1.5506082679584297" x2="-1.4493917320415717" y1="467.7744351797528" y2="464.7744351797528"/>
      <line stroke="#009900" stroke-width="1" x1="-1.380565698546767" x2="-4.380565698546768" y1="470.4962395772219" y2="467.4962395772219"/>
      <line stroke="#ff0000" stroke-width="1" x1="-4.0" x2="-8.0" y1="474.0" y2="474.0"/>
      <line stroke="#ff0000" stroke-width="1" x1="-4.0" x2="-8.0" y1="478.0" y2="478.0"/>
      <line stroke="#ff0000" stroke-width="1" x1="-4.0" x2="-8.0" y1="482.0" y2="482.0"/>
      <line stroke="#ff0000" stroke-width="1" x1="-4.0" x2="-8.0" y1="486.0" y2="486.0"/>
      <line stroke="#ff0000" stroke-width="1" x1="-4.0" x2="-8.0" y1="490.0" y2="490.0"/>
      <line stroke="#ff0000" stroke-width="1" x1="-4.0" x2="-8.0" y1="494.0" y2="494.0"/>
      <line stroke="#ff0000" stroke-width="1" x1="-4.0" x2="-8.0" y1="498.0" y2="498.0"/>
      <line stroke="#ff0000" stroke-width="1" x1="-4.0" x2="-8.0" y1="502.0" y2="502.0"/>
      <line stroke="#ff0000" stroke-width="1" x1="-4.0" x2="-8.0" y1="506.0" y2="506.0"/>
      <line stroke="#ff0000" stroke-width="1" x1="-4.0" x2="-8.0" y1="510.0" y2="510.0"/>
      <polyline fill="none" points="626.0,382.0 662.0,382.0 662.0,440.0 658.0,440.0 658.0,424.0 588.0,424.0 588.0,443.0 536.0,443.0 536.0,429.0" stroke="#000000" stroke-width="1"/>
      <polyline fill="none" points="726.0,382.0 690.0,382.0 690.0,559.0 726.0,559.0" stroke="#000000" stroke-width="1"/>
      <polyline fill="none" points="626.0,559.0 662.0,559.0 662.0,498.0 658.0,498.0 658.0,514.0 588.0,514.0 588.0,495.0 536.0,495.0 536.0,509.0" stroke="#000000" stroke-width="1"/>
      <polyline fill="none" points="726.0,581.0 626.0,581.0" stroke="#000000" stroke-width="1"/>
      <polyline fill="none" points="626.0,360.0 726.0,360.0" stroke="#000000" stroke-width="1"/>
      <polygon fill="#d0d0d0" points="662.0,467.0 658.0,467.0 658.0,472.0 662.0,472.0" stroke="#000000" stroke-width="1"/>
      <line stroke="#000000" stroke-width="1" x1="724.0" x2="724.0" y1="360.0" y2="382.0"/>
      <line stroke="#000000" stroke-width="1" x1="720.0" x2="720.0" y1="360.0" y2="382.0"/>
      <line stroke="#000000" stroke-width="1" x1="716.0" x2="716.0" y1="360.0" y2="382.0"/>
      <line stroke="#000000" stroke-width="1" x1="712.0" x2="712.0" y1="360.0" y2="382.0"/>
      <line stroke="#000000" stroke-width="1" x1="708.0" x2="708.0" y1="360.0" y2="382.0"/>
      <line stroke="#000000" stroke-width="1" x1="704.0" x2="704.0" y1="360.0" y2="382.0"/>
      <line stroke="#000000" stroke-width="1" x1="700.0" x2="700.0" y1="360.0" y2="382.0"/>
      <line stroke="#000000" stroke-width="1" x1="696.0" x2="696.0" y1="360.0" y2="382.0"/>
      <line stroke="#000000" stroke-width="1" x1="692.0" x2="692.0" y1="360.0" y2="382.0"/>
      <line stroke="#000000" stroke-width="1" x1="692.0" x2="692.0" y1="559.0" y2="581.0"/>
      <line stroke="#000000" stroke-width="1" x1="696.0" x2="696.0" y1="559.0" y2="581.0"/>
      <line stroke="#000000" stroke-width="1" x1="700.0" x2="700.0" y1="559.0" y2="581.0"/>
      <line stroke="#000000" stroke-width="1" x1="704.0" x2="704.0" y1="559.0" y2="581.0"/>
      <line stroke="#000000" stroke-width="1" x1="708.0" x2="708.0" y1="559.0" y2="581.0"/>
      <line stroke="#000000" stroke-width="1" x1="712.0" x2="712.0" y1="559.0" y2="581.0"/>
      <line stroke="#000000" stroke-width="1" x1="716.0" x2="716.0" y1="559.0" y2="581.0"/>
      <line stroke="#000000" stroke-width="1" x1="720.0" x2="720.0" y1="559.0" y2="581.0"/>
      <line stroke="#000000" stroke-width="1" x1="724.0" x2="724.0" y1="559.0" y2="581.0"/>
      <line stroke="#000000" stroke-width="1" x1="628.0" x2="628.0" y1="360.0" y2="382.0"/>
      <line stroke="#000000" stroke-width="1" x1="632.0" x2="632.0" y1="360.0" y2="382.0"/>
      <line stroke="#000000" stroke-width="1" x1="636.0" x2="636.0" y1="360.0" y2="382.0"/>
      <line stroke="#000000" stroke-width="1" x1="640.0" x2="640.0" y1="360.0" y2="382.0"/>
      <line stroke="#000000" stroke-width="1" x1="644.0" x2="644.0" y1="360.0" y2="382.0"/>
      <line stroke="#000000" stroke-width="1" x1="648.0" x2="648.0" y1="360.0" y2="382.0"/>
      <line stroke="#000000" stroke-width="1" x1="652.0" x2="652.0" y1="360.0" y2="382.0"/>
      <line stroke="#000000" stroke-width="1" x1="656.0" x2="656.0" y1="360.0" y2="382.0"/>
      <line stroke="#000000" stroke-width="1" x1="660.0" x2="660.0" y1="360.0" y2="382.0"/>
      <line stroke="#000000" stroke-width="1" x1="628.0" x2="628.0" y1="581.0" y2="559.0"/>
      <line stroke="#000000" stroke-width="1" x1="632.0" x2="632.0" y1="581.0" y2="559.0"/>
      <line stroke="#000000" stroke-width="1" x1="636.0" x2="636.0" y1="581.0" y2="559.0"/>
      <line stroke="#000000" stroke-width="1" x1="640.0" x2="640.0" y1="581.0" y2="559.0"/>
      <line stroke="#000000" stroke-width="1" x1="644.0" x2="644.0" y1="581.0" y2="559.0"/>
      <line stroke="#000000" stroke-width="1" x1="648.0" x2="648.0" y1="581.0" y2="559.0"/>
      <line stroke="#000000" stroke-width="1" x1="652.0" x2="652.0" y1="581.0" y2="559.0"/>
      <line stroke="#000000" stroke-width="1" x1="656.0" x2="656.0" y1="581.0" y2="559.0"/>
      <line stroke="#000000" stroke-width="1" x1="660.0" x2="660.0" y1="581.0" y2="559.0"/>
      <line stroke="#000000" stroke-width="1" x1="585.0" x2="585.0" y1="443.0" y2="495.0"/>
      <line stroke="#000000" stroke-width="1" x1="581.0" x2="581.0" y1="443.0" y2="495.0"/>
      <line stroke="#000000" stroke-width="1" x1="577.0" x2="577.0" y1="443.0" y2="495.0"/>
      <line stroke="#000000" stroke-width="1" x1="573.0" x2="573.0" y1="443.0" y2="495.0"/>
      <line stroke="#000000" stroke-width="1" x1="569.0" x2="569.0" y1="443.0" y2="495.0"/>
      <line stroke="#000000" stroke-width="1" x1="565.0" x2="565.0" y1="443.0" y2="495.0"/>
      <line stroke="#000000" stroke-width="1" x1="561.0" x2="561.0" y1="443.0" y2="495.0"/>
      <line stroke="#000000" stroke-width="1" x1="557.0" x2="557.0" y1="443.0" y2="495.0"/>
      <line stroke="#000000" stroke-width="1" x1="553.0" x2="553.0" y1="443.0" y2="495.0"/>
      <line stroke="#000000" stroke-width="1" x1="549.0" x2="549.0" y1="443.0" y2="495.0"/>
      <line stroke="#000000" stroke-width="1" x1="545.0" x2="545.0" y1="443.0" y2="495.0"/>
      <line stroke="#000000" stroke-width="1" x1="541.0" x2="541.0" y1="443.0" y2="495.0"/>
      <polygon fill="none" points="596.0,498.0 590.0,498.0 590.0,492.0 596.0,492.0" stroke="#000000" stroke-width="1"/>
      <line stroke="#009900" stroke-width="1" x1="591.0" x2="595.0" y1="468.0" y2="468.0"/>
      <line stroke="#009900" stroke-width="1" x1="591.0" x2="595.0" y1="472.0" y2="472.0"/>
      <line stroke="#009900" stroke-width="1" x1="591.0" x2="595.0" y1="476.0" y2="476.0"/>
      <line stroke="#009900" stroke-width="1" x1="591.0" x2="595.0" y1="480.0" y2="480.0"/>
      <line stroke="#009900" stroke-width="1" x1="591.0" x2="595.0" y1="484.0" y2="484.0"/>
      <line stroke="#009900" stroke-width="1" x1="591.0" x2="595.0" y1="488.0" y2="488.0"/>
      <line stroke="#ff0000" stroke-width="1" x1="591.0" x2="595.0" y1="444.0" y2="444.0"/>
      <line stroke="#ff0000" stroke-width="1" x1="591.0" x2="595.0" y1="448.0" y2="448.0"/>
      <line stroke="#ff0000" stroke-width="1" x1="591.0" x2="595.0" y1="452.0" y2="452.0"/>
      <line stroke="#ff0000" stroke-width="1" x1="591.0" x2="595.0" y1="456.0" y2="456.0"/>
      <line stroke="#ff0000" stroke-width="1" x1="591.0" x2="595.0" y1="460.0" y2="460.0"/>
      <line stroke="#ff0000" stroke-width="1" x1="591.0" x2="595.0" y1="464.0" y2="464.0"/>
      <polyline fill="none" points="610.0,514.0 610.0,525.0 640.0,525.0 640.0,514.0" stroke="#000000" stroke-width="1"/>
      <text fill="#000000" font-family="Arial" font-size="10.0" stroke="none" stroke-width="0" x="613.0" y="523.0">кассы</text>
      <polyline fill="none" marker-end="url(#id269)" points="601.0,455.0 611.0,455.0" stroke="#ff0000" stroke-width="1"/>
      <polyline fill="none" marker-end="url(#id269)" points="-26.0,486.0 -37.0,486.0" stroke="#ff0000" stroke-width="1"/>
      <polyline fill="none" marker-end="url(#id269)" points="611.0,478.0 601.0,478.0" stroke="#009900" stroke-width="1"/>
      <polyline fill="none" marker-end="url(#id269)" points="-37.0,453.0 -26.0,453.0" stroke="#009900" stroke-width="1"/>
      <polygon fill="#34349c" points="512.0,446.0 517.0,446.0 517.0,444.0 512.0,444.0" stroke="#34349c" stroke-width="1"/>
      <polygon fill="#34349c" points="296.0,481.0 296.0,471.0 294.0,471.0 294.0,481.0" stroke="#34349c" stroke-width="1"/>
      <polygon fill="#34349c" points="110.0,492.0 105.0,492.0 105.0,494.0 110.0,494.0" stroke="#34349c" stroke-width="1"/>
      <polygon fill="#ff0000" points="507.0,446.0 512.0,446.0 512.0,444.0 507.0,444.0" stroke="#ff0000" stroke-width="1"/>
      <polygon fill="#ff0000" points="296.0,476.0 296.0,481.0 294.0,481.0 294.0,476.0" stroke="#ff0000" stroke-width="1"/>
      <polygon fill="#ff0000" points="115.0,492.0 110.0,492.0 110.0,494.0 115.0,494.0" stroke="#ff0000" stroke-width="1"/>
      <text fill="#00afaf" font-family="Arial" font-size="15.0" stroke="none" stroke-width="0" x="704.0" y="478.0">Профсоюзная улица</text>
      <text fill="#00afaf" font-family="Arial" font-size="15.0" stroke="none" stroke-width="0" x="-216.0" y="474.0">Профсоюзная улица</text>
      <text fill="#00afaf" font-family="Arial" font-size="15.0" stroke="none" stroke-width="0" transform="rotate(105.0,416.0,133.0)" x="416.0" y="148.0">Нахимовский проспект</text>
      <text fill="#00afaf" font-family="Arial" font-size="15.0" stroke="none" stroke-width="0" transform="rotate(90.0,355.0,614.0)" x="355.0" y="629.0">Нахимовский проспект</text>
    </g>
    <g>
      <rect fill="#615f56" height="30.0" stroke="none" stroke-width="0" width="30.0" x="566.0" y="230.0"/>
      <rect fill="#615f56" height="30.0" stroke="none" stroke-width="0" width="30.0" x="600.0" y="163.0"/>
      <rect fill="#615f56" height="30.0" stroke="none" stroke-width="0" width="30.0" x="324.0" y="104.0"/>
      <rect fill="#615f56" height="30.0" stroke="none" stroke-width="0" width="30.0" x="358.0" y="44.0"/>
      <rect fill="#615f56" height="30.0" stroke="none" stroke-width="0" width="30.0" x="15.0" y="688.0"/>
      <rect fill="#615f56" height="30.0" stroke="none" stroke-width="0" width="30.0" x="45.0" y="783.0"/>
      <rect fill="#615f56" height="30.0" stroke="none" stroke-width="0" width="30.0" x="258.0" y="814.0"/>
      <rect fill="#615f56" height="30.0" stroke="none" stroke-width="0" width="30.0" x="226.0" y="870.0"/>
      <text fill="#ffd900" font-family="Arial" font-size="25.0" stroke="none" stroke-width="0" x="574.0" y="256.0">1</text>
      <text fill="#ffd900" font-family="Arial" font-size="25.0" stroke="none" stroke-width="0" x="608.0" y="189.0">2</text>
      <text fill="#ffd900" font-family="Arial" font-size="25.0" stroke="none" stroke-width="0" x="332.0" y="130.0">3</text>
      <text fill="#ffd900" font-family="Arial" font-size="25.0" stroke="none" stroke-width="0" x="366.0" y="70.0">4</text>
      <text fill="#ffd900" font-family="Arial" font-size="25.0" stroke="none" stroke-width="0" x="23.0" y="714.0">5</text>
      <text fill="#ffd900" font-family="Arial" font-size="25.0" stroke="none" stroke-width="0" x="53.0" y="809.0">6</text>
      <text fill="#ffd900" font-family="Arial" font-size="25.0" stroke="none" stroke-width="0" x="266.0" y="840.0">7</text>
      <text fill="#ffd900" font-family="Arial" font-size="25.0" stroke="none" stroke-width="0" x="234.0" y="896.0">8</text>
    </g>
  </g>
</svg>
