<?xml version="1.0" encoding="utf-8" ?>
<svg baseProfile="full" height="100%" version="1.1" width="100%" xmlns="http://www.w3.org/2000/svg" xmlns:ev="http://www.w3.org/2001/xml-events" xmlns:xlink="http://www.w3.org/1999/xlink"><defs><marker id="id255" markerHeight="3" markerUnits="strokeWidth" markerWidth="4" orient="auto" refX="0" refY="5" viewBox="0,0,10,10"><path d="M 0 0 L 10 5 L 0 10 z" /></marker></defs><g transform="scale(0.5) rotate(-60.0,355,475) rotate(-8.0,355,475) rotate(8.0,355,475) rotate(8.0,355,475) rotate(-8.0,355,475)"><rect fill="none" height="950" stroke="none" width="710" x="0" y="0" /><polygon fill="#34349C" points="169,409 226,404 281,400 340,397 403,396 454,397 509,399 568,403 639,409 636,439 564,433 508,429 454,427 403,427 340,427 283,430 228,433 173,439" stroke="#34349C" stroke-width="1" /><polygon fill="#34349C" points="184,518 239,513 301,509 352,507 403,506 454,507 506,509 563,513 624,518 621,548 561,542 504,538 452,536 403,536 353,536 302,538 243,542 188,548" stroke="#34349C" stroke-width="1" /><polyline fill="none" points="173,439 169,409" stroke="#000000" stroke-width="1" /><polyline fill="none" points="639,409 636,439" stroke="#000000" stroke-width="1" /><polyline fill="none" points="621,548 624,518" stroke="#000000" stroke-width="1" /><polyline fill="none" points="188,548 184,518" stroke="#000000" stroke-width="1" /><path d="M169,409 C169,409 130.0,411.166666667 169,409 C208.0,406.833333333 324.666666667,396 403,396 C481.333333333,396 639,409 639,409 " fill="none" stroke="#000000" stroke-width="1" /><path d="M173,439 C173,439 134.666666667,441.0 173,439 C211.333333333,437.0 325.833333333,427 403,427 C480.166666667,427 636,439 636,439 " fill="none" stroke="#000000" stroke-width="1" /><path d="M184,518 C184,518 147.5,520.0 184,518 C220.5,516.0 329.666666667,506 403,506 C476.333333333,506 624,518 624,518 " fill="none" stroke="#000000" stroke-width="1" /><path d="M188,548 C188,548 152.166666667,550.0 188,548 C223.833333333,546.0 330.833333333,536 403,536 C475.166666667,536 621,548 621,548 " fill="none" stroke="#000000" stroke-width="1" /><text fill="#34349C" font-family="Arial" font-size="20" stroke="none" transform="rotate(-8.0,183,384)" x="183" y="404.0">&lt;&lt; Митино</text><text fill="#34349C" font-family="Arial" font-size="20" stroke="none" transform="rotate(8.0,549,541)" x="549" y="561.0">тупик &gt;&gt;</text><text fill="#34349C" font-family="Arial" font-size="25" stroke="none" x="307" y="476.0">Пятницкое шоссе</text><polyline fill="none" points="180,494 180,479" stroke="#000000" stroke-width="1" /><polyline fill="none" points="234,479 165,479 165,511 68,511" stroke="#000000" stroke-width="1" /><polyline fill="none" points="180,414 180,429" stroke="#000000" stroke-width="1" /><polyline fill="none" points="234,429 165,429 165,396 68,396" stroke="#000000" stroke-width="1" /><polyline fill="none" points="24,545 24,605 93,605" stroke="#000000" stroke-width="1" /><polyline fill="none" points="93,623 24,623 24,701 -50,701" stroke="#000000" stroke-width="1" /><polyline fill="none" points="-50,683 0,683 0,545" stroke="#000000" stroke-width="1" /><polyline fill="none" points="0,363 0,286 -50,286" stroke="#000000" stroke-width="1" /><polyline fill="none" points="-50,267 74,267" stroke="#000000" stroke-width="1" /><polyline fill="none" points="74,285 24,285 24,362" stroke="#000000" stroke-width="1" /><polyline fill="none" points="6,589 6,563" stroke="#000000" stroke-width="1" /><polyline fill="none" points="6,321 6,293" stroke="#000000" stroke-width="1" /><path d="M24,362 C24,362 19.8333333333,360.0 24,362 C28.1666666667,364.0 41.6666666667,368.333333333 49,374 C56.3333333333,379.666666667 68,396 68,396 " fill="none" stroke="#000000" stroke-width="1" /><path d="M68,511 C68,511 71.1666666667,507.333333333 68,511 C64.8333333333,514.666666667 56.3333333333,527.333333333 49,533 C41.6666666667,538.666666667 24,545 24,545 " fill="none" stroke="#000000" stroke-width="1" /><path d="M0,545 C0,545 6.83333333333,550.5 0,545 C-6.83333333333,539.5 -31.5,527.5 -41,512 C-50.5,496.5 -57,471.666666667 -57,452 C-57,432.333333333 -50.5,408.833333333 -41,394 C-31.5,379.166666667 0,363 0,363 " fill="none" stroke="#000000" stroke-width="1" /><line stroke="#000000" stroke-width="1" x1="91" x2="91" y1="605" y2="623" /><line stroke="#000000" stroke-width="1" x1="87" x2="87" y1="605" y2="623" /><line stroke="#000000" stroke-width="1" x1="83" x2="83" y1="605" y2="623" /><line stroke="#000000" stroke-width="1" x1="79" x2="79" y1="605" y2="623" /><line stroke="#000000" stroke-width="1" x1="75" x2="75" y1="605" y2="623" /><line stroke="#000000" stroke-width="1" x1="71" x2="71" y1="605" y2="623" /><line stroke="#000000" stroke-width="1" x1="67" x2="67" y1="605" y2="623" /><line stroke="#000000" stroke-width="1" x1="63" x2="63" y1="605" y2="623" /><line stroke="#000000" stroke-width="1" x1="59" x2="59" y1="605" y2="623" /><line stroke="#000000" stroke-width="1" x1="55" x2="55" y1="605" y2="623" /><line stroke="#000000" stroke-width="1" x1="51" x2="51" y1="605" y2="623" /><line stroke="#000000" stroke-width="1" x1="47" x2="47" y1="605" y2="623" /><line stroke="#000000" stroke-width="1" x1="-48" x2="-48" y1="683" y2="701" /><line stroke="#000000" stroke-width="1" x1="-44" x2="-44" y1="683" y2="701" /><line stroke="#000000" stroke-width="1" x1="-40" x2="-40" y1="683" y2="701" /><line stroke="#000000" stroke-width="1" x1="-36" x2="-36" y1="683" y2="701" /><line stroke="#000000" stroke-width="1" x1="-32" x2="-32" y1="683" y2="701" /><line stroke="#000000" stroke-width="1" x1="-28" x2="-28" y1="683" y2="701" /><line stroke="#000000" stroke-width="1" x1="-24" x2="-24" y1="683" y2="701" /><line stroke="#000000" stroke-width="1" x1="-20" x2="-20" y1="683" y2="701" /><line stroke="#000000" stroke-width="1" x1="-16" x2="-16" y1="683" y2="701" /><line stroke="#000000" stroke-width="1" x1="-12" x2="-12" y1="683" y2="701" /><line stroke="#000000" stroke-width="1" x1="-8" x2="-8" y1="683" y2="701" /><line stroke="#000000" stroke-width="1" x1="-4" x2="-4" y1="683" y2="701" /><line stroke="#000000" stroke-width="1" x1="72" x2="72" y1="285" y2="267" /><line stroke="#000000" stroke-width="1" x1="68" x2="68" y1="285" y2="267" /><line stroke="#000000" stroke-width="1" x1="64" x2="64" y1="285" y2="267" /><line stroke="#000000" stroke-width="1" x1="60" x2="60" y1="285" y2="267" /><line stroke="#000000" stroke-width="1" x1="56" x2="56" y1="285" y2="267" /><line stroke="#000000" stroke-width="1" x1="52" x2="52" y1="285" y2="267" /><line stroke="#000000" stroke-width="1" x1="48" x2="48" y1="285" y2="267" /><line stroke="#000000" stroke-width="1" x1="44" x2="44" y1="285" y2="267" /><line stroke="#000000" stroke-width="1" x1="40" x2="40" y1="285" y2="267" /><line stroke="#000000" stroke-width="1" x1="36" x2="36" y1="285" y2="267" /><line stroke="#000000" stroke-width="1" x1="32" x2="32" y1="285" y2="267" /><line stroke="#000000" stroke-width="1" x1="28" x2="28" y1="285" y2="267" /><line stroke="#000000" stroke-width="1" x1="-48" x2="-48" y1="286" y2="267" /><line stroke="#000000" stroke-width="1" x1="-44" x2="-44" y1="286" y2="267" /><line stroke="#000000" stroke-width="1" x1="-40" x2="-40" y1="286" y2="267" /><line stroke="#000000" stroke-width="1" x1="-36" x2="-36" y1="286" y2="267" /><line stroke="#000000" stroke-width="1" x1="-32" x2="-32" y1="286" y2="267" /><line stroke="#000000" stroke-width="1" x1="-28" x2="-28" y1="286" y2="267" /><line stroke="#000000" stroke-width="1" x1="-24" x2="-24" y1="286" y2="267" /><line stroke="#000000" stroke-width="1" x1="-20" x2="-20" y1="286" y2="267" /><line stroke="#000000" stroke-width="1" x1="-16" x2="-16" y1="286" y2="267" /><line stroke="#000000" stroke-width="1" x1="-12" x2="-12" y1="286" y2="267" /><line stroke="#000000" stroke-width="1" x1="-8" x2="-8" y1="286" y2="267" /><line stroke="#000000" stroke-width="1" x1="-4" x2="-4" y1="286" y2="267" /><line stroke="#000000" stroke-width="1" x1="170" x2="170" y1="479" y2="429" /><line stroke="#000000" stroke-width="1" x1="174" x2="174" y1="479" y2="429" /><line stroke="#000000" stroke-width="1" x1="178" x2="178" y1="479" y2="429" /><line stroke="#000000" stroke-width="1" x1="182" x2="182" y1="479" y2="429" /><line stroke="#000000" stroke-width="1" x1="186" x2="186" y1="479" y2="429" /><line stroke="#000000" stroke-width="1" x1="190" x2="190" y1="479" y2="429" /><line stroke="#000000" stroke-width="1" x1="194" x2="194" y1="479" y2="429" /><line stroke="#000000" stroke-width="1" x1="208" x2="208" y1="479" y2="429" /><line stroke="#000000" stroke-width="1" x1="212" x2="212" y1="479" y2="429" /><line stroke="#000000" stroke-width="1" x1="216" x2="216" y1="479" y2="429" /><line stroke="#000000" stroke-width="1" x1="220" x2="220" y1="479" y2="429" /><line stroke="#000000" stroke-width="1" x1="224" x2="224" y1="479" y2="429" /><line stroke="#000000" stroke-width="1" x1="228" x2="228" y1="479" y2="429" /><line stroke="#000000" stroke-width="1" x1="232" x2="232" y1="479" y2="429" /><line stroke="#000000" stroke-width="1" x1="6" x2="24" y1="317" y2="317" /><line stroke="#000000" stroke-width="1" x1="6" x2="24" y1="313" y2="313" /><line stroke="#000000" stroke-width="1" x1="6" x2="24" y1="309" y2="309" /><line stroke="#000000" stroke-width="1" x1="6" x2="24" y1="305" y2="305" /><line stroke="#000000" stroke-width="1" x1="6" x2="24" y1="301" y2="301" /><line stroke="#000000" stroke-width="1" x1="6" x2="24" y1="297" y2="297" /><line stroke="#000000" stroke-width="1" x1="24" x2="6" y1="586" y2="586" /><line stroke="#000000" stroke-width="1" x1="24" x2="6" y1="582" y2="582" /><line stroke="#000000" stroke-width="1" x1="24" x2="6" y1="578" y2="578" /><line stroke="#000000" stroke-width="1" x1="24" x2="6" y1="574" y2="574" /><line stroke="#000000" stroke-width="1" x1="24" x2="6" y1="570" y2="570" /><line stroke="#000000" stroke-width="1" x1="24" x2="6" y1="566" y2="566" /><polygon fill="#D0D0D0" points="70,435 70,472 82,472 82,435" stroke="#000000" stroke-width="1" /><polygon fill="#D0EFFF" points="165,494 165,479 180,479 180,494" stroke="#000000" stroke-width="1" /><text fill="#000000" font-family="Arial" font-size="6" stroke="none" transform="rotate(90.0,177,480)" x="177" y="486.0">лифт</text><polygon fill="#D0EFFF" points="4,267 4,252 19,252 19,267" stroke="#000000" stroke-width="1" /><text fill="#000000" font-family="Arial" font-size="6" stroke="none" transform="rotate(90.0,16,253)" x="16" y="259.0">лифт</text><polygon fill="#D0EFFF" points="28,605 28,590 43,590 43,605" stroke="#000000" stroke-width="1" /><text fill="#000000" font-family="Arial" font-size="6" stroke="none" transform="rotate(90.0,40,591)" x="40" y="597.0">лифт</text><polygon fill="#D0EFFF" points="5,716 5,701 20,701 20,716" stroke="#000000" stroke-width="1" /><text fill="#000000" font-family="Arial" font-size="6" stroke="none" transform="rotate(90.0,17,702)" x="17" y="708.0">лифт</text><polyline fill="none" points="-56,467 -65,467 -65,439 -56,439" stroke="#000000" stroke-width="1" /><text fill="#000000" font-family="Arial" font-size="10" stroke="none" transform="rotate(90.0,-54,441)" x="-54" y="451.0">кассы</text><polygon fill="none" points="123,457 130,457 130,450 123,450" stroke="#000000" stroke-width="1" /><line stroke="#009900" stroke-width="1" x1="125" x2="129" y1="446" y2="446" /><line stroke="#009900" stroke-width="1" x1="125" x2="129" y1="442" y2="442" /><line stroke="#009900" stroke-width="1" x1="125" x2="129" y1="438" y2="438" /><line stroke="#009900" stroke-width="1" x1="125" x2="129" y1="434" y2="434" /><line stroke="#009900" stroke-width="1" x1="125" x2="129" y1="430" y2="430" /><line stroke="#009900" stroke-width="1" x1="125" x2="129" y1="426" y2="426" /><line stroke="#009900" stroke-width="1" x1="125" x2="129" y1="422" y2="422" /><line stroke="#009900" stroke-width="1" x1="125" x2="129" y1="418" y2="418" /><line stroke="#009900" stroke-width="1" x1="125" x2="129" y1="414" y2="414" /><line stroke="#009900" stroke-width="1" x1="125" x2="129" y1="410" y2="410" /><line stroke="#009900" stroke-width="1" x1="125" x2="129" y1="406" y2="406" /><line stroke="#009900" stroke-width="1" x1="125" x2="129" y1="402" y2="402" /><line stroke="#009900" stroke-width="1" x1="125" x2="129" y1="398" y2="398" /><line stroke="#FF0000" stroke-width="1" x1="125" x2="129" y1="461" y2="461" /><line stroke="#FF0000" stroke-width="1" x1="125" x2="129" y1="465" y2="465" /><line stroke="#FF0000" stroke-width="1" x1="125" x2="129" y1="469" y2="469" /><line stroke="#FF0000" stroke-width="1" x1="125" x2="129" y1="473" y2="473" /><line stroke="#FF0000" stroke-width="1" x1="125" x2="129" y1="477" y2="477" /><line stroke="#FF0000" stroke-width="1" x1="125" x2="129" y1="481" y2="481" /><line stroke="#FF0000" stroke-width="1" x1="125" x2="129" y1="485" y2="485" /><line stroke="#FF0000" stroke-width="1" x1="125" x2="129" y1="489" y2="489" /><line stroke="#FF0000" stroke-width="1" x1="125" x2="129" y1="493" y2="493" /><line stroke="#FF0000" stroke-width="1" x1="125" x2="129" y1="497" y2="497" /><line stroke="#FF0000" stroke-width="1" x1="125" x2="129" y1="501" y2="501" /><line stroke="#FF0000" stroke-width="1" x1="125" x2="129" y1="505" y2="505" /><line stroke="#FF0000" stroke-width="1" x1="125" x2="129" y1="509" y2="509" /><polygon fill="#34349C" points="154,506 150,506 150,505 154,505" stroke="#34349C" stroke-width="1" /><polygon fill="#FF0000" points="158,506 154,506 154,505 158,505" stroke="#FF0000" stroke-width="1" /><ellipse cx="816" cy="440" fill="#FEFBF1" rx="70.0" ry="93.0" stroke="#DFDFDF" stroke-width="1" /><polyline fill="none" points="628,480 628,460 706,460" stroke="#000000" stroke-width="1" /><polyline fill="none" points="628,400 628,420 706,420" stroke="#000000" stroke-width="1" /><polygon fill="#D0D0D0" points="765,377 868,377 859,365 847,356 834,350 817,347 799,350 787,356 775,365" stroke="#D0D0D0" stroke-width="1" /><polygon fill="#D0D0D0" points="766,504 868,504 859,516 847,526 834,531 817,534 799,531 787,525 775,516" stroke="#D0D0D0" stroke-width="1" /><polyline fill="none" points="868,377 765,377" stroke="#000000" stroke-width="1" /><polyline fill="none" points="766,504 868,504" stroke="#000000" stroke-width="1" /><polyline fill="none" points="762,498 766,498 766,492" stroke="#000000" stroke-width="1" /><polyline fill="none" points="766,389 766,382 762,382" stroke="#000000" stroke-width="1" /><path d="M762,382 C762,382 758.166666667,386.166666667 762,382 C765.833333333,377.833333333 775.833333333,362.833333333 785,357 C794.166666667,351.166666667 805.5,346.5 817,347 C828.5,347.5 843.5,351.5 854,360 C864.5,368.5 874.333333333,384.666666667 880,398 C885.666666667,411.333333333 888,426.0 888,440 C888,454.0 885.666666667,468.5 880,482 C874.333333333,495.5 864.5,512.333333333 854,521 C843.5,529.666666667 828.5,533.5 817,534 C805.5,534.5 794.166666667,530.0 785,524 C775.833333333,518.0 762,498 762,498 " fill="none" stroke="#000000" stroke-width="1" /><line stroke="#7F7F7F" stroke-width="1" x1="808" x2="808" y1="457" y2="423" /><line stroke="#7F7F7F" stroke-width="1" x1="804" x2="804" y1="457" y2="423" /><line stroke="#7F7F7F" stroke-width="1" x1="800" x2="800" y1="457" y2="423" /><line stroke="#7F7F7F" stroke-width="1" x1="796" x2="796" y1="457" y2="423" /><line stroke="#7F7F7F" stroke-width="1" x1="792" x2="792" y1="457" y2="423" /><line stroke="#7F7F7F" stroke-width="1" x1="788" x2="788" y1="457" y2="423" /><line stroke="#7F7F7F" stroke-width="1" x1="784" x2="784" y1="457" y2="423" /><line stroke="#7F7F7F" stroke-width="1" x1="780" x2="780" y1="457" y2="423" /><line stroke="#7F7F7F" stroke-width="1" x1="776" x2="776" y1="457" y2="423" /><line stroke="#7F7F7F" stroke-width="1" x1="772" x2="772" y1="457" y2="423" /><line stroke="#7F7F7F" stroke-width="1" x1="768" x2="768" y1="457" y2="423" /><line stroke="#7F7F7F" stroke-width="1" x1="764" x2="764" y1="457" y2="423" /><line stroke="#7F7F7F" stroke-width="1" x1="760" x2="760" y1="457" y2="423" /><line stroke="#7F7F7F" stroke-width="1" x1="756" x2="756" y1="457" y2="423" /><line stroke="#7F7F7F" stroke-width="1" x1="752" x2="752" y1="457" y2="423" /><line stroke="#7F7F7F" stroke-width="1" x1="748" x2="748" y1="457" y2="423" /><line stroke="#7F7F7F" stroke-width="1" x1="744" x2="744" y1="457" y2="423" /><line stroke="#7F7F7F" stroke-width="1" x1="740" x2="740" y1="457" y2="423" /><line stroke="#7F7F7F" stroke-width="1" x1="736" x2="736" y1="457" y2="423" /><line stroke="#7F7F7F" stroke-width="1" x1="732" x2="732" y1="457" y2="423" /><line stroke="#7F7F7F" stroke-width="1" x1="728" x2="728" y1="457" y2="423" /><line stroke="#7F7F7F" stroke-width="1" x1="724" x2="724" y1="457" y2="423" /><line stroke="#7F7F7F" stroke-width="1" x1="720" x2="720" y1="457" y2="423" /><line stroke="#7F7F7F" stroke-width="1" x1="716" x2="716" y1="457" y2="423" /><line stroke="#7F7F7F" stroke-width="1" x1="712" x2="712" y1="457" y2="423" /><polygon fill="#9B5509" points="815,423 706,423 706,420 815,420" stroke="#000000" stroke-width="1" /><polygon fill="#9B5509" points="815,431 815,436 706,436 706,431" stroke="#000000" stroke-width="1" /><polygon fill="#9B5509" points="815,444 815,449 706,449 706,444" stroke="#000000" stroke-width="1" /><polygon fill="#9B5509" points="815,457 706,457 706,460 815,460" stroke="#000000" stroke-width="1" /><g fill="#9B5509" fill-opacity="0.85" stroke="#000000" stroke-opacity="0.85"><polygon fill="#FEFBF1" points="747,431 747,449 748,461 798,461 798,419 748,419" stroke="#FEFBF1" stroke-width="1" /></g><g fill="#FEFBF1" fill-opacity="1.0" stroke="#FEFBF1" stroke-opacity="1.0"><polyline fill="none" points="766,467 766,413" stroke="#000000" stroke-width="1" /><polyline fill="none" points="798,460 798,420" stroke="#000000" stroke-width="1" /><polygon fill="#FFFFFF" points="786,369 813,369 813,377 786,377" stroke="#000000" stroke-width="1" /><text fill="#000000" font-family="Arial" font-size="10" stroke="none" transform="rotate(-180.0,812,380)" x="812" y="390.0">кассы</text><polyline fill="none" points="815,421 841,421" stroke="#000000" stroke-width="0.5" /><polygon fill="none" points="845,413 838,413 838,420 845,420" stroke="#000000" stroke-width="1" /><line stroke="#009900" stroke-width="1" x1="843" x2="839" y1="381" y2="381" /><line stroke="#009900" stroke-width="1" x1="843" x2="839" y1="385" y2="385" /><line stroke="#009900" stroke-width="1" x1="843" x2="839" y1="389" y2="389" /><line stroke="#009900" stroke-width="1" x1="843" x2="839" y1="393" y2="393" /><line stroke="#009900" stroke-width="1" x1="843" x2="839" y1="397" y2="397" /><line stroke="#009900" stroke-width="1" x1="843" x2="839" y1="401" y2="401" /><line stroke="#009900" stroke-width="1" x1="843" x2="839" y1="405" y2="405" /><line stroke="#009900" stroke-width="1" x1="843" x2="839" y1="409" y2="409" /><line stroke="#FF0000" stroke-width="1" x1="804" x2="800" y1="500" y2="500" /><line stroke="#FF0000" stroke-width="1" x1="804" x2="800" y1="496" y2="496" /><line stroke="#FF0000" stroke-width="1" x1="804" x2="800" y1="492" y2="492" /><line stroke="#FF0000" stroke-width="1" x1="804" x2="800" y1="488" y2="488" /><line stroke="#FF0000" stroke-width="1" x1="804" x2="800" y1="484" y2="484" /><line stroke="#FF0000" stroke-width="1" x1="804" x2="800" y1="480" y2="480" /><line stroke="#FF0000" stroke-width="1" x1="804" x2="800" y1="476" y2="476" /><line stroke="#FF0000" stroke-width="1" x1="804" x2="800" y1="472" y2="472" /><line stroke="#FF0000" stroke-width="1" x1="804" x2="800" y1="468" y2="468" /><line stroke="#FF0000" stroke-width="1" x1="804" x2="800" y1="464" y2="464" /><polyline fill="none" marker-end="url(#id255)" points="833,482 819,482" stroke="#FF0000" stroke-width="1" /><polyline fill="none" marker-end="url(#id255)" points="800,399 815,399" stroke="#009900" stroke-width="1" /><polygon fill="#34349C" points="845,497 845,501 846,501 846,497" stroke="#34349C" stroke-width="1" /><polygon fill="#FF0000" points="845,493 845,497 846,497 846,493" stroke="#FF0000" stroke-width="1" /><text fill="#00AFAF" font-family="Arial" font-size="15" stroke="none" x="161" y="687.0">Митинская улица</text><text fill="#00AFAF" font-family="Arial" font-size="15" stroke="none" transform="rotate(90.0,430,604)" x="430" y="619.0">Пятницкое шоссе</text></g></g></svg>