<?xml version="1.0" encoding="utf-8" ?>
<svg baseProfile="full" height="100%" version="1.1" width="100%" xmlns="http://www.w3.org/2000/svg" xmlns:ev="http://www.w3.org/2001/xml-events" xmlns:xlink="http://www.w3.org/1999/xlink"><defs><marker id="id356" markerHeight="3" markerUnits="strokeWidth" markerWidth="4" orient="auto" refX="0" refY="5" viewBox="0,0,10,10"><path d="M 0 0 L 10 5 L 0 10 z" /></marker></defs><g transform="scale(0.5) rotate(50.0,256,253)"><rect fill="none" height="507" stroke="none" width="512" x="0" y="0" /><text fill="#00AFAF" font-family="Arial" font-size="15" stroke="none" x="192" y="62.0">остановка на Видное</text><text fill="#00AFAF" font-family="Arial" font-size="15" stroke="none" x="195" y="119.0">Донбасская улица</text><text fill="#00AFAF" font-family="Arial" font-size="15" stroke="none" x="211" y="29.0">Москва-Дон</text><line stroke="#000000" stroke-width="1" x1="286" x2="69" y1="281" y2="281" /><line stroke="#000000" stroke-width="1" x1="286" x2="69" y1="275" y2="275" /><line stroke="#000000" stroke-width="1" x1="284" x2="284" y1="282.5" y2="273.5" /><line stroke="#000000" stroke-width="1" x1="280" x2="280" y1="282.5" y2="273.5" /><line stroke="#000000" stroke-width="1" x1="276" x2="276" y1="282.5" y2="273.5" /><line stroke="#000000" stroke-width="1" x1="272" x2="272" y1="282.5" y2="273.5" /><line stroke="#000000" stroke-width="1" x1="268" x2="268" y1="282.5" y2="273.5" /><line stroke="#000000" stroke-width="1" x1="264" x2="264" y1="282.5" y2="273.5" /><line stroke="#000000" stroke-width="1" x1="260" x2="260" y1="282.5" y2="273.5" /><line stroke="#000000" stroke-width="1" x1="256" x2="256" y1="282.5" y2="273.5" /><line stroke="#000000" stroke-width="1" x1="252" x2="252" y1="282.5" y2="273.5" /><line stroke="#000000" stroke-width="1" x1="248" x2="248" y1="282.5" y2="273.5" /><line stroke="#000000" stroke-width="1" x1="244" x2="244" y1="282.5" y2="273.5" /><line stroke="#000000" stroke-width="1" x1="240" x2="240" y1="282.5" y2="273.5" /><line stroke="#000000" stroke-width="1" x1="236" x2="236" y1="282.5" y2="273.5" /><line stroke="#000000" stroke-width="1" x1="232" x2="232" y1="282.5" y2="273.5" /><line stroke="#000000" stroke-width="1" x1="228" x2="228" y1="282.5" y2="273.5" /><line stroke="#000000" stroke-width="1" x1="224" x2="224" y1="282.5" y2="273.5" /><line stroke="#000000" stroke-width="1" x1="220" x2="220" y1="282.5" y2="273.5" /><line stroke="#000000" stroke-width="1" x1="216" x2="216" y1="282.5" y2="273.5" /><line stroke="#000000" stroke-width="1" x1="212" x2="212" y1="282.5" y2="273.5" /><line stroke="#000000" stroke-width="1" x1="208" x2="208" y1="282.5" y2="273.5" /><line stroke="#000000" stroke-width="1" x1="204" x2="204" y1="282.5" y2="273.5" /><line stroke="#000000" stroke-width="1" x1="200" x2="200" y1="282.5" y2="273.5" /><line stroke="#000000" stroke-width="1" x1="196" x2="196" y1="282.5" y2="273.5" /><line stroke="#000000" stroke-width="1" x1="192" x2="192" y1="282.5" y2="273.5" /><line stroke="#000000" stroke-width="1" x1="188" x2="188" y1="282.5" y2="273.5" /><line stroke="#000000" stroke-width="1" x1="184" x2="184" y1="282.5" y2="273.5" /><line stroke="#000000" stroke-width="1" x1="180" x2="180" y1="282.5" y2="273.5" /><line stroke="#000000" stroke-width="1" x1="176" x2="176" y1="282.5" y2="273.5" /><line stroke="#000000" stroke-width="1" x1="172" x2="172" y1="282.5" y2="273.5" /><line stroke="#000000" stroke-width="1" x1="168" x2="168" y1="282.5" y2="273.5" /><line stroke="#000000" stroke-width="1" x1="164" x2="164" y1="282.5" y2="273.5" /><line stroke="#000000" stroke-width="1" x1="160" x2="160" y1="282.5" y2="273.5" /><line stroke="#000000" stroke-width="1" x1="156" x2="156" y1="282.5" y2="273.5" /><line stroke="#000000" stroke-width="1" x1="152" x2="152" y1="282.5" y2="273.5" /><line stroke="#000000" stroke-width="1" x1="148" x2="148" y1="282.5" y2="273.5" /><line stroke="#000000" stroke-width="1" x1="144" x2="144" y1="282.5" y2="273.5" /><line stroke="#000000" stroke-width="1" x1="140" x2="140" y1="282.5" y2="273.5" /><line stroke="#000000" stroke-width="1" x1="136" x2="136" y1="282.5" y2="273.5" /><line stroke="#000000" stroke-width="1" x1="132" x2="132" y1="282.5" y2="273.5" /><line stroke="#000000" stroke-width="1" x1="128" x2="128" y1="282.5" y2="273.5" /><line stroke="#000000" stroke-width="1" x1="124" x2="124" y1="282.5" y2="273.5" /><line stroke="#000000" stroke-width="1" x1="120" x2="120" y1="282.5" y2="273.5" /><line stroke="#000000" stroke-width="1" x1="116" x2="116" y1="282.5" y2="273.5" /><line stroke="#000000" stroke-width="1" x1="112" x2="112" y1="282.5" y2="273.5" /><line stroke="#000000" stroke-width="1" x1="108" x2="108" y1="282.5" y2="273.5" /><line stroke="#000000" stroke-width="1" x1="104" x2="104" y1="282.5" y2="273.5" /><line stroke="#000000" stroke-width="1" x1="100" x2="100" y1="282.5" y2="273.5" /><line stroke="#000000" stroke-width="1" x1="96" x2="96" y1="282.5" y2="273.5" /><line stroke="#000000" stroke-width="1" x1="92" x2="92" y1="282.5" y2="273.5" /><line stroke="#000000" stroke-width="1" x1="88" x2="88" y1="282.5" y2="273.5" /><line stroke="#000000" stroke-width="1" x1="84" x2="84" y1="282.5" y2="273.5" /><line stroke="#000000" stroke-width="1" x1="80" x2="80" y1="282.5" y2="273.5" /><line stroke="#000000" stroke-width="1" x1="76" x2="76" y1="282.5" y2="273.5" /><line stroke="#000000" stroke-width="1" x1="72" x2="72" y1="282.5" y2="273.5" /><line stroke="#000000" stroke-width="1" x1="516" x2="307" y1="281" y2="281" /><line stroke="#000000" stroke-width="1" x1="516" x2="307" y1="275" y2="275" /><line stroke="#000000" stroke-width="1" x1="514" x2="514" y1="282.5" y2="273.5" /><line stroke="#000000" stroke-width="1" x1="510" x2="510" y1="282.5" y2="273.5" /><line stroke="#000000" stroke-width="1" x1="506" x2="506" y1="282.5" y2="273.5" /><line stroke="#000000" stroke-width="1" x1="502" x2="502" y1="282.5" y2="273.5" /><line stroke="#000000" stroke-width="1" x1="498" x2="498" y1="282.5" y2="273.5" /><line stroke="#000000" stroke-width="1" x1="494" x2="494" y1="282.5" y2="273.5" /><line stroke="#000000" stroke-width="1" x1="490" x2="490" y1="282.5" y2="273.5" /><line stroke="#000000" stroke-width="1" x1="486" x2="486" y1="282.5" y2="273.5" /><line stroke="#000000" stroke-width="1" x1="482" x2="482" y1="282.5" y2="273.5" /><line stroke="#000000" stroke-width="1" x1="478" x2="478" y1="282.5" y2="273.5" /><line stroke="#000000" stroke-width="1" x1="474" x2="474" y1="282.5" y2="273.5" /><line stroke="#000000" stroke-width="1" x1="470" x2="470" y1="282.5" y2="273.5" /><line stroke="#000000" stroke-width="1" x1="466" x2="466" y1="282.5" y2="273.5" /><line stroke="#000000" stroke-width="1" x1="462" x2="462" y1="282.5" y2="273.5" /><line stroke="#000000" stroke-width="1" x1="458" x2="458" y1="282.5" y2="273.5" /><line stroke="#000000" stroke-width="1" x1="454" x2="454" y1="282.5" y2="273.5" /><line stroke="#000000" stroke-width="1" x1="450" x2="450" y1="282.5" y2="273.5" /><line stroke="#000000" stroke-width="1" x1="446" x2="446" y1="282.5" y2="273.5" /><line stroke="#000000" stroke-width="1" x1="442" x2="442" y1="282.5" y2="273.5" /><line stroke="#000000" stroke-width="1" x1="438" x2="438" y1="282.5" y2="273.5" /><line stroke="#000000" stroke-width="1" x1="434" x2="434" y1="282.5" y2="273.5" /><line stroke="#000000" stroke-width="1" x1="430" x2="430" y1="282.5" y2="273.5" /><line stroke="#000000" stroke-width="1" x1="426" x2="426" y1="282.5" y2="273.5" /><line stroke="#000000" stroke-width="1" x1="422" x2="422" y1="282.5" y2="273.5" /><line stroke="#000000" stroke-width="1" x1="418" x2="418" y1="282.5" y2="273.5" /><line stroke="#000000" stroke-width="1" x1="414" x2="414" y1="282.5" y2="273.5" /><line stroke="#000000" stroke-width="1" x1="410" x2="410" y1="282.5" y2="273.5" /><line stroke="#000000" stroke-width="1" x1="406" x2="406" y1="282.5" y2="273.5" /><line stroke="#000000" stroke-width="1" x1="402" x2="402" y1="282.5" y2="273.5" /><line stroke="#000000" stroke-width="1" x1="398" x2="398" y1="282.5" y2="273.5" /><line stroke="#000000" stroke-width="1" x1="394" x2="394" y1="282.5" y2="273.5" /><line stroke="#000000" stroke-width="1" x1="390" x2="390" y1="282.5" y2="273.5" /><line stroke="#000000" stroke-width="1" x1="386" x2="386" y1="282.5" y2="273.5" /><line stroke="#000000" stroke-width="1" x1="382" x2="382" y1="282.5" y2="273.5" /><line stroke="#000000" stroke-width="1" x1="378" x2="378" y1="282.5" y2="273.5" /><line stroke="#000000" stroke-width="1" x1="374" x2="374" y1="282.5" y2="273.5" /><line stroke="#000000" stroke-width="1" x1="370" x2="370" y1="282.5" y2="273.5" /><line stroke="#000000" stroke-width="1" x1="366" x2="366" y1="282.5" y2="273.5" /><line stroke="#000000" stroke-width="1" x1="362" x2="362" y1="282.5" y2="273.5" /><line stroke="#000000" stroke-width="1" x1="358" x2="358" y1="282.5" y2="273.5" /><line stroke="#000000" stroke-width="1" x1="354" x2="354" y1="282.5" y2="273.5" /><line stroke="#000000" stroke-width="1" x1="350" x2="350" y1="282.5" y2="273.5" /><line stroke="#000000" stroke-width="1" x1="346" x2="346" y1="282.5" y2="273.5" /><line stroke="#000000" stroke-width="1" x1="342" x2="342" y1="282.5" y2="273.5" /><line stroke="#000000" stroke-width="1" x1="338" x2="338" y1="282.5" y2="273.5" /><line stroke="#000000" stroke-width="1" x1="334" x2="334" y1="282.5" y2="273.5" /><line stroke="#000000" stroke-width="1" x1="330" x2="330" y1="282.5" y2="273.5" /><line stroke="#000000" stroke-width="1" x1="326" x2="326" y1="282.5" y2="273.5" /><line stroke="#000000" stroke-width="1" x1="322" x2="322" y1="282.5" y2="273.5" /><line stroke="#000000" stroke-width="1" x1="318" x2="318" y1="282.5" y2="273.5" /><line stroke="#000000" stroke-width="1" x1="314" x2="314" y1="282.5" y2="273.5" /><line stroke="#000000" stroke-width="1" x1="310" x2="310" y1="282.5" y2="273.5" /><line stroke="#000000" stroke-width="1" x1="286" x2="69" y1="307" y2="307" /><line stroke="#000000" stroke-width="1" x1="286" x2="69" y1="301" y2="301" /><line stroke="#000000" stroke-width="1" x1="284" x2="284" y1="308.5" y2="299.5" /><line stroke="#000000" stroke-width="1" x1="280" x2="280" y1="308.5" y2="299.5" /><line stroke="#000000" stroke-width="1" x1="276" x2="276" y1="308.5" y2="299.5" /><line stroke="#000000" stroke-width="1" x1="272" x2="272" y1="308.5" y2="299.5" /><line stroke="#000000" stroke-width="1" x1="268" x2="268" y1="308.5" y2="299.5" /><line stroke="#000000" stroke-width="1" x1="264" x2="264" y1="308.5" y2="299.5" /><line stroke="#000000" stroke-width="1" x1="260" x2="260" y1="308.5" y2="299.5" /><line stroke="#000000" stroke-width="1" x1="256" x2="256" y1="308.5" y2="299.5" /><line stroke="#000000" stroke-width="1" x1="252" x2="252" y1="308.5" y2="299.5" /><line stroke="#000000" stroke-width="1" x1="248" x2="248" y1="308.5" y2="299.5" /><line stroke="#000000" stroke-width="1" x1="244" x2="244" y1="308.5" y2="299.5" /><line stroke="#000000" stroke-width="1" x1="240" x2="240" y1="308.5" y2="299.5" /><line stroke="#000000" stroke-width="1" x1="236" x2="236" y1="308.5" y2="299.5" /><line stroke="#000000" stroke-width="1" x1="232" x2="232" y1="308.5" y2="299.5" /><line stroke="#000000" stroke-width="1" x1="228" x2="228" y1="308.5" y2="299.5" /><line stroke="#000000" stroke-width="1" x1="224" x2="224" y1="308.5" y2="299.5" /><line stroke="#000000" stroke-width="1" x1="220" x2="220" y1="308.5" y2="299.5" /><line stroke="#000000" stroke-width="1" x1="216" x2="216" y1="308.5" y2="299.5" /><line stroke="#000000" stroke-width="1" x1="212" x2="212" y1="308.5" y2="299.5" /><line stroke="#000000" stroke-width="1" x1="208" x2="208" y1="308.5" y2="299.5" /><line stroke="#000000" stroke-width="1" x1="204" x2="204" y1="308.5" y2="299.5" /><line stroke="#000000" stroke-width="1" x1="200" x2="200" y1="308.5" y2="299.5" /><line stroke="#000000" stroke-width="1" x1="196" x2="196" y1="308.5" y2="299.5" /><line stroke="#000000" stroke-width="1" x1="192" x2="192" y1="308.5" y2="299.5" /><line stroke="#000000" stroke-width="1" x1="188" x2="188" y1="308.5" y2="299.5" /><line stroke="#000000" stroke-width="1" x1="184" x2="184" y1="308.5" y2="299.5" /><line stroke="#000000" stroke-width="1" x1="180" x2="180" y1="308.5" y2="299.5" /><line stroke="#000000" stroke-width="1" x1="176" x2="176" y1="308.5" y2="299.5" /><line stroke="#000000" stroke-width="1" x1="172" x2="172" y1="308.5" y2="299.5" /><line stroke="#000000" stroke-width="1" x1="168" x2="168" y1="308.5" y2="299.5" /><line stroke="#000000" stroke-width="1" x1="164" x2="164" y1="308.5" y2="299.5" /><line stroke="#000000" stroke-width="1" x1="160" x2="160" y1="308.5" y2="299.5" /><line stroke="#000000" stroke-width="1" x1="156" x2="156" y1="308.5" y2="299.5" /><line stroke="#000000" stroke-width="1" x1="152" x2="152" y1="308.5" y2="299.5" /><line stroke="#000000" stroke-width="1" x1="148" x2="148" y1="308.5" y2="299.5" /><line stroke="#000000" stroke-width="1" x1="144" x2="144" y1="308.5" y2="299.5" /><line stroke="#000000" stroke-width="1" x1="140" x2="140" y1="308.5" y2="299.5" /><line stroke="#000000" stroke-width="1" x1="136" x2="136" y1="308.5" y2="299.5" /><line stroke="#000000" stroke-width="1" x1="132" x2="132" y1="308.5" y2="299.5" /><line stroke="#000000" stroke-width="1" x1="128" x2="128" y1="308.5" y2="299.5" /><line stroke="#000000" stroke-width="1" x1="124" x2="124" y1="308.5" y2="299.5" /><line stroke="#000000" stroke-width="1" x1="120" x2="120" y1="308.5" y2="299.5" /><line stroke="#000000" stroke-width="1" x1="116" x2="116" y1="308.5" y2="299.5" /><line stroke="#000000" stroke-width="1" x1="112" x2="112" y1="308.5" y2="299.5" /><line stroke="#000000" stroke-width="1" x1="108" x2="108" y1="308.5" y2="299.5" /><line stroke="#000000" stroke-width="1" x1="104" x2="104" y1="308.5" y2="299.5" /><line stroke="#000000" stroke-width="1" x1="100" x2="100" y1="308.5" y2="299.5" /><line stroke="#000000" stroke-width="1" x1="96" x2="96" y1="308.5" y2="299.5" /><line stroke="#000000" stroke-width="1" x1="92" x2="92" y1="308.5" y2="299.5" /><line stroke="#000000" stroke-width="1" x1="88" x2="88" y1="308.5" y2="299.5" /><line stroke="#000000" stroke-width="1" x1="84" x2="84" y1="308.5" y2="299.5" /><line stroke="#000000" stroke-width="1" x1="80" x2="80" y1="308.5" y2="299.5" /><line stroke="#000000" stroke-width="1" x1="76" x2="76" y1="308.5" y2="299.5" /><line stroke="#000000" stroke-width="1" x1="72" x2="72" y1="308.5" y2="299.5" /><line stroke="#000000" stroke-width="1" x1="516" x2="307" y1="307" y2="307" /><line stroke="#000000" stroke-width="1" x1="516" x2="307" y1="301" y2="301" /><line stroke="#000000" stroke-width="1" x1="514" x2="514" y1="308.5" y2="299.5" /><line stroke="#000000" stroke-width="1" x1="510" x2="510" y1="308.5" y2="299.5" /><line stroke="#000000" stroke-width="1" x1="506" x2="506" y1="308.5" y2="299.5" /><line stroke="#000000" stroke-width="1" x1="502" x2="502" y1="308.5" y2="299.5" /><line stroke="#000000" stroke-width="1" x1="498" x2="498" y1="308.5" y2="299.5" /><line stroke="#000000" stroke-width="1" x1="494" x2="494" y1="308.5" y2="299.5" /><line stroke="#000000" stroke-width="1" x1="490" x2="490" y1="308.5" y2="299.5" /><line stroke="#000000" stroke-width="1" x1="486" x2="486" y1="308.5" y2="299.5" /><line stroke="#000000" stroke-width="1" x1="482" x2="482" y1="308.5" y2="299.5" /><line stroke="#000000" stroke-width="1" x1="478" x2="478" y1="308.5" y2="299.5" /><line stroke="#000000" stroke-width="1" x1="474" x2="474" y1="308.5" y2="299.5" /><line stroke="#000000" stroke-width="1" x1="470" x2="470" y1="308.5" y2="299.5" /><line stroke="#000000" stroke-width="1" x1="466" x2="466" y1="308.5" y2="299.5" /><line stroke="#000000" stroke-width="1" x1="462" x2="462" y1="308.5" y2="299.5" /><line stroke="#000000" stroke-width="1" x1="458" x2="458" y1="308.5" y2="299.5" /><line stroke="#000000" stroke-width="1" x1="454" x2="454" y1="308.5" y2="299.5" /><line stroke="#000000" stroke-width="1" x1="450" x2="450" y1="308.5" y2="299.5" /><line stroke="#000000" stroke-width="1" x1="446" x2="446" y1="308.5" y2="299.5" /><line stroke="#000000" stroke-width="1" x1="442" x2="442" y1="308.5" y2="299.5" /><line stroke="#000000" stroke-width="1" x1="438" x2="438" y1="308.5" y2="299.5" /><line stroke="#000000" stroke-width="1" x1="434" x2="434" y1="308.5" y2="299.5" /><line stroke="#000000" stroke-width="1" x1="430" x2="430" y1="308.5" y2="299.5" /><line stroke="#000000" stroke-width="1" x1="426" x2="426" y1="308.5" y2="299.5" /><line stroke="#000000" stroke-width="1" x1="422" x2="422" y1="308.5" y2="299.5" /><line stroke="#000000" stroke-width="1" x1="418" x2="418" y1="308.5" y2="299.5" /><line stroke="#000000" stroke-width="1" x1="414" x2="414" y1="308.5" y2="299.5" /><line stroke="#000000" stroke-width="1" x1="410" x2="410" y1="308.5" y2="299.5" /><line stroke="#000000" stroke-width="1" x1="406" x2="406" y1="308.5" y2="299.5" /><line stroke="#000000" stroke-width="1" x1="402" x2="402" y1="308.5" y2="299.5" /><line stroke="#000000" stroke-width="1" x1="398" x2="398" y1="308.5" y2="299.5" /><line stroke="#000000" stroke-width="1" x1="394" x2="394" y1="308.5" y2="299.5" /><line stroke="#000000" stroke-width="1" x1="390" x2="390" y1="308.5" y2="299.5" /><line stroke="#000000" stroke-width="1" x1="386" x2="386" y1="308.5" y2="299.5" /><line stroke="#000000" stroke-width="1" x1="382" x2="382" y1="308.5" y2="299.5" /><line stroke="#000000" stroke-width="1" x1="378" x2="378" y1="308.5" y2="299.5" /><line stroke="#000000" stroke-width="1" x1="374" x2="374" y1="308.5" y2="299.5" /><line stroke="#000000" stroke-width="1" x1="370" x2="370" y1="308.5" y2="299.5" /><line stroke="#000000" stroke-width="1" x1="366" x2="366" y1="308.5" y2="299.5" /><line stroke="#000000" stroke-width="1" x1="362" x2="362" y1="308.5" y2="299.5" /><line stroke="#000000" stroke-width="1" x1="358" x2="358" y1="308.5" y2="299.5" /><line stroke="#000000" stroke-width="1" x1="354" x2="354" y1="308.5" y2="299.5" /><line stroke="#000000" stroke-width="1" x1="350" x2="350" y1="308.5" y2="299.5" /><line stroke="#000000" stroke-width="1" x1="346" x2="346" y1="308.5" y2="299.5" /><line stroke="#000000" stroke-width="1" x1="342" x2="342" y1="308.5" y2="299.5" /><line stroke="#000000" stroke-width="1" x1="338" x2="338" y1="308.5" y2="299.5" /><line stroke="#000000" stroke-width="1" x1="334" x2="334" y1="308.5" y2="299.5" /><line stroke="#000000" stroke-width="1" x1="330" x2="330" y1="308.5" y2="299.5" /><line stroke="#000000" stroke-width="1" x1="326" x2="326" y1="308.5" y2="299.5" /><line stroke="#000000" stroke-width="1" x1="322" x2="322" y1="308.5" y2="299.5" /><line stroke="#000000" stroke-width="1" x1="318" x2="318" y1="308.5" y2="299.5" /><line stroke="#000000" stroke-width="1" x1="314" x2="314" y1="308.5" y2="299.5" /><line stroke="#000000" stroke-width="1" x1="310" x2="310" y1="308.5" y2="299.5" /><line stroke="#000000" stroke-width="1" x1="286" x2="69" y1="204" y2="204" /><line stroke="#000000" stroke-width="1" x1="286" x2="69" y1="198" y2="198" /><line stroke="#000000" stroke-width="1" x1="284" x2="284" y1="205.5" y2="196.5" /><line stroke="#000000" stroke-width="1" x1="280" x2="280" y1="205.5" y2="196.5" /><line stroke="#000000" stroke-width="1" x1="276" x2="276" y1="205.5" y2="196.5" /><line stroke="#000000" stroke-width="1" x1="272" x2="272" y1="205.5" y2="196.5" /><line stroke="#000000" stroke-width="1" x1="268" x2="268" y1="205.5" y2="196.5" /><line stroke="#000000" stroke-width="1" x1="264" x2="264" y1="205.5" y2="196.5" /><line stroke="#000000" stroke-width="1" x1="260" x2="260" y1="205.5" y2="196.5" /><line stroke="#000000" stroke-width="1" x1="256" x2="256" y1="205.5" y2="196.5" /><line stroke="#000000" stroke-width="1" x1="252" x2="252" y1="205.5" y2="196.5" /><line stroke="#000000" stroke-width="1" x1="248" x2="248" y1="205.5" y2="196.5" /><line stroke="#000000" stroke-width="1" x1="244" x2="244" y1="205.5" y2="196.5" /><line stroke="#000000" stroke-width="1" x1="240" x2="240" y1="205.5" y2="196.5" /><line stroke="#000000" stroke-width="1" x1="236" x2="236" y1="205.5" y2="196.5" /><line stroke="#000000" stroke-width="1" x1="232" x2="232" y1="205.5" y2="196.5" /><line stroke="#000000" stroke-width="1" x1="228" x2="228" y1="205.5" y2="196.5" /><line stroke="#000000" stroke-width="1" x1="224" x2="224" y1="205.5" y2="196.5" /><line stroke="#000000" stroke-width="1" x1="220" x2="220" y1="205.5" y2="196.5" /><line stroke="#000000" stroke-width="1" x1="216" x2="216" y1="205.5" y2="196.5" /><line stroke="#000000" stroke-width="1" x1="212" x2="212" y1="205.5" y2="196.5" /><line stroke="#000000" stroke-width="1" x1="208" x2="208" y1="205.5" y2="196.5" /><line stroke="#000000" stroke-width="1" x1="204" x2="204" y1="205.5" y2="196.5" /><line stroke="#000000" stroke-width="1" x1="200" x2="200" y1="205.5" y2="196.5" /><line stroke="#000000" stroke-width="1" x1="196" x2="196" y1="205.5" y2="196.5" /><line stroke="#000000" stroke-width="1" x1="192" x2="192" y1="205.5" y2="196.5" /><line stroke="#000000" stroke-width="1" x1="188" x2="188" y1="205.5" y2="196.5" /><line stroke="#000000" stroke-width="1" x1="184" x2="184" y1="205.5" y2="196.5" /><line stroke="#000000" stroke-width="1" x1="180" x2="180" y1="205.5" y2="196.5" /><line stroke="#000000" stroke-width="1" x1="176" x2="176" y1="205.5" y2="196.5" /><line stroke="#000000" stroke-width="1" x1="172" x2="172" y1="205.5" y2="196.5" /><line stroke="#000000" stroke-width="1" x1="168" x2="168" y1="205.5" y2="196.5" /><line stroke="#000000" stroke-width="1" x1="164" x2="164" y1="205.5" y2="196.5" /><line stroke="#000000" stroke-width="1" x1="160" x2="160" y1="205.5" y2="196.5" /><line stroke="#000000" stroke-width="1" x1="156" x2="156" y1="205.5" y2="196.5" /><line stroke="#000000" stroke-width="1" x1="152" x2="152" y1="205.5" y2="196.5" /><line stroke="#000000" stroke-width="1" x1="148" x2="148" y1="205.5" y2="196.5" /><line stroke="#000000" stroke-width="1" x1="144" x2="144" y1="205.5" y2="196.5" /><line stroke="#000000" stroke-width="1" x1="140" x2="140" y1="205.5" y2="196.5" /><line stroke="#000000" stroke-width="1" x1="136" x2="136" y1="205.5" y2="196.5" /><line stroke="#000000" stroke-width="1" x1="132" x2="132" y1="205.5" y2="196.5" /><line stroke="#000000" stroke-width="1" x1="128" x2="128" y1="205.5" y2="196.5" /><line stroke="#000000" stroke-width="1" x1="124" x2="124" y1="205.5" y2="196.5" /><line stroke="#000000" stroke-width="1" x1="120" x2="120" y1="205.5" y2="196.5" /><line stroke="#000000" stroke-width="1" x1="116" x2="116" y1="205.5" y2="196.5" /><line stroke="#000000" stroke-width="1" x1="112" x2="112" y1="205.5" y2="196.5" /><line stroke="#000000" stroke-width="1" x1="108" x2="108" y1="205.5" y2="196.5" /><line stroke="#000000" stroke-width="1" x1="104" x2="104" y1="205.5" y2="196.5" /><line stroke="#000000" stroke-width="1" x1="100" x2="100" y1="205.5" y2="196.5" /><line stroke="#000000" stroke-width="1" x1="96" x2="96" y1="205.5" y2="196.5" /><line stroke="#000000" stroke-width="1" x1="92" x2="92" y1="205.5" y2="196.5" /><line stroke="#000000" stroke-width="1" x1="88" x2="88" y1="205.5" y2="196.5" /><line stroke="#000000" stroke-width="1" x1="84" x2="84" y1="205.5" y2="196.5" /><line stroke="#000000" stroke-width="1" x1="80" x2="80" y1="205.5" y2="196.5" /><line stroke="#000000" stroke-width="1" x1="76" x2="76" y1="205.5" y2="196.5" /><line stroke="#000000" stroke-width="1" x1="72" x2="72" y1="205.5" y2="196.5" /><line stroke="#000000" stroke-width="1" x1="516" x2="307" y1="204" y2="204" /><line stroke="#000000" stroke-width="1" x1="516" x2="307" y1="198" y2="198" /><line stroke="#000000" stroke-width="1" x1="514" x2="514" y1="205.5" y2="196.5" /><line stroke="#000000" stroke-width="1" x1="510" x2="510" y1="205.5" y2="196.5" /><line stroke="#000000" stroke-width="1" x1="506" x2="506" y1="205.5" y2="196.5" /><line stroke="#000000" stroke-width="1" x1="502" x2="502" y1="205.5" y2="196.5" /><line stroke="#000000" stroke-width="1" x1="498" x2="498" y1="205.5" y2="196.5" /><line stroke="#000000" stroke-width="1" x1="494" x2="494" y1="205.5" y2="196.5" /><line stroke="#000000" stroke-width="1" x1="490" x2="490" y1="205.5" y2="196.5" /><line stroke="#000000" stroke-width="1" x1="486" x2="486" y1="205.5" y2="196.5" /><line stroke="#000000" stroke-width="1" x1="482" x2="482" y1="205.5" y2="196.5" /><line stroke="#000000" stroke-width="1" x1="478" x2="478" y1="205.5" y2="196.5" /><line stroke="#000000" stroke-width="1" x1="474" x2="474" y1="205.5" y2="196.5" /><line stroke="#000000" stroke-width="1" x1="470" x2="470" y1="205.5" y2="196.5" /><line stroke="#000000" stroke-width="1" x1="466" x2="466" y1="205.5" y2="196.5" /><line stroke="#000000" stroke-width="1" x1="462" x2="462" y1="205.5" y2="196.5" /><line stroke="#000000" stroke-width="1" x1="458" x2="458" y1="205.5" y2="196.5" /><line stroke="#000000" stroke-width="1" x1="454" x2="454" y1="205.5" y2="196.5" /><line stroke="#000000" stroke-width="1" x1="450" x2="450" y1="205.5" y2="196.5" /><line stroke="#000000" stroke-width="1" x1="446" x2="446" y1="205.5" y2="196.5" /><line stroke="#000000" stroke-width="1" x1="442" x2="442" y1="205.5" y2="196.5" /><line stroke="#000000" stroke-width="1" x1="438" x2="438" y1="205.5" y2="196.5" /><line stroke="#000000" stroke-width="1" x1="434" x2="434" y1="205.5" y2="196.5" /><line stroke="#000000" stroke-width="1" x1="430" x2="430" y1="205.5" y2="196.5" /><line stroke="#000000" stroke-width="1" x1="426" x2="426" y1="205.5" y2="196.5" /><line stroke="#000000" stroke-width="1" x1="422" x2="422" y1="205.5" y2="196.5" /><line stroke="#000000" stroke-width="1" x1="418" x2="418" y1="205.5" y2="196.5" /><line stroke="#000000" stroke-width="1" x1="414" x2="414" y1="205.5" y2="196.5" /><line stroke="#000000" stroke-width="1" x1="410" x2="410" y1="205.5" y2="196.5" /><line stroke="#000000" stroke-width="1" x1="406" x2="406" y1="205.5" y2="196.5" /><line stroke="#000000" stroke-width="1" x1="402" x2="402" y1="205.5" y2="196.5" /><line stroke="#000000" stroke-width="1" x1="398" x2="398" y1="205.5" y2="196.5" /><line stroke="#000000" stroke-width="1" x1="394" x2="394" y1="205.5" y2="196.5" /><line stroke="#000000" stroke-width="1" x1="390" x2="390" y1="205.5" y2="196.5" /><line stroke="#000000" stroke-width="1" x1="386" x2="386" y1="205.5" y2="196.5" /><line stroke="#000000" stroke-width="1" x1="382" x2="382" y1="205.5" y2="196.5" /><line stroke="#000000" stroke-width="1" x1="378" x2="378" y1="205.5" y2="196.5" /><line stroke="#000000" stroke-width="1" x1="374" x2="374" y1="205.5" y2="196.5" /><line stroke="#000000" stroke-width="1" x1="370" x2="370" y1="205.5" y2="196.5" /><line stroke="#000000" stroke-width="1" x1="366" x2="366" y1="205.5" y2="196.5" /><line stroke="#000000" stroke-width="1" x1="362" x2="362" y1="205.5" y2="196.5" /><line stroke="#000000" stroke-width="1" x1="358" x2="358" y1="205.5" y2="196.5" /><line stroke="#000000" stroke-width="1" x1="354" x2="354" y1="205.5" y2="196.5" /><line stroke="#000000" stroke-width="1" x1="350" x2="350" y1="205.5" y2="196.5" /><line stroke="#000000" stroke-width="1" x1="346" x2="346" y1="205.5" y2="196.5" /><line stroke="#000000" stroke-width="1" x1="342" x2="342" y1="205.5" y2="196.5" /><line stroke="#000000" stroke-width="1" x1="338" x2="338" y1="205.5" y2="196.5" /><line stroke="#000000" stroke-width="1" x1="334" x2="334" y1="205.5" y2="196.5" /><line stroke="#000000" stroke-width="1" x1="330" x2="330" y1="205.5" y2="196.5" /><line stroke="#000000" stroke-width="1" x1="326" x2="326" y1="205.5" y2="196.5" /><line stroke="#000000" stroke-width="1" x1="322" x2="322" y1="205.5" y2="196.5" /><line stroke="#000000" stroke-width="1" x1="318" x2="318" y1="205.5" y2="196.5" /><line stroke="#000000" stroke-width="1" x1="314" x2="314" y1="205.5" y2="196.5" /><line stroke="#000000" stroke-width="1" x1="310" x2="310" y1="205.5" y2="196.5" /><polygon fill="#B0B0B0" points="106,186 106,166 286,166 286,186" stroke="#B0B0B0" stroke-width="1" /><polygon fill="#B0B0B0" points="307,186 307,166 496,166 496,186" stroke="#B0B0B0" stroke-width="1" /><polygon fill="#B0B0B0" points="286,316 106,316 106,346 286,346" stroke="#B0B0B0" stroke-width="1" /><polygon fill="#B0B0B0" points="307,316 466,316 466,346 307,346" stroke="#B0B0B0" stroke-width="1" /><polygon fill="#B0B0B0" points="286,216 157,216 157,246 106,246 106,266 286,266 286,246 256,246 256,236 286,236" stroke="#000000" stroke-width="1" /><polygon fill="#B0B0B0" points="307,216 416,216 416,246 466,246 466,266 307,266 307,246 336,246 336,236 307,236" stroke="#000000" stroke-width="1" /><polyline fill="none" points="286,166 247,166" stroke="#000000" stroke-width="1" /><polyline fill="none" points="226,166 106,166 106,186 286,186" stroke="#000000" stroke-width="1" /><polyline fill="none" points="336,166 307,166" stroke="#000000" stroke-width="1" /><polyline fill="none" points="307,186 496,186 496,166 446,166" stroke="#000000" stroke-width="1" /><polyline fill="none" points="396,166 346,166" stroke="#000000" stroke-width="1" /><polyline fill="none" points="286,316 106,316 106,346 246,346" stroke="#000000" stroke-width="1" /><polyline fill="none" points="276,346 286,346" stroke="#000000" stroke-width="1" /><polyline fill="none" points="307,346 346,346" stroke="#000000" stroke-width="1" /><polyline fill="none" points="366,346 395,346" stroke="#000000" stroke-width="1" /><polyline fill="none" points="446,346 466,346 466,316 307,316" stroke="#000000" stroke-width="1" /><polygon fill="#FFFFFF" points="396,166 396,180 446,180 446,166" stroke="#000000" stroke-width="1" /><polygon fill="#FFFFFF" points="366,236 366,256 406,256 406,236" stroke="#000000" stroke-width="1" /><polygon fill="#FFFFFF" points="395,346 395,326 446,326 446,346" stroke="#000000" stroke-width="1" /><polygon fill="#FFFFFF" points="166,426 226,426 226,486 166,486" stroke="#000000" stroke-width="1" /><polyline fill="none" points="116,56 127,46 376,46 386,56" stroke="#000000" stroke-width="3" /><polyline fill="none" points="316,136 346,136 346,166" stroke="#000000" stroke-width="1" /><polyline fill="none" points="247,166 247,156 286,156 286,146 256,146" stroke="#000000" stroke-width="1" /><polyline fill="none" points="366,366 366,346 346,346 346,366" stroke="#000000" stroke-width="1" /><polyline fill="none" points="246,346 246,366 276,366 276,346" stroke="#000000" stroke-width="1" /><polyline fill="none" points="336,236 307,236 307,246 336,246" stroke="#000000" stroke-width="1" /><polyline fill="none" points="256,236 286,236 286,246 256,246" stroke="#000000" stroke-width="1" /><polyline fill="none" points="307,156 307,376" stroke="#000000" stroke-width="1" /><polyline fill="none" points="286,376 286,156" stroke="#000000" stroke-width="1" /><polyline fill="none" points="307,156 336,156 336,166" stroke="#000000" stroke-width="1" /><polyline fill="none" points="286,146 336,146" stroke="#000000" stroke-width="1" /><polyline fill="none" points="226,166 226,136 236,136 236,86 206,86 206,66 226,66" stroke="#000000" stroke-width="1" /><polyline fill="none" points="276,136 256,136 256,86 286,86 286,66 266,66" stroke="#000000" stroke-width="1" /><polyline fill="none" points="216,76 276,76" stroke="#000000" stroke-width="1" /><line stroke="#000000" stroke-width="1" x1="276" x2="276" y1="236" y2="246" /><line stroke="#000000" stroke-width="1" x1="280" x2="280" y1="236" y2="246" /><line stroke="#000000" stroke-width="1" x1="284" x2="284" y1="236" y2="246" /><line stroke="#000000" stroke-width="1" x1="307" x2="307" y1="236" y2="246" /><line stroke="#000000" stroke-width="1" x1="311" x2="311" y1="236" y2="246" /><line stroke="#000000" stroke-width="1" x1="315" x2="315" y1="236" y2="246" /><line stroke="#000000" stroke-width="1" x1="286" x2="307" y1="376" y2="376" /><line stroke="#000000" stroke-width="1" x1="286" x2="307" y1="372" y2="372" /><line stroke="#000000" stroke-width="1" x1="286" x2="307" y1="368" y2="368" /><line stroke="#000000" stroke-width="1" x1="286" x2="307" y1="364" y2="364" /><line stroke="#000000" stroke-width="1" x1="286" x2="307" y1="360" y2="360" /><line stroke="#000000" stroke-width="1" x1="286" x2="307" y1="356" y2="356" /><line stroke="#000000" stroke-width="1" x1="246" x2="276" y1="346" y2="346" /><line stroke="#000000" stroke-width="1" x1="246" x2="276" y1="350" y2="350" /><line stroke="#000000" stroke-width="1" x1="246" x2="276" y1="354" y2="354" /><line stroke="#000000" stroke-width="1" x1="246" x2="276" y1="358" y2="358" /><line stroke="#000000" stroke-width="1" x1="246" x2="276" y1="362" y2="362" /><line stroke="#000000" stroke-width="1" x1="246" x2="276" y1="366" y2="366" /><line stroke="#000000" stroke-width="1" x1="346" x2="366" y1="366" y2="366" /><line stroke="#000000" stroke-width="1" x1="346" x2="366" y1="362" y2="362" /><line stroke="#000000" stroke-width="1" x1="346" x2="366" y1="358" y2="358" /><line stroke="#000000" stroke-width="1" x1="346" x2="366" y1="354" y2="354" /><line stroke="#000000" stroke-width="1" x1="346" x2="366" y1="350" y2="350" /><line stroke="#000000" stroke-width="1" x1="346" x2="366" y1="346" y2="346" /><line stroke="#000000" stroke-width="1" x1="256" x2="256" y1="146" y2="156" /><line stroke="#000000" stroke-width="1" x1="260" x2="260" y1="146" y2="156" /><line stroke="#000000" stroke-width="1" x1="264" x2="264" y1="146" y2="156" /><line stroke="#000000" stroke-width="1" x1="268" x2="268" y1="146" y2="156" /><line stroke="#000000" stroke-width="1" x1="272" x2="272" y1="146" y2="156" /><line stroke="#000000" stroke-width="1" x1="276" x2="276" y1="146" y2="156" /><line stroke="#000000" stroke-width="1" x1="280" x2="280" y1="146" y2="156" /><line stroke="#000000" stroke-width="1" x1="284" x2="284" y1="146" y2="156" /><line stroke="#000000" stroke-width="1" x1="256" x2="256" y1="136" y2="146" /><line stroke="#000000" stroke-width="1" x1="260" x2="260" y1="136" y2="146" /><line stroke="#000000" stroke-width="1" x1="264" x2="264" y1="136" y2="146" /><line stroke="#000000" stroke-width="1" x1="268" x2="268" y1="136" y2="146" /><line stroke="#000000" stroke-width="1" x1="272" x2="272" y1="136" y2="146" /><line stroke="#000000" stroke-width="1" x1="276" x2="276" y1="136" y2="146" /><line stroke="#000000" stroke-width="1" x1="336" x2="336" y1="146" y2="156" /><line stroke="#000000" stroke-width="1" x1="332" x2="332" y1="146" y2="156" /><line stroke="#000000" stroke-width="1" x1="328" x2="328" y1="146" y2="156" /><line stroke="#000000" stroke-width="1" x1="324" x2="324" y1="146" y2="156" /><line stroke="#000000" stroke-width="1" x1="320" x2="320" y1="146" y2="156" /><line stroke="#000000" stroke-width="1" x1="316" x2="316" y1="146" y2="156" /><line stroke="#000000" stroke-width="1" x1="312" x2="312" y1="146" y2="156" /><line stroke="#000000" stroke-width="1" x1="308" x2="308" y1="146" y2="156" /><line stroke="#000000" stroke-width="1" x1="336" x2="336" y1="136" y2="146" /><line stroke="#000000" stroke-width="1" x1="332" x2="332" y1="136" y2="146" /><line stroke="#000000" stroke-width="1" x1="328" x2="328" y1="136" y2="146" /><line stroke="#000000" stroke-width="1" x1="324" x2="324" y1="136" y2="146" /><line stroke="#000000" stroke-width="1" x1="320" x2="320" y1="136" y2="146" /><line stroke="#000000" stroke-width="1" x1="316" x2="316" y1="136" y2="146" /><line stroke="#000000" stroke-width="1" x1="256" x2="256" y1="76" y2="86" /><line stroke="#000000" stroke-width="1" x1="260" x2="260" y1="76" y2="86" /><line stroke="#000000" stroke-width="1" x1="264" x2="264" y1="76" y2="86" /><line stroke="#000000" stroke-width="1" x1="268" x2="268" y1="76" y2="86" /><line stroke="#000000" stroke-width="1" x1="272" x2="272" y1="76" y2="86" /><line stroke="#000000" stroke-width="1" x1="276" x2="276" y1="76" y2="86" /><line stroke="#000000" stroke-width="1" x1="236" x2="236" y1="86" y2="76" /><line stroke="#000000" stroke-width="1" x1="232" x2="232" y1="86" y2="76" /><line stroke="#000000" stroke-width="1" x1="228" x2="228" y1="86" y2="76" /><line stroke="#000000" stroke-width="1" x1="224" x2="224" y1="86" y2="76" /><line stroke="#000000" stroke-width="1" x1="220" x2="220" y1="86" y2="76" /><line stroke="#000000" stroke-width="1" x1="216" x2="216" y1="86" y2="76" /><line stroke="#000000" stroke-width="1" x1="276" x2="276" y1="66" y2="76" /><line stroke="#000000" stroke-width="1" x1="272" x2="272" y1="66" y2="76" /><line stroke="#000000" stroke-width="1" x1="268" x2="268" y1="66" y2="76" /><line stroke="#000000" stroke-width="1" x1="216" x2="216" y1="66" y2="76" /><line stroke="#000000" stroke-width="1" x1="220" x2="220" y1="66" y2="76" /><line stroke="#000000" stroke-width="1" x1="224" x2="224" y1="66" y2="76" /><line stroke="#000000" stroke-width="1" x1="336" x2="336" y1="236" y2="246" /><line stroke="#000000" stroke-width="1" x1="332" x2="332" y1="236" y2="246" /><line stroke="#000000" stroke-width="1" x1="328" x2="328" y1="236" y2="246" /><line stroke="#000000" stroke-width="1" x1="256" x2="256" y1="236" y2="246" /><line stroke="#000000" stroke-width="1" x1="260" x2="260" y1="236" y2="246" /><line stroke="#000000" stroke-width="1" x1="264" x2="264" y1="236" y2="246" /><text fill="#000000" font-family="Arial" font-size="20" stroke="none" x="135" y="332.0">от Москвы &gt;&gt;</text><text fill="#000000" font-family="Arial" font-size="20" stroke="none" x="114" y="263.0">&lt;&lt; к Москве</text><text fill="#000000" font-family="Arial" font-size="25" stroke="none" x="227" y="407.0">Расторгуево</text><text fill="#000000" font-family="Arial" font-size="15" stroke="none" transform="rotate(-90.0,209,475)" x="209" y="490.0">Кассы</text><polyline fill="none" points="262,136 269,146" stroke="#FF0000" stroke-width="1" /><polyline fill="none" points="269,136 262,146" stroke="#FF0000" stroke-width="1" /><polyline fill="none" points="323,136 329,146" stroke="#FF0000" stroke-width="1" /><polyline fill="none" points="329,136 323,146" stroke="#FF0000" stroke-width="1" /></g></svg>