<?xml version="1.0" encoding="utf-8" ?>
<svg baseProfile="full" height="100%" version="1.1" width="100%" xmlns="http://www.w3.org/2000/svg" xmlns:ev="http://www.w3.org/2001/xml-events" xmlns:xlink="http://www.w3.org/1999/xlink"><defs><marker id="id256" markerHeight="3" markerUnits="strokeWidth" markerWidth="4" orient="auto" refX="0" refY="5" viewBox="0,0,10,10"><path d="M 0 0 L 10 5 L 0 10 z" /></marker></defs><g transform="scale(0.5) rotate(70.0,250,390)"><rect fill="none" height="780" stroke="none" width="500" x="0" y="0" /><polygon fill="#046434" points="13,358 463,358 463,388 13,388" stroke="#000000" stroke-width="1" /><polygon fill="#046434" points="13,468 463,468 463,498 13,498" stroke="#000000" stroke-width="1" /><text fill="#046434" font-family="Arial" font-size="20" stroke="none" x="17" y="354.0">&lt;&lt; тупик</text><text fill="#046434" font-family="Arial" font-size="20" stroke="none" x="294" y="518.0">Водный стадион &gt;&gt;</text><text fill="#046434" font-family="Arial" font-size="25" stroke="none" x="153" y="445.0">Речной вокзал</text><polygon fill="#34349C" points="247,423 247,419 248,419 248,423" stroke="#34349C" stroke-width="1" /><polygon fill="#FF0000" points="247,427 247,423 248,423 248,427" stroke="#FF0000" stroke-width="1" /><polygon fill="#FEFBF1" points="-4,361 -141,361 -141,495 -4,495" stroke="#CCCCCC" stroke-width="1" /><polygon fill="#D0D0D0" points="-141,361 -119,361 -119,385 -106,385 -106,396 -130,396 -130,410 -139,410 -139,438 -130,438 -130,451 -116,451 -116,495 -141,495" stroke="#000000" stroke-width="1" /><polyline fill="none" points="-4,366 -4,361 -119,361 -119,385 -106,385 -106,396 -130,396 -130,451 -116,451 -116,495 -4,495 -4,490" stroke="#000000" stroke-width="1" /><polyline fill="none" points="13,388 13,393 61,393 61,398 22,398 22,401" stroke="#000000" stroke-width="1" /><polyline fill="none" points="-4,464 -4,459 -60,459 -60,455 61,455 61,461 13,461 13,468" stroke="#000000" stroke-width="1" /><polyline fill="none" points="-60,401 -60,397 -4,397 -4,392" stroke="#000000" stroke-width="1" /><line stroke="#000000" stroke-width="1" x1="-54" x2="-54" y1="422" y2="455" /><line stroke="#000000" stroke-width="1" x1="-50" x2="-50" y1="422" y2="455" /><line stroke="#000000" stroke-width="1" x1="-46" x2="-46" y1="422" y2="455" /><line stroke="#000000" stroke-width="1" x1="-42" x2="-42" y1="422" y2="455" /><line stroke="#000000" stroke-width="1" x1="-38" x2="-38" y1="422" y2="455" /><line stroke="#000000" stroke-width="1" x1="-34" x2="-34" y1="422" y2="455" /><line stroke="#000000" stroke-width="1" x1="-30" x2="-30" y1="422" y2="455" /><line stroke="#000000" stroke-width="1" x1="-26" x2="-26" y1="422" y2="455" /><line stroke="#000000" stroke-width="1" x1="-22" x2="-22" y1="422" y2="455" /><line stroke="#000000" stroke-width="1" x1="-18" x2="-18" y1="422" y2="455" /><line stroke="#000000" stroke-width="1" x1="-14" x2="-14" y1="422" y2="455" /><line stroke="#000000" stroke-width="1" x1="-10" x2="-10" y1="422" y2="455" /><line stroke="#000000" stroke-width="1" x1="-6" x2="-6" y1="422" y2="455" /><line stroke="#000000" stroke-width="1" x1="-2" x2="-2" y1="422" y2="455" /><line stroke="#000000" stroke-width="1" x1="2" x2="2" y1="422" y2="455" /><line stroke="#000000" stroke-width="1" x1="6" x2="6" y1="422" y2="455" /><line stroke="#000000" stroke-width="1" x1="10" x2="10" y1="422" y2="455" /><line stroke="#000000" stroke-width="1" x1="14" x2="14" y1="422" y2="455" /><line stroke="#000000" stroke-width="1" x1="18" x2="18" y1="422" y2="455" /><line stroke="#000000" stroke-width="1" x1="22" x2="22" y1="422" y2="455" /><line stroke="#7F7F7F" stroke-width="1" x1="24" x2="24" y1="419" y2="404" /><line stroke="#7F7F7F" stroke-width="1" x1="20" x2="20" y1="419" y2="404" /><line stroke="#7F7F7F" stroke-width="1" x1="16" x2="16" y1="419" y2="404" /><line stroke="#7F7F7F" stroke-width="1" x1="12" x2="12" y1="419" y2="404" /><line stroke="#7F7F7F" stroke-width="1" x1="8" x2="8" y1="419" y2="404" /><line stroke="#7F7F7F" stroke-width="1" x1="4" x2="4" y1="419" y2="404" /><line stroke="#7F7F7F" stroke-width="1" x1="0" x2="0" y1="419" y2="404" /><line stroke="#7F7F7F" stroke-width="1" x1="-4" x2="-4" y1="419" y2="404" /><line stroke="#7F7F7F" stroke-width="1" x1="-8" x2="-8" y1="419" y2="404" /><line stroke="#7F7F7F" stroke-width="1" x1="-12" x2="-12" y1="419" y2="404" /><line stroke="#7F7F7F" stroke-width="1" x1="-16" x2="-16" y1="419" y2="404" /><line stroke="#7F7F7F" stroke-width="1" x1="-20" x2="-20" y1="419" y2="404" /><line stroke="#7F7F7F" stroke-width="1" x1="-24" x2="-24" y1="419" y2="404" /><line stroke="#7F7F7F" stroke-width="1" x1="-28" x2="-28" y1="419" y2="404" /><line stroke="#7F7F7F" stroke-width="1" x1="-32" x2="-32" y1="419" y2="404" /><line stroke="#7F7F7F" stroke-width="1" x1="-36" x2="-36" y1="419" y2="404" /><line stroke="#7F7F7F" stroke-width="1" x1="-40" x2="-40" y1="419" y2="404" /><line stroke="#7F7F7F" stroke-width="1" x1="-44" x2="-44" y1="419" y2="404" /><line stroke="#7F7F7F" stroke-width="1" x1="-48" x2="-48" y1="419" y2="404" /><line stroke="#7F7F7F" stroke-width="1" x1="-52" x2="-52" y1="419" y2="404" /><polygon fill="#9B5509" points="31,404 -60,404 -60,401 31,401" stroke="#000000" stroke-width="1" /><polygon fill="#9B5509" points="31,410 -60,410 -60,413 31,413" stroke="#000000" stroke-width="1" /><polygon fill="#9B5509" points="31,419 -60,419 -60,422 31,422" stroke="#000000" stroke-width="1" /><polygon fill="#FFFFFF" points="-130,438 -139,438 -139,410 -130,410" stroke="#000000" stroke-width="1" /><text fill="#000000" font-family="Arial" font-size="10" stroke="none" transform="rotate(-90.0,-141,436)" x="-141" y="446.0">кассы</text><polyline fill="none" points="-60,420 -100,405" stroke="#000000" stroke-width="0.5" /><polyline fill="none" points="-60,459 -88,459" stroke="#000000" stroke-width="0.5" /><polygon fill="none" points="-86,458 -92,459 -93,453 -87,452" stroke="#000000" stroke-width="1" /><line stroke="#009900" stroke-width="1" x1="-93" x2="-89" y1="449" y2="448" /><line stroke="#009900" stroke-width="1" x1="-94.0524696232" x2="-90.0524696232" y1="445.140944715" y2="444.140944715" /><line stroke="#009900" stroke-width="1" x1="-95.1049392463" x2="-91.1049392463" y1="441.28188943" y2="440.28188943" /><line stroke="#009900" stroke-width="1" x1="-96.1574088695" x2="-92.1574088695" y1="437.422834145" y2="436.422834145" /><line stroke="#009900" stroke-width="1" x1="-97.2098784927" x2="-93.2098784927" y1="433.56377886" y2="432.56377886" /><line stroke="#009900" stroke-width="1" x1="-98.2623481158" x2="-94.2623481158" y1="429.704723575" y2="428.704723575" /><line stroke="#009900" stroke-width="1" x1="-99.314817739" x2="-95.314817739" y1="425.84566829" y2="424.84566829" /><line stroke="#009900" stroke-width="1" x1="-100.367287362" x2="-96.3672873622" y1="421.986613005" y2="420.986613005" /><line stroke="#009900" stroke-width="1" x1="-101.419756985" x2="-97.4197569853" y1="418.12755772" y2="417.12755772" /><line stroke="#009900" stroke-width="1" x1="-102.472226609" x2="-98.4722266085" y1="414.268502435" y2="413.268502435" /><line stroke="#009900" stroke-width="1" x1="-103.524696232" x2="-99.5246962317" y1="410.40944715" y2="409.40944715" /><line stroke="#009900" stroke-width="1" x1="-104.577165855" x2="-100.577165855" y1="406.550391866" y2="405.550391866" /><line stroke="#FF0000" stroke-width="1" x1="-56" x2="-52" y1="392" y2="392" /><line stroke="#FF0000" stroke-width="1" x1="-56" x2="-52" y1="388" y2="388" /><line stroke="#FF0000" stroke-width="1" x1="-56" x2="-52" y1="384" y2="384" /><line stroke="#FF0000" stroke-width="1" x1="-56" x2="-52" y1="380" y2="380" /><line stroke="#FF0000" stroke-width="1" x1="-56" x2="-52" y1="376" y2="376" /><line stroke="#FF0000" stroke-width="1" x1="-56" x2="-52" y1="372" y2="372" /><line stroke="#FF0000" stroke-width="1" x1="-56" x2="-52" y1="368" y2="368" /><line stroke="#FF0000" stroke-width="1" x1="-56" x2="-52" y1="364" y2="364" /><polyline fill="none" marker-end="url(#id256)" points="-78,400 -78,378 -64,378" stroke="#FF0000" stroke-width="1" /><polyline fill="none" marker-end="url(#id256)" points="-76,439 -62,439" stroke="#009900" stroke-width="1" /><polyline fill="none" marker-end="url(#id256)" points="-11,477 -28,477" stroke="#009900" stroke-width="1" /><polygon fill="#34349C" points="-95,363 -91,363 -91,364 -95,364" stroke="#34349C" stroke-width="1" /><polygon fill="#FF0000" points="-99,363 -95,363 -95,364 -99,364" stroke="#FF0000" stroke-width="1" /><polygon fill="#FEFBF1" points="483,362 613,362 613,495 483,495" stroke="#CCCCCC" stroke-width="1" /><polygon fill="#D0D0D0" points="597,362 613,362 613,495 596,495 596,460 602,460 602,441 611,441 611,413 602,413 602,395 597,395" stroke="#000000" stroke-width="1" /><polyline fill="none" points="483,367 483,362 597,362 597,395 602,395 602,460 596,460 596,495 483,495 483,490" stroke="#000000" stroke-width="1" /><polyline fill="none" points="483,391 483,396 538,396 538,401" stroke="#000000" stroke-width="1" /><polyline fill="none" points="483,465 483,460 539,460 539,455 423,455 423,461 463,461 463,468" stroke="#000000" stroke-width="1" /><polyline fill="none" points="463,388 463,393 423,393 423,398 456,398 456,401" stroke="#000000" stroke-width="1" /><line stroke="#000000" stroke-width="1" x1="452" x2="452" y1="422" y2="455" /><line stroke="#000000" stroke-width="1" x1="456" x2="456" y1="422" y2="455" /><line stroke="#000000" stroke-width="1" x1="460" x2="460" y1="422" y2="455" /><line stroke="#000000" stroke-width="1" x1="464" x2="464" y1="422" y2="455" /><line stroke="#000000" stroke-width="1" x1="468" x2="468" y1="422" y2="455" /><line stroke="#000000" stroke-width="1" x1="472" x2="472" y1="422" y2="455" /><line stroke="#000000" stroke-width="1" x1="476" x2="476" y1="422" y2="455" /><line stroke="#000000" stroke-width="1" x1="480" x2="480" y1="422" y2="455" /><line stroke="#000000" stroke-width="1" x1="484" x2="484" y1="422" y2="455" /><line stroke="#000000" stroke-width="1" x1="488" x2="488" y1="422" y2="455" /><line stroke="#000000" stroke-width="1" x1="492" x2="492" y1="422" y2="455" /><line stroke="#000000" stroke-width="1" x1="496" x2="496" y1="422" y2="455" /><line stroke="#000000" stroke-width="1" x1="500" x2="500" y1="422" y2="455" /><line stroke="#000000" stroke-width="1" x1="504" x2="504" y1="422" y2="455" /><line stroke="#000000" stroke-width="1" x1="508" x2="508" y1="422" y2="455" /><line stroke="#000000" stroke-width="1" x1="512" x2="512" y1="422" y2="455" /><line stroke="#000000" stroke-width="1" x1="516" x2="516" y1="422" y2="455" /><line stroke="#000000" stroke-width="1" x1="520" x2="520" y1="422" y2="455" /><line stroke="#000000" stroke-width="1" x1="524" x2="524" y1="422" y2="455" /><line stroke="#000000" stroke-width="1" x1="528" x2="528" y1="422" y2="455" /><line stroke="#000000" stroke-width="1" x1="532" x2="532" y1="422" y2="455" /><line stroke="#7F7F7F" stroke-width="1" x1="530" x2="530" y1="419" y2="404" /><line stroke="#7F7F7F" stroke-width="1" x1="526" x2="526" y1="419" y2="404" /><line stroke="#7F7F7F" stroke-width="1" x1="522" x2="522" y1="419" y2="404" /><line stroke="#7F7F7F" stroke-width="1" x1="518" x2="518" y1="419" y2="404" /><line stroke="#7F7F7F" stroke-width="1" x1="514" x2="514" y1="419" y2="404" /><line stroke="#7F7F7F" stroke-width="1" x1="510" x2="510" y1="419" y2="404" /><line stroke="#7F7F7F" stroke-width="1" x1="506" x2="506" y1="419" y2="404" /><line stroke="#7F7F7F" stroke-width="1" x1="502" x2="502" y1="419" y2="404" /><line stroke="#7F7F7F" stroke-width="1" x1="498" x2="498" y1="419" y2="404" /><line stroke="#7F7F7F" stroke-width="1" x1="494" x2="494" y1="419" y2="404" /><line stroke="#7F7F7F" stroke-width="1" x1="490" x2="490" y1="419" y2="404" /><line stroke="#7F7F7F" stroke-width="1" x1="486" x2="486" y1="419" y2="404" /><line stroke="#7F7F7F" stroke-width="1" x1="482" x2="482" y1="419" y2="404" /><line stroke="#7F7F7F" stroke-width="1" x1="478" x2="478" y1="419" y2="404" /><line stroke="#7F7F7F" stroke-width="1" x1="474" x2="474" y1="419" y2="404" /><line stroke="#7F7F7F" stroke-width="1" x1="470" x2="470" y1="419" y2="404" /><line stroke="#7F7F7F" stroke-width="1" x1="466" x2="466" y1="419" y2="404" /><line stroke="#7F7F7F" stroke-width="1" x1="462" x2="462" y1="419" y2="404" /><line stroke="#7F7F7F" stroke-width="1" x1="458" x2="458" y1="419" y2="404" /><line stroke="#7F7F7F" stroke-width="1" x1="454" x2="454" y1="419" y2="404" /><polygon fill="#9B5509" points="538,404 446,404 446,401 538,401" stroke="#000000" stroke-width="1" /><polygon fill="#9B5509" points="538,410 446,410 446,413 538,413" stroke="#000000" stroke-width="1" /><polygon fill="#9B5509" points="538,419 446,419 446,422 538,422" stroke="#000000" stroke-width="1" /><polygon fill="#FFFFFF" points="602,441 611,441 611,413 602,413" stroke="#000000" stroke-width="1" /><text fill="#000000" font-family="Arial" font-size="10" stroke="none" transform="rotate(-90.0,600,439)" x="600" y="449.0">кассы</text><polyline fill="none" points="538,419 579,406" stroke="#000000" stroke-width="0.5" /><polyline fill="none" points="539,460 567,460" stroke="#000000" stroke-width="0.5" /><polygon fill="none" points="565,459 571,460 572,454 566,453" stroke="#000000" stroke-width="1" /><line stroke="#009900" stroke-width="1" x1="572" x2="568" y1="450" y2="449" /><line stroke="#009900" stroke-width="1" x1="573.052469623" x2="569.052469623" y1="446.140944715" y2="445.140944715" /><line stroke="#009900" stroke-width="1" x1="574.104939246" x2="570.104939246" y1="442.28188943" y2="441.28188943" /><line stroke="#009900" stroke-width="1" x1="575.15740887" x2="571.15740887" y1="438.422834145" y2="437.422834145" /><line stroke="#009900" stroke-width="1" x1="576.209878493" x2="572.209878493" y1="434.56377886" y2="433.56377886" /><line stroke="#009900" stroke-width="1" x1="577.262348116" x2="573.262348116" y1="430.704723575" y2="429.704723575" /><line stroke="#009900" stroke-width="1" x1="578.314817739" x2="574.314817739" y1="426.84566829" y2="425.84566829" /><line stroke="#009900" stroke-width="1" x1="579.367287362" x2="575.367287362" y1="422.986613005" y2="421.986613005" /><line stroke="#009900" stroke-width="1" x1="580.419756985" x2="576.419756985" y1="419.12755772" y2="418.12755772" /><line stroke="#009900" stroke-width="1" x1="581.472226609" x2="577.472226609" y1="415.268502435" y2="414.268502435" /><line stroke="#009900" stroke-width="1" x1="582.524696232" x2="578.524696232" y1="411.40944715" y2="410.40944715" /><line stroke="#009900" stroke-width="1" x1="583.577165855" x2="579.577165855" y1="407.550391866" y2="406.550391866" /><line stroke="#FF0000" stroke-width="1" x1="535" x2="531" y1="393" y2="393" /><line stroke="#FF0000" stroke-width="1" x1="535" x2="531" y1="389" y2="389" /><line stroke="#FF0000" stroke-width="1" x1="535" x2="531" y1="385" y2="385" /><line stroke="#FF0000" stroke-width="1" x1="535" x2="531" y1="381" y2="381" /><line stroke="#FF0000" stroke-width="1" x1="535" x2="531" y1="377" y2="377" /><line stroke="#FF0000" stroke-width="1" x1="535" x2="531" y1="373" y2="373" /><line stroke="#FF0000" stroke-width="1" x1="535" x2="531" y1="369" y2="369" /><line stroke="#FF0000" stroke-width="1" x1="535" x2="531" y1="365" y2="365" /><polyline fill="none" marker-end="url(#id256)" points="557,402 557,379 542,379" stroke="#FF0000" stroke-width="1" /><polyline fill="none" marker-end="url(#id256)" points="561,436 546,436" stroke="#009900" stroke-width="1" /><polyline fill="none" marker-end="url(#id256)" points="488,477 506,477" stroke="#009900" stroke-width="1" /><polygon fill="#34349C" points="574,365 578,365 578,366 574,366" stroke="#34349C" stroke-width="1" /><polygon fill="#FF0000" points="570,365 574,365 574,366 570,366" stroke="#FF0000" stroke-width="1" /><text fill="#00AFAF" font-family="Arial" font-size="15" stroke="none" transform="rotate(-90.0,-12,298)" x="-12" y="313.0">Фестивальная улица</text><text fill="#00AFAF" font-family="Arial" font-size="15" stroke="none" transform="rotate(-90.0,462,327)" x="462" y="342.0">Автобусы</text><text fill="#00AFAF" font-family="Arial" font-size="15" stroke="none" transform="rotate(-90.0,499,313)" x="499" y="328.0">Парк Дружбы</text><text fill="#00AFAF" font-family="Arial" font-size="15" stroke="none" transform="rotate(-90.0,465,676)" x="465" y="691.0">&lt;&lt; Речной вокзал</text></g></svg>