<?xml version="1.0" encoding="utf-8" ?>
<svg baseProfile="full" height="100%" version="1.1" width="100%" xmlns="http://www.w3.org/2000/svg" xmlns:ev="http://www.w3.org/2001/xml-events" xmlns:xlink="http://www.w3.org/1999/xlink"><defs><marker id="id154" markerHeight="3" markerUnits="strokeWidth" markerWidth="4" orient="auto" refX="0" refY="5" viewBox="0,0,10,10"><path d="M 0 0 L 10 5 L 0 10 z" /></marker></defs><g transform="scale(0.5)"><rect fill="none" height="615" stroke="none" width="664" x="0" y="0" /><polyline fill="none" points="8,93 22,90 40,82 69,68 94,68 114,90 109,128 94,176 66,223 44,253 22,284 20,314 37,358 72,382 118,387 162,377 194,359 220,328 238,296 256,262 280,236" stroke="#76C4F5" stroke-width="28" /><polyline fill="none" points="277,238 312,214 354,185 400,170 443,173 480,198 496,248 500,268 512,286 535,296 547,307" stroke="#76C4F5" stroke-width="20" /><polyline fill="none" points="276,240 286,208 301,178 337,150 380,138 422,138 457,145 488,162 512,199 524,240 534,272 548,319 534,346 518,358 511,372 508,396 501,416 484,430 458,436 434,436 410,462 410,481 411,510 416,526 434,539 460,538 478,524 498,509 522,487" stroke="#76C4F5" stroke-width="24" /><polyline fill="none" points="450,539 488,536 531,531 570,521 602,510 598,487 560,468" stroke="#76C4F5" stroke-width="24" /><polyline fill="none" points="567,520 600,510 625,521 626,554 620,570 622,584 626,594 623,596 613,590 588,588 560,593 535,602 530,608" stroke="#76C4F5" stroke-width="25" /><text fill="#040464" font-family="Arial" font-size="10" stroke="none" x="181" y="460.0">Примечания:</text><text fill="#040464" font-family="Arial" font-size="10" stroke="none" x="181" y="480.0">"1. Время ожидания"</text><text fill="#040464" font-family="Arial" font-size="10" stroke="none" x="181" y="490.0">принимается за 15 минут</text><text fill="#040464" font-family="Arial" font-size="10" stroke="none" x="181" y="510.0">"2. У автора нет данных о"</text><text fill="#040464" font-family="Arial" font-size="10" stroke="none" x="181" y="520.0">времени движения между остановками</text><text fill="#040464" font-family="Arial" font-size="10" stroke="none" x="181" y="540.0">Если у Вас есть эта информация -</text><text fill="#040464" font-family="Arial" font-size="10" stroke="none" x="181" y="550.0">пришлите ее автору.</text><text fill="#040464" font-family="Arial" font-size="30" stroke="none" x="89" y="32.0">Схема движения речных трамваев</text></g></svg>