<svg xmlns="http://www.w3.org/2000/svg" version="1.1">
<defs>
    <marker id="arrow"
      viewBox="0 0 10 10" refX="0" refY="5"
      markerUnits="strokeWidth"
      markerWidth="4" markerHeight="3"
      orient="auto">
      <path d="M 0 0 L 10 5 L 0 10 z" />
    </marker>
  </defs>
<g stroke="#000000" fill="none" stroke-opacity="1.0" fill-opacity="1.0" transform="scale(0.5)">
<rect x="0" y="0" width="550" height="440" stroke-width="0" fill="none" />
<g stroke="#000000" fill="none" stroke-opacity="1.0" fill-opacity="1.0" transform="scale(0.5)">
</g>
<g transform="rotate(-25.0 275 220)" >
<g stroke="#000000" fill="none" stroke-opacity="1.0" fill-opacity="1.0" transform="scale(0.5)">
</g>
<g stroke="#0" fill="none" stroke-opacity="1.0" fill-opacity="1.0" transform="scale(0.5)">
<line x1="480" y1="200" x2="33" y2="200" stroke-width="1" />
<line x1="480" y1="194" x2="33" y2="194" stroke-width="1" />
<line x1="478" y1="201.5" x2="478" y2="192.5" stroke-width="1" />
<line x1="474" y1="201.5" x2="474" y2="192.5" stroke-width="1" />
<line x1="470" y1="201.5" x2="470" y2="192.5" stroke-width="1" />
<line x1="466" y1="201.5" x2="466" y2="192.5" stroke-width="1" />
<line x1="462" y1="201.5" x2="462" y2="192.5" stroke-width="1" />
<line x1="458" y1="201.5" x2="458" y2="192.5" stroke-width="1" />
<line x1="454" y1="201.5" x2="454" y2="192.5" stroke-width="1" />
<line x1="450" y1="201.5" x2="450" y2="192.5" stroke-width="1" />
<line x1="446" y1="201.5" x2="446" y2="192.5" stroke-width="1" />
<line x1="442" y1="201.5" x2="442" y2="192.5" stroke-width="1" />
<line x1="438" y1="201.5" x2="438" y2="192.5" stroke-width="1" />
<line x1="434" y1="201.5" x2="434" y2="192.5" stroke-width="1" />
<line x1="430" y1="201.5" x2="430" y2="192.5" stroke-width="1" />
<line x1="426" y1="201.5" x2="426" y2="192.5" stroke-width="1" />
<line x1="422" y1="201.5" x2="422" y2="192.5" stroke-width="1" />
<line x1="418" y1="201.5" x2="418" y2="192.5" stroke-width="1" />
<line x1="414" y1="201.5" x2="414" y2="192.5" stroke-width="1" />
<line x1="410" y1="201.5" x2="410" y2="192.5" stroke-width="1" />
<line x1="406" y1="201.5" x2="406" y2="192.5" stroke-width="1" />
<line x1="402" y1="201.5" x2="402" y2="192.5" stroke-width="1" />
<line x1="398" y1="201.5" x2="398" y2="192.5" stroke-width="1" />
<line x1="394" y1="201.5" x2="394" y2="192.5" stroke-width="1" />
<line x1="390" y1="201.5" x2="390" y2="192.5" stroke-width="1" />
<line x1="386" y1="201.5" x2="386" y2="192.5" stroke-width="1" />
<line x1="382" y1="201.5" x2="382" y2="192.5" stroke-width="1" />
<line x1="378" y1="201.5" x2="378" y2="192.5" stroke-width="1" />
<line x1="374" y1="201.5" x2="374" y2="192.5" stroke-width="1" />
<line x1="370" y1="201.5" x2="370" y2="192.5" stroke-width="1" />
<line x1="366" y1="201.5" x2="366" y2="192.5" stroke-width="1" />
<line x1="362" y1="201.5" x2="362" y2="192.5" stroke-width="1" />
<line x1="358" y1="201.5" x2="358" y2="192.5" stroke-width="1" />
<line x1="354" y1="201.5" x2="354" y2="192.5" stroke-width="1" />
<line x1="350" y1="201.5" x2="350" y2="192.5" stroke-width="1" />
<line x1="346" y1="201.5" x2="346" y2="192.5" stroke-width="1" />
<line x1="342" y1="201.5" x2="342" y2="192.5" stroke-width="1" />
<line x1="338" y1="201.5" x2="338" y2="192.5" stroke-width="1" />
<line x1="334" y1="201.5" x2="334" y2="192.5" stroke-width="1" />
<line x1="330" y1="201.5" x2="330" y2="192.5" stroke-width="1" />
<line x1="326" y1="201.5" x2="326" y2="192.5" stroke-width="1" />
<line x1="322" y1="201.5" x2="322" y2="192.5" stroke-width="1" />
<line x1="318" y1="201.5" x2="318" y2="192.5" stroke-width="1" />
<line x1="314" y1="201.5" x2="314" y2="192.5" stroke-width="1" />
<line x1="310" y1="201.5" x2="310" y2="192.5" stroke-width="1" />
<line x1="306" y1="201.5" x2="306" y2="192.5" stroke-width="1" />
<line x1="302" y1="201.5" x2="302" y2="192.5" stroke-width="1" />
<line x1="298" y1="201.5" x2="298" y2="192.5" stroke-width="1" />
<line x1="294" y1="201.5" x2="294" y2="192.5" stroke-width="1" />
<line x1="290" y1="201.5" x2="290" y2="192.5" stroke-width="1" />
<line x1="286" y1="201.5" x2="286" y2="192.5" stroke-width="1" />
<line x1="282" y1="201.5" x2="282" y2="192.5" stroke-width="1" />
<line x1="278" y1="201.5" x2="278" y2="192.5" stroke-width="1" />
<line x1="274" y1="201.5" x2="274" y2="192.5" stroke-width="1" />
<line x1="270" y1="201.5" x2="270" y2="192.5" stroke-width="1" />
<line x1="266" y1="201.5" x2="266" y2="192.5" stroke-width="1" />
<line x1="262" y1="201.5" x2="262" y2="192.5" stroke-width="1" />
<line x1="258" y1="201.5" x2="258" y2="192.5" stroke-width="1" />
<line x1="254" y1="201.5" x2="254" y2="192.5" stroke-width="1" />
<line x1="250" y1="201.5" x2="250" y2="192.5" stroke-width="1" />
<line x1="246" y1="201.5" x2="246" y2="192.5" stroke-width="1" />
<line x1="242" y1="201.5" x2="242" y2="192.5" stroke-width="1" />
<line x1="238" y1="201.5" x2="238" y2="192.5" stroke-width="1" />
<line x1="234" y1="201.5" x2="234" y2="192.5" stroke-width="1" />
<line x1="230" y1="201.5" x2="230" y2="192.5" stroke-width="1" />
<line x1="226" y1="201.5" x2="226" y2="192.5" stroke-width="1" />
<line x1="222" y1="201.5" x2="222" y2="192.5" stroke-width="1" />
<line x1="218" y1="201.5" x2="218" y2="192.5" stroke-width="1" />
<line x1="214" y1="201.5" x2="214" y2="192.5" stroke-width="1" />
<line x1="210" y1="201.5" x2="210" y2="192.5" stroke-width="1" />
<line x1="206" y1="201.5" x2="206" y2="192.5" stroke-width="1" />
<line x1="202" y1="201.5" x2="202" y2="192.5" stroke-width="1" />
<line x1="198" y1="201.5" x2="198" y2="192.5" stroke-width="1" />
<line x1="194" y1="201.5" x2="194" y2="192.5" stroke-width="1" />
<line x1="190" y1="201.5" x2="190" y2="192.5" stroke-width="1" />
<line x1="186" y1="201.5" x2="186" y2="192.5" stroke-width="1" />
<line x1="182" y1="201.5" x2="182" y2="192.5" stroke-width="1" />
<line x1="178" y1="201.5" x2="178" y2="192.5" stroke-width="1" />
<line x1="174" y1="201.5" x2="174" y2="192.5" stroke-width="1" />
<line x1="170" y1="201.5" x2="170" y2="192.5" stroke-width="1" />
<line x1="166" y1="201.5" x2="166" y2="192.5" stroke-width="1" />
<line x1="162" y1="201.5" x2="162" y2="192.5" stroke-width="1" />
<line x1="158" y1="201.5" x2="158" y2="192.5" stroke-width="1" />
<line x1="154" y1="201.5" x2="154" y2="192.5" stroke-width="1" />
<line x1="150" y1="201.5" x2="150" y2="192.5" stroke-width="1" />
<line x1="146" y1="201.5" x2="146" y2="192.5" stroke-width="1" />
<line x1="142" y1="201.5" x2="142" y2="192.5" stroke-width="1" />
<line x1="138" y1="201.5" x2="138" y2="192.5" stroke-width="1" />
<line x1="134" y1="201.5" x2="134" y2="192.5" stroke-width="1" />
<line x1="130" y1="201.5" x2="130" y2="192.5" stroke-width="1" />
<line x1="126" y1="201.5" x2="126" y2="192.5" stroke-width="1" />
<line x1="122" y1="201.5" x2="122" y2="192.5" stroke-width="1" />
<line x1="118" y1="201.5" x2="118" y2="192.5" stroke-width="1" />
<line x1="114" y1="201.5" x2="114" y2="192.5" stroke-width="1" />
<line x1="110" y1="201.5" x2="110" y2="192.5" stroke-width="1" />
<line x1="106" y1="201.5" x2="106" y2="192.5" stroke-width="1" />
<line x1="102" y1="201.5" x2="102" y2="192.5" stroke-width="1" />
<line x1="98" y1="201.5" x2="98" y2="192.5" stroke-width="1" />
<line x1="94" y1="201.5" x2="94" y2="192.5" stroke-width="1" />
<line x1="90" y1="201.5" x2="90" y2="192.5" stroke-width="1" />
<line x1="86" y1="201.5" x2="86" y2="192.5" stroke-width="1" />
<line x1="82" y1="201.5" x2="82" y2="192.5" stroke-width="1" />
<line x1="78" y1="201.5" x2="78" y2="192.5" stroke-width="1" />
<line x1="74" y1="201.5" x2="74" y2="192.5" stroke-width="1" />
<line x1="70" y1="201.5" x2="70" y2="192.5" stroke-width="1" />
<line x1="66" y1="201.5" x2="66" y2="192.5" stroke-width="1" />
<line x1="62" y1="201.5" x2="62" y2="192.5" stroke-width="1" />
<line x1="58" y1="201.5" x2="58" y2="192.5" stroke-width="1" />
<line x1="54" y1="201.5" x2="54" y2="192.5" stroke-width="1" />
<line x1="50" y1="201.5" x2="50" y2="192.5" stroke-width="1" />
<line x1="46" y1="201.5" x2="46" y2="192.5" stroke-width="1" />
<line x1="42" y1="201.5" x2="42" y2="192.5" stroke-width="1" />
<line x1="38" y1="201.5" x2="38" y2="192.5" stroke-width="1" />
<line x1="34" y1="201.5" x2="34" y2="192.5" stroke-width="1" />
</g>
<g stroke="#0" fill="none" stroke-opacity="1.0" fill-opacity="1.0" transform="scale(0.5)">
<line x1="480" y1="216" x2="33" y2="216" stroke-width="1" />
<line x1="480" y1="210" x2="33" y2="210" stroke-width="1" />
<line x1="478" y1="217.5" x2="478" y2="208.5" stroke-width="1" />
<line x1="474" y1="217.5" x2="474" y2="208.5" stroke-width="1" />
<line x1="470" y1="217.5" x2="470" y2="208.5" stroke-width="1" />
<line x1="466" y1="217.5" x2="466" y2="208.5" stroke-width="1" />
<line x1="462" y1="217.5" x2="462" y2="208.5" stroke-width="1" />
<line x1="458" y1="217.5" x2="458" y2="208.5" stroke-width="1" />
<line x1="454" y1="217.5" x2="454" y2="208.5" stroke-width="1" />
<line x1="450" y1="217.5" x2="450" y2="208.5" stroke-width="1" />
<line x1="446" y1="217.5" x2="446" y2="208.5" stroke-width="1" />
<line x1="442" y1="217.5" x2="442" y2="208.5" stroke-width="1" />
<line x1="438" y1="217.5" x2="438" y2="208.5" stroke-width="1" />
<line x1="434" y1="217.5" x2="434" y2="208.5" stroke-width="1" />
<line x1="430" y1="217.5" x2="430" y2="208.5" stroke-width="1" />
<line x1="426" y1="217.5" x2="426" y2="208.5" stroke-width="1" />
<line x1="422" y1="217.5" x2="422" y2="208.5" stroke-width="1" />
<line x1="418" y1="217.5" x2="418" y2="208.5" stroke-width="1" />
<line x1="414" y1="217.5" x2="414" y2="208.5" stroke-width="1" />
<line x1="410" y1="217.5" x2="410" y2="208.5" stroke-width="1" />
<line x1="406" y1="217.5" x2="406" y2="208.5" stroke-width="1" />
<line x1="402" y1="217.5" x2="402" y2="208.5" stroke-width="1" />
<line x1="398" y1="217.5" x2="398" y2="208.5" stroke-width="1" />
<line x1="394" y1="217.5" x2="394" y2="208.5" stroke-width="1" />
<line x1="390" y1="217.5" x2="390" y2="208.5" stroke-width="1" />
<line x1="386" y1="217.5" x2="386" y2="208.5" stroke-width="1" />
<line x1="382" y1="217.5" x2="382" y2="208.5" stroke-width="1" />
<line x1="378" y1="217.5" x2="378" y2="208.5" stroke-width="1" />
<line x1="374" y1="217.5" x2="374" y2="208.5" stroke-width="1" />
<line x1="370" y1="217.5" x2="370" y2="208.5" stroke-width="1" />
<line x1="366" y1="217.5" x2="366" y2="208.5" stroke-width="1" />
<line x1="362" y1="217.5" x2="362" y2="208.5" stroke-width="1" />
<line x1="358" y1="217.5" x2="358" y2="208.5" stroke-width="1" />
<line x1="354" y1="217.5" x2="354" y2="208.5" stroke-width="1" />
<line x1="350" y1="217.5" x2="350" y2="208.5" stroke-width="1" />
<line x1="346" y1="217.5" x2="346" y2="208.5" stroke-width="1" />
<line x1="342" y1="217.5" x2="342" y2="208.5" stroke-width="1" />
<line x1="338" y1="217.5" x2="338" y2="208.5" stroke-width="1" />
<line x1="334" y1="217.5" x2="334" y2="208.5" stroke-width="1" />
<line x1="330" y1="217.5" x2="330" y2="208.5" stroke-width="1" />
<line x1="326" y1="217.5" x2="326" y2="208.5" stroke-width="1" />
<line x1="322" y1="217.5" x2="322" y2="208.5" stroke-width="1" />
<line x1="318" y1="217.5" x2="318" y2="208.5" stroke-width="1" />
<line x1="314" y1="217.5" x2="314" y2="208.5" stroke-width="1" />
<line x1="310" y1="217.5" x2="310" y2="208.5" stroke-width="1" />
<line x1="306" y1="217.5" x2="306" y2="208.5" stroke-width="1" />
<line x1="302" y1="217.5" x2="302" y2="208.5" stroke-width="1" />
<line x1="298" y1="217.5" x2="298" y2="208.5" stroke-width="1" />
<line x1="294" y1="217.5" x2="294" y2="208.5" stroke-width="1" />
<line x1="290" y1="217.5" x2="290" y2="208.5" stroke-width="1" />
<line x1="286" y1="217.5" x2="286" y2="208.5" stroke-width="1" />
<line x1="282" y1="217.5" x2="282" y2="208.5" stroke-width="1" />
<line x1="278" y1="217.5" x2="278" y2="208.5" stroke-width="1" />
<line x1="274" y1="217.5" x2="274" y2="208.5" stroke-width="1" />
<line x1="270" y1="217.5" x2="270" y2="208.5" stroke-width="1" />
<line x1="266" y1="217.5" x2="266" y2="208.5" stroke-width="1" />
<line x1="262" y1="217.5" x2="262" y2="208.5" stroke-width="1" />
<line x1="258" y1="217.5" x2="258" y2="208.5" stroke-width="1" />
<line x1="254" y1="217.5" x2="254" y2="208.5" stroke-width="1" />
<line x1="250" y1="217.5" x2="250" y2="208.5" stroke-width="1" />
<line x1="246" y1="217.5" x2="246" y2="208.5" stroke-width="1" />
<line x1="242" y1="217.5" x2="242" y2="208.5" stroke-width="1" />
<line x1="238" y1="217.5" x2="238" y2="208.5" stroke-width="1" />
<line x1="234" y1="217.5" x2="234" y2="208.5" stroke-width="1" />
<line x1="230" y1="217.5" x2="230" y2="208.5" stroke-width="1" />
<line x1="226" y1="217.5" x2="226" y2="208.5" stroke-width="1" />
<line x1="222" y1="217.5" x2="222" y2="208.5" stroke-width="1" />
<line x1="218" y1="217.5" x2="218" y2="208.5" stroke-width="1" />
<line x1="214" y1="217.5" x2="214" y2="208.5" stroke-width="1" />
<line x1="210" y1="217.5" x2="210" y2="208.5" stroke-width="1" />
<line x1="206" y1="217.5" x2="206" y2="208.5" stroke-width="1" />
<line x1="202" y1="217.5" x2="202" y2="208.5" stroke-width="1" />
<line x1="198" y1="217.5" x2="198" y2="208.5" stroke-width="1" />
<line x1="194" y1="217.5" x2="194" y2="208.5" stroke-width="1" />
<line x1="190" y1="217.5" x2="190" y2="208.5" stroke-width="1" />
<line x1="186" y1="217.5" x2="186" y2="208.5" stroke-width="1" />
<line x1="182" y1="217.5" x2="182" y2="208.5" stroke-width="1" />
<line x1="178" y1="217.5" x2="178" y2="208.5" stroke-width="1" />
<line x1="174" y1="217.5" x2="174" y2="208.5" stroke-width="1" />
<line x1="170" y1="217.5" x2="170" y2="208.5" stroke-width="1" />
<line x1="166" y1="217.5" x2="166" y2="208.5" stroke-width="1" />
<line x1="162" y1="217.5" x2="162" y2="208.5" stroke-width="1" />
<line x1="158" y1="217.5" x2="158" y2="208.5" stroke-width="1" />
<line x1="154" y1="217.5" x2="154" y2="208.5" stroke-width="1" />
<line x1="150" y1="217.5" x2="150" y2="208.5" stroke-width="1" />
<line x1="146" y1="217.5" x2="146" y2="208.5" stroke-width="1" />
<line x1="142" y1="217.5" x2="142" y2="208.5" stroke-width="1" />
<line x1="138" y1="217.5" x2="138" y2="208.5" stroke-width="1" />
<line x1="134" y1="217.5" x2="134" y2="208.5" stroke-width="1" />
<line x1="130" y1="217.5" x2="130" y2="208.5" stroke-width="1" />
<line x1="126" y1="217.5" x2="126" y2="208.5" stroke-width="1" />
<line x1="122" y1="217.5" x2="122" y2="208.5" stroke-width="1" />
<line x1="118" y1="217.5" x2="118" y2="208.5" stroke-width="1" />
<line x1="114" y1="217.5" x2="114" y2="208.5" stroke-width="1" />
<line x1="110" y1="217.5" x2="110" y2="208.5" stroke-width="1" />
<line x1="106" y1="217.5" x2="106" y2="208.5" stroke-width="1" />
<line x1="102" y1="217.5" x2="102" y2="208.5" stroke-width="1" />
<line x1="98" y1="217.5" x2="98" y2="208.5" stroke-width="1" />
<line x1="94" y1="217.5" x2="94" y2="208.5" stroke-width="1" />
<line x1="90" y1="217.5" x2="90" y2="208.5" stroke-width="1" />
<line x1="86" y1="217.5" x2="86" y2="208.5" stroke-width="1" />
<line x1="82" y1="217.5" x2="82" y2="208.5" stroke-width="1" />
<line x1="78" y1="217.5" x2="78" y2="208.5" stroke-width="1" />
<line x1="74" y1="217.5" x2="74" y2="208.5" stroke-width="1" />
<line x1="70" y1="217.5" x2="70" y2="208.5" stroke-width="1" />
<line x1="66" y1="217.5" x2="66" y2="208.5" stroke-width="1" />
<line x1="62" y1="217.5" x2="62" y2="208.5" stroke-width="1" />
<line x1="58" y1="217.5" x2="58" y2="208.5" stroke-width="1" />
<line x1="54" y1="217.5" x2="54" y2="208.5" stroke-width="1" />
<line x1="50" y1="217.5" x2="50" y2="208.5" stroke-width="1" />
<line x1="46" y1="217.5" x2="46" y2="208.5" stroke-width="1" />
<line x1="42" y1="217.5" x2="42" y2="208.5" stroke-width="1" />
<line x1="38" y1="217.5" x2="38" y2="208.5" stroke-width="1" />
<line x1="34" y1="217.5" x2="34" y2="208.5" stroke-width="1" />
</g>
<g stroke="#0" fill="none" stroke-opacity="1.0" fill-opacity="1.0" transform="scale(0.5)">
<line x1="480" y1="120" x2="34" y2="120" stroke-width="1" />
<line x1="480" y1="114" x2="34" y2="114" stroke-width="1" />
<line x1="478" y1="121.5" x2="478" y2="112.5" stroke-width="1" />
<line x1="474" y1="121.5" x2="474" y2="112.5" stroke-width="1" />
<line x1="470" y1="121.5" x2="470" y2="112.5" stroke-width="1" />
<line x1="466" y1="121.5" x2="466" y2="112.5" stroke-width="1" />
<line x1="462" y1="121.5" x2="462" y2="112.5" stroke-width="1" />
<line x1="458" y1="121.5" x2="458" y2="112.5" stroke-width="1" />
<line x1="454" y1="121.5" x2="454" y2="112.5" stroke-width="1" />
<line x1="450" y1="121.5" x2="450" y2="112.5" stroke-width="1" />
<line x1="446" y1="121.5" x2="446" y2="112.5" stroke-width="1" />
<line x1="442" y1="121.5" x2="442" y2="112.5" stroke-width="1" />
<line x1="438" y1="121.5" x2="438" y2="112.5" stroke-width="1" />
<line x1="434" y1="121.5" x2="434" y2="112.5" stroke-width="1" />
<line x1="430" y1="121.5" x2="430" y2="112.5" stroke-width="1" />
<line x1="426" y1="121.5" x2="426" y2="112.5" stroke-width="1" />
<line x1="422" y1="121.5" x2="422" y2="112.5" stroke-width="1" />
<line x1="418" y1="121.5" x2="418" y2="112.5" stroke-width="1" />
<line x1="414" y1="121.5" x2="414" y2="112.5" stroke-width="1" />
<line x1="410" y1="121.5" x2="410" y2="112.5" stroke-width="1" />
<line x1="406" y1="121.5" x2="406" y2="112.5" stroke-width="1" />
<line x1="402" y1="121.5" x2="402" y2="112.5" stroke-width="1" />
<line x1="398" y1="121.5" x2="398" y2="112.5" stroke-width="1" />
<line x1="394" y1="121.5" x2="394" y2="112.5" stroke-width="1" />
<line x1="390" y1="121.5" x2="390" y2="112.5" stroke-width="1" />
<line x1="386" y1="121.5" x2="386" y2="112.5" stroke-width="1" />
<line x1="382" y1="121.5" x2="382" y2="112.5" stroke-width="1" />
<line x1="378" y1="121.5" x2="378" y2="112.5" stroke-width="1" />
<line x1="374" y1="121.5" x2="374" y2="112.5" stroke-width="1" />
<line x1="370" y1="121.5" x2="370" y2="112.5" stroke-width="1" />
<line x1="366" y1="121.5" x2="366" y2="112.5" stroke-width="1" />
<line x1="362" y1="121.5" x2="362" y2="112.5" stroke-width="1" />
<line x1="358" y1="121.5" x2="358" y2="112.5" stroke-width="1" />
<line x1="354" y1="121.5" x2="354" y2="112.5" stroke-width="1" />
<line x1="350" y1="121.5" x2="350" y2="112.5" stroke-width="1" />
<line x1="346" y1="121.5" x2="346" y2="112.5" stroke-width="1" />
<line x1="342" y1="121.5" x2="342" y2="112.5" stroke-width="1" />
<line x1="338" y1="121.5" x2="338" y2="112.5" stroke-width="1" />
<line x1="334" y1="121.5" x2="334" y2="112.5" stroke-width="1" />
<line x1="330" y1="121.5" x2="330" y2="112.5" stroke-width="1" />
<line x1="326" y1="121.5" x2="326" y2="112.5" stroke-width="1" />
<line x1="322" y1="121.5" x2="322" y2="112.5" stroke-width="1" />
<line x1="318" y1="121.5" x2="318" y2="112.5" stroke-width="1" />
<line x1="314" y1="121.5" x2="314" y2="112.5" stroke-width="1" />
<line x1="310" y1="121.5" x2="310" y2="112.5" stroke-width="1" />
<line x1="306" y1="121.5" x2="306" y2="112.5" stroke-width="1" />
<line x1="302" y1="121.5" x2="302" y2="112.5" stroke-width="1" />
<line x1="298" y1="121.5" x2="298" y2="112.5" stroke-width="1" />
<line x1="294" y1="121.5" x2="294" y2="112.5" stroke-width="1" />
<line x1="290" y1="121.5" x2="290" y2="112.5" stroke-width="1" />
<line x1="286" y1="121.5" x2="286" y2="112.5" stroke-width="1" />
<line x1="282" y1="121.5" x2="282" y2="112.5" stroke-width="1" />
<line x1="278" y1="121.5" x2="278" y2="112.5" stroke-width="1" />
<line x1="274" y1="121.5" x2="274" y2="112.5" stroke-width="1" />
<line x1="270" y1="121.5" x2="270" y2="112.5" stroke-width="1" />
<line x1="266" y1="121.5" x2="266" y2="112.5" stroke-width="1" />
<line x1="262" y1="121.5" x2="262" y2="112.5" stroke-width="1" />
<line x1="258" y1="121.5" x2="258" y2="112.5" stroke-width="1" />
<line x1="254" y1="121.5" x2="254" y2="112.5" stroke-width="1" />
<line x1="250" y1="121.5" x2="250" y2="112.5" stroke-width="1" />
<line x1="246" y1="121.5" x2="246" y2="112.5" stroke-width="1" />
<line x1="242" y1="121.5" x2="242" y2="112.5" stroke-width="1" />
<line x1="238" y1="121.5" x2="238" y2="112.5" stroke-width="1" />
<line x1="234" y1="121.5" x2="234" y2="112.5" stroke-width="1" />
<line x1="230" y1="121.5" x2="230" y2="112.5" stroke-width="1" />
<line x1="226" y1="121.5" x2="226" y2="112.5" stroke-width="1" />
<line x1="222" y1="121.5" x2="222" y2="112.5" stroke-width="1" />
<line x1="218" y1="121.5" x2="218" y2="112.5" stroke-width="1" />
<line x1="214" y1="121.5" x2="214" y2="112.5" stroke-width="1" />
<line x1="210" y1="121.5" x2="210" y2="112.5" stroke-width="1" />
<line x1="206" y1="121.5" x2="206" y2="112.5" stroke-width="1" />
<line x1="202" y1="121.5" x2="202" y2="112.5" stroke-width="1" />
<line x1="198" y1="121.5" x2="198" y2="112.5" stroke-width="1" />
<line x1="194" y1="121.5" x2="194" y2="112.5" stroke-width="1" />
<line x1="190" y1="121.5" x2="190" y2="112.5" stroke-width="1" />
<line x1="186" y1="121.5" x2="186" y2="112.5" stroke-width="1" />
<line x1="182" y1="121.5" x2="182" y2="112.5" stroke-width="1" />
<line x1="178" y1="121.5" x2="178" y2="112.5" stroke-width="1" />
<line x1="174" y1="121.5" x2="174" y2="112.5" stroke-width="1" />
<line x1="170" y1="121.5" x2="170" y2="112.5" stroke-width="1" />
<line x1="166" y1="121.5" x2="166" y2="112.5" stroke-width="1" />
<line x1="162" y1="121.5" x2="162" y2="112.5" stroke-width="1" />
<line x1="158" y1="121.5" x2="158" y2="112.5" stroke-width="1" />
<line x1="154" y1="121.5" x2="154" y2="112.5" stroke-width="1" />
<line x1="150" y1="121.5" x2="150" y2="112.5" stroke-width="1" />
<line x1="146" y1="121.5" x2="146" y2="112.5" stroke-width="1" />
<line x1="142" y1="121.5" x2="142" y2="112.5" stroke-width="1" />
<line x1="138" y1="121.5" x2="138" y2="112.5" stroke-width="1" />
<line x1="134" y1="121.5" x2="134" y2="112.5" stroke-width="1" />
<line x1="130" y1="121.5" x2="130" y2="112.5" stroke-width="1" />
<line x1="126" y1="121.5" x2="126" y2="112.5" stroke-width="1" />
<line x1="122" y1="121.5" x2="122" y2="112.5" stroke-width="1" />
<line x1="118" y1="121.5" x2="118" y2="112.5" stroke-width="1" />
<line x1="114" y1="121.5" x2="114" y2="112.5" stroke-width="1" />
<line x1="110" y1="121.5" x2="110" y2="112.5" stroke-width="1" />
<line x1="106" y1="121.5" x2="106" y2="112.5" stroke-width="1" />
<line x1="102" y1="121.5" x2="102" y2="112.5" stroke-width="1" />
<line x1="98" y1="121.5" x2="98" y2="112.5" stroke-width="1" />
<line x1="94" y1="121.5" x2="94" y2="112.5" stroke-width="1" />
<line x1="90" y1="121.5" x2="90" y2="112.5" stroke-width="1" />
<line x1="86" y1="121.5" x2="86" y2="112.5" stroke-width="1" />
<line x1="82" y1="121.5" x2="82" y2="112.5" stroke-width="1" />
<line x1="78" y1="121.5" x2="78" y2="112.5" stroke-width="1" />
<line x1="74" y1="121.5" x2="74" y2="112.5" stroke-width="1" />
<line x1="70" y1="121.5" x2="70" y2="112.5" stroke-width="1" />
<line x1="66" y1="121.5" x2="66" y2="112.5" stroke-width="1" />
<line x1="62" y1="121.5" x2="62" y2="112.5" stroke-width="1" />
<line x1="58" y1="121.5" x2="58" y2="112.5" stroke-width="1" />
<line x1="54" y1="121.5" x2="54" y2="112.5" stroke-width="1" />
<line x1="50" y1="121.5" x2="50" y2="112.5" stroke-width="1" />
<line x1="46" y1="121.5" x2="46" y2="112.5" stroke-width="1" />
<line x1="42" y1="121.5" x2="42" y2="112.5" stroke-width="1" />
<line x1="38" y1="121.5" x2="38" y2="112.5" stroke-width="1" />
<line x1="34" y1="121.5" x2="34" y2="112.5" stroke-width="1" />
</g>
<g stroke="#0" fill="none" stroke-opacity="1.0" fill-opacity="1.0" transform="scale(0.5)">
<line x1="480" y1="135" x2="34" y2="135" stroke-width="1" />
<line x1="480" y1="129" x2="34" y2="129" stroke-width="1" />
<line x1="478" y1="136.5" x2="478" y2="127.5" stroke-width="1" />
<line x1="474" y1="136.5" x2="474" y2="127.5" stroke-width="1" />
<line x1="470" y1="136.5" x2="470" y2="127.5" stroke-width="1" />
<line x1="466" y1="136.5" x2="466" y2="127.5" stroke-width="1" />
<line x1="462" y1="136.5" x2="462" y2="127.5" stroke-width="1" />
<line x1="458" y1="136.5" x2="458" y2="127.5" stroke-width="1" />
<line x1="454" y1="136.5" x2="454" y2="127.5" stroke-width="1" />
<line x1="450" y1="136.5" x2="450" y2="127.5" stroke-width="1" />
<line x1="446" y1="136.5" x2="446" y2="127.5" stroke-width="1" />
<line x1="442" y1="136.5" x2="442" y2="127.5" stroke-width="1" />
<line x1="438" y1="136.5" x2="438" y2="127.5" stroke-width="1" />
<line x1="434" y1="136.5" x2="434" y2="127.5" stroke-width="1" />
<line x1="430" y1="136.5" x2="430" y2="127.5" stroke-width="1" />
<line x1="426" y1="136.5" x2="426" y2="127.5" stroke-width="1" />
<line x1="422" y1="136.5" x2="422" y2="127.5" stroke-width="1" />
<line x1="418" y1="136.5" x2="418" y2="127.5" stroke-width="1" />
<line x1="414" y1="136.5" x2="414" y2="127.5" stroke-width="1" />
<line x1="410" y1="136.5" x2="410" y2="127.5" stroke-width="1" />
<line x1="406" y1="136.5" x2="406" y2="127.5" stroke-width="1" />
<line x1="402" y1="136.5" x2="402" y2="127.5" stroke-width="1" />
<line x1="398" y1="136.5" x2="398" y2="127.5" stroke-width="1" />
<line x1="394" y1="136.5" x2="394" y2="127.5" stroke-width="1" />
<line x1="390" y1="136.5" x2="390" y2="127.5" stroke-width="1" />
<line x1="386" y1="136.5" x2="386" y2="127.5" stroke-width="1" />
<line x1="382" y1="136.5" x2="382" y2="127.5" stroke-width="1" />
<line x1="378" y1="136.5" x2="378" y2="127.5" stroke-width="1" />
<line x1="374" y1="136.5" x2="374" y2="127.5" stroke-width="1" />
<line x1="370" y1="136.5" x2="370" y2="127.5" stroke-width="1" />
<line x1="366" y1="136.5" x2="366" y2="127.5" stroke-width="1" />
<line x1="362" y1="136.5" x2="362" y2="127.5" stroke-width="1" />
<line x1="358" y1="136.5" x2="358" y2="127.5" stroke-width="1" />
<line x1="354" y1="136.5" x2="354" y2="127.5" stroke-width="1" />
<line x1="350" y1="136.5" x2="350" y2="127.5" stroke-width="1" />
<line x1="346" y1="136.5" x2="346" y2="127.5" stroke-width="1" />
<line x1="342" y1="136.5" x2="342" y2="127.5" stroke-width="1" />
<line x1="338" y1="136.5" x2="338" y2="127.5" stroke-width="1" />
<line x1="334" y1="136.5" x2="334" y2="127.5" stroke-width="1" />
<line x1="330" y1="136.5" x2="330" y2="127.5" stroke-width="1" />
<line x1="326" y1="136.5" x2="326" y2="127.5" stroke-width="1" />
<line x1="322" y1="136.5" x2="322" y2="127.5" stroke-width="1" />
<line x1="318" y1="136.5" x2="318" y2="127.5" stroke-width="1" />
<line x1="314" y1="136.5" x2="314" y2="127.5" stroke-width="1" />
<line x1="310" y1="136.5" x2="310" y2="127.5" stroke-width="1" />
<line x1="306" y1="136.5" x2="306" y2="127.5" stroke-width="1" />
<line x1="302" y1="136.5" x2="302" y2="127.5" stroke-width="1" />
<line x1="298" y1="136.5" x2="298" y2="127.5" stroke-width="1" />
<line x1="294" y1="136.5" x2="294" y2="127.5" stroke-width="1" />
<line x1="290" y1="136.5" x2="290" y2="127.5" stroke-width="1" />
<line x1="286" y1="136.5" x2="286" y2="127.5" stroke-width="1" />
<line x1="282" y1="136.5" x2="282" y2="127.5" stroke-width="1" />
<line x1="278" y1="136.5" x2="278" y2="127.5" stroke-width="1" />
<line x1="274" y1="136.5" x2="274" y2="127.5" stroke-width="1" />
<line x1="270" y1="136.5" x2="270" y2="127.5" stroke-width="1" />
<line x1="266" y1="136.5" x2="266" y2="127.5" stroke-width="1" />
<line x1="262" y1="136.5" x2="262" y2="127.5" stroke-width="1" />
<line x1="258" y1="136.5" x2="258" y2="127.5" stroke-width="1" />
<line x1="254" y1="136.5" x2="254" y2="127.5" stroke-width="1" />
<line x1="250" y1="136.5" x2="250" y2="127.5" stroke-width="1" />
<line x1="246" y1="136.5" x2="246" y2="127.5" stroke-width="1" />
<line x1="242" y1="136.5" x2="242" y2="127.5" stroke-width="1" />
<line x1="238" y1="136.5" x2="238" y2="127.5" stroke-width="1" />
<line x1="234" y1="136.5" x2="234" y2="127.5" stroke-width="1" />
<line x1="230" y1="136.5" x2="230" y2="127.5" stroke-width="1" />
<line x1="226" y1="136.5" x2="226" y2="127.5" stroke-width="1" />
<line x1="222" y1="136.5" x2="222" y2="127.5" stroke-width="1" />
<line x1="218" y1="136.5" x2="218" y2="127.5" stroke-width="1" />
<line x1="214" y1="136.5" x2="214" y2="127.5" stroke-width="1" />
<line x1="210" y1="136.5" x2="210" y2="127.5" stroke-width="1" />
<line x1="206" y1="136.5" x2="206" y2="127.5" stroke-width="1" />
<line x1="202" y1="136.5" x2="202" y2="127.5" stroke-width="1" />
<line x1="198" y1="136.5" x2="198" y2="127.5" stroke-width="1" />
<line x1="194" y1="136.5" x2="194" y2="127.5" stroke-width="1" />
<line x1="190" y1="136.5" x2="190" y2="127.5" stroke-width="1" />
<line x1="186" y1="136.5" x2="186" y2="127.5" stroke-width="1" />
<line x1="182" y1="136.5" x2="182" y2="127.5" stroke-width="1" />
<line x1="178" y1="136.5" x2="178" y2="127.5" stroke-width="1" />
<line x1="174" y1="136.5" x2="174" y2="127.5" stroke-width="1" />
<line x1="170" y1="136.5" x2="170" y2="127.5" stroke-width="1" />
<line x1="166" y1="136.5" x2="166" y2="127.5" stroke-width="1" />
<line x1="162" y1="136.5" x2="162" y2="127.5" stroke-width="1" />
<line x1="158" y1="136.5" x2="158" y2="127.5" stroke-width="1" />
<line x1="154" y1="136.5" x2="154" y2="127.5" stroke-width="1" />
<line x1="150" y1="136.5" x2="150" y2="127.5" stroke-width="1" />
<line x1="146" y1="136.5" x2="146" y2="127.5" stroke-width="1" />
<line x1="142" y1="136.5" x2="142" y2="127.5" stroke-width="1" />
<line x1="138" y1="136.5" x2="138" y2="127.5" stroke-width="1" />
<line x1="134" y1="136.5" x2="134" y2="127.5" stroke-width="1" />
<line x1="130" y1="136.5" x2="130" y2="127.5" stroke-width="1" />
<line x1="126" y1="136.5" x2="126" y2="127.5" stroke-width="1" />
<line x1="122" y1="136.5" x2="122" y2="127.5" stroke-width="1" />
<line x1="118" y1="136.5" x2="118" y2="127.5" stroke-width="1" />
<line x1="114" y1="136.5" x2="114" y2="127.5" stroke-width="1" />
<line x1="110" y1="136.5" x2="110" y2="127.5" stroke-width="1" />
<line x1="106" y1="136.5" x2="106" y2="127.5" stroke-width="1" />
<line x1="102" y1="136.5" x2="102" y2="127.5" stroke-width="1" />
<line x1="98" y1="136.5" x2="98" y2="127.5" stroke-width="1" />
<line x1="94" y1="136.5" x2="94" y2="127.5" stroke-width="1" />
<line x1="90" y1="136.5" x2="90" y2="127.5" stroke-width="1" />
<line x1="86" y1="136.5" x2="86" y2="127.5" stroke-width="1" />
<line x1="82" y1="136.5" x2="82" y2="127.5" stroke-width="1" />
<line x1="78" y1="136.5" x2="78" y2="127.5" stroke-width="1" />
<line x1="74" y1="136.5" x2="74" y2="127.5" stroke-width="1" />
<line x1="70" y1="136.5" x2="70" y2="127.5" stroke-width="1" />
<line x1="66" y1="136.5" x2="66" y2="127.5" stroke-width="1" />
<line x1="62" y1="136.5" x2="62" y2="127.5" stroke-width="1" />
<line x1="58" y1="136.5" x2="58" y2="127.5" stroke-width="1" />
<line x1="54" y1="136.5" x2="54" y2="127.5" stroke-width="1" />
<line x1="50" y1="136.5" x2="50" y2="127.5" stroke-width="1" />
<line x1="46" y1="136.5" x2="46" y2="127.5" stroke-width="1" />
<line x1="42" y1="136.5" x2="42" y2="127.5" stroke-width="1" />
<line x1="38" y1="136.5" x2="38" y2="127.5" stroke-width="1" />
<line x1="34" y1="136.5" x2="34" y2="127.5" stroke-width="1" />
</g>
<g stroke="#000000" fill="#B0B0B0" stroke-opacity="1.0" fill-opacity="1.0" transform="scale(0.5)">
<polygon points="74,65  383,65  383,85  433,85  433,105  74,105" stroke-width="1" />
<polygon points="73,145  73,185  433,185  433,145" stroke-width="1" />
<polygon points="74,265  74,225  433,225  433,265" stroke-width="1" />
</g>
<g stroke="#000000" fill="#FFFFFF" stroke-opacity="1.0" fill-opacity="1.0" transform="scale(0.5)">
<polygon points="233,155  233,175  283,175  283,155" stroke-width="1" />
<polygon points="363,245  363,225  413,225  413,245" stroke-width="1" />
<polyline points="313,41  313,55  333,55  333,41" stroke-width="1" fill="none"  />
<polyline points="349,65  349,50  377,50  377,65  433,65  433,85" stroke-width="1" fill="none"  />
<polyline points="203,55  218,55  218,35  203,35" stroke-width="1" fill="none"  />
<polyline points="333,280  333,265  313,265  313,280" stroke-width="1" fill="none"  />
<polyline points="184,261  169,261  169,235  184,235" stroke-width="1" fill="none"  />
<polyline points="115,265  115,280  142,280  142,265" stroke-width="1" fill="none"  />
<polyline points="333,156  350,156  350,175  333,175" stroke-width="1" fill="none"  />
<polyline points="313,155  296,155  296,175  313,175" stroke-width="1" fill="none"  />
<polyline points="202,155  219,155  219,175  202,175" stroke-width="1" fill="none"  />
<polyline points="184,155  169,155  169,175  184,175" stroke-width="1" fill="none"  />
<line x1="349" y1="65" x2="377" y2="65" stroke-width="1" />
<line x1="349" y1="61" x2="377" y2="61" stroke-width="1" />
<line x1="349" y1="57" x2="377" y2="57" stroke-width="1" />
<line x1="349" y1="53" x2="377" y2="53" stroke-width="1" />
<line x1="313" y1="55" x2="333" y2="55" stroke-width="1" />
<line x1="313" y1="51" x2="333" y2="51" stroke-width="1" />
<line x1="313" y1="47" x2="333" y2="47" stroke-width="1" />
<line x1="313" y1="43" x2="333" y2="43" stroke-width="1" />
<line x1="218" y1="35" x2="218" y2="55" stroke-width="1" />
<line x1="214" y1="35" x2="214" y2="55" stroke-width="1" />
<line x1="210" y1="35" x2="210" y2="55" stroke-width="1" />
<line x1="206" y1="35" x2="206" y2="55" stroke-width="1" />
<line x1="350" y1="156" x2="350" y2="175" stroke-width="1" />
<line x1="346" y1="156" x2="346" y2="175" stroke-width="1" />
<line x1="342" y1="156" x2="342" y2="175" stroke-width="1" />
<line x1="338" y1="156" x2="338" y2="175" stroke-width="1" />
<line x1="334" y1="156" x2="334" y2="175" stroke-width="1" />
<line x1="296" y1="155" x2="296" y2="175" stroke-width="1" />
<line x1="300" y1="155" x2="300" y2="175" stroke-width="1" />
<line x1="304" y1="155" x2="304" y2="175" stroke-width="1" />
<line x1="308" y1="155" x2="308" y2="175" stroke-width="1" />
<line x1="312" y1="155" x2="312" y2="175" stroke-width="1" />
<line x1="219" y1="155" x2="219" y2="175" stroke-width="1" />
<line x1="215" y1="155" x2="215" y2="175" stroke-width="1" />
<line x1="211" y1="155" x2="211" y2="175" stroke-width="1" />
<line x1="207" y1="155" x2="207" y2="175" stroke-width="1" />
<line x1="203" y1="155" x2="203" y2="175" stroke-width="1" />
<line x1="169" y1="155" x2="169" y2="175" stroke-width="1" />
<line x1="173" y1="155" x2="173" y2="175" stroke-width="1" />
<line x1="177" y1="155" x2="177" y2="175" stroke-width="1" />
<line x1="181" y1="155" x2="181" y2="175" stroke-width="1" />
<line x1="313" y1="265" x2="333" y2="265" stroke-width="1" />
<line x1="313" y1="269" x2="333" y2="269" stroke-width="1" />
<line x1="313" y1="273" x2="333" y2="273" stroke-width="1" />
<line x1="313" y1="277" x2="333" y2="277" stroke-width="1" />
<line x1="169" y1="261" x2="169" y2="235" stroke-width="1" />
<line x1="173" y1="261" x2="173" y2="235" stroke-width="1" />
<line x1="177" y1="261" x2="177" y2="235" stroke-width="1" />
<line x1="181" y1="261" x2="181" y2="235" stroke-width="1" />
<line x1="115" y1="280" x2="142" y2="280" stroke-width="1" />
<line x1="115" y1="276" x2="142" y2="276" stroke-width="1" />
<line x1="115" y1="272" x2="142" y2="272" stroke-width="1" />
<line x1="115" y1="268" x2="142" y2="268" stroke-width="1" />
<polyline points="333,265  333,55" stroke-width="1" fill="none" stroke-dasharray="5,2" />
<polyline points="313,265  313,55" stroke-width="1" fill="none" stroke-dasharray="5,2" />
<polyline points="184,261  201,261  203,55" stroke-width="1" fill="none" stroke-dasharray="5,2" />
<polyline points="203,35  183,35  184,235  184,235" stroke-width="1" fill="none" stroke-dasharray="5,2" />
</g>
<g stroke="#000000" fill="none" stroke-opacity="1.0" fill-opacity="1.0" transform="scale(0.5)">
<text x=" 442" y="240.0" font-family="Arial" font-size=" 20" fill="#000000" stroke-width="0">от Москвы &gt;&gt;</text>
<text x=" 35" y="184.0" font-family="Arial" font-size=" 20" fill="#000000" stroke-width="0">&lt;&lt; к Москве</text>
<text x=" 212" y="252.0" font-family="Arial" font-size=" 25" fill="#000000" stroke-width="0">Реутово</text>
<text x=" 369" y="243.0" font-family="Arial" font-size=" 15" fill="#000000" stroke-width="0">Кассы</text>
<text x=" 239" y="173.0" font-family="Arial" font-size=" 15" fill="#000000" stroke-width="0">Кассы</text>
<text x=" 390" y="83.0" font-family="Arial" font-size=" 15" fill="#000000" stroke-width="0">Кассы</text>
</g>
<g stroke="#00AFAF" fill="none" stroke-opacity="1.0" fill-opacity="1.0" transform="scale(0.5)">
<text x=" 225" y="33.0" font-family="Arial" font-size=" 15" fill="#00AFAF" stroke-width="0">улица Дзержинского</text>
<text x=" 160" y="348.0" font-family="Arial" font-size=" 15" fill="#00AFAF" stroke-width="0">улица Октября</text>
<text x=" 278" y="368.0" font-family="Arial" font-size=" 15" fill="#00AFAF" transform="rotate(90.0  278  353)" stroke-width="0">улица Южная</text>
</g>
</g>
</g>
</svg>
