<?xml version="1.0" encoding="utf-8" ?>
<svg baseProfile="full" height="100%" version="1.1" width="100%" xmlns="http://www.w3.org/2000/svg" xmlns:ev="http://www.w3.org/2001/xml-events" xmlns:xlink="http://www.w3.org/1999/xlink"><defs><marker id="id128" markerHeight="3" markerUnits="strokeWidth" markerWidth="4" orient="auto" refX="0" refY="5" viewBox="0,0,10,10"><path d="M 0 0 L 10 5 L 0 10 z" /></marker></defs><g transform="rotate(-90.0,470,560)"><rect fill="none" height="1120" stroke="none" stroke-width="0" width="940" x="0" y="0" /><polygon fill="#FEFBF1" points="253,246 253,111 721,111 721,137 927,137 927,246 643,246 643,217 520,217 520,234 455,234 455,217 331,217 331,246" stroke="#CCCCCC" stroke-width="1" /><text fill="#000000" font-family="Arial" font-size="15" stroke="none" stroke-width="0" x="463" y="164.0">Рижский вокзал</text><polygon fill="#FC9C54" points="562,853 1013,853 1013,883 562,883" stroke="#000000" stroke-width="1" /><polygon fill="#FC9C54" points="562,963 1013,963 1013,993 562,993" stroke="#000000" stroke-width="1" /><text fill="#F7782E" font-family="Arial" font-size="25" stroke="none" stroke-width="0" x="686" y="933.0">Рижская</text><text fill="#F7782E" font-family="Arial" font-size="20" stroke="none" stroke-width="0" x="563" y="850.0">&lt;&lt; Проспект Мира</text><text fill="#F7782E" font-family="Arial" font-size="20" stroke="none" stroke-width="0" x="867" y="1013.0">Алексеевская &gt;&gt;</text><ellipse cx="394" cy="922" fill="#FEFBF1" rx="92.0" ry="92.0" stroke="#DFDFDF" stroke-width="1" /><line stroke="#7F7F7F" stroke-width="1" x1="428" x2="428" y1="898" y2="947" /><line stroke="#7F7F7F" stroke-width="1" x1="432" x2="432" y1="898" y2="947" /><line stroke="#7F7F7F" stroke-width="1" x1="436" x2="436" y1="898" y2="947" /><line stroke="#7F7F7F" stroke-width="1" x1="440" x2="440" y1="898" y2="947" /><line stroke="#7F7F7F" stroke-width="1" x1="444" x2="444" y1="898" y2="947" /><line stroke="#7F7F7F" stroke-width="1" x1="448" x2="448" y1="898" y2="947" /><line stroke="#7F7F7F" stroke-width="1" x1="452" x2="452" y1="898" y2="947" /><line stroke="#7F7F7F" stroke-width="1" x1="456" x2="456" y1="898" y2="947" /><line stroke="#7F7F7F" stroke-width="1" x1="460" x2="460" y1="898" y2="947" /><line stroke="#7F7F7F" stroke-width="1" x1="464" x2="464" y1="898" y2="947" /><line stroke="#7F7F7F" stroke-width="1" x1="468" x2="468" y1="898" y2="947" /><line stroke="#7F7F7F" stroke-width="1" x1="472" x2="472" y1="898" y2="947" /><line stroke="#7F7F7F" stroke-width="1" x1="476" x2="476" y1="898" y2="947" /><line stroke="#7F7F7F" stroke-width="1" x1="480" x2="480" y1="898" y2="947" /><line stroke="#7F7F7F" stroke-width="1" x1="484" x2="484" y1="898" y2="947" /><line stroke="#7F7F7F" stroke-width="1" x1="488" x2="488" y1="898" y2="947" /><line stroke="#7F7F7F" stroke-width="1" x1="492" x2="492" y1="898" y2="947" /><line stroke="#7F7F7F" stroke-width="1" x1="496" x2="496" y1="898" y2="947" /><line stroke="#7F7F7F" stroke-width="1" x1="500" x2="500" y1="898" y2="947" /><line stroke="#7F7F7F" stroke-width="1" x1="504" x2="504" y1="898" y2="947" /><line stroke="#7F7F7F" stroke-width="1" x1="508" x2="508" y1="898" y2="947" /><line stroke="#7F7F7F" stroke-width="1" x1="512" x2="512" y1="898" y2="947" /><line stroke="#7F7F7F" stroke-width="1" x1="516" x2="516" y1="898" y2="947" /><line stroke="#7F7F7F" stroke-width="1" x1="520" x2="520" y1="898" y2="947" /><line stroke="#7F7F7F" stroke-width="1" x1="524" x2="524" y1="898" y2="947" /><line stroke="#7F7F7F" stroke-width="1" x1="528" x2="528" y1="898" y2="947" /><line stroke="#7F7F7F" stroke-width="1" x1="532" x2="532" y1="898" y2="947" /><line stroke="#7F7F7F" stroke-width="1" x1="536" x2="536" y1="898" y2="947" /><line stroke="#7F7F7F" stroke-width="1" x1="540" x2="540" y1="898" y2="947" /><line stroke="#7F7F7F" stroke-width="1" x1="544" x2="544" y1="898" y2="947" /><line stroke="#7F7F7F" stroke-width="1" x1="548" x2="548" y1="898" y2="947" /><line stroke="#7F7F7F" stroke-width="1" x1="552" x2="552" y1="898" y2="947" /><line stroke="#7F7F7F" stroke-width="1" x1="556" x2="556" y1="898" y2="947" /><line stroke="#7F7F7F" stroke-width="1" x1="560" x2="560" y1="898" y2="947" /><line stroke="#7F7F7F" stroke-width="1" x1="564" x2="564" y1="898" y2="947" /><line stroke="#7F7F7F" stroke-width="1" x1="568" x2="568" y1="898" y2="947" /><line stroke="#7F7F7F" stroke-width="1" x1="572" x2="572" y1="898" y2="947" /><line stroke="#7F7F7F" stroke-width="1" x1="576" x2="576" y1="898" y2="947" /><line stroke="#7F7F7F" stroke-width="1" x1="580" x2="580" y1="898" y2="947" /><line stroke="#7F7F7F" stroke-width="1" x1="584" x2="584" y1="898" y2="947" /><line stroke="#7F7F7F" stroke-width="1" x1="588" x2="588" y1="898" y2="947" /><line stroke="#7F7F7F" stroke-width="1" x1="592" x2="592" y1="898" y2="947" /><line stroke="#7F7F7F" stroke-width="1" x1="596" x2="596" y1="898" y2="947" /><line stroke="#7F7F7F" stroke-width="1" x1="600" x2="600" y1="898" y2="947" /><line stroke="#7F7F7F" stroke-width="1" x1="604" x2="604" y1="898" y2="947" /><line stroke="#7F7F7F" stroke-width="1" x1="608" x2="608" y1="898" y2="947" /><line stroke="#7F7F7F" stroke-width="1" x1="612" x2="612" y1="898" y2="947" /><line stroke="#7F7F7F" stroke-width="1" x1="616" x2="616" y1="898" y2="947" /><line stroke="#7F7F7F" stroke-width="1" x1="620" x2="620" y1="898" y2="947" /><polygon fill="#9B5509" points="626,896 425,896 425,900 626,900" stroke="#000000" stroke-width="1" /><polygon fill="#9B5509" points="626,911 425,911 425,917 626,917" stroke="#000000" stroke-width="1" /><polygon fill="#9B5509" points="626,928 425,928 425,934 626,934" stroke="#000000" stroke-width="1" /><polygon fill="#9B5509" points="626,945 425,945 425,949 626,949" stroke="#000000" stroke-width="1" /><polyline fill="none" points="562,883 562,891 663,891 663,902 657,902 657,896 445,896" stroke="#000000" stroke-width="1" /><polyline fill="none" points="562,963 562,955 663,955 663,943 657,943 657,949 444,949" stroke="#000000" stroke-width="1" /><polyline fill="none" points="1013,883 1013,894 902,894 902,907 906,907 906,940 902,940 902,953 1013,953 1013,963" stroke="#000000" stroke-width="1" /><path d="M445,896 C445,896 448.166666667,899.333333333 445,896 C441.833333333,892.666666667 432.833333333,880.666666667 426,876 C419.166666667,871.333333333 404,868 404,868 " fill="none" stroke="#000000" stroke-width="1" /><path d="M444,949 C444,949 448.833333333,945.0 444,949 C439.166666667,953.0 426.5,968.833333333 415,973 C403.5,977.166666667 387.166666667,978.666666667 375,974 C362.833333333,969.333333333 342,945 342,945 " fill="none" stroke="#000000" stroke-width="1" /><path d="M337,921 C337,921 335.166666667,926.166666667 337,921 C338.833333333,915.833333333 341.5,898.5 348,890 C354.5,881.5 376,870 376,870 " fill="none" stroke="#000000" stroke-width="1" /><path d="M365,840 C365,840 359.0,840.833333333 365,840 C371.0,839.166666667 389.333333333,834.333333333 401,835 C412.666666667,835.666666667 435,844 435,844 " fill="none" stroke="#000000" stroke-width="1" /><path d="M404,862 C404,862 400.0,860.5 404,862 C408.0,863.5 420.333333333,865.833333333 428,871 C435.666666667,876.166666667 450,893 450,893 " fill="none" stroke="#000000" stroke-width="1" /><path d="M317,963 C317,963 318.5,966.666666667 317,963 C315.5,959.333333333 309.833333333,948.5 308,941 C306.166666667,933.5 306,918 306,918 " fill="none" stroke="#000000" stroke-width="1" /><path d="M333,922 C333,922 332.5,925.166666667 333,922 C333.5,918.833333333 334.166666667,908.666666667 336,903 C337.833333333,897.333333333 344,888 344,888 " fill="none" stroke="#000000" stroke-width="1" /><polyline fill="none" points="342,945 337,947 339,952 317,963" stroke="#000000" stroke-width="1" /><polyline fill="none" points="404,868 404,862" stroke="#000000" stroke-width="1" /><polyline fill="none" points="337,921 333,922" stroke="#000000" stroke-width="1" /><polyline fill="none" points="376,870 374,864 371,865 365,840" stroke="#000000" stroke-width="1" /><polyline fill="none" points="435,844 437,840" stroke="#000000" stroke-width="1" /><polyline fill="none" points="450,893 474,876" stroke="#000000" stroke-width="1" /><polyline fill="none" points="344,888 318,870" stroke="#000000" stroke-width="1" /><polyline fill="none" points="306,918 302,918" stroke="#000000" stroke-width="1" /><polyline fill="none" points="371,865 361,870 346,850" stroke="#000000" stroke-width="1" /><path d="M365,840 C365,840 366.666666667,839.333333333 365,840 C363.333333333,840.666666667 358.166666667,842.333333333 355,844 C351.833333333,845.666666667 346,850 346,850 " fill="none" stroke="#000000" stroke-width="1" /><text fill="#000000" font-family="Arial" font-size="9" stroke="none" stroke-width="0" transform="rotate(65.0,362,843)" x="362" y="852.0">кассы</text><polyline fill="none" points="424,915 353,906 348,896" stroke="#000000" stroke-width="0.5" /><polyline fill="none" points="417,877 420,874" stroke="#000000" stroke-width="0.5" /><polygon fill="none" points="411,884 409,878 415,876 417,882" stroke="#000000" stroke-width="1" /><line stroke="#009900" stroke-width="1" x1="407" x2="405" y1="885" y2="880" /><line stroke="#009900" stroke-width="1" x1="403.191885755" x2="401.191885755" y1="886.224036722" y2="881.224036722" /><line stroke="#009900" stroke-width="1" x1="399.38377151" x2="397.38377151" y1="887.448073443" y2="882.448073443" /><line stroke="#009900" stroke-width="1" x1="395.575657265" x2="393.575657265" y1="888.672110165" y2="883.672110165" /><line stroke="#009900" stroke-width="1" x1="391.767543019" x2="389.767543019" y1="889.896146887" y2="884.896146887" /><line stroke="#009900" stroke-width="1" x1="387.959428774" x2="385.959428774" y1="891.120183608" y2="886.120183608" /><line stroke="#009900" stroke-width="1" x1="384.151314529" x2="382.151314529" y1="892.34422033" y2="887.34422033" /><line stroke="#009900" stroke-width="1" x1="380.343200284" x2="378.343200284" y1="893.568257052" y2="888.568257052" /><line stroke="#009900" stroke-width="1" x1="376.535086039" x2="374.535086039" y1="894.792293773" y2="889.792293773" /><line stroke="#009900" stroke-width="1" x1="372.726971794" x2="370.726971794" y1="896.016330495" y2="891.016330495" /><line stroke="#009900" stroke-width="1" x1="368.918857549" x2="366.918857549" y1="897.240367217" y2="892.240367217" /><line stroke="#009900" stroke-width="1" x1="365.110743303" x2="363.110743303" y1="898.464403938" y2="893.464403938" /><line stroke="#009900" stroke-width="1" x1="361.302629058" x2="359.302629058" y1="899.68844066" y2="894.68844066" /><line stroke="#009900" stroke-width="1" x1="357.494514813" x2="355.494514813" y1="900.912477381" y2="895.912477381" /><line stroke="#009900" stroke-width="1" x1="353.686400568" x2="351.686400568" y1="902.136514103" y2="897.136514103" /><polyline fill="none" marker-end="url(#id128)" points="319,928 319,912" stroke="#FF0000" stroke-width="1" /><polyline fill="none" marker-end="url(#id128)" points="440,939 425,939" stroke="#FF0000" stroke-width="1" /><polyline fill="none" marker-end="url(#id128)" points="650,939 628,939" stroke="#FF0000" stroke-width="1" /><polyline fill="none" marker-end="url(#id128)" points="437,861 421,853" stroke="#009900" stroke-width="1" /><polyline fill="none" marker-end="url(#id128)" points="388,864 392,875" stroke="#009900" stroke-width="1" /><polyline fill="none" marker-end="url(#id128)" points="425,906 440,906" stroke="#009900" stroke-width="1" /><polyline fill="none" marker-end="url(#id128)" points="628,906 650,906" stroke="#009900" stroke-width="1" /><polygon fill="#34349C" points="799,929 797,929 797,924 799,924" stroke="#34349C" stroke-width="1" /><polygon fill="#34349C" points="384,840 383,838 378,839 379,841" stroke="#34349C" stroke-width="1" /><polygon fill="#FF0000" points="799,924 797,924 797,919 799,919" stroke="#FF0000" stroke-width="1" /><polygon fill="#FF0000" points="379,841 378,839 373,840 374,842" stroke="#FF0000" stroke-width="1" /><polyline fill="none" points="353,739 306,739 306,717 353,717" stroke="#000000" stroke-width="1" /><polyline fill="none" points="431,689 340,689 340,712 431,712" stroke="#000000" stroke-width="1" /><polyline fill="none" points="268,522 268,479 245,479 245,522" stroke="#000000" stroke-width="1" /><polyline fill="none" points="352,310 255,310 255,279 352,279" stroke="#000000" stroke-width="1" /><polyline fill="none" points="21,209 21,261 -8,261 -8,209" stroke="#000000" stroke-width="1" /><polyline fill="none" points="-13,396 -13,441 -37,441 -37,397" stroke="#000000" stroke-width="1" /><polyline fill="none" points="-13,527 -13,486 -37,486 -37,527" stroke="#000000" stroke-width="1" /><polyline fill="none" points="-42,812 -42,758 -71,758 -71,812" stroke="#000000" stroke-width="1" /><line stroke="#000000" stroke-width="1" x1="-42" x2="-71" y1="767" y2="767" /><line stroke="#000000" stroke-width="1" x1="-42" x2="-71" y1="771" y2="771" /><line stroke="#000000" stroke-width="1" x1="-42" x2="-71" y1="775" y2="775" /><line stroke="#000000" stroke-width="1" x1="-42" x2="-71" y1="779" y2="779" /><line stroke="#000000" stroke-width="1" x1="-42" x2="-71" y1="783" y2="783" /><line stroke="#000000" stroke-width="1" x1="-42" x2="-71" y1="787" y2="787" /><line stroke="#000000" stroke-width="1" x1="-42" x2="-71" y1="791" y2="791" /><line stroke="#000000" stroke-width="1" x1="-42" x2="-71" y1="795" y2="795" /><line stroke="#000000" stroke-width="1" x1="-42" x2="-71" y1="799" y2="799" /><line stroke="#000000" stroke-width="1" x1="-42" x2="-71" y1="803" y2="803" /><line stroke="#000000" stroke-width="1" x1="-13" x2="-37" y1="494" y2="494" /><line stroke="#000000" stroke-width="1" x1="-13" x2="-37" y1="498" y2="498" /><line stroke="#000000" stroke-width="1" x1="-13" x2="-37" y1="502" y2="502" /><line stroke="#000000" stroke-width="1" x1="-13" x2="-37" y1="506" y2="506" /><line stroke="#000000" stroke-width="1" x1="-13" x2="-37" y1="510" y2="510" /><line stroke="#000000" stroke-width="1" x1="-13" x2="-37" y1="514" y2="514" /><line stroke="#000000" stroke-width="1" x1="-13" x2="-37" y1="518" y2="518" /><line stroke="#000000" stroke-width="1" x1="-13" x2="-37" y1="522" y2="522" /><line stroke="#000000" stroke-width="1" x1="-37" x2="-13" y1="431" y2="431" /><line stroke="#000000" stroke-width="1" x1="-37" x2="-13" y1="427" y2="427" /><line stroke="#000000" stroke-width="1" x1="-37" x2="-13" y1="423" y2="423" /><line stroke="#000000" stroke-width="1" x1="-37" x2="-13" y1="419" y2="419" /><line stroke="#000000" stroke-width="1" x1="-37" x2="-13" y1="415" y2="415" /><line stroke="#000000" stroke-width="1" x1="-37" x2="-13" y1="411" y2="411" /><line stroke="#000000" stroke-width="1" x1="-37" x2="-13" y1="407" y2="407" /><line stroke="#000000" stroke-width="1" x1="-37" x2="-13" y1="403" y2="403" /><line stroke="#000000" stroke-width="1" x1="21" x2="-8" y1="213" y2="213" /><line stroke="#000000" stroke-width="1" x1="21" x2="-8" y1="217" y2="217" /><line stroke="#000000" stroke-width="1" x1="21" x2="-8" y1="221" y2="221" /><line stroke="#000000" stroke-width="1" x1="21" x2="-8" y1="225" y2="225" /><line stroke="#000000" stroke-width="1" x1="21" x2="-8" y1="229" y2="229" /><line stroke="#000000" stroke-width="1" x1="21" x2="-8" y1="233" y2="233" /><line stroke="#000000" stroke-width="1" x1="21" x2="-8" y1="237" y2="237" /><line stroke="#000000" stroke-width="1" x1="21" x2="-8" y1="241" y2="241" /><line stroke="#000000" stroke-width="1" x1="21" x2="-8" y1="245" y2="245" /><line stroke="#000000" stroke-width="1" x1="21" x2="-8" y1="249" y2="249" /><line stroke="#000000" stroke-width="1" x1="21" x2="-8" y1="253" y2="253" /><line stroke="#000000" stroke-width="1" x1="268" x2="245" y1="487" y2="487" /><line stroke="#000000" stroke-width="1" x1="268" x2="245" y1="491" y2="491" /><line stroke="#000000" stroke-width="1" x1="268" x2="245" y1="495" y2="495" /><line stroke="#000000" stroke-width="1" x1="268" x2="245" y1="499" y2="499" /><line stroke="#000000" stroke-width="1" x1="268" x2="245" y1="503" y2="503" /><line stroke="#000000" stroke-width="1" x1="268" x2="245" y1="507" y2="507" /><line stroke="#000000" stroke-width="1" x1="268" x2="245" y1="511" y2="511" /><line stroke="#000000" stroke-width="1" x1="268" x2="245" y1="515" y2="515" /><line stroke="#000000" stroke-width="1" x1="315" x2="315" y1="717" y2="739" /><line stroke="#000000" stroke-width="1" x1="319" x2="319" y1="717" y2="739" /><line stroke="#000000" stroke-width="1" x1="323" x2="323" y1="717" y2="739" /><line stroke="#000000" stroke-width="1" x1="327" x2="327" y1="717" y2="739" /><line stroke="#000000" stroke-width="1" x1="331" x2="331" y1="717" y2="739" /><line stroke="#000000" stroke-width="1" x1="335" x2="335" y1="717" y2="739" /><line stroke="#000000" stroke-width="1" x1="339" x2="339" y1="717" y2="739" /><line stroke="#000000" stroke-width="1" x1="343" x2="343" y1="717" y2="739" /><line stroke="#000000" stroke-width="1" x1="347" x2="347" y1="717" y2="739" /><polyline fill="none" points="306,717 292,717 292,712 340,712" stroke="#D8D8D8" stroke-width="1" /><polyline fill="none" points="340,689 239,689 239,471 245,471 245,479" stroke="#D8D8D8" stroke-width="1" /><polyline fill="none" points="306,739 -42,740 -42,758" stroke="#D8D8D8" stroke-width="1" /><polyline fill="none" points="268,479 268,443 239,443 239,310 255,310" stroke="#D8D8D8" stroke-width="1" /><polyline fill="none" points="255,279 21,279 21,261" stroke="#D8D8D8" stroke-width="1" /><polygon fill="none" points="200,310 22,310 22,710 200,710" stroke="#D8D8D8" stroke-width="1" /><polyline fill="none" points="-71,758 -71,710 -8,710 -8,479 -13,479 -13,486" stroke="#D8D8D8" stroke-width="1" /><polyline fill="none" points="-37,486 -37,441" stroke="#D8D8D8" stroke-width="1" /><polyline fill="none" points="-13,441 -13,449 -8,449 -8,261" stroke="#D8D8D8" stroke-width="1" /><text fill="#00AFAF" font-family="Arial" font-size="15" stroke="none" stroke-width="0" x="284" y="607.0">Проспект Мира</text><text fill="#00AFAF" font-family="Arial" font-size="15" stroke="none" stroke-width="0" x="279" y="380.0">Рижская площадь</text><text fill="#00AFAF" font-family="Arial" font-size="15" stroke="none" stroke-width="0" transform="rotate(90.0,122,762)" x="122" y="777.0">улица Сущёвский Вал</text><text fill="#00AFAF" font-family="Arial" font-size="15" stroke="none" stroke-width="0" transform="rotate(90.0,119,326)" x="119" y="341.0">улица Сущёвский Вал</text></g></svg>