<?xml version="1.0" encoding="utf-8" ?>
<svg baseProfile="full" height="100%" version="1.1" width="100%" xmlns="http://www.w3.org/2000/svg" xmlns:ev="http://www.w3.org/2001/xml-events" xmlns:xlink="http://www.w3.org/1999/xlink"><defs><marker id="id259" markerHeight="3" markerUnits="strokeWidth" markerWidth="4" orient="auto" refX="0" refY="5" viewBox="0,0,10,10"><path d="M 0 0 L 10 5 L 0 10 z" /></marker></defs><g transform="scale(0.5) rotate(-67.0,300,400)"><rect fill="none" height="800" stroke="none" width="600" x="0" y="0" /><polygon fill="#FEFBF1" points="-95,293 34,293 34,320 -3,320 -3,416 33,416 33,443 -95,443" stroke="#BBBBBB" stroke-width="1" /><polygon fill="#FEFBF1" points="678,293 678,443 542,443 542,416 586,416 586,320 542,320 542,293" stroke="#BBBBBB" stroke-width="1" /><polygon fill="#AC24AC" points="62,299 512,299 512,329 62,329" stroke="#000000" stroke-width="1" /><polygon fill="#AC24AC" points="62,409 512,409 512,439 62,439" stroke="#000000" stroke-width="1" /><text fill="#AC24AC" font-family="Arial" font-size="20" stroke="none" x="62" y="293.0">&lt;&lt; Кузьминки</text><text fill="#AC24AC" font-family="Arial" font-size="20" stroke="none" x="416" y="459.0">Выхино &gt;&gt;</text><text fill="#AC24AC" font-family="Arial" font-size="25" stroke="none" x="175" y="378.0">Рязанский проспект</text><polygon fill="#34349C" points="286,380 286,384 287,384 287,380" stroke="#34349C" stroke-width="1" /><polygon fill="#FF0000" points="286,376 286,380 287,380 287,376" stroke="#FF0000" stroke-width="1" /><polyline fill="none" points="34,320 -3,320 -3,331 56,331 56,337 62,337 62,329" stroke="#000000" stroke-width="1" /><polyline fill="none" points="46,397 46,406 56,406 56,400 62,400 62,409" stroke="#000000" stroke-width="1" /><polyline fill="none" points="-3,397 -3,416 33,416" stroke="#000000" stroke-width="1" /><polyline fill="none" points="33,443 -95,443 -95,429 -86,429 -86,306 -95,306 -95,293 34,293" stroke="#000000" stroke-width="1" /><line stroke="#000000" stroke-width="1" x1="2" x2="2" y1="331" y2="378" /><line stroke="#000000" stroke-width="1" x1="6" x2="6" y1="331" y2="378" /><line stroke="#000000" stroke-width="1" x1="10" x2="10" y1="331" y2="378" /><line stroke="#000000" stroke-width="1" x1="14" x2="14" y1="331" y2="378" /><line stroke="#000000" stroke-width="1" x1="18" x2="18" y1="331" y2="378" /><line stroke="#000000" stroke-width="1" x1="22" x2="22" y1="331" y2="378" /><line stroke="#000000" stroke-width="1" x1="26" x2="26" y1="331" y2="378" /><line stroke="#000000" stroke-width="1" x1="30" x2="30" y1="331" y2="378" /><line stroke="#000000" stroke-width="1" x1="34" x2="34" y1="331" y2="378" /><line stroke="#000000" stroke-width="1" x1="38" x2="38" y1="331" y2="378" /><line stroke="#000000" stroke-width="1" x1="42" x2="42" y1="331" y2="378" /><line stroke="#000000" stroke-width="1" x1="46" x2="46" y1="331" y2="378" /><line stroke="#7F7F7F" stroke-width="1" x1="42" x2="42" y1="393" y2="382" /><line stroke="#7F7F7F" stroke-width="1" x1="38" x2="38" y1="393" y2="382" /><line stroke="#7F7F7F" stroke-width="1" x1="34" x2="34" y1="393" y2="382" /><line stroke="#7F7F7F" stroke-width="1" x1="30" x2="30" y1="393" y2="382" /><line stroke="#7F7F7F" stroke-width="1" x1="26" x2="26" y1="393" y2="382" /><line stroke="#7F7F7F" stroke-width="1" x1="22" x2="22" y1="393" y2="382" /><line stroke="#7F7F7F" stroke-width="1" x1="18" x2="18" y1="393" y2="382" /><line stroke="#7F7F7F" stroke-width="1" x1="14" x2="14" y1="393" y2="382" /><line stroke="#7F7F7F" stroke-width="1" x1="10" x2="10" y1="393" y2="382" /><line stroke="#7F7F7F" stroke-width="1" x1="6" x2="6" y1="393" y2="382" /><line stroke="#7F7F7F" stroke-width="1" x1="2" x2="2" y1="393" y2="382" /><polygon fill="#9B5509" points="49,382 -5,382 -5,378 49,378" stroke="#000000" stroke-width="1" /><polygon fill="#9B5509" points="49,393 -5,393 -5,397 49,397" stroke="#000000" stroke-width="1" /><polygon fill="#FFFFFF" points="-86,331 -95,331 -95,359 -86,359" stroke="#000000" stroke-width="1" /><text fill="#000000" font-family="Arial" font-size="10" stroke="none" transform="rotate(90.0,-83,333)" x="-83" y="343.0">кассы</text><polyline fill="none" points="-3,331 -24,331" stroke="#000000" stroke-width="0.5" /><polygon fill="none" points="-55,387 -50,390 -53,395 -58,392" stroke="#000000" stroke-width="1" /><polyline fill="none" points="-56,394 -86,394" stroke="#000000" stroke-width="0.5" /><line stroke="#009900" stroke-width="1" x1="-26" x2="-22" y1="330" y2="332" /><line stroke="#009900" stroke-width="1" x1="-27.788854382" x2="-23.788854382" y1="333.577708764" y2="335.577708764" /><line stroke="#009900" stroke-width="1" x1="-29.577708764" x2="-25.577708764" y1="337.155417528" y2="339.155417528" /><line stroke="#009900" stroke-width="1" x1="-31.366563146" x2="-27.366563146" y1="340.733126292" y2="342.733126292" /><line stroke="#009900" stroke-width="1" x1="-33.155417528" x2="-29.155417528" y1="344.310835056" y2="346.310835056" /><line stroke="#009900" stroke-width="1" x1="-34.94427191" x2="-30.94427191" y1="347.88854382" y2="349.88854382" /><line stroke="#009900" stroke-width="1" x1="-36.733126292" x2="-32.733126292" y1="351.466252584" y2="353.466252584" /><line stroke="#009900" stroke-width="1" x1="-38.521980674" x2="-34.521980674" y1="355.043961348" y2="357.043961348" /><line stroke="#009900" stroke-width="1" x1="-40.310835056" x2="-36.310835056" y1="358.621670112" y2="360.621670112" /><line stroke="#009900" stroke-width="1" x1="-42.099689438" x2="-38.099689438" y1="362.199378876" y2="364.199378876" /><line stroke="#009900" stroke-width="1" x1="-43.88854382" x2="-39.88854382" y1="365.77708764" y2="367.77708764" /><line stroke="#009900" stroke-width="1" x1="-45.677398202" x2="-41.677398202" y1="369.354796404" y2="371.354796404" /><line stroke="#009900" stroke-width="1" x1="-47.466252584" x2="-43.466252584" y1="372.932505168" y2="374.932505168" /><line stroke="#009900" stroke-width="1" x1="-49.255106966" x2="-45.255106966" y1="376.510213932" y2="378.510213932" /><line stroke="#009900" stroke-width="1" x1="-51.043961348" x2="-47.043961348" y1="380.087922696" y2="382.087922696" /><line stroke="#009900" stroke-width="1" x1="-52.83281573" x2="-48.83281573" y1="383.66563146" y2="385.66563146" /><polyline fill="none" marker-end="url(#id259)" points="73,390 55,390" stroke="#FF0000" stroke-width="1" /><polyline fill="none" marker-end="url(#id259)" points="24,430 44,430" stroke="#FF0000" stroke-width="1" /><polyline fill="none" marker-end="url(#id259)" points="-21,357 -2,357" stroke="#009900" stroke-width="1" /><polyline fill="none" marker-end="url(#id259)" points="42,307 21,307" stroke="#009900" stroke-width="1" /><polygon fill="#34349C" points="-82,383 -82,379 -83,379 -83,383" stroke="#34349C" stroke-width="1" /><polygon fill="#FF0000" points="-82,387 -82,383 -83,383 -83,387" stroke="#FF0000" stroke-width="1" /><polyline fill="none" points="542,320 586,320 586,331 518,331 518,337 512,337 512,329" stroke="#000000" stroke-width="1" /><polyline fill="none" points="535,397 535,406 518,406 518,400 512,400 512,409" stroke="#000000" stroke-width="1" /><polyline fill="none" points="542,416 586,416 586,397" stroke="#000000" stroke-width="1" /><polyline fill="none" points="542,443 678,443 678,429 669,429 669,306 678,306 678,293 542,293" stroke="#000000" stroke-width="1" /><line stroke="#000000" stroke-width="1" x1="535" x2="535" y1="331" y2="378" /><line stroke="#000000" stroke-width="1" x1="539" x2="539" y1="331" y2="378" /><line stroke="#000000" stroke-width="1" x1="543" x2="543" y1="331" y2="378" /><line stroke="#000000" stroke-width="1" x1="547" x2="547" y1="331" y2="378" /><line stroke="#000000" stroke-width="1" x1="551" x2="551" y1="331" y2="378" /><line stroke="#000000" stroke-width="1" x1="555" x2="555" y1="331" y2="378" /><line stroke="#000000" stroke-width="1" x1="559" x2="559" y1="331" y2="378" /><line stroke="#000000" stroke-width="1" x1="563" x2="563" y1="331" y2="378" /><line stroke="#000000" stroke-width="1" x1="567" x2="567" y1="331" y2="378" /><line stroke="#000000" stroke-width="1" x1="571" x2="571" y1="331" y2="378" /><line stroke="#000000" stroke-width="1" x1="575" x2="575" y1="331" y2="378" /><line stroke="#000000" stroke-width="1" x1="579" x2="579" y1="331" y2="378" /><line stroke="#7F7F7F" stroke-width="1" x1="583" x2="583" y1="393" y2="382" /><line stroke="#7F7F7F" stroke-width="1" x1="579" x2="579" y1="393" y2="382" /><line stroke="#7F7F7F" stroke-width="1" x1="575" x2="575" y1="393" y2="382" /><line stroke="#7F7F7F" stroke-width="1" x1="571" x2="571" y1="393" y2="382" /><line stroke="#7F7F7F" stroke-width="1" x1="567" x2="567" y1="393" y2="382" /><line stroke="#7F7F7F" stroke-width="1" x1="563" x2="563" y1="393" y2="382" /><line stroke="#7F7F7F" stroke-width="1" x1="559" x2="559" y1="393" y2="382" /><line stroke="#7F7F7F" stroke-width="1" x1="555" x2="555" y1="393" y2="382" /><line stroke="#7F7F7F" stroke-width="1" x1="551" x2="551" y1="393" y2="382" /><line stroke="#7F7F7F" stroke-width="1" x1="547" x2="547" y1="393" y2="382" /><line stroke="#7F7F7F" stroke-width="1" x1="543" x2="543" y1="393" y2="382" /><line stroke="#7F7F7F" stroke-width="1" x1="539" x2="539" y1="393" y2="382" /><line stroke="#7F7F7F" stroke-width="1" x1="535" x2="535" y1="393" y2="382" /><line stroke="#7F7F7F" stroke-width="1" x1="531" x2="531" y1="393" y2="382" /><polygon fill="#9B5509" points="590,382 525,382 525,378 590,378" stroke="#000000" stroke-width="1" /><polygon fill="#9B5509" points="590,393 525,393 525,397 590,397" stroke="#000000" stroke-width="1" /><polygon fill="#FFFFFF" points="669,331 678,331 678,359 669,359" stroke="#000000" stroke-width="1" /><text fill="#000000" font-family="Arial" font-size="10" stroke="none" transform="rotate(90.0,681,333)" x="681" y="343.0">кассы</text><polyline fill="none" points="586,331 608,331" stroke="#000000" stroke-width="0.5" /><polygon fill="none" points="639,386 634,389 637,394 642,391" stroke="#000000" stroke-width="1" /><polyline fill="none" points="641,394 669,394" stroke="#000000" stroke-width="0.5" /><line stroke="#009900" stroke-width="1" x1="611" x2="607" y1="331" y2="333" /><line stroke="#009900" stroke-width="1" x1="612.733177739" x2="608.733177739" y1="334.605009698" y2="336.605009698" /><line stroke="#009900" stroke-width="1" x1="614.466355479" x2="610.466355479" y1="338.210019396" y2="340.210019396" /><line stroke="#009900" stroke-width="1" x1="616.199533218" x2="612.199533218" y1="341.815029094" y2="343.815029094" /><line stroke="#009900" stroke-width="1" x1="617.932710958" x2="613.932710958" y1="345.420038792" y2="347.420038792" /><line stroke="#009900" stroke-width="1" x1="619.665888697" x2="615.665888697" y1="349.025048491" y2="351.025048491" /><line stroke="#009900" stroke-width="1" x1="621.399066437" x2="617.399066437" y1="352.630058189" y2="354.630058189" /><line stroke="#009900" stroke-width="1" x1="623.132244176" x2="619.132244176" y1="356.235067887" y2="358.235067887" /><line stroke="#009900" stroke-width="1" x1="624.865421916" x2="620.865421916" y1="359.840077585" y2="361.840077585" /><line stroke="#009900" stroke-width="1" x1="626.598599655" x2="622.598599655" y1="363.445087283" y2="365.445087283" /><line stroke="#009900" stroke-width="1" x1="628.331777395" x2="624.331777395" y1="367.050096981" y2="369.050096981" /><line stroke="#009900" stroke-width="1" x1="630.064955134" x2="626.064955134" y1="370.655106679" y2="372.655106679" /><line stroke="#009900" stroke-width="1" x1="631.798132874" x2="627.798132874" y1="374.260116377" y2="376.260116377" /><line stroke="#009900" stroke-width="1" x1="633.531310613" x2="629.531310613" y1="377.865126075" y2="379.865126075" /><line stroke="#009900" stroke-width="1" x1="635.264488353" x2="631.264488353" y1="381.470135773" y2="383.470135773" /><polyline fill="none" marker-end="url(#id259)" points="506,388 525,388" stroke="#FF0000" stroke-width="1" /><polyline fill="none" marker-end="url(#id259)" points="552,430 529,430" stroke="#FF0000" stroke-width="1" /><polyline fill="none" marker-end="url(#id259)" points="604,354 584,354" stroke="#009900" stroke-width="1" /><polyline fill="none" marker-end="url(#id259)" points="533,306 561,306" stroke="#009900" stroke-width="1" /><polygon fill="#34349C" points="629,398 625,398 625,399 629,399" stroke="#34349C" stroke-width="1" /><polygon fill="#FF0000" points="633,398 629,398 629,399 633,399" stroke="#FF0000" stroke-width="1" /><text fill="#00AFAF" font-family="Arial" font-size="15" stroke="none" transform="rotate(87.0,390,486)" x="390" y="501.0">Рязанский проспект</text><text fill="#00AFAF" font-family="Arial" font-size="15" stroke="none" transform="rotate(-10.0,565,533)" x="565" y="548.0">4-й Вешняковский проезд</text><text fill="#00AFAF" font-family="Arial" font-size="15" stroke="none" transform="rotate(-13.0,659,876)" x="659" y="891.0">улица Вострухина</text><text fill="#00AFAF" font-family="Arial" font-size="15" stroke="none" transform="rotate(-13.0,171,1019)" x="171" y="1034.0">улица Скрябина</text></g></svg>