<?xml version="1.0" encoding="utf-8" ?>
<svg baseProfile="full" height="800.0" version="1.1" width="600.0" xmlns="http://www.w3.org/2000/svg" xmlns:ev="http://www.w3.org/2001/xml-events" xmlns:xlink="http://www.w3.org/1999/xlink">
  <defs>
    <marker id="id279" markerHeight="3" markerUnits="strokeWidth" markerWidth="4" orient="auto" refX="0" refY="5" viewBox="0,0,10,10">
      <path d="M 0 0 L 10 5 L 0 10 z"/>
    </marker>
  </defs>
  <g>
    <rect fill="none" height="800.0" stroke="none" stroke-width="0" width="600.0" x="0.0" y="0.0"/>
    <g transform="rotate(-67.0,300.0,400.0)">
      <polygon fill="#fefbf1" points="-95.0,293.0 34.0,293.0 34.0,320.0 -3.0,320.0 -3.0,416.0 33.0,416.0 33.0,443.0 -95.0,443.0" stroke="#bbbbbb" stroke-width="1"/>
      <polygon fill="#fefbf1" points="678.0,293.0 678.0,443.0 542.0,443.0 542.0,416.0 586.0,416.0 586.0,320.0 542.0,320.0 542.0,293.0" stroke="#bbbbbb" stroke-width="1"/>
      <polygon fill="#ac24ac" points="62.0,299.0 512.0,299.0 512.0,329.0 62.0,329.0" stroke="#000000" stroke-width="1"/>
      <polygon fill="#ac24ac" points="62.0,409.0 512.0,409.0 512.0,439.0 62.0,439.0" stroke="#000000" stroke-width="1"/>
      <text fill="#ac24ac" font-family="Arial" font-size="20.0" stroke="none" stroke-width="0" x="62.0" y="293.0">&lt;&lt; Кузьминки</text>
      <text fill="#ac24ac" font-family="Arial" font-size="20.0" stroke="none" stroke-width="0" x="416.0" y="459.0">Выхино &gt;&gt;</text>
      <text fill="#ac24ac" font-family="Arial" font-size="25.0" stroke="none" stroke-width="0" x="175.0" y="378.0">Рязанский проспект</text>
      <polygon fill="#34349c" points="286.0,380.0 286.0,384.0 287.0,384.0 287.0,380.0" stroke="#34349c" stroke-width="1"/>
      <polygon fill="#ff0000" points="286.0,376.0 286.0,380.0 287.0,380.0 287.0,376.0" stroke="#ff0000" stroke-width="1"/>
      <polyline fill="none" points="34.0,320.0 -3.0,320.0 -3.0,331.0 56.0,331.0 56.0,337.0 62.0,337.0 62.0,329.0" stroke="#000000" stroke-width="1"/>
      <polyline fill="none" points="46.0,397.0 46.0,406.0 56.0,406.0 56.0,400.0 62.0,400.0 62.0,409.0" stroke="#000000" stroke-width="1"/>
      <polyline fill="none" points="-3.0,397.0 -3.0,416.0 33.0,416.0" stroke="#000000" stroke-width="1"/>
      <polyline fill="none" points="33.0,443.0 -95.0,443.0 -95.0,429.0 -86.0,429.0 -86.0,306.0 -95.0,306.0 -95.0,293.0 34.0,293.0" stroke="#000000" stroke-width="1"/>
      <line stroke="#000000" stroke-width="1" x1="2.0" x2="2.0" y1="331.0" y2="378.0"/>
      <line stroke="#000000" stroke-width="1" x1="6.0" x2="6.0" y1="331.0" y2="378.0"/>
      <line stroke="#000000" stroke-width="1" x1="10.0" x2="10.0" y1="331.0" y2="378.0"/>
      <line stroke="#000000" stroke-width="1" x1="14.0" x2="14.0" y1="331.0" y2="378.0"/>
      <line stroke="#000000" stroke-width="1" x1="18.0" x2="18.0" y1="331.0" y2="378.0"/>
      <line stroke="#000000" stroke-width="1" x1="22.0" x2="22.0" y1="331.0" y2="378.0"/>
      <line stroke="#000000" stroke-width="1" x1="26.0" x2="26.0" y1="331.0" y2="378.0"/>
      <line stroke="#000000" stroke-width="1" x1="30.0" x2="30.0" y1="331.0" y2="378.0"/>
      <line stroke="#000000" stroke-width="1" x1="34.0" x2="34.0" y1="331.0" y2="378.0"/>
      <line stroke="#000000" stroke-width="1" x1="38.0" x2="38.0" y1="331.0" y2="378.0"/>
      <line stroke="#000000" stroke-width="1" x1="42.0" x2="42.0" y1="331.0" y2="378.0"/>
      <line stroke="#000000" stroke-width="1" x1="46.0" x2="46.0" y1="331.0" y2="378.0"/>
      <line stroke="#7f7f7f" stroke-width="1" x1="42.0" x2="42.0" y1="393.0" y2="382.0"/>
      <line stroke="#7f7f7f" stroke-width="1" x1="38.0" x2="38.0" y1="393.0" y2="382.0"/>
      <line stroke="#7f7f7f" stroke-width="1" x1="34.0" x2="34.0" y1="393.0" y2="382.0"/>
      <line stroke="#7f7f7f" stroke-width="1" x1="30.0" x2="30.0" y1="393.0" y2="382.0"/>
      <line stroke="#7f7f7f" stroke-width="1" x1="26.0" x2="26.0" y1="393.0" y2="382.0"/>
      <line stroke="#7f7f7f" stroke-width="1" x1="22.0" x2="22.0" y1="393.0" y2="382.0"/>
      <line stroke="#7f7f7f" stroke-width="1" x1="18.0" x2="18.0" y1="393.0" y2="382.0"/>
      <line stroke="#7f7f7f" stroke-width="1" x1="14.0" x2="14.0" y1="393.0" y2="382.0"/>
      <line stroke="#7f7f7f" stroke-width="1" x1="10.0" x2="10.0" y1="393.0" y2="382.0"/>
      <line stroke="#7f7f7f" stroke-width="1" x1="6.0" x2="6.0" y1="393.0" y2="382.0"/>
      <line stroke="#7f7f7f" stroke-width="1" x1="2.0" x2="2.0" y1="393.0" y2="382.0"/>
      <polygon fill="#9b5509" points="49.0,382.0 -5.0,382.0 -5.0,378.0 49.0,378.0" stroke="#000000" stroke-width="1"/>
      <polygon fill="#9b5509" points="49.0,393.0 -5.0,393.0 -5.0,397.0 49.0,397.0" stroke="#000000" stroke-width="1"/>
      <polygon fill="#ffffff" points="-86.0,331.0 -95.0,331.0 -95.0,359.0 -86.0,359.0" stroke="#000000" stroke-width="1"/>
      <text fill="#000000" font-family="Arial" font-size="10.0" stroke="none" stroke-width="0" transform="rotate(90.0,-83.0,333.0)" x="-83.0" y="343.0">кассы</text>
      <polyline fill="none" points="-3.0,331.0 -24.0,331.0" stroke="#000000" stroke-width="0.5"/>
      <polygon fill="none" points="-55.0,387.0 -50.0,390.0 -53.0,395.0 -58.0,392.0" stroke="#000000" stroke-width="1"/>
      <polyline fill="none" points="-56.0,394.0 -86.0,394.0" stroke="#000000" stroke-width="0.5"/>
      <line stroke="#009900" stroke-width="1" x1="-26.0" x2="-22.0" y1="330.0" y2="332.0"/>
      <line stroke="#009900" stroke-width="1" x1="-27.788854381999833" x2="-23.788854381999833" y1="333.5777087639997" y2="335.5777087639997"/>
      <line stroke="#009900" stroke-width="1" x1="-29.577708763999667" x2="-25.577708763999667" y1="337.15541752799936" y2="339.15541752799936"/>
      <line stroke="#009900" stroke-width="1" x1="-31.3665631459995" x2="-27.3665631459995" y1="340.73312629199904" y2="342.73312629199904"/>
      <line stroke="#009900" stroke-width="1" x1="-33.15541752799933" x2="-29.155417527999333" y1="344.3108350559987" y2="346.3108350559987"/>
      <line stroke="#009900" stroke-width="1" x1="-34.944271909999166" x2="-30.944271909999166" y1="347.8885438199984" y2="349.8885438199984"/>
      <line stroke="#009900" stroke-width="1" x1="-36.733126291999" x2="-32.733126291999" y1="351.4662525839981" y2="353.4662525839981"/>
      <line stroke="#009900" stroke-width="1" x1="-38.52198067399883" x2="-34.52198067399883" y1="355.04396134799777" y2="357.04396134799777"/>
      <line stroke="#009900" stroke-width="1" x1="-40.310835055998666" x2="-36.310835055998666" y1="358.62167011199745" y2="360.62167011199745"/>
      <line stroke="#009900" stroke-width="1" x1="-42.0996894379985" x2="-38.0996894379985" y1="362.1993788759971" y2="364.1993788759971"/>
      <line stroke="#009900" stroke-width="1" x1="-43.88854381999833" x2="-39.88854381999833" y1="365.7770876399968" y2="367.7770876399968"/>
      <line stroke="#009900" stroke-width="1" x1="-45.677398201998166" x2="-41.677398201998166" y1="369.3547964039965" y2="371.3547964039965"/>
      <line stroke="#009900" stroke-width="1" x1="-47.466252583998" x2="-43.466252583998" y1="372.93250516799617" y2="374.93250516799617"/>
      <line stroke="#009900" stroke-width="1" x1="-49.25510696599783" x2="-45.25510696599783" y1="376.51021393199585" y2="378.51021393199585"/>
      <line stroke="#009900" stroke-width="1" x1="-51.043961347997666" x2="-47.043961347997666" y1="380.08792269599553" y2="382.08792269599553"/>
      <line stroke="#009900" stroke-width="1" x1="-52.8328157299975" x2="-48.8328157299975" y1="383.6656314599952" y2="385.6656314599952"/>
      <polyline fill="none" marker-end="url(#id279)" points="73.0,390.0 55.0,390.0" stroke="#ff0000" stroke-width="1"/>
      <polyline fill="none" marker-end="url(#id279)" points="24.0,430.0 44.0,430.0" stroke="#ff0000" stroke-width="1"/>
      <polyline fill="none" marker-end="url(#id279)" points="-21.0,357.0 -2.0,357.0" stroke="#009900" stroke-width="1"/>
      <polyline fill="none" marker-end="url(#id279)" points="42.0,307.0 21.0,307.0" stroke="#009900" stroke-width="1"/>
      <polygon fill="#34349c" points="-82.0,383.0 -82.0,379.0 -83.0,379.0 -83.0,383.0" stroke="#34349c" stroke-width="1"/>
      <polygon fill="#ff0000" points="-82.0,387.0 -82.0,383.0 -83.0,383.0 -83.0,387.0" stroke="#ff0000" stroke-width="1"/>
      <polyline fill="none" points="542.0,320.0 586.0,320.0 586.0,331.0 518.0,331.0 518.0,337.0 512.0,337.0 512.0,329.0" stroke="#000000" stroke-width="1"/>
      <polyline fill="none" points="535.0,397.0 535.0,406.0 518.0,406.0 518.0,400.0 512.0,400.0 512.0,409.0" stroke="#000000" stroke-width="1"/>
      <polyline fill="none" points="542.0,416.0 586.0,416.0 586.0,397.0" stroke="#000000" stroke-width="1"/>
      <polyline fill="none" points="542.0,443.0 678.0,443.0 678.0,429.0 669.0,429.0 669.0,306.0 678.0,306.0 678.0,293.0 542.0,293.0" stroke="#000000" stroke-width="1"/>
      <line stroke="#000000" stroke-width="1" x1="535.0" x2="535.0" y1="331.0" y2="378.0"/>
      <line stroke="#000000" stroke-width="1" x1="539.0" x2="539.0" y1="331.0" y2="378.0"/>
      <line stroke="#000000" stroke-width="1" x1="543.0" x2="543.0" y1="331.0" y2="378.0"/>
      <line stroke="#000000" stroke-width="1" x1="547.0" x2="547.0" y1="331.0" y2="378.0"/>
      <line stroke="#000000" stroke-width="1" x1="551.0" x2="551.0" y1="331.0" y2="378.0"/>
      <line stroke="#000000" stroke-width="1" x1="555.0" x2="555.0" y1="331.0" y2="378.0"/>
      <line stroke="#000000" stroke-width="1" x1="559.0" x2="559.0" y1="331.0" y2="378.0"/>
      <line stroke="#000000" stroke-width="1" x1="563.0" x2="563.0" y1="331.0" y2="378.0"/>
      <line stroke="#000000" stroke-width="1" x1="567.0" x2="567.0" y1="331.0" y2="378.0"/>
      <line stroke="#000000" stroke-width="1" x1="571.0" x2="571.0" y1="331.0" y2="378.0"/>
      <line stroke="#000000" stroke-width="1" x1="575.0" x2="575.0" y1="331.0" y2="378.0"/>
      <line stroke="#000000" stroke-width="1" x1="579.0" x2="579.0" y1="331.0" y2="378.0"/>
      <line stroke="#7f7f7f" stroke-width="1" x1="583.0" x2="583.0" y1="393.0" y2="382.0"/>
      <line stroke="#7f7f7f" stroke-width="1" x1="579.0" x2="579.0" y1="393.0" y2="382.0"/>
      <line stroke="#7f7f7f" stroke-width="1" x1="575.0" x2="575.0" y1="393.0" y2="382.0"/>
      <line stroke="#7f7f7f" stroke-width="1" x1="571.0" x2="571.0" y1="393.0" y2="382.0"/>
      <line stroke="#7f7f7f" stroke-width="1" x1="567.0" x2="567.0" y1="393.0" y2="382.0"/>
      <line stroke="#7f7f7f" stroke-width="1" x1="563.0" x2="563.0" y1="393.0" y2="382.0"/>
      <line stroke="#7f7f7f" stroke-width="1" x1="559.0" x2="559.0" y1="393.0" y2="382.0"/>
      <line stroke="#7f7f7f" stroke-width="1" x1="555.0" x2="555.0" y1="393.0" y2="382.0"/>
      <line stroke="#7f7f7f" stroke-width="1" x1="551.0" x2="551.0" y1="393.0" y2="382.0"/>
      <line stroke="#7f7f7f" stroke-width="1" x1="547.0" x2="547.0" y1="393.0" y2="382.0"/>
      <line stroke="#7f7f7f" stroke-width="1" x1="543.0" x2="543.0" y1="393.0" y2="382.0"/>
      <line stroke="#7f7f7f" stroke-width="1" x1="539.0" x2="539.0" y1="393.0" y2="382.0"/>
      <line stroke="#7f7f7f" stroke-width="1" x1="535.0" x2="535.0" y1="393.0" y2="382.0"/>
      <line stroke="#7f7f7f" stroke-width="1" x1="531.0" x2="531.0" y1="393.0" y2="382.0"/>
      <polygon fill="#9b5509" points="590.0,382.0 525.0,382.0 525.0,378.0 590.0,378.0" stroke="#000000" stroke-width="1"/>
      <polygon fill="#9b5509" points="590.0,393.0 525.0,393.0 525.0,397.0 590.0,397.0" stroke="#000000" stroke-width="1"/>
      <polygon fill="#ffffff" points="669.0,331.0 678.0,331.0 678.0,359.0 669.0,359.0" stroke="#000000" stroke-width="1"/>
      <text fill="#000000" font-family="Arial" font-size="10.0" stroke="none" stroke-width="0" transform="rotate(90.0,681.0,333.0)" x="681.0" y="343.0">кассы</text>
      <polyline fill="none" points="586.0,331.0 608.0,331.0" stroke="#000000" stroke-width="0.5"/>
      <polygon fill="none" points="639.0,386.0 634.0,389.0 637.0,394.0 642.0,391.0" stroke="#000000" stroke-width="1"/>
      <polyline fill="none" points="641.0,394.0 669.0,394.0" stroke="#000000" stroke-width="0.5"/>
      <line stroke="#009900" stroke-width="1" x1="611.0" x2="607.0" y1="331.0" y2="333.0"/>
      <line stroke="#009900" stroke-width="1" x1="612.7331777394716" x2="608.7331777394716" y1="334.60500969810073" y2="336.60500969810073"/>
      <line stroke="#009900" stroke-width="1" x1="614.4663554789431" x2="610.4663554789431" y1="338.21001939620146" y2="340.21001939620146"/>
      <line stroke="#009900" stroke-width="1" x1="616.1995332184147" x2="612.1995332184147" y1="341.8150290943022" y2="343.8150290943022"/>
      <line stroke="#009900" stroke-width="1" x1="617.9327109578862" x2="613.9327109578862" y1="345.4200387924029" y2="347.4200387924029"/>
      <line stroke="#009900" stroke-width="1" x1="619.6658886973578" x2="615.6658886973578" y1="349.02504849050365" y2="351.02504849050365"/>
      <line stroke="#009900" stroke-width="1" x1="621.3990664368293" x2="617.3990664368293" y1="352.6300581886044" y2="354.6300581886044"/>
      <line stroke="#009900" stroke-width="1" x1="623.1322441763009" x2="619.1322441763009" y1="356.2350678867051" y2="358.2350678867051"/>
      <line stroke="#009900" stroke-width="1" x1="624.8654219157725" x2="620.8654219157725" y1="359.84007758480584" y2="361.84007758480584"/>
      <line stroke="#009900" stroke-width="1" x1="626.598599655244" x2="622.598599655244" y1="363.44508728290657" y2="365.44508728290657"/>
      <line stroke="#009900" stroke-width="1" x1="628.3317773947156" x2="624.3317773947156" y1="367.0500969810073" y2="369.0500969810073"/>
      <line stroke="#009900" stroke-width="1" x1="630.0649551341871" x2="626.0649551341871" y1="370.65510667910803" y2="372.65510667910803"/>
      <line stroke="#009900" stroke-width="1" x1="631.7981328736587" x2="627.7981328736587" y1="374.26011637720876" y2="376.26011637720876"/>
      <line stroke="#009900" stroke-width="1" x1="633.5313106131302" x2="629.5313106131302" y1="377.8651260753095" y2="379.8651260753095"/>
      <line stroke="#009900" stroke-width="1" x1="635.2644883526018" x2="631.2644883526018" y1="381.4701357734102" y2="383.4701357734102"/>
      <polyline fill="none" marker-end="url(#id279)" points="506.0,388.0 525.0,388.0" stroke="#ff0000" stroke-width="1"/>
      <polyline fill="none" marker-end="url(#id279)" points="552.0,430.0 529.0,430.0" stroke="#ff0000" stroke-width="1"/>
      <polyline fill="none" marker-end="url(#id279)" points="604.0,354.0 584.0,354.0" stroke="#009900" stroke-width="1"/>
      <polyline fill="none" marker-end="url(#id279)" points="533.0,306.0 561.0,306.0" stroke="#009900" stroke-width="1"/>
      <polygon fill="#34349c" points="629.0,398.0 625.0,398.0 625.0,399.0 629.0,399.0" stroke="#34349c" stroke-width="1"/>
      <polygon fill="#ff0000" points="633.0,398.0 629.0,398.0 629.0,399.0 633.0,399.0" stroke="#ff0000" stroke-width="1"/>
      <text fill="#00afaf" font-family="Arial" font-size="15.0" stroke="none" stroke-width="0" transform="rotate(87.0,390.0,486.0)" x="390.0" y="501.0">Рязанский проспект</text>
      <text fill="#00afaf" font-family="Arial" font-size="15.0" stroke="none" stroke-width="0" transform="rotate(-10.0,565.0,533.0)" x="565.0" y="548.0">4-й Вешняковский проезд</text>
      <text fill="#00afaf" font-family="Arial" font-size="15.0" stroke="none" stroke-width="0" transform="rotate(-13.0,659.0,876.0)" x="659.0" y="891.0">улица Вострухина</text>
      <text fill="#00afaf" font-family="Arial" font-size="15.0" stroke="none" stroke-width="0" transform="rotate(-13.0,171.0,1019.0)" x="171.0" y="1034.0">улица Скрябина</text>
    </g>
    <g>
      <rect fill="#615f56" height="30.0" stroke="none" stroke-width="0" width="30.0" x="244.0" y="671.0"/>
      <rect fill="#615f56" height="30.0" stroke="none" stroke-width="0" width="30.0" x="454.0" y="172.0"/>
      <text fill="#ffd900" font-family="Arial" font-size="25.0" stroke="none" stroke-width="0" x="252.0" y="697.0">1</text>
      <text fill="#ffd900" font-family="Arial" font-size="25.0" stroke="none" stroke-width="0" x="462.0" y="198.0">2</text>
    </g>
  </g>
</svg>
