<?xml version="1.0" encoding="utf-8" ?>
<svg baseProfile="full" height="1100.0" version="1.1" width="460.0" xmlns="http://www.w3.org/2000/svg" xmlns:ev="http://www.w3.org/2001/xml-events" xmlns:xlink="http://www.w3.org/1999/xlink">
  <defs>
    <marker id="id282" markerHeight="3" markerUnits="strokeWidth" markerWidth="4" orient="auto" refX="0" refY="5" viewBox="0,0,10,10">
      <path d="M 0 0 L 10 5 L 0 10 z"/>
    </marker>
  </defs>
  <g>
    <rect fill="none" height="1100.0" stroke="none" stroke-width="0" width="460.0" x="0.0" y="0.0"/>
    <g transform="rotate(-90.0,230.0,550.0)">
      <polygon fill="#34349c" points="9.0,425.0 9.0,395.0 459.0,395.0 459.0,425.0" stroke="#000000" stroke-width="1"/>
      <polygon fill="#34349c" points="9.0,535.0 9.0,505.0 459.0,505.0 459.0,535.0" stroke="#000000" stroke-width="1"/>
      <text fill="#34349c" font-family="Arial" font-size="20.0" stroke="none" stroke-width="0" x="14.0" y="392.0">&lt;&lt; Первомайская</text>
      <text fill="#34349c" font-family="Arial" font-size="20.0" stroke="none" stroke-width="0" x="387.0" y="557.0">тупик &gt;&gt;</text>
      <text fill="#34349c" font-family="Arial" font-size="25.0" stroke="none" stroke-width="0" x="161.0" y="477.0">Щёлковская</text>
      <polyline fill="none" points="9.0,506.0 9.0,492.0 -48.0,492.0 -48.0,523.0 -131.0,523.0 -131.0,589.0 -184.0,589.0" stroke="#000000" stroke-width="1"/>
      <polyline fill="none" points="-184.0,570.0 -150.0,570.0 -150.0,362.0 -185.0,362.0" stroke="#000000" stroke-width="1"/>
      <polyline fill="none" points="-185.0,343.0 -131.0,343.0 -131.0,407.0 -48.0,407.0 -48.0,438.0 9.0,438.0 9.0,425.0" stroke="#000000" stroke-width="1"/>
      <line stroke="#000000" stroke-width="1" x1="-184.0" x2="-184.0" y1="362.0" y2="343.0"/>
      <line stroke="#000000" stroke-width="1" x1="-180.0" x2="-180.0" y1="362.0" y2="343.0"/>
      <line stroke="#000000" stroke-width="1" x1="-176.0" x2="-176.0" y1="362.0" y2="343.0"/>
      <line stroke="#000000" stroke-width="1" x1="-172.0" x2="-172.0" y1="362.0" y2="343.0"/>
      <line stroke="#000000" stroke-width="1" x1="-168.0" x2="-168.0" y1="362.0" y2="343.0"/>
      <line stroke="#000000" stroke-width="1" x1="-164.0" x2="-164.0" y1="362.0" y2="343.0"/>
      <line stroke="#000000" stroke-width="1" x1="-160.0" x2="-160.0" y1="362.0" y2="343.0"/>
      <line stroke="#000000" stroke-width="1" x1="-156.0" x2="-156.0" y1="362.0" y2="343.0"/>
      <line stroke="#000000" stroke-width="1" x1="-152.0" x2="-152.0" y1="362.0" y2="343.0"/>
      <line stroke="#000000" stroke-width="1" x1="-183.0" x2="-183.0" y1="570.0" y2="589.0"/>
      <line stroke="#000000" stroke-width="1" x1="-179.0" x2="-179.0" y1="570.0" y2="589.0"/>
      <line stroke="#000000" stroke-width="1" x1="-175.0" x2="-175.0" y1="570.0" y2="589.0"/>
      <line stroke="#000000" stroke-width="1" x1="-171.0" x2="-171.0" y1="570.0" y2="589.0"/>
      <line stroke="#000000" stroke-width="1" x1="-167.0" x2="-167.0" y1="570.0" y2="589.0"/>
      <line stroke="#000000" stroke-width="1" x1="-163.0" x2="-163.0" y1="570.0" y2="589.0"/>
      <line stroke="#000000" stroke-width="1" x1="-159.0" x2="-159.0" y1="570.0" y2="589.0"/>
      <line stroke="#000000" stroke-width="1" x1="-155.0" x2="-155.0" y1="570.0" y2="589.0"/>
      <line stroke="#000000" stroke-width="1" x1="-151.0" x2="-151.0" y1="570.0" y2="589.0"/>
      <line stroke="#000000" stroke-width="1" x1="-47.0" x2="-47.0" y1="438.0" y2="492.0"/>
      <line stroke="#000000" stroke-width="1" x1="-43.0" x2="-43.0" y1="438.0" y2="492.0"/>
      <line stroke="#000000" stroke-width="1" x1="-39.0" x2="-39.0" y1="438.0" y2="492.0"/>
      <line stroke="#000000" stroke-width="1" x1="-35.0" x2="-35.0" y1="438.0" y2="492.0"/>
      <line stroke="#000000" stroke-width="1" x1="-31.0" x2="-31.0" y1="438.0" y2="492.0"/>
      <line stroke="#000000" stroke-width="1" x1="-27.0" x2="-27.0" y1="438.0" y2="492.0"/>
      <line stroke="#000000" stroke-width="1" x1="-13.0" x2="-13.0" y1="438.0" y2="492.0"/>
      <line stroke="#000000" stroke-width="1" x1="-9.0" x2="-9.0" y1="438.0" y2="492.0"/>
      <line stroke="#000000" stroke-width="1" x1="-5.0" x2="-5.0" y1="438.0" y2="492.0"/>
      <line stroke="#000000" stroke-width="1" x1="-1.0" x2="-1.0" y1="438.0" y2="492.0"/>
      <line stroke="#000000" stroke-width="1" x1="3.0" x2="3.0" y1="438.0" y2="492.0"/>
      <line stroke="#000000" stroke-width="1" x1="7.0" x2="7.0" y1="438.0" y2="492.0"/>
      <polygon fill="#d0d0d0" points="-131.0,433.0 -118.0,433.0 -118.0,501.0 -131.0,501.0" stroke="#000000" stroke-width="1"/>
      <polygon fill="#ffffff" points="-126.0,454.0 -126.0,482.0 -118.0,482.0 -118.0,454.0" stroke="#000000" stroke-width="1"/>
      <text fill="#000000" font-family="Arial" font-size="10.0" stroke="none" stroke-width="0" transform="rotate(90.0,-116.0,456.0)" x="-116.0" y="466.0">кассы</text>
      <polyline fill="none" points="-48.0,435.0 -78.0,435.0" stroke="#000000" stroke-width="0.5"/>
      <polygon fill="none" points="-81.0,434.0 -76.0,437.0 -79.0,442.0 -84.0,439.0" stroke="#000000" stroke-width="1"/>
      <polyline fill="none" points="-102.0,520.0 -102.0,523.0" stroke="#000000" stroke-width="0.5"/>
      <polyline fill="none" points="-118.0,484.0 -104.0,484.0" stroke="#000000" stroke-width="0.5"/>
      <line stroke="#009900" stroke-width="1" x1="-86.0" x2="-82.0" y1="443.0" y2="445.0"/>
      <line stroke="#009900" stroke-width="1" x1="-87.67623270984699" x2="-83.67623270984699" y1="446.63183753800183" y2="448.63183753800183"/>
      <line stroke="#009900" stroke-width="1" x1="-89.35246541969397" x2="-85.35246541969397" y1="450.26367507600366" y2="452.26367507600366"/>
      <line stroke="#009900" stroke-width="1" x1="-91.02869812954096" x2="-87.02869812954096" y1="453.8955126140055" y2="455.8955126140055"/>
      <line stroke="#009900" stroke-width="1" x1="-92.70493083938794" x2="-88.70493083938794" y1="457.52735015200733" y2="459.52735015200733"/>
      <line stroke="#009900" stroke-width="1" x1="-94.38116354923493" x2="-90.38116354923493" y1="461.15918769000916" y2="463.15918769000916"/>
      <line stroke="#009900" stroke-width="1" x1="-96.05739625908191" x2="-92.05739625908191" y1="464.791025228011" y2="466.791025228011"/>
      <line stroke="#009900" stroke-width="1" x1="-97.7336289689289" x2="-93.7336289689289" y1="468.4228627660128" y2="470.4228627660128"/>
      <line stroke="#009900" stroke-width="1" x1="-99.40986167877588" x2="-95.40986167877588" y1="472.05470030401466" y2="474.05470030401466"/>
      <line stroke="#009900" stroke-width="1" x1="-101.08609438862287" x2="-97.08609438862287" y1="475.6865378420165" y2="477.6865378420165"/>
      <line stroke="#009900" stroke-width="1" x1="-102.76232709846985" x2="-98.76232709846985" y1="479.3183753800183" y2="481.3183753800183"/>
      <line stroke="#ff0000" stroke-width="1" x1="-104.0" x2="-100.0" y1="484.0" y2="484.0"/>
      <line stroke="#ff0000" stroke-width="1" x1="-104.0" x2="-100.0" y1="488.0" y2="488.0"/>
      <line stroke="#ff0000" stroke-width="1" x1="-104.0" x2="-100.0" y1="492.0" y2="492.0"/>
      <line stroke="#ff0000" stroke-width="1" x1="-104.0" x2="-100.0" y1="496.0" y2="496.0"/>
      <line stroke="#ff0000" stroke-width="1" x1="-104.0" x2="-100.0" y1="500.0" y2="500.0"/>
      <line stroke="#ff0000" stroke-width="1" x1="-104.0" x2="-100.0" y1="504.0" y2="504.0"/>
      <line stroke="#ff0000" stroke-width="1" x1="-104.0" x2="-100.0" y1="508.0" y2="508.0"/>
      <line stroke="#ff0000" stroke-width="1" x1="-104.0" x2="-100.0" y1="512.0" y2="512.0"/>
      <line stroke="#ff0000" stroke-width="1" x1="-104.0" x2="-100.0" y1="516.0" y2="516.0"/>
      <line stroke="#ff0000" stroke-width="1" x1="-104.0" x2="-100.0" y1="520.0" y2="520.0"/>
      <polyline fill="none" marker-end="url(#id282)" points="-118.0,512.0 -133.0,512.0" stroke="#ff0000" stroke-width="1"/>
      <polyline fill="none" marker-end="url(#id282)" points="-133.0,420.0 -118.0,420.0" stroke="#009900" stroke-width="1"/>
      <polyline fill="none" points="429.0,342.0 489.0,342.0 489.0,336.0 583.0,336.0 583.0,342.0 643.0,342.0" stroke="#000000" stroke-width="1"/>
      <polyline fill="none" points="429.0,362.0 502.0,362.0 512.0,372.0 512.0,395.0 508.0,395.0 508.0,437.0 459.0,437.0 459.0,425.0" stroke="#000000" stroke-width="1"/>
      <polyline fill="none" points="459.0,506.0 459.0,492.0 508.0,492.0 508.0,536.0 512.0,536.0 512.0,560.0 502.0,570.0 451.0,570.0 436.0,585.0 436.0,636.0" stroke="#000000" stroke-width="1"/>
      <polyline fill="none" points="456.0,636.0 456.0,593.0 459.0,590.0 489.0,590.0 489.0,596.0 583.0,596.0 583.0,590.0 643.0,590.0" stroke="#000000" stroke-width="1"/>
      <polyline fill="none" points="643.0,570.0 572.0,570.0 562.0,560.0 562.0,495.0 573.0,495.0 573.0,434.0 562.0,434.0 562.0,372.0 572.0,362.0 642.0,362.0" stroke="#000000" stroke-width="1"/>
      <line stroke="#000000" stroke-width="1" x1="456.0" x2="436.0" y1="634.0" y2="634.0"/>
      <line stroke="#000000" stroke-width="1" x1="456.0" x2="436.0" y1="630.0" y2="630.0"/>
      <line stroke="#000000" stroke-width="1" x1="456.0" x2="436.0" y1="626.0" y2="626.0"/>
      <line stroke="#000000" stroke-width="1" x1="456.0" x2="436.0" y1="622.0" y2="622.0"/>
      <line stroke="#000000" stroke-width="1" x1="456.0" x2="436.0" y1="618.0" y2="618.0"/>
      <line stroke="#000000" stroke-width="1" x1="456.0" x2="436.0" y1="614.0" y2="614.0"/>
      <line stroke="#000000" stroke-width="1" x1="456.0" x2="436.0" y1="610.0" y2="610.0"/>
      <line stroke="#000000" stroke-width="1" x1="456.0" x2="436.0" y1="606.0" y2="606.0"/>
      <line stroke="#000000" stroke-width="1" x1="456.0" x2="436.0" y1="602.0" y2="602.0"/>
      <line stroke="#000000" stroke-width="1" x1="456.0" x2="436.0" y1="598.0" y2="598.0"/>
      <line stroke="#000000" stroke-width="1" x1="464.0" x2="464.0" y1="570.0" y2="590.0"/>
      <line stroke="#000000" stroke-width="1" x1="468.0" x2="468.0" y1="570.0" y2="590.0"/>
      <line stroke="#000000" stroke-width="1" x1="472.0" x2="472.0" y1="570.0" y2="590.0"/>
      <line stroke="#000000" stroke-width="1" x1="476.0" x2="476.0" y1="570.0" y2="590.0"/>
      <line stroke="#000000" stroke-width="1" x1="480.0" x2="480.0" y1="570.0" y2="590.0"/>
      <line stroke="#000000" stroke-width="1" x1="590.0" x2="590.0" y1="570.0" y2="590.0"/>
      <line stroke="#000000" stroke-width="1" x1="594.0" x2="594.0" y1="570.0" y2="590.0"/>
      <line stroke="#000000" stroke-width="1" x1="598.0" x2="598.0" y1="570.0" y2="590.0"/>
      <line stroke="#000000" stroke-width="1" x1="602.0" x2="602.0" y1="570.0" y2="590.0"/>
      <line stroke="#000000" stroke-width="1" x1="606.0" x2="606.0" y1="570.0" y2="590.0"/>
      <line stroke="#000000" stroke-width="1" x1="621.0" x2="621.0" y1="570.0" y2="590.0"/>
      <line stroke="#000000" stroke-width="1" x1="625.0" x2="625.0" y1="570.0" y2="590.0"/>
      <line stroke="#000000" stroke-width="1" x1="629.0" x2="629.0" y1="570.0" y2="590.0"/>
      <line stroke="#000000" stroke-width="1" x1="633.0" x2="633.0" y1="570.0" y2="590.0"/>
      <line stroke="#000000" stroke-width="1" x1="637.0" x2="637.0" y1="570.0" y2="590.0"/>
      <line stroke="#000000" stroke-width="1" x1="461.0" x2="461.0" y1="437.0" y2="492.0"/>
      <line stroke="#000000" stroke-width="1" x1="465.0" x2="465.0" y1="437.0" y2="492.0"/>
      <line stroke="#000000" stroke-width="1" x1="469.0" x2="469.0" y1="437.0" y2="492.0"/>
      <line stroke="#000000" stroke-width="1" x1="473.0" x2="473.0" y1="437.0" y2="492.0"/>
      <line stroke="#000000" stroke-width="1" x1="477.0" x2="477.0" y1="437.0" y2="492.0"/>
      <line stroke="#000000" stroke-width="1" x1="490.0" x2="490.0" y1="437.0" y2="492.0"/>
      <line stroke="#000000" stroke-width="1" x1="494.0" x2="494.0" y1="437.0" y2="492.0"/>
      <line stroke="#000000" stroke-width="1" x1="498.0" x2="498.0" y1="437.0" y2="492.0"/>
      <line stroke="#000000" stroke-width="1" x1="502.0" x2="502.0" y1="437.0" y2="492.0"/>
      <line stroke="#000000" stroke-width="1" x1="506.0" x2="506.0" y1="437.0" y2="492.0"/>
      <line stroke="#000000" stroke-width="1" x1="433.0" x2="433.0" y1="342.0" y2="362.0"/>
      <line stroke="#000000" stroke-width="1" x1="437.0" x2="437.0" y1="342.0" y2="362.0"/>
      <line stroke="#000000" stroke-width="1" x1="441.0" x2="441.0" y1="342.0" y2="362.0"/>
      <line stroke="#000000" stroke-width="1" x1="445.0" x2="445.0" y1="342.0" y2="362.0"/>
      <line stroke="#000000" stroke-width="1" x1="449.0" x2="449.0" y1="342.0" y2="362.0"/>
      <line stroke="#000000" stroke-width="1" x1="464.0" x2="464.0" y1="342.0" y2="362.0"/>
      <line stroke="#000000" stroke-width="1" x1="468.0" x2="468.0" y1="342.0" y2="362.0"/>
      <line stroke="#000000" stroke-width="1" x1="472.0" x2="472.0" y1="342.0" y2="362.0"/>
      <line stroke="#000000" stroke-width="1" x1="476.0" x2="476.0" y1="342.0" y2="362.0"/>
      <line stroke="#000000" stroke-width="1" x1="480.0" x2="480.0" y1="342.0" y2="362.0"/>
      <line stroke="#000000" stroke-width="1" x1="590.0" x2="590.0" y1="342.0" y2="362.0"/>
      <line stroke="#000000" stroke-width="1" x1="594.0" x2="594.0" y1="342.0" y2="362.0"/>
      <line stroke="#000000" stroke-width="1" x1="598.0" x2="598.0" y1="342.0" y2="362.0"/>
      <line stroke="#000000" stroke-width="1" x1="602.0" x2="602.0" y1="342.0" y2="362.0"/>
      <line stroke="#000000" stroke-width="1" x1="606.0" x2="606.0" y1="342.0" y2="362.0"/>
      <line stroke="#000000" stroke-width="1" x1="621.0" x2="621.0" y1="342.0" y2="362.0"/>
      <line stroke="#000000" stroke-width="1" x1="625.0" x2="625.0" y1="342.0" y2="362.0"/>
      <line stroke="#000000" stroke-width="1" x1="629.0" x2="629.0" y1="342.0" y2="362.0"/>
      <line stroke="#000000" stroke-width="1" x1="633.0" x2="633.0" y1="342.0" y2="362.0"/>
      <line stroke="#000000" stroke-width="1" x1="637.0" x2="637.0" y1="342.0" y2="362.0"/>
      <polyline fill="none" points="573.0,446.0 585.0,446.0 585.0,485.0 573.0,485.0" stroke="#000000" stroke-width="1"/>
      <text fill="#000000" font-family="Arial" font-size="15.0" stroke="none" stroke-width="0" transform="rotate(90.0,588.0,447.0)" x="588.0" y="462.0">кассы</text>
      <polyline fill="none" points="536.0,373.0 536.0,449.0" stroke="#000000" stroke-width="0.5"/>
      <polyline fill="none" points="536.0,560.0 536.0,491.0" stroke="#000000" stroke-width="0.5"/>
      <polygon fill="none" points="539.0,490.0 532.0,490.0 532.0,483.0 539.0,483.0" stroke="#000000" stroke-width="1"/>
      <line stroke="#009900" stroke-width="1" x1="538.0" x2="533.0" y1="478.0" y2="478.0"/>
      <line stroke="#009900" stroke-width="1" x1="538.0" x2="533.0" y1="474.0" y2="474.0"/>
      <line stroke="#009900" stroke-width="1" x1="538.0" x2="533.0" y1="470.0" y2="470.0"/>
      <line stroke="#009900" stroke-width="1" x1="538.0" x2="533.0" y1="466.0" y2="466.0"/>
      <line stroke="#009900" stroke-width="1" x1="538.0" x2="533.0" y1="462.0" y2="462.0"/>
      <line stroke="#009900" stroke-width="1" x1="538.0" x2="533.0" y1="458.0" y2="458.0"/>
      <line stroke="#009900" stroke-width="1" x1="538.0" x2="533.0" y1="454.0" y2="454.0"/>
      <line stroke="#009900" stroke-width="1" x1="538.0" x2="533.0" y1="450.0" y2="450.0"/>
      <line stroke="#ff0000" stroke-width="1" x1="535.0" x2="532.0" y1="444.0" y2="447.0"/>
      <line stroke="#ff0000" stroke-width="1" x1="532.1715728752538" x2="529.1715728752538" y1="441.1715728752538" y2="444.1715728752538"/>
      <line stroke="#ff0000" stroke-width="1" x1="529.3431457505076" x2="526.3431457505076" y1="438.3431457505076" y2="441.3431457505076"/>
      <line stroke="#ff0000" stroke-width="1" x1="526.5147186257614" x2="523.5147186257614" y1="435.51471862576136" y2="438.51471862576136"/>
      <line stroke="#ff0000" stroke-width="1" x1="523.6862915010151" x2="520.6862915010151" y1="432.68629150101515" y2="435.68629150101515"/>
      <line stroke="#ff0000" stroke-width="1" x1="520.8578643762689" x2="517.8578643762689" y1="429.85786437626894" y2="432.85786437626894"/>
      <line stroke="#ff0000" stroke-width="1" x1="518.0294372515227" x2="515.0294372515227" y1="427.0294372515227" y2="430.0294372515227"/>
      <line stroke="#ff0000" stroke-width="1" x1="515.2010101267765" x2="512.2010101267765" y1="424.2010101267765" y2="427.2010101267765"/>
      <line stroke="#ff0000" stroke-width="1" x1="512.3725830020303" x2="509.3725830020303" y1="421.3725830020303" y2="424.3725830020303"/>
      <line stroke="#ff0000" stroke-width="1" x1="511.0" x2="508.0" y1="514.0" y2="511.0"/>
      <line stroke="#ff0000" stroke-width="1" x1="513.8284271247462" x2="510.8284271247462" y1="511.1715728752538" y2="508.1715728752538"/>
      <line stroke="#ff0000" stroke-width="1" x1="516.6568542494924" x2="513.6568542494924" y1="508.3431457505076" y2="505.3431457505076"/>
      <line stroke="#ff0000" stroke-width="1" x1="519.4852813742386" x2="516.4852813742386" y1="505.51471862576136" y2="502.51471862576136"/>
      <line stroke="#ff0000" stroke-width="1" x1="522.3137084989849" x2="519.3137084989849" y1="502.68629150101515" y2="499.68629150101515"/>
      <line stroke="#ff0000" stroke-width="1" x1="525.1421356237311" x2="522.1421356237311" y1="499.85786437626894" y2="496.85786437626894"/>
      <line stroke="#ff0000" stroke-width="1" x1="527.9705627484773" x2="524.9705627484773" y1="497.0294372515227" y2="494.0294372515227"/>
      <line stroke="#ff0000" stroke-width="1" x1="530.7989898732235" x2="527.7989898732235" y1="494.2010101267765" y2="491.2010101267765"/>
      <polyline fill="none" marker-end="url(#id282)" points="518.0,436.0 528.0,426.0" stroke="#ff0000" stroke-width="1"/>
      <polyline fill="none" marker-end="url(#id282)" points="516.0,499.0 528.0,511.0" stroke="#ff0000" stroke-width="1"/>
      <polyline fill="none" marker-end="url(#id282)" points="549.0,373.0 549.0,396.0" stroke="#009900" stroke-width="1"/>
      <polyline fill="none" marker-end="url(#id282)" points="540.0,464.0 525.0,464.0" stroke="#009900" stroke-width="1"/>
      <polyline fill="none" marker-end="url(#id282)" points="549.0,560.0 549.0,537.0" stroke="#009900" stroke-width="1"/>
      <text fill="#00afaf" font-family="Arial" font-size="15.0" stroke="none" stroke-width="0" transform="rotate(90.0,770.0,628.0)" x="770.0" y="643.0">Центральный автовокзал</text>
      <text fill="#00afaf" font-family="Arial" font-size="15.0" stroke="none" stroke-width="0" transform="rotate(90.0,540.0,634.0)" x="540.0" y="649.0">Щёлковское шоссе</text>
      <text fill="#00afaf" font-family="Arial" font-size="15.0" stroke="none" stroke-width="0" x="-303.0" y="477.0">9-я Парковая улица</text>
      <text fill="#00afaf" font-family="Arial" font-size="15.0" stroke="none" stroke-width="0" x="639.0" y="476.0">Уральская улица</text>
      <text fill="#00afaf" font-family="Arial" font-size="15.0" stroke="none" stroke-width="0" x="-301.0" y="614.0">'&lt;&lt; Кинотеатр &quot;София&quot;'</text>
      <text fill="#00afaf" font-family="Arial" font-size="15.0" stroke="none" stroke-width="0" x="-302.0" y="634.0">'&lt;&lt;Универмаг &quot;Первомайский&quot;'</text>
    </g>
    <g>
      <rect fill="#615f56" height="30.0" stroke="none" stroke-width="0" width="30.0" x="21.0" y="364.0"/>
      <rect fill="#615f56" height="30.0" stroke="none" stroke-width="0" width="30.0" x="17.0" y="88.0"/>
      <rect fill="#615f56" height="30.0" stroke="none" stroke-width="0" width="30.0" x="241.0" y="95.0"/>
      <rect fill="#615f56" height="30.0" stroke="none" stroke-width="0" width="30.0" x="283.0" y="347.0"/>
      <rect fill="#615f56" height="30.0" stroke="none" stroke-width="0" width="30.0" x="20.0" y="979.0"/>
      <rect fill="#615f56" height="30.0" stroke="none" stroke-width="0" width="30.0" x="245.0" y="974.0"/>
      <text fill="#ffd900" font-family="Arial" font-size="25.0" stroke="none" stroke-width="0" x="29.0" y="390.0">1</text>
      <text fill="#ffd900" font-family="Arial" font-size="25.0" stroke="none" stroke-width="0" x="25.0" y="114.0">2</text>
      <text fill="#ffd900" font-family="Arial" font-size="25.0" stroke="none" stroke-width="0" x="249.0" y="121.0">3</text>
      <text fill="#ffd900" font-family="Arial" font-size="25.0" stroke="none" stroke-width="0" x="291.0" y="373.0">4</text>
      <text fill="#ffd900" font-family="Arial" font-size="25.0" stroke="none" stroke-width="0" x="28.0" y="1005.0">5</text>
      <text fill="#ffd900" font-family="Arial" font-size="25.0" stroke="none" stroke-width="0" x="253.0" y="1000.0">6</text>
    </g>
  </g>
</svg>
