<svg xmlns="http://www.w3.org/2000/svg" version="1.1">
<defs>
    <marker id="arrow"
      viewBox="0 0 10 10" refX="0" refY="5"
      markerUnits="strokeWidth"
      markerWidth="4" markerHeight="3"
      orient="auto">
      <path d="M 0 0 L 10 5 L 0 10 z" />
    </marker>
  </defs>
<g stroke="#000000" fill="none" stroke-opacity="1.0" fill-opacity="1.0" transform="scale(0.5)">
<rect x="0" y="0" width="480" height="720" stroke-width="0" fill="none" />
<g stroke="#000000" fill="none" stroke-opacity="1.0" fill-opacity="1.0" transform="scale(0.5)">
</g>
<g transform="rotate(-75.0 240 360)" >
<g stroke="#000000" fill="none" stroke-opacity="1.0" fill-opacity="1.0" transform="scale(0.5)">
</g>
<g stroke="#000000" fill="#FC9C54" stroke-opacity="1.0" fill-opacity="1.0" transform="scale(0.5)">
<polygon points="150,343  600,343  600,373  150,373" stroke-width="1" />
<polygon points="150,453  600,453  600,483  150,483" stroke-width="1" />
</g>
<g stroke="#F7782E" fill="none" stroke-opacity="1.0" fill-opacity="1.0" transform="scale(0.5)">
<text x=" 275" y="409.0" font-family="Arial" font-size=" 25" fill="#F7782E" stroke-width="0">Шаболовская</text>
<text x=" 149" y="340.0" font-family="Arial" font-size=" 20" fill="#F7782E" stroke-width="0">&lt;&lt; Ленинский проспект</text>
<text x=" 472" y="504.0" font-family="Arial" font-size=" 20" fill="#F7782E" stroke-width="0">Октябрьская &gt;&gt;</text>
</g>
<g stroke="#7F7F7F" fill="none" stroke-opacity="1.0" fill-opacity="1.0" transform="scale(0.5)">
<line x1="1" y1="389" x2="1" y2="438" stroke-width="1" />
<line x1="5" y1="389" x2="5" y2="438" stroke-width="1" />
<line x1="9" y1="389" x2="9" y2="438" stroke-width="1" />
<line x1="13" y1="389" x2="13" y2="438" stroke-width="1" />
<line x1="17" y1="389" x2="17" y2="438" stroke-width="1" />
<line x1="21" y1="389" x2="21" y2="438" stroke-width="1" />
<line x1="25" y1="389" x2="25" y2="438" stroke-width="1" />
<line x1="29" y1="389" x2="29" y2="438" stroke-width="1" />
<line x1="33" y1="389" x2="33" y2="438" stroke-width="1" />
<line x1="37" y1="389" x2="37" y2="438" stroke-width="1" />
<line x1="41" y1="389" x2="41" y2="438" stroke-width="1" />
<line x1="45" y1="389" x2="45" y2="438" stroke-width="1" />
<line x1="49" y1="389" x2="49" y2="438" stroke-width="1" />
<line x1="53" y1="389" x2="53" y2="438" stroke-width="1" />
<line x1="57" y1="389" x2="57" y2="438" stroke-width="1" />
<line x1="61" y1="389" x2="61" y2="438" stroke-width="1" />
<line x1="65" y1="389" x2="65" y2="438" stroke-width="1" />
<line x1="69" y1="389" x2="69" y2="438" stroke-width="1" />
<line x1="73" y1="389" x2="73" y2="438" stroke-width="1" />
<line x1="77" y1="389" x2="77" y2="438" stroke-width="1" />
<line x1="81" y1="389" x2="81" y2="438" stroke-width="1" />
<line x1="85" y1="389" x2="85" y2="438" stroke-width="1" />
<line x1="89" y1="389" x2="89" y2="438" stroke-width="1" />
<line x1="93" y1="389" x2="93" y2="438" stroke-width="1" />
<line x1="97" y1="389" x2="97" y2="438" stroke-width="1" />
<line x1="101" y1="389" x2="101" y2="438" stroke-width="1" />
<line x1="105" y1="389" x2="105" y2="438" stroke-width="1" />
<line x1="109" y1="389" x2="109" y2="438" stroke-width="1" />
<line x1="113" y1="389" x2="113" y2="438" stroke-width="1" />
<line x1="117" y1="389" x2="117" y2="438" stroke-width="1" />
<line x1="121" y1="389" x2="121" y2="438" stroke-width="1" />
<line x1="125" y1="389" x2="125" y2="438" stroke-width="1" />
<line x1="129" y1="389" x2="129" y2="438" stroke-width="1" />
<line x1="133" y1="389" x2="133" y2="438" stroke-width="1" />
<line x1="137" y1="389" x2="137" y2="438" stroke-width="1" />
<line x1="141" y1="389" x2="141" y2="438" stroke-width="1" />
<line x1="145" y1="389" x2="145" y2="438" stroke-width="1" />
<line x1="149" y1="389" x2="149" y2="438" stroke-width="1" />
<line x1="153" y1="389" x2="153" y2="438" stroke-width="1" />
<line x1="157" y1="389" x2="157" y2="438" stroke-width="1" />
<line x1="161" y1="389" x2="161" y2="438" stroke-width="1" />
<line x1="165" y1="389" x2="165" y2="438" stroke-width="1" />
<line x1="169" y1="389" x2="169" y2="438" stroke-width="1" />
<line x1="173" y1="389" x2="173" y2="438" stroke-width="1" />
<line x1="177" y1="389" x2="177" y2="438" stroke-width="1" />
<line x1="181" y1="389" x2="181" y2="438" stroke-width="1" />
<line x1="185" y1="389" x2="185" y2="438" stroke-width="1" />
<line x1="189" y1="389" x2="189" y2="438" stroke-width="1" />
<line x1="193" y1="389" x2="193" y2="438" stroke-width="1" />
</g>
<g stroke="#000000" fill="#9B5509" stroke-opacity="1.0" fill-opacity="1.0" transform="scale(0.5)">
<polygon points="199,387  -2,387  -2,391  199,391" stroke-width="1" />
<polygon points="199,402  -2,402  -2,408  199,408" stroke-width="1" />
<polygon points="199,419  -2,419  -2,425  199,425" stroke-width="1" />
<polygon points="199,436  -2,436  -2,440  199,440" stroke-width="1" />
<polyline points="150,373  150,382  236,382  236,393  230,393  230,387  199,387" stroke-width="1" fill="none"  />
<polyline points="24,387  23,369  -97,380  -96,391  -93,391" stroke-width="1" fill="none"  />
<polyline points="150,453  150,445  236,445  236,434  230,434  230,440  28,440  32,485  -36,491  -36,488" stroke-width="1" fill="none"  />
<polyline points="-90,418  -93,418  -86,496  -58,493  -58,490" stroke-width="1" fill="none"  />
<polyline points="600,373  600,385  459,385  459,397  465,397  465,428  459,428  459,441  600,441  600,453" stroke-width="1" fill="none"  />
</g>
<g stroke="#000000" fill="none" stroke-opacity="1.0" fill-opacity="1.0" transform="scale(0.5)">
<polyline points="29,449  42,448  45,480  32,481" stroke-width="1" fill="none"  />
<text x=" 42" y="462.0" font-family="Arial" font-size=" 10" fill="#000000" transform="rotate(85.0  42  452)" stroke-width="0">кассы</text>
<polyline points="-1,441  -34,452" stroke-width=" 0.5" fill="none"  />
<polyline points="-2,410  -42,411" stroke-width=" 0.5" fill="none"  />
<polygon points="-32,450  -33,445  -38,446  -37,451" stroke-width="1" />
</g>
<g stroke="#009900" fill="none" stroke-opacity="1.0" fill-opacity="1.0" transform="scale(0.5)">
<line x1="-46" y1="413" x2="-41" y2="412" stroke-width="1" />
<line x1="-45.0004879239" y1="416.873109295" x2="-40.0004879239" y2="415.873109295" stroke-width="1" />
<line x1="-44.0009758478" y1="420.74621859" x2="-39.0009758478" y2="419.74621859" stroke-width="1" />
<line x1="-43.0014637717" y1="424.619327885" x2="-38.0014637717" y2="423.619327885" stroke-width="1" />
<line x1="-42.0019516957" y1="428.492437179" x2="-37.0019516957" y2="427.492437179" stroke-width="1" />
<line x1="-41.0024396196" y1="432.365546474" x2="-36.0024396196" y2="431.365546474" stroke-width="1" />
<line x1="-40.0029275435" y1="436.238655769" x2="-35.0029275435" y2="435.238655769" stroke-width="1" />
<line x1="-39.0034154674" y1="440.111765064" x2="-34.0034154674" y2="439.111765064" stroke-width="1" />
<line x1="-38.0039033913" y1="443.984874359" x2="-33.0039033913" y2="442.984874359" stroke-width="1" />
</g>
<g stroke="#FF0000" fill="none" stroke-opacity="1.0" fill-opacity="1.0" transform="scale(0.5)">
<line x1="-41" y1="409" x2="-47" y2="409" stroke-width="1" />
<line x1="-41.3416045654" y1="405.014613404" x2="-47.3416045654" y2="405.014613404" stroke-width="1" />
<line x1="-41.6832091308" y1="401.029226808" x2="-47.6832091308" y2="401.029226808" stroke-width="1" />
<line x1="-42.0248136962" y1="397.043840211" x2="-48.0248136962" y2="397.043840211" stroke-width="1" />
<line x1="-42.3664182615" y1="393.058453615" x2="-48.3664182615" y2="393.058453615" stroke-width="1" />
<line x1="-42.7080228269" y1="389.073067019" x2="-48.7080228269" y2="389.073067019" stroke-width="1" />
<line x1="-43.0496273923" y1="385.087680423" x2="-49.0496273923" y2="385.087680423" stroke-width="1" />
<line x1="-43.3912319577" y1="381.102293827" x2="-49.3912319577" y2="381.102293827" stroke-width="1" />
<line x1="-43.7328365231" y1="377.116907231" x2="-49.7328365231" y2="377.116907231" stroke-width="1" />
</g>
<g stroke="#000000" fill="none" stroke-opacity="1.0" fill-opacity="1.0" transform="scale(0.5)">
<polyline points="-13,372  -14,362  -41,364  -40,375" stroke-width="1" fill="none"  />
<text x=" -40" y="372.0" font-family="Arial" font-size=" 7" fill="#000000" transform="rotate(-5.0  -40  365)" stroke-width="0">полиция</text>
</g>
<g stroke="#FF0000" fill="none" stroke-opacity="1.0" fill-opacity="1.0" transform="scale(0.5)">
<polyline points="-8,397  -23,397" marker-end="url(#arrow)" stroke-width="1" fill="none" />
<polyline points="220,396  202,396" marker-end="url(#arrow)" stroke-width="1" fill="none" />
<polyline points="-89,405  -101,406" marker-end="url(#arrow)" stroke-width="1" fill="none" />
</g>
<g stroke="#009900" fill="none" stroke-opacity="1.0" fill-opacity="1.0" transform="scale(0.5)">
<polyline points="-46,496  -47,484" marker-end="url(#arrow)" stroke-width="1" fill="none" />
<polyline points="-22,431  -7,431" marker-end="url(#arrow)" stroke-width="1" fill="none" />
<polyline points="202,430  221,430" marker-end="url(#arrow)" stroke-width="1" fill="none" />
</g>
<g stroke="#34349C" fill="#34349C" stroke-opacity="1.0" fill-opacity="1.0" transform="scale(0.5)">
<polygon points="359,420  357,420  357,415  359,415" stroke-width="1" />
<polygon points="-2,376  -2,374  -7,374  -7,376" stroke-width="1" />
</g>
<g stroke="#FF0000" fill="#FF0000" stroke-opacity="1.0" fill-opacity="1.0" transform="scale(0.5)">
<polygon points="359,415  357,415  357,410  359,410" stroke-width="1" />
<polygon points="-7,376  -7,374  -12,374  -12,376" stroke-width="1" />
</g>
<g stroke="#00AFAF" fill="none" stroke-opacity="1.0" fill-opacity="1.0" transform="scale(0.5)">
<text x=" -25" y="602.0" font-family="Arial" font-size=" 15" fill="#00AFAF" transform="rotate(-5.0  -25  587)" stroke-width="0">улица Шаболовка</text>
<text x=" 350" y="113.0" font-family="Arial" font-size=" 15" fill="#00AFAF" transform="rotate(85.0  350  98)" stroke-width="0">улица Академика Петровского</text>
</g>
</g>
</g>
</svg>
