<?xml version="1.0" encoding="utf-8" ?>
<svg baseProfile="full" height="870.0" version="1.1" width="910.0" xmlns="http://www.w3.org/2000/svg" xmlns:ev="http://www.w3.org/2001/xml-events" xmlns:xlink="http://www.w3.org/1999/xlink">
  <defs>
    <marker id="id286" markerHeight="3" markerUnits="strokeWidth" markerWidth="4" orient="auto" refX="0" refY="5" viewBox="0,0,10,10">
      <path d="M 0 0 L 10 5 L 0 10 z"/>
    </marker>
  </defs>
  <g>
    <rect fill="none" height="870.0" stroke="none" stroke-width="0" width="910.0" x="0.0" y="0.0"/>
    <g transform="rotate(40.0,455.0,435.0)">
      <polygon fill="#ac24ac" points="264.0,381.0 714.0,381.0 714.0,411.0 264.0,411.0" stroke="#000000" stroke-width="1"/>
      <polygon fill="#ac24ac" points="264.0,491.0 714.0,491.0 714.0,521.0 264.0,521.0" stroke="#000000" stroke-width="1"/>
      <text fill="#ac24ac" font-family="Arial" font-size="20.0" stroke="none" stroke-width="0" x="273.0" y="376.0">&lt;&lt; Тушинская</text>
      <text fill="#ac24ac" font-family="Arial" font-size="20.0" stroke="none" stroke-width="0" x="533.0" y="541.0">Октябрьское поле &gt;&gt;</text>
      <text fill="#ac24ac" font-family="Arial" font-size="25.0" stroke="none" stroke-width="0" x="430.0" y="465.0">Щукинская</text>
      <polygon fill="#34349c" points="492.0,441.0 492.0,437.0 491.0,437.0 491.0,441.0" stroke="#34349c" stroke-width="1"/>
      <polygon fill="#ff0000" points="492.0,445.0 492.0,441.0 491.0,441.0 491.0,445.0" stroke="#ff0000" stroke-width="1"/>
      <polyline fill="none" points="264.0,491.0 264.0,483.0 214.0,483.0 214.0,521.0 141.0,521.0 141.0,515.0 126.0,515.0 126.0,608.0 50.0,608.0" stroke="#000000" stroke-width="1"/>
      <polyline fill="none" points="50.0,586.0 100.0,586.0 100.0,333.0 8.0,333.0" stroke="#000000" stroke-width="1"/>
      <polyline fill="none" points="48.0,292.0 48.0,312.0 126.0,312.0 126.0,386.0 141.0,386.0 141.0,381.0 214.0,381.0 214.0,419.0 264.0,419.0 264.0,411.0" stroke="#000000" stroke-width="1"/>
      <polyline fill="none" points="27.0,292.0 27.0,312.0 8.0,312.0" stroke="#000000" stroke-width="1"/>
      <line stroke="#000000" stroke-width="1" x1="216.0" x2="216.0" y1="419.0" y2="483.0"/>
      <line stroke="#000000" stroke-width="1" x1="220.0" x2="220.0" y1="419.0" y2="483.0"/>
      <line stroke="#000000" stroke-width="1" x1="224.0" x2="224.0" y1="419.0" y2="483.0"/>
      <line stroke="#000000" stroke-width="1" x1="228.0" x2="228.0" y1="419.0" y2="483.0"/>
      <line stroke="#000000" stroke-width="1" x1="232.0" x2="232.0" y1="419.0" y2="483.0"/>
      <line stroke="#000000" stroke-width="1" x1="236.0" x2="236.0" y1="419.0" y2="483.0"/>
      <line stroke="#000000" stroke-width="1" x1="240.0" x2="240.0" y1="419.0" y2="483.0"/>
      <line stroke="#000000" stroke-width="1" x1="244.0" x2="244.0" y1="419.0" y2="483.0"/>
      <line stroke="#000000" stroke-width="1" x1="248.0" x2="248.0" y1="419.0" y2="483.0"/>
      <line stroke="#000000" stroke-width="1" x1="252.0" x2="252.0" y1="419.0" y2="483.0"/>
      <line stroke="#000000" stroke-width="1" x1="256.0" x2="256.0" y1="419.0" y2="483.0"/>
      <line stroke="#000000" stroke-width="1" x1="260.0" x2="260.0" y1="419.0" y2="483.0"/>
      <line stroke="#000000" stroke-width="1" x1="52.0" x2="52.0" y1="312.0" y2="333.0"/>
      <line stroke="#000000" stroke-width="1" x1="56.0" x2="56.0" y1="312.0" y2="333.0"/>
      <line stroke="#000000" stroke-width="1" x1="60.0" x2="60.0" y1="312.0" y2="333.0"/>
      <line stroke="#000000" stroke-width="1" x1="64.0" x2="64.0" y1="312.0" y2="333.0"/>
      <line stroke="#000000" stroke-width="1" x1="68.0" x2="68.0" y1="312.0" y2="333.0"/>
      <line stroke="#000000" stroke-width="1" x1="72.0" x2="72.0" y1="312.0" y2="333.0"/>
      <line stroke="#000000" stroke-width="1" x1="76.0" x2="76.0" y1="312.0" y2="333.0"/>
      <line stroke="#000000" stroke-width="1" x1="80.0" x2="80.0" y1="312.0" y2="333.0"/>
      <line stroke="#000000" stroke-width="1" x1="84.0" x2="84.0" y1="312.0" y2="333.0"/>
      <line stroke="#000000" stroke-width="1" x1="88.0" x2="88.0" y1="312.0" y2="333.0"/>
      <line stroke="#000000" stroke-width="1" x1="52.0" x2="52.0" y1="586.0" y2="608.0"/>
      <line stroke="#000000" stroke-width="1" x1="56.0" x2="56.0" y1="586.0" y2="608.0"/>
      <line stroke="#000000" stroke-width="1" x1="60.0" x2="60.0" y1="586.0" y2="608.0"/>
      <line stroke="#000000" stroke-width="1" x1="64.0" x2="64.0" y1="586.0" y2="608.0"/>
      <line stroke="#000000" stroke-width="1" x1="68.0" x2="68.0" y1="586.0" y2="608.0"/>
      <line stroke="#000000" stroke-width="1" x1="72.0" x2="72.0" y1="586.0" y2="608.0"/>
      <line stroke="#000000" stroke-width="1" x1="76.0" x2="76.0" y1="586.0" y2="608.0"/>
      <line stroke="#000000" stroke-width="1" x1="80.0" x2="80.0" y1="586.0" y2="608.0"/>
      <line stroke="#000000" stroke-width="1" x1="84.0" x2="84.0" y1="586.0" y2="608.0"/>
      <line stroke="#000000" stroke-width="1" x1="88.0" x2="88.0" y1="586.0" y2="608.0"/>
      <polygon fill="#d0d0d0" points="126.0,422.0 141.0,422.0 141.0,479.0 126.0,479.0" stroke="#000000" stroke-width="1"/>
      <polyline fill="none" points="214.0,483.0 188.0,483.0" stroke="#000000" stroke-width="0.5"/>
      <polyline fill="none" points="160.0,441.0 141.0,441.0" stroke="#000000" stroke-width="0.5"/>
      <polyline fill="none" points="165.0,449.0 160.0,441.0 160.0,433.0" stroke="#000000" stroke-width="0.5"/>
      <polygon fill="#ffffff" points="182.0,480.0 187.0,477.0 190.0,482.0 185.0,485.0" stroke="#000000" stroke-width="1"/>
      <line stroke="#009900" stroke-width="1" x1="163.0" x2="166.0" y1="450.0" y2="448.0"/>
      <line stroke="#009900" stroke-width="1" x1="165.30197362469846" x2="168.30197362469846" y1="453.27122567720306" y2="451.27122567720306"/>
      <line stroke="#009900" stroke-width="1" x1="167.60394724939692" x2="170.60394724939692" y1="456.5424513544061" y2="454.5424513544061"/>
      <line stroke="#009900" stroke-width="1" x1="169.9059208740954" x2="172.9059208740954" y1="459.8136770316092" y2="457.8136770316092"/>
      <line stroke="#009900" stroke-width="1" x1="172.20789449879385" x2="175.20789449879385" y1="463.08490270881225" y2="461.08490270881225"/>
      <line stroke="#009900" stroke-width="1" x1="174.5098681234923" x2="177.5098681234923" y1="466.3561283860153" y2="464.3561283860153"/>
      <line stroke="#009900" stroke-width="1" x1="176.81184174819077" x2="179.81184174819077" y1="469.6273540632184" y2="467.6273540632184"/>
      <line stroke="#009900" stroke-width="1" x1="179.11381537288923" x2="182.11381537288923" y1="472.89857974042144" y2="470.89857974042144"/>
      <line stroke="#009900" stroke-width="1" x1="181.4157889975877" x2="184.4157889975877" y1="476.1698054176245" y2="474.1698054176245"/>
      <line stroke="#ff0000" stroke-width="1" x1="158.0" x2="162.0" y1="433.0" y2="433.0"/>
      <line stroke="#ff0000" stroke-width="1" x1="158.0" x2="162.0" y1="429.0" y2="429.0"/>
      <line stroke="#ff0000" stroke-width="1" x1="158.0" x2="162.0" y1="425.0" y2="425.0"/>
      <line stroke="#ff0000" stroke-width="1" x1="158.0" x2="162.0" y1="421.0" y2="421.0"/>
      <line stroke="#ff0000" stroke-width="1" x1="158.0" x2="162.0" y1="417.0" y2="417.0"/>
      <line stroke="#ff0000" stroke-width="1" x1="158.0" x2="162.0" y1="413.0" y2="413.0"/>
      <line stroke="#ff0000" stroke-width="1" x1="158.0" x2="162.0" y1="409.0" y2="409.0"/>
      <line stroke="#ff0000" stroke-width="1" x1="158.0" x2="162.0" y1="405.0" y2="405.0"/>
      <line stroke="#ff0000" stroke-width="1" x1="158.0" x2="162.0" y1="401.0" y2="401.0"/>
      <line stroke="#ff0000" stroke-width="1" x1="158.0" x2="162.0" y1="397.0" y2="397.0"/>
      <line stroke="#ff0000" stroke-width="1" x1="158.0" x2="162.0" y1="393.0" y2="393.0"/>
      <line stroke="#ff0000" stroke-width="1" x1="158.0" x2="162.0" y1="389.0" y2="389.0"/>
      <line stroke="#ff0000" stroke-width="1" x1="158.0" x2="162.0" y1="385.0" y2="385.0"/>
      <polygon fill="#ffffff" points="214.0,486.0 223.0,486.0 223.0,517.0 214.0,517.0" stroke="#000000" stroke-width="1"/>
      <text fill="#000000" font-family="Arial" font-size="10.0" stroke="none" stroke-width="0" transform="rotate(-90.0,212.0,514.0)" x="212.0" y="524.0">кассы</text>
      <polyline fill="none" marker-end="url(#id286)" points="287.0,438.0 269.0,438.0" stroke="#ff0000" stroke-width="1"/>
      <polyline fill="none" marker-end="url(#id286)" points="146.0,404.0 126.0,404.0" stroke="#ff0000" stroke-width="1"/>
      <polyline fill="none" marker-end="url(#id286)" points="269.0,465.0 287.0,465.0" stroke="#009900" stroke-width="1"/>
      <polyline fill="none" marker-end="url(#id286)" points="128.0,497.0 150.0,497.0" stroke="#009900" stroke-width="1"/>
      <polygon fill="#34349c" points="190.0,415.0 186.0,415.0 186.0,416.0 190.0,416.0" stroke="#34349c" stroke-width="1"/>
      <polygon fill="#ff0000" points="194.0,415.0 190.0,415.0 190.0,416.0 194.0,416.0" stroke="#ff0000" stroke-width="1"/>
      <polyline fill="none" points="714.0,411.0 714.0,419.0 746.0,419.0 746.0,429.0" stroke="#000000" stroke-width="1"/>
      <polyline fill="none" points="822.0,429.0 822.0,375.0 894.0,375.0 894.0,380.0 909.0,380.0 909.0,352.0 866.0,352.0" stroke="#000000" stroke-width="1"/>
      <polyline fill="none" points="866.0,330.0 931.0,330.0 931.0,577.0 866.0,577.0" stroke="#000000" stroke-width="1"/>
      <polyline fill="none" points="866.0,555.0 909.0,555.0 909.0,520.0 894.0,520.0 894.0,526.0 821.0,526.0 821.0,469.0" stroke="#000000" stroke-width="1"/>
      <polyline fill="none" points="746.0,469.0 746.0,483.0 714.0,483.0 714.0,491.0" stroke="#000000" stroke-width="1"/>
      <line stroke="#000000" stroke-width="1" x1="868.0" x2="868.0" y1="330.0" y2="352.0"/>
      <line stroke="#000000" stroke-width="1" x1="872.0" x2="872.0" y1="330.0" y2="352.0"/>
      <line stroke="#000000" stroke-width="1" x1="876.0" x2="876.0" y1="330.0" y2="352.0"/>
      <line stroke="#000000" stroke-width="1" x1="880.0" x2="880.0" y1="330.0" y2="352.0"/>
      <line stroke="#000000" stroke-width="1" x1="884.0" x2="884.0" y1="330.0" y2="352.0"/>
      <line stroke="#000000" stroke-width="1" x1="888.0" x2="888.0" y1="330.0" y2="352.0"/>
      <line stroke="#000000" stroke-width="1" x1="892.0" x2="892.0" y1="330.0" y2="352.0"/>
      <line stroke="#000000" stroke-width="1" x1="896.0" x2="896.0" y1="330.0" y2="352.0"/>
      <line stroke="#000000" stroke-width="1" x1="900.0" x2="900.0" y1="330.0" y2="352.0"/>
      <line stroke="#000000" stroke-width="1" x1="904.0" x2="904.0" y1="330.0" y2="352.0"/>
      <line stroke="#000000" stroke-width="1" x1="868.0" x2="868.0" y1="555.0" y2="577.0"/>
      <line stroke="#000000" stroke-width="1" x1="872.0" x2="872.0" y1="555.0" y2="577.0"/>
      <line stroke="#000000" stroke-width="1" x1="876.0" x2="876.0" y1="555.0" y2="577.0"/>
      <line stroke="#000000" stroke-width="1" x1="880.0" x2="880.0" y1="555.0" y2="577.0"/>
      <line stroke="#000000" stroke-width="1" x1="884.0" x2="884.0" y1="555.0" y2="577.0"/>
      <line stroke="#000000" stroke-width="1" x1="888.0" x2="888.0" y1="555.0" y2="577.0"/>
      <line stroke="#000000" stroke-width="1" x1="892.0" x2="892.0" y1="555.0" y2="577.0"/>
      <line stroke="#000000" stroke-width="1" x1="896.0" x2="896.0" y1="555.0" y2="577.0"/>
      <line stroke="#000000" stroke-width="1" x1="900.0" x2="900.0" y1="555.0" y2="577.0"/>
      <line stroke="#000000" stroke-width="1" x1="904.0" x2="904.0" y1="555.0" y2="577.0"/>
      <polygon fill="#d0d0d0" points="894.0,416.0 909.0,416.0 909.0,484.0 894.0,484.0" stroke="#000000" stroke-width="1"/>
      <line stroke="#7f7f7f" stroke-width="1" x1="823.0" x2="823.0" y1="466.0" y2="432.0"/>
      <line stroke="#7f7f7f" stroke-width="1" x1="819.0" x2="819.0" y1="466.0" y2="432.0"/>
      <line stroke="#7f7f7f" stroke-width="1" x1="815.0" x2="815.0" y1="466.0" y2="432.0"/>
      <line stroke="#7f7f7f" stroke-width="1" x1="811.0" x2="811.0" y1="466.0" y2="432.0"/>
      <line stroke="#7f7f7f" stroke-width="1" x1="807.0" x2="807.0" y1="466.0" y2="432.0"/>
      <line stroke="#7f7f7f" stroke-width="1" x1="803.0" x2="803.0" y1="466.0" y2="432.0"/>
      <line stroke="#7f7f7f" stroke-width="1" x1="799.0" x2="799.0" y1="466.0" y2="432.0"/>
      <line stroke="#7f7f7f" stroke-width="1" x1="795.0" x2="795.0" y1="466.0" y2="432.0"/>
      <line stroke="#7f7f7f" stroke-width="1" x1="791.0" x2="791.0" y1="466.0" y2="432.0"/>
      <line stroke="#7f7f7f" stroke-width="1" x1="787.0" x2="787.0" y1="466.0" y2="432.0"/>
      <line stroke="#7f7f7f" stroke-width="1" x1="783.0" x2="783.0" y1="466.0" y2="432.0"/>
      <line stroke="#7f7f7f" stroke-width="1" x1="779.0" x2="779.0" y1="466.0" y2="432.0"/>
      <line stroke="#7f7f7f" stroke-width="1" x1="775.0" x2="775.0" y1="466.0" y2="432.0"/>
      <line stroke="#7f7f7f" stroke-width="1" x1="771.0" x2="771.0" y1="466.0" y2="432.0"/>
      <line stroke="#7f7f7f" stroke-width="1" x1="767.0" x2="767.0" y1="466.0" y2="432.0"/>
      <line stroke="#7f7f7f" stroke-width="1" x1="763.0" x2="763.0" y1="466.0" y2="432.0"/>
      <line stroke="#7f7f7f" stroke-width="1" x1="759.0" x2="759.0" y1="466.0" y2="432.0"/>
      <line stroke="#7f7f7f" stroke-width="1" x1="755.0" x2="755.0" y1="466.0" y2="432.0"/>
      <line stroke="#7f7f7f" stroke-width="1" x1="751.0" x2="751.0" y1="466.0" y2="432.0"/>
      <line stroke="#7f7f7f" stroke-width="1" x1="747.0" x2="747.0" y1="466.0" y2="432.0"/>
      <polygon fill="#9b5509" points="830.0,432.0 740.0,432.0 740.0,429.0 830.0,429.0" stroke="#000000" stroke-width="1"/>
      <polygon fill="#9b5509" points="830.0,440.0 830.0,445.0 740.0,445.0 740.0,440.0" stroke="#000000" stroke-width="1"/>
      <polygon fill="#9b5509" points="830.0,453.0 830.0,458.0 740.0,458.0 740.0,453.0" stroke="#000000" stroke-width="1"/>
      <polygon fill="#9b5509" points="830.0,466.0 740.0,466.0 740.0,469.0 830.0,469.0" stroke="#000000" stroke-width="1"/>
      <polyline fill="none" points="821.0,477.0 847.0,477.0" stroke="#000000" stroke-width="0.5"/>
      <polyline fill="none" points="875.0,435.0 894.0,435.0" stroke="#000000" stroke-width="0.5"/>
      <polyline fill="none" points="870.0,443.0 875.0,435.0 875.0,427.0" stroke="#000000" stroke-width="0.5"/>
      <polygon fill="#ffffff" points="853.0,474.0 848.0,471.0 845.0,476.0 850.0,479.0" stroke="#000000" stroke-width="1"/>
      <line stroke="#009900" stroke-width="1" x1="872.0" x2="869.0" y1="444.0" y2="442.0"/>
      <line stroke="#009900" stroke-width="1" x1="869.6980263753015" x2="866.6980263753015" y1="447.27122567720306" y2="445.27122567720306"/>
      <line stroke="#009900" stroke-width="1" x1="867.3960527506031" x2="864.3960527506031" y1="450.5424513544061" y2="448.5424513544061"/>
      <line stroke="#009900" stroke-width="1" x1="865.0940791259046" x2="862.0940791259046" y1="453.8136770316092" y2="451.8136770316092"/>
      <line stroke="#009900" stroke-width="1" x1="862.7921055012062" x2="859.7921055012062" y1="457.08490270881225" y2="455.08490270881225"/>
      <line stroke="#009900" stroke-width="1" x1="860.4901318765077" x2="857.4901318765077" y1="460.3561283860153" y2="458.3561283860153"/>
      <line stroke="#009900" stroke-width="1" x1="858.1881582518092" x2="855.1881582518092" y1="463.6273540632184" y2="461.6273540632184"/>
      <line stroke="#009900" stroke-width="1" x1="855.8861846271108" x2="852.8861846271108" y1="466.89857974042144" y2="464.89857974042144"/>
      <line stroke="#009900" stroke-width="1" x1="853.5842110024123" x2="850.5842110024123" y1="470.1698054176245" y2="468.1698054176245"/>
      <line stroke="#ff0000" stroke-width="1" x1="877.0" x2="873.0" y1="427.0" y2="427.0"/>
      <line stroke="#ff0000" stroke-width="1" x1="877.0" x2="873.0" y1="423.0" y2="423.0"/>
      <line stroke="#ff0000" stroke-width="1" x1="877.0" x2="873.0" y1="419.0" y2="419.0"/>
      <line stroke="#ff0000" stroke-width="1" x1="877.0" x2="873.0" y1="415.0" y2="415.0"/>
      <line stroke="#ff0000" stroke-width="1" x1="877.0" x2="873.0" y1="411.0" y2="411.0"/>
      <line stroke="#ff0000" stroke-width="1" x1="877.0" x2="873.0" y1="407.0" y2="407.0"/>
      <line stroke="#ff0000" stroke-width="1" x1="877.0" x2="873.0" y1="403.0" y2="403.0"/>
      <line stroke="#ff0000" stroke-width="1" x1="877.0" x2="873.0" y1="399.0" y2="399.0"/>
      <line stroke="#ff0000" stroke-width="1" x1="877.0" x2="873.0" y1="395.0" y2="395.0"/>
      <line stroke="#ff0000" stroke-width="1" x1="877.0" x2="873.0" y1="391.0" y2="391.0"/>
      <line stroke="#ff0000" stroke-width="1" x1="877.0" x2="873.0" y1="387.0" y2="387.0"/>
      <line stroke="#ff0000" stroke-width="1" x1="877.0" x2="873.0" y1="383.0" y2="383.0"/>
      <line stroke="#ff0000" stroke-width="1" x1="877.0" x2="873.0" y1="379.0" y2="379.0"/>
      <polygon fill="#ffffff" points="821.0,480.0 812.0,480.0 812.0,511.0 821.0,511.0" stroke="#000000" stroke-width="1"/>
      <text fill="#000000" font-family="Arial" font-size="10.0" stroke="none" stroke-width="0" transform="rotate(-90.0,810.0,508.0)" x="810.0" y="518.0">кассы</text>
      <polyline fill="none" marker-end="url(#id286)" points="891.0,397.0 908.0,397.0" stroke="#ff0000" stroke-width="1"/>
      <polyline fill="none" marker-end="url(#id286)" points="703.0,435.0 725.0,435.0" stroke="#ff0000" stroke-width="1"/>
      <polyline fill="none" marker-end="url(#id286)" points="907.0,502.0 890.0,502.0" stroke="#009900" stroke-width="1"/>
      <polyline fill="none" marker-end="url(#id286)" points="725.0,463.0 703.0,463.0" stroke="#009900" stroke-width="1"/>
      <polygon fill="#34349c" points="891.0,476.0 891.0,480.0 890.0,480.0 890.0,476.0" stroke="#34349c" stroke-width="1"/>
      <polygon fill="#ff0000" points="891.0,472.0 891.0,476.0 890.0,476.0 890.0,472.0" stroke="#ff0000" stroke-width="1"/>
      <text fill="#00afaf" font-family="Arial" font-size="15.0" stroke="none" stroke-width="0" transform="rotate(-90.0,403.0,777.0)" x="403.0" y="792.0">улица Академика Бочвара</text>
      <text fill="#00afaf" font-family="Arial" font-size="15.0" stroke="none" stroke-width="0" transform="rotate(-40.0,801.0,309.0)" x="801.0" y="324.0">Щукинская улица</text>
      <text fill="#00afaf" font-family="Arial" font-size="15.0" stroke="none" stroke-width="0" x="-104.0" y="457.0">улица Маршала Василевского</text>
      <text fill="#00afaf" font-family="Arial" font-size="15.0" stroke="none" stroke-width="0" transform="rotate(-90.0,29.0,302.0)" x="29.0" y="317.0">ТРК Щука &gt;&gt;</text>
      <text fill="#00afaf" font-family="Arial" font-size="15.0" stroke="none" stroke-width="0" x="946.0" y="470.0">Василевского</text>
    </g>
    <g>
      <rect fill="#615f56" height="30.0" stroke="none" stroke-width="0" width="30.0" x="10.0" y="317.0"/>
      <rect fill="#615f56" height="30.0" stroke="none" stroke-width="0" width="30.0" x="154.0" y="78.0"/>
      <rect fill="#615f56" height="30.0" stroke="none" stroke-width="0" width="30.0" x="846.0" y="593.0"/>
      <rect fill="#615f56" height="30.0" stroke="none" stroke-width="0" width="30.0" x="657.0" y="818.0"/>
      <rect fill="#615f56" height="30.0" stroke="none" stroke-width="0" width="30.0" x="241.0" y="59.0"/>
      <text fill="#ffd900" font-family="Arial" font-size="25.0" stroke="none" stroke-width="0" x="18.0" y="343.0">1</text>
      <text fill="#ffd900" font-family="Arial" font-size="25.0" stroke="none" stroke-width="0" x="162.0" y="104.0">2</text>
      <text fill="#ffd900" font-family="Arial" font-size="25.0" stroke="none" stroke-width="0" x="854.0" y="619.0">3</text>
      <text fill="#ffd900" font-family="Arial" font-size="25.0" stroke="none" stroke-width="0" x="665.0" y="844.0">4</text>
      <text fill="#ffd900" font-family="Arial" font-size="25.0" stroke="none" stroke-width="0" x="249.0" y="85.0">5</text>
    </g>
  </g>
</svg>
