<svg xmlns="http://www.w3.org/2000/svg" version="1.1">
<defs>
    <marker id="arrow"
      viewBox="0 0 10 10" refX="0" refY="5"
      markerUnits="strokeWidth"
      markerWidth="4" markerHeight="3"
      orient="auto">
      <path d="M 0 0 L 10 5 L 0 10 z" />
    </marker>
  </defs>
<g stroke="#000000" fill="none" stroke-opacity="1.0" fill-opacity="1.0" transform="scale(0.5)">
<rect x="0" y="0" width="1200" height="1180" stroke-width="0" fill="none" />
<g stroke="#000000" fill="none" stroke-opacity="1.0" fill-opacity="1.0" transform="scale(0.5)">
</g>
<g transform="rotate(79.0 600 590)" >
<g stroke="#000000" fill="none" stroke-opacity="1.0" fill-opacity="1.0" transform="scale(0.5)">
</g>
<g stroke="#000000" fill="#AC24AC" stroke-opacity="1.0" fill-opacity="1.0" transform="scale(0.5)">
<polygon points="388,546  838,546  838,576  388,576" stroke-width="1" />
<polygon points="388,656  838,656  838,686  388,686" stroke-width="1" />
</g>
<g stroke="#AC24AC" fill="none" stroke-opacity="1.0" fill-opacity="1.0" transform="scale(0.5)">
<text x=" 391" y="541.0" font-family="Arial" font-size=" 20" fill="#AC24AC" stroke-width="0">&lt;&lt; Планерная</text>
<text x=" 718" y="706.0" font-family="Arial" font-size=" 20" fill="#AC24AC" stroke-width="0">Тушинская &gt;&gt;</text>
<text x=" 544" y="634.0" font-family="Arial" font-size=" 25" fill="#AC24AC" stroke-width="0">Сходненская</text>
</g>
<g stroke="#34349C" fill="#34349C" stroke-opacity="1.0" fill-opacity="1.0" transform="scale(0.5)">
<polygon points="613,610  613,606  612,606  612,610" stroke-width="1" />
</g>
<g stroke="#FF0000" fill="#FF0000" stroke-opacity="1.0" fill-opacity="1.0" transform="scale(0.5)">
<polygon points="613,614  613,610  612,610  612,614" stroke-width="1" />
</g>
<g stroke="#000000" fill="#FF0000" stroke-opacity="1.0" fill-opacity="1.0" transform="scale(0.5)">
<polyline points="388,656  388,648  282,648  282,692  181,692  181,686  168,686  168,783" stroke-width="1" fill="none"  />
<polyline points="147,783  147,759  115,759" stroke-width="1" fill="none"  />
<polyline points="115,738  147,738  147,515  117,515" stroke-width="1" fill="none"  />
<polyline points="117,494  147,494  147,468" stroke-width="1" fill="none"  />
<polyline points="168,468  168,546  182,546  182,541  281,541  281,584  388,584  388,576" stroke-width="1" fill="none"  />
<line x1="307" y1="611" x2="307" y2="648" stroke-width="1" />
<line x1="311" y1="611" x2="311" y2="648" stroke-width="1" />
<line x1="315" y1="611" x2="315" y2="648" stroke-width="1" />
<line x1="319" y1="611" x2="319" y2="648" stroke-width="1" />
<line x1="323" y1="611" x2="323" y2="648" stroke-width="1" />
<line x1="335" y1="611" x2="335" y2="648" stroke-width="1" />
<line x1="339" y1="611" x2="339" y2="648" stroke-width="1" />
<line x1="343" y1="611" x2="343" y2="648" stroke-width="1" />
<line x1="347" y1="611" x2="347" y2="648" stroke-width="1" />
<line x1="351" y1="611" x2="351" y2="648" stroke-width="1" />
<line x1="117" y1="738" x2="117" y2="759" stroke-width="1" />
<line x1="121" y1="738" x2="121" y2="759" stroke-width="1" />
<line x1="125" y1="738" x2="125" y2="759" stroke-width="1" />
<line x1="129" y1="738" x2="129" y2="759" stroke-width="1" />
<line x1="133" y1="738" x2="133" y2="759" stroke-width="1" />
<line x1="147" y1="781" x2="168" y2="781" stroke-width="1" />
<line x1="147" y1="777" x2="168" y2="777" stroke-width="1" />
<line x1="147" y1="773" x2="168" y2="773" stroke-width="1" />
<line x1="147" y1="769" x2="168" y2="769" stroke-width="1" />
<line x1="147" y1="765" x2="168" y2="765" stroke-width="1" />
<line x1="119" y1="494" x2="119" y2="515" stroke-width="1" />
<line x1="123" y1="494" x2="123" y2="515" stroke-width="1" />
<line x1="127" y1="494" x2="127" y2="515" stroke-width="1" />
<line x1="131" y1="494" x2="131" y2="515" stroke-width="1" />
<line x1="135" y1="494" x2="135" y2="515" stroke-width="1" />
<line x1="147" y1="470" x2="168" y2="470" stroke-width="1" />
<line x1="147" y1="474" x2="168" y2="474" stroke-width="1" />
<line x1="147" y1="478" x2="168" y2="478" stroke-width="1" />
<line x1="147" y1="482" x2="168" y2="482" stroke-width="1" />
<line x1="147" y1="486" x2="168" y2="486" stroke-width="1" />
</g>
<g stroke="#000000" fill="#D0D0D0" stroke-opacity="1.0" fill-opacity="1.0" transform="scale(0.5)">
<polygon points="168,577  182,577  182,655  168,655" stroke-width="1" />
</g>
<g stroke="#7F7F7F" fill="#D0D0D0" stroke-opacity="1.0" fill-opacity="1.0" transform="scale(0.5)">
<line x1="353" y1="608" x2="353" y2="587" stroke-width="1" />
<line x1="349" y1="608" x2="349" y2="587" stroke-width="1" />
<line x1="345" y1="608" x2="345" y2="587" stroke-width="1" />
<line x1="341" y1="608" x2="341" y2="587" stroke-width="1" />
<line x1="337" y1="608" x2="337" y2="587" stroke-width="1" />
<line x1="333" y1="608" x2="333" y2="587" stroke-width="1" />
<line x1="329" y1="608" x2="329" y2="587" stroke-width="1" />
<line x1="325" y1="608" x2="325" y2="587" stroke-width="1" />
<line x1="321" y1="608" x2="321" y2="587" stroke-width="1" />
<line x1="317" y1="608" x2="317" y2="587" stroke-width="1" />
<line x1="313" y1="608" x2="313" y2="587" stroke-width="1" />
<line x1="309" y1="608" x2="309" y2="587" stroke-width="1" />
<line x1="305" y1="608" x2="305" y2="587" stroke-width="1" />
</g>
<g stroke="#000000" fill="#9B5509" stroke-opacity="1.0" fill-opacity="1.0" transform="scale(0.5)">
<polygon points="360,587  299,587  299,584  360,584" stroke-width="1" />
<polygon points="360,595  360,600  299,600  299,595" stroke-width="1" />
<polygon points="360,608  299,608  299,611  360,611" stroke-width="1" />
</g>
<g stroke="#000000" fill="#FFFFFF" stroke-opacity="1.0" fill-opacity="1.0" transform="scale(0.5)">
<polyline points="282,648  236,648" stroke-width=" 0.5" fill="none"  />
<polyline points="237,577  182,577" stroke-width=" 0.5" fill="none"  />
<polygon points="234,578  240,578  240,584  234,584" stroke-width="1" />
</g>
<g stroke="#009900" fill="#FFFFFF" stroke-opacity="1.0" fill-opacity="1.0" transform="scale(0.5)">
<line x1="235" y1="588" x2="239" y2="588" stroke-width="1" />
<line x1="235" y1="592" x2="239" y2="592" stroke-width="1" />
<line x1="235" y1="596" x2="239" y2="596" stroke-width="1" />
<line x1="235" y1="600" x2="239" y2="600" stroke-width="1" />
<line x1="235" y1="604" x2="239" y2="604" stroke-width="1" />
<line x1="235" y1="608" x2="239" y2="608" stroke-width="1" />
<line x1="235" y1="612" x2="239" y2="612" stroke-width="1" />
<line x1="235" y1="616" x2="239" y2="616" stroke-width="1" />
<line x1="235" y1="620" x2="239" y2="620" stroke-width="1" />
<line x1="235" y1="624" x2="239" y2="624" stroke-width="1" />
<line x1="235" y1="628" x2="239" y2="628" stroke-width="1" />
<line x1="235" y1="632" x2="239" y2="632" stroke-width="1" />
<line x1="235" y1="636" x2="239" y2="636" stroke-width="1" />
<line x1="235" y1="640" x2="239" y2="640" stroke-width="1" />
<line x1="235" y1="644" x2="239" y2="644" stroke-width="1" />
</g>
<g stroke="#000000" fill="#FFFFFF" stroke-opacity="1.0" fill-opacity="1.0" transform="scale(0.5)">
<polygon points="282,653  291,653  291,684  282,684" stroke-width="1" />
</g>
<g stroke="#000000" fill="none" stroke-opacity="1.0" fill-opacity="1.0" transform="scale(0.5)">
<text x=" 280" y="691.0" font-family="Arial" font-size=" 10" fill="#000000" transform="rotate(-90.0  280  681)" stroke-width="0">кассы</text>
</g>
<g stroke="#FF0000" fill="none" stroke-opacity="1.0" fill-opacity="1.0" transform="scale(0.5)">
<polyline points="189,561  171,561" marker-end="url(#arrow)" stroke-width="1" fill="none" />
<polyline points="389,592  371,592" marker-end="url(#arrow)" stroke-width="1" fill="none" />
</g>
<g stroke="#009900" fill="none" stroke-opacity="1.0" fill-opacity="1.0" transform="scale(0.5)">
<polyline points="371,629  390,629" marker-end="url(#arrow)" stroke-width="1" fill="none" />
<polyline points="171,670  189,670" marker-end="url(#arrow)" stroke-width="1" fill="none" />
</g>
<g stroke="#34349C" fill="#34349C" stroke-opacity="1.0" fill-opacity="1.0" transform="scale(0.5)">
<polygon points="267,569  271,569  271,570  267,570" stroke-width="1" />
</g>
<g stroke="#FF0000" fill="#FF0000" stroke-opacity="1.0" fill-opacity="1.0" transform="scale(0.5)">
<polygon points="263,569  267,569  267,570  263,570" stroke-width="1" />
</g>
<g stroke="#000000" fill="#FF0000" stroke-opacity="1.0" fill-opacity="1.0" transform="scale(0.5)">
<polyline points="838,576  838,584  886,584  886,541  978,541  978,546  993,546  993,504  963,504" stroke-width="1" fill="none"  />
<polyline points="963,483  993,483  993,453" stroke-width="1" fill="none"  />
<polyline points="1013,453  1013,484  1095,514" stroke-width="1" fill="none"  />
<polyline points="1087,533  1019,508  1019,746  1050,746" stroke-width="1" fill="none"  />
<polyline points="1050,767  963,767" stroke-width="1" fill="none"  />
<polyline points="963,746  993,746  993,686  978,686  978,692  886,692  886,648  838,648  838,656" stroke-width="1" fill="none"  />
<line x1="965" y1="483" x2="965" y2="504" stroke-width="1" />
<line x1="969" y1="483" x2="969" y2="504" stroke-width="1" />
<line x1="973" y1="483" x2="973" y2="504" stroke-width="1" />
<line x1="977" y1="483" x2="977" y2="504" stroke-width="1" />
<line x1="981" y1="483" x2="981" y2="504" stroke-width="1" />
<line x1="993" y1="455" x2="1013" y2="455" stroke-width="1" />
<line x1="993" y1="459" x2="1013" y2="459" stroke-width="1" />
<line x1="993" y1="463" x2="1013" y2="463" stroke-width="1" />
<line x1="993" y1="467" x2="1013" y2="467" stroke-width="1" />
<line x1="993" y1="471" x2="1013" y2="471" stroke-width="1" />
<line x1="1078" y1="508" x2="1071" y2="527" stroke-width="1" />
<line x1="1081.77196133" y1="509.331280471" x2="1074.77196133" y2="528.331280471" stroke-width="1" />
<line x1="1085.54392267" y1="510.662560942" x2="1078.54392267" y2="529.662560942" stroke-width="1" />
<line x1="1089.315884" y1="511.993841413" x2="1082.315884" y2="530.993841413" stroke-width="1" />
<line x1="1093.08784534" y1="513.325121884" x2="1086.08784534" y2="532.325121884" stroke-width="1" />
<line x1="1048" y1="746" x2="1048" y2="767" stroke-width="1" />
<line x1="1044" y1="746" x2="1044" y2="767" stroke-width="1" />
<line x1="1040" y1="746" x2="1040" y2="767" stroke-width="1" />
<line x1="1036" y1="746" x2="1036" y2="767" stroke-width="1" />
<line x1="1032" y1="746" x2="1032" y2="767" stroke-width="1" />
<line x1="965" y1="746" x2="965" y2="767" stroke-width="1" />
<line x1="969" y1="746" x2="969" y2="767" stroke-width="1" />
<line x1="973" y1="746" x2="973" y2="767" stroke-width="1" />
<line x1="977" y1="746" x2="977" y2="767" stroke-width="1" />
<line x1="981" y1="746" x2="981" y2="767" stroke-width="1" />
<line x1="886" y1="584" x2="886" y2="648" stroke-width="1" />
<line x1="882" y1="584" x2="882" y2="648" stroke-width="1" />
<line x1="878" y1="584" x2="878" y2="648" stroke-width="1" />
<line x1="874" y1="584" x2="874" y2="648" stroke-width="1" />
<line x1="870" y1="584" x2="870" y2="648" stroke-width="1" />
<line x1="866" y1="584" x2="866" y2="648" stroke-width="1" />
<line x1="862" y1="584" x2="862" y2="648" stroke-width="1" />
<line x1="858" y1="584" x2="858" y2="648" stroke-width="1" />
<line x1="854" y1="584" x2="854" y2="648" stroke-width="1" />
<line x1="850" y1="584" x2="850" y2="648" stroke-width="1" />
<line x1="846" y1="584" x2="846" y2="648" stroke-width="1" />
<line x1="842" y1="584" x2="842" y2="648" stroke-width="1" />
</g>
<g stroke="#000000" fill="#D0D0D0" stroke-opacity="1.0" fill-opacity="1.0" transform="scale(0.5)">
<polygon points="978,577  993,577  993,655  978,655" stroke-width="1" />
</g>
<g stroke="#000000" fill="#FFFFFF" stroke-opacity="1.0" fill-opacity="1.0" transform="scale(0.5)">
<polyline points="886,648  925,648" stroke-width=" 0.5" fill="none"  />
<polyline points="924,577  978,577" stroke-width=" 0.5" fill="none"  />
<polygon points="927,578  921,578  921,584  927,584" stroke-width="1" />
</g>
<g stroke="#009900" fill="#FFFFFF" stroke-opacity="1.0" fill-opacity="1.0" transform="scale(0.5)">
<line x1="926" y1="588" x2="922" y2="588" stroke-width="1" />
<line x1="926" y1="592" x2="922" y2="592" stroke-width="1" />
<line x1="926" y1="596" x2="922" y2="596" stroke-width="1" />
<line x1="926" y1="600" x2="922" y2="600" stroke-width="1" />
<line x1="926" y1="604" x2="922" y2="604" stroke-width="1" />
<line x1="926" y1="608" x2="922" y2="608" stroke-width="1" />
<line x1="926" y1="612" x2="922" y2="612" stroke-width="1" />
<line x1="926" y1="616" x2="922" y2="616" stroke-width="1" />
<line x1="926" y1="620" x2="922" y2="620" stroke-width="1" />
<line x1="926" y1="624" x2="922" y2="624" stroke-width="1" />
<line x1="926" y1="628" x2="922" y2="628" stroke-width="1" />
<line x1="926" y1="632" x2="922" y2="632" stroke-width="1" />
<line x1="926" y1="636" x2="922" y2="636" stroke-width="1" />
<line x1="926" y1="640" x2="922" y2="640" stroke-width="1" />
<line x1="926" y1="644" x2="922" y2="644" stroke-width="1" />
</g>
<g stroke="#000000" fill="#FFFFFF" stroke-opacity="1.0" fill-opacity="1.0" transform="scale(0.5)">
<polygon points="886,653  877,653  877,684  886,684" stroke-width="1" />
</g>
<g stroke="#000000" fill="none" stroke-opacity="1.0" fill-opacity="1.0" transform="scale(0.5)">
<text x=" 875" y="691.0" font-family="Arial" font-size=" 10" fill="#000000" transform="rotate(-90.0  875  681)" stroke-width="0">кассы</text>
</g>
<g stroke="#FF0000" fill="none" stroke-opacity="1.0" fill-opacity="1.0" transform="scale(0.5)">
<polyline points="975,561  994,561" marker-end="url(#arrow)" stroke-width="1" fill="none" />
</g>
<g stroke="#009900" fill="none" stroke-opacity="1.0" fill-opacity="1.0" transform="scale(0.5)">
<polyline points="991,671  973,671" marker-end="url(#arrow)" stroke-width="1" fill="none" />
</g>
<g stroke="#34349C" fill="#34349C" stroke-opacity="1.0" fill-opacity="1.0" transform="scale(0.5)">
<polygon points="914,570  910,570  910,571  914,571" stroke-width="1" />
</g>
<g stroke="#FF0000" fill="#FF0000" stroke-opacity="1.0" fill-opacity="1.0" transform="scale(0.5)">
<polygon points="918,570  914,570  914,571  918,571" stroke-width="1" />
</g>
<g stroke="#00AFAF" fill="none" stroke-opacity="1.0" fill-opacity="1.0" transform="scale(0.5)">
<text x=" 1070" y="616.0" font-family="Arial" font-size=" 22" fill="#00AFAF" transform="rotate(20.0  1070  594)" stroke-width="0">улица</text>
<text x=" 1058" y="640.0" font-family="Arial" font-size=" 22" fill="#00AFAF" transform="rotate(20.0  1058  618)" stroke-width="0">Сходненская</text>
<text x=" 392" y="980.0" font-family="Arial" font-size=" 22" fill="#00AFAF" transform="rotate(-90.0  392  958)" stroke-width="0">бульвар  Яна Райниса</text>
<text x=" 358" y="1153.0" font-family="Arial" font-size=" 18" fill="#00AFAF" transform="rotate(-90.0  358  1135)" stroke-width="0">"&lt;&lt; Туристская  улица</text>
<text x=" 1032" y="478.0" font-family="Arial" font-size=" 22" fill="#00AFAF" transform="rotate(-90.0  1032  456)" stroke-width="0">Химкинский  бульвар</text>
<text x=" 370" y="459.0" font-family="Arial" font-size=" 22" fill="#00AFAF" transform="rotate(-90.0  370  437)" stroke-width="0">Химкинский  бульвар</text>
<text x=" 498" y="23.0" font-family="Arial" font-size=" 25" fill="#00AFAF" stroke-width="0">улица  Свободы</text>
<text x=" 20" y="593.0" font-family="Arial" font-size=" 20" fill="#00AFAF" stroke-width="0">улица</text>
<text x=" 19" y="611.0" font-family="Arial" font-size=" 20" fill="#00AFAF" stroke-width="0">Героев-</text>
<text x=" 19" y="627.0" font-family="Arial" font-size=" 20" fill="#00AFAF" stroke-width="0">панфиловцев</text>
</g>
<g stroke="#0000FF" fill="none" stroke-opacity="1.0" fill-opacity="1.0" transform="scale(0.5)">
<text x=" 405" y="269.0" font-family="Arial" font-size=" 20" fill="#0000FF" transform="rotate(-90.0  405  249)" stroke-width="0">Химкинское водохранилище &gt;&gt;</text>
</g>
<g stroke="#BBBBBB" fill="#FEFBF1" stroke-opacity="1.0" fill-opacity="1.0" transform="scale(0.5)">
<polygon points="684,230  775,230  775,382  684,382" stroke-width="1" />
</g>
<g stroke="#000000" fill="none" stroke-opacity="1.0" fill-opacity="1.0" transform="scale(0.5)">
<text x=" 716" y="388.0" font-family="Arial" font-size=" 15" fill="#000000" transform="rotate(-90.0  716  373)" stroke-width="0">'Кинотеатр "Балтика"'</text>
</g>
<g stroke="#FFFFFF" fill="none" stroke-opacity="1.0" fill-opacity="1.0" transform="scale(0.5)">
<text x=" 502" y="756.0" font-family="Arial" font-size=" 20" fill="#FFFFFF" transform="rotate(-79.0  502  736)" stroke-width="0">A</text>
<text x=" 314" y="870.0" font-family="Arial" font-size=" 20" fill="#FFFFFF" transform="rotate(-79.0  314  850)" stroke-width="0">М</text>
<text x=" 784" y="547.0" font-family="Arial" font-size=" 20" fill="#FFFFFF" transform="rotate(-79.0  784  527)" stroke-width="0">М</text>
<text x=" 470" y="757.0" font-family="Arial" font-size=" 20" fill="#FFFFFF" transform="rotate(-79.0  470  737)" stroke-width="0">М</text>
<text x=" 35" y="696.0" font-family="Arial" font-size=" 20" fill="#FFFFFF" transform="rotate(-79.0  35  676)" stroke-width="0">М</text>
<text x=" 314" y="925.0" font-family="Arial" font-size=" 20" fill="#FFFFFF" transform="rotate(-79.0  314  905)" stroke-width="0">Т</text>
<text x=" 55" y="729.0" font-family="Arial" font-size=" 20" fill="#FFFFFF" transform="rotate(-79.0  55  709)" stroke-width="0">Т</text>
<text x=" 422" y="410.0" font-family="Arial" font-size=" 20" fill="#FFFFFF" transform="rotate(-79.0  422  390)" stroke-width="0">Т</text>
<text x=" 314" y="897.0" font-family="Arial" font-size=" 20" fill="#FFFFFF" transform="rotate(-79.0  314  877)" stroke-width="0">A</text>
<text x=" 753" y="546.0" font-family="Arial" font-size=" 20" fill="#FFFFFF" transform="rotate(-79.0  753  526)" stroke-width="0">A</text>
</g>
<g stroke="#000000" fill="none" stroke-opacity="1.0" fill-opacity="1.0" transform="scale(0.5)">
<polyline points="43,820  62,722" marker-end="url(#arrow)" stroke-width="1" fill="none" />
</g>
<g stroke="#000000" fill="none" stroke-opacity="1.0" fill-opacity="1.0" transform="scale(0.5)">
<text x=" 43" y="828.0" font-family="Arial" font-size=" 12" fill="#000000" transform="rotate(-79.0  43  816)" stroke-width="0">нажмите мышью</text>
</g>
<g stroke="#0000FF" fill="none" stroke-opacity="1.0" fill-opacity="1.0" transform="scale(0.5)">
<polyline points="495,716  538,716" marker-end="url(#arrow)" stroke-width="1" fill="none" />
<polyline points="346,876  346,922" marker-end="url(#arrow)" stroke-width="1" fill="none" />
<polyline points="778,538  725,538" marker-end="url(#arrow)" stroke-width="1" fill="none" />
</g>
<g stroke="#007F00" fill="none" stroke-opacity="1.0" fill-opacity="1.0" transform="scale(0.5)">
<polyline points="412,384  412,347" marker-end="url(#arrow)" stroke-width="1" fill="none" />
</g>
<g stroke="#FF0F00" fill="none" stroke-opacity="1.0" fill-opacity="1.0" transform="scale(0.5)">
<polyline points="66,688  103,688" marker-end="url(#arrow)" stroke-width="1" fill="none" />
<polyline points="65,688  26,688" marker-end="url(#arrow)" stroke-width="1" fill="none" />
</g>
<g stroke="#FAAF0F" fill="none" stroke-opacity="1.0" fill-opacity="1.0" transform="scale(0.5)">
<polyline points="46,657  4,657" marker-end="url(#arrow)" stroke-width="1" fill="none" />
</g>
</g>
</g>
</svg>
