<?xml version="1.0" encoding="utf-8" ?>
<svg baseProfile="full" height="100%" version="1.1" width="100%" xmlns="http://www.w3.org/2000/svg" xmlns:ev="http://www.w3.org/2001/xml-events" xmlns:xlink="http://www.w3.org/1999/xlink"><defs><marker id="id268" markerHeight="3" markerUnits="strokeWidth" markerWidth="4" orient="auto" refX="0" refY="5" viewBox="0,0,10,10"><path d="M 0 0 L 10 5 L 0 10 z" /></marker></defs><g transform="scale(0.5) rotate(-20.0,390,330)"><rect fill="none" height="660" stroke="none" width="780" x="0" y="0" /><polygon fill="#FCDC04" points="431,386 -19,386 -19,356 431,356" stroke="#000000" stroke-width="1" /><polygon fill="#FCDC04" points="-19,496 -19,466 431,466 431,496" stroke="#000000" stroke-width="1" /><text fill="#000000" font-family="Arial" font-size="20" stroke="none" x="-14" y="352.0">&lt;&lt; Авиамоторная</text><text fill="#000000" font-family="Arial" font-size="20" stroke="none" x="342" y="517.0">Перово &gt;&gt;</text><text fill="#000000" font-family="Arial" font-size="25" stroke="none" x="92" y="422.0">Шоссе Энтузиастов</text><text fill="#FCDC04" font-family="Arial" font-size="20" stroke="none" x="-15" y="351.0">&lt;&lt; Авиамоторная</text><text fill="#FCDC04" font-family="Arial" font-size="20" stroke="none" x="341" y="516.0">Перово &gt;&gt;</text><text fill="#FCDC04" font-family="Arial" font-size="25" stroke="none" x="90" y="420.0">Шоссе Энтузиастов</text><polygon fill="#34349C" points="205,427 205,423 206,423 206,427" stroke="#34349C" stroke-width="1" /><polygon fill="#FF0000" points="205,431 205,427 206,427 206,431" stroke="#FF0000" stroke-width="1" /><polyline fill="none" points="-19,466 -19,454 66,454 66,441 60,441 60,410 66,410 66,398 -19,398 -19,386" stroke="#000000" stroke-width="1" /><polyline fill="none" points="431,466 431,459 342,459 342,452 359,452 359,449" stroke="#000000" stroke-width="1" /><polyline fill="none" points="443,449 443,454 482,454 494,466 494,505 583,505 583,495 606,495 606,505 628,505 628,547" stroke="#000000" stroke-width="1" /><polyline fill="none" points="652,547 652,505 684,505 684,347 654,347 633,326 633,304 675,304" stroke="#000000" stroke-width="1" /><polyline fill="none" points="675,282 633,282 633,180 675,180" stroke="#000000" stroke-width="1" /><polyline fill="none" points="675,157 633,157 633,127 675,127" stroke="#000000" stroke-width="1" /><polyline fill="none" points="675,105 567,105" stroke="#000000" stroke-width="1" /><polyline fill="none" points="567,128 609,128 609,281 567,281" stroke="#000000" stroke-width="1" /><polyline fill="none" points="567,304 609,304 609,326 630,347 606,347 606,357 583,357 583,347 494,347 494,387 482,399 443,399 443,404" stroke="#000000" stroke-width="1" /><polyline fill="none" points="359,404 359,401 342,401 342,394 431,394 431,386" stroke="#000000" stroke-width="1" /><line stroke="#000000" stroke-width="1" x1="628" x2="652" y1="545" y2="545" /><line stroke="#000000" stroke-width="1" x1="628" x2="652" y1="541" y2="541" /><line stroke="#000000" stroke-width="1" x1="628" x2="652" y1="537" y2="537" /><line stroke="#000000" stroke-width="1" x1="628" x2="652" y1="533" y2="533" /><line stroke="#000000" stroke-width="1" x1="628" x2="652" y1="529" y2="529" /><line stroke="#000000" stroke-width="1" x1="628" x2="652" y1="525" y2="525" /><line stroke="#000000" stroke-width="1" x1="628" x2="652" y1="521" y2="521" /><line stroke="#000000" stroke-width="1" x1="628" x2="652" y1="517" y2="517" /><line stroke="#000000" stroke-width="1" x1="628" x2="652" y1="513" y2="513" /><line stroke="#000000" stroke-width="1" x1="628" x2="652" y1="509" y2="509" /><line stroke="#000000" stroke-width="1" x1="609" x2="633" y1="326" y2="326" /><line stroke="#000000" stroke-width="1" x1="609" x2="633" y1="322" y2="322" /><line stroke="#000000" stroke-width="1" x1="609" x2="633" y1="318" y2="318" /><line stroke="#000000" stroke-width="1" x1="609" x2="633" y1="314" y2="314" /><line stroke="#000000" stroke-width="1" x1="569" x2="569" y1="281" y2="304" /><line stroke="#000000" stroke-width="1" x1="573" x2="573" y1="281" y2="304" /><line stroke="#000000" stroke-width="1" x1="577" x2="577" y1="281" y2="304" /><line stroke="#000000" stroke-width="1" x1="581" x2="581" y1="281" y2="304" /><line stroke="#000000" stroke-width="1" x1="585" x2="585" y1="281" y2="304" /><line stroke="#000000" stroke-width="1" x1="589" x2="589" y1="281" y2="304" /><line stroke="#000000" stroke-width="1" x1="593" x2="593" y1="281" y2="304" /><line stroke="#000000" stroke-width="1" x1="597" x2="597" y1="281" y2="304" /><line stroke="#000000" stroke-width="1" x1="601" x2="601" y1="281" y2="304" /><line stroke="#000000" stroke-width="1" x1="605" x2="605" y1="281" y2="304" /><line stroke="#000000" stroke-width="1" x1="673" x2="673" y1="282" y2="304" /><line stroke="#000000" stroke-width="1" x1="669" x2="669" y1="282" y2="304" /><line stroke="#000000" stroke-width="1" x1="665" x2="665" y1="282" y2="304" /><line stroke="#000000" stroke-width="1" x1="661" x2="661" y1="282" y2="304" /><line stroke="#000000" stroke-width="1" x1="657" x2="657" y1="282" y2="304" /><line stroke="#000000" stroke-width="1" x1="653" x2="653" y1="282" y2="304" /><line stroke="#000000" stroke-width="1" x1="649" x2="649" y1="282" y2="304" /><line stroke="#000000" stroke-width="1" x1="645" x2="645" y1="282" y2="304" /><line stroke="#000000" stroke-width="1" x1="641" x2="641" y1="282" y2="304" /><line stroke="#000000" stroke-width="1" x1="637" x2="637" y1="282" y2="304" /><line stroke="#000000" stroke-width="1" x1="673" x2="673" y1="180" y2="157" /><line stroke="#000000" stroke-width="1" x1="669" x2="669" y1="180" y2="157" /><line stroke="#000000" stroke-width="1" x1="665" x2="665" y1="180" y2="157" /><line stroke="#000000" stroke-width="1" x1="661" x2="661" y1="180" y2="157" /><line stroke="#000000" stroke-width="1" x1="657" x2="657" y1="180" y2="157" /><line stroke="#000000" stroke-width="1" x1="653" x2="653" y1="180" y2="157" /><line stroke="#000000" stroke-width="1" x1="649" x2="649" y1="180" y2="157" /><line stroke="#000000" stroke-width="1" x1="645" x2="645" y1="180" y2="157" /><line stroke="#000000" stroke-width="1" x1="641" x2="641" y1="180" y2="157" /><line stroke="#000000" stroke-width="1" x1="637" x2="637" y1="180" y2="157" /><line stroke="#000000" stroke-width="1" x1="673" x2="673" y1="127" y2="105" /><line stroke="#000000" stroke-width="1" x1="669" x2="669" y1="127" y2="105" /><line stroke="#000000" stroke-width="1" x1="665" x2="665" y1="127" y2="105" /><line stroke="#000000" stroke-width="1" x1="661" x2="661" y1="127" y2="105" /><line stroke="#000000" stroke-width="1" x1="657" x2="657" y1="127" y2="105" /><line stroke="#000000" stroke-width="1" x1="653" x2="653" y1="127" y2="105" /><line stroke="#000000" stroke-width="1" x1="649" x2="649" y1="127" y2="105" /><line stroke="#000000" stroke-width="1" x1="645" x2="645" y1="127" y2="105" /><line stroke="#000000" stroke-width="1" x1="641" x2="641" y1="127" y2="105" /><line stroke="#000000" stroke-width="1" x1="637" x2="637" y1="127" y2="105" /><line stroke="#000000" stroke-width="1" x1="569" x2="569" y1="128" y2="105" /><line stroke="#000000" stroke-width="1" x1="573" x2="573" y1="128" y2="105" /><line stroke="#000000" stroke-width="1" x1="577" x2="577" y1="128" y2="105" /><line stroke="#000000" stroke-width="1" x1="581" x2="581" y1="128" y2="105" /><line stroke="#000000" stroke-width="1" x1="585" x2="585" y1="128" y2="105" /><line stroke="#000000" stroke-width="1" x1="589" x2="589" y1="128" y2="105" /><line stroke="#000000" stroke-width="1" x1="593" x2="593" y1="128" y2="105" /><line stroke="#000000" stroke-width="1" x1="597" x2="597" y1="128" y2="105" /><line stroke="#000000" stroke-width="1" x1="601" x2="601" y1="128" y2="105" /><line stroke="#000000" stroke-width="1" x1="605" x2="605" y1="128" y2="105" /><polygon fill="#D0D0D0" points="583,469 583,384 606,384 606,469" stroke="#000000" stroke-width="1" /><polygon fill="#FFFFFF" points="583,404 597,404 597,450 583,450" stroke="#000000" stroke-width="1" /><text fill="#000000" font-family="Arial" font-size="10" stroke="none" transform="rotate(90.0,597,413)" x="597" y="423.0">кассы</text><polyline fill="none" points="494,387 509,402" stroke="#000000" stroke-width="0.5" /><polygon fill="none" points="551,446 557,446 557,452 551,452" stroke="#000000" stroke-width="1" /><polyline fill="none" points="554,492 554,505" stroke="#000000" stroke-width="0.5" /><polyline fill="none" points="557,452 583,452" stroke="#000000" stroke-width="0.5" /><line stroke="#009900" stroke-width="1" x1="511" x2="508" y1="401" y2="404" /><line stroke="#009900" stroke-width="1" x1="513.828427125" x2="510.828427125" y1="403.828427125" y2="406.828427125" /><line stroke="#009900" stroke-width="1" x1="516.656854249" x2="513.656854249" y1="406.656854249" y2="409.656854249" /><line stroke="#009900" stroke-width="1" x1="519.485281374" x2="516.485281374" y1="409.485281374" y2="412.485281374" /><line stroke="#009900" stroke-width="1" x1="522.313708499" x2="519.313708499" y1="412.313708499" y2="415.313708499" /><line stroke="#009900" stroke-width="1" x1="525.142135624" x2="522.142135624" y1="415.142135624" y2="418.142135624" /><line stroke="#009900" stroke-width="1" x1="527.970562748" x2="524.970562748" y1="417.970562748" y2="420.970562748" /><line stroke="#009900" stroke-width="1" x1="530.798989873" x2="527.798989873" y1="420.798989873" y2="423.798989873" /><line stroke="#009900" stroke-width="1" x1="533.627416998" x2="530.627416998" y1="423.627416998" y2="426.627416998" /><line stroke="#009900" stroke-width="1" x1="536.455844123" x2="533.455844123" y1="426.455844123" y2="429.455844123" /><line stroke="#009900" stroke-width="1" x1="539.284271247" x2="536.284271247" y1="429.284271247" y2="432.284271247" /><line stroke="#009900" stroke-width="1" x1="542.112698372" x2="539.112698372" y1="432.112698372" y2="435.112698372" /><line stroke="#009900" stroke-width="1" x1="544.941125497" x2="541.941125497" y1="434.941125497" y2="437.941125497" /><line stroke="#009900" stroke-width="1" x1="547.769552622" x2="544.769552622" y1="437.769552622" y2="440.769552622" /><line stroke="#009900" stroke-width="1" x1="550.597979746" x2="547.597979746" y1="440.597979746" y2="443.597979746" /><line stroke="#FF0000" stroke-width="1" x1="556" x2="552" y1="456" y2="456" /><line stroke="#FF0000" stroke-width="1" x1="556" x2="552" y1="460" y2="460" /><line stroke="#FF0000" stroke-width="1" x1="556" x2="552" y1="464" y2="464" /><line stroke="#FF0000" stroke-width="1" x1="556" x2="552" y1="468" y2="468" /><line stroke="#FF0000" stroke-width="1" x1="556" x2="552" y1="472" y2="472" /><line stroke="#FF0000" stroke-width="1" x1="556" x2="552" y1="476" y2="476" /><line stroke="#FF0000" stroke-width="1" x1="556" x2="552" y1="480" y2="480" /><line stroke="#FF0000" stroke-width="1" x1="556" x2="552" y1="484" y2="484" /><line stroke="#FF0000" stroke-width="1" x1="556" x2="552" y1="488" y2="488" /><line stroke="#FF0000" stroke-width="1" x1="556" x2="552" y1="492" y2="492" /><line stroke="#7F7F7F" stroke-width="1" x1="449" x2="449" y1="445" y2="408" /><line stroke="#7F7F7F" stroke-width="1" x1="445" x2="445" y1="445" y2="408" /><line stroke="#7F7F7F" stroke-width="1" x1="441" x2="441" y1="445" y2="408" /><line stroke="#7F7F7F" stroke-width="1" x1="437" x2="437" y1="445" y2="408" /><line stroke="#7F7F7F" stroke-width="1" x1="433" x2="433" y1="445" y2="408" /><line stroke="#7F7F7F" stroke-width="1" x1="429" x2="429" y1="445" y2="408" /><line stroke="#7F7F7F" stroke-width="1" x1="425" x2="425" y1="445" y2="408" /><line stroke="#7F7F7F" stroke-width="1" x1="421" x2="421" y1="445" y2="408" /><line stroke="#7F7F7F" stroke-width="1" x1="417" x2="417" y1="445" y2="408" /><line stroke="#7F7F7F" stroke-width="1" x1="413" x2="413" y1="445" y2="408" /><line stroke="#7F7F7F" stroke-width="1" x1="409" x2="409" y1="445" y2="408" /><line stroke="#7F7F7F" stroke-width="1" x1="405" x2="405" y1="445" y2="408" /><line stroke="#7F7F7F" stroke-width="1" x1="401" x2="401" y1="445" y2="408" /><line stroke="#7F7F7F" stroke-width="1" x1="397" x2="397" y1="445" y2="408" /><line stroke="#7F7F7F" stroke-width="1" x1="393" x2="393" y1="445" y2="408" /><line stroke="#7F7F7F" stroke-width="1" x1="389" x2="389" y1="445" y2="408" /><line stroke="#7F7F7F" stroke-width="1" x1="385" x2="385" y1="445" y2="408" /><line stroke="#7F7F7F" stroke-width="1" x1="381" x2="381" y1="445" y2="408" /><line stroke="#7F7F7F" stroke-width="1" x1="377" x2="377" y1="445" y2="408" /><line stroke="#7F7F7F" stroke-width="1" x1="373" x2="373" y1="445" y2="408" /><line stroke="#7F7F7F" stroke-width="1" x1="369" x2="369" y1="445" y2="408" /><line stroke="#7F7F7F" stroke-width="1" x1="365" x2="365" y1="445" y2="408" /><line stroke="#7F7F7F" stroke-width="1" x1="361" x2="361" y1="445" y2="408" /><line stroke="#7F7F7F" stroke-width="1" x1="357" x2="357" y1="445" y2="408" /><polygon fill="#9B5509" points="456,408 349,408 349,404 456,404" stroke="#000000" stroke-width="1" /><polygon fill="#9B5509" points="456,417 456,422 349,422 349,417" stroke="#000000" stroke-width="1" /><polygon fill="#9B5509" points="456,431 456,436 349,436 349,431" stroke="#000000" stroke-width="1" /><polygon fill="#9B5509" points="456,445 349,445 349,449 456,449" stroke="#000000" stroke-width="1" /><polygon fill="#34349C" points="528,501 524,501 524,502 528,502" stroke="#34349C" stroke-width="1" /><polygon fill="#FF0000" points="532,501 528,501 528,502 532,502" stroke="#FF0000" stroke-width="1" /><text fill="#00AFAF" font-family="Arial" font-size="15" stroke="none" x="657" y="150.0">трамвайные пути</text><text fill="#00AFAF" font-family="Arial" font-size="15" stroke="none" x="596" y="584.0">Кусковский сквер</text><text fill="#00AFAF" font-family="Arial" font-size="15" stroke="none" x="421" y="238.0">Шоссе Энтузиастов</text><text fill="#00AFAF" font-family="Arial" font-size="15" stroke="none" transform="rotate(90.0,430,558)" x="430" y="573.0">Электродная улица</text><polyline fill="none" marker-end="url(#id268)" points="579,482 596,482" stroke="#FF0000" stroke-width="1" /><polyline fill="none" marker-end="url(#id268)" points="559,388 545,402" stroke="#009900" stroke-width="1" /></g></svg>