<svg xmlns="http://www.w3.org/2000/svg" version="1.1">
<defs>
    <marker id="arrow"
      viewBox="0 0 10 10" refX="0" refY="5"
      markerUnits="strokeWidth"
      markerWidth="4" markerHeight="3"
      orient="auto">
      <path d="M 0 0 L 10 5 L 0 10 z" />
    </marker>
  </defs>
<g stroke="#000000" fill="none" stroke-opacity="1.0" fill-opacity="1.0" transform="scale(0.5)">
<rect x="0" y="0" width="695" height="739" stroke-width="0" fill="none" />
<g stroke="#000000" fill="none" stroke-opacity="1.0" fill-opacity="1.0" transform="scale(0.5)">
</g>
<g transform="rotate(30.0 347 369)" >
<g stroke="#000000" fill="none" stroke-opacity="1.0" fill-opacity="1.0" transform="scale(0.5)">
</g>
<g stroke="#000000" fill="#046434" stroke-opacity="1.0" fill-opacity="1.0" transform="scale(0.5)">
<polygon points="5,291  5,261  455,261  455,291" stroke-width="1" />
<polygon points="5,371  5,401  455,401  455,371" stroke-width="1" />
</g>
<g stroke="#046434" fill="none" stroke-opacity="1.0" fill-opacity="1.0" transform="scale(0.5)">
<text x=" -3" y="257.0" font-family="Arial" font-size=" 20" fill="#046434" stroke-width="0">&lt;&lt; Войковская</text>
<text x=" 349" y="421.0" font-family="Arial" font-size=" 20" fill="#046434" stroke-width="0">Аэропорт &gt;&gt;</text>
<text x=" 234" y="343.0" font-family="Arial" font-size=" 25" fill="#046434" stroke-width="0">Сокол</text>
</g>
<g stroke="#34349C" fill="#34349C" stroke-opacity="1.0" fill-opacity="1.0" transform="scale(0.5)">
<polygon points="148,315  148,311  149,311  149,315" stroke-width="1" />
</g>
<g stroke="#FF0000" fill="#FF0000" stroke-opacity="1.0" fill-opacity="1.0" transform="scale(0.5)">
<polygon points="148,319  148,315  149,315  149,319" stroke-width="1" />
</g>
<g stroke="#000000" fill="#FF0000" stroke-opacity="1.0" fill-opacity="1.0" transform="scale(0.5)">
<polyline points="5,371  5,291" stroke-width="1" fill="none"  />
<polyline points="125,342  82,342" stroke-width="1" fill="none"  />
<polyline points="125,319  82,319" stroke-width="1" fill="none"  />
<polyline points="166,342  209,342" stroke-width="1" fill="none"  />
<polyline points="209,319  166,319" stroke-width="1" fill="none"  />
<line x1="209" y1="342" x2="209" y2="319" stroke-width="1" />
<line x1="205" y1="342" x2="205" y2="319" stroke-width="1" />
<line x1="201" y1="342" x2="201" y2="319" stroke-width="1" />
<line x1="197" y1="342" x2="197" y2="319" stroke-width="1" />
<line x1="193" y1="342" x2="193" y2="319" stroke-width="1" />
<line x1="189" y1="342" x2="189" y2="319" stroke-width="1" />
<line x1="185" y1="342" x2="185" y2="319" stroke-width="1" />
<line x1="181" y1="342" x2="181" y2="319" stroke-width="1" />
<line x1="177" y1="342" x2="177" y2="319" stroke-width="1" />
<line x1="173" y1="342" x2="173" y2="319" stroke-width="1" />
<line x1="169" y1="342" x2="169" y2="319" stroke-width="1" />
<line x1="82" y1="342" x2="82" y2="319" stroke-width="1" />
<line x1="86" y1="342" x2="86" y2="319" stroke-width="1" />
<line x1="90" y1="342" x2="90" y2="319" stroke-width="1" />
<line x1="94" y1="342" x2="94" y2="319" stroke-width="1" />
<line x1="98" y1="342" x2="98" y2="319" stroke-width="1" />
<line x1="102" y1="342" x2="102" y2="319" stroke-width="1" />
<line x1="106" y1="342" x2="106" y2="319" stroke-width="1" />
<line x1="110" y1="342" x2="110" y2="319" stroke-width="1" />
<line x1="114" y1="342" x2="114" y2="319" stroke-width="1" />
<line x1="118" y1="342" x2="118" y2="319" stroke-width="1" />
<line x1="122" y1="342" x2="122" y2="319" stroke-width="1" />
</g>
<g stroke="#FFFFFF" fill="#FFFFFF" stroke-opacity="0.8" fill-opacity="0.8" transform="scale(0.5)">
<polygon points="125,260  166,260  166,292  125,292" stroke-width="1" />
<polygon points="125,370  166,370  166,402  125,402" stroke-width="1" />
</g>
<g stroke="#FF0000" fill="#FFFFFF" stroke-opacity="1.0" fill-opacity="1.0" transform="scale(0.5)">
<polyline points="156,263  156,249" marker-end="url(#arrow)" stroke-width="1" fill="none" />
</g>
<g stroke="#009900" fill="#FFFFFF" stroke-opacity="1.0" fill-opacity="1.0" transform="scale(0.5)">
<polyline points="135,216  135,231" marker-end="url(#arrow)" stroke-width="1" fill="none" />
</g>
<g stroke="#000000" fill="#FFFFFF" stroke-opacity="1.0" fill-opacity="1.0" transform="scale(0.5)">
<polyline points="103,191  105,191  105,210  102,210" stroke-width="1" fill="none"  />
<polyline points="81,189  81,191  79,191  79,210  82,210" stroke-width="1" fill="none"  />
<polyline points="188,191  186,191  186,209  189,209" stroke-width="1" fill="none"  />
<polyline points="210,189  210,191  212,191  212,209  209,209" stroke-width="1" fill="none"  />
<polyline points="130,127  130,124" stroke-width="1" fill="none"  />
<polyline points="161,127  161,124" stroke-width="1" fill="none"  />
<line x1="125" y1="166" x2="166" y2="166" stroke-width="1" />
<line x1="125" y1="170" x2="166" y2="170" stroke-width="1" />
<line x1="125" y1="174" x2="166" y2="174" stroke-width="1" />
<line x1="125" y1="178" x2="166" y2="178" stroke-width="1" />
</g>
<g stroke="#0" fill="#FFFFFF" stroke-opacity="1.0" fill-opacity="1.0" transform="scale(0.5)">
<line x1="81" y1="189" x2="86" y2="165" stroke-width="1" />
<line x1="102.537569234" y1="193.48699359" x2="107.537569234" y2="169.48699359" stroke-width="1" />
<line x1="81.4079085082" y1="187.042039161" x2="102.945477742" y2="191.529032751" stroke-width="1" />
<line x1="82.4276797788" y1="182.147137062" x2="103.965249013" y2="186.634130652" stroke-width="1" />
<line x1="83.4474510493" y1="177.252234963" x2="104.985020284" y2="181.739228554" stroke-width="1" />
<line x1="84.4672223199" y1="172.357332864" x2="106.004791554" y2="176.844326455" stroke-width="1" />
<line x1="85.4869935905" y1="167.462430766" x2="107.024562825" y2="171.949424356" stroke-width="1" />
<line x1="86" y1="165" x2="98" y2="146" stroke-width="1" />
<line x1="104.600755867" y1="176.747845811" x2="116.600755867" y2="157.747845811" stroke-width="1" />
<line x1="87.0679859828" y1="163.309022194" x2="105.668741849" y2="175.056868004" stroke-width="1" />
<line x1="89.7379509397" y1="159.081577679" x2="108.338706806" y2="170.829423489" stroke-width="1" />
<line x1="92.4079158967" y1="154.854133164" x2="111.008671763" y2="166.601978974" stroke-width="1" />
<line x1="95.0778808536" y1="150.626688648" x2="113.67863672" y2="162.374534459" stroke-width="1" />
<line x1="97.7478458105" y1="146.399244133" x2="116.348601677" y2="158.147089944" stroke-width="1" />
<line x1="98" y1="146" x2="116" y2="132" stroke-width="1" />
<line x1="111.506693497" y1="163.365748782" x2="129.506693497" y2="149.365748782" stroke-width="1" />
<line x1="99.5787044348" y1="144.772118773" x2="113.085397932" y2="162.137867555" stroke-width="1" />
<line x1="103.525465522" y1="141.702415705" x2="117.032159019" y2="159.068164488" stroke-width="1" />
<line x1="107.472226609" y1="138.632712638" x2="120.978920106" y2="155.99846142" stroke-width="1" />
<line x1="111.418987695" y1="135.56300957" x2="124.925681193" y2="152.928758353" stroke-width="1" />
<line x1="115.365748782" y1="132.493306503" x2="128.87244228" y2="149.859055285" stroke-width="1" />
</g>
<g stroke="#0" fill="#FFFFFF" stroke-opacity="1.0" fill-opacity="1.0" transform="scale(0.5)">
<line x1="175" y1="132" x2="193" y2="146" stroke-width="1" />
<line x1="161.493306503" y1="149.365748782" x2="179.493306503" y2="163.365748782" stroke-width="1" />
<line x1="176.578704435" y1="133.227881227" x2="163.072010937" y2="150.593630009" stroke-width="1" />
<line x1="180.525465522" y1="136.297584295" x2="167.018772024" y2="153.663333077" stroke-width="1" />
<line x1="184.472226609" y1="139.367287362" x2="170.965533111" y2="156.733036144" stroke-width="1" />
<line x1="188.418987695" y1="142.43699043" x2="174.912294198" y2="159.802739212" stroke-width="1" />
<line x1="192.365748782" y1="145.506693497" x2="178.859055285" y2="162.87244228" stroke-width="1" />
<line x1="193" y1="146" x2="205" y2="165" stroke-width="1" />
<line x1="174.399244133" y1="157.747845811" x2="186.399244133" y2="176.747845811" stroke-width="1" />
<line x1="194.067985983" y1="147.690977806" x2="175.467230116" y2="159.438823617" stroke-width="1" />
<line x1="196.73795094" y1="151.918422321" x2="178.137195073" y2="163.666268132" stroke-width="1" />
<line x1="199.407915897" y1="156.145866836" x2="180.80716003" y2="167.893712647" stroke-width="1" />
<line x1="202.077880854" y1="160.373311352" x2="183.477124987" y2="172.121157162" stroke-width="1" />
<line x1="204.747845811" y1="164.600755867" x2="186.147089944" y2="176.348601677" stroke-width="1" />
<line x1="205" y1="165" x2="210" y2="189" stroke-width="1" />
<line x1="183.462430766" y1="169.48699359" x2="188.462430766" y2="193.48699359" stroke-width="1" />
<line x1="205.407908508" y1="166.957960839" x2="183.870339274" y2="171.44495443" stroke-width="1" />
<line x1="206.427679779" y1="171.852862938" x2="184.890110545" y2="176.339856529" stroke-width="1" />
<line x1="207.447451049" y1="176.747765037" x2="185.909881815" y2="181.234758627" stroke-width="1" />
<line x1="208.46722232" y1="181.642667136" x2="186.929653086" y2="186.129660726" stroke-width="1" />
<line x1="209.48699359" y1="186.537569234" x2="187.949424356" y2="191.024562825" stroke-width="1" />
<polyline points="116,132  123,129  130,127" stroke-width="1" fill="none"/> <!-- spline -->
<polyline points="175,132  168,129  161,127" stroke-width="1" fill="none"/> <!-- spline -->
</g>
<g stroke="#0" fill="none" stroke-opacity="1.0" fill-opacity="1.0" transform="scale(0.5)">
<polyline points="123,183  123,211" stroke-width="1" fill="none"  />
<text x=" 112" y="220.0" font-family="Arial" font-size=" 10" fill="#0" transform="rotate(-90.0  112  210)" stroke-width="0">кассы</text>
</g>
<g stroke="#0" fill="none" stroke-opacity="1.0" fill-opacity="1.0" transform="scale(0.5)">
<polyline points="145,210  145,240" stroke-width=" 0.5" fill="none"  />
<polygon points="142,261  148,261  148,267  142,267" stroke-width="1" />
</g>
<g stroke="#009900" fill="none" stroke-opacity="1.0" fill-opacity="1.0" transform="scale(0.5)">
<line x1="138" y1="268" x2="141" y2="271" stroke-width="1" />
<line x1="135.171572875" y1="270.828427125" x2="138.171572875" y2="273.828427125" stroke-width="1" />
<line x1="132.343145751" y1="273.656854249" x2="135.343145751" y2="276.656854249" stroke-width="1" />
<line x1="129.514718626" y1="276.485281374" x2="132.514718626" y2="279.485281374" stroke-width="1" />
<line x1="126.686291501" y1="279.313708499" x2="129.686291501" y2="282.313708499" stroke-width="1" />
<line x1="143" y1="240" x2="147" y2="240" stroke-width="1" />
<line x1="143" y1="244" x2="147" y2="244" stroke-width="1" />
<line x1="143" y1="248" x2="147" y2="248" stroke-width="1" />
<line x1="143" y1="252" x2="147" y2="252" stroke-width="1" />
<line x1="143" y1="256" x2="147" y2="256" stroke-width="1" />
</g>
<g stroke="#FF0000" fill="none" stroke-opacity="1.0" fill-opacity="1.0" transform="scale(0.5)">
<line x1="162" y1="236" x2="162" y2="240" stroke-width="1" />
<line x1="158" y1="236" x2="158" y2="240" stroke-width="1" />
<line x1="154" y1="236" x2="154" y2="240" stroke-width="1" />
<line x1="150" y1="236" x2="150" y2="240" stroke-width="1" />
</g>
<g stroke="#FF0000" fill="none" stroke-opacity="1.0" fill-opacity="1.0" transform="scale(0.5)">
<polyline points="154,161  154,151" marker-end="url(#arrow)" stroke-width="1" fill="none" />
<polyline points="200,204  200,220" marker-end="url(#arrow)" stroke-width="1" fill="none" />
</g>
<g stroke="#009900" fill="none" stroke-opacity="1.0" fill-opacity="1.0" transform="scale(0.5)">
<polyline points="139,151  139,161" marker-end="url(#arrow)" stroke-width="1" fill="none" />
<polyline points="92,219  92,204" marker-end="url(#arrow)" stroke-width="1" fill="none" />
</g>
<g stroke="#000000" fill="none" stroke-opacity="1.0" fill-opacity="1.0" transform="scale(0.5)">
<polyline points="166,261  166,211  176,211  176,183  166,183  166,152" stroke-width="1" fill="none"  />
<polyline points="125,261  125,211  115,211  115,183  125,183  125,152" stroke-width="1" fill="none"  />
<polyline points="166,401  166,516  177,516  177,563" stroke-width="1" fill="none"  />
<polyline points="125,401  125,516  115,516  115,563" stroke-width="1" fill="none"  />
<polyline points="169,563  189,563  189,522  192,522" stroke-width="1" fill="none"  />
<polyline points="123,563  103,563  103,522  100,522" stroke-width="1" fill="none"  />
<polyline points="86,522  83,522  83,580  209,580  209,522  206,522" stroke-width="1" fill="none"  />
<polyline points="166,342  166,401" stroke-width="1" fill="none"  />
<polyline points="166,319  166,261" stroke-width="1" fill="none"  />
<polyline points="125,319  125,261" stroke-width="1" fill="none"  />
<polyline points="125,342  125,401" stroke-width="1" fill="none"  />
<line x1="189" y1="561" x2="209" y2="561" stroke-width="1" />
<line x1="189" y1="557" x2="209" y2="557" stroke-width="1" />
<line x1="189" y1="553" x2="209" y2="553" stroke-width="1" />
<line x1="189" y1="549" x2="209" y2="549" stroke-width="1" />
<line x1="189" y1="545" x2="209" y2="545" stroke-width="1" />
<line x1="103" y1="561" x2="83" y2="561" stroke-width="1" />
<line x1="103" y1="557" x2="83" y2="557" stroke-width="1" />
<line x1="103" y1="553" x2="83" y2="553" stroke-width="1" />
<line x1="103" y1="549" x2="83" y2="549" stroke-width="1" />
<line x1="103" y1="545" x2="83" y2="545" stroke-width="1" />
<line x1="171" y1="563" x2="171" y2="580" stroke-width="1" />
<line x1="175" y1="563" x2="175" y2="580" stroke-width="1" />
<line x1="179" y1="563" x2="179" y2="580" stroke-width="1" />
<line x1="183" y1="563" x2="183" y2="580" stroke-width="1" />
<line x1="187" y1="563" x2="187" y2="580" stroke-width="1" />
<line x1="121" y1="563" x2="121" y2="580" stroke-width="1" />
<line x1="117" y1="563" x2="117" y2="580" stroke-width="1" />
<line x1="113" y1="563" x2="113" y2="580" stroke-width="1" />
<line x1="109" y1="563" x2="109" y2="580" stroke-width="1" />
<line x1="105" y1="563" x2="105" y2="580" stroke-width="1" />
</g>
<g stroke="#000000" fill="#D0D0D0" stroke-opacity="1.0" fill-opacity="1.0" transform="scale(0.5)">
<polygon points="143,534  150,534  150,543  143,543" stroke-width="1" />
</g>
<g stroke="#000000" fill="none" stroke-opacity="1.0" fill-opacity="1.0" transform="scale(0.5)">
<polyline points="115,543  123,543  123,516" stroke-width="1" fill="none"  />
<text x=" 113" y="552.0" font-family="Arial" font-size=" 10" fill="#000000" transform="rotate(-90.0  113  542)" stroke-width="0">кассы</text>
</g>
<g stroke="#000000" fill="none" stroke-opacity="1.0" fill-opacity="1.0" transform="scale(0.5)">
<polyline points="148,480  148,455" stroke-width=" 0.5" fill="none"  />
<polygon points="127,412  133,412  133,418  127,418" stroke-width="1" />
</g>
<g stroke="#009900" fill="none" stroke-opacity="1.0" fill-opacity="1.0" transform="scale(0.5)">
<line x1="144" y1="455" x2="148" y2="455" stroke-width="1" />
<line x1="144" y1="451" x2="148" y2="451" stroke-width="1" />
<line x1="144" y1="447" x2="148" y2="447" stroke-width="1" />
<line x1="144" y1="443" x2="148" y2="443" stroke-width="1" />
<line x1="144" y1="439" x2="148" y2="439" stroke-width="1" />
<line x1="144" y1="435" x2="148" y2="435" stroke-width="1" />
<line x1="143" y1="432" x2="146" y2="429" stroke-width="1" />
<line x1="140.171572875" y1="429.171572875" x2="143.171572875" y2="426.171572875" stroke-width="1" />
<line x1="137.343145751" y1="426.343145751" x2="140.343145751" y2="423.343145751" stroke-width="1" />
<line x1="134.514718626" y1="423.514718626" x2="137.514718626" y2="420.514718626" stroke-width="1" />
<line x1="131.686291501" y1="420.686291501" x2="134.686291501" y2="417.686291501" stroke-width="1" />
</g>
<g stroke="#FF0000" fill="none" stroke-opacity="1.0" fill-opacity="1.0" transform="scale(0.5)">
<line x1="149" y1="461" x2="149" y2="457" stroke-width="1" />
<line x1="153" y1="461" x2="153" y2="457" stroke-width="1" />
<line x1="157" y1="461" x2="157" y2="457" stroke-width="1" />
<line x1="161" y1="461" x2="161" y2="457" stroke-width="1" />
<line x1="165" y1="461" x2="165" y2="457" stroke-width="1" />
</g>
<g stroke="#FF0000" fill="none" stroke-opacity="1.0" fill-opacity="1.0" transform="scale(0.5)">
<polyline points="157,430  157,445" marker-end="url(#arrow)" stroke-width="1" fill="none" />
</g>
<g stroke="#009900" fill="none" stroke-opacity="1.0" fill-opacity="1.0" transform="scale(0.5)">
<polyline points="134,476  134,461" marker-end="url(#arrow)" stroke-width="1" fill="none" />
</g>
<g stroke="#34349C" fill="#34349C" stroke-opacity="1.0" fill-opacity="1.0" transform="scale(0.5)">
<polygon points="146,577  142,577  142,578  146,578" stroke-width="1" />
</g>
<g stroke="#FF0000" fill="#FF0000" stroke-opacity="1.0" fill-opacity="1.0" transform="scale(0.5)">
<polygon points="150,577  146,577  146,578  150,578" stroke-width="1" />
</g>
<g stroke="#000000" fill="#FF0000" stroke-opacity="1.0" fill-opacity="1.0" transform="scale(0.5)">
<polyline points="455,371  455,344  517,344  517,466  474,466" stroke-width="1" fill="none"  />
<polyline points="455,291  455,316  517,316  517,237  474,237" stroke-width="1" fill="none"  />
<polyline points="474,218  600,218" stroke-width="1" fill="none"  />
<polyline points="600,238  557,238  557,466  600,466" stroke-width="1" fill="none"  />
<polyline points="600,486  474,486" stroke-width="1" fill="none"  />
<line x1="598" y1="466" x2="598" y2="486" stroke-width="1" />
<line x1="594" y1="466" x2="594" y2="486" stroke-width="1" />
<line x1="590" y1="466" x2="590" y2="486" stroke-width="1" />
<line x1="586" y1="466" x2="586" y2="486" stroke-width="1" />
<line x1="582" y1="466" x2="582" y2="486" stroke-width="1" />
<line x1="578" y1="466" x2="578" y2="486" stroke-width="1" />
<line x1="574" y1="466" x2="574" y2="486" stroke-width="1" />
<line x1="570" y1="466" x2="570" y2="486" stroke-width="1" />
<line x1="566" y1="466" x2="566" y2="486" stroke-width="1" />
<line x1="562" y1="466" x2="562" y2="486" stroke-width="1" />
<line x1="476" y1="466" x2="476" y2="486" stroke-width="1" />
<line x1="480" y1="466" x2="480" y2="486" stroke-width="1" />
<line x1="484" y1="466" x2="484" y2="486" stroke-width="1" />
<line x1="488" y1="466" x2="488" y2="486" stroke-width="1" />
<line x1="492" y1="466" x2="492" y2="486" stroke-width="1" />
<line x1="496" y1="466" x2="496" y2="486" stroke-width="1" />
<line x1="500" y1="466" x2="500" y2="486" stroke-width="1" />
<line x1="504" y1="466" x2="504" y2="486" stroke-width="1" />
<line x1="508" y1="466" x2="508" y2="486" stroke-width="1" />
<line x1="512" y1="466" x2="512" y2="486" stroke-width="1" />
<line x1="598" y1="238" x2="598" y2="218" stroke-width="1" />
<line x1="594" y1="238" x2="594" y2="218" stroke-width="1" />
<line x1="590" y1="238" x2="590" y2="218" stroke-width="1" />
<line x1="586" y1="238" x2="586" y2="218" stroke-width="1" />
<line x1="582" y1="238" x2="582" y2="218" stroke-width="1" />
<line x1="578" y1="238" x2="578" y2="218" stroke-width="1" />
<line x1="574" y1="238" x2="574" y2="218" stroke-width="1" />
<line x1="570" y1="238" x2="570" y2="218" stroke-width="1" />
<line x1="566" y1="238" x2="566" y2="218" stroke-width="1" />
<line x1="562" y1="238" x2="562" y2="218" stroke-width="1" />
<line x1="476" y1="237" x2="476" y2="218" stroke-width="1" />
<line x1="480" y1="237" x2="480" y2="218" stroke-width="1" />
<line x1="484" y1="237" x2="484" y2="218" stroke-width="1" />
<line x1="488" y1="237" x2="488" y2="218" stroke-width="1" />
<line x1="492" y1="237" x2="492" y2="218" stroke-width="1" />
<line x1="496" y1="237" x2="496" y2="218" stroke-width="1" />
<line x1="500" y1="237" x2="500" y2="218" stroke-width="1" />
<line x1="504" y1="237" x2="504" y2="218" stroke-width="1" />
<line x1="508" y1="237" x2="508" y2="218" stroke-width="1" />
<line x1="512" y1="237" x2="512" y2="218" stroke-width="1" />
<line x1="457" y1="344" x2="457" y2="316" stroke-width="1" />
<line x1="461" y1="344" x2="461" y2="316" stroke-width="1" />
<line x1="465" y1="344" x2="465" y2="316" stroke-width="1" />
<line x1="469" y1="344" x2="469" y2="316" stroke-width="1" />
<line x1="473" y1="344" x2="473" y2="316" stroke-width="1" />
<line x1="477" y1="344" x2="477" y2="316" stroke-width="1" />
<line x1="481" y1="344" x2="481" y2="316" stroke-width="1" />
<line x1="485" y1="344" x2="485" y2="316" stroke-width="1" />
<line x1="489" y1="344" x2="489" y2="316" stroke-width="1" />
<line x1="493" y1="344" x2="493" y2="316" stroke-width="1" />
</g>
<g stroke="#000000" fill="#D0D0D0" stroke-opacity="1.0" fill-opacity="1.0" transform="scale(0.5)">
<polygon points="503,332  503,328  517,328  517,332" stroke-width="1" />
</g>
<g stroke="#FF0000" fill="none" stroke-opacity="1.0" fill-opacity="1.0" transform="scale(0.5)">
<line x1="452" y1="316" x2="448" y2="316" stroke-width="1" />
<line x1="452" y1="320" x2="448" y2="320" stroke-width="1" />
<line x1="452" y1="324" x2="448" y2="324" stroke-width="1" />
<line x1="452" y1="328" x2="448" y2="328" stroke-width="1" />
<line x1="452" y1="332" x2="448" y2="332" stroke-width="1" />
<line x1="452" y1="336" x2="448" y2="336" stroke-width="1" />
<line x1="452" y1="340" x2="448" y2="340" stroke-width="1" />
<line x1="452" y1="344" x2="448" y2="344" stroke-width="1" />
</g>
<g stroke="#FF0000" fill="none" stroke-opacity="1.0" fill-opacity="1.0" transform="scale(0.5)">
<polyline points="429,330  444,330" marker-end="url(#arrow)" stroke-width="1" fill="none" />
</g>
<g stroke="#00AFAF" fill="none" stroke-opacity="1.0" fill-opacity="1.0" transform="scale(0.5)">
<text x=" 576" y="392.0" font-family="Arial" font-size=" 15" fill="#00AFAF" stroke-width="0">Ленинградский проспект</text>
<text x=" 653" y="613.0" font-family="Arial" font-size=" 15" fill="#00AFAF" transform="rotate(-90.0  653  598)" stroke-width="0">Песчаная улица</text>
<text x=" 91" y="119.0" font-family="Arial" font-size=" 15" fill="#00AFAF" stroke-width="0">'ТЦ "Метромаркет"'</text>
</g>
</g>
</g>
</svg>
