<?xml version="1.0" encoding="utf-8" ?>
<svg baseProfile="full" height="620.0" version="1.1" width="500.0" xmlns="http://www.w3.org/2000/svg" xmlns:ev="http://www.w3.org/2001/xml-events" xmlns:xlink="http://www.w3.org/1999/xlink">
  <defs>
    <marker id="id294" markerHeight="3" markerUnits="strokeWidth" markerWidth="4" orient="auto" refX="0" refY="5" viewBox="0,0,10,10">
      <path d="M 0 0 L 10 5 L 0 10 z"/>
    </marker>
  </defs>
  <g>
    <rect fill="none" height="620.0" stroke="none" stroke-width="0" width="500.0" x="0.0" y="0.0"/>
    <g transform="rotate(-20.0,250.0,310.0)">
      <polygon fill="#e41c0c" points="-27.0,391.0 423.0,391.0 423.0,421.0 -27.0,421.0" stroke="#000000" stroke-width="1"/>
      <polygon fill="#e41c0c" points="-27.0,501.0 423.0,501.0 423.0,531.0 -27.0,531.0" stroke="#000000" stroke-width="1"/>
      <text fill="#e41c0c" font-family="Arial" font-size="20.0" stroke="none" stroke-width="0" x="-39.0" y="385.0">&lt;&lt; Красносельская</text>
      <text fill="#e41c0c" font-family="Arial" font-size="20.0" stroke="none" stroke-width="0" x="175.0" y="551.0">Преображенская площадь &gt;&gt;</text>
      <text fill="#e41c0c" font-family="Arial" font-size="25.0" stroke="none" stroke-width="0" x="276.0" y="473.0">Сокольники</text>
      <polyline fill="none" points="-27.0,501.0 -27.0,421.0" stroke="#000000" stroke-width="1"/>
      <polyline fill="none" points="423.0,501.0 423.0,421.0" stroke="#000000" stroke-width="1"/>
    </g>
    <g fill="none" fill-opacity="0.8" stroke="#000000" stroke-opacity="0.8" transform="rotate(-20.0,250.0,310.0)">
      <polygon fill="#ffffff" points="122.0,391.0 135.0,391.0 135.0,389.0 195.0,389.0 195.0,391.0 208.0,391.0 208.0,422.0 122.0,422.0" stroke="#ffffff" stroke-width="1"/>
      <polygon fill="#ffffff" points="123.0,500.0 208.0,500.0 208.0,531.0 123.0,531.0" stroke="#ffffff" stroke-width="1"/>
    </g>
    <g fill="#ffffff" fill-opacity="1.0" stroke="#ffffff" stroke-opacity="1.0" transform="rotate(-20.0,250.0,310.0)">
      <polyline fill="none" points="266.0,441.0 208.0,441.0 208.0,391.0 195.0,391.0" stroke="#000000" stroke-width="1"/>
      <polyline fill="none" points="64.0,441.0 122.0,441.0 122.0,391.0 135.0,391.0" stroke="#000000" stroke-width="1"/>
      <polyline fill="none" points="64.0,479.0 123.0,479.0 123.0,531.0 208.0,531.0 208.0,479.0 266.0,479.0" stroke="#000000" stroke-width="1"/>
      <line stroke="#000000" stroke-width="1" x1="264.0" x2="264.0" y1="441.0" y2="479.0"/>
      <line stroke="#000000" stroke-width="1" x1="260.0" x2="260.0" y1="441.0" y2="479.0"/>
      <line stroke="#000000" stroke-width="1" x1="256.0" x2="256.0" y1="441.0" y2="479.0"/>
      <line stroke="#000000" stroke-width="1" x1="252.0" x2="252.0" y1="441.0" y2="479.0"/>
      <line stroke="#000000" stroke-width="1" x1="248.0" x2="248.0" y1="441.0" y2="479.0"/>
      <line stroke="#000000" stroke-width="1" x1="244.0" x2="244.0" y1="441.0" y2="479.0"/>
      <line stroke="#000000" stroke-width="1" x1="211.0" x2="211.0" y1="441.0" y2="479.0"/>
      <line stroke="#000000" stroke-width="1" x1="215.0" x2="215.0" y1="441.0" y2="479.0"/>
      <line stroke="#000000" stroke-width="1" x1="219.0" x2="219.0" y1="441.0" y2="479.0"/>
      <line stroke="#000000" stroke-width="1" x1="223.0" x2="223.0" y1="441.0" y2="479.0"/>
      <line stroke="#000000" stroke-width="1" x1="227.0" x2="227.0" y1="441.0" y2="479.0"/>
      <line stroke="#000000" stroke-width="1" x1="119.0" x2="119.0" y1="441.0" y2="479.0"/>
      <line stroke="#000000" stroke-width="1" x1="115.0" x2="115.0" y1="441.0" y2="479.0"/>
      <line stroke="#000000" stroke-width="1" x1="111.0" x2="111.0" y1="441.0" y2="479.0"/>
      <line stroke="#000000" stroke-width="1" x1="107.0" x2="107.0" y1="441.0" y2="479.0"/>
      <line stroke="#000000" stroke-width="1" x1="103.0" x2="103.0" y1="441.0" y2="479.0"/>
      <line stroke="#000000" stroke-width="1" x1="66.0" x2="66.0" y1="479.0" y2="441.0"/>
      <line stroke="#000000" stroke-width="1" x1="70.0" x2="70.0" y1="479.0" y2="441.0"/>
      <line stroke="#000000" stroke-width="1" x1="74.0" x2="74.0" y1="479.0" y2="441.0"/>
      <line stroke="#000000" stroke-width="1" x1="78.0" x2="78.0" y1="479.0" y2="441.0"/>
      <line stroke="#000000" stroke-width="1" x1="82.0" x2="82.0" y1="479.0" y2="441.0"/>
      <line stroke="#000000" stroke-width="1" x1="86.0" x2="86.0" y1="479.0" y2="441.0"/>
      <polygon fill="#34349c" points="166.0,484.0 162.0,484.0 162.0,485.0 166.0,485.0" stroke="#34349c" stroke-width="1"/>
      <polygon fill="#ff0000" points="170.0,484.0 166.0,484.0 166.0,485.0 170.0,485.0" stroke="#ff0000" stroke-width="1"/>
      <polyline fill="none" points="135.0,391.0 135.0,270.0" stroke="#000000" stroke-width="1"/>
      <polyline fill="none" points="195.0,391.0 195.0,270.0" stroke="#000000" stroke-width="1"/>
      <polyline fill="none" marker-end="url(#id294)" points="145.0,410.0 145.0,394.0" stroke="#ff0000" stroke-width="1"/>
      <polyline fill="none" marker-end="url(#id294)" points="185.0,410.0 185.0,394.0" stroke="#ff0000" stroke-width="1"/>
      <polyline fill="none" marker-end="url(#id294)" points="165.0,354.0 165.0,372.0" stroke="#009900" stroke-width="1"/>
      <polygon fill="#fefbf1" points="185.0,143.0 185.0,180.0 251.0,180.0 251.0,143.0" stroke="#fefbf1" stroke-width="1"/>
      <polygon fill="#fefbf1" points="145.0,143.0 145.0,180.0 80.0,180.0 80.0,143.0" stroke="#fefbf1" stroke-width="1"/>
      <polyline fill="none" points="249.0,164.0 251.0,164.0 251.0,143.0 185.0,143.0 185.0,148.0 187.0,148.0" stroke="#c0c0c0" stroke-width="1"/>
      <polyline fill="none" points="187.0,154.0 185.0,154.0 185.0,180.0 251.0,180.0 251.0,172.0 249.0,172.0" stroke="#c0c0c0" stroke-width="1"/>
      <polyline fill="none" points="143.0,148.0 145.0,148.0 145.0,143.0 80.0,143.0 80.0,164.0 82.0,164.0" stroke="#c0c0c0" stroke-width="1"/>
      <polyline fill="none" points="82.0,172.0 80.0,172.0 80.0,180.0 145.0,180.0 145.0,154.0 143.0,154.0" stroke="#c0c0c0" stroke-width="1"/>
      <line stroke="#c0c0c0" stroke-width="1" x1="105.0" x2="105.0" y1="178.0" y2="162.0"/>
      <line stroke="#c0c0c0" stroke-width="1" x1="109.0" x2="109.0" y1="178.0" y2="162.0"/>
      <line stroke="#c0c0c0" stroke-width="1" x1="113.0" x2="113.0" y1="178.0" y2="162.0"/>
      <line stroke="#c0c0c0" stroke-width="1" x1="117.0" x2="117.0" y1="178.0" y2="162.0"/>
      <line stroke="#c0c0c0" stroke-width="1" x1="121.0" x2="121.0" y1="178.0" y2="162.0"/>
      <line stroke="#c0c0c0" stroke-width="1" x1="125.0" x2="125.0" y1="178.0" y2="162.0"/>
      <line stroke="#c0c0c0" stroke-width="1" x1="129.0" x2="129.0" y1="178.0" y2="162.0"/>
      <line stroke="#c0c0c0" stroke-width="1" x1="133.0" x2="133.0" y1="178.0" y2="162.0"/>
      <line stroke="#c0c0c0" stroke-width="1" x1="137.0" x2="137.0" y1="178.0" y2="162.0"/>
      <line stroke="#c0c0c0" stroke-width="1" x1="139.0" x2="139.0" y1="162.0" y2="146.0"/>
      <line stroke="#c0c0c0" stroke-width="1" x1="135.0" x2="135.0" y1="162.0" y2="146.0"/>
      <line stroke="#c0c0c0" stroke-width="1" x1="131.0" x2="131.0" y1="162.0" y2="146.0"/>
      <line stroke="#c0c0c0" stroke-width="1" x1="127.0" x2="127.0" y1="162.0" y2="146.0"/>
      <line stroke="#c0c0c0" stroke-width="1" x1="123.0" x2="123.0" y1="162.0" y2="146.0"/>
      <line stroke="#c0c0c0" stroke-width="1" x1="119.0" x2="119.0" y1="162.0" y2="146.0"/>
      <line stroke="#c0c0c0" stroke-width="1" x1="115.0" x2="115.0" y1="162.0" y2="146.0"/>
      <line stroke="#c0c0c0" stroke-width="1" x1="111.0" x2="111.0" y1="162.0" y2="146.0"/>
      <line stroke="#c0c0c0" stroke-width="1" x1="225.0" x2="225.0" y1="178.0" y2="162.0"/>
      <line stroke="#c0c0c0" stroke-width="1" x1="221.0" x2="221.0" y1="178.0" y2="162.0"/>
      <line stroke="#c0c0c0" stroke-width="1" x1="217.0" x2="217.0" y1="178.0" y2="162.0"/>
      <line stroke="#c0c0c0" stroke-width="1" x1="213.0" x2="213.0" y1="178.0" y2="162.0"/>
      <line stroke="#c0c0c0" stroke-width="1" x1="209.0" x2="209.0" y1="178.0" y2="162.0"/>
      <line stroke="#c0c0c0" stroke-width="1" x1="205.0" x2="205.0" y1="178.0" y2="162.0"/>
      <line stroke="#c0c0c0" stroke-width="1" x1="201.0" x2="201.0" y1="178.0" y2="162.0"/>
      <line stroke="#c0c0c0" stroke-width="1" x1="197.0" x2="197.0" y1="178.0" y2="162.0"/>
      <line stroke="#c0c0c0" stroke-width="1" x1="193.0" x2="193.0" y1="178.0" y2="162.0"/>
      <line stroke="#c0c0c0" stroke-width="1" x1="191.0" x2="191.0" y1="162.0" y2="146.0"/>
      <line stroke="#c0c0c0" stroke-width="1" x1="195.0" x2="195.0" y1="162.0" y2="146.0"/>
      <line stroke="#c0c0c0" stroke-width="1" x1="199.0" x2="199.0" y1="162.0" y2="146.0"/>
      <line stroke="#c0c0c0" stroke-width="1" x1="203.0" x2="203.0" y1="162.0" y2="146.0"/>
      <line stroke="#c0c0c0" stroke-width="1" x1="207.0" x2="207.0" y1="162.0" y2="146.0"/>
      <line stroke="#c0c0c0" stroke-width="1" x1="211.0" x2="211.0" y1="162.0" y2="146.0"/>
      <line stroke="#c0c0c0" stroke-width="1" x1="215.0" x2="215.0" y1="162.0" y2="146.0"/>
      <line stroke="#c0c0c0" stroke-width="1" x1="219.0" x2="219.0" y1="162.0" y2="146.0"/>
      <polyline fill="none" points="242.0,203.0 242.0,146.0 88.0,146.0 88.0,204.0" stroke="#000000" stroke-width="1"/>
      <polyline fill="none" points="225.0,178.0 182.0,178.0 182.0,194.0 225.0,194.0 225.0,162.0 191.0,162.0" stroke="#000000" stroke-width="1"/>
      <polyline fill="none" points="139.0,162.0 105.0,162.0 105.0,194.0 148.0,194.0 148.0,178.0 105.0,178.0" stroke="#000000" stroke-width="1"/>
      <path d="M242.0,203.0 C242.0,203.0 244.33333333333334,196.0 242.0,203.0 C239.66666666666666,210.0 235.83333333333334,233.83333333333334 228.0,245.0 C220.16666666666666,256.1666666666667 195.0,270.0 195.0,270.0 " fill="none" stroke="#000000" stroke-width="1"/>
      <path d="M88.0,204.0 C88.0,204.0 85.66666666666667,197.16666666666666 88.0,204.0 C90.33333333333333,210.83333333333334 94.16666666666667,234.0 102.0,245.0 C109.83333333333333,256.0 135.0,270.0 135.0,270.0 " fill="none" stroke="#000000" stroke-width="1"/>
      <path d="M225.0,194.0 C225.0,194.0 226.33333333333334,188.83333333333334 225.0,194.0 C223.66666666666666,199.16666666666666 221.0,216.66666666666666 217.0,225.0 C213.0,233.33333333333334 201.0,244.0 201.0,244.0 " fill="none" stroke="#000000" stroke-width="1"/>
      <path d="M105.0,194.0 C105.0,194.0 103.66666666666667,189.0 105.0,194.0 C106.33333333333333,199.0 109.0,215.66666666666666 113.0,224.0 C117.0,232.33333333333334 129.0,244.0 129.0,244.0 " fill="none" stroke="#000000" stroke-width="1"/>
      <line stroke="#000000" stroke-width="1" x1="116.0" x2="129.0" y1="259.0" y2="244.0"/>
      <line stroke="#000000" stroke-width="1" x1="113.02682341501134" x2="126.02682341501134" y1="256.3241410735102" y2="241.3241410735102"/>
      <line stroke="#000000" stroke-width="1" x1="110.05364683002267" x2="123.05364683002267" y1="253.64828214702038" y2="238.64828214702038"/>
      <line stroke="#000000" stroke-width="1" x1="107.08047024503401" x2="120.08047024503401" y1="250.97242322053057" y2="235.97242322053057"/>
      <line stroke="#000000" stroke-width="1" x1="214.0" x2="201.0" y1="259.0" y2="244.0"/>
      <line stroke="#000000" stroke-width="1" x1="217.1234752377721" x2="204.1234752377721" y1="256.5012198097823" y2="241.5012198097823"/>
      <line stroke="#000000" stroke-width="1" x1="220.24695047554422" x2="207.24695047554422" y1="254.0024396195646" y2="239.0024396195646"/>
      <line stroke="#000000" stroke-width="1" x1="223.37042571331634" x2="210.37042571331634" y1="251.5036594293469" y2="236.5036594293469"/>
      <line stroke="#000000" stroke-width="1" x1="148.0" x2="182.0" y1="192.0" y2="192.0"/>
      <line stroke="#000000" stroke-width="1" x1="148.0" x2="182.0" y1="188.0" y2="188.0"/>
      <line stroke="#000000" stroke-width="1" x1="148.0" x2="182.0" y1="184.0" y2="184.0"/>
      <polygon fill="#d0d0d0" points="163.0,180.0 167.0,180.0 167.0,194.0 163.0,194.0" stroke="#000000" stroke-width="1"/>
      <polyline fill="none" points="115.0,194.0 115.0,186.0 142.0,186.0 142.0,194.0" stroke="#000000" stroke-width="1"/>
      <polyline fill="none" points="188.0,194.0 188.0,186.0 215.0,186.0 215.0,194.0" stroke="#000000" stroke-width="1"/>
      <text fill="#000000" font-family="Arial" font-size="10.0" stroke="none" stroke-width="0" x="116.0" y="193.0">кассы</text>
      <text fill="#000000" font-family="Arial" font-size="10.0" stroke="none" stroke-width="0" x="189.0" y="193.0">кассы</text>
      <polygon fill="none" points="152.0,382.0 152.0,388.0 158.0,388.0 158.0,382.0" stroke="#000000" stroke-width="1"/>
      <polyline fill="none" points="155.0,382.0 155.0,259.0 149.0,244.0" stroke="#000000" stroke-width="0.5"/>
      <polyline fill="none" points="175.0,387.0 175.0,259.0 181.0,244.0" stroke="#000000" stroke-width="0.5"/>
      <line stroke="#009900" stroke-width="1" x1="163.0" x2="163.0" y1="383.0" y2="387.0"/>
      <line stroke="#009900" stroke-width="1" x1="167.0" x2="167.0" y1="383.0" y2="387.0"/>
      <line stroke="#009900" stroke-width="1" x1="171.0" x2="171.0" y1="383.0" y2="387.0"/>
      <line stroke="#ff0000" stroke-width="1" x1="179.0" x2="179.0" y1="383.0" y2="387.0"/>
      <line stroke="#ff0000" stroke-width="1" x1="183.0" x2="183.0" y1="383.0" y2="387.0"/>
      <line stroke="#ff0000" stroke-width="1" x1="187.0" x2="187.0" y1="383.0" y2="387.0"/>
      <line stroke="#ff0000" stroke-width="1" x1="191.0" x2="191.0" y1="383.0" y2="387.0"/>
      <line stroke="#ff0000" stroke-width="1" x1="139.0" x2="139.0" y1="383.0" y2="387.0"/>
      <line stroke="#ff0000" stroke-width="1" x1="143.0" x2="143.0" y1="383.0" y2="387.0"/>
      <line stroke="#ff0000" stroke-width="1" x1="147.0" x2="147.0" y1="383.0" y2="387.0"/>
      <polyline fill="none" marker-end="url(#id294)" points="236.0,184.0 236.0,157.0 188.0,157.0 188.0,168.0 239.0,168.0 255.0,168.0" stroke="#ff0000" stroke-width="1"/>
      <polyline fill="none" marker-end="url(#id294)" points="94.0,185.0 94.0,157.0 142.0,157.0 142.0,168.0 91.0,168.0 76.0,168.0" stroke="#ff0000" stroke-width="1"/>
      <polyline fill="none" marker-end="url(#id294)" points="127.0,254.0 111.0,240.0" stroke="#ff0000" stroke-width="1"/>
      <polyline fill="none" marker-end="url(#id294)" points="203.0,254.0 219.0,240.0" stroke="#ff0000" stroke-width="1"/>
      <polyline fill="none" marker-end="url(#id294)" points="151.0,151.0 100.0,151.0 100.0,173.0 155.0,173.0 155.0,200.0" stroke="#009900" stroke-width="1"/>
      <polyline fill="none" marker-end="url(#id294)" points="178.0,151.0 230.0,151.0 230.0,173.0 175.0,173.0 175.0,200.0" stroke="#009900" stroke-width="1"/>
      <polyline fill="none" marker-end="url(#id294)" points="165.0,235.0 165.0,251.0" stroke="#009900" stroke-width="1"/>
      <text fill="#000000" font-family="Arial" font-size="10.0" stroke="none" stroke-width="0" x="118.0" y="222.0">Подземный вестибюль</text>
      <polygon fill="#34349c" points="126.0,236.0 123.0,233.0 122.0,234.0 125.0,237.0" stroke="#34349c" stroke-width="1"/>
      <polygon fill="#ff0000" points="129.0,239.0 126.0,236.0 125.0,237.0 128.0,240.0" stroke="#ff0000" stroke-width="1"/>
      <text fill="#00afaf" font-family="Arial" font-size="15.0" stroke="none" stroke-width="0" transform="rotate(90.0,202.0,-25.0)" x="202.0" y="-10.0">'&lt;&lt; ПКиО &quot;Сокольники&quot;'</text>
      <text fill="#00afaf" font-family="Arial" font-size="15.0" stroke="none" stroke-width="0" transform="rotate(90.0,303.0,8.0)" x="303.0" y="23.0">'м-н &quot;ЗЕНИТ&quot;'</text>
    </g>
    <g>
      <rect fill="#615f56" height="30.0" stroke="none" stroke-width="0" width="30.0" x="9.0" y="250.0"/>
      <rect fill="#615f56" height="30.0" stroke="none" stroke-width="0" width="30.0" x="215.0" y="152.0"/>
      <rect fill="#615f56" height="30.0" stroke="none" stroke-width="0" width="30.0" x="89.0" y="143.0"/>
      <text fill="#ffd900" font-family="Arial" font-size="25.0" stroke="none" stroke-width="0" x="17.0" y="276.0">1</text>
      <text fill="#ffd900" font-family="Arial" font-size="25.0" stroke="none" stroke-width="0" x="223.0" y="178.0">2</text>
      <text fill="#ffd900" font-family="Arial" font-size="25.0" stroke="none" stroke-width="0" x="97.0" y="169.0">3</text>
    </g>
  </g>
</svg>
