<?xml version="1.0" encoding="utf-8" ?>
<svg baseProfile="full" height="1130.0" version="1.1" width="800.0" xmlns="http://www.w3.org/2000/svg" xmlns:ev="http://www.w3.org/2001/xml-events" xmlns:xlink="http://www.w3.org/1999/xlink">
  <defs>
    <marker id="id295" markerHeight="3" markerUnits="strokeWidth" markerWidth="4" orient="auto" refX="0" refY="5" viewBox="0,0,10,10">
      <path d="M 0 0 L 10 5 L 0 10 z"/>
    </marker>
  </defs>
  <g>
    <rect fill="none" height="1130.0" stroke="none" stroke-width="0" width="800.0" x="0.0" y="0.0"/>
    <g transform="rotate(83.0,400.0,565.0)">
      <polygon fill="#ac24ac" points="255.0,242.0 255.0,212.0 705.0,212.0 705.0,242.0" stroke="#000000" stroke-width="1"/>
      <polygon fill="#ac24ac" points="255.0,352.0 255.0,322.0 705.0,322.0 705.0,352.0" stroke="#000000" stroke-width="1"/>
      <text fill="#ac24ac" font-family="Arial" font-size="20.0" stroke="none" stroke-width="0" x="256.0" y="208.0">&lt;&lt; Тушинская</text>
      <text fill="#ac24ac" font-family="Arial" font-size="20.0" stroke="none" stroke-width="0" x="589.0" y="371.0">Щукинская &gt;&gt;</text>
      <text fill="#ac24ac" font-family="Arial" font-size="25.0" stroke="none" stroke-width="0" x="428.0" y="288.0">Спартак</text>
      <polygon fill="#fefbf1" points="102.0,203.0 -114.0,203.0 -114.0,361.0 103.0,361.0" stroke="#fefbf1" stroke-width="1"/>
      <polygon fill="#d0d0d0" points="-114.0,253.0 -114.0,203.0 102.0,203.0 102.0,262.0 90.0,262.0 90.0,252.0 19.0,252.0 10.0,240.0 -2.0,232.0 -16.0,226.0 -30.0,225.0 -45.0,226.0 -58.0,232.0 -69.0,239.0 -79.0,253.0" stroke="#d0d0d0" stroke-width="1"/>
      <polygon fill="#d0d0d0" points="-114.0,311.0 -114.0,361.0 103.0,361.0 103.0,302.0 90.0,302.0 90.0,312.0 19.0,312.0 10.0,324.0 -2.0,332.0 -17.0,338.0 -30.0,339.0 -43.0,338.0 -57.0,332.0 -69.0,324.0 -79.0,311.0" stroke="#d0d0d0" stroke-width="1"/>
      <polygon fill="#d0d0d0" points="-114.0,279.0 -114.0,285.0 -86.0,285.0 -86.0,279.0" stroke="#000000" stroke-width="1"/>
      <polygon fill="#ffffff" points="-75.0,316.0 -75.0,340.0 -50.0,340.0 -50.0,335.0" stroke="#ffffff" stroke-width="1"/>
      <polyline fill="none" points="255.0,242.0 255.0,257.0 180.0,257.0 180.0,262.0" stroke="#000000" stroke-width="1"/>
      <polyline fill="none" points="90.0,262.0 90.0,252.0 19.0,252.0" stroke="#000000" stroke-width="1"/>
      <polyline fill="none" points="255.0,322.0 255.0,307.0 180.0,307.0 180.0,302.0" stroke="#000000" stroke-width="1"/>
      <polyline fill="none" points="90.0,302.0 90.0,312.0 19.0,312.0" stroke="#000000" stroke-width="1"/>
      <polyline fill="none" points="-79.0,253.0 -114.0,253.0 -114.0,203.0 102.0,203.0 102.0,262.0" stroke="#000000" stroke-width="1"/>
      <polyline fill="none" points="-79.0,311.0 -114.0,311.0 -114.0,361.0 103.0,361.0 103.0,302.0" stroke="#000000" stroke-width="1"/>
      <path d="M19.0,252.0 C19.0,252.0 22.5,255.33333333333334 19.0,252.0 C15.5,248.66666666666666 6.166666666666668,236.5 -2.0,232.0 C-10.166666666666668,227.5 -20.666666666666664,225.0 -30.0,225.0 C-39.333333333333336,225.0 -49.83333333333333,227.33333333333334 -58.0,232.0 C-66.16666666666667,236.66666666666666 -79.0,253.0 -79.0,253.0 " fill="none" stroke="#000000" stroke-width="1"/>
      <path d="M-79.0,311.0 C-79.0,311.0 -82.66666666666667,307.5 -79.0,311.0 C-75.33333333333333,314.5 -65.16666666666667,327.3333333333333 -57.0,332.0 C-48.83333333333333,336.6666666666667 -39.166666666666664,339.0 -30.0,339.0 C-20.833333333333336,339.0 -10.166666666666668,336.5 -2.0,332.0 C6.166666666666668,327.5 19.0,312.0 19.0,312.0 " fill="none" stroke="#000000" stroke-width="1"/>
      <line stroke="#7f7f7f" stroke-width="1" x1="88.0" x2="88.0" y1="265.0" y2="299.0"/>
      <line stroke="#7f7f7f" stroke-width="1" x1="92.0" x2="92.0" y1="265.0" y2="299.0"/>
      <line stroke="#7f7f7f" stroke-width="1" x1="96.0" x2="96.0" y1="265.0" y2="299.0"/>
      <line stroke="#7f7f7f" stroke-width="1" x1="100.0" x2="100.0" y1="265.0" y2="299.0"/>
      <line stroke="#7f7f7f" stroke-width="1" x1="104.0" x2="104.0" y1="265.0" y2="299.0"/>
      <line stroke="#7f7f7f" stroke-width="1" x1="108.0" x2="108.0" y1="265.0" y2="299.0"/>
      <line stroke="#7f7f7f" stroke-width="1" x1="112.0" x2="112.0" y1="265.0" y2="299.0"/>
      <line stroke="#7f7f7f" stroke-width="1" x1="116.0" x2="116.0" y1="265.0" y2="299.0"/>
      <line stroke="#7f7f7f" stroke-width="1" x1="120.0" x2="120.0" y1="265.0" y2="299.0"/>
      <line stroke="#7f7f7f" stroke-width="1" x1="124.0" x2="124.0" y1="265.0" y2="299.0"/>
      <line stroke="#7f7f7f" stroke-width="1" x1="128.0" x2="128.0" y1="265.0" y2="299.0"/>
      <line stroke="#7f7f7f" stroke-width="1" x1="132.0" x2="132.0" y1="265.0" y2="299.0"/>
      <line stroke="#7f7f7f" stroke-width="1" x1="136.0" x2="136.0" y1="265.0" y2="299.0"/>
      <line stroke="#7f7f7f" stroke-width="1" x1="140.0" x2="140.0" y1="265.0" y2="299.0"/>
      <line stroke="#7f7f7f" stroke-width="1" x1="144.0" x2="144.0" y1="265.0" y2="299.0"/>
      <line stroke="#7f7f7f" stroke-width="1" x1="148.0" x2="148.0" y1="265.0" y2="299.0"/>
      <line stroke="#7f7f7f" stroke-width="1" x1="152.0" x2="152.0" y1="265.0" y2="299.0"/>
      <line stroke="#7f7f7f" stroke-width="1" x1="156.0" x2="156.0" y1="265.0" y2="299.0"/>
      <line stroke="#7f7f7f" stroke-width="1" x1="160.0" x2="160.0" y1="265.0" y2="299.0"/>
      <line stroke="#7f7f7f" stroke-width="1" x1="164.0" x2="164.0" y1="265.0" y2="299.0"/>
      <line stroke="#7f7f7f" stroke-width="1" x1="168.0" x2="168.0" y1="265.0" y2="299.0"/>
      <line stroke="#7f7f7f" stroke-width="1" x1="172.0" x2="172.0" y1="265.0" y2="299.0"/>
      <line stroke="#7f7f7f" stroke-width="1" x1="176.0" x2="176.0" y1="265.0" y2="299.0"/>
      <line stroke="#7f7f7f" stroke-width="1" x1="180.0" x2="180.0" y1="265.0" y2="299.0"/>
      <line stroke="#7f7f7f" stroke-width="1" x1="184.0" x2="184.0" y1="265.0" y2="299.0"/>
      <polygon fill="#9b5509" points="81.0,299.0 190.0,299.0 190.0,302.0 81.0,302.0" stroke="#000000" stroke-width="1"/>
      <polygon fill="#9b5509" points="81.0,291.0 81.0,286.0 190.0,286.0 190.0,291.0" stroke="#000000" stroke-width="1"/>
      <polygon fill="#9b5509" points="81.0,278.0 81.0,273.0 190.0,273.0 190.0,278.0" stroke="#000000" stroke-width="1"/>
      <polygon fill="#9b5509" points="81.0,265.0 190.0,265.0 190.0,262.0 81.0,262.0" stroke="#000000" stroke-width="1"/>
      <polyline fill="none" points="-50.0,335.0 -50.0,340.0 -75.0,340.0 -75.0,316.0" stroke="#000000" stroke-width="1"/>
      <text fill="#000000" font-family="Arial" font-size="10.0" stroke="none" stroke-width="0" transform="rotate(-140.0,-60.0,344.0)" x="-60.0" y="354.0">кассы</text>
      <polygon fill="none" points="-32.0,289.0 -25.0,289.0 -25.0,282.0 -32.0,282.0" stroke="#000000" stroke-width="1"/>
      <line stroke="#ff0000" stroke-width="1" x1="-26.0" x2="-31.0" y1="278.0" y2="278.0"/>
      <line stroke="#ff0000" stroke-width="1" x1="-26.0" x2="-31.0" y1="274.0" y2="274.0"/>
      <line stroke="#ff0000" stroke-width="1" x1="-26.0" x2="-31.0" y1="270.0" y2="270.0"/>
      <line stroke="#ff0000" stroke-width="1" x1="-26.0" x2="-31.0" y1="266.0" y2="266.0"/>
      <line stroke="#ff0000" stroke-width="1" x1="-26.0" x2="-31.0" y1="262.0" y2="262.0"/>
      <line stroke="#ff0000" stroke-width="1" x1="-26.0" x2="-31.0" y1="258.0" y2="258.0"/>
      <line stroke="#ff0000" stroke-width="1" x1="-26.0" x2="-31.0" y1="254.0" y2="254.0"/>
      <line stroke="#ff0000" stroke-width="1" x1="-26.0" x2="-31.0" y1="250.0" y2="250.0"/>
      <line stroke="#ff0000" stroke-width="1" x1="-26.0" x2="-31.0" y1="246.0" y2="246.0"/>
      <line stroke="#ff0000" stroke-width="1" x1="-26.0" x2="-31.0" y1="242.0" y2="242.0"/>
      <line stroke="#ff0000" stroke-width="1" x1="-26.0" x2="-31.0" y1="238.0" y2="238.0"/>
      <line stroke="#ff0000" stroke-width="1" x1="-26.0" x2="-31.0" y1="234.0" y2="234.0"/>
      <line stroke="#ff0000" stroke-width="1" x1="-26.0" x2="-31.0" y1="230.0" y2="230.0"/>
      <line stroke="#009900" stroke-width="1" x1="-23.0" x2="-19.0" y1="293.0" y2="289.0"/>
      <line stroke="#009900" stroke-width="1" x1="-20.17157287525381" x2="-16.17157287525381" y1="295.8284271247462" y2="291.8284271247462"/>
      <line stroke="#009900" stroke-width="1" x1="-17.343145750507617" x2="-13.343145750507619" y1="298.6568542494924" y2="294.6568542494924"/>
      <line stroke="#009900" stroke-width="1" x1="-14.514718625761427" x2="-10.514718625761429" y1="301.48528137423864" y2="297.48528137423864"/>
      <line stroke="#009900" stroke-width="1" x1="-11.686291501015237" x2="-7.686291501015239" y1="304.31370849898485" y2="300.31370849898485"/>
      <line stroke="#009900" stroke-width="1" x1="-8.857864376269047" x2="-4.857864376269049" y1="307.14213562373106" y2="303.14213562373106"/>
      <line stroke="#009900" stroke-width="1" x1="-6.029437251522857" x2="-2.029437251522859" y1="309.9705627484773" y2="305.9705627484773"/>
      <line stroke="#009900" stroke-width="1" x1="-3.2010101267766675" x2="0.7989898732233307" y1="312.7989898732235" y2="308.7989898732235"/>
      <line stroke="#009900" stroke-width="1" x1="-0.3725830020304777" x2="3.6274169979695206" y1="315.6274169979697" y2="311.6274169979697"/>
      <line stroke="#009900" stroke-width="1" x1="2.455844122715712" x2="6.45584412271571" y1="318.4558441227159" y2="314.4558441227159"/>
      <line stroke="#009900" stroke-width="1" x1="5.284271247461902" x2="9.2842712474619" y1="321.28427124746213" y2="317.28427124746213"/>
      <polyline fill="none" marker-end="url(#id295)" points="-108.0,298.0 -92.0,298.0" stroke="#009900" stroke-width="1"/>
      <polyline fill="none" marker-end="url(#id295)" points="-93.0,266.0 -108.0,266.0" stroke="#ff0000" stroke-width="1"/>
      <polyline fill="none" points="705.0,322.0 705.0,312.0 836.0,312.0 836.0,442.0 829.0,442.0 829.0,545.0" stroke="#000000" stroke-width="1"/>
      <polyline fill="none" points="829.0,631.0 829.0,818.0 809.0,892.0 760.0,879.0" stroke="#000000" stroke-width="1"/>
      <polyline fill="none" points="756.0,894.0 805.0,907.0 789.0,967.0 740.0,954.0" stroke="#000000" stroke-width="1"/>
      <polyline fill="none" points="736.0,969.0 892.0,1011.0" stroke="#000000" stroke-width="1"/>
      <polyline fill="none" points="896.0,996.0 847.0,983.0 863.0,921.0 912.0,934.0" stroke="#000000" stroke-width="1"/>
      <polyline fill="none" points="916.0,919.0 867.0,906.0 902.0,775.0 902.0,632.0" stroke="#000000" stroke-width="1"/>
      <polyline fill="none" points="902.0,544.0 902.0,442.0 895.0,442.0 895.0,252.0 705.0,252.0 705.0,242.0" stroke="#000000" stroke-width="1"/>
      <polyline fill="none" points="718.0,273.0 769.0,273.0" stroke="#000000" stroke-width="1"/>
      <polyline fill="none" points="902.0,544.0 902.0,575.0 901.0,580.0" stroke="#000000" stroke-width="0.5"/>
      <path d="M902.0,544.0 C902.0,544.0 899.5,540.8333333333334 902.0,544.0 C904.5,547.1666666666666 913.5,555.6666666666666 917.0,563.0 C920.5,570.3333333333334 923.0,579.6666666666666 923.0,588.0 C923.0,596.3333333333334 920.5,605.6666666666666 917.0,613.0 C913.5,620.3333333333334 902.0,632.0 902.0,632.0 " fill="none" stroke="#000000" stroke-width="1"/>
      <path d="M829.0,545.0 C829.0,545.0 831.5,542.0 829.0,545.0 C826.5,548.0 817.3333333333334,555.8333333333334 814.0,563.0 C810.6666666666666,570.1666666666666 809.0,579.8333333333334 809.0,588.0 C809.0,596.1666666666666 810.6666666666666,604.8333333333334 814.0,612.0 C817.3333333333334,619.1666666666666 829.0,631.0 829.0,631.0 " fill="none" stroke="#000000" stroke-width="1"/>
      <line stroke="#000000" stroke-width="1" x1="744.0" x2="740.0" y1="955.0" y2="970.0"/>
      <line stroke="#000000" stroke-width="1" x1="747.864939758405" x2="743.864939758405" y1="956.0306506022413" y2="971.0306506022413"/>
      <line stroke="#000000" stroke-width="1" x1="751.7298795168099" x2="747.7298795168099" y1="957.0613012044826" y2="972.0613012044826"/>
      <line stroke="#000000" stroke-width="1" x1="755.5948192752148" x2="751.5948192752148" y1="958.0919518067238" y2="973.0919518067238"/>
      <line stroke="#000000" stroke-width="1" x1="759.4597590336198" x2="755.4597590336198" y1="959.1226024089651" y2="974.1226024089651"/>
      <line stroke="#000000" stroke-width="1" x1="763.3246987920247" x2="759.3246987920247" y1="960.1532530112064" y2="975.1532530112064"/>
      <line stroke="#000000" stroke-width="1" x1="767.1896385504297" x2="763.1896385504297" y1="961.1839036134477" y2="976.1839036134477"/>
      <line stroke="#000000" stroke-width="1" x1="771.0545783088346" x2="767.0545783088346" y1="962.214554215689" y2="977.214554215689"/>
      <line stroke="#000000" stroke-width="1" x1="774.9195180672396" x2="770.9195180672396" y1="963.2452048179302" y2="978.2452048179302"/>
      <line stroke="#000000" stroke-width="1" x1="778.7844578256445" x2="774.7844578256445" y1="964.2758554201715" y2="979.2758554201715"/>
      <line stroke="#000000" stroke-width="1" x1="782.6493975840494" x2="778.6493975840494" y1="965.3065060224128" y2="980.3065060224128"/>
      <line stroke="#000000" stroke-width="1" x1="786.5143373424544" x2="782.5143373424544" y1="966.3371566246541" y2="981.3371566246541"/>
      <line stroke="#000000" stroke-width="1" x1="764.0" x2="760.0" y1="880.0" y2="895.0"/>
      <line stroke="#000000" stroke-width="1" x1="767.864939758405" x2="763.864939758405" y1="881.0306506022413" y2="896.0306506022413"/>
      <line stroke="#000000" stroke-width="1" x1="771.7298795168099" x2="767.7298795168099" y1="882.0613012044826" y2="897.0613012044826"/>
      <line stroke="#000000" stroke-width="1" x1="775.5948192752148" x2="771.5948192752148" y1="883.0919518067238" y2="898.0919518067238"/>
      <line stroke="#000000" stroke-width="1" x1="779.4597590336198" x2="775.4597590336198" y1="884.1226024089651" y2="899.1226024089651"/>
      <line stroke="#000000" stroke-width="1" x1="783.3246987920247" x2="779.3246987920247" y1="885.1532530112064" y2="900.1532530112064"/>
      <line stroke="#000000" stroke-width="1" x1="787.1896385504297" x2="783.1896385504297" y1="886.1839036134477" y2="901.1839036134477"/>
      <line stroke="#000000" stroke-width="1" x1="791.0545783088346" x2="787.0545783088346" y1="887.214554215689" y2="902.214554215689"/>
      <line stroke="#000000" stroke-width="1" x1="794.9195180672396" x2="790.9195180672396" y1="888.2452048179302" y2="903.2452048179302"/>
      <line stroke="#000000" stroke-width="1" x1="798.7844578256445" x2="794.7844578256445" y1="889.2758554201715" y2="904.2758554201715"/>
      <line stroke="#000000" stroke-width="1" x1="802.6493975840494" x2="798.6493975840494" y1="890.3065060224128" y2="905.3065060224128"/>
      <line stroke="#000000" stroke-width="1" x1="806.5143373424544" x2="802.5143373424544" y1="891.3371566246541" y2="906.3371566246541"/>
      <line stroke="#000000" stroke-width="1" x1="912.0" x2="908.0" y1="918.0" y2="933.0"/>
      <line stroke="#000000" stroke-width="1" x1="908.135060241595" x2="904.135060241595" y1="916.9693493977587" y2="931.9693493977587"/>
      <line stroke="#000000" stroke-width="1" x1="904.2701204831901" x2="900.2701204831901" y1="915.9386987955174" y2="930.9386987955174"/>
      <line stroke="#000000" stroke-width="1" x1="900.4051807247852" x2="896.4051807247852" y1="914.9080481932762" y2="929.9080481932762"/>
      <line stroke="#000000" stroke-width="1" x1="896.5402409663802" x2="892.5402409663802" y1="913.8773975910349" y2="928.8773975910349"/>
      <line stroke="#000000" stroke-width="1" x1="892.6753012079753" x2="888.6753012079753" y1="912.8467469887936" y2="927.8467469887936"/>
      <line stroke="#000000" stroke-width="1" x1="888.8103614495703" x2="884.8103614495703" y1="911.8160963865523" y2="926.8160963865523"/>
      <line stroke="#000000" stroke-width="1" x1="884.9454216911654" x2="880.9454216911654" y1="910.785445784311" y2="925.785445784311"/>
      <line stroke="#000000" stroke-width="1" x1="881.0804819327604" x2="877.0804819327604" y1="909.7547951820698" y2="924.7547951820698"/>
      <line stroke="#000000" stroke-width="1" x1="877.2155421743555" x2="873.2155421743555" y1="908.7241445798285" y2="923.7241445798285"/>
      <line stroke="#000000" stroke-width="1" x1="873.3506024159506" x2="869.3506024159506" y1="907.6934939775872" y2="922.6934939775872"/>
      <line stroke="#000000" stroke-width="1" x1="869.4856626575456" x2="865.4856626575456" y1="906.6628433753459" y2="921.6628433753459"/>
      <line stroke="#000000" stroke-width="1" x1="892.0" x2="888.0" y1="995.0" y2="1010.0"/>
      <line stroke="#000000" stroke-width="1" x1="888.135060241595" x2="884.135060241595" y1="993.9693493977587" y2="1008.9693493977587"/>
      <line stroke="#000000" stroke-width="1" x1="884.2701204831901" x2="880.2701204831901" y1="992.9386987955174" y2="1007.9386987955174"/>
      <line stroke="#000000" stroke-width="1" x1="880.4051807247852" x2="876.4051807247852" y1="991.9080481932762" y2="1006.9080481932762"/>
      <line stroke="#000000" stroke-width="1" x1="876.5402409663802" x2="872.5402409663802" y1="990.8773975910349" y2="1005.8773975910349"/>
      <line stroke="#000000" stroke-width="1" x1="872.6753012079753" x2="868.6753012079753" y1="989.8467469887936" y2="1004.8467469887936"/>
      <line stroke="#000000" stroke-width="1" x1="868.8103614495703" x2="864.8103614495703" y1="988.8160963865523" y2="1003.8160963865523"/>
      <line stroke="#000000" stroke-width="1" x1="864.9454216911654" x2="860.9454216911654" y1="987.785445784311" y2="1002.785445784311"/>
      <line stroke="#000000" stroke-width="1" x1="861.0804819327604" x2="857.0804819327604" y1="986.7547951820698" y2="1001.7547951820698"/>
      <line stroke="#000000" stroke-width="1" x1="857.2155421743555" x2="853.2155421743555" y1="985.7241445798285" y2="1000.7241445798285"/>
      <line stroke="#000000" stroke-width="1" x1="853.3506024159506" x2="849.3506024159506" y1="984.6934939775872" y2="999.6934939775872"/>
      <line stroke="#000000" stroke-width="1" x1="849.4856626575456" x2="845.4856626575456" y1="983.6628433753459" y2="998.6628433753459"/>
      <line stroke="#000000" stroke-width="1" x1="721.0" x2="721.0" y1="312.0" y2="273.0"/>
      <line stroke="#000000" stroke-width="1" x1="725.0" x2="725.0" y1="312.0" y2="273.0"/>
      <line stroke="#000000" stroke-width="1" x1="729.0" x2="729.0" y1="312.0" y2="273.0"/>
      <line stroke="#000000" stroke-width="1" x1="733.0" x2="733.0" y1="312.0" y2="273.0"/>
      <line stroke="#000000" stroke-width="1" x1="737.0" x2="737.0" y1="312.0" y2="273.0"/>
      <line stroke="#000000" stroke-width="1" x1="741.0" x2="741.0" y1="312.0" y2="273.0"/>
      <line stroke="#000000" stroke-width="1" x1="745.0" x2="745.0" y1="312.0" y2="273.0"/>
      <line stroke="#000000" stroke-width="1" x1="749.0" x2="749.0" y1="312.0" y2="273.0"/>
      <line stroke="#000000" stroke-width="1" x1="753.0" x2="753.0" y1="312.0" y2="273.0"/>
      <line stroke="#000000" stroke-width="1" x1="757.0" x2="757.0" y1="312.0" y2="273.0"/>
      <line stroke="#000000" stroke-width="1" x1="761.0" x2="761.0" y1="312.0" y2="273.0"/>
      <line stroke="#000000" stroke-width="1" x1="765.0" x2="765.0" y1="312.0" y2="273.0"/>
      <line stroke="#000000" stroke-width="1" x1="829.0" x2="902.0" y1="744.0" y2="744.0"/>
      <line stroke="#000000" stroke-width="1" x1="829.0" x2="902.0" y1="748.0" y2="748.0"/>
      <line stroke="#000000" stroke-width="1" x1="829.0" x2="902.0" y1="752.0" y2="752.0"/>
      <line stroke="#000000" stroke-width="1" x1="829.0" x2="902.0" y1="756.0" y2="756.0"/>
      <line stroke="#000000" stroke-width="1" x1="829.0" x2="902.0" y1="760.0" y2="760.0"/>
      <line stroke="#000000" stroke-width="1" x1="829.0" x2="902.0" y1="764.0" y2="764.0"/>
      <line stroke="#000000" stroke-width="1" x1="829.0" x2="902.0" y1="768.0" y2="768.0"/>
      <line stroke="#000000" stroke-width="1" x1="829.0" x2="902.0" y1="772.0" y2="772.0"/>
      <line stroke="#000000" stroke-width="1" x1="829.0" x2="902.0" y1="776.0" y2="776.0"/>
      <polygon fill="#d0d0d0" points="862.0,721.0 870.0,721.0 870.0,692.0 862.0,692.0" stroke="#000000" stroke-width="1"/>
      <polyline fill="none" points="811.0,604.0 801.0,604.0 801.0,630.0 828.0,630.0" stroke="#000000" stroke-width="1"/>
      <text fill="#000000" font-family="Arial" font-size="10.0" stroke="none" stroke-width="0" transform="rotate(-120.0,812.0,632.0)" x="812.0" y="642.0">кассы</text>
      <polygon fill="none" points="863.0,589.0 863.0,582.0 870.0,582.0 870.0,589.0" stroke="#000000" stroke-width="1"/>
      <line stroke="#ff0000" stroke-width="1" x1="875.0" x2="875.0" y1="583.0" y2="588.0"/>
      <line stroke="#ff0000" stroke-width="1" x1="879.0" x2="879.0" y1="583.0" y2="588.0"/>
      <line stroke="#ff0000" stroke-width="1" x1="883.0" x2="883.0" y1="583.0" y2="588.0"/>
      <line stroke="#ff0000" stroke-width="1" x1="887.0" x2="887.0" y1="583.0" y2="588.0"/>
      <line stroke="#ff0000" stroke-width="1" x1="891.0" x2="891.0" y1="583.0" y2="588.0"/>
      <line stroke="#ff0000" stroke-width="1" x1="895.0" x2="895.0" y1="583.0" y2="588.0"/>
      <line stroke="#ff0000" stroke-width="1" x1="899.0" x2="899.0" y1="583.0" y2="588.0"/>
      <line stroke="#009900" stroke-width="1" x1="859.0" x2="859.0" y1="583.0" y2="588.0"/>
      <line stroke="#009900" stroke-width="1" x1="855.0" x2="855.0" y1="583.0" y2="588.0"/>
      <line stroke="#009900" stroke-width="1" x1="851.0" x2="851.0" y1="583.0" y2="588.0"/>
      <line stroke="#009900" stroke-width="1" x1="847.0" x2="847.0" y1="583.0" y2="588.0"/>
      <line stroke="#009900" stroke-width="1" x1="843.0" x2="843.0" y1="583.0" y2="588.0"/>
      <line stroke="#009900" stroke-width="1" x1="839.0" x2="839.0" y1="583.0" y2="588.0"/>
      <line stroke="#009900" stroke-width="1" x1="835.0" x2="835.0" y1="583.0" y2="588.0"/>
      <line stroke="#009900" stroke-width="1" x1="831.0" x2="831.0" y1="583.0" y2="588.0"/>
      <line stroke="#009900" stroke-width="1" x1="827.0" x2="827.0" y1="583.0" y2="588.0"/>
      <line stroke="#009900" stroke-width="1" x1="823.0" x2="823.0" y1="583.0" y2="588.0"/>
      <line stroke="#009900" stroke-width="1" x1="819.0" x2="819.0" y1="583.0" y2="588.0"/>
      <line stroke="#009900" stroke-width="1" x1="815.0" x2="815.0" y1="583.0" y2="588.0"/>
      <line stroke="#009900" stroke-width="1" x1="811.0" x2="811.0" y1="583.0" y2="588.0"/>
      <polygon fill="#d0efff" points="795.0,868.0 814.0,873.0 809.0,892.0 790.0,887.0" stroke="#000000" stroke-width="1"/>
      <text fill="#000000" font-family="Arial" font-size="8.0" stroke="none" stroke-width="0" transform="rotate(-45.0,791.0,882.0)" x="791.0" y="890.0">лифт</text>
      <polygon fill="#d0efff" points="806.0,988.0 825.0,993.0 820.0,1012.0 801.0,1007.0" stroke="#000000" stroke-width="1"/>
      <text fill="#000000" font-family="Arial" font-size="8.0" stroke="none" stroke-width="0" transform="rotate(-45.0,802.0,1002.0)" x="802.0" y="1010.0">лифт</text>
      <polygon fill="#d0efff" points="729.0,252.0 749.0,252.0 749.0,273.0 729.0,273.0" stroke="#000000" stroke-width="1"/>
      <text fill="#000000" font-family="Arial" font-size="8.0" stroke="none" stroke-width="0" transform="rotate(-45.0,729.0,265.0)" x="729.0" y="273.0">лифт</text>
      <polyline fill="none" marker-end="url(#id295)" points="845.0,717.0 845.0,696.0" stroke="#009900" stroke-width="1"/>
      <polyline fill="none" marker-end="url(#id295)" points="886.0,694.0 886.0,717.0" stroke="#ff0000" stroke-width="1"/>
      <text fill="#00afaf" font-family="Arial" font-size="15.0" stroke="none" stroke-width="0" transform="rotate(-165.0,739.0,931.0)" x="739.0" y="946.0">пр.проезд 5219</text>
    </g>
    <g>
      <rect fill="#615f56" height="30.0" stroke="none" stroke-width="0" width="30.0" x="600.0" y="-25.0"/>
      <rect fill="#615f56" height="30.0" stroke="none" stroke-width="0" width="30.0" x="119.0" y="1088.0"/>
      <rect fill="#615f56" height="30.0" stroke="none" stroke-width="0" width="30.0" x="137.0" y="957.0"/>
      <rect fill="#615f56" height="30.0" stroke="none" stroke-width="0" width="30.0" x="40.0" y="1077.0"/>
      <rect fill="#615f56" height="30.0" stroke="none" stroke-width="0" width="30.0" x="60.0" y="955.0"/>
      <text fill="#ffd900" font-family="Arial" font-size="25.0" stroke="none" stroke-width="0" x="608.0" y="1.0">1</text>
      <text fill="#ffd900" font-family="Arial" font-size="25.0" stroke="none" stroke-width="0" x="127.0" y="1114.0">2</text>
      <text fill="#ffd900" font-family="Arial" font-size="25.0" stroke="none" stroke-width="0" x="145.0" y="983.0">3</text>
      <text fill="#ffd900" font-family="Arial" font-size="25.0" stroke="none" stroke-width="0" x="48.0" y="1103.0">4</text>
      <text fill="#ffd900" font-family="Arial" font-size="25.0" stroke="none" stroke-width="0" x="68.0" y="981.0">5</text>
    </g>
  </g>
</svg>
