<?xml version="1.0" encoding="utf-8" ?>
<svg baseProfile="full" height="100%" version="1.1" width="100%" xmlns="http://www.w3.org/2000/svg" xmlns:ev="http://www.w3.org/2001/xml-events" xmlns:xlink="http://www.w3.org/1999/xlink">
  <defs>
    <marker id="id298" markerHeight="3" markerUnits="strokeWidth" markerWidth="4" orient="auto" refX="0" refY="5" viewBox="0,0,10,10">
      <path d="M 0 0 L 10 5 L 0 10 z"/>
    </marker>
  </defs>
  <g transform="scale(0.5)">
    <rect fill="none" height="300" stroke="none" stroke-width="0" width="510" x="0" y="0"/>
    <g transform="rotate(-22.0,255,150)">
      <polygon fill="#2c7cac" points="492,151 42,151 42,121 492,121" stroke="#000000" stroke-width="1"/>
      <polygon fill="#2c7cac" points="492,184 42,184 42,154 492,154" stroke="#000000" stroke-width="1"/>
      <text fill="#2c7cac" font-family="Arial" font-size="25" stroke="none" stroke-width="0" x="186" y="243.0">Студенческая</text>
      <text fill="#000000" font-family="Arial" font-size="20" stroke="none" stroke-width="0" x="48" y="142.0">&lt;&lt; Кутузовская</text>
      <text fill="#000000" font-family="Arial" font-size="20" stroke="none" stroke-width="0" x="384" y="182.0">Киевская &gt;&gt;</text>
      <text fill="#ffffff" font-family="Arial" font-size="20" stroke="none" stroke-width="0" x="47" y="141.0">&lt;&lt; Кутузовская</text>
      <text fill="#ffffff" font-family="Arial" font-size="20" stroke="none" stroke-width="0" x="383" y="181.0">Киевская &gt;&gt;</text>
    </g>
    <g fill="none" fill-opacity="0.8" stroke="#ffffff" stroke-opacity="0.8" transform="rotate(-22.0,255,150)">
      <polygon fill="#fefbf1" points="210,89 210,215 322,215 322,89" stroke="#dfdfdf" stroke-width="1"/>
    </g>
    <g fill="#fefbf1" fill-opacity="1.0" stroke="#dfdfdf" stroke-opacity="1.0" transform="rotate(-22.0,255,150)">
      <polyline fill="none" points="492,184 492,209 401,209 395,215 137,215 130,208 42,208 42,184" stroke="#000000" stroke-width="1"/>
      <polyline fill="none" points="42,121 42,96 130,96 137,89 214,89" stroke="#000000" stroke-width="1"/>
      <polyline fill="none" points="318,89 395,89 401,95 492,95 492,121" stroke="#000000" stroke-width="1"/>
      <polyline fill="none" points="235,89 256,89" stroke="#000000" stroke-width="1"/>
      <polyline fill="none" points="276,89 297,89" stroke="#000000" stroke-width="1"/>
      <polyline fill="none" points="244,89 244,107" stroke="#000000" stroke-width="1"/>
      <polyline fill="none" points="288,89 288,107" stroke="#000000" stroke-width="1"/>
      <polyline fill="none" points="244,103 256,103" stroke="#000000" stroke-width="1"/>
      <polyline fill="none" points="264,103 268,103" stroke="#000000" stroke-width="1"/>
      <polyline fill="none" points="276,103 288,103" stroke="#000000" stroke-width="1"/>
      <line stroke="#000000" stroke-width="1" x1="334" x2="334" y1="89" y2="106"/>
      <line stroke="#000000" stroke-width="1" x1="338" x2="338" y1="89" y2="106"/>
      <line stroke="#000000" stroke-width="1" x1="342" x2="342" y1="89" y2="106"/>
      <line stroke="#000000" stroke-width="1" x1="346" x2="346" y1="89" y2="106"/>
      <line stroke="#000000" stroke-width="1" x1="350" x2="350" y1="89" y2="106"/>
      <line stroke="#000000" stroke-width="1" x1="354" x2="354" y1="89" y2="106"/>
      <line stroke="#000000" stroke-width="1" x1="358" x2="358" y1="89" y2="106"/>
      <line stroke="#000000" stroke-width="1" x1="362" x2="362" y1="89" y2="106"/>
      <line stroke="#000000" stroke-width="1" x1="366" x2="366" y1="89" y2="106"/>
      <line stroke="#000000" stroke-width="1" x1="370" x2="370" y1="89" y2="106"/>
      <line stroke="#000000" stroke-width="1" x1="374" x2="374" y1="89" y2="106"/>
      <line stroke="#000000" stroke-width="1" x1="378" x2="378" y1="89" y2="106"/>
      <line stroke="#000000" stroke-width="1" x1="334" x2="334" y1="199" y2="215"/>
      <line stroke="#000000" stroke-width="1" x1="338" x2="338" y1="199" y2="215"/>
      <line stroke="#000000" stroke-width="1" x1="342" x2="342" y1="199" y2="215"/>
      <line stroke="#000000" stroke-width="1" x1="346" x2="346" y1="199" y2="215"/>
      <line stroke="#000000" stroke-width="1" x1="350" x2="350" y1="199" y2="215"/>
      <line stroke="#000000" stroke-width="1" x1="354" x2="354" y1="199" y2="215"/>
      <line stroke="#000000" stroke-width="1" x1="358" x2="358" y1="199" y2="215"/>
      <line stroke="#000000" stroke-width="1" x1="362" x2="362" y1="199" y2="215"/>
      <line stroke="#000000" stroke-width="1" x1="366" x2="366" y1="199" y2="215"/>
      <line stroke="#000000" stroke-width="1" x1="370" x2="370" y1="199" y2="215"/>
      <line stroke="#000000" stroke-width="1" x1="374" x2="374" y1="199" y2="215"/>
      <line stroke="#000000" stroke-width="1" x1="378" x2="378" y1="199" y2="215"/>
      <line stroke="#000000" stroke-width="1" x1="198" x2="198" y1="199" y2="215"/>
      <line stroke="#000000" stroke-width="1" x1="194" x2="194" y1="199" y2="215"/>
      <line stroke="#000000" stroke-width="1" x1="190" x2="190" y1="199" y2="215"/>
      <line stroke="#000000" stroke-width="1" x1="186" x2="186" y1="199" y2="215"/>
      <line stroke="#000000" stroke-width="1" x1="182" x2="182" y1="199" y2="215"/>
      <line stroke="#000000" stroke-width="1" x1="178" x2="178" y1="199" y2="215"/>
      <line stroke="#000000" stroke-width="1" x1="174" x2="174" y1="199" y2="215"/>
      <line stroke="#000000" stroke-width="1" x1="170" x2="170" y1="199" y2="215"/>
      <line stroke="#000000" stroke-width="1" x1="166" x2="166" y1="199" y2="215"/>
      <line stroke="#000000" stroke-width="1" x1="162" x2="162" y1="199" y2="215"/>
      <line stroke="#000000" stroke-width="1" x1="158" x2="158" y1="199" y2="215"/>
      <line stroke="#000000" stroke-width="1" x1="154" x2="154" y1="199" y2="215"/>
      <line stroke="#000000" stroke-width="1" x1="198" x2="198" y1="89" y2="106"/>
      <line stroke="#000000" stroke-width="1" x1="194" x2="194" y1="89" y2="106"/>
      <line stroke="#000000" stroke-width="1" x1="190" x2="190" y1="89" y2="106"/>
      <line stroke="#000000" stroke-width="1" x1="186" x2="186" y1="89" y2="106"/>
      <line stroke="#000000" stroke-width="1" x1="182" x2="182" y1="89" y2="106"/>
      <line stroke="#000000" stroke-width="1" x1="178" x2="178" y1="89" y2="106"/>
      <line stroke="#000000" stroke-width="1" x1="174" x2="174" y1="89" y2="106"/>
      <line stroke="#000000" stroke-width="1" x1="170" x2="170" y1="89" y2="106"/>
      <line stroke="#000000" stroke-width="1" x1="166" x2="166" y1="89" y2="106"/>
      <line stroke="#000000" stroke-width="1" x1="162" x2="162" y1="89" y2="106"/>
      <line stroke="#000000" stroke-width="1" x1="158" x2="158" y1="89" y2="106"/>
      <line stroke="#000000" stroke-width="1" x1="154" x2="154" y1="89" y2="106"/>
      <polygon fill="#d0d0d0" points="390,196 390,199 322,199 322,106 390,106 390,109 325,109 325,196" stroke="#000000" stroke-width="1"/>
      <polygon fill="#d0d0d0" points="142,109 142,106 210,106 210,199 142,199 142,196 207,196 207,109" stroke="#000000" stroke-width="1"/>
      <polygon fill="#d0d0d0" points="296,114 296,190 293,196 288,198 281,196 278,190 280,184 284,181 284,124 280,121 278,115 281,109 288,107 293,109" stroke="#d0d0d0" stroke-width="1"/>
      <polyline fill="none" points="284,124 284,181" stroke="#000000" stroke-width="1"/>
      <polyline fill="none" points="296,114 296,190" stroke="#000000" stroke-width="1"/>
      <path d="M296,114 C296,114 296.5,114.833333333 296,114 C295.5,113.166666667 294.333333333,110.166666667 293,109 C291.666666667,107.833333333 290.0,107 288,107 C286.0,107 282.666666667,107.666666667 281,109 C279.333333333,110.333333333 278.166666667,113.0 278,115 C277.833333333,117.0 279.0,119.5 280,121 C281.0,122.5 284,124 284,124 " fill="none" stroke="#000000" stroke-width="1"/>
      <path d="M296,190 C296,190 296.5,189.0 296,190 C295.5,191.0 294.333333333,194.666666667 293,196 C291.666666667,197.333333333 290.0,198 288,198 C286.0,198 282.666666667,197.333333333 281,196 C279.333333333,194.666666667 278.166666667,192.0 278,190 C277.833333333,188.0 279.0,185.5 280,184 C281.0,182.5 284,181 284,181 " fill="none" stroke="#000000" stroke-width="1"/>
      <polygon fill="#ffffff" points="255,187 260,187 260,192 255,192" stroke="#000000" stroke-width="1"/>
      <line stroke="#009900" stroke-width="1" x1="264" x2="264" y1="192" y2="188"/>
      <line stroke="#009900" stroke-width="1" x1="268" x2="268" y1="192" y2="188"/>
      <line stroke="#009900" stroke-width="1" x1="272" x2="272" y1="192" y2="188"/>
      <line stroke="#009900" stroke-width="1" x1="276" x2="276" y1="192" y2="188"/>
      <line stroke="#ff0000" stroke-width="1" x1="317" x2="314" y1="92" y2="89"/>
      <line stroke="#ff0000" stroke-width="1" x1="314.171572875" x2="311.171572875" y1="94.8284271247" y2="91.8284271247"/>
      <line stroke="#ff0000" stroke-width="1" x1="311.343145751" x2="308.343145751" y1="97.6568542495" y2="94.6568542495"/>
      <line stroke="#ff0000" stroke-width="1" x1="308.514718626" x2="305.514718626" y1="100.485281374" y2="97.4852813742"/>
      <line stroke="#ff0000" stroke-width="1" x1="305.686291501" x2="302.686291501" y1="103.313708499" y2="100.313708499"/>
      <line stroke="#ff0000" stroke-width="1" x1="302.857864376" x2="299.857864376" y1="106.142135624" y2="103.142135624"/>
      <line stroke="#ff0000" stroke-width="1" x1="300.029437252" x2="297.029437252" y1="108.970562748" y2="105.970562748"/>
      <line stroke="#ff0000" stroke-width="1" x1="297.201010127" x2="294.201010127" y1="111.798989873" y2="108.798989873"/>
      <line stroke="#ff0000" stroke-width="1" x1="215" x2="218" y1="92" y2="89"/>
      <line stroke="#ff0000" stroke-width="1" x1="217.828427125" x2="220.828427125" y1="94.8284271247" y2="91.8284271247"/>
      <line stroke="#ff0000" stroke-width="1" x1="220.656854249" x2="223.656854249" y1="97.6568542495" y2="94.6568542495"/>
      <line stroke="#ff0000" stroke-width="1" x1="223.485281374" x2="226.485281374" y1="100.485281374" y2="97.4852813742"/>
      <line stroke="#ff0000" stroke-width="1" x1="226.313708499" x2="229.313708499" y1="103.313708499" y2="100.313708499"/>
      <line stroke="#ff0000" stroke-width="1" x1="229.142135624" x2="232.142135624" y1="106.142135624" y2="103.142135624"/>
      <line stroke="#ff0000" stroke-width="1" x1="231.970562748" x2="234.970562748" y1="108.970562748" y2="105.970562748"/>
      <line stroke="#ff0000" stroke-width="1" x1="234.798989873" x2="237.798989873" y1="111.798989873" y2="108.798989873"/>
      <polygon fill="#d0d0d0" points="236,114 236,190 239,196 244,198 250,196 253,190 252,184 248,181 248,124 252,121 253,115 250,109 244,107 239,109" stroke="#d0d0d0" stroke-width="1"/>
      <polyline fill="none" points="248,124 248,181" stroke="#000000" stroke-width="1"/>
      <polyline fill="none" points="236,114 236,190" stroke="#000000" stroke-width="1"/>
      <path d="M236,114 C236,114 235.5,114.833333333 236,114 C236.5,113.166666667 237.666666667,110.166666667 239,109 C240.333333333,107.833333333 242.166666667,107 244,107 C245.833333333,107 248.5,107.666666667 250,109 C251.5,110.333333333 252.666666667,113.0 253,115 C253.333333333,117.0 252.833333333,119.5 252,121 C251.166666667,122.5 248,124 248,124 " fill="none" stroke="#000000" stroke-width="1"/>
      <path d="M236,190 C236,190 235.5,189.0 236,190 C236.5,191.0 237.666666667,194.666666667 239,196 C240.333333333,197.333333333 242.166666667,198 244,198 C245.833333333,198 248.5,197.333333333 250,196 C251.5,194.666666667 252.666666667,192.0 253,190 C253.333333333,188.0 252.833333333,185.5 252,184 C251.166666667,182.5 248,181 248,181 " fill="none" stroke="#000000" stroke-width="1"/>
      <polygon fill="#ffffff" points="248,140 241,140 241,167 248,167" stroke="#000000" stroke-width="1"/>
      <text fill="#000000" font-family="Arial" font-size="10" stroke="none" stroke-width="0" transform="rotate(-90.0,238,166)" x="238" y="176.0">кассы</text>
      <polygon fill="#34349c" points="227,212 223,212 223,213 227,213" stroke="#34349c" stroke-width="1"/>
      <polygon fill="#ff0000" points="231,212 227,212 227,213 231,213" stroke="#ff0000" stroke-width="1"/>
      <text fill="#00afaf" font-family="Arial" font-size="15" stroke="none" stroke-width="0" x="234" y="36.0">Киевская улица</text>
      <text fill="#00afaf" font-family="Arial" font-size="15" stroke="none" stroke-width="0" transform="rotate(80.0,82,-75)" x="82" y="-60.0">Можайский переулок</text>
      <polyline fill="none" marker-end="url(#id298)" points="227,94 227,82" stroke="#ff0000" stroke-width="1"/>
      <polyline fill="none" marker-end="url(#id298)" points="305,94 305,82" stroke="#ff0000" stroke-width="1"/>
      <polyline fill="none" marker-end="url(#id298)" points="395,203 383,203" stroke="#ff0000" stroke-width="1"/>
      <polyline fill="none" marker-end="url(#id298)" points="394,101 383,101" stroke="#ff0000" stroke-width="1"/>
      <polyline fill="none" marker-end="url(#id298)" points="136,101 149,101" stroke="#ff0000" stroke-width="1"/>
      <polyline fill="none" marker-end="url(#id298)" points="136,203 148,203" stroke="#ff0000" stroke-width="1"/>
      <polyline fill="none" marker-end="url(#id298)" points="260,82 260,95" stroke="#009900" stroke-width="1"/>
      <polyline fill="none" marker-end="url(#id298)" points="272,82 272,95" stroke="#009900" stroke-width="1"/>
      <polyline fill="none" marker-end="url(#id298)" points="248,207 235,207" stroke="#009900" stroke-width="1"/>
      <polyline fill="none" marker-end="url(#id298)" points="286,207 298,207" stroke="#009900" stroke-width="1"/>
      <polyline fill="none" marker-end="url(#id298)" points="383,211 395,211" stroke="#009900" stroke-width="1"/>
      <polyline fill="none" marker-end="url(#id298)" points="383,93 394,93" stroke="#009900" stroke-width="1"/>
      <polyline fill="none" marker-end="url(#id298)" points="149,93 136,93" stroke="#009900" stroke-width="1"/>
      <polyline fill="none" marker-end="url(#id298)" points="148,211 136,211" stroke="#009900" stroke-width="1"/>
    </g>
    <g>
      <rect fill="#615f56" height="30" stroke="none" stroke-width="0" width="30" x="214" y="48"/>
      <text fill="#ffd900" font-family="Arial" font-size="25" stroke="none" stroke-width="0" x="222" y="74.0">1</text>
    </g>
  </g>
</svg>
