<?xml version="1.0" encoding="utf-8" ?>
<svg baseProfile="full" height="1310.0" version="1.1" width="1940.0" xmlns="http://www.w3.org/2000/svg" xmlns:ev="http://www.w3.org/2001/xml-events" xmlns:xlink="http://www.w3.org/1999/xlink">
  <defs>
    <marker id="id302" markerHeight="3" markerUnits="strokeWidth" markerWidth="4" orient="auto" refX="0" refY="5" viewBox="0,0,10,10">
      <path d="M 0 0 L 10 5 L 0 10 z"/>
    </marker>
  </defs>
  <g>
    <rect fill="none" height="1310.0" stroke="none" stroke-width="0" width="1940.0" x="0.0" y="0.0"/>
    <polygon fill="#e41c0c" points="683.0,364.0 704.0,385.0 386.0,703.0 365.0,682.0" stroke="#000000" stroke-width="1"/>
    <polygon fill="#e41c0c" points="296.0,613.0 317.0,634.0 635.0,316.0 614.0,295.0" stroke="#000000" stroke-width="1"/>
    <text fill="#e41c0c" font-family="Arial" font-size="20.0" stroke="none" stroke-width="0" transform="rotate(-45.0,300.0,569.0)" x="300.0" y="589.0">&lt;&lt; Библиотека им.Ленина</text>
    <text fill="#e41c0c" font-family="Arial" font-size="20.0" stroke="none" stroke-width="0" transform="rotate(-45.0,633.0,456.0)" x="633.0" y="476.0">Лубянка &gt;&gt;</text>
    <text fill="#e41c0c" font-family="Arial" font-size="25.0" stroke="none" stroke-width="0" transform="rotate(-45.0,339.0,485.0)" x="339.0" y="510.0">Охотный ряд</text>
    <polygon fill="#34349c" points="499.0,504.0 496.0,501.0 495.0,502.0 498.0,505.0" stroke="#34349c" stroke-width="1"/>
    <polygon fill="#ff0000" points="502.0,507.0 499.0,504.0 498.0,505.0 501.0,508.0" stroke="#ff0000" stroke-width="1"/>
    <polygon fill="#047c54" points="904.0,454.0 931.0,442.0 1121.0,849.0 1094.0,862.0" stroke="#000000" stroke-width="1"/>
    <polygon fill="#047c54" points="834.0,486.0 807.0,499.0 998.0,907.0 1023.0,895.0" stroke="#000000" stroke-width="1"/>
    <text fill="#046434" font-family="Arial" font-size="20.0" stroke="none" stroke-width="0" transform="rotate(65.0,957.0,439.0)" x="957.0" y="459.0">&lt;&lt; Тверская</text>
    <text fill="#046434" font-family="Arial" font-size="20.0" stroke="none" stroke-width="0" transform="rotate(65.0,933.0,768.0)" x="933.0" y="788.0">Новокузнецкая &gt;&gt;</text>
    <text fill="#046434" font-family="Arial" font-size="25.0" stroke="none" stroke-width="0" transform="rotate(65.0,950.0,606.0)" x="950.0" y="631.0">Театральная</text>
    <polygon fill="#34349c" points="927.0,552.0 931.0,550.0 931.0,551.0 927.0,553.0" stroke="#34349c" stroke-width="1"/>
    <polygon fill="#ff0000" points="923.0,554.0 927.0,552.0 927.0,553.0 923.0,555.0" stroke="#ff0000" stroke-width="1"/>
    <polygon fill="#0201ac" points="1261.0,1048.0 1261.0,1078.0 1711.0,1078.0 1711.0,1048.0" stroke="#000000" stroke-width="1"/>
    <polygon fill="#0201ac" points="1261.0,947.0 1261.0,977.0 1711.0,977.0 1711.0,947.0" stroke="#000000" stroke-width="1"/>
    <text fill="#34349c" font-family="Arial" font-size="20.0" stroke="none" stroke-width="0" x="1262.0" y="944.0">&lt;&lt; Арбатская</text>
    <text fill="#34349c" font-family="Arial" font-size="20.0" stroke="none" stroke-width="0" x="1618.0" y="1098.0">Курская &gt;&gt;</text>
    <text fill="#34349c" font-family="Arial" font-size="25.0" stroke="none" stroke-width="0" x="1368.0" y="1046.0">Площадь Революции</text>
    <polygon fill="#34349c" points="1502.0,1010.0 1502.0,1006.0 1503.0,1006.0 1503.0,1010.0" stroke="#34349c" stroke-width="1"/>
    <polygon fill="#ff0000" points="1502.0,1014.0 1502.0,1010.0 1503.0,1010.0 1503.0,1014.0" stroke="#ff0000" stroke-width="1"/>
    <polyline fill="none" points="205.0,556.0 244.0,595.0 242.0,597.0 256.0,611.0 268.0,599.0" stroke="#000000" stroke-width="1"/>
    <polyline fill="none" points="191.0,570.0 216.0,595.0 197.0,614.0" stroke="#000000" stroke-width="1"/>
    <polyline fill="none" points="208.0,601.0 198.0,591.0 146.0,643.0 157.0,654.0 77.0,734.0 52.0,709.0" stroke="#000000" stroke-width="1"/>
    <polyline fill="none" points="38.0,723.0 63.0,748.0 79.0,760.0 93.0,774.0 81.0,786.0" stroke="#000000" stroke-width="1"/>
    <polyline fill="none" points="92.0,797.0 109.0,780.0 109.0,766.0 91.0,748.0 127.0,712.0 179.0,733.0 188.0,742.0 184.0,746.0 188.0,750.0" stroke="#000000" stroke-width="1"/>
    <polyline fill="none" points="215.0,777.0 219.0,781.0 245.0,755.0 352.0,862.0 380.0,902.0 592.0,1114.0 727.0,1150.0 721.0,1156.0 740.0,1184.0" stroke="#000000" stroke-width="1"/>
    <polyline fill="none" points="769.0,1153.0 740.0,1134.0 710.0,1126.0 711.0,1123.0 704.0,1121.0 703.0,1124.0 598.0,1096.0 571.0,1069.0 573.0,1067.0 561.0,1055.0 559.0,1057.0 395.0,893.0 367.0,853.0 377.0,843.0 401.0,867.0" stroke="#000000" stroke-width="1"/>
    <polyline fill="none" points="417.0,851.0 393.0,827.0 373.0,813.0 359.0,799.0 372.0,786.0" stroke="#000000" stroke-width="1"/>
    <polyline fill="none" points="361.0,775.0 342.0,794.0 342.0,806.0 361.0,825.0 350.0,836.0 213.0,699.0 191.0,648.0 230.0,609.0 247.0,626.0 263.0,626.0 279.0,610.0" stroke="#000000" stroke-width="1"/>
    <polyline fill="none" points="186.0,683.0 179.0,666.0" stroke="#000000" stroke-width="1"/>
    <polyline fill="none" points="224.0,617.0 261.0,654.0 285.0,630.0 317.0,662.0" stroke="#000000" stroke-width="1"/>
    <polyline fill="none" points="339.0,684.0 365.0,710.0 331.0,744.0 335.0,748.0 338.0,745.0 354.0,761.0 339.0,776.0 336.0,773.0 327.0,782.0" stroke="#000000" stroke-width="1"/>
    <polyline fill="none" points="314.0,769.0 323.0,760.0 319.0,756.0 309.0,766.0 229.0,686.0 237.0,678.0 214.0,655.0 200.0,669.0" stroke="#000000" stroke-width="1"/>
    <polyline fill="none" points="365.0,682.0 359.0,676.0 377.0,658.0 371.0,652.0 363.0,660.0" stroke="#000000" stroke-width="1"/>
    <polyline fill="none" points="341.0,638.0 349.0,630.0 342.0,623.0 324.0,641.0 317.0,634.0" stroke="#000000" stroke-width="1"/>
    <polyline fill="none" points="175.0,669.0 183.0,677.0" stroke="#000000" stroke-width="1"/>
    <polyline fill="none" points="724.0,1160.0 745.0,1137.0" stroke="#000000" stroke-width="1"/>
    <polyline fill="none" points="726.0,1163.0 748.0,1139.0" stroke="#000000" stroke-width="1"/>
    <polyline fill="none" points="728.0,1166.0 751.0,1141.0" stroke="#000000" stroke-width="1"/>
    <polyline fill="none" points="730.0,1169.0 754.0,1143.0" stroke="#000000" stroke-width="1"/>
    <polyline fill="none" points="732.0,1172.0 757.0,1145.0" stroke="#000000" stroke-width="1"/>
    <polyline fill="none" points="734.0,1175.0 760.0,1147.0" stroke="#000000" stroke-width="1"/>
    <polyline fill="none" points="736.0,1178.0 763.0,1149.0" stroke="#000000" stroke-width="1"/>
    <polyline fill="none" points="738.0,1181.0 766.0,1151.0" stroke="#000000" stroke-width="1"/>
    <line stroke="#000000" stroke-width="1" x1="81.0" x2="92.0" y1="786.0" y2="797.0"/>
    <line stroke="#000000" stroke-width="1" x1="83.82842712474618" x2="94.82842712474618" y1="783.1715728752538" y2="794.1715728752538"/>
    <line stroke="#000000" stroke-width="1" x1="86.65685424949237" x2="97.65685424949237" y1="780.3431457505076" y2="791.3431457505076"/>
    <line stroke="#000000" stroke-width="1" x1="89.48528137423855" x2="100.48528137423855" y1="777.5147186257614" y2="788.5147186257614"/>
    <line stroke="#000000" stroke-width="1" x1="92.31370849898474" x2="103.31370849898474" y1="774.6862915010151" y2="785.6862915010151"/>
    <line stroke="#000000" stroke-width="1" x1="92.0" x2="104.0" y1="773.0" y2="761.0"/>
    <line stroke="#000000" stroke-width="1" x1="89.17157287525382" x2="101.17157287525382" y1="770.1715728752538" y2="758.1715728752538"/>
    <line stroke="#000000" stroke-width="1" x1="86.34314575050763" x2="98.34314575050763" y1="767.3431457505076" y2="755.3431457505076"/>
    <line stroke="#000000" stroke-width="1" x1="83.51471862576145" x2="95.51471862576145" y1="764.5147186257614" y2="752.5147186257614"/>
    <line stroke="#000000" stroke-width="1" x1="80.68629150101526" x2="92.68629150101526" y1="761.6862915010151" y2="749.6862915010151"/>
    <line stroke="#000000" stroke-width="1" x1="53.0" x2="39.0" y1="710.0" y2="724.0"/>
    <line stroke="#000000" stroke-width="1" x1="55.82842712474619" x2="41.82842712474619" y1="712.8284271247462" y2="726.8284271247462"/>
    <line stroke="#000000" stroke-width="1" x1="58.65685424949238" x2="44.65685424949238" y1="715.6568542494924" y2="729.6568542494924"/>
    <line stroke="#000000" stroke-width="1" x1="61.485281374238575" x2="47.485281374238575" y1="718.4852813742386" y2="732.4852813742386"/>
    <line stroke="#000000" stroke-width="1" x1="64.31370849898477" x2="50.31370849898477" y1="721.3137084989849" y2="735.3137084989849"/>
    <line stroke="#000000" stroke-width="1" x1="67.14213562373095" x2="53.14213562373096" y1="724.1421356237311" y2="738.1421356237311"/>
    <line stroke="#000000" stroke-width="1" x1="69.97056274847714" x2="55.97056274847715" y1="726.9705627484773" y2="740.9705627484773"/>
    <line stroke="#000000" stroke-width="1" x1="72.79898987322332" x2="58.79898987322334" y1="729.7989898732235" y2="743.7989898732235"/>
    <line stroke="#000000" stroke-width="1" x1="75.6274169979695" x2="61.62741699796953" y1="732.6274169979697" y2="746.6274169979697"/>
    <line stroke="#000000" stroke-width="1" x1="156.0" x2="164.0" y1="633.0" y2="641.0"/>
    <line stroke="#000000" stroke-width="1" x1="158.82842712474618" x2="166.82842712474618" y1="630.1715728752538" y2="638.1715728752538"/>
    <line stroke="#000000" stroke-width="1" x1="161.65685424949237" x2="169.65685424949237" y1="627.3431457505076" y2="635.3431457505076"/>
    <line stroke="#000000" stroke-width="1" x1="164.48528137423855" x2="172.48528137423855" y1="624.5147186257614" y2="632.5147186257614"/>
    <line stroke="#000000" stroke-width="1" x1="167.31370849898474" x2="175.31370849898474" y1="621.6862915010151" y2="629.6862915010151"/>
    <line stroke="#000000" stroke-width="1" x1="170.14213562373092" x2="178.14213562373092" y1="618.8578643762689" y2="626.8578643762689"/>
    <line stroke="#000000" stroke-width="1" x1="172.9705627484771" x2="180.9705627484771" y1="616.0294372515227" y2="624.0294372515227"/>
    <line stroke="#000000" stroke-width="1" x1="175.7989898732233" x2="183.7989898732233" y1="613.2010101267765" y2="621.2010101267765"/>
    <line stroke="#000000" stroke-width="1" x1="167.0" x2="179.0" y1="678.0" y2="690.0"/>
    <line stroke="#000000" stroke-width="1" x1="169.82842712474618" x2="181.82842712474618" y1="675.1715728752538" y2="687.1715728752538"/>
    <line stroke="#000000" stroke-width="1" x1="172.65685424949237" x2="184.65685424949237" y1="672.3431457505076" y2="684.3431457505076"/>
    <line stroke="#000000" stroke-width="1" x1="329.0" x2="316.0" y1="780.0" y2="767.0"/>
    <line stroke="#000000" stroke-width="1" x1="331.8284271247462" x2="318.8284271247462" y1="777.1715728752538" y2="764.1715728752538"/>
    <line stroke="#000000" stroke-width="1" x1="334.6568542494924" x2="321.6568542494924" y1="774.3431457505076" y2="761.3431457505076"/>
    <line stroke="#000000" stroke-width="1" x1="179.0" x2="213.0" y1="733.0" y2="699.0"/>
    <line stroke="#000000" stroke-width="1" x1="182.0103067788275" x2="216.0103067788275" y1="735.634018431474" y2="701.634018431474"/>
    <line stroke="#000000" stroke-width="1" x1="185.020613557655" x2="219.020613557655" y1="738.2680368629481" y2="704.2680368629481"/>
    <line stroke="#000000" stroke-width="1" x1="192.0" x2="206.0" y1="571.0" y2="557.0"/>
    <line stroke="#000000" stroke-width="1" x1="194.82842712474618" x2="208.82842712474618" y1="573.8284271247462" y2="559.8284271247462"/>
    <line stroke="#000000" stroke-width="1" x1="197.65685424949237" x2="211.65685424949237" y1="576.6568542494924" y2="562.6568542494924"/>
    <line stroke="#000000" stroke-width="1" x1="200.48528137423855" x2="214.48528137423855" y1="579.4852813742386" y2="565.4852813742386"/>
    <line stroke="#000000" stroke-width="1" x1="203.31370849898474" x2="217.31370849898474" y1="582.3137084989849" y2="568.3137084989849"/>
    <line stroke="#000000" stroke-width="1" x1="206.14213562373092" x2="220.14213562373092" y1="585.1421356237311" y2="571.1421356237311"/>
    <line stroke="#000000" stroke-width="1" x1="208.9705627484771" x2="222.9705627484771" y1="587.9705627484773" y2="573.9705627484773"/>
    <line stroke="#000000" stroke-width="1" x1="211.7989898732233" x2="225.7989898732233" y1="590.7989898732235" y2="576.7989898732235"/>
    <line stroke="#000000" stroke-width="1" x1="214.62741699796948" x2="228.62741699796948" y1="593.6274169979697" y2="579.6274169979697"/>
    <line stroke="#000000" stroke-width="1" x1="268.0" x2="279.0" y1="599.0" y2="610.0"/>
    <line stroke="#000000" stroke-width="1" x1="265.1715728752538" x2="276.1715728752538" y1="601.8284271247462" y2="612.8284271247462"/>
    <line stroke="#000000" stroke-width="1" x1="262.3431457505076" x2="273.3431457505076" y1="604.6568542494924" y2="615.6568542494924"/>
    <line stroke="#000000" stroke-width="1" x1="259.51471862576136" x2="270.51471862576136" y1="607.4852813742386" y2="618.4852813742386"/>
    <line stroke="#000000" stroke-width="1" x1="256.68629150101515" x2="267.68629150101515" y1="610.3137084989849" y2="621.3137084989849"/>
    <line stroke="#000000" stroke-width="1" x1="255.0" x2="243.0" y1="610.0" y2="622.0"/>
    <line stroke="#000000" stroke-width="1" x1="252.17157287525382" x2="240.17157287525382" y1="607.1715728752538" y2="619.1715728752538"/>
    <line stroke="#000000" stroke-width="1" x1="249.34314575050763" x2="237.34314575050763" y1="604.3431457505076" y2="616.3431457505076"/>
    <line stroke="#000000" stroke-width="1" x1="246.51471862576145" x2="234.51471862576145" y1="601.5147186257614" y2="613.5147186257614"/>
    <line stroke="#000000" stroke-width="1" x1="243.68629150101526" x2="231.68629150101526" y1="598.6862915010151" y2="610.6862915010151"/>
    <line stroke="#000000" stroke-width="1" x1="348.0" x2="360.0" y1="812.0" y2="800.0"/>
    <line stroke="#000000" stroke-width="1" x1="350.8284271247462" x2="362.8284271247462" y1="814.8284271247462" y2="802.8284271247462"/>
    <line stroke="#000000" stroke-width="1" x1="353.6568542494924" x2="365.6568542494924" y1="817.6568542494924" y2="805.6568542494924"/>
    <line stroke="#000000" stroke-width="1" x1="356.48528137423864" x2="368.48528137423864" y1="820.4852813742386" y2="808.4852813742386"/>
    <line stroke="#000000" stroke-width="1" x1="359.31370849898485" x2="371.31370849898485" y1="823.3137084989849" y2="811.3137084989849"/>
    <line stroke="#000000" stroke-width="1" x1="360.0" x2="349.0" y1="798.0" y2="787.0"/>
    <line stroke="#000000" stroke-width="1" x1="362.8284271247462" x2="351.8284271247462" y1="795.1715728752538" y2="784.1715728752538"/>
    <line stroke="#000000" stroke-width="1" x1="365.6568542494924" x2="354.6568542494924" y1="792.3431457505076" y2="781.3431457505076"/>
    <line stroke="#000000" stroke-width="1" x1="368.48528137423864" x2="357.48528137423864" y1="789.5147186257614" y2="778.5147186257614"/>
    <line stroke="#000000" stroke-width="1" x1="371.31370849898485" x2="360.31370849898485" y1="786.6862915010151" y2="775.6862915010151"/>
    <line stroke="#000000" stroke-width="1" x1="248.0" x2="260.0" y1="758.0" y2="746.0"/>
    <line stroke="#000000" stroke-width="1" x1="250.82842712474618" x2="262.8284271247462" y1="760.8284271247462" y2="748.8284271247462"/>
    <line stroke="#000000" stroke-width="1" x1="253.65685424949237" x2="265.6568542494924" y1="763.6568542494924" y2="751.6568542494924"/>
    <line stroke="#000000" stroke-width="1" x1="401.0" x2="417.0" y1="867.0" y2="851.0"/>
    <line stroke="#000000" stroke-width="1" x1="398.1715728752538" x2="414.1715728752538" y1="864.1715728752538" y2="848.1715728752538"/>
    <line stroke="#000000" stroke-width="1" x1="395.3431457505076" x2="411.3431457505076" y1="861.3431457505076" y2="845.3431457505076"/>
    <line stroke="#000000" stroke-width="1" x1="392.51471862576136" x2="408.51471862576136" y1="858.5147186257614" y2="842.5147186257614"/>
    <line stroke="#000000" stroke-width="1" x1="389.68629150101515" x2="405.68629150101515" y1="855.6862915010151" y2="839.6862915010151"/>
    <line stroke="#000000" stroke-width="1" x1="386.85786437626894" x2="402.85786437626894" y1="852.8578643762689" y2="836.8578643762689"/>
    <line stroke="#000000" stroke-width="1" x1="384.0294372515227" x2="400.0294372515227" y1="850.0294372515227" y2="834.0294372515227"/>
    <line stroke="#000000" stroke-width="1" x1="381.2010101267765" x2="397.2010101267765" y1="847.2010101267765" y2="831.2010101267765"/>
    <line stroke="#000000" stroke-width="1" x1="378.3725830020303" x2="394.3725830020303" y1="844.3725830020303" y2="828.3725830020303"/>
    <polygon fill="#d0d0d0" points="197.0,614.0 165.0,646.0 162.0,643.0 194.0,611.0" stroke="#000000" stroke-width="1"/>
    <polygon fill="#d0d0d0" points="162.0,677.0 165.0,680.0 179.0,666.0 177.0,662.0" stroke="#000000" stroke-width="1"/>
    <polygon fill="#d0d0d0" points="211.0,628.0 214.0,631.0 193.0,652.0 191.0,648.0" stroke="#000000" stroke-width="1"/>
    <polygon fill="#d0d0d0" points="140.0,699.0 152.0,687.0 167.0,702.0 186.0,683.0 198.0,712.0 206.0,720.0 199.0,727.0 191.0,719.0" stroke="#000000" stroke-width="1"/>
    <line stroke="#7f7f7f" stroke-width="1" x1="357.0" x2="339.0" y1="662.0" y2="644.0"/>
    <line stroke="#7f7f7f" stroke-width="1" x1="354.1715728752538" x2="336.1715728752538" y1="664.8284271247462" y2="646.8284271247462"/>
    <line stroke="#7f7f7f" stroke-width="1" x1="351.3431457505076" x2="333.3431457505076" y1="667.6568542494924" y2="649.6568542494924"/>
    <line stroke="#7f7f7f" stroke-width="1" x1="348.51471862576136" x2="330.51471862576136" y1="670.4852813742386" y2="652.4852813742386"/>
    <line stroke="#7f7f7f" stroke-width="1" x1="345.68629150101515" x2="327.68629150101515" y1="673.3137084989849" y2="655.3137084989849"/>
    <line stroke="#7f7f7f" stroke-width="1" x1="342.85786437626894" x2="324.85786437626894" y1="676.1421356237311" y2="658.1421356237311"/>
    <line stroke="#7f7f7f" stroke-width="1" x1="340.0294372515227" x2="322.0294372515227" y1="678.9705627484773" y2="660.9705627484773"/>
    <line stroke="#7f7f7f" stroke-width="1" x1="337.2010101267765" x2="319.2010101267765" y1="681.7989898732235" y2="663.7989898732235"/>
    <line stroke="#7f7f7f" stroke-width="1" x1="334.3725830020303" x2="316.3725830020303" y1="684.6274169979697" y2="666.6274169979697"/>
    <line stroke="#7f7f7f" stroke-width="1" x1="331.5441558772841" x2="313.5441558772841" y1="687.4558441227159" y2="669.4558441227159"/>
    <line stroke="#7f7f7f" stroke-width="1" x1="328.71572875253787" x2="310.71572875253787" y1="690.2842712474621" y2="672.2842712474621"/>
    <polygon fill="#9b5509" points="343.0,640.0 306.0,677.0 304.0,675.0 341.0,638.0" stroke="#000000" stroke-width="1"/>
    <polygon fill="#9b5509" points="347.0,644.0 350.0,647.0 313.0,684.0 310.0,681.0" stroke="#000000" stroke-width="1"/>
    <polygon fill="#9b5509" points="354.0,651.0 357.0,654.0 320.0,691.0 317.0,688.0" stroke="#000000" stroke-width="1"/>
    <polygon fill="#9b5509" points="361.0,658.0 324.0,695.0 326.0,697.0 363.0,660.0" stroke="#000000" stroke-width="1"/>
    <polyline fill="none" points="261.0,718.0 255.0,724.0 275.0,744.0 281.0,738.0" stroke="#000000" stroke-width="1"/>
    <text fill="#000000" font-family="Arial" font-size="10.0" stroke="none" stroke-width="0" transform="rotate(45.0,264.0,717.0)" x="264.0" y="727.0">кассы</text>
    <polygon fill="none" points="329.0,742.0 332.0,739.0 329.0,736.0 326.0,739.0" stroke="#000000" stroke-width="1"/>
    <polyline fill="none" points="285.0,695.0 312.0,683.0" stroke="#000000" stroke-width="0.5"/>
    <line stroke="#009900" stroke-width="1" x1="324.0" x2="326.0" y1="736.0" y2="734.0"/>
    <line stroke="#009900" stroke-width="1" x1="321.1715728752538" x2="323.1715728752538" y1="733.1715728752538" y2="731.1715728752538"/>
    <line stroke="#009900" stroke-width="1" x1="318.3431457505076" x2="320.3431457505076" y1="730.3431457505076" y2="728.3431457505076"/>
    <line stroke="#009900" stroke-width="1" x1="315.51471862576136" x2="317.51471862576136" y1="727.5147186257614" y2="725.5147186257614"/>
    <line stroke="#009900" stroke-width="1" x1="312.68629150101515" x2="314.68629150101515" y1="724.6862915010151" y2="722.6862915010151"/>
    <line stroke="#009900" stroke-width="1" x1="309.85786437626894" x2="311.85786437626894" y1="721.8578643762689" y2="719.8578643762689"/>
    <line stroke="#009900" stroke-width="1" x1="307.0294372515227" x2="309.0294372515227" y1="719.0294372515227" y2="717.0294372515227"/>
    <line stroke="#009900" stroke-width="1" x1="304.2010101267765" x2="306.2010101267765" y1="716.2010101267765" y2="714.2010101267765"/>
    <line stroke="#009900" stroke-width="1" x1="301.3725830020303" x2="303.3725830020303" y1="713.3725830020303" y2="711.3725830020303"/>
    <line stroke="#009900" stroke-width="1" x1="298.5441558772841" x2="300.5441558772841" y1="710.5441558772841" y2="708.5441558772841"/>
    <line stroke="#009900" stroke-width="1" x1="295.71572875253787" x2="297.71572875253787" y1="707.7157287525379" y2="705.7157287525379"/>
    <line stroke="#009900" stroke-width="1" x1="292.88730162779166" x2="294.88730162779166" y1="704.8873016277917" y2="702.8873016277917"/>
    <line stroke="#009900" stroke-width="1" x1="290.05887450304544" x2="292.05887450304544" y1="702.0588745030454" y2="700.0588745030454"/>
    <line stroke="#009900" stroke-width="1" x1="287.23044737829923" x2="289.23044737829923" y1="699.2304473782992" y2="697.2304473782992"/>
    <line stroke="#009900" stroke-width="1" x1="284.402020253553" x2="286.402020253553" y1="696.402020253553" y2="694.402020253553"/>
    <polyline fill="none" marker-end="url(#id302)" points="362.0,625.0 352.0,635.0" stroke="#ff0000" stroke-width="1"/>
    <polyline fill="none" marker-end="url(#id302)" points="202.0,607.0 195.0,600.0 152.0,643.0" stroke="#ff0000" stroke-width="1"/>
    <polyline fill="none" points="245.0,650.0 218.0,623.0" stroke="#ff0000" stroke-width="1"/>
    <polyline fill="none" marker-end="url(#id302)" points="366.0,649.0 376.0,639.0" stroke="#009900" stroke-width="1"/>
    <polyline fill="none" points="209.0,708.0 184.0,647.0 153.0,678.0 166.0,691.0 182.0,675.0" stroke="#009900" stroke-width="1"/>
    <polyline fill="none" marker-end="url(#id302)" points="197.0,660.0 216.0,641.0 242.0,667.0" stroke="#009900" stroke-width="1"/>
    <polyline fill="none" points="683.0,364.0 670.0,351.0" stroke="#000000" stroke-width="1"/>
    <polyline fill="none" points="648.0,329.0 635.0,316.0" stroke="#000000" stroke-width="1"/>
    <line stroke="#7f7f7f" stroke-width="1" x1="705.0" x2="687.0" y1="312.0" y2="294.0"/>
    <line stroke="#7f7f7f" stroke-width="1" x1="702.1715728752538" x2="684.1715728752538" y1="314.8284271247462" y2="296.8284271247462"/>
    <line stroke="#7f7f7f" stroke-width="1" x1="699.3431457505076" x2="681.3431457505076" y1="317.6568542494924" y2="299.6568542494924"/>
    <line stroke="#7f7f7f" stroke-width="1" x1="696.5147186257614" x2="678.5147186257614" y1="320.48528137423864" y2="302.48528137423864"/>
    <line stroke="#7f7f7f" stroke-width="1" x1="693.6862915010151" x2="675.6862915010151" y1="323.31370849898485" y2="305.31370849898485"/>
    <line stroke="#7f7f7f" stroke-width="1" x1="690.8578643762689" x2="672.8578643762689" y1="326.14213562373106" y2="308.14213562373106"/>
    <line stroke="#7f7f7f" stroke-width="1" x1="688.0294372515227" x2="670.0294372515227" y1="328.9705627484773" y2="310.9705627484773"/>
    <line stroke="#7f7f7f" stroke-width="1" x1="685.2010101267765" x2="667.2010101267765" y1="331.7989898732235" y2="313.7989898732235"/>
    <line stroke="#7f7f7f" stroke-width="1" x1="682.3725830020303" x2="664.3725830020303" y1="334.6274169979697" y2="316.6274169979697"/>
    <line stroke="#7f7f7f" stroke-width="1" x1="679.5441558772841" x2="661.5441558772841" y1="337.4558441227159" y2="319.4558441227159"/>
    <line stroke="#7f7f7f" stroke-width="1" x1="676.7157287525379" x2="658.7157287525379" y1="340.28427124746213" y2="322.28427124746213"/>
    <line stroke="#7f7f7f" stroke-width="1" x1="673.8873016277917" x2="655.8873016277917" y1="343.11269837220834" y2="325.11269837220834"/>
    <line stroke="#7f7f7f" stroke-width="1" x1="671.0588745030454" x2="653.0588745030454" y1="345.94112549695456" y2="327.94112549695456"/>
    <line stroke="#7f7f7f" stroke-width="1" x1="668.2304473782992" x2="650.2304473782992" y1="348.76955262170077" y2="330.76955262170077"/>
    <line stroke="#7f7f7f" stroke-width="1" x1="665.402020253553" x2="647.402020253553" y1="351.597979746447" y2="333.597979746447"/>
    <polygon fill="#9b5509" points="691.0,290.0 643.0,338.0 641.0,336.0 689.0,288.0" stroke="#000000" stroke-width="1"/>
    <polygon fill="#9b5509" points="695.0,294.0 698.0,297.0 650.0,345.0 647.0,342.0" stroke="#000000" stroke-width="1"/>
    <polygon fill="#9b5509" points="702.0,301.0 705.0,304.0 657.0,352.0 654.0,349.0" stroke="#000000" stroke-width="1"/>
    <polygon fill="#9b5509" points="709.0,308.0 661.0,356.0 663.0,358.0 711.0,310.0" stroke="#000000" stroke-width="1"/>
    <polyline fill="none" points="440.0,469.0 419.0,448.0 502.0,365.0 532.0,376.0" stroke="#000000" stroke-width="1"/>
    <polyline fill="none" points="462.0,447.0 456.0,441.0 507.0,390.0 515.0,393.0" stroke="#000000" stroke-width="1"/>
    <polyline fill="none" points="648.0,442.0 769.0,486.0 838.0,454.0 855.0,492.0 849.0,495.0 843.0,482.0 834.0,486.0" stroke="#000000" stroke-width="1"/>
    <polyline fill="none" points="904.0,454.0 896.0,458.0 902.0,471.0 893.0,475.0 866.0,416.0 767.0,462.0 665.0,425.0" stroke="#000000" stroke-width="1"/>
    <polyline fill="none" points="869.0,508.0 897.0,495.0" stroke="#000000" stroke-width="1"/>
    <polyline fill="none" points="476.0,517.0 487.0,528.0" stroke="#000000" stroke-width="1"/>
    <polyline fill="none" points="510.0,483.0 521.0,494.0" stroke="#000000" stroke-width="1"/>
    <line stroke="#000000" stroke-width="1" x1="885.0" x2="848.0" y1="457.0" y2="475.0"/>
    <line stroke="#000000" stroke-width="1" x1="883.2111456180002" x2="846.2111456180002" y1="453.4222912360003" y2="471.4222912360003"/>
    <line stroke="#000000" stroke-width="1" x1="881.4222912360003" x2="844.4222912360003" y1="449.84458247200064" y2="467.84458247200064"/>
    <line stroke="#000000" stroke-width="1" x1="879.6334368540005" x2="842.6334368540005" y1="446.26687370800096" y2="464.26687370800096"/>
    <polygon fill="#d0d0d0" points="897.0,495.0 901.0,493.0 926.0,547.0 922.0,549.0" stroke="#000000" stroke-width="1"/>
    <polygon fill="#d0d0d0" points="869.0,508.0 865.0,510.0 890.0,564.0 894.0,562.0" stroke="#000000" stroke-width="1"/>
    <polygon fill="#d0d0d0" points="446.0,463.0 440.0,457.0 450.0,447.0 456.0,453.0" stroke="#000000" stroke-width="1"/>
    <polygon fill="#eeeeee" points="478.0,475.0 492.0,489.0 482.0,499.0 468.0,485.0" stroke="#eeeeee" stroke-width="1"/>
    <polyline fill="none" points="478.0,475.0 492.0,489.0 482.0,499.0 468.0,485.0" stroke="#d0d0d0" stroke-width="1"/>
    <polyline fill="none" points="547.0,405.0 616.0,430.0" stroke="#d0d0d0" stroke-width="1"/>
    <polyline fill="none" points="564.0,388.0 633.0,413.0" stroke="#d0d0d0" stroke-width="1"/>
    <polyline fill="none" points="508.0,481.0 502.0,487.0 484.0,469.0" stroke="#d0d0d0" stroke-width="1"/>
    <polyline fill="none" points="474.0,515.0 480.0,509.0 462.0,491.0" stroke="#d0d0d0" stroke-width="1"/>
    <polyline fill="none" points="495.0,524.0 502.0,487.0" stroke="#d0d0d0" stroke-width="0.5"/>
    <line stroke="#7f7f7f" stroke-width="1" x1="483.0" x2="472.0" y1="532.0" y2="521.0"/>
    <line stroke="#7f7f7f" stroke-width="1" x1="480.1715728752538" x2="469.1715728752538" y1="534.8284271247462" y2="523.8284271247462"/>
    <line stroke="#7f7f7f" stroke-width="1" x1="477.3431457505076" x2="466.3431457505076" y1="537.6568542494924" y2="526.6568542494924"/>
    <line stroke="#7f7f7f" stroke-width="1" x1="474.51471862576136" x2="463.51471862576136" y1="540.4852813742386" y2="529.4852813742386"/>
    <line stroke="#7f7f7f" stroke-width="1" x1="471.68629150101515" x2="460.68629150101515" y1="543.3137084989849" y2="532.3137084989849"/>
    <line stroke="#7f7f7f" stroke-width="1" x1="468.85786437626894" x2="457.85786437626894" y1="546.1421356237311" y2="535.1421356237311"/>
    <line stroke="#7f7f7f" stroke-width="1" x1="466.0294372515227" x2="455.0294372515227" y1="548.9705627484773" y2="537.9705627484773"/>
    <line stroke="#7f7f7f" stroke-width="1" x1="463.2010101267765" x2="452.2010101267765" y1="551.7989898732235" y2="540.7989898732235"/>
    <line stroke="#7f7f7f" stroke-width="1" x1="460.3725830020303" x2="449.3725830020303" y1="554.6274169979697" y2="543.6274169979697"/>
    <polygon fill="#9b5509" points="476.0,517.0 444.0,549.0 442.0,547.0 474.0,515.0" stroke="#000000" stroke-width="1"/>
    <polygon fill="#9b5509" points="480.0,521.0 483.0,524.0 451.0,556.0 448.0,553.0" stroke="#000000" stroke-width="1"/>
    <polygon fill="#9b5509" points="487.0,528.0 455.0,560.0 457.0,562.0 489.0,530.0" stroke="#000000" stroke-width="1"/>
    <line stroke="#7f7f7f" stroke-width="1" x1="549.0" x2="538.0" y1="466.0" y2="455.0"/>
    <line stroke="#7f7f7f" stroke-width="1" x1="546.1715728752538" x2="535.1715728752538" y1="468.8284271247462" y2="457.8284271247462"/>
    <line stroke="#7f7f7f" stroke-width="1" x1="543.3431457505076" x2="532.3431457505076" y1="471.6568542494924" y2="460.6568542494924"/>
    <line stroke="#7f7f7f" stroke-width="1" x1="540.5147186257614" x2="529.5147186257614" y1="474.48528137423864" y2="463.48528137423864"/>
    <line stroke="#7f7f7f" stroke-width="1" x1="537.6862915010151" x2="526.6862915010151" y1="477.31370849898485" y2="466.31370849898485"/>
    <line stroke="#7f7f7f" stroke-width="1" x1="534.8578643762689" x2="523.8578643762689" y1="480.14213562373106" y2="469.14213562373106"/>
    <line stroke="#7f7f7f" stroke-width="1" x1="532.0294372515227" x2="521.0294372515227" y1="482.9705627484773" y2="471.9705627484773"/>
    <line stroke="#7f7f7f" stroke-width="1" x1="529.2010101267765" x2="518.2010101267765" y1="485.7989898732235" y2="474.7989898732235"/>
    <line stroke="#7f7f7f" stroke-width="1" x1="526.3725830020303" x2="515.3725830020303" y1="488.6274169979697" y2="477.6274169979697"/>
    <polygon fill="#9b5509" points="542.0,451.0 510.0,483.0 508.0,481.0 540.0,449.0" stroke="#000000" stroke-width="1"/>
    <polygon fill="#9b5509" points="546.0,455.0 549.0,458.0 517.0,490.0 514.0,487.0" stroke="#000000" stroke-width="1"/>
    <polygon fill="#9b5509" points="553.0,462.0 521.0,494.0 523.0,496.0 555.0,464.0" stroke="#000000" stroke-width="1"/>
    <polyline fill="none" marker-end="url(#id302)" points="551.0,453.0 567.0,437.0" stroke="#000000" stroke-width="1"/>
    <polyline fill="none" marker-end="url(#id302)" points="690.0,446.0 720.0,457.0" stroke="#000000" stroke-width="1"/>
    <polyline fill="none" marker-end="url(#id302)" points="429.0,575.0 445.0,559.0" stroke="#000000" stroke-width="1"/>
    <polyline fill="none" marker-end="url(#id302)" points="899.0,484.0 906.0,481.0 917.0,505.0" stroke="#000000" stroke-width="1"/>
    <polyline fill="none" marker-end="url(#id302)" points="860.0,503.0 853.0,506.0 864.0,530.0" stroke="#000000" stroke-width="1"/>
    <polygon fill="#fefbf1" points="791.0,128.0 649.0,166.0 635.0,114.0 777.0,76.0" stroke="#fefbf1" stroke-width="1"/>
    <polyline fill="none" points="636.0,118.0 635.0,114.0 777.0,76.0 778.0,80.0" stroke="#000000" stroke-width="1"/>
    <polyline fill="none" points="782.0,94.0 783.0,98.0" stroke="#000000" stroke-width="1"/>
    <polyline fill="none" points="787.0,113.0 791.0,128.0 746.0,140.0" stroke="#000000" stroke-width="1"/>
    <polyline fill="none" points="698.0,153.0 649.0,166.0 645.0,151.0" stroke="#000000" stroke-width="1"/>
    <polyline fill="none" points="641.0,136.0 640.0,132.0" stroke="#000000" stroke-width="1"/>
    <polyline fill="none" points="825.0,414.0 822.0,408.0 828.0,405.0 823.0,394.0" stroke="#000000" stroke-width="1"/>
    <path d="M823.0,394.0 C823.0,394.0 824.3333333333334,395.3333333333333 823.0,394.0 C821.6666666666666,392.6666666666667 819.0,388.0 815.0,386.0 C811.0,384.0 803.8333333333334,384.1666666666667 799.0,382.0 C794.1666666666666,379.8333333333333 786.0,373.0 786.0,373.0 " fill="none" stroke="#000000" stroke-width="1"/>
    <polyline fill="none" points="786.0,373.0 730.0,317.0 715.0,332.0 702.0,319.0" stroke="#000000" stroke-width="1"/>
    <polyline fill="none" points="680.0,297.0 667.0,284.0 677.0,274.0" stroke="#000000" stroke-width="1"/>
    <path d="M677.0,274.0 C677.0,274.0 679.1666666666666,278.0 677.0,274.0 C674.8333333333334,270.0 665.5,258.0 664.0,250.0 C662.5,242.0 668.0,226.0 668.0,226.0 " fill="none" stroke="#000000" stroke-width="1"/>
    <polyline fill="none" points="668.0,226.0 705.0,162.0 693.0,117.0 656.0,127.0" stroke="#000000" stroke-width="1"/>
    <polyline fill="none" points="650.0,112.0 736.0,89.0" stroke="#000000" stroke-width="1"/>
    <polyline fill="none" points="741.0,104.0 708.0,113.0 719.0,155.0 726.0,159.0 729.0,152.0 724.0,133.0" stroke="#000000" stroke-width="1"/>
    <polyline fill="none" points="776.0,119.0 739.0,129.0 744.0,148.0" stroke="#000000" stroke-width="1"/>
    <path d="M744.0,148.0 C744.0,148.0 744.0,146.83333333333334 744.0,148.0 C744.0,149.16666666666666 744.5,152.66666666666666 744.0,155.0 C743.5,157.33333333333334 741.0,162.0 741.0,162.0 " fill="none" stroke="#000000" stroke-width="1"/>
    <polyline fill="none" points="741.0,162.0 700.0,233.0" stroke="#000000" stroke-width="1"/>
    <path d="M700.0,233.0 C700.0,233.0 700.3333333333334,231.5 700.0,233.0 C699.6666666666666,234.5 697.6666666666666,239.33333333333334 698.0,242.0 C698.3333333333334,244.66666666666666 702.0,249.0 702.0,249.0 " fill="none" stroke="#000000" stroke-width="1"/>
    <polyline fill="none" points="702.0,249.0 711.0,240.0 759.0,288.0 744.0,303.0 801.0,360.0" stroke="#000000" stroke-width="1"/>
    <path d="M801.0,360.0 C801.0,360.0 799.1666666666666,358.6666666666667 801.0,360.0 C802.8333333333334,361.3333333333333 807.3333333333334,365.8333333333333 812.0,368.0 C816.6666666666666,370.1666666666667 824.3333333333334,370.0 829.0,373.0 C833.6666666666666,376.0 840.0,386.0 840.0,386.0 " fill="none" stroke="#000000" stroke-width="1"/>
    <polyline fill="none" points="840.0,386.0 845.0,397.0 850.0,395.0 853.0,401.0" stroke="#000000" stroke-width="1"/>
    <line stroke="#000000" stroke-width="1" x1="694.0" x2="720.0" y1="182.0" y2="197.0"/>
    <line stroke="#000000" stroke-width="1" x1="696.0154841020964" x2="722.0154841020964" y1="178.54488439640627" y2="193.54488439640627"/>
    <line stroke="#000000" stroke-width="1" x1="698.0309682041927" x2="724.0309682041927" y1="175.08976879281255" y2="190.08976879281255"/>
    <line stroke="#000000" stroke-width="1" x1="700.0464523062891" x2="726.0464523062891" y1="171.63465318921882" y2="186.63465318921882"/>
    <line stroke="#000000" stroke-width="1" x1="703.0" x2="718.0" y1="155.0" y2="151.0"/>
    <line stroke="#000000" stroke-width="1" x1="701.9475303768315" x2="716.9475303768315" y1="151.14094471504907" y2="147.14094471504907"/>
    <line stroke="#000000" stroke-width="1" x1="700.8950607536631" x2="715.8950607536631" y1="147.28188943009815" y2="143.28188943009815"/>
    <line stroke="#000000" stroke-width="1" x1="728.0" x2="743.0" y1="148.0" y2="144.0"/>
    <line stroke="#000000" stroke-width="1" x1="726.9475303768315" x2="741.9475303768315" y1="144.14094471504907" y2="140.14094471504907"/>
    <line stroke="#000000" stroke-width="1" x1="725.8950607536631" x2="740.8950607536631" y1="140.28188943009815" y2="136.28188943009815"/>
    <line stroke="#000000" stroke-width="1" x1="750.0" x2="746.0" y1="126.0" y2="111.0"/>
    <line stroke="#000000" stroke-width="1" x1="753.859055284951" x2="749.859055284951" y1="124.94753037683157" y2="109.94753037683157"/>
    <line stroke="#000000" stroke-width="1" x1="757.7181105699019" x2="753.7181105699019" y1="123.89506075366313" y2="108.89506075366313"/>
    <line stroke="#000000" stroke-width="1" x1="761.5771658548529" x2="757.5771658548529" y1="122.8425911304947" y2="107.8425911304947"/>
    <line stroke="#000000" stroke-width="1" x1="765.4362211398038" x2="761.4362211398038" y1="121.79012150732626" y2="106.79012150732626"/>
    <line stroke="#000000" stroke-width="1" x1="769.2952764247548" x2="765.2952764247548" y1="120.73765188415783" y2="105.73765188415783"/>
    <line stroke="#000000" stroke-width="1" x1="715.0" x2="711.0" y1="111.0" y2="96.0"/>
    <line stroke="#000000" stroke-width="1" x1="718.859055284951" x2="714.859055284951" y1="109.94753037683157" y2="94.94753037683157"/>
    <line stroke="#000000" stroke-width="1" x1="722.7181105699019" x2="718.7181105699019" y1="108.89506075366313" y2="93.89506075366313"/>
    <line stroke="#000000" stroke-width="1" x1="726.5771658548529" x2="722.5771658548529" y1="107.8425911304947" y2="92.8425911304947"/>
    <line stroke="#000000" stroke-width="1" x1="730.4362211398038" x2="726.4362211398038" y1="106.79012150732626" y2="91.79012150732626"/>
    <line stroke="#000000" stroke-width="1" x1="734.2952764247548" x2="730.2952764247548" y1="105.73765188415783" y2="90.73765188415783"/>
    <line stroke="#000000" stroke-width="1" x1="680.0" x2="676.0" y1="120.0" y2="105.0"/>
    <line stroke="#000000" stroke-width="1" x1="676.1686948591154" x2="672.1686948591154" y1="121.14939154226538" y2="106.14939154226538"/>
    <line stroke="#000000" stroke-width="1" x1="672.3373897182307" x2="668.3373897182307" y1="122.29878308453075" y2="107.29878308453075"/>
    <line stroke="#000000" stroke-width="1" x1="668.5060845773461" x2="664.5060845773461" y1="123.44817462679613" y2="108.44817462679613"/>
    <line stroke="#000000" stroke-width="1" x1="664.6747794364614" x2="660.6747794364614" y1="124.59756616906151" y2="109.59756616906151"/>
    <line stroke="#000000" stroke-width="1" x1="660.8434742955768" x2="656.8434742955768" y1="125.74695771132689" y2="110.74695771132689"/>
    <polygon fill="#fefbf1" points="693.0,124.0 711.0,119.0 716.0,136.0 698.0,141.0" stroke="#fefbf1" stroke-width="1"/>
    <polyline fill="none" points="772.0,104.0 686.0,127.0" stroke="#000000" stroke-width="1"/>
    <polyline fill="none" points="724.0,133.0 691.0,142.0" stroke="#000000" stroke-width="1"/>
    <line stroke="#000000" stroke-width="1" x1="713.0" x2="717.0" y1="120.0" y2="135.0"/>
    <line stroke="#000000" stroke-width="1" x1="709.1295309104127" x2="713.1295309104127" y1="121.00968758858801" y2="136.009687588588"/>
    <line stroke="#000000" stroke-width="1" x1="705.2590618208253" x2="709.2590618208253" y1="122.01937517717602" y2="137.01937517717602"/>
    <line stroke="#000000" stroke-width="1" x1="701.388592731238" x2="705.388592731238" y1="123.02906276576402" y2="138.02906276576402"/>
    <line stroke="#000000" stroke-width="1" x1="697.5181236416506" x2="701.5181236416506" y1="124.03875035435203" y2="139.03875035435203"/>
    <line stroke="#000000" stroke-width="1" x1="693.6476545520633" x2="697.6476545520633" y1="125.04843794294004" y2="140.04843794294004"/>
    <g fill="#fefbf1" fill-opacity="0.85" stroke="#000000" stroke-opacity="0.85" transform="rotate(0.0,970.0,655.0)">
      <polygon fill="#ffffff" points="830.0,420.0 854.0,409.0 896.0,498.0 872.0,509.0" stroke="#ffffff" stroke-width="1"/>
    </g>
    <g fill="#ffffff" fill-opacity="1.0" stroke="#ffffff" stroke-opacity="1.0" transform="rotate(0.0,970.0,655.0)">
      <line stroke="#7f7f7f" stroke-width="1" x1="893.0" x2="919.0" y1="557.0" y2="545.0"/>
      <line stroke="#7f7f7f" stroke-width="1" x1="891.305604543813" x2="917.305604543813" y1="553.3766004860003" y2="541.3766004860003"/>
      <line stroke="#7f7f7f" stroke-width="1" x1="889.6112090876261" x2="915.6112090876261" y1="549.7532009720005" y2="537.7532009720005"/>
      <line stroke="#7f7f7f" stroke-width="1" x1="887.9168136314391" x2="913.9168136314391" y1="546.1298014580008" y2="534.1298014580008"/>
      <line stroke="#7f7f7f" stroke-width="1" x1="886.2224181752522" x2="912.2224181752522" y1="542.506401944001" y2="530.506401944001"/>
      <line stroke="#7f7f7f" stroke-width="1" x1="884.5280227190652" x2="910.5280227190652" y1="538.8830024300013" y2="526.8830024300013"/>
      <line stroke="#7f7f7f" stroke-width="1" x1="882.8336272628783" x2="908.8336272628783" y1="535.2596029160015" y2="523.2596029160015"/>
      <line stroke="#7f7f7f" stroke-width="1" x1="881.1392318066913" x2="907.1392318066913" y1="531.6362034020018" y2="519.6362034020018"/>
      <line stroke="#7f7f7f" stroke-width="1" x1="879.4448363505044" x2="905.4448363505044" y1="528.012803888002" y2="516.012803888002"/>
      <line stroke="#7f7f7f" stroke-width="1" x1="877.7504408943174" x2="903.7504408943174" y1="524.3894043740023" y2="512.3894043740023"/>
      <line stroke="#7f7f7f" stroke-width="1" x1="876.0560454381305" x2="902.0560454381305" y1="520.7660048600026" y2="508.7660048600026"/>
      <line stroke="#7f7f7f" stroke-width="1" x1="874.3616499819435" x2="900.3616499819435" y1="517.1426053460028" y2="505.14260534600294"/>
      <line stroke="#7f7f7f" stroke-width="1" x1="872.6672545257566" x2="898.6672545257566" y1="513.5192058320031" y2="501.51920583200325"/>
      <line stroke="#7f7f7f" stroke-width="1" x1="870.9728590695696" x2="896.9728590695696" y1="509.8958063180034" y2="497.89580631800357"/>
      <line stroke="#7f7f7f" stroke-width="1" x1="869.2784636133827" x2="895.2784636133827" y1="506.2724068040037" y2="494.2724068040039"/>
      <line stroke="#7f7f7f" stroke-width="1" x1="867.5840681571957" x2="893.5840681571957" y1="502.649007290004" y2="490.6490072900042"/>
      <line stroke="#7f7f7f" stroke-width="1" x1="865.8896727010087" x2="891.8896727010087" y1="499.02560777600434" y2="487.0256077760045"/>
      <line stroke="#7f7f7f" stroke-width="1" x1="864.1952772448218" x2="890.1952772448218" y1="495.40220826200465" y2="483.4022082620048"/>
      <line stroke="#7f7f7f" stroke-width="1" x1="862.5008817886348" x2="888.5008817886348" y1="491.77880874800496" y2="479.77880874800513"/>
      <line stroke="#7f7f7f" stroke-width="1" x1="860.8064863324479" x2="886.8064863324479" y1="488.1554092340053" y2="476.15540923400545"/>
      <line stroke="#7f7f7f" stroke-width="1" x1="859.1120908762609" x2="885.1120908762609" y1="484.5320097200056" y2="472.53200972000576"/>
      <line stroke="#7f7f7f" stroke-width="1" x1="857.417695420074" x2="883.417695420074" y1="480.9086102060059" y2="468.9086102060061"/>
      <line stroke="#7f7f7f" stroke-width="1" x1="855.723299963887" x2="881.723299963887" y1="477.2852106920062" y2="465.2852106920064"/>
      <line stroke="#7f7f7f" stroke-width="1" x1="854.0289045077001" x2="880.0289045077001" y1="473.66181117800653" y2="461.6618111780067"/>
      <line stroke="#7f7f7f" stroke-width="1" x1="852.3345090515131" x2="878.3345090515131" y1="470.03841166400684" y2="458.038411664007"/>
      <line stroke="#7f7f7f" stroke-width="1" x1="850.6401135953262" x2="876.6401135953262" y1="466.41501215000716" y2="454.4150121500073"/>
      <line stroke="#7f7f7f" stroke-width="1" x1="848.9457181391392" x2="874.9457181391392" y1="462.79161263600747" y2="450.79161263600764"/>
      <line stroke="#7f7f7f" stroke-width="1" x1="847.2513226829523" x2="873.2513226829523" y1="459.1682131220078" y2="447.16821312200796"/>
      <line stroke="#7f7f7f" stroke-width="1" x1="845.5569272267653" x2="871.5569272267653" y1="455.5448136080081" y2="443.54481360800827"/>
      <line stroke="#7f7f7f" stroke-width="1" x1="843.8625317705784" x2="869.8625317705784" y1="451.9214140940084" y2="439.9214140940086"/>
      <line stroke="#7f7f7f" stroke-width="1" x1="842.1681363143914" x2="868.1681363143914" y1="448.2980145800087" y2="436.2980145800089"/>
      <line stroke="#7f7f7f" stroke-width="1" x1="840.4737408582045" x2="866.4737408582045" y1="444.67461506600904" y2="432.6746150660092"/>
      <line stroke="#7f7f7f" stroke-width="1" x1="838.7793454020175" x2="864.7793454020175" y1="441.05121555200935" y2="429.0512155520095"/>
      <line stroke="#7f7f7f" stroke-width="1" x1="837.0849499458305" x2="863.0849499458305" y1="437.42781603800967" y2="425.42781603800984"/>
      <line stroke="#7f7f7f" stroke-width="1" x1="835.3905544896436" x2="861.3905544896436" y1="433.80441652401" y2="421.80441652401015"/>
      <line stroke="#7f7f7f" stroke-width="1" x1="833.6961590334566" x2="859.6961590334566" y1="430.1810170100103" y2="418.18101701001046"/>
      <line stroke="#7f7f7f" stroke-width="1" x1="832.0017635772697" x2="858.0017635772697" y1="426.5576174960106" y2="414.5576174960108"/>
      <line stroke="#7f7f7f" stroke-width="1" x1="830.3073681210827" x2="856.3073681210827" y1="422.9342179820109" y2="410.9342179820111"/>
      <line stroke="#7f7f7f" stroke-width="1" x1="828.6129726648958" x2="854.6129726648958" y1="419.31081846801123" y2="407.3108184680114"/>
      <polygon fill="#9b5509" points="920.0,550.0 851.0,402.0 853.0,401.0 922.0,549.0" stroke="#000000" stroke-width="1"/>
      <polygon fill="#9b5509" points="915.0,552.0 911.0,554.0 842.0,406.0 846.0,404.0" stroke="#000000" stroke-width="1"/>
      <polygon fill="#9b5509" points="906.0,556.0 902.0,558.0 833.0,410.0 837.0,408.0" stroke="#000000" stroke-width="1"/>
      <polygon fill="#9b5509" points="896.0,561.0 827.0,413.0 825.0,414.0 894.0,562.0" stroke="#000000" stroke-width="1"/>
      <polyline fill="none" points="647.0,157.0 677.0,149.0 679.0,158.0" stroke="#000000" stroke-width="1"/>
      <text fill="#000000" font-family="Arial" font-size="10.0" stroke="none" stroke-width="0" transform="rotate(-15.0,649.0,154.0)" x="649.0" y="164.0">кассы</text>
      <polyline fill="none" points="724.0,160.0 684.0,229.0" stroke="#000000" stroke-width="0.5"/>
      <path d="M684.0,229.0 C684.0,229.0 684.3333333333334,226.16666666666666 684.0,229.0 C683.6666666666666,231.83333333333334 681.0,240.66666666666666 682.0,246.0 C683.0,251.33333333333334 690.0,261.0 690.0,261.0 " fill="none" stroke="#000000" stroke-width="0.5"/>
      <polyline fill="none" points="690.0,261.0 697.0,268.0" stroke="#000000" stroke-width="0.5"/>
      <polygon fill="none" points="695.0,270.0 699.0,266.0 703.0,270.0 699.0,274.0" stroke="#000000" stroke-width="1"/>
      <line stroke="#009900" stroke-width="1" x1="707.0" x2="707.0" y1="268.0" y2="272.0"/>
      <line stroke="#009900" stroke-width="1" x1="711.0" x2="711.0" y1="268.0" y2="272.0"/>
      <line stroke="#009900" stroke-width="1" x1="715.0" x2="715.0" y1="268.0" y2="272.0"/>
      <line stroke="#009900" stroke-width="1" x1="719.0" x2="719.0" y1="268.0" y2="272.0"/>
      <line stroke="#009900" stroke-width="1" x1="723.0" x2="723.0" y1="268.0" y2="272.0"/>
      <line stroke="#009900" stroke-width="1" x1="727.0" x2="727.0" y1="268.0" y2="272.0"/>
      <line stroke="#009900" stroke-width="1" x1="731.0" x2="731.0" y1="268.0" y2="272.0"/>
      <line stroke="#009900" stroke-width="1" x1="735.0" x2="735.0" y1="268.0" y2="272.0"/>
      <line stroke="#009900" stroke-width="1" x1="739.0" x2="739.0" y1="268.0" y2="272.0"/>
      <polyline fill="none" marker-end="url(#id302)" points="689.0,206.0 696.0,194.0" stroke="#ff0000" stroke-width="1"/>
      <polyline fill="none" marker-end="url(#id302)" points="709.0,201.0 702.0,213.0" stroke="#009900" stroke-width="1"/>
      <polygon fill="#34349c" points="752.0,285.0 749.0,282.0 748.0,283.0 751.0,286.0" stroke="#34349c" stroke-width="1"/>
      <polygon fill="#ff0000" points="755.0,288.0 752.0,285.0 751.0,286.0 754.0,289.0" stroke="#ff0000" stroke-width="1"/>
    </g>
    <g fill="#ff0000" fill-opacity="0.8" stroke="#ff0000" stroke-opacity="0.8" transform="rotate(0.0,970.0,655.0)">
      <polygon fill="#ffffff" points="896.0,692.0 925.0,679.0 931.0,693.0 903.0,706.0" stroke="#ffffff" stroke-width="1"/>
      <polygon fill="#ffffff" points="909.0,720.0 937.0,707.0 944.0,721.0 915.0,735.0" stroke="#ffffff" stroke-width="1"/>
    </g>
    <g fill="#ffffff" fill-opacity="1.0" stroke="#ffffff" stroke-opacity="1.0" transform="rotate(0.0,970.0,655.0)">
      <polyline fill="none" marker-end="url(#id302)" points="699.0,645.0 670.0,628.0" stroke="#000000" stroke-width="1"/>
      <polyline fill="none" points="529.0,560.0 540.0,571.0 807.0,727.0 795.0,747.0 821.0,762.0 836.0,736.0" stroke="#000000" stroke-width="1"/>
      <polyline fill="none" points="905.0,740.0 961.0,714.0" stroke="#000000" stroke-width="1"/>
      <path d="M905.0,740.0 C905.0,740.0 910.6666666666666,739.0 905.0,740.0 C899.3333333333334,741.0 882.5,746.6666666666666 871.0,746.0 C859.5,745.3333333333334 836.0,736.0 836.0,736.0 " fill="none" stroke="#000000" stroke-width="1"/>
      <polyline fill="none" points="552.0,537.0 563.0,548.0 822.0,700.0 833.0,681.0 858.0,695.0" stroke="#000000" stroke-width="1"/>
      <path d="M858.0,695.0 C858.0,695.0 855.8333333333334,694.3333333333334 858.0,695.0 C860.1666666666666,695.6666666666666 866.5,698.6666666666666 871.0,699.0 C875.5,699.3333333333334 885.0,697.0 885.0,697.0 " fill="none" stroke="#000000" stroke-width="1"/>
      <polyline fill="none" points="885.0,697.0 941.0,671.0" stroke="#000000" stroke-width="1"/>
      <polyline fill="none" points="961.0,714.0" stroke="#000000" stroke-width="1"/>
      <polyline fill="none" points="954.0,699.0 898.0,725.0" stroke="#000000" stroke-width="1"/>
      <polyline fill="none" points="843.0,721.0 850.0,709.0" stroke="#000000" stroke-width="1"/>
      <polyline fill="none" points="892.0,711.0 948.0,686.0" stroke="#000000" stroke-width="1"/>
      <path d="M892.0,711.0 C892.0,711.0 895.5,710.1666666666666 892.0,711.0 C888.5,711.8333333333334 878.0,716.3333333333334 871.0,716.0 C864.0,715.6666666666666 850.0,709.0 850.0,709.0 " fill="none" stroke="#000000" stroke-width="1"/>
      <path d="M898.0,725.0 C898.0,725.0 902.5,724.1666666666666 898.0,725.0 C893.5,725.8333333333334 880.1666666666666,730.6666666666666 871.0,730.0 C861.8333333333334,729.3333333333334 843.0,721.0 843.0,721.0 " fill="none" stroke="#000000" stroke-width="1"/>
      <line stroke="#000000" stroke-width="1" x1="939.0" x2="946.0" y1="672.0" y2="687.0"/>
      <line stroke="#000000" stroke-width="1" x1="935.3523139792995" x2="942.3523139792995" y1="673.6414587093152" y2="688.6414587093152"/>
      <line stroke="#000000" stroke-width="1" x1="931.7046279585991" x2="938.7046279585991" y1="675.2829174186304" y2="690.2829174186304"/>
      <line stroke="#000000" stroke-width="1" x1="928.0569419378986" x2="935.0569419378986" y1="676.9243761279456" y2="691.9243761279456"/>
      <line stroke="#000000" stroke-width="1" x1="924.4092559171982" x2="931.4092559171982" y1="678.5658348372608" y2="693.5658348372608"/>
      <line stroke="#000000" stroke-width="1" x1="920.7615698964977" x2="927.7615698964977" y1="680.207293546576" y2="695.207293546576"/>
      <line stroke="#000000" stroke-width="1" x1="952.0" x2="959.0" y1="700.0" y2="715.0"/>
      <line stroke="#000000" stroke-width="1" x1="948.3523139792995" x2="955.3523139792995" y1="701.6414587093152" y2="716.6414587093152"/>
      <line stroke="#000000" stroke-width="1" x1="944.7046279585991" x2="951.7046279585991" y1="703.2829174186304" y2="718.2829174186304"/>
      <line stroke="#000000" stroke-width="1" x1="941.0569419378986" x2="948.0569419378986" y1="704.9243761279456" y2="719.9243761279456"/>
      <line stroke="#000000" stroke-width="1" x1="937.4092559171982" x2="944.4092559171982" y1="706.5658348372608" y2="721.5658348372608"/>
      <line stroke="#000000" stroke-width="1" x1="933.7615698964977" x2="940.7615698964977" y1="708.207293546576" y2="723.207293546576"/>
      <polygon fill="#d0d0d0" points="536.0,553.0 546.0,563.0 555.0,567.0 561.0,556.0 557.0,554.0 546.0,543.0" stroke="#000000" stroke-width="1"/>
      <polygon fill="#eeeeee" points="524.0,521.0 515.0,512.0 505.0,522.0 514.0,531.0" stroke="#eeeeee" stroke-width="1"/>
      <polyline fill="none" points="524.0,521.0 515.0,512.0 505.0,522.0 514.0,531.0" stroke="#d0d0d0" stroke-width="1"/>
      <polyline fill="none" points="489.0,530.0 495.0,524.0 508.0,537.0" stroke="#d0d0d0" stroke-width="1"/>
      <polyline fill="none" points="523.0,496.0 517.0,502.0 530.0,515.0" stroke="#d0d0d0" stroke-width="1"/>
      <polyline fill="none" marker-end="url(#id302)" points="1444.0,928.0 1414.0,928.0" stroke="#000000" stroke-width="1"/>
      <polyline fill="none" marker-end="url(#id302)" points="1086.0,881.0 1090.0,879.0 1081.0,860.0" stroke="#000000" stroke-width="1"/>
      <polyline fill="none" marker-end="url(#id302)" points="1039.0,902.0 1035.0,904.0 1027.0,887.0" stroke="#000000" stroke-width="1"/>
      <polyline fill="none" points="1506.0,946.0 1506.0,940.0 1498.0,940.0 1498.0,946.0" stroke="#000000" stroke-width="1"/>
      <polyline fill="none" points="1023.0,895.0 1034.0,919.0 1048.0,912.0 1061.0,940.0 1487.0,940.0 1487.0,947.0" stroke="#000000" stroke-width="1"/>
      <polyline fill="none" points="1517.0,947.0 1517.0,940.0 1522.0,940.0 1522.0,935.0" stroke="#000000" stroke-width="1"/>
      <path d="M1522.0,935.0 C1522.0,935.0 1521.3333333333333,935.3333333333334 1522.0,935.0 C1522.6666666666667,934.6666666666666 1525.1666666666667,934.0 1526.0,933.0 C1526.8333333333333,932.0 1527.0,930.3333333333334 1527.0,929.0 C1527.0,927.6666666666666 1526.8333333333333,926.0 1526.0,925.0 C1525.1666666666667,924.0 1522.0,923.0 1522.0,923.0 " fill="none" stroke="#000000" stroke-width="1"/>
      <polyline fill="none" points="1522.0,923.0 1522.0,917.0 1093.0,917.0 1083.0,896.0 1105.0,886.0 1094.0,862.0" stroke="#000000" stroke-width="1"/>
      <polyline fill="none" points="1069.0,876.0 1041.0,889.0" stroke="#000000" stroke-width="1"/>
      <polyline fill="none" points="1541.0,1001.0 1520.0,1001.0 1520.0,1019.0 1541.0,1019.0" stroke="#000000" stroke-width="1"/>
      <polyline fill="none" points="1463.0,1001.0 1484.0,1001.0 1484.0,1019.0 1463.0,1019.0" stroke="#000000" stroke-width="1"/>
      <line stroke="#000000" stroke-width="1" x1="1538.0" x2="1538.0" y1="1001.0" y2="1019.0"/>
      <line stroke="#000000" stroke-width="1" x1="1534.0" x2="1534.0" y1="1001.0" y2="1019.0"/>
      <line stroke="#000000" stroke-width="1" x1="1530.0" x2="1530.0" y1="1001.0" y2="1019.0"/>
      <line stroke="#000000" stroke-width="1" x1="1526.0" x2="1526.0" y1="1001.0" y2="1019.0"/>
      <line stroke="#000000" stroke-width="1" x1="1522.0" x2="1522.0" y1="1001.0" y2="1019.0"/>
      <line stroke="#000000" stroke-width="1" x1="1466.0" x2="1466.0" y1="1001.0" y2="1019.0"/>
      <line stroke="#000000" stroke-width="1" x1="1470.0" x2="1470.0" y1="1001.0" y2="1019.0"/>
      <line stroke="#000000" stroke-width="1" x1="1474.0" x2="1474.0" y1="1001.0" y2="1019.0"/>
      <line stroke="#000000" stroke-width="1" x1="1478.0" x2="1478.0" y1="1001.0" y2="1019.0"/>
      <line stroke="#000000" stroke-width="1" x1="1482.0" x2="1482.0" y1="1001.0" y2="1019.0"/>
      <line stroke="#000000" stroke-width="1" x1="1090.0" x2="1055.0" y1="911.0" y2="927.0"/>
      <line stroke="#000000" stroke-width="1" x1="1088.323767290153" x2="1053.323767290153" y1="907.3681624619982" y2="923.3681624619982"/>
      <line stroke="#000000" stroke-width="1" x1="1086.647534580306" x2="1051.647534580306" y1="903.7363249239963" y2="919.7363249239963"/>
      <line stroke="#000000" stroke-width="1" x1="1084.971301870459" x2="1049.971301870459" y1="900.1044873859945" y2="916.1044873859945"/>
      <line stroke="#000000" stroke-width="1" x1="1097.0" x2="1097.0" y1="917.0" y2="940.0"/>
      <line stroke="#000000" stroke-width="1" x1="1101.0" x2="1101.0" y1="917.0" y2="940.0"/>
      <line stroke="#000000" stroke-width="1" x1="1105.0" x2="1105.0" y1="917.0" y2="940.0"/>
      <polygon fill="#d0d0d0" points="1042.0,818.0 1046.0,816.0 1073.0,874.0 1069.0,876.0" stroke="#000000" stroke-width="1"/>
      <polygon fill="#d0d0d0" points="1014.0,831.0 1010.0,833.0 1037.0,891.0 1041.0,889.0" stroke="#000000" stroke-width="1"/>
      <polyline fill="none" points="1517.0,978.0 1517.0,1001.0 1520.0,1001.0" stroke="#d0d0d0" stroke-width="1"/>
      <polyline fill="none" points="1487.0,978.0 1487.0,1001.0 1484.0,1001.0" stroke="#d0d0d0" stroke-width="1"/>
      <polyline fill="none" points="1520.0,1019.0 1506.0,1019.0 1506.0,978.0" stroke="#d0d0d0" stroke-width="1"/>
      <polyline fill="none" points="1498.0,978.0 1498.0,1019.0 1484.0,1019.0" stroke="#d0d0d0" stroke-width="1"/>
      <line stroke="#d0d0d0" stroke-width="1" x1="1487.0" x2="1498.0" y1="988.0" y2="988.0"/>
      <line stroke="#d0d0d0" stroke-width="1" x1="1487.0" x2="1498.0" y1="992.0" y2="992.0"/>
      <line stroke="#d0d0d0" stroke-width="1" x1="1487.0" x2="1498.0" y1="996.0" y2="996.0"/>
      <line stroke="#d0d0d0" stroke-width="1" x1="1506.0" x2="1517.0" y1="988.0" y2="988.0"/>
      <line stroke="#d0d0d0" stroke-width="1" x1="1506.0" x2="1517.0" y1="992.0" y2="992.0"/>
      <line stroke="#d0d0d0" stroke-width="1" x1="1506.0" x2="1517.0" y1="996.0" y2="996.0"/>
    </g>
    <g fill="#d0d0d0" fill-opacity="0.8" stroke="#d0d0d0" stroke-opacity="0.8" transform="rotate(0.0,970.0,655.0)">
      <polygon fill="#ffffff" points="979.0,618.0 1009.0,604.0 1016.0,618.0 985.0,632.0" stroke="#ffffff" stroke-width="1"/>
      <polygon fill="#ffffff" points="1035.0,661.0 1006.0,675.0 1013.0,689.0 1042.0,675.0" stroke="#ffffff" stroke-width="1"/>
      <polygon fill="#ffffff" points="1164.0,915.0 1176.0,941.0 1202.0,942.0 1190.0,916.0" stroke="#ffffff" stroke-width="1"/>
    </g>
    <g fill="#ffffff" fill-opacity="1.0" stroke="#ffffff" stroke-opacity="1.0" transform="rotate(0.0,970.0,655.0)">
      <polyline fill="none" points="995.0,698.0 1050.0,672.0 1134.0,852.0" stroke="#000000" stroke-width="1"/>
      <polyline fill="none" points="1163.0,914.0 1187.0,965.0 1187.0,1031.0 1252.0,1031.0 1252.0,1048.0 1261.0,1048.0" stroke="#000000" stroke-width="1"/>
      <polyline fill="none" points="988.0,683.0 1043.0,657.0 1023.0,615.0 968.0,641.0" stroke="#000000" stroke-width="1"/>
      <polyline fill="none" points="961.0,626.0 1039.0,590.0 1156.0,842.0" stroke="#000000" stroke-width="1"/>
      <polyline fill="none" points="1185.0,904.0 1211.0,960.0 1211.0,993.0 1252.0,993.0 1252.0,977.0 1261.0,977.0" stroke="#000000" stroke-width="1"/>
      <polyline fill="none" points="1268.0,997.0 1268.0,1027.0" stroke="#000000" stroke-width="1"/>
      <line stroke="#000000" stroke-width="1" x1="970.0" x2="963.0" y1="640.0" y2="625.0"/>
      <line stroke="#000000" stroke-width="1" x1="973.6149513555741" x2="966.6149513555741" y1="638.2876546210438" y2="623.2876546210438"/>
      <line stroke="#000000" stroke-width="1" x1="977.2299027111483" x2="970.2299027111483" y1="636.5753092420875" y2="621.5753092420875"/>
      <line stroke="#000000" stroke-width="1" x1="980.8448540667224" x2="973.8448540667224" y1="634.8629638631313" y2="619.8629638631313"/>
      <line stroke="#000000" stroke-width="1" x1="984.4598054222965" x2="977.4598054222965" y1="633.1506184841751" y2="618.1506184841751"/>
      <line stroke="#000000" stroke-width="1" x1="988.0747567778707" x2="981.0747567778707" y1="631.4382731052189" y2="616.4382731052189"/>
      <line stroke="#000000" stroke-width="1" x1="997.0" x2="990.0" y1="697.0" y2="682.0"/>
      <line stroke="#000000" stroke-width="1" x1="1000.6149513555741" x2="993.6149513555741" y1="695.2876546210438" y2="680.2876546210438"/>
      <line stroke="#000000" stroke-width="1" x1="1004.2299027111483" x2="997.2299027111483" y1="693.5753092420875" y2="678.5753092420875"/>
      <line stroke="#000000" stroke-width="1" x1="1007.8448540667224" x2="1000.8448540667224" y1="691.8629638631313" y2="676.8629638631313"/>
      <line stroke="#000000" stroke-width="1" x1="1011.4598054222965" x2="1004.4598054222965" y1="690.1506184841751" y2="675.1506184841751"/>
      <line stroke="#000000" stroke-width="1" x1="1015.0747567778707" x2="1008.0747567778707" y1="688.4382731052189" y2="673.4382731052189"/>
      <line stroke="#000000" stroke-width="1" x1="1211.0" x2="1187.0" y1="971.0" y2="971.0"/>
      <line stroke="#000000" stroke-width="1" x1="1211.0" x2="1187.0" y1="975.0" y2="975.0"/>
      <line stroke="#000000" stroke-width="1" x1="1211.0" x2="1187.0" y1="979.0" y2="979.0"/>
      <line stroke="#000000" stroke-width="1" x1="1211.0" x2="1187.0" y1="983.0" y2="983.0"/>
      <line stroke="#000000" stroke-width="1" x1="1227.0" x2="1227.0" y1="993.0" y2="1031.0"/>
      <line stroke="#000000" stroke-width="1" x1="1231.0" x2="1231.0" y1="993.0" y2="1031.0"/>
      <line stroke="#000000" stroke-width="1" x1="1235.0" x2="1235.0" y1="993.0" y2="1031.0"/>
      <line stroke="#000000" stroke-width="1" x1="1239.0" x2="1239.0" y1="993.0" y2="1031.0"/>
      <line stroke="#000000" stroke-width="1" x1="1243.0" x2="1243.0" y1="993.0" y2="1031.0"/>
      <line stroke="#000000" stroke-width="1" x1="1247.0" x2="1247.0" y1="993.0" y2="1031.0"/>
      <polygon fill="#d0d0d0" points="1268.0,997.0 1268.0,993.0 1359.0,993.0 1359.0,997.0" stroke="#000000" stroke-width="1"/>
      <polygon fill="#d0d0d0" points="1268.0,1031.0 1268.0,1027.0 1359.0,1027.0 1359.0,1031.0" stroke="#000000" stroke-width="1"/>
      <line stroke="#7f7f7f" stroke-width="1" x1="1158.0" x2="1177.0" y1="900.0" y2="891.0"/>
      <line stroke="#7f7f7f" stroke-width="1" x1="1156.3084581386754" x2="1175.3084581386754" y1="896.3752674400189" y2="887.3752674400189"/>
      <line stroke="#7f7f7f" stroke-width="1" x1="1154.6169162773508" x2="1173.6169162773508" y1="892.7505348800378" y2="883.7505348800378"/>
      <line stroke="#7f7f7f" stroke-width="1" x1="1152.9253744160262" x2="1171.9253744160262" y1="889.1258023200567" y2="880.1258023200567"/>
      <line stroke="#7f7f7f" stroke-width="1" x1="1151.2338325547016" x2="1170.2338325547016" y1="885.5010697600756" y2="876.5010697600756"/>
      <line stroke="#7f7f7f" stroke-width="1" x1="1149.542290693377" x2="1168.542290693377" y1="881.8763372000944" y2="872.8763372000944"/>
      <line stroke="#7f7f7f" stroke-width="1" x1="1147.8507488320524" x2="1166.8507488320524" y1="878.2516046401133" y2="869.2516046401133"/>
      <line stroke="#7f7f7f" stroke-width="1" x1="1146.1592069707278" x2="1165.1592069707278" y1="874.6268720801322" y2="865.6268720801322"/>
      <line stroke="#7f7f7f" stroke-width="1" x1="1144.4676651094032" x2="1163.4676651094032" y1="871.0021395201511" y2="862.0021395201511"/>
      <line stroke="#7f7f7f" stroke-width="1" x1="1142.7761232480786" x2="1161.7761232480786" y1="867.37740696017" y2="858.37740696017"/>
      <line stroke="#7f7f7f" stroke-width="1" x1="1141.084581386754" x2="1160.084581386754" y1="863.7526744001889" y2="854.7526744001889"/>
      <line stroke="#7f7f7f" stroke-width="1" x1="1139.3930395254295" x2="1158.3930395254295" y1="860.1279418402078" y2="851.1279418402078"/>
      <line stroke="#7f7f7f" stroke-width="1" x1="1137.7014976641049" x2="1156.7014976641049" y1="856.5032092802267" y2="847.5032092802267"/>
      <polygon fill="#9b5509" points="1183.0,905.0 1154.0,843.0 1156.0,842.0 1185.0,904.0" stroke="#000000" stroke-width="1"/>
      <polygon fill="#9b5509" points="1179.0,907.0 1176.0,908.0 1147.0,846.0 1150.0,845.0" stroke="#000000" stroke-width="1"/>
      <polygon fill="#9b5509" points="1172.0,910.0 1169.0,911.0 1140.0,849.0 1143.0,848.0" stroke="#000000" stroke-width="1"/>
      <polygon fill="#9b5509" points="1165.0,913.0 1136.0,851.0 1134.0,852.0 1163.0,914.0" stroke="#000000" stroke-width="1"/>
      <polyline fill="none" marker-end="url(#id302)" points="1097.0,745.0 1111.0,775.0" stroke="#000000" stroke-width="1"/>
      <polyline fill="none" marker-end="url(#id302)" points="1261.0,990.0 1261.0,985.0 1277.0,985.0" stroke="#000000" stroke-width="1"/>
      <polyline fill="none" marker-end="url(#id302)" points="1261.0,1035.0 1261.0,1040.0 1277.0,1040.0" stroke="#000000" stroke-width="1"/>
    </g>
    <g fill="#9b5509" fill-opacity="0.85" stroke="#000000" stroke-opacity="0.85" transform="rotate(0.0,970.0,655.0)">
      <polygon fill="#ffffff" points="1042.0,886.0 1066.0,875.0 1097.0,941.0 1068.0,941.0" stroke="#ffffff" stroke-width="1"/>
    </g>
    <g fill="#ffffff" fill-opacity="1.0" stroke="#ffffff" stroke-opacity="1.0" transform="rotate(0.0,970.0,655.0)">
      <line stroke="#7f7f7f" stroke-width="1" x1="1089.0" x2="1115.0" y1="988.0" y2="976.0"/>
      <line stroke="#7f7f7f" stroke-width="1" x1="1087.2968118546805" x2="1113.2968118546805" y1="984.380725191196" y2="972.380725191196"/>
      <line stroke="#7f7f7f" stroke-width="1" x1="1085.593623709361" x2="1111.593623709361" y1="980.761450382392" y2="968.761450382392"/>
      <line stroke="#7f7f7f" stroke-width="1" x1="1083.8904355640416" x2="1109.8904355640416" y1="977.142175573588" y2="965.142175573588"/>
      <line stroke="#7f7f7f" stroke-width="1" x1="1082.187247418722" x2="1108.187247418722" y1="973.522900764784" y2="961.522900764784"/>
      <line stroke="#7f7f7f" stroke-width="1" x1="1080.4840592734026" x2="1106.4840592734026" y1="969.90362595598" y2="957.90362595598"/>
      <line stroke="#7f7f7f" stroke-width="1" x1="1078.7808711280832" x2="1104.7808711280832" y1="966.284351147176" y2="954.284351147176"/>
      <line stroke="#7f7f7f" stroke-width="1" x1="1077.0776829827637" x2="1103.0776829827637" y1="962.665076338372" y2="950.665076338372"/>
      <line stroke="#7f7f7f" stroke-width="1" x1="1075.3744948374442" x2="1101.3744948374442" y1="959.045801529568" y2="947.045801529568"/>
      <line stroke="#7f7f7f" stroke-width="1" x1="1073.6713066921247" x2="1099.6713066921247" y1="955.4265267207641" y2="943.4265267207641"/>
      <line stroke="#7f7f7f" stroke-width="1" x1="1071.9681185468053" x2="1097.9681185468053" y1="951.8072519119601" y2="939.8072519119601"/>
      <line stroke="#7f7f7f" stroke-width="1" x1="1070.2649304014858" x2="1096.2649304014858" y1="948.1879771031561" y2="936.1879771031561"/>
      <line stroke="#7f7f7f" stroke-width="1" x1="1068.5617422561663" x2="1094.5617422561663" y1="944.5687022943521" y2="932.5687022943521"/>
      <line stroke="#7f7f7f" stroke-width="1" x1="1066.8585541108469" x2="1092.8585541108469" y1="940.9494274855481" y2="928.9494274855481"/>
      <line stroke="#7f7f7f" stroke-width="1" x1="1065.1553659655274" x2="1091.1553659655274" y1="937.3301526767441" y2="925.3301526767441"/>
      <line stroke="#7f7f7f" stroke-width="1" x1="1063.452177820208" x2="1089.452177820208" y1="933.7108778679401" y2="921.7108778679401"/>
      <line stroke="#7f7f7f" stroke-width="1" x1="1061.7489896748884" x2="1087.7489896748884" y1="930.0916030591361" y2="918.0916030591361"/>
      <line stroke="#7f7f7f" stroke-width="1" x1="1060.045801529569" x2="1086.045801529569" y1="926.4723282503321" y2="914.4723282503321"/>
      <line stroke="#7f7f7f" stroke-width="1" x1="1058.3426133842495" x2="1084.3426133842495" y1="922.8530534415281" y2="910.8530534415281"/>
      <line stroke="#7f7f7f" stroke-width="1" x1="1056.63942523893" x2="1082.63942523893" y1="919.2337786327241" y2="907.2337786327241"/>
      <line stroke="#7f7f7f" stroke-width="1" x1="1054.9362370936105" x2="1080.9362370936105" y1="915.6145038239201" y2="903.6145038239201"/>
      <line stroke="#7f7f7f" stroke-width="1" x1="1053.233048948291" x2="1079.233048948291" y1="911.9952290151161" y2="899.9952290151161"/>
      <line stroke="#7f7f7f" stroke-width="1" x1="1051.5298608029716" x2="1077.5298608029716" y1="908.3759542063121" y2="896.3759542063121"/>
      <line stroke="#7f7f7f" stroke-width="1" x1="1049.8266726576521" x2="1075.8266726576521" y1="904.7566793975082" y2="892.7566793975082"/>
      <line stroke="#7f7f7f" stroke-width="1" x1="1048.1234845123327" x2="1074.1234845123327" y1="901.1374045887042" y2="889.1374045887042"/>
      <line stroke="#7f7f7f" stroke-width="1" x1="1046.4202963670132" x2="1072.4202963670132" y1="897.5181297799002" y2="885.5181297799002"/>
      <line stroke="#7f7f7f" stroke-width="1" x1="1044.7171082216937" x2="1070.7171082216937" y1="893.8988549710962" y2="881.8988549710962"/>
      <line stroke="#7f7f7f" stroke-width="1" x1="1043.0139200763742" x2="1069.0139200763742" y1="890.2795801622922" y2="878.2795801622922"/>
      <line stroke="#7f7f7f" stroke-width="1" x1="1041.3107319310548" x2="1067.3107319310548" y1="886.6603053534882" y2="874.6603053534882"/>
      <line stroke="#7f7f7f" stroke-width="1" x1="1039.6075437857353" x2="1065.6075437857353" y1="883.0410305446842" y2="871.0410305446842"/>
      <line stroke="#7f7f7f" stroke-width="1" x1="1037.9043556404158" x2="1063.9043556404158" y1="879.4217557358802" y2="867.4217557358802"/>
      <line stroke="#7f7f7f" stroke-width="1" x1="1036.2011674950963" x2="1062.2011674950963" y1="875.8024809270762" y2="863.8024809270762"/>
      <line stroke="#7f7f7f" stroke-width="1" x1="1034.4979793497769" x2="1060.4979793497769" y1="872.1832061182722" y2="860.1832061182722"/>
      <line stroke="#7f7f7f" stroke-width="1" x1="1032.7947912044574" x2="1058.7947912044574" y1="868.5639313094682" y2="856.5639313094682"/>
      <line stroke="#7f7f7f" stroke-width="1" x1="1031.091603059138" x2="1057.091603059138" y1="864.9446565006642" y2="852.9446565006642"/>
      <line stroke="#7f7f7f" stroke-width="1" x1="1029.3884149138185" x2="1055.3884149138185" y1="861.3253816918602" y2="849.3253816918602"/>
      <line stroke="#7f7f7f" stroke-width="1" x1="1027.685226768499" x2="1053.685226768499" y1="857.7061068830562" y2="845.7061068830562"/>
      <line stroke="#7f7f7f" stroke-width="1" x1="1025.9820386231795" x2="1051.9820386231795" y1="854.0868320742522" y2="842.0868320742522"/>
      <line stroke="#7f7f7f" stroke-width="1" x1="1024.27885047786" x2="1050.27885047786" y1="850.4675572654482" y2="838.4675572654482"/>
      <line stroke="#7f7f7f" stroke-width="1" x1="1022.5756623325406" x2="1048.5756623325406" y1="846.8482824566443" y2="834.8482824566443"/>
      <line stroke="#7f7f7f" stroke-width="1" x1="1020.8724741872211" x2="1046.872474187221" y1="843.2290076478403" y2="831.2290076478403"/>
      <line stroke="#7f7f7f" stroke-width="1" x1="1019.1692860419016" x2="1045.1692860419016" y1="839.6097328390363" y2="827.6097328390363"/>
      <line stroke="#7f7f7f" stroke-width="1" x1="1017.4660978965821" x2="1043.4660978965821" y1="835.9904580302323" y2="823.9904580302323"/>
      <polygon fill="#9b5509" points="1116.0,981.0 1040.0,819.0 1042.0,818.0 1118.0,980.0" stroke="#000000" stroke-width="1"/>
      <polygon fill="#9b5509" points="1111.0,983.0 1107.0,985.0 1031.0,823.0 1035.0,821.0" stroke="#000000" stroke-width="1"/>
      <polygon fill="#9b5509" points="1102.0,987.0 1098.0,989.0 1022.0,827.0 1026.0,825.0" stroke="#000000" stroke-width="1"/>
      <polygon fill="#9b5509" points="1092.0,992.0 1016.0,830.0 1014.0,831.0 1090.0,993.0" stroke="#000000" stroke-width="1"/>
    </g>
    <g fill="#9b5509" fill-opacity="0.85" stroke="#000000" stroke-opacity="0.85" transform="rotate(0.0,970.0,655.0)">
      <polygon fill="#ffffff" points="1184.0,999.0 1184.0,1025.0 1269.0,1025.0 1269.0,999.0" stroke="#ffffff" stroke-width="1"/>
    </g>
    <g fill="#ffffff" fill-opacity="1.0" stroke="#ffffff" stroke-opacity="1.0" transform="rotate(0.0,970.0,655.0)">
      <line stroke="#7f7f7f" stroke-width="1" x1="1337.0" x2="1337.0" y1="1025.0" y2="999.0"/>
      <line stroke="#7f7f7f" stroke-width="1" x1="1333.0" x2="1333.0" y1="1025.0" y2="999.0"/>
      <line stroke="#7f7f7f" stroke-width="1" x1="1329.0" x2="1329.0" y1="1025.0" y2="999.0"/>
      <line stroke="#7f7f7f" stroke-width="1" x1="1325.0" x2="1325.0" y1="1025.0" y2="999.0"/>
      <line stroke="#7f7f7f" stroke-width="1" x1="1321.0" x2="1321.0" y1="1025.0" y2="999.0"/>
      <line stroke="#7f7f7f" stroke-width="1" x1="1317.0" x2="1317.0" y1="1025.0" y2="999.0"/>
      <line stroke="#7f7f7f" stroke-width="1" x1="1313.0" x2="1313.0" y1="1025.0" y2="999.0"/>
      <line stroke="#7f7f7f" stroke-width="1" x1="1309.0" x2="1309.0" y1="1025.0" y2="999.0"/>
      <line stroke="#7f7f7f" stroke-width="1" x1="1305.0" x2="1305.0" y1="1025.0" y2="999.0"/>
      <line stroke="#7f7f7f" stroke-width="1" x1="1301.0" x2="1301.0" y1="1025.0" y2="999.0"/>
      <line stroke="#7f7f7f" stroke-width="1" x1="1297.0" x2="1297.0" y1="1025.0" y2="999.0"/>
      <line stroke="#7f7f7f" stroke-width="1" x1="1293.0" x2="1293.0" y1="1025.0" y2="999.0"/>
      <line stroke="#7f7f7f" stroke-width="1" x1="1289.0" x2="1289.0" y1="1025.0" y2="999.0"/>
      <line stroke="#7f7f7f" stroke-width="1" x1="1285.0" x2="1285.0" y1="1025.0" y2="999.0"/>
      <line stroke="#7f7f7f" stroke-width="1" x1="1281.0" x2="1281.0" y1="1025.0" y2="999.0"/>
      <line stroke="#7f7f7f" stroke-width="1" x1="1277.0" x2="1277.0" y1="1025.0" y2="999.0"/>
      <line stroke="#7f7f7f" stroke-width="1" x1="1273.0" x2="1273.0" y1="1025.0" y2="999.0"/>
      <line stroke="#7f7f7f" stroke-width="1" x1="1269.0" x2="1269.0" y1="1025.0" y2="999.0"/>
      <line stroke="#7f7f7f" stroke-width="1" x1="1265.0" x2="1265.0" y1="1025.0" y2="999.0"/>
      <line stroke="#7f7f7f" stroke-width="1" x1="1261.0" x2="1261.0" y1="1025.0" y2="999.0"/>
      <line stroke="#7f7f7f" stroke-width="1" x1="1257.0" x2="1257.0" y1="1025.0" y2="999.0"/>
      <line stroke="#7f7f7f" stroke-width="1" x1="1253.0" x2="1253.0" y1="1025.0" y2="999.0"/>
      <line stroke="#7f7f7f" stroke-width="1" x1="1249.0" x2="1249.0" y1="1025.0" y2="999.0"/>
      <line stroke="#7f7f7f" stroke-width="1" x1="1245.0" x2="1245.0" y1="1025.0" y2="999.0"/>
      <line stroke="#7f7f7f" stroke-width="1" x1="1241.0" x2="1241.0" y1="1025.0" y2="999.0"/>
      <line stroke="#7f7f7f" stroke-width="1" x1="1237.0" x2="1237.0" y1="1025.0" y2="999.0"/>
      <line stroke="#7f7f7f" stroke-width="1" x1="1233.0" x2="1233.0" y1="1025.0" y2="999.0"/>
      <line stroke="#7f7f7f" stroke-width="1" x1="1229.0" x2="1229.0" y1="1025.0" y2="999.0"/>
      <line stroke="#7f7f7f" stroke-width="1" x1="1225.0" x2="1225.0" y1="1025.0" y2="999.0"/>
      <line stroke="#7f7f7f" stroke-width="1" x1="1221.0" x2="1221.0" y1="1025.0" y2="999.0"/>
      <line stroke="#7f7f7f" stroke-width="1" x1="1217.0" x2="1217.0" y1="1025.0" y2="999.0"/>
      <line stroke="#7f7f7f" stroke-width="1" x1="1213.0" x2="1213.0" y1="1025.0" y2="999.0"/>
      <line stroke="#7f7f7f" stroke-width="1" x1="1209.0" x2="1209.0" y1="1025.0" y2="999.0"/>
      <line stroke="#7f7f7f" stroke-width="1" x1="1205.0" x2="1205.0" y1="1025.0" y2="999.0"/>
      <line stroke="#7f7f7f" stroke-width="1" x1="1201.0" x2="1201.0" y1="1025.0" y2="999.0"/>
      <line stroke="#7f7f7f" stroke-width="1" x1="1197.0" x2="1197.0" y1="1025.0" y2="999.0"/>
      <line stroke="#7f7f7f" stroke-width="1" x1="1193.0" x2="1193.0" y1="1025.0" y2="999.0"/>
      <line stroke="#7f7f7f" stroke-width="1" x1="1189.0" x2="1189.0" y1="1025.0" y2="999.0"/>
      <line stroke="#7f7f7f" stroke-width="1" x1="1185.0" x2="1185.0" y1="1025.0" y2="999.0"/>
      <line stroke="#7f7f7f" stroke-width="1" x1="1181.0" x2="1181.0" y1="1025.0" y2="999.0"/>
      <line stroke="#7f7f7f" stroke-width="1" x1="1177.0" x2="1177.0" y1="1025.0" y2="999.0"/>
      <line stroke="#7f7f7f" stroke-width="1" x1="1173.0" x2="1173.0" y1="1025.0" y2="999.0"/>
      <line stroke="#7f7f7f" stroke-width="1" x1="1169.0" x2="1169.0" y1="1025.0" y2="999.0"/>
      <line stroke="#7f7f7f" stroke-width="1" x1="1165.0" x2="1165.0" y1="1025.0" y2="999.0"/>
      <line stroke="#7f7f7f" stroke-width="1" x1="1161.0" x2="1161.0" y1="1025.0" y2="999.0"/>
      <line stroke="#7f7f7f" stroke-width="1" x1="1157.0" x2="1157.0" y1="1025.0" y2="999.0"/>
      <polygon fill="#9b5509" points="1344.0,999.0 1151.0,999.0 1151.0,997.0 1344.0,997.0" stroke="#000000" stroke-width="1"/>
      <polygon fill="#9b5509" points="1344.0,1005.0 1344.0,1009.0 1151.0,1009.0 1151.0,1005.0" stroke="#000000" stroke-width="1"/>
      <polygon fill="#9b5509" points="1344.0,1015.0 1344.0,1019.0 1151.0,1019.0 1151.0,1015.0" stroke="#000000" stroke-width="1"/>
      <polygon fill="#9b5509" points="1344.0,1025.0 1151.0,1025.0 1151.0,1027.0 1344.0,1027.0" stroke="#000000" stroke-width="1"/>
      <polygon fill="#fefbf1" points="1029.0,1026.0 1046.0,1062.0 1080.0,1046.0 1074.0,1037.0 1070.0,1029.0 1068.0,1019.0 1067.0,1010.0 1068.0,1002.0 1071.0,993.0 1076.0,985.0 1082.0,979.0 1090.0,995.0 1120.0,980.0 1112.0,963.0 1120.0,963.0 1129.0,965.0 1126.0,970.0 1152.0,988.0 1156.0,983.0 1160.0,990.0 1161.0,996.0 1150.0,996.0 1150.0,1028.0 1163.0,1028.0 1161.0,1034.0 1158.0,1040.0 1154.0,1045.0 1149.0,1050.0 1144.0,1053.0 1138.0,1057.0 1030.0,1107.0 999.0,1040.0" stroke="#fefbf1" stroke-width="1"/>
      <polyline fill="none" points="1138.0,1057.0 1030.0,1107.0 999.0,1040.0 1005.0,1037.0" stroke="#000000" stroke-width="1"/>
      <polyline fill="none" points="1080.0,1046.0 1046.0,1062.0 1029.0,1026.0 1023.0,1029.0" stroke="#000000" stroke-width="1"/>
      <polyline fill="none" points="1129.0,965.0 1126.0,970.0" stroke="#000000" stroke-width="1"/>
      <polyline fill="none" points="1156.0,983.0 1152.0,988.0" stroke="#000000" stroke-width="1"/>
      <path d="M1129.0,965.0 C1129.0,965.0 1130.5,965.3333333333334 1129.0,965.0 C1127.5,964.6666666666666 1123.1666666666667,963.3333333333334 1120.0,963.0 C1116.8333333333333,962.6666666666666 1110.0,963.0 1110.0,963.0 " fill="none" stroke="#000000" stroke-width="1"/>
      <path d="M1163.0,997.0 C1163.0,997.0 1163.5,998.1666666666666 1163.0,997.0 C1162.5,995.8333333333334 1161.1666666666667,992.3333333333334 1160.0,990.0 C1158.8333333333333,987.6666666666666 1156.0,983.0 1156.0,983.0 " fill="none" stroke="#000000" stroke-width="1"/>
      <path d="M1082.0,977.0 C1082.0,977.0 1083.8333333333333,974.3333333333334 1082.0,977.0 C1080.1666666666667,979.6666666666666 1073.5,987.5 1071.0,993.0 C1068.5,998.5 1067.1666666666667,1004.0 1067.0,1010.0 C1066.8333333333333,1016.0 1067.8333333333333,1023.0 1070.0,1029.0 C1072.1666666666667,1035.0 1080.0,1046.0 1080.0,1046.0 " fill="none" stroke="#000000" stroke-width="1"/>
      <path d="M1138.0,1057.0 C1138.0,1057.0 1136.1666666666667,1058.1666666666667 1138.0,1057.0 C1139.8333333333333,1055.8333333333333 1145.6666666666667,1052.8333333333333 1149.0,1050.0 C1152.3333333333333,1047.1666666666667 1155.5,1043.8333333333333 1158.0,1040.0 C1160.5,1036.1666666666667 1164.0,1027.0 1164.0,1027.0 " fill="none" stroke="#000000" stroke-width="1"/>
      <polyline fill="none" points="1016.0,1077.0 1008.0,1081.0 1019.0,1105.0 1027.0,1101.0" stroke="#000000" stroke-width="1"/>
      <text fill="#000000" font-family="Arial" font-size="10.0" stroke="none" stroke-width="0" transform="rotate(65.0,1019.0,1077.0)" x="1019.0" y="1087.0">кассы</text>
      <polygon fill="none" points="1074.0,1076.0 1072.0,1081.0 1077.0,1083.0 1079.0,1078.0" stroke="#000000" stroke-width="1"/>
      <line stroke="#009900" stroke-width="1" x1="1076.0" x2="1079.0" y1="1073.0" y2="1074.0"/>
      <line stroke="#009900" stroke-width="1" x1="1077.1763433953502" x2="1080.1763433953502" y1="1069.1768839651122" y2="1070.1768839651122"/>
      <line stroke="#009900" stroke-width="1" x1="1078.3526867907003" x2="1081.3526867907003" y1="1065.3537679302244" y2="1066.3537679302244"/>
      <line stroke="#009900" stroke-width="1" x1="1079.5290301860505" x2="1082.5290301860505" y1="1061.5306518953366" y2="1062.5306518953366"/>
      <line stroke="#009900" stroke-width="1" x1="1080.0" x2="1083.0" y1="1058.0" y2="1057.0"/>
      <line stroke="#009900" stroke-width="1" x1="1078.5955062336463" x2="1081.5955062336463" y1="1054.2546832897237" y2="1053.2546832897237"/>
      <line stroke="#009900" stroke-width="1" x1="1077.1910124672927" x2="1080.1910124672927" y1="1050.5093665794475" y2="1049.5093665794475"/>
      <line stroke="#ff0000" stroke-width="1" x1="1129.0" x2="1131.0" y1="972.0" y2="969.0"/>
      <line stroke="#ff0000" stroke-width="1" x1="1132.2769276820761" x2="1134.2769276820761" y1="974.2938493774533" y2="971.2938493774533"/>
      <line stroke="#ff0000" stroke-width="1" x1="1135.5538553641522" x2="1137.5538553641522" y1="976.5876987549066" y2="973.5876987549066"/>
      <line stroke="#ff0000" stroke-width="1" x1="1138.8307830462284" x2="1140.8307830462284" y1="978.8815481323599" y2="975.8815481323599"/>
      <line stroke="#ff0000" stroke-width="1" x1="1142.1077107283045" x2="1144.1077107283045" y1="981.1753975098131" y2="978.1753975098131"/>
      <line stroke="#ff0000" stroke-width="1" x1="1145.3846384103806" x2="1147.3846384103806" y1="983.4692468872664" y2="980.4692468872664"/>
      <line stroke="#ff0000" stroke-width="1" x1="1148.6615660924567" x2="1150.6615660924567" y1="985.7630962647197" y2="982.7630962647197"/>
      <polyline fill="none" marker-end="url(#id302)" points="1125.0,997.0 1134.0,983.0" stroke="#ff0000" stroke-width="1"/>
      <polyline fill="none" marker-end="url(#id302)" points="1047.0,1078.0 1060.0,1072.0" stroke="#009900" stroke-width="1"/>
      <polygon fill="#34349c" points="1071.0,1011.0 1071.0,1007.0 1070.0,1007.0 1070.0,1011.0" stroke="#34349c" stroke-width="1"/>
      <polygon fill="#ff0000" points="1071.0,1015.0 1071.0,1011.0 1070.0,1011.0 1070.0,1015.0" stroke="#ff0000" stroke-width="1"/>
      <polygon fill="#fefbf1" points="1787.0,1082.0 1807.0,1065.0 1799.0,1057.0 1791.0,1048.0 1786.0,1038.0 1783.0,1028.0 1814.0,1028.0 1814.0,998.0 1783.0,998.0 1788.0,985.0 1795.0,974.0 1804.0,965.0 1816.0,957.0 1828.0,952.0 1840.0,950.0 1853.0,951.0 1869.0,955.0 1881.0,962.0 1893.0,973.0 1901.0,986.0 1906.0,999.0 1908.0,1015.0 1906.0,1030.0 1899.0,1045.0 1888.0,1060.0 1818.0,1119.0 1807.0,1106.0 1834.0,1083.0 1823.0,1079.0 1800.0,1098.0" stroke="#fefbf1" stroke-width="1"/>
      <polyline fill="none" points="1711.0,977.0 1711.0,987.0 1638.0,987.0 1638.0,998.0" stroke="#000000" stroke-width="1"/>
      <polyline fill="none" points="1711.0,1048.0 1711.0,1038.0 1638.0,1038.0 1638.0,1028.0" stroke="#000000" stroke-width="1"/>
      <polyline fill="none" points="1824.0,1126.0 1818.0,1119.0 1888.0,1060.0" stroke="#000000" stroke-width="1"/>
      <path d="M1888.0,1060.0 C1888.0,1060.0 1885.0,1065.0 1888.0,1060.0 C1891.0,1055.0 1903.0,1040.1666666666667 1906.0,1030.0 C1909.0,1019.8333333333334 1908.1666666666667,1008.5 1906.0,999.0 C1903.8333333333333,989.5 1899.1666666666667,980.3333333333334 1893.0,973.0 C1886.8333333333333,965.6666666666666 1877.8333333333333,958.8333333333334 1869.0,955.0 C1860.1666666666667,951.1666666666666 1848.8333333333333,949.6666666666666 1840.0,950.0 C1831.1666666666667,950.3333333333334 1823.5,953.0 1816.0,957.0 C1808.5,961.0 1800.5,967.1666666666666 1795.0,974.0 C1789.5,980.8333333333334 1783.0,998.0 1783.0,998.0 " fill="none" stroke="#000000" stroke-width="1"/>
      <path d="M1783.0,1028.0 C1783.0,1028.0 1781.6666666666667,1024.6666666666667 1783.0,1028.0 C1784.3333333333333,1031.3333333333333 1787.0,1041.8333333333333 1791.0,1048.0 C1795.0,1054.1666666666667 1807.0,1065.0 1807.0,1065.0 " fill="none" stroke="#000000" stroke-width="1"/>
      <polyline fill="none" points="1807.0,1065.0 1787.0,1082.0 1780.0,1074.0" stroke="#000000" stroke-width="1"/>
      <polyline fill="none" points="1823.0,1079.0 1834.0,1083.0 1807.0,1106.0 1800.0,1098.0 1823.0,1079.0" stroke="#000000" stroke-width="1"/>
      <line stroke="#7f7f7f" stroke-width="1" x1="1807.0" x2="1807.0" y1="1026.0" y2="1000.0"/>
      <line stroke="#7f7f7f" stroke-width="1" x1="1803.0" x2="1803.0" y1="1026.0" y2="1000.0"/>
      <line stroke="#7f7f7f" stroke-width="1" x1="1799.0" x2="1799.0" y1="1026.0" y2="1000.0"/>
      <line stroke="#7f7f7f" stroke-width="1" x1="1795.0" x2="1795.0" y1="1026.0" y2="1000.0"/>
      <line stroke="#7f7f7f" stroke-width="1" x1="1791.0" x2="1791.0" y1="1026.0" y2="1000.0"/>
      <line stroke="#7f7f7f" stroke-width="1" x1="1787.0" x2="1787.0" y1="1026.0" y2="1000.0"/>
      <line stroke="#7f7f7f" stroke-width="1" x1="1783.0" x2="1783.0" y1="1026.0" y2="1000.0"/>
      <line stroke="#7f7f7f" stroke-width="1" x1="1779.0" x2="1779.0" y1="1026.0" y2="1000.0"/>
      <line stroke="#7f7f7f" stroke-width="1" x1="1775.0" x2="1775.0" y1="1026.0" y2="1000.0"/>
      <line stroke="#7f7f7f" stroke-width="1" x1="1771.0" x2="1771.0" y1="1026.0" y2="1000.0"/>
      <line stroke="#7f7f7f" stroke-width="1" x1="1767.0" x2="1767.0" y1="1026.0" y2="1000.0"/>
      <line stroke="#7f7f7f" stroke-width="1" x1="1763.0" x2="1763.0" y1="1026.0" y2="1000.0"/>
      <line stroke="#7f7f7f" stroke-width="1" x1="1759.0" x2="1759.0" y1="1026.0" y2="1000.0"/>
      <line stroke="#7f7f7f" stroke-width="1" x1="1755.0" x2="1755.0" y1="1026.0" y2="1000.0"/>
      <line stroke="#7f7f7f" stroke-width="1" x1="1751.0" x2="1751.0" y1="1026.0" y2="1000.0"/>
      <line stroke="#7f7f7f" stroke-width="1" x1="1747.0" x2="1747.0" y1="1026.0" y2="1000.0"/>
      <line stroke="#7f7f7f" stroke-width="1" x1="1743.0" x2="1743.0" y1="1026.0" y2="1000.0"/>
      <line stroke="#7f7f7f" stroke-width="1" x1="1739.0" x2="1739.0" y1="1026.0" y2="1000.0"/>
      <line stroke="#7f7f7f" stroke-width="1" x1="1735.0" x2="1735.0" y1="1026.0" y2="1000.0"/>
      <line stroke="#7f7f7f" stroke-width="1" x1="1731.0" x2="1731.0" y1="1026.0" y2="1000.0"/>
      <line stroke="#7f7f7f" stroke-width="1" x1="1727.0" x2="1727.0" y1="1026.0" y2="1000.0"/>
      <line stroke="#7f7f7f" stroke-width="1" x1="1723.0" x2="1723.0" y1="1026.0" y2="1000.0"/>
      <line stroke="#7f7f7f" stroke-width="1" x1="1719.0" x2="1719.0" y1="1026.0" y2="1000.0"/>
      <line stroke="#7f7f7f" stroke-width="1" x1="1715.0" x2="1715.0" y1="1026.0" y2="1000.0"/>
      <line stroke="#7f7f7f" stroke-width="1" x1="1711.0" x2="1711.0" y1="1026.0" y2="1000.0"/>
      <line stroke="#7f7f7f" stroke-width="1" x1="1707.0" x2="1707.0" y1="1026.0" y2="1000.0"/>
      <line stroke="#7f7f7f" stroke-width="1" x1="1703.0" x2="1703.0" y1="1026.0" y2="1000.0"/>
      <line stroke="#7f7f7f" stroke-width="1" x1="1699.0" x2="1699.0" y1="1026.0" y2="1000.0"/>
      <line stroke="#7f7f7f" stroke-width="1" x1="1695.0" x2="1695.0" y1="1026.0" y2="1000.0"/>
      <line stroke="#7f7f7f" stroke-width="1" x1="1691.0" x2="1691.0" y1="1026.0" y2="1000.0"/>
      <line stroke="#7f7f7f" stroke-width="1" x1="1687.0" x2="1687.0" y1="1026.0" y2="1000.0"/>
      <line stroke="#7f7f7f" stroke-width="1" x1="1683.0" x2="1683.0" y1="1026.0" y2="1000.0"/>
      <line stroke="#7f7f7f" stroke-width="1" x1="1679.0" x2="1679.0" y1="1026.0" y2="1000.0"/>
      <line stroke="#7f7f7f" stroke-width="1" x1="1675.0" x2="1675.0" y1="1026.0" y2="1000.0"/>
      <line stroke="#7f7f7f" stroke-width="1" x1="1671.0" x2="1671.0" y1="1026.0" y2="1000.0"/>
      <line stroke="#7f7f7f" stroke-width="1" x1="1667.0" x2="1667.0" y1="1026.0" y2="1000.0"/>
      <line stroke="#7f7f7f" stroke-width="1" x1="1663.0" x2="1663.0" y1="1026.0" y2="1000.0"/>
      <line stroke="#7f7f7f" stroke-width="1" x1="1659.0" x2="1659.0" y1="1026.0" y2="1000.0"/>
      <line stroke="#7f7f7f" stroke-width="1" x1="1655.0" x2="1655.0" y1="1026.0" y2="1000.0"/>
      <line stroke="#7f7f7f" stroke-width="1" x1="1651.0" x2="1651.0" y1="1026.0" y2="1000.0"/>
      <line stroke="#7f7f7f" stroke-width="1" x1="1647.0" x2="1647.0" y1="1026.0" y2="1000.0"/>
      <line stroke="#7f7f7f" stroke-width="1" x1="1643.0" x2="1643.0" y1="1026.0" y2="1000.0"/>
      <polygon fill="#9b5509" points="1814.0,1000.0 1638.0,1000.0 1638.0,998.0 1814.0,998.0" stroke="#000000" stroke-width="1"/>
      <polygon fill="#9b5509" points="1814.0,1006.0 1814.0,1010.0 1638.0,1010.0 1638.0,1006.0" stroke="#000000" stroke-width="1"/>
      <polygon fill="#9b5509" points="1814.0,1016.0 1814.0,1020.0 1638.0,1020.0 1638.0,1016.0" stroke="#000000" stroke-width="1"/>
      <polygon fill="#9b5509" points="1814.0,1026.0 1638.0,1026.0 1638.0,1028.0 1814.0,1028.0" stroke="#000000" stroke-width="1"/>
      <polyline fill="none" points="1888.0,1060.0 1894.0,1067.0 1870.0,1087.0 1864.0,1080.0" stroke="#000000" stroke-width="1"/>
      <text fill="#000000" font-family="Arial" font-size="10.0" stroke="none" stroke-width="0" transform="rotate(-40.0,1866.0,1076.0)" x="1866.0" y="1086.0">кассы</text>
      <polyline fill="none" points="1829.0,1081.0 1846.0,1044.0" stroke="#000000" stroke-width="0.5"/>
      <polyline fill="none" points="1875.0,983.0 1884.0,964.0" stroke="#000000" stroke-width="0.5"/>
      <polygon fill="none" points="1843.0,1042.0 1849.0,1045.0 1852.0,1039.0 1846.0,1036.0" stroke="#000000" stroke-width="1"/>
      <line stroke="#009900" stroke-width="1" x1="1853.0" x2="1849.0" y1="1035.0" y2="1033.0"/>
      <line stroke="#009900" stroke-width="1" x1="1854.680494272444" x2="1850.680494272444" y1="1031.3701323715206" y2="1029.3701323715206"/>
      <line stroke="#009900" stroke-width="1" x1="1856.3609885448882" x2="1852.3609885448882" y1="1027.7402647430413" y2="1025.7402647430413"/>
      <line stroke="#009900" stroke-width="1" x1="1858.0414828173323" x2="1854.0414828173323" y1="1024.110397114562" y2="1022.1103971145619"/>
      <line stroke="#009900" stroke-width="1" x1="1859.7219770897764" x2="1855.7219770897764" y1="1020.4805294860826" y2="1018.4805294860826"/>
      <line stroke="#009900" stroke-width="1" x1="1861.4024713622205" x2="1857.4024713622205" y1="1016.8506618576032" y2="1014.8506618576032"/>
      <line stroke="#009900" stroke-width="1" x1="1863.0829656346646" x2="1859.0829656346646" y1="1013.2207942291238" y2="1011.2207942291238"/>
      <line stroke="#009900" stroke-width="1" x1="1864.7634599071087" x2="1860.7634599071087" y1="1009.5909266006445" y2="1007.5909266006445"/>
      <line stroke="#009900" stroke-width="1" x1="1866.4439541795527" x2="1862.4439541795527" y1="1005.9610589721651" y2="1003.9610589721651"/>
      <line stroke="#009900" stroke-width="1" x1="1868.1244484519968" x2="1864.1244484519968" y1="1002.3311913436858" y2="1000.3311913436858"/>
      <line stroke="#009900" stroke-width="1" x1="1869.804942724441" x2="1865.804942724441" y1="998.7013237152064" y2="996.7013237152064"/>
      <line stroke="#009900" stroke-width="1" x1="1871.485436996885" x2="1867.485436996885" y1="995.071456086727" y2="993.071456086727"/>
      <line stroke="#009900" stroke-width="1" x1="1873.1659312693291" x2="1869.1659312693291" y1="991.4415884582477" y2="989.4415884582477"/>
      <line stroke="#009900" stroke-width="1" x1="1874.8464255417732" x2="1870.8464255417732" y1="987.8117208297683" y2="985.8117208297683"/>
      <line stroke="#009900" stroke-width="1" x1="1876.5269198142173" x2="1872.5269198142173" y1="984.181853201289" y2="982.181853201289"/>
      <line stroke="#ff0000" stroke-width="1" x1="1825.0" x2="1822.0" y1="1073.0" y2="1076.0"/>
      <line stroke="#ff0000" stroke-width="1" x1="1822.0607862214902" x2="1819.0607862214902" y1="1070.2868795890677" y2="1073.2868795890677"/>
      <line stroke="#ff0000" stroke-width="1" x1="1819.1215724429803" x2="1816.1215724429803" y1="1067.5737591781353" y2="1070.5737591781353"/>
      <line stroke="#ff0000" stroke-width="1" x1="1816.1823586644705" x2="1813.1823586644705" y1="1064.860638767203" y2="1067.860638767203"/>
      <line stroke="#ff0000" stroke-width="1" x1="1813.2431448859606" x2="1810.2431448859606" y1="1062.1475183562707" y2="1065.1475183562707"/>
      <polyline fill="none" marker-end="url(#id302)" points="1811.0,1075.0 1792.0,1091.0" stroke="#ff0000" stroke-width="1"/>
      <polyline fill="none" marker-end="url(#id302)" points="1809.0,1115.0 1827.0,1100.0" stroke="#009900" stroke-width="1"/>
      <polygon fill="#34349c" points="1803.0,1055.0 1806.0,1058.0 1805.0,1059.0 1802.0,1056.0" stroke="#34349c" stroke-width="1"/>
      <polygon fill="#ff0000" points="1800.0,1052.0 1803.0,1055.0 1802.0,1056.0 1799.0,1053.0" stroke="#ff0000" stroke-width="1"/>
      <text fill="#00afaf" font-family="Arial" font-size="15.0" stroke="none" stroke-width="0" transform="rotate(-45.0,376.0,427.0)" x="376.0" y="442.0">улица Охотный ряд</text>
      <text fill="#00afaf" font-family="Arial" font-size="15.0" stroke="none" stroke-width="0" transform="rotate(-45.0,85.0,902.0)" x="85.0" y="917.0">Моховая улица</text>
      <text fill="#00afaf" font-family="Arial" font-size="15.0" stroke="none" stroke-width="0" transform="rotate(45.0,317.0,858.0)" x="317.0" y="873.0">Манежная площадь</text>
      <text fill="#00afaf" font-family="Arial" font-size="15.0" stroke="none" stroke-width="0" transform="rotate(45.0,775.0,1177.0)" x="775.0" y="1192.0">Красная площадь &gt;&gt;</text>
      <text fill="#00afaf" font-family="Arial" font-size="15.0" stroke="none" stroke-width="0" transform="rotate(-65.0,281.0,1251.0)" x="281.0" y="1266.0">Александровский сад</text>
      <text fill="#00afaf" font-family="Arial" font-size="15.0" stroke="none" stroke-width="0" transform="rotate(45.0,35.0,538.0)" x="35.0" y="553.0">Тверская улица</text>
      <text fill="#00afaf" font-family="Arial" font-size="15.0" stroke="none" stroke-width="0" transform="rotate(75.0,795.0,14.0)" x="795.0" y="29.0">&lt;&lt; ЦУМ</text>
      <text fill="#00afaf" font-family="Arial" font-size="15.0" stroke="none" stroke-width="0" transform="rotate(-15.0,950.0,34.0)" x="950.0" y="49.0">Театральная</text>
      <text fill="#00afaf" font-family="Arial" font-size="15.0" stroke="none" stroke-width="0" transform="rotate(-15.0,954.0,49.0)" x="954.0" y="64.0">площадь</text>
      <text fill="#00afaf" font-family="Arial" font-size="15.0" stroke="none" stroke-width="0" transform="rotate(-15.0,1072.0,364.0)" x="1072.0" y="379.0">площадь Революции</text>
      <text fill="#00afaf" font-family="Arial" font-size="15.0" stroke="none" stroke-width="0" transform="rotate(45.0,456.0,25.0)" x="456.0" y="40.0">улица Большая Дмитровка</text>
      <text fill="#00afaf" font-family="Arial" font-size="15.0" stroke="none" stroke-width="0" transform="rotate(-15.0,988.0,195.0)" x="988.0" y="210.0">Театральный проезд</text>
      <text fill="#00afaf" font-family="Arial" font-size="15.0" stroke="none" stroke-width="0" transform="rotate(-15.0,1248.0,818.0)" x="1248.0" y="833.0">площадь Революции</text>
      <text fill="#00afaf" font-family="Arial" font-size="15.0" stroke="none" stroke-width="0" transform="rotate(-55.0,1493.0,900.0)" x="1493.0" y="915.0">Никольская улица</text>
      <text fill="#00afaf" font-family="Arial" font-size="15.0" stroke="none" stroke-width="0" transform="rotate(50.0,1778.0,1086.0)" x="1778.0" y="1101.0">Богоявленский переулок</text>
      <text fill="#00afaf" font-family="Arial" font-size="15.0" stroke="none" stroke-width="0" x="1098.0" y="1292.0">ГУМ</text>
      <text fill="#00afaf" font-family="Arial" font-size="15.0" stroke="none" stroke-width="0" transform="rotate(-45.0,372.0,744.0)" x="372.0" y="759.0">улица Охотный ряд</text>
      <text fill="#00afaf" font-family="Arial" font-size="15.0" stroke="none" stroke-width="0" transform="rotate(-45.0,104.0,846.0)" x="104.0" y="861.0">'&lt;&lt; ТК &quot;Охотный ряд&quot;'</text>
      <text fill="#00afaf" font-family="Arial" font-size="15.0" stroke="none" stroke-width="0" transform="rotate(-45.0,222.0,861.0)" x="222.0" y="876.0">'&lt;&lt; ТК &quot;Охотный ряд&quot;'</text>
    </g>
    <g>
      <rect fill="#615f56" height="30.0" stroke="none" stroke-width="0" width="30.0" x="51.0" y="814.0"/>
      <rect fill="#615f56" height="30.0" stroke="none" stroke-width="0" width="30.0" x="41.0" y="668.0"/>
      <rect fill="#615f56" height="30.0" stroke="none" stroke-width="0" width="30.0" x="203.0" y="514.0"/>
      <rect fill="#615f56" height="30.0" stroke="none" stroke-width="0" width="30.0" x="253.0" y="550.0"/>
      <rect fill="#615f56" height="30.0" stroke="none" stroke-width="0" width="30.0" x="385.0" y="772.0"/>
      <rect fill="#615f56" height="30.0" stroke="none" stroke-width="0" width="30.0" x="427.0" y="824.0"/>
      <rect fill="#615f56" height="30.0" stroke="none" stroke-width="0" width="30.0" x="732.0" y="1098.0"/>
      <rect fill="#615f56" height="30.0" stroke="none" stroke-width="0" width="30.0" x="590.0" y="105.0"/>
      <rect fill="#615f56" height="30.0" stroke="none" stroke-width="0" width="30.0" x="800.0" y="116.0"/>
      <rect fill="#615f56" height="30.0" stroke="none" stroke-width="0" width="30.0" x="1025.0" y="984.0"/>
      <rect fill="#615f56" height="30.0" stroke="none" stroke-width="0" width="30.0" x="1848.0" y="1110.0"/>
      <rect fill="#615f56" height="30.0" stroke="none" stroke-width="0" width="30.0" x="204.0" y="874.0"/>
      <text fill="#ffd900" font-family="Arial" font-size="25.0" stroke="none" stroke-width="0" x="59.0" y="840.0">1</text>
      <text fill="#ffd900" font-family="Arial" font-size="25.0" stroke="none" stroke-width="0" x="49.0" y="694.0">2</text>
      <text fill="#ffd900" font-family="Arial" font-size="25.0" stroke="none" stroke-width="0" x="211.0" y="540.0">3</text>
      <text fill="#ffd900" font-family="Arial" font-size="25.0" stroke="none" stroke-width="0" x="261.0" y="576.0">4</text>
      <text fill="#ffd900" font-family="Arial" font-size="25.0" stroke="none" stroke-width="0" x="393.0" y="798.0">5</text>
      <text fill="#ffd900" font-family="Arial" font-size="25.0" stroke="none" stroke-width="0" x="435.0" y="850.0">6</text>
      <text fill="#ffd900" font-family="Arial" font-size="25.0" stroke="none" stroke-width="0" x="740.0" y="1124.0">7</text>
      <text fill="#ffd900" font-family="Arial" font-size="25.0" stroke="none" stroke-width="0" x="598.0" y="131.0">8</text>
      <text fill="#ffd900" font-family="Arial" font-size="25.0" stroke="none" stroke-width="0" x="808.0" y="142.0">9</text>
      <text fill="#ffd900" font-family="Arial" font-size="25.0" stroke="none" stroke-width="0" x="1027.0" y="1010.0">10</text>
      <text fill="#ffd900" font-family="Arial" font-size="25.0" stroke="none" stroke-width="0" x="1850.0" y="1136.0">11</text>
      <text fill="#ffd900" font-family="Arial" font-size="25.0" stroke="none" stroke-width="0" x="206.0" y="900.0">12</text>
    </g>
    <g fill="none" fill-opacity="0.7" stroke="#ffd900" stroke-opacity="0.7" transform="rotate(0.0,970.0,655.0)">
      <polygon fill="#ffd0d0" points="349.0,876.0 372.0,853.0 605.0,1086.0 769.0,1087.0 769.0,1192.0 665.0,1192.0" stroke="#ffd0d0" stroke-width="1"/>
    </g>
    <g fill="#ffd0d0" fill-opacity="1.0" stroke="#ff4040" stroke-opacity="1.0" transform="rotate(0.0,970.0,655.0)">
      <text fill="#ff4040" font-family="Arial" font-size="15.0" stroke="none" stroke-width="0" x="644.0" y="1149.0">Закрыто</text>
      <polyline fill="none" points="349.0,876.0 372.0,853.0 605.0,1086.0 769.0,1087.0 769.0,1192.0 665.0,1192.0 349.0,876.0" stroke="#ff4040" stroke-dasharray="5 2" stroke-width="1"/>
    </g>
  </g>
</svg>
