<?xml version="1.0" encoding="utf-8" ?>
<svg baseProfile="full" height="970.0" version="1.1" width="830.0" xmlns="http://www.w3.org/2000/svg" xmlns:ev="http://www.w3.org/2001/xml-events" xmlns:xlink="http://www.w3.org/1999/xlink">
  <defs>
    <marker id="id307" markerHeight="3" markerUnits="strokeWidth" markerWidth="4" orient="auto" refX="0" refY="5" viewBox="0,0,10,10">
      <path d="M 0 0 L 10 5 L 0 10 z"/>
    </marker>
  </defs>
  <g>
    <rect fill="none" height="970.0" stroke="none" stroke-width="0" width="830.0" x="0.0" y="0.0"/>
    <g transform="rotate(70.0,415.0,485.0)">
      <polygon fill="#9ca4a4" points="879.0,592.0 429.0,592.0 429.0,562.0 879.0,562.0" stroke="#000000" stroke-width="1"/>
      <polygon fill="#9ca4a4" points="879.0,482.0 429.0,482.0 429.0,452.0 879.0,452.0" stroke="#000000" stroke-width="1"/>
      <text fill="#4c4c4c" font-family="Arial" font-size="20.0" stroke="none" stroke-width="0" x="429.0" y="448.0">&lt;&lt; Петровско-Разумовская</text>
      <text fill="#4c4c4c" font-family="Arial" font-size="20.0" stroke="none" stroke-width="0" x="738.0" y="612.0">Дмитровская &gt;&gt;</text>
      <text fill="#4c4c4c" font-family="Arial" font-size="25.0" stroke="none" stroke-width="0" x="562.0" y="537.0">Тимирязевская</text>
      <polygon fill="#34349c" points="660.0,515.0 660.0,511.0 661.0,511.0 661.0,515.0" stroke="#34349c" stroke-width="1"/>
      <polygon fill="#ff0000" points="660.0,519.0 660.0,515.0 661.0,515.0 661.0,519.0" stroke="#ff0000" stroke-width="1"/>
      <polyline fill="none" points="301.0,541.0 301.0,553.0 262.0,553.0 262.0,594.0 181.0,594.0 181.0,589.0 169.0,589.0 169.0,594.0 149.0,594.0 149.0,640.0 191.0,640.0" stroke="#000000" stroke-width="1"/>
      <polyline fill="none" points="191.0,661.0 149.0,661.0 149.0,775.0 191.0,775.0" stroke="#000000" stroke-width="1"/>
      <polyline fill="none" points="191.0,796.0 81.0,796.0" stroke="#000000" stroke-width="1"/>
      <polyline fill="none" points="81.0,775.0 123.0,775.0 123.0,661.0 81.0,661.0" stroke="#000000" stroke-width="1"/>
      <polyline fill="none" points="81.0,640.0 123.0,640.0 123.0,231.0 81.0,231.0" stroke="#000000" stroke-width="1"/>
      <polyline fill="none" points="227.0,362.0 149.0,362.0 149.0,450.0 169.0,450.0 169.0,456.0 181.0,456.0 181.0,450.0 262.0,450.0 262.0,488.0 301.0,488.0 301.0,501.0" stroke="#000000" stroke-width="1"/>
      <polyline fill="none" points="191.0,211.0 81.0,211.0" stroke="#000000" stroke-width="1"/>
      <polyline fill="none" points="227.0,347.0 149.0,347.0 149.0,232.0 191.0,232.0" stroke="#000000" stroke-width="1"/>
      <polyline fill="none" points="429.0,482.0 429.0,501.0 387.0,501.0" stroke="#000000" stroke-width="1"/>
      <polyline fill="none" points="429.0,562.0 429.0,541.0 387.0,541.0" stroke="#000000" stroke-width="1"/>
      <line stroke="#000000" stroke-width="1" x1="149.0" x2="149.0" y1="594.0" y2="450.0"/>
      <line stroke="#000000" stroke-width="1" x1="153.0" x2="153.0" y1="594.0" y2="450.0"/>
      <line stroke="#000000" stroke-width="1" x1="157.0" x2="157.0" y1="594.0" y2="450.0"/>
      <line stroke="#000000" stroke-width="1" x1="189.0" x2="189.0" y1="661.0" y2="640.0"/>
      <line stroke="#000000" stroke-width="1" x1="185.0" x2="185.0" y1="661.0" y2="640.0"/>
      <line stroke="#000000" stroke-width="1" x1="181.0" x2="181.0" y1="661.0" y2="640.0"/>
      <line stroke="#000000" stroke-width="1" x1="177.0" x2="177.0" y1="661.0" y2="640.0"/>
      <line stroke="#000000" stroke-width="1" x1="173.0" x2="173.0" y1="661.0" y2="640.0"/>
      <line stroke="#000000" stroke-width="1" x1="169.0" x2="169.0" y1="661.0" y2="640.0"/>
      <line stroke="#000000" stroke-width="1" x1="165.0" x2="165.0" y1="661.0" y2="640.0"/>
      <line stroke="#000000" stroke-width="1" x1="161.0" x2="161.0" y1="661.0" y2="640.0"/>
      <line stroke="#000000" stroke-width="1" x1="157.0" x2="157.0" y1="661.0" y2="640.0"/>
      <line stroke="#000000" stroke-width="1" x1="153.0" x2="153.0" y1="661.0" y2="640.0"/>
      <line stroke="#000000" stroke-width="1" x1="189.0" x2="189.0" y1="775.0" y2="796.0"/>
      <line stroke="#000000" stroke-width="1" x1="185.0" x2="185.0" y1="775.0" y2="796.0"/>
      <line stroke="#000000" stroke-width="1" x1="181.0" x2="181.0" y1="775.0" y2="796.0"/>
      <line stroke="#000000" stroke-width="1" x1="177.0" x2="177.0" y1="775.0" y2="796.0"/>
      <line stroke="#000000" stroke-width="1" x1="173.0" x2="173.0" y1="775.0" y2="796.0"/>
      <line stroke="#000000" stroke-width="1" x1="169.0" x2="169.0" y1="775.0" y2="796.0"/>
      <line stroke="#000000" stroke-width="1" x1="165.0" x2="165.0" y1="775.0" y2="796.0"/>
      <line stroke="#000000" stroke-width="1" x1="161.0" x2="161.0" y1="775.0" y2="796.0"/>
      <line stroke="#000000" stroke-width="1" x1="157.0" x2="157.0" y1="775.0" y2="796.0"/>
      <line stroke="#000000" stroke-width="1" x1="153.0" x2="153.0" y1="775.0" y2="796.0"/>
      <line stroke="#000000" stroke-width="1" x1="189.0" x2="189.0" y1="232.0" y2="211.0"/>
      <line stroke="#000000" stroke-width="1" x1="185.0" x2="185.0" y1="232.0" y2="211.0"/>
      <line stroke="#000000" stroke-width="1" x1="181.0" x2="181.0" y1="232.0" y2="211.0"/>
      <line stroke="#000000" stroke-width="1" x1="177.0" x2="177.0" y1="232.0" y2="211.0"/>
      <line stroke="#000000" stroke-width="1" x1="173.0" x2="173.0" y1="232.0" y2="211.0"/>
      <line stroke="#000000" stroke-width="1" x1="169.0" x2="169.0" y1="232.0" y2="211.0"/>
      <line stroke="#000000" stroke-width="1" x1="165.0" x2="165.0" y1="232.0" y2="211.0"/>
      <line stroke="#000000" stroke-width="1" x1="161.0" x2="161.0" y1="232.0" y2="211.0"/>
      <line stroke="#000000" stroke-width="1" x1="157.0" x2="157.0" y1="232.0" y2="211.0"/>
      <line stroke="#000000" stroke-width="1" x1="153.0" x2="153.0" y1="232.0" y2="211.0"/>
      <line stroke="#000000" stroke-width="1" x1="83.0" x2="83.0" y1="775.0" y2="796.0"/>
      <line stroke="#000000" stroke-width="1" x1="87.0" x2="87.0" y1="775.0" y2="796.0"/>
      <line stroke="#000000" stroke-width="1" x1="91.0" x2="91.0" y1="775.0" y2="796.0"/>
      <line stroke="#000000" stroke-width="1" x1="95.0" x2="95.0" y1="775.0" y2="796.0"/>
      <line stroke="#000000" stroke-width="1" x1="99.0" x2="99.0" y1="775.0" y2="796.0"/>
      <line stroke="#000000" stroke-width="1" x1="103.0" x2="103.0" y1="775.0" y2="796.0"/>
      <line stroke="#000000" stroke-width="1" x1="107.0" x2="107.0" y1="775.0" y2="796.0"/>
      <line stroke="#000000" stroke-width="1" x1="111.0" x2="111.0" y1="775.0" y2="796.0"/>
      <line stroke="#000000" stroke-width="1" x1="115.0" x2="115.0" y1="775.0" y2="796.0"/>
      <line stroke="#000000" stroke-width="1" x1="119.0" x2="119.0" y1="775.0" y2="796.0"/>
      <line stroke="#000000" stroke-width="1" x1="83.0" x2="83.0" y1="640.0" y2="661.0"/>
      <line stroke="#000000" stroke-width="1" x1="87.0" x2="87.0" y1="640.0" y2="661.0"/>
      <line stroke="#000000" stroke-width="1" x1="91.0" x2="91.0" y1="640.0" y2="661.0"/>
      <line stroke="#000000" stroke-width="1" x1="95.0" x2="95.0" y1="640.0" y2="661.0"/>
      <line stroke="#000000" stroke-width="1" x1="99.0" x2="99.0" y1="640.0" y2="661.0"/>
      <line stroke="#000000" stroke-width="1" x1="103.0" x2="103.0" y1="640.0" y2="661.0"/>
      <line stroke="#000000" stroke-width="1" x1="107.0" x2="107.0" y1="640.0" y2="661.0"/>
      <line stroke="#000000" stroke-width="1" x1="111.0" x2="111.0" y1="640.0" y2="661.0"/>
      <line stroke="#000000" stroke-width="1" x1="115.0" x2="115.0" y1="640.0" y2="661.0"/>
      <line stroke="#000000" stroke-width="1" x1="119.0" x2="119.0" y1="640.0" y2="661.0"/>
      <line stroke="#000000" stroke-width="1" x1="83.0" x2="83.0" y1="231.0" y2="211.0"/>
      <line stroke="#000000" stroke-width="1" x1="87.0" x2="87.0" y1="231.0" y2="211.0"/>
      <line stroke="#000000" stroke-width="1" x1="91.0" x2="91.0" y1="231.0" y2="211.0"/>
      <line stroke="#000000" stroke-width="1" x1="95.0" x2="95.0" y1="231.0" y2="211.0"/>
      <line stroke="#000000" stroke-width="1" x1="99.0" x2="99.0" y1="231.0" y2="211.0"/>
      <line stroke="#000000" stroke-width="1" x1="103.0" x2="103.0" y1="231.0" y2="211.0"/>
      <line stroke="#000000" stroke-width="1" x1="107.0" x2="107.0" y1="231.0" y2="211.0"/>
      <line stroke="#000000" stroke-width="1" x1="111.0" x2="111.0" y1="231.0" y2="211.0"/>
      <line stroke="#000000" stroke-width="1" x1="115.0" x2="115.0" y1="231.0" y2="211.0"/>
      <line stroke="#000000" stroke-width="1" x1="119.0" x2="119.0" y1="231.0" y2="211.0"/>
      <line stroke="#000000" stroke-width="1" x1="149.0" x2="123.0" y1="404.0" y2="404.0"/>
      <line stroke="#000000" stroke-width="1" x1="149.0" x2="123.0" y1="408.0" y2="408.0"/>
      <line stroke="#000000" stroke-width="1" x1="149.0" x2="123.0" y1="412.0" y2="412.0"/>
      <line stroke="#000000" stroke-width="1" x1="149.0" x2="123.0" y1="416.0" y2="416.0"/>
      <polygon fill="#d0d0d0" points="181.0,563.0 169.0,563.0 169.0,482.0 181.0,482.0" stroke="#000000" stroke-width="1"/>
      <line stroke="#7f7f7f" stroke-width="1" x1="380.0" x2="380.0" y1="538.0" y2="504.0"/>
      <line stroke="#7f7f7f" stroke-width="1" x1="376.0" x2="376.0" y1="538.0" y2="504.0"/>
      <line stroke="#7f7f7f" stroke-width="1" x1="372.0" x2="372.0" y1="538.0" y2="504.0"/>
      <line stroke="#7f7f7f" stroke-width="1" x1="368.0" x2="368.0" y1="538.0" y2="504.0"/>
      <line stroke="#7f7f7f" stroke-width="1" x1="364.0" x2="364.0" y1="538.0" y2="504.0"/>
      <line stroke="#7f7f7f" stroke-width="1" x1="360.0" x2="360.0" y1="538.0" y2="504.0"/>
      <line stroke="#7f7f7f" stroke-width="1" x1="356.0" x2="356.0" y1="538.0" y2="504.0"/>
      <line stroke="#7f7f7f" stroke-width="1" x1="352.0" x2="352.0" y1="538.0" y2="504.0"/>
      <line stroke="#7f7f7f" stroke-width="1" x1="348.0" x2="348.0" y1="538.0" y2="504.0"/>
      <line stroke="#7f7f7f" stroke-width="1" x1="344.0" x2="344.0" y1="538.0" y2="504.0"/>
      <line stroke="#7f7f7f" stroke-width="1" x1="340.0" x2="340.0" y1="538.0" y2="504.0"/>
      <line stroke="#7f7f7f" stroke-width="1" x1="336.0" x2="336.0" y1="538.0" y2="504.0"/>
      <line stroke="#7f7f7f" stroke-width="1" x1="332.0" x2="332.0" y1="538.0" y2="504.0"/>
      <line stroke="#7f7f7f" stroke-width="1" x1="328.0" x2="328.0" y1="538.0" y2="504.0"/>
      <line stroke="#7f7f7f" stroke-width="1" x1="324.0" x2="324.0" y1="538.0" y2="504.0"/>
      <line stroke="#7f7f7f" stroke-width="1" x1="320.0" x2="320.0" y1="538.0" y2="504.0"/>
      <line stroke="#7f7f7f" stroke-width="1" x1="316.0" x2="316.0" y1="538.0" y2="504.0"/>
      <line stroke="#7f7f7f" stroke-width="1" x1="312.0" x2="312.0" y1="538.0" y2="504.0"/>
      <line stroke="#7f7f7f" stroke-width="1" x1="308.0" x2="308.0" y1="538.0" y2="504.0"/>
      <line stroke="#7f7f7f" stroke-width="1" x1="304.0" x2="304.0" y1="538.0" y2="504.0"/>
      <line stroke="#7f7f7f" stroke-width="1" x1="300.0" x2="300.0" y1="538.0" y2="504.0"/>
      <line stroke="#7f7f7f" stroke-width="1" x1="296.0" x2="296.0" y1="538.0" y2="504.0"/>
      <line stroke="#7f7f7f" stroke-width="1" x1="292.0" x2="292.0" y1="538.0" y2="504.0"/>
      <line stroke="#7f7f7f" stroke-width="1" x1="288.0" x2="288.0" y1="538.0" y2="504.0"/>
      <line stroke="#7f7f7f" stroke-width="1" x1="284.0" x2="284.0" y1="538.0" y2="504.0"/>
      <polygon fill="#9b5509" points="387.0,504.0 277.0,504.0 277.0,501.0 387.0,501.0" stroke="#000000" stroke-width="1"/>
      <polygon fill="#9b5509" points="387.0,512.0 387.0,517.0 277.0,517.0 277.0,512.0" stroke="#000000" stroke-width="1"/>
      <polygon fill="#9b5509" points="387.0,525.0 387.0,530.0 277.0,530.0 277.0,525.0" stroke="#000000" stroke-width="1"/>
      <polygon fill="#9b5509" points="387.0,538.0 277.0,538.0 277.0,541.0 387.0,541.0" stroke="#000000" stroke-width="1"/>
      <polyline fill="none" points="262.0,558.0 271.0,558.0 271.0,586.0 262.0,586.0" stroke="#000000" stroke-width="1"/>
      <text fill="#000000" font-family="Arial" font-size="10.0" stroke="none" stroke-width="0" transform="rotate(-90.0,260.0,584.0)" x="260.0" y="594.0">кассы</text>
      <polyline fill="none" points="215.0,511.0 181.0,511.0" stroke="#000000" stroke-width="0.5"/>
      <polygon fill="none" points="220.0,507.0 224.0,511.0 220.0,515.0 216.0,511.0" stroke="#000000" stroke-width="1"/>
      <line stroke="#009900" stroke-width="1" x1="223.0" x2="226.0" y1="517.0" y2="514.0"/>
      <line stroke="#009900" stroke-width="1" x1="225.82842712474618" x2="228.82842712474618" y1="519.8284271247462" y2="516.8284271247462"/>
      <line stroke="#009900" stroke-width="1" x1="228.65685424949237" x2="231.65685424949237" y1="522.6568542494924" y2="519.6568542494924"/>
      <line stroke="#009900" stroke-width="1" x1="231.48528137423855" x2="234.48528137423855" y1="525.4852813742386" y2="522.4852813742386"/>
      <line stroke="#009900" stroke-width="1" x1="234.31370849898474" x2="237.31370849898474" y1="528.3137084989849" y2="525.3137084989849"/>
      <line stroke="#009900" stroke-width="1" x1="237.14213562373092" x2="240.14213562373092" y1="531.1421356237311" y2="528.1421356237311"/>
      <line stroke="#009900" stroke-width="1" x1="239.9705627484771" x2="242.9705627484771" y1="533.9705627484773" y2="530.9705627484773"/>
      <line stroke="#009900" stroke-width="1" x1="242.7989898732233" x2="245.7989898732233" y1="536.7989898732235" y2="533.7989898732235"/>
      <line stroke="#009900" stroke-width="1" x1="245.62741699796948" x2="248.62741699796948" y1="539.6274169979697" y2="536.6274169979697"/>
      <line stroke="#009900" stroke-width="1" x1="248.45584412271566" x2="251.45584412271566" y1="542.4558441227159" y2="539.4558441227159"/>
      <line stroke="#009900" stroke-width="1" x1="251.28427124746185" x2="254.28427124746185" y1="545.2842712474621" y2="542.2842712474621"/>
      <line stroke="#009900" stroke-width="1" x1="254.11269837220803" x2="257.11269837220806" y1="548.1126983722083" y2="545.1126983722083"/>
      <line stroke="#009900" stroke-width="1" x1="256.9411254969542" x2="259.94112549695427" y1="550.9411254969546" y2="547.9411254969546"/>
      <line stroke="#009900" stroke-width="1" x1="259.7695526217004" x2="262.7695526217005" y1="553.7695526217008" y2="550.7695526217008"/>
      <line stroke="#ff0000" stroke-width="1" x1="217.0" x2="221.0" y1="506.0" y2="506.0"/>
      <line stroke="#ff0000" stroke-width="1" x1="217.0" x2="221.0" y1="502.0" y2="502.0"/>
      <line stroke="#ff0000" stroke-width="1" x1="217.0" x2="221.0" y1="498.0" y2="498.0"/>
      <line stroke="#ff0000" stroke-width="1" x1="217.0" x2="221.0" y1="494.0" y2="494.0"/>
      <line stroke="#ff0000" stroke-width="1" x1="217.0" x2="221.0" y1="490.0" y2="490.0"/>
      <line stroke="#ff0000" stroke-width="1" x1="217.0" x2="221.0" y1="486.0" y2="486.0"/>
      <line stroke="#ff0000" stroke-width="1" x1="217.0" x2="221.0" y1="482.0" y2="482.0"/>
      <line stroke="#ff0000" stroke-width="1" x1="217.0" x2="221.0" y1="478.0" y2="478.0"/>
      <line stroke="#ff0000" stroke-width="1" x1="217.0" x2="221.0" y1="474.0" y2="474.0"/>
      <line stroke="#ff0000" stroke-width="1" x1="217.0" x2="221.0" y1="470.0" y2="470.0"/>
      <line stroke="#ff0000" stroke-width="1" x1="217.0" x2="221.0" y1="466.0" y2="466.0"/>
      <line stroke="#ff0000" stroke-width="1" x1="217.0" x2="221.0" y1="462.0" y2="462.0"/>
      <line stroke="#ff0000" stroke-width="1" x1="217.0" x2="221.0" y1="458.0" y2="458.0"/>
      <line stroke="#ff0000" stroke-width="1" x1="217.0" x2="221.0" y1="454.0" y2="454.0"/>
      <polyline fill="none" marker-end="url(#id307)" points="420.0,508.0 398.0,508.0" stroke="#ff0000" stroke-width="1"/>
      <polyline fill="none" marker-end="url(#id307)" points="188.0,468.0 171.0,468.0" stroke="#ff0000" stroke-width="1"/>
      <polyline fill="none" marker-end="url(#id307)" points="398.0,533.0 420.0,533.0" stroke="#009900" stroke-width="1"/>
      <polyline fill="none" marker-end="url(#id307)" points="171.0,576.0 188.0,576.0" stroke="#009900" stroke-width="1"/>
      <polygon fill="#34349c" points="253.0,479.0 257.0,479.0 257.0,478.0 253.0,478.0" stroke="#34349c" stroke-width="1"/>
      <polygon fill="#ff0000" points="249.0,479.0 253.0,479.0 253.0,478.0 249.0,478.0" stroke="#ff0000" stroke-width="1"/>
      <polyline fill="none" points="879.0,562.0 879.0,482.0" stroke="#000000" stroke-width="1"/>
      <text fill="#00afaf" font-family="Arial" font-size="15.0" stroke="none" stroke-width="0" x="352.0" y="743.0">Дмитровское шоссе</text>
      <text fill="#00afaf" font-family="Arial" font-size="15.0" stroke="none" stroke-width="0" x="9.0" y="257.0">платформа</text>
      <text fill="#00afaf" font-family="Arial" font-size="15.0" stroke="none" stroke-width="0" x="2.0" y="270.0">'&quot;Тимирязевская&quot;'</text>
      <text fill="#00afaf" font-family="Arial" font-size="15.0" stroke="none" stroke-width="0" transform="rotate(-50.0,275.0,215.0)" x="275.0" y="230.0">Монорельсовая дорога &gt;&gt;</text>
    </g>
    <g transform="rotate(20.0,415.0,485.0)">
      <rect fill="none" height="15.0" stroke="none" stroke-width="0" width="210.0" x="528.0" y="219.0"/>
      <text fill="#040464" font-family="Arial" font-size="10.0" stroke="none" stroke-width="0" x="530.0" y="232.0">'Схема станции монорельса &quot;Тимирязеская&quot;'</text>
    </g>
    <g>
      <rect fill="#615f56" height="30.0" stroke="none" stroke-width="0" width="30.0" x="135.0" y="316.0"/>
      <rect fill="#615f56" height="30.0" stroke="none" stroke-width="0" width="30.0" x="103.0" y="238.0"/>
      <rect fill="#615f56" height="30.0" stroke="none" stroke-width="0" width="30.0" x="69.0" y="335.0"/>
      <rect fill="#615f56" height="30.0" stroke="none" stroke-width="0" width="30.0" x="39.0" y="259.0"/>
      <rect fill="#615f56" height="30.0" stroke="none" stroke-width="0" width="30.0" x="483.0" y="225.0"/>
      <rect fill="#615f56" height="30.0" stroke="none" stroke-width="0" width="30.0" x="604.0" y="147.0"/>
      <rect fill="#615f56" height="30.0" stroke="none" stroke-width="0" width="30.0" x="575.0" y="74.0"/>
      <text fill="#ffd900" font-family="Arial" font-size="25.0" stroke="none" stroke-width="0" x="143.0" y="342.0">1</text>
      <text fill="#ffd900" font-family="Arial" font-size="25.0" stroke="none" stroke-width="0" x="111.0" y="264.0">2</text>
      <text fill="#ffd900" font-family="Arial" font-size="25.0" stroke="none" stroke-width="0" x="77.0" y="361.0">3</text>
      <text fill="#ffd900" font-family="Arial" font-size="25.0" stroke="none" stroke-width="0" x="47.0" y="285.0">4</text>
      <text fill="#ffd900" font-family="Arial" font-size="25.0" stroke="none" stroke-width="0" x="491.0" y="251.0">5</text>
      <text fill="#ffd900" font-family="Arial" font-size="25.0" stroke="none" stroke-width="0" x="612.0" y="173.0">6</text>
      <text fill="#ffd900" font-family="Arial" font-size="25.0" stroke="none" stroke-width="0" x="583.0" y="100.0">7</text>
    </g>
  </g>
</svg>
