<?xml version="1.0" encoding="utf-8" ?>
<svg baseProfile="full" height="100%" version="1.1" width="100%" xmlns="http://www.w3.org/2000/svg" xmlns:ev="http://www.w3.org/2001/xml-events" xmlns:xlink="http://www.w3.org/1999/xlink"><defs><marker id="id158" markerHeight="3" markerUnits="strokeWidth" markerWidth="4" orient="auto" refX="0" refY="5" viewBox="0,0,10,10"><path d="M 0 0 L 10 5 L 0 10 z" /></marker></defs><g><rect fill="none" height="830" stroke="none" stroke-width="0" width="980" x="0" y="0" /><polygon fill="#FC9C54" points="242,447 242,477 692,477 692,447" stroke="#000000" stroke-width="1" /><polygon fill="#FC9C54" points="242,611 242,641 692,641 692,611" stroke="#000000" stroke-width="1" /><text fill="#AC5C44" font-family="Arial" font-size="20" stroke="none" stroke-width="0" x="245" y="495.0">&lt;&lt; Октябрьская</text><text fill="#AC5C44" font-family="Arial" font-size="20" stroke="none" stroke-width="0" x="567" y="658.0">Китай-город &gt;&gt;</text><text fill="#AC5C44" font-family="Arial" font-size="25" stroke="none" stroke-width="0" x="404" y="416.0">Третьяковская</text><polygon fill="#34349C" points="386,408 386,404 387,404 387,408" stroke="#34349C" stroke-width="1" /><polygon fill="#FF0000" points="386,412 386,408 387,408 387,412" stroke="#FF0000" stroke-width="1" /><polygon fill="#FCDC04" points="242,339 242,369 692,369 692,339" stroke="#000000" stroke-width="1" /><polygon fill="#FCDC04" points="242,502 242,532 692,532 692,502" stroke="#000000" stroke-width="1" /><text fill="#000000" font-family="Arial" font-size="20" stroke="none" stroke-width="0" x="247" y="336.0">&lt;&lt; тупик</text><text fill="#000000" font-family="Arial" font-size="20" stroke="none" stroke-width="0" x="546" y="502.0">Марксистская &gt;&gt;</text><text fill="#000000" font-family="Arial" font-size="25" stroke="none" stroke-width="0" x="398" y="581.0">Третьяковская</text><text fill="#FCDC04" font-family="Arial" font-size="20" stroke="none" stroke-width="0" x="246" y="335.0">&lt;&lt; тупик</text><text fill="#FCDC04" font-family="Arial" font-size="20" stroke="none" stroke-width="0" x="545" y="501.0">Марксистская &gt;&gt;</text><text fill="#FCDC04" font-family="Arial" font-size="25" stroke="none" stroke-width="0" x="397" y="580.0">Третьяковская</text><polygon fill="#34349C" points="382,570 382,566 383,566 383,570" stroke="#34349C" stroke-width="1" /><polygon fill="#FF0000" points="382,574 382,570 383,570 383,574" stroke="#FF0000" stroke-width="1" /><polygon fill="#047C54" points="748,175 778,175 778,625 748,625" stroke="#000000" stroke-width="1" /><polygon fill="#047C54" points="858,175 888,175 888,625 858,625" stroke="#000000" stroke-width="1" /><text fill="#047C54" font-family="Arial" font-size="20" stroke="none" stroke-width="0" transform="rotate(90.0,914,188)" x="914" y="208.0">&lt;&lt; Театральная</text><text fill="#047C54" font-family="Arial" font-size="20" stroke="none" stroke-width="0" transform="rotate(90.0,746,226)" x="746" y="246.0">Павелецкая &gt;&gt;</text><text fill="#047C54" font-family="Arial" font-size="25" stroke="none" stroke-width="0" transform="rotate(90.0,840,317)" x="840" y="342.0">Новокузнецкая</text><polygon fill="#34349C" points="815,312 811,312 811,313 815,313" stroke="#34349C" stroke-width="1" /><polygon fill="#FF0000" points="819,312 815,312 815,313 819,313" stroke="#FF0000" stroke-width="1" /><g fill="#FF0000" fill-opacity="0.8" stroke="#FF0000" stroke-opacity="0.8"><polygon fill="#FFFFFF" points="485,446 497,446 497,478 485,478" stroke="#FFFFFF" stroke-width="1" /><polygon fill="#FFFFFF" points="461,446 473,446 473,478 461,478" stroke="#FFFFFF" stroke-width="1" /><polygon fill="#FFFFFF" points="437,446 449,446 449,478 437,478" stroke="#FFFFFF" stroke-width="1" /><polygon fill="#FFFFFF" points="485,501 497,501 497,533 485,533" stroke="#FFFFFF" stroke-width="1" /><polygon fill="#FFFFFF" points="461,501 473,501 473,533 461,533" stroke="#FFFFFF" stroke-width="1" /><polygon fill="#FFFFFF" points="437,501 449,501 449,533 437,533" stroke="#FFFFFF" stroke-width="1" /></g><g fill="#FFFFFF" fill-opacity="1.0" stroke="#FFFFFF" stroke-opacity="1.0"><polyline fill="none" points="437,427 437,552" stroke="#000000" stroke-width="1" /><polyline fill="none" points="449,552 449,427" stroke="#000000" stroke-width="1" /><polyline fill="none" points="461,552 461,427" stroke="#000000" stroke-width="1" /><polyline fill="none" points="485,552 485,427" stroke="#000000" stroke-width="1" /><polyline fill="none" points="473,552 473,427" stroke="#000000" stroke-width="1" /><polyline fill="none" points="497,552 497,427" stroke="#000000" stroke-width="1" /><line stroke="#000000" stroke-width="1" x1="473" x2="461" y1="429" y2="429" /><line stroke="#000000" stroke-width="1" x1="473" x2="461" y1="433" y2="433" /><line stroke="#000000" stroke-width="1" x1="473" x2="461" y1="437" y2="437" /><line stroke="#000000" stroke-width="1" x1="473" x2="461" y1="441" y2="441" /><line stroke="#000000" stroke-width="1" x1="473" x2="461" y1="445" y2="445" /><line stroke="#000000" stroke-width="1" x1="473" x2="461" y1="449" y2="449" /><line stroke="#000000" stroke-width="1" x1="473" x2="461" y1="453" y2="453" /><line stroke="#000000" stroke-width="1" x1="449" x2="437" y1="429" y2="429" /><line stroke="#000000" stroke-width="1" x1="449" x2="437" y1="433" y2="433" /><line stroke="#000000" stroke-width="1" x1="449" x2="437" y1="437" y2="437" /><line stroke="#000000" stroke-width="1" x1="449" x2="437" y1="441" y2="441" /><line stroke="#000000" stroke-width="1" x1="449" x2="437" y1="445" y2="445" /><line stroke="#000000" stroke-width="1" x1="449" x2="437" y1="449" y2="449" /><line stroke="#000000" stroke-width="1" x1="449" x2="437" y1="453" y2="453" /><line stroke="#000000" stroke-width="1" x1="497" x2="485" y1="429" y2="429" /><line stroke="#000000" stroke-width="1" x1="497" x2="485" y1="433" y2="433" /><line stroke="#000000" stroke-width="1" x1="497" x2="485" y1="437" y2="437" /><line stroke="#000000" stroke-width="1" x1="497" x2="485" y1="441" y2="441" /><line stroke="#000000" stroke-width="1" x1="497" x2="485" y1="445" y2="445" /><line stroke="#000000" stroke-width="1" x1="497" x2="485" y1="449" y2="449" /><line stroke="#000000" stroke-width="1" x1="497" x2="485" y1="453" y2="453" /><line stroke="#000000" stroke-width="1" x1="497" x2="485" y1="550" y2="550" /><line stroke="#000000" stroke-width="1" x1="497" x2="485" y1="546" y2="546" /><line stroke="#000000" stroke-width="1" x1="497" x2="485" y1="542" y2="542" /><line stroke="#000000" stroke-width="1" x1="497" x2="485" y1="538" y2="538" /><line stroke="#000000" stroke-width="1" x1="497" x2="485" y1="534" y2="534" /><line stroke="#000000" stroke-width="1" x1="497" x2="485" y1="530" y2="530" /><line stroke="#000000" stroke-width="1" x1="497" x2="485" y1="526" y2="526" /><line stroke="#000000" stroke-width="1" x1="473" x2="461" y1="550" y2="550" /><line stroke="#000000" stroke-width="1" x1="473" x2="461" y1="546" y2="546" /><line stroke="#000000" stroke-width="1" x1="473" x2="461" y1="542" y2="542" /><line stroke="#000000" stroke-width="1" x1="473" x2="461" y1="538" y2="538" /><line stroke="#000000" stroke-width="1" x1="473" x2="461" y1="534" y2="534" /><line stroke="#000000" stroke-width="1" x1="473" x2="461" y1="530" y2="530" /><line stroke="#000000" stroke-width="1" x1="473" x2="461" y1="526" y2="526" /><line stroke="#000000" stroke-width="1" x1="449" x2="437" y1="550" y2="550" /><line stroke="#000000" stroke-width="1" x1="449" x2="437" y1="546" y2="546" /><line stroke="#000000" stroke-width="1" x1="449" x2="437" y1="542" y2="542" /><line stroke="#000000" stroke-width="1" x1="449" x2="437" y1="538" y2="538" /><line stroke="#000000" stroke-width="1" x1="449" x2="437" y1="534" y2="534" /><line stroke="#000000" stroke-width="1" x1="449" x2="437" y1="530" y2="530" /><line stroke="#000000" stroke-width="1" x1="449" x2="437" y1="526" y2="526" /><polyline fill="none" marker-end="url(#id158)" points="443,482 443,498" stroke="#000000" stroke-width="1" /><polyline fill="none" marker-end="url(#id158)" points="491,498 491,482" stroke="#000000" stroke-width="1" /></g><g fill="#FFFFFF" fill-opacity="0.8" stroke="#000000" stroke-opacity="0.8"><polygon fill="#FFFFFF" points="487,370 487,339 499,339 499,370" stroke="#FFFFFF" stroke-width="1" /><polygon fill="#FFFFFF" points="511,370 511,339 523,339 523,370" stroke="#FFFFFF" stroke-width="1" /><polygon fill="#FFFFFF" points="535,370 535,339 547,339 547,370" stroke="#FFFFFF" stroke-width="1" /></g><g fill="#FFFFFF" fill-opacity="1.0" stroke="#FFFFFF" stroke-opacity="1.0"><line stroke="#000000" stroke-width="1" x1="547" x2="535" y1="387" y2="387" /><line stroke="#000000" stroke-width="1" x1="547" x2="535" y1="383" y2="383" /><line stroke="#000000" stroke-width="1" x1="547" x2="535" y1="379" y2="379" /><line stroke="#000000" stroke-width="1" x1="547" x2="535" y1="375" y2="375" /><line stroke="#000000" stroke-width="1" x1="547" x2="535" y1="371" y2="371" /><line stroke="#000000" stroke-width="1" x1="547" x2="535" y1="367" y2="367" /><line stroke="#000000" stroke-width="1" x1="547" x2="535" y1="363" y2="363" /><line stroke="#000000" stroke-width="1" x1="523" x2="511" y1="387" y2="387" /><line stroke="#000000" stroke-width="1" x1="523" x2="511" y1="383" y2="383" /><line stroke="#000000" stroke-width="1" x1="523" x2="511" y1="379" y2="379" /><line stroke="#000000" stroke-width="1" x1="523" x2="511" y1="375" y2="375" /><line stroke="#000000" stroke-width="1" x1="523" x2="511" y1="371" y2="371" /><line stroke="#000000" stroke-width="1" x1="523" x2="511" y1="367" y2="367" /><line stroke="#000000" stroke-width="1" x1="523" x2="511" y1="363" y2="363" /><line stroke="#000000" stroke-width="1" x1="499" x2="487" y1="387" y2="387" /><line stroke="#000000" stroke-width="1" x1="499" x2="487" y1="383" y2="383" /><line stroke="#000000" stroke-width="1" x1="499" x2="487" y1="379" y2="379" /><line stroke="#000000" stroke-width="1" x1="499" x2="487" y1="375" y2="375" /><line stroke="#000000" stroke-width="1" x1="499" x2="487" y1="371" y2="371" /><line stroke="#000000" stroke-width="1" x1="499" x2="487" y1="367" y2="367" /><line stroke="#000000" stroke-width="1" x1="499" x2="487" y1="363" y2="363" /><polyline fill="none" points="547,339 547,389" stroke="#000000" stroke-width="1" /><polyline fill="none" points="535,389 535,339" stroke="#000000" stroke-width="1" /><polyline fill="none" points="523,339 523,389" stroke="#000000" stroke-width="1" /><polyline fill="none" points="511,389 511,339" stroke="#000000" stroke-width="1" /><polyline fill="none" points="499,339 499,389" stroke="#000000" stroke-width="1" /><polyline fill="none" points="487,389 487,339" stroke="#000000" stroke-width="1" /><polyline fill="none" points="487,339 499,339" stroke="#000000" stroke-width="1" /><polyline fill="none" points="511,339 523,339" stroke="#000000" stroke-width="1" /><polyline fill="none" points="535,339 547,339" stroke="#000000" stroke-width="1" /></g><g fill="#FFFFFF" fill-opacity="0.8" stroke="#000000" stroke-opacity="0.8"><polygon fill="#FFFFFF" points="747,378 779,378 779,390 747,390" stroke="#FFFFFF" stroke-width="1" /><polygon fill="#FFFFFF" points="747,402 779,402 779,414 747,414" stroke="#FFFFFF" stroke-width="1" /><polygon fill="#FFFFFF" points="747,426 779,426 779,438 747,438" stroke="#FFFFFF" stroke-width="1" /><polygon fill="#FFFFFF" points="747,545 779,545 779,598 747,598" stroke="#FFFFFF" stroke-width="1" /></g><g fill="#FFFFFF" fill-opacity="1.0" stroke="#FFFFFF" stroke-opacity="1.0"><polyline fill="none" points="798,438 736,438 724,430 702,430 702,427" stroke="#000000" stroke-width="1" /><polyline fill="none" points="798,378 736,378 724,386 702,386 702,389" stroke="#000000" stroke-width="1" /><polyline fill="none" points="798,390 744,390 728,402 798,402" stroke="#000000" stroke-width="1" /><polyline fill="none" points="798,414 728,414 744,426 798,426" stroke="#000000" stroke-width="1" /><polyline fill="none" points="692,369 692,378 589,378 589,386 618,386 618,389" stroke="#000000" stroke-width="1" /><polyline fill="none" points="692,447 692,438 589,438 589,430 618,430 618,427" stroke="#000000" stroke-width="1" /><line stroke="#000000" stroke-width="1" x1="796" x2="796" y1="438" y2="426" /><line stroke="#000000" stroke-width="1" x1="792" x2="792" y1="438" y2="426" /><line stroke="#000000" stroke-width="1" x1="788" x2="788" y1="438" y2="426" /><line stroke="#000000" stroke-width="1" x1="784" x2="784" y1="438" y2="426" /><line stroke="#000000" stroke-width="1" x1="780" x2="780" y1="438" y2="426" /><line stroke="#000000" stroke-width="1" x1="776" x2="776" y1="438" y2="426" /><line stroke="#000000" stroke-width="1" x1="772" x2="772" y1="438" y2="426" /><line stroke="#000000" stroke-width="1" x1="796" x2="796" y1="414" y2="402" /><line stroke="#000000" stroke-width="1" x1="792" x2="792" y1="414" y2="402" /><line stroke="#000000" stroke-width="1" x1="788" x2="788" y1="414" y2="402" /><line stroke="#000000" stroke-width="1" x1="784" x2="784" y1="414" y2="402" /><line stroke="#000000" stroke-width="1" x1="780" x2="780" y1="414" y2="402" /><line stroke="#000000" stroke-width="1" x1="776" x2="776" y1="414" y2="402" /><line stroke="#000000" stroke-width="1" x1="772" x2="772" y1="414" y2="402" /><line stroke="#000000" stroke-width="1" x1="796" x2="796" y1="378" y2="390" /><line stroke="#000000" stroke-width="1" x1="792" x2="792" y1="378" y2="390" /><line stroke="#000000" stroke-width="1" x1="788" x2="788" y1="378" y2="390" /><line stroke="#000000" stroke-width="1" x1="784" x2="784" y1="378" y2="390" /><line stroke="#000000" stroke-width="1" x1="780" x2="780" y1="378" y2="390" /><line stroke="#000000" stroke-width="1" x1="776" x2="776" y1="378" y2="390" /><line stroke="#000000" stroke-width="1" x1="772" x2="772" y1="378" y2="390" /><line stroke="#7F7F7F" stroke-width="1" x1="616" x2="616" y1="392" y2="424" /><line stroke="#7F7F7F" stroke-width="1" x1="620" x2="620" y1="392" y2="424" /><line stroke="#7F7F7F" stroke-width="1" x1="624" x2="624" y1="392" y2="424" /><line stroke="#7F7F7F" stroke-width="1" x1="628" x2="628" y1="392" y2="424" /><line stroke="#7F7F7F" stroke-width="1" x1="632" x2="632" y1="392" y2="424" /><line stroke="#7F7F7F" stroke-width="1" x1="636" x2="636" y1="392" y2="424" /><line stroke="#7F7F7F" stroke-width="1" x1="640" x2="640" y1="392" y2="424" /><line stroke="#7F7F7F" stroke-width="1" x1="644" x2="644" y1="392" y2="424" /><line stroke="#7F7F7F" stroke-width="1" x1="648" x2="648" y1="392" y2="424" /><line stroke="#7F7F7F" stroke-width="1" x1="652" x2="652" y1="392" y2="424" /><line stroke="#7F7F7F" stroke-width="1" x1="656" x2="656" y1="392" y2="424" /><line stroke="#7F7F7F" stroke-width="1" x1="660" x2="660" y1="392" y2="424" /><line stroke="#7F7F7F" stroke-width="1" x1="664" x2="664" y1="392" y2="424" /><line stroke="#7F7F7F" stroke-width="1" x1="668" x2="668" y1="392" y2="424" /><line stroke="#7F7F7F" stroke-width="1" x1="672" x2="672" y1="392" y2="424" /><line stroke="#7F7F7F" stroke-width="1" x1="676" x2="676" y1="392" y2="424" /><line stroke="#7F7F7F" stroke-width="1" x1="680" x2="680" y1="392" y2="424" /><line stroke="#7F7F7F" stroke-width="1" x1="684" x2="684" y1="392" y2="424" /><line stroke="#7F7F7F" stroke-width="1" x1="688" x2="688" y1="392" y2="424" /><line stroke="#7F7F7F" stroke-width="1" x1="692" x2="692" y1="392" y2="424" /><line stroke="#7F7F7F" stroke-width="1" x1="696" x2="696" y1="392" y2="424" /><line stroke="#7F7F7F" stroke-width="1" x1="700" x2="700" y1="392" y2="424" /><line stroke="#7F7F7F" stroke-width="1" x1="704" x2="704" y1="392" y2="424" /><polygon fill="#9B5509" points="610,389 711,389 711,392 610,392" stroke="#000000" stroke-width="1" /><polygon fill="#9B5509" points="610,397 711,397 711,401 610,401" stroke="#000000" stroke-width="1" /><polygon fill="#9B5509" points="610,406 711,406 711,410 610,410" stroke="#000000" stroke-width="1" /><polygon fill="#9B5509" points="610,415 711,415 711,419 610,419" stroke="#000000" stroke-width="1" /><polygon fill="#9B5509" points="610,424 711,424 711,427 610,427" stroke="#000000" stroke-width="1" /><polyline fill="none" points="836,598 735,598 726,593 702,593 702,590" stroke="#000000" stroke-width="1" /><polyline fill="none" points="803,545 734,545 726,549 702,549 702,552" stroke="#000000" stroke-width="1" /><polyline fill="none" points="692,532 692,542 589,542 589,553 599,553 599,549 618,549 618,552" stroke="#000000" stroke-width="1" /><polyline fill="none" points="692,611 692,600 589,600 589,589 599,589 599,593 618,593 618,590" stroke="#000000" stroke-width="1" /><line stroke="#000000" stroke-width="1" x1="803" x2="836" y1="519" y2="519" /><line stroke="#000000" stroke-width="1" x1="803" x2="836" y1="523" y2="523" /><line stroke="#000000" stroke-width="1" x1="803" x2="836" y1="527" y2="527" /><line stroke="#000000" stroke-width="1" x1="803" x2="836" y1="531" y2="531" /><line stroke="#000000" stroke-width="1" x1="803" x2="836" y1="535" y2="535" /><line stroke="#000000" stroke-width="1" x1="803" x2="836" y1="539" y2="539" /><line stroke="#000000" stroke-width="1" x1="803" x2="836" y1="543" y2="543" /><polygon fill="#d0d0d0" points="781,562 763,571 781,580 803,580 803,562" stroke="#000000" stroke-width="1" /><polygon fill="#d0d0d0" points="836,598 836,495 840,495 840,598" stroke="#000000" stroke-width="1" /><polygon fill="#d0d0d0" points="803,545 799,545 799,495 803,495" stroke="#000000" stroke-width="1" /><line stroke="#7F7F7F" stroke-width="1" x1="616" x2="616" y1="555" y2="587" /><line stroke="#7F7F7F" stroke-width="1" x1="620" x2="620" y1="555" y2="587" /><line stroke="#7F7F7F" stroke-width="1" x1="624" x2="624" y1="555" y2="587" /><line stroke="#7F7F7F" stroke-width="1" x1="628" x2="628" y1="555" y2="587" /><line stroke="#7F7F7F" stroke-width="1" x1="632" x2="632" y1="555" y2="587" /><line stroke="#7F7F7F" stroke-width="1" x1="636" x2="636" y1="555" y2="587" /><line stroke="#7F7F7F" stroke-width="1" x1="640" x2="640" y1="555" y2="587" /><line stroke="#7F7F7F" stroke-width="1" x1="644" x2="644" y1="555" y2="587" /><line stroke="#7F7F7F" stroke-width="1" x1="648" x2="648" y1="555" y2="587" /><line stroke="#7F7F7F" stroke-width="1" x1="652" x2="652" y1="555" y2="587" /><line stroke="#7F7F7F" stroke-width="1" x1="656" x2="656" y1="555" y2="587" /><line stroke="#7F7F7F" stroke-width="1" x1="660" x2="660" y1="555" y2="587" /><line stroke="#7F7F7F" stroke-width="1" x1="664" x2="664" y1="555" y2="587" /><line stroke="#7F7F7F" stroke-width="1" x1="668" x2="668" y1="555" y2="587" /><line stroke="#7F7F7F" stroke-width="1" x1="672" x2="672" y1="555" y2="587" /><line stroke="#7F7F7F" stroke-width="1" x1="676" x2="676" y1="555" y2="587" /><line stroke="#7F7F7F" stroke-width="1" x1="680" x2="680" y1="555" y2="587" /><line stroke="#7F7F7F" stroke-width="1" x1="684" x2="684" y1="555" y2="587" /><line stroke="#7F7F7F" stroke-width="1" x1="688" x2="688" y1="555" y2="587" /><line stroke="#7F7F7F" stroke-width="1" x1="692" x2="692" y1="555" y2="587" /><line stroke="#7F7F7F" stroke-width="1" x1="696" x2="696" y1="555" y2="587" /><line stroke="#7F7F7F" stroke-width="1" x1="700" x2="700" y1="555" y2="587" /><line stroke="#7F7F7F" stroke-width="1" x1="704" x2="704" y1="555" y2="587" /><polygon fill="#9B5509" points="610,552 711,552 711,555 610,555" stroke="#000000" stroke-width="1" /><polygon fill="#9B5509" points="610,560 711,560 711,564 610,564" stroke="#000000" stroke-width="1" /><polygon fill="#9B5509" points="610,569 711,569 711,573 610,573" stroke="#000000" stroke-width="1" /><polygon fill="#9B5509" points="610,578 711,578 711,582 610,582" stroke="#000000" stroke-width="1" /><polygon fill="#9B5509" points="610,587 711,587 711,590 610,590" stroke="#000000" stroke-width="1" /></g><g fill="#9B5509" fill-opacity="0.8" stroke="#000000" stroke-opacity="0.8"><polygon fill="#FFFFFF" points="470,610 482,610 482,642 470,642" stroke="#FFFFFF" stroke-width="1" /><polygon fill="#FFFFFF" points="494,610 506,610 506,642 494,642" stroke="#FFFFFF" stroke-width="1" /><polygon fill="#FFFFFF" points="518,610 530,610 530,642 518,642" stroke="#FFFFFF" stroke-width="1" /></g><g fill="#FFFFFF" fill-opacity="1.0" stroke="#FFFFFF" stroke-opacity="1.0"><polyline fill="none" points="834,647 838,647 838,633 835,633 835,625 858,625" stroke="#000000" stroke-width="1" /><polyline fill="none" points="518,591 518,654 506,654 506,591" stroke="#000000" stroke-width="1" /><polyline fill="none" points="494,591 494,654 482,654 482,591" stroke="#000000" stroke-width="1" /><polyline fill="none" points="470,591 470,683 580,683 754,730 839,730 839,683 834,683" stroke="#000000" stroke-width="1" /><polyline fill="none" points="530,591 530,654 589,654 759,700 797,700 797,683 802,683" stroke="#000000" stroke-width="1" /><polyline fill="none" points="802,647 798,647 798,633 801,633 801,625 778,625" stroke="#000000" stroke-width="1" /><line stroke="#000000" stroke-width="1" x1="530" x2="518" y1="593" y2="593" /><line stroke="#000000" stroke-width="1" x1="530" x2="518" y1="597" y2="597" /><line stroke="#000000" stroke-width="1" x1="530" x2="518" y1="601" y2="601" /><line stroke="#000000" stroke-width="1" x1="530" x2="518" y1="605" y2="605" /><line stroke="#000000" stroke-width="1" x1="530" x2="518" y1="609" y2="609" /><line stroke="#000000" stroke-width="1" x1="530" x2="518" y1="613" y2="613" /><line stroke="#000000" stroke-width="1" x1="530" x2="518" y1="617" y2="617" /><line stroke="#000000" stroke-width="1" x1="506" x2="494" y1="593" y2="593" /><line stroke="#000000" stroke-width="1" x1="506" x2="494" y1="597" y2="597" /><line stroke="#000000" stroke-width="1" x1="506" x2="494" y1="601" y2="601" /><line stroke="#000000" stroke-width="1" x1="506" x2="494" y1="605" y2="605" /><line stroke="#000000" stroke-width="1" x1="506" x2="494" y1="609" y2="609" /><line stroke="#000000" stroke-width="1" x1="506" x2="494" y1="613" y2="613" /><line stroke="#000000" stroke-width="1" x1="506" x2="494" y1="617" y2="617" /><line stroke="#000000" stroke-width="1" x1="482" x2="470" y1="593" y2="593" /><line stroke="#000000" stroke-width="1" x1="482" x2="470" y1="597" y2="597" /><line stroke="#000000" stroke-width="1" x1="482" x2="470" y1="601" y2="601" /><line stroke="#000000" stroke-width="1" x1="482" x2="470" y1="605" y2="605" /><line stroke="#000000" stroke-width="1" x1="482" x2="470" y1="609" y2="609" /><line stroke="#000000" stroke-width="1" x1="482" x2="470" y1="613" y2="613" /><line stroke="#000000" stroke-width="1" x1="482" x2="470" y1="617" y2="617" /><line stroke="#000000" stroke-width="1" x1="796" x2="801" y1="621" y2="621" /><line stroke="#000000" stroke-width="1" x1="796" x2="801" y1="617" y2="617" /><line stroke="#000000" stroke-width="1" x1="796" x2="801" y1="613" y2="613" /><line stroke="#000000" stroke-width="1" x1="796" x2="801" y1="609" y2="609" /><line stroke="#000000" stroke-width="1" x1="796" x2="801" y1="605" y2="605" /><line stroke="#000000" stroke-width="1" x1="796" x2="801" y1="601" y2="601" /><line stroke="#000000" stroke-width="1" x1="835" x2="840" y1="621" y2="621" /><line stroke="#000000" stroke-width="1" x1="835" x2="840" y1="617" y2="617" /><line stroke="#000000" stroke-width="1" x1="835" x2="840" y1="613" y2="613" /><line stroke="#000000" stroke-width="1" x1="835" x2="840" y1="609" y2="609" /><line stroke="#000000" stroke-width="1" x1="835" x2="840" y1="605" y2="605" /><line stroke="#000000" stroke-width="1" x1="835" x2="840" y1="601" y2="601" /><polygon fill="#d0d0d0" points="706,704 707,700 737,708 736,712" stroke="#000000" stroke-width="1" /><polygon fill="#d0d0d0" points="599,675 600,671 630,679 629,683" stroke="#000000" stroke-width="1" /><polygon fill="#d0d0d0" points="651,689 652,685 682,693 681,697" stroke="#000000" stroke-width="1" /><polygon fill="#d0d0d0" points="758,718 758,713 797,713 797,718" stroke="#000000" stroke-width="1" /><line stroke="#7F7F7F" stroke-width="1" x1="805" x2="831" y1="685" y2="685" /><line stroke="#7F7F7F" stroke-width="1" x1="805" x2="831" y1="681" y2="681" /><line stroke="#7F7F7F" stroke-width="1" x1="805" x2="831" y1="677" y2="677" /><line stroke="#7F7F7F" stroke-width="1" x1="805" x2="831" y1="673" y2="673" /><line stroke="#7F7F7F" stroke-width="1" x1="805" x2="831" y1="669" y2="669" /><line stroke="#7F7F7F" stroke-width="1" x1="805" x2="831" y1="665" y2="665" /><line stroke="#7F7F7F" stroke-width="1" x1="805" x2="831" y1="661" y2="661" /><line stroke="#7F7F7F" stroke-width="1" x1="805" x2="831" y1="657" y2="657" /><line stroke="#7F7F7F" stroke-width="1" x1="805" x2="831" y1="653" y2="653" /><line stroke="#7F7F7F" stroke-width="1" x1="805" x2="831" y1="649" y2="649" /><line stroke="#7F7F7F" stroke-width="1" x1="805" x2="831" y1="645" y2="645" /><polygon fill="#9B5509" points="802,692 802,639 805,639 805,692" stroke="#000000" stroke-width="1" /><polygon fill="#9B5509" points="811,692 811,639 815,639 815,692" stroke="#000000" stroke-width="1" /><polygon fill="#9B5509" points="821,692 821,639 825,639 825,692" stroke="#000000" stroke-width="1" /><polygon fill="#9B5509" points="831,692 831,639 834,639 834,692" stroke="#000000" stroke-width="1" /><polyline fill="none" points="242,369 242,379 371,379 371,389 292,389 292,394" stroke="#000000" stroke-width="1" /><polyline fill="none" points="242,447 242,438 371,438 371,428 292,428 292,423" stroke="#000000" stroke-width="1" /><polyline fill="none" points="176,606 176,644 87,644 87,582 95,582 95,593 144,593 144,585" stroke="#000000" stroke-width="1" /><polyline fill="none" points="144,556 144,423" stroke="#000000" stroke-width="1" /><polyline fill="none" points="242,611 242,601 371,601 371,590 292,590 292,585" stroke="#000000" stroke-width="1" /><polyline fill="none" points="242,532 242,541 371,541 371,551 292,551 292,556" stroke="#000000" stroke-width="1" /><polyline fill="none" points="203,606 203,668 63,668 63,386 87,386 87,402 95,402 95,386 144,386 144,394" stroke="#000000" stroke-width="1" /><line stroke="#000000" stroke-width="1" x1="203" x2="176" y1="608" y2="608" /><line stroke="#000000" stroke-width="1" x1="203" x2="176" y1="612" y2="612" /><line stroke="#000000" stroke-width="1" x1="203" x2="176" y1="616" y2="616" /><line stroke="#000000" stroke-width="1" x1="203" x2="176" y1="620" y2="620" /><line stroke="#000000" stroke-width="1" x1="203" x2="176" y1="624" y2="624" /><line stroke="#000000" stroke-width="1" x1="203" x2="176" y1="628" y2="628" /><line stroke="#000000" stroke-width="1" x1="203" x2="176" y1="632" y2="632" /><line stroke="#000000" stroke-width="1" x1="203" x2="176" y1="636" y2="636" /><polygon fill="#d0d0d0" points="87,431 87,464 95,464 95,431" stroke="#000000" stroke-width="1" /><polygon fill="#d0d0d0" points="87,548 87,514 95,514 95,548" stroke="#000000" stroke-width="1" /><line stroke="#7F7F7F" stroke-width="1" x1="294" x2="294" y1="420" y2="397" /><line stroke="#7F7F7F" stroke-width="1" x1="290" x2="290" y1="420" y2="397" /><line stroke="#7F7F7F" stroke-width="1" x1="286" x2="286" y1="420" y2="397" /><line stroke="#7F7F7F" stroke-width="1" x1="282" x2="282" y1="420" y2="397" /><line stroke="#7F7F7F" stroke-width="1" x1="278" x2="278" y1="420" y2="397" /><line stroke="#7F7F7F" stroke-width="1" x1="274" x2="274" y1="420" y2="397" /><line stroke="#7F7F7F" stroke-width="1" x1="270" x2="270" y1="420" y2="397" /><line stroke="#7F7F7F" stroke-width="1" x1="266" x2="266" y1="420" y2="397" /><line stroke="#7F7F7F" stroke-width="1" x1="262" x2="262" y1="420" y2="397" /><line stroke="#7F7F7F" stroke-width="1" x1="258" x2="258" y1="420" y2="397" /><line stroke="#7F7F7F" stroke-width="1" x1="254" x2="254" y1="420" y2="397" /><line stroke="#7F7F7F" stroke-width="1" x1="250" x2="250" y1="420" y2="397" /><line stroke="#7F7F7F" stroke-width="1" x1="246" x2="246" y1="420" y2="397" /><line stroke="#7F7F7F" stroke-width="1" x1="242" x2="242" y1="420" y2="397" /><line stroke="#7F7F7F" stroke-width="1" x1="238" x2="238" y1="420" y2="397" /><line stroke="#7F7F7F" stroke-width="1" x1="234" x2="234" y1="420" y2="397" /><line stroke="#7F7F7F" stroke-width="1" x1="230" x2="230" y1="420" y2="397" /><line stroke="#7F7F7F" stroke-width="1" x1="226" x2="226" y1="420" y2="397" /><line stroke="#7F7F7F" stroke-width="1" x1="222" x2="222" y1="420" y2="397" /><line stroke="#7F7F7F" stroke-width="1" x1="218" x2="218" y1="420" y2="397" /><line stroke="#7F7F7F" stroke-width="1" x1="214" x2="214" y1="420" y2="397" /><line stroke="#7F7F7F" stroke-width="1" x1="210" x2="210" y1="420" y2="397" /><line stroke="#7F7F7F" stroke-width="1" x1="206" x2="206" y1="420" y2="397" /><line stroke="#7F7F7F" stroke-width="1" x1="202" x2="202" y1="420" y2="397" /><line stroke="#7F7F7F" stroke-width="1" x1="198" x2="198" y1="420" y2="397" /><line stroke="#7F7F7F" stroke-width="1" x1="194" x2="194" y1="420" y2="397" /><line stroke="#7F7F7F" stroke-width="1" x1="190" x2="190" y1="420" y2="397" /><line stroke="#7F7F7F" stroke-width="1" x1="186" x2="186" y1="420" y2="397" /><line stroke="#7F7F7F" stroke-width="1" x1="182" x2="182" y1="420" y2="397" /><line stroke="#7F7F7F" stroke-width="1" x1="178" x2="178" y1="420" y2="397" /><line stroke="#7F7F7F" stroke-width="1" x1="174" x2="174" y1="420" y2="397" /><line stroke="#7F7F7F" stroke-width="1" x1="170" x2="170" y1="420" y2="397" /><line stroke="#7F7F7F" stroke-width="1" x1="166" x2="166" y1="420" y2="397" /><line stroke="#7F7F7F" stroke-width="1" x1="162" x2="162" y1="420" y2="397" /><line stroke="#7F7F7F" stroke-width="1" x1="158" x2="158" y1="420" y2="397" /><line stroke="#7F7F7F" stroke-width="1" x1="154" x2="154" y1="420" y2="397" /><line stroke="#7F7F7F" stroke-width="1" x1="150" x2="150" y1="420" y2="397" /><line stroke="#7F7F7F" stroke-width="1" x1="146" x2="146" y1="420" y2="397" /><line stroke="#7F7F7F" stroke-width="1" x1="142" x2="142" y1="420" y2="397" /><polygon fill="#9B5509" points="301,397 136,397 136,394 301,394" stroke="#000000" stroke-width="1" /><polygon fill="#9B5509" points="301,402 301,406 136,406 136,402" stroke="#000000" stroke-width="1" /><polygon fill="#9B5509" points="301,411 301,415 136,415 136,411" stroke="#000000" stroke-width="1" /><polygon fill="#9B5509" points="301,420 136,420 136,423 301,423" stroke="#000000" stroke-width="1" /><line stroke="#7F7F7F" stroke-width="1" x1="294" x2="294" y1="582" y2="559" /><line stroke="#7F7F7F" stroke-width="1" x1="290" x2="290" y1="582" y2="559" /><line stroke="#7F7F7F" stroke-width="1" x1="286" x2="286" y1="582" y2="559" /><line stroke="#7F7F7F" stroke-width="1" x1="282" x2="282" y1="582" y2="559" /><line stroke="#7F7F7F" stroke-width="1" x1="278" x2="278" y1="582" y2="559" /><line stroke="#7F7F7F" stroke-width="1" x1="274" x2="274" y1="582" y2="559" /><line stroke="#7F7F7F" stroke-width="1" x1="270" x2="270" y1="582" y2="559" /><line stroke="#7F7F7F" stroke-width="1" x1="266" x2="266" y1="582" y2="559" /><line stroke="#7F7F7F" stroke-width="1" x1="262" x2="262" y1="582" y2="559" /><line stroke="#7F7F7F" stroke-width="1" x1="258" x2="258" y1="582" y2="559" /><line stroke="#7F7F7F" stroke-width="1" x1="254" x2="254" y1="582" y2="559" /><line stroke="#7F7F7F" stroke-width="1" x1="250" x2="250" y1="582" y2="559" /><line stroke="#7F7F7F" stroke-width="1" x1="246" x2="246" y1="582" y2="559" /><line stroke="#7F7F7F" stroke-width="1" x1="242" x2="242" y1="582" y2="559" /><line stroke="#7F7F7F" stroke-width="1" x1="238" x2="238" y1="582" y2="559" /><line stroke="#7F7F7F" stroke-width="1" x1="234" x2="234" y1="582" y2="559" /><line stroke="#7F7F7F" stroke-width="1" x1="230" x2="230" y1="582" y2="559" /><line stroke="#7F7F7F" stroke-width="1" x1="226" x2="226" y1="582" y2="559" /><line stroke="#7F7F7F" stroke-width="1" x1="222" x2="222" y1="582" y2="559" /><line stroke="#7F7F7F" stroke-width="1" x1="218" x2="218" y1="582" y2="559" /><line stroke="#7F7F7F" stroke-width="1" x1="214" x2="214" y1="582" y2="559" /><line stroke="#7F7F7F" stroke-width="1" x1="210" x2="210" y1="582" y2="559" /><line stroke="#7F7F7F" stroke-width="1" x1="206" x2="206" y1="582" y2="559" /><line stroke="#7F7F7F" stroke-width="1" x1="202" x2="202" y1="582" y2="559" /><line stroke="#7F7F7F" stroke-width="1" x1="198" x2="198" y1="582" y2="559" /><line stroke="#7F7F7F" stroke-width="1" x1="194" x2="194" y1="582" y2="559" /><line stroke="#7F7F7F" stroke-width="1" x1="190" x2="190" y1="582" y2="559" /><line stroke="#7F7F7F" stroke-width="1" x1="186" x2="186" y1="582" y2="559" /><line stroke="#7F7F7F" stroke-width="1" x1="182" x2="182" y1="582" y2="559" /><line stroke="#7F7F7F" stroke-width="1" x1="178" x2="178" y1="582" y2="559" /><line stroke="#7F7F7F" stroke-width="1" x1="174" x2="174" y1="582" y2="559" /><line stroke="#7F7F7F" stroke-width="1" x1="170" x2="170" y1="582" y2="559" /><line stroke="#7F7F7F" stroke-width="1" x1="166" x2="166" y1="582" y2="559" /><line stroke="#7F7F7F" stroke-width="1" x1="162" x2="162" y1="582" y2="559" /><line stroke="#7F7F7F" stroke-width="1" x1="158" x2="158" y1="582" y2="559" /><line stroke="#7F7F7F" stroke-width="1" x1="154" x2="154" y1="582" y2="559" /><line stroke="#7F7F7F" stroke-width="1" x1="150" x2="150" y1="582" y2="559" /><line stroke="#7F7F7F" stroke-width="1" x1="146" x2="146" y1="582" y2="559" /><line stroke="#7F7F7F" stroke-width="1" x1="142" x2="142" y1="582" y2="559" /><polygon fill="#9B5509" points="301,559 136,559 136,556 301,556" stroke="#000000" stroke-width="1" /><polygon fill="#9B5509" points="301,564 301,568 136,568 136,564" stroke="#000000" stroke-width="1" /><polygon fill="#9B5509" points="301,573 301,577 136,577 136,573" stroke="#000000" stroke-width="1" /><polygon fill="#9B5509" points="301,582 136,582 136,585 301,585" stroke="#000000" stroke-width="1" /><polyline fill="none" points="144,473 155,473 155,506 144,506" stroke="#000000" stroke-width="1" /><text fill="#000000" font-family="Arial" font-size="10" stroke="none" stroke-width="0" transform="rotate(90.0,156,477)" x="156" y="487.0">кассы</text><polyline fill="none" points="144,464 135,464" stroke="#000000" stroke-width="0.5" /><polygon fill="none" points="133,465 136,462 133,459 130,462" stroke="#000000" stroke-width="1" /><polyline fill="none" points="108,438 101,431 101,428" stroke="#000000" stroke-width="0.5" /><polyline fill="none" points="101,431 95,431" stroke="#000000" stroke-width="0.5" /><polyline fill="none" points="101,396 101,386" stroke="#000000" stroke-width="0.5" /><line stroke="#009900" stroke-width="1" x1="128" x2="130" y1="459" y2="457" /><line stroke="#009900" stroke-width="1" x1="125.171572875" x2="127.171572875" y1="456.171572875" y2="454.171572875" /><line stroke="#009900" stroke-width="1" x1="122.343145751" x2="124.343145751" y1="453.343145751" y2="451.343145751" /><line stroke="#009900" stroke-width="1" x1="119.514718626" x2="121.514718626" y1="450.514718626" y2="448.514718626" /><line stroke="#009900" stroke-width="1" x1="116.686291501" x2="118.686291501" y1="447.686291501" y2="445.686291501" /><line stroke="#009900" stroke-width="1" x1="113.857864376" x2="115.857864376" y1="444.857864376" y2="442.857864376" /><line stroke="#009900" stroke-width="1" x1="111.029437252" x2="113.029437252" y1="442.029437252" y2="440.029437252" /><line stroke="#009900" stroke-width="1" x1="108.201010127" x2="110.201010127" y1="439.201010127" y2="437.201010127" /><line stroke="#FF0000" stroke-width="1" x1="100" x2="103" y1="428" y2="428" /><line stroke="#FF0000" stroke-width="1" x1="100" x2="103" y1="424" y2="424" /><line stroke="#FF0000" stroke-width="1" x1="100" x2="103" y1="420" y2="420" /><line stroke="#FF0000" stroke-width="1" x1="100" x2="103" y1="416" y2="416" /><line stroke="#FF0000" stroke-width="1" x1="100" x2="103" y1="412" y2="412" /><line stroke="#FF0000" stroke-width="1" x1="100" x2="103" y1="408" y2="408" /><line stroke="#FF0000" stroke-width="1" x1="100" x2="103" y1="404" y2="404" /><line stroke="#FF0000" stroke-width="1" x1="100" x2="103" y1="400" y2="400" /><line stroke="#FF0000" stroke-width="1" x1="100" x2="103" y1="396" y2="396" /><polyline fill="none" points="144,514 135,514" stroke="#000000" stroke-width="0.5" /><polygon fill="none" points="133,513 136,516 133,519 130,516" stroke="#000000" stroke-width="1" /><polyline fill="none" points="109,540 101,548 101,551" stroke="#000000" stroke-width="0.5" /><polyline fill="none" points="101,548 95,548" stroke="#000000" stroke-width="0.5" /><polyline fill="none" points="101,587 101,593" stroke="#000000" stroke-width="0.5" /><line stroke="#009900" stroke-width="1" x1="128" x2="130" y1="519" y2="521" /><line stroke="#009900" stroke-width="1" x1="125.171572875" x2="127.171572875" y1="521.828427125" y2="523.828427125" /><line stroke="#009900" stroke-width="1" x1="122.343145751" x2="124.343145751" y1="524.656854249" y2="526.656854249" /><line stroke="#009900" stroke-width="1" x1="119.514718626" x2="121.514718626" y1="527.485281374" y2="529.485281374" /><line stroke="#009900" stroke-width="1" x1="116.686291501" x2="118.686291501" y1="530.313708499" y2="532.313708499" /><line stroke="#009900" stroke-width="1" x1="113.857864376" x2="115.857864376" y1="533.142135624" y2="535.142135624" /><line stroke="#009900" stroke-width="1" x1="111.029437252" x2="113.029437252" y1="535.970562748" y2="537.970562748" /><line stroke="#009900" stroke-width="1" x1="108.201010127" x2="110.201010127" y1="538.798989873" y2="540.798989873" /><line stroke="#FF0000" stroke-width="1" x1="100" x2="103" y1="551" y2="551" /><line stroke="#FF0000" stroke-width="1" x1="100" x2="103" y1="555" y2="555" /><line stroke="#FF0000" stroke-width="1" x1="100" x2="103" y1="559" y2="559" /><line stroke="#FF0000" stroke-width="1" x1="100" x2="103" y1="563" y2="563" /><line stroke="#FF0000" stroke-width="1" x1="100" x2="103" y1="567" y2="567" /><line stroke="#FF0000" stroke-width="1" x1="100" x2="103" y1="571" y2="571" /><line stroke="#FF0000" stroke-width="1" x1="100" x2="103" y1="575" y2="575" /><line stroke="#FF0000" stroke-width="1" x1="100" x2="103" y1="579" y2="579" /><line stroke="#FF0000" stroke-width="1" x1="100" x2="103" y1="583" y2="583" /><line stroke="#FF0000" stroke-width="1" x1="100" x2="103" y1="587" y2="587" /><polygon fill="#34349C" points="139,508 139,512 140,512 140,508" stroke="#34349C" stroke-width="1" /><polygon fill="#FF0000" points="139,504 139,508 140,508 140,504" stroke="#FF0000" stroke-width="1" /><polyline fill="none" points="786,126 775,140" stroke="#000000" stroke-width="1" /><polyline fill="none" points="760,129 773,115 765,103 747,103" stroke="#000000" stroke-width="1" /><polyline fill="none" points="747,87 761,87" stroke="#000000" stroke-width="1" /><polyline fill="none" points="778,175 788,175 788,297 797,297 797,234 800,234" stroke="#000000" stroke-width="1" /><polyline fill="none" points="858,175 848,175 848,297 838,297 838,234 835,234" stroke="#000000" stroke-width="1" /><line stroke="#7F7F7F" stroke-width="1" x1="805" x2="831" y1="236" y2="236" /><line stroke="#7F7F7F" stroke-width="1" x1="805" x2="831" y1="232" y2="232" /><line stroke="#7F7F7F" stroke-width="1" x1="805" x2="831" y1="228" y2="228" /><line stroke="#7F7F7F" stroke-width="1" x1="805" x2="831" y1="224" y2="224" /><line stroke="#7F7F7F" stroke-width="1" x1="805" x2="831" y1="220" y2="220" /><line stroke="#7F7F7F" stroke-width="1" x1="805" x2="831" y1="216" y2="216" /><line stroke="#7F7F7F" stroke-width="1" x1="805" x2="831" y1="212" y2="212" /><line stroke="#7F7F7F" stroke-width="1" x1="805" x2="831" y1="208" y2="208" /><line stroke="#7F7F7F" stroke-width="1" x1="805" x2="831" y1="204" y2="204" /><line stroke="#7F7F7F" stroke-width="1" x1="805" x2="831" y1="200" y2="200" /><line stroke="#7F7F7F" stroke-width="1" x1="805" x2="831" y1="196" y2="196" /><line stroke="#7F7F7F" stroke-width="1" x1="805" x2="831" y1="192" y2="192" /><line stroke="#7F7F7F" stroke-width="1" x1="805" x2="831" y1="188" y2="188" /><line stroke="#7F7F7F" stroke-width="1" x1="805" x2="831" y1="184" y2="184" /><line stroke="#7F7F7F" stroke-width="1" x1="805" x2="831" y1="180" y2="180" /><line stroke="#7F7F7F" stroke-width="1" x1="805" x2="831" y1="176" y2="176" /><line stroke="#7F7F7F" stroke-width="1" x1="805" x2="831" y1="172" y2="172" /><line stroke="#7F7F7F" stroke-width="1" x1="805" x2="831" y1="168" y2="168" /><line stroke="#7F7F7F" stroke-width="1" x1="805" x2="831" y1="164" y2="164" /><line stroke="#7F7F7F" stroke-width="1" x1="805" x2="831" y1="160" y2="160" /><line stroke="#7F7F7F" stroke-width="1" x1="805" x2="831" y1="156" y2="156" /><line stroke="#7F7F7F" stroke-width="1" x1="805" x2="831" y1="152" y2="152" /><line stroke="#7F7F7F" stroke-width="1" x1="805" x2="831" y1="148" y2="148" /><line stroke="#7F7F7F" stroke-width="1" x1="805" x2="831" y1="144" y2="144" /><line stroke="#7F7F7F" stroke-width="1" x1="805" x2="831" y1="140" y2="140" /><line stroke="#7F7F7F" stroke-width="1" x1="805" x2="831" y1="136" y2="136" /><line stroke="#7F7F7F" stroke-width="1" x1="805" x2="831" y1="132" y2="132" /><line stroke="#7F7F7F" stroke-width="1" x1="805" x2="831" y1="128" y2="128" /><line stroke="#7F7F7F" stroke-width="1" x1="805" x2="831" y1="124" y2="124" /><line stroke="#7F7F7F" stroke-width="1" x1="805" x2="831" y1="120" y2="120" /><line stroke="#7F7F7F" stroke-width="1" x1="805" x2="831" y1="116" y2="116" /><line stroke="#7F7F7F" stroke-width="1" x1="805" x2="831" y1="112" y2="112" /><line stroke="#7F7F7F" stroke-width="1" x1="805" x2="831" y1="108" y2="108" /><line stroke="#7F7F7F" stroke-width="1" x1="805" x2="831" y1="104" y2="104" /><line stroke="#7F7F7F" stroke-width="1" x1="805" x2="831" y1="100" y2="100" /><line stroke="#7F7F7F" stroke-width="1" x1="805" x2="831" y1="96" y2="96" /><line stroke="#7F7F7F" stroke-width="1" x1="805" x2="831" y1="92" y2="92" /><line stroke="#7F7F7F" stroke-width="1" x1="805" x2="831" y1="88" y2="88" /><line stroke="#7F7F7F" stroke-width="1" x1="805" x2="831" y1="84" y2="84" /><line stroke="#7F7F7F" stroke-width="1" x1="805" x2="831" y1="80" y2="80" /><line stroke="#7F7F7F" stroke-width="1" x1="805" x2="831" y1="76" y2="76" /><line stroke="#7F7F7F" stroke-width="1" x1="805" x2="831" y1="72" y2="72" /><line stroke="#7F7F7F" stroke-width="1" x1="805" x2="831" y1="68" y2="68" /><line stroke="#7F7F7F" stroke-width="1" x1="805" x2="831" y1="64" y2="64" /><polygon fill="#9B5509" points="802,243 802,56 805,56 805,243" stroke="#000000" stroke-width="1" /><polygon fill="#9B5509" points="811,243 811,56 815,56 815,243" stroke="#000000" stroke-width="1" /><polygon fill="#9B5509" points="821,243 821,56 825,56 825,243" stroke="#000000" stroke-width="1" /><polygon fill="#9B5509" points="831,243 831,56 834,56 834,243" stroke="#000000" stroke-width="1" /></g><g fill="#9B5509" fill-opacity="0.8" stroke="#000000" stroke-opacity="0.8"><polygon fill="#FFFFFF" points="799,105 803,107 810,109 814,110 821,110 825,109 832,106 836,104 836,131 832,132 825,134 821,135 814,135 810,134 803,132 799,131" stroke="#FFFFFF" stroke-width="1" /><polygon fill="#FFFFFF" points="836,103 829,99 842,76 849,80" stroke="#FFFFFF" stroke-width="1" /></g><g fill="#FFFFFF" fill-opacity="1.0" stroke="#FFFFFF" stroke-opacity="1.0"><path d="M799,52 C799,52 801.333333333,48.3333333333 799,52 C796.666666667,55.6666666667 786.0,66.1666666667 785,74 C784.0,81.8333333333 787.666666667,93.0 793,99 C798.333333333,105.0 809.0,110 817,110 C825.0,110 835.666666667,105.0 841,99 C846.333333333,93.0 849.666666667,81.8333333333 849,74 C848.333333333,66.1666666667 837,52 837,52 " fill="none" stroke="#000000" stroke-width="1" /><path d="M761,87 C761,87 760.333333333,92.3333333333 761,87 C761.666666667,81.6666666667 760.833333333,64.3333333333 765,55 C769.166666667,45.6666666667 777.166666667,36.5 786,31 C794.833333333,25.5 807.666666667,22 818,22 C828.333333333,22 839.666666667,25.8333333333 848,31 C856.333333333,36.1666666667 863.666666667,44.6666666667 868,53 C872.333333333,61.3333333333 874.166666667,72.1666666667 874,81 C873.833333333,89.8333333333 871.333333333,98.5 867,106 C862.666666667,113.5 856.166666667,121.166666667 848,126 C839.833333333,130.833333333 828.333333333,135 818,135 C807.666666667,135 786,126 786,126 " fill="none" stroke="#000000" stroke-width="1" /><polyline fill="none" points="837,52 837,66 834,66" stroke="#000000" stroke-width="1" /><polyline fill="none" points="799,52 799,66 802,66" stroke="#000000" stroke-width="1" /><polyline fill="none" points="836,103 829,99 842,76 849,80" stroke="#000000" stroke-width="1" /><text fill="#000000" font-family="Arial" font-size="10" stroke="none" stroke-width="0" transform="rotate(-60.0,828,97)" x="828" y="107.0">кассы</text><polyline fill="none" points="812,56 812,23" stroke="#000000" stroke-width="0.5" /><polygon fill="none" points="866,86 866,90 870,90 870,86" stroke="#000000" stroke-width="1" /><line stroke="#009900" stroke-width="1" x1="869" x2="866" y1="74" y2="74" /><line stroke="#009900" stroke-width="1" x1="869" x2="866" y1="78" y2="78" /><line stroke="#009900" stroke-width="1" x1="869" x2="866" y1="82" y2="82" /><line stroke="#009900" stroke-width="1" x1="863" x2="863" y1="74" y2="71" /><line stroke="#009900" stroke-width="1" x1="859" x2="859" y1="74" y2="71" /><line stroke="#009900" stroke-width="1" x1="855" x2="855" y1="74" y2="71" /><line stroke="#009900" stroke-width="1" x1="851" x2="851" y1="74" y2="71" /><text fill="#00AFAF" font-family="Arial" font-size="15" stroke="none" stroke-width="0" transform="rotate(90.0,686,42)" x="686" y="57.0">Пятницкая улица</text><text fill="#00AFAF" font-family="Arial" font-size="15" stroke="none" stroke-width="0" transform="rotate(90.0,47,329)" x="47" y="344.0">улица Большая Ордынка</text><text fill="#00AFAF" font-family="Arial" font-size="15" stroke="none" stroke-width="0" transform="rotate(90.0,236,677)" x="236" y="692.0">улица Малая Ордынка</text><text fill="#00AFAF" font-family="Arial" font-size="15" stroke="none" stroke-width="0" transform="rotate(90.0,970,643)" x="970" y="658.0">улица Новокузнецкая</text><text fill="#00AFAF" font-family="Arial" font-size="15" stroke="none" stroke-width="0" x="305" y="743.0">Климентовский переулок</text><text fill="#00AFAF" font-family="Arial" font-size="15" stroke="none" stroke-width="0" x="6" y="688.0">Большой Толмачевский переулок</text><text fill="#00AFAF" font-family="Arial" font-size="15" stroke="none" stroke-width="0" x="29" y="709.0">&lt;&lt; Третьяковская галерея</text><polyline fill="none" marker-end="url(#id158)" points="335,400 318,400" stroke="#FF0000" stroke-width="1" /><polyline fill="none" marker-end="url(#id158)" points="125,414 111,414" stroke="#FF0000" stroke-width="1" /><polyline fill="none" marker-end="url(#id158)" points="125,569 110,569" stroke="#FF0000" stroke-width="1" /><polyline fill="none" marker-end="url(#id158)" points="808,276 808,256" stroke="#FF0000" stroke-width="1" /><polyline fill="none" marker-end="url(#id158)" points="774,64 774,78" stroke="#FF0000" stroke-width="1" /><polyline fill="none" marker-end="url(#id158)" points="738,95 719,95" stroke="#FF0000" stroke-width="1" /><polyline fill="none" marker-end="url(#id158)" points="335,580 318,580" stroke="#FF0000" stroke-width="1" /><polyline fill="none" marker-end="url(#id158)" points="318,417 335,417" stroke="#009900" stroke-width="1" /><polyline fill="none" marker-end="url(#id158)" points="105,515 114,524" stroke="#009900" stroke-width="1" /><polyline fill="none" marker-end="url(#id158)" points="857,95 857,82" stroke="#009900" stroke-width="1" /><polyline fill="none" marker-end="url(#id158)" points="828,256 828,276" stroke="#009900" stroke-width="1" /><polyline fill="none" marker-end="url(#id158)" points="754,151 767,135" stroke="#009900" stroke-width="1" /><polyline fill="none" marker-end="url(#id158)" points="318,562 335,562" stroke="#009900" stroke-width="1" /><polyline fill="none" marker-end="url(#id158)" points="105,468 114,459" stroke="#009900" stroke-width="1" /><polyline fill="none" marker-end="url(#id158)" points="820,491 820,510" stroke="#000000" stroke-width="1" /><polyline fill="none" marker-end="url(#id158)" points="804,611 790,611" stroke="#000000" stroke-width="1" /><polyline fill="none" marker-end="url(#id158)" points="832,611 846,611" stroke="#000000" stroke-width="1" /><polyline fill="none" marker-end="url(#id158)" points="741,571 726,571" stroke="#000000" stroke-width="1" /><polyline fill="none" marker-end="url(#id158)" points="533,668 554,668" stroke="#000000" stroke-width="1" /><polyline fill="none" marker-end="url(#id158)" points="818,718 818,700" stroke="#000000" stroke-width="1" /><polyline fill="none" marker-end="url(#id158)" points="757,432 742,432" stroke="#000000" stroke-width="1" /><polyline fill="none" marker-end="url(#id158)" points="742,384 757,384" stroke="#000000" stroke-width="1" /></g><g fill="none" fill-opacity="0.7" stroke="#000000" stroke-opacity="0.7"><polygon fill="#FFD0D0" points="485,337 549,337 549,390 485,390" stroke="#FFD0D0" stroke-width="1" /></g><g fill="#FFD0D0" fill-opacity="1.0" stroke="#FF4040" stroke-opacity="1.0"><polyline fill="none" points="485,337 549,337 549,390 485,390 485,337" stroke="#FF4040" stroke-dasharray="5 2" stroke-width="1" /></g></g></svg>