<?xml version="1.0" encoding="utf-8" ?>
<svg baseProfile="full" height="850.0" version="1.1" width="400.0" xmlns="http://www.w3.org/2000/svg" xmlns:ev="http://www.w3.org/2001/xml-events" xmlns:xlink="http://www.w3.org/1999/xlink">
  <defs>
    <marker id="id312" markerHeight="3" markerUnits="strokeWidth" markerWidth="4" orient="auto" refX="0" refY="5" viewBox="0,0,10,10">
      <path d="M 0 0 L 10 5 L 0 10 z"/>
    </marker>
  </defs>
  <g>
    <rect fill="none" height="850.0" stroke="none" stroke-width="0" width="400.0" x="0.0" y="0.0"/>
    <g transform="rotate(-85.0,200.0,425.0)">
      <polygon fill="#9ca4a4" points="-18.0,576.0 -18.0,551.0 432.0,551.0 432.0,576.0" stroke="#000000" stroke-width="1"/>
      <polygon fill="#9ca4a4" points="432.0,471.0 432.0,445.0 -18.0,445.0 -18.0,471.0" stroke="#000000" stroke-width="1"/>
      <text fill="#4c4c4c" font-family="Arial" font-size="25.0" stroke="none" stroke-width="0" x="146.0" y="510.0">Тульская</text>
      <text fill="#4c4c4c" font-family="Arial" font-size="20.0" stroke="none" stroke-width="0" x="-17.0" y="442.0">&lt;&lt; Нагатинская</text>
      <text fill="#4c4c4c" font-family="Arial" font-size="20.0" stroke="none" stroke-width="0" x="284.0" y="596.0">Серпуховская &gt;&gt;</text>
      <polyline fill="none" points="-126.0,419.0 -168.0,419.0 -168.0,449.0 -69.0,449.0 -69.0,481.0 -18.0,481.0 -18.0,471.0" stroke="#000000" stroke-width="1"/>
      <polyline fill="none" points="-126.0,399.0 -198.0,399.0 -198.0,572.0 -69.0,572.0 -69.0,541.0 -18.0,541.0 -18.0,551.0" stroke="#000000" stroke-width="1"/>
      <line stroke="#000000" stroke-width="1" x1="-66.0" x2="-66.0" y1="510.0" y2="541.0"/>
      <line stroke="#000000" stroke-width="1" x1="-62.0" x2="-62.0" y1="510.0" y2="541.0"/>
      <line stroke="#000000" stroke-width="1" x1="-58.0" x2="-58.0" y1="510.0" y2="541.0"/>
      <line stroke="#000000" stroke-width="1" x1="-54.0" x2="-54.0" y1="510.0" y2="541.0"/>
      <line stroke="#000000" stroke-width="1" x1="-50.0" x2="-50.0" y1="510.0" y2="541.0"/>
      <line stroke="#000000" stroke-width="1" x1="-46.0" x2="-46.0" y1="510.0" y2="541.0"/>
      <line stroke="#000000" stroke-width="1" x1="-42.0" x2="-42.0" y1="510.0" y2="541.0"/>
      <line stroke="#000000" stroke-width="1" x1="-38.0" x2="-38.0" y1="510.0" y2="541.0"/>
      <line stroke="#000000" stroke-width="1" x1="-34.0" x2="-34.0" y1="510.0" y2="541.0"/>
      <line stroke="#000000" stroke-width="1" x1="-30.0" x2="-30.0" y1="510.0" y2="541.0"/>
      <line stroke="#000000" stroke-width="1" x1="-26.0" x2="-26.0" y1="510.0" y2="541.0"/>
      <line stroke="#000000" stroke-width="1" x1="-22.0" x2="-22.0" y1="510.0" y2="541.0"/>
      <line stroke="#000000" stroke-width="1" x1="-128.0" x2="-128.0" y1="419.0" y2="399.0"/>
      <line stroke="#000000" stroke-width="1" x1="-132.0" x2="-132.0" y1="419.0" y2="399.0"/>
      <line stroke="#000000" stroke-width="1" x1="-136.0" x2="-136.0" y1="419.0" y2="399.0"/>
      <line stroke="#000000" stroke-width="1" x1="-140.0" x2="-140.0" y1="419.0" y2="399.0"/>
      <line stroke="#000000" stroke-width="1" x1="-144.0" x2="-144.0" y1="419.0" y2="399.0"/>
      <line stroke="#000000" stroke-width="1" x1="-148.0" x2="-148.0" y1="419.0" y2="399.0"/>
      <line stroke="#000000" stroke-width="1" x1="-152.0" x2="-152.0" y1="419.0" y2="399.0"/>
      <line stroke="#000000" stroke-width="1" x1="-156.0" x2="-156.0" y1="419.0" y2="399.0"/>
      <line stroke="#000000" stroke-width="1" x1="-160.0" x2="-160.0" y1="419.0" y2="399.0"/>
      <line stroke="#000000" stroke-width="1" x1="-164.0" x2="-164.0" y1="419.0" y2="399.0"/>
      <polygon fill="#d0d0d0" points="-158.0,482.0 -166.0,482.0 -166.0,539.0 -158.0,539.0" stroke="#000000" stroke-width="1"/>
      <line stroke="#7f7f7f" stroke-width="1" x1="-64.0" x2="-64.0" y1="484.0" y2="508.0"/>
      <line stroke="#7f7f7f" stroke-width="1" x1="-60.0" x2="-60.0" y1="484.0" y2="508.0"/>
      <line stroke="#7f7f7f" stroke-width="1" x1="-56.0" x2="-56.0" y1="484.0" y2="508.0"/>
      <line stroke="#7f7f7f" stroke-width="1" x1="-52.0" x2="-52.0" y1="484.0" y2="508.0"/>
      <line stroke="#7f7f7f" stroke-width="1" x1="-48.0" x2="-48.0" y1="484.0" y2="508.0"/>
      <line stroke="#7f7f7f" stroke-width="1" x1="-44.0" x2="-44.0" y1="484.0" y2="508.0"/>
      <line stroke="#7f7f7f" stroke-width="1" x1="-40.0" x2="-40.0" y1="484.0" y2="508.0"/>
      <line stroke="#7f7f7f" stroke-width="1" x1="-36.0" x2="-36.0" y1="484.0" y2="508.0"/>
      <line stroke="#7f7f7f" stroke-width="1" x1="-32.0" x2="-32.0" y1="484.0" y2="508.0"/>
      <line stroke="#7f7f7f" stroke-width="1" x1="-28.0" x2="-28.0" y1="484.0" y2="508.0"/>
      <line stroke="#7f7f7f" stroke-width="1" x1="-24.0" x2="-24.0" y1="484.0" y2="508.0"/>
      <polygon fill="#9b5509" points="-18.0,493.0 -68.0,493.0 -68.0,498.0 -18.0,498.0" stroke="#000000" stroke-width="1"/>
      <polygon fill="#9b5509" points="-18.0,507.0 -68.0,507.0 -68.0,510.0 -18.0,510.0" stroke="#000000" stroke-width="1"/>
      <polygon fill="#9b5509" points="-18.0,481.0 -68.0,481.0 -68.0,484.0 -18.0,484.0" stroke="#000000" stroke-width="1"/>
      <polyline fill="none" points="-69.0,543.0 -60.0,543.0 -60.0,570.0 -69.0,570.0" stroke="#000000" stroke-width="1"/>
      <text fill="#000000" font-family="Arial" font-size="10.0" stroke="none" stroke-width="0" transform="rotate(90.0,-57.0,544.0)" x="-57.0" y="554.0">кассы</text>
      <polyline fill="none" points="-69.0,542.0 -100.0,542.0" stroke="#000000" stroke-width="0.5"/>
      <polygon fill="none" points="-128.0,484.0 -126.0,489.0 -121.0,487.0 -123.0,482.0" stroke="#000000" stroke-width="1"/>
      <polyline fill="none" points="-123.0,482.0 -158.0,482.0" stroke="#000000" stroke-width="0.5"/>
      <line stroke="#009900" stroke-width="1" x1="-125.0" x2="-120.0" y1="493.0" y2="491.0"/>
      <line stroke="#009900" stroke-width="1" x1="-123.26907572966091" x2="-118.26907572966091" y1="496.60609222987307" y2="494.60609222987307"/>
      <line stroke="#009900" stroke-width="1" x1="-121.53815145932182" x2="-116.53815145932182" y1="500.21218445974614" y2="498.21218445974614"/>
      <line stroke="#009900" stroke-width="1" x1="-119.80722718898274" x2="-114.80722718898274" y1="503.8182766896192" y2="501.8182766896192"/>
      <line stroke="#009900" stroke-width="1" x1="-118.07630291864365" x2="-113.07630291864365" y1="507.4243689194923" y2="505.4243689194923"/>
      <line stroke="#009900" stroke-width="1" x1="-116.34537864830456" x2="-111.34537864830456" y1="511.03046114936535" y2="509.03046114936535"/>
      <line stroke="#009900" stroke-width="1" x1="-114.61445437796547" x2="-109.61445437796547" y1="514.6365533792384" y2="512.6365533792384"/>
      <line stroke="#009900" stroke-width="1" x1="-112.88353010762638" x2="-107.88353010762638" y1="518.2426456091115" y2="516.2426456091115"/>
      <line stroke="#009900" stroke-width="1" x1="-111.1526058372873" x2="-106.1526058372873" y1="521.8487378389846" y2="519.8487378389846"/>
      <line stroke="#009900" stroke-width="1" x1="-109.42168156694821" x2="-104.42168156694821" y1="525.4548300688576" y2="523.4548300688576"/>
      <line stroke="#009900" stroke-width="1" x1="-107.69075729660912" x2="-102.69075729660912" y1="529.0609222987307" y2="527.0609222987307"/>
      <line stroke="#009900" stroke-width="1" x1="-105.95983302627003" x2="-100.95983302627003" y1="532.6670145286038" y2="530.6670145286038"/>
      <line stroke="#009900" stroke-width="1" x1="-104.22890875593095" x2="-99.22890875593095" y1="536.2731067584768" y2="534.2731067584768"/>
      <line stroke="#009900" stroke-width="1" x1="-102.49798448559186" x2="-97.49798448559186" y1="539.8791989883499" y2="537.8791989883499"/>
      <line stroke="#ff0000" stroke-width="1" x1="-122.0" x2="-128.0" y1="453.0" y2="453.0"/>
      <line stroke="#ff0000" stroke-width="1" x1="-122.0" x2="-128.0" y1="457.0" y2="457.0"/>
      <line stroke="#ff0000" stroke-width="1" x1="-122.0" x2="-128.0" y1="461.0" y2="461.0"/>
      <line stroke="#ff0000" stroke-width="1" x1="-122.0" x2="-128.0" y1="465.0" y2="465.0"/>
      <line stroke="#ff0000" stroke-width="1" x1="-122.0" x2="-128.0" y1="469.0" y2="469.0"/>
      <line stroke="#ff0000" stroke-width="1" x1="-122.0" x2="-128.0" y1="473.0" y2="473.0"/>
      <line stroke="#ff0000" stroke-width="1" x1="-122.0" x2="-128.0" y1="477.0" y2="477.0"/>
      <polyline fill="none" points="538.0,419.0 580.0,419.0 580.0,449.0 481.0,449.0 481.0,481.0 432.0,481.0 432.0,471.0" stroke="#000000" stroke-width="1"/>
      <polyline fill="none" points="538.0,399.0 612.0,399.0 612.0,572.0 481.0,572.0 481.0,541.0 432.0,541.0 432.0,551.0" stroke="#000000" stroke-width="1"/>
      <line stroke="#000000" stroke-width="1" x1="434.0" x2="434.0" y1="481.0" y2="512.0"/>
      <line stroke="#000000" stroke-width="1" x1="438.0" x2="438.0" y1="481.0" y2="512.0"/>
      <line stroke="#000000" stroke-width="1" x1="442.0" x2="442.0" y1="481.0" y2="512.0"/>
      <line stroke="#000000" stroke-width="1" x1="446.0" x2="446.0" y1="481.0" y2="512.0"/>
      <line stroke="#000000" stroke-width="1" x1="450.0" x2="450.0" y1="481.0" y2="512.0"/>
      <line stroke="#000000" stroke-width="1" x1="454.0" x2="454.0" y1="481.0" y2="512.0"/>
      <line stroke="#000000" stroke-width="1" x1="458.0" x2="458.0" y1="481.0" y2="512.0"/>
      <line stroke="#000000" stroke-width="1" x1="462.0" x2="462.0" y1="481.0" y2="512.0"/>
      <line stroke="#000000" stroke-width="1" x1="466.0" x2="466.0" y1="481.0" y2="512.0"/>
      <line stroke="#000000" stroke-width="1" x1="470.0" x2="470.0" y1="481.0" y2="512.0"/>
      <line stroke="#000000" stroke-width="1" x1="474.0" x2="474.0" y1="481.0" y2="512.0"/>
      <line stroke="#000000" stroke-width="1" x1="478.0" x2="478.0" y1="481.0" y2="512.0"/>
      <line stroke="#000000" stroke-width="1" x1="540.0" x2="540.0" y1="419.0" y2="399.0"/>
      <line stroke="#000000" stroke-width="1" x1="544.0" x2="544.0" y1="419.0" y2="399.0"/>
      <line stroke="#000000" stroke-width="1" x1="548.0" x2="548.0" y1="419.0" y2="399.0"/>
      <line stroke="#000000" stroke-width="1" x1="552.0" x2="552.0" y1="419.0" y2="399.0"/>
      <line stroke="#000000" stroke-width="1" x1="556.0" x2="556.0" y1="419.0" y2="399.0"/>
      <line stroke="#000000" stroke-width="1" x1="560.0" x2="560.0" y1="419.0" y2="399.0"/>
      <line stroke="#000000" stroke-width="1" x1="564.0" x2="564.0" y1="419.0" y2="399.0"/>
      <line stroke="#000000" stroke-width="1" x1="568.0" x2="568.0" y1="419.0" y2="399.0"/>
      <line stroke="#000000" stroke-width="1" x1="572.0" x2="572.0" y1="419.0" y2="399.0"/>
      <line stroke="#000000" stroke-width="1" x1="576.0" x2="576.0" y1="419.0" y2="399.0"/>
      <polygon fill="#d0d0d0" points="580.0,482.0 572.0,482.0 572.0,539.0 580.0,539.0" stroke="#000000" stroke-width="1"/>
      <line stroke="#7f7f7f" stroke-width="1" x1="476.0" x2="476.0" y1="538.0" y2="513.0"/>
      <line stroke="#7f7f7f" stroke-width="1" x1="472.0011892374278" x2="472.0011892374278" y1="538.0975319698189" y2="513.0975319698189"/>
      <line stroke="#7f7f7f" stroke-width="1" x1="468.0023784748556" x2="468.0023784748556" y1="538.1950639396377" y2="513.1950639396377"/>
      <line stroke="#7f7f7f" stroke-width="1" x1="464.0035677122834" x2="464.0035677122834" y1="538.2925959094566" y2="513.2925959094566"/>
      <line stroke="#7f7f7f" stroke-width="1" x1="460.00475694971124" x2="460.00475694971124" y1="538.3901278792755" y2="513.3901278792755"/>
      <line stroke="#7f7f7f" stroke-width="1" x1="456.00594618713905" x2="456.00594618713905" y1="538.4876598490944" y2="513.4876598490944"/>
      <line stroke="#7f7f7f" stroke-width="1" x1="452.00713542456685" x2="452.00713542456685" y1="538.5851918189132" y2="513.5851918189132"/>
      <line stroke="#7f7f7f" stroke-width="1" x1="448.00832466199466" x2="448.00832466199466" y1="538.6827237887321" y2="513.6827237887321"/>
      <line stroke="#7f7f7f" stroke-width="1" x1="444.0095138994225" x2="444.0095138994225" y1="538.780255758551" y2="513.780255758551"/>
      <line stroke="#7f7f7f" stroke-width="1" x1="440.0107031368503" x2="440.0107031368503" y1="538.8777877283699" y2="513.8777877283699"/>
      <line stroke="#7f7f7f" stroke-width="1" x1="436.0118923742781" x2="436.0118923742781" y1="538.9753196981887" y2="513.9753196981887"/>
      <polygon fill="#9b5509" points="433.0,524.0 479.0,524.0 479.0,529.0 433.0,529.0" stroke="#000000" stroke-width="1"/>
      <polygon fill="#9b5509" points="433.0,538.0 479.0,538.0 479.0,541.0 433.0,541.0" stroke="#000000" stroke-width="1"/>
      <polygon fill="#9b5509" points="433.0,512.0 479.0,512.0 479.0,515.0 433.0,515.0" stroke="#000000" stroke-width="1"/>
      <polyline fill="none" points="481.0,480.0 516.0,480.0" stroke="#000000" stroke-width="0.5"/>
      <polygon fill="none" points="542.0,537.0 540.0,532.0 535.0,534.0 537.0,539.0" stroke="#000000" stroke-width="1"/>
      <polyline fill="none" points="537.0,539.0 572.0,539.0" stroke="#000000" stroke-width="0.5"/>
      <line stroke="#009900" stroke-width="1" x1="534.0" x2="539.0" y1="530.0" y2="528.0"/>
      <line stroke="#009900" stroke-width="1" x1="532.4884120102936" x2="537.4884120102936" y1="526.2966094252192" y2="524.2966094252192"/>
      <line stroke="#009900" stroke-width="1" x1="530.9768240205872" x2="535.9768240205872" y1="522.5932188504385" y2="520.5932188504385"/>
      <line stroke="#009900" stroke-width="1" x1="529.4652360308808" x2="534.4652360308808" y1="518.8898282756577" y2="516.8898282756577"/>
      <line stroke="#009900" stroke-width="1" x1="527.9536480411743" x2="532.9536480411743" y1="515.1864377008769" y2="513.1864377008769"/>
      <line stroke="#009900" stroke-width="1" x1="526.4420600514679" x2="531.4420600514679" y1="511.48304712609615" y2="509.48304712609615"/>
      <line stroke="#009900" stroke-width="1" x1="524.9304720617615" x2="529.9304720617615" y1="507.7796565513154" y2="505.7796565513154"/>
      <line stroke="#009900" stroke-width="1" x1="523.4188840720551" x2="528.4188840720551" y1="504.0762659765346" y2="502.0762659765346"/>
      <line stroke="#009900" stroke-width="1" x1="521.9072960823487" x2="526.9072960823487" y1="500.37287540175384" y2="498.37287540175384"/>
      <line stroke="#009900" stroke-width="1" x1="520.3957080926423" x2="525.3957080926423" y1="496.6694848269731" y2="494.6694848269731"/>
      <line stroke="#009900" stroke-width="1" x1="518.8841201029359" x2="523.8841201029359" y1="492.9660942521923" y2="490.9660942521923"/>
      <line stroke="#009900" stroke-width="1" x1="517.3725321132295" x2="522.3725321132295" y1="489.26270367741154" y2="487.26270367741154"/>
      <line stroke="#009900" stroke-width="1" x1="515.860944123523" x2="520.860944123523" y1="485.55931310263077" y2="483.55931310263077"/>
      <line stroke="#009900" stroke-width="1" x1="514.3493561338166" x2="519.3493561338166" y1="481.85592252785" y2="479.85592252785"/>
      <line stroke="#ff0000" stroke-width="1" x1="542.0" x2="536.0" y1="543.0" y2="543.0"/>
      <line stroke="#ff0000" stroke-width="1" x1="542.0" x2="536.0" y1="547.0" y2="547.0"/>
      <line stroke="#ff0000" stroke-width="1" x1="542.0" x2="536.0" y1="551.0" y2="551.0"/>
      <line stroke="#ff0000" stroke-width="1" x1="542.0" x2="536.0" y1="555.0" y2="555.0"/>
      <line stroke="#ff0000" stroke-width="1" x1="542.0" x2="536.0" y1="559.0" y2="559.0"/>
      <line stroke="#ff0000" stroke-width="1" x1="542.0" x2="536.0" y1="563.0" y2="563.0"/>
      <line stroke="#ff0000" stroke-width="1" x1="542.0" x2="536.0" y1="567.0" y2="567.0"/>
      <polyline fill="none" points="481.0,451.0 472.0,451.0 472.0,479.0 481.0,479.0" stroke="#000000" stroke-width="1"/>
      <text fill="#000000" font-family="Arial" font-size="10.0" stroke="none" stroke-width="0" transform="rotate(90.0,484.0,453.0)" x="484.0" y="463.0">кассы</text>
      <polyline fill="none" marker-end="url(#id312)" points="564.0,557.0 577.0,557.0" stroke="#ff0000" stroke-width="1"/>
      <polyline fill="none" marker-end="url(#id312)" points="488.0,526.0 499.0,530.0" stroke="#ff0000" stroke-width="1"/>
      <polyline fill="none" marker-end="url(#id312)" points="-150.0,466.0 -164.0,466.0" stroke="#ff0000" stroke-width="1"/>
      <polyline fill="none" marker-end="url(#id312)" points="-77.0,496.0 -88.0,492.0" stroke="#ff0000" stroke-width="1"/>
      <polyline fill="none" marker-end="url(#id312)" points="497.0,497.0 486.0,497.0" stroke="#009900" stroke-width="1"/>
      <polyline fill="none" marker-end="url(#id312)" points="563.0,472.0 551.0,477.0" stroke="#009900" stroke-width="1"/>
      <polyline fill="none" marker-end="url(#id312)" points="-150.0,546.0 -138.0,541.0" stroke="#009900" stroke-width="1"/>
      <polyline fill="none" marker-end="url(#id312)" points="-80.0,525.0 -69.0,525.0" stroke="#009900" stroke-width="1"/>
      <polygon fill="#34349c" points="502.0,546.0 497.0,546.0 497.0,544.0 502.0,544.0" stroke="#34349c" stroke-width="1"/>
      <polygon fill="#34349c" points="192.0,514.0 192.0,509.0 190.0,509.0 190.0,514.0" stroke="#34349c" stroke-width="1"/>
      <polygon fill="#34349c" points="-90.0,478.0 -85.0,478.0 -85.0,476.0 -90.0,476.0" stroke="#34349c" stroke-width="1"/>
      <polygon fill="#ff0000" points="507.0,546.0 502.0,546.0 502.0,544.0 507.0,544.0" stroke="#ff0000" stroke-width="1"/>
      <polygon fill="#ff0000" points="192.0,519.0 192.0,514.0 190.0,514.0 190.0,519.0" stroke="#ff0000" stroke-width="1"/>
      <polygon fill="#ff0000" points="-95.0,478.0 -90.0,478.0 -90.0,476.0 -95.0,476.0" stroke="#ff0000" stroke-width="1"/>
      <text fill="#00afaf" font-family="Arial" font-size="15.0" stroke="none" stroke-width="0" x="145.0" y="257.0">Большая Тульская улица</text>
    </g>
    <g>
      <rect fill="#615f56" height="30.0" stroke="none" stroke-width="0" width="30.0" x="106.0" y="750.0"/>
      <rect fill="#615f56" height="30.0" stroke="none" stroke-width="0" width="30.0" x="165.0" y="57.0"/>
      <text fill="#ffd900" font-family="Arial" font-size="25.0" stroke="none" stroke-width="0" x="114.0" y="776.0">1</text>
      <text fill="#ffd900" font-family="Arial" font-size="25.0" stroke="none" stroke-width="0" x="173.0" y="83.0">2</text>
    </g>
  </g>
</svg>
