<?xml version="1.0" encoding="utf-8" ?>
<svg baseProfile="full" height="530.0" version="1.1" width="770.0" xmlns="http://www.w3.org/2000/svg" xmlns:ev="http://www.w3.org/2001/xml-events" xmlns:xlink="http://www.w3.org/1999/xlink">
  <defs>
    <marker id="id315" markerHeight="3" markerUnits="strokeWidth" markerWidth="4" orient="auto" refX="0" refY="5" viewBox="0,0,10,10">
      <path d="M 0 0 L 10 5 L 0 10 z"/>
    </marker>
  </defs>
  <g>
    <rect fill="none" height="530.0" stroke="none" stroke-width="0" width="770.0" x="0.0" y="0.0"/>
    <g transform="rotate(-30.0,385.0,265.0)">
      <text fill="#2d69fc" font-family="Arial" font-size="25.0" stroke="none" stroke-width="0" x="133.0" y="271.0">Улица Горчакова</text>
      <text fill="#2d69fc" font-family="Arial" font-size="20.0" stroke="none" stroke-width="0" x="190.0" y="352.0">Бульвар адмирала Ушакова &gt;&gt;</text>
      <text fill="#2d69fc" font-family="Arial" font-size="20.0" stroke="none" stroke-width="0" x="5.0" y="187.0">&lt;&lt; Бунинская аллея</text>
      <text fill="#00afaf" font-family="Arial" font-size="15.0" stroke="none" stroke-width="0" transform="rotate(90.0,790.0,207.0)" x="790.0" y="222.0">улица Горчакова</text>
      <text fill="#00afaf" font-family="Arial" font-size="15.0" stroke="none" stroke-width="0" x="471.0" y="437.0">Черневская улица</text>
      <text fill="#000000" font-family="Arial" font-size="10.0" stroke="none" stroke-width="0" x="647.0" y="348.0">кассы</text>
      <polygon fill="#8cbcfc" points="4.0,222.0 4.0,192.0 454.0,192.0 454.0,222.0" stroke="#000000" stroke-width="1"/>
      <polygon fill="#8cbcfc" points="4.0,332.0 4.0,302.0 454.0,302.0 454.0,332.0" stroke="#000000" stroke-width="1"/>
      <polyline fill="none" points="454.0,222.0 454.0,229.0 527.0,229.0 527.0,207.0 553.0,207.0 553.0,187.0 593.0,187.0" stroke="#000000" stroke-width="1"/>
      <path d="M593.0,187.0 C593.0,187.0 591.8333333333334,187.5 593.0,187.0 C594.1666666666666,186.5 598.3333333333334,185.66666666666666 600.0,184.0 C601.6666666666666,182.33333333333334 603.0,177.0 603.0,177.0 " fill="none" stroke="#000000" stroke-width="1"/>
      <polyline fill="none" points="603.0,177.0 683.0,177.0 683.0,188.0" stroke="#000000" stroke-width="1"/>
      <polyline fill="none" points="454.0,302.0 454.0,294.0 527.0,294.0 527.0,313.0 611.0,313.0" stroke="#000000" stroke-width="1"/>
      <path d="M611.0,313.0 C611.0,313.0 607.8333333333334,311.6666666666667 611.0,313.0 C614.1666666666666,314.3333333333333 625.5,316.5 630.0,321.0 C634.5,325.5 638.0,340.0 638.0,340.0 " fill="none" stroke="#000000" stroke-width="1"/>
      <polyline fill="none" points="638.0,340.0 683.0,340.0 683.0,288.0" stroke="#000000" stroke-width="1"/>
      <polyline fill="none" points="641.0,340.0 641.0,350.0 681.0,350.0 681.0,340.0" stroke="#000000" stroke-width="1"/>
      <polygon fill="#d0d0d0" points="605.0,251.0 683.0,251.0 683.0,225.0 605.0,225.0 599.0,226.0 595.0,229.0 592.0,233.0 591.0,238.0 592.0,243.0 595.0,247.0 599.0,250.0" stroke="#d0d0d0" stroke-width="1"/>
      <polyline fill="none" points="605.0,251.0 683.0,251.0 683.0,225.0 605.0,225.0" stroke="#000000" stroke-width="1"/>
      <path d="M605.0,225.0 C605.0,225.0 606.0,224.83333333333334 605.0,225.0 C604.0,225.16666666666666 600.6666666666666,225.33333333333334 599.0,226.0 C597.3333333333334,226.66666666666666 596.1666666666666,227.83333333333334 595.0,229.0 C593.8333333333334,230.16666666666666 592.6666666666666,231.5 592.0,233.0 C591.3333333333334,234.5 591.0,236.33333333333334 591.0,238.0 C591.0,239.66666666666666 591.3333333333334,241.5 592.0,243.0 C592.6666666666666,244.5 593.8333333333334,245.83333333333334 595.0,247.0 C596.1666666666666,248.16666666666666 597.3333333333334,249.33333333333334 599.0,250.0 C600.6666666666666,250.66666666666666 605.0,251.0 605.0,251.0 " fill="none" stroke="#000000" stroke-width="1"/>
      <line stroke="#7f7f7f" stroke-width="1" x1="524.0" x2="524.0" y1="233.0" y2="290.0"/>
      <line stroke="#7f7f7f" stroke-width="1" x1="520.0" x2="520.0" y1="233.0" y2="290.0"/>
      <line stroke="#7f7f7f" stroke-width="1" x1="516.0" x2="516.0" y1="233.0" y2="290.0"/>
      <line stroke="#7f7f7f" stroke-width="1" x1="512.0" x2="512.0" y1="233.0" y2="290.0"/>
      <line stroke="#7f7f7f" stroke-width="1" x1="508.0" x2="508.0" y1="233.0" y2="290.0"/>
      <line stroke="#7f7f7f" stroke-width="1" x1="504.0" x2="504.0" y1="233.0" y2="290.0"/>
      <line stroke="#7f7f7f" stroke-width="1" x1="500.0" x2="500.0" y1="233.0" y2="290.0"/>
      <line stroke="#7f7f7f" stroke-width="1" x1="496.0" x2="496.0" y1="233.0" y2="290.0"/>
      <line stroke="#7f7f7f" stroke-width="1" x1="492.0" x2="492.0" y1="233.0" y2="290.0"/>
      <line stroke="#7f7f7f" stroke-width="1" x1="488.0" x2="488.0" y1="233.0" y2="290.0"/>
      <line stroke="#7f7f7f" stroke-width="1" x1="484.0" x2="484.0" y1="233.0" y2="290.0"/>
      <line stroke="#7f7f7f" stroke-width="1" x1="480.0" x2="480.0" y1="233.0" y2="290.0"/>
      <line stroke="#7f7f7f" stroke-width="1" x1="476.0" x2="476.0" y1="233.0" y2="290.0"/>
      <line stroke="#7f7f7f" stroke-width="1" x1="472.0" x2="472.0" y1="233.0" y2="290.0"/>
      <line stroke="#7f7f7f" stroke-width="1" x1="468.0" x2="468.0" y1="233.0" y2="290.0"/>
      <line stroke="#7f7f7f" stroke-width="1" x1="464.0" x2="464.0" y1="233.0" y2="290.0"/>
      <polygon fill="#9b5509" points="457.0,247.0 530.0,247.0 530.0,254.0 457.0,254.0" stroke="#000000" stroke-width="1"/>
      <polygon fill="#9b5509" points="457.0,269.0 530.0,269.0 530.0,276.0 457.0,276.0" stroke="#000000" stroke-width="1"/>
      <polygon fill="#9b5509" points="457.0,229.0 530.0,229.0 530.0,233.0 457.0,233.0" stroke="#000000" stroke-width="1"/>
      <polygon fill="#9b5509" points="457.0,290.0 530.0,290.0 530.0,294.0 457.0,294.0" stroke="#000000" stroke-width="1"/>
      <polyline fill="none" marker-end="url(#id315)" points="624.0,206.0 640.0,206.0" stroke="#ff0000" stroke-width="1"/>
      <polyline fill="none" marker-end="url(#id315)" points="640.0,279.0 624.0,279.0" stroke="#009900" stroke-width="1"/>
      <line stroke="#009900" stroke-width="1" x1="610.0" x2="605.0" y1="308.0" y2="308.0"/>
      <line stroke="#009900" stroke-width="1" x1="610.0" x2="605.0" y1="304.0" y2="304.0"/>
      <line stroke="#009900" stroke-width="1" x1="610.0" x2="605.0" y1="300.0" y2="300.0"/>
      <line stroke="#009900" stroke-width="1" x1="610.0" x2="605.0" y1="296.0" y2="296.0"/>
      <line stroke="#009900" stroke-width="1" x1="610.0" x2="605.0" y1="292.0" y2="292.0"/>
      <line stroke="#009900" stroke-width="1" x1="610.0" x2="605.0" y1="288.0" y2="288.0"/>
      <line stroke="#009900" stroke-width="1" x1="610.0" x2="605.0" y1="284.0" y2="284.0"/>
      <line stroke="#009900" stroke-width="1" x1="610.0" x2="605.0" y1="280.0" y2="280.0"/>
      <line stroke="#009900" stroke-width="1" x1="610.0" x2="605.0" y1="276.0" y2="276.0"/>
      <line stroke="#009900" stroke-width="1" x1="610.0" x2="605.0" y1="272.0" y2="272.0"/>
      <line stroke="#009900" stroke-width="1" x1="610.0" x2="605.0" y1="268.0" y2="268.0"/>
      <line stroke="#009900" stroke-width="1" x1="610.0" x2="605.0" y1="264.0" y2="264.0"/>
      <line stroke="#009900" stroke-width="1" x1="610.0" x2="605.0" y1="260.0" y2="260.0"/>
      <line stroke="#009900" stroke-width="1" x1="610.0" x2="605.0" y1="256.0" y2="256.0"/>
      <line stroke="#ff0000" stroke-width="1" x1="560.0" x2="556.0" y1="190.0" y2="194.0"/>
      <line stroke="#ff0000" stroke-width="1" x1="562.8284271247462" x2="558.8284271247462" y1="192.82842712474618" y2="196.82842712474618"/>
      <line stroke="#ff0000" stroke-width="1" x1="565.6568542494924" x2="561.6568542494924" y1="195.65685424949237" y2="199.65685424949237"/>
      <line stroke="#ff0000" stroke-width="1" x1="568.4852813742386" x2="564.4852813742386" y1="198.48528137423855" y2="202.48528137423855"/>
      <line stroke="#ff0000" stroke-width="1" x1="571.3137084989849" x2="567.3137084989849" y1="201.31370849898474" y2="205.31370849898474"/>
      <line stroke="#ff0000" stroke-width="1" x1="574.1421356237311" x2="570.1421356237311" y1="204.14213562373092" y2="208.14213562373092"/>
      <line stroke="#ff0000" stroke-width="1" x1="576.9705627484773" x2="572.9705627484773" y1="206.9705627484771" y2="210.9705627484771"/>
      <line stroke="#ff0000" stroke-width="1" x1="579.7989898732235" x2="575.7989898732235" y1="209.7989898732233" y2="213.7989898732233"/>
      <line stroke="#ff0000" stroke-width="1" x1="582.6274169979697" x2="578.6274169979697" y1="212.62741699796948" y2="216.62741699796948"/>
      <line stroke="#ff0000" stroke-width="1" x1="585.4558441227159" x2="581.4558441227159" y1="215.45584412271566" y2="219.45584412271566"/>
      <line stroke="#ff0000" stroke-width="1" x1="588.2842712474621" x2="584.2842712474621" y1="218.28427124746185" y2="222.28427124746185"/>
      <line stroke="#ff0000" stroke-width="1" x1="591.1126983722083" x2="587.1126983722083" y1="221.11269837220803" y2="225.11269837220803"/>
      <line stroke="#ff0000" stroke-width="1" x1="593.9411254969546" x2="589.9411254969546" y1="223.94112549695421" y2="227.94112549695421"/>
      <polygon fill="#34349c" points="565.0,310.0 565.0,308.0 570.0,308.0 570.0,310.0" stroke="#34349c" stroke-width="1"/>
      <polygon fill="#ff0000" points="570.0,310.0 570.0,308.0 575.0,308.0 575.0,310.0" stroke="#ff0000" stroke-width="1"/>
      <polyline fill="none" points="4.0,222.0 4.0,233.0" stroke="#000000" stroke-width="1"/>
      <polyline fill="none" points="4.0,290.0 4.0,302.0" stroke="#000000" stroke-width="1"/>
      <polygon fill="#d0efff" points="-11.0,233.0 4.0,233.0 4.0,290.0 -11.0,290.0" stroke="#000000" stroke-width="1"/>
      <text fill="#000000" font-family="Arial" font-size="15.0" stroke="none" stroke-width="0" transform="rotate(90.0,7.0,241.0)" x="7.0" y="256.0">лифты</text>
    </g>
    <g>
      <rect fill="#615f56" height="30.0" stroke="none" stroke-width="0" width="30.0" x="640.0" y="62.0"/>
      <text fill="#ffd900" font-family="Arial" font-size="25.0" stroke="none" stroke-width="0" x="648.0" y="88.0">1</text>
    </g>
  </g>
</svg>
