<?xml version="1.0" encoding="utf-8" ?>
<svg baseProfile="full" height="100%" version="1.1" width="100%" xmlns="http://www.w3.org/2000/svg" xmlns:ev="http://www.w3.org/2001/xml-events" xmlns:xlink="http://www.w3.org/1999/xlink">
  <defs>
    <marker id="id320" markerHeight="3" markerUnits="strokeWidth" markerWidth="4" orient="auto" refX="0" refY="5" viewBox="0,0,10,10">
      <path d="M 0 0 L 10 5 L 0 10 z"/>
    </marker>
  </defs>
  <g>
    <rect fill="none" height="930" stroke="none" stroke-width="0" width="700" x="0" y="0"/>
    <g transform="rotate(87.0,350,465)">
      <polygon fill="#9ca4a4" points="621,475 621,505 171,505 171,475" stroke="#000000" stroke-width="1"/>
      <polygon fill="#9ca4a4" points="171,585 171,615 621,615 621,585" stroke="#000000" stroke-width="1"/>
      <text fill="#4c4c4c" font-family="Arial" font-size="25" stroke="none" stroke-width="0" x="249" y="547.0">Улица академика Янгеля</text>
      <text fill="#4c4c4c" font-family="Arial" font-size="20" stroke="none" stroke-width="0" x="530" y="635.0">Аннино &gt;&gt;</text>
      <text fill="#4c4c4c" font-family="Arial" font-size="20" stroke="none" stroke-width="0" x="174" y="468.0">&lt;&lt;Пражская</text>
      <line stroke="#7f7f7f" stroke-width="1" x1="695" x2="695" y1="568" y2="524"/>
      <line stroke="#7f7f7f" stroke-width="1" x1="691.003775367" x2="691.003775367" y1="567.826251103" y2="523.826251103"/>
      <line stroke="#7f7f7f" stroke-width="1" x1="687.007550733" x2="687.007550733" y1="567.652502206" y2="523.652502206"/>
      <line stroke="#7f7f7f" stroke-width="1" x1="683.0113261" x2="683.0113261" y1="567.478753309" y2="523.478753309"/>
      <line stroke="#7f7f7f" stroke-width="1" x1="679.015101466" x2="679.015101466" y1="567.305004412" y2="523.305004412"/>
      <line stroke="#7f7f7f" stroke-width="1" x1="675.018876833" x2="675.018876833" y1="567.131255514" y2="523.131255514"/>
      <line stroke="#7f7f7f" stroke-width="1" x1="671.022652199" x2="671.022652199" y1="566.957506617" y2="522.957506617"/>
      <line stroke="#7f7f7f" stroke-width="1" x1="667.026427566" x2="667.026427566" y1="566.78375772" y2="522.78375772"/>
      <line stroke="#7f7f7f" stroke-width="1" x1="663.030202933" x2="663.030202933" y1="566.610008823" y2="522.610008823"/>
      <line stroke="#7f7f7f" stroke-width="1" x1="659.033978299" x2="659.033978299" y1="566.436259926" y2="522.436259926"/>
      <line stroke="#7f7f7f" stroke-width="1" x1="655.037753666" x2="655.037753666" y1="566.262511029" y2="522.262511029"/>
      <line stroke="#7f7f7f" stroke-width="1" x1="651.041529032" x2="651.041529032" y1="566.088762132" y2="522.088762132"/>
      <line stroke="#7f7f7f" stroke-width="1" x1="647.045304399" x2="647.045304399" y1="565.915013235" y2="521.915013235"/>
      <line stroke="#7f7f7f" stroke-width="1" x1="643.049079766" x2="643.049079766" y1="565.741264338" y2="521.741264338"/>
      <line stroke="#7f7f7f" stroke-width="1" x1="639.052855132" x2="639.052855132" y1="565.567515441" y2="521.567515441"/>
      <line stroke="#7f7f7f" stroke-width="1" x1="635.056630499" x2="635.056630499" y1="565.393766543" y2="521.393766543"/>
      <line stroke="#7f7f7f" stroke-width="1" x1="631.060405865" x2="631.060405865" y1="565.220017646" y2="521.220017646"/>
      <line stroke="#7f7f7f" stroke-width="1" x1="627.064181232" x2="627.064181232" y1="565.046268749" y2="521.046268749"/>
      <polygon fill="#9b5509" points="621,555 697,555 697,550 621,550" stroke="#000000" stroke-width="1"/>
      <polygon fill="#9b5509" points="621,540 697,540 697,535 621,535" stroke="#000000" stroke-width="1"/>
      <polygon fill="#9b5509" points="621,569 697,569 697,565 621,565" stroke="#000000" stroke-width="1"/>
      <polygon fill="#9b5509" points="621,525 697,525 697,521 621,521" stroke="#000000" stroke-width="1"/>
      <polyline fill="none" points="621,521 621,505" stroke="#000000" stroke-width="1"/>
    </g>
    <g fill="#9b5509" fill-opacity="0.85" stroke="#000000" stroke-opacity="0.85" transform="rotate(87.0,350,465)">
      <polygon fill="#ffffff" points="671,572 646,572 646,519 671,519" stroke="#ffffff" stroke-width="1"/>
      <polygon fill="#ffffff" points="656,536 614,537 577,530 582,509 619,516 649,515" stroke="#ffffff" stroke-width="1"/>
    </g>
    <g fill="#ffffff" fill-opacity="1.0" stroke="#ffffff" stroke-opacity="1.0" transform="rotate(87.0,350,465)">
      <polyline fill="none" points="621,569 621,585" stroke="#000000" stroke-width="1"/>
      <polyline fill="none" points="575,530 614,537 645,537 645,599 788,599 788,491 671,491 671,486 707,344 646,328" stroke="#000000" stroke-width="1"/>
      <polyline fill="none" points="610,469 646,479 645,486 645,515 619,515 580,508" stroke="#000000" stroke-width="1"/>
      <polyline fill="none" points="616,450 650,459 675,360 640,351" stroke="#000000" stroke-width="1"/>
      <line stroke="#000000" stroke-width="1" x1="615" x2="611" y1="515" y2="536"/>
      <line stroke="#000000" stroke-width="1" x1="611.060865765" x2="607.060865765" y1="514.304858664" y2="535.304858664"/>
      <line stroke="#000000" stroke-width="1" x1="607.121731529" x2="603.121731529" y1="513.609717329" y2="534.609717329"/>
      <line stroke="#000000" stroke-width="1" x1="603.182597294" x2="599.182597294" y1="512.914575993" y2="533.914575993"/>
      <line stroke="#000000" stroke-width="1" x1="599.243463059" x2="595.243463059" y1="512.219434657" y2="533.219434657"/>
      <line stroke="#000000" stroke-width="1" x1="595.304328824" x2="591.304328824" y1="511.524293322" y2="532.524293322"/>
      <line stroke="#000000" stroke-width="1" x1="591.365194588" x2="587.365194588" y1="510.829151986" y2="531.829151986"/>
      <line stroke="#000000" stroke-width="1" x1="587.426060353" x2="583.426060353" y1="510.134010651" y2="531.134010651"/>
      <line stroke="#000000" stroke-width="1" x1="583.486926118" x2="579.486926118" y1="509.438869315" y2="530.438869315"/>
      <line stroke="#000000" stroke-width="1" x1="646" x2="641" y1="458" y2="477"/>
      <line stroke="#000000" stroke-width="1" x1="642.135060242" x2="637.135060242" y1="456.969349398" y2="475.969349398"/>
      <line stroke="#000000" stroke-width="1" x1="638.270120483" x2="633.270120483" y1="455.938698796" y2="474.938698796"/>
      <line stroke="#000000" stroke-width="1" x1="634.405180725" x2="629.405180725" y1="454.908048193" y2="473.908048193"/>
      <line stroke="#000000" stroke-width="1" x1="630.540240966" x2="625.540240966" y1="453.877397591" y2="472.877397591"/>
      <line stroke="#000000" stroke-width="1" x1="626.675301208" x2="621.675301208" y1="452.846746989" y2="471.846746989"/>
      <line stroke="#000000" stroke-width="1" x1="622.81036145" x2="617.81036145" y1="451.816096387" y2="470.816096387"/>
      <line stroke="#000000" stroke-width="1" x1="618.945421691" x2="613.945421691" y1="450.785445784" y2="469.785445784"/>
      <line stroke="#000000" stroke-width="1" x1="648" x2="642" y1="329" y2="351"/>
      <line stroke="#000000" stroke-width="1" x1="651.880570001" x2="645.880570001" y1="329.9701425" y2="351.9701425"/>
      <line stroke="#000000" stroke-width="1" x1="655.761140001" x2="649.761140001" y1="330.940285" y2="352.940285"/>
      <line stroke="#000000" stroke-width="1" x1="659.641710002" x2="653.641710002" y1="331.9104275" y2="353.9104275"/>
      <line stroke="#000000" stroke-width="1" x1="663.522280002" x2="657.522280002" y1="332.880570001" y2="354.880570001"/>
      <line stroke="#000000" stroke-width="1" x1="667.402850003" x2="661.402850003" y1="333.850712501" y2="355.850712501"/>
      <line stroke="#000000" stroke-width="1" x1="671.283420003" x2="665.283420003" y1="334.820855001" y2="356.820855001"/>
      <line stroke="#000000" stroke-width="1" x1="675.163990004" x2="669.163990004" y1="335.790997501" y2="357.790997501"/>
      <line stroke="#000000" stroke-width="1" x1="679.044560005" x2="673.044560005" y1="336.761140001" y2="358.761140001"/>
      <polygon fill="#d0d0d0" points="671,573 701,573 701,569 676,569 676,521 701,521 701,517 671,517" stroke="#000000" stroke-width="1"/>
      <polyline fill="none" points="788,566 797,566 797,595 788,595" stroke="#000000" stroke-width="1"/>
      <text fill="#000000" font-family="Arial" font-size="10" stroke="none" stroke-width="0" transform="rotate(-90.0,785,592)" x="785" y="602.0">кассы</text>
      <polygon fill="none" points="737,570 740,566 735,563 732,567" stroke="#000000" stroke-width="1"/>
      <polyline fill="none" points="761,530 788,530" stroke="#000000" stroke-width="0.5"/>
      <polyline fill="none" points="733,571 701,571" stroke="#000000" stroke-width="0.5"/>
      <line stroke="#009900" stroke-width="1" x1="762" x2="757" y1="534" y2="531"/>
      <line stroke="#009900" stroke-width="1" x1="759.706150623" x2="754.706150623" y1="537.276927682" y2="534.276927682"/>
      <line stroke="#009900" stroke-width="1" x1="757.412301245" x2="752.412301245" y1="540.553855364" y2="537.553855364"/>
      <line stroke="#009900" stroke-width="1" x1="755.118451868" x2="750.118451868" y1="543.830783046" y2="540.830783046"/>
      <line stroke="#009900" stroke-width="1" x1="752.82460249" x2="747.82460249" y1="547.107710728" y2="544.107710728"/>
      <line stroke="#009900" stroke-width="1" x1="750.530753113" x2="745.530753113" y1="550.38463841" y2="547.38463841"/>
      <line stroke="#009900" stroke-width="1" x1="748.236903735" x2="743.236903735" y1="553.661566092" y2="550.661566092"/>
      <line stroke="#009900" stroke-width="1" x1="745.943054358" x2="740.943054358" y1="556.938493775" y2="553.938493775"/>
      <line stroke="#009900" stroke-width="1" x1="743.64920498" x2="738.64920498" y1="560.215421457" y2="557.215421457"/>
      <line stroke="#009900" stroke-width="1" x1="741.355355603" x2="736.355355603" y1="563.492349139" y2="560.492349139"/>
      <line stroke="#ff0000" stroke-width="1" x1="691" x2="696" y1="514" y2="514"/>
      <line stroke="#ff0000" stroke-width="1" x1="691" x2="696" y1="510" y2="510"/>
      <line stroke="#ff0000" stroke-width="1" x1="691" x2="696" y1="506" y2="506"/>
      <line stroke="#ff0000" stroke-width="1" x1="691" x2="696" y1="502" y2="502"/>
      <line stroke="#ff0000" stroke-width="1" x1="691" x2="696" y1="498" y2="498"/>
      <line stroke="#ff0000" stroke-width="1" x1="691" x2="696" y1="494" y2="494"/>
      <polyline fill="none" points="37,617 1,617 1,607 101,607 101,575 171,575 171,585" stroke="#000000" stroke-width="1"/>
      <polyline fill="none" points="-65,178 -6,189 -35,339 16,349 2,419 2,484 101,484 101,515 171,515 171,505" stroke="#000000" stroke-width="1"/>
      <polyline fill="none" points="-69,198 -34,205 -59,334 -94,328" stroke="#000000" stroke-width="1"/>
      <polyline fill="none" points="-98,347 -14,363 -24,414 -61,407" stroke="#000000" stroke-width="1"/>
      <polyline fill="none" points="-66,428 -25,436 -25,641 37,641" stroke="#000000" stroke-width="1"/>
      <line stroke="#000000" stroke-width="1" x1="3" x2="3" y1="617" y2="641"/>
      <line stroke="#000000" stroke-width="1" x1="7" x2="7" y1="617" y2="641"/>
      <line stroke="#000000" stroke-width="1" x1="11" x2="11" y1="617" y2="641"/>
      <line stroke="#000000" stroke-width="1" x1="15" x2="15" y1="617" y2="641"/>
      <line stroke="#000000" stroke-width="1" x1="19" x2="19" y1="617" y2="641"/>
      <line stroke="#000000" stroke-width="1" x1="23" x2="23" y1="617" y2="641"/>
      <line stroke="#000000" stroke-width="1" x1="27" x2="27" y1="617" y2="641"/>
      <line stroke="#000000" stroke-width="1" x1="31" x2="31" y1="617" y2="641"/>
      <line stroke="#000000" stroke-width="1" x1="35" x2="35" y1="617" y2="641"/>
      <line stroke="#000000" stroke-width="1" x1="-29" x2="-33" y1="413" y2="434"/>
      <line stroke="#000000" stroke-width="1" x1="-32.9314887477" x2="-36.9314887477" y1="412.26284586" y2="433.26284586"/>
      <line stroke="#000000" stroke-width="1" x1="-36.8629774955" x2="-40.8629774955" y1="411.52569172" y2="432.52569172"/>
      <line stroke="#000000" stroke-width="1" x1="-40.7944662432" x2="-44.7944662432" y1="410.788537579" y2="431.788537579"/>
      <line stroke="#000000" stroke-width="1" x1="-44.7259549909" x2="-48.7259549909" y1="410.051383439" y2="431.051383439"/>
      <line stroke="#000000" stroke-width="1" x1="-48.6574437387" x2="-52.6574437387" y1="409.314229299" y2="430.314229299"/>
      <line stroke="#000000" stroke-width="1" x1="-52.5889324864" x2="-56.5889324864" y1="408.577075159" y2="429.577075159"/>
      <line stroke="#000000" stroke-width="1" x1="-56.5204212342" x2="-60.5204212342" y1="407.839921019" y2="428.839921019"/>
      <line stroke="#000000" stroke-width="1" x1="-60.4519099819" x2="-64.4519099819" y1="407.102766878" y2="428.102766878"/>
      <line stroke="#000000" stroke-width="1" x1="-61" x2="-65" y1="334" y2="353"/>
      <line stroke="#000000" stroke-width="1" x1="-64.9314887477" x2="-68.9314887477" y1="333.26284586" y2="352.26284586"/>
      <line stroke="#000000" stroke-width="1" x1="-68.8629774955" x2="-72.8629774955" y1="332.52569172" y2="351.52569172"/>
      <line stroke="#000000" stroke-width="1" x1="-72.7944662432" x2="-76.7944662432" y1="331.788537579" y2="350.788537579"/>
      <line stroke="#000000" stroke-width="1" x1="-76.7259549909" x2="-80.7259549909" y1="331.051383439" y2="350.051383439"/>
      <line stroke="#000000" stroke-width="1" x1="-80.6574437387" x2="-84.6574437387" y1="330.314229299" y2="349.314229299"/>
      <line stroke="#000000" stroke-width="1" x1="-84.5889324864" x2="-88.5889324864" y1="329.577075159" y2="348.577075159"/>
      <line stroke="#000000" stroke-width="1" x1="-88.5204212342" x2="-92.5204212342" y1="328.839921019" y2="347.839921019"/>
      <line stroke="#000000" stroke-width="1" x1="-92.4519099819" x2="-96.4519099819" y1="328.102766878" y2="347.102766878"/>
      <line stroke="#000000" stroke-width="1" x1="-32" x2="-36" y1="184" y2="204"/>
      <line stroke="#000000" stroke-width="1" x1="-35.9314887477" x2="-39.9314887477" y1="183.26284586" y2="203.26284586"/>
      <line stroke="#000000" stroke-width="1" x1="-39.8629774955" x2="-43.8629774955" y1="182.52569172" y2="202.52569172"/>
      <line stroke="#000000" stroke-width="1" x1="-43.7944662432" x2="-47.7944662432" y1="181.788537579" y2="201.788537579"/>
      <line stroke="#000000" stroke-width="1" x1="-47.7259549909" x2="-51.7259549909" y1="181.051383439" y2="201.051383439"/>
      <line stroke="#000000" stroke-width="1" x1="-51.6574437387" x2="-55.6574437387" y1="180.314229299" y2="200.314229299"/>
      <line stroke="#000000" stroke-width="1" x1="-55.5889324864" x2="-59.5889324864" y1="179.577075159" y2="199.577075159"/>
      <line stroke="#000000" stroke-width="1" x1="-59.5204212342" x2="-63.5204212342" y1="178.839921019" y2="198.839921019"/>
      <line stroke="#000000" stroke-width="1" x1="-63.4519099819" x2="-67.4519099819" y1="178.102766878" y2="198.102766878"/>
      <line stroke="#000000" stroke-width="1" x1="-34" x2="-30" y1="359" y2="340"/>
      <line stroke="#000000" stroke-width="1" x1="-30.0952517593" x2="-26.0952517593" y1="359.867721831" y2="340.867721831"/>
      <line stroke="#000000" stroke-width="1" x1="-26.1905035185" x2="-22.1905035185" y1="360.735443663" y2="341.735443663"/>
      <line stroke="#000000" stroke-width="1" x1="-22.2857552778" x2="-18.2857552778" y1="361.603165494" y2="342.603165494"/>
      <line stroke="#000000" stroke-width="1" x1="-18.3810070371" x2="-14.3810070371" y1="362.470887325" y2="343.470887325"/>
      <polygon fill="#d0d0d0" points="2,574 10,574 10,517 2,517" stroke="#000000" stroke-width="1"/>
      <line stroke="#000000" stroke-width="1" x1="104" x2="104" y1="575" y2="515"/>
      <line stroke="#000000" stroke-width="1" x1="108" x2="108" y1="575" y2="515"/>
      <line stroke="#000000" stroke-width="1" x1="112" x2="112" y1="575" y2="515"/>
      <line stroke="#000000" stroke-width="1" x1="116" x2="116" y1="575" y2="515"/>
      <line stroke="#000000" stroke-width="1" x1="120" x2="120" y1="575" y2="515"/>
      <line stroke="#000000" stroke-width="1" x1="124" x2="124" y1="575" y2="515"/>
      <line stroke="#000000" stroke-width="1" x1="128" x2="128" y1="575" y2="515"/>
      <line stroke="#000000" stroke-width="1" x1="132" x2="132" y1="575" y2="515"/>
      <line stroke="#000000" stroke-width="1" x1="136" x2="136" y1="575" y2="515"/>
      <line stroke="#000000" stroke-width="1" x1="140" x2="140" y1="575" y2="515"/>
      <line stroke="#000000" stroke-width="1" x1="144" x2="144" y1="575" y2="515"/>
      <line stroke="#000000" stroke-width="1" x1="148" x2="148" y1="575" y2="515"/>
      <line stroke="#000000" stroke-width="1" x1="152" x2="152" y1="575" y2="515"/>
      <line stroke="#000000" stroke-width="1" x1="156" x2="156" y1="575" y2="515"/>
      <line stroke="#000000" stroke-width="1" x1="160" x2="160" y1="575" y2="515"/>
      <line stroke="#000000" stroke-width="1" x1="164" x2="164" y1="575" y2="515"/>
      <line stroke="#000000" stroke-width="1" x1="168" x2="168" y1="575" y2="515"/>
      <polyline fill="none" points="101,514 71,514" stroke="#000000" stroke-width="0.5"/>
      <polygon fill="none" points="40,572 42,567 47,569 45,574" stroke="#000000" stroke-width="1"/>
      <polyline fill="none" points="45,574 10,574" stroke="#000000" stroke-width="0.5"/>
      <line stroke="#009900" stroke-width="1" x1="49" x2="44" y1="566" y2="564"/>
      <line stroke="#009900" stroke-width="1" x1="50.7064747029" x2="45.7064747029" y1="562.38227363" y2="560.38227363"/>
      <line stroke="#009900" stroke-width="1" x1="52.4129494057" x2="47.4129494057" y1="558.76454726" y2="556.76454726"/>
      <line stroke="#009900" stroke-width="1" x1="54.1194241086" x2="49.1194241086" y1="555.14682089" y2="553.14682089"/>
      <line stroke="#009900" stroke-width="1" x1="55.8258988114" x2="50.8258988114" y1="551.52909452" y2="549.52909452"/>
      <line stroke="#009900" stroke-width="1" x1="57.5323735143" x2="52.5323735143" y1="547.91136815" y2="545.91136815"/>
      <line stroke="#009900" stroke-width="1" x1="59.2388482171" x2="54.2388482171" y1="544.29364178" y2="542.29364178"/>
      <line stroke="#009900" stroke-width="1" x1="60.94532292" x2="55.94532292" y1="540.67591541" y2="538.67591541"/>
      <line stroke="#009900" stroke-width="1" x1="62.6517976228" x2="57.6517976228" y1="537.05818904" y2="535.05818904"/>
      <line stroke="#009900" stroke-width="1" x1="64.3582723257" x2="59.3582723257" y1="533.44046267" y2="531.44046267"/>
      <line stroke="#009900" stroke-width="1" x1="66.0647470285" x2="61.0647470285" y1="529.8227363" y2="527.8227363"/>
      <line stroke="#009900" stroke-width="1" x1="67.7712217314" x2="62.7712217314" y1="526.205009929" y2="524.205009929"/>
      <line stroke="#009900" stroke-width="1" x1="69.4776964342" x2="64.4776964342" y1="522.587283559" y2="520.587283559"/>
      <line stroke="#009900" stroke-width="1" x1="71.1841711371" x2="66.1841711371" y1="518.969557189" y2="516.969557189"/>
      <line stroke="#009900" stroke-width="1" x1="72.8906458399" x2="67.8906458399" y1="515.351830819" y2="513.351830819"/>
      <line stroke="#ff0000" stroke-width="1" x1="40" x2="46" y1="603" y2="603"/>
      <line stroke="#ff0000" stroke-width="1" x1="40" x2="46" y1="599" y2="599"/>
      <line stroke="#ff0000" stroke-width="1" x1="40" x2="46" y1="595" y2="595"/>
      <line stroke="#ff0000" stroke-width="1" x1="40" x2="46" y1="591" y2="591"/>
      <line stroke="#ff0000" stroke-width="1" x1="40" x2="46" y1="587" y2="587"/>
      <line stroke="#ff0000" stroke-width="1" x1="40" x2="46" y1="583" y2="583"/>
      <line stroke="#ff0000" stroke-width="1" x1="40" x2="46" y1="579" y2="579"/>
      <polyline fill="none" points="101,513 109,513 109,486 101,486" stroke="#000000" stroke-width="1"/>
      <text fill="#000000" font-family="Arial" font-size="10" stroke="none" stroke-width="0" transform="rotate(-90.0,98,512)" x="98" y="522.0">кассы</text>
      <polyline fill="none" marker-end="url(#id320)" points="26,589 12,589" stroke="#ff0000" stroke-width="1"/>
      <polyline fill="none" marker-end="url(#id320)" points="718,504 706,504" stroke="#ff0000" stroke-width="1"/>
      <polyline fill="none" marker-end="url(#id320)" points="680,530 691,530" stroke="#ff0000" stroke-width="1"/>
      <polyline fill="none" marker-end="url(#id320)" points="32,521 44,526" stroke="#009900" stroke-width="1"/>
      <polyline fill="none" marker-end="url(#id320)" points="714,585 738,585" stroke="#009900" stroke-width="1"/>
      <polyline fill="none" marker-end="url(#id320)" points="691,560 680,560" stroke="#009900" stroke-width="1"/>
      <polygon fill="#34349c" points="88,516 93,516 93,518 88,518" stroke="#34349c" stroke-width="1"/>
      <polygon fill="#34349c" points="411,557 411,562 413,562 413,557" stroke="#34349c" stroke-width="1"/>
      <polygon fill="#34349c" points="783,544 783,549 785,549 785,544" stroke="#34349c" stroke-width="1"/>
      <polygon fill="#ff0000" points="83,516 88,516 88,518 83,518" stroke="#ff0000" stroke-width="1"/>
      <polygon fill="#ff0000" points="411,552 411,557 413,557 413,552" stroke="#ff0000" stroke-width="1"/>
      <polygon fill="#ff0000" points="783,539 783,544 785,544 785,539" stroke="#ff0000" stroke-width="1"/>
      <text fill="#00afaf" font-family="Arial" font-size="15" stroke="none" stroke-width="0" transform="rotate(-165.0,370,355)" x="370" y="370.0">Варшавское шоссе</text>
      <text fill="#00afaf" font-family="Arial" font-size="15" stroke="none" stroke-width="0" transform="rotate(-75.0,136,786)" x="136" y="801.0">ул. академика Янгеля</text>
      <text fill="#00afaf" font-family="Arial" font-size="15" stroke="none" stroke-width="0" transform="rotate(-75.0,303,252)" x="303" y="267.0">Россошанская улица</text>
    </g>
    <g>
      <rect fill="#615f56" height="30" stroke="none" stroke-width="0" width="30" x="323" y="686"/>
      <rect fill="#615f56" height="30" stroke="none" stroke-width="0" width="30" x="385" y="730"/>
      <rect fill="#615f56" height="30" stroke="none" stroke-width="0" width="30" x="511" y="754"/>
      <rect fill="#615f56" height="30" stroke="none" stroke-width="0" width="30" x="118" y="132"/>
      <rect fill="#615f56" height="30" stroke="none" stroke-width="0" width="30" x="325" y="42"/>
      <rect fill="#615f56" height="30" stroke="none" stroke-width="0" width="30" x="472" y="16"/>
      <rect fill="#615f56" height="30" stroke="none" stroke-width="0" width="30" x="623" y="37"/>
      <text fill="#ffd900" font-family="Arial" font-size="25" stroke="none" stroke-width="0" x="331" y="712.0">1</text>
      <text fill="#ffd900" font-family="Arial" font-size="25" stroke="none" stroke-width="0" x="393" y="756.0">2</text>
      <text fill="#ffd900" font-family="Arial" font-size="25" stroke="none" stroke-width="0" x="519" y="780.0">3</text>
      <text fill="#ffd900" font-family="Arial" font-size="25" stroke="none" stroke-width="0" x="126" y="158.0">4</text>
      <text fill="#ffd900" font-family="Arial" font-size="25" stroke="none" stroke-width="0" x="333" y="68.0">5</text>
      <text fill="#ffd900" font-family="Arial" font-size="25" stroke="none" stroke-width="0" x="480" y="42.0">6</text>
      <text fill="#ffd900" font-family="Arial" font-size="25" stroke="none" stroke-width="0" x="631" y="63.0">7</text>
    </g>
  </g>
</svg>
