<?xml version="1.0" encoding="utf-8" ?>
<svg baseProfile="full" height="100%" version="1.1" width="100%" xmlns="http://www.w3.org/2000/svg" xmlns:ev="http://www.w3.org/2001/xml-events" xmlns:xlink="http://www.w3.org/1999/xlink">
  <defs>
    <marker id="id324" markerHeight="3" markerUnits="strokeWidth" markerWidth="4" orient="auto" refX="0" refY="5" viewBox="0,0,10,10">
      <path d="M 0 0 L 10 5 L 0 10 z"/>
    </marker>
  </defs>
  <g transform="scale(0.5)">
    <rect fill="none" height="660" stroke="none" stroke-width="0" width="1200" x="0" y="0"/>
    <polygon fill="#34649c" points="667,468 217,468 217,438 667,438" stroke="#000000" stroke-width="1"/>
    <polygon fill="#34649c" points="667,358 217,358 217,328 667,328" stroke="#000000" stroke-width="1"/>
    <text fill="#34649c" font-family="Arial" font-size="20" stroke="none" stroke-width="0" x="552" y="488.0">Каширская &gt;&gt;</text>
    <text fill="#34649c" font-family="Arial" font-size="20" stroke="none" stroke-width="0" x="218" y="328.0">&lt;&lt; Каховская</text>
    <text fill="#34649c" font-family="Arial" font-size="25" stroke="none" stroke-width="0" x="380" y="401.0">Варшавская</text>
    <polygon fill="#34349c" points="441,404 441,400 442,400 442,404" stroke="#34349c" stroke-width="1"/>
    <polygon fill="#ff0000" points="441,408 441,404 442,404 442,408" stroke="#ff0000" stroke-width="1"/>
    <polyline fill="none" points="217,358 217,369" stroke="#000000" stroke-width="1"/>
    <polyline fill="none" points="163,369 163,366 151,366 151,331 40,331 40,296 90,296" stroke="#000000" stroke-width="1"/>
    <polyline fill="none" points="90,278 16,278 16,632 90,632" stroke="#000000" stroke-width="1"/>
    <polyline fill="none" points="90,614 40,614 40,464 151,464 151,427 217,427 217,438" stroke="#000000" stroke-width="1"/>
    <line stroke="#000000" stroke-width="1" x1="167" x2="167" y1="396" y2="427"/>
    <line stroke="#000000" stroke-width="1" x1="171" x2="171" y1="396" y2="427"/>
    <line stroke="#000000" stroke-width="1" x1="175" x2="175" y1="396" y2="427"/>
    <line stroke="#000000" stroke-width="1" x1="179" x2="179" y1="396" y2="427"/>
    <line stroke="#000000" stroke-width="1" x1="183" x2="183" y1="396" y2="427"/>
    <line stroke="#000000" stroke-width="1" x1="187" x2="187" y1="396" y2="427"/>
    <line stroke="#000000" stroke-width="1" x1="191" x2="191" y1="396" y2="427"/>
    <line stroke="#000000" stroke-width="1" x1="195" x2="195" y1="396" y2="427"/>
    <line stroke="#000000" stroke-width="1" x1="199" x2="199" y1="396" y2="427"/>
    <line stroke="#000000" stroke-width="1" x1="203" x2="203" y1="396" y2="427"/>
    <line stroke="#000000" stroke-width="1" x1="207" x2="207" y1="396" y2="427"/>
    <line stroke="#000000" stroke-width="1" x1="211" x2="211" y1="396" y2="427"/>
    <line stroke="#000000" stroke-width="1" x1="88" x2="88" y1="296" y2="278"/>
    <line stroke="#000000" stroke-width="1" x1="84" x2="84" y1="296" y2="278"/>
    <line stroke="#000000" stroke-width="1" x1="80" x2="80" y1="296" y2="278"/>
    <line stroke="#000000" stroke-width="1" x1="76" x2="76" y1="296" y2="278"/>
    <line stroke="#000000" stroke-width="1" x1="72" x2="72" y1="296" y2="278"/>
    <line stroke="#000000" stroke-width="1" x1="68" x2="68" y1="296" y2="278"/>
    <line stroke="#000000" stroke-width="1" x1="64" x2="64" y1="296" y2="278"/>
    <line stroke="#000000" stroke-width="1" x1="60" x2="60" y1="296" y2="278"/>
    <line stroke="#000000" stroke-width="1" x1="56" x2="56" y1="296" y2="278"/>
    <line stroke="#000000" stroke-width="1" x1="52" x2="52" y1="296" y2="278"/>
    <line stroke="#000000" stroke-width="1" x1="48" x2="48" y1="296" y2="278"/>
    <line stroke="#000000" stroke-width="1" x1="44" x2="44" y1="296" y2="278"/>
    <line stroke="#000000" stroke-width="1" x1="88" x2="88" y1="614" y2="632"/>
    <line stroke="#000000" stroke-width="1" x1="84" x2="84" y1="614" y2="632"/>
    <line stroke="#000000" stroke-width="1" x1="80" x2="80" y1="614" y2="632"/>
    <line stroke="#000000" stroke-width="1" x1="76" x2="76" y1="614" y2="632"/>
    <line stroke="#000000" stroke-width="1" x1="72" x2="72" y1="614" y2="632"/>
    <line stroke="#000000" stroke-width="1" x1="68" x2="68" y1="614" y2="632"/>
    <line stroke="#000000" stroke-width="1" x1="64" x2="64" y1="614" y2="632"/>
    <line stroke="#000000" stroke-width="1" x1="60" x2="60" y1="614" y2="632"/>
    <line stroke="#000000" stroke-width="1" x1="56" x2="56" y1="614" y2="632"/>
    <line stroke="#000000" stroke-width="1" x1="52" x2="52" y1="614" y2="632"/>
    <line stroke="#000000" stroke-width="1" x1="48" x2="48" y1="614" y2="632"/>
    <line stroke="#000000" stroke-width="1" x1="44" x2="44" y1="614" y2="632"/>
    <polygon fill="#d0d0d0" points="53,434 40,434 40,362 53,362" stroke="#000000" stroke-width="1"/>
    <line stroke="#7f7f7f" stroke-width="1" x1="213" x2="213" y1="393" y2="372"/>
    <line stroke="#7f7f7f" stroke-width="1" x1="209" x2="209" y1="393" y2="372"/>
    <line stroke="#7f7f7f" stroke-width="1" x1="205" x2="205" y1="393" y2="372"/>
    <line stroke="#7f7f7f" stroke-width="1" x1="201" x2="201" y1="393" y2="372"/>
    <line stroke="#7f7f7f" stroke-width="1" x1="197" x2="197" y1="393" y2="372"/>
    <line stroke="#7f7f7f" stroke-width="1" x1="193" x2="193" y1="393" y2="372"/>
    <line stroke="#7f7f7f" stroke-width="1" x1="189" x2="189" y1="393" y2="372"/>
    <line stroke="#7f7f7f" stroke-width="1" x1="185" x2="185" y1="393" y2="372"/>
    <line stroke="#7f7f7f" stroke-width="1" x1="181" x2="181" y1="393" y2="372"/>
    <line stroke="#7f7f7f" stroke-width="1" x1="177" x2="177" y1="393" y2="372"/>
    <line stroke="#7f7f7f" stroke-width="1" x1="173" x2="173" y1="393" y2="372"/>
    <line stroke="#7f7f7f" stroke-width="1" x1="169" x2="169" y1="393" y2="372"/>
    <line stroke="#7f7f7f" stroke-width="1" x1="165" x2="165" y1="393" y2="372"/>
    <polygon fill="#9b5509" points="220,372 158,372 158,369 220,369" stroke="#000000" stroke-width="1"/>
    <polygon fill="#9b5509" points="220,380 220,385 158,385 158,380" stroke="#000000" stroke-width="1"/>
    <polygon fill="#9b5509" points="220,393 158,393 158,396 220,396" stroke="#000000" stroke-width="1"/>
    <polyline fill="none" points="151,435 160,435 160,464 151,464" stroke="#000000" stroke-width="1"/>
    <text fill="#000000" font-family="Arial" font-size="10" stroke="none" stroke-width="0" transform="rotate(-90.0,149,462)" x="149" y="472.0">кассы</text>
    <polyline fill="none" points="151,435 131,435" stroke="#000000" stroke-width="0.5"/>
    <polygon fill="none" points="132,433 129,436 126,433 129,430" stroke="#000000" stroke-width="1"/>
    <polyline fill="none" points="94,398 82,386 82,373" stroke="#000000" stroke-width="0.5"/>
    <polyline fill="none" points="82,378 53,378" stroke="#000000" stroke-width="0.5"/>
    <polyline fill="none" points="82,337 82,331" stroke="#000000" stroke-width="0.5"/>
    <line stroke="#009900" stroke-width="1" x1="124" x2="126" y1="430" y2="428"/>
    <line stroke="#009900" stroke-width="1" x1="121.171572875" x2="123.171572875" y1="427.171572875" y2="425.171572875"/>
    <line stroke="#009900" stroke-width="1" x1="118.343145751" x2="120.343145751" y1="424.343145751" y2="422.343145751"/>
    <line stroke="#009900" stroke-width="1" x1="115.514718626" x2="117.514718626" y1="421.514718626" y2="419.514718626"/>
    <line stroke="#009900" stroke-width="1" x1="112.686291501" x2="114.686291501" y1="418.686291501" y2="416.686291501"/>
    <line stroke="#009900" stroke-width="1" x1="109.857864376" x2="111.857864376" y1="415.857864376" y2="413.857864376"/>
    <line stroke="#009900" stroke-width="1" x1="107.029437252" x2="109.029437252" y1="413.029437252" y2="411.029437252"/>
    <line stroke="#009900" stroke-width="1" x1="104.201010127" x2="106.201010127" y1="410.201010127" y2="408.201010127"/>
    <line stroke="#009900" stroke-width="1" x1="101.372583002" x2="103.372583002" y1="407.372583002" y2="405.372583002"/>
    <line stroke="#009900" stroke-width="1" x1="98.5441558773" x2="100.544155877" y1="404.544155877" y2="402.544155877"/>
    <line stroke="#009900" stroke-width="1" x1="95.7157287525" x2="97.7157287525" y1="401.715728753" y2="399.715728753"/>
    <line stroke="#009900" stroke-width="1" x1="92.8873016278" x2="94.8873016278" y1="398.887301628" y2="396.887301628"/>
    <line stroke="#ff0000" stroke-width="1" x1="80" x2="84" y1="373" y2="373"/>
    <line stroke="#ff0000" stroke-width="1" x1="80" x2="84" y1="369" y2="369"/>
    <line stroke="#ff0000" stroke-width="1" x1="80" x2="84" y1="365" y2="365"/>
    <line stroke="#ff0000" stroke-width="1" x1="80" x2="84" y1="361" y2="361"/>
    <line stroke="#ff0000" stroke-width="1" x1="80" x2="84" y1="357" y2="357"/>
    <line stroke="#ff0000" stroke-width="1" x1="80" x2="84" y1="353" y2="353"/>
    <line stroke="#ff0000" stroke-width="1" x1="80" x2="84" y1="349" y2="349"/>
    <line stroke="#ff0000" stroke-width="1" x1="80" x2="84" y1="345" y2="345"/>
    <line stroke="#ff0000" stroke-width="1" x1="80" x2="84" y1="341" y2="341"/>
    <line stroke="#ff0000" stroke-width="1" x1="80" x2="84" y1="337" y2="337"/>
    <polygon fill="#34349c" points="56,392 56,388 57,388 57,392" stroke="#34349c" stroke-width="1"/>
    <polygon fill="#ff0000" points="56,396 56,392 57,392 57,396" stroke="#ff0000" stroke-width="1"/>
    <polyline fill="none" points="658,428 718,428" stroke="#000000" stroke-width="1"/>
    <polyline fill="none" points="718,368 658,368" stroke="#000000" stroke-width="1"/>
    <line stroke="#000000" stroke-width="1" x1="660" x2="660" y1="368" y2="428"/>
    <line stroke="#000000" stroke-width="1" x1="664" x2="664" y1="368" y2="428"/>
    <line stroke="#000000" stroke-width="1" x1="668" x2="668" y1="368" y2="428"/>
    <line stroke="#000000" stroke-width="1" x1="672" x2="672" y1="368" y2="428"/>
    <line stroke="#000000" stroke-width="1" x1="676" x2="676" y1="368" y2="428"/>
    <line stroke="#000000" stroke-width="1" x1="680" x2="680" y1="368" y2="428"/>
    <line stroke="#000000" stroke-width="1" x1="684" x2="684" y1="368" y2="428"/>
    <line stroke="#000000" stroke-width="1" x1="688" x2="688" y1="368" y2="428"/>
    <line stroke="#000000" stroke-width="1" x1="692" x2="692" y1="368" y2="428"/>
    <line stroke="#000000" stroke-width="1" x1="696" x2="696" y1="368" y2="428"/>
    <line stroke="#000000" stroke-width="1" x1="700" x2="700" y1="368" y2="428"/>
    <line stroke="#000000" stroke-width="1" x1="704" x2="704" y1="368" y2="428"/>
    <line stroke="#000000" stroke-width="1" x1="708" x2="708" y1="368" y2="428"/>
    <line stroke="#000000" stroke-width="1" x1="712" x2="712" y1="368" y2="428"/>
    <line stroke="#000000" stroke-width="1" x1="716" x2="716" y1="368" y2="428"/>
    <line stroke="#000000" stroke-width="1" x1="720" x2="720" y1="368" y2="428"/>
    <line stroke="#000000" stroke-width="1" x1="724" x2="724" y1="368" y2="428"/>
    <line stroke="#000000" stroke-width="1" x1="728" x2="728" y1="368" y2="428"/>
    <polyline fill="none" marker-end="url(#id324)" points="681,385 736,385" stroke="#ff0000" stroke-width="1"/>
    <polyline fill="none" marker-end="url(#id324)" points="736,410 681,410" stroke="#009900" stroke-width="1"/>
    <g fill="#ff0000" fill-opacity="0.8" stroke="#009900" stroke-opacity="0.8" transform="rotate(0.0,600,330)">
      <polygon fill="#ffffff" points="694,367 718,367 718,429 694,429" stroke="#ffffff" stroke-width="1"/>
    </g>
    <g fill="#ffffff" fill-opacity="1.0" stroke="#ffffff" stroke-opacity="1.0" transform="rotate(0.0,600,330)">
      <polyline fill="none" points="667,438 667,428" stroke="#000000" stroke-width="1"/>
      <polyline fill="none" points="718,428 718,368" stroke="#000000" stroke-width="1"/>
      <polyline fill="none" points="690,523 690,527 868,527 868,424 939,424 939,371 869,371 869,272 1152,272 1152,198" stroke="#000000" stroke-width="1"/>
      <polyline fill="none" points="1015,198 1015,248 965,248 965,198" stroke="#000000" stroke-width="1"/>
      <polyline fill="none" points="1033,198 1033,248 1134,248 1134,198" stroke="#000000" stroke-width="1"/>
      <polyline fill="none" points="947,198 947,248 779,248 779,250" stroke="#000000" stroke-width="1"/>
      <polyline fill="none" points="739,250 739,248 690,248" stroke="#000000" stroke-width="1"/>
      <polyline fill="none" points="690,264 694,264 694,503 690,503 690,506" stroke="#000000" stroke-width="1"/>
      <polyline fill="none" points="667,368 667,358" stroke="#000000" stroke-width="1"/>
      <line stroke="#000000" stroke-width="1" x1="947" x2="965" y1="200" y2="200"/>
      <line stroke="#000000" stroke-width="1" x1="947" x2="965" y1="204" y2="204"/>
      <line stroke="#000000" stroke-width="1" x1="947" x2="965" y1="208" y2="208"/>
      <line stroke="#000000" stroke-width="1" x1="947" x2="965" y1="212" y2="212"/>
      <line stroke="#000000" stroke-width="1" x1="947" x2="965" y1="216" y2="216"/>
      <line stroke="#000000" stroke-width="1" x1="947" x2="965" y1="220" y2="220"/>
      <line stroke="#000000" stroke-width="1" x1="947" x2="965" y1="224" y2="224"/>
      <line stroke="#000000" stroke-width="1" x1="947" x2="965" y1="228" y2="228"/>
      <line stroke="#000000" stroke-width="1" x1="947" x2="965" y1="232" y2="232"/>
      <line stroke="#000000" stroke-width="1" x1="947" x2="965" y1="236" y2="236"/>
      <line stroke="#000000" stroke-width="1" x1="947" x2="965" y1="240" y2="240"/>
      <line stroke="#000000" stroke-width="1" x1="947" x2="965" y1="244" y2="244"/>
      <line stroke="#000000" stroke-width="1" x1="1015" x2="1033" y1="200" y2="200"/>
      <line stroke="#000000" stroke-width="1" x1="1015" x2="1033" y1="204" y2="204"/>
      <line stroke="#000000" stroke-width="1" x1="1015" x2="1033" y1="208" y2="208"/>
      <line stroke="#000000" stroke-width="1" x1="1015" x2="1033" y1="212" y2="212"/>
      <line stroke="#000000" stroke-width="1" x1="1015" x2="1033" y1="216" y2="216"/>
      <line stroke="#000000" stroke-width="1" x1="1015" x2="1033" y1="220" y2="220"/>
      <line stroke="#000000" stroke-width="1" x1="1015" x2="1033" y1="224" y2="224"/>
      <line stroke="#000000" stroke-width="1" x1="1015" x2="1033" y1="228" y2="228"/>
      <line stroke="#000000" stroke-width="1" x1="1015" x2="1033" y1="232" y2="232"/>
      <line stroke="#000000" stroke-width="1" x1="1015" x2="1033" y1="236" y2="236"/>
      <line stroke="#000000" stroke-width="1" x1="1015" x2="1033" y1="240" y2="240"/>
      <line stroke="#000000" stroke-width="1" x1="1015" x2="1033" y1="244" y2="244"/>
      <line stroke="#000000" stroke-width="1" x1="1134" x2="1152" y1="200" y2="200"/>
      <line stroke="#000000" stroke-width="1" x1="1134" x2="1152" y1="204" y2="204"/>
      <line stroke="#000000" stroke-width="1" x1="1134" x2="1152" y1="208" y2="208"/>
      <line stroke="#000000" stroke-width="1" x1="1134" x2="1152" y1="212" y2="212"/>
      <line stroke="#000000" stroke-width="1" x1="1134" x2="1152" y1="216" y2="216"/>
      <line stroke="#000000" stroke-width="1" x1="1134" x2="1152" y1="220" y2="220"/>
      <line stroke="#000000" stroke-width="1" x1="1134" x2="1152" y1="224" y2="224"/>
      <line stroke="#000000" stroke-width="1" x1="1134" x2="1152" y1="228" y2="228"/>
      <line stroke="#000000" stroke-width="1" x1="1134" x2="1152" y1="232" y2="232"/>
      <line stroke="#000000" stroke-width="1" x1="1134" x2="1152" y1="236" y2="236"/>
      <line stroke="#000000" stroke-width="1" x1="1134" x2="1152" y1="240" y2="240"/>
      <line stroke="#000000" stroke-width="1" x1="1134" x2="1152" y1="244" y2="244"/>
      <line stroke="#000000" stroke-width="1" x1="917" x2="917" y1="272" y2="248"/>
      <line stroke="#000000" stroke-width="1" x1="913" x2="913" y1="272" y2="248"/>
      <line stroke="#000000" stroke-width="1" x1="909" x2="909" y1="272" y2="248"/>
      <line stroke="#000000" stroke-width="1" x1="905" x2="905" y1="272" y2="248"/>
      <line stroke="#000000" stroke-width="1" x1="901" x2="901" y1="272" y2="248"/>
      <line stroke="#000000" stroke-width="1" x1="897" x2="897" y1="272" y2="248"/>
      <line stroke="#000000" stroke-width="1" x1="893" x2="893" y1="272" y2="248"/>
      <line stroke="#000000" stroke-width="1" x1="889" x2="889" y1="272" y2="248"/>
      <line stroke="#000000" stroke-width="1" x1="885" x2="885" y1="272" y2="248"/>
      <line stroke="#000000" stroke-width="1" x1="881" x2="881" y1="272" y2="248"/>
      <line stroke="#000000" stroke-width="1" x1="877" x2="877" y1="272" y2="248"/>
      <line stroke="#000000" stroke-width="1" x1="873" x2="873" y1="272" y2="248"/>
      <line stroke="#000000" stroke-width="1" x1="728" x2="728" y1="503" y2="527"/>
      <line stroke="#000000" stroke-width="1" x1="732" x2="732" y1="503" y2="527"/>
      <line stroke="#000000" stroke-width="1" x1="736" x2="736" y1="503" y2="527"/>
      <line stroke="#000000" stroke-width="1" x1="740" x2="740" y1="503" y2="527"/>
      <line stroke="#000000" stroke-width="1" x1="744" x2="744" y1="503" y2="527"/>
      <line stroke="#000000" stroke-width="1" x1="748" x2="748" y1="503" y2="527"/>
      <line stroke="#000000" stroke-width="1" x1="752" x2="752" y1="503" y2="527"/>
      <line stroke="#000000" stroke-width="1" x1="756" x2="756" y1="503" y2="527"/>
      <line stroke="#000000" stroke-width="1" x1="760" x2="760" y1="503" y2="527"/>
      <line stroke="#000000" stroke-width="1" x1="764" x2="764" y1="503" y2="527"/>
      <polygon fill="#d0d0d0" points="844,434 829,434 829,361 844,361" stroke="#000000" stroke-width="1"/>
      <polygon fill="#d0d0d0" points="718,278 739,278 739,275 779,275 779,278 844,278 844,331 730,331 730,368 718,368" stroke="#000000" stroke-width="1"/>
      <polygon fill="#d0d0d0" points="718,428 730,428 730,464 844,464 844,503 718,503" stroke="#000000" stroke-width="1"/>
      <line stroke="#7f7f7f" stroke-width="1" x1="781" x2="781" y1="272" y2="253"/>
      <line stroke="#7f7f7f" stroke-width="1" x1="777" x2="777" y1="272" y2="253"/>
      <line stroke="#7f7f7f" stroke-width="1" x1="773" x2="773" y1="272" y2="253"/>
      <line stroke="#7f7f7f" stroke-width="1" x1="769" x2="769" y1="272" y2="253"/>
      <line stroke="#7f7f7f" stroke-width="1" x1="765" x2="765" y1="272" y2="253"/>
      <line stroke="#7f7f7f" stroke-width="1" x1="761" x2="761" y1="272" y2="253"/>
      <line stroke="#7f7f7f" stroke-width="1" x1="757" x2="757" y1="272" y2="253"/>
      <line stroke="#7f7f7f" stroke-width="1" x1="753" x2="753" y1="272" y2="253"/>
      <line stroke="#7f7f7f" stroke-width="1" x1="749" x2="749" y1="272" y2="253"/>
      <line stroke="#7f7f7f" stroke-width="1" x1="745" x2="745" y1="272" y2="253"/>
      <line stroke="#7f7f7f" stroke-width="1" x1="741" x2="741" y1="272" y2="253"/>
      <line stroke="#7f7f7f" stroke-width="1" x1="737" x2="737" y1="272" y2="253"/>
      <polygon fill="#9b5509" points="788,253 730,253 730,250 788,250" stroke="#000000" stroke-width="1"/>
      <polygon fill="#9b5509" points="788,260 788,265 730,265 730,260" stroke="#000000" stroke-width="1"/>
      <polygon fill="#9b5509" points="788,272 730,272 730,275 788,275" stroke="#000000" stroke-width="1"/>
      <polygon fill="#ffffff" points="730,435 721,435 721,464 730,464" stroke="#000000" stroke-width="1"/>
      <text fill="#000000" font-family="Arial" font-size="10" stroke="none" stroke-width="0" transform="rotate(-90.0,718,462)" x="718" y="472.0">кассы</text>
      <polyline fill="none" points="869,354 934,354 934,371" stroke="#000000" stroke-width="1"/>
      <text fill="#000000" font-family="Arial" font-size="10" stroke="none" stroke-width="0" x="876" y="362.0">пригородные</text>
      <text fill="#000000" font-family="Arial" font-size="10" stroke="none" stroke-width="0" x="889" y="370.0">кассы</text>
      <polyline fill="none" points="730,435 746,435" stroke="#000000" stroke-width="0.5"/>
      <polygon fill="none" points="745,433 748,436 751,433 748,430" stroke="#000000" stroke-width="1"/>
      <polyline fill="none" points="798,383 829,383" stroke="#000000" stroke-width="0.5"/>
      <line stroke="#009900" stroke-width="1" x1="753" x2="751" y1="430" y2="428"/>
      <line stroke="#009900" stroke-width="1" x1="755.828427125" x2="753.828427125" y1="427.171572875" y2="425.171572875"/>
      <line stroke="#009900" stroke-width="1" x1="758.656854249" x2="756.656854249" y1="424.343145751" y2="422.343145751"/>
      <line stroke="#009900" stroke-width="1" x1="761.485281374" x2="759.485281374" y1="421.514718626" y2="419.514718626"/>
      <line stroke="#009900" stroke-width="1" x1="764.313708499" x2="762.313708499" y1="418.686291501" y2="416.686291501"/>
      <line stroke="#009900" stroke-width="1" x1="767.142135624" x2="765.142135624" y1="415.857864376" y2="413.857864376"/>
      <line stroke="#009900" stroke-width="1" x1="769.970562748" x2="767.970562748" y1="413.029437252" y2="411.029437252"/>
      <line stroke="#009900" stroke-width="1" x1="772.798989873" x2="770.798989873" y1="410.201010127" y2="408.201010127"/>
      <line stroke="#009900" stroke-width="1" x1="775.627416998" x2="773.627416998" y1="407.372583002" y2="405.372583002"/>
      <line stroke="#009900" stroke-width="1" x1="778.455844123" x2="776.455844123" y1="404.544155877" y2="402.544155877"/>
      <line stroke="#009900" stroke-width="1" x1="781.284271247" x2="779.284271247" y1="401.715728753" y2="399.715728753"/>
      <line stroke="#009900" stroke-width="1" x1="784.112698372" x2="782.112698372" y1="398.887301628" y2="396.887301628"/>
      <line stroke="#009900" stroke-width="1" x1="786.941125497" x2="784.941125497" y1="396.058874503" y2="394.058874503"/>
      <line stroke="#009900" stroke-width="1" x1="789.769552622" x2="787.769552622" y1="393.230447378" y2="391.230447378"/>
      <line stroke="#009900" stroke-width="1" x1="792.597979746" x2="790.597979746" y1="390.402020254" y2="388.402020254"/>
      <line stroke="#009900" stroke-width="1" x1="795.426406871" x2="793.426406871" y1="387.573593129" y2="385.573593129"/>
      <line stroke="#009900" stroke-width="1" x1="798.254833996" x2="796.254833996" y1="384.745166004" y2="382.745166004"/>
      <polygon fill="#34349c" points="825,400 825,404 826,404 826,400" stroke="#34349c" stroke-width="1"/>
      <polygon fill="#ff0000" points="825,396 825,400 826,400 826,396" stroke="#ff0000" stroke-width="1"/>
      <text fill="#00afaf" font-family="Arial" font-size="15" stroke="none" stroke-width="0" x="72" y="549.0">Чонгарский бульвар</text>
      <text fill="#00afaf" font-family="Arial" font-size="15" stroke="none" stroke-width="0" transform="rotate(-90.0,593,216)" x="593" y="231.0">Варшавское шоссе</text>
      <text fill="#00afaf" font-family="Arial" font-size="15" stroke="none" stroke-width="0" transform="rotate(-90.0,976,189)" x="976" y="204.0">'платформа &quot;Коломенское&quot;'</text>
      <text fill="#00afaf" font-family="Arial" font-size="15" stroke="none" stroke-width="0" transform="rotate(-90.0,1169,194)" x="1169" y="209.0">Каширский проезд</text>
      <polyline fill="none" marker-end="url(#id324)" points="106,347 90,347" stroke="#ff0000" stroke-width="1"/>
      <polyline fill="none" marker-end="url(#id324)" points="860,306 860,291" stroke="#ff0000" stroke-width="1"/>
      <polyline fill="none" marker-end="url(#id324)" points="823,347 843,347" stroke="#ff0000" stroke-width="1"/>
      <polyline fill="none" marker-end="url(#id324)" points="837,263 821,263" stroke="#ff0000" stroke-width="1"/>
      <polyline fill="none" marker-end="url(#id324)" points="94,435 103,426" stroke="#009900" stroke-width="1"/>
      <polyline fill="none" marker-end="url(#id324)" points="861,496 861,478" stroke="#009900" stroke-width="1"/>
      <polyline fill="none" marker-end="url(#id324)" points="774,515 790,515" stroke="#009900" stroke-width="1"/>
      <polyline fill="none" marker-end="url(#id324)" points="841,449 822,449" stroke="#009900" stroke-width="1"/>
      <rect fill="#615f56" height="30" stroke="none" stroke-width="0" width="30" x="59" y="577"/>
      <rect fill="#615f56" height="30" stroke="none" stroke-width="0" width="30" x="60" y="242"/>
      <rect fill="#615f56" height="30" stroke="none" stroke-width="0" width="30" x="657" y="535"/>
      <rect fill="#615f56" height="30" stroke="none" stroke-width="0" width="30" x="650" y="239"/>
      <rect fill="#615f56" height="30" stroke="none" stroke-width="0" width="30" x="1092" y="189"/>
      <rect fill="#615f56" height="30" stroke="none" stroke-width="0" width="30" x="1036" y="189"/>
      <text fill="#ffd900" font-family="Arial" font-size="25" stroke="none" stroke-width="0" x="67" y="603.0">1</text>
      <text fill="#ffd900" font-family="Arial" font-size="25" stroke="none" stroke-width="0" x="68" y="268.0">2</text>
      <text fill="#ffd900" font-family="Arial" font-size="25" stroke="none" stroke-width="0" x="657" y="561.0">3.1</text>
      <text fill="#ffd900" font-family="Arial" font-size="25" stroke="none" stroke-width="0" x="650" y="265.0">3.2</text>
      <text fill="#ffd900" font-family="Arial" font-size="25" stroke="none" stroke-width="0" x="1092" y="215.0">4.1</text>
      <text fill="#ffd900" font-family="Arial" font-size="25" stroke="none" stroke-width="0" x="1036" y="215.0">4.2</text>
    </g>
    <g fill="none" fill-opacity="0.7" stroke="#ffd900" stroke-opacity="0.7" transform="rotate(0.0,600,330)">
      <polygon fill="#ffd0d0" points="942,192 969,192 969,251 942,251" stroke="#ffd0d0" stroke-width="1"/>
    </g>
    <g fill="#ffd0d0" fill-opacity="1.0" stroke="#ff4040" stroke-opacity="1.0" transform="rotate(0.0,600,330)">
      <text fill="#ff4040" font-family="Arial" font-size="15" stroke="none" stroke-width="0" transform="rotate(-90.0,946,247)" x="946" y="262.0">закрыто</text>
      <polyline fill="none" points="942,192 969,192 969,251 942,251 942,192" stroke="#ff4040" stroke-dasharray="5 2" stroke-width="1"/>
    </g>
  </g>
</svg>
