<?xml version="1.0" encoding="utf-8" ?>
<svg baseProfile="full" height="100%" version="1.1" width="100%" xmlns="http://www.w3.org/2000/svg" xmlns:ev="http://www.w3.org/2001/xml-events" xmlns:xlink="http://www.w3.org/1999/xlink">
  <defs>
    <marker id="id326" markerHeight="3" markerUnits="strokeWidth" markerWidth="4" orient="auto" refX="0" refY="5" viewBox="0,0,10,10">
      <path d="M 0 0 L 10 5 L 0 10 z"/>
    </marker>
  </defs>
  <g>
    <rect fill="none" height="1180" stroke="none" stroke-width="0" width="920" x="0" y="0"/>
    <g transform="rotate(-85.0,460,590)">
      <polygon fill="#fc9c54" points="633,629 183,629 183,599 633,599" stroke="#000000" stroke-width="1"/>
      <polygon fill="#fc9c54" points="633,519 183,519 183,489 633,489" stroke="#000000" stroke-width="1"/>
      <text fill="#f7782e" font-family="Arial" font-size="25" stroke="none" stroke-width="0" x="420" y="569.0">ВДНХ</text>
      <text fill="#f7782e" font-family="Arial" font-size="20" stroke="none" stroke-width="0" x="447" y="649.0">Ботанический сад &gt;&gt;</text>
      <text fill="#f7782e" font-family="Arial" font-size="20" stroke="none" stroke-width="0" x="290" y="485.0">&lt;&lt; Алексеевская</text>
      <polygon fill="#34349c" points="403,555 405,555 405,560 403,560" stroke="#34349c" stroke-width="1"/>
      <polygon fill="#ff0000" points="403,560 405,560 405,565 403,565" stroke="#ff0000" stroke-width="1"/>
      <polyline fill="none" points="633,599 633,589 532,589 532,576 538,576 538,582 750,582" stroke="#000000" stroke-width="1"/>
      <polyline fill="none" points="633,519 633,528 532,528 532,541 538,541 538,535 751,535" stroke="#000000" stroke-width="1"/>
      <ellipse cx="800" cy="560" fill="#fefbf1" rx="93.0" ry="91.0" stroke="#dfdfdf" stroke-width="1"/>
      <polygon fill="#fefbf1" points="1010,161 1010,330 756,331 756,162" stroke="#dfdfdf" stroke-width="1"/>
      <text fill="#000000" font-family="Arial" font-size="15" stroke="none" stroke-width="0" x="806" y="255.0">музей Космонавтики</text>
      <polygon fill="#d0d0d0" points="864,555 863,570 859,584 852,596 842,607 831,614 820,619 819,611 831,606 841,599 848,590 854,581 857,569 858,556" stroke="#d0d0d0" stroke-width="1"/>
      <polygon fill="#d0d0d0" points="890,582 893,562 891,544 887,529 879,511 867,497 853,485 840,477 821,470 804,468 787,469 767,474 750,482 738,491 728,502 719,516 710,535 751,535 758,523 768,513 779,508 792,504 809,503 821,506 834,512 843,519 850,530 855,528 851,521 844,514 860,495 870,505 876,513 879,519 885,531 889,549 889,566 886,581" stroke="#d0d0d0" stroke-width="1"/>
      <polygon fill="#d0d0d0" points="750,582 755,592 762,600 768,604 779,611 792,613 793,622 785,620 777,618 769,614 761,609 742,631 731,620 722,609 717,600 713,591 710,582" stroke="#d0d0d0" stroke-width="1"/>
      <path d="M890,582 C890,582 889.666666667,587.666666667 890,582 C890.333333333,576.333333333 893.166666667,558.666666667 892,548 C890.833333333,537.333333333 887.333333333,526.833333333 883,518 C878.666666667,509.166666667 873.5,502.0 866,495 C858.5,488.0 848.0,480.5 838,476 C828.0,471.5 816.0,468.833333333 806,468 C796.0,467.166666667 787.0,468.833333333 778,471 C769.0,473.166666667 759.5,476.833333333 752,481 C744.5,485.166666667 738.166666667,490.833333333 733,496 C727.833333333,501.166666667 724.833333333,505.5 721,512 C717.166666667,518.5 710,535 710,535 " fill="none" stroke="#000000" stroke-width="1"/>
      <path d="M710,582 C710,582 708.166666667,577.666666667 710,582 C711.833333333,586.333333333 715.666666667,599.833333333 721,608 C726.333333333,616.166666667 742,631 742,631 " fill="none" stroke="#000000" stroke-width="1"/>
      <line stroke="#7f7f7f" stroke-width="1" x1="767" x2="767" y1="580" y2="537"/>
      <line stroke="#7f7f7f" stroke-width="1" x1="763" x2="763" y1="580" y2="537"/>
      <line stroke="#7f7f7f" stroke-width="1" x1="759" x2="759" y1="580" y2="537"/>
      <line stroke="#7f7f7f" stroke-width="1" x1="755" x2="755" y1="580" y2="537"/>
      <line stroke="#7f7f7f" stroke-width="1" x1="751" x2="751" y1="580" y2="537"/>
      <line stroke="#7f7f7f" stroke-width="1" x1="747" x2="747" y1="580" y2="537"/>
      <line stroke="#7f7f7f" stroke-width="1" x1="743" x2="743" y1="580" y2="537"/>
      <line stroke="#7f7f7f" stroke-width="1" x1="739" x2="739" y1="580" y2="537"/>
      <line stroke="#7f7f7f" stroke-width="1" x1="735" x2="735" y1="580" y2="537"/>
      <line stroke="#7f7f7f" stroke-width="1" x1="731" x2="731" y1="580" y2="537"/>
      <line stroke="#7f7f7f" stroke-width="1" x1="727" x2="727" y1="580" y2="537"/>
      <line stroke="#7f7f7f" stroke-width="1" x1="723" x2="723" y1="580" y2="537"/>
      <line stroke="#7f7f7f" stroke-width="1" x1="719" x2="719" y1="580" y2="537"/>
      <line stroke="#7f7f7f" stroke-width="1" x1="715" x2="715" y1="580" y2="537"/>
      <line stroke="#7f7f7f" stroke-width="1" x1="711" x2="711" y1="580" y2="537"/>
      <line stroke="#7f7f7f" stroke-width="1" x1="707" x2="707" y1="580" y2="537"/>
      <line stroke="#7f7f7f" stroke-width="1" x1="703" x2="703" y1="580" y2="537"/>
      <line stroke="#7f7f7f" stroke-width="1" x1="699" x2="699" y1="580" y2="537"/>
      <line stroke="#7f7f7f" stroke-width="1" x1="695" x2="695" y1="580" y2="537"/>
      <line stroke="#7f7f7f" stroke-width="1" x1="691" x2="691" y1="580" y2="537"/>
      <line stroke="#7f7f7f" stroke-width="1" x1="687" x2="687" y1="580" y2="537"/>
      <line stroke="#7f7f7f" stroke-width="1" x1="683" x2="683" y1="580" y2="537"/>
      <line stroke="#7f7f7f" stroke-width="1" x1="679" x2="679" y1="580" y2="537"/>
      <line stroke="#7f7f7f" stroke-width="1" x1="675" x2="675" y1="580" y2="537"/>
      <line stroke="#7f7f7f" stroke-width="1" x1="671" x2="671" y1="580" y2="537"/>
      <line stroke="#7f7f7f" stroke-width="1" x1="667" x2="667" y1="580" y2="537"/>
      <line stroke="#7f7f7f" stroke-width="1" x1="663" x2="663" y1="580" y2="537"/>
      <line stroke="#7f7f7f" stroke-width="1" x1="659" x2="659" y1="580" y2="537"/>
      <line stroke="#7f7f7f" stroke-width="1" x1="655" x2="655" y1="580" y2="537"/>
      <line stroke="#7f7f7f" stroke-width="1" x1="651" x2="651" y1="580" y2="537"/>
      <line stroke="#7f7f7f" stroke-width="1" x1="647" x2="647" y1="580" y2="537"/>
      <line stroke="#7f7f7f" stroke-width="1" x1="643" x2="643" y1="580" y2="537"/>
      <line stroke="#7f7f7f" stroke-width="1" x1="639" x2="639" y1="580" y2="537"/>
      <line stroke="#7f7f7f" stroke-width="1" x1="635" x2="635" y1="580" y2="537"/>
      <line stroke="#7f7f7f" stroke-width="1" x1="631" x2="631" y1="580" y2="537"/>
      <line stroke="#7f7f7f" stroke-width="1" x1="627" x2="627" y1="580" y2="537"/>
      <line stroke="#7f7f7f" stroke-width="1" x1="623" x2="623" y1="580" y2="537"/>
      <line stroke="#7f7f7f" stroke-width="1" x1="619" x2="619" y1="580" y2="537"/>
      <line stroke="#7f7f7f" stroke-width="1" x1="615" x2="615" y1="580" y2="537"/>
      <line stroke="#7f7f7f" stroke-width="1" x1="611" x2="611" y1="580" y2="537"/>
      <line stroke="#7f7f7f" stroke-width="1" x1="607" x2="607" y1="580" y2="537"/>
      <line stroke="#7f7f7f" stroke-width="1" x1="603" x2="603" y1="580" y2="537"/>
      <line stroke="#7f7f7f" stroke-width="1" x1="599" x2="599" y1="580" y2="537"/>
      <line stroke="#7f7f7f" stroke-width="1" x1="595" x2="595" y1="580" y2="537"/>
      <line stroke="#7f7f7f" stroke-width="1" x1="591" x2="591" y1="580" y2="537"/>
      <line stroke="#7f7f7f" stroke-width="1" x1="587" x2="587" y1="580" y2="537"/>
      <line stroke="#7f7f7f" stroke-width="1" x1="583" x2="583" y1="580" y2="537"/>
      <line stroke="#7f7f7f" stroke-width="1" x1="579" x2="579" y1="580" y2="537"/>
      <line stroke="#7f7f7f" stroke-width="1" x1="575" x2="575" y1="580" y2="537"/>
      <polygon fill="#9b5509" points="569,582 770,582 770,578 569,578" stroke="#000000" stroke-width="1"/>
      <polygon fill="#9b5509" points="569,569 770,569 770,563 569,563" stroke="#000000" stroke-width="1"/>
      <polygon fill="#9b5509" points="569,554 770,554 770,548 569,548" stroke="#000000" stroke-width="1"/>
      <polygon fill="#9b5509" points="569,539 770,539 770,535 569,535" stroke="#000000" stroke-width="1"/>
      <polyline fill="none" points="183,599 183,592 294,592 294,579 230,579 230,539 236,539 236,525 183,525 183,519" stroke="#000000" stroke-width="1"/>
      <path d="M750,582 C750,582 747.0,578.333333333 750,582 C753.0,585.666666667 761.0,598.833333333 768,604 C775.0,609.166666667 792,613 792,613 " fill="none" stroke="#000000" stroke-width="1"/>
      <path d="M751,535 C751,535 746.333333333,539.5 751,535 C755.666666667,530.5 767.333333333,512.833333333 779,508 C790.666666667,503.166666667 809.166666667,502.333333333 821,506 C832.833333333,509.666666667 850,530 850,530 " fill="none" stroke="#000000" stroke-width="1"/>
      <path d="M858,556 C858,556 859.666666667,550.333333333 858,556 C856.333333333,561.666666667 854.5,580.833333333 848,590 C841.5,599.166666667 819,611 819,611 " fill="none" stroke="#000000" stroke-width="1"/>
      <path d="M793,622 C793,622 795.666666667,622.666666667 793,622 C790.333333333,621.333333333 782.333333333,620.166666667 777,618 C771.666666667,615.833333333 761,609 761,609 " fill="none" stroke="#000000" stroke-width="1"/>
      <path d="M860,495 C860,495 856.833333333,491.0 860,495 C863.166666667,499.0 874.333333333,510.0 879,519 C883.666666667,528.0 886.833333333,538.666666667 888,549 C889.166666667,559.333333333 886,581 886,581 " fill="none" stroke="#000000" stroke-width="1"/>
      <path d="M864,555 C864,555 864.833333333,550.166666667 864,555 C863.166666667,559.833333333 862.666666667,575.333333333 859,584 C855.333333333,592.666666667 848.5,601.166666667 842,607 C835.5,612.833333333 820,619 820,619 " fill="none" stroke="#000000" stroke-width="1"/>
      <path d="M855,528 C855,528 855.666666667,529.166666667 855,528 C854.333333333,526.833333333 852.833333333,523.333333333 851,521 C849.166666667,518.666666667 844,514 844,514 " fill="none" stroke="#000000" stroke-width="1"/>
      <polyline fill="none" points="850,530 855,528" stroke="#000000" stroke-width="1"/>
      <polyline fill="none" points="792,613 793,622" stroke="#000000" stroke-width="1"/>
      <polyline fill="none" points="858,556 864,555" stroke="#000000" stroke-width="1"/>
      <polyline fill="none" points="819,611 820,619" stroke="#000000" stroke-width="1"/>
      <polyline fill="none" points="761,609 742,631" stroke="#000000" stroke-width="1"/>
      <polyline fill="none" points="886,581 890,582" stroke="#000000" stroke-width="1"/>
      <polyline fill="none" points="851,521 870,505" stroke="#000000" stroke-width="1"/>
      <polyline fill="none" points="844,514 860,495" stroke="#000000" stroke-width="1"/>
      <text fill="#000000" font-family="Arial" font-size="9" stroke="none" stroke-width="0" transform="rotate(135.0,868,505)" x="868" y="514.0">кассы</text>
      <polyline fill="none" points="771,565 854,574" stroke="#000000" stroke-width="0.5"/>
      <polygon fill="none" points="847,569 845,563 840,565 842,571" stroke="#000000" stroke-width="1"/>
      <line stroke="#009900" stroke-width="1" x1="823" x2="818" y1="508" y2="510"/>
      <line stroke="#009900" stroke-width="1" x1="824.426806263" x2="819.426806263" y1="511.736873545" y2="513.736873545"/>
      <line stroke="#009900" stroke-width="1" x1="825.853612525" x2="820.853612525" y1="515.473747089" y2="517.473747089"/>
      <line stroke="#009900" stroke-width="1" x1="827.280418788" x2="822.280418788" y1="519.210620634" y2="521.210620634"/>
      <line stroke="#009900" stroke-width="1" x1="828.70722505" x2="823.70722505" y1="522.947494179" y2="524.947494179"/>
      <line stroke="#009900" stroke-width="1" x1="830.134031313" x2="825.134031313" y1="526.684367724" y2="528.684367724"/>
      <line stroke="#009900" stroke-width="1" x1="831.560837575" x2="826.560837575" y1="530.421241268" y2="532.421241268"/>
      <line stroke="#009900" stroke-width="1" x1="832.987643838" x2="827.987643838" y1="534.158114813" y2="536.158114813"/>
      <line stroke="#009900" stroke-width="1" x1="834.4144501" x2="829.4144501" y1="537.894988358" y2="539.894988358"/>
      <line stroke="#009900" stroke-width="1" x1="835.841256363" x2="830.841256363" y1="541.631861902" y2="543.631861902"/>
      <line stroke="#009900" stroke-width="1" x1="837.268062625" x2="832.268062625" y1="545.368735447" y2="547.368735447"/>
      <line stroke="#009900" stroke-width="1" x1="838.694868888" x2="833.694868888" y1="549.105608992" y2="551.105608992"/>
      <line stroke="#009900" stroke-width="1" x1="840.12167515" x2="835.12167515" y1="552.842482537" y2="554.842482537"/>
      <line stroke="#009900" stroke-width="1" x1="841.548481413" x2="836.548481413" y1="556.579356081" y2="558.579356081"/>
      <line stroke="#009900" stroke-width="1" x1="842.975287675" x2="837.975287675" y1="560.316229626" y2="562.316229626"/>
      <polyline fill="none" marker-end="url(#id326)" points="806,611 808,623" stroke="#ff0000" stroke-width="1"/>
      <polyline fill="none" marker-end="url(#id326)" points="771,573 786,576" stroke="#ff0000" stroke-width="1"/>
      <polyline fill="none" marker-end="url(#id326)" points="545,573 563,573" stroke="#ff0000" stroke-width="1"/>
      <polyline fill="none" marker-end="url(#id326)" points="872,586 877,566" stroke="#009900" stroke-width="1"/>
      <polyline fill="none" marker-end="url(#id326)" points="853,545 843,549" stroke="#009900" stroke-width="1"/>
      <polyline fill="none" marker-end="url(#id326)" points="786,544 771,544" stroke="#009900" stroke-width="1"/>
      <polyline fill="none" marker-end="url(#id326)" points="563,544 545,544" stroke="#009900" stroke-width="1"/>
      <polygon fill="#34349c" points="884,549 886,549 885,544 883,544" stroke="#34349c" stroke-width="1"/>
      <polygon fill="#34349c" points="-96,334 -94,329 -96,328 -98,333" stroke="#34349c" stroke-width="1"/>
      <polygon fill="#ff0000" points="883,544 885,544 884,539 882,539" stroke="#ff0000" stroke-width="1"/>
      <polygon fill="#ff0000" points="-96,334 -98,339 -100,338 -98,333" stroke="#ff0000" stroke-width="1"/>
    </g>
    <g fill="#ff0000" fill-opacity="0.8" stroke="#ff0000" stroke-opacity="0.8" transform="rotate(-85.0,460,590)">
      <polygon fill="#ffffff" points="236,488 251,488 251,520 236,520" stroke="#ffffff" stroke-width="1"/>
      <polygon fill="#ffffff" points="265,488 280,488 280,520 265,520" stroke="#ffffff" stroke-width="1"/>
    </g>
    <g fill="#ffffff" fill-opacity="1.0" stroke="#ffffff" stroke-opacity="1.0" transform="rotate(-85.0,460,590)">
      <polygon fill="none" points="265,525 265,539 251,539 251,525" stroke="#000000" stroke-width="1"/>
      <polygon fill="none" points="294,525 294,539 280,539 280,525" stroke="#000000" stroke-width="1"/>
      <polyline fill="none" points="280,525 280,437" stroke="#000000" stroke-width="1"/>
      <polyline fill="none" points="265,525 265,453" stroke="#000000" stroke-width="1"/>
      <polyline fill="none" points="251,525 251,454" stroke="#000000" stroke-width="1"/>
      <polyline fill="none" points="236,451 236,525" stroke="#000000" stroke-width="1"/>
      <line stroke="#000000" stroke-width="1" x1="280" x2="265" y1="537" y2="537"/>
      <line stroke="#000000" stroke-width="1" x1="280" x2="265" y1="533" y2="533"/>
      <line stroke="#000000" stroke-width="1" x1="280" x2="265" y1="529" y2="529"/>
      <line stroke="#000000" stroke-width="1" x1="280" x2="265" y1="525" y2="525"/>
      <line stroke="#000000" stroke-width="1" x1="280" x2="265" y1="521" y2="521"/>
      <line stroke="#000000" stroke-width="1" x1="280" x2="265" y1="517" y2="517"/>
      <line stroke="#000000" stroke-width="1" x1="280" x2="265" y1="513" y2="513"/>
      <line stroke="#000000" stroke-width="1" x1="280" x2="265" y1="509" y2="509"/>
      <line stroke="#000000" stroke-width="1" x1="251" x2="236" y1="537" y2="537"/>
      <line stroke="#000000" stroke-width="1" x1="251" x2="236" y1="533" y2="533"/>
      <line stroke="#000000" stroke-width="1" x1="251" x2="236" y1="529" y2="529"/>
      <line stroke="#000000" stroke-width="1" x1="251" x2="236" y1="525" y2="525"/>
      <line stroke="#000000" stroke-width="1" x1="251" x2="236" y1="521" y2="521"/>
      <line stroke="#000000" stroke-width="1" x1="251" x2="236" y1="517" y2="517"/>
      <line stroke="#000000" stroke-width="1" x1="251" x2="236" y1="513" y2="513"/>
      <line stroke="#000000" stroke-width="1" x1="251" x2="236" y1="509" y2="509"/>
      <path d="M236,451 C236,451 236.666666667,452.666666667 236,451 C235.333333333,449.333333333 234.333333333,443.333333333 232,441 C229.666666667,438.666666667 222,437 222,437 " fill="none" stroke="#000000" stroke-width="1"/>
      <path d="M280,437 C280,437 282.5,442.5 280,437 C277.5,431.5 272.833333333,411.833333333 265,404 C257.166666667,396.166666667 233,390 233,390 " fill="none" stroke="#000000" stroke-width="1"/>
      <path d="M265,453 C265,453 266.166666667,456.5 265,453 C263.833333333,449.5 261.833333333,437.333333333 258,432 C254.166666667,426.666666667 242,421 242,421 " fill="none" stroke="#000000" stroke-width="1"/>
      <path d="M251,454 C251,454 251.333333333,457.166666667 251,454 C250.666666667,450.833333333 250.5,440.5 249,435 C247.5,429.5 242,421 242,421 " fill="none" stroke="#000000" stroke-width="1"/>
      <polyline fill="none" points="222,437 115,446 91,434" stroke="#000000" stroke-width="1"/>
      <polyline fill="none" points="233,390 123,399 112,394" stroke="#000000" stroke-width="1"/>
      <line stroke="#7f7f7f" stroke-width="1" x1="-12" x2="-30" y1="335" y2="374"/>
      <line stroke="#7f7f7f" stroke-width="1" x1="-8.40547042468" x2="-26.4054704247" y1="336.754809714" y2="375.754809714"/>
      <line stroke="#7f7f7f" stroke-width="1" x1="-4.81094084935" x2="-22.8109408494" y1="338.509619428" y2="377.509619428"/>
      <line stroke="#7f7f7f" stroke-width="1" x1="-1.21641127403" x2="-19.216411274" y1="340.264429142" y2="379.264429142"/>
      <line stroke="#7f7f7f" stroke-width="1" x1="2.37811830129" x2="-15.6218816987" y1="342.019238856" y2="381.019238856"/>
      <line stroke="#7f7f7f" stroke-width="1" x1="5.97264787661" x2="-12.0273521234" y1="343.77404857" y2="382.77404857"/>
      <line stroke="#7f7f7f" stroke-width="1" x1="9.56717745194" x2="-8.43282254806" y1="345.528858284" y2="384.528858284"/>
      <line stroke="#7f7f7f" stroke-width="1" x1="13.1617070273" x2="-4.83829297274" y1="347.283667998" y2="386.283667998"/>
      <line stroke="#7f7f7f" stroke-width="1" x1="16.7562366026" x2="-1.24376339742" y1="349.038477711" y2="388.038477711"/>
      <line stroke="#7f7f7f" stroke-width="1" x1="20.3507661779" x2="2.35076617791" y1="350.793287425" y2="389.793287425"/>
      <line stroke="#7f7f7f" stroke-width="1" x1="23.9452957532" x2="5.94529575323" y1="352.548097139" y2="391.548097139"/>
      <line stroke="#7f7f7f" stroke-width="1" x1="27.5398253286" x2="9.53982532855" y1="354.302906853" y2="393.302906853"/>
      <line stroke="#7f7f7f" stroke-width="1" x1="31.1343549039" x2="13.1343549039" y1="356.057716567" y2="395.057716567"/>
      <line stroke="#7f7f7f" stroke-width="1" x1="34.7288844792" x2="16.7288844792" y1="357.812526281" y2="396.812526281"/>
      <line stroke="#7f7f7f" stroke-width="1" x1="38.3234140545" x2="20.3234140545" y1="359.567335995" y2="398.567335995"/>
      <line stroke="#7f7f7f" stroke-width="1" x1="41.9179436298" x2="23.9179436298" y1="361.322145709" y2="400.322145709"/>
      <line stroke="#7f7f7f" stroke-width="1" x1="45.5124732052" x2="27.5124732052" y1="363.076955423" y2="402.076955423"/>
      <line stroke="#7f7f7f" stroke-width="1" x1="49.1070027805" x2="31.1070027805" y1="364.831765137" y2="403.831765137"/>
      <line stroke="#7f7f7f" stroke-width="1" x1="52.7015323558" x2="34.7015323558" y1="366.586574851" y2="405.586574851"/>
      <line stroke="#7f7f7f" stroke-width="1" x1="56.2960619311" x2="38.2960619311" y1="368.341384565" y2="407.341384565"/>
      <line stroke="#7f7f7f" stroke-width="1" x1="59.8905915065" x2="41.8905915065" y1="370.096194279" y2="409.096194279"/>
      <line stroke="#7f7f7f" stroke-width="1" x1="63.4851210818" x2="45.4851210818" y1="371.851003993" y2="410.851003993"/>
      <line stroke="#7f7f7f" stroke-width="1" x1="67.0796506571" x2="49.0796506571" y1="373.605813707" y2="412.605813707"/>
      <line stroke="#7f7f7f" stroke-width="1" x1="70.6741802324" x2="52.6741802324" y1="375.360623421" y2="414.360623421"/>
      <line stroke="#7f7f7f" stroke-width="1" x1="74.2687098078" x2="56.2687098078" y1="377.115433134" y2="416.115433134"/>
      <line stroke="#7f7f7f" stroke-width="1" x1="77.8632393831" x2="59.8632393831" y1="378.870242848" y2="417.870242848"/>
      <line stroke="#7f7f7f" stroke-width="1" x1="81.4577689584" x2="63.4577689584" y1="380.625052562" y2="419.625052562"/>
      <line stroke="#7f7f7f" stroke-width="1" x1="85.0522985337" x2="67.0522985337" y1="382.379862276" y2="421.379862276"/>
      <line stroke="#7f7f7f" stroke-width="1" x1="88.646828109" x2="70.646828109" y1="384.13467199" y2="423.13467199"/>
      <line stroke="#7f7f7f" stroke-width="1" x1="92.2413576844" x2="74.2413576844" y1="385.889481704" y2="424.889481704"/>
      <line stroke="#7f7f7f" stroke-width="1" x1="95.8358872597" x2="77.8358872597" y1="387.644291418" y2="426.644291418"/>
      <line stroke="#7f7f7f" stroke-width="1" x1="99.430416835" x2="81.430416835" y1="389.399101132" y2="428.399101132"/>
      <line stroke="#7f7f7f" stroke-width="1" x1="103.02494641" x2="85.0249464103" y1="391.153910846" y2="430.153910846"/>
      <line stroke="#7f7f7f" stroke-width="1" x1="106.619475986" x2="88.6194759857" y1="392.90872056" y2="431.90872056"/>
      <line stroke="#7f7f7f" stroke-width="1" x1="110.214005561" x2="92.214005561" y1="394.663530274" y2="433.663530274"/>
      <line stroke="#7f7f7f" stroke-width="1" x1="113.808535136" x2="95.8085351363" y1="396.418339988" y2="435.418339988"/>
      <polygon fill="#9b5509" points="-34,374 98,438 99,435 -32,371" stroke="#000000" stroke-width="1"/>
      <polygon fill="#9b5509" points="-29,362 103,426 105,422 -27,358" stroke="#000000" stroke-width="1"/>
      <polygon fill="#9b5509" points="-23,349 110,413 112,409 -21,345" stroke="#000000" stroke-width="1"/>
      <polygon fill="#9b5509" points="-16,335 116,399 117,396 -14,332" stroke="#000000" stroke-width="1"/>
    </g>
    <g fill="#9b5509" fill-opacity="0.8" stroke="#000000" stroke-opacity="0.8" transform="rotate(-85.0,460,590)">
      <polygon fill="#ffffff" points="16,354 15,343 107,389 85,434 -6,389 6,381 13,372 15,366" stroke="#ffffff" stroke-width="1"/>
    </g>
    <g fill="#ffffff" fill-opacity="1.0" stroke="#ffffff" stroke-opacity="1.0" transform="rotate(-85.0,460,590)">
      <path d="M-6,388 C-6,388 -9.0,390.833333333 -6,388 C-3.0,385.166666667 8.66666666667,378.166666667 12,371 C15.3333333333,363.833333333 14,345 14,345 " fill="none" stroke="#000000" stroke-width="1"/>
      <polyline fill="none" points="103,232 141,251 100,335 -62,255 -129,387 35,468 25,489 -14,470" stroke="#000000" stroke-width="1"/>
      <line stroke="#000000" stroke-width="1" x1="96" x2="31" y1="333" y2="466"/>
      <line stroke="#000000" stroke-width="1" x1="92.368162462" x2="27.368162462" y1="331.32376729" y2="464.32376729"/>
      <line stroke="#000000" stroke-width="1" x1="88.736324924" x2="23.736324924" y1="329.64753458" y2="462.64753458"/>
      <line stroke="#000000" stroke-width="1" x1="85.104487386" x2="20.104487386" y1="327.97130187" y2="460.97130187"/>
      <polyline fill="none" points="89,521 52,503 169,264 208,283" stroke="#000000" stroke-width="1"/>
      <polyline fill="none" points="80,539 -23,488" stroke="#000000" stroke-width="1"/>
      <polyline fill="none" points="112,214 217,265" stroke="#000000" stroke-width="1"/>
      <line stroke="#000000" stroke-width="1" x1="105" x2="114" y1="233" y2="215"/>
      <line stroke="#000000" stroke-width="1" x1="108.577708764" x2="117.577708764" y1="234.788854382" y2="216.788854382"/>
      <line stroke="#000000" stroke-width="1" x1="112.155417528" x2="121.155417528" y1="236.577708764" y2="218.577708764"/>
      <line stroke="#000000" stroke-width="1" x1="115.733126292" x2="124.733126292" y1="238.366563146" y2="220.366563146"/>
      <line stroke="#000000" stroke-width="1" x1="119.310835056" x2="128.310835056" y1="240.155417528" y2="222.155417528"/>
      <line stroke="#000000" stroke-width="1" x1="122.88854382" x2="131.88854382" y1="241.94427191" y2="223.94427191"/>
      <line stroke="#000000" stroke-width="1" x1="126.466252584" x2="135.466252584" y1="243.733126292" y2="225.733126292"/>
      <line stroke="#000000" stroke-width="1" x1="130.043961348" x2="139.043961348" y1="245.521980674" y2="227.521980674"/>
      <line stroke="#000000" stroke-width="1" x1="133.621670112" x2="142.621670112" y1="247.310835056" y2="229.310835056"/>
      <line stroke="#000000" stroke-width="1" x1="137.199378876" x2="146.199378876" y1="249.099689438" y2="231.099689438"/>
      <line stroke="#000000" stroke-width="1" x1="206" x2="215" y1="282" y2="264"/>
      <line stroke="#000000" stroke-width="1" x1="202.401967366" x2="211.401967366" y1="280.252384149" y2="262.252384149"/>
      <line stroke="#000000" stroke-width="1" x1="198.803934731" x2="207.803934731" y1="278.504768298" y2="260.504768298"/>
      <line stroke="#000000" stroke-width="1" x1="195.205902097" x2="204.205902097" y1="276.757152447" y2="258.757152447"/>
      <line stroke="#000000" stroke-width="1" x1="191.607869463" x2="200.607869463" y1="275.009536596" y2="257.009536596"/>
      <line stroke="#000000" stroke-width="1" x1="188.009836828" x2="197.009836828" y1="273.261920745" y2="255.261920745"/>
      <line stroke="#000000" stroke-width="1" x1="184.411804194" x2="193.411804194" y1="271.514304894" y2="253.514304894"/>
      <line stroke="#000000" stroke-width="1" x1="180.81377156" x2="189.81377156" y1="269.766689043" y2="251.766689043"/>
      <line stroke="#000000" stroke-width="1" x1="177.215738926" x2="186.215738926" y1="268.019073192" y2="250.019073192"/>
      <line stroke="#000000" stroke-width="1" x1="173.617706291" x2="182.617706291" y1="266.271457341" y2="248.271457341"/>
      <line stroke="#000000" stroke-width="1" x1="87" x2="78" y1="520" y2="538"/>
      <line stroke="#000000" stroke-width="1" x1="83.4007435712" x2="74.4007435712" y1="518.254905974" y2="536.254905974"/>
      <line stroke="#000000" stroke-width="1" x1="79.8014871424" x2="70.8014871424" y1="516.509811948" y2="534.509811948"/>
      <line stroke="#000000" stroke-width="1" x1="76.2022307136" x2="67.2022307136" y1="514.764717922" y2="532.764717922"/>
      <line stroke="#000000" stroke-width="1" x1="72.6029742849" x2="63.6029742849" y1="513.019623896" y2="531.019623896"/>
      <line stroke="#000000" stroke-width="1" x1="69.0037178561" x2="60.0037178561" y1="511.27452987" y2="529.27452987"/>
      <line stroke="#000000" stroke-width="1" x1="65.4044614273" x2="56.4044614273" y1="509.529435844" y2="527.529435844"/>
      <line stroke="#000000" stroke-width="1" x1="61.8052049985" x2="52.8052049985" y1="507.784341817" y2="525.784341817"/>
      <line stroke="#000000" stroke-width="1" x1="58.2059485697" x2="49.2059485697" y1="506.039247791" y2="524.039247791"/>
      <line stroke="#000000" stroke-width="1" x1="54.6066921409" x2="45.6066921409" y1="504.294153765" y2="522.294153765"/>
      <line stroke="#000000" stroke-width="1" x1="-12" x2="-21" y1="471" y2="489"/>
      <line stroke="#000000" stroke-width="1" x1="-8.4019673657" x2="-17.4019673657" y1="472.747615851" y2="490.747615851"/>
      <line stroke="#000000" stroke-width="1" x1="-4.80393473139" x2="-13.8039347314" y1="474.495231702" y2="492.495231702"/>
      <line stroke="#000000" stroke-width="1" x1="-1.20590209709" x2="-10.2059020971" y1="476.242847553" y2="494.242847553"/>
      <line stroke="#000000" stroke-width="1" x1="2.39213053722" x2="-6.60786946278" y1="477.990463404" y2="495.990463404"/>
      <line stroke="#000000" stroke-width="1" x1="5.99016317152" x2="-3.00983682848" y1="479.738079255" y2="497.738079255"/>
      <line stroke="#000000" stroke-width="1" x1="9.58819580582" x2="0.588195805824" y1="481.485695106" y2="499.485695106"/>
      <line stroke="#000000" stroke-width="1" x1="13.1862284401" x2="4.18622844013" y1="483.233310957" y2="501.233310957"/>
      <line stroke="#000000" stroke-width="1" x1="16.7842610744" x2="7.78426107443" y1="484.980926808" y2="502.980926808"/>
      <line stroke="#000000" stroke-width="1" x1="20.3822937087" x2="11.3822937087" y1="486.728542659" y2="504.728542659"/>
      <polygon fill="#d0d0d0" points="55,359 50,356 20,416 25,418" stroke="#000000" stroke-width="1"/>
      <polyline fill="none" points="-32,424 -35,431" stroke="#000000" stroke-width="0.5"/>
      <polygon fill="none" points="-14,325 -17,331 -23,328 -20,322" stroke="#000000" stroke-width="1"/>
      <polyline fill="none" points="-69,299 -80,294" stroke="#000000" stroke-width="0.5"/>
      <polyline fill="none" points="-24,347 -39,340 -58,346 -66,363" stroke="#000000" stroke-width="0.5"/>
      <line stroke="#009900" stroke-width="1" x1="-23" x2="-26" y1="321" y2="326"/>
      <line stroke="#009900" stroke-width="1" x1="-26.5115822917" x2="-29.5115822917" y1="319.084591477" y2="324.084591477"/>
      <line stroke="#009900" stroke-width="1" x1="-30.0231645833" x2="-33.0231645833" y1="317.169182955" y2="322.169182955"/>
      <line stroke="#009900" stroke-width="1" x1="-33.534746875" x2="-36.534746875" y1="315.253774432" y2="320.253774432"/>
      <line stroke="#009900" stroke-width="1" x1="-37.0463291666" x2="-40.0463291666" y1="313.338365909" y2="318.338365909"/>
      <line stroke="#009900" stroke-width="1" x1="-40.5579114583" x2="-43.5579114583" y1="311.422957386" y2="316.422957386"/>
      <line stroke="#009900" stroke-width="1" x1="-44.0694937499" x2="-47.0694937499" y1="309.507548864" y2="314.507548864"/>
      <line stroke="#009900" stroke-width="1" x1="-47.5810760416" x2="-50.5810760416" y1="307.592140341" y2="312.592140341"/>
      <line stroke="#009900" stroke-width="1" x1="-51.0926583333" x2="-54.0926583333" y1="305.676731818" y2="310.676731818"/>
      <line stroke="#009900" stroke-width="1" x1="-54.6042406249" x2="-57.6042406249" y1="303.761323295" y2="308.761323295"/>
      <line stroke="#009900" stroke-width="1" x1="-58.1158229166" x2="-61.1158229166" y1="301.845914773" y2="306.845914773"/>
      <line stroke="#009900" stroke-width="1" x1="-61.6274052082" x2="-64.6274052082" y1="299.93050625" y2="304.93050625"/>
      <line stroke="#009900" stroke-width="1" x1="-65.1389874999" x2="-68.1389874999" y1="298.015097727" y2="303.015097727"/>
      <line stroke="#ff0000" stroke-width="1" x1="-12" x2="-18" y1="391" y2="388"/>
      <line stroke="#ff0000" stroke-width="1" x1="-13.7476158509" x2="-19.7476158509" y1="394.598032634" y2="391.598032634"/>
      <line stroke="#ff0000" stroke-width="1" x1="-15.4952317019" x2="-21.4952317019" y1="398.196065269" y2="395.196065269"/>
      <line stroke="#ff0000" stroke-width="1" x1="-17.2428475528" x2="-23.2428475528" y1="401.794097903" y2="398.794097903"/>
      <line stroke="#ff0000" stroke-width="1" x1="-18.9904634038" x2="-24.9904634038" y1="405.392130537" y2="402.392130537"/>
      <line stroke="#ff0000" stroke-width="1" x1="-20.7380792547" x2="-26.7380792547" y1="408.990163172" y2="405.990163172"/>
      <line stroke="#ff0000" stroke-width="1" x1="-22.4856951057" x2="-28.4856951057" y1="412.588195806" y2="409.588195806"/>
      <line stroke="#ff0000" stroke-width="1" x1="-24.2333109566" x2="-30.2333109566" y1="416.18622844" y2="413.18622844"/>
      <line stroke="#ff0000" stroke-width="1" x1="-25.9809268076" x2="-31.9809268076" y1="419.784261074" y2="416.784261074"/>
      <line stroke="#ff0000" stroke-width="1" x1="-27.7285426585" x2="-33.7285426585" y1="423.382293709" y2="420.382293709"/>
      <polyline fill="none" points="-65,260 -75,255 -89,283 -79,288" stroke="#000000" stroke-width="1"/>
      <text fill="#000000" font-family="Arial" font-size="10" stroke="none" stroke-width="0" transform="rotate(115.0,-66,264)" x="-66" y="274.0">кассы</text>
      <polyline fill="none" marker-end="url(#id326)" points="116,438 101,430" stroke="#ff0000" stroke-width="1"/>
      <polyline fill="none" marker-end="url(#id326)" points="-20,371 -30,366" stroke="#ff0000" stroke-width="1"/>
      <polyline fill="none" marker-end="url(#id326)" points="-44,395 -32,401" stroke="#ff0000" stroke-width="1"/>
      <polyline fill="none" marker-end="url(#id326)" points="114,403 128,410" stroke="#009900" stroke-width="1"/>
      <polyline fill="none" marker-end="url(#id326)" points="-18,339 -8,344" stroke="#009900" stroke-width="1"/>
      <polyline fill="none" marker-end="url(#id326)" points="-33,295 -39,305" stroke="#009900" stroke-width="1"/>
      <polyline fill="none" points="864,845 840,833 833,847 857,859" stroke="#000000" stroke-width="1"/>
      <polyline fill="none" points="798,812 822,824 815,838 791,826" stroke="#000000" stroke-width="1"/>
      <line stroke="#000000" stroke-width="1" x1="835" x2="842" y1="848" y2="834"/>
      <line stroke="#000000" stroke-width="1" x1="838.577708764" x2="845.577708764" y1="849.788854382" y2="835.788854382"/>
      <line stroke="#000000" stroke-width="1" x1="842.155417528" x2="849.155417528" y1="851.577708764" y2="837.577708764"/>
      <line stroke="#000000" stroke-width="1" x1="845.733126292" x2="852.733126292" y1="853.366563146" y2="839.366563146"/>
      <line stroke="#000000" stroke-width="1" x1="849.310835056" x2="856.310835056" y1="855.155417528" y2="841.155417528"/>
      <line stroke="#000000" stroke-width="1" x1="852.88854382" x2="859.88854382" y1="856.94427191" y2="842.94427191"/>
      <line stroke="#000000" stroke-width="1" x1="813" x2="820" y1="837" y2="823"/>
      <line stroke="#000000" stroke-width="1" x1="809.422291236" x2="816.422291236" y1="835.211145618" y2="821.211145618"/>
      <line stroke="#000000" stroke-width="1" x1="805.844582472" x2="812.844582472" y1="833.422291236" y2="819.422291236"/>
      <line stroke="#000000" stroke-width="1" x1="802.266873708" x2="809.266873708" y1="831.633436854" y2="817.633436854"/>
      <line stroke="#000000" stroke-width="1" x1="798.689164944" x2="805.689164944" y1="829.844582472" y2="815.844582472"/>
      <line stroke="#000000" stroke-width="1" x1="795.11145618" x2="802.11145618" y1="828.05572809" y2="814.05572809"/>
      <line stroke="#000000" stroke-width="1" x1="877" x2="845" y1="714" y2="721"/>
      <line stroke="#000000" stroke-width="1" x1="876.620763629" x2="844.620763629" y1="710.01801811" y2="717.01801811"/>
      <line stroke="#000000" stroke-width="1" x1="876.241527259" x2="844.241527259" y1="706.036036219" y2="713.036036219"/>
      <line stroke="#000000" stroke-width="1" x1="875.862290888" x2="843.862290888" y1="702.054054329" y2="709.054054329"/>
      <line stroke="#000000" stroke-width="1" x1="875.483054518" x2="843.483054518" y1="698.072072438" y2="705.072072438"/>
      <line stroke="#000000" stroke-width="1" x1="875.103818147" x2="843.103818147" y1="694.090090548" y2="701.090090548"/>
      <line stroke="#000000" stroke-width="1" x1="874.724581777" x2="842.724581777" y1="690.108108658" y2="697.108108658"/>
      <line stroke="#000000" stroke-width="1" x1="874.345345406" x2="842.345345406" y1="686.126126767" y2="693.126126767"/>
      <line stroke="#000000" stroke-width="1" x1="873.966109036" x2="841.966109036" y1="682.144144877" y2="689.144144877"/>
      <line stroke="#000000" stroke-width="1" x1="873.586872665" x2="841.586872665" y1="678.162162987" y2="685.162162987"/>
      <line stroke="#000000" stroke-width="1" x1="873.207636295" x2="841.207636295" y1="674.180181096" y2="681.180181096"/>
      <polyline fill="none" points="850,724 835,680" stroke="#ffffff" stroke-width="10"/>
      <polyline fill="none" points="838,673 857,728 878,724 873,666" stroke="#000000" stroke-width="1"/>
      <polyline fill="none" points="878,724 880,749 840,833" stroke="#d8d8d8" stroke-width="1"/>
      <polyline fill="none" points="857,728 859,749 822,824" stroke="#d8d8d8" stroke-width="1"/>
      <polyline fill="none" points="833,847 815,838" stroke="#d8d8d8" stroke-width="1"/>
      <text fill="#00afaf" font-family="Arial" font-size="15" stroke="none" stroke-width="0" transform="rotate(26.0,744,718)" x="744" y="733.0">проспект Мира</text>
      <text fill="#00afaf" font-family="Arial" font-size="15" stroke="none" stroke-width="0" transform="rotate(85.0,718,861)" x="718" y="876.0">улица Космонавтов</text>
      <text fill="#00afaf" font-family="Arial" font-size="15" stroke="none" stroke-width="0" transform="rotate(85.0,640,857)" x="640" y="872.0">улица Космонавтов</text>
      <text fill="#00afaf" font-family="Arial" font-size="15" stroke="none" stroke-width="0" transform="rotate(85.0,588,152)" x="588" y="167.0">&lt;&lt; улица Академика Королёва</text>
      <text fill="#00afaf" font-family="Arial" font-size="15" stroke="none" stroke-width="0" transform="rotate(25.0,-149,270)" x="-149" y="285.0">проспект</text>
      <text fill="#00afaf" font-family="Arial" font-size="15" stroke="none" stroke-width="0" transform="rotate(25.0,-142,294)" x="-142" y="309.0">Мира</text>
      <text fill="#00afaf" font-family="Arial" font-size="15" stroke="none" stroke-width="0" transform="rotate(125.0,1049,598)" x="1049" y="613.0">1-й Поперечный проезд</text>
      <text fill="#00afaf" font-family="Arial" font-size="15" stroke="none" stroke-width="0" transform="rotate(125.0,985,597)" x="985" y="612.0">&lt;&lt; ВДНХ</text>
    </g>
    <g transform="rotate(40.0,460,590)">
      <rect fill="none" height="15" stroke="none" stroke-width="0" width="190" x="57" y="184"/>
      <text fill="#040464" font-family="Arial" font-size="10" stroke="none" stroke-width="0" x="57" y="194.0">Схема перехода к монорельсовой дороге</text>
    </g>
    <g>
      <rect fill="#615f56" height="30" stroke="none" stroke-width="0" width="30" x="561" y="236"/>
      <rect fill="#615f56" height="30" stroke="none" stroke-width="0" width="30" x="382" y="965"/>
      <rect fill="#615f56" height="30" stroke="none" stroke-width="0" width="30" x="334" y="1043"/>
      <rect fill="#615f56" height="30" stroke="none" stroke-width="0" width="30" x="17" y="869"/>
      <rect fill="#615f56" height="30" stroke="none" stroke-width="0" width="30" x="69" y="793"/>
      <text fill="#ffd900" font-family="Arial" font-size="25" stroke="none" stroke-width="0" x="569" y="262.0">1</text>
      <text fill="#ffd900" font-family="Arial" font-size="25" stroke="none" stroke-width="0" x="390" y="991.0">2</text>
      <text fill="#ffd900" font-family="Arial" font-size="25" stroke="none" stroke-width="0" x="342" y="1069.0">3</text>
      <text fill="#ffd900" font-family="Arial" font-size="25" stroke="none" stroke-width="0" x="25" y="895.0">4</text>
      <text fill="#ffd900" font-family="Arial" font-size="25" stroke="none" stroke-width="0" x="77" y="819.0">5</text>
    </g>
  </g>
</svg>
