<?xml version="1.0" encoding="utf-8" ?>
<svg baseProfile="full" height="650.0" version="1.1" width="850.0" xmlns="http://www.w3.org/2000/svg" xmlns:ev="http://www.w3.org/2001/xml-events" xmlns:xlink="http://www.w3.org/1999/xlink">
  <defs>
    <marker id="id330" markerHeight="3" markerUnits="strokeWidth" markerWidth="4" orient="auto" refX="0" refY="5" viewBox="0,0,10,10">
      <path d="M 0 0 L 10 5 L 0 10 z"/>
    </marker>
  </defs>
  <g>
    <rect fill="none" height="650.0" stroke="none" stroke-width="0" width="850.0" x="0.0" y="0.0"/>
    <g transform="rotate(30.0,425.0,325.0)">
      <polygon fill="#ac24ac" points="215.0,211.0 665.0,211.0 665.0,241.0 215.0,241.0" stroke="#000000" stroke-width="1"/>
      <polygon fill="#ac24ac" points="215.0,321.0 665.0,321.0 665.0,351.0 215.0,351.0" stroke="#000000" stroke-width="1"/>
      <text fill="#ac24ac" font-family="Arial" font-size="20.0" stroke="none" stroke-width="0" x="219.0" y="206.0">&lt;&lt; Пролетарская</text>
      <text fill="#ac24ac" font-family="Arial" font-size="20.0" stroke="none" stroke-width="0" x="516.0" y="371.0">Текстильщики &gt;&gt;</text>
      <text fill="#ac24ac" font-family="Arial" font-size="25.0" stroke="none" stroke-width="0" x="304.0" y="301.0">Волгоградский проспект</text>
      <polygon fill="#34349c" points="445.0,281.0 445.0,277.0 446.0,277.0 446.0,281.0" stroke="#34349c" stroke-width="1"/>
      <polygon fill="#ff0000" points="445.0,285.0 445.0,281.0 446.0,281.0 446.0,285.0" stroke="#ff0000" stroke-width="1"/>
      <polyline fill="none" points="170.0,226.0 47.0,226.0 47.0,405.0 7.0,405.0" stroke="#000000" stroke-width="1"/>
      <polyline fill="none" points="170.0,338.0 95.0,338.0 95.0,405.0 135.0,405.0" stroke="#000000" stroke-width="1"/>
      <polyline fill="none" points="135.0,428.0 7.0,428.0" stroke="#000000" stroke-width="1"/>
      <line stroke="#000000" stroke-width="1" x1="170.0" x2="170.0" y1="251.0" y2="313.0"/>
      <line stroke="#000000" stroke-width="1" x1="174.0" x2="174.0" y1="251.0" y2="313.0"/>
      <line stroke="#000000" stroke-width="1" x1="178.0" x2="178.0" y1="251.0" y2="313.0"/>
      <line stroke="#000000" stroke-width="1" x1="182.0" x2="182.0" y1="251.0" y2="313.0"/>
      <line stroke="#000000" stroke-width="1" x1="186.0" x2="186.0" y1="251.0" y2="313.0"/>
      <line stroke="#000000" stroke-width="1" x1="190.0" x2="190.0" y1="251.0" y2="313.0"/>
      <line stroke="#000000" stroke-width="1" x1="194.0" x2="194.0" y1="251.0" y2="313.0"/>
      <line stroke="#000000" stroke-width="1" x1="198.0" x2="198.0" y1="251.0" y2="313.0"/>
      <line stroke="#000000" stroke-width="1" x1="202.0" x2="202.0" y1="251.0" y2="313.0"/>
      <line stroke="#000000" stroke-width="1" x1="206.0" x2="206.0" y1="251.0" y2="313.0"/>
      <line stroke="#000000" stroke-width="1" x1="210.0" x2="210.0" y1="251.0" y2="313.0"/>
      <line stroke="#000000" stroke-width="1" x1="214.0" x2="214.0" y1="251.0" y2="313.0"/>
      <line stroke="#000000" stroke-width="1" x1="9.0" x2="9.0" y1="405.0" y2="428.0"/>
      <line stroke="#000000" stroke-width="1" x1="13.0" x2="13.0" y1="405.0" y2="428.0"/>
      <line stroke="#000000" stroke-width="1" x1="17.0" x2="17.0" y1="405.0" y2="428.0"/>
      <line stroke="#000000" stroke-width="1" x1="21.0" x2="21.0" y1="405.0" y2="428.0"/>
      <line stroke="#000000" stroke-width="1" x1="25.0" x2="25.0" y1="405.0" y2="428.0"/>
      <line stroke="#000000" stroke-width="1" x1="29.0" x2="29.0" y1="405.0" y2="428.0"/>
      <line stroke="#000000" stroke-width="1" x1="33.0" x2="33.0" y1="405.0" y2="428.0"/>
      <line stroke="#000000" stroke-width="1" x1="37.0" x2="37.0" y1="405.0" y2="428.0"/>
      <line stroke="#000000" stroke-width="1" x1="41.0" x2="41.0" y1="405.0" y2="428.0"/>
      <line stroke="#000000" stroke-width="1" x1="45.0" x2="45.0" y1="405.0" y2="428.0"/>
      <line stroke="#000000" stroke-width="1" x1="133.0" x2="133.0" y1="405.0" y2="428.0"/>
      <line stroke="#000000" stroke-width="1" x1="129.0" x2="129.0" y1="405.0" y2="428.0"/>
      <line stroke="#000000" stroke-width="1" x1="125.0" x2="125.0" y1="405.0" y2="428.0"/>
      <line stroke="#000000" stroke-width="1" x1="121.0" x2="121.0" y1="405.0" y2="428.0"/>
      <line stroke="#000000" stroke-width="1" x1="117.0" x2="117.0" y1="405.0" y2="428.0"/>
      <line stroke="#000000" stroke-width="1" x1="113.0" x2="113.0" y1="405.0" y2="428.0"/>
      <line stroke="#000000" stroke-width="1" x1="109.0" x2="109.0" y1="405.0" y2="428.0"/>
      <line stroke="#000000" stroke-width="1" x1="105.0" x2="105.0" y1="405.0" y2="428.0"/>
      <line stroke="#000000" stroke-width="1" x1="101.0" x2="101.0" y1="405.0" y2="428.0"/>
      <line stroke="#000000" stroke-width="1" x1="97.0" x2="97.0" y1="405.0" y2="428.0"/>
      <polyline fill="none" points="70.0,226.0 70.0,216.0 108.0,216.0 108.0,226.0" stroke="#000000" stroke-width="1"/>
      <text fill="#000000" font-family="Arial" font-size="10.0" stroke="none" stroke-width="0" x="77.0" y="224.0">кассы</text>
      <polyline fill="none" points="123.0,292.0 123.0,294.0 89.0,294.0 72.0,311.0 72.0,340.0" stroke="#000000" stroke-width="0.5"/>
      <polygon fill="none" points="126.0,236.0 119.0,236.0 119.0,229.0 126.0,229.0" stroke="#000000" stroke-width="1"/>
      <line stroke="#009900" stroke-width="1" x1="120.0" x2="125.0" y1="240.0" y2="240.0"/>
      <line stroke="#009900" stroke-width="1" x1="120.0" x2="125.0" y1="244.0" y2="244.0"/>
      <line stroke="#009900" stroke-width="1" x1="120.0" x2="125.0" y1="248.0" y2="248.0"/>
      <line stroke="#009900" stroke-width="1" x1="120.0" x2="125.0" y1="252.0" y2="252.0"/>
      <line stroke="#009900" stroke-width="1" x1="120.0" x2="125.0" y1="256.0" y2="256.0"/>
      <line stroke="#009900" stroke-width="1" x1="120.0" x2="125.0" y1="260.0" y2="260.0"/>
      <line stroke="#009900" stroke-width="1" x1="120.0" x2="125.0" y1="264.0" y2="264.0"/>
      <line stroke="#009900" stroke-width="1" x1="120.0" x2="125.0" y1="268.0" y2="268.0"/>
      <line stroke="#009900" stroke-width="1" x1="120.0" x2="125.0" y1="272.0" y2="272.0"/>
      <line stroke="#009900" stroke-width="1" x1="120.0" x2="125.0" y1="276.0" y2="276.0"/>
      <line stroke="#009900" stroke-width="1" x1="120.0" x2="125.0" y1="280.0" y2="280.0"/>
      <line stroke="#009900" stroke-width="1" x1="120.0" x2="125.0" y1="284.0" y2="284.0"/>
      <line stroke="#009900" stroke-width="1" x1="120.0" x2="125.0" y1="288.0" y2="288.0"/>
      <line stroke="#009900" stroke-width="1" x1="120.0" x2="125.0" y1="292.0" y2="292.0"/>
      <polyline fill="none" marker-end="url(#id330)" points="82.0,338.0 82.0,354.0" stroke="#ff0000" stroke-width="1"/>
      <polyline fill="none" marker-end="url(#id330)" points="60.0,354.0 60.0,338.0" stroke="#009900" stroke-width="1"/>
      <polyline fill="none" marker-end="url(#id330)" points="96.0,262.0 111.0,262.0" stroke="#009900" stroke-width="1"/>
      <polygon fill="#34349c" points="140.0,320.0 136.0,320.0 136.0,321.0 140.0,321.0" stroke="#34349c" stroke-width="1"/>
      <polygon fill="#ff0000" points="144.0,320.0 140.0,320.0 140.0,321.0 144.0,321.0" stroke="#ff0000" stroke-width="1"/>
      <polyline fill="none" points="714.0,226.0 714.0,252.0 665.0,252.0 665.0,211.0" stroke="#000000" stroke-width="1"/>
      <polyline fill="none" points="665.0,351.0 665.0,311.0 714.0,311.0 714.0,338.0" stroke="#000000" stroke-width="1"/>
      <polyline fill="none" points="170.0,226.0 170.0,251.0 215.0,251.0 215.0,211.0" stroke="#000000" stroke-width="1"/>
      <polyline fill="none" points="215.0,351.0 215.0,313.0 170.0,313.0 170.0,338.0" stroke="#000000" stroke-width="1"/>
      <polyline fill="none" points="714.0,226.0 837.0,226.0 837.0,405.0 877.0,405.0" stroke="#000000" stroke-width="1"/>
      <polyline fill="none" points="714.0,338.0 789.0,338.0 789.0,405.0 768.0,405.0 768.0,414.0 739.0,443.0" stroke="#000000" stroke-width="1"/>
      <polyline fill="none" points="877.0,428.0 784.0,428.0 754.0,458.0" stroke="#000000" stroke-width="1"/>
      <line stroke="#000000" stroke-width="1" x1="714.0" x2="714.0" y1="252.0" y2="311.0"/>
      <line stroke="#000000" stroke-width="1" x1="710.0" x2="710.0" y1="252.0" y2="311.0"/>
      <line stroke="#000000" stroke-width="1" x1="706.0" x2="706.0" y1="252.0" y2="311.0"/>
      <line stroke="#000000" stroke-width="1" x1="702.0" x2="702.0" y1="252.0" y2="311.0"/>
      <line stroke="#000000" stroke-width="1" x1="698.0" x2="698.0" y1="252.0" y2="311.0"/>
      <line stroke="#000000" stroke-width="1" x1="694.0" x2="694.0" y1="252.0" y2="311.0"/>
      <line stroke="#000000" stroke-width="1" x1="690.0" x2="690.0" y1="252.0" y2="311.0"/>
      <line stroke="#000000" stroke-width="1" x1="686.0" x2="686.0" y1="252.0" y2="311.0"/>
      <line stroke="#000000" stroke-width="1" x1="682.0" x2="682.0" y1="252.0" y2="311.0"/>
      <line stroke="#000000" stroke-width="1" x1="678.0" x2="678.0" y1="252.0" y2="311.0"/>
      <line stroke="#000000" stroke-width="1" x1="674.0" x2="674.0" y1="252.0" y2="311.0"/>
      <line stroke="#000000" stroke-width="1" x1="670.0" x2="670.0" y1="252.0" y2="311.0"/>
      <line stroke="#000000" stroke-width="1" x1="666.0" x2="666.0" y1="252.0" y2="311.0"/>
      <line stroke="#000000" stroke-width="1" x1="875.0" x2="875.0" y1="405.0" y2="428.0"/>
      <line stroke="#000000" stroke-width="1" x1="871.0" x2="871.0" y1="405.0" y2="428.0"/>
      <line stroke="#000000" stroke-width="1" x1="867.0" x2="867.0" y1="405.0" y2="428.0"/>
      <line stroke="#000000" stroke-width="1" x1="863.0" x2="863.0" y1="405.0" y2="428.0"/>
      <line stroke="#000000" stroke-width="1" x1="859.0" x2="859.0" y1="405.0" y2="428.0"/>
      <line stroke="#000000" stroke-width="1" x1="855.0" x2="855.0" y1="405.0" y2="428.0"/>
      <line stroke="#000000" stroke-width="1" x1="851.0" x2="851.0" y1="405.0" y2="428.0"/>
      <line stroke="#000000" stroke-width="1" x1="847.0" x2="847.0" y1="405.0" y2="428.0"/>
      <line stroke="#000000" stroke-width="1" x1="843.0" x2="843.0" y1="405.0" y2="428.0"/>
      <line stroke="#000000" stroke-width="1" x1="839.0" x2="839.0" y1="405.0" y2="428.0"/>
      <line stroke="#000000" stroke-width="1" x1="741.0" x2="756.0" y1="441.0" y2="456.0"/>
      <line stroke="#000000" stroke-width="1" x1="743.8284271247462" x2="758.8284271247462" y1="438.1715728752538" y2="453.1715728752538"/>
      <line stroke="#000000" stroke-width="1" x1="746.6568542494924" x2="761.6568542494924" y1="435.3431457505076" y2="450.3431457505076"/>
      <line stroke="#000000" stroke-width="1" x1="749.4852813742386" x2="764.4852813742386" y1="432.51471862576136" y2="447.51471862576136"/>
      <line stroke="#000000" stroke-width="1" x1="752.3137084989849" x2="767.3137084989849" y1="429.68629150101515" y2="444.68629150101515"/>
      <line stroke="#000000" stroke-width="1" x1="755.1421356237311" x2="770.1421356237311" y1="426.85786437626894" y2="441.85786437626894"/>
      <line stroke="#000000" stroke-width="1" x1="757.9705627484773" x2="772.9705627484773" y1="424.0294372515227" y2="439.0294372515227"/>
      <line stroke="#000000" stroke-width="1" x1="760.7989898732235" x2="775.7989898732235" y1="421.2010101267765" y2="436.2010101267765"/>
      <line stroke="#000000" stroke-width="1" x1="763.6274169979697" x2="778.6274169979697" y1="418.3725830020303" y2="433.3725830020303"/>
      <line stroke="#000000" stroke-width="1" x1="766.4558441227159" x2="781.4558441227159" y1="415.5441558772841" y2="430.5441558772841"/>
      <polyline fill="none" points="776.0,226.0 776.0,217.0 809.0,217.0 809.0,226.0" stroke="#000000" stroke-width="1"/>
      <text fill="#000000" font-family="Arial" font-size="10.0" stroke="none" stroke-width="0" x="781.0" y="224.0">кассы</text>
      <polyline fill="none" points="813.0,339.0 813.0,313.0 789.0,294.0 756.0,294.0 756.0,292.0" stroke="#000000" stroke-width="0.5"/>
      <polygon fill="none" points="753.0,236.0 760.0,236.0 760.0,229.0 753.0,229.0" stroke="#000000" stroke-width="1"/>
      <line stroke="#009900" stroke-width="1" x1="753.0" x2="760.0" y1="240.0" y2="240.0"/>
      <line stroke="#009900" stroke-width="1" x1="753.0" x2="760.0" y1="244.0" y2="244.0"/>
      <line stroke="#009900" stroke-width="1" x1="753.0" x2="760.0" y1="248.0" y2="248.0"/>
      <line stroke="#009900" stroke-width="1" x1="753.0" x2="760.0" y1="252.0" y2="252.0"/>
      <line stroke="#009900" stroke-width="1" x1="753.0" x2="760.0" y1="256.0" y2="256.0"/>
      <line stroke="#009900" stroke-width="1" x1="753.0" x2="760.0" y1="260.0" y2="260.0"/>
      <line stroke="#009900" stroke-width="1" x1="753.0" x2="760.0" y1="264.0" y2="264.0"/>
      <line stroke="#009900" stroke-width="1" x1="753.0" x2="760.0" y1="268.0" y2="268.0"/>
      <line stroke="#009900" stroke-width="1" x1="753.0" x2="760.0" y1="272.0" y2="272.0"/>
      <line stroke="#009900" stroke-width="1" x1="753.0" x2="760.0" y1="276.0" y2="276.0"/>
      <line stroke="#009900" stroke-width="1" x1="753.0" x2="760.0" y1="280.0" y2="280.0"/>
      <line stroke="#009900" stroke-width="1" x1="753.0" x2="760.0" y1="284.0" y2="284.0"/>
      <line stroke="#009900" stroke-width="1" x1="753.0" x2="760.0" y1="288.0" y2="288.0"/>
      <line stroke="#009900" stroke-width="1" x1="753.0" x2="760.0" y1="292.0" y2="292.0"/>
      <polyline fill="none" marker-end="url(#id330)" points="802.0,342.0 802.0,355.0" stroke="#ff0000" stroke-width="1"/>
      <polyline fill="none" marker-end="url(#id330)" points="824.0,355.0 824.0,342.0" stroke="#009900" stroke-width="1"/>
      <polyline fill="none" marker-end="url(#id330)" points="790.0,262.0 773.0,262.0" stroke="#009900" stroke-width="1"/>
      <polygon fill="#34349c" points="753.0,335.0 749.0,335.0 749.0,336.0 753.0,336.0" stroke="#34349c" stroke-width="1"/>
      <polygon fill="#ff0000" points="757.0,335.0 753.0,335.0 753.0,336.0 757.0,336.0" stroke="#ff0000" stroke-width="1"/>
      <text fill="#00afaf" font-family="Arial" font-size="15.0" stroke="none" stroke-width="0" x="159.0" y="118.0">Волгоградский</text>
      <text fill="#00afaf" font-family="Arial" font-size="15.0" stroke="none" stroke-width="0" x="170.0" y="129.0">проспект</text>
      <text fill="#00afaf" font-family="Arial" font-size="15.0" stroke="none" stroke-width="0" x="679.0" y="118.0">Волгоградский</text>
      <text fill="#00afaf" font-family="Arial" font-size="15.0" stroke="none" stroke-width="0" x="688.0" y="131.0">проспект</text>
      <text fill="#00afaf" font-family="Arial" font-size="15.0" stroke="none" stroke-width="0" transform="rotate(-46.0,634.0,484.0)" x="634.0" y="499.0">Новоостаповская улица</text>
    </g>
    <g>
      <rect fill="#615f56" height="30.0" stroke="none" stroke-width="0" width="30.0" x="768.0" y="579.0"/>
      <rect fill="#615f56" height="30.0" stroke="none" stroke-width="0" width="30.0" x="634.0" y="614.0"/>
      <rect fill="#615f56" height="30.0" stroke="none" stroke-width="0" width="30.0" x="95.0" y="276.0"/>
      <rect fill="#615f56" height="30.0" stroke="none" stroke-width="0" width="30.0" x="7.0" y="223.0"/>
      <text fill="#ffd900" font-family="Arial" font-size="25.0" stroke="none" stroke-width="0" x="776.0" y="605.0">1</text>
      <text fill="#ffd900" font-family="Arial" font-size="25.0" stroke="none" stroke-width="0" x="642.0" y="640.0">2</text>
      <text fill="#ffd900" font-family="Arial" font-size="25.0" stroke="none" stroke-width="0" x="103.0" y="302.0">3</text>
      <text fill="#ffd900" font-family="Arial" font-size="25.0" stroke="none" stroke-width="0" x="15.0" y="249.0">4</text>
    </g>
  </g>
</svg>
