<?xml version="1.0" encoding="utf-8" ?>
<svg baseProfile="full" height="500.0" version="1.1" width="1280.0" xmlns="http://www.w3.org/2000/svg" xmlns:ev="http://www.w3.org/2001/xml-events" xmlns:xlink="http://www.w3.org/1999/xlink">
  <defs>
    <marker id="id332" markerHeight="3" markerUnits="strokeWidth" markerWidth="4" orient="auto" refX="0" refY="5" viewBox="0,0,10,10">
      <path d="M 0 0 L 10 5 L 0 10 z"/>
    </marker>
  </defs>
  <g>
    <rect fill="none" height="500.0" stroke="none" stroke-width="0" width="1280.0" x="0.0" y="0.0"/>
    <g transform="rotate(20.0,640.0,250.0)">
      <polygon fill="#7cbc54" points="266.0,209.0 716.0,209.0 716.0,239.0 266.0,239.0" stroke="#000000" stroke-width="1"/>
      <polygon fill="#7cbc54" points="266.0,349.0 266.0,319.0 716.0,319.0 716.0,349.0" stroke="#000000" stroke-width="1"/>
      <text fill="#7cbc54" font-family="Arial" font-size="20.0" stroke="none" stroke-width="0" x="271.0" y="204.0">&lt;&lt; Печатники</text>
      <text fill="#7cbc54" font-family="Arial" font-size="20.0" stroke="none" stroke-width="0" x="613.0" y="369.0">Люблино &gt;&gt;</text>
      <text fill="#7cbc54" font-family="Arial" font-size="25.0" stroke="none" stroke-width="0" x="440.0" y="295.0">Волжская</text>
      <polygon fill="#34349c" points="491.0,273.0 491.0,269.0 492.0,269.0 492.0,273.0" stroke="#34349c" stroke-width="1"/>
      <polygon fill="#ff0000" points="491.0,277.0 491.0,273.0 492.0,273.0 492.0,277.0" stroke="#ff0000" stroke-width="1"/>
      <polyline fill="none" points="716.0,319.0 716.0,315.0 766.0,315.0 766.0,324.0 741.0,324.0 736.0,329.0 736.0,336.0 741.0,341.0 779.0,341.0 779.0,349.0 939.0,349.0 939.0,209.0 919.0,209.0 919.0,160.0 961.0,160.0" stroke="#000000" stroke-width="1"/>
      <polyline fill="none" points="961.0,135.0 919.0,135.0 919.0,90.0 1074.0,90.0 1098.0,80.0 1131.0,47.0 1131.0,37.0 1100.0,6.0 1090.0,6.0 1064.0,32.0" stroke="#000000" stroke-width="1"/>
      <polyline fill="none" points="1082.0,50.0 1098.0,34.0 1103.0,39.0 1087.0,55.0 1071.0,61.0 890.0,61.0 890.0,209.0 779.0,209.0 779.0,217.0 741.0,217.0 736.0,222.0 736.0,229.0 741.0,234.0 766.0,234.0 766.0,243.0 716.0,243.0 716.0,239.0" stroke="#000000" stroke-width="1"/>
      <line stroke="#000000" stroke-width="1" x1="764.0" x2="764.0" y1="243.0" y2="315.0"/>
      <line stroke="#000000" stroke-width="1" x1="760.0" x2="760.0" y1="243.0" y2="315.0"/>
      <line stroke="#000000" stroke-width="1" x1="756.0" x2="756.0" y1="243.0" y2="315.0"/>
      <line stroke="#000000" stroke-width="1" x1="752.0" x2="752.0" y1="243.0" y2="315.0"/>
      <line stroke="#000000" stroke-width="1" x1="748.0" x2="748.0" y1="243.0" y2="315.0"/>
      <line stroke="#000000" stroke-width="1" x1="744.0" x2="744.0" y1="243.0" y2="315.0"/>
      <line stroke="#000000" stroke-width="1" x1="740.0" x2="740.0" y1="243.0" y2="315.0"/>
      <line stroke="#000000" stroke-width="1" x1="736.0" x2="736.0" y1="243.0" y2="315.0"/>
      <line stroke="#000000" stroke-width="1" x1="732.0" x2="732.0" y1="243.0" y2="315.0"/>
      <line stroke="#000000" stroke-width="1" x1="728.0" x2="728.0" y1="243.0" y2="315.0"/>
      <line stroke="#000000" stroke-width="1" x1="724.0" x2="724.0" y1="243.0" y2="315.0"/>
      <line stroke="#000000" stroke-width="1" x1="720.0" x2="720.0" y1="243.0" y2="315.0"/>
      <line stroke="#000000" stroke-width="1" x1="959.0" x2="959.0" y1="160.0" y2="135.0"/>
      <line stroke="#000000" stroke-width="1" x1="955.0" x2="955.0" y1="160.0" y2="135.0"/>
      <line stroke="#000000" stroke-width="1" x1="951.0" x2="951.0" y1="160.0" y2="135.0"/>
      <line stroke="#000000" stroke-width="1" x1="947.0" x2="947.0" y1="160.0" y2="135.0"/>
      <line stroke="#000000" stroke-width="1" x1="943.0" x2="943.0" y1="160.0" y2="135.0"/>
      <line stroke="#000000" stroke-width="1" x1="939.0" x2="939.0" y1="160.0" y2="135.0"/>
      <line stroke="#000000" stroke-width="1" x1="935.0" x2="935.0" y1="160.0" y2="135.0"/>
      <line stroke="#000000" stroke-width="1" x1="931.0" x2="931.0" y1="160.0" y2="135.0"/>
      <line stroke="#000000" stroke-width="1" x1="927.0" x2="927.0" y1="160.0" y2="135.0"/>
      <line stroke="#000000" stroke-width="1" x1="923.0" x2="923.0" y1="160.0" y2="135.0"/>
      <line stroke="#000000" stroke-width="1" x1="1088.0" x2="1106.0" y1="54.0" y2="72.0"/>
      <line stroke="#000000" stroke-width="1" x1="1090.8284271247462" x2="1108.8284271247462" y1="51.17157287525381" y2="69.17157287525382"/>
      <line stroke="#000000" stroke-width="1" x1="1093.6568542494924" x2="1111.6568542494924" y1="48.34314575050762" y2="66.34314575050763"/>
      <line stroke="#000000" stroke-width="1" x1="1096.4852813742386" x2="1114.4852813742386" y1="45.514718625761425" y2="63.51471862576144"/>
      <line stroke="#000000" stroke-width="1" x1="1099.3137084989849" x2="1117.3137084989849" y1="42.68629150101523" y2="60.68629150101525"/>
      <line stroke="#000000" stroke-width="1" x1="1065.0" x2="1083.0" y1="31.0" y2="49.0"/>
      <line stroke="#000000" stroke-width="1" x1="1067.8284271247462" x2="1085.8284271247462" y1="28.17157287525381" y2="46.17157287525381"/>
      <line stroke="#000000" stroke-width="1" x1="1070.6568542494924" x2="1088.6568542494924" y1="25.343145750507617" y2="43.34314575050762"/>
      <line stroke="#000000" stroke-width="1" x1="1073.4852813742386" x2="1091.4852813742386" y1="22.514718625761425" y2="40.514718625761425"/>
      <line stroke="#000000" stroke-width="1" x1="1076.3137084989849" x2="1094.3137084989849" y1="19.686291501015234" y2="37.68629150101523"/>
      <polygon fill="#d0d0d0" points="851.0,272.0 880.0,272.0 880.0,240.0 890.0,240.0 890.0,316.0 881.0,316.0 881.0,291.0 851.0,291.0" stroke="#000000" stroke-width="1"/>
      <polyline fill="none" points="851.0,272.0 851.0,263.0 880.0,263.0" stroke="#000000" stroke-width="1"/>
      <text fill="#000000" font-family="Arial" font-size="10.0" stroke="none" stroke-width="0" x="853.0" y="271.0">кассы</text>
      <polyline fill="none" points="766.0,236.0 770.0,240.0" stroke="#000000" stroke-width="1"/>
      <polygon fill="none" points="807.0,272.0 801.0,272.0 801.0,278.0 807.0,278.0" stroke="#000000" stroke-width="1"/>
      <polyline fill="none" points="804.0,334.0 804.0,349.0" stroke="#000000" stroke-width="1"/>
      <line stroke="#009900" stroke-width="1" x1="772.0" x2="769.0" y1="239.0" y2="242.0"/>
      <line stroke="#009900" stroke-width="1" x1="774.8284271247462" x2="771.8284271247462" y1="241.82842712474618" y2="244.82842712474618"/>
      <line stroke="#009900" stroke-width="1" x1="777.6568542494924" x2="774.6568542494924" y1="244.65685424949237" y2="247.65685424949237"/>
      <line stroke="#009900" stroke-width="1" x1="780.4852813742386" x2="777.4852813742386" y1="247.48528137423855" y2="250.48528137423855"/>
      <line stroke="#009900" stroke-width="1" x1="783.3137084989849" x2="780.3137084989849" y1="250.31370849898474" y2="253.31370849898474"/>
      <line stroke="#009900" stroke-width="1" x1="786.1421356237311" x2="783.1421356237311" y1="253.14213562373092" y2="256.14213562373095"/>
      <line stroke="#009900" stroke-width="1" x1="788.9705627484773" x2="785.9705627484773" y1="255.9705627484771" y2="258.97056274847716"/>
      <line stroke="#009900" stroke-width="1" x1="791.7989898732235" x2="788.7989898732235" y1="258.7989898732233" y2="261.7989898732234"/>
      <line stroke="#009900" stroke-width="1" x1="794.6274169979697" x2="791.6274169979697" y1="261.62741699796953" y2="264.6274169979696"/>
      <line stroke="#009900" stroke-width="1" x1="797.4558441227159" x2="794.4558441227159" y1="264.45584412271575" y2="267.4558441227158"/>
      <line stroke="#009900" stroke-width="1" x1="800.2842712474621" x2="797.2842712474621" y1="267.28427124746196" y2="270.284271247462"/>
      <line stroke="#ff0000" stroke-width="1" x1="806.0" x2="802.0" y1="282.0" y2="282.0"/>
      <line stroke="#ff0000" stroke-width="1" x1="806.0" x2="802.0" y1="286.0" y2="286.0"/>
      <line stroke="#ff0000" stroke-width="1" x1="806.0" x2="802.0" y1="290.0" y2="290.0"/>
      <line stroke="#ff0000" stroke-width="1" x1="806.0" x2="802.0" y1="294.0" y2="294.0"/>
      <line stroke="#ff0000" stroke-width="1" x1="806.0" x2="802.0" y1="298.0" y2="298.0"/>
      <line stroke="#ff0000" stroke-width="1" x1="806.0" x2="802.0" y1="302.0" y2="302.0"/>
      <line stroke="#ff0000" stroke-width="1" x1="806.0" x2="802.0" y1="306.0" y2="306.0"/>
      <line stroke="#ff0000" stroke-width="1" x1="806.0" x2="802.0" y1="310.0" y2="310.0"/>
      <line stroke="#ff0000" stroke-width="1" x1="806.0" x2="802.0" y1="314.0" y2="314.0"/>
      <line stroke="#ff0000" stroke-width="1" x1="806.0" x2="802.0" y1="318.0" y2="318.0"/>
      <line stroke="#ff0000" stroke-width="1" x1="806.0" x2="802.0" y1="322.0" y2="322.0"/>
      <line stroke="#ff0000" stroke-width="1" x1="806.0" x2="802.0" y1="326.0" y2="326.0"/>
      <line stroke="#ff0000" stroke-width="1" x1="806.0" x2="802.0" y1="330.0" y2="330.0"/>
      <line stroke="#ff0000" stroke-width="1" x1="806.0" x2="802.0" y1="334.0" y2="334.0"/>
      <polygon fill="#34349c" points="110.0,212.0 114.0,212.0 114.0,213.0 110.0,213.0" stroke="#34349c" stroke-width="1"/>
      <polygon fill="#ff0000" points="106.0,212.0 110.0,212.0 110.0,213.0 106.0,213.0" stroke="#ff0000" stroke-width="1"/>
      <polyline fill="none" points="28.0,395.0 189.0,395.0" stroke="#000000" stroke-width="1"/>
      <polyline fill="none" points="28.0,371.0 77.0,371.0 77.0,330.0 67.0,330.0 67.0,209.0 204.0,209.0 204.0,217.0 241.0,217.0 246.0,222.0 246.0,229.0 241.0,234.0 216.0,234.0 216.0,243.0 266.0,243.0 266.0,239.0" stroke="#000000" stroke-width="1"/>
      <polyline fill="none" points="189.0,371.0 144.0,371.0 144.0,330.0 167.0,330.0 167.0,349.0 204.0,349.0 204.0,341.0 241.0,341.0 246.0,336.0 246.0,329.0 241.0,324.0 216.0,324.0 216.0,315.0 266.0,315.0 266.0,319.0" stroke="#000000" stroke-width="1"/>
      <polyline fill="none" points="216.0,315.0 216.0,315.0" stroke="#000000" stroke-width="1"/>
      <polyline fill="none" points="216.0,243.0 216.0,243.0" stroke="#000000" stroke-width="1"/>
      <line stroke="#000000" stroke-width="1" x1="30.0" x2="30.0" y1="371.0" y2="395.0"/>
      <line stroke="#000000" stroke-width="1" x1="34.0" x2="34.0" y1="371.0" y2="395.0"/>
      <line stroke="#000000" stroke-width="1" x1="38.0" x2="38.0" y1="371.0" y2="395.0"/>
      <line stroke="#000000" stroke-width="1" x1="42.0" x2="42.0" y1="371.0" y2="395.0"/>
      <line stroke="#000000" stroke-width="1" x1="46.0" x2="46.0" y1="371.0" y2="395.0"/>
      <line stroke="#000000" stroke-width="1" x1="50.0" x2="50.0" y1="371.0" y2="395.0"/>
      <line stroke="#000000" stroke-width="1" x1="54.0" x2="54.0" y1="371.0" y2="395.0"/>
      <line stroke="#000000" stroke-width="1" x1="58.0" x2="58.0" y1="371.0" y2="395.0"/>
      <line stroke="#000000" stroke-width="1" x1="62.0" x2="62.0" y1="371.0" y2="395.0"/>
      <line stroke="#000000" stroke-width="1" x1="66.0" x2="66.0" y1="371.0" y2="395.0"/>
      <line stroke="#000000" stroke-width="1" x1="187.0" x2="187.0" y1="371.0" y2="395.0"/>
      <line stroke="#000000" stroke-width="1" x1="183.0" x2="183.0" y1="371.0" y2="395.0"/>
      <line stroke="#000000" stroke-width="1" x1="179.0" x2="179.0" y1="371.0" y2="395.0"/>
      <line stroke="#000000" stroke-width="1" x1="175.0" x2="175.0" y1="371.0" y2="395.0"/>
      <line stroke="#000000" stroke-width="1" x1="171.0" x2="171.0" y1="371.0" y2="395.0"/>
      <line stroke="#000000" stroke-width="1" x1="167.0" x2="167.0" y1="371.0" y2="395.0"/>
      <line stroke="#000000" stroke-width="1" x1="163.0" x2="163.0" y1="371.0" y2="395.0"/>
      <line stroke="#000000" stroke-width="1" x1="159.0" x2="159.0" y1="371.0" y2="395.0"/>
      <line stroke="#000000" stroke-width="1" x1="155.0" x2="155.0" y1="371.0" y2="395.0"/>
      <line stroke="#000000" stroke-width="1" x1="151.0" x2="151.0" y1="371.0" y2="395.0"/>
      <line stroke="#000000" stroke-width="1" x1="218.0" x2="218.0" y1="243.0" y2="315.0"/>
      <line stroke="#000000" stroke-width="1" x1="222.0" x2="222.0" y1="243.0" y2="315.0"/>
      <line stroke="#000000" stroke-width="1" x1="226.0" x2="226.0" y1="243.0" y2="315.0"/>
      <line stroke="#000000" stroke-width="1" x1="230.0" x2="230.0" y1="243.0" y2="315.0"/>
      <line stroke="#000000" stroke-width="1" x1="234.0" x2="234.0" y1="243.0" y2="315.0"/>
      <line stroke="#000000" stroke-width="1" x1="238.0" x2="238.0" y1="243.0" y2="315.0"/>
      <line stroke="#000000" stroke-width="1" x1="242.0" x2="242.0" y1="243.0" y2="315.0"/>
      <line stroke="#000000" stroke-width="1" x1="246.0" x2="246.0" y1="243.0" y2="315.0"/>
      <line stroke="#000000" stroke-width="1" x1="250.0" x2="250.0" y1="243.0" y2="315.0"/>
      <line stroke="#000000" stroke-width="1" x1="254.0" x2="254.0" y1="243.0" y2="315.0"/>
      <line stroke="#000000" stroke-width="1" x1="258.0" x2="258.0" y1="243.0" y2="315.0"/>
      <line stroke="#000000" stroke-width="1" x1="262.0" x2="262.0" y1="243.0" y2="315.0"/>
      <polygon fill="#d0d0d0" points="106.0,330.0 114.0,330.0 114.0,371.0 106.0,371.0" stroke="#000000" stroke-width="1"/>
      <polyline fill="none" points="67.0,221.0 58.0,221.0 58.0,249.0 67.0,249.0" stroke="#000000" stroke-width="1"/>
      <text fill="#000000" font-family="Arial" font-size="10.0" stroke="none" stroke-width="0" transform="rotate(-90.0,56.0,247.0)" x="56.0" y="257.0">кассы</text>
      <polyline fill="none" points="154.0,209.0 154.0,214.0" stroke="#000000" stroke-width="1"/>
      <polygon fill="none" points="151.0,266.0 157.0,266.0 157.0,272.0 151.0,272.0" stroke="#000000" stroke-width="1"/>
      <polyline fill="none" points="154.0,324.0 154.0,330.0" stroke="#000000" stroke-width="1"/>
      <line stroke="#009900" stroke-width="1" x1="152.0" x2="156.0" y1="214.0" y2="214.0"/>
      <line stroke="#009900" stroke-width="1" x1="152.0" x2="156.0" y1="218.0" y2="218.0"/>
      <line stroke="#009900" stroke-width="1" x1="152.0" x2="156.0" y1="222.0" y2="222.0"/>
      <line stroke="#009900" stroke-width="1" x1="152.0" x2="156.0" y1="226.0" y2="226.0"/>
      <line stroke="#009900" stroke-width="1" x1="152.0" x2="156.0" y1="230.0" y2="230.0"/>
      <line stroke="#009900" stroke-width="1" x1="152.0" x2="156.0" y1="234.0" y2="234.0"/>
      <line stroke="#009900" stroke-width="1" x1="152.0" x2="156.0" y1="238.0" y2="238.0"/>
      <line stroke="#009900" stroke-width="1" x1="152.0" x2="156.0" y1="242.0" y2="242.0"/>
      <line stroke="#009900" stroke-width="1" x1="152.0" x2="156.0" y1="246.0" y2="246.0"/>
      <line stroke="#009900" stroke-width="1" x1="152.0" x2="156.0" y1="250.0" y2="250.0"/>
      <line stroke="#009900" stroke-width="1" x1="152.0" x2="156.0" y1="254.0" y2="254.0"/>
      <line stroke="#009900" stroke-width="1" x1="152.0" x2="156.0" y1="258.0" y2="258.0"/>
      <line stroke="#009900" stroke-width="1" x1="152.0" x2="156.0" y1="262.0" y2="262.0"/>
      <line stroke="#ff0000" stroke-width="1" x1="152.0" x2="156.0" y1="276.0" y2="276.0"/>
      <line stroke="#ff0000" stroke-width="1" x1="152.0" x2="156.0" y1="280.0" y2="280.0"/>
      <line stroke="#ff0000" stroke-width="1" x1="152.0" x2="156.0" y1="284.0" y2="284.0"/>
      <line stroke="#ff0000" stroke-width="1" x1="152.0" x2="156.0" y1="288.0" y2="288.0"/>
      <line stroke="#ff0000" stroke-width="1" x1="152.0" x2="156.0" y1="292.0" y2="292.0"/>
      <line stroke="#ff0000" stroke-width="1" x1="152.0" x2="156.0" y1="296.0" y2="296.0"/>
      <line stroke="#ff0000" stroke-width="1" x1="152.0" x2="156.0" y1="300.0" y2="300.0"/>
      <line stroke="#ff0000" stroke-width="1" x1="152.0" x2="156.0" y1="304.0" y2="304.0"/>
      <line stroke="#ff0000" stroke-width="1" x1="152.0" x2="156.0" y1="308.0" y2="308.0"/>
      <line stroke="#ff0000" stroke-width="1" x1="152.0" x2="156.0" y1="312.0" y2="312.0"/>
      <line stroke="#ff0000" stroke-width="1" x1="152.0" x2="156.0" y1="316.0" y2="316.0"/>
      <line stroke="#ff0000" stroke-width="1" x1="152.0" x2="156.0" y1="320.0" y2="320.0"/>
      <line stroke="#ff0000" stroke-width="1" x1="152.0" x2="156.0" y1="324.0" y2="324.0"/>
      <polygon fill="#34349c" points="827.0,212.0 831.0,212.0 831.0,213.0 827.0,213.0" stroke="#34349c" stroke-width="1"/>
      <polygon fill="#ff0000" points="823.0,212.0 827.0,212.0 827.0,213.0 823.0,213.0" stroke="#ff0000" stroke-width="1"/>
      <text fill="#00afaf" font-family="Arial" font-size="15.0" stroke="none" stroke-width="0" transform="rotate(-30.0,400.0,575.0)" x="400.0" y="590.0">Люблинский пруд</text>
      <text fill="#00afaf" font-family="Arial" font-size="15.0" stroke="none" stroke-width="0" transform="rotate(-90.0,1000.0,142.0)" x="1000.0" y="157.0">ул.Краснодонская</text>
      <text fill="#00afaf" font-family="Arial" font-size="15.0" stroke="none" stroke-width="0" x="1122.0" y="87.0">Кузьминский парк &gt;&gt;</text>
      <polyline fill="none" marker-end="url(#id332)" points="779.0,300.0 795.0,300.0" stroke="#ff0000" stroke-width="1"/>
      <polyline fill="none" marker-end="url(#id332)" points="182.0,294.0 168.0,294.0" stroke="#ff0000" stroke-width="1"/>
      <polyline fill="none" marker-end="url(#id332)" points="819.0,239.0 809.0,249.0" stroke="#009900" stroke-width="1"/>
      <polyline fill="none" marker-end="url(#id332)" points="126.0,232.0 140.0,232.0" stroke="#009900" stroke-width="1"/>
    </g>
    <g>
      <rect fill="#615f56" height="30.0" stroke="none" stroke-width="0" width="30.0" x="946.0" y="279.0"/>
      <rect fill="#615f56" height="30.0" stroke="none" stroke-width="0" width="30.0" x="1104.0" y="147.0"/>
      <rect fill="#615f56" height="30.0" stroke="none" stroke-width="0" width="30.0" x="129.0" y="234.0"/>
      <rect fill="#615f56" height="30.0" stroke="none" stroke-width="0" width="30.0" x="16.0" y="191.0"/>
      <text fill="#ffd900" font-family="Arial" font-size="25.0" stroke="none" stroke-width="0" x="954.0" y="305.0">1</text>
      <text fill="#ffd900" font-family="Arial" font-size="25.0" stroke="none" stroke-width="0" x="1112.0" y="173.0">2</text>
      <text fill="#ffd900" font-family="Arial" font-size="25.0" stroke="none" stroke-width="0" x="137.0" y="260.0">3</text>
      <text fill="#ffd900" font-family="Arial" font-size="25.0" stroke="none" stroke-width="0" x="24.0" y="217.0">4</text>
    </g>
  </g>
</svg>
