<?xml version="1.0" encoding="utf-8" ?>
<svg baseProfile="full" height="1220.0" version="1.1" width="1710.0" xmlns="http://www.w3.org/2000/svg" xmlns:ev="http://www.w3.org/2001/xml-events" xmlns:xlink="http://www.w3.org/1999/xlink">
  <defs>
    <marker id="id336" markerHeight="3" markerUnits="strokeWidth" markerWidth="4" orient="auto" refX="0" refY="5" viewBox="0,0,10,10">
      <path d="M 0 0 L 10 5 L 0 10 z"/>
    </marker>
  </defs>
  <g>
    <rect fill="none" height="1220.0" stroke="none" stroke-width="0" width="1710.0" x="0.0" y="0.0"/>
    <g transform="rotate(-30.0,855.0,610.0)">
      <polygon fill="#2c7cac" points="909.0,265.0 909.0,295.0 1359.0,295.0 1359.0,265.0" stroke="#000000" stroke-width="1"/>
      <polygon fill="#2c7cac" points="909.0,375.0 909.0,405.0 1359.0,405.0 1359.0,375.0" stroke="#000000" stroke-width="1"/>
      <polygon fill="#34349c" points="1131.0,344.0 1131.0,340.0 1130.0,340.0 1130.0,344.0" stroke="#34349c" stroke-width="1"/>
      <polygon fill="#ff0000" points="1131.0,348.0 1131.0,344.0 1130.0,344.0 1130.0,348.0" stroke="#ff0000" stroke-width="1"/>
      <polyline fill="none" points="1359.0,375.0 1359.0,364.0 1347.0,364.0 1347.0,361.0 1385.0,361.0" stroke="#000000" stroke-width="1"/>
      <polyline fill="none" points="1359.0,295.0 1359.0,306.0 1347.0,306.0 1347.0,309.0" stroke="#000000" stroke-width="1"/>
      <line stroke="#000000" stroke-width="1" x1="1351.0" x2="1351.0" y1="329.0" y2="361.0"/>
      <line stroke="#000000" stroke-width="1" x1="1355.0" x2="1355.0" y1="329.0" y2="361.0"/>
      <line stroke="#000000" stroke-width="1" x1="1359.0" x2="1359.0" y1="329.0" y2="361.0"/>
      <line stroke="#000000" stroke-width="1" x1="1363.0" x2="1363.0" y1="329.0" y2="361.0"/>
      <line stroke="#000000" stroke-width="1" x1="1367.0" x2="1367.0" y1="329.0" y2="361.0"/>
      <line stroke="#000000" stroke-width="1" x1="1371.0" x2="1371.0" y1="329.0" y2="361.0"/>
      <line stroke="#000000" stroke-width="1" x1="1375.0" x2="1375.0" y1="329.0" y2="361.0"/>
      <line stroke="#000000" stroke-width="1" x1="1379.0" x2="1379.0" y1="329.0" y2="361.0"/>
      <line stroke="#000000" stroke-width="1" x1="1383.0" x2="1383.0" y1="329.0" y2="361.0"/>
      <line stroke="#7f7f7f" stroke-width="1" x1="1378.0" x2="1378.0" y1="327.0" y2="311.0"/>
      <line stroke="#7f7f7f" stroke-width="1" x1="1374.0" x2="1374.0" y1="327.0" y2="311.0"/>
      <line stroke="#7f7f7f" stroke-width="1" x1="1370.0" x2="1370.0" y1="327.0" y2="311.0"/>
      <line stroke="#7f7f7f" stroke-width="1" x1="1366.0" x2="1366.0" y1="327.0" y2="311.0"/>
      <line stroke="#7f7f7f" stroke-width="1" x1="1362.0" x2="1362.0" y1="327.0" y2="311.0"/>
      <line stroke="#7f7f7f" stroke-width="1" x1="1358.0" x2="1358.0" y1="327.0" y2="311.0"/>
      <line stroke="#7f7f7f" stroke-width="1" x1="1354.0" x2="1354.0" y1="327.0" y2="311.0"/>
      <polygon fill="#9b5509" points="1385.0,311.0 1347.0,311.0 1347.0,309.0 1385.0,309.0" stroke="#000000" stroke-width="1"/>
      <polygon fill="#9b5509" points="1385.0,317.0 1385.0,321.0 1347.0,321.0 1347.0,317.0" stroke="#000000" stroke-width="1"/>
      <polygon fill="#9b5509" points="1385.0,327.0 1347.0,327.0 1347.0,329.0 1385.0,329.0" stroke="#000000" stroke-width="1"/>
      <polyline fill="none" points="1359.0,265.0 1432.0,265.0 1432.0,399.0 1411.0,420.0 1367.0,420.0 1367.0,777.0" stroke="#000000" stroke-width="1"/>
      <polyline fill="none" points="1367.0,826.0 1367.0,835.0" stroke="#000000" stroke-width="1"/>
      <polyline fill="none" points="1367.0,884.0 1367.0,894.0" stroke="#000000" stroke-width="1"/>
      <polyline fill="none" points="1367.0,943.0 1367.0,1013.0" stroke="#000000" stroke-width="1"/>
      <polyline fill="none" points="1388.0,1024.0 1396.0,1017.0" stroke="#000000" stroke-width="1"/>
      <polyline fill="none" points="1423.0,1049.0 1416.0,1055.0" stroke="#000000" stroke-width="1"/>
      <polyline fill="none" points="1350.0,1166.0 1346.0,1181.0" stroke="#000000" stroke-width="1"/>
      <polyline fill="none" points="1304.0,1170.0 1308.0,1155.0" stroke="#000000" stroke-width="1"/>
      <polyline fill="none" points="1329.0,1014.0 1329.0,944.0" stroke="#000000" stroke-width="1"/>
      <polyline fill="none" points="1329.0,893.0 1329.0,885.0" stroke="#000000" stroke-width="1"/>
      <polyline fill="none" points="1329.0,834.0 1329.0,827.0" stroke="#000000" stroke-width="1"/>
      <path d="M1329.0,776.0 C1329.0,776.0 1330.6666666666667,774.0 1329.0,776.0 C1327.3333333333333,778.0 1321.1666666666667,783.6666666666666 1319.0,788.0 C1316.8333333333333,792.3333333333334 1316.0,797.3333333333334 1316.0,802.0 C1316.0,806.6666666666666 1316.8333333333333,811.8333333333334 1319.0,816.0 C1321.1666666666667,820.1666666666666 1329.0,827.0 1329.0,827.0 " fill="none" stroke="#000000" stroke-width="1"/>
      <path d="M1329.0,834.0 C1329.0,834.0 1330.5,832.1666666666666 1329.0,834.0 C1327.5,835.8333333333334 1322.1666666666667,840.6666666666666 1320.0,845.0 C1317.8333333333333,849.3333333333334 1316.0,855.1666666666666 1316.0,860.0 C1316.0,864.8333333333334 1317.8333333333333,869.8333333333334 1320.0,874.0 C1322.1666666666667,878.1666666666666 1329.0,885.0 1329.0,885.0 " fill="none" stroke="#000000" stroke-width="1"/>
      <path d="M1329.0,893.0 C1329.0,893.0 1330.5,891.1666666666666 1329.0,893.0 C1327.5,894.8333333333334 1322.1666666666667,899.6666666666666 1320.0,904.0 C1317.8333333333333,908.3333333333334 1316.0,914.0 1316.0,919.0 C1316.0,924.0 1317.8333333333333,929.8333333333334 1320.0,934.0 C1322.1666666666667,938.1666666666666 1329.0,944.0 1329.0,944.0 " fill="none" stroke="#000000" stroke-width="1"/>
      <path d="M1367.0,943.0 C1367.0,943.0 1365.6666666666667,944.6666666666666 1367.0,943.0 C1368.3333333333333,941.3333333333334 1373.0,937.0 1375.0,933.0 C1377.0,929.0 1379.0,923.8333333333334 1379.0,919.0 C1379.0,914.1666666666666 1377.0,908.1666666666666 1375.0,904.0 C1373.0,899.8333333333334 1367.0,894.0 1367.0,894.0 " fill="none" stroke="#000000" stroke-width="1"/>
      <path d="M1367.0,884.0 C1367.0,884.0 1365.6666666666667,885.6666666666666 1367.0,884.0 C1368.3333333333333,882.3333333333334 1373.0,878.0 1375.0,874.0 C1377.0,870.0 1378.8333333333333,864.6666666666666 1379.0,860.0 C1379.1666666666667,855.3333333333334 1378.0,850.1666666666666 1376.0,846.0 C1374.0,841.8333333333334 1367.0,835.0 1367.0,835.0 " fill="none" stroke="#000000" stroke-width="1"/>
      <path d="M1367.0,826.0 C1367.0,826.0 1365.6666666666667,827.6666666666666 1367.0,826.0 C1368.3333333333333,824.3333333333334 1373.0,820.0 1375.0,816.0 C1377.0,812.0 1378.8333333333333,806.6666666666666 1379.0,802.0 C1379.1666666666667,797.3333333333334 1378.0,792.1666666666666 1376.0,788.0 C1374.0,783.8333333333334 1367.0,777.0 1367.0,777.0 " fill="none" stroke="#000000" stroke-width="1"/>
      <path d="M1329.0,1014.0 C1329.0,1014.0 1333.5,1011.8333333333334 1329.0,1014.0 C1324.5,1016.1666666666666 1309.8333333333333,1021.3333333333334 1302.0,1027.0 C1294.1666666666667,1032.6666666666667 1287.1666666666667,1039.6666666666667 1282.0,1048.0 C1276.8333333333333,1056.3333333333333 1272.5,1066.6666666666667 1271.0,1077.0 C1269.5,1087.3333333333333 1270.3333333333333,1100.0 1273.0,1110.0 C1275.6666666666667,1120.0 1281.1666666666667,1129.5 1287.0,1137.0 C1292.8333333333333,1144.5 1308.0,1155.0 1308.0,1155.0 " fill="none" stroke="#000000" stroke-width="1"/>
      <path d="M1350.0,1166.0 C1350.0,1166.0 1345.8333333333333,1166.8333333333333 1350.0,1166.0 C1354.1666666666667,1165.1666666666667 1367.0,1164.1666666666667 1375.0,1161.0 C1383.0,1157.8333333333333 1391.5,1152.6666666666667 1398.0,1147.0 C1404.5,1141.3333333333333 1410.0,1134.1666666666667 1414.0,1127.0 C1418.0,1119.8333333333333 1420.5,1111.8333333333333 1422.0,1104.0 C1423.5,1096.1666666666667 1424.0,1088.1666666666667 1423.0,1080.0 C1422.0,1071.8333333333333 1416.0,1055.0 1416.0,1055.0 " fill="none" stroke="#000000" stroke-width="1"/>
      <path d="M1388.0,1024.0 C1388.0,1024.0 1389.5,1024.8333333333333 1388.0,1024.0 C1386.5,1023.1666666666666 1382.6666666666667,1020.6666666666666 1379.0,1019.0 C1375.3333333333333,1017.3333333333334 1366.0,1014.0 1366.0,1014.0 " fill="none" stroke="#000000" stroke-width="1"/>
      <line stroke="#000000" stroke-width="1" x1="1329.0" x2="1342.0" y1="964.0" y2="964.0"/>
      <line stroke="#000000" stroke-width="1" x1="1329.0" x2="1342.0" y1="968.0" y2="968.0"/>
      <line stroke="#000000" stroke-width="1" x1="1329.0" x2="1342.0" y1="972.0" y2="972.0"/>
      <line stroke="#000000" stroke-width="1" x1="1329.0" x2="1342.0" y1="976.0" y2="976.0"/>
      <line stroke="#000000" stroke-width="1" x1="1329.0" x2="1342.0" y1="980.0" y2="980.0"/>
      <line stroke="#000000" stroke-width="1" x1="1329.0" x2="1342.0" y1="984.0" y2="984.0"/>
      <line stroke="#000000" stroke-width="1" x1="1329.0" x2="1342.0" y1="988.0" y2="988.0"/>
      <line stroke="#000000" stroke-width="1" x1="1329.0" x2="1342.0" y1="992.0" y2="992.0"/>
      <line stroke="#000000" stroke-width="1" x1="1329.0" x2="1342.0" y1="996.0" y2="996.0"/>
      <line stroke="#000000" stroke-width="1" x1="1329.0" x2="1342.0" y1="1000.0" y2="1000.0"/>
      <line stroke="#000000" stroke-width="1" x1="1329.0" x2="1342.0" y1="1004.0" y2="1004.0"/>
      <line stroke="#000000" stroke-width="1" x1="1329.0" x2="1342.0" y1="1008.0" y2="1008.0"/>
      <line stroke="#000000" stroke-width="1" x1="1329.0" x2="1342.0" y1="1012.0" y2="1012.0"/>
      <line stroke="#7f7f7f" stroke-width="1" x1="1364.0" x2="1332.0" y1="724.0" y2="724.0"/>
      <line stroke="#7f7f7f" stroke-width="1" x1="1364.0" x2="1332.0" y1="728.0" y2="728.0"/>
      <line stroke="#7f7f7f" stroke-width="1" x1="1364.0" x2="1332.0" y1="732.0" y2="732.0"/>
      <line stroke="#7f7f7f" stroke-width="1" x1="1364.0" x2="1332.0" y1="736.0" y2="736.0"/>
      <line stroke="#7f7f7f" stroke-width="1" x1="1364.0" x2="1332.0" y1="740.0" y2="740.0"/>
      <line stroke="#7f7f7f" stroke-width="1" x1="1364.0" x2="1332.0" y1="744.0" y2="744.0"/>
      <line stroke="#7f7f7f" stroke-width="1" x1="1364.0" x2="1332.0" y1="748.0" y2="748.0"/>
      <polygon fill="#9b5509" points="1332.0,718.0 1332.0,754.0 1329.0,754.0 1329.0,718.0" stroke="#000000" stroke-width="1"/>
      <polygon fill="#9b5509" points="1340.0,718.0 1344.0,718.0 1344.0,754.0 1340.0,754.0" stroke="#000000" stroke-width="1"/>
      <polygon fill="#9b5509" points="1352.0,718.0 1356.0,718.0 1356.0,754.0 1352.0,754.0" stroke="#000000" stroke-width="1"/>
      <polygon fill="#9b5509" points="1364.0,718.0 1364.0,754.0 1367.0,754.0 1367.0,718.0" stroke="#000000" stroke-width="1"/>
      <line stroke="#7f7f7f" stroke-width="1" x1="1365.0" x2="1344.0" y1="971.0" y2="971.0"/>
      <line stroke="#7f7f7f" stroke-width="1" x1="1365.0" x2="1344.0" y1="975.0" y2="975.0"/>
      <line stroke="#7f7f7f" stroke-width="1" x1="1365.0" x2="1344.0" y1="979.0" y2="979.0"/>
      <line stroke="#7f7f7f" stroke-width="1" x1="1365.0" x2="1344.0" y1="983.0" y2="983.0"/>
      <line stroke="#7f7f7f" stroke-width="1" x1="1365.0" x2="1344.0" y1="987.0" y2="987.0"/>
      <line stroke="#7f7f7f" stroke-width="1" x1="1365.0" x2="1344.0" y1="991.0" y2="991.0"/>
      <line stroke="#7f7f7f" stroke-width="1" x1="1365.0" x2="1344.0" y1="995.0" y2="995.0"/>
      <line stroke="#7f7f7f" stroke-width="1" x1="1365.0" x2="1344.0" y1="999.0" y2="999.0"/>
      <line stroke="#7f7f7f" stroke-width="1" x1="1365.0" x2="1344.0" y1="1003.0" y2="1003.0"/>
      <line stroke="#7f7f7f" stroke-width="1" x1="1365.0" x2="1344.0" y1="1007.0" y2="1007.0"/>
      <polygon fill="#9b5509" points="1344.0,964.0 1344.0,1013.0 1342.0,1013.0 1342.0,964.0" stroke="#000000" stroke-width="1"/>
      <polygon fill="#9b5509" points="1349.0,964.0 1352.0,964.0 1352.0,1013.0 1349.0,1013.0" stroke="#000000" stroke-width="1"/>
      <polygon fill="#9b5509" points="1357.0,964.0 1360.0,964.0 1360.0,1013.0 1357.0,1013.0" stroke="#000000" stroke-width="1"/>
      <polygon fill="#9b5509" points="1365.0,964.0 1365.0,1013.0 1367.0,1013.0 1367.0,964.0" stroke="#000000" stroke-width="1"/>
      <polyline fill="none" points="1432.0,370.0 1440.0,370.0 1440.0,396.0 1432.0,396.0" stroke="#000000" stroke-width="1"/>
      <text fill="#000000" font-family="Arial" font-size="10.0" stroke="none" stroke-width="0" transform="rotate(90.0,1443.0,371.0)" x="1443.0" y="381.0">кассы</text>
      <polyline fill="none" points="1407.0,420.0 1407.0,429.0 1370.0,429.0 1370.0,420.0" stroke="#000000" stroke-width="1"/>
      <text fill="#000000" font-family="Arial" font-size="10.0" stroke="none" stroke-width="0" x="1371.0" y="427.0">полиция</text>
      <polygon fill="none" points="1423.0,362.0 1423.0,368.0 1429.0,368.0 1429.0,362.0" stroke="#000000" stroke-width="1"/>
      <polyline fill="none" points="1387.0,365.0 1383.0,365.0 1383.0,361.0" stroke="#000000" stroke-width="0.5"/>
      <polyline fill="none" points="1432.0,305.0 1426.0,305.0" stroke="#000000" stroke-width="0.5"/>
      <polyline fill="none" points="1390.0,305.0 1383.0,305.0 1383.0,309.0" stroke="#000000" stroke-width="0.5"/>
      <line stroke="#ff0000" stroke-width="1" x1="1426.0" x2="1426.0" y1="307.0" y2="303.0"/>
      <line stroke="#ff0000" stroke-width="1" x1="1422.0" x2="1422.0" y1="307.0" y2="303.0"/>
      <line stroke="#ff0000" stroke-width="1" x1="1418.0" x2="1418.0" y1="307.0" y2="303.0"/>
      <line stroke="#ff0000" stroke-width="1" x1="1414.0" x2="1414.0" y1="307.0" y2="303.0"/>
      <line stroke="#ff0000" stroke-width="1" x1="1410.0" x2="1410.0" y1="307.0" y2="303.0"/>
      <line stroke="#ff0000" stroke-width="1" x1="1406.0" x2="1406.0" y1="307.0" y2="303.0"/>
      <line stroke="#ff0000" stroke-width="1" x1="1402.0" x2="1402.0" y1="307.0" y2="303.0"/>
      <line stroke="#ff0000" stroke-width="1" x1="1398.0" x2="1398.0" y1="307.0" y2="303.0"/>
      <line stroke="#ff0000" stroke-width="1" x1="1394.0" x2="1394.0" y1="307.0" y2="303.0"/>
      <line stroke="#ff0000" stroke-width="1" x1="1390.0" x2="1390.0" y1="307.0" y2="303.0"/>
      <line stroke="#009900" stroke-width="1" x1="1419.0" x2="1419.0" y1="367.0" y2="363.0"/>
      <line stroke="#009900" stroke-width="1" x1="1415.0" x2="1415.0" y1="367.0" y2="363.0"/>
      <line stroke="#009900" stroke-width="1" x1="1411.0" x2="1411.0" y1="367.0" y2="363.0"/>
      <line stroke="#009900" stroke-width="1" x1="1407.0" x2="1407.0" y1="367.0" y2="363.0"/>
      <line stroke="#009900" stroke-width="1" x1="1403.0" x2="1403.0" y1="367.0" y2="363.0"/>
      <line stroke="#009900" stroke-width="1" x1="1399.0" x2="1399.0" y1="367.0" y2="363.0"/>
      <line stroke="#009900" stroke-width="1" x1="1395.0" x2="1395.0" y1="367.0" y2="363.0"/>
      <line stroke="#009900" stroke-width="1" x1="1391.0" x2="1391.0" y1="367.0" y2="363.0"/>
      <line stroke="#009900" stroke-width="1" x1="1387.0" x2="1387.0" y1="367.0" y2="363.0"/>
      <polyline fill="none" marker-end="url(#id336)" points="1389.0,324.0 1400.0,324.0 1400.0,286.0 1339.0,286.0 1339.0,307.0" stroke="#ff0000" stroke-width="1"/>
      <polyline fill="none" marker-end="url(#id336)" points="1342.0,941.0 1342.0,957.0" stroke="#ff0000" stroke-width="1"/>
      <polyline fill="none" marker-end="url(#id336)" points="1404.0,1048.0 1424.0,1031.0" stroke="#ff0000" stroke-width="1"/>
      <polyline fill="none" marker-end="url(#id336)" points="1339.0,1162.0 1334.0,1180.0" stroke="#ff0000" stroke-width="1"/>
      <polyline fill="none" marker-end="url(#id336)" points="1355.0,957.0 1355.0,941.0" stroke="#009900" stroke-width="1"/>
      <polyline fill="none" marker-end="url(#id336)" points="1413.0,1019.0 1394.0,1035.0" stroke="#009900" stroke-width="1"/>
      <polyline fill="none" marker-end="url(#id336)" points="1318.0,1176.0 1323.0,1157.0" stroke="#009900" stroke-width="1"/>
      <polyline fill="none" marker-end="url(#id336)" points="1356.0,409.0 1356.0,389.0 1379.0,389.0" stroke="#009900" stroke-width="1"/>
      <polyline fill="none" marker-end="url(#id336)" points="1390.0,344.0 1367.0,344.0" stroke="#009900" stroke-width="1"/>
      <polyline fill="none" marker-end="url(#id336)" points="1413.0,371.0 1413.0,355.0" stroke="#009900" stroke-width="1"/>
      <polyline fill="none" points="909.0,375.0 909.0,365.0 952.0,365.0 952.0,362.0 914.0,362.0" stroke="#000000" stroke-width="1"/>
      <line stroke="#000000" stroke-width="1" x1="950.0" x2="950.0" y1="330.0" y2="362.0"/>
      <line stroke="#000000" stroke-width="1" x1="946.0" x2="946.0" y1="330.0" y2="362.0"/>
      <line stroke="#000000" stroke-width="1" x1="942.0" x2="942.0" y1="330.0" y2="362.0"/>
      <line stroke="#000000" stroke-width="1" x1="938.0" x2="938.0" y1="330.0" y2="362.0"/>
      <line stroke="#000000" stroke-width="1" x1="934.0" x2="934.0" y1="330.0" y2="362.0"/>
      <line stroke="#000000" stroke-width="1" x1="930.0" x2="930.0" y1="330.0" y2="362.0"/>
      <line stroke="#000000" stroke-width="1" x1="926.0" x2="926.0" y1="330.0" y2="362.0"/>
      <line stroke="#000000" stroke-width="1" x1="922.0" x2="922.0" y1="330.0" y2="362.0"/>
      <line stroke="#000000" stroke-width="1" x1="918.0" x2="918.0" y1="330.0" y2="362.0"/>
      <polyline fill="none" points="909.0,295.0 909.0,306.0 952.0,306.0 952.0,310.0" stroke="#000000" stroke-width="1"/>
      <line stroke="#7f7f7f" stroke-width="1" x1="945.0" x2="945.0" y1="328.0" y2="312.0"/>
      <line stroke="#7f7f7f" stroke-width="1" x1="941.0" x2="941.0" y1="328.0" y2="312.0"/>
      <line stroke="#7f7f7f" stroke-width="1" x1="937.0" x2="937.0" y1="328.0" y2="312.0"/>
      <line stroke="#7f7f7f" stroke-width="1" x1="933.0" x2="933.0" y1="328.0" y2="312.0"/>
      <line stroke="#7f7f7f" stroke-width="1" x1="929.0" x2="929.0" y1="328.0" y2="312.0"/>
      <line stroke="#7f7f7f" stroke-width="1" x1="925.0" x2="925.0" y1="328.0" y2="312.0"/>
      <line stroke="#7f7f7f" stroke-width="1" x1="921.0" x2="921.0" y1="328.0" y2="312.0"/>
      <polygon fill="#9b5509" points="952.0,312.0 914.0,312.0 914.0,310.0 952.0,310.0" stroke="#000000" stroke-width="1"/>
      <polygon fill="#9b5509" points="952.0,318.0 952.0,322.0 914.0,322.0 914.0,318.0" stroke="#000000" stroke-width="1"/>
      <polygon fill="#9b5509" points="952.0,328.0 914.0,328.0 914.0,330.0 952.0,330.0" stroke="#000000" stroke-width="1"/>
    </g>
    <g fill="#9b5509" fill-opacity="0.75" stroke="#000000" stroke-opacity="0.75" transform="rotate(-30.0,855.0,610.0)">
      <polygon fill="#ffffff" points="908.0,265.0 1360.0,265.0 1360.0,296.0 1227.0,296.0 1206.0,288.0 1181.0,281.0 1156.0,277.0 1132.0,276.0 1108.0,277.0 1083.0,281.0 1058.0,288.0 1037.0,296.0 908.0,296.0" stroke="#ffffff" stroke-width="1"/>
      <polygon fill="#ffffff" points="1346.0,296.0 1360.0,296.0 1360.0,374.0 1346.0,374.0" stroke="#ffffff" stroke-width="1"/>
      <polygon fill="#ffffff" points="936.0,307.0 936.0,364.0 908.0,364.0 908.0,374.0 936.0,374.0 936.0,366.0 953.0,366.0 953.0,296.0 908.0,296.0 908.0,307.0" stroke="#ffffff" stroke-width="1"/>
      <polygon fill="#ffffff" points="1329.0,374.0 1360.0,374.0 1360.0,406.0 908.0,406.0 908.0,374.0 936.0,374.0 936.0,385.0 1329.0,385.0" stroke="#ffffff" stroke-width="1"/>
    </g>
    <g fill="#ffffff" fill-opacity="1.0" stroke="#ffffff" stroke-opacity="1.0" transform="rotate(-30.0,855.0,610.0)">
      <polyline fill="none" points="1360.0,309.0 1360.0,361.0" stroke="#000000" stroke-width="1"/>
      <polyline fill="none" points="936.0,265.0 1359.0,265.0" stroke="#000000" stroke-width="1"/>
      <polyline fill="none" points="936.0,265.0 936.0,362.0" stroke="#000000" stroke-width="1"/>
      <text fill="#2c7cac" font-family="Arial" font-size="20.0" stroke="none" stroke-width="0" x="909.0" y="261.0">&lt;&lt; Международная</text>
      <text fill="#2c7cac" font-family="Arial" font-size="20.0" stroke="none" stroke-width="0" x="1215.0" y="425.0">Киевская &gt;&gt;</text>
      <text fill="#2c7cac" font-family="Arial" font-size="25.0" stroke="none" stroke-width="0" x="1055.0" y="338.0">Выставочная</text>
      <polyline fill="none" points="1329.0,776.0 1329.0,405.0 936.0,405.0 936.0,587.0" stroke="#000000" stroke-width="1"/>
    </g>
    <g fill="none" fill-opacity="0.75" stroke="#000000" stroke-opacity="0.75" transform="rotate(-30.0,855.0,610.0)">
      <polygon fill="#ffffff" points="1327.0,557.0 1369.0,557.0 1369.0,650.0 1327.0,650.0" stroke="#ffffff" stroke-width="1"/>
    </g>
    <g fill="#ffffff" fill-opacity="1.0" stroke="#ffffff" stroke-opacity="1.0" transform="rotate(-30.0,855.0,610.0)">
      <polyline fill="none" points="936.0,361.0 936.0,385.0 1329.0,385.0 1329.0,361.0" stroke="#000000" stroke-width="1"/>
      <path d="M936.0,361.0 C936.0,361.0 903.3333333333334,375.1666666666667 936.0,361.0 C968.6666666666666,346.8333333333333 1066.5,276.0 1132.0,276.0 C1197.5,276.0 1329.0,361.0 1329.0,361.0 " fill="none" stroke="#000000" stroke-width="1"/>
      <polyline fill="none" points="1329.0,405.0 1329.0,265.0" stroke="#000000" stroke-width="0.5"/>
      <polyline fill="none" points="851.0,552.0 851.0,650.0" stroke="#000000" stroke-width="1"/>
      <polyline fill="none" points="936.0,617.0 936.0,800.0 662.0,800.0 662.0,803.0" stroke="#000000" stroke-width="1"/>
      <polyline fill="none" points="663.0,401.0 663.0,403.0 852.0,402.0 852.0,308.0 936.0,308.0" stroke="#000000" stroke-width="1"/>
      <polyline fill="none" points="1448.0,557.0 1121.0,557.0 1121.0,573.0 1064.0,573.0 1064.0,587.0" stroke="#000000" stroke-width="1"/>
      <polyline fill="none" points="1064.0,617.0 1064.0,634.0 1121.0,634.0 1121.0,650.0 1448.0,650.0" stroke="#000000" stroke-width="1"/>
      <line stroke="#000000" stroke-width="1" x1="1438.0" x2="1438.0" y1="650.0" y2="611.0"/>
      <line stroke="#000000" stroke-width="1" x1="1442.0" x2="1442.0" y1="650.0" y2="611.0"/>
      <line stroke="#000000" stroke-width="1" x1="1446.0" x2="1446.0" y1="650.0" y2="611.0"/>
      <line stroke="#000000" stroke-width="1" x1="1438.0" x2="1438.0" y1="600.0" y2="557.0"/>
      <line stroke="#000000" stroke-width="1" x1="1442.0" x2="1442.0" y1="600.0" y2="557.0"/>
      <line stroke="#000000" stroke-width="1" x1="1446.0" x2="1446.0" y1="600.0" y2="557.0"/>
      <line stroke="#000000" stroke-width="1" x1="1384.0" x2="1384.0" y1="585.0" y2="557.0"/>
      <line stroke="#000000" stroke-width="1" x1="1388.0" x2="1388.0" y1="585.0" y2="557.0"/>
      <line stroke="#000000" stroke-width="1" x1="1392.0" x2="1392.0" y1="585.0" y2="557.0"/>
      <line stroke="#000000" stroke-width="1" x1="1396.0" x2="1396.0" y1="585.0" y2="557.0"/>
      <line stroke="#000000" stroke-width="1" x1="1400.0" x2="1400.0" y1="585.0" y2="557.0"/>
      <line stroke="#000000" stroke-width="1" x1="1404.0" x2="1404.0" y1="585.0" y2="557.0"/>
      <line stroke="#000000" stroke-width="1" x1="1408.0" x2="1408.0" y1="585.0" y2="557.0"/>
      <line stroke="#000000" stroke-width="1" x1="1412.0" x2="1412.0" y1="585.0" y2="557.0"/>
      <line stroke="#000000" stroke-width="1" x1="1416.0" x2="1416.0" y1="585.0" y2="557.0"/>
      <line stroke="#000000" stroke-width="1" x1="1384.0" x2="1384.0" y1="624.0" y2="650.0"/>
      <line stroke="#000000" stroke-width="1" x1="1388.0" x2="1388.0" y1="624.0" y2="650.0"/>
      <line stroke="#000000" stroke-width="1" x1="1392.0" x2="1392.0" y1="624.0" y2="650.0"/>
      <line stroke="#000000" stroke-width="1" x1="1396.0" x2="1396.0" y1="624.0" y2="650.0"/>
      <line stroke="#000000" stroke-width="1" x1="1400.0" x2="1400.0" y1="624.0" y2="650.0"/>
      <line stroke="#000000" stroke-width="1" x1="1404.0" x2="1404.0" y1="624.0" y2="650.0"/>
      <line stroke="#000000" stroke-width="1" x1="1408.0" x2="1408.0" y1="624.0" y2="650.0"/>
      <line stroke="#000000" stroke-width="1" x1="1412.0" x2="1412.0" y1="624.0" y2="650.0"/>
      <line stroke="#000000" stroke-width="1" x1="1416.0" x2="1416.0" y1="624.0" y2="650.0"/>
      <polygon fill="#d0d0d0" points="1154.0,585.0 1277.0,585.0 1277.0,624.0 1154.0,624.0" stroke="#000000" stroke-width="1"/>
      <polygon fill="#d0d0d0" points="1309.0,585.0 1422.0,585.0 1422.0,624.0 1309.0,624.0" stroke="#000000" stroke-width="1"/>
      <polygon fill="#d0d0d0" points="1436.0,600.0 1448.0,600.0 1448.0,611.0 1436.0,611.0" stroke="#000000" stroke-width="1"/>
      <line stroke="#7f7f7f" stroke-width="1" x1="1074.0" x2="1074.0" y1="615.0" y2="589.0"/>
      <line stroke="#7f7f7f" stroke-width="1" x1="1070.0" x2="1070.0" y1="615.0" y2="589.0"/>
      <line stroke="#7f7f7f" stroke-width="1" x1="1066.0" x2="1066.0" y1="615.0" y2="589.0"/>
      <line stroke="#7f7f7f" stroke-width="1" x1="1062.0" x2="1062.0" y1="615.0" y2="589.0"/>
      <line stroke="#7f7f7f" stroke-width="1" x1="1058.0" x2="1058.0" y1="615.0" y2="589.0"/>
      <line stroke="#7f7f7f" stroke-width="1" x1="1054.0" x2="1054.0" y1="615.0" y2="589.0"/>
      <line stroke="#7f7f7f" stroke-width="1" x1="1050.0" x2="1050.0" y1="615.0" y2="589.0"/>
      <line stroke="#7f7f7f" stroke-width="1" x1="1046.0" x2="1046.0" y1="615.0" y2="589.0"/>
      <line stroke="#7f7f7f" stroke-width="1" x1="1042.0" x2="1042.0" y1="615.0" y2="589.0"/>
      <line stroke="#7f7f7f" stroke-width="1" x1="1038.0" x2="1038.0" y1="615.0" y2="589.0"/>
      <line stroke="#7f7f7f" stroke-width="1" x1="1034.0" x2="1034.0" y1="615.0" y2="589.0"/>
      <line stroke="#7f7f7f" stroke-width="1" x1="1030.0" x2="1030.0" y1="615.0" y2="589.0"/>
      <line stroke="#7f7f7f" stroke-width="1" x1="1026.0" x2="1026.0" y1="615.0" y2="589.0"/>
      <line stroke="#7f7f7f" stroke-width="1" x1="1022.0" x2="1022.0" y1="615.0" y2="589.0"/>
      <line stroke="#7f7f7f" stroke-width="1" x1="1018.0" x2="1018.0" y1="615.0" y2="589.0"/>
      <line stroke="#7f7f7f" stroke-width="1" x1="1014.0" x2="1014.0" y1="615.0" y2="589.0"/>
      <line stroke="#7f7f7f" stroke-width="1" x1="1010.0" x2="1010.0" y1="615.0" y2="589.0"/>
      <line stroke="#7f7f7f" stroke-width="1" x1="1006.0" x2="1006.0" y1="615.0" y2="589.0"/>
      <line stroke="#7f7f7f" stroke-width="1" x1="1002.0" x2="1002.0" y1="615.0" y2="589.0"/>
      <line stroke="#7f7f7f" stroke-width="1" x1="998.0" x2="998.0" y1="615.0" y2="589.0"/>
      <line stroke="#7f7f7f" stroke-width="1" x1="994.0" x2="994.0" y1="615.0" y2="589.0"/>
      <line stroke="#7f7f7f" stroke-width="1" x1="990.0" x2="990.0" y1="615.0" y2="589.0"/>
      <line stroke="#7f7f7f" stroke-width="1" x1="986.0" x2="986.0" y1="615.0" y2="589.0"/>
      <line stroke="#7f7f7f" stroke-width="1" x1="982.0" x2="982.0" y1="615.0" y2="589.0"/>
      <line stroke="#7f7f7f" stroke-width="1" x1="978.0" x2="978.0" y1="615.0" y2="589.0"/>
      <line stroke="#7f7f7f" stroke-width="1" x1="974.0" x2="974.0" y1="615.0" y2="589.0"/>
      <line stroke="#7f7f7f" stroke-width="1" x1="970.0" x2="970.0" y1="615.0" y2="589.0"/>
      <line stroke="#7f7f7f" stroke-width="1" x1="966.0" x2="966.0" y1="615.0" y2="589.0"/>
      <line stroke="#7f7f7f" stroke-width="1" x1="962.0" x2="962.0" y1="615.0" y2="589.0"/>
      <line stroke="#7f7f7f" stroke-width="1" x1="958.0" x2="958.0" y1="615.0" y2="589.0"/>
      <line stroke="#7f7f7f" stroke-width="1" x1="954.0" x2="954.0" y1="615.0" y2="589.0"/>
      <line stroke="#7f7f7f" stroke-width="1" x1="950.0" x2="950.0" y1="615.0" y2="589.0"/>
      <line stroke="#7f7f7f" stroke-width="1" x1="946.0" x2="946.0" y1="615.0" y2="589.0"/>
      <line stroke="#7f7f7f" stroke-width="1" x1="942.0" x2="942.0" y1="615.0" y2="589.0"/>
      <line stroke="#7f7f7f" stroke-width="1" x1="938.0" x2="938.0" y1="615.0" y2="589.0"/>
      <line stroke="#7f7f7f" stroke-width="1" x1="934.0" x2="934.0" y1="615.0" y2="589.0"/>
      <polygon fill="#9b5509" points="1081.0,589.0 928.0,589.0 928.0,587.0 1081.0,587.0" stroke="#000000" stroke-width="1"/>
      <polygon fill="#9b5509" points="1081.0,595.0 1081.0,599.0 928.0,599.0 928.0,595.0" stroke="#000000" stroke-width="1"/>
      <polygon fill="#9b5509" points="1081.0,605.0 1081.0,609.0 928.0,609.0 928.0,605.0" stroke="#000000" stroke-width="1"/>
      <polygon fill="#9b5509" points="1081.0,615.0 928.0,615.0 928.0,617.0 1081.0,617.0" stroke="#000000" stroke-width="1"/>
      <polyline fill="none" points="936.0,498.0 944.0,498.0 944.0,524.0 936.0,524.0" stroke="#000000" stroke-width="1"/>
      <text fill="#000000" font-family="Arial" font-size="10.0" stroke="none" stroke-width="0" transform="rotate(90.0,947.0,499.0)" x="947.0" y="509.0">кассы</text>
      <polyline fill="none" points="793.0,403.0 793.0,393.0 754.0,393.0 754.0,403.0" stroke="#000000" stroke-width="1"/>
      <text fill="#000000" font-family="Arial" font-size="10.0" stroke="none" stroke-width="0" x="756.0" y="401.0">полиция</text>
      <polyline fill="none" points="916.0,407.0 916.0,364.0" stroke="#000000" stroke-width="0.5"/>
      <polyline fill="none" points="851.0,737.0 851.0,798.0" stroke="#000000" stroke-width="0.5"/>
      <polygon fill="none" points="854.0,481.0 854.0,488.0 847.0,488.0 847.0,481.0" stroke="#000000" stroke-width="1"/>
      <polygon fill="none" points="885.0,437.0 890.0,442.0 885.0,447.0 880.0,442.0" stroke="#000000" stroke-width="1"/>
      <line stroke="#009900" stroke-width="1" x1="883.0" x2="880.0" y1="448.0" y2="445.0"/>
      <line stroke="#009900" stroke-width="1" x1="880.2216219452017" x2="877.2216219452017" y1="450.8776058424696" y2="447.8776058424696"/>
      <line stroke="#009900" stroke-width="1" x1="877.4432438904034" x2="874.4432438904034" y1="453.75521168493924" y2="450.75521168493924"/>
      <line stroke="#009900" stroke-width="1" x1="874.6648658356052" x2="871.6648658356052" y1="456.63281752740886" y2="453.63281752740886"/>
      <line stroke="#009900" stroke-width="1" x1="871.8864877808069" x2="868.8864877808069" y1="459.5104233698785" y2="456.5104233698785"/>
      <line stroke="#009900" stroke-width="1" x1="869.1081097260086" x2="866.1081097260086" y1="462.3880292123481" y2="459.3880292123481"/>
      <line stroke="#009900" stroke-width="1" x1="866.3297316712103" x2="863.3297316712103" y1="465.2656350548177" y2="462.2656350548177"/>
      <line stroke="#009900" stroke-width="1" x1="863.551353616412" x2="860.551353616412" y1="468.14324089728734" y2="465.14324089728734"/>
      <line stroke="#009900" stroke-width="1" x1="860.7729755616137" x2="857.7729755616137" y1="471.02084673975696" y2="468.02084673975696"/>
      <line stroke="#009900" stroke-width="1" x1="857.9945975068155" x2="854.9945975068155" y1="473.8984525822266" y2="470.8984525822266"/>
      <line stroke="#009900" stroke-width="1" x1="855.2162194520172" x2="852.2162194520172" y1="476.7760584246962" y2="473.7760584246962"/>
      <line stroke="#009900" stroke-width="1" x1="849.0" x2="854.0" y1="654.0" y2="654.0"/>
      <line stroke="#009900" stroke-width="1" x1="849.0" x2="854.0" y1="658.0" y2="658.0"/>
      <line stroke="#009900" stroke-width="1" x1="849.0" x2="854.0" y1="662.0" y2="662.0"/>
      <line stroke="#009900" stroke-width="1" x1="849.0" x2="854.0" y1="666.0" y2="666.0"/>
      <line stroke="#009900" stroke-width="1" x1="849.0" x2="854.0" y1="670.0" y2="670.0"/>
      <line stroke="#009900" stroke-width="1" x1="849.0" x2="854.0" y1="674.0" y2="674.0"/>
      <line stroke="#009900" stroke-width="1" x1="849.0" x2="854.0" y1="678.0" y2="678.0"/>
      <line stroke="#009900" stroke-width="1" x1="849.0" x2="854.0" y1="682.0" y2="682.0"/>
      <line stroke="#009900" stroke-width="1" x1="849.0" x2="854.0" y1="686.0" y2="686.0"/>
      <line stroke="#009900" stroke-width="1" x1="849.0" x2="854.0" y1="690.0" y2="690.0"/>
      <line stroke="#009900" stroke-width="1" x1="849.0" x2="854.0" y1="694.0" y2="694.0"/>
      <line stroke="#009900" stroke-width="1" x1="849.0" x2="854.0" y1="698.0" y2="698.0"/>
      <line stroke="#ff0000" stroke-width="1" x1="918.0" x2="915.0" y1="412.0" y2="409.0"/>
      <line stroke="#ff0000" stroke-width="1" x1="915.2216219452017" x2="912.2216219452017" y1="414.8776058424696" y2="411.8776058424696"/>
      <line stroke="#ff0000" stroke-width="1" x1="912.4432438904034" x2="909.4432438904034" y1="417.75521168493924" y2="414.75521168493924"/>
      <line stroke="#ff0000" stroke-width="1" x1="909.6648658356052" x2="906.6648658356052" y1="420.63281752740886" y2="417.63281752740886"/>
      <line stroke="#ff0000" stroke-width="1" x1="906.8864877808069" x2="903.8864877808069" y1="423.5104233698785" y2="420.5104233698785"/>
      <line stroke="#ff0000" stroke-width="1" x1="904.1081097260086" x2="901.1081097260086" y1="426.3880292123481" y2="423.3880292123481"/>
      <line stroke="#ff0000" stroke-width="1" x1="901.3297316712103" x2="898.3297316712103" y1="429.2656350548177" y2="426.2656350548177"/>
      <line stroke="#ff0000" stroke-width="1" x1="898.551353616412" x2="895.551353616412" y1="432.14324089728734" y2="429.14324089728734"/>
      <line stroke="#ff0000" stroke-width="1" x1="895.7729755616137" x2="892.7729755616137" y1="435.02084673975696" y2="432.02084673975696"/>
      <line stroke="#ff0000" stroke-width="1" x1="892.9945975068155" x2="889.9945975068155" y1="437.8984525822266" y2="434.8984525822266"/>
      <line stroke="#ff0000" stroke-width="1" x1="890.2162194520172" x2="887.2162194520172" y1="440.7760584246962" y2="437.7760584246962"/>
      <line stroke="#ff0000" stroke-width="1" x1="854.0" x2="849.0" y1="493.0" y2="493.0"/>
      <line stroke="#ff0000" stroke-width="1" x1="854.0" x2="849.0" y1="497.0" y2="497.0"/>
      <line stroke="#ff0000" stroke-width="1" x1="854.0" x2="849.0" y1="501.0" y2="501.0"/>
      <line stroke="#ff0000" stroke-width="1" x1="854.0" x2="849.0" y1="505.0" y2="505.0"/>
      <line stroke="#ff0000" stroke-width="1" x1="854.0" x2="849.0" y1="509.0" y2="509.0"/>
      <line stroke="#ff0000" stroke-width="1" x1="854.0" x2="849.0" y1="513.0" y2="513.0"/>
      <line stroke="#ff0000" stroke-width="1" x1="854.0" x2="849.0" y1="517.0" y2="517.0"/>
      <line stroke="#ff0000" stroke-width="1" x1="854.0" x2="849.0" y1="521.0" y2="521.0"/>
      <line stroke="#ff0000" stroke-width="1" x1="854.0" x2="849.0" y1="525.0" y2="525.0"/>
      <line stroke="#ff0000" stroke-width="1" x1="854.0" x2="849.0" y1="529.0" y2="529.0"/>
      <line stroke="#ff0000" stroke-width="1" x1="854.0" x2="849.0" y1="533.0" y2="533.0"/>
      <line stroke="#ff0000" stroke-width="1" x1="854.0" x2="849.0" y1="537.0" y2="537.0"/>
      <line stroke="#ff0000" stroke-width="1" x1="854.0" x2="849.0" y1="541.0" y2="541.0"/>
      <line stroke="#ff0000" stroke-width="1" x1="854.0" x2="849.0" y1="545.0" y2="545.0"/>
      <line stroke="#ff0000" stroke-width="1" x1="854.0" x2="849.0" y1="549.0" y2="549.0"/>
      <line stroke="#ff0000" stroke-width="1" x1="849.0" x2="854.0" y1="702.0" y2="702.0"/>
      <line stroke="#ff0000" stroke-width="1" x1="849.0" x2="854.0" y1="706.0" y2="706.0"/>
      <line stroke="#ff0000" stroke-width="1" x1="849.0" x2="854.0" y1="710.0" y2="710.0"/>
      <line stroke="#ff0000" stroke-width="1" x1="849.0" x2="854.0" y1="714.0" y2="714.0"/>
      <line stroke="#ff0000" stroke-width="1" x1="849.0" x2="854.0" y1="718.0" y2="718.0"/>
      <line stroke="#ff0000" stroke-width="1" x1="849.0" x2="854.0" y1="722.0" y2="722.0"/>
      <line stroke="#ff0000" stroke-width="1" x1="849.0" x2="854.0" y1="726.0" y2="726.0"/>
      <line stroke="#ff0000" stroke-width="1" x1="849.0" x2="854.0" y1="730.0" y2="730.0"/>
      <line stroke="#ff0000" stroke-width="1" x1="849.0" x2="854.0" y1="734.0" y2="734.0"/>
      <polyline fill="none" marker-end="url(#id336)" points="1407.0,637.0 1424.0,637.0" stroke="#ff0000" stroke-width="1"/>
      <polyline fill="none" marker-end="url(#id336)" points="1091.0,618.0 1108.0,618.0" stroke="#ff0000" stroke-width="1"/>
      <polyline fill="none" marker-end="url(#id336)" points="871.0,512.0 885.0,512.0" stroke="#ff0000" stroke-width="1"/>
      <polyline fill="none" marker-end="url(#id336)" points="898.0,320.0 886.0,320.0 886.0,341.0" stroke="#ff0000" stroke-width="1"/>
      <polyline fill="none" marker-end="url(#id336)" points="910.0,435.0 919.0,445.0" stroke="#ff0000" stroke-width="1"/>
      <polyline fill="none" marker-end="url(#id336)" points="1108.0,589.0 1091.0,589.0" stroke="#009900" stroke-width="1"/>
      <polyline fill="none" marker-end="url(#id336)" points="1424.0,571.0 1407.0,571.0" stroke="#009900" stroke-width="1"/>
      <polyline fill="none" marker-end="url(#id336)" points="908.0,347.0 933.0,347.0" stroke="#009900" stroke-width="1"/>
      <polyline fill="none" marker-end="url(#id336)" points="889.0,474.0 880.0,465.0" stroke="#009900" stroke-width="1"/>
      <polygon fill="#fccc04" points="343.0,443.0 343.0,473.0 793.0,473.0 793.0,443.0" stroke="#000000" stroke-width="1"/>
      <polygon fill="#fccc04" points="343.0,553.0 343.0,583.0 793.0,583.0 793.0,553.0" stroke="#000000" stroke-width="1"/>
      <polyline fill="none" points="364.0,473.0 364.0,499.0" stroke="#000000" stroke-width="1"/>
      <polyline fill="none" points="364.0,528.0 364.0,553.0" stroke="#000000" stroke-width="1"/>
      <polyline fill="none" points="622.0,401.0 663.0,401.0" stroke="#707070" stroke-width="1"/>
    </g>
    <g fill="#fccc04" fill-opacity="0.8" stroke="#707070" stroke-opacity="0.8" transform="rotate(-30.0,855.0,610.0)">
      <polygon fill="#ffffff" points="342.0,451.0 342.0,442.0 794.0,442.0 794.0,451.0" stroke="#ffffff" stroke-width="1"/>
      <polygon fill="#ffffff" points="794.0,575.0 794.0,584.0 342.0,584.0 342.0,575.0" stroke="#ffffff" stroke-width="1"/>
      <polygon fill="#ffffff" points="471.0,473.0 470.0,464.0 466.0,457.0 459.0,452.0 449.0,451.0 534.0,451.0 524.0,452.0 517.0,457.0 513.0,464.0 512.0,473.0 512.0,553.0 513.0,563.0 517.0,569.0 524.0,574.0 534.0,575.0 449.0,575.0 459.0,574.0 466.0,569.0 470.0,563.0 471.0,553.0" stroke="#ffffff" stroke-width="1"/>
      <polygon fill="#ffffff" points="622.0,473.0 621.0,464.0 617.0,457.0 609.0,452.0 600.0,451.0 685.0,451.0 675.0,452.0 668.0,457.0 664.0,464.0 663.0,473.0 663.0,553.0 664.0,563.0 668.0,569.0 675.0,574.0 685.0,575.0 600.0,575.0 609.0,574.0 617.0,569.0 621.0,563.0 622.0,553.0" stroke="#ffffff" stroke-width="1"/>
      <polygon fill="#ffffff" points="726.0,451.0 794.0,451.0 794.0,473.0 773.0,473.0 764.0,463.0 753.0,456.0 740.0,451.0" stroke="#ffffff" stroke-width="1"/>
      <polygon fill="#ffffff" points="726.0,575.0 794.0,575.0 794.0,553.0 773.0,553.0 764.0,562.0 753.0,569.0 740.0,574.0" stroke="#ffffff" stroke-width="1"/>
      <polygon fill="#ffffff" points="411.0,451.0 342.0,451.0 342.0,473.0 364.0,473.0 372.0,464.0 384.0,457.0 397.0,452.0" stroke="#ffffff" stroke-width="1"/>
      <polygon fill="#ffffff" points="411.0,575.0 342.0,575.0 342.0,553.0 364.0,553.0 372.0,562.0 384.0,569.0 401.0,575.0" stroke="#ffffff" stroke-width="1"/>
    </g>
    <g fill="#ffffff" fill-opacity="1.0" stroke="#ffffff" stroke-opacity="1.0" transform="rotate(-30.0,855.0,610.0)">
      <text fill="#000000" font-family="Arial" font-size="20.0" stroke="none" stroke-width="0" x="346.0" y="442.0">&lt;&lt; Парк Победы</text>
      <text fill="#000000" font-family="Arial" font-size="20.0" stroke="none" stroke-width="0" x="717.0" y="599.0">тупик &gt;&gt;</text>
      <text fill="#000000" font-family="Arial" font-size="25.0" stroke="none" stroke-width="0" x="481.0" y="387.0">Деловой центр</text>
      <text fill="#fccc04" font-family="Arial" font-size="20.0" stroke="none" stroke-width="0" x="345.0" y="441.0">&lt;&lt; Парк Победы</text>
      <text fill="#fccc04" font-family="Arial" font-size="20.0" stroke="none" stroke-width="0" x="716.0" y="598.0">тупик &gt;&gt;</text>
      <text fill="#fccc04" font-family="Arial" font-size="25.0" stroke="none" stroke-width="0" x="480.0" y="386.0">Деловой центр</text>
      <polyline fill="none" points="622.0,528.0 622.0,553.0" stroke="#000000" stroke-width="1"/>
      <polyline fill="none" points="600.0,575.0 534.0,575.0" stroke="#000000" stroke-width="1"/>
      <polyline fill="none" points="512.0,553.0 512.0,473.0" stroke="#000000" stroke-width="1"/>
      <polyline fill="none" points="534.0,451.0 600.0,451.0" stroke="#000000" stroke-width="1"/>
      <polyline fill="none" points="622.0,473.0 622.0,499.0" stroke="#000000" stroke-width="1"/>
      <polyline fill="none" points="411.0,451.0 449.0,451.0" stroke="#000000" stroke-width="1"/>
      <polyline fill="none" points="471.0,473.0 471.0,553.0" stroke="#000000" stroke-width="1"/>
      <polyline fill="none" points="449.0,575.0 411.0,575.0" stroke="#000000" stroke-width="1"/>
      <path d="M622.0,473.0 C622.0,473.0 623.0,475.6666666666667 622.0,473.0 C621.0,470.3333333333333 619.6666666666666,460.6666666666667 616.0,457.0 C612.3333333333334,453.3333333333333 600.0,451.0 600.0,451.0 " fill="none" stroke="#000000" stroke-width="1"/>
      <path d="M534.0,451.0 C534.0,451.0 536.6666666666666,450.0 534.0,451.0 C531.3333333333334,452.0 521.6666666666666,453.3333333333333 518.0,457.0 C514.3333333333334,460.6666666666667 512.0,473.0 512.0,473.0 " fill="none" stroke="#000000" stroke-width="1"/>
      <path d="M449.0,451.0 C449.0,451.0 446.3333333333333,450.0 449.0,451.0 C451.6666666666667,452.0 461.3333333333333,453.3333333333333 465.0,457.0 C468.6666666666667,460.6666666666667 471.0,473.0 471.0,473.0 " fill="none" stroke="#000000" stroke-width="1"/>
      <path d="M449.0,575.0 C449.0,575.0 446.3333333333333,576.0 449.0,575.0 C451.6666666666667,574.0 461.3333333333333,572.6666666666666 465.0,569.0 C468.6666666666667,565.3333333333334 471.0,553.0 471.0,553.0 " fill="none" stroke="#000000" stroke-width="1"/>
      <path d="M534.0,575.0 C534.0,575.0 536.6666666666666,576.0 534.0,575.0 C531.3333333333334,574.0 521.6666666666666,572.6666666666666 518.0,569.0 C514.3333333333334,565.3333333333334 512.0,553.0 512.0,553.0 " fill="none" stroke="#000000" stroke-width="1"/>
      <path d="M622.0,553.0 C622.0,553.0 623.0,550.3333333333334 622.0,553.0 C621.0,555.6666666666666 619.6666666666666,565.3333333333334 616.0,569.0 C612.3333333333334,572.6666666666666 600.0,575.0 600.0,575.0 " fill="none" stroke="#000000" stroke-width="1"/>
      <path d="M411.0,451.0 C411.0,451.0 415.3333333333333,450.0 411.0,451.0 C406.6666666666667,452.0 392.8333333333333,453.3333333333333 385.0,457.0 C377.1666666666667,460.6666666666667 364.0,473.0 364.0,473.0 " fill="none" stroke="#000000" stroke-width="1"/>
      <path d="M411.0,575.0 C411.0,575.0 415.3333333333333,576.0 411.0,575.0 C406.6666666666667,574.0 392.8333333333333,572.6666666666666 385.0,569.0 C377.1666666666667,565.3333333333334 364.0,553.0 364.0,553.0 " fill="none" stroke="#000000" stroke-width="1"/>
      <polyline fill="none" points="663.0,499.0 663.0,473.0" stroke="#000000" stroke-width="1"/>
      <polyline fill="none" points="685.0,451.0 726.0,451.0" stroke="#000000" stroke-width="1"/>
      <polyline fill="none" points="773.0,473.0 773.0,499.0" stroke="#000000" stroke-width="1"/>
      <polyline fill="none" points="663.0,528.0 663.0,553.0" stroke="#000000" stroke-width="1"/>
      <polyline fill="none" points="685.0,575.0 726.0,575.0" stroke="#000000" stroke-width="1"/>
      <polyline fill="none" points="773.0,553.0 773.0,528.0" stroke="#000000" stroke-width="1"/>
      <path d="M685.0,451.0 C685.0,451.0 687.6666666666666,450.0 685.0,451.0 C682.3333333333334,452.0 672.6666666666666,453.3333333333333 669.0,457.0 C665.3333333333334,460.6666666666667 663.0,473.0 663.0,473.0 " fill="none" stroke="#000000" stroke-width="1"/>
      <path d="M685.0,575.0 C685.0,575.0 687.6666666666666,576.0 685.0,575.0 C682.3333333333334,574.0 672.6666666666666,572.6666666666666 669.0,569.0 C665.3333333333334,565.3333333333334 663.0,553.0 663.0,553.0 " fill="none" stroke="#000000" stroke-width="1"/>
      <path d="M773.0,473.0 C773.0,473.0 776.5,475.8333333333333 773.0,473.0 C769.5,470.1666666666667 759.8333333333334,459.6666666666667 752.0,456.0 C744.1666666666666,452.3333333333333 726.0,451.0 726.0,451.0 " fill="none" stroke="#000000" stroke-width="1"/>
      <path d="M726.0,575.0 C726.0,575.0 721.6666666666666,576.0 726.0,575.0 C730.3333333333334,574.0 744.1666666666666,572.6666666666666 752.0,569.0 C759.8333333333334,565.3333333333334 773.0,553.0 773.0,553.0 " fill="none" stroke="#000000" stroke-width="1"/>
      <line stroke="#7f7f7f" stroke-width="1" x1="783.0" x2="783.0" y1="525.0" y2="502.0"/>
      <line stroke="#7f7f7f" stroke-width="1" x1="779.0" x2="779.0" y1="525.0" y2="502.0"/>
      <line stroke="#7f7f7f" stroke-width="1" x1="775.0" x2="775.0" y1="525.0" y2="502.0"/>
      <line stroke="#7f7f7f" stroke-width="1" x1="771.0" x2="771.0" y1="525.0" y2="502.0"/>
      <line stroke="#7f7f7f" stroke-width="1" x1="767.0" x2="767.0" y1="525.0" y2="502.0"/>
      <line stroke="#7f7f7f" stroke-width="1" x1="763.0" x2="763.0" y1="525.0" y2="502.0"/>
      <line stroke="#7f7f7f" stroke-width="1" x1="759.0" x2="759.0" y1="525.0" y2="502.0"/>
      <line stroke="#7f7f7f" stroke-width="1" x1="755.0" x2="755.0" y1="525.0" y2="502.0"/>
      <line stroke="#7f7f7f" stroke-width="1" x1="751.0" x2="751.0" y1="525.0" y2="502.0"/>
      <polygon fill="#9b5509" points="790.0,502.0 745.0,502.0 745.0,499.0 790.0,499.0" stroke="#000000" stroke-width="1"/>
      <polygon fill="#9b5509" points="790.0,507.0 790.0,511.0 745.0,511.0 745.0,507.0" stroke="#000000" stroke-width="1"/>
      <polygon fill="#9b5509" points="790.0,516.0 790.0,520.0 745.0,520.0 745.0,516.0" stroke="#000000" stroke-width="1"/>
      <polygon fill="#9b5509" points="790.0,525.0 745.0,525.0 745.0,528.0 790.0,528.0" stroke="#000000" stroke-width="1"/>
      <line stroke="#7f7f7f" stroke-width="1" x1="693.0" x2="693.0" y1="525.0" y2="502.0"/>
      <line stroke="#7f7f7f" stroke-width="1" x1="689.0" x2="689.0" y1="525.0" y2="502.0"/>
      <line stroke="#7f7f7f" stroke-width="1" x1="685.0" x2="685.0" y1="525.0" y2="502.0"/>
      <line stroke="#7f7f7f" stroke-width="1" x1="681.0" x2="681.0" y1="525.0" y2="502.0"/>
      <line stroke="#7f7f7f" stroke-width="1" x1="677.0" x2="677.0" y1="525.0" y2="502.0"/>
      <line stroke="#7f7f7f" stroke-width="1" x1="673.0" x2="673.0" y1="525.0" y2="502.0"/>
      <line stroke="#7f7f7f" stroke-width="1" x1="669.0" x2="669.0" y1="525.0" y2="502.0"/>
      <line stroke="#7f7f7f" stroke-width="1" x1="665.0" x2="665.0" y1="525.0" y2="502.0"/>
      <line stroke="#7f7f7f" stroke-width="1" x1="661.0" x2="661.0" y1="525.0" y2="502.0"/>
      <polygon fill="#9b5509" points="700.0,502.0 655.0,502.0 655.0,499.0 700.0,499.0" stroke="#000000" stroke-width="1"/>
      <polygon fill="#9b5509" points="700.0,507.0 700.0,511.0 655.0,511.0 655.0,507.0" stroke="#000000" stroke-width="1"/>
      <polygon fill="#9b5509" points="700.0,516.0 700.0,520.0 655.0,520.0 655.0,516.0" stroke="#000000" stroke-width="1"/>
      <polygon fill="#9b5509" points="700.0,525.0 655.0,525.0 655.0,528.0 700.0,528.0" stroke="#000000" stroke-width="1"/>
      <line stroke="#7f7f7f" stroke-width="1" x1="624.0" x2="624.0" y1="525.0" y2="502.0"/>
      <line stroke="#7f7f7f" stroke-width="1" x1="620.0" x2="620.0" y1="525.0" y2="502.0"/>
      <line stroke="#7f7f7f" stroke-width="1" x1="616.0" x2="616.0" y1="525.0" y2="502.0"/>
      <line stroke="#7f7f7f" stroke-width="1" x1="612.0" x2="612.0" y1="525.0" y2="502.0"/>
      <line stroke="#7f7f7f" stroke-width="1" x1="608.0" x2="608.0" y1="525.0" y2="502.0"/>
      <line stroke="#7f7f7f" stroke-width="1" x1="604.0" x2="604.0" y1="525.0" y2="502.0"/>
      <line stroke="#7f7f7f" stroke-width="1" x1="600.0" x2="600.0" y1="525.0" y2="502.0"/>
      <line stroke="#7f7f7f" stroke-width="1" x1="596.0" x2="596.0" y1="525.0" y2="502.0"/>
      <line stroke="#7f7f7f" stroke-width="1" x1="592.0" x2="592.0" y1="525.0" y2="502.0"/>
      <polygon fill="#9b5509" points="631.0,502.0 586.0,502.0 586.0,499.0 631.0,499.0" stroke="#000000" stroke-width="1"/>
      <polygon fill="#9b5509" points="631.0,507.0 631.0,511.0 586.0,511.0 586.0,507.0" stroke="#000000" stroke-width="1"/>
      <polygon fill="#9b5509" points="631.0,516.0 631.0,520.0 586.0,520.0 586.0,516.0" stroke="#000000" stroke-width="1"/>
      <polygon fill="#9b5509" points="631.0,525.0 586.0,525.0 586.0,528.0 631.0,528.0" stroke="#000000" stroke-width="1"/>
      <line stroke="#7f7f7f" stroke-width="1" x1="386.0" x2="386.0" y1="525.0" y2="502.0"/>
      <line stroke="#7f7f7f" stroke-width="1" x1="382.0" x2="382.0" y1="525.0" y2="502.0"/>
      <line stroke="#7f7f7f" stroke-width="1" x1="378.0" x2="378.0" y1="525.0" y2="502.0"/>
      <line stroke="#7f7f7f" stroke-width="1" x1="374.0" x2="374.0" y1="525.0" y2="502.0"/>
      <line stroke="#7f7f7f" stroke-width="1" x1="370.0" x2="370.0" y1="525.0" y2="502.0"/>
      <line stroke="#7f7f7f" stroke-width="1" x1="366.0" x2="366.0" y1="525.0" y2="502.0"/>
      <line stroke="#7f7f7f" stroke-width="1" x1="362.0" x2="362.0" y1="525.0" y2="502.0"/>
      <line stroke="#7f7f7f" stroke-width="1" x1="358.0" x2="358.0" y1="525.0" y2="502.0"/>
      <line stroke="#7f7f7f" stroke-width="1" x1="354.0" x2="354.0" y1="525.0" y2="502.0"/>
      <polygon fill="#9b5509" points="393.0,502.0 348.0,502.0 348.0,499.0 393.0,499.0" stroke="#000000" stroke-width="1"/>
      <polygon fill="#9b5509" points="393.0,507.0 393.0,511.0 348.0,511.0 348.0,507.0" stroke="#000000" stroke-width="1"/>
      <polygon fill="#9b5509" points="393.0,516.0 393.0,520.0 348.0,520.0 348.0,516.0" stroke="#000000" stroke-width="1"/>
      <polygon fill="#9b5509" points="393.0,525.0 348.0,525.0 348.0,528.0 393.0,528.0" stroke="#000000" stroke-width="1"/>
      <polygon fill="#d0efff" points="481.0,502.0 501.0,502.0 501.0,522.0 481.0,522.0" stroke="#000000" stroke-width="1"/>
      <text fill="#000000" font-family="Arial" font-size="8.0" stroke="none" stroke-width="0" x="483.0" y="515.0">лифт</text>
      <polygon fill="#34349c" points="575.0,513.0 575.0,517.0 574.0,517.0 574.0,513.0" stroke="#34349c" stroke-width="1"/>
      <polygon fill="#ff0000" points="575.0,509.0 575.0,513.0 574.0,513.0 574.0,509.0" stroke="#ff0000" stroke-width="1"/>
      <polygon fill="#30d5c8" points="344.0,621.0 344.0,651.0 794.0,651.0 794.0,621.0" stroke="#000000" stroke-width="1"/>
      <polygon fill="#30d5c8" points="344.0,731.0 344.0,761.0 794.0,761.0 794.0,731.0" stroke="#000000" stroke-width="1"/>
      <polyline fill="none" points="365.0,651.0 365.0,677.0" stroke="#000000" stroke-width="1"/>
      <polyline fill="none" points="365.0,706.0 365.0,731.0" stroke="#000000" stroke-width="1"/>
      <polyline fill="none" points="621.0,803.0 662.0,803.0" stroke="#707070" stroke-width="1"/>
    </g>
    <g fill="#30d5c8" fill-opacity="0.8" stroke="#707070" stroke-opacity="0.8" transform="rotate(-30.0,855.0,610.0)">
      <polygon fill="#ffffff" points="343.0,629.0 343.0,620.0 795.0,620.0 795.0,629.0" stroke="#ffffff" stroke-width="1"/>
      <polygon fill="#ffffff" points="795.0,753.0 795.0,762.0 343.0,762.0 343.0,753.0" stroke="#ffffff" stroke-width="1"/>
      <polygon fill="#ffffff" points="472.0,651.0 471.0,642.0 467.0,635.0 460.0,630.0 450.0,629.0 535.0,629.0 525.0,630.0 518.0,635.0 514.0,642.0 513.0,651.0 513.0,731.0 514.0,741.0 518.0,747.0 525.0,752.0 535.0,753.0 450.0,753.0 460.0,752.0 467.0,747.0 471.0,741.0 472.0,731.0" stroke="#ffffff" stroke-width="1"/>
      <polygon fill="#ffffff" points="623.0,651.0 622.0,642.0 618.0,635.0 610.0,630.0 601.0,629.0 686.0,629.0 676.0,630.0 669.0,635.0 665.0,642.0 664.0,651.0 664.0,731.0 665.0,741.0 669.0,747.0 676.0,752.0 686.0,753.0 601.0,753.0 610.0,752.0 618.0,747.0 622.0,741.0 623.0,731.0" stroke="#ffffff" stroke-width="1"/>
      <polygon fill="#ffffff" points="727.0,629.0 795.0,629.0 795.0,651.0 774.0,651.0 765.0,641.0 754.0,634.0 741.0,629.0" stroke="#ffffff" stroke-width="1"/>
      <polygon fill="#ffffff" points="727.0,753.0 795.0,753.0 795.0,731.0 774.0,731.0 765.0,740.0 754.0,747.0 741.0,752.0" stroke="#ffffff" stroke-width="1"/>
      <polygon fill="#ffffff" points="412.0,629.0 343.0,629.0 343.0,651.0 365.0,651.0 373.0,642.0 385.0,635.0 398.0,630.0" stroke="#ffffff" stroke-width="1"/>
      <polygon fill="#ffffff" points="412.0,753.0 343.0,753.0 343.0,731.0 365.0,731.0 373.0,740.0 385.0,747.0 402.0,753.0" stroke="#ffffff" stroke-width="1"/>
    </g>
    <g fill="#ffffff" fill-opacity="1.0" stroke="#ffffff" stroke-opacity="1.0" transform="rotate(-30.0,855.0,610.0)">
      <text fill="#222222" font-family="Arial" font-size="20.0" stroke="none" stroke-width="0" x="345.0" y="628.0">&lt;&lt; Шелепиха</text>
      <text fill="#222222" font-family="Arial" font-size="20.0" stroke="none" stroke-width="0" x="718.0" y="777.0">тупик &gt;&gt;</text>
      <polyline fill="none" points="623.0,706.0 623.0,731.0" stroke="#000000" stroke-width="1"/>
      <polyline fill="none" points="601.0,753.0 535.0,753.0" stroke="#000000" stroke-width="1"/>
      <polyline fill="none" points="513.0,731.0 513.0,651.0" stroke="#000000" stroke-width="1"/>
      <polyline fill="none" points="535.0,629.0 601.0,629.0" stroke="#000000" stroke-width="1"/>
      <polyline fill="none" points="623.0,651.0 623.0,677.0" stroke="#000000" stroke-width="1"/>
      <polyline fill="none" points="412.0,629.0 450.0,629.0" stroke="#000000" stroke-width="1"/>
      <polyline fill="none" points="472.0,651.0 472.0,731.0" stroke="#000000" stroke-width="1"/>
      <polyline fill="none" points="450.0,753.0 412.0,753.0" stroke="#000000" stroke-width="1"/>
      <path d="M623.0,651.0 C623.0,651.0 624.0,653.6666666666666 623.0,651.0 C622.0,648.3333333333334 620.6666666666666,638.6666666666666 617.0,635.0 C613.3333333333334,631.3333333333334 601.0,629.0 601.0,629.0 " fill="none" stroke="#000000" stroke-width="1"/>
      <path d="M535.0,629.0 C535.0,629.0 537.6666666666666,628.0 535.0,629.0 C532.3333333333334,630.0 522.6666666666666,631.3333333333334 519.0,635.0 C515.3333333333334,638.6666666666666 513.0,651.0 513.0,651.0 " fill="none" stroke="#000000" stroke-width="1"/>
      <path d="M450.0,629.0 C450.0,629.0 447.3333333333333,628.0 450.0,629.0 C452.6666666666667,630.0 462.3333333333333,631.3333333333334 466.0,635.0 C469.6666666666667,638.6666666666666 472.0,651.0 472.0,651.0 " fill="none" stroke="#000000" stroke-width="1"/>
      <path d="M450.0,753.0 C450.0,753.0 447.3333333333333,754.0 450.0,753.0 C452.6666666666667,752.0 462.3333333333333,750.6666666666666 466.0,747.0 C469.6666666666667,743.3333333333334 472.0,731.0 472.0,731.0 " fill="none" stroke="#000000" stroke-width="1"/>
      <path d="M535.0,753.0 C535.0,753.0 537.6666666666666,754.0 535.0,753.0 C532.3333333333334,752.0 522.6666666666666,750.6666666666666 519.0,747.0 C515.3333333333334,743.3333333333334 513.0,731.0 513.0,731.0 " fill="none" stroke="#000000" stroke-width="1"/>
      <path d="M623.0,731.0 C623.0,731.0 624.0,728.3333333333334 623.0,731.0 C622.0,733.6666666666666 620.6666666666666,743.3333333333334 617.0,747.0 C613.3333333333334,750.6666666666666 601.0,753.0 601.0,753.0 " fill="none" stroke="#000000" stroke-width="1"/>
      <path d="M412.0,629.0 C412.0,629.0 416.3333333333333,628.0 412.0,629.0 C407.6666666666667,630.0 393.8333333333333,631.3333333333334 386.0,635.0 C378.1666666666667,638.6666666666666 365.0,651.0 365.0,651.0 " fill="none" stroke="#000000" stroke-width="1"/>
      <path d="M412.0,753.0 C412.0,753.0 416.3333333333333,754.0 412.0,753.0 C407.6666666666667,752.0 393.8333333333333,750.6666666666666 386.0,747.0 C378.1666666666667,743.3333333333334 365.0,731.0 365.0,731.0 " fill="none" stroke="#000000" stroke-width="1"/>
      <polyline fill="none" points="664.0,677.0 664.0,651.0" stroke="#000000" stroke-width="1"/>
      <polyline fill="none" points="686.0,629.0 727.0,629.0" stroke="#000000" stroke-width="1"/>
      <polyline fill="none" points="774.0,651.0 774.0,677.0" stroke="#000000" stroke-width="1"/>
      <polyline fill="none" points="664.0,706.0 664.0,731.0" stroke="#000000" stroke-width="1"/>
      <polyline fill="none" points="686.0,753.0 727.0,753.0" stroke="#000000" stroke-width="1"/>
      <polyline fill="none" points="774.0,731.0 774.0,706.0" stroke="#000000" stroke-width="1"/>
      <path d="M686.0,629.0 C686.0,629.0 688.6666666666666,628.0 686.0,629.0 C683.3333333333334,630.0 673.6666666666666,631.3333333333334 670.0,635.0 C666.3333333333334,638.6666666666666 664.0,651.0 664.0,651.0 " fill="none" stroke="#000000" stroke-width="1"/>
      <path d="M686.0,753.0 C686.0,753.0 688.6666666666666,754.0 686.0,753.0 C683.3333333333334,752.0 673.6666666666666,750.6666666666666 670.0,747.0 C666.3333333333334,743.3333333333334 664.0,731.0 664.0,731.0 " fill="none" stroke="#000000" stroke-width="1"/>
      <path d="M774.0,651.0 C774.0,651.0 777.5,653.8333333333334 774.0,651.0 C770.5,648.1666666666666 760.8333333333334,637.6666666666666 753.0,634.0 C745.1666666666666,630.3333333333334 727.0,629.0 727.0,629.0 " fill="none" stroke="#000000" stroke-width="1"/>
      <path d="M727.0,753.0 C727.0,753.0 722.6666666666666,754.0 727.0,753.0 C731.3333333333334,752.0 745.1666666666666,750.6666666666666 753.0,747.0 C760.8333333333334,743.3333333333334 774.0,731.0 774.0,731.0 " fill="none" stroke="#000000" stroke-width="1"/>
      <line stroke="#7f7f7f" stroke-width="1" x1="784.0" x2="784.0" y1="703.0" y2="680.0"/>
      <line stroke="#7f7f7f" stroke-width="1" x1="780.0" x2="780.0" y1="703.0" y2="680.0"/>
      <line stroke="#7f7f7f" stroke-width="1" x1="776.0" x2="776.0" y1="703.0" y2="680.0"/>
      <line stroke="#7f7f7f" stroke-width="1" x1="772.0" x2="772.0" y1="703.0" y2="680.0"/>
      <line stroke="#7f7f7f" stroke-width="1" x1="768.0" x2="768.0" y1="703.0" y2="680.0"/>
      <line stroke="#7f7f7f" stroke-width="1" x1="764.0" x2="764.0" y1="703.0" y2="680.0"/>
      <line stroke="#7f7f7f" stroke-width="1" x1="760.0" x2="760.0" y1="703.0" y2="680.0"/>
      <line stroke="#7f7f7f" stroke-width="1" x1="756.0" x2="756.0" y1="703.0" y2="680.0"/>
      <line stroke="#7f7f7f" stroke-width="1" x1="752.0" x2="752.0" y1="703.0" y2="680.0"/>
      <polygon fill="#9b5509" points="791.0,680.0 746.0,680.0 746.0,677.0 791.0,677.0" stroke="#000000" stroke-width="1"/>
      <polygon fill="#9b5509" points="791.0,685.0 791.0,689.0 746.0,689.0 746.0,685.0" stroke="#000000" stroke-width="1"/>
      <polygon fill="#9b5509" points="791.0,694.0 791.0,698.0 746.0,698.0 746.0,694.0" stroke="#000000" stroke-width="1"/>
      <polygon fill="#9b5509" points="791.0,703.0 746.0,703.0 746.0,706.0 791.0,706.0" stroke="#000000" stroke-width="1"/>
      <line stroke="#7f7f7f" stroke-width="1" x1="694.0" x2="694.0" y1="703.0" y2="680.0"/>
      <line stroke="#7f7f7f" stroke-width="1" x1="690.0" x2="690.0" y1="703.0" y2="680.0"/>
      <line stroke="#7f7f7f" stroke-width="1" x1="686.0" x2="686.0" y1="703.0" y2="680.0"/>
      <line stroke="#7f7f7f" stroke-width="1" x1="682.0" x2="682.0" y1="703.0" y2="680.0"/>
      <line stroke="#7f7f7f" stroke-width="1" x1="678.0" x2="678.0" y1="703.0" y2="680.0"/>
      <line stroke="#7f7f7f" stroke-width="1" x1="674.0" x2="674.0" y1="703.0" y2="680.0"/>
      <line stroke="#7f7f7f" stroke-width="1" x1="670.0" x2="670.0" y1="703.0" y2="680.0"/>
      <line stroke="#7f7f7f" stroke-width="1" x1="666.0" x2="666.0" y1="703.0" y2="680.0"/>
      <line stroke="#7f7f7f" stroke-width="1" x1="662.0" x2="662.0" y1="703.0" y2="680.0"/>
      <polygon fill="#9b5509" points="701.0,680.0 656.0,680.0 656.0,677.0 701.0,677.0" stroke="#000000" stroke-width="1"/>
      <polygon fill="#9b5509" points="701.0,685.0 701.0,689.0 656.0,689.0 656.0,685.0" stroke="#000000" stroke-width="1"/>
      <polygon fill="#9b5509" points="701.0,694.0 701.0,698.0 656.0,698.0 656.0,694.0" stroke="#000000" stroke-width="1"/>
      <polygon fill="#9b5509" points="701.0,703.0 656.0,703.0 656.0,706.0 701.0,706.0" stroke="#000000" stroke-width="1"/>
      <line stroke="#7f7f7f" stroke-width="1" x1="625.0" x2="625.0" y1="703.0" y2="680.0"/>
      <line stroke="#7f7f7f" stroke-width="1" x1="621.0" x2="621.0" y1="703.0" y2="680.0"/>
      <line stroke="#7f7f7f" stroke-width="1" x1="617.0" x2="617.0" y1="703.0" y2="680.0"/>
      <line stroke="#7f7f7f" stroke-width="1" x1="613.0" x2="613.0" y1="703.0" y2="680.0"/>
      <line stroke="#7f7f7f" stroke-width="1" x1="609.0" x2="609.0" y1="703.0" y2="680.0"/>
      <line stroke="#7f7f7f" stroke-width="1" x1="605.0" x2="605.0" y1="703.0" y2="680.0"/>
      <line stroke="#7f7f7f" stroke-width="1" x1="601.0" x2="601.0" y1="703.0" y2="680.0"/>
      <line stroke="#7f7f7f" stroke-width="1" x1="597.0" x2="597.0" y1="703.0" y2="680.0"/>
      <line stroke="#7f7f7f" stroke-width="1" x1="593.0" x2="593.0" y1="703.0" y2="680.0"/>
      <polygon fill="#9b5509" points="632.0,680.0 587.0,680.0 587.0,677.0 632.0,677.0" stroke="#000000" stroke-width="1"/>
      <polygon fill="#9b5509" points="632.0,685.0 632.0,689.0 587.0,689.0 587.0,685.0" stroke="#000000" stroke-width="1"/>
      <polygon fill="#9b5509" points="632.0,694.0 632.0,698.0 587.0,698.0 587.0,694.0" stroke="#000000" stroke-width="1"/>
      <polygon fill="#9b5509" points="632.0,703.0 587.0,703.0 587.0,706.0 632.0,706.0" stroke="#000000" stroke-width="1"/>
      <line stroke="#7f7f7f" stroke-width="1" x1="387.0" x2="387.0" y1="703.0" y2="680.0"/>
      <line stroke="#7f7f7f" stroke-width="1" x1="383.0" x2="383.0" y1="703.0" y2="680.0"/>
      <line stroke="#7f7f7f" stroke-width="1" x1="379.0" x2="379.0" y1="703.0" y2="680.0"/>
      <line stroke="#7f7f7f" stroke-width="1" x1="375.0" x2="375.0" y1="703.0" y2="680.0"/>
      <line stroke="#7f7f7f" stroke-width="1" x1="371.0" x2="371.0" y1="703.0" y2="680.0"/>
      <line stroke="#7f7f7f" stroke-width="1" x1="367.0" x2="367.0" y1="703.0" y2="680.0"/>
      <line stroke="#7f7f7f" stroke-width="1" x1="363.0" x2="363.0" y1="703.0" y2="680.0"/>
      <line stroke="#7f7f7f" stroke-width="1" x1="359.0" x2="359.0" y1="703.0" y2="680.0"/>
      <line stroke="#7f7f7f" stroke-width="1" x1="355.0" x2="355.0" y1="703.0" y2="680.0"/>
      <polygon fill="#9b5509" points="394.0,680.0 349.0,680.0 349.0,677.0 394.0,677.0" stroke="#000000" stroke-width="1"/>
      <polygon fill="#9b5509" points="394.0,685.0 394.0,689.0 349.0,689.0 349.0,685.0" stroke="#000000" stroke-width="1"/>
      <polygon fill="#9b5509" points="394.0,694.0 394.0,698.0 349.0,698.0 349.0,694.0" stroke="#000000" stroke-width="1"/>
      <polygon fill="#9b5509" points="394.0,703.0 349.0,703.0 349.0,706.0 394.0,706.0" stroke="#000000" stroke-width="1"/>
      <polygon fill="#d0efff" points="482.0,680.0 502.0,680.0 502.0,700.0 482.0,700.0" stroke="#000000" stroke-width="1"/>
      <text fill="#000000" font-family="Arial" font-size="8.0" stroke="none" stroke-width="0" x="484.0" y="693.0">лифт</text>
      <polygon fill="#34349c" points="576.0,691.0 576.0,695.0 575.0,695.0 575.0,691.0" stroke="#34349c" stroke-width="1"/>
      <polygon fill="#ff0000" points="576.0,687.0 576.0,691.0 575.0,691.0 575.0,687.0" stroke="#ff0000" stroke-width="1"/>
      <ellipse cx="28.5" cy="601.0" fill="#d0d0d0" rx="69.5" ry="69.0" stroke="#000000" stroke-width="1"/>
      <polygon fill="#d0d0d0" points="147.0,569.0 167.0,565.0 189.0,564.0 211.0,568.0 227.0,576.0 237.0,588.0 241.0,602.0 237.0,617.0 227.0,628.0 211.0,635.0 189.0,640.0 173.0,640.0 159.0,638.0 147.0,635.0 150.0,621.0 152.0,610.0 152.0,592.0 150.0,580.0" stroke="#d0d0d0" stroke-width="1"/>
      <polygon fill="#ffffff" points="149.0,575.0 164.0,572.0 166.0,584.0 168.0,594.0 167.0,609.0 166.0,620.0 151.0,617.0 152.0,606.0 152.0,595.0 151.0,586.0" stroke="#ffffff" stroke-width="1"/>
      <polyline fill="none" points="265.0,417.0 265.0,403.0 622.0,403.0 622.0,401.0" stroke="#000000" stroke-width="1"/>
      <path d="M265.0,417.0 C265.0,417.0 272.0,414.6666666666667 265.0,417.0 C258.0,419.3333333333333 237.0,431.0 223.0,431.0 C209.0,431.0 181.0,417.0 181.0,417.0 " fill="none" stroke="#000000" stroke-width="1"/>
      <polyline fill="none" points="181.0,417.0 181.0,411.0 125.0,411.0 125.0,399.0" stroke="#000000" stroke-width="1"/>
      <polyline fill="none" points="621.0,800.0 265.0,800.0 265.0,787.0" stroke="#000000" stroke-width="1"/>
      <path d="M265.0,787.0 C265.0,787.0 272.0,789.5 265.0,787.0 C258.0,784.5 236.83333333333334,772.1666666666666 223.0,772.0 C209.16666666666666,771.8333333333334 182.0,786.0 182.0,786.0 " fill="none" stroke="#000000" stroke-width="1"/>
      <polyline fill="none" points="182.0,786.0 182.0,793.0 -30.0,793.0 0.0,722.0" stroke="#000000" stroke-width="1"/>
    </g>
    <g fill="none" fill-opacity="0.8" stroke="#000000" stroke-opacity="0.8" transform="rotate(-30.0,855.0,610.0)">
      <polygon fill="#ffffff" points="449.0,266.0 449.0,410.0 391.0,410.0 391.0,266.0" stroke="#ffffff" stroke-width="1"/>
    </g>
    <g fill="#ffffff" fill-opacity="1.0" stroke="#ffffff" stroke-opacity="1.0" transform="rotate(-30.0,855.0,610.0)">
      <polyline fill="none" points="307.0,399.0 391.0,399.0 391.0,863.0" stroke="#000000" stroke-width="1"/>
      <polyline fill="none" points="391.0,266.0 391.0,370.0 307.0,370.0" stroke="#000000" stroke-width="1"/>
      <polyline fill="none" points="449.0,863.0 449.0,266.0" stroke="#000000" stroke-width="1"/>
      <polyline fill="none" points="125.0,370.0 85.0,370.0 85.0,339.0 26.0,339.0 26.0,477.0" stroke="#000000" stroke-width="1"/>
      <path d="M26.0,477.0 C26.0,477.0 36.0,474.3333333333333 26.0,477.0 C16.0,479.6666666666667 -16.333333333333332,482.8333333333333 -34.0,493.0 C-51.66666666666667,503.1666666666667 -69.5,520.5 -80.0,538.0 C-90.5,555.5 -97.0,598.0 -97.0,598.0 " fill="none" stroke="#000000" stroke-width="1"/>
      <polyline fill="none" points="-97.0,598.0 -76.0,598.0" stroke="#000000" stroke-width="1"/>
      <path d="M-76.0,598.0 C-76.0,598.0 -78.0,589.5 -76.0,598.0 C-74.0,606.5 -72.16666666666667,634.0 -64.0,649.0 C-55.83333333333333,664.0 -41.83333333333333,678.8333333333334 -27.0,688.0 C-12.166666666666668,697.1666666666666 25.0,704.0 25.0,704.0 " fill="none" stroke="#000000" stroke-width="1"/>
      <polyline fill="none" points="25.0,704.0 25.0,725.0" stroke="#000000" stroke-width="1"/>
      <path d="M25.0,725.0 C25.0,725.0 27.0,725.1666666666666 25.0,725.0 C23.0,724.8333333333334 17.166666666666668,724.5 13.0,724.0 C8.833333333333332,723.5 0.0,722.0 0.0,722.0 " fill="none" stroke="#000000" stroke-width="1"/>
      <path d="M147.0,569.0 C147.0,569.0 140.0,569.8333333333334 147.0,569.0 C154.0,568.1666666666666 175.66666666666666,562.8333333333334 189.0,564.0 C202.33333333333334,565.1666666666666 218.33333333333334,569.6666666666666 227.0,576.0 C235.66666666666666,582.3333333333334 241.0,593.3333333333334 241.0,602.0 C241.0,610.6666666666666 235.66666666666666,621.6666666666666 227.0,628.0 C218.33333333333334,634.3333333333334 202.33333333333334,638.8333333333334 189.0,640.0 C175.66666666666666,641.1666666666666 147.0,635.0 147.0,635.0 " fill="none" stroke="#000000" stroke-width="1"/>
      <path d="M147.0,569.0 C147.0,569.0 146.16666666666666,563.5 147.0,569.0 C147.83333333333334,574.5 152.0,591.0 152.0,602.0 C152.0,613.0 147.0,635.0 147.0,635.0 " fill="none" stroke="#000000" stroke-width="1"/>
      <polyline fill="none" points="125.0,412.0 125.0,482.0 121.0,488.0" stroke="#000000" stroke-width="0.5"/>
      <polyline fill="none" points="77.0,544.0 73.0,548.0" stroke="#000000" stroke-width="0.5"/>
      <polyline fill="none" points="121.0,704.0 125.0,709.0 125.0,793.0" stroke="#000000" stroke-width="0.5"/>
      <polyline fill="none" points="83.0,651.0 79.0,647.0" stroke="#000000" stroke-width="0.5"/>
      <line stroke="#7f7f7f" stroke-width="1" x1="300.0" x2="300.0" y1="396.0" y2="373.0"/>
      <line stroke="#7f7f7f" stroke-width="1" x1="296.0" x2="296.0" y1="396.0" y2="373.0"/>
      <line stroke="#7f7f7f" stroke-width="1" x1="292.0" x2="292.0" y1="396.0" y2="373.0"/>
      <line stroke="#7f7f7f" stroke-width="1" x1="288.0" x2="288.0" y1="396.0" y2="373.0"/>
      <line stroke="#7f7f7f" stroke-width="1" x1="284.0" x2="284.0" y1="396.0" y2="373.0"/>
      <line stroke="#7f7f7f" stroke-width="1" x1="280.0" x2="280.0" y1="396.0" y2="373.0"/>
      <line stroke="#7f7f7f" stroke-width="1" x1="276.0" x2="276.0" y1="396.0" y2="373.0"/>
      <line stroke="#7f7f7f" stroke-width="1" x1="272.0" x2="272.0" y1="396.0" y2="373.0"/>
      <line stroke="#7f7f7f" stroke-width="1" x1="268.0" x2="268.0" y1="396.0" y2="373.0"/>
      <line stroke="#7f7f7f" stroke-width="1" x1="264.0" x2="264.0" y1="396.0" y2="373.0"/>
      <line stroke="#7f7f7f" stroke-width="1" x1="260.0" x2="260.0" y1="396.0" y2="373.0"/>
      <line stroke="#7f7f7f" stroke-width="1" x1="256.0" x2="256.0" y1="396.0" y2="373.0"/>
      <line stroke="#7f7f7f" stroke-width="1" x1="252.0" x2="252.0" y1="396.0" y2="373.0"/>
      <line stroke="#7f7f7f" stroke-width="1" x1="248.0" x2="248.0" y1="396.0" y2="373.0"/>
      <line stroke="#7f7f7f" stroke-width="1" x1="244.0" x2="244.0" y1="396.0" y2="373.0"/>
      <line stroke="#7f7f7f" stroke-width="1" x1="240.0" x2="240.0" y1="396.0" y2="373.0"/>
      <line stroke="#7f7f7f" stroke-width="1" x1="236.0" x2="236.0" y1="396.0" y2="373.0"/>
      <line stroke="#7f7f7f" stroke-width="1" x1="232.0" x2="232.0" y1="396.0" y2="373.0"/>
      <line stroke="#7f7f7f" stroke-width="1" x1="228.0" x2="228.0" y1="396.0" y2="373.0"/>
      <line stroke="#7f7f7f" stroke-width="1" x1="224.0" x2="224.0" y1="396.0" y2="373.0"/>
      <line stroke="#7f7f7f" stroke-width="1" x1="220.0" x2="220.0" y1="396.0" y2="373.0"/>
      <line stroke="#7f7f7f" stroke-width="1" x1="216.0" x2="216.0" y1="396.0" y2="373.0"/>
      <line stroke="#7f7f7f" stroke-width="1" x1="212.0" x2="212.0" y1="396.0" y2="373.0"/>
      <line stroke="#7f7f7f" stroke-width="1" x1="208.0" x2="208.0" y1="396.0" y2="373.0"/>
      <line stroke="#7f7f7f" stroke-width="1" x1="204.0" x2="204.0" y1="396.0" y2="373.0"/>
      <line stroke="#7f7f7f" stroke-width="1" x1="200.0" x2="200.0" y1="396.0" y2="373.0"/>
      <line stroke="#7f7f7f" stroke-width="1" x1="196.0" x2="196.0" y1="396.0" y2="373.0"/>
      <line stroke="#7f7f7f" stroke-width="1" x1="192.0" x2="192.0" y1="396.0" y2="373.0"/>
      <line stroke="#7f7f7f" stroke-width="1" x1="188.0" x2="188.0" y1="396.0" y2="373.0"/>
      <line stroke="#7f7f7f" stroke-width="1" x1="184.0" x2="184.0" y1="396.0" y2="373.0"/>
      <line stroke="#7f7f7f" stroke-width="1" x1="180.0" x2="180.0" y1="396.0" y2="373.0"/>
      <line stroke="#7f7f7f" stroke-width="1" x1="176.0" x2="176.0" y1="396.0" y2="373.0"/>
      <line stroke="#7f7f7f" stroke-width="1" x1="172.0" x2="172.0" y1="396.0" y2="373.0"/>
      <line stroke="#7f7f7f" stroke-width="1" x1="168.0" x2="168.0" y1="396.0" y2="373.0"/>
      <line stroke="#7f7f7f" stroke-width="1" x1="164.0" x2="164.0" y1="396.0" y2="373.0"/>
      <line stroke="#7f7f7f" stroke-width="1" x1="160.0" x2="160.0" y1="396.0" y2="373.0"/>
      <line stroke="#7f7f7f" stroke-width="1" x1="156.0" x2="156.0" y1="396.0" y2="373.0"/>
      <line stroke="#7f7f7f" stroke-width="1" x1="152.0" x2="152.0" y1="396.0" y2="373.0"/>
      <line stroke="#7f7f7f" stroke-width="1" x1="148.0" x2="148.0" y1="396.0" y2="373.0"/>
      <line stroke="#7f7f7f" stroke-width="1" x1="144.0" x2="144.0" y1="396.0" y2="373.0"/>
      <line stroke="#7f7f7f" stroke-width="1" x1="140.0" x2="140.0" y1="396.0" y2="373.0"/>
      <line stroke="#7f7f7f" stroke-width="1" x1="136.0" x2="136.0" y1="396.0" y2="373.0"/>
      <line stroke="#7f7f7f" stroke-width="1" x1="132.0" x2="132.0" y1="396.0" y2="373.0"/>
      <polygon fill="#9b5509" points="307.0,373.0 125.0,373.0 125.0,370.0 307.0,370.0" stroke="#000000" stroke-width="1"/>
      <polygon fill="#9b5509" points="307.0,378.0 307.0,382.0 125.0,382.0 125.0,378.0" stroke="#000000" stroke-width="1"/>
      <polygon fill="#9b5509" points="307.0,387.0 307.0,391.0 125.0,391.0 125.0,387.0" stroke="#000000" stroke-width="1"/>
      <polygon fill="#9b5509" points="307.0,396.0 125.0,396.0 125.0,399.0 307.0,399.0" stroke="#000000" stroke-width="1"/>
      <polygon fill="none" points="270.0,488.0 276.0,485.0 279.0,491.0 273.0,494.0" stroke="#000000" stroke-width="1"/>
      <line stroke="#009900" stroke-width="1" x1="279.0" x2="275.0" y1="494.0" y2="496.0"/>
      <line stroke="#009900" stroke-width="1" x1="280.81219939250315" x2="276.81219939250315" y1="497.56594074008683" y2="499.56594074008683"/>
      <line stroke="#009900" stroke-width="1" x1="282.6243987850063" x2="278.6243987850063" y1="501.13188148017366" y2="503.13188148017366"/>
      <line stroke="#009900" stroke-width="1" x1="284.43659817750944" x2="280.43659817750944" y1="504.6978222202605" y2="506.6978222202605"/>
      <line stroke="#009900" stroke-width="1" x1="286.2487975700126" x2="282.2487975700126" y1="508.2637629603473" y2="510.2637629603473"/>
      <line stroke="#009900" stroke-width="1" x1="288.06099696251573" x2="284.06099696251573" y1="511.82970370043415" y2="513.8297037004342"/>
      <line stroke="#009900" stroke-width="1" x1="289.8731963550189" x2="285.8731963550189" y1="515.395644440521" y2="517.395644440521"/>
      <line stroke="#009900" stroke-width="1" x1="291.685395747522" x2="287.685395747522" y1="518.9615851806078" y2="520.9615851806078"/>
      <line stroke="#009900" stroke-width="1" x1="293.49759514002517" x2="289.49759514002517" y1="522.5275259206946" y2="524.5275259206946"/>
      <line stroke="#009900" stroke-width="1" x1="295.3097945325283" x2="291.3097945325283" y1="526.0934666607815" y2="528.0934666607815"/>
      <line stroke="#009900" stroke-width="1" x1="297.12199392503146" x2="293.12199392503146" y1="529.6594074008683" y2="531.6594074008683"/>
      <line stroke="#009900" stroke-width="1" x1="298.9341933175346" x2="294.9341933175346" y1="533.2253481409551" y2="535.2253481409551"/>
      <line stroke="#009900" stroke-width="1" x1="300.74639271003775" x2="296.74639271003775" y1="536.791288881042" y2="538.791288881042"/>
      <line stroke="#009900" stroke-width="1" x1="302.5585921025409" x2="298.5585921025409" y1="540.3572296211288" y2="542.3572296211288"/>
      <line stroke="#009900" stroke-width="1" x1="304.37079149504405" x2="300.37079149504405" y1="543.9231703612156" y2="545.9231703612156"/>
      <line stroke="#009900" stroke-width="1" x1="306.1829908875472" x2="302.1829908875472" y1="547.4891111013025" y2="549.4891111013025"/>
      <line stroke="#009900" stroke-width="1" x1="307.99519028005034" x2="303.99519028005034" y1="551.0550518413893" y2="553.0550518413893"/>
      <line stroke="#009900" stroke-width="1" x1="309.8073896725535" x2="305.8073896725535" y1="554.6209925814761" y2="556.6209925814761"/>
      <line stroke="#009900" stroke-width="1" x1="309.0" x2="313.0" y1="643.0" y2="645.0"/>
      <line stroke="#009900" stroke-width="1" x1="307.21114561800016" x2="311.21114561800016" y1="646.5777087639997" y2="648.5777087639997"/>
      <line stroke="#009900" stroke-width="1" x1="305.4222912360003" x2="309.4222912360003" y1="650.1554175279994" y2="652.1554175279994"/>
      <line stroke="#009900" stroke-width="1" x1="303.6334368540005" x2="307.6334368540005" y1="653.733126291999" y2="655.733126291999"/>
      <line stroke="#009900" stroke-width="1" x1="301.84458247200064" x2="305.84458247200064" y1="657.3108350559987" y2="659.3108350559987"/>
      <line stroke="#009900" stroke-width="1" x1="300.0557280900008" x2="304.0557280900008" y1="660.8885438199984" y2="662.8885438199984"/>
      <line stroke="#009900" stroke-width="1" x1="298.26687370800096" x2="302.26687370800096" y1="664.4662525839981" y2="666.4662525839981"/>
      <line stroke="#009900" stroke-width="1" x1="296.4780193260011" x2="300.4780193260011" y1="668.0439613479978" y2="670.0439613479978"/>
      <line stroke="#009900" stroke-width="1" x1="294.6891649440013" x2="298.6891649440013" y1="671.6216701119974" y2="673.6216701119974"/>
      <line stroke="#009900" stroke-width="1" x1="292.90031056200144" x2="296.90031056200144" y1="675.1993788759971" y2="677.1993788759971"/>
      <line stroke="#009900" stroke-width="1" x1="291.1114561800016" x2="295.1114561800016" y1="678.7770876399968" y2="680.7770876399968"/>
      <line stroke="#009900" stroke-width="1" x1="289.32260179800176" x2="293.32260179800176" y1="682.3547964039965" y2="684.3547964039965"/>
      <line stroke="#009900" stroke-width="1" x1="287.5337474160019" x2="291.5337474160019" y1="685.9325051679962" y2="687.9325051679962"/>
      <line stroke="#009900" stroke-width="1" x1="285.7448930340021" x2="289.7448930340021" y1="689.5102139319958" y2="691.5102139319958"/>
      <line stroke="#009900" stroke-width="1" x1="283.95603865200223" x2="287.95603865200223" y1="693.0879226959955" y2="695.0879226959955"/>
      <line stroke="#009900" stroke-width="1" x1="282.1671842700024" x2="286.1671842700024" y1="696.6656314599952" y2="698.6656314599952"/>
      <line stroke="#009900" stroke-width="1" x1="280.37832988800255" x2="284.37832988800255" y1="700.2433402239949" y2="702.2433402239949"/>
      <line stroke="#ff0000" stroke-width="1" x1="243.0" x2="247.0" y1="435.0" y2="433.0"/>
      <line stroke="#ff0000" stroke-width="1" x1="244.81570312567553" x2="248.81570312567553" y1="438.56415798743717" y2="436.56415798743717"/>
      <line stroke="#ff0000" stroke-width="1" x1="246.63140625135105" x2="250.63140625135105" y1="442.12831597487434" y2="440.12831597487434"/>
      <line stroke="#ff0000" stroke-width="1" x1="248.44710937702658" x2="252.44710937702658" y1="445.6924739623115" y2="443.6924739623115"/>
      <line stroke="#ff0000" stroke-width="1" x1="250.2628125027021" x2="254.2628125027021" y1="449.2566319497487" y2="447.2566319497487"/>
      <line stroke="#ff0000" stroke-width="1" x1="252.07851562837763" x2="256.07851562837766" y1="452.82078993718585" y2="450.82078993718585"/>
      <line stroke="#ff0000" stroke-width="1" x1="253.89421875405316" x2="257.8942187540532" y1="456.384947924623" y2="454.384947924623"/>
      <line stroke="#ff0000" stroke-width="1" x1="255.70992187972868" x2="259.70992187972877" y1="459.9491059120602" y2="457.9491059120602"/>
      <line stroke="#ff0000" stroke-width="1" x1="257.5256250054042" x2="261.5256250054043" y1="463.51326389949736" y2="461.51326389949736"/>
      <line stroke="#ff0000" stroke-width="1" x1="259.34132813107976" x2="263.3413281310799" y1="467.07742188693453" y2="465.07742188693453"/>
      <line stroke="#ff0000" stroke-width="1" x1="261.1570312567553" x2="265.15703125675543" y1="470.6415798743717" y2="468.6415798743717"/>
      <line stroke="#ff0000" stroke-width="1" x1="262.9727343824309" x2="266.972734382431" y1="474.20573786180887" y2="472.20573786180887"/>
      <line stroke="#ff0000" stroke-width="1" x1="264.7884375081064" x2="268.78843750810654" y1="477.76989584924604" y2="475.76989584924604"/>
      <line stroke="#ff0000" stroke-width="1" x1="266.604140633782" x2="270.6041406337821" y1="481.3340538366832" y2="479.3340538366832"/>
      <line stroke="#ff0000" stroke-width="1" x1="268.41984375945754" x2="272.41984375945765" y1="484.8982118241204" y2="482.8982118241204"/>
      <line stroke="#ff0000" stroke-width="1" x1="276.0" x2="280.0" y1="709.0" y2="711.0"/>
      <line stroke="#ff0000" stroke-width="1" x1="274.18429687432445" x2="278.18429687432445" y1="712.5641579874372" y2="714.5641579874372"/>
      <line stroke="#ff0000" stroke-width="1" x1="272.3685937486489" x2="276.3685937486489" y1="716.1283159748743" y2="718.1283159748743"/>
      <line stroke="#ff0000" stroke-width="1" x1="270.55289062297334" x2="274.55289062297334" y1="719.6924739623115" y2="721.6924739623115"/>
      <line stroke="#ff0000" stroke-width="1" x1="268.7371874972978" x2="272.7371874972978" y1="723.2566319497487" y2="725.2566319497487"/>
      <line stroke="#ff0000" stroke-width="1" x1="266.9214843716222" x2="270.9214843716222" y1="726.8207899371859" y2="728.8207899371859"/>
      <line stroke="#ff0000" stroke-width="1" x1="265.1057812459467" x2="269.1057812459467" y1="730.384947924623" y2="732.384947924623"/>
      <line stroke="#ff0000" stroke-width="1" x1="263.2900781202711" x2="267.2900781202711" y1="733.9491059120602" y2="735.9491059120602"/>
      <line stroke="#ff0000" stroke-width="1" x1="261.47437499459556" x2="265.47437499459556" y1="737.5132638994974" y2="739.5132638994974"/>
      <line stroke="#ff0000" stroke-width="1" x1="259.65867186892" x2="263.65867186892" y1="741.0774218869345" y2="743.0774218869345"/>
      <line stroke="#ff0000" stroke-width="1" x1="257.84296874324446" x2="261.84296874324446" y1="744.6415798743717" y2="746.6415798743717"/>
      <line stroke="#ff0000" stroke-width="1" x1="256.0272656175689" x2="260.0272656175689" y1="748.2057378618089" y2="750.2057378618089"/>
      <line stroke="#ff0000" stroke-width="1" x1="254.21156249189337" x2="258.21156249189335" y1="751.769895849246" y2="753.769895849246"/>
      <line stroke="#ff0000" stroke-width="1" x1="252.39585936621785" x2="256.3958593662178" y1="755.3340538366832" y2="757.3340538366832"/>
      <line stroke="#ff0000" stroke-width="1" x1="250.58015624054232" x2="254.58015624054227" y1="758.8982118241204" y2="760.8982118241204"/>
      <polyline fill="none" marker-end="url(#id336)" points="299.0,460.0 277.0,460.0" stroke="#ff0000" stroke-width="1"/>
      <polyline fill="none" marker-end="url(#id336)" points="309.0,737.0 287.0,737.0" stroke="#ff0000" stroke-width="1"/>
      <polyline fill="none" marker-end="url(#id336)" points="247.0,522.0 271.0,522.0" stroke="#009900" stroke-width="1"/>
      <polyline fill="none" marker-end="url(#id336)" points="247.0,677.0 271.0,677.0" stroke="#009900" stroke-width="1"/>
      <polyline fill="none" points="151.0,617.0 166.0,620.0" stroke="#000000" stroke-width="1"/>
      <path d="M166.0,620.0 C166.0,620.0 165.66666666666666,623.8333333333334 166.0,620.0 C166.33333333333334,616.1666666666666 168.33333333333334,605.0 168.0,597.0 C167.66666666666666,589.0 164.0,572.0 164.0,572.0 " fill="none" stroke="#000000" stroke-width="1"/>
      <polyline fill="none" points="149.0,575.0 164.0,572.0" stroke="#000000" stroke-width="1"/>
      <text fill="#000000" font-family="Arial" font-size="10.0" stroke="none" stroke-width="0" transform="rotate(88.0,167.0,584.0)" x="167.0" y="594.0">кассы</text>
      <polygon fill="#34349c" points="219.0,563.0 223.0,566.0 222.0,567.0 218.0,564.0" stroke="#34349c" stroke-width="1"/>
      <polygon fill="#ff0000" points="215.0,560.0 219.0,563.0 218.0,564.0 214.0,561.0" stroke="#ff0000" stroke-width="1"/>
      <text fill="#00afaf" font-family="Arial" font-size="15.0" stroke="none" stroke-width="0" x="1429.0" y="1082.0">Краснопресненская</text>
      <text fill="#00afaf" font-family="Arial" font-size="15.0" stroke="none" stroke-width="0" x="1431.0" y="1101.0">набережная</text>
      <text fill="#00afaf" font-family="Arial" font-size="15.0" stroke="none" stroke-width="0" transform="rotate(90.0,1535.0,681.0)" x="1535.0" y="696.0">Выставочный пер.</text>
      <text fill="#00afaf" font-family="Arial" font-size="15.0" stroke="none" stroke-width="0" transform="rotate(90.0,1327.0,1196.0)" x="1327.0" y="1211.0">'мост &quot;Багратион&quot;'</text>
      <text fill="#00afaf" font-family="Arial" font-size="15.0" stroke="none" stroke-width="0" transform="rotate(90.0,1291.0,1151.0)" x="1291.0" y="1166.0">Кутузовский проспект &gt;&gt;</text>
      <text fill="#00afaf" font-family="Arial" font-size="15.0" stroke="none" stroke-width="0" x="1153.0" y="226.0">1-й Красногвардейский проезд</text>
      <text fill="#00afaf" font-family="Arial" font-size="15.0" stroke="none" stroke-width="0" transform="rotate(90.0,1104.0,74.0)" x="1104.0" y="89.0">улица Антонова-Овсеенко</text>
      <text fill="#00afaf" font-family="Arial" font-size="15.0" stroke="none" stroke-width="0" x="1041.0" y="717.0">&lt;&lt; Международный Деловой центр</text>
    </g>
    <g fill="none" fill-opacity="0.7" stroke="#000000" stroke-opacity="0.7" transform="rotate(-30.0,855.0,610.0)">
      <polygon fill="#ffd0d0" points="801.0,421.0 801.0,599.0 332.0,599.0 332.0,421.0" stroke="#ffd0d0" stroke-width="1"/>
    </g>
    <g fill="#ffd0d0" fill-opacity="1.0" stroke="#ffd0d0" stroke-opacity="1.0" transform="rotate(-30.0,855.0,610.0)">
      <text fill="#ff4040" font-family="Arial" font-size="15.0" stroke="none" stroke-width="0" x="555.0" y="444.0">Закрыто</text>
      <polyline fill="none" points="801.0,421.0 801.0,599.0 332.0,599.0 332.0,421.0 801.0,421.0" stroke="#ff4040" stroke-dasharray="5 2" stroke-width="1"/>
    </g>
    <g>
      <rect fill="#615f56" height="30.0" stroke="none" stroke-width="0" width="30.0" x="284.0" y="482.0"/>
      <rect fill="#615f56" height="30.0" stroke="none" stroke-width="0" width="30.0" x="616.0" y="1065.0"/>
      <rect fill="#615f56" height="30.0" stroke="none" stroke-width="0" width="30.0" x="100.0" y="911.0"/>
      <rect fill="#615f56" height="30.0" stroke="none" stroke-width="0" width="30.0" x="1386.0" y="277.0"/>
      <rect fill="#615f56" height="30.0" stroke="none" stroke-width="0" width="30.0" x="1505.0" y="765.0"/>
      <text fill="#ffd900" font-family="Arial" font-size="25.0" stroke="none" stroke-width="0" x="292.0" y="508.0">1</text>
      <text fill="#ffd900" font-family="Arial" font-size="25.0" stroke="none" stroke-width="0" x="624.0" y="1091.0">2</text>
      <text fill="#ffd900" font-family="Arial" font-size="25.0" stroke="none" stroke-width="0" x="108.0" y="937.0">3</text>
      <text fill="#ffd900" font-family="Arial" font-size="25.0" stroke="none" stroke-width="0" x="1394.0" y="303.0">4</text>
      <text fill="#ffd900" font-family="Arial" font-size="25.0" stroke="none" stroke-width="0" x="1513.0" y="791.0">5</text>
    </g>
  </g>
</svg>
