<?xml version="1.0" encoding="utf-8" ?>
<svg baseProfile="full" height="100%" version="1.1" width="100%" xmlns="http://www.w3.org/2000/svg" xmlns:ev="http://www.w3.org/2001/xml-events" xmlns:xlink="http://www.w3.org/1999/xlink">
  <defs>
    <marker id="id340" markerHeight="3" markerUnits="strokeWidth" markerWidth="4" orient="auto" refX="0" refY="5" viewBox="0,0,10,10">
      <path d="M 0 0 L 10 5 L 0 10 z"/>
    </marker>
  </defs>
  <g>
    <rect fill="none" height="1040" stroke="none" stroke-width="0" width="980" x="0" y="0"/>
    <g transform="rotate(-55.0,490,520)">
      <polyline fill="none" points="-224,417 1339,417" stroke="#f5f5f5" stroke-width="80"/>
      <polyline fill="none" points="-35,691 1379,692" stroke="#f5f5f5" stroke-width="40"/>
      <polyline fill="none" points="594,389 594,-282" stroke="#f5f5f5" stroke-width="40"/>
      <polyline fill="none" points="166,119 166,420 123,728 -61,949" stroke="#f5f5f5" stroke-width="40"/>
      <polyline fill="none" points="589,699 590,1104" stroke="#f5f5f5" stroke-width="40"/>
      <polygon fill="#ac24ac" points="901,508 451,508 451,478 901,478" stroke="#000000" stroke-width="1"/>
      <polygon fill="#ac24ac" points="451,618 451,588 901,588 901,618" stroke="#000000" stroke-width="1"/>
      <text fill="#ac24ac" font-family="Arial" font-size="20" stroke="none" stroke-width="0" x="451" y="474.0">&lt;&lt; Котельники</text>
      <text fill="#ac24ac" font-family="Arial" font-size="20" stroke="none" stroke-width="0" x="662" y="638.0">Лермонтовский проспект &gt;&gt;</text>
      <text fill="#ac24ac" font-family="Arial" font-size="25" stroke="none" stroke-width="0" x="587" y="551.0">Жулебино</text>
      <line stroke="#7f7f7f" stroke-width="1" x1="956" x2="956" y1="539" y2="574"/>
      <line stroke="#7f7f7f" stroke-width="1" x1="952" x2="952" y1="539" y2="574"/>
      <line stroke="#7f7f7f" stroke-width="1" x1="948" x2="948" y1="539" y2="574"/>
      <line stroke="#7f7f7f" stroke-width="1" x1="944" x2="944" y1="539" y2="574"/>
      <line stroke="#7f7f7f" stroke-width="1" x1="940" x2="940" y1="539" y2="574"/>
      <line stroke="#7f7f7f" stroke-width="1" x1="936" x2="936" y1="539" y2="574"/>
      <line stroke="#7f7f7f" stroke-width="1" x1="932" x2="932" y1="539" y2="574"/>
      <line stroke="#7f7f7f" stroke-width="1" x1="928" x2="928" y1="539" y2="574"/>
      <line stroke="#7f7f7f" stroke-width="1" x1="924" x2="924" y1="539" y2="574"/>
      <line stroke="#7f7f7f" stroke-width="1" x1="920" x2="920" y1="539" y2="574"/>
      <line stroke="#7f7f7f" stroke-width="1" x1="916" x2="916" y1="539" y2="574"/>
      <line stroke="#7f7f7f" stroke-width="1" x1="912" x2="912" y1="539" y2="574"/>
      <line stroke="#7f7f7f" stroke-width="1" x1="908" x2="908" y1="539" y2="574"/>
      <polygon fill="#9b5509" points="902,536 959,536 959,539 902,539" stroke="#000000" stroke-width="1"/>
      <polygon fill="#9b5509" points="902,548 959,548 959,553 902,553" stroke="#000000" stroke-width="1"/>
      <polygon fill="#9b5509" points="902,562 959,562 959,567 902,567" stroke="#000000" stroke-width="1"/>
      <polygon fill="#9b5509" points="902,574 959,574 959,577 902,577" stroke="#000000" stroke-width="1"/>
      <polyline fill="none" points="956,577 901,577 901,588" stroke="#000000" stroke-width="1"/>
      <polyline fill="none" points="940,519 901,519 901,508" stroke="#000000" stroke-width="1"/>
      <polygon fill="#d0d0d0" points="959,531 959,536 902,536 902,531" stroke="#000000" stroke-width="1"/>
    </g>
    <g fill="#d0d0d0" fill-opacity="0.85" stroke="#000000" stroke-opacity="0.85" transform="rotate(-55.0,490,520)">
      <polygon fill="#ffffff" points="935,518 907,518 907,578 935,578" stroke="#ffffff" stroke-width="1"/>
    </g>
    <g fill="#ffffff" fill-opacity="1.0" stroke="#ffffff" stroke-opacity="1.0" transform="rotate(-55.0,490,520)">
      <polyline fill="none" points="985,351 935,351 935,492 1000,492 1000,604 936,604 936,736 987,736" stroke="#000000" stroke-width="1"/>
      <polyline fill="none" points="987,754 857,754" stroke="#000000" stroke-width="1"/>
      <polyline fill="none" points="857,736 908,736 908,351 858,351" stroke="#000000" stroke-width="1"/>
      <polyline fill="none" points="858,333 985,333" stroke="#000000" stroke-width="1"/>
      <line stroke="#000000" stroke-width="1" x1="859" x2="859" y1="736" y2="754"/>
      <line stroke="#000000" stroke-width="1" x1="863" x2="863" y1="736" y2="754"/>
      <line stroke="#000000" stroke-width="1" x1="867" x2="867" y1="736" y2="754"/>
      <line stroke="#000000" stroke-width="1" x1="871" x2="871" y1="736" y2="754"/>
      <line stroke="#000000" stroke-width="1" x1="875" x2="875" y1="736" y2="754"/>
      <line stroke="#000000" stroke-width="1" x1="879" x2="879" y1="736" y2="754"/>
      <line stroke="#000000" stroke-width="1" x1="883" x2="883" y1="736" y2="754"/>
      <line stroke="#000000" stroke-width="1" x1="887" x2="887" y1="736" y2="754"/>
      <line stroke="#000000" stroke-width="1" x1="891" x2="891" y1="736" y2="754"/>
      <line stroke="#000000" stroke-width="1" x1="895" x2="895" y1="736" y2="754"/>
      <line stroke="#000000" stroke-width="1" x1="899" x2="899" y1="736" y2="754"/>
      <line stroke="#000000" stroke-width="1" x1="903" x2="903" y1="736" y2="754"/>
      <line stroke="#000000" stroke-width="1" x1="985" x2="985" y1="736" y2="754"/>
      <line stroke="#000000" stroke-width="1" x1="981" x2="981" y1="736" y2="754"/>
      <line stroke="#000000" stroke-width="1" x1="977" x2="977" y1="736" y2="754"/>
      <line stroke="#000000" stroke-width="1" x1="973" x2="973" y1="736" y2="754"/>
      <line stroke="#000000" stroke-width="1" x1="969" x2="969" y1="736" y2="754"/>
      <line stroke="#000000" stroke-width="1" x1="965" x2="965" y1="736" y2="754"/>
      <line stroke="#000000" stroke-width="1" x1="961" x2="961" y1="736" y2="754"/>
      <line stroke="#000000" stroke-width="1" x1="957" x2="957" y1="736" y2="754"/>
      <line stroke="#000000" stroke-width="1" x1="953" x2="953" y1="736" y2="754"/>
      <line stroke="#000000" stroke-width="1" x1="949" x2="949" y1="736" y2="754"/>
      <line stroke="#000000" stroke-width="1" x1="945" x2="945" y1="736" y2="754"/>
      <line stroke="#000000" stroke-width="1" x1="941" x2="941" y1="736" y2="754"/>
      <line stroke="#000000" stroke-width="1" x1="983" x2="983" y1="351" y2="333"/>
      <line stroke="#000000" stroke-width="1" x1="979" x2="979" y1="351" y2="333"/>
      <line stroke="#000000" stroke-width="1" x1="975" x2="975" y1="351" y2="333"/>
      <line stroke="#000000" stroke-width="1" x1="971" x2="971" y1="351" y2="333"/>
      <line stroke="#000000" stroke-width="1" x1="967" x2="967" y1="351" y2="333"/>
      <line stroke="#000000" stroke-width="1" x1="963" x2="963" y1="351" y2="333"/>
      <line stroke="#000000" stroke-width="1" x1="959" x2="959" y1="351" y2="333"/>
      <line stroke="#000000" stroke-width="1" x1="955" x2="955" y1="351" y2="333"/>
      <line stroke="#000000" stroke-width="1" x1="951" x2="951" y1="351" y2="333"/>
      <line stroke="#000000" stroke-width="1" x1="947" x2="947" y1="351" y2="333"/>
      <line stroke="#000000" stroke-width="1" x1="943" x2="943" y1="351" y2="333"/>
      <line stroke="#000000" stroke-width="1" x1="939" x2="939" y1="351" y2="333"/>
      <line stroke="#000000" stroke-width="1" x1="860" x2="860" y1="351" y2="333"/>
      <line stroke="#000000" stroke-width="1" x1="864" x2="864" y1="351" y2="333"/>
      <line stroke="#000000" stroke-width="1" x1="868" x2="868" y1="351" y2="333"/>
      <line stroke="#000000" stroke-width="1" x1="872" x2="872" y1="351" y2="333"/>
      <line stroke="#000000" stroke-width="1" x1="876" x2="876" y1="351" y2="333"/>
      <line stroke="#000000" stroke-width="1" x1="880" x2="880" y1="351" y2="333"/>
      <line stroke="#000000" stroke-width="1" x1="884" x2="884" y1="351" y2="333"/>
      <line stroke="#000000" stroke-width="1" x1="888" x2="888" y1="351" y2="333"/>
      <line stroke="#000000" stroke-width="1" x1="892" x2="892" y1="351" y2="333"/>
      <line stroke="#000000" stroke-width="1" x1="896" x2="896" y1="351" y2="333"/>
      <line stroke="#000000" stroke-width="1" x1="900" x2="900" y1="351" y2="333"/>
      <line stroke="#000000" stroke-width="1" x1="904" x2="904" y1="351" y2="333"/>
      <polygon fill="#d0d0d0" points="935,514 959,514 959,519 940,519 940,577 959,577 959,582 935,582" stroke="#000000" stroke-width="1"/>
      <polyline fill="none" points="959,551 1000,551" stroke="#000000" stroke-width="0.5"/>
      <polygon fill="none" points="988,603 983,603 983,598 988,598" stroke="#000000" stroke-width="1"/>
      <line stroke="#009900" stroke-width="1" x1="963" x2="960" y1="580" y2="583"/>
      <line stroke="#009900" stroke-width="1" x1="965.746494132" x2="962.746494132" y1="582.90805261" y2="585.90805261"/>
      <line stroke="#009900" stroke-width="1" x1="968.492988264" x2="965.492988264" y1="585.81610522" y2="588.81610522"/>
      <line stroke="#009900" stroke-width="1" x1="971.239482396" x2="968.239482396" y1="588.724157831" y2="591.724157831"/>
      <line stroke="#009900" stroke-width="1" x1="973.985976527" x2="970.985976527" y1="591.632210441" y2="594.632210441"/>
      <line stroke="#009900" stroke-width="1" x1="976.732470659" x2="973.732470659" y1="594.540263051" y2="597.540263051"/>
      <line stroke="#009900" stroke-width="1" x1="979.478964791" x2="976.478964791" y1="597.448315661" y2="600.448315661"/>
      <line stroke="#ff0000" stroke-width="1" x1="959" x2="961" y1="511" y2="513"/>
      <line stroke="#ff0000" stroke-width="1" x1="961.634018431" x2="963.634018431" y1="507.989693221" y2="509.989693221"/>
      <line stroke="#ff0000" stroke-width="1" x1="964.268036863" x2="966.268036863" y1="504.979386442" y2="506.979386442"/>
      <line stroke="#ff0000" stroke-width="1" x1="966.902055294" x2="968.902055294" y1="501.969079664" y2="503.969079664"/>
      <line stroke="#ff0000" stroke-width="1" x1="969.536073726" x2="971.536073726" y1="498.958772885" y2="500.958772885"/>
      <line stroke="#ff0000" stroke-width="1" x1="972.170092157" x2="974.170092157" y1="495.948466106" y2="497.948466106"/>
      <polyline fill="none" points="972,604 972,613 944,613 944,604" stroke="#000000" stroke-width="1"/>
      <text fill="#000000" font-family="Arial" font-size="10" stroke="none" stroke-width="0" x="946" y="611.0">кассы</text>
      <polygon fill="#d0efff" points="955,519 943,519 943,531 955,531" stroke="#000000" stroke-width="1"/>
      <polygon fill="#d0efff" points="927,333 915,333 915,345 927,345" stroke="#000000" stroke-width="1"/>
      <polygon fill="#d0efff" points="928,742 916,742 916,754 928,754" stroke="#000000" stroke-width="1"/>
      <text fill="#000000" font-family="Arial" font-size="4" stroke="none" stroke-width="0" x="945" y="526.0">лифт</text>
      <text fill="#000000" font-family="Arial" font-size="4" stroke="none" stroke-width="0" x="917" y="340.0">лифт</text>
      <text fill="#000000" font-family="Arial" font-size="4" stroke="none" stroke-width="0" x="918" y="749.0">лифт</text>
      <polyline fill="none" marker-end="url(#id340)" points="967,543 976,543 976,528" stroke="#ff0000" stroke-width="1"/>
      <polyline fill="none" marker-end="url(#id340)" points="980,564 969,564" stroke="#009900" stroke-width="1"/>
      <polyline fill="none" marker-end="url(#id340)" points="933,593 947,593" stroke="#009900" stroke-width="1"/>
      <polyline fill="none" points="56,337 206,337 206,715 15,715" stroke="#000000" stroke-width="1"/>
      <polyline fill="none" points="106,256 106,319 56,319" stroke="#000000" stroke-width="1"/>
      <polyline fill="none" points="124,256 124,319 206,319 206,269" stroke="#000000" stroke-width="1"/>
      <polyline fill="none" points="224,269 224,333 285,333" stroke="#000000" stroke-width="1"/>
      <polyline fill="none" points="155,738 206,738 206,733 15,733" stroke="#000000" stroke-width="1"/>
      <polyline fill="none" points="274,738 224,738 224,611 411,611" stroke="#000000" stroke-width="1"/>
      <polyline fill="none" points="274,756 155,756" stroke="#000000" stroke-width="1"/>
      <polyline fill="none" points="403,576 451,576" stroke="#000000" stroke-width="1"/>
      <polyline fill="none" points="423,588 451,588" stroke="#000000" stroke-width="1"/>
      <polyline fill="none" points="411,521 411,485 224,485 224,351 285,351" stroke="#000000" stroke-width="1"/>
      <polyline fill="none" points="403,521 451,521 451,508" stroke="#000000" stroke-width="1"/>
      <polyline fill="none" points="411,611 411,588" stroke="#000000" stroke-width="1"/>
      <line stroke="#000000" stroke-width="1" x1="58" x2="58" y1="319" y2="337"/>
      <line stroke="#000000" stroke-width="1" x1="62" x2="62" y1="319" y2="337"/>
      <line stroke="#000000" stroke-width="1" x1="66" x2="66" y1="319" y2="337"/>
      <line stroke="#000000" stroke-width="1" x1="70" x2="70" y1="319" y2="337"/>
      <line stroke="#000000" stroke-width="1" x1="74" x2="74" y1="319" y2="337"/>
      <line stroke="#000000" stroke-width="1" x1="78" x2="78" y1="319" y2="337"/>
      <line stroke="#000000" stroke-width="1" x1="82" x2="82" y1="319" y2="337"/>
      <line stroke="#000000" stroke-width="1" x1="86" x2="86" y1="319" y2="337"/>
      <line stroke="#000000" stroke-width="1" x1="90" x2="90" y1="319" y2="337"/>
      <line stroke="#000000" stroke-width="1" x1="94" x2="94" y1="319" y2="337"/>
      <line stroke="#000000" stroke-width="1" x1="98" x2="98" y1="319" y2="337"/>
      <line stroke="#000000" stroke-width="1" x1="102" x2="102" y1="319" y2="337"/>
      <line stroke="#000000" stroke-width="1" x1="283" x2="283" y1="351" y2="333"/>
      <line stroke="#000000" stroke-width="1" x1="279" x2="279" y1="351" y2="333"/>
      <line stroke="#000000" stroke-width="1" x1="275" x2="275" y1="351" y2="333"/>
      <line stroke="#000000" stroke-width="1" x1="271" x2="271" y1="351" y2="333"/>
      <line stroke="#000000" stroke-width="1" x1="267" x2="267" y1="351" y2="333"/>
      <line stroke="#000000" stroke-width="1" x1="263" x2="263" y1="351" y2="333"/>
      <line stroke="#000000" stroke-width="1" x1="259" x2="259" y1="351" y2="333"/>
      <line stroke="#000000" stroke-width="1" x1="255" x2="255" y1="351" y2="333"/>
      <line stroke="#000000" stroke-width="1" x1="251" x2="251" y1="351" y2="333"/>
      <line stroke="#000000" stroke-width="1" x1="247" x2="247" y1="351" y2="333"/>
      <line stroke="#000000" stroke-width="1" x1="243" x2="243" y1="351" y2="333"/>
      <line stroke="#000000" stroke-width="1" x1="224" x2="206" y1="271" y2="271"/>
      <line stroke="#000000" stroke-width="1" x1="224" x2="206" y1="275" y2="275"/>
      <line stroke="#000000" stroke-width="1" x1="224" x2="206" y1="279" y2="279"/>
      <line stroke="#000000" stroke-width="1" x1="224" x2="206" y1="283" y2="283"/>
      <line stroke="#000000" stroke-width="1" x1="224" x2="206" y1="287" y2="287"/>
      <line stroke="#000000" stroke-width="1" x1="224" x2="206" y1="291" y2="291"/>
      <line stroke="#000000" stroke-width="1" x1="224" x2="206" y1="295" y2="295"/>
      <line stroke="#000000" stroke-width="1" x1="224" x2="206" y1="299" y2="299"/>
      <line stroke="#000000" stroke-width="1" x1="224" x2="206" y1="303" y2="303"/>
      <line stroke="#000000" stroke-width="1" x1="224" x2="206" y1="307" y2="307"/>
      <line stroke="#000000" stroke-width="1" x1="224" x2="206" y1="311" y2="311"/>
      <line stroke="#000000" stroke-width="1" x1="224" x2="206" y1="315" y2="315"/>
      <line stroke="#000000" stroke-width="1" x1="124" x2="106" y1="258" y2="258"/>
      <line stroke="#000000" stroke-width="1" x1="124" x2="106" y1="262" y2="262"/>
      <line stroke="#000000" stroke-width="1" x1="124" x2="106" y1="266" y2="266"/>
      <line stroke="#000000" stroke-width="1" x1="124" x2="106" y1="270" y2="270"/>
      <line stroke="#000000" stroke-width="1" x1="124" x2="106" y1="274" y2="274"/>
      <line stroke="#000000" stroke-width="1" x1="124" x2="106" y1="278" y2="278"/>
      <line stroke="#000000" stroke-width="1" x1="124" x2="106" y1="282" y2="282"/>
      <line stroke="#000000" stroke-width="1" x1="124" x2="106" y1="286" y2="286"/>
      <line stroke="#000000" stroke-width="1" x1="124" x2="106" y1="290" y2="290"/>
      <line stroke="#000000" stroke-width="1" x1="124" x2="106" y1="294" y2="294"/>
      <line stroke="#000000" stroke-width="1" x1="124" x2="106" y1="298" y2="298"/>
      <line stroke="#000000" stroke-width="1" x1="124" x2="106" y1="302" y2="302"/>
      <line stroke="#000000" stroke-width="1" x1="272" x2="272" y1="738" y2="756"/>
      <line stroke="#000000" stroke-width="1" x1="268" x2="268" y1="738" y2="756"/>
      <line stroke="#000000" stroke-width="1" x1="264" x2="264" y1="738" y2="756"/>
      <line stroke="#000000" stroke-width="1" x1="260" x2="260" y1="738" y2="756"/>
      <line stroke="#000000" stroke-width="1" x1="256" x2="256" y1="738" y2="756"/>
      <line stroke="#000000" stroke-width="1" x1="252" x2="252" y1="738" y2="756"/>
      <line stroke="#000000" stroke-width="1" x1="248" x2="248" y1="738" y2="756"/>
      <line stroke="#000000" stroke-width="1" x1="244" x2="244" y1="738" y2="756"/>
      <line stroke="#000000" stroke-width="1" x1="240" x2="240" y1="738" y2="756"/>
      <line stroke="#000000" stroke-width="1" x1="236" x2="236" y1="738" y2="756"/>
      <line stroke="#000000" stroke-width="1" x1="232" x2="232" y1="738" y2="756"/>
      <line stroke="#000000" stroke-width="1" x1="228" x2="228" y1="738" y2="756"/>
      <line stroke="#000000" stroke-width="1" x1="17" x2="17" y1="715" y2="733"/>
      <line stroke="#000000" stroke-width="1" x1="21" x2="21" y1="715" y2="733"/>
      <line stroke="#000000" stroke-width="1" x1="25" x2="25" y1="715" y2="733"/>
      <line stroke="#000000" stroke-width="1" x1="29" x2="29" y1="715" y2="733"/>
      <line stroke="#000000" stroke-width="1" x1="33" x2="33" y1="715" y2="733"/>
      <line stroke="#000000" stroke-width="1" x1="37" x2="37" y1="715" y2="733"/>
      <line stroke="#000000" stroke-width="1" x1="41" x2="41" y1="715" y2="733"/>
      <line stroke="#000000" stroke-width="1" x1="45" x2="45" y1="715" y2="733"/>
      <line stroke="#000000" stroke-width="1" x1="49" x2="49" y1="715" y2="733"/>
      <line stroke="#000000" stroke-width="1" x1="53" x2="53" y1="715" y2="733"/>
      <line stroke="#000000" stroke-width="1" x1="57" x2="57" y1="715" y2="733"/>
      <line stroke="#000000" stroke-width="1" x1="61" x2="61" y1="715" y2="733"/>
      <line stroke="#000000" stroke-width="1" x1="157" x2="157" y1="738" y2="756"/>
      <line stroke="#000000" stroke-width="1" x1="161" x2="161" y1="738" y2="756"/>
      <line stroke="#000000" stroke-width="1" x1="165" x2="165" y1="738" y2="756"/>
      <line stroke="#000000" stroke-width="1" x1="169" x2="169" y1="738" y2="756"/>
      <line stroke="#000000" stroke-width="1" x1="173" x2="173" y1="738" y2="756"/>
      <line stroke="#000000" stroke-width="1" x1="177" x2="177" y1="738" y2="756"/>
      <line stroke="#000000" stroke-width="1" x1="181" x2="181" y1="738" y2="756"/>
      <line stroke="#000000" stroke-width="1" x1="185" x2="185" y1="738" y2="756"/>
      <line stroke="#000000" stroke-width="1" x1="189" x2="189" y1="738" y2="756"/>
      <line stroke="#000000" stroke-width="1" x1="193" x2="193" y1="738" y2="756"/>
      <line stroke="#000000" stroke-width="1" x1="197" x2="197" y1="738" y2="756"/>
      <line stroke="#000000" stroke-width="1" x1="201" x2="201" y1="738" y2="756"/>
      <line stroke="#000000" stroke-width="1" x1="405" x2="405" y1="576" y2="521"/>
      <line stroke="#000000" stroke-width="1" x1="409" x2="409" y1="576" y2="521"/>
      <line stroke="#000000" stroke-width="1" x1="413" x2="413" y1="576" y2="521"/>
      <line stroke="#000000" stroke-width="1" x1="417" x2="417" y1="576" y2="521"/>
      <line stroke="#000000" stroke-width="1" x1="421" x2="421" y1="576" y2="521"/>
      <line stroke="#000000" stroke-width="1" x1="425" x2="425" y1="576" y2="521"/>
      <line stroke="#000000" stroke-width="1" x1="429" x2="429" y1="576" y2="521"/>
      <line stroke="#000000" stroke-width="1" x1="433" x2="433" y1="576" y2="521"/>
      <line stroke="#000000" stroke-width="1" x1="437" x2="437" y1="576" y2="521"/>
      <line stroke="#000000" stroke-width="1" x1="441" x2="441" y1="576" y2="521"/>
      <line stroke="#000000" stroke-width="1" x1="445" x2="445" y1="576" y2="521"/>
      <line stroke="#000000" stroke-width="1" x1="449" x2="449" y1="576" y2="521"/>
      <polygon fill="#d0efff" points="81,733 69,733 69,745 81,745" stroke="#000000" stroke-width="1"/>
      <polygon fill="#d0efff" points="221,756 209,756 209,768 221,768" stroke="#000000" stroke-width="1"/>
      <polygon fill="#d0efff" points="423,576 411,576 411,588 423,588" stroke="#000000" stroke-width="1"/>
      <polygon fill="#d0efff" points="236,319 224,319 224,331 236,331" stroke="#000000" stroke-width="1"/>
      <polygon fill="#d0efff" points="106,305 94,305 94,317 106,317" stroke="#000000" stroke-width="1"/>
      <text fill="#000000" font-family="Arial" font-size="4" stroke="none" stroke-width="0" x="71" y="740.0">лифт</text>
      <text fill="#000000" font-family="Arial" font-size="4" stroke="none" stroke-width="0" x="211" y="763.0">лифт</text>
      <text fill="#000000" font-family="Arial" font-size="4" stroke="none" stroke-width="0" x="413" y="583.0">лифт</text>
      <text fill="#000000" font-family="Arial" font-size="4" stroke="none" stroke-width="0" x="226" y="326.0">лифт</text>
      <text fill="#000000" font-family="Arial" font-size="4" stroke="none" stroke-width="0" x="96" y="312.0">лифт</text>
      <text fill="#00afaf" font-family="Arial" font-size="15" stroke="none" stroke-width="0" x="273" y="424.0">улица Генерала Кузнецова</text>
      <text fill="#00afaf" font-family="Arial" font-size="15" stroke="none" stroke-width="0" x="357" y="700.0">улица Генерала Кузнецова (дублёр)</text>
      <text fill="#00afaf" font-family="Arial" font-size="15" stroke="none" stroke-width="0" transform="rotate(90.0,602,169)" x="602" y="184.0">улица авиаконструктора Миля</text>
      <text fill="#00afaf" font-family="Arial" font-size="15" stroke="none" stroke-width="0" transform="rotate(90.0,175,167)" x="175" y="182.0">улица авиаконструктора Миля</text>
      <text fill="#00afaf" font-family="Arial" font-size="15" stroke="none" stroke-width="0" transform="rotate(130.0,85,791)" x="85" y="806.0">улица авиаконструктора Миля</text>
      <text fill="#00afaf" font-family="Arial" font-size="15" stroke="none" stroke-width="0" transform="rotate(90.0,598,734)" x="598" y="749.0">Тарханская улица</text>
    </g>
    <g>
      <rect fill="#615f56" height="30" stroke="none" stroke-width="0" width="30" x="568" y="835"/>
      <rect fill="#615f56" height="30" stroke="none" stroke-width="0" width="30" x="503" y="921"/>
      <rect fill="#615f56" height="30" stroke="none" stroke-width="0" width="30" x="413" y="1010"/>
      <rect fill="#615f56" height="30" stroke="none" stroke-width="0" width="30" x="37" y="745"/>
      <rect fill="#615f56" height="30" stroke="none" stroke-width="0" width="30" x="18" y="687"/>
      <rect fill="#615f56" height="30" stroke="none" stroke-width="0" width="30" x="129" y="556"/>
      <rect fill="#615f56" height="30" stroke="none" stroke-width="0" width="30" x="182" y="550"/>
      <rect fill="#615f56" height="30" stroke="none" stroke-width="0" width="30" x="503" y="89"/>
      <rect fill="#615f56" height="30" stroke="none" stroke-width="0" width="30" x="570" y="0"/>
      <rect fill="#615f56" height="30" stroke="none" stroke-width="0" width="30" x="907" y="216"/>
      <rect fill="#615f56" height="30" stroke="none" stroke-width="0" width="30" x="912" y="346"/>
      <text fill="#ffd900" font-family="Arial" font-size="25" stroke="none" stroke-width="0" x="576" y="861.0">1</text>
      <text fill="#ffd900" font-family="Arial" font-size="25" stroke="none" stroke-width="0" x="511" y="947.0">2</text>
      <text fill="#ffd900" font-family="Arial" font-size="25" stroke="none" stroke-width="0" x="421" y="1036.0">3</text>
      <text fill="#ffd900" font-family="Arial" font-size="25" stroke="none" stroke-width="0" x="45" y="771.0">4</text>
      <text fill="#ffd900" font-family="Arial" font-size="25" stroke="none" stroke-width="0" x="26" y="713.0">5</text>
      <text fill="#ffd900" font-family="Arial" font-size="25" stroke="none" stroke-width="0" x="137" y="582.0">6</text>
      <text fill="#ffd900" font-family="Arial" font-size="25" stroke="none" stroke-width="0" x="190" y="576.0">7</text>
      <text fill="#ffd900" font-family="Arial" font-size="25" stroke="none" stroke-width="0" x="511" y="115.0">8</text>
      <text fill="#ffd900" font-family="Arial" font-size="25" stroke="none" stroke-width="0" x="578" y="26.0">9</text>
      <text fill="#ffd900" font-family="Arial" font-size="25" stroke="none" stroke-width="0" x="909" y="244.0">10</text>
      <text fill="#ffd900" font-family="Arial" font-size="25" stroke="none" stroke-width="0" x="914" y="374.0">11</text>
    </g>
  </g>
</svg>
